<?xml version="1.0" encoding="UTF-8" standalone="no"?>
<!DOCTYPE svg PUBLIC "-//W3C//DTD SVG 1.1//EN"
 "http://www.w3.org/Graphics/SVG/1.1/DTD/svg11.dtd">
<!-- Generated by graphviz version 2.43.0 (0)
 -->
<!-- Title: frozen Pages: 1 -->
<svg width="238pt" height="148pt"
 viewBox="0.00 0.00 238.00 148.00" xmlns="http://www.w3.org/2000/svg" xmlns:xlink="http://www.w3.org/1999/xlink">
<g id="graph0" class="graph" transform="scale(1 1) rotate(0) translate(4 144)">
<title>frozen</title>
<polygon fill="#ffffff" stroke="transparent" points="-4,4 -4,-144 234,-144 234,4 -4,4"/>
<!-- frozen -->
<g id="node1" class="node">
<title>frozen</title>
<g id="a_node1"><a xlink:href="../../tables/frozen.html" xlink:title="frozen" target="_top">
<polygon fill="#ffffff" stroke="transparent" points="8,-4 8,-136 222,-136 222,-4 8,-4"/>
<polygon fill="#f5f5f5" stroke="transparent" points="10,-112 10,-134 220,-134 220,-112 10,-112"/>
<polygon fill="none" stroke="black" points="10,-112 10,-134 220,-134 220,-112 10,-112"/>
<text text-anchor="start" x="15" y="-121.2" font-family="Helvetica,sans-Serif" font-weight="bold" font-size="11.00">frozen</text>
<text text-anchor="start" x="185" y="-120.2" font-family="Helvetica,sans-Serif" font-size="11.00">[table]</text>
<polygon fill="none" stroke="black" points="10,-90 10,-112 122,-112 122,-90 10,-90"/>
<text text-anchor="start" x="30" y="-98.2" font-family="Helvetica,sans-Serif" font-size="11.00">datasetid</text>
<polygon fill="none" stroke="black" points="122,-90 122,-112 220,-112 220,-90 122,-90"/>
<text text-anchor="start" x="125" y="-98.2" font-family="Helvetica,sans-Serif" font-size="11.00">int4[10]</text>
<polygon fill="none" stroke="black" points="10,-68 10,-90 122,-90 122,-68 10,-68"/>
<text text-anchor="start" x="30" y="-76.2" font-family="Helvetica,sans-Serif" font-size="11.00">download</text>
<polygon fill="none" stroke="black" points="122,-68 122,-90 220,-90 220,-68 122,-68"/>
<text text-anchor="start" x="125" y="-76.2" font-family="Helvetica,sans-Serif" font-size="11.00">jsonb[2147483647]</text>
<polygon fill="none" stroke="black" points="10,-46 10,-68 122,-68 122,-46 10,-46"/>
<text text-anchor="start" x="30" y="-54.2" font-family="Helvetica,sans-Serif" font-size="11.00">recdatecreated</text>
<polygon fill="none" stroke="black" points="122,-46 122,-68 220,-68 220,-46 122,-46"/>
<text text-anchor="start" x="125" y="-54.2" font-family="Helvetica,sans-Serif" font-size="11.00">timestamp[29,6]</text>
<polygon fill="none" stroke="black" points="10,-24 10,-46 122,-46 122,-24 10,-24"/>
<text text-anchor="start" x="30" y="-32.2" font-family="Helvetica,sans-Serif" font-size="11.00">recmodified</text>
<polygon fill="none" stroke="black" points="122,-24 122,-46 220,-46 220,-24 122,-24"/>
<text text-anchor="start" x="125" y="-32.2" font-family="Helvetica,sans-Serif" font-size="11.00">timestamp[29,6]</text>
<polygon fill="#ffffff" stroke="transparent" points="10,-6 10,-24 44,-24 44,-6 10,-6"/>
<polygon fill="none" stroke="black" points="10,-6 10,-24 44,-24 44,-6 10,-6"/>
<text text-anchor="start" x="13" y="-12.2" font-family="Helvetica,sans-Serif" font-size="11.00">&lt; 0</text>
<polygon fill="#ffffff" stroke="transparent" points="44,-6 44,-24 122,-24 122,-6 44,-6"/>
<polygon fill="none" stroke="black" points="44,-6 44,-24 122,-24 122,-6 44,-6"/>
<text text-anchor="start" x="59" y="-12.2" font-family="Helvetica,sans-Serif" font-size="11.00">41,183 rows</text>
<polygon fill="#ffffff" stroke="transparent" points="122,-6 122,-24 220,-24 220,-6 122,-6"/>
<polygon fill="none" stroke="black" points="122,-6 122,-24 220,-24 220,-6 122,-6"/>
<text text-anchor="start" x="201" y="-12.2" font-family="Helvetica,sans-Serif" font-size="11.00">0 &gt;</text>
<polygon fill="none" stroke="black" stroke-width="2" points="9,-5 9,-135 221,-135 221,-5 9,-5"/>
</a>
</g>
</g>
</g>
</svg>
