<?xml version="1.0" encoding="UTF-8" standalone="no"?>
<!DOCTYPE svg PUBLIC "-//W3C//DTD SVG 1.1//EN"
 "http://www.w3.org/Graphics/SVG/1.1/DTD/svg11.dtd">
<!-- Generated by graphviz version 2.43.0 (0)
 -->
<!-- Title: oneDegreeRelationshipsDiagramImplied Pages: 1 -->
<svg width="623pt" height="705pt"
 viewBox="0.00 0.00 623.00 705.00" xmlns="http://www.w3.org/2000/svg" xmlns:xlink="http://www.w3.org/1999/xlink">
<g id="graph0" class="graph" transform="scale(1 1) rotate(0) translate(4 701)">
<title>oneDegreeRelationshipsDiagramImplied</title>
<polygon fill="#ffffff" stroke="transparent" points="-4,4 -4,-701 619,-701 619,4 -4,4"/>
<text text-anchor="middle" x="71.5" y="-7.2" font-family="Helvetica,sans-Serif" font-size="11.00">Generated by SchemaSpy</text>
<!-- aggregatechronologies -->
<g id="node1" class="node">
<title>aggregatechronologies</title>
<g id="a_node1"><a xlink:href="../../tables/aggregatechronologies.html" xlink:title="aggregatechronologies" target="_top">
<polygon fill="#ffffff" stroke="transparent" points="255,-569 255,-693 421,-693 421,-569 255,-569"/>
<polygon fill="#f5f5f5" stroke="transparent" points="255,-671 255,-693 421,-693 421,-671 255,-671"/>
<polygon fill="none" stroke="black" points="255,-671 255,-693 421,-693 421,-671 255,-671"/>
<text text-anchor="start" x="260" y="-680.2" font-family="Helvetica,sans-Serif" font-weight="bold" font-size="11.00">aggregatechronologies</text>
<text text-anchor="start" x="386" y="-679.2" font-family="Helvetica,sans-Serif" font-size="11.00">[table]</text>
<polygon fill="none" stroke="black" points="255,-649 255,-671 421,-671 421,-649 255,-649"/>
<image xlink:href="../../images/primaryKeys.png" width="11px" height="12px" preserveAspectRatio="xMinYMin meet" x="260" y="-666"/>
<text text-anchor="start" x="278" y="-657.2" font-family="Helvetica,sans-Serif" font-size="11.00">aggregatechronid</text>
<polygon fill="none" stroke="black" points="255,-627 255,-649 421,-649 421,-627 255,-627"/>
<image xlink:href="../../images/foreignKeys.png" width="11px" height="12px" preserveAspectRatio="xMinYMin meet" x="260" y="-644"/>
<text text-anchor="start" x="278" y="-635.2" font-family="Helvetica,sans-Serif" font-size="11.00">aggregatedatasetid</text>
<polygon fill="none" stroke="black" points="255,-605 255,-627 421,-627 421,-605 255,-605"/>
<image xlink:href="../../images/foreignKeys.png" width="11px" height="12px" preserveAspectRatio="xMinYMin meet" x="260" y="-622"/>
<text text-anchor="start" x="278" y="-613.2" font-family="Helvetica,sans-Serif" font-size="11.00">agetypeid</text>
<polygon fill="none" stroke="black" points="255,-587 255,-605 421,-605 421,-587 255,-587"/>
<text text-anchor="start" x="258" y="-593.2" font-family="Helvetica,sans-Serif" font-size="11.00">...</text>
<polygon fill="#ffffff" stroke="transparent" points="255,-569 255,-587 318,-587 318,-569 255,-569"/>
<polygon fill="none" stroke="black" points="255,-569 255,-587 318,-587 318,-569 255,-569"/>
<text text-anchor="start" x="258" y="-575.2" font-family="Helvetica,sans-Serif" font-size="11.00">&lt; 2</text>
<polygon fill="#ffffff" stroke="transparent" points="318,-569 318,-587 378,-587 378,-569 318,-569"/>
<polygon fill="none" stroke="black" points="318,-569 318,-587 378,-587 378,-569 318,-569"/>
<text text-anchor="start" x="342" y="-575.2" font-family="Helvetica,sans-Serif" font-size="11.00">7 rows</text>
<polygon fill="#ffffff" stroke="transparent" points="378,-569 378,-587 421,-587 421,-569 378,-569"/>
<polygon fill="none" stroke="black" points="378,-569 378,-587 421,-587 421,-569 378,-569"/>
<text text-anchor="start" x="402" y="-575.2" font-family="Helvetica,sans-Serif" font-size="11.00">1 &gt;</text>
</a>
</g>
</g>
<!-- agetypes -->
<g id="node2" class="node">
<title>agetypes</title>
<g id="a_node2"><a xlink:href="../../tables/agetypes.html" xlink:title="agetypes" target="_top">
<polygon fill="#ffffff" stroke="transparent" points="8,-193 8,-369 206,-369 206,-193 8,-193"/>
<polygon fill="#f5f5f5" stroke="transparent" points="10,-345 10,-367 204,-367 204,-345 10,-345"/>
<polygon fill="none" stroke="black" points="10,-345 10,-367 204,-367 204,-345 10,-345"/>
<text text-anchor="start" x="15" y="-354.2" font-family="Helvetica,sans-Serif" font-weight="bold" font-size="11.00">agetypes</text>
<text text-anchor="start" x="169" y="-353.2" font-family="Helvetica,sans-Serif" font-size="11.00">[table]</text>
<polygon fill="none" stroke="black" points="10,-323 10,-345 130,-345 130,-323 10,-323"/>
<image xlink:href="../../images/primaryKeys.png" width="11px" height="12px" preserveAspectRatio="xMinYMin meet" x="15" y="-340"/>
<text text-anchor="start" x="30" y="-331.2" font-family="Helvetica,sans-Serif" font-size="11.00">agetypeid</text>
<polygon fill="none" stroke="black" points="130,-323 130,-345 204,-345 204,-323 130,-323"/>
<text text-anchor="start" x="133" y="-331.2" font-family="Helvetica,sans-Serif" font-size="11.00">serial[10]</text>
<polygon fill="none" stroke="black" points="10,-301 10,-323 130,-323 130,-301 10,-301"/>
<text text-anchor="start" x="30" y="-309.2" font-family="Helvetica,sans-Serif" font-size="11.00">agetype</text>
<polygon fill="none" stroke="black" points="130,-301 130,-323 204,-323 204,-301 130,-301"/>
<text text-anchor="start" x="133" y="-309.2" font-family="Helvetica,sans-Serif" font-size="11.00">varchar[64]</text>
<polygon fill="none" stroke="black" points="10,-279 10,-301 130,-301 130,-279 10,-279"/>
<text text-anchor="start" x="30" y="-287.2" font-family="Helvetica,sans-Serif" font-size="11.00">precedence</text>
<polygon fill="none" stroke="black" points="130,-279 130,-301 204,-301 204,-279 130,-279"/>
<text text-anchor="start" x="133" y="-287.2" font-family="Helvetica,sans-Serif" font-size="11.00">int4[10]</text>
<polygon fill="none" stroke="black" points="10,-257 10,-279 130,-279 130,-257 10,-257"/>
<text text-anchor="start" x="30" y="-265.2" font-family="Helvetica,sans-Serif" font-size="11.00">shortagetype</text>
<polygon fill="none" stroke="black" points="130,-257 130,-279 204,-279 204,-257 130,-257"/>
<text text-anchor="start" x="133" y="-265.2" font-family="Helvetica,sans-Serif" font-size="11.00">varchar[32]</text>
<polygon fill="none" stroke="black" points="10,-235 10,-257 130,-257 130,-235 10,-235"/>
<text text-anchor="start" x="30" y="-243.2" font-family="Helvetica,sans-Serif" font-size="11.00">recdatecreated</text>
<polygon fill="none" stroke="black" points="130,-235 130,-257 204,-257 204,-235 130,-235"/>
<text text-anchor="start" x="133" y="-243.2" font-family="Helvetica,sans-Serif" font-size="11.00">timestamp[22]</text>
<polygon fill="none" stroke="black" points="10,-213 10,-235 130,-235 130,-213 10,-213"/>
<text text-anchor="start" x="30" y="-221.2" font-family="Helvetica,sans-Serif" font-size="11.00">recdatemodified</text>
<polygon fill="none" stroke="black" points="130,-213 130,-235 204,-235 204,-213 130,-213"/>
<text text-anchor="start" x="133" y="-221.2" font-family="Helvetica,sans-Serif" font-size="11.00">timestamp[22]</text>
<polygon fill="#ffffff" stroke="transparent" points="10,-195 10,-213 61,-213 61,-195 10,-195"/>
<polygon fill="none" stroke="black" points="10,-195 10,-213 61,-213 61,-195 10,-195"/>
<text text-anchor="start" x="13" y="-201.2" font-family="Helvetica,sans-Serif" font-size="11.00">&lt; 0</text>
<polygon fill="#ffffff" stroke="transparent" points="61,-195 61,-213 130,-213 130,-195 61,-195"/>
<polygon fill="none" stroke="black" points="61,-195 61,-213 130,-213 130,-195 61,-195"/>
<text text-anchor="start" x="94" y="-201.2" font-family="Helvetica,sans-Serif" font-size="11.00">5 rows</text>
<polygon fill="#ffffff" stroke="transparent" points="130,-195 130,-213 204,-213 204,-195 130,-195"/>
<polygon fill="none" stroke="black" points="130,-195 130,-213 204,-213 204,-195 130,-195"/>
<text text-anchor="start" x="185" y="-201.2" font-family="Helvetica,sans-Serif" font-size="11.00">5 &gt;</text>
<polygon fill="none" stroke="black" stroke-width="2" points="9,-194 9,-368 205,-368 205,-194 9,-194"/>
</a>
</g>
</g>
<!-- aggregatechronologies&#45;&gt;agetypes -->
<g id="edge1" class="edge">
<title>aggregatechronologies:w&#45;&gt;agetypes:e</title>
<path fill="none" stroke="black" d="M240.56,-610.11C202.79,-569.61 263.14,-334 205,-334"/>
<polygon fill="black" stroke="black" points="246.67,-612.79 252.55,-619.3 250.34,-614.39 254,-616 254,-616 254,-616 250.34,-614.39 255.45,-612.7 246.67,-612.79 246.67,-612.79"/>
<ellipse fill="none" stroke="black" cx="243.74" cy="-611.5" rx="3.2" ry="3.2"/>
</g>
<!-- chroncontrols -->
<g id="node3" class="node">
<title>chroncontrols</title>
<g id="a_node3"><a xlink:href="../../tables/chroncontrols.html" xlink:title="chroncontrols" target="_top">
<polygon fill="#ffffff" stroke="transparent" points="470,-311 470,-545 607,-545 607,-311 470,-311"/>
<polygon fill="#f5f5f5" stroke="transparent" points="470.5,-523 470.5,-545 607.5,-545 607.5,-523 470.5,-523"/>
<polygon fill="none" stroke="black" points="470.5,-523 470.5,-545 607.5,-545 607.5,-523 470.5,-523"/>
<text text-anchor="start" x="475.5" y="-532.2" font-family="Helvetica,sans-Serif" font-weight="bold" font-size="11.00">chroncontrols</text>
<text text-anchor="start" x="572.5" y="-531.2" font-family="Helvetica,sans-Serif" font-size="11.00">[table]</text>
<polygon fill="none" stroke="black" points="470.5,-501 470.5,-523 607.5,-523 607.5,-501 470.5,-501"/>
<image xlink:href="../../images/primaryKeys.png" width="11px" height="12px" preserveAspectRatio="xMinYMin meet" x="475.5" y="-518"/>
<text text-anchor="start" x="490.5" y="-509.2" font-family="Helvetica,sans-Serif" font-size="11.00">chroncontrolid</text>
<polygon fill="none" stroke="black" points="470.5,-479 470.5,-501 607.5,-501 607.5,-479 470.5,-479"/>
<image xlink:href="../../images/foreignKeys.png" width="11px" height="12px" preserveAspectRatio="xMinYMin meet" x="475.5" y="-496"/>
<text text-anchor="start" x="490.5" y="-487.2" font-family="Helvetica,sans-Serif" font-size="11.00">chronologyid</text>
<polygon fill="none" stroke="black" points="470.5,-457 470.5,-479 607.5,-479 607.5,-457 470.5,-457"/>
<image xlink:href="../../images/foreignKeys.png" width="11px" height="12px" preserveAspectRatio="xMinYMin meet" x="475.5" y="-474"/>
<text text-anchor="start" x="490.5" y="-465.2" font-family="Helvetica,sans-Serif" font-size="11.00">chroncontroltypeid</text>
<polygon fill="#ffffff" stroke="transparent" points="470.5,-435 470.5,-457 607.5,-457 607.5,-435 470.5,-435"/>
<polygon fill="none" stroke="black" points="470.5,-435 470.5,-457 607.5,-457 607.5,-435 470.5,-435"/>
<text text-anchor="start" x="490.5" y="-443.2" font-family="Helvetica,sans-Serif" font-size="11.00">age</text>
<polygon fill="#ffffff" stroke="transparent" points="470.5,-413 470.5,-435 607.5,-435 607.5,-413 470.5,-413"/>
<polygon fill="none" stroke="black" points="470.5,-413 470.5,-435 607.5,-435 607.5,-413 470.5,-413"/>
<text text-anchor="start" x="490.5" y="-421.2" font-family="Helvetica,sans-Serif" font-size="11.00">agelimityounger</text>
<polygon fill="#ffffff" stroke="transparent" points="470.5,-391 470.5,-413 607.5,-413 607.5,-391 470.5,-391"/>
<polygon fill="none" stroke="black" points="470.5,-391 470.5,-413 607.5,-413 607.5,-391 470.5,-391"/>
<text text-anchor="start" x="490.5" y="-399.2" font-family="Helvetica,sans-Serif" font-size="11.00">agelimitolder</text>
<polygon fill="none" stroke="black" points="470.5,-369 470.5,-391 607.5,-391 607.5,-369 470.5,-369"/>
<image xlink:href="../../images/foreignKeys.png" width="11px" height="12px" preserveAspectRatio="xMinYMin meet" x="475.5" y="-386"/>
<text text-anchor="start" x="490.5" y="-377.2" font-family="Helvetica,sans-Serif" font-size="11.00">analysisunitid</text>
<polygon fill="none" stroke="black" points="470.5,-347 470.5,-369 607.5,-369 607.5,-347 470.5,-347"/>
<image xlink:href="../../images/foreignKeys.png" width="11px" height="12px" preserveAspectRatio="xMinYMin meet" x="475.5" y="-364"/>
<text text-anchor="start" x="490.5" y="-355.2" font-family="Helvetica,sans-Serif" font-size="11.00">agetypeid</text>
<polygon fill="none" stroke="black" points="470.5,-329 470.5,-347 607.5,-347 607.5,-329 470.5,-329"/>
<text text-anchor="start" x="473.5" y="-335.2" font-family="Helvetica,sans-Serif" font-size="11.00">...</text>
<polygon fill="#ffffff" stroke="transparent" points="470.5,-311 470.5,-329 502.5,-329 502.5,-311 470.5,-311"/>
<polygon fill="none" stroke="black" points="470.5,-311 470.5,-329 502.5,-329 502.5,-311 470.5,-311"/>
<text text-anchor="start" x="473.5" y="-317.2" font-family="Helvetica,sans-Serif" font-size="11.00">&lt; 4</text>
<polygon fill="#ffffff" stroke="transparent" points="502.5,-311 502.5,-329 579.5,-329 579.5,-311 502.5,-311"/>
<polygon fill="none" stroke="black" points="502.5,-311 502.5,-329 579.5,-329 579.5,-311 502.5,-311"/>
<text text-anchor="start" x="510.5" y="-317.2" font-family="Helvetica,sans-Serif" font-size="11.00">100,724 rows</text>
<polygon fill="#ffffff" stroke="transparent" points="579.5,-311 579.5,-329 607.5,-329 607.5,-311 579.5,-311"/>
<polygon fill="none" stroke="black" points="579.5,-311 579.5,-329 607.5,-329 607.5,-311 579.5,-311"/>
<text text-anchor="start" x="588.5" y="-317.2" font-family="Helvetica,sans-Serif" font-size="11.00">5 &gt;</text>
</a>
</g>
</g>
<!-- chroncontrols&#45;&gt;agetypes -->
<g id="edge2" class="edge">
<title>chroncontrols:w&#45;&gt;agetypes:e</title>
<path fill="none" stroke="black" d="M455.02,-356.09C446.99,-353.75 441.31,-349.89 429,-348 330.4,-332.87 304.75,-334 205,-334"/>
<polygon fill="black" stroke="black" points="461.57,-356.95 469.03,-361.57 465.53,-357.48 469.5,-358 469.5,-358 469.5,-358 465.53,-357.48 469.97,-354.43 461.57,-356.95 461.57,-356.95"/>
<ellipse fill="none" stroke="black" cx="458.4" cy="-356.53" rx="3.2" ry="3.2"/>
</g>
<!-- chronologies -->
<g id="node4" class="node">
<title>chronologies</title>
<g id="a_node4"><a xlink:href="../../tables/chronologies.html" xlink:title="chronologies" target="_top">
<polygon fill="#ffffff" stroke="transparent" points="272.5,-358 272.5,-548 403.5,-548 403.5,-358 272.5,-358"/>
<polygon fill="#f5f5f5" stroke="transparent" points="273,-526 273,-548 404,-548 404,-526 273,-526"/>
<polygon fill="none" stroke="black" points="273,-526 273,-548 404,-548 404,-526 273,-526"/>
<text text-anchor="start" x="278" y="-535.2" font-family="Helvetica,sans-Serif" font-weight="bold" font-size="11.00">chronologies</text>
<text text-anchor="start" x="369" y="-534.2" font-family="Helvetica,sans-Serif" font-size="11.00">[table]</text>
<polygon fill="none" stroke="black" points="273,-504 273,-526 404,-526 404,-504 273,-504"/>
<image xlink:href="../../images/primaryKeys.png" width="11px" height="12px" preserveAspectRatio="xMinYMin meet" x="278" y="-521"/>
<text text-anchor="start" x="293" y="-512.2" font-family="Helvetica,sans-Serif" font-size="11.00">chronologyid</text>
<polygon fill="none" stroke="black" points="273,-482 273,-504 404,-504 404,-482 273,-482"/>
<image xlink:href="../../images/foreignKeys.png" width="11px" height="12px" preserveAspectRatio="xMinYMin meet" x="278" y="-499"/>
<text text-anchor="start" x="293" y="-490.2" font-family="Helvetica,sans-Serif" font-size="11.00">collectionunitid</text>
<polygon fill="none" stroke="black" points="273,-460 273,-482 404,-482 404,-460 273,-460"/>
<image xlink:href="../../images/foreignKeys.png" width="11px" height="12px" preserveAspectRatio="xMinYMin meet" x="278" y="-477"/>
<text text-anchor="start" x="293" y="-468.2" font-family="Helvetica,sans-Serif" font-size="11.00">agetypeid</text>
<polygon fill="none" stroke="black" points="273,-438 273,-460 404,-460 404,-438 273,-438"/>
<image xlink:href="../../images/foreignKeys.png" width="11px" height="12px" preserveAspectRatio="xMinYMin meet" x="278" y="-455"/>
<text text-anchor="start" x="293" y="-446.2" font-family="Helvetica,sans-Serif" font-size="11.00">contactid</text>
<polygon fill="#ffffff" stroke="transparent" points="273,-416 273,-438 404,-438 404,-416 273,-416"/>
<polygon fill="none" stroke="black" points="273,-416 273,-438 404,-438 404,-416 273,-416"/>
<text text-anchor="start" x="293" y="-424.2" font-family="Helvetica,sans-Serif" font-size="11.00">ageboundyounger</text>
<polygon fill="#ffffff" stroke="transparent" points="273,-394 273,-416 404,-416 404,-394 273,-394"/>
<polygon fill="none" stroke="black" points="273,-394 273,-416 404,-416 404,-394 273,-394"/>
<text text-anchor="start" x="293" y="-402.2" font-family="Helvetica,sans-Serif" font-size="11.00">ageboundolder</text>
<polygon fill="none" stroke="black" points="273,-376 273,-394 404,-394 404,-376 273,-376"/>
<text text-anchor="start" x="276" y="-382.2" font-family="Helvetica,sans-Serif" font-size="11.00">...</text>
<polygon fill="#ffffff" stroke="transparent" points="273,-358 273,-376 305,-376 305,-358 273,-358"/>
<polygon fill="none" stroke="black" points="273,-358 273,-376 305,-376 305,-358 273,-358"/>
<text text-anchor="start" x="276" y="-364.2" font-family="Helvetica,sans-Serif" font-size="11.00">&lt; 3</text>
<polygon fill="#ffffff" stroke="transparent" points="305,-358 305,-376 376,-376 376,-358 305,-358"/>
<polygon fill="none" stroke="black" points="305,-358 305,-376 376,-376 376,-358 305,-358"/>
<text text-anchor="start" x="313" y="-364.2" font-family="Helvetica,sans-Serif" font-size="11.00">31,133 rows</text>
<polygon fill="#ffffff" stroke="transparent" points="376,-358 376,-376 404,-376 404,-358 376,-358"/>
<polygon fill="none" stroke="black" points="376,-358 376,-376 404,-376 404,-358 376,-358"/>
<text text-anchor="start" x="385" y="-364.2" font-family="Helvetica,sans-Serif" font-size="11.00">3 &gt;</text>
</a>
</g>
</g>
<!-- chroncontrols&#45;&gt;chronologies -->
<g id="edge3" class="edge">
<title>chroncontrols:w&#45;&gt;chronologies:e</title>
<path fill="none" stroke="black" d="M455.03,-492.22C436.72,-498.34 430.1,-515 405,-515"/>
<polygon fill="black" stroke="black" points="461.59,-491.21 470.05,-493.56 465.55,-490.61 469.5,-490 469.5,-490 469.5,-490 465.55,-490.61 468.95,-486.44 461.59,-491.21 461.59,-491.21"/>
<ellipse fill="none" stroke="black" cx="458.43" cy="-491.7" rx="3.2" ry="3.2"/>
</g>
<!-- chronologies&#45;&gt;agetypes -->
<g id="edge4" class="edge">
<title>chronologies:w&#45;&gt;agetypes:e</title>
<path fill="none" stroke="black" d="M257.65,-468.26C214.77,-448.95 267.09,-334 205,-334"/>
<polygon fill="black" stroke="black" points="264.14,-469.5 271.33,-474.54 268.07,-470.25 272,-471 272,-471 272,-471 268.07,-470.25 272.67,-467.46 264.14,-469.5 264.14,-469.5"/>
<ellipse fill="none" stroke="black" cx="261" cy="-468.9" rx="3.2" ry="3.2"/>
</g>
<!-- dsageranges -->
<g id="node5" class="node">
<title>dsageranges</title>
<g id="a_node5"><a xlink:href="../../tables/dsageranges.html" xlink:title="dsageranges" target="_top">
<polygon fill="#ffffff" stroke="transparent" points="283,-226 283,-310 393,-310 393,-226 283,-226"/>
<polygon fill="#f5f5f5" stroke="transparent" points="283,-288 283,-310 393,-310 393,-288 283,-288"/>
<polygon fill="none" stroke="black" points="283,-288 283,-310 393,-310 393,-288 283,-288"/>
<text text-anchor="start" x="288" y="-297.2" font-family="Helvetica,sans-Serif" font-weight="bold" font-size="11.00">dsageranges</text>
<text text-anchor="start" x="360" y="-296.2" font-family="Helvetica,sans-Serif" font-size="11.00">[view]</text>
<polygon fill="none" stroke="black" points="283,-266 283,-288 393,-288 393,-266 283,-266"/>
<image xlink:href="../../images/foreignKeys.png" width="11px" height="12px" preserveAspectRatio="xMinYMin meet" x="288" y="-283"/>
<text text-anchor="start" x="310" y="-274.2" font-family="Helvetica,sans-Serif" font-size="11.00">datasetid</text>
<polygon fill="none" stroke="black" points="283,-244 283,-266 393,-266 393,-244 283,-244"/>
<image xlink:href="../../images/foreignKeys.png" width="11px" height="12px" preserveAspectRatio="xMinYMin meet" x="288" y="-261"/>
<text text-anchor="start" x="310" y="-252.2" font-family="Helvetica,sans-Serif" font-size="11.00">agetypeid</text>
<polygon fill="none" stroke="black" points="283,-226 283,-244 393,-244 393,-226 283,-226"/>
<text text-anchor="start" x="286" y="-232.2" font-family="Helvetica,sans-Serif" font-size="11.00">...</text>
</a>
</g>
</g>
<!-- dsageranges&#45;&gt;agetypes -->
<g id="edge5" class="edge">
<title>dsageranges:w&#45;&gt;agetypes:e</title>
<path fill="none" stroke="black" stroke-dasharray="5,2" d="M267.83,-257.81C236.84,-271.88 248.48,-334 205,-334"/>
<polygon fill="black" stroke="black" points="274.15,-256.56 282.7,-258.53 278.08,-255.78 282,-255 282,-255 282,-255 278.08,-255.78 281.3,-251.47 274.15,-256.56 274.15,-256.56"/>
<ellipse fill="none" stroke="black" cx="271.01" cy="-257.18" rx="3.2" ry="3.2"/>
</g>
<!-- geochronology -->
<g id="node6" class="node">
<title>geochronology</title>
<g id="a_node6"><a xlink:href="../../tables/geochronology.html" xlink:title="geochronology" target="_top">
<polygon fill="#ffffff" stroke="transparent" points="276,-37 276,-205 400,-205 400,-37 276,-37"/>
<polygon fill="#f5f5f5" stroke="transparent" points="276,-183 276,-205 400,-205 400,-183 276,-183"/>
<polygon fill="none" stroke="black" points="276,-183 276,-205 400,-205 400,-183 276,-183"/>
<text text-anchor="start" x="281" y="-192.2" font-family="Helvetica,sans-Serif" font-weight="bold" font-size="11.00">geochronology</text>
<text text-anchor="start" x="365" y="-191.2" font-family="Helvetica,sans-Serif" font-size="11.00">[table]</text>
<polygon fill="none" stroke="black" points="276,-161 276,-183 400,-183 400,-161 276,-161"/>
<image xlink:href="../../images/primaryKeys.png" width="11px" height="12px" preserveAspectRatio="xMinYMin meet" x="281" y="-178"/>
<text text-anchor="start" x="298" y="-169.2" font-family="Helvetica,sans-Serif" font-size="11.00">geochronid</text>
<polygon fill="#ffffff" stroke="transparent" points="276,-139 276,-161 400,-161 400,-139 276,-139"/>
<polygon fill="none" stroke="black" points="276,-139 276,-161 400,-161 400,-139 276,-139"/>
<image xlink:href="../../images/foreignKeys.png" width="11px" height="12px" preserveAspectRatio="xMinYMin meet" x="281" y="-156"/>
<text text-anchor="start" x="298" y="-147.2" font-family="Helvetica,sans-Serif" font-size="11.00">sampleid</text>
<polygon fill="none" stroke="black" points="276,-117 276,-139 400,-139 400,-117 276,-117"/>
<image xlink:href="../../images/foreignKeys.png" width="11px" height="12px" preserveAspectRatio="xMinYMin meet" x="281" y="-134"/>
<text text-anchor="start" x="298" y="-125.2" font-family="Helvetica,sans-Serif" font-size="11.00">geochrontypeid</text>
<polygon fill="none" stroke="black" points="276,-95 276,-117 400,-117 400,-95 276,-95"/>
<image xlink:href="../../images/foreignKeys.png" width="11px" height="12px" preserveAspectRatio="xMinYMin meet" x="281" y="-112"/>
<text text-anchor="start" x="298" y="-103.2" font-family="Helvetica,sans-Serif" font-size="11.00">agetypeid</text>
<polygon fill="#ffffff" stroke="transparent" points="276,-73 276,-95 400,-95 400,-73 276,-73"/>
<polygon fill="none" stroke="black" points="276,-73 276,-95 400,-95 400,-73 276,-73"/>
<text text-anchor="start" x="298" y="-81.2" font-family="Helvetica,sans-Serif" font-size="11.00">age</text>
<polygon fill="none" stroke="black" points="276,-55 276,-73 400,-73 400,-55 276,-55"/>
<text text-anchor="start" x="279" y="-61.2" font-family="Helvetica,sans-Serif" font-size="11.00">...</text>
<polygon fill="#ffffff" stroke="transparent" points="276,-37 276,-55 305,-55 305,-37 276,-37"/>
<polygon fill="none" stroke="black" points="276,-37 276,-55 305,-55 305,-37 276,-37"/>
<text text-anchor="start" x="279" y="-43.2" font-family="Helvetica,sans-Serif" font-size="11.00">&lt; 3</text>
<polygon fill="#ffffff" stroke="transparent" points="305,-37 305,-55 374,-55 374,-37 305,-37"/>
<polygon fill="none" stroke="black" points="305,-37 305,-55 374,-55 374,-37 305,-37"/>
<text text-anchor="start" x="311" y="-43.2" font-family="Helvetica,sans-Serif" font-size="11.00">39,608 rows</text>
<polygon fill="#ffffff" stroke="transparent" points="374,-37 374,-55 400,-55 400,-37 374,-37"/>
<polygon fill="none" stroke="black" points="374,-37 374,-55 400,-55 400,-37 374,-37"/>
<text text-anchor="start" x="381" y="-43.2" font-family="Helvetica,sans-Serif" font-size="11.00">3 &gt;</text>
</a>
</g>
</g>
<!-- geochronology&#45;&gt;agetypes -->
<g id="edge6" class="edge">
<title>geochronology:w&#45;&gt;agetypes:e</title>
<path fill="none" stroke="black" d="M260.23,-107.84C183.29,-129.41 305.41,-334 205,-334"/>
<polygon fill="black" stroke="black" points="267.06,-106.99 275.44,-109.57 271.03,-106.49 275,-106 275,-106 275,-106 271.03,-106.49 274.56,-102.43 267.06,-106.99 267.06,-106.99"/>
<ellipse fill="none" stroke="black" cx="263.89" cy="-107.38" rx="3.2" ry="3.2"/>
</g>
</g>
</svg>
