<?xml version="1.0" encoding="UTF-8" standalone="no"?>
<!DOCTYPE svg PUBLIC "-//W3C//DTD SVG 1.1//EN"
 "http://www.w3.org/Graphics/SVG/1.1/DTD/svg11.dtd">
<!-- Generated by graphviz version 2.43.0 (0)
 -->
<!-- Title: twoDegreesRelationshipsDiagram Pages: 1 -->
<svg width="906pt" height="421pt"
 viewBox="0.00 0.00 906.00 421.00" xmlns="http://www.w3.org/2000/svg" xmlns:xlink="http://www.w3.org/1999/xlink">
<g id="graph0" class="graph" transform="scale(1 1) rotate(0) translate(4 417)">
<title>twoDegreesRelationshipsDiagram</title>
<polygon fill="#ffffff" stroke="transparent" points="-4,4 -4,-417 902,-417 902,4 -4,4"/>
<text text-anchor="middle" x="71.5" y="-7.2" font-family="Helvetica,sans-Serif" font-size="11.00">Generated by SchemaSpy</text>
<!-- aggregatechronologies -->
<g id="node1" class="node">
<title>aggregatechronologies</title>
<g id="a_node1"><a xlink:href="../../tables/aggregatechronologies.html" xlink:title="aggregatechronologies" target="_top">
<polygon fill="#ffffff" stroke="transparent" points="516,-239 516,-363 682,-363 682,-239 516,-239"/>
<polygon fill="#f5f5f5" stroke="transparent" points="516,-341 516,-363 682,-363 682,-341 516,-341"/>
<polygon fill="none" stroke="black" points="516,-341 516,-363 682,-363 682,-341 516,-341"/>
<text text-anchor="start" x="521" y="-350.2" font-family="Helvetica,sans-Serif" font-weight="bold" font-size="11.00">aggregatechronologies</text>
<text text-anchor="start" x="647" y="-349.2" font-family="Helvetica,sans-Serif" font-size="11.00">[table]</text>
<polygon fill="none" stroke="black" points="516,-319 516,-341 682,-341 682,-319 516,-319"/>
<image xlink:href="../../images/primaryKeys.png" width="11px" height="12px" preserveAspectRatio="xMinYMin meet" x="521" y="-336"/>
<text text-anchor="start" x="539" y="-327.2" font-family="Helvetica,sans-Serif" font-size="11.00">aggregatechronid</text>
<polygon fill="none" stroke="black" points="516,-297 516,-319 682,-319 682,-297 516,-297"/>
<image xlink:href="../../images/foreignKeys.png" width="11px" height="12px" preserveAspectRatio="xMinYMin meet" x="521" y="-314"/>
<text text-anchor="start" x="539" y="-305.2" font-family="Helvetica,sans-Serif" font-size="11.00">aggregatedatasetid</text>
<polygon fill="none" stroke="black" points="516,-275 516,-297 682,-297 682,-275 516,-275"/>
<image xlink:href="../../images/foreignKeys.png" width="11px" height="12px" preserveAspectRatio="xMinYMin meet" x="521" y="-292"/>
<text text-anchor="start" x="539" y="-283.2" font-family="Helvetica,sans-Serif" font-size="11.00">agetypeid</text>
<polygon fill="none" stroke="black" points="516,-257 516,-275 682,-275 682,-257 516,-257"/>
<text text-anchor="start" x="519" y="-263.2" font-family="Helvetica,sans-Serif" font-size="11.00">...</text>
<polygon fill="#ffffff" stroke="transparent" points="516,-239 516,-257 579,-257 579,-239 516,-239"/>
<polygon fill="none" stroke="black" points="516,-239 516,-257 579,-257 579,-239 516,-239"/>
<text text-anchor="start" x="519" y="-245.2" font-family="Helvetica,sans-Serif" font-size="11.00">&lt; 2</text>
<polygon fill="#ffffff" stroke="transparent" points="579,-239 579,-257 639,-257 639,-239 579,-239"/>
<polygon fill="none" stroke="black" points="579,-239 579,-257 639,-257 639,-239 579,-239"/>
<text text-anchor="start" x="603" y="-245.2" font-family="Helvetica,sans-Serif" font-size="11.00">7 rows</text>
<polygon fill="#ffffff" stroke="transparent" points="639,-239 639,-257 682,-257 682,-239 639,-239"/>
<polygon fill="none" stroke="black" points="639,-239 639,-257 682,-257 682,-239 639,-239"/>
<text text-anchor="start" x="663" y="-245.2" font-family="Helvetica,sans-Serif" font-size="11.00">1 &gt;</text>
</a>
</g>
</g>
<!-- agetypes -->
<g id="node2" class="node">
<title>agetypes</title>
<g id="a_node2"><a xlink:href="../../tables/agetypes.html" xlink:title="agetypes" target="_top">
<polygon fill="#ffffff" stroke="transparent" points="293,-154 293,-212 385,-212 385,-154 293,-154"/>
<polygon fill="#f5f5f5" stroke="transparent" points="293,-190 293,-212 385,-212 385,-190 293,-190"/>
<polygon fill="none" stroke="black" points="293,-190 293,-212 385,-212 385,-190 293,-190"/>
<text text-anchor="start" x="298" y="-199.2" font-family="Helvetica,sans-Serif" font-weight="bold" font-size="11.00">agetypes</text>
<text text-anchor="start" x="350" y="-198.2" font-family="Helvetica,sans-Serif" font-size="11.00">[table]</text>
<polygon fill="none" stroke="black" points="293,-172 293,-190 385,-190 385,-172 293,-172"/>
<text text-anchor="start" x="296" y="-178.2" font-family="Helvetica,sans-Serif" font-size="11.00">...</text>
<polygon fill="#ffffff" stroke="transparent" points="293,-154 293,-172 315,-172 315,-154 293,-154"/>
<polygon fill="none" stroke="black" points="293,-154 293,-172 315,-172 315,-154 293,-154"/>
<text text-anchor="start" x="296" y="-160.2" font-family="Helvetica,sans-Serif" font-size="11.00"> &#160;</text>
<polygon fill="#ffffff" stroke="transparent" points="315,-154 315,-172 358,-172 358,-154 315,-154"/>
<polygon fill="none" stroke="black" points="315,-154 315,-172 358,-172 358,-154 315,-154"/>
<text text-anchor="start" x="322" y="-160.2" font-family="Helvetica,sans-Serif" font-size="11.00">5 rows</text>
<polygon fill="#ffffff" stroke="transparent" points="358,-154 358,-172 385,-172 385,-154 358,-154"/>
<polygon fill="none" stroke="black" points="358,-154 358,-172 385,-172 385,-154 358,-154"/>
<text text-anchor="start" x="366" y="-160.2" font-family="Helvetica,sans-Serif" font-size="11.00">4 &gt;</text>
</a>
</g>
</g>
<!-- aggregatechronologies&#45;&gt;agetypes -->
<g id="edge1" class="edge">
<title>aggregatechronologies:w&#45;&gt;agetypes:e</title>
<path fill="none" stroke="black" d="M501.12,-282.07C487.09,-271.28 495.21,-240.83 475,-223 442.2,-194.06 429.74,-181 386,-181"/>
<polygon fill="black" stroke="black" points="507.3,-283.82 514.02,-289.46 511.15,-284.91 515,-286 515,-286 515,-286 511.15,-284.91 515.98,-282.54 507.3,-283.82 507.3,-283.82"/>
<ellipse fill="none" stroke="black" cx="504.22" cy="-282.95" rx="3.2" ry="3.2"/>
</g>
<!-- aggregatedatasets -->
<g id="node3" class="node">
<title>aggregatedatasets</title>
<g id="a_node3"><a xlink:href="../../tables/aggregatedatasets.html" xlink:title="aggregatedatasets" target="_top">
<polygon fill="#ffffff" stroke="transparent" points="211,-233 211,-409 467,-409 467,-233 211,-233"/>
<polygon fill="#f5f5f5" stroke="transparent" points="213,-385 213,-407 465,-407 465,-385 213,-385"/>
<polygon fill="none" stroke="black" points="213,-385 213,-407 465,-407 465,-385 213,-385"/>
<text text-anchor="start" x="218" y="-394.2" font-family="Helvetica,sans-Serif" font-weight="bold" font-size="11.00">aggregatedatasets</text>
<text text-anchor="start" x="430" y="-393.2" font-family="Helvetica,sans-Serif" font-size="11.00">[table]</text>
<polygon fill="none" stroke="black" points="213,-363 213,-385 375,-385 375,-363 213,-363"/>
<image xlink:href="../../images/primaryKeys.png" width="11px" height="12px" preserveAspectRatio="xMinYMin meet" x="218" y="-380"/>
<text text-anchor="start" x="233" y="-371.2" font-family="Helvetica,sans-Serif" font-size="11.00">aggregatedatasetid</text>
<polygon fill="none" stroke="black" points="375,-363 375,-385 465,-385 465,-363 375,-363"/>
<text text-anchor="start" x="378" y="-371.2" font-family="Helvetica,sans-Serif" font-size="11.00">serial[10]</text>
<polygon fill="none" stroke="black" points="213,-341 213,-363 375,-363 375,-341 213,-341"/>
<text text-anchor="start" x="233" y="-349.2" font-family="Helvetica,sans-Serif" font-size="11.00">aggregatedatasetname</text>
<polygon fill="none" stroke="black" points="375,-341 375,-363 465,-363 465,-341 375,-341"/>
<text text-anchor="start" x="378" y="-349.2" font-family="Helvetica,sans-Serif" font-size="11.00">varchar[255]</text>
<polygon fill="none" stroke="black" points="213,-319 213,-341 375,-341 375,-319 213,-319"/>
<image xlink:href="../../images/foreignKeys.png" width="11px" height="12px" preserveAspectRatio="xMinYMin meet" x="218" y="-336"/>
<text text-anchor="start" x="233" y="-327.2" font-family="Helvetica,sans-Serif" font-size="11.00">aggregateordertypeid</text>
<polygon fill="none" stroke="black" points="375,-319 375,-341 465,-341 465,-319 375,-319"/>
<text text-anchor="start" x="378" y="-327.2" font-family="Helvetica,sans-Serif" font-size="11.00">int4[10]</text>
<polygon fill="none" stroke="black" points="213,-297 213,-319 375,-319 375,-297 213,-297"/>
<text text-anchor="start" x="233" y="-305.2" font-family="Helvetica,sans-Serif" font-size="11.00">notes</text>
<polygon fill="none" stroke="black" points="375,-297 375,-319 465,-319 465,-297 375,-297"/>
<text text-anchor="start" x="378" y="-305.2" font-family="Helvetica,sans-Serif" font-size="11.00">text[2147483647]</text>
<polygon fill="none" stroke="black" points="213,-275 213,-297 375,-297 375,-275 213,-275"/>
<text text-anchor="start" x="233" y="-283.2" font-family="Helvetica,sans-Serif" font-size="11.00">recdatecreated</text>
<polygon fill="none" stroke="black" points="375,-275 375,-297 465,-297 465,-275 375,-275"/>
<text text-anchor="start" x="378" y="-283.2" font-family="Helvetica,sans-Serif" font-size="11.00">timestamp[22]</text>
<polygon fill="none" stroke="black" points="213,-253 213,-275 375,-275 375,-253 213,-253"/>
<text text-anchor="start" x="233" y="-261.2" font-family="Helvetica,sans-Serif" font-size="11.00">recdatemodified</text>
<polygon fill="none" stroke="black" points="375,-253 375,-275 465,-275 465,-253 375,-253"/>
<text text-anchor="start" x="378" y="-261.2" font-family="Helvetica,sans-Serif" font-size="11.00">timestamp[22]</text>
<polygon fill="#ffffff" stroke="transparent" points="213,-235 213,-253 282,-253 282,-235 213,-235"/>
<polygon fill="none" stroke="black" points="213,-235 213,-253 282,-253 282,-235 213,-235"/>
<text text-anchor="start" x="216" y="-241.2" font-family="Helvetica,sans-Serif" font-size="11.00">&lt; 1</text>
<polygon fill="#ffffff" stroke="transparent" points="282,-235 282,-253 375,-253 375,-235 282,-235"/>
<polygon fill="none" stroke="black" points="282,-235 282,-253 375,-253 375,-235 282,-235"/>
<text text-anchor="start" x="333" y="-241.2" font-family="Helvetica,sans-Serif" font-size="11.00">11 rows</text>
<polygon fill="#ffffff" stroke="transparent" points="375,-235 375,-253 465,-253 465,-235 375,-235"/>
<polygon fill="none" stroke="black" points="375,-235 375,-253 465,-253 465,-235 375,-235"/>
<text text-anchor="start" x="446" y="-241.2" font-family="Helvetica,sans-Serif" font-size="11.00">3 &gt;</text>
<polygon fill="none" stroke="black" stroke-width="2" points="212,-234 212,-408 466,-408 466,-234 212,-234"/>
</a>
</g>
</g>
<!-- aggregatechronologies&#45;&gt;aggregatedatasets -->
<g id="edge2" class="edge">
<title>aggregatechronologies:w&#45;&gt;aggregatedatasets:e</title>
<path fill="none" stroke="black" d="M501.38,-312.75C484.73,-327.88 496.54,-374 466,-374"/>
<polygon fill="black" stroke="black" points="507.45,-310.63 516.18,-311.4 511.22,-309.32 515,-308 515,-308 515,-308 511.22,-309.32 513.82,-304.6 507.45,-310.63 507.45,-310.63"/>
<ellipse fill="none" stroke="black" cx="504.42" cy="-311.69" rx="3.2" ry="3.2"/>
</g>
<!-- aggregateordertypes -->
<g id="node4" class="node">
<title>aggregateordertypes</title>
<g id="a_node4"><a xlink:href="../../tables/aggregateordertypes.html" xlink:title="aggregateordertypes" target="_top">
<polygon fill="#ffffff" stroke="transparent" points="8,-283 8,-363 162,-363 162,-283 8,-283"/>
<polygon fill="#f5f5f5" stroke="transparent" points="8,-341 8,-363 162,-363 162,-341 8,-341"/>
<polygon fill="none" stroke="black" points="8,-341 8,-363 162,-363 162,-341 8,-341"/>
<text text-anchor="start" x="13" y="-350.2" font-family="Helvetica,sans-Serif" font-weight="bold" font-size="11.00">aggregateordertypes</text>
<text text-anchor="start" x="127" y="-349.2" font-family="Helvetica,sans-Serif" font-size="11.00">[table]</text>
<polygon fill="none" stroke="black" points="8,-319 8,-341 162,-341 162,-319 8,-319"/>
<image xlink:href="../../images/primaryKeys.png" width="11px" height="12px" preserveAspectRatio="xMinYMin meet" x="13" y="-336"/>
<text text-anchor="start" x="28" y="-327.2" font-family="Helvetica,sans-Serif" font-size="11.00">aggregateordertypeid</text>
<polygon fill="none" stroke="black" points="8,-301 8,-319 162,-319 162,-301 8,-301"/>
<text text-anchor="start" x="11" y="-307.2" font-family="Helvetica,sans-Serif" font-size="11.00">...</text>
<polygon fill="#ffffff" stroke="transparent" points="8,-283 8,-301 61,-301 61,-283 8,-283"/>
<polygon fill="none" stroke="black" points="8,-283 8,-301 61,-301 61,-283 8,-283"/>
<text text-anchor="start" x="11" y="-289.2" font-family="Helvetica,sans-Serif" font-size="11.00"> &#160;</text>
<polygon fill="#ffffff" stroke="transparent" points="61,-283 61,-301 120,-301 120,-283 61,-283"/>
<polygon fill="none" stroke="black" points="61,-283 61,-301 120,-301 120,-283 61,-283"/>
<text text-anchor="start" x="84" y="-289.2" font-family="Helvetica,sans-Serif" font-size="11.00">7 rows</text>
<polygon fill="#ffffff" stroke="transparent" points="120,-283 120,-301 162,-301 162,-283 120,-283"/>
<polygon fill="none" stroke="black" points="120,-283 120,-301 162,-301 162,-283 120,-283"/>
<text text-anchor="start" x="143" y="-289.2" font-family="Helvetica,sans-Serif" font-size="11.00">1 &gt;</text>
</a>
</g>
</g>
<!-- aggregatedatasets&#45;&gt;aggregateordertypes -->
<g id="edge3" class="edge">
<title>aggregatedatasets:w&#45;&gt;aggregateordertypes:e</title>
<path fill="none" stroke="black" d="M197.49,-330C186.18,-330 178.99,-330 163,-330"/>
<polygon fill="black" stroke="black" points="204,-330 212,-333.6 208,-330 212,-330 212,-330 212,-330 208,-330 212,-326.4 204,-330 204,-330"/>
<ellipse fill="none" stroke="black" cx="200.8" cy="-330" rx="3.2" ry="3.2"/>
</g>
<!-- aggregatesampleages -->
<g id="node5" class="node">
<title>aggregatesampleages</title>
<g id="a_node5"><a xlink:href="../../tables/aggregatesampleages.html" xlink:title="aggregatesampleages" target="_top">
<polygon fill="#ffffff" stroke="transparent" points="731,-261 731,-385 890,-385 890,-261 731,-261"/>
<polygon fill="#f5f5f5" stroke="transparent" points="731.5,-363 731.5,-385 890.5,-385 890.5,-363 731.5,-363"/>
<polygon fill="none" stroke="black" points="731.5,-363 731.5,-385 890.5,-385 890.5,-363 731.5,-363"/>
<text text-anchor="start" x="736.5" y="-372.2" font-family="Helvetica,sans-Serif" font-weight="bold" font-size="11.00">aggregatesampleages</text>
<text text-anchor="start" x="855.5" y="-371.2" font-family="Helvetica,sans-Serif" font-size="11.00">[table]</text>
<polygon fill="none" stroke="black" points="731.5,-341 731.5,-363 890.5,-363 890.5,-341 731.5,-341"/>
<image xlink:href="../../images/primaryKeys.png" width="11px" height="12px" preserveAspectRatio="xMinYMin meet" x="736.5" y="-358"/>
<text text-anchor="start" x="754.5" y="-349.2" font-family="Helvetica,sans-Serif" font-size="11.00">aggregatedatasetid</text>
<polygon fill="none" stroke="black" points="731.5,-319 731.5,-341 890.5,-341 890.5,-319 731.5,-319"/>
<image xlink:href="../../images/primaryKeys.png" width="11px" height="12px" preserveAspectRatio="xMinYMin meet" x="736.5" y="-336"/>
<text text-anchor="start" x="754.5" y="-327.2" font-family="Helvetica,sans-Serif" font-size="11.00">aggregatechronid</text>
<polygon fill="none" stroke="black" points="731.5,-297 731.5,-319 890.5,-319 890.5,-297 731.5,-297"/>
<image xlink:href="../../images/primaryKeys.png" width="11px" height="12px" preserveAspectRatio="xMinYMin meet" x="736.5" y="-314"/>
<text text-anchor="start" x="754.5" y="-305.2" font-family="Helvetica,sans-Serif" font-size="11.00">sampleageid</text>
<polygon fill="none" stroke="black" points="731.5,-279 731.5,-297 890.5,-297 890.5,-279 731.5,-279"/>
<text text-anchor="start" x="734.5" y="-285.2" font-family="Helvetica,sans-Serif" font-size="11.00">...</text>
<polygon fill="#ffffff" stroke="transparent" points="731.5,-261 731.5,-279 789.5,-279 789.5,-261 731.5,-261"/>
<polygon fill="none" stroke="black" points="731.5,-261 731.5,-279 789.5,-279 789.5,-261 731.5,-261"/>
<text text-anchor="start" x="734.5" y="-267.2" font-family="Helvetica,sans-Serif" font-size="11.00">&lt; 3</text>
<polygon fill="#ffffff" stroke="transparent" points="789.5,-261 789.5,-279 858.5,-279 858.5,-261 789.5,-261"/>
<polygon fill="none" stroke="black" points="789.5,-261 789.5,-279 858.5,-279 858.5,-261 789.5,-261"/>
<text text-anchor="start" x="810.5" y="-267.2" font-family="Helvetica,sans-Serif" font-size="11.00">369 rows</text>
<polygon fill="#ffffff" stroke="transparent" points="858.5,-261 858.5,-279 890.5,-279 890.5,-261 858.5,-261"/>
<polygon fill="none" stroke="black" points="858.5,-261 858.5,-279 890.5,-279 890.5,-261 858.5,-261"/>
<text text-anchor="start" x="880.5" y="-267.2" font-family="Helvetica,sans-Serif" font-size="11.00"> &#160;</text>
</a>
</g>
</g>
<!-- aggregatesampleages&#45;&gt;aggregatechronologies -->
<g id="edge4" class="edge">
<title>aggregatesampleages:w&#45;&gt;aggregatechronologies:e</title>
<path fill="none" stroke="black" d="M716.09,-330C705.32,-330 698.34,-330 683,-330"/>
<polygon fill="black" stroke="black" points="722.5,-330 730.5,-333.6 726.5,-330 730.5,-330 730.5,-330 730.5,-330 726.5,-330 730.5,-326.4 722.5,-330 722.5,-330"/>
<ellipse fill="none" stroke="black" cx="719.3" cy="-330" rx="3.2" ry="3.2"/>
</g>
<!-- aggregatesampleages&#45;&gt;aggregatedatasets -->
<g id="edge5" class="edge">
<title>aggregatesampleages:w&#45;&gt;aggregatedatasets:e</title>
<path fill="none" stroke="black" d="M716.58,-355.73C708.18,-361.02 703.96,-370.45 690,-374 593.51,-398.52 565.56,-374 466,-374"/>
<polygon fill="black" stroke="black" points="722.77,-354.07 731.43,-355.48 726.64,-353.03 730.5,-352 730.5,-352 730.5,-352 726.64,-353.03 729.57,-348.52 722.77,-354.07 722.77,-354.07"/>
<ellipse fill="none" stroke="black" cx="719.68" cy="-354.9" rx="3.2" ry="3.2"/>
</g>
<!-- sampleages -->
<g id="node6" class="node">
<title>sampleages</title>
<g id="a_node6"><a xlink:href="../../tables/sampleages.html" xlink:title="sampleages" target="_top">
<polygon fill="#ffffff" stroke="transparent" points="541,-37 541,-95 657,-95 657,-37 541,-37"/>
<polygon fill="#f5f5f5" stroke="transparent" points="541,-73 541,-95 657,-95 657,-73 541,-73"/>
<polygon fill="none" stroke="black" points="541,-73 541,-95 657,-95 657,-73 541,-73"/>
<text text-anchor="start" x="546" y="-82.2" font-family="Helvetica,sans-Serif" font-weight="bold" font-size="11.00">sampleages</text>
<text text-anchor="start" x="622" y="-81.2" font-family="Helvetica,sans-Serif" font-size="11.00">[table]</text>
<polygon fill="none" stroke="black" points="541,-55 541,-73 657,-73 657,-55 541,-55"/>
<text text-anchor="start" x="544" y="-61.2" font-family="Helvetica,sans-Serif" font-size="11.00">...</text>
<polygon fill="#ffffff" stroke="transparent" points="541,-37 541,-55 563,-55 563,-37 541,-37"/>
<polygon fill="none" stroke="black" points="541,-37 541,-55 563,-55 563,-37 541,-37"/>
<text text-anchor="start" x="544" y="-43.2" font-family="Helvetica,sans-Serif" font-size="11.00">&lt; 2</text>
<polygon fill="#ffffff" stroke="transparent" points="563,-37 563,-55 635,-55 635,-37 563,-37"/>
<polygon fill="none" stroke="black" points="563,-37 563,-55 635,-55 635,-37 563,-37"/>
<text text-anchor="start" x="566" y="-43.2" font-family="Helvetica,sans-Serif" font-size="11.00">591,749 rows</text>
<polygon fill="#ffffff" stroke="transparent" points="635,-37 635,-55 657,-55 657,-37 635,-37"/>
<polygon fill="none" stroke="black" points="635,-37 635,-55 657,-55 657,-37 635,-37"/>
<text text-anchor="start" x="638" y="-43.2" font-family="Helvetica,sans-Serif" font-size="11.00">1 &gt;</text>
</a>
</g>
</g>
<!-- aggregatesampleages&#45;&gt;sampleages -->
<g id="edge6" class="edge">
<title>aggregatesampleages:w&#45;&gt;sampleages:e</title>
<path fill="none" stroke="black" d="M717.1,-301.85C689.78,-272.06 706.65,-142.83 690,-106 680.34,-84.62 681.47,-64 658,-64"/>
<polygon fill="black" stroke="black" points="723.23,-304.66 729,-311.27 726.87,-306.33 730.5,-308 730.5,-308 730.5,-308 726.87,-306.33 732,-304.73 723.23,-304.66 723.23,-304.66"/>
<ellipse fill="none" stroke="black" cx="720.32" cy="-303.32" rx="3.2" ry="3.2"/>
</g>
<!-- samples -->
<g id="node8" class="node">
<title>samples</title>
<g id="a_node8"><a xlink:href="../../tables/samples.html" xlink:title="samples" target="_top">
<polygon fill="#ffffff" stroke="transparent" points="281,-62 281,-120 397,-120 397,-62 281,-62"/>
<polygon fill="#f5f5f5" stroke="transparent" points="281,-98 281,-120 397,-120 397,-98 281,-98"/>
<polygon fill="none" stroke="black" points="281,-98 281,-120 397,-120 397,-98 281,-98"/>
<text text-anchor="start" x="286" y="-107.2" font-family="Helvetica,sans-Serif" font-weight="bold" font-size="11.00">samples</text>
<text text-anchor="start" x="362" y="-106.2" font-family="Helvetica,sans-Serif" font-size="11.00">[table]</text>
<polygon fill="none" stroke="black" points="281,-80 281,-98 397,-98 397,-80 281,-80"/>
<text text-anchor="start" x="284" y="-86.2" font-family="Helvetica,sans-Serif" font-size="11.00">...</text>
<polygon fill="#ffffff" stroke="transparent" points="281,-62 281,-80 303,-80 303,-62 281,-62"/>
<polygon fill="none" stroke="black" points="281,-62 281,-80 303,-80 303,-62 281,-62"/>
<text text-anchor="start" x="284" y="-68.2" font-family="Helvetica,sans-Serif" font-size="11.00">&lt; 3</text>
<polygon fill="#ffffff" stroke="transparent" points="303,-62 303,-80 375,-80 375,-62 303,-62"/>
<polygon fill="none" stroke="black" points="303,-62 303,-80 375,-80 375,-62 303,-62"/>
<text text-anchor="start" x="306" y="-68.2" font-family="Helvetica,sans-Serif" font-size="11.00">506,105 rows</text>
<polygon fill="#ffffff" stroke="transparent" points="375,-62 375,-80 397,-80 397,-62 375,-62"/>
<polygon fill="none" stroke="black" points="375,-62 375,-80 397,-80 397,-62 375,-62"/>
<text text-anchor="start" x="378" y="-68.2" font-family="Helvetica,sans-Serif" font-size="11.00">7 &gt;</text>
</a>
</g>
</g>
<!-- sampleages&#45;&gt;samples -->
<g id="edge9" class="edge">
<title>sampleages:w&#45;&gt;samples:e</title>
<path fill="none" stroke="black" d="M525.52,-64.46C473.38,-67.84 456.95,-89 398,-89"/>
<polygon fill="black" stroke="black" points="532,-64.25 540.11,-67.6 536,-64.13 540,-64 540,-64 540,-64 536,-64.13 539.89,-60.4 532,-64.25 532,-64.25"/>
<ellipse fill="none" stroke="black" cx="528.81" cy="-64.35" rx="3.2" ry="3.2"/>
</g>
<!-- aggregatesamples -->
<g id="node7" class="node">
<title>aggregatesamples</title>
<g id="a_node7"><a xlink:href="../../tables/aggregatesamples.html" xlink:title="aggregatesamples" target="_top">
<polygon fill="#ffffff" stroke="transparent" points="528.5,-116 528.5,-218 669.5,-218 669.5,-116 528.5,-116"/>
<polygon fill="#f5f5f5" stroke="transparent" points="529,-196 529,-218 670,-218 670,-196 529,-196"/>
<polygon fill="none" stroke="black" points="529,-196 529,-218 670,-218 670,-196 529,-196"/>
<text text-anchor="start" x="534" y="-205.2" font-family="Helvetica,sans-Serif" font-weight="bold" font-size="11.00">aggregatesamples</text>
<text text-anchor="start" x="635" y="-204.2" font-family="Helvetica,sans-Serif" font-size="11.00">[table]</text>
<polygon fill="none" stroke="black" points="529,-174 529,-196 670,-196 670,-174 529,-174"/>
<image xlink:href="../../images/primaryKeys.png" width="11px" height="12px" preserveAspectRatio="xMinYMin meet" x="534" y="-191"/>
<text text-anchor="start" x="550" y="-182.2" font-family="Helvetica,sans-Serif" font-size="11.00">aggregatedatasetid</text>
<polygon fill="none" stroke="black" points="529,-152 529,-174 670,-174 670,-152 529,-152"/>
<image xlink:href="../../images/primaryKeys.png" width="11px" height="12px" preserveAspectRatio="xMinYMin meet" x="534" y="-169"/>
<text text-anchor="start" x="550" y="-160.2" font-family="Helvetica,sans-Serif" font-size="11.00">sampleid</text>
<polygon fill="none" stroke="black" points="529,-134 529,-152 670,-152 670,-134 529,-134"/>
<text text-anchor="start" x="532" y="-140.2" font-family="Helvetica,sans-Serif" font-size="11.00">...</text>
<polygon fill="#ffffff" stroke="transparent" points="529,-116 529,-134 578,-134 578,-116 529,-116"/>
<polygon fill="none" stroke="black" points="529,-116 529,-134 578,-134 578,-116 529,-116"/>
<text text-anchor="start" x="532" y="-122.2" font-family="Helvetica,sans-Serif" font-size="11.00">&lt; 2</text>
<polygon fill="#ffffff" stroke="transparent" points="578,-116 578,-134 643,-134 643,-116 578,-116"/>
<polygon fill="none" stroke="black" points="578,-116 578,-134 643,-134 643,-116 578,-116"/>
<text text-anchor="start" x="595" y="-122.2" font-family="Helvetica,sans-Serif" font-size="11.00">553 rows</text>
<polygon fill="#ffffff" stroke="transparent" points="643,-116 643,-134 670,-134 670,-116 643,-116"/>
<polygon fill="none" stroke="black" points="643,-116 643,-134 670,-134 670,-116 643,-116"/>
<text text-anchor="start" x="660" y="-122.2" font-family="Helvetica,sans-Serif" font-size="11.00"> &#160;</text>
</a>
</g>
</g>
<!-- aggregatesamples&#45;&gt;aggregatedatasets -->
<g id="edge7" class="edge">
<title>aggregatesamples:w&#45;&gt;aggregatedatasets:e</title>
<path fill="none" stroke="black" d="M513.71,-187.12C453.15,-207.89 548.88,-374 466,-374"/>
<polygon fill="black" stroke="black" points="520.09,-186.18 528.53,-188.56 524.04,-185.59 528,-185 528,-185 528,-185 524.04,-185.59 527.47,-181.44 520.09,-186.18 520.09,-186.18"/>
<ellipse fill="none" stroke="black" cx="516.92" cy="-186.65" rx="3.2" ry="3.2"/>
</g>
<!-- aggregatesamples&#45;&gt;samples -->
<g id="edge8" class="edge">
<title>aggregatesamples:w&#45;&gt;samples:e</title>
<path fill="none" stroke="black" d="M513.62,-161.72C461.56,-151.89 459.29,-89 398,-89"/>
<polygon fill="black" stroke="black" points="520.03,-162.29 527.68,-166.59 524.02,-162.64 528,-163 528,-163 528,-163 524.02,-162.64 528.32,-159.41 520.03,-162.29 520.03,-162.29"/>
<ellipse fill="none" stroke="black" cx="516.84" cy="-162" rx="3.2" ry="3.2"/>
</g>
</g>
</svg>
