<?xml version="1.0" encoding="UTF-8" standalone="no"?>
<!DOCTYPE svg PUBLIC "-//W3C//DTD SVG 1.1//EN"
 "http://www.w3.org/Graphics/SVG/1.1/DTD/svg11.dtd">
<!-- Generated by graphviz version 2.43.0 (0)
 -->
<!-- Title: oneDegreeRelationshipsDiagram Pages: 1 -->
<svg width="483pt" height="223pt"
 viewBox="0.00 0.00 483.00 223.00" xmlns="http://www.w3.org/2000/svg" xmlns:xlink="http://www.w3.org/1999/xlink">
<g id="graph0" class="graph" transform="scale(1 1) rotate(0) translate(4 219)">
<title>oneDegreeRelationshipsDiagram</title>
<polygon fill="#ffffff" stroke="transparent" points="-4,4 -4,-219 479,-219 479,4 -4,4"/>
<text text-anchor="middle" x="71.5" y="-7.2" font-family="Helvetica,sans-Serif" font-size="11.00">Generated by SchemaSpy</text>
<!-- aggregatedatasets -->
<g id="node1" class="node">
<title>aggregatedatasets</title>
<g id="a_node1"><a xlink:href="../../tables/aggregatedatasets.html" xlink:title="aggregatedatasets" target="_top">
<polygon fill="#ffffff" stroke="transparent" points="305,-109 305,-211 467,-211 467,-109 305,-109"/>
<polygon fill="#f5f5f5" stroke="transparent" points="305,-189 305,-211 467,-211 467,-189 305,-189"/>
<polygon fill="none" stroke="black" points="305,-189 305,-211 467,-211 467,-189 305,-189"/>
<text text-anchor="start" x="310" y="-198.2" font-family="Helvetica,sans-Serif" font-weight="bold" font-size="11.00">aggregatedatasets</text>
<text text-anchor="start" x="432" y="-197.2" font-family="Helvetica,sans-Serif" font-size="11.00">[table]</text>
<polygon fill="none" stroke="black" points="305,-167 305,-189 467,-189 467,-167 305,-167"/>
<image xlink:href="../../images/primaryKeys.png" width="11px" height="12px" preserveAspectRatio="xMinYMin meet" x="310" y="-184"/>
<text text-anchor="start" x="325" y="-175.2" font-family="Helvetica,sans-Serif" font-size="11.00">aggregatedatasetid</text>
<polygon fill="none" stroke="black" points="305,-145 305,-167 467,-167 467,-145 305,-145"/>
<image xlink:href="../../images/foreignKeys.png" width="11px" height="12px" preserveAspectRatio="xMinYMin meet" x="310" y="-162"/>
<text text-anchor="start" x="325" y="-153.2" font-family="Helvetica,sans-Serif" font-size="11.00">aggregateordertypeid</text>
<polygon fill="none" stroke="black" points="305,-127 305,-145 467,-145 467,-127 305,-127"/>
<text text-anchor="start" x="308" y="-133.2" font-family="Helvetica,sans-Serif" font-size="11.00">...</text>
<polygon fill="#ffffff" stroke="transparent" points="305,-109 305,-127 363,-127 363,-109 305,-109"/>
<polygon fill="none" stroke="black" points="305,-109 305,-127 363,-127 363,-109 305,-109"/>
<text text-anchor="start" x="308" y="-115.2" font-family="Helvetica,sans-Serif" font-size="11.00">&lt; 1</text>
<polygon fill="#ffffff" stroke="transparent" points="363,-109 363,-127 426,-127 426,-109 363,-109"/>
<polygon fill="none" stroke="black" points="363,-109 363,-127 426,-127 426,-109 363,-109"/>
<text text-anchor="start" x="384" y="-115.2" font-family="Helvetica,sans-Serif" font-size="11.00">11 rows</text>
<polygon fill="#ffffff" stroke="transparent" points="426,-109 426,-127 467,-127 467,-109 426,-109"/>
<polygon fill="none" stroke="black" points="426,-109 426,-127 467,-127 467,-109 426,-109"/>
<text text-anchor="start" x="448" y="-115.2" font-family="Helvetica,sans-Serif" font-size="11.00">3 &gt;</text>
</a>
</g>
</g>
<!-- aggregateordertypes -->
<g id="node2" class="node">
<title>aggregateordertypes</title>
<g id="a_node2"><a xlink:href="../../tables/aggregateordertypes.html" xlink:title="aggregateordertypes" target="_top">
<polygon fill="#ffffff" stroke="transparent" points="8,-37 8,-191 256,-191 256,-37 8,-37"/>
<polygon fill="#f5f5f5" stroke="transparent" points="10,-167 10,-189 254,-189 254,-167 10,-167"/>
<polygon fill="none" stroke="black" points="10,-167 10,-189 254,-189 254,-167 10,-167"/>
<text text-anchor="start" x="15" y="-176.2" font-family="Helvetica,sans-Serif" font-weight="bold" font-size="11.00">aggregateordertypes</text>
<text text-anchor="start" x="219" y="-175.2" font-family="Helvetica,sans-Serif" font-size="11.00">[table]</text>
<polygon fill="none" stroke="black" points="10,-145 10,-167 164,-167 164,-145 10,-145"/>
<image xlink:href="../../images/primaryKeys.png" width="11px" height="12px" preserveAspectRatio="xMinYMin meet" x="15" y="-162"/>
<text text-anchor="start" x="30" y="-153.2" font-family="Helvetica,sans-Serif" font-size="11.00">aggregateordertypeid</text>
<polygon fill="none" stroke="black" points="164,-145 164,-167 254,-167 254,-145 164,-145"/>
<text text-anchor="start" x="167" y="-153.2" font-family="Helvetica,sans-Serif" font-size="11.00">serial[10]</text>
<polygon fill="none" stroke="black" points="10,-123 10,-145 164,-145 164,-123 10,-123"/>
<text text-anchor="start" x="30" y="-131.2" font-family="Helvetica,sans-Serif" font-size="11.00">aggregateordertype</text>
<polygon fill="none" stroke="black" points="164,-123 164,-145 254,-145 254,-123 164,-123"/>
<text text-anchor="start" x="167" y="-131.2" font-family="Helvetica,sans-Serif" font-size="11.00">varchar[64]</text>
<polygon fill="none" stroke="black" points="10,-101 10,-123 164,-123 164,-101 10,-101"/>
<text text-anchor="start" x="30" y="-109.2" font-family="Helvetica,sans-Serif" font-size="11.00">notes</text>
<polygon fill="none" stroke="black" points="164,-101 164,-123 254,-123 254,-101 164,-101"/>
<text text-anchor="start" x="167" y="-109.2" font-family="Helvetica,sans-Serif" font-size="11.00">text[2147483647]</text>
<polygon fill="none" stroke="black" points="10,-79 10,-101 164,-101 164,-79 10,-79"/>
<text text-anchor="start" x="30" y="-87.2" font-family="Helvetica,sans-Serif" font-size="11.00">recdatecreated</text>
<polygon fill="none" stroke="black" points="164,-79 164,-101 254,-101 254,-79 164,-79"/>
<text text-anchor="start" x="167" y="-87.2" font-family="Helvetica,sans-Serif" font-size="11.00">timestamp[22]</text>
<polygon fill="none" stroke="black" points="10,-57 10,-79 164,-79 164,-57 10,-57"/>
<text text-anchor="start" x="30" y="-65.2" font-family="Helvetica,sans-Serif" font-size="11.00">recdatemodified</text>
<polygon fill="none" stroke="black" points="164,-57 164,-79 254,-79 254,-57 164,-57"/>
<text text-anchor="start" x="167" y="-65.2" font-family="Helvetica,sans-Serif" font-size="11.00">timestamp[22]</text>
<polygon fill="#ffffff" stroke="transparent" points="10,-39 10,-57 78,-57 78,-39 10,-39"/>
<polygon fill="none" stroke="black" points="10,-39 10,-57 78,-57 78,-39 10,-39"/>
<text text-anchor="start" x="13" y="-45.2" font-family="Helvetica,sans-Serif" font-size="11.00">&lt; 0</text>
<polygon fill="#ffffff" stroke="transparent" points="78,-39 78,-57 164,-57 164,-39 78,-39"/>
<polygon fill="none" stroke="black" points="78,-39 78,-57 164,-57 164,-39 78,-39"/>
<text text-anchor="start" x="128" y="-45.2" font-family="Helvetica,sans-Serif" font-size="11.00">7 rows</text>
<polygon fill="#ffffff" stroke="transparent" points="164,-39 164,-57 254,-57 254,-39 164,-39"/>
<polygon fill="none" stroke="black" points="164,-39 164,-57 254,-57 254,-39 164,-39"/>
<text text-anchor="start" x="235" y="-45.2" font-family="Helvetica,sans-Serif" font-size="11.00">1 &gt;</text>
<polygon fill="none" stroke="black" stroke-width="2" points="9,-38 9,-190 255,-190 255,-38 9,-38"/>
</a>
</g>
</g>
<!-- aggregatedatasets&#45;&gt;aggregateordertypes -->
<g id="edge1" class="edge">
<title>aggregatedatasets:w&#45;&gt;aggregateordertypes:e</title>
<path fill="none" stroke="black" d="M289.49,-156C278.18,-156 270.99,-156 255,-156"/>
<polygon fill="black" stroke="black" points="296,-156 304,-159.6 300,-156 304,-156 304,-156 304,-156 300,-156 304,-152.4 296,-156 296,-156"/>
<ellipse fill="none" stroke="black" cx="292.8" cy="-156" rx="3.2" ry="3.2"/>
</g>
</g>
</svg>
