<?xml version="1.0" encoding="UTF-8" standalone="no"?>
<!DOCTYPE svg PUBLIC "-//W3C//DTD SVG 1.1//EN"
 "http://www.w3.org/Graphics/SVG/1.1/DTD/svg11.dtd">
<!-- Generated by graphviz version 2.43.0 (0)
 -->
<!-- Title: twoDegreesRelationshipsDiagram Pages: 1 -->
<svg width="900pt" height="601pt"
 viewBox="0.00 0.00 900.00 600.70" xmlns="http://www.w3.org/2000/svg" xmlns:xlink="http://www.w3.org/1999/xlink">
<g id="graph0" class="graph" transform="scale(1 1) rotate(0) translate(4 596.7)">
<title>twoDegreesRelationshipsDiagram</title>
<polygon fill="#ffffff" stroke="transparent" points="-4,4 -4,-596.7 896,-596.7 896,4 -4,4"/>
<text text-anchor="middle" x="71.5" y="-7.2" font-family="Helvetica,sans-Serif" font-size="11.00">Generated by SchemaSpy</text>
<!-- aggregatechronologies -->
<g id="node1" class="node">
<title>aggregatechronologies</title>
<g id="a_node1"><a xlink:href="../../tables/aggregatechronologies.html" xlink:title="aggregatechronologies" target="_top">
<polygon fill="#ffffff" stroke="transparent" points="422,-195 422,-459 676,-459 676,-195 422,-195"/>
<polygon fill="#f5f5f5" stroke="transparent" points="424,-435 424,-457 674,-457 674,-435 424,-435"/>
<polygon fill="none" stroke="black" points="424,-435 424,-457 674,-457 674,-435 424,-435"/>
<text text-anchor="start" x="429" y="-444.2" font-family="Helvetica,sans-Serif" font-weight="bold" font-size="11.00">aggregatechronologies</text>
<text text-anchor="start" x="639" y="-443.2" font-family="Helvetica,sans-Serif" font-size="11.00">[table]</text>
<polygon fill="none" stroke="black" points="424,-413 424,-435 584,-435 584,-413 424,-413"/>
<image xlink:href="../../images/primaryKeys.png" width="11px" height="12px" preserveAspectRatio="xMinYMin meet" x="429" y="-430"/>
<text text-anchor="start" x="444" y="-421.2" font-family="Helvetica,sans-Serif" font-size="11.00">aggregatechronid</text>
<polygon fill="none" stroke="black" points="584,-413 584,-435 674,-435 674,-413 584,-413"/>
<text text-anchor="start" x="587" y="-421.2" font-family="Helvetica,sans-Serif" font-size="11.00">serial[10]</text>
<polygon fill="none" stroke="black" points="424,-391 424,-413 584,-413 584,-391 424,-391"/>
<image xlink:href="../../images/foreignKeys.png" width="11px" height="12px" preserveAspectRatio="xMinYMin meet" x="429" y="-408"/>
<text text-anchor="start" x="444" y="-399.2" font-family="Helvetica,sans-Serif" font-size="11.00">aggregatedatasetid</text>
<polygon fill="none" stroke="black" points="584,-391 584,-413 674,-413 674,-391 584,-391"/>
<text text-anchor="start" x="587" y="-399.2" font-family="Helvetica,sans-Serif" font-size="11.00">int4[10]</text>
<polygon fill="none" stroke="black" points="424,-369 424,-391 584,-391 584,-369 424,-369"/>
<image xlink:href="../../images/foreignKeys.png" width="11px" height="12px" preserveAspectRatio="xMinYMin meet" x="429" y="-386"/>
<text text-anchor="start" x="444" y="-377.2" font-family="Helvetica,sans-Serif" font-size="11.00">agetypeid</text>
<polygon fill="none" stroke="black" points="584,-369 584,-391 674,-391 674,-369 584,-369"/>
<text text-anchor="start" x="587" y="-377.2" font-family="Helvetica,sans-Serif" font-size="11.00">int4[10]</text>
<polygon fill="none" stroke="black" points="424,-347 424,-369 584,-369 584,-347 424,-347"/>
<text text-anchor="start" x="444" y="-355.2" font-family="Helvetica,sans-Serif" font-size="11.00">isdefault</text>
<polygon fill="none" stroke="black" points="584,-347 584,-369 674,-369 674,-347 584,-347"/>
<text text-anchor="start" x="587" y="-355.2" font-family="Helvetica,sans-Serif" font-size="11.00">bool[1]</text>
<polygon fill="none" stroke="black" points="424,-325 424,-347 584,-347 584,-325 424,-325"/>
<text text-anchor="start" x="444" y="-333.2" font-family="Helvetica,sans-Serif" font-size="11.00">chronologyname</text>
<polygon fill="none" stroke="black" points="584,-325 584,-347 674,-347 674,-325 584,-325"/>
<text text-anchor="start" x="587" y="-333.2" font-family="Helvetica,sans-Serif" font-size="11.00">varchar[80]</text>
<polygon fill="none" stroke="black" points="424,-303 424,-325 584,-325 584,-303 424,-303"/>
<text text-anchor="start" x="444" y="-311.2" font-family="Helvetica,sans-Serif" font-size="11.00">ageboundyounger</text>
<polygon fill="none" stroke="black" points="584,-303 584,-325 674,-325 674,-303 584,-303"/>
<text text-anchor="start" x="587" y="-311.2" font-family="Helvetica,sans-Serif" font-size="11.00">int4[10]</text>
<polygon fill="none" stroke="black" points="424,-281 424,-303 584,-303 584,-281 424,-281"/>
<text text-anchor="start" x="444" y="-289.2" font-family="Helvetica,sans-Serif" font-size="11.00">ageboundolder</text>
<polygon fill="none" stroke="black" points="584,-281 584,-303 674,-303 674,-281 584,-281"/>
<text text-anchor="start" x="587" y="-289.2" font-family="Helvetica,sans-Serif" font-size="11.00">int4[10]</text>
<polygon fill="none" stroke="black" points="424,-259 424,-281 584,-281 584,-259 424,-259"/>
<text text-anchor="start" x="444" y="-267.2" font-family="Helvetica,sans-Serif" font-size="11.00">notes</text>
<polygon fill="none" stroke="black" points="584,-259 584,-281 674,-281 674,-259 584,-259"/>
<text text-anchor="start" x="587" y="-267.2" font-family="Helvetica,sans-Serif" font-size="11.00">text[2147483647]</text>
<polygon fill="none" stroke="black" points="424,-237 424,-259 584,-259 584,-237 424,-237"/>
<text text-anchor="start" x="444" y="-245.2" font-family="Helvetica,sans-Serif" font-size="11.00">recdatecreated</text>
<polygon fill="none" stroke="black" points="584,-237 584,-259 674,-259 674,-237 584,-237"/>
<text text-anchor="start" x="587" y="-245.2" font-family="Helvetica,sans-Serif" font-size="11.00">timestamp[22]</text>
<polygon fill="none" stroke="black" points="424,-215 424,-237 584,-237 584,-215 424,-215"/>
<text text-anchor="start" x="444" y="-223.2" font-family="Helvetica,sans-Serif" font-size="11.00">recdatemodified</text>
<polygon fill="none" stroke="black" points="584,-215 584,-237 674,-237 674,-215 584,-215"/>
<text text-anchor="start" x="587" y="-223.2" font-family="Helvetica,sans-Serif" font-size="11.00">timestamp[22]</text>
<polygon fill="#ffffff" stroke="transparent" points="424,-197 424,-215 495,-215 495,-197 424,-197"/>
<polygon fill="none" stroke="black" points="424,-197 424,-215 495,-215 495,-197 424,-197"/>
<text text-anchor="start" x="427" y="-203.2" font-family="Helvetica,sans-Serif" font-size="11.00">&lt; 2</text>
<polygon fill="#ffffff" stroke="transparent" points="495,-197 495,-215 584,-215 584,-197 495,-197"/>
<polygon fill="none" stroke="black" points="495,-197 495,-215 584,-215 584,-197 495,-197"/>
<text text-anchor="start" x="548" y="-203.2" font-family="Helvetica,sans-Serif" font-size="11.00">7 rows</text>
<polygon fill="#ffffff" stroke="transparent" points="584,-197 584,-215 674,-215 674,-197 584,-197"/>
<polygon fill="none" stroke="black" points="584,-197 584,-215 674,-215 674,-197 584,-197"/>
<text text-anchor="start" x="655" y="-203.2" font-family="Helvetica,sans-Serif" font-size="11.00">1 &gt;</text>
<polygon fill="none" stroke="black" stroke-width="2" points="423,-196 423,-458 675,-458 675,-196 423,-196"/>
</a>
</g>
</g>
<!-- agetypes -->
<g id="node2" class="node">
<title>agetypes</title>
<g id="a_node2"><a xlink:href="../../tables/agetypes.html" xlink:title="agetypes" target="_top">
<polygon fill="#ffffff" stroke="transparent" points="25,-164 25,-244 145,-244 145,-164 25,-164"/>
<polygon fill="#f5f5f5" stroke="transparent" points="25,-222 25,-244 145,-244 145,-222 25,-222"/>
<polygon fill="none" stroke="black" points="25,-222 25,-244 145,-244 145,-222 25,-222"/>
<text text-anchor="start" x="30" y="-231.2" font-family="Helvetica,sans-Serif" font-weight="bold" font-size="11.00">agetypes</text>
<text text-anchor="start" x="110" y="-230.2" font-family="Helvetica,sans-Serif" font-size="11.00">[table]</text>
<polygon fill="none" stroke="black" points="25,-200 25,-222 145,-222 145,-200 25,-200"/>
<image xlink:href="../../images/primaryKeys.png" width="11px" height="12px" preserveAspectRatio="xMinYMin meet" x="30" y="-217"/>
<text text-anchor="start" x="45" y="-208.2" font-family="Helvetica,sans-Serif" font-size="11.00">agetypeid</text>
<polygon fill="none" stroke="black" points="25,-182 25,-200 145,-200 145,-182 25,-182"/>
<text text-anchor="start" x="28" y="-188.2" font-family="Helvetica,sans-Serif" font-size="11.00">...</text>
<polygon fill="#ffffff" stroke="transparent" points="25,-164 25,-182 61,-182 61,-164 25,-164"/>
<polygon fill="none" stroke="black" points="25,-164 25,-182 61,-182 61,-164 25,-164"/>
<text text-anchor="start" x="28" y="-170.2" font-family="Helvetica,sans-Serif" font-size="11.00"> &#160;</text>
<polygon fill="#ffffff" stroke="transparent" points="61,-164 61,-182 111,-182 111,-164 61,-164"/>
<polygon fill="none" stroke="black" points="61,-164 61,-182 111,-182 111,-164 61,-164"/>
<text text-anchor="start" x="75" y="-170.2" font-family="Helvetica,sans-Serif" font-size="11.00">5 rows</text>
<polygon fill="#ffffff" stroke="transparent" points="111,-164 111,-182 145,-182 145,-164 111,-164"/>
<polygon fill="none" stroke="black" points="111,-164 111,-182 145,-182 145,-164 111,-164"/>
<text text-anchor="start" x="126" y="-170.2" font-family="Helvetica,sans-Serif" font-size="11.00">4 &gt;</text>
</a>
</g>
</g>
<!-- aggregatechronologies&#45;&gt;agetypes -->
<g id="edge1" class="edge">
<title>aggregatechronologies:w&#45;&gt;agetypes:e</title>
<path fill="none" stroke="black" d="M409.98,-373.37C355.83,-342.13 153.94,-211 146,-211"/>
<polygon fill="black" stroke="black" points="415.87,-376.37 421.37,-383.21 419.43,-378.19 423,-380 423,-380 423,-380 419.43,-378.19 424.63,-376.79 415.87,-376.37 415.87,-376.37"/>
<ellipse fill="none" stroke="black" cx="413.02" cy="-374.92" rx="3.2" ry="3.2"/>
</g>
<!-- aggregatedatasets -->
<g id="node3" class="node">
<title>aggregatedatasets</title>
<g id="a_node3"><a xlink:href="../../tables/aggregatedatasets.html" xlink:title="aggregatedatasets" target="_top">
<polygon fill="#ffffff" stroke="transparent" points="211,-438 211,-540 373,-540 373,-438 211,-438"/>
<polygon fill="#f5f5f5" stroke="transparent" points="211,-518 211,-540 373,-540 373,-518 211,-518"/>
<polygon fill="none" stroke="black" points="211,-518 211,-540 373,-540 373,-518 211,-518"/>
<text text-anchor="start" x="216" y="-527.2" font-family="Helvetica,sans-Serif" font-weight="bold" font-size="11.00">aggregatedatasets</text>
<text text-anchor="start" x="338" y="-526.2" font-family="Helvetica,sans-Serif" font-size="11.00">[table]</text>
<polygon fill="none" stroke="black" points="211,-496 211,-518 373,-518 373,-496 211,-496"/>
<image xlink:href="../../images/primaryKeys.png" width="11px" height="12px" preserveAspectRatio="xMinYMin meet" x="216" y="-513"/>
<text text-anchor="start" x="231" y="-504.2" font-family="Helvetica,sans-Serif" font-size="11.00">aggregatedatasetid</text>
<polygon fill="none" stroke="black" points="211,-474 211,-496 373,-496 373,-474 211,-474"/>
<image xlink:href="../../images/foreignKeys.png" width="11px" height="12px" preserveAspectRatio="xMinYMin meet" x="216" y="-491"/>
<text text-anchor="start" x="231" y="-482.2" font-family="Helvetica,sans-Serif" font-size="11.00">aggregateordertypeid</text>
<polygon fill="none" stroke="black" points="211,-456 211,-474 373,-474 373,-456 211,-456"/>
<text text-anchor="start" x="214" y="-462.2" font-family="Helvetica,sans-Serif" font-size="11.00">...</text>
<polygon fill="#ffffff" stroke="transparent" points="211,-438 211,-456 269,-456 269,-438 211,-438"/>
<polygon fill="none" stroke="black" points="211,-438 211,-456 269,-456 269,-438 211,-438"/>
<text text-anchor="start" x="214" y="-444.2" font-family="Helvetica,sans-Serif" font-size="11.00">&lt; 1</text>
<polygon fill="#ffffff" stroke="transparent" points="269,-438 269,-456 332,-456 332,-438 269,-438"/>
<polygon fill="none" stroke="black" points="269,-438 269,-456 332,-456 332,-438 269,-438"/>
<text text-anchor="start" x="290" y="-444.2" font-family="Helvetica,sans-Serif" font-size="11.00">11 rows</text>
<polygon fill="#ffffff" stroke="transparent" points="332,-438 332,-456 373,-456 373,-438 332,-438"/>
<polygon fill="none" stroke="black" points="332,-438 332,-456 373,-456 373,-438 332,-438"/>
<text text-anchor="start" x="354" y="-444.2" font-family="Helvetica,sans-Serif" font-size="11.00">3 &gt;</text>
</a>
</g>
</g>
<!-- aggregatechronologies&#45;&gt;aggregatedatasets -->
<g id="edge2" class="edge">
<title>aggregatechronologies:w&#45;&gt;aggregatedatasets:e</title>
<path fill="none" stroke="black" d="M408.9,-405.99C382.71,-425.17 419.46,-507 374,-507"/>
<polygon fill="black" stroke="black" points="415.3,-404.18 423.98,-405.46 419.15,-403.09 423,-402 423,-402 423,-402 419.15,-403.09 422.02,-398.54 415.3,-404.18 415.3,-404.18"/>
<ellipse fill="none" stroke="black" cx="412.22" cy="-405.05" rx="3.2" ry="3.2"/>
</g>
<!-- aggregateordertypes -->
<g id="node4" class="node">
<title>aggregateordertypes</title>
<g id="a_node4"><a xlink:href="../../tables/aggregateordertypes.html" xlink:title="aggregateordertypes" target="_top">
<polygon fill="#ffffff" stroke="transparent" points="8,-458 8,-516 162,-516 162,-458 8,-458"/>
<polygon fill="#f5f5f5" stroke="transparent" points="8,-494 8,-516 162,-516 162,-494 8,-494"/>
<polygon fill="none" stroke="black" points="8,-494 8,-516 162,-516 162,-494 8,-494"/>
<text text-anchor="start" x="13" y="-503.2" font-family="Helvetica,sans-Serif" font-weight="bold" font-size="11.00">aggregateordertypes</text>
<text text-anchor="start" x="127" y="-502.2" font-family="Helvetica,sans-Serif" font-size="11.00">[table]</text>
<polygon fill="none" stroke="black" points="8,-476 8,-494 162,-494 162,-476 8,-476"/>
<text text-anchor="start" x="11" y="-482.2" font-family="Helvetica,sans-Serif" font-size="11.00">...</text>
<polygon fill="#ffffff" stroke="transparent" points="8,-458 8,-476 61,-476 61,-458 8,-458"/>
<polygon fill="none" stroke="black" points="8,-458 8,-476 61,-476 61,-458 8,-458"/>
<text text-anchor="start" x="11" y="-464.2" font-family="Helvetica,sans-Serif" font-size="11.00"> &#160;</text>
<polygon fill="#ffffff" stroke="transparent" points="61,-458 61,-476 120,-476 120,-458 61,-458"/>
<polygon fill="none" stroke="black" points="61,-458 61,-476 120,-476 120,-458 61,-458"/>
<text text-anchor="start" x="84" y="-464.2" font-family="Helvetica,sans-Serif" font-size="11.00">7 rows</text>
<polygon fill="#ffffff" stroke="transparent" points="120,-458 120,-476 162,-476 162,-458 120,-458"/>
<polygon fill="none" stroke="black" points="120,-458 120,-476 162,-476 162,-458 120,-458"/>
<text text-anchor="start" x="143" y="-464.2" font-family="Helvetica,sans-Serif" font-size="11.00">1 &gt;</text>
</a>
</g>
</g>
<!-- aggregatedatasets&#45;&gt;aggregateordertypes -->
<g id="edge3" class="edge">
<title>aggregatedatasets:w&#45;&gt;aggregateordertypes:e</title>
<path fill="none" stroke="black" d="M195.4,-485C184.93,-485 178.01,-485 163,-485"/>
<polygon fill="black" stroke="black" points="202,-485 210,-488.6 206,-485 210,-485 210,-485 210,-485 206,-485 210,-481.4 202,-485 202,-485"/>
<ellipse fill="none" stroke="black" cx="198.8" cy="-485" rx="3.2" ry="3.2"/>
</g>
<!-- aggregatesampleages -->
<g id="node5" class="node">
<title>aggregatesampleages</title>
<g id="a_node5"><a xlink:href="../../tables/aggregatesampleages.html" xlink:title="aggregatesampleages" target="_top">
<polygon fill="#ffffff" stroke="transparent" points="725,-355 725,-479 884,-479 884,-355 725,-355"/>
<polygon fill="#f5f5f5" stroke="transparent" points="725.5,-457 725.5,-479 884.5,-479 884.5,-457 725.5,-457"/>
<polygon fill="none" stroke="black" points="725.5,-457 725.5,-479 884.5,-479 884.5,-457 725.5,-457"/>
<text text-anchor="start" x="730.5" y="-466.2" font-family="Helvetica,sans-Serif" font-weight="bold" font-size="11.00">aggregatesampleages</text>
<text text-anchor="start" x="849.5" y="-465.2" font-family="Helvetica,sans-Serif" font-size="11.00">[table]</text>
<polygon fill="none" stroke="black" points="725.5,-435 725.5,-457 884.5,-457 884.5,-435 725.5,-435"/>
<image xlink:href="../../images/primaryKeys.png" width="11px" height="12px" preserveAspectRatio="xMinYMin meet" x="730.5" y="-452"/>
<text text-anchor="start" x="748.5" y="-443.2" font-family="Helvetica,sans-Serif" font-size="11.00">aggregatedatasetid</text>
<polygon fill="none" stroke="black" points="725.5,-413 725.5,-435 884.5,-435 884.5,-413 725.5,-413"/>
<image xlink:href="../../images/primaryKeys.png" width="11px" height="12px" preserveAspectRatio="xMinYMin meet" x="730.5" y="-430"/>
<text text-anchor="start" x="748.5" y="-421.2" font-family="Helvetica,sans-Serif" font-size="11.00">aggregatechronid</text>
<polygon fill="none" stroke="black" points="725.5,-391 725.5,-413 884.5,-413 884.5,-391 725.5,-391"/>
<image xlink:href="../../images/primaryKeys.png" width="11px" height="12px" preserveAspectRatio="xMinYMin meet" x="730.5" y="-408"/>
<text text-anchor="start" x="748.5" y="-399.2" font-family="Helvetica,sans-Serif" font-size="11.00">sampleageid</text>
<polygon fill="none" stroke="black" points="725.5,-373 725.5,-391 884.5,-391 884.5,-373 725.5,-373"/>
<text text-anchor="start" x="728.5" y="-379.2" font-family="Helvetica,sans-Serif" font-size="11.00">...</text>
<polygon fill="#ffffff" stroke="transparent" points="725.5,-355 725.5,-373 783.5,-373 783.5,-355 725.5,-355"/>
<polygon fill="none" stroke="black" points="725.5,-355 725.5,-373 783.5,-373 783.5,-355 725.5,-355"/>
<text text-anchor="start" x="728.5" y="-361.2" font-family="Helvetica,sans-Serif" font-size="11.00">&lt; 3</text>
<polygon fill="#ffffff" stroke="transparent" points="783.5,-355 783.5,-373 852.5,-373 852.5,-355 783.5,-355"/>
<polygon fill="none" stroke="black" points="783.5,-355 783.5,-373 852.5,-373 852.5,-355 783.5,-355"/>
<text text-anchor="start" x="804.5" y="-361.2" font-family="Helvetica,sans-Serif" font-size="11.00">369 rows</text>
<polygon fill="#ffffff" stroke="transparent" points="852.5,-355 852.5,-373 884.5,-373 884.5,-355 852.5,-355"/>
<polygon fill="none" stroke="black" points="852.5,-355 852.5,-373 884.5,-373 884.5,-355 852.5,-355"/>
<text text-anchor="start" x="874.5" y="-361.2" font-family="Helvetica,sans-Serif" font-size="11.00"> &#160;</text>
</a>
</g>
</g>
<!-- aggregatesampleages&#45;&gt;aggregatechronologies -->
<g id="edge4" class="edge">
<title>aggregatesampleages:w&#45;&gt;aggregatechronologies:e</title>
<path fill="none" stroke="black" d="M709.84,-424C698.41,-424 691.16,-424 675,-424"/>
<polygon fill="black" stroke="black" points="716.5,-424 724.5,-427.6 720.5,-424 724.5,-424 724.5,-424 724.5,-424 720.5,-424 724.5,-420.4 716.5,-424 716.5,-424"/>
<ellipse fill="none" stroke="black" cx="713.3" cy="-424" rx="3.2" ry="3.2"/>
</g>
<!-- aggregatesampleages&#45;&gt;aggregatedatasets -->
<g id="edge5" class="edge">
<title>aggregatesampleages:w&#45;&gt;aggregatedatasets:e</title>
<path fill="none" stroke="black" d="M710.3,-449.29C686.24,-464.08 719.57,-524.77 684,-549 584.83,-616.57 524.3,-596.27 414,-549 390.31,-538.85 399.78,-507 374,-507"/>
<polygon fill="black" stroke="black" points="716.71,-447.81 725.31,-449.51 720.6,-446.9 724.5,-446 724.5,-446 724.5,-446 720.6,-446.9 723.69,-442.49 716.71,-447.81 716.71,-447.81"/>
<ellipse fill="none" stroke="black" cx="713.59" cy="-448.53" rx="3.2" ry="3.2"/>
</g>
<!-- sampleages -->
<g id="node6" class="node">
<title>sampleages</title>
<g id="a_node6"><a xlink:href="../../tables/sampleages.html" xlink:title="sampleages" target="_top">
<polygon fill="#ffffff" stroke="transparent" points="491,-37 491,-95 607,-95 607,-37 491,-37"/>
<polygon fill="#f5f5f5" stroke="transparent" points="491,-73 491,-95 607,-95 607,-73 491,-73"/>
<polygon fill="none" stroke="black" points="491,-73 491,-95 607,-95 607,-73 491,-73"/>
<text text-anchor="start" x="496" y="-82.2" font-family="Helvetica,sans-Serif" font-weight="bold" font-size="11.00">sampleages</text>
<text text-anchor="start" x="572" y="-81.2" font-family="Helvetica,sans-Serif" font-size="11.00">[table]</text>
<polygon fill="none" stroke="black" points="491,-55 491,-73 607,-73 607,-55 491,-55"/>
<text text-anchor="start" x="494" y="-61.2" font-family="Helvetica,sans-Serif" font-size="11.00">...</text>
<polygon fill="#ffffff" stroke="transparent" points="491,-37 491,-55 513,-55 513,-37 491,-37"/>
<polygon fill="none" stroke="black" points="491,-37 491,-55 513,-55 513,-37 491,-37"/>
<text text-anchor="start" x="494" y="-43.2" font-family="Helvetica,sans-Serif" font-size="11.00">&lt; 2</text>
<polygon fill="#ffffff" stroke="transparent" points="513,-37 513,-55 585,-55 585,-37 513,-37"/>
<polygon fill="none" stroke="black" points="513,-37 513,-55 585,-55 585,-37 513,-37"/>
<text text-anchor="start" x="516" y="-43.2" font-family="Helvetica,sans-Serif" font-size="11.00">616,120 rows</text>
<polygon fill="#ffffff" stroke="transparent" points="585,-37 585,-55 607,-55 607,-37 585,-37"/>
<polygon fill="none" stroke="black" points="585,-37 585,-55 607,-55 607,-37 585,-37"/>
<text text-anchor="start" x="588" y="-43.2" font-family="Helvetica,sans-Serif" font-size="11.00">1 &gt;</text>
</a>
</g>
</g>
<!-- aggregatesampleages&#45;&gt;sampleages -->
<g id="edge6" class="edge">
<title>aggregatesampleages:w&#45;&gt;sampleages:e</title>
<path fill="none" stroke="black" d="M710.62,-397.35C667.71,-363.52 718.82,-155.27 684,-105 662.15,-73.45 646.38,-64 608,-64"/>
<polygon fill="black" stroke="black" points="716.91,-399.46 723.36,-405.41 720.71,-400.73 724.5,-402 724.5,-402 724.5,-402 720.71,-400.73 725.64,-398.59 716.91,-399.46 716.91,-399.46"/>
<ellipse fill="none" stroke="black" cx="713.88" cy="-398.44" rx="3.2" ry="3.2"/>
</g>
<!-- chronologies -->
<g id="node9" class="node">
<title>chronologies</title>
<g id="a_node9"><a xlink:href="../../tables/chronologies.html" xlink:title="chronologies" target="_top">
<polygon fill="#ffffff" stroke="transparent" points="235,-77 235,-135 349,-135 349,-77 235,-77"/>
<polygon fill="#f5f5f5" stroke="transparent" points="235,-113 235,-135 349,-135 349,-113 235,-113"/>
<polygon fill="none" stroke="black" points="235,-113 235,-135 349,-135 349,-113 235,-113"/>
<text text-anchor="start" x="240" y="-122.2" font-family="Helvetica,sans-Serif" font-weight="bold" font-size="11.00">chronologies</text>
<text text-anchor="start" x="314" y="-121.2" font-family="Helvetica,sans-Serif" font-size="11.00">[table]</text>
<polygon fill="none" stroke="black" points="235,-95 235,-113 349,-113 349,-95 235,-95"/>
<text text-anchor="start" x="238" y="-101.2" font-family="Helvetica,sans-Serif" font-size="11.00">...</text>
<polygon fill="#ffffff" stroke="transparent" points="235,-77 235,-95 259,-95 259,-77 235,-77"/>
<polygon fill="none" stroke="black" points="235,-77 235,-95 259,-95 259,-77 235,-77"/>
<text text-anchor="start" x="238" y="-83.2" font-family="Helvetica,sans-Serif" font-size="11.00">&lt; 3</text>
<polygon fill="#ffffff" stroke="transparent" points="259,-77 259,-95 326,-95 326,-77 259,-77"/>
<polygon fill="none" stroke="black" points="259,-77 259,-95 326,-95 326,-77 259,-77"/>
<text text-anchor="start" x="263" y="-83.2" font-family="Helvetica,sans-Serif" font-size="11.00">32,182 rows</text>
<polygon fill="#ffffff" stroke="transparent" points="326,-77 326,-95 349,-95 349,-77 326,-77"/>
<polygon fill="none" stroke="black" points="326,-77 326,-95 349,-95 349,-77 326,-77"/>
<text text-anchor="start" x="330" y="-83.2" font-family="Helvetica,sans-Serif" font-size="11.00">3 &gt;</text>
</a>
</g>
</g>
<!-- sampleages&#45;&gt;chronologies -->
<g id="edge12" class="edge">
<title>sampleages:w&#45;&gt;chronologies:e</title>
<path fill="none" stroke="black" d="M475.44,-64.73C423.25,-70.15 409.53,-104 350,-104"/>
<polygon fill="black" stroke="black" points="482.01,-64.4 490.18,-67.6 486,-64.2 490,-64 490,-64 490,-64 486,-64.2 489.82,-60.4 482.01,-64.4 482.01,-64.4"/>
<ellipse fill="none" stroke="black" cx="478.81" cy="-64.56" rx="3.2" ry="3.2"/>
</g>
<!-- aggregatesamples -->
<g id="node7" class="node">
<title>aggregatesamples</title>
<g id="a_node7"><a xlink:href="../../tables/aggregatesamples.html" xlink:title="aggregatesamples" target="_top">
<polygon fill="#ffffff" stroke="transparent" points="478.5,-480 478.5,-538 619.5,-538 619.5,-480 478.5,-480"/>
<polygon fill="#f5f5f5" stroke="transparent" points="479,-516 479,-538 620,-538 620,-516 479,-516"/>
<polygon fill="none" stroke="black" points="479,-516 479,-538 620,-538 620,-516 479,-516"/>
<text text-anchor="start" x="484" y="-525.2" font-family="Helvetica,sans-Serif" font-weight="bold" font-size="11.00">aggregatesamples</text>
<text text-anchor="start" x="585" y="-524.2" font-family="Helvetica,sans-Serif" font-size="11.00">[table]</text>
<polygon fill="none" stroke="black" points="479,-498 479,-516 620,-516 620,-498 479,-498"/>
<text text-anchor="start" x="482" y="-504.2" font-family="Helvetica,sans-Serif" font-size="11.00">...</text>
<polygon fill="#ffffff" stroke="transparent" points="479,-480 479,-498 528,-498 528,-480 479,-480"/>
<polygon fill="none" stroke="black" points="479,-480 479,-498 528,-498 528,-480 479,-480"/>
<text text-anchor="start" x="482" y="-486.2" font-family="Helvetica,sans-Serif" font-size="11.00">&lt; 2</text>
<polygon fill="#ffffff" stroke="transparent" points="528,-480 528,-498 593,-498 593,-480 528,-480"/>
<polygon fill="none" stroke="black" points="528,-480 528,-498 593,-498 593,-480 528,-480"/>
<text text-anchor="start" x="545" y="-486.2" font-family="Helvetica,sans-Serif" font-size="11.00">553 rows</text>
<polygon fill="#ffffff" stroke="transparent" points="593,-480 593,-498 620,-498 620,-480 593,-480"/>
<polygon fill="none" stroke="black" points="593,-480 593,-498 620,-498 620,-480 593,-480"/>
<text text-anchor="start" x="610" y="-486.2" font-family="Helvetica,sans-Serif" font-size="11.00"> &#160;</text>
</a>
</g>
</g>
<!-- aggregatesamples&#45;&gt;aggregatedatasets -->
<g id="edge7" class="edge">
<title>aggregatesamples:w&#45;&gt;aggregatedatasets:e</title>
<path fill="none" stroke="black" d="M463.53,-507C428.71,-507 414.99,-507 374,-507"/>
<polygon fill="black" stroke="black" points="470,-507 478,-510.6 474,-507 478,-507 478,-507 478,-507 474,-507 478,-503.4 470,-507 470,-507"/>
<ellipse fill="none" stroke="black" cx="466.8" cy="-507" rx="3.2" ry="3.2"/>
</g>
<!-- chroncontrols -->
<g id="node8" class="node">
<title>chroncontrols</title>
<g id="a_node8"><a xlink:href="../../tables/chroncontrols.html" xlink:title="chroncontrols" target="_top">
<polygon fill="#ffffff" stroke="transparent" points="489.5,-116 489.5,-174 608.5,-174 608.5,-116 489.5,-116"/>
<polygon fill="#f5f5f5" stroke="transparent" points="490,-152 490,-174 609,-174 609,-152 490,-152"/>
<polygon fill="none" stroke="black" points="490,-152 490,-174 609,-174 609,-152 490,-152"/>
<text text-anchor="start" x="495" y="-161.2" font-family="Helvetica,sans-Serif" font-weight="bold" font-size="11.00">chroncontrols</text>
<text text-anchor="start" x="574" y="-160.2" font-family="Helvetica,sans-Serif" font-size="11.00">[table]</text>
<polygon fill="none" stroke="black" points="490,-134 490,-152 609,-152 609,-134 490,-134"/>
<text text-anchor="start" x="493" y="-140.2" font-family="Helvetica,sans-Serif" font-size="11.00">...</text>
<polygon fill="#ffffff" stroke="transparent" points="490,-116 490,-134 513,-134 513,-116 490,-116"/>
<polygon fill="none" stroke="black" points="490,-116 490,-134 513,-134 513,-116 490,-116"/>
<text text-anchor="start" x="493" y="-122.2" font-family="Helvetica,sans-Serif" font-size="11.00">&lt; 4</text>
<polygon fill="#ffffff" stroke="transparent" points="513,-116 513,-134 586,-134 586,-116 513,-116"/>
<polygon fill="none" stroke="black" points="513,-116 513,-134 586,-134 586,-116 513,-116"/>
<text text-anchor="start" x="517" y="-122.2" font-family="Helvetica,sans-Serif" font-size="11.00">103,140 rows</text>
<polygon fill="#ffffff" stroke="transparent" points="586,-116 586,-134 609,-134 609,-116 586,-116"/>
<polygon fill="none" stroke="black" points="586,-116 586,-134 609,-134 609,-116 586,-116"/>
<text text-anchor="start" x="590" y="-122.2" font-family="Helvetica,sans-Serif" font-size="11.00">5 &gt;</text>
</a>
</g>
</g>
<!-- chroncontrols&#45;&gt;agetypes -->
<g id="edge8" class="edge">
<title>chroncontrols:w&#45;&gt;agetypes:e</title>
<path fill="none" stroke="black" d="M474.62,-143.96C448.38,-147.83 439.04,-163.05 414,-184 396.06,-199.01 402.1,-214.9 381,-225 309.65,-259.16 281.54,-234.5 203,-225 177.1,-221.87 172.09,-211 146,-211"/>
<polygon fill="black" stroke="black" points="481.02,-143.53 489.24,-146.59 485.01,-143.27 489,-143 489,-143 489,-143 485.01,-143.27 488.76,-139.41 481.02,-143.53 481.02,-143.53"/>
<ellipse fill="none" stroke="black" cx="477.82" cy="-143.75" rx="3.2" ry="3.2"/>
</g>
<!-- chroncontrols&#45;&gt;chronologies -->
<g id="edge9" class="edge">
<title>chroncontrols:w&#45;&gt;chronologies:e</title>
<path fill="none" stroke="black" d="M474.56,-142.29C422.78,-137 409.03,-104 350,-104"/>
<polygon fill="black" stroke="black" points="481.01,-142.61 488.82,-146.6 485,-142.8 489,-143 489,-143 489,-143 485,-142.8 489.18,-139.4 481.01,-142.61 481.01,-142.61"/>
<ellipse fill="none" stroke="black" cx="477.81" cy="-142.45" rx="3.2" ry="3.2"/>
</g>
<!-- chronologies&#45;&gt;agetypes -->
<g id="edge10" class="edge">
<title>chronologies:w&#45;&gt;agetypes:e</title>
<path fill="none" stroke="black" d="M219.61,-106.44C177.96,-122.36 202.04,-211 146,-211"/>
<polygon fill="black" stroke="black" points="226.11,-105.33 234.6,-107.55 230.06,-104.67 234,-104 234,-104 234,-104 230.06,-104.67 233.4,-100.45 226.11,-105.33 226.11,-105.33"/>
<ellipse fill="none" stroke="black" cx="222.96" cy="-105.87" rx="3.2" ry="3.2"/>
</g>
<!-- geochronology -->
<g id="node10" class="node">
<title>geochronology</title>
<g id="a_node10"><a xlink:href="../../tables/geochronology.html" xlink:title="geochronology" target="_top">
<polygon fill="#ffffff" stroke="transparent" points="230,-156 230,-214 354,-214 354,-156 230,-156"/>
<polygon fill="#f5f5f5" stroke="transparent" points="230,-192 230,-214 354,-214 354,-192 230,-192"/>
<polygon fill="none" stroke="black" points="230,-192 230,-214 354,-214 354,-192 230,-192"/>
<text text-anchor="start" x="235" y="-201.2" font-family="Helvetica,sans-Serif" font-weight="bold" font-size="11.00">geochronology</text>
<text text-anchor="start" x="319" y="-200.2" font-family="Helvetica,sans-Serif" font-size="11.00">[table]</text>
<polygon fill="none" stroke="black" points="230,-174 230,-192 354,-192 354,-174 230,-174"/>
<text text-anchor="start" x="233" y="-180.2" font-family="Helvetica,sans-Serif" font-size="11.00">...</text>
<polygon fill="#ffffff" stroke="transparent" points="230,-156 230,-174 259,-174 259,-156 230,-156"/>
<polygon fill="none" stroke="black" points="230,-156 230,-174 259,-174 259,-156 230,-156"/>
<text text-anchor="start" x="233" y="-162.2" font-family="Helvetica,sans-Serif" font-size="11.00">&lt; 3</text>
<polygon fill="#ffffff" stroke="transparent" points="259,-156 259,-174 328,-174 328,-156 259,-156"/>
<polygon fill="none" stroke="black" points="259,-156 259,-174 328,-174 328,-156 259,-156"/>
<text text-anchor="start" x="265" y="-162.2" font-family="Helvetica,sans-Serif" font-size="11.00">41,130 rows</text>
<polygon fill="#ffffff" stroke="transparent" points="328,-156 328,-174 354,-174 354,-156 328,-156"/>
<polygon fill="none" stroke="black" points="328,-156 328,-174 354,-174 354,-156 328,-156"/>
<text text-anchor="start" x="335" y="-162.2" font-family="Helvetica,sans-Serif" font-size="11.00">4 &gt;</text>
</a>
</g>
</g>
<!-- geochronology&#45;&gt;agetypes -->
<g id="edge11" class="edge">
<title>geochronology:w&#45;&gt;agetypes:e</title>
<path fill="none" stroke="black" d="M214.39,-184.51C187.96,-190.32 179.46,-211 146,-211"/>
<polygon fill="black" stroke="black" points="221.04,-183.82 229.37,-186.58 225.02,-183.41 229,-183 229,-183 229,-183 225.02,-183.41 228.63,-179.42 221.04,-183.82 221.04,-183.82"/>
<ellipse fill="none" stroke="black" cx="217.86" cy="-184.15" rx="3.2" ry="3.2"/>
</g>
</g>
</svg>
