<?xml version="1.0" encoding="UTF-8" standalone="no"?>
<!DOCTYPE svg PUBLIC "-//W3C//DTD SVG 1.1//EN"
 "http://www.w3.org/Graphics/SVG/1.1/DTD/svg11.dtd">
<!-- Generated by graphviz version 2.43.0 (0)
 -->
<!-- Title: twoDegreesRelationshipsDiagramImplied Pages: 1 -->
<svg width="863pt" height="794pt"
 viewBox="0.00 0.00 863.00 794.24" xmlns="http://www.w3.org/2000/svg" xmlns:xlink="http://www.w3.org/1999/xlink">
<g id="graph0" class="graph" transform="scale(1 1) rotate(0) translate(4 790.24)">
<title>twoDegreesRelationshipsDiagramImplied</title>
<polygon fill="#ffffff" stroke="transparent" points="-4,4 -4,-790.24 859,-790.24 859,4 -4,4"/>
<text text-anchor="middle" x="71.5" y="-7.2" font-family="Helvetica,sans-Serif" font-size="11.00">Generated by SchemaSpy</text>
<!-- aggregatechronologies -->
<g id="node1" class="node">
<title>aggregatechronologies</title>
<g id="a_node1"><a xlink:href="../../tables/aggregatechronologies.html" xlink:title="aggregatechronologies" target="_top">
<polygon fill="#ffffff" stroke="transparent" points="447.5,-724.24 447.5,-782.24 613.5,-782.24 613.5,-724.24 447.5,-724.24"/>
<polygon fill="#f5f5f5" stroke="transparent" points="447.5,-760.24 447.5,-782.24 613.5,-782.24 613.5,-760.24 447.5,-760.24"/>
<polygon fill="none" stroke="black" points="447.5,-760.24 447.5,-782.24 613.5,-782.24 613.5,-760.24 447.5,-760.24"/>
<text text-anchor="start" x="452.5" y="-769.44" font-family="Helvetica,sans-Serif" font-weight="bold" font-size="11.00">aggregatechronologies</text>
<text text-anchor="start" x="578.5" y="-768.44" font-family="Helvetica,sans-Serif" font-size="11.00">[table]</text>
<polygon fill="none" stroke="black" points="447.5,-742.24 447.5,-760.24 613.5,-760.24 613.5,-742.24 447.5,-742.24"/>
<text text-anchor="start" x="450.5" y="-748.44" font-family="Helvetica,sans-Serif" font-size="11.00">...</text>
<polygon fill="#ffffff" stroke="transparent" points="447.5,-724.24 447.5,-742.24 510.5,-742.24 510.5,-724.24 447.5,-724.24"/>
<polygon fill="none" stroke="black" points="447.5,-724.24 447.5,-742.24 510.5,-742.24 510.5,-724.24 447.5,-724.24"/>
<text text-anchor="start" x="450.5" y="-730.44" font-family="Helvetica,sans-Serif" font-size="11.00">&lt; 2</text>
<polygon fill="#ffffff" stroke="transparent" points="510.5,-724.24 510.5,-742.24 570.5,-742.24 570.5,-724.24 510.5,-724.24"/>
<polygon fill="none" stroke="black" points="510.5,-724.24 510.5,-742.24 570.5,-742.24 570.5,-724.24 510.5,-724.24"/>
<text text-anchor="start" x="534.5" y="-730.44" font-family="Helvetica,sans-Serif" font-size="11.00">7 rows</text>
<polygon fill="#ffffff" stroke="transparent" points="570.5,-724.24 570.5,-742.24 613.5,-742.24 613.5,-724.24 570.5,-724.24"/>
<polygon fill="none" stroke="black" points="570.5,-724.24 570.5,-742.24 613.5,-742.24 613.5,-724.24 570.5,-724.24"/>
<text text-anchor="start" x="594.5" y="-730.44" font-family="Helvetica,sans-Serif" font-size="11.00">1 &gt;</text>
</a>
</g>
</g>
<!-- aggregatedatasets -->
<g id="node2" class="node">
<title>aggregatedatasets</title>
<g id="a_node2"><a xlink:href="../../tables/aggregatedatasets.html" xlink:title="aggregatedatasets" target="_top">
<polygon fill="#ffffff" stroke="transparent" points="211,-631.24 211,-733.24 373,-733.24 373,-631.24 211,-631.24"/>
<polygon fill="#f5f5f5" stroke="transparent" points="211,-711.24 211,-733.24 373,-733.24 373,-711.24 211,-711.24"/>
<polygon fill="none" stroke="black" points="211,-711.24 211,-733.24 373,-733.24 373,-711.24 211,-711.24"/>
<text text-anchor="start" x="216" y="-720.44" font-family="Helvetica,sans-Serif" font-weight="bold" font-size="11.00">aggregatedatasets</text>
<text text-anchor="start" x="338" y="-719.44" font-family="Helvetica,sans-Serif" font-size="11.00">[table]</text>
<polygon fill="none" stroke="black" points="211,-689.24 211,-711.24 373,-711.24 373,-689.24 211,-689.24"/>
<image xlink:href="../../images/primaryKeys.png" width="11px" height="12px" preserveAspectRatio="xMinYMin meet" x="216" y="-706.241"/>
<text text-anchor="start" x="231" y="-697.44" font-family="Helvetica,sans-Serif" font-size="11.00">aggregatedatasetid</text>
<polygon fill="none" stroke="black" points="211,-667.24 211,-689.24 373,-689.24 373,-667.24 211,-667.24"/>
<image xlink:href="../../images/foreignKeys.png" width="11px" height="12px" preserveAspectRatio="xMinYMin meet" x="216" y="-684.241"/>
<text text-anchor="start" x="231" y="-675.44" font-family="Helvetica,sans-Serif" font-size="11.00">aggregateordertypeid</text>
<polygon fill="none" stroke="black" points="211,-649.24 211,-667.24 373,-667.24 373,-649.24 211,-649.24"/>
<text text-anchor="start" x="214" y="-655.44" font-family="Helvetica,sans-Serif" font-size="11.00">...</text>
<polygon fill="#ffffff" stroke="transparent" points="211,-631.24 211,-649.24 269,-649.24 269,-631.24 211,-631.24"/>
<polygon fill="none" stroke="black" points="211,-631.24 211,-649.24 269,-649.24 269,-631.24 211,-631.24"/>
<text text-anchor="start" x="214" y="-637.44" font-family="Helvetica,sans-Serif" font-size="11.00">&lt; 1</text>
<polygon fill="#ffffff" stroke="transparent" points="269,-631.24 269,-649.24 332,-649.24 332,-631.24 269,-631.24"/>
<polygon fill="none" stroke="black" points="269,-631.24 269,-649.24 332,-649.24 332,-631.24 269,-631.24"/>
<text text-anchor="start" x="290" y="-637.44" font-family="Helvetica,sans-Serif" font-size="11.00">11 rows</text>
<polygon fill="#ffffff" stroke="transparent" points="332,-631.24 332,-649.24 373,-649.24 373,-631.24 332,-631.24"/>
<polygon fill="none" stroke="black" points="332,-631.24 332,-649.24 373,-649.24 373,-631.24 332,-631.24"/>
<text text-anchor="start" x="354" y="-637.44" font-family="Helvetica,sans-Serif" font-size="11.00">3 &gt;</text>
</a>
</g>
</g>
<!-- aggregatechronologies&#45;&gt;aggregatedatasets -->
<g id="edge1" class="edge">
<title>aggregatechronologies:w&#45;&gt;aggregatedatasets:e</title>
<path fill="none" stroke="black" d="M432.34,-748.5C407.97,-737.91 407.86,-700.24 374,-700.24"/>
<polygon fill="black" stroke="black" points="438.65,-749.72 445.82,-754.78 442.57,-750.48 446.5,-751.24 446.5,-751.24 446.5,-751.24 442.57,-750.48 447.18,-747.71 438.65,-749.72 438.65,-749.72"/>
<ellipse fill="none" stroke="black" cx="435.5" cy="-749.11" rx="3.2" ry="3.2"/>
</g>
<!-- aggregateordertypes -->
<g id="node3" class="node">
<title>aggregateordertypes</title>
<g id="a_node3"><a xlink:href="../../tables/aggregateordertypes.html" xlink:title="aggregateordertypes" target="_top">
<polygon fill="#ffffff" stroke="transparent" points="8,-651.24 8,-709.24 162,-709.24 162,-651.24 8,-651.24"/>
<polygon fill="#f5f5f5" stroke="transparent" points="8,-687.24 8,-709.24 162,-709.24 162,-687.24 8,-687.24"/>
<polygon fill="none" stroke="black" points="8,-687.24 8,-709.24 162,-709.24 162,-687.24 8,-687.24"/>
<text text-anchor="start" x="13" y="-696.44" font-family="Helvetica,sans-Serif" font-weight="bold" font-size="11.00">aggregateordertypes</text>
<text text-anchor="start" x="127" y="-695.44" font-family="Helvetica,sans-Serif" font-size="11.00">[table]</text>
<polygon fill="none" stroke="black" points="8,-669.24 8,-687.24 162,-687.24 162,-669.24 8,-669.24"/>
<text text-anchor="start" x="11" y="-675.44" font-family="Helvetica,sans-Serif" font-size="11.00">...</text>
<polygon fill="#ffffff" stroke="transparent" points="8,-651.24 8,-669.24 61,-669.24 61,-651.24 8,-651.24"/>
<polygon fill="none" stroke="black" points="8,-651.24 8,-669.24 61,-669.24 61,-651.24 8,-651.24"/>
<text text-anchor="start" x="11" y="-657.44" font-family="Helvetica,sans-Serif" font-size="11.00"> &#160;</text>
<polygon fill="#ffffff" stroke="transparent" points="61,-651.24 61,-669.24 120,-669.24 120,-651.24 61,-651.24"/>
<polygon fill="none" stroke="black" points="61,-651.24 61,-669.24 120,-669.24 120,-651.24 61,-651.24"/>
<text text-anchor="start" x="84" y="-657.44" font-family="Helvetica,sans-Serif" font-size="11.00">7 rows</text>
<polygon fill="#ffffff" stroke="transparent" points="120,-651.24 120,-669.24 162,-669.24 162,-651.24 120,-651.24"/>
<polygon fill="none" stroke="black" points="120,-651.24 120,-669.24 162,-669.24 162,-651.24 120,-651.24"/>
<text text-anchor="start" x="143" y="-657.44" font-family="Helvetica,sans-Serif" font-size="11.00">1 &gt;</text>
</a>
</g>
</g>
<!-- aggregatedatasets&#45;&gt;aggregateordertypes -->
<g id="edge2" class="edge">
<title>aggregatedatasets:w&#45;&gt;aggregateordertypes:e</title>
<path fill="none" stroke="black" d="M195.4,-678.24C184.93,-678.24 178.01,-678.24 163,-678.24"/>
<polygon fill="black" stroke="black" points="202,-678.24 210,-681.84 206,-678.24 210,-678.24 210,-678.24 210,-678.24 206,-678.24 210,-674.64 202,-678.24 202,-678.24"/>
<ellipse fill="none" stroke="black" cx="198.8" cy="-678.24" rx="3.2" ry="3.2"/>
</g>
<!-- aggregatesampleages -->
<g id="node4" class="node">
<title>aggregatesampleages</title>
<g id="a_node4"><a xlink:href="../../tables/aggregatesampleages.html" xlink:title="aggregatesampleages" target="_top">
<polygon fill="#ffffff" stroke="transparent" points="688,-673.24 688,-731.24 847,-731.24 847,-673.24 688,-673.24"/>
<polygon fill="#f5f5f5" stroke="transparent" points="688.5,-709.24 688.5,-731.24 847.5,-731.24 847.5,-709.24 688.5,-709.24"/>
<polygon fill="none" stroke="black" points="688.5,-709.24 688.5,-731.24 847.5,-731.24 847.5,-709.24 688.5,-709.24"/>
<text text-anchor="start" x="693.5" y="-718.44" font-family="Helvetica,sans-Serif" font-weight="bold" font-size="11.00">aggregatesampleages</text>
<text text-anchor="start" x="812.5" y="-717.44" font-family="Helvetica,sans-Serif" font-size="11.00">[table]</text>
<polygon fill="none" stroke="black" points="688.5,-691.24 688.5,-709.24 847.5,-709.24 847.5,-691.24 688.5,-691.24"/>
<text text-anchor="start" x="691.5" y="-697.44" font-family="Helvetica,sans-Serif" font-size="11.00">...</text>
<polygon fill="#ffffff" stroke="transparent" points="688.5,-673.24 688.5,-691.24 746.5,-691.24 746.5,-673.24 688.5,-673.24"/>
<polygon fill="none" stroke="black" points="688.5,-673.24 688.5,-691.24 746.5,-691.24 746.5,-673.24 688.5,-673.24"/>
<text text-anchor="start" x="691.5" y="-679.44" font-family="Helvetica,sans-Serif" font-size="11.00">&lt; 3</text>
<polygon fill="#ffffff" stroke="transparent" points="746.5,-673.24 746.5,-691.24 815.5,-691.24 815.5,-673.24 746.5,-673.24"/>
<polygon fill="none" stroke="black" points="746.5,-673.24 746.5,-691.24 815.5,-691.24 815.5,-673.24 746.5,-673.24"/>
<text text-anchor="start" x="767.5" y="-679.44" font-family="Helvetica,sans-Serif" font-size="11.00">369 rows</text>
<polygon fill="#ffffff" stroke="transparent" points="815.5,-673.24 815.5,-691.24 847.5,-691.24 847.5,-673.24 815.5,-673.24"/>
<polygon fill="none" stroke="black" points="815.5,-673.24 815.5,-691.24 847.5,-691.24 847.5,-673.24 815.5,-673.24"/>
<text text-anchor="start" x="837.5" y="-679.44" font-family="Helvetica,sans-Serif" font-size="11.00"> &#160;</text>
</a>
</g>
</g>
<!-- aggregatesampleages&#45;&gt;aggregatechronologies -->
<g id="edge3" class="edge">
<title>aggregatesampleages:w&#45;&gt;aggregatechronologies:e</title>
<path fill="none" stroke="black" d="M673.26,-702.98C648.75,-713.58 648.51,-751.24 614.5,-751.24"/>
<polygon fill="black" stroke="black" points="679.64,-701.75 688.18,-703.78 683.57,-701 687.5,-700.24 687.5,-700.24 687.5,-700.24 683.57,-701 686.82,-696.71 679.64,-701.75 679.64,-701.75"/>
<ellipse fill="none" stroke="black" cx="676.5" cy="-702.36" rx="3.2" ry="3.2"/>
</g>
<!-- aggregatesampleages&#45;&gt;aggregatedatasets -->
<g id="edge4" class="edge">
<title>aggregatesampleages:w&#45;&gt;aggregatedatasets:e</title>
<path fill="none" stroke="black" d="M672.8,-700.24C545.51,-700.24 508.3,-700.24 374,-700.24"/>
<polygon fill="black" stroke="black" points="679.5,-700.24 687.5,-703.84 683.5,-700.24 687.5,-700.24 687.5,-700.24 687.5,-700.24 683.5,-700.24 687.5,-696.64 679.5,-700.24 679.5,-700.24"/>
<ellipse fill="none" stroke="black" cx="676.3" cy="-700.24" rx="3.2" ry="3.2"/>
</g>
<!-- sampleages -->
<g id="node5" class="node">
<title>sampleages</title>
<g id="a_node5"><a xlink:href="../../tables/sampleages.html" xlink:title="sampleages" target="_top">
<polygon fill="#ffffff" stroke="transparent" points="472.5,-167.24 472.5,-225.24 588.5,-225.24 588.5,-167.24 472.5,-167.24"/>
<polygon fill="#f5f5f5" stroke="transparent" points="472.5,-203.24 472.5,-225.24 588.5,-225.24 588.5,-203.24 472.5,-203.24"/>
<polygon fill="none" stroke="black" points="472.5,-203.24 472.5,-225.24 588.5,-225.24 588.5,-203.24 472.5,-203.24"/>
<text text-anchor="start" x="477.5" y="-212.44" font-family="Helvetica,sans-Serif" font-weight="bold" font-size="11.00">sampleages</text>
<text text-anchor="start" x="553.5" y="-211.44" font-family="Helvetica,sans-Serif" font-size="11.00">[table]</text>
<polygon fill="none" stroke="black" points="472.5,-185.24 472.5,-203.24 588.5,-203.24 588.5,-185.24 472.5,-185.24"/>
<text text-anchor="start" x="475.5" y="-191.44" font-family="Helvetica,sans-Serif" font-size="11.00">...</text>
<polygon fill="#ffffff" stroke="transparent" points="472.5,-167.24 472.5,-185.24 494.5,-185.24 494.5,-167.24 472.5,-167.24"/>
<polygon fill="none" stroke="black" points="472.5,-167.24 472.5,-185.24 494.5,-185.24 494.5,-167.24 472.5,-167.24"/>
<text text-anchor="start" x="475.5" y="-173.44" font-family="Helvetica,sans-Serif" font-size="11.00">&lt; 2</text>
<polygon fill="#ffffff" stroke="transparent" points="494.5,-167.24 494.5,-185.24 566.5,-185.24 566.5,-167.24 494.5,-167.24"/>
<polygon fill="none" stroke="black" points="494.5,-167.24 494.5,-185.24 566.5,-185.24 566.5,-167.24 494.5,-167.24"/>
<text text-anchor="start" x="497.5" y="-173.44" font-family="Helvetica,sans-Serif" font-size="11.00">591,749 rows</text>
<polygon fill="#ffffff" stroke="transparent" points="566.5,-167.24 566.5,-185.24 588.5,-185.24 588.5,-167.24 566.5,-167.24"/>
<polygon fill="none" stroke="black" points="566.5,-167.24 566.5,-185.24 588.5,-185.24 588.5,-167.24 566.5,-167.24"/>
<text text-anchor="start" x="569.5" y="-173.44" font-family="Helvetica,sans-Serif" font-size="11.00">1 &gt;</text>
</a>
</g>
</g>
<!-- aggregatesampleages&#45;&gt;sampleages -->
<g id="edge5" class="edge">
<title>aggregatesampleages:w&#45;&gt;sampleages:e</title>
<path fill="none" stroke="black" d="M676.02,-691.46C641.59,-631 670.24,-277.44 647,-236.24 631.45,-208.68 621.15,-194.24 589.5,-194.24"/>
<polygon fill="black" stroke="black" points="681.15,-695.38 685.31,-703.1 684.32,-697.81 687.5,-700.24 687.5,-700.24 687.5,-700.24 684.32,-697.81 689.69,-697.38 681.15,-695.38 681.15,-695.38"/>
<ellipse fill="none" stroke="black" cx="678.6" cy="-693.44" rx="3.2" ry="3.2"/>
</g>
<!-- samples -->
<g id="node7" class="node">
<title>samples</title>
<g id="a_node7"><a xlink:href="../../tables/samples.html" xlink:title="samples" target="_top">
<polygon fill="#ffffff" stroke="transparent" points="222.5,-200.24 222.5,-346.24 361.5,-346.24 361.5,-200.24 222.5,-200.24"/>
<polygon fill="#f5f5f5" stroke="transparent" points="223,-324.24 223,-346.24 362,-346.24 362,-324.24 223,-324.24"/>
<polygon fill="none" stroke="black" points="223,-324.24 223,-346.24 362,-346.24 362,-324.24 223,-324.24"/>
<text text-anchor="start" x="228" y="-333.44" font-family="Helvetica,sans-Serif" font-weight="bold" font-size="11.00">samples</text>
<text text-anchor="start" x="327" y="-332.44" font-family="Helvetica,sans-Serif" font-size="11.00">[table]</text>
<polygon fill="none" stroke="black" points="223,-302.24 223,-324.24 362,-324.24 362,-302.24 223,-302.24"/>
<image xlink:href="../../images/primaryKeys.png" width="11px" height="12px" preserveAspectRatio="xMinYMin meet" x="228" y="-319.241"/>
<text text-anchor="start" x="243" y="-310.44" font-family="Helvetica,sans-Serif" font-size="11.00">sampleid</text>
<polygon fill="#ffffff" stroke="transparent" points="223,-280.24 223,-302.24 362,-302.24 362,-280.24 223,-280.24"/>
<polygon fill="none" stroke="black" points="223,-280.24 223,-302.24 362,-302.24 362,-280.24 223,-280.24"/>
<image xlink:href="../../images/foreignKeys.png" width="11px" height="12px" preserveAspectRatio="xMinYMin meet" x="228" y="-297.241"/>
<text text-anchor="start" x="243" y="-288.44" font-family="Helvetica,sans-Serif" font-size="11.00">analysisunitid</text>
<polygon fill="#ffffff" stroke="transparent" points="223,-258.24 223,-280.24 362,-280.24 362,-258.24 223,-258.24"/>
<polygon fill="none" stroke="black" points="223,-258.24 223,-280.24 362,-280.24 362,-258.24 223,-258.24"/>
<image xlink:href="../../images/foreignKeys.png" width="11px" height="12px" preserveAspectRatio="xMinYMin meet" x="228" y="-275.241"/>
<text text-anchor="start" x="243" y="-266.44" font-family="Helvetica,sans-Serif" font-size="11.00">datasetid</text>
<polygon fill="#ffffff" stroke="transparent" points="223,-236.24 223,-258.24 362,-258.24 362,-236.24 223,-236.24"/>
<polygon fill="none" stroke="black" points="223,-236.24 223,-258.24 362,-258.24 362,-236.24 223,-236.24"/>
<image xlink:href="../../images/foreignKeys.png" width="11px" height="12px" preserveAspectRatio="xMinYMin meet" x="228" y="-253.241"/>
<text text-anchor="start" x="243" y="-244.44" font-family="Helvetica,sans-Serif" font-size="11.00">taxonid</text>
<polygon fill="none" stroke="black" points="223,-218.24 223,-236.24 362,-236.24 362,-218.24 223,-218.24"/>
<text text-anchor="start" x="226" y="-224.44" font-family="Helvetica,sans-Serif" font-size="11.00">...</text>
<polygon fill="#ffffff" stroke="transparent" points="223,-200.24 223,-218.24 256,-218.24 256,-200.24 223,-200.24"/>
<polygon fill="none" stroke="black" points="223,-200.24 223,-218.24 256,-218.24 256,-200.24 223,-200.24"/>
<text text-anchor="start" x="226" y="-206.44" font-family="Helvetica,sans-Serif" font-size="11.00">&lt; 3</text>
<polygon fill="#ffffff" stroke="transparent" points="256,-200.24 256,-218.24 334,-218.24 334,-200.24 256,-200.24"/>
<polygon fill="none" stroke="black" points="256,-200.24 256,-218.24 334,-218.24 334,-200.24 256,-200.24"/>
<text text-anchor="start" x="265" y="-206.44" font-family="Helvetica,sans-Serif" font-size="11.00">506,105 rows</text>
<polygon fill="#ffffff" stroke="transparent" points="334,-200.24 334,-218.24 362,-218.24 362,-200.24 334,-200.24"/>
<polygon fill="none" stroke="black" points="334,-200.24 334,-218.24 362,-218.24 362,-200.24 334,-200.24"/>
<text text-anchor="start" x="343" y="-206.44" font-family="Helvetica,sans-Serif" font-size="11.00">8 &gt;</text>
</a>
</g>
</g>
<!-- sampleages&#45;&gt;samples -->
<g id="edge12" class="edge">
<title>sampleages:w&#45;&gt;samples:e</title>
<path fill="none" stroke="black" d="M457.13,-195.93C437.9,-201.08 432.02,-217.38 414,-236.24 385.65,-265.92 404.05,-313.24 363,-313.24"/>
<polygon fill="black" stroke="black" points="463.55,-195.17 471.92,-197.82 467.53,-194.71 471.5,-194.24 471.5,-194.24 471.5,-194.24 467.53,-194.71 471.08,-190.67 463.55,-195.17 463.55,-195.17"/>
<ellipse fill="none" stroke="black" cx="460.38" cy="-195.55" rx="3.2" ry="3.2"/>
</g>
<!-- aggregatesamples -->
<g id="node6" class="node">
<title>aggregatesamples</title>
<g id="a_node6"><a xlink:href="../../tables/aggregatesamples.html" xlink:title="aggregatesamples" target="_top">
<polygon fill="#ffffff" stroke="transparent" points="422,-544.24 422,-676.24 639,-676.24 639,-544.24 422,-544.24"/>
<polygon fill="#f5f5f5" stroke="transparent" points="424.5,-652.24 424.5,-674.24 637.5,-674.24 637.5,-652.24 424.5,-652.24"/>
<polygon fill="none" stroke="black" points="424.5,-652.24 424.5,-674.24 637.5,-674.24 637.5,-652.24 424.5,-652.24"/>
<text text-anchor="start" x="429.5" y="-661.44" font-family="Helvetica,sans-Serif" font-weight="bold" font-size="11.00">aggregatesamples</text>
<text text-anchor="start" x="602.5" y="-660.44" font-family="Helvetica,sans-Serif" font-size="11.00">[table]</text>
<polygon fill="none" stroke="black" points="424.5,-630.24 424.5,-652.24 563.5,-652.24 563.5,-630.24 424.5,-630.24"/>
<image xlink:href="../../images/primaryKeys.png" width="11px" height="12px" preserveAspectRatio="xMinYMin meet" x="429.5" y="-647.241"/>
<text text-anchor="start" x="444.5" y="-638.44" font-family="Helvetica,sans-Serif" font-size="11.00">aggregatedatasetid</text>
<polygon fill="none" stroke="black" points="563.5,-630.24 563.5,-652.24 637.5,-652.24 637.5,-630.24 563.5,-630.24"/>
<text text-anchor="start" x="566.5" y="-638.44" font-family="Helvetica,sans-Serif" font-size="11.00">int4[10]</text>
<polygon fill="none" stroke="black" points="424.5,-608.24 424.5,-630.24 563.5,-630.24 563.5,-608.24 424.5,-608.24"/>
<image xlink:href="../../images/primaryKeys.png" width="11px" height="12px" preserveAspectRatio="xMinYMin meet" x="429.5" y="-625.241"/>
<text text-anchor="start" x="444.5" y="-616.44" font-family="Helvetica,sans-Serif" font-size="11.00">sampleid</text>
<polygon fill="none" stroke="black" points="563.5,-608.24 563.5,-630.24 637.5,-630.24 637.5,-608.24 563.5,-608.24"/>
<text text-anchor="start" x="566.5" y="-616.44" font-family="Helvetica,sans-Serif" font-size="11.00">int4[10]</text>
<polygon fill="none" stroke="black" points="424.5,-586.24 424.5,-608.24 563.5,-608.24 563.5,-586.24 424.5,-586.24"/>
<text text-anchor="start" x="444.5" y="-594.44" font-family="Helvetica,sans-Serif" font-size="11.00">recdatecreated</text>
<polygon fill="none" stroke="black" points="563.5,-586.24 563.5,-608.24 637.5,-608.24 637.5,-586.24 563.5,-586.24"/>
<text text-anchor="start" x="566.5" y="-594.44" font-family="Helvetica,sans-Serif" font-size="11.00">timestamp[22]</text>
<polygon fill="none" stroke="black" points="424.5,-564.24 424.5,-586.24 563.5,-586.24 563.5,-564.24 424.5,-564.24"/>
<text text-anchor="start" x="444.5" y="-572.44" font-family="Helvetica,sans-Serif" font-size="11.00">recdatemodified</text>
<polygon fill="none" stroke="black" points="563.5,-564.24 563.5,-586.24 637.5,-586.24 637.5,-564.24 563.5,-564.24"/>
<text text-anchor="start" x="566.5" y="-572.44" font-family="Helvetica,sans-Serif" font-size="11.00">timestamp[22]</text>
<polygon fill="#ffffff" stroke="transparent" points="424.5,-546.24 424.5,-564.24 479.5,-564.24 479.5,-546.24 424.5,-546.24"/>
<polygon fill="none" stroke="black" points="424.5,-546.24 424.5,-564.24 479.5,-564.24 479.5,-546.24 424.5,-546.24"/>
<text text-anchor="start" x="427.5" y="-552.44" font-family="Helvetica,sans-Serif" font-size="11.00">&lt; 2</text>
<polygon fill="#ffffff" stroke="transparent" points="479.5,-546.24 479.5,-564.24 563.5,-564.24 563.5,-546.24 479.5,-546.24"/>
<polygon fill="none" stroke="black" points="479.5,-546.24 479.5,-564.24 563.5,-564.24 563.5,-546.24 479.5,-546.24"/>
<text text-anchor="start" x="515.5" y="-552.44" font-family="Helvetica,sans-Serif" font-size="11.00">553 rows</text>
<polygon fill="#ffffff" stroke="transparent" points="563.5,-546.24 563.5,-564.24 637.5,-564.24 637.5,-546.24 563.5,-546.24"/>
<polygon fill="none" stroke="black" points="563.5,-546.24 563.5,-564.24 637.5,-564.24 637.5,-546.24 563.5,-546.24"/>
<text text-anchor="start" x="618.5" y="-552.44" font-family="Helvetica,sans-Serif" font-size="11.00">0 &gt;</text>
<polygon fill="none" stroke="black" stroke-width="2" points="423,-545.24 423,-675.24 638,-675.24 638,-545.24 423,-545.24"/>
</a>
</g>
</g>
<!-- aggregatesamples&#45;&gt;aggregatedatasets -->
<g id="edge6" class="edge">
<title>aggregatesamples:w&#45;&gt;aggregatedatasets:e</title>
<path fill="none" stroke="black" d="M409.58,-646.27C394.37,-660.54 402.08,-700.24 374,-700.24"/>
<polygon fill="black" stroke="black" points="415.98,-643.96 424.72,-644.63 419.74,-642.6 423.5,-641.24 423.5,-641.24 423.5,-641.24 419.74,-642.6 422.28,-637.86 415.98,-643.96 415.98,-643.96"/>
<ellipse fill="none" stroke="black" cx="412.97" cy="-645.05" rx="3.2" ry="3.2"/>
</g>
<!-- aggregatesamples&#45;&gt;samples -->
<g id="edge7" class="edge">
<title>aggregatesamples:w&#45;&gt;samples:e</title>
<path fill="none" stroke="black" d="M408.84,-617.88C301.26,-595.8 496.22,-313.24 363,-313.24"/>
<polygon fill="black" stroke="black" points="415.53,-618.5 423.17,-622.83 419.52,-618.87 423.5,-619.24 423.5,-619.24 423.5,-619.24 419.52,-618.87 423.83,-615.66 415.53,-618.5 415.53,-618.5"/>
<ellipse fill="none" stroke="black" cx="412.35" cy="-618.2" rx="3.2" ry="3.2"/>
</g>
<!-- datasets -->
<g id="node10" class="node">
<title>datasets</title>
<g id="a_node10"><a xlink:href="../../tables/datasets.html" xlink:title="datasets" target="_top">
<polygon fill="#ffffff" stroke="transparent" points="27,-374.24 27,-432.24 143,-432.24 143,-374.24 27,-374.24"/>
<polygon fill="#f5f5f5" stroke="transparent" points="27,-410.24 27,-432.24 143,-432.24 143,-410.24 27,-410.24"/>
<polygon fill="none" stroke="black" points="27,-410.24 27,-432.24 143,-432.24 143,-410.24 27,-410.24"/>
<text text-anchor="start" x="32" y="-419.44" font-family="Helvetica,sans-Serif" font-weight="bold" font-size="11.00">datasets</text>
<text text-anchor="start" x="108" y="-418.44" font-family="Helvetica,sans-Serif" font-size="11.00">[table]</text>
<polygon fill="none" stroke="black" points="27,-392.24 27,-410.24 143,-410.24 143,-392.24 27,-392.24"/>
<text text-anchor="start" x="30" y="-398.44" font-family="Helvetica,sans-Serif" font-size="11.00">...</text>
<polygon fill="#ffffff" stroke="transparent" points="27,-374.24 27,-392.24 49,-392.24 49,-374.24 27,-374.24"/>
<polygon fill="none" stroke="black" points="27,-374.24 27,-392.24 49,-392.24 49,-374.24 27,-374.24"/>
<text text-anchor="start" x="30" y="-380.44" font-family="Helvetica,sans-Serif" font-size="11.00">&lt; 3</text>
<polygon fill="#ffffff" stroke="transparent" points="49,-374.24 49,-392.24 115,-392.24 115,-374.24 49,-374.24"/>
<polygon fill="none" stroke="black" points="49,-374.24 49,-392.24 115,-392.24 115,-374.24 49,-374.24"/>
<text text-anchor="start" x="52" y="-380.44" font-family="Helvetica,sans-Serif" font-size="11.00">48,328 rows</text>
<polygon fill="#ffffff" stroke="transparent" points="115,-374.24 115,-392.24 143,-392.24 143,-374.24 115,-374.24"/>
<polygon fill="none" stroke="black" points="115,-374.24 115,-392.24 143,-392.24 143,-374.24 115,-374.24"/>
<text text-anchor="start" x="118" y="-380.44" font-family="Helvetica,sans-Serif" font-size="11.00">17 &gt;</text>
</a>
</g>
</g>
<!-- samples&#45;&gt;datasets -->
<g id="edge16" class="edge">
<title>samples:w&#45;&gt;datasets:e</title>
<path fill="none" stroke="black" d="M207.64,-271.76C162.57,-290.01 206.55,-401.24 144,-401.24"/>
<polygon fill="black" stroke="black" points="214.12,-270.62 222.62,-272.79 218.06,-269.93 222,-269.24 222,-269.24 222,-269.24 218.06,-269.93 221.38,-265.69 214.12,-270.62 214.12,-270.62"/>
<ellipse fill="none" stroke="black" cx="210.97" cy="-271.18" rx="3.2" ry="3.2"/>
</g>
<!-- analysisunits -->
<g id="node14" class="node">
<title>analysisunits</title>
<g id="a_node14"><a xlink:href="../../tables/analysisunits.html" xlink:title="analysisunits" target="_top">
<polygon fill="#ffffff" stroke="transparent" points="27,-264.24 27,-322.24 143,-322.24 143,-264.24 27,-264.24"/>
<polygon fill="#f5f5f5" stroke="transparent" points="27,-300.24 27,-322.24 143,-322.24 143,-300.24 27,-300.24"/>
<polygon fill="none" stroke="black" points="27,-300.24 27,-322.24 143,-322.24 143,-300.24 27,-300.24"/>
<text text-anchor="start" x="32" y="-309.44" font-family="Helvetica,sans-Serif" font-weight="bold" font-size="11.00">analysisunits</text>
<text text-anchor="start" x="108" y="-308.44" font-family="Helvetica,sans-Serif" font-size="11.00">[table]</text>
<polygon fill="none" stroke="black" points="27,-282.24 27,-300.24 143,-300.24 143,-282.24 27,-282.24"/>
<text text-anchor="start" x="30" y="-288.44" font-family="Helvetica,sans-Serif" font-size="11.00">...</text>
<polygon fill="#ffffff" stroke="transparent" points="27,-264.24 27,-282.24 49,-282.24 49,-264.24 27,-264.24"/>
<polygon fill="none" stroke="black" points="27,-264.24 27,-282.24 49,-282.24 49,-264.24 27,-264.24"/>
<text text-anchor="start" x="30" y="-270.44" font-family="Helvetica,sans-Serif" font-size="11.00">&lt; 2</text>
<polygon fill="#ffffff" stroke="transparent" points="49,-264.24 49,-282.24 121,-282.24 121,-264.24 49,-264.24"/>
<polygon fill="none" stroke="black" points="49,-264.24 49,-282.24 121,-282.24 121,-264.24 49,-264.24"/>
<text text-anchor="start" x="52" y="-270.44" font-family="Helvetica,sans-Serif" font-size="11.00">449,200 rows</text>
<polygon fill="#ffffff" stroke="transparent" points="121,-264.24 121,-282.24 143,-282.24 143,-264.24 121,-264.24"/>
<polygon fill="none" stroke="black" points="121,-264.24 121,-282.24 143,-282.24 143,-264.24 121,-264.24"/>
<text text-anchor="start" x="124" y="-270.44" font-family="Helvetica,sans-Serif" font-size="11.00">9 &gt;</text>
</a>
</g>
</g>
<!-- samples&#45;&gt;analysisunits -->
<g id="edge15" class="edge">
<title>samples:w&#45;&gt;analysisunits:e</title>
<path fill="none" stroke="black" d="M207.46,-291.24C183.99,-291.24 173.25,-291.24 144,-291.24"/>
<polygon fill="black" stroke="black" points="214,-291.24 222,-294.84 218,-291.24 222,-291.24 222,-291.24 222,-291.24 218,-291.24 222,-287.64 214,-291.24 214,-291.24"/>
<ellipse fill="none" stroke="black" cx="210.8" cy="-291.24" rx="3.2" ry="3.2"/>
</g>
<!-- taxa -->
<g id="node15" class="node">
<title>taxa</title>
<g id="a_node15"><a xlink:href="../../tables/taxa.html" xlink:title="taxa" target="_top">
<polygon fill="#ffffff" stroke="transparent" points="27,-98.24 27,-156.24 143,-156.24 143,-98.24 27,-98.24"/>
<polygon fill="#f5f5f5" stroke="transparent" points="27,-134.24 27,-156.24 143,-156.24 143,-134.24 27,-134.24"/>
<polygon fill="none" stroke="black" points="27,-134.24 27,-156.24 143,-156.24 143,-134.24 27,-134.24"/>
<text text-anchor="start" x="32" y="-143.44" font-family="Helvetica,sans-Serif" font-weight="bold" font-size="11.00">taxa</text>
<text text-anchor="start" x="108" y="-142.44" font-family="Helvetica,sans-Serif" font-size="11.00">[table]</text>
<polygon fill="none" stroke="black" points="27,-116.24 27,-134.24 143,-134.24 143,-116.24 27,-116.24"/>
<text text-anchor="start" x="30" y="-122.44" font-family="Helvetica,sans-Serif" font-size="11.00">...</text>
<polygon fill="#ffffff" stroke="transparent" points="27,-98.24 27,-116.24 49,-116.24 49,-98.24 27,-98.24"/>
<polygon fill="none" stroke="black" points="27,-98.24 27,-116.24 49,-116.24 49,-98.24 27,-98.24"/>
<text text-anchor="start" x="30" y="-104.44" font-family="Helvetica,sans-Serif" font-size="11.00">&lt; 4</text>
<polygon fill="#ffffff" stroke="transparent" points="49,-98.24 49,-116.24 115,-116.24 115,-98.24 49,-98.24"/>
<polygon fill="none" stroke="black" points="49,-98.24 49,-116.24 115,-116.24 115,-98.24 49,-98.24"/>
<text text-anchor="start" x="52" y="-104.44" font-family="Helvetica,sans-Serif" font-size="11.00">46,322 rows</text>
<polygon fill="#ffffff" stroke="transparent" points="115,-98.24 115,-116.24 143,-116.24 143,-98.24 115,-98.24"/>
<polygon fill="none" stroke="black" points="115,-98.24 115,-116.24 143,-116.24 143,-98.24 115,-98.24"/>
<text text-anchor="start" x="118" y="-104.44" font-family="Helvetica,sans-Serif" font-size="11.00">17 &gt;</text>
</a>
</g>
</g>
<!-- samples&#45;&gt;taxa -->
<g id="edge17" class="edge">
<title>samples:w&#45;&gt;taxa:e</title>
<path fill="none" stroke="black" d="M207.81,-244.69C165.51,-227.17 202.83,-125.24 144,-125.24"/>
<polygon fill="black" stroke="black" points="214.13,-245.83 221.36,-250.78 218.06,-246.53 222,-247.24 222,-247.24 222,-247.24 218.06,-246.53 222.64,-243.7 214.13,-245.83 214.13,-245.83"/>
<ellipse fill="none" stroke="black" cx="210.98" cy="-245.26" rx="3.2" ry="3.2"/>
</g>
<!-- data -->
<g id="node8" class="node">
<title>data</title>
<g id="a_node8"><a xlink:href="../../tables/data.html" xlink:title="data" target="_top">
<polygon fill="#ffffff" stroke="transparent" points="465,-404.24 465,-462.24 596,-462.24 596,-404.24 465,-404.24"/>
<polygon fill="#f5f5f5" stroke="transparent" points="465.5,-440.24 465.5,-462.24 596.5,-462.24 596.5,-440.24 465.5,-440.24"/>
<polygon fill="none" stroke="black" points="465.5,-440.24 465.5,-462.24 596.5,-462.24 596.5,-440.24 465.5,-440.24"/>
<text text-anchor="start" x="470.5" y="-449.44" font-family="Helvetica,sans-Serif" font-weight="bold" font-size="11.00">data</text>
<text text-anchor="start" x="561.5" y="-448.44" font-family="Helvetica,sans-Serif" font-size="11.00">[table]</text>
<polygon fill="none" stroke="black" points="465.5,-422.24 465.5,-440.24 596.5,-440.24 596.5,-422.24 465.5,-422.24"/>
<text text-anchor="start" x="468.5" y="-428.44" font-family="Helvetica,sans-Serif" font-size="11.00">...</text>
<polygon fill="#ffffff" stroke="transparent" points="465.5,-404.24 465.5,-422.24 487.5,-422.24 487.5,-404.24 465.5,-404.24"/>
<polygon fill="none" stroke="black" points="465.5,-404.24 465.5,-422.24 487.5,-422.24 487.5,-404.24 465.5,-404.24"/>
<text text-anchor="start" x="468.5" y="-410.44" font-family="Helvetica,sans-Serif" font-size="11.00">&lt; 2</text>
<polygon fill="#ffffff" stroke="transparent" points="487.5,-404.24 487.5,-422.24 574.5,-422.24 574.5,-404.24 487.5,-404.24"/>
<polygon fill="none" stroke="black" points="487.5,-404.24 487.5,-422.24 574.5,-422.24 574.5,-404.24 487.5,-404.24"/>
<text text-anchor="start" x="490.5" y="-410.44" font-family="Helvetica,sans-Serif" font-size="11.00">10,039,985 rows</text>
<polygon fill="#ffffff" stroke="transparent" points="574.5,-404.24 574.5,-422.24 596.5,-422.24 596.5,-404.24 574.5,-404.24"/>
<polygon fill="none" stroke="black" points="574.5,-404.24 574.5,-422.24 596.5,-422.24 596.5,-404.24 574.5,-404.24"/>
<text text-anchor="start" x="577.5" y="-410.44" font-family="Helvetica,sans-Serif" font-size="11.00">7 &gt;</text>
</a>
</g>
</g>
<!-- data&#45;&gt;samples -->
<g id="edge8" class="edge">
<title>data:w&#45;&gt;samples:e</title>
<path fill="none" stroke="black" d="M450.2,-429.29C434.54,-424.33 429.12,-410.46 414,-394.24 385,-363.12 405.54,-313.24 363,-313.24"/>
<polygon fill="black" stroke="black" points="456.57,-430.16 464.01,-434.81 460.54,-430.7 464.5,-431.24 464.5,-431.24 464.5,-431.24 460.54,-430.7 464.99,-427.67 456.57,-430.16 456.57,-430.16"/>
<ellipse fill="none" stroke="black" cx="453.4" cy="-429.73" rx="3.2" ry="3.2"/>
</g>
<!-- dsdatasample -->
<g id="node9" class="node">
<title>dsdatasample</title>
<g id="a_node9"><a xlink:href="../../tables/dsdatasample.html" xlink:title="dsdatasample" target="_top">
<polygon fill="#ffffff" stroke="transparent" points="473,-483.24 473,-523.24 588,-523.24 588,-483.24 473,-483.24"/>
<polygon fill="#f5f5f5" stroke="transparent" points="473.5,-501.24 473.5,-523.24 588.5,-523.24 588.5,-501.24 473.5,-501.24"/>
<polygon fill="none" stroke="black" points="473.5,-501.24 473.5,-523.24 588.5,-523.24 588.5,-501.24 473.5,-501.24"/>
<text text-anchor="start" x="478.5" y="-510.44" font-family="Helvetica,sans-Serif" font-weight="bold" font-size="11.00">dsdatasample</text>
<text text-anchor="start" x="555.5" y="-509.44" font-family="Helvetica,sans-Serif" font-size="11.00">[view]</text>
<polygon fill="none" stroke="black" points="473.5,-483.24 473.5,-501.24 588.5,-501.24 588.5,-483.24 473.5,-483.24"/>
<text text-anchor="start" x="476.5" y="-489.44" font-family="Helvetica,sans-Serif" font-size="11.00">...</text>
</a>
</g>
</g>
<!-- dsdatasample&#45;&gt;samples -->
<g id="edge10" class="edge">
<title>dsdatasample:w&#45;&gt;samples:e</title>
<path fill="none" stroke="black" stroke-dasharray="5,2" d="M458.08,-492.13C440.24,-491.64 429.51,-488.84 414,-473.24 361.37,-420.32 437.64,-313.24 363,-313.24"/>
<polygon fill="black" stroke="black" points="464.5,-492.18 472.47,-495.84 468.5,-492.21 472.5,-492.24 472.5,-492.24 472.5,-492.24 468.5,-492.21 472.53,-488.64 464.5,-492.18 464.5,-492.18"/>
<ellipse fill="none" stroke="black" cx="461.3" cy="-492.16" rx="3.2" ry="3.2"/>
</g>
<!-- dsdatasample&#45;&gt;datasets -->
<g id="edge9" class="edge">
<title>dsdatasample:w&#45;&gt;datasets:e</title>
<path fill="none" stroke="black" stroke-dasharray="5,2" d="M457.82,-491.95C319.17,-486.3 290.47,-401.24 144,-401.24"/>
<polygon fill="black" stroke="black" points="464.5,-492.08 472.43,-495.84 468.5,-492.16 472.5,-492.24 472.5,-492.24 472.5,-492.24 468.5,-492.16 472.57,-488.64 464.5,-492.08 464.5,-492.08"/>
<ellipse fill="none" stroke="black" cx="461.3" cy="-492.02" rx="3.2" ry="3.2"/>
</g>
<!-- geochronology -->
<g id="node11" class="node">
<title>geochronology</title>
<g id="a_node11"><a xlink:href="../../tables/geochronology.html" xlink:title="geochronology" target="_top">
<polygon fill="#ffffff" stroke="transparent" points="468.5,-61.24 468.5,-119.24 592.5,-119.24 592.5,-61.24 468.5,-61.24"/>
<polygon fill="#f5f5f5" stroke="transparent" points="468.5,-97.24 468.5,-119.24 592.5,-119.24 592.5,-97.24 468.5,-97.24"/>
<polygon fill="none" stroke="black" points="468.5,-97.24 468.5,-119.24 592.5,-119.24 592.5,-97.24 468.5,-97.24"/>
<text text-anchor="start" x="473.5" y="-106.44" font-family="Helvetica,sans-Serif" font-weight="bold" font-size="11.00">geochronology</text>
<text text-anchor="start" x="557.5" y="-105.44" font-family="Helvetica,sans-Serif" font-size="11.00">[table]</text>
<polygon fill="none" stroke="black" points="468.5,-79.24 468.5,-97.24 592.5,-97.24 592.5,-79.24 468.5,-79.24"/>
<text text-anchor="start" x="471.5" y="-85.44" font-family="Helvetica,sans-Serif" font-size="11.00">...</text>
<polygon fill="#ffffff" stroke="transparent" points="468.5,-61.24 468.5,-79.24 497.5,-79.24 497.5,-61.24 468.5,-61.24"/>
<polygon fill="none" stroke="black" points="468.5,-61.24 468.5,-79.24 497.5,-79.24 497.5,-61.24 468.5,-61.24"/>
<text text-anchor="start" x="471.5" y="-67.44" font-family="Helvetica,sans-Serif" font-size="11.00">&lt; 3</text>
<polygon fill="#ffffff" stroke="transparent" points="497.5,-61.24 497.5,-79.24 566.5,-79.24 566.5,-61.24 497.5,-61.24"/>
<polygon fill="none" stroke="black" points="497.5,-61.24 497.5,-79.24 566.5,-79.24 566.5,-61.24 497.5,-61.24"/>
<text text-anchor="start" x="503.5" y="-67.44" font-family="Helvetica,sans-Serif" font-size="11.00">39,608 rows</text>
<polygon fill="#ffffff" stroke="transparent" points="566.5,-61.24 566.5,-79.24 592.5,-79.24 592.5,-61.24 566.5,-61.24"/>
<polygon fill="none" stroke="black" points="566.5,-61.24 566.5,-79.24 592.5,-79.24 592.5,-61.24 566.5,-61.24"/>
<text text-anchor="start" x="573.5" y="-67.44" font-family="Helvetica,sans-Serif" font-size="11.00">3 &gt;</text>
</a>
</g>
</g>
<!-- geochronology&#45;&gt;samples -->
<g id="edge11" class="edge">
<title>geochronology:w&#45;&gt;samples:e</title>
<path fill="none" stroke="black" d="M453.01,-90C434.07,-95.27 427.84,-111.83 414,-133.24 368.87,-203.07 446.15,-313.24 363,-313.24"/>
<polygon fill="black" stroke="black" points="459.56,-89.21 467.93,-91.81 463.53,-88.72 467.5,-88.24 467.5,-88.24 467.5,-88.24 463.53,-88.72 467.07,-84.67 459.56,-89.21 459.56,-89.21"/>
<ellipse fill="none" stroke="black" cx="456.38" cy="-89.59" rx="3.2" ry="3.2"/>
</g>
<!-- sampleanalysts -->
<g id="node12" class="node">
<title>sampleanalysts</title>
<g id="a_node12"><a xlink:href="../../tables/sampleanalysts.html" xlink:title="sampleanalysts" target="_top">
<polygon fill="#ffffff" stroke="transparent" points="467.5,-325.24 467.5,-383.24 593.5,-383.24 593.5,-325.24 467.5,-325.24"/>
<polygon fill="#f5f5f5" stroke="transparent" points="467.5,-361.24 467.5,-383.24 593.5,-383.24 593.5,-361.24 467.5,-361.24"/>
<polygon fill="none" stroke="black" points="467.5,-361.24 467.5,-383.24 593.5,-383.24 593.5,-361.24 467.5,-361.24"/>
<text text-anchor="start" x="472.5" y="-370.44" font-family="Helvetica,sans-Serif" font-weight="bold" font-size="11.00">sampleanalysts</text>
<text text-anchor="start" x="558.5" y="-369.44" font-family="Helvetica,sans-Serif" font-size="11.00">[table]</text>
<polygon fill="none" stroke="black" points="467.5,-343.24 467.5,-361.24 593.5,-361.24 593.5,-343.24 467.5,-343.24"/>
<text text-anchor="start" x="470.5" y="-349.44" font-family="Helvetica,sans-Serif" font-size="11.00">...</text>
<polygon fill="#ffffff" stroke="transparent" points="467.5,-325.24 467.5,-343.24 498.5,-343.24 498.5,-325.24 467.5,-325.24"/>
<polygon fill="none" stroke="black" points="467.5,-325.24 467.5,-343.24 498.5,-343.24 498.5,-325.24 467.5,-325.24"/>
<text text-anchor="start" x="470.5" y="-331.44" font-family="Helvetica,sans-Serif" font-size="11.00">&lt; 2</text>
<polygon fill="#ffffff" stroke="transparent" points="498.5,-325.24 498.5,-343.24 575.5,-343.24 575.5,-325.24 498.5,-325.24"/>
<polygon fill="none" stroke="black" points="498.5,-325.24 498.5,-343.24 575.5,-343.24 575.5,-325.24 498.5,-325.24"/>
<text text-anchor="start" x="506.5" y="-331.44" font-family="Helvetica,sans-Serif" font-size="11.00">304,119 rows</text>
<polygon fill="#ffffff" stroke="transparent" points="575.5,-325.24 575.5,-343.24 593.5,-343.24 593.5,-325.24 575.5,-325.24"/>
<polygon fill="none" stroke="black" points="575.5,-325.24 575.5,-343.24 593.5,-343.24 593.5,-325.24 575.5,-325.24"/>
<text text-anchor="start" x="583.5" y="-331.44" font-family="Helvetica,sans-Serif" font-size="11.00"> &#160;</text>
</a>
</g>
</g>
<!-- sampleanalysts&#45;&gt;samples -->
<g id="edge13" class="edge">
<title>sampleanalysts:w&#45;&gt;samples:e</title>
<path fill="none" stroke="black" d="M451.83,-350.94C415.68,-344.18 406.78,-313.24 363,-313.24"/>
<polygon fill="black" stroke="black" points="458.53,-351.54 466.18,-355.83 462.52,-351.89 466.5,-352.24 466.5,-352.24 466.5,-352.24 462.52,-351.89 466.82,-348.65 458.53,-351.54 458.53,-351.54"/>
<ellipse fill="none" stroke="black" cx="455.34" cy="-351.25" rx="3.2" ry="3.2"/>
</g>
<!-- samplekeywords -->
<g id="node13" class="node">
<title>samplekeywords</title>
<g id="a_node13"><a xlink:href="../../tables/samplekeywords.html" xlink:title="samplekeywords" target="_top">
<polygon fill="#ffffff" stroke="transparent" points="464.5,-246.24 464.5,-304.24 596.5,-304.24 596.5,-246.24 464.5,-246.24"/>
<polygon fill="#f5f5f5" stroke="transparent" points="464.5,-282.24 464.5,-304.24 596.5,-304.24 596.5,-282.24 464.5,-282.24"/>
<polygon fill="none" stroke="black" points="464.5,-282.24 464.5,-304.24 596.5,-304.24 596.5,-282.24 464.5,-282.24"/>
<text text-anchor="start" x="469.5" y="-291.44" font-family="Helvetica,sans-Serif" font-weight="bold" font-size="11.00">samplekeywords</text>
<text text-anchor="start" x="561.5" y="-290.44" font-family="Helvetica,sans-Serif" font-size="11.00">[table]</text>
<polygon fill="none" stroke="black" points="464.5,-264.24 464.5,-282.24 596.5,-282.24 596.5,-264.24 464.5,-264.24"/>
<text text-anchor="start" x="467.5" y="-270.44" font-family="Helvetica,sans-Serif" font-size="11.00">...</text>
<polygon fill="#ffffff" stroke="transparent" points="464.5,-246.24 464.5,-264.24 501.5,-264.24 501.5,-246.24 464.5,-246.24"/>
<polygon fill="none" stroke="black" points="464.5,-246.24 464.5,-264.24 501.5,-264.24 501.5,-246.24 464.5,-246.24"/>
<text text-anchor="start" x="467.5" y="-252.44" font-family="Helvetica,sans-Serif" font-size="11.00">&lt; 2</text>
<polygon fill="#ffffff" stroke="transparent" points="501.5,-246.24 501.5,-264.24 575.5,-264.24 575.5,-246.24 501.5,-246.24"/>
<polygon fill="none" stroke="black" points="501.5,-246.24 501.5,-264.24 575.5,-264.24 575.5,-246.24 501.5,-246.24"/>
<text text-anchor="start" x="512.5" y="-252.44" font-family="Helvetica,sans-Serif" font-size="11.00">17,904 rows</text>
<polygon fill="#ffffff" stroke="transparent" points="575.5,-246.24 575.5,-264.24 596.5,-264.24 596.5,-246.24 575.5,-246.24"/>
<polygon fill="none" stroke="black" points="575.5,-246.24 575.5,-264.24 596.5,-264.24 596.5,-246.24 575.5,-246.24"/>
<text text-anchor="start" x="586.5" y="-252.44" font-family="Helvetica,sans-Serif" font-size="11.00"> &#160;</text>
</a>
</g>
</g>
<!-- samplekeywords&#45;&gt;samples -->
<g id="edge14" class="edge">
<title>samplekeywords:w&#45;&gt;samples:e</title>
<path fill="none" stroke="black" d="M448.72,-274.66C413.88,-281.79 405.63,-313.24 363,-313.24"/>
<polygon fill="black" stroke="black" points="455.54,-274.01 463.85,-276.82 459.52,-273.62 463.5,-273.24 463.5,-273.24 463.5,-273.24 459.52,-273.62 463.15,-269.66 455.54,-274.01 455.54,-274.01"/>
<ellipse fill="none" stroke="black" cx="452.35" cy="-274.31" rx="3.2" ry="3.2"/>
</g>
<!-- specimendates -->
<g id="node16" class="node">
<title>specimendates</title>
<g id="a_node16"><a xlink:href="../../tables/specimendates.html" xlink:title="specimendates" target="_top">
<polygon fill="#ffffff" stroke="transparent" points="706,-61.24 706,-119.24 829,-119.24 829,-61.24 706,-61.24"/>
<polygon fill="#f5f5f5" stroke="transparent" points="706.5,-97.24 706.5,-119.24 829.5,-119.24 829.5,-97.24 706.5,-97.24"/>
<polygon fill="none" stroke="black" points="706.5,-97.24 706.5,-119.24 829.5,-119.24 829.5,-97.24 706.5,-97.24"/>
<text text-anchor="start" x="711.5" y="-106.44" font-family="Helvetica,sans-Serif" font-weight="bold" font-size="11.00">specimendates</text>
<text text-anchor="start" x="794.5" y="-105.44" font-family="Helvetica,sans-Serif" font-size="11.00">[table]</text>
<polygon fill="none" stroke="black" points="706.5,-79.24 706.5,-97.24 829.5,-97.24 829.5,-79.24 706.5,-79.24"/>
<text text-anchor="start" x="709.5" y="-85.44" font-family="Helvetica,sans-Serif" font-size="11.00">...</text>
<polygon fill="#ffffff" stroke="transparent" points="706.5,-61.24 706.5,-79.24 737.5,-79.24 737.5,-61.24 706.5,-61.24"/>
<polygon fill="none" stroke="black" points="706.5,-61.24 706.5,-79.24 737.5,-79.24 737.5,-61.24 706.5,-61.24"/>
<text text-anchor="start" x="709.5" y="-67.44" font-family="Helvetica,sans-Serif" font-size="11.00">&lt; 6</text>
<polygon fill="#ffffff" stroke="transparent" points="737.5,-61.24 737.5,-79.24 802.5,-79.24 802.5,-61.24 737.5,-61.24"/>
<polygon fill="none" stroke="black" points="737.5,-61.24 737.5,-79.24 802.5,-79.24 802.5,-61.24 737.5,-61.24"/>
<text text-anchor="start" x="745.5" y="-67.44" font-family="Helvetica,sans-Serif" font-size="11.00">2,662 rows</text>
<polygon fill="#ffffff" stroke="transparent" points="802.5,-61.24 802.5,-79.24 829.5,-79.24 829.5,-61.24 802.5,-61.24"/>
<polygon fill="none" stroke="black" points="802.5,-61.24 802.5,-79.24 829.5,-79.24 829.5,-61.24 802.5,-61.24"/>
<text text-anchor="start" x="810.5" y="-67.44" font-family="Helvetica,sans-Serif" font-size="11.00">1 &gt;</text>
</a>
</g>
</g>
<!-- specimendates&#45;&gt;samples -->
<g id="edge19" class="edge">
<title>specimendates:w&#45;&gt;samples:e</title>
<path fill="none" stroke="black" d="M691.1,-90.94C673.72,-98.51 671.21,-119.98 647,-129.24 598.29,-147.88 454.31,-124.16 414,-157.24 357.61,-203.52 435.94,-313.24 363,-313.24"/>
<polygon fill="black" stroke="black" points="697.64,-89.72 706.16,-91.78 701.57,-88.98 705.5,-88.24 705.5,-88.24 705.5,-88.24 701.57,-88.98 704.84,-84.7 697.64,-89.72 697.64,-89.72"/>
<ellipse fill="none" stroke="black" cx="694.49" cy="-90.31" rx="3.2" ry="3.2"/>
</g>
<!-- specimendates&#45;&gt;geochronology -->
<g id="edge18" class="edge">
<title>specimendates:w&#45;&gt;geochronology:e</title>
<path fill="none" stroke="black" d="M690.91,-88.24C652.68,-88.24 638.03,-88.24 593.5,-88.24"/>
<polygon fill="black" stroke="black" points="697.5,-88.24 705.5,-91.84 701.5,-88.24 705.5,-88.24 705.5,-88.24 705.5,-88.24 701.5,-88.24 705.5,-84.64 697.5,-88.24 697.5,-88.24"/>
<ellipse fill="none" stroke="black" cx="694.3" cy="-88.24" rx="3.2" ry="3.2"/>
</g>
<!-- specimendates&#45;&gt;taxa -->
<g id="edge20" class="edge">
<title>specimendates:w&#45;&gt;taxa:e</title>
<path fill="none" stroke="black" d="M691.14,-85.49C674.21,-78.01 671.15,-57.4 647,-50.24 547.71,-20.82 516.61,-36.25 414,-50.24 290.6,-67.06 268.54,-125.24 144,-125.24"/>
<polygon fill="black" stroke="black" points="697.64,-86.74 704.82,-91.78 701.57,-87.49 705.5,-88.24 705.5,-88.24 705.5,-88.24 701.57,-87.49 706.18,-84.7 697.64,-86.74 697.64,-86.74"/>
<ellipse fill="none" stroke="black" cx="694.5" cy="-86.13" rx="3.2" ry="3.2"/>
</g>
</g>
</svg>
