<?xml version="1.0" encoding="UTF-8" standalone="no"?>
<!DOCTYPE svg PUBLIC "-//W3C//DTD SVG 1.1//EN"
 "http://www.w3.org/Graphics/SVG/1.1/DTD/svg11.dtd">
<!-- Generated by graphviz version 2.43.0 (0)
 -->
<!-- Title: twoDegreesRelationshipsDiagramImplied Pages: 1 -->
<svg width="900pt" height="665pt"
 viewBox="0.00 0.00 900.00 665.00" xmlns="http://www.w3.org/2000/svg" xmlns:xlink="http://www.w3.org/1999/xlink">
<g id="graph0" class="graph" transform="scale(1 1) rotate(0) translate(4 661)">
<title>twoDegreesRelationshipsDiagramImplied</title>
<polygon fill="#ffffff" stroke="transparent" points="-4,4 -4,-661 896,-661 896,4 -4,4"/>
<text text-anchor="middle" x="71.5" y="-7.2" font-family="Helvetica,sans-Serif" font-size="11.00">Generated by SchemaSpy</text>
<!-- aggregatechronologies -->
<g id="node1" class="node">
<title>aggregatechronologies</title>
<g id="a_node1"><a xlink:href="../../tables/aggregatechronologies.html" xlink:title="aggregatechronologies" target="_top">
<polygon fill="#ffffff" stroke="transparent" points="422,-283 422,-547 676,-547 676,-283 422,-283"/>
<polygon fill="#f5f5f5" stroke="transparent" points="424,-523 424,-545 674,-545 674,-523 424,-523"/>
<polygon fill="none" stroke="black" points="424,-523 424,-545 674,-545 674,-523 424,-523"/>
<text text-anchor="start" x="429" y="-532.2" font-family="Helvetica,sans-Serif" font-weight="bold" font-size="11.00">aggregatechronologies</text>
<text text-anchor="start" x="639" y="-531.2" font-family="Helvetica,sans-Serif" font-size="11.00">[table]</text>
<polygon fill="none" stroke="black" points="424,-501 424,-523 584,-523 584,-501 424,-501"/>
<image xlink:href="../../images/primaryKeys.png" width="11px" height="12px" preserveAspectRatio="xMinYMin meet" x="429" y="-518"/>
<text text-anchor="start" x="444" y="-509.2" font-family="Helvetica,sans-Serif" font-size="11.00">aggregatechronid</text>
<polygon fill="none" stroke="black" points="584,-501 584,-523 674,-523 674,-501 584,-501"/>
<text text-anchor="start" x="587" y="-509.2" font-family="Helvetica,sans-Serif" font-size="11.00">serial[10]</text>
<polygon fill="none" stroke="black" points="424,-479 424,-501 584,-501 584,-479 424,-479"/>
<image xlink:href="../../images/foreignKeys.png" width="11px" height="12px" preserveAspectRatio="xMinYMin meet" x="429" y="-496"/>
<text text-anchor="start" x="444" y="-487.2" font-family="Helvetica,sans-Serif" font-size="11.00">aggregatedatasetid</text>
<polygon fill="none" stroke="black" points="584,-479 584,-501 674,-501 674,-479 584,-479"/>
<text text-anchor="start" x="587" y="-487.2" font-family="Helvetica,sans-Serif" font-size="11.00">int4[10]</text>
<polygon fill="none" stroke="black" points="424,-457 424,-479 584,-479 584,-457 424,-457"/>
<image xlink:href="../../images/foreignKeys.png" width="11px" height="12px" preserveAspectRatio="xMinYMin meet" x="429" y="-474"/>
<text text-anchor="start" x="444" y="-465.2" font-family="Helvetica,sans-Serif" font-size="11.00">agetypeid</text>
<polygon fill="none" stroke="black" points="584,-457 584,-479 674,-479 674,-457 584,-457"/>
<text text-anchor="start" x="587" y="-465.2" font-family="Helvetica,sans-Serif" font-size="11.00">int4[10]</text>
<polygon fill="none" stroke="black" points="424,-435 424,-457 584,-457 584,-435 424,-435"/>
<text text-anchor="start" x="444" y="-443.2" font-family="Helvetica,sans-Serif" font-size="11.00">isdefault</text>
<polygon fill="none" stroke="black" points="584,-435 584,-457 674,-457 674,-435 584,-435"/>
<text text-anchor="start" x="587" y="-443.2" font-family="Helvetica,sans-Serif" font-size="11.00">bool[1]</text>
<polygon fill="none" stroke="black" points="424,-413 424,-435 584,-435 584,-413 424,-413"/>
<text text-anchor="start" x="444" y="-421.2" font-family="Helvetica,sans-Serif" font-size="11.00">chronologyname</text>
<polygon fill="none" stroke="black" points="584,-413 584,-435 674,-435 674,-413 584,-413"/>
<text text-anchor="start" x="587" y="-421.2" font-family="Helvetica,sans-Serif" font-size="11.00">varchar[80]</text>
<polygon fill="none" stroke="black" points="424,-391 424,-413 584,-413 584,-391 424,-391"/>
<text text-anchor="start" x="444" y="-399.2" font-family="Helvetica,sans-Serif" font-size="11.00">ageboundyounger</text>
<polygon fill="none" stroke="black" points="584,-391 584,-413 674,-413 674,-391 584,-391"/>
<text text-anchor="start" x="587" y="-399.2" font-family="Helvetica,sans-Serif" font-size="11.00">int4[10]</text>
<polygon fill="none" stroke="black" points="424,-369 424,-391 584,-391 584,-369 424,-369"/>
<text text-anchor="start" x="444" y="-377.2" font-family="Helvetica,sans-Serif" font-size="11.00">ageboundolder</text>
<polygon fill="none" stroke="black" points="584,-369 584,-391 674,-391 674,-369 584,-369"/>
<text text-anchor="start" x="587" y="-377.2" font-family="Helvetica,sans-Serif" font-size="11.00">int4[10]</text>
<polygon fill="none" stroke="black" points="424,-347 424,-369 584,-369 584,-347 424,-347"/>
<text text-anchor="start" x="444" y="-355.2" font-family="Helvetica,sans-Serif" font-size="11.00">notes</text>
<polygon fill="none" stroke="black" points="584,-347 584,-369 674,-369 674,-347 584,-347"/>
<text text-anchor="start" x="587" y="-355.2" font-family="Helvetica,sans-Serif" font-size="11.00">text[2147483647]</text>
<polygon fill="none" stroke="black" points="424,-325 424,-347 584,-347 584,-325 424,-325"/>
<text text-anchor="start" x="444" y="-333.2" font-family="Helvetica,sans-Serif" font-size="11.00">recdatecreated</text>
<polygon fill="none" stroke="black" points="584,-325 584,-347 674,-347 674,-325 584,-325"/>
<text text-anchor="start" x="587" y="-333.2" font-family="Helvetica,sans-Serif" font-size="11.00">timestamp[22]</text>
<polygon fill="none" stroke="black" points="424,-303 424,-325 584,-325 584,-303 424,-303"/>
<text text-anchor="start" x="444" y="-311.2" font-family="Helvetica,sans-Serif" font-size="11.00">recdatemodified</text>
<polygon fill="none" stroke="black" points="584,-303 584,-325 674,-325 674,-303 584,-303"/>
<text text-anchor="start" x="587" y="-311.2" font-family="Helvetica,sans-Serif" font-size="11.00">timestamp[22]</text>
<polygon fill="#ffffff" stroke="transparent" points="424,-285 424,-303 495,-303 495,-285 424,-285"/>
<polygon fill="none" stroke="black" points="424,-285 424,-303 495,-303 495,-285 424,-285"/>
<text text-anchor="start" x="427" y="-291.2" font-family="Helvetica,sans-Serif" font-size="11.00">&lt; 2</text>
<polygon fill="#ffffff" stroke="transparent" points="495,-285 495,-303 584,-303 584,-285 495,-285"/>
<polygon fill="none" stroke="black" points="495,-285 495,-303 584,-303 584,-285 495,-285"/>
<text text-anchor="start" x="548" y="-291.2" font-family="Helvetica,sans-Serif" font-size="11.00">7 rows</text>
<polygon fill="#ffffff" stroke="transparent" points="584,-285 584,-303 674,-303 674,-285 584,-285"/>
<polygon fill="none" stroke="black" points="584,-285 584,-303 674,-303 674,-285 584,-285"/>
<text text-anchor="start" x="655" y="-291.2" font-family="Helvetica,sans-Serif" font-size="11.00">1 &gt;</text>
<polygon fill="none" stroke="black" stroke-width="2" points="423,-284 423,-546 675,-546 675,-284 423,-284"/>
</a>
</g>
</g>
<!-- agetypes -->
<g id="node2" class="node">
<title>agetypes</title>
<g id="a_node2"><a xlink:href="../../tables/agetypes.html" xlink:title="agetypes" target="_top">
<polygon fill="#ffffff" stroke="transparent" points="25,-157 25,-237 145,-237 145,-157 25,-157"/>
<polygon fill="#f5f5f5" stroke="transparent" points="25,-215 25,-237 145,-237 145,-215 25,-215"/>
<polygon fill="none" stroke="black" points="25,-215 25,-237 145,-237 145,-215 25,-215"/>
<text text-anchor="start" x="30" y="-224.2" font-family="Helvetica,sans-Serif" font-weight="bold" font-size="11.00">agetypes</text>
<text text-anchor="start" x="110" y="-223.2" font-family="Helvetica,sans-Serif" font-size="11.00">[table]</text>
<polygon fill="none" stroke="black" points="25,-193 25,-215 145,-215 145,-193 25,-193"/>
<image xlink:href="../../images/primaryKeys.png" width="11px" height="12px" preserveAspectRatio="xMinYMin meet" x="30" y="-210"/>
<text text-anchor="start" x="45" y="-201.2" font-family="Helvetica,sans-Serif" font-size="11.00">agetypeid</text>
<polygon fill="none" stroke="black" points="25,-175 25,-193 145,-193 145,-175 25,-175"/>
<text text-anchor="start" x="28" y="-181.2" font-family="Helvetica,sans-Serif" font-size="11.00">...</text>
<polygon fill="#ffffff" stroke="transparent" points="25,-157 25,-175 61,-175 61,-157 25,-157"/>
<polygon fill="none" stroke="black" points="25,-157 25,-175 61,-175 61,-157 25,-157"/>
<text text-anchor="start" x="28" y="-163.2" font-family="Helvetica,sans-Serif" font-size="11.00"> &#160;</text>
<polygon fill="#ffffff" stroke="transparent" points="61,-157 61,-175 111,-175 111,-157 61,-157"/>
<polygon fill="none" stroke="black" points="61,-157 61,-175 111,-175 111,-157 61,-157"/>
<text text-anchor="start" x="75" y="-163.2" font-family="Helvetica,sans-Serif" font-size="11.00">5 rows</text>
<polygon fill="#ffffff" stroke="transparent" points="111,-157 111,-175 145,-175 145,-157 111,-157"/>
<polygon fill="none" stroke="black" points="111,-157 111,-175 145,-175 145,-157 111,-157"/>
<text text-anchor="start" x="126" y="-163.2" font-family="Helvetica,sans-Serif" font-size="11.00">5 &gt;</text>
</a>
</g>
</g>
<!-- aggregatechronologies&#45;&gt;agetypes -->
<g id="edge1" class="edge">
<title>aggregatechronologies:w&#45;&gt;agetypes:e</title>
<path fill="none" stroke="black" d="M408.31,-467.52C289.64,-459.46 295.2,-352 203,-262 177.14,-236.75 182.14,-204 146,-204"/>
<polygon fill="black" stroke="black" points="415,-467.74 422.88,-471.6 419,-467.87 423,-468 423,-468 423,-468 419,-467.87 423.12,-464.4 415,-467.74 415,-467.74"/>
<ellipse fill="none" stroke="black" cx="411.81" cy="-467.63" rx="3.2" ry="3.2"/>
</g>
<!-- aggregatedatasets -->
<g id="node3" class="node">
<title>aggregatedatasets</title>
<g id="a_node3"><a xlink:href="../../tables/aggregatedatasets.html" xlink:title="aggregatedatasets" target="_top">
<polygon fill="#ffffff" stroke="transparent" points="211,-502 211,-604 373,-604 373,-502 211,-502"/>
<polygon fill="#f5f5f5" stroke="transparent" points="211,-582 211,-604 373,-604 373,-582 211,-582"/>
<polygon fill="none" stroke="black" points="211,-582 211,-604 373,-604 373,-582 211,-582"/>
<text text-anchor="start" x="216" y="-591.2" font-family="Helvetica,sans-Serif" font-weight="bold" font-size="11.00">aggregatedatasets</text>
<text text-anchor="start" x="338" y="-590.2" font-family="Helvetica,sans-Serif" font-size="11.00">[table]</text>
<polygon fill="none" stroke="black" points="211,-560 211,-582 373,-582 373,-560 211,-560"/>
<image xlink:href="../../images/primaryKeys.png" width="11px" height="12px" preserveAspectRatio="xMinYMin meet" x="216" y="-577"/>
<text text-anchor="start" x="231" y="-568.2" font-family="Helvetica,sans-Serif" font-size="11.00">aggregatedatasetid</text>
<polygon fill="none" stroke="black" points="211,-538 211,-560 373,-560 373,-538 211,-538"/>
<image xlink:href="../../images/foreignKeys.png" width="11px" height="12px" preserveAspectRatio="xMinYMin meet" x="216" y="-555"/>
<text text-anchor="start" x="231" y="-546.2" font-family="Helvetica,sans-Serif" font-size="11.00">aggregateordertypeid</text>
<polygon fill="none" stroke="black" points="211,-520 211,-538 373,-538 373,-520 211,-520"/>
<text text-anchor="start" x="214" y="-526.2" font-family="Helvetica,sans-Serif" font-size="11.00">...</text>
<polygon fill="#ffffff" stroke="transparent" points="211,-502 211,-520 269,-520 269,-502 211,-502"/>
<polygon fill="none" stroke="black" points="211,-502 211,-520 269,-520 269,-502 211,-502"/>
<text text-anchor="start" x="214" y="-508.2" font-family="Helvetica,sans-Serif" font-size="11.00">&lt; 1</text>
<polygon fill="#ffffff" stroke="transparent" points="269,-502 269,-520 332,-520 332,-502 269,-502"/>
<polygon fill="none" stroke="black" points="269,-502 269,-520 332,-520 332,-502 269,-502"/>
<text text-anchor="start" x="290" y="-508.2" font-family="Helvetica,sans-Serif" font-size="11.00">11 rows</text>
<polygon fill="#ffffff" stroke="transparent" points="332,-502 332,-520 373,-520 373,-502 332,-502"/>
<polygon fill="none" stroke="black" points="332,-502 332,-520 373,-520 373,-502 332,-502"/>
<text text-anchor="start" x="354" y="-508.2" font-family="Helvetica,sans-Serif" font-size="11.00">3 &gt;</text>
</a>
</g>
</g>
<!-- aggregatechronologies&#45;&gt;aggregatedatasets -->
<g id="edge2" class="edge">
<title>aggregatechronologies:w&#45;&gt;aggregatedatasets:e</title>
<path fill="none" stroke="black" d="M409.13,-494.59C389.47,-511.72 409.99,-571 374,-571"/>
<polygon fill="black" stroke="black" points="415.4,-492.51 424.13,-493.42 419.2,-491.26 423,-490 423,-490 423,-490 419.2,-491.26 421.87,-486.58 415.4,-492.51 415.4,-492.51"/>
<ellipse fill="none" stroke="black" cx="412.37" cy="-493.52" rx="3.2" ry="3.2"/>
</g>
<!-- aggregateordertypes -->
<g id="node4" class="node">
<title>aggregateordertypes</title>
<g id="a_node4"><a xlink:href="../../tables/aggregateordertypes.html" xlink:title="aggregateordertypes" target="_top">
<polygon fill="#ffffff" stroke="transparent" points="8,-522 8,-580 162,-580 162,-522 8,-522"/>
<polygon fill="#f5f5f5" stroke="transparent" points="8,-558 8,-580 162,-580 162,-558 8,-558"/>
<polygon fill="none" stroke="black" points="8,-558 8,-580 162,-580 162,-558 8,-558"/>
<text text-anchor="start" x="13" y="-567.2" font-family="Helvetica,sans-Serif" font-weight="bold" font-size="11.00">aggregateordertypes</text>
<text text-anchor="start" x="127" y="-566.2" font-family="Helvetica,sans-Serif" font-size="11.00">[table]</text>
<polygon fill="none" stroke="black" points="8,-540 8,-558 162,-558 162,-540 8,-540"/>
<text text-anchor="start" x="11" y="-546.2" font-family="Helvetica,sans-Serif" font-size="11.00">...</text>
<polygon fill="#ffffff" stroke="transparent" points="8,-522 8,-540 61,-540 61,-522 8,-522"/>
<polygon fill="none" stroke="black" points="8,-522 8,-540 61,-540 61,-522 8,-522"/>
<text text-anchor="start" x="11" y="-528.2" font-family="Helvetica,sans-Serif" font-size="11.00"> &#160;</text>
<polygon fill="#ffffff" stroke="transparent" points="61,-522 61,-540 120,-540 120,-522 61,-522"/>
<polygon fill="none" stroke="black" points="61,-522 61,-540 120,-540 120,-522 61,-522"/>
<text text-anchor="start" x="84" y="-528.2" font-family="Helvetica,sans-Serif" font-size="11.00">7 rows</text>
<polygon fill="#ffffff" stroke="transparent" points="120,-522 120,-540 162,-540 162,-522 120,-522"/>
<polygon fill="none" stroke="black" points="120,-522 120,-540 162,-540 162,-522 120,-522"/>
<text text-anchor="start" x="143" y="-528.2" font-family="Helvetica,sans-Serif" font-size="11.00">1 &gt;</text>
</a>
</g>
</g>
<!-- aggregatedatasets&#45;&gt;aggregateordertypes -->
<g id="edge3" class="edge">
<title>aggregatedatasets:w&#45;&gt;aggregateordertypes:e</title>
<path fill="none" stroke="black" d="M195.4,-549C184.93,-549 178.01,-549 163,-549"/>
<polygon fill="black" stroke="black" points="202,-549 210,-552.6 206,-549 210,-549 210,-549 210,-549 206,-549 210,-545.4 202,-549 202,-549"/>
<ellipse fill="none" stroke="black" cx="198.8" cy="-549" rx="3.2" ry="3.2"/>
</g>
<!-- aggregatesampleages -->
<g id="node5" class="node">
<title>aggregatesampleages</title>
<g id="a_node5"><a xlink:href="../../tables/aggregatesampleages.html" xlink:title="aggregatesampleages" target="_top">
<polygon fill="#ffffff" stroke="transparent" points="725,-443 725,-567 884,-567 884,-443 725,-443"/>
<polygon fill="#f5f5f5" stroke="transparent" points="725.5,-545 725.5,-567 884.5,-567 884.5,-545 725.5,-545"/>
<polygon fill="none" stroke="black" points="725.5,-545 725.5,-567 884.5,-567 884.5,-545 725.5,-545"/>
<text text-anchor="start" x="730.5" y="-554.2" font-family="Helvetica,sans-Serif" font-weight="bold" font-size="11.00">aggregatesampleages</text>
<text text-anchor="start" x="849.5" y="-553.2" font-family="Helvetica,sans-Serif" font-size="11.00">[table]</text>
<polygon fill="none" stroke="black" points="725.5,-523 725.5,-545 884.5,-545 884.5,-523 725.5,-523"/>
<image xlink:href="../../images/primaryKeys.png" width="11px" height="12px" preserveAspectRatio="xMinYMin meet" x="730.5" y="-540"/>
<text text-anchor="start" x="748.5" y="-531.2" font-family="Helvetica,sans-Serif" font-size="11.00">aggregatedatasetid</text>
<polygon fill="none" stroke="black" points="725.5,-501 725.5,-523 884.5,-523 884.5,-501 725.5,-501"/>
<image xlink:href="../../images/primaryKeys.png" width="11px" height="12px" preserveAspectRatio="xMinYMin meet" x="730.5" y="-518"/>
<text text-anchor="start" x="748.5" y="-509.2" font-family="Helvetica,sans-Serif" font-size="11.00">aggregatechronid</text>
<polygon fill="none" stroke="black" points="725.5,-479 725.5,-501 884.5,-501 884.5,-479 725.5,-479"/>
<image xlink:href="../../images/primaryKeys.png" width="11px" height="12px" preserveAspectRatio="xMinYMin meet" x="730.5" y="-496"/>
<text text-anchor="start" x="748.5" y="-487.2" font-family="Helvetica,sans-Serif" font-size="11.00">sampleageid</text>
<polygon fill="none" stroke="black" points="725.5,-461 725.5,-479 884.5,-479 884.5,-461 725.5,-461"/>
<text text-anchor="start" x="728.5" y="-467.2" font-family="Helvetica,sans-Serif" font-size="11.00">...</text>
<polygon fill="#ffffff" stroke="transparent" points="725.5,-443 725.5,-461 783.5,-461 783.5,-443 725.5,-443"/>
<polygon fill="none" stroke="black" points="725.5,-443 725.5,-461 783.5,-461 783.5,-443 725.5,-443"/>
<text text-anchor="start" x="728.5" y="-449.2" font-family="Helvetica,sans-Serif" font-size="11.00">&lt; 3</text>
<polygon fill="#ffffff" stroke="transparent" points="783.5,-443 783.5,-461 852.5,-461 852.5,-443 783.5,-443"/>
<polygon fill="none" stroke="black" points="783.5,-443 783.5,-461 852.5,-461 852.5,-443 783.5,-443"/>
<text text-anchor="start" x="804.5" y="-449.2" font-family="Helvetica,sans-Serif" font-size="11.00">369 rows</text>
<polygon fill="#ffffff" stroke="transparent" points="852.5,-443 852.5,-461 884.5,-461 884.5,-443 852.5,-443"/>
<polygon fill="none" stroke="black" points="852.5,-443 852.5,-461 884.5,-461 884.5,-443 852.5,-443"/>
<text text-anchor="start" x="874.5" y="-449.2" font-family="Helvetica,sans-Serif" font-size="11.00"> &#160;</text>
</a>
</g>
</g>
<!-- aggregatesampleages&#45;&gt;aggregatechronologies -->
<g id="edge4" class="edge">
<title>aggregatesampleages:w&#45;&gt;aggregatechronologies:e</title>
<path fill="none" stroke="black" d="M709.84,-512C698.41,-512 691.16,-512 675,-512"/>
<polygon fill="black" stroke="black" points="716.5,-512 724.5,-515.6 720.5,-512 724.5,-512 724.5,-512 724.5,-512 720.5,-512 724.5,-508.4 716.5,-512 716.5,-512"/>
<ellipse fill="none" stroke="black" cx="713.3" cy="-512" rx="3.2" ry="3.2"/>
</g>
<!-- aggregatesampleages&#45;&gt;aggregatedatasets -->
<g id="edge5" class="edge">
<title>aggregatesampleages:w&#45;&gt;aggregatedatasets:e</title>
<path fill="none" stroke="black" d="M710.43,-537.98C702.05,-543.65 698.1,-553.82 684,-558 551.8,-597.23 511.9,-571 374,-571"/>
<polygon fill="black" stroke="black" points="716.8,-536.18 725.48,-537.46 720.65,-535.09 724.5,-534 724.5,-534 724.5,-534 720.65,-535.09 723.52,-530.54 716.8,-536.18 716.8,-536.18"/>
<ellipse fill="none" stroke="black" cx="713.72" cy="-537.05" rx="3.2" ry="3.2"/>
</g>
<!-- sampleages -->
<g id="node6" class="node">
<title>sampleages</title>
<g id="a_node6"><a xlink:href="../../tables/sampleages.html" xlink:title="sampleages" target="_top">
<polygon fill="#ffffff" stroke="transparent" points="491,-125 491,-183 607,-183 607,-125 491,-125"/>
<polygon fill="#f5f5f5" stroke="transparent" points="491,-161 491,-183 607,-183 607,-161 491,-161"/>
<polygon fill="none" stroke="black" points="491,-161 491,-183 607,-183 607,-161 491,-161"/>
<text text-anchor="start" x="496" y="-170.2" font-family="Helvetica,sans-Serif" font-weight="bold" font-size="11.00">sampleages</text>
<text text-anchor="start" x="572" y="-169.2" font-family="Helvetica,sans-Serif" font-size="11.00">[table]</text>
<polygon fill="none" stroke="black" points="491,-143 491,-161 607,-161 607,-143 491,-143"/>
<text text-anchor="start" x="494" y="-149.2" font-family="Helvetica,sans-Serif" font-size="11.00">...</text>
<polygon fill="#ffffff" stroke="transparent" points="491,-125 491,-143 513,-143 513,-125 491,-125"/>
<polygon fill="none" stroke="black" points="491,-125 491,-143 513,-143 513,-125 491,-125"/>
<text text-anchor="start" x="494" y="-131.2" font-family="Helvetica,sans-Serif" font-size="11.00">&lt; 2</text>
<polygon fill="#ffffff" stroke="transparent" points="513,-125 513,-143 585,-143 585,-125 513,-125"/>
<polygon fill="none" stroke="black" points="513,-125 513,-143 585,-143 585,-125 513,-125"/>
<text text-anchor="start" x="516" y="-131.2" font-family="Helvetica,sans-Serif" font-size="11.00">591,749 rows</text>
<polygon fill="#ffffff" stroke="transparent" points="585,-125 585,-143 607,-143 607,-125 585,-125"/>
<polygon fill="none" stroke="black" points="585,-125 585,-143 607,-143 607,-125 585,-125"/>
<text text-anchor="start" x="588" y="-131.2" font-family="Helvetica,sans-Serif" font-size="11.00">1 &gt;</text>
</a>
</g>
</g>
<!-- aggregatesampleages&#45;&gt;sampleages -->
<g id="edge6" class="edge">
<title>aggregatesampleages:w&#45;&gt;sampleages:e</title>
<path fill="none" stroke="black" d="M710.66,-485.37C667.84,-451.68 718.46,-244.27 684,-194 662.18,-162.17 646.59,-152 608,-152"/>
<polygon fill="black" stroke="black" points="716.91,-487.46 723.36,-493.41 720.71,-488.73 724.5,-490 724.5,-490 724.5,-490 720.71,-488.73 725.64,-486.59 716.91,-487.46 716.91,-487.46"/>
<ellipse fill="none" stroke="black" cx="713.88" cy="-486.45" rx="3.2" ry="3.2"/>
</g>
<!-- chronologies -->
<g id="node9" class="node">
<title>chronologies</title>
<g id="a_node9"><a xlink:href="../../tables/chronologies.html" xlink:title="chronologies" target="_top">
<polygon fill="#ffffff" stroke="transparent" points="235,-177 235,-235 349,-235 349,-177 235,-177"/>
<polygon fill="#f5f5f5" stroke="transparent" points="235,-213 235,-235 349,-235 349,-213 235,-213"/>
<polygon fill="none" stroke="black" points="235,-213 235,-235 349,-235 349,-213 235,-213"/>
<text text-anchor="start" x="240" y="-222.2" font-family="Helvetica,sans-Serif" font-weight="bold" font-size="11.00">chronologies</text>
<text text-anchor="start" x="314" y="-221.2" font-family="Helvetica,sans-Serif" font-size="11.00">[table]</text>
<polygon fill="none" stroke="black" points="235,-195 235,-213 349,-213 349,-195 235,-195"/>
<text text-anchor="start" x="238" y="-201.2" font-family="Helvetica,sans-Serif" font-size="11.00">...</text>
<polygon fill="#ffffff" stroke="transparent" points="235,-177 235,-195 259,-195 259,-177 235,-177"/>
<polygon fill="none" stroke="black" points="235,-177 235,-195 259,-195 259,-177 235,-177"/>
<text text-anchor="start" x="238" y="-183.2" font-family="Helvetica,sans-Serif" font-size="11.00">&lt; 3</text>
<polygon fill="#ffffff" stroke="transparent" points="259,-177 259,-195 326,-195 326,-177 259,-177"/>
<polygon fill="none" stroke="black" points="259,-177 259,-195 326,-195 326,-177 259,-177"/>
<text text-anchor="start" x="263" y="-183.2" font-family="Helvetica,sans-Serif" font-size="11.00">31,133 rows</text>
<polygon fill="#ffffff" stroke="transparent" points="326,-177 326,-195 349,-195 349,-177 326,-177"/>
<polygon fill="none" stroke="black" points="326,-177 326,-195 349,-195 349,-177 326,-177"/>
<text text-anchor="start" x="330" y="-183.2" font-family="Helvetica,sans-Serif" font-size="11.00">3 &gt;</text>
</a>
</g>
</g>
<!-- sampleages&#45;&gt;chronologies -->
<g id="edge13" class="edge">
<title>sampleages:w&#45;&gt;chronologies:e</title>
<path fill="none" stroke="black" d="M475.47,-152.9C422.13,-159.81 411.19,-204 350,-204"/>
<polygon fill="black" stroke="black" points="482.02,-152.5 490.22,-155.59 486.01,-152.25 490,-152 490,-152 490,-152 486.01,-152.25 489.78,-148.41 482.02,-152.5 482.02,-152.5"/>
<ellipse fill="none" stroke="black" cx="478.82" cy="-152.69" rx="3.2" ry="3.2"/>
</g>
<!-- aggregatesamples -->
<g id="node7" class="node">
<title>aggregatesamples</title>
<g id="a_node7"><a xlink:href="../../tables/aggregatesamples.html" xlink:title="aggregatesamples" target="_top">
<polygon fill="#ffffff" stroke="transparent" points="478.5,-595 478.5,-653 619.5,-653 619.5,-595 478.5,-595"/>
<polygon fill="#f5f5f5" stroke="transparent" points="479,-631 479,-653 620,-653 620,-631 479,-631"/>
<polygon fill="none" stroke="black" points="479,-631 479,-653 620,-653 620,-631 479,-631"/>
<text text-anchor="start" x="484" y="-640.2" font-family="Helvetica,sans-Serif" font-weight="bold" font-size="11.00">aggregatesamples</text>
<text text-anchor="start" x="585" y="-639.2" font-family="Helvetica,sans-Serif" font-size="11.00">[table]</text>
<polygon fill="none" stroke="black" points="479,-613 479,-631 620,-631 620,-613 479,-613"/>
<text text-anchor="start" x="482" y="-619.2" font-family="Helvetica,sans-Serif" font-size="11.00">...</text>
<polygon fill="#ffffff" stroke="transparent" points="479,-595 479,-613 528,-613 528,-595 479,-595"/>
<polygon fill="none" stroke="black" points="479,-595 479,-613 528,-613 528,-595 479,-595"/>
<text text-anchor="start" x="482" y="-601.2" font-family="Helvetica,sans-Serif" font-size="11.00">&lt; 2</text>
<polygon fill="#ffffff" stroke="transparent" points="528,-595 528,-613 593,-613 593,-595 528,-595"/>
<polygon fill="none" stroke="black" points="528,-595 528,-613 593,-613 593,-595 528,-595"/>
<text text-anchor="start" x="545" y="-601.2" font-family="Helvetica,sans-Serif" font-size="11.00">553 rows</text>
<polygon fill="#ffffff" stroke="transparent" points="593,-595 593,-613 620,-613 620,-595 593,-595"/>
<polygon fill="none" stroke="black" points="593,-595 593,-613 620,-613 620,-595 593,-595"/>
<text text-anchor="start" x="610" y="-601.2" font-family="Helvetica,sans-Serif" font-size="11.00"> &#160;</text>
</a>
</g>
</g>
<!-- aggregatesamples&#45;&gt;aggregatedatasets -->
<g id="edge7" class="edge">
<title>aggregatesamples:w&#45;&gt;aggregatedatasets:e</title>
<path fill="none" stroke="black" d="M463.28,-620.42C425.74,-611.81 420.05,-571 374,-571"/>
<polygon fill="black" stroke="black" points="470.05,-621.15 477.62,-625.58 474.02,-621.57 478,-622 478,-622 478,-622 474.02,-621.57 478.38,-618.42 470.05,-621.15 470.05,-621.15"/>
<ellipse fill="none" stroke="black" cx="466.86" cy="-620.8" rx="3.2" ry="3.2"/>
</g>
<!-- chroncontrols -->
<g id="node8" class="node">
<title>chroncontrols</title>
<g id="a_node8"><a xlink:href="../../tables/chroncontrols.html" xlink:title="chroncontrols" target="_top">
<polygon fill="#ffffff" stroke="transparent" points="489.5,-204 489.5,-262 608.5,-262 608.5,-204 489.5,-204"/>
<polygon fill="#f5f5f5" stroke="transparent" points="490,-240 490,-262 609,-262 609,-240 490,-240"/>
<polygon fill="none" stroke="black" points="490,-240 490,-262 609,-262 609,-240 490,-240"/>
<text text-anchor="start" x="495" y="-249.2" font-family="Helvetica,sans-Serif" font-weight="bold" font-size="11.00">chroncontrols</text>
<text text-anchor="start" x="574" y="-248.2" font-family="Helvetica,sans-Serif" font-size="11.00">[table]</text>
<polygon fill="none" stroke="black" points="490,-222 490,-240 609,-240 609,-222 490,-222"/>
<text text-anchor="start" x="493" y="-228.2" font-family="Helvetica,sans-Serif" font-size="11.00">...</text>
<polygon fill="#ffffff" stroke="transparent" points="490,-204 490,-222 513,-222 513,-204 490,-204"/>
<polygon fill="none" stroke="black" points="490,-204 490,-222 513,-222 513,-204 490,-204"/>
<text text-anchor="start" x="493" y="-210.2" font-family="Helvetica,sans-Serif" font-size="11.00">&lt; 4</text>
<polygon fill="#ffffff" stroke="transparent" points="513,-204 513,-222 586,-222 586,-204 513,-204"/>
<polygon fill="none" stroke="black" points="513,-204 513,-222 586,-222 586,-204 513,-204"/>
<text text-anchor="start" x="517" y="-210.2" font-family="Helvetica,sans-Serif" font-size="11.00">100,724 rows</text>
<polygon fill="#ffffff" stroke="transparent" points="586,-204 586,-222 609,-222 609,-204 586,-204"/>
<polygon fill="none" stroke="black" points="586,-204 586,-222 609,-222 609,-204 586,-204"/>
<text text-anchor="start" x="590" y="-210.2" font-family="Helvetica,sans-Serif" font-size="11.00">5 &gt;</text>
</a>
</g>
</g>
<!-- chroncontrols&#45;&gt;agetypes -->
<g id="edge8" class="edge">
<title>chroncontrols:w&#45;&gt;agetypes:e</title>
<path fill="none" stroke="black" d="M474.34,-231.39C437.65,-233.45 424.06,-243.02 381,-246 302.08,-251.45 278.16,-270.7 203,-246 173.11,-236.18 177.47,-204 146,-204"/>
<polygon fill="black" stroke="black" points="481,-231.21 489.1,-234.6 485,-231.11 489,-231 489,-231 489,-231 485,-231.11 488.9,-227.4 481,-231.21 481,-231.21"/>
<ellipse fill="none" stroke="black" cx="477.8" cy="-231.3" rx="3.2" ry="3.2"/>
</g>
<!-- chroncontrols&#45;&gt;chronologies -->
<g id="edge9" class="edge">
<title>chroncontrols:w&#45;&gt;chronologies:e</title>
<path fill="none" stroke="black" d="M474.46,-230.48C423.58,-226.75 407.77,-204 350,-204"/>
<polygon fill="black" stroke="black" points="481.01,-230.72 488.87,-234.6 485,-230.86 489,-231 489,-231 489,-231 485,-230.86 489.13,-227.4 481.01,-230.72 481.01,-230.72"/>
<ellipse fill="none" stroke="black" cx="477.81" cy="-230.6" rx="3.2" ry="3.2"/>
</g>
<!-- chronologies&#45;&gt;agetypes -->
<g id="edge10" class="edge">
<title>chronologies:w&#45;&gt;agetypes:e</title>
<path fill="none" stroke="black" d="M219.45,-204C191.67,-204 179.76,-204 146,-204"/>
<polygon fill="black" stroke="black" points="226,-204 234,-207.6 230,-204 234,-204 234,-204 234,-204 230,-204 234,-200.4 226,-204 226,-204"/>
<ellipse fill="none" stroke="black" cx="222.8" cy="-204" rx="3.2" ry="3.2"/>
</g>
<!-- dsageranges -->
<g id="node10" class="node">
<title>dsageranges</title>
<g id="a_node10"><a xlink:href="../../tables/dsageranges.html" xlink:title="dsageranges" target="_top">
<polygon fill="#ffffff" stroke="transparent" points="237,-116 237,-156 347,-156 347,-116 237,-116"/>
<polygon fill="#f5f5f5" stroke="transparent" points="237,-134 237,-156 347,-156 347,-134 237,-134"/>
<polygon fill="none" stroke="black" points="237,-134 237,-156 347,-156 347,-134 237,-134"/>
<text text-anchor="start" x="242" y="-143.2" font-family="Helvetica,sans-Serif" font-weight="bold" font-size="11.00">dsageranges</text>
<text text-anchor="start" x="314" y="-142.2" font-family="Helvetica,sans-Serif" font-size="11.00">[view]</text>
<polygon fill="none" stroke="black" points="237,-116 237,-134 347,-134 347,-116 237,-116"/>
<text text-anchor="start" x="240" y="-122.2" font-family="Helvetica,sans-Serif" font-size="11.00">...</text>
</a>
</g>
</g>
<!-- dsageranges&#45;&gt;agetypes -->
<g id="edge11" class="edge">
<title>dsageranges:w&#45;&gt;agetypes:e</title>
<path fill="none" stroke="black" stroke-dasharray="5,2" d="M221.32,-127.45C185.47,-140.79 193.61,-204 146,-204"/>
<polygon fill="black" stroke="black" points="228.11,-126.32 236.59,-128.55 232.05,-125.66 236,-125 236,-125 236,-125 232.05,-125.66 235.41,-121.45 228.11,-126.32 228.11,-126.32"/>
<ellipse fill="none" stroke="black" cx="224.95" cy="-126.84" rx="3.2" ry="3.2"/>
</g>
<!-- geochronology -->
<g id="node11" class="node">
<title>geochronology</title>
<g id="a_node11"><a xlink:href="../../tables/geochronology.html" xlink:title="geochronology" target="_top">
<polygon fill="#ffffff" stroke="transparent" points="230,-37 230,-95 354,-95 354,-37 230,-37"/>
<polygon fill="#f5f5f5" stroke="transparent" points="230,-73 230,-95 354,-95 354,-73 230,-73"/>
<polygon fill="none" stroke="black" points="230,-73 230,-95 354,-95 354,-73 230,-73"/>
<text text-anchor="start" x="235" y="-82.2" font-family="Helvetica,sans-Serif" font-weight="bold" font-size="11.00">geochronology</text>
<text text-anchor="start" x="319" y="-81.2" font-family="Helvetica,sans-Serif" font-size="11.00">[table]</text>
<polygon fill="none" stroke="black" points="230,-55 230,-73 354,-73 354,-55 230,-55"/>
<text text-anchor="start" x="233" y="-61.2" font-family="Helvetica,sans-Serif" font-size="11.00">...</text>
<polygon fill="#ffffff" stroke="transparent" points="230,-37 230,-55 259,-55 259,-37 230,-37"/>
<polygon fill="none" stroke="black" points="230,-37 230,-55 259,-55 259,-37 230,-37"/>
<text text-anchor="start" x="233" y="-43.2" font-family="Helvetica,sans-Serif" font-size="11.00">&lt; 3</text>
<polygon fill="#ffffff" stroke="transparent" points="259,-37 259,-55 328,-55 328,-37 259,-37"/>
<polygon fill="none" stroke="black" points="259,-37 259,-55 328,-55 328,-37 259,-37"/>
<text text-anchor="start" x="265" y="-43.2" font-family="Helvetica,sans-Serif" font-size="11.00">39,608 rows</text>
<polygon fill="#ffffff" stroke="transparent" points="328,-37 328,-55 354,-55 354,-37 328,-37"/>
<polygon fill="none" stroke="black" points="328,-37 328,-55 354,-55 354,-37 328,-37"/>
<text text-anchor="start" x="335" y="-43.2" font-family="Helvetica,sans-Serif" font-size="11.00">3 &gt;</text>
</a>
</g>
</g>
<!-- geochronology&#45;&gt;agetypes -->
<g id="edge12" class="edge">
<title>geochronology:w&#45;&gt;agetypes:e</title>
<path fill="none" stroke="black" d="M214.68,-66.31C165.28,-84.52 212.83,-204 146,-204"/>
<polygon fill="black" stroke="black" points="221.1,-65.28 229.57,-67.55 225.05,-64.64 229,-64 229,-64 229,-64 225.05,-64.64 228.43,-60.45 221.1,-65.28 221.1,-65.28"/>
<ellipse fill="none" stroke="black" cx="217.94" cy="-65.79" rx="3.2" ry="3.2"/>
</g>
</g>
</svg>
