<?xml version="1.0" encoding="UTF-8" standalone="no"?>
<!DOCTYPE svg PUBLIC "-//W3C//DTD SVG 1.1//EN"
 "http://www.w3.org/Graphics/SVG/1.1/DTD/svg11.dtd">
<!-- Generated by graphviz version 2.43.0 (0)
 -->
<!-- Title: oneDegreeRelationshipsDiagram Pages: 1 -->
<svg width="682pt" height="408pt"
 viewBox="0.00 0.00 682.00 408.00" xmlns="http://www.w3.org/2000/svg" xmlns:xlink="http://www.w3.org/1999/xlink">
<g id="graph0" class="graph" transform="scale(1 1) rotate(0) translate(4 404)">
<title>oneDegreeRelationshipsDiagram</title>
<polygon fill="#ffffff" stroke="transparent" points="-4,4 -4,-404 678,-404 678,4 -4,4"/>
<text text-anchor="middle" x="71.5" y="-7.2" font-family="Helvetica,sans-Serif" font-size="11.00">Generated by SchemaSpy</text>
<!-- aggregatechronologies -->
<g id="node1" class="node">
<title>aggregatechronologies</title>
<g id="a_node1"><a xlink:href="../../tables/aggregatechronologies.html" xlink:title="aggregatechronologies" target="_top">
<polygon fill="#ffffff" stroke="transparent" points="219,-248 219,-372 385,-372 385,-248 219,-248"/>
<polygon fill="#f5f5f5" stroke="transparent" points="219,-350 219,-372 385,-372 385,-350 219,-350"/>
<polygon fill="none" stroke="black" points="219,-350 219,-372 385,-372 385,-350 219,-350"/>
<text text-anchor="start" x="224" y="-359.2" font-family="Helvetica,sans-Serif" font-weight="bold" font-size="11.00">aggregatechronologies</text>
<text text-anchor="start" x="350" y="-358.2" font-family="Helvetica,sans-Serif" font-size="11.00">[table]</text>
<polygon fill="none" stroke="black" points="219,-328 219,-350 385,-350 385,-328 219,-328"/>
<image xlink:href="../../images/primaryKeys.png" width="11px" height="12px" preserveAspectRatio="xMinYMin meet" x="224" y="-345"/>
<text text-anchor="start" x="242" y="-336.2" font-family="Helvetica,sans-Serif" font-size="11.00">aggregatechronid</text>
<polygon fill="none" stroke="black" points="219,-306 219,-328 385,-328 385,-306 219,-306"/>
<image xlink:href="../../images/foreignKeys.png" width="11px" height="12px" preserveAspectRatio="xMinYMin meet" x="224" y="-323"/>
<text text-anchor="start" x="242" y="-314.2" font-family="Helvetica,sans-Serif" font-size="11.00">aggregatedatasetid</text>
<polygon fill="none" stroke="black" points="219,-284 219,-306 385,-306 385,-284 219,-284"/>
<image xlink:href="../../images/foreignKeys.png" width="11px" height="12px" preserveAspectRatio="xMinYMin meet" x="224" y="-301"/>
<text text-anchor="start" x="242" y="-292.2" font-family="Helvetica,sans-Serif" font-size="11.00">agetypeid</text>
<polygon fill="none" stroke="black" points="219,-266 219,-284 385,-284 385,-266 219,-266"/>
<text text-anchor="start" x="222" y="-272.2" font-family="Helvetica,sans-Serif" font-size="11.00">...</text>
<polygon fill="#ffffff" stroke="transparent" points="219,-248 219,-266 282,-266 282,-248 219,-248"/>
<polygon fill="none" stroke="black" points="219,-248 219,-266 282,-266 282,-248 219,-248"/>
<text text-anchor="start" x="222" y="-254.2" font-family="Helvetica,sans-Serif" font-size="11.00">&lt; 2</text>
<polygon fill="#ffffff" stroke="transparent" points="282,-248 282,-266 342,-266 342,-248 282,-248"/>
<polygon fill="none" stroke="black" points="282,-248 282,-266 342,-266 342,-248 282,-248"/>
<text text-anchor="start" x="306" y="-254.2" font-family="Helvetica,sans-Serif" font-size="11.00">7 rows</text>
<polygon fill="#ffffff" stroke="transparent" points="342,-248 342,-266 385,-266 385,-248 342,-248"/>
<polygon fill="none" stroke="black" points="342,-248 342,-266 385,-266 385,-248 342,-248"/>
<text text-anchor="start" x="366" y="-254.2" font-family="Helvetica,sans-Serif" font-size="11.00">1 &gt;</text>
</a>
</g>
</g>
<!-- aggregatedatasets -->
<g id="node2" class="node">
<title>aggregatedatasets</title>
<g id="a_node2"><a xlink:href="../../tables/aggregatedatasets.html" xlink:title="aggregatedatasets" target="_top">
<polygon fill="#ffffff" stroke="transparent" points="8,-287 8,-389 170,-389 170,-287 8,-287"/>
<polygon fill="#f5f5f5" stroke="transparent" points="8,-367 8,-389 170,-389 170,-367 8,-367"/>
<polygon fill="none" stroke="black" points="8,-367 8,-389 170,-389 170,-367 8,-367"/>
<text text-anchor="start" x="13" y="-376.2" font-family="Helvetica,sans-Serif" font-weight="bold" font-size="11.00">aggregatedatasets</text>
<text text-anchor="start" x="135" y="-375.2" font-family="Helvetica,sans-Serif" font-size="11.00">[table]</text>
<polygon fill="none" stroke="black" points="8,-345 8,-367 170,-367 170,-345 8,-345"/>
<image xlink:href="../../images/primaryKeys.png" width="11px" height="12px" preserveAspectRatio="xMinYMin meet" x="13" y="-362"/>
<text text-anchor="start" x="28" y="-353.2" font-family="Helvetica,sans-Serif" font-size="11.00">aggregatedatasetid</text>
<polygon fill="none" stroke="black" points="8,-323 8,-345 170,-345 170,-323 8,-323"/>
<image xlink:href="../../images/foreignKeys.png" width="11px" height="12px" preserveAspectRatio="xMinYMin meet" x="13" y="-340"/>
<text text-anchor="start" x="28" y="-331.2" font-family="Helvetica,sans-Serif" font-size="11.00">aggregateordertypeid</text>
<polygon fill="none" stroke="black" points="8,-305 8,-323 170,-323 170,-305 8,-305"/>
<text text-anchor="start" x="11" y="-311.2" font-family="Helvetica,sans-Serif" font-size="11.00">...</text>
<polygon fill="#ffffff" stroke="transparent" points="8,-287 8,-305 66,-305 66,-287 8,-287"/>
<polygon fill="none" stroke="black" points="8,-287 8,-305 66,-305 66,-287 8,-287"/>
<text text-anchor="start" x="11" y="-293.2" font-family="Helvetica,sans-Serif" font-size="11.00">&lt; 1</text>
<polygon fill="#ffffff" stroke="transparent" points="66,-287 66,-305 129,-305 129,-287 66,-287"/>
<polygon fill="none" stroke="black" points="66,-287 66,-305 129,-305 129,-287 66,-287"/>
<text text-anchor="start" x="87" y="-293.2" font-family="Helvetica,sans-Serif" font-size="11.00">11 rows</text>
<polygon fill="#ffffff" stroke="transparent" points="129,-287 129,-305 170,-305 170,-287 129,-287"/>
<polygon fill="none" stroke="black" points="129,-287 129,-305 170,-305 170,-287 129,-287"/>
<text text-anchor="start" x="151" y="-293.2" font-family="Helvetica,sans-Serif" font-size="11.00">3 &gt;</text>
</a>
</g>
</g>
<!-- aggregatechronologies&#45;&gt;aggregatedatasets -->
<g id="edge1" class="edge">
<title>aggregatechronologies:w&#45;&gt;aggregatedatasets:e</title>
<path fill="none" stroke="black" d="M204.41,-321.78C192.4,-332.2 192.21,-356 171,-356"/>
<polygon fill="black" stroke="black" points="210.45,-319.66 219.19,-320.4 214.23,-318.33 218,-317 218,-317 218,-317 214.23,-318.33 216.81,-313.6 210.45,-319.66 210.45,-319.66"/>
<ellipse fill="none" stroke="black" cx="207.43" cy="-320.72" rx="3.2" ry="3.2"/>
</g>
<!-- aggregatesampleages -->
<g id="node3" class="node">
<title>aggregatesampleages</title>
<g id="a_node3"><a xlink:href="../../tables/aggregatesampleages.html" xlink:title="aggregatesampleages" target="_top">
<polygon fill="#ffffff" stroke="transparent" points="434,-242 434,-396 666,-396 666,-242 434,-242"/>
<polygon fill="#f5f5f5" stroke="transparent" points="436,-372 436,-394 664,-394 664,-372 436,-372"/>
<polygon fill="none" stroke="black" points="436,-372 436,-394 664,-394 664,-372 436,-372"/>
<text text-anchor="start" x="441" y="-381.2" font-family="Helvetica,sans-Serif" font-weight="bold" font-size="11.00">aggregatesampleages</text>
<text text-anchor="start" x="629" y="-380.2" font-family="Helvetica,sans-Serif" font-size="11.00">[table]</text>
<polygon fill="none" stroke="black" points="436,-350 436,-372 590,-372 590,-350 436,-350"/>
<image xlink:href="../../images/primaryKeys.png" width="11px" height="12px" preserveAspectRatio="xMinYMin meet" x="441" y="-367"/>
<text text-anchor="start" x="456" y="-358.2" font-family="Helvetica,sans-Serif" font-size="11.00">aggregatedatasetid</text>
<polygon fill="none" stroke="black" points="590,-350 590,-372 664,-372 664,-350 590,-350"/>
<text text-anchor="start" x="593" y="-358.2" font-family="Helvetica,sans-Serif" font-size="11.00">int4[10]</text>
<polygon fill="none" stroke="black" points="436,-328 436,-350 590,-350 590,-328 436,-328"/>
<image xlink:href="../../images/primaryKeys.png" width="11px" height="12px" preserveAspectRatio="xMinYMin meet" x="441" y="-345"/>
<text text-anchor="start" x="456" y="-336.2" font-family="Helvetica,sans-Serif" font-size="11.00">aggregatechronid</text>
<polygon fill="none" stroke="black" points="590,-328 590,-350 664,-350 664,-328 590,-328"/>
<text text-anchor="start" x="593" y="-336.2" font-family="Helvetica,sans-Serif" font-size="11.00">int4[10]</text>
<polygon fill="none" stroke="black" points="436,-306 436,-328 590,-328 590,-306 436,-306"/>
<image xlink:href="../../images/primaryKeys.png" width="11px" height="12px" preserveAspectRatio="xMinYMin meet" x="441" y="-323"/>
<text text-anchor="start" x="456" y="-314.2" font-family="Helvetica,sans-Serif" font-size="11.00">sampleageid</text>
<polygon fill="none" stroke="black" points="590,-306 590,-328 664,-328 664,-306 590,-306"/>
<text text-anchor="start" x="593" y="-314.2" font-family="Helvetica,sans-Serif" font-size="11.00">int4[10]</text>
<polygon fill="none" stroke="black" points="436,-284 436,-306 590,-306 590,-284 436,-284"/>
<text text-anchor="start" x="456" y="-292.2" font-family="Helvetica,sans-Serif" font-size="11.00">recdatecreated</text>
<polygon fill="none" stroke="black" points="590,-284 590,-306 664,-306 664,-284 590,-284"/>
<text text-anchor="start" x="593" y="-292.2" font-family="Helvetica,sans-Serif" font-size="11.00">timestamp[22]</text>
<polygon fill="none" stroke="black" points="436,-262 436,-284 590,-284 590,-262 436,-262"/>
<text text-anchor="start" x="456" y="-270.2" font-family="Helvetica,sans-Serif" font-size="11.00">recdatemodified</text>
<polygon fill="none" stroke="black" points="590,-262 590,-284 664,-284 664,-262 590,-262"/>
<text text-anchor="start" x="593" y="-270.2" font-family="Helvetica,sans-Serif" font-size="11.00">timestamp[22]</text>
<polygon fill="#ffffff" stroke="transparent" points="436,-244 436,-262 498,-262 498,-244 436,-244"/>
<polygon fill="none" stroke="black" points="436,-244 436,-262 498,-262 498,-244 436,-244"/>
<text text-anchor="start" x="439" y="-250.2" font-family="Helvetica,sans-Serif" font-size="11.00">&lt; 3</text>
<polygon fill="#ffffff" stroke="transparent" points="498,-244 498,-262 590,-262 590,-244 498,-244"/>
<polygon fill="none" stroke="black" points="498,-244 498,-262 590,-262 590,-244 498,-244"/>
<text text-anchor="start" x="542" y="-250.2" font-family="Helvetica,sans-Serif" font-size="11.00">369 rows</text>
<polygon fill="#ffffff" stroke="transparent" points="590,-244 590,-262 664,-262 664,-244 590,-244"/>
<polygon fill="none" stroke="black" points="590,-244 590,-262 664,-262 664,-244 590,-244"/>
<text text-anchor="start" x="645" y="-250.2" font-family="Helvetica,sans-Serif" font-size="11.00">0 &gt;</text>
<polygon fill="none" stroke="black" stroke-width="2" points="435,-243 435,-395 665,-395 665,-243 435,-243"/>
</a>
</g>
</g>
<!-- aggregatesampleages&#45;&gt;aggregatechronologies -->
<g id="edge2" class="edge">
<title>aggregatesampleages:w&#45;&gt;aggregatechronologies:e</title>
<path fill="none" stroke="black" d="M420.49,-339C409.18,-339 401.99,-339 386,-339"/>
<polygon fill="black" stroke="black" points="427,-339 435,-342.6 431,-339 435,-339 435,-339 435,-339 431,-339 435,-335.4 427,-339 427,-339"/>
<ellipse fill="none" stroke="black" cx="423.8" cy="-339" rx="3.2" ry="3.2"/>
</g>
<!-- aggregatesampleages&#45;&gt;aggregatedatasets -->
<g id="edge3" class="edge">
<title>aggregatesampleages:w&#45;&gt;aggregatedatasets:e</title>
<path fill="none" stroke="black" d="M420.91,-364.55C411.99,-369.81 407.55,-379.42 393,-383 314.45,-402.33 288.35,-406.66 211,-383 190.49,-376.73 192.45,-356 171,-356"/>
<polygon fill="black" stroke="black" points="427.24,-362.96 435.88,-364.49 431.12,-361.98 435,-361 435,-361 435,-361 431.12,-361.98 434.12,-357.51 427.24,-362.96 427.24,-362.96"/>
<ellipse fill="none" stroke="black" cx="424.14" cy="-363.74" rx="3.2" ry="3.2"/>
</g>
<!-- sampleages -->
<g id="node4" class="node">
<title>sampleages</title>
<g id="a_node4"><a xlink:href="../../tables/sampleages.html" xlink:title="sampleages" target="_top">
<polygon fill="#ffffff" stroke="transparent" points="242,-37 242,-227 362,-227 362,-37 242,-37"/>
<polygon fill="#f5f5f5" stroke="transparent" points="242,-205 242,-227 362,-227 362,-205 242,-205"/>
<polygon fill="none" stroke="black" points="242,-205 242,-227 362,-227 362,-205 242,-205"/>
<text text-anchor="start" x="247" y="-214.2" font-family="Helvetica,sans-Serif" font-weight="bold" font-size="11.00">sampleages</text>
<text text-anchor="start" x="327" y="-213.2" font-family="Helvetica,sans-Serif" font-size="11.00">[table]</text>
<polygon fill="none" stroke="black" points="242,-183 242,-205 362,-205 362,-183 242,-183"/>
<image xlink:href="../../images/primaryKeys.png" width="11px" height="12px" preserveAspectRatio="xMinYMin meet" x="247" y="-200"/>
<text text-anchor="start" x="262" y="-191.2" font-family="Helvetica,sans-Serif" font-size="11.00">sampleageid</text>
<polygon fill="#ffffff" stroke="transparent" points="242,-161 242,-183 362,-183 362,-161 242,-161"/>
<polygon fill="none" stroke="black" points="242,-161 242,-183 362,-183 362,-161 242,-161"/>
<image xlink:href="../../images/foreignKeys.png" width="11px" height="12px" preserveAspectRatio="xMinYMin meet" x="247" y="-178"/>
<text text-anchor="start" x="262" y="-169.2" font-family="Helvetica,sans-Serif" font-size="11.00">sampleid</text>
<polygon fill="#ffffff" stroke="transparent" points="242,-139 242,-161 362,-161 362,-139 242,-139"/>
<polygon fill="none" stroke="black" points="242,-139 242,-161 362,-161 362,-139 242,-139"/>
<image xlink:href="../../images/foreignKeys.png" width="11px" height="12px" preserveAspectRatio="xMinYMin meet" x="247" y="-156"/>
<text text-anchor="start" x="262" y="-147.2" font-family="Helvetica,sans-Serif" font-size="11.00">chronologyid</text>
<polygon fill="#ffffff" stroke="transparent" points="242,-117 242,-139 362,-139 362,-117 242,-117"/>
<polygon fill="none" stroke="black" points="242,-117 242,-139 362,-139 362,-117 242,-117"/>
<text text-anchor="start" x="262" y="-125.2" font-family="Helvetica,sans-Serif" font-size="11.00">age</text>
<polygon fill="#ffffff" stroke="transparent" points="242,-95 242,-117 362,-117 362,-95 242,-95"/>
<polygon fill="none" stroke="black" points="242,-95 242,-117 362,-117 362,-95 242,-95"/>
<text text-anchor="start" x="262" y="-103.2" font-family="Helvetica,sans-Serif" font-size="11.00">ageyounger</text>
<polygon fill="#ffffff" stroke="transparent" points="242,-73 242,-95 362,-95 362,-73 242,-73"/>
<polygon fill="none" stroke="black" points="242,-73 242,-95 362,-95 362,-73 242,-73"/>
<text text-anchor="start" x="262" y="-81.2" font-family="Helvetica,sans-Serif" font-size="11.00">ageolder</text>
<polygon fill="none" stroke="black" points="242,-55 242,-73 362,-73 362,-55 242,-55"/>
<text text-anchor="start" x="245" y="-61.2" font-family="Helvetica,sans-Serif" font-size="11.00">...</text>
<polygon fill="#ffffff" stroke="transparent" points="242,-37 242,-55 266,-55 266,-37 242,-37"/>
<polygon fill="none" stroke="black" points="242,-37 242,-55 266,-55 266,-37 242,-37"/>
<text text-anchor="start" x="245" y="-43.2" font-family="Helvetica,sans-Serif" font-size="11.00">&lt; 2</text>
<polygon fill="#ffffff" stroke="transparent" points="266,-37 266,-55 339,-55 339,-37 266,-37"/>
<polygon fill="none" stroke="black" points="266,-37 266,-55 339,-55 339,-37 266,-37"/>
<text text-anchor="start" x="270" y="-43.2" font-family="Helvetica,sans-Serif" font-size="11.00">591,749 rows</text>
<polygon fill="#ffffff" stroke="transparent" points="339,-37 339,-55 362,-55 362,-37 339,-37"/>
<polygon fill="none" stroke="black" points="339,-37 339,-55 362,-55 362,-37 339,-37"/>
<text text-anchor="start" x="343" y="-43.2" font-family="Helvetica,sans-Serif" font-size="11.00">1 &gt;</text>
</a>
</g>
</g>
<!-- aggregatesampleages&#45;&gt;sampleages -->
<g id="edge4" class="edge">
<title>aggregatesampleages:w&#45;&gt;sampleages:e</title>
<path fill="none" stroke="black" d="M420.61,-314.2C380.53,-295.89 420.65,-194 363,-194"/>
<polygon fill="black" stroke="black" points="427.15,-315.47 434.31,-320.53 431.07,-316.24 435,-317 435,-317 435,-317 431.07,-316.24 435.69,-313.47 427.15,-315.47 427.15,-315.47"/>
<ellipse fill="none" stroke="black" cx="424.01" cy="-314.86" rx="3.2" ry="3.2"/>
</g>
</g>
</svg>
