<?xml version="1.0" encoding="UTF-8" standalone="no"?>
<!DOCTYPE svg PUBLIC "-//W3C//DTD SVG 1.1//EN"
 "http://www.w3.org/Graphics/SVG/1.1/DTD/svg11.dtd">
<!-- Generated by graphviz version 2.43.0 (0)
 -->
<!-- Title: oneDegreeRelationshipsDiagramImplied Pages: 1 -->
<svg width="697pt" height="370pt"
 viewBox="0.00 0.00 697.00 370.00" xmlns="http://www.w3.org/2000/svg" xmlns:xlink="http://www.w3.org/1999/xlink">
<g id="graph0" class="graph" transform="scale(1 1) rotate(0) translate(4 366)">
<title>oneDegreeRelationshipsDiagramImplied</title>
<polygon fill="#ffffff" stroke="transparent" points="-4,4 -4,-366 693,-366 693,4 -4,4"/>
<text text-anchor="middle" x="71.5" y="-7.2" font-family="Helvetica,sans-Serif" font-size="11.00">Generated by SchemaSpy</text>
<!-- aggregatechronologies -->
<g id="node1" class="node">
<title>aggregatechronologies</title>
<g id="a_node1"><a xlink:href="../../tables/aggregatechronologies.html" xlink:title="aggregatechronologies" target="_top">
<polygon fill="#ffffff" stroke="transparent" points="219,-37 219,-301 473,-301 473,-37 219,-37"/>
<polygon fill="#f5f5f5" stroke="transparent" points="221,-277 221,-299 471,-299 471,-277 221,-277"/>
<polygon fill="none" stroke="black" points="221,-277 221,-299 471,-299 471,-277 221,-277"/>
<text text-anchor="start" x="226" y="-286.2" font-family="Helvetica,sans-Serif" font-weight="bold" font-size="11.00">aggregatechronologies</text>
<text text-anchor="start" x="436" y="-285.2" font-family="Helvetica,sans-Serif" font-size="11.00">[table]</text>
<polygon fill="none" stroke="black" points="221,-255 221,-277 381,-277 381,-255 221,-255"/>
<image xlink:href="../../images/primaryKeys.png" width="11px" height="12px" preserveAspectRatio="xMinYMin meet" x="226" y="-272"/>
<text text-anchor="start" x="241" y="-263.2" font-family="Helvetica,sans-Serif" font-size="11.00">aggregatechronid</text>
<polygon fill="none" stroke="black" points="381,-255 381,-277 471,-277 471,-255 381,-255"/>
<text text-anchor="start" x="384" y="-263.2" font-family="Helvetica,sans-Serif" font-size="11.00">serial[10]</text>
<polygon fill="none" stroke="black" points="221,-233 221,-255 381,-255 381,-233 221,-233"/>
<image xlink:href="../../images/foreignKeys.png" width="11px" height="12px" preserveAspectRatio="xMinYMin meet" x="226" y="-250"/>
<text text-anchor="start" x="241" y="-241.2" font-family="Helvetica,sans-Serif" font-size="11.00">aggregatedatasetid</text>
<polygon fill="none" stroke="black" points="381,-233 381,-255 471,-255 471,-233 381,-233"/>
<text text-anchor="start" x="384" y="-241.2" font-family="Helvetica,sans-Serif" font-size="11.00">int4[10]</text>
<polygon fill="none" stroke="black" points="221,-211 221,-233 381,-233 381,-211 221,-211"/>
<image xlink:href="../../images/foreignKeys.png" width="11px" height="12px" preserveAspectRatio="xMinYMin meet" x="226" y="-228"/>
<text text-anchor="start" x="241" y="-219.2" font-family="Helvetica,sans-Serif" font-size="11.00">agetypeid</text>
<polygon fill="none" stroke="black" points="381,-211 381,-233 471,-233 471,-211 381,-211"/>
<text text-anchor="start" x="384" y="-219.2" font-family="Helvetica,sans-Serif" font-size="11.00">int4[10]</text>
<polygon fill="none" stroke="black" points="221,-189 221,-211 381,-211 381,-189 221,-189"/>
<text text-anchor="start" x="241" y="-197.2" font-family="Helvetica,sans-Serif" font-size="11.00">isdefault</text>
<polygon fill="none" stroke="black" points="381,-189 381,-211 471,-211 471,-189 381,-189"/>
<text text-anchor="start" x="384" y="-197.2" font-family="Helvetica,sans-Serif" font-size="11.00">bool[1]</text>
<polygon fill="none" stroke="black" points="221,-167 221,-189 381,-189 381,-167 221,-167"/>
<text text-anchor="start" x="241" y="-175.2" font-family="Helvetica,sans-Serif" font-size="11.00">chronologyname</text>
<polygon fill="none" stroke="black" points="381,-167 381,-189 471,-189 471,-167 381,-167"/>
<text text-anchor="start" x="384" y="-175.2" font-family="Helvetica,sans-Serif" font-size="11.00">varchar[80]</text>
<polygon fill="none" stroke="black" points="221,-145 221,-167 381,-167 381,-145 221,-145"/>
<text text-anchor="start" x="241" y="-153.2" font-family="Helvetica,sans-Serif" font-size="11.00">ageboundyounger</text>
<polygon fill="none" stroke="black" points="381,-145 381,-167 471,-167 471,-145 381,-145"/>
<text text-anchor="start" x="384" y="-153.2" font-family="Helvetica,sans-Serif" font-size="11.00">int4[10]</text>
<polygon fill="none" stroke="black" points="221,-123 221,-145 381,-145 381,-123 221,-123"/>
<text text-anchor="start" x="241" y="-131.2" font-family="Helvetica,sans-Serif" font-size="11.00">ageboundolder</text>
<polygon fill="none" stroke="black" points="381,-123 381,-145 471,-145 471,-123 381,-123"/>
<text text-anchor="start" x="384" y="-131.2" font-family="Helvetica,sans-Serif" font-size="11.00">int4[10]</text>
<polygon fill="none" stroke="black" points="221,-101 221,-123 381,-123 381,-101 221,-101"/>
<text text-anchor="start" x="241" y="-109.2" font-family="Helvetica,sans-Serif" font-size="11.00">notes</text>
<polygon fill="none" stroke="black" points="381,-101 381,-123 471,-123 471,-101 381,-101"/>
<text text-anchor="start" x="384" y="-109.2" font-family="Helvetica,sans-Serif" font-size="11.00">text[2147483647]</text>
<polygon fill="none" stroke="black" points="221,-79 221,-101 381,-101 381,-79 221,-79"/>
<text text-anchor="start" x="241" y="-87.2" font-family="Helvetica,sans-Serif" font-size="11.00">recdatecreated</text>
<polygon fill="none" stroke="black" points="381,-79 381,-101 471,-101 471,-79 381,-79"/>
<text text-anchor="start" x="384" y="-87.2" font-family="Helvetica,sans-Serif" font-size="11.00">timestamp[22]</text>
<polygon fill="none" stroke="black" points="221,-57 221,-79 381,-79 381,-57 221,-57"/>
<text text-anchor="start" x="241" y="-65.2" font-family="Helvetica,sans-Serif" font-size="11.00">recdatemodified</text>
<polygon fill="none" stroke="black" points="381,-57 381,-79 471,-79 471,-57 381,-57"/>
<text text-anchor="start" x="384" y="-65.2" font-family="Helvetica,sans-Serif" font-size="11.00">timestamp[22]</text>
<polygon fill="#ffffff" stroke="transparent" points="221,-39 221,-57 292,-57 292,-39 221,-39"/>
<polygon fill="none" stroke="black" points="221,-39 221,-57 292,-57 292,-39 221,-39"/>
<text text-anchor="start" x="224" y="-45.2" font-family="Helvetica,sans-Serif" font-size="11.00">&lt; 2</text>
<polygon fill="#ffffff" stroke="transparent" points="292,-39 292,-57 381,-57 381,-39 292,-39"/>
<polygon fill="none" stroke="black" points="292,-39 292,-57 381,-57 381,-39 292,-39"/>
<text text-anchor="start" x="345" y="-45.2" font-family="Helvetica,sans-Serif" font-size="11.00">7 rows</text>
<polygon fill="#ffffff" stroke="transparent" points="381,-39 381,-57 471,-57 471,-39 381,-39"/>
<polygon fill="none" stroke="black" points="381,-39 381,-57 471,-57 471,-39 381,-39"/>
<text text-anchor="start" x="452" y="-45.2" font-family="Helvetica,sans-Serif" font-size="11.00">1 &gt;</text>
<polygon fill="none" stroke="black" stroke-width="2" points="220,-38 220,-300 472,-300 472,-38 220,-38"/>
</a>
</g>
</g>
<!-- agetypes -->
<g id="node2" class="node">
<title>agetypes</title>
<g id="a_node2"><a xlink:href="../../tables/agetypes.html" xlink:title="agetypes" target="_top">
<polygon fill="#ffffff" stroke="transparent" points="29,-155 29,-235 149,-235 149,-155 29,-155"/>
<polygon fill="#f5f5f5" stroke="transparent" points="29,-213 29,-235 149,-235 149,-213 29,-213"/>
<polygon fill="none" stroke="black" points="29,-213 29,-235 149,-235 149,-213 29,-213"/>
<text text-anchor="start" x="34" y="-222.2" font-family="Helvetica,sans-Serif" font-weight="bold" font-size="11.00">agetypes</text>
<text text-anchor="start" x="114" y="-221.2" font-family="Helvetica,sans-Serif" font-size="11.00">[table]</text>
<polygon fill="none" stroke="black" points="29,-191 29,-213 149,-213 149,-191 29,-191"/>
<image xlink:href="../../images/primaryKeys.png" width="11px" height="12px" preserveAspectRatio="xMinYMin meet" x="34" y="-208"/>
<text text-anchor="start" x="49" y="-199.2" font-family="Helvetica,sans-Serif" font-size="11.00">agetypeid</text>
<polygon fill="none" stroke="black" points="29,-173 29,-191 149,-191 149,-173 29,-173"/>
<text text-anchor="start" x="32" y="-179.2" font-family="Helvetica,sans-Serif" font-size="11.00">...</text>
<polygon fill="#ffffff" stroke="transparent" points="29,-155 29,-173 65,-173 65,-155 29,-155"/>
<polygon fill="none" stroke="black" points="29,-155 29,-173 65,-173 65,-155 29,-155"/>
<text text-anchor="start" x="32" y="-161.2" font-family="Helvetica,sans-Serif" font-size="11.00"> &#160;</text>
<polygon fill="#ffffff" stroke="transparent" points="65,-155 65,-173 115,-173 115,-155 65,-155"/>
<polygon fill="none" stroke="black" points="65,-155 65,-173 115,-173 115,-155 65,-155"/>
<text text-anchor="start" x="79" y="-161.2" font-family="Helvetica,sans-Serif" font-size="11.00">5 rows</text>
<polygon fill="#ffffff" stroke="transparent" points="115,-155 115,-173 149,-173 149,-155 115,-155"/>
<polygon fill="none" stroke="black" points="115,-155 115,-173 149,-173 149,-155 115,-155"/>
<text text-anchor="start" x="130" y="-161.2" font-family="Helvetica,sans-Serif" font-size="11.00">4 &gt;</text>
</a>
</g>
</g>
<!-- aggregatechronologies&#45;&gt;agetypes -->
<g id="edge1" class="edge">
<title>aggregatechronologies:w&#45;&gt;agetypes:e</title>
<path fill="none" stroke="black" d="M205.44,-220.43C185.03,-215.72 176.79,-202 150,-202"/>
<polygon fill="black" stroke="black" points="212.05,-221.14 219.61,-225.58 216.02,-221.57 220,-222 220,-222 220,-222 216.02,-221.57 220.39,-218.42 212.05,-221.14 212.05,-221.14"/>
<ellipse fill="none" stroke="black" cx="208.86" cy="-220.8" rx="3.2" ry="3.2"/>
</g>
<!-- aggregatedatasets -->
<g id="node3" class="node">
<title>aggregatedatasets</title>
<g id="a_node3"><a xlink:href="../../tables/aggregatedatasets.html" xlink:title="aggregatedatasets" target="_top">
<polygon fill="#ffffff" stroke="transparent" points="8,-256 8,-358 170,-358 170,-256 8,-256"/>
<polygon fill="#f5f5f5" stroke="transparent" points="8,-336 8,-358 170,-358 170,-336 8,-336"/>
<polygon fill="none" stroke="black" points="8,-336 8,-358 170,-358 170,-336 8,-336"/>
<text text-anchor="start" x="13" y="-345.2" font-family="Helvetica,sans-Serif" font-weight="bold" font-size="11.00">aggregatedatasets</text>
<text text-anchor="start" x="135" y="-344.2" font-family="Helvetica,sans-Serif" font-size="11.00">[table]</text>
<polygon fill="none" stroke="black" points="8,-314 8,-336 170,-336 170,-314 8,-314"/>
<image xlink:href="../../images/primaryKeys.png" width="11px" height="12px" preserveAspectRatio="xMinYMin meet" x="13" y="-331"/>
<text text-anchor="start" x="28" y="-322.2" font-family="Helvetica,sans-Serif" font-size="11.00">aggregatedatasetid</text>
<polygon fill="none" stroke="black" points="8,-292 8,-314 170,-314 170,-292 8,-292"/>
<image xlink:href="../../images/foreignKeys.png" width="11px" height="12px" preserveAspectRatio="xMinYMin meet" x="13" y="-309"/>
<text text-anchor="start" x="28" y="-300.2" font-family="Helvetica,sans-Serif" font-size="11.00">aggregateordertypeid</text>
<polygon fill="none" stroke="black" points="8,-274 8,-292 170,-292 170,-274 8,-274"/>
<text text-anchor="start" x="11" y="-280.2" font-family="Helvetica,sans-Serif" font-size="11.00">...</text>
<polygon fill="#ffffff" stroke="transparent" points="8,-256 8,-274 66,-274 66,-256 8,-256"/>
<polygon fill="none" stroke="black" points="8,-256 8,-274 66,-274 66,-256 8,-256"/>
<text text-anchor="start" x="11" y="-262.2" font-family="Helvetica,sans-Serif" font-size="11.00">&lt; 1</text>
<polygon fill="#ffffff" stroke="transparent" points="66,-256 66,-274 129,-274 129,-256 66,-256"/>
<polygon fill="none" stroke="black" points="66,-256 66,-274 129,-274 129,-256 66,-256"/>
<text text-anchor="start" x="87" y="-262.2" font-family="Helvetica,sans-Serif" font-size="11.00">11 rows</text>
<polygon fill="#ffffff" stroke="transparent" points="129,-256 129,-274 170,-274 170,-256 129,-256"/>
<polygon fill="none" stroke="black" points="129,-256 129,-274 170,-274 170,-256 129,-256"/>
<text text-anchor="start" x="151" y="-262.2" font-family="Helvetica,sans-Serif" font-size="11.00">3 &gt;</text>
</a>
</g>
</g>
<!-- aggregatechronologies&#45;&gt;aggregatedatasets -->
<g id="edge2" class="edge">
<title>aggregatechronologies:w&#45;&gt;aggregatedatasets:e</title>
<path fill="none" stroke="black" d="M206.13,-248.59C186.47,-265.72 206.99,-325 171,-325"/>
<polygon fill="black" stroke="black" points="212.4,-246.51 221.13,-247.42 216.2,-245.26 220,-244 220,-244 220,-244 216.2,-245.26 218.87,-240.58 212.4,-246.51 212.4,-246.51"/>
<ellipse fill="none" stroke="black" cx="209.37" cy="-247.52" rx="3.2" ry="3.2"/>
</g>
<!-- aggregatesampleages -->
<g id="node4" class="node">
<title>aggregatesampleages</title>
<g id="a_node4"><a xlink:href="../../tables/aggregatesampleages.html" xlink:title="aggregatesampleages" target="_top">
<polygon fill="#ffffff" stroke="transparent" points="522,-215 522,-339 681,-339 681,-215 522,-215"/>
<polygon fill="#f5f5f5" stroke="transparent" points="522.5,-317 522.5,-339 681.5,-339 681.5,-317 522.5,-317"/>
<polygon fill="none" stroke="black" points="522.5,-317 522.5,-339 681.5,-339 681.5,-317 522.5,-317"/>
<text text-anchor="start" x="527.5" y="-326.2" font-family="Helvetica,sans-Serif" font-weight="bold" font-size="11.00">aggregatesampleages</text>
<text text-anchor="start" x="646.5" y="-325.2" font-family="Helvetica,sans-Serif" font-size="11.00">[table]</text>
<polygon fill="none" stroke="black" points="522.5,-295 522.5,-317 681.5,-317 681.5,-295 522.5,-295"/>
<image xlink:href="../../images/primaryKeys.png" width="11px" height="12px" preserveAspectRatio="xMinYMin meet" x="527.5" y="-312"/>
<text text-anchor="start" x="545.5" y="-303.2" font-family="Helvetica,sans-Serif" font-size="11.00">aggregatedatasetid</text>
<polygon fill="none" stroke="black" points="522.5,-273 522.5,-295 681.5,-295 681.5,-273 522.5,-273"/>
<image xlink:href="../../images/primaryKeys.png" width="11px" height="12px" preserveAspectRatio="xMinYMin meet" x="527.5" y="-290"/>
<text text-anchor="start" x="545.5" y="-281.2" font-family="Helvetica,sans-Serif" font-size="11.00">aggregatechronid</text>
<polygon fill="none" stroke="black" points="522.5,-251 522.5,-273 681.5,-273 681.5,-251 522.5,-251"/>
<image xlink:href="../../images/primaryKeys.png" width="11px" height="12px" preserveAspectRatio="xMinYMin meet" x="527.5" y="-268"/>
<text text-anchor="start" x="545.5" y="-259.2" font-family="Helvetica,sans-Serif" font-size="11.00">sampleageid</text>
<polygon fill="none" stroke="black" points="522.5,-233 522.5,-251 681.5,-251 681.5,-233 522.5,-233"/>
<text text-anchor="start" x="525.5" y="-239.2" font-family="Helvetica,sans-Serif" font-size="11.00">...</text>
<polygon fill="#ffffff" stroke="transparent" points="522.5,-215 522.5,-233 580.5,-233 580.5,-215 522.5,-215"/>
<polygon fill="none" stroke="black" points="522.5,-215 522.5,-233 580.5,-233 580.5,-215 522.5,-215"/>
<text text-anchor="start" x="525.5" y="-221.2" font-family="Helvetica,sans-Serif" font-size="11.00">&lt; 3</text>
<polygon fill="#ffffff" stroke="transparent" points="580.5,-215 580.5,-233 649.5,-233 649.5,-215 580.5,-215"/>
<polygon fill="none" stroke="black" points="580.5,-215 580.5,-233 649.5,-233 649.5,-215 580.5,-215"/>
<text text-anchor="start" x="601.5" y="-221.2" font-family="Helvetica,sans-Serif" font-size="11.00">369 rows</text>
<polygon fill="#ffffff" stroke="transparent" points="649.5,-215 649.5,-233 681.5,-233 681.5,-215 649.5,-215"/>
<polygon fill="none" stroke="black" points="649.5,-215 649.5,-233 681.5,-233 681.5,-215 649.5,-215"/>
<text text-anchor="start" x="671.5" y="-221.2" font-family="Helvetica,sans-Serif" font-size="11.00"> &#160;</text>
</a>
</g>
</g>
<!-- aggregatesampleages&#45;&gt;aggregatechronologies -->
<g id="edge3" class="edge">
<title>aggregatesampleages:w&#45;&gt;aggregatechronologies:e</title>
<path fill="none" stroke="black" d="M507.18,-281.19C495.45,-276.12 489.56,-266 472,-266"/>
<polygon fill="black" stroke="black" points="513.65,-282.46 520.81,-287.53 517.58,-283.23 521.5,-284 521.5,-284 521.5,-284 517.58,-283.23 522.19,-280.47 513.65,-282.46 513.65,-282.46"/>
<ellipse fill="none" stroke="black" cx="510.51" cy="-281.84" rx="3.2" ry="3.2"/>
</g>
<!-- aggregatesampleages&#45;&gt;aggregatedatasets -->
<g id="edge4" class="edge">
<title>aggregatesampleages:w&#45;&gt;aggregatedatasets:e</title>
<path fill="none" stroke="black" d="M507.13,-307.14C499.06,-308.53 493.17,-310.85 481,-312 343.72,-325.01 308.9,-325 171,-325"/>
<polygon fill="black" stroke="black" points="513.53,-306.63 521.78,-309.59 517.51,-306.32 521.5,-306 521.5,-306 521.5,-306 517.51,-306.32 521.22,-302.41 513.53,-306.63 513.53,-306.63"/>
<ellipse fill="none" stroke="black" cx="510.34" cy="-306.89" rx="3.2" ry="3.2"/>
</g>
</g>
</svg>
