<?xml version="1.0" encoding="UTF-8" standalone="no"?>
<!DOCTYPE svg PUBLIC "-//W3C//DTD SVG 1.1//EN"
 "http://www.w3.org/Graphics/SVG/1.1/DTD/svg11.dtd">
<!-- Generated by graphviz version 2.43.0 (0)
 -->
<!-- Title: twoDegreesRelationshipsDiagram Pages: 1 -->
<svg width="673pt" height="536pt"
 viewBox="0.00 0.00 673.00 536.38" xmlns="http://www.w3.org/2000/svg" xmlns:xlink="http://www.w3.org/1999/xlink">
<g id="graph0" class="graph" transform="scale(1 1) rotate(0) translate(4 532.38)">
<title>twoDegreesRelationshipsDiagram</title>
<polygon fill="#ffffff" stroke="transparent" points="-4,4 -4,-532.38 669,-532.38 669,4 -4,4"/>
<text text-anchor="middle" x="71.5" y="-7.2" font-family="Helvetica,sans-Serif" font-size="11.00">Generated by SchemaSpy</text>
<!-- accumulationrates -->
<g id="node1" class="node">
<title>accumulationrates</title>
<g id="a_node1"><a xlink:href="../../tables/accumulationrates.html" xlink:title="accumulationrates" target="_top">
<polygon fill="#ffffff" stroke="transparent" points="508.5,-460 508.5,-518 649.5,-518 649.5,-460 508.5,-460"/>
<polygon fill="#f5f5f5" stroke="transparent" points="509,-496 509,-518 650,-518 650,-496 509,-496"/>
<polygon fill="none" stroke="black" points="509,-496 509,-518 650,-518 650,-496 509,-496"/>
<text text-anchor="start" x="514" y="-505.2" font-family="Helvetica,sans-Serif" font-weight="bold" font-size="11.00">accumulationrates</text>
<text text-anchor="start" x="615" y="-504.2" font-family="Helvetica,sans-Serif" font-size="11.00">[table]</text>
<polygon fill="none" stroke="black" points="509,-478 509,-496 650,-496 650,-478 509,-478"/>
<text text-anchor="start" x="512" y="-484.2" font-family="Helvetica,sans-Serif" font-size="11.00">...</text>
<polygon fill="#ffffff" stroke="transparent" points="509,-460 509,-478 554,-478 554,-460 509,-460"/>
<polygon fill="none" stroke="black" points="509,-460 509,-478 554,-478 554,-460 509,-460"/>
<text text-anchor="start" x="512" y="-466.2" font-family="Helvetica,sans-Serif" font-size="11.00">&lt; 3</text>
<polygon fill="#ffffff" stroke="transparent" points="554,-460 554,-478 625,-478 625,-460 554,-460"/>
<polygon fill="none" stroke="black" points="554,-460 554,-478 625,-478 625,-460 554,-460"/>
<text text-anchor="start" x="568" y="-466.2" font-family="Helvetica,sans-Serif" font-size="11.00">1,089 rows</text>
<polygon fill="#ffffff" stroke="transparent" points="625,-460 625,-478 650,-478 650,-460 625,-460"/>
<polygon fill="none" stroke="black" points="625,-460 625,-478 650,-478 650,-460 625,-460"/>
<text text-anchor="start" x="640" y="-466.2" font-family="Helvetica,sans-Serif" font-size="11.00"> &#160;</text>
</a>
</g>
</g>
<!-- analysisunits -->
<g id="node2" class="node">
<title>analysisunits</title>
<g id="a_node2"><a xlink:href="../../tables/analysisunits.html" xlink:title="analysisunits" target="_top">
<polygon fill="#ffffff" stroke="transparent" points="256.5,-414 256.5,-472 372.5,-472 372.5,-414 256.5,-414"/>
<polygon fill="#f5f5f5" stroke="transparent" points="256.5,-450 256.5,-472 372.5,-472 372.5,-450 256.5,-450"/>
<polygon fill="none" stroke="black" points="256.5,-450 256.5,-472 372.5,-472 372.5,-450 256.5,-450"/>
<text text-anchor="start" x="261.5" y="-459.2" font-family="Helvetica,sans-Serif" font-weight="bold" font-size="11.00">analysisunits</text>
<text text-anchor="start" x="337.5" y="-458.2" font-family="Helvetica,sans-Serif" font-size="11.00">[table]</text>
<polygon fill="none" stroke="black" points="256.5,-432 256.5,-450 372.5,-450 372.5,-432 256.5,-432"/>
<text text-anchor="start" x="259.5" y="-438.2" font-family="Helvetica,sans-Serif" font-size="11.00">...</text>
<polygon fill="#ffffff" stroke="transparent" points="256.5,-414 256.5,-432 278.5,-432 278.5,-414 256.5,-414"/>
<polygon fill="none" stroke="black" points="256.5,-414 256.5,-432 278.5,-432 278.5,-414 256.5,-414"/>
<text text-anchor="start" x="259.5" y="-420.2" font-family="Helvetica,sans-Serif" font-size="11.00">&lt; 2</text>
<polygon fill="#ffffff" stroke="transparent" points="278.5,-414 278.5,-432 350.5,-432 350.5,-414 278.5,-414"/>
<polygon fill="none" stroke="black" points="278.5,-414 278.5,-432 350.5,-432 350.5,-414 278.5,-414"/>
<text text-anchor="start" x="281.5" y="-420.2" font-family="Helvetica,sans-Serif" font-size="11.00">449,200 rows</text>
<polygon fill="#ffffff" stroke="transparent" points="350.5,-414 350.5,-432 372.5,-432 372.5,-414 350.5,-414"/>
<polygon fill="none" stroke="black" points="350.5,-414 350.5,-432 372.5,-432 372.5,-414 350.5,-414"/>
<text text-anchor="start" x="353.5" y="-420.2" font-family="Helvetica,sans-Serif" font-size="11.00">9 &gt;</text>
</a>
</g>
</g>
<!-- accumulationrates&#45;&gt;analysisunits -->
<g id="edge1" class="edge">
<title>accumulationrates:w&#45;&gt;analysisunits:e</title>
<path fill="none" stroke="black" d="M493.5,-486.12C443.12,-479.76 431.49,-441 373.5,-441"/>
<polygon fill="black" stroke="black" points="500.01,-486.52 507.78,-490.59 504.01,-486.76 508,-487 508,-487 508,-487 504.01,-486.76 508.22,-483.41 500.01,-486.52 500.01,-486.52"/>
<ellipse fill="none" stroke="black" cx="496.82" cy="-486.32" rx="3.2" ry="3.2"/>
</g>
<!-- variableunits -->
<g id="node3" class="node">
<title>variableunits</title>
<g id="a_node3"><a xlink:href="../../tables/variableunits.html" xlink:title="variableunits" target="_top">
<polygon fill="#ffffff" stroke="transparent" points="8,-170 8,-250 128,-250 128,-170 8,-170"/>
<polygon fill="#f5f5f5" stroke="transparent" points="8,-228 8,-250 128,-250 128,-228 8,-228"/>
<polygon fill="none" stroke="black" points="8,-228 8,-250 128,-250 128,-228 8,-228"/>
<text text-anchor="start" x="13" y="-237.2" font-family="Helvetica,sans-Serif" font-weight="bold" font-size="11.00">variableunits</text>
<text text-anchor="start" x="93" y="-236.2" font-family="Helvetica,sans-Serif" font-size="11.00">[table]</text>
<polygon fill="none" stroke="black" points="8,-206 8,-228 128,-228 128,-206 8,-206"/>
<image xlink:href="../../images/primaryKeys.png" width="11px" height="12px" preserveAspectRatio="xMinYMin meet" x="13" y="-223"/>
<text text-anchor="start" x="28" y="-214.2" font-family="Helvetica,sans-Serif" font-size="11.00">variableunitsid</text>
<polygon fill="none" stroke="black" points="8,-188 8,-206 128,-206 128,-188 8,-188"/>
<text text-anchor="start" x="11" y="-194.2" font-family="Helvetica,sans-Serif" font-size="11.00">...</text>
<polygon fill="#ffffff" stroke="transparent" points="8,-170 8,-188 38,-188 38,-170 8,-170"/>
<polygon fill="none" stroke="black" points="8,-170 8,-188 38,-188 38,-170 8,-170"/>
<text text-anchor="start" x="11" y="-176.2" font-family="Helvetica,sans-Serif" font-size="11.00"> &#160;</text>
<polygon fill="#ffffff" stroke="transparent" points="38,-170 38,-188 97,-188 97,-170 38,-170"/>
<polygon fill="none" stroke="black" points="38,-170 38,-188 97,-188 97,-170 38,-170"/>
<text text-anchor="start" x="49" y="-176.2" font-family="Helvetica,sans-Serif" font-size="11.00">209 rows</text>
<polygon fill="#ffffff" stroke="transparent" points="97,-170 97,-188 128,-188 128,-170 97,-170"/>
<polygon fill="none" stroke="black" points="97,-170 97,-188 128,-188 128,-170 97,-170"/>
<text text-anchor="start" x="109" y="-176.2" font-family="Helvetica,sans-Serif" font-size="11.00">4 &gt;</text>
</a>
</g>
</g>
<!-- accumulationrates&#45;&gt;variableunits -->
<g id="edge2" class="edge">
<title>accumulationrates:w&#45;&gt;variableunits:e</title>
<path fill="none" stroke="black" d="M493.24,-487.3C352.32,-493.09 278.84,-578.69 169,-483 123.93,-443.73 188.78,-217 129,-217"/>
<polygon fill="black" stroke="black" points="500,-487.16 508.07,-490.6 504,-487.08 508,-487 508,-487 508,-487 504,-487.08 507.93,-483.4 500,-487.16 500,-487.16"/>
<ellipse fill="none" stroke="black" cx="496.8" cy="-487.23" rx="3.2" ry="3.2"/>
</g>
<!-- analysisunitaltdepths -->
<g id="node4" class="node">
<title>analysisunitaltdepths</title>
<g id="a_node4"><a xlink:href="../../tables/analysisunitaltdepths.html" xlink:title="analysisunitaltdepths" target="_top">
<polygon fill="#ffffff" stroke="transparent" points="501,-328 501,-430 657,-430 657,-328 501,-328"/>
<polygon fill="#f5f5f5" stroke="transparent" points="501,-408 501,-430 657,-430 657,-408 501,-408"/>
<polygon fill="none" stroke="black" points="501,-408 501,-430 657,-430 657,-408 501,-408"/>
<text text-anchor="start" x="506" y="-417.2" font-family="Helvetica,sans-Serif" font-weight="bold" font-size="11.00">analysisunitaltdepths</text>
<text text-anchor="start" x="622" y="-416.2" font-family="Helvetica,sans-Serif" font-size="11.00">[table]</text>
<polygon fill="none" stroke="black" points="501,-386 501,-408 657,-408 657,-386 501,-386"/>
<image xlink:href="../../images/primaryKeys.png" width="11px" height="12px" preserveAspectRatio="xMinYMin meet" x="506" y="-403"/>
<text text-anchor="start" x="524" y="-394.2" font-family="Helvetica,sans-Serif" font-size="11.00">analysisunitid</text>
<polygon fill="none" stroke="black" points="501,-364 501,-386 657,-386 657,-364 501,-364"/>
<image xlink:href="../../images/primaryKeys.png" width="11px" height="12px" preserveAspectRatio="xMinYMin meet" x="506" y="-381"/>
<text text-anchor="start" x="524" y="-372.2" font-family="Helvetica,sans-Serif" font-size="11.00">altdepthscaleid</text>
<polygon fill="none" stroke="black" points="501,-346 501,-364 657,-364 657,-346 501,-346"/>
<text text-anchor="start" x="504" y="-352.2" font-family="Helvetica,sans-Serif" font-size="11.00">...</text>
<polygon fill="#ffffff" stroke="transparent" points="501,-328 501,-346 553,-346 553,-328 501,-328"/>
<polygon fill="none" stroke="black" points="501,-328 501,-346 553,-346 553,-328 501,-328"/>
<text text-anchor="start" x="504" y="-334.2" font-family="Helvetica,sans-Serif" font-size="11.00">&lt; 2</text>
<polygon fill="#ffffff" stroke="transparent" points="553,-328 553,-346 628,-346 628,-328 553,-328"/>
<polygon fill="none" stroke="black" points="553,-328 553,-346 628,-346 628,-328 553,-328"/>
<text text-anchor="start" x="571" y="-334.2" font-family="Helvetica,sans-Serif" font-size="11.00">7,395 rows</text>
<polygon fill="#ffffff" stroke="transparent" points="628,-328 628,-346 657,-346 657,-328 628,-328"/>
<polygon fill="none" stroke="black" points="628,-328 628,-346 657,-346 657,-328 628,-328"/>
<text text-anchor="start" x="647" y="-334.2" font-family="Helvetica,sans-Serif" font-size="11.00"> &#160;</text>
</a>
</g>
</g>
<!-- analysisunitaltdepths&#45;&gt;analysisunits -->
<g id="edge4" class="edge">
<title>analysisunitaltdepths:w&#45;&gt;analysisunits:e</title>
<path fill="none" stroke="black" d="M485.44,-397.96C438.76,-404.39 427.79,-441 373.5,-441"/>
<polygon fill="black" stroke="black" points="492.02,-397.53 500.24,-400.59 496.01,-397.26 500,-397 500,-397 500,-397 496.01,-397.26 499.76,-393.41 492.02,-397.53 492.02,-397.53"/>
<ellipse fill="none" stroke="black" cx="488.82" cy="-397.74" rx="3.2" ry="3.2"/>
</g>
<!-- analysisunitaltdepthscales -->
<g id="node5" class="node">
<title>analysisunitaltdepthscales</title>
<g id="a_node5"><a xlink:href="../../tables/analysisunitaltdepthscales.html" xlink:title="analysisunitaltdepthscales" target="_top">
<polygon fill="#ffffff" stroke="transparent" points="177,-195 177,-393 452,-393 452,-195 177,-195"/>
<polygon fill="#f5f5f5" stroke="transparent" points="179.5,-369 179.5,-391 450.5,-391 450.5,-369 179.5,-369"/>
<polygon fill="none" stroke="black" points="179.5,-369 179.5,-391 450.5,-391 450.5,-369 179.5,-369"/>
<text text-anchor="start" x="184.5" y="-378.2" font-family="Helvetica,sans-Serif" font-weight="bold" font-size="11.00">analysisunitaltdepthscales</text>
<text text-anchor="start" x="415.5" y="-377.2" font-family="Helvetica,sans-Serif" font-size="11.00">[table]</text>
<polygon fill="none" stroke="black" points="179.5,-347 179.5,-369 360.5,-369 360.5,-347 179.5,-347"/>
<image xlink:href="../../images/primaryKeys.png" width="11px" height="12px" preserveAspectRatio="xMinYMin meet" x="184.5" y="-364"/>
<text text-anchor="start" x="199.5" y="-355.2" font-family="Helvetica,sans-Serif" font-size="11.00">altdepthscaleid</text>
<polygon fill="none" stroke="black" points="360.5,-347 360.5,-369 450.5,-369 450.5,-347 360.5,-347"/>
<text text-anchor="start" x="363.5" y="-355.2" font-family="Helvetica,sans-Serif" font-size="11.00">serial[10]</text>
<polygon fill="none" stroke="black" points="179.5,-325 179.5,-347 360.5,-347 360.5,-325 179.5,-325"/>
<text text-anchor="start" x="199.5" y="-333.2" font-family="Helvetica,sans-Serif" font-size="11.00">altdepthid</text>
<polygon fill="none" stroke="black" points="360.5,-325 360.5,-347 450.5,-347 450.5,-325 360.5,-325"/>
<text text-anchor="start" x="363.5" y="-333.2" font-family="Helvetica,sans-Serif" font-size="11.00">int4[10]</text>
<polygon fill="none" stroke="black" points="179.5,-303 179.5,-325 360.5,-325 360.5,-303 179.5,-303"/>
<text text-anchor="start" x="199.5" y="-311.2" font-family="Helvetica,sans-Serif" font-size="11.00">altdepthname</text>
<polygon fill="none" stroke="black" points="360.5,-303 360.5,-325 450.5,-325 450.5,-303 360.5,-303"/>
<text text-anchor="start" x="363.5" y="-311.2" font-family="Helvetica,sans-Serif" font-size="11.00">varchar[80]</text>
<polygon fill="none" stroke="black" points="179.5,-281 179.5,-303 360.5,-303 360.5,-281 179.5,-281"/>
<image xlink:href="../../images/foreignKeys.png" width="11px" height="12px" preserveAspectRatio="xMinYMin meet" x="184.5" y="-298"/>
<text text-anchor="start" x="199.5" y="-289.2" font-family="Helvetica,sans-Serif" font-size="11.00">variableunitsid</text>
<polygon fill="none" stroke="black" points="360.5,-281 360.5,-303 450.5,-303 450.5,-281 360.5,-281"/>
<text text-anchor="start" x="363.5" y="-289.2" font-family="Helvetica,sans-Serif" font-size="11.00">int4[10]</text>
<polygon fill="none" stroke="black" points="179.5,-259 179.5,-281 360.5,-281 360.5,-259 179.5,-259"/>
<text text-anchor="start" x="199.5" y="-267.2" font-family="Helvetica,sans-Serif" font-size="11.00">notes</text>
<polygon fill="none" stroke="black" points="360.5,-259 360.5,-281 450.5,-281 450.5,-259 360.5,-259"/>
<text text-anchor="start" x="363.5" y="-267.2" font-family="Helvetica,sans-Serif" font-size="11.00">text[2147483647]</text>
<polygon fill="none" stroke="black" points="179.5,-237 179.5,-259 360.5,-259 360.5,-237 179.5,-237"/>
<text text-anchor="start" x="199.5" y="-245.2" font-family="Helvetica,sans-Serif" font-size="11.00">recdatecreated</text>
<polygon fill="none" stroke="black" points="360.5,-237 360.5,-259 450.5,-259 450.5,-237 360.5,-237"/>
<text text-anchor="start" x="363.5" y="-245.2" font-family="Helvetica,sans-Serif" font-size="11.00">timestamp[22]</text>
<polygon fill="none" stroke="black" points="179.5,-215 179.5,-237 360.5,-237 360.5,-215 179.5,-215"/>
<text text-anchor="start" x="199.5" y="-223.2" font-family="Helvetica,sans-Serif" font-size="11.00">recdatemodified</text>
<polygon fill="none" stroke="black" points="360.5,-215 360.5,-237 450.5,-237 450.5,-215 360.5,-215"/>
<text text-anchor="start" x="363.5" y="-223.2" font-family="Helvetica,sans-Serif" font-size="11.00">timestamp[22]</text>
<polygon fill="#ffffff" stroke="transparent" points="179.5,-197 179.5,-215 258.5,-215 258.5,-197 179.5,-197"/>
<polygon fill="none" stroke="black" points="179.5,-197 179.5,-215 258.5,-215 258.5,-197 179.5,-197"/>
<text text-anchor="start" x="182.5" y="-203.2" font-family="Helvetica,sans-Serif" font-size="11.00">&lt; 1</text>
<polygon fill="#ffffff" stroke="transparent" points="258.5,-197 258.5,-215 360.5,-215 360.5,-197 258.5,-197"/>
<polygon fill="none" stroke="black" points="258.5,-197 258.5,-215 360.5,-215 360.5,-197 258.5,-197"/>
<text text-anchor="start" x="318.5" y="-203.2" font-family="Helvetica,sans-Serif" font-size="11.00">55 rows</text>
<polygon fill="#ffffff" stroke="transparent" points="360.5,-197 360.5,-215 450.5,-215 450.5,-197 360.5,-197"/>
<polygon fill="none" stroke="black" points="360.5,-197 360.5,-215 450.5,-215 450.5,-197 360.5,-197"/>
<text text-anchor="start" x="431.5" y="-203.2" font-family="Helvetica,sans-Serif" font-size="11.00">1 &gt;</text>
<polygon fill="none" stroke="black" stroke-width="2" points="178,-196 178,-392 451,-392 451,-196 178,-196"/>
</a>
</g>
</g>
<!-- analysisunitaltdepths&#45;&gt;analysisunitaltdepthscales -->
<g id="edge3" class="edge">
<title>analysisunitaltdepths:w&#45;&gt;analysisunitaltdepthscales:e</title>
<path fill="none" stroke="black" d="M485.64,-372.19C474.38,-367.36 468.45,-358 451.5,-358"/>
<polygon fill="black" stroke="black" points="492.15,-373.47 499.31,-378.53 496.07,-374.23 500,-375 500,-375 500,-375 496.07,-374.23 500.69,-371.47 492.15,-373.47 492.15,-373.47"/>
<ellipse fill="none" stroke="black" cx="489.01" cy="-372.85" rx="3.2" ry="3.2"/>
</g>
<!-- analysisunitaltdepthscales&#45;&gt;variableunits -->
<g id="edge5" class="edge">
<title>analysisunitaltdepthscales:w&#45;&gt;variableunits:e</title>
<path fill="none" stroke="black" d="M164.65,-287.31C146.18,-270.89 162.85,-217 129,-217"/>
<polygon fill="black" stroke="black" points="170.92,-289.43 177.35,-295.41 174.71,-290.72 178.5,-292 178.5,-292 178.5,-292 174.71,-290.72 179.65,-288.59 170.92,-289.43 170.92,-289.43"/>
<ellipse fill="none" stroke="black" cx="167.89" cy="-288.41" rx="3.2" ry="3.2"/>
</g>
<!-- unitsdatasettypes -->
<g id="node6" class="node">
<title>unitsdatasettypes</title>
<g id="a_node6"><a xlink:href="../../tables/unitsdatasettypes.html" xlink:title="unitsdatasettypes" target="_top">
<polygon fill="#ffffff" stroke="transparent" points="245.5,-116 245.5,-174 383.5,-174 383.5,-116 245.5,-116"/>
<polygon fill="#f5f5f5" stroke="transparent" points="245.5,-152 245.5,-174 383.5,-174 383.5,-152 245.5,-152"/>
<polygon fill="none" stroke="black" points="245.5,-152 245.5,-174 383.5,-174 383.5,-152 245.5,-152"/>
<text text-anchor="start" x="250.5" y="-161.2" font-family="Helvetica,sans-Serif" font-weight="bold" font-size="11.00">unitsdatasettypes</text>
<text text-anchor="start" x="348.5" y="-160.2" font-family="Helvetica,sans-Serif" font-size="11.00">[table]</text>
<polygon fill="none" stroke="black" points="245.5,-134 245.5,-152 383.5,-152 383.5,-134 245.5,-134"/>
<text text-anchor="start" x="248.5" y="-140.2" font-family="Helvetica,sans-Serif" font-size="11.00">...</text>
<polygon fill="#ffffff" stroke="transparent" points="245.5,-116 245.5,-134 293.5,-134 293.5,-116 245.5,-116"/>
<polygon fill="none" stroke="black" points="245.5,-116 245.5,-134 293.5,-134 293.5,-116 245.5,-116"/>
<text text-anchor="start" x="248.5" y="-122.2" font-family="Helvetica,sans-Serif" font-size="11.00">&lt; 2</text>
<polygon fill="#ffffff" stroke="transparent" points="293.5,-116 293.5,-134 357.5,-134 357.5,-116 293.5,-116"/>
<polygon fill="none" stroke="black" points="293.5,-116 293.5,-134 357.5,-134 357.5,-116 293.5,-116"/>
<text text-anchor="start" x="309.5" y="-122.2" font-family="Helvetica,sans-Serif" font-size="11.00">657 rows</text>
<polygon fill="#ffffff" stroke="transparent" points="357.5,-116 357.5,-134 383.5,-134 383.5,-116 357.5,-116"/>
<polygon fill="none" stroke="black" points="357.5,-116 357.5,-134 383.5,-134 383.5,-116 357.5,-116"/>
<text text-anchor="start" x="373.5" y="-122.2" font-family="Helvetica,sans-Serif" font-size="11.00"> &#160;</text>
</a>
</g>
</g>
<!-- unitsdatasettypes&#45;&gt;variableunits -->
<g id="edge6" class="edge">
<title>unitsdatasettypes:w&#45;&gt;variableunits:e</title>
<path fill="none" stroke="black" d="M230.1,-144.17C204.11,-148.81 196.4,-166.61 169,-185 150.1,-197.69 151.77,-217 129,-217"/>
<polygon fill="black" stroke="black" points="236.53,-143.65 244.79,-146.59 240.51,-143.32 244.5,-143 244.5,-143 244.5,-143 240.51,-143.32 244.21,-139.41 236.53,-143.65 236.53,-143.65"/>
<ellipse fill="none" stroke="black" cx="233.34" cy="-143.9" rx="3.2" ry="3.2"/>
</g>
<!-- variables -->
<g id="node7" class="node">
<title>variables</title>
<g id="a_node7"><a xlink:href="../../tables/variables.html" xlink:title="variables" target="_top">
<polygon fill="#ffffff" stroke="transparent" points="259.5,-37 259.5,-95 369.5,-95 369.5,-37 259.5,-37"/>
<polygon fill="#f5f5f5" stroke="transparent" points="259.5,-73 259.5,-95 369.5,-95 369.5,-73 259.5,-73"/>
<polygon fill="none" stroke="black" points="259.5,-73 259.5,-95 369.5,-95 369.5,-73 259.5,-73"/>
<text text-anchor="start" x="264.5" y="-82.2" font-family="Helvetica,sans-Serif" font-weight="bold" font-size="11.00">variables</text>
<text text-anchor="start" x="334.5" y="-81.2" font-family="Helvetica,sans-Serif" font-size="11.00">[table]</text>
<polygon fill="none" stroke="black" points="259.5,-55 259.5,-73 369.5,-73 369.5,-55 259.5,-55"/>
<text text-anchor="start" x="262.5" y="-61.2" font-family="Helvetica,sans-Serif" font-size="11.00">...</text>
<polygon fill="#ffffff" stroke="transparent" points="259.5,-37 259.5,-55 281.5,-55 281.5,-37 259.5,-37"/>
<polygon fill="none" stroke="black" points="259.5,-37 259.5,-55 281.5,-55 281.5,-37 259.5,-37"/>
<text text-anchor="start" x="262.5" y="-43.2" font-family="Helvetica,sans-Serif" font-size="11.00">&lt; 4</text>
<polygon fill="#ffffff" stroke="transparent" points="281.5,-37 281.5,-55 347.5,-55 347.5,-37 281.5,-37"/>
<polygon fill="none" stroke="black" points="281.5,-37 281.5,-55 347.5,-55 347.5,-37 281.5,-37"/>
<text text-anchor="start" x="284.5" y="-43.2" font-family="Helvetica,sans-Serif" font-size="11.00">55,155 rows</text>
<polygon fill="#ffffff" stroke="transparent" points="347.5,-37 347.5,-55 369.5,-55 369.5,-37 347.5,-37"/>
<polygon fill="none" stroke="black" points="347.5,-37 347.5,-55 369.5,-55 369.5,-37 347.5,-37"/>
<text text-anchor="start" x="350.5" y="-43.2" font-family="Helvetica,sans-Serif" font-size="11.00">6 &gt;</text>
</a>
</g>
</g>
<!-- variables&#45;&gt;variableunits -->
<g id="edge7" class="edge">
<title>variables:w&#45;&gt;variableunits:e</title>
<path fill="none" stroke="black" d="M243.69,-64.44C210.49,-66.64 195.01,-77.45 169,-106 133.68,-144.76 181.44,-217 129,-217"/>
<polygon fill="black" stroke="black" points="250.5,-64.24 258.61,-67.6 254.5,-64.12 258.5,-64 258.5,-64 258.5,-64 254.5,-64.12 258.39,-60.4 250.5,-64.24 250.5,-64.24"/>
<ellipse fill="none" stroke="black" cx="247.31" cy="-64.33" rx="3.2" ry="3.2"/>
</g>
</g>
</svg>
