<?xml version="1.0" encoding="UTF-8" standalone="no"?>
<!DOCTYPE svg PUBLIC "-//W3C//DTD SVG 1.1//EN"
 "http://www.w3.org/Graphics/SVG/1.1/DTD/svg11.dtd">
<!-- Generated by graphviz version 2.43.0 (0)
 -->
<!-- Title: twoDegreesRelationshipsDiagram Pages: 1 -->
<svg width="833pt" height="706pt"
 viewBox="0.00 0.00 833.00 706.00" xmlns="http://www.w3.org/2000/svg" xmlns:xlink="http://www.w3.org/1999/xlink">
<g id="graph0" class="graph" transform="scale(1 1) rotate(0) translate(4 702)">
<title>twoDegreesRelationshipsDiagram</title>
<polygon fill="#ffffff" stroke="transparent" points="-4,4 -4,-702 829,-702 829,4 -4,4"/>
<text text-anchor="middle" x="71.5" y="-7.2" font-family="Helvetica,sans-Serif" font-size="11.00">Generated by SchemaSpy</text>
<!-- accumulationrates -->
<g id="node1" class="node">
<title>accumulationrates</title>
<g id="a_node1"><a xlink:href="../../tables/accumulationrates.html" xlink:title="accumulationrates" target="_top">
<polygon fill="#ffffff" stroke="transparent" points="377,-513 377,-571 518,-571 518,-513 377,-513"/>
<polygon fill="#f5f5f5" stroke="transparent" points="377.5,-549 377.5,-571 518.5,-571 518.5,-549 377.5,-549"/>
<polygon fill="none" stroke="black" points="377.5,-549 377.5,-571 518.5,-571 518.5,-549 377.5,-549"/>
<text text-anchor="start" x="382.5" y="-558.2" font-family="Helvetica,sans-Serif" font-weight="bold" font-size="11.00">accumulationrates</text>
<text text-anchor="start" x="483.5" y="-557.2" font-family="Helvetica,sans-Serif" font-size="11.00">[table]</text>
<polygon fill="none" stroke="black" points="377.5,-531 377.5,-549 518.5,-549 518.5,-531 377.5,-531"/>
<text text-anchor="start" x="380.5" y="-537.2" font-family="Helvetica,sans-Serif" font-size="11.00">...</text>
<polygon fill="#ffffff" stroke="transparent" points="377.5,-513 377.5,-531 422.5,-531 422.5,-513 377.5,-513"/>
<polygon fill="none" stroke="black" points="377.5,-513 377.5,-531 422.5,-531 422.5,-513 377.5,-513"/>
<text text-anchor="start" x="380.5" y="-519.2" font-family="Helvetica,sans-Serif" font-size="11.00">&lt; 3</text>
<polygon fill="#ffffff" stroke="transparent" points="422.5,-513 422.5,-531 493.5,-531 493.5,-513 422.5,-513"/>
<polygon fill="none" stroke="black" points="422.5,-513 422.5,-531 493.5,-531 493.5,-513 422.5,-513"/>
<text text-anchor="start" x="436.5" y="-519.2" font-family="Helvetica,sans-Serif" font-size="11.00">1,089 rows</text>
<polygon fill="#ffffff" stroke="transparent" points="493.5,-513 493.5,-531 518.5,-531 518.5,-513 493.5,-513"/>
<polygon fill="none" stroke="black" points="493.5,-513 493.5,-531 518.5,-531 518.5,-513 493.5,-513"/>
<text text-anchor="start" x="508.5" y="-519.2" font-family="Helvetica,sans-Serif" font-size="11.00"> &#160;</text>
</a>
</g>
</g>
<!-- analysisunits -->
<g id="node2" class="node">
<title>analysisunits</title>
<g id="a_node2"><a xlink:href="../../tables/analysisunits.html" xlink:title="analysisunits" target="_top">
<polygon fill="#ffffff" stroke="transparent" points="179,-265 179,-389 307,-389 307,-265 179,-265"/>
<polygon fill="#f5f5f5" stroke="transparent" points="179,-367 179,-389 307,-389 307,-367 179,-367"/>
<polygon fill="none" stroke="black" points="179,-367 179,-389 307,-389 307,-367 179,-367"/>
<text text-anchor="start" x="184" y="-376.2" font-family="Helvetica,sans-Serif" font-weight="bold" font-size="11.00">analysisunits</text>
<text text-anchor="start" x="272" y="-375.2" font-family="Helvetica,sans-Serif" font-size="11.00">[table]</text>
<polygon fill="none" stroke="black" points="179,-345 179,-367 307,-367 307,-345 179,-345"/>
<image xlink:href="../../images/primaryKeys.png" width="11px" height="12px" preserveAspectRatio="xMinYMin meet" x="184" y="-362"/>
<text text-anchor="start" x="199" y="-353.2" font-family="Helvetica,sans-Serif" font-size="11.00">analysisunitid</text>
<polygon fill="#ffffff" stroke="transparent" points="179,-323 179,-345 307,-345 307,-323 179,-323"/>
<polygon fill="none" stroke="black" points="179,-323 179,-345 307,-345 307,-323 179,-323"/>
<image xlink:href="../../images/foreignKeys.png" width="11px" height="12px" preserveAspectRatio="xMinYMin meet" x="184" y="-340"/>
<text text-anchor="start" x="199" y="-331.2" font-family="Helvetica,sans-Serif" font-size="11.00">collectionunitid</text>
<polygon fill="#ffffff" stroke="transparent" points="179,-301 179,-323 307,-323 307,-301 179,-301"/>
<polygon fill="none" stroke="black" points="179,-301 179,-323 307,-323 307,-301 179,-301"/>
<image xlink:href="../../images/foreignKeys.png" width="11px" height="12px" preserveAspectRatio="xMinYMin meet" x="184" y="-318"/>
<text text-anchor="start" x="199" y="-309.2" font-family="Helvetica,sans-Serif" font-size="11.00">faciesid</text>
<polygon fill="none" stroke="black" points="179,-283 179,-301 307,-301 307,-283 179,-283"/>
<text text-anchor="start" x="182" y="-289.2" font-family="Helvetica,sans-Serif" font-size="11.00">...</text>
<polygon fill="#ffffff" stroke="transparent" points="179,-265 179,-283 207,-283 207,-265 179,-265"/>
<polygon fill="none" stroke="black" points="179,-265 179,-283 207,-283 207,-265 179,-265"/>
<text text-anchor="start" x="182" y="-271.2" font-family="Helvetica,sans-Serif" font-size="11.00">&lt; 2</text>
<polygon fill="#ffffff" stroke="transparent" points="207,-265 207,-283 282,-283 282,-265 207,-265"/>
<polygon fill="none" stroke="black" points="207,-265 207,-283 282,-283 282,-265 207,-265"/>
<text text-anchor="start" x="213" y="-271.2" font-family="Helvetica,sans-Serif" font-size="11.00">449,200 rows</text>
<polygon fill="#ffffff" stroke="transparent" points="282,-265 282,-283 307,-283 307,-265 282,-265"/>
<polygon fill="none" stroke="black" points="282,-265 282,-283 307,-283 307,-265 282,-265"/>
<text text-anchor="start" x="288" y="-271.2" font-family="Helvetica,sans-Serif" font-size="11.00">9 &gt;</text>
</a>
</g>
</g>
<!-- accumulationrates&#45;&gt;analysisunits -->
<g id="edge1" class="edge">
<title>accumulationrates:w&#45;&gt;analysisunits:e</title>
<path fill="none" stroke="black" d="M361.93,-537.81C302.1,-517.05 389.64,-356 308,-356"/>
<polygon fill="black" stroke="black" points="368.59,-538.81 375.96,-543.56 372.54,-539.4 376.5,-540 376.5,-540 376.5,-540 372.54,-539.4 377.04,-536.44 368.59,-538.81 368.59,-538.81"/>
<ellipse fill="none" stroke="black" cx="365.42" cy="-538.33" rx="3.2" ry="3.2"/>
</g>
<!-- variableunits -->
<g id="node3" class="node">
<title>variableunits</title>
<g id="a_node3"><a xlink:href="../../tables/variableunits.html" xlink:title="variableunits" target="_top">
<polygon fill="#ffffff" stroke="transparent" points="187,-562 187,-620 299,-620 299,-562 187,-562"/>
<polygon fill="#f5f5f5" stroke="transparent" points="187,-598 187,-620 299,-620 299,-598 187,-598"/>
<polygon fill="none" stroke="black" points="187,-598 187,-620 299,-620 299,-598 187,-598"/>
<text text-anchor="start" x="192" y="-607.2" font-family="Helvetica,sans-Serif" font-weight="bold" font-size="11.00">variableunits</text>
<text text-anchor="start" x="264" y="-606.2" font-family="Helvetica,sans-Serif" font-size="11.00">[table]</text>
<polygon fill="none" stroke="black" points="187,-580 187,-598 299,-598 299,-580 187,-580"/>
<text text-anchor="start" x="190" y="-586.2" font-family="Helvetica,sans-Serif" font-size="11.00">...</text>
<polygon fill="#ffffff" stroke="transparent" points="187,-562 187,-580 213,-580 213,-562 187,-562"/>
<polygon fill="none" stroke="black" points="187,-562 187,-580 213,-580 213,-562 187,-562"/>
<text text-anchor="start" x="190" y="-568.2" font-family="Helvetica,sans-Serif" font-size="11.00"> &#160;</text>
<polygon fill="#ffffff" stroke="transparent" points="213,-562 213,-580 270,-580 270,-562 213,-562"/>
<polygon fill="none" stroke="black" points="213,-562 213,-580 270,-580 270,-562 213,-562"/>
<text text-anchor="start" x="222" y="-568.2" font-family="Helvetica,sans-Serif" font-size="11.00">209 rows</text>
<polygon fill="#ffffff" stroke="transparent" points="270,-562 270,-580 299,-580 299,-562 270,-562"/>
<polygon fill="none" stroke="black" points="270,-562 270,-580 299,-580 299,-562 270,-562"/>
<text text-anchor="start" x="280" y="-568.2" font-family="Helvetica,sans-Serif" font-size="11.00">4 &gt;</text>
</a>
</g>
</g>
<!-- accumulationrates&#45;&gt;variableunits -->
<g id="edge2" class="edge">
<title>accumulationrates:w&#45;&gt;variableunits:e</title>
<path fill="none" stroke="black" d="M362.21,-542.5C336.45,-552.48 334.86,-589 300,-589"/>
<polygon fill="black" stroke="black" points="368.62,-541.38 377.12,-543.55 372.56,-540.69 376.5,-540 376.5,-540 376.5,-540 372.56,-540.69 375.88,-536.45 368.62,-541.38 368.62,-541.38"/>
<ellipse fill="none" stroke="black" cx="365.47" cy="-541.93" rx="3.2" ry="3.2"/>
</g>
<!-- collectionunits -->
<g id="node7" class="node">
<title>collectionunits</title>
<g id="a_node7"><a xlink:href="../../tables/collectionunits.html" xlink:title="collectionunits" target="_top">
<polygon fill="#ffffff" stroke="transparent" points="8,-336 8,-394 130,-394 130,-336 8,-336"/>
<polygon fill="#f5f5f5" stroke="transparent" points="8,-372 8,-394 130,-394 130,-372 8,-372"/>
<polygon fill="none" stroke="black" points="8,-372 8,-394 130,-394 130,-372 8,-372"/>
<text text-anchor="start" x="13" y="-381.2" font-family="Helvetica,sans-Serif" font-weight="bold" font-size="11.00">collectionunits</text>
<text text-anchor="start" x="95" y="-380.2" font-family="Helvetica,sans-Serif" font-size="11.00">[table]</text>
<polygon fill="none" stroke="black" points="8,-354 8,-372 130,-372 130,-354 8,-354"/>
<text text-anchor="start" x="11" y="-360.2" font-family="Helvetica,sans-Serif" font-size="11.00">...</text>
<polygon fill="#ffffff" stroke="transparent" points="8,-336 8,-354 36,-354 36,-336 8,-336"/>
<polygon fill="none" stroke="black" points="8,-336 8,-354 36,-354 36,-336 8,-336"/>
<text text-anchor="start" x="11" y="-342.2" font-family="Helvetica,sans-Serif" font-size="11.00">&lt; 4</text>
<polygon fill="#ffffff" stroke="transparent" points="36,-336 36,-354 105,-354 105,-336 36,-336"/>
<polygon fill="none" stroke="black" points="36,-336 36,-354 105,-354 105,-336 36,-336"/>
<text text-anchor="start" x="42" y="-342.2" font-family="Helvetica,sans-Serif" font-size="11.00">32,827 rows</text>
<polygon fill="#ffffff" stroke="transparent" points="105,-336 105,-354 130,-354 130,-336 105,-336"/>
<polygon fill="none" stroke="black" points="105,-336 105,-354 130,-354 130,-336 105,-336"/>
<text text-anchor="start" x="111" y="-342.2" font-family="Helvetica,sans-Serif" font-size="11.00">5 &gt;</text>
</a>
</g>
</g>
<!-- analysisunits&#45;&gt;collectionunits -->
<g id="edge7" class="edge">
<title>analysisunits:w&#45;&gt;collectionunits:e</title>
<path fill="none" stroke="black" d="M164.1,-338.28C152.91,-346.35 149.6,-363 131,-363"/>
<polygon fill="black" stroke="black" points="170.35,-336.35 179.06,-337.44 174.18,-335.18 178,-334 178,-334 178,-334 174.18,-335.18 176.94,-330.56 170.35,-336.35 170.35,-336.35"/>
<ellipse fill="none" stroke="black" cx="167.3" cy="-337.29" rx="3.2" ry="3.2"/>
</g>
<!-- faciestypes -->
<g id="node8" class="node">
<title>faciestypes</title>
<g id="a_node8"><a xlink:href="../../tables/faciestypes.html" xlink:title="faciestypes" target="_top">
<polygon fill="#ffffff" stroke="transparent" points="17,-257 17,-315 121,-315 121,-257 17,-257"/>
<polygon fill="#f5f5f5" stroke="transparent" points="17,-293 17,-315 121,-315 121,-293 17,-293"/>
<polygon fill="none" stroke="black" points="17,-293 17,-315 121,-315 121,-293 17,-293"/>
<text text-anchor="start" x="22" y="-302.2" font-family="Helvetica,sans-Serif" font-weight="bold" font-size="11.00">faciestypes</text>
<text text-anchor="start" x="86" y="-301.2" font-family="Helvetica,sans-Serif" font-size="11.00">[table]</text>
<polygon fill="none" stroke="black" points="17,-275 17,-293 121,-293 121,-275 17,-275"/>
<text text-anchor="start" x="20" y="-281.2" font-family="Helvetica,sans-Serif" font-size="11.00">...</text>
<polygon fill="#ffffff" stroke="transparent" points="17,-257 17,-275 39,-275 39,-257 17,-257"/>
<polygon fill="none" stroke="black" points="17,-257 17,-275 39,-275 39,-257 17,-257"/>
<text text-anchor="start" x="20" y="-263.2" font-family="Helvetica,sans-Serif" font-size="11.00"> &#160;</text>
<polygon fill="#ffffff" stroke="transparent" points="39,-257 39,-275 94,-275 94,-257 39,-257"/>
<polygon fill="none" stroke="black" points="39,-257 39,-275 94,-275 94,-257 39,-257"/>
<text text-anchor="start" x="46" y="-263.2" font-family="Helvetica,sans-Serif" font-size="11.00">103 rows</text>
<polygon fill="#ffffff" stroke="transparent" points="94,-257 94,-275 121,-275 121,-257 94,-257"/>
<polygon fill="none" stroke="black" points="94,-257 94,-275 121,-275 121,-257 94,-257"/>
<text text-anchor="start" x="102" y="-263.2" font-family="Helvetica,sans-Serif" font-size="11.00">1 &gt;</text>
</a>
</g>
</g>
<!-- analysisunits&#45;&gt;faciestypes -->
<g id="edge8" class="edge">
<title>analysisunits:w&#45;&gt;faciestypes:e</title>
<path fill="none" stroke="black" d="M163.54,-308.79C148.8,-301.43 143.96,-284 122,-284"/>
<polygon fill="black" stroke="black" points="170.19,-310.26 177.22,-315.51 174.1,-311.13 178,-312 178,-312 178,-312 174.1,-311.13 178.78,-308.49 170.19,-310.26 170.19,-310.26"/>
<ellipse fill="none" stroke="black" cx="167.07" cy="-309.57" rx="3.2" ry="3.2"/>
</g>
<!-- analysisunitaltdepths -->
<g id="node4" class="node">
<title>analysisunitaltdepths</title>
<g id="a_node4"><a xlink:href="../../tables/analysisunitaltdepths.html" xlink:title="analysisunitaltdepths" target="_top">
<polygon fill="#ffffff" stroke="transparent" points="588,-535 588,-689 817,-689 817,-535 588,-535"/>
<polygon fill="#f5f5f5" stroke="transparent" points="590.5,-665 590.5,-687 815.5,-687 815.5,-665 590.5,-665"/>
<polygon fill="none" stroke="black" points="590.5,-665 590.5,-687 815.5,-687 815.5,-665 590.5,-665"/>
<text text-anchor="start" x="595.5" y="-674.2" font-family="Helvetica,sans-Serif" font-weight="bold" font-size="11.00">analysisunitaltdepths</text>
<text text-anchor="start" x="780.5" y="-673.2" font-family="Helvetica,sans-Serif" font-size="11.00">[table]</text>
<polygon fill="none" stroke="black" points="590.5,-643 590.5,-665 741.5,-665 741.5,-643 590.5,-643"/>
<image xlink:href="../../images/primaryKeys.png" width="11px" height="12px" preserveAspectRatio="xMinYMin meet" x="595.5" y="-660"/>
<text text-anchor="start" x="610.5" y="-651.2" font-family="Helvetica,sans-Serif" font-size="11.00">analysisunitid</text>
<polygon fill="none" stroke="black" points="741.5,-643 741.5,-665 815.5,-665 815.5,-643 741.5,-643"/>
<text text-anchor="start" x="744.5" y="-651.2" font-family="Helvetica,sans-Serif" font-size="11.00">int4[10]</text>
<polygon fill="none" stroke="black" points="590.5,-621 590.5,-643 741.5,-643 741.5,-621 590.5,-621"/>
<image xlink:href="../../images/primaryKeys.png" width="11px" height="12px" preserveAspectRatio="xMinYMin meet" x="595.5" y="-638"/>
<text text-anchor="start" x="610.5" y="-629.2" font-family="Helvetica,sans-Serif" font-size="11.00">altdepthscaleid</text>
<polygon fill="none" stroke="black" points="741.5,-621 741.5,-643 815.5,-643 815.5,-621 741.5,-621"/>
<text text-anchor="start" x="744.5" y="-629.2" font-family="Helvetica,sans-Serif" font-size="11.00">int4[10]</text>
<polygon fill="none" stroke="black" points="590.5,-599 590.5,-621 741.5,-621 741.5,-599 590.5,-599"/>
<text text-anchor="start" x="610.5" y="-607.2" font-family="Helvetica,sans-Serif" font-size="11.00">altdepth</text>
<polygon fill="none" stroke="black" points="741.5,-599 741.5,-621 815.5,-621 815.5,-599 741.5,-599"/>
<text text-anchor="start" x="744.5" y="-607.2" font-family="Helvetica,sans-Serif" font-size="11.00">float8[17,17]</text>
<polygon fill="none" stroke="black" points="590.5,-577 590.5,-599 741.5,-599 741.5,-577 590.5,-577"/>
<text text-anchor="start" x="610.5" y="-585.2" font-family="Helvetica,sans-Serif" font-size="11.00">recdatecreated</text>
<polygon fill="none" stroke="black" points="741.5,-577 741.5,-599 815.5,-599 815.5,-577 741.5,-577"/>
<text text-anchor="start" x="744.5" y="-585.2" font-family="Helvetica,sans-Serif" font-size="11.00">timestamp[22]</text>
<polygon fill="none" stroke="black" points="590.5,-555 590.5,-577 741.5,-577 741.5,-555 590.5,-555"/>
<text text-anchor="start" x="610.5" y="-563.2" font-family="Helvetica,sans-Serif" font-size="11.00">recdatemodified</text>
<polygon fill="none" stroke="black" points="741.5,-555 741.5,-577 815.5,-577 815.5,-555 741.5,-555"/>
<text text-anchor="start" x="744.5" y="-563.2" font-family="Helvetica,sans-Serif" font-size="11.00">timestamp[22]</text>
<polygon fill="#ffffff" stroke="transparent" points="590.5,-537 590.5,-555 646.5,-555 646.5,-537 590.5,-537"/>
<polygon fill="none" stroke="black" points="590.5,-537 590.5,-555 646.5,-555 646.5,-537 590.5,-537"/>
<text text-anchor="start" x="593.5" y="-543.2" font-family="Helvetica,sans-Serif" font-size="11.00">&lt; 2</text>
<polygon fill="#ffffff" stroke="transparent" points="646.5,-537 646.5,-555 741.5,-555 741.5,-537 646.5,-537"/>
<polygon fill="none" stroke="black" points="646.5,-537 646.5,-555 741.5,-555 741.5,-537 646.5,-537"/>
<text text-anchor="start" x="684.5" y="-543.2" font-family="Helvetica,sans-Serif" font-size="11.00">7,395 rows</text>
<polygon fill="#ffffff" stroke="transparent" points="741.5,-537 741.5,-555 815.5,-555 815.5,-537 741.5,-537"/>
<polygon fill="none" stroke="black" points="741.5,-537 741.5,-555 815.5,-555 815.5,-537 741.5,-537"/>
<text text-anchor="start" x="796.5" y="-543.2" font-family="Helvetica,sans-Serif" font-size="11.00">0 &gt;</text>
<polygon fill="none" stroke="black" stroke-width="2" points="589,-536 589,-688 816,-688 816,-536 589,-536"/>
</a>
</g>
</g>
<!-- analysisunitaltdepths&#45;&gt;analysisunits -->
<g id="edge4" class="edge">
<title>analysisunitaltdepths:w&#45;&gt;analysisunits:e</title>
<path fill="none" stroke="black" d="M575.19,-651.99C531.83,-637.3 594.36,-546.05 547,-503 480.49,-442.55 416.63,-525.04 348,-467 307.96,-433.14 360.44,-356 308,-356"/>
<polygon fill="black" stroke="black" points="581.58,-652.89 589,-657.56 585.54,-653.44 589.5,-654 589.5,-654 589.5,-654 585.54,-653.44 590,-650.44 581.58,-652.89 581.58,-652.89"/>
<ellipse fill="none" stroke="black" cx="578.41" cy="-652.44" rx="3.2" ry="3.2"/>
</g>
<!-- analysisunitaltdepthscales -->
<g id="node5" class="node">
<title>analysisunitaltdepthscales</title>
<g id="a_node5"><a xlink:href="../../tables/analysisunitaltdepthscales.html" xlink:title="analysisunitaltdepthscales" target="_top">
<polygon fill="#ffffff" stroke="transparent" points="356,-592 356,-694 539,-694 539,-592 356,-592"/>
<polygon fill="#f5f5f5" stroke="transparent" points="356.5,-672 356.5,-694 539.5,-694 539.5,-672 356.5,-672"/>
<polygon fill="none" stroke="black" points="356.5,-672 356.5,-694 539.5,-694 539.5,-672 356.5,-672"/>
<text text-anchor="start" x="361.5" y="-681.2" font-family="Helvetica,sans-Serif" font-weight="bold" font-size="11.00">analysisunitaltdepthscales</text>
<text text-anchor="start" x="504.5" y="-680.2" font-family="Helvetica,sans-Serif" font-size="11.00">[table]</text>
<polygon fill="none" stroke="black" points="356.5,-650 356.5,-672 539.5,-672 539.5,-650 356.5,-650"/>
<image xlink:href="../../images/primaryKeys.png" width="11px" height="12px" preserveAspectRatio="xMinYMin meet" x="361.5" y="-667"/>
<text text-anchor="start" x="377.5" y="-658.2" font-family="Helvetica,sans-Serif" font-size="11.00">altdepthscaleid</text>
<polygon fill="none" stroke="black" points="356.5,-628 356.5,-650 539.5,-650 539.5,-628 356.5,-628"/>
<image xlink:href="../../images/foreignKeys.png" width="11px" height="12px" preserveAspectRatio="xMinYMin meet" x="361.5" y="-645"/>
<text text-anchor="start" x="377.5" y="-636.2" font-family="Helvetica,sans-Serif" font-size="11.00">variableunitsid</text>
<polygon fill="none" stroke="black" points="356.5,-610 356.5,-628 539.5,-628 539.5,-610 356.5,-610"/>
<text text-anchor="start" x="359.5" y="-616.2" font-family="Helvetica,sans-Serif" font-size="11.00">...</text>
<polygon fill="#ffffff" stroke="transparent" points="356.5,-592 356.5,-610 425.5,-610 425.5,-592 356.5,-592"/>
<polygon fill="none" stroke="black" points="356.5,-592 356.5,-610 425.5,-610 425.5,-592 356.5,-592"/>
<text text-anchor="start" x="359.5" y="-598.2" font-family="Helvetica,sans-Serif" font-size="11.00">&lt; 1</text>
<polygon fill="#ffffff" stroke="transparent" points="425.5,-592 425.5,-610 493.5,-610 493.5,-592 425.5,-592"/>
<polygon fill="none" stroke="black" points="425.5,-592 425.5,-610 493.5,-610 493.5,-592 425.5,-592"/>
<text text-anchor="start" x="451.5" y="-598.2" font-family="Helvetica,sans-Serif" font-size="11.00">55 rows</text>
<polygon fill="#ffffff" stroke="transparent" points="493.5,-592 493.5,-610 539.5,-610 539.5,-592 493.5,-592"/>
<polygon fill="none" stroke="black" points="493.5,-592 493.5,-610 539.5,-610 539.5,-592 493.5,-592"/>
<text text-anchor="start" x="520.5" y="-598.2" font-family="Helvetica,sans-Serif" font-size="11.00">1 &gt;</text>
</a>
</g>
</g>
<!-- analysisunitaltdepths&#45;&gt;analysisunitaltdepthscales -->
<g id="edge3" class="edge">
<title>analysisunitaltdepths:w&#45;&gt;analysisunitaltdepthscales:e</title>
<path fill="none" stroke="black" d="M575.45,-636.03C563.47,-644 559.87,-661 540.5,-661"/>
<polygon fill="black" stroke="black" points="581.81,-634.21 590.49,-635.46 585.66,-633.1 589.5,-632 589.5,-632 589.5,-632 585.66,-633.1 588.51,-628.54 581.81,-634.21 581.81,-634.21"/>
<ellipse fill="none" stroke="black" cx="578.73" cy="-635.09" rx="3.2" ry="3.2"/>
</g>
<!-- analysisunitaltdepthscales&#45;&gt;variableunits -->
<g id="edge5" class="edge">
<title>analysisunitaltdepthscales:w&#45;&gt;variableunits:e</title>
<path fill="none" stroke="black" d="M341.36,-634.74C324.79,-622.65 327.23,-589 300,-589"/>
<polygon fill="black" stroke="black" points="347.84,-636.69 354.46,-642.45 351.67,-637.85 355.5,-639 355.5,-639 355.5,-639 351.67,-637.85 356.54,-635.55 347.84,-636.69 347.84,-636.69"/>
<ellipse fill="none" stroke="black" cx="344.78" cy="-635.77" rx="3.2" ry="3.2"/>
</g>
<!-- analysisunitlithostrat -->
<g id="node6" class="node">
<title>analysisunitlithostrat</title>
<g id="a_node6"><a xlink:href="../../tables/analysisunitlithostrat.html" xlink:title="analysisunitlithostrat" target="_top">
<polygon fill="#ffffff" stroke="transparent" points="370,-37 370,-95 525,-95 525,-37 370,-37"/>
<polygon fill="#f5f5f5" stroke="transparent" points="370.5,-73 370.5,-95 525.5,-95 525.5,-73 370.5,-73"/>
<polygon fill="none" stroke="black" points="370.5,-73 370.5,-95 525.5,-95 525.5,-73 370.5,-73"/>
<text text-anchor="start" x="375.5" y="-82.2" font-family="Helvetica,sans-Serif" font-weight="bold" font-size="11.00">analysisunitlithostrat</text>
<text text-anchor="start" x="490.5" y="-81.2" font-family="Helvetica,sans-Serif" font-size="11.00">[table]</text>
<polygon fill="none" stroke="black" points="370.5,-55 370.5,-73 525.5,-73 525.5,-55 370.5,-55"/>
<text text-anchor="start" x="373.5" y="-61.2" font-family="Helvetica,sans-Serif" font-size="11.00">...</text>
<polygon fill="#ffffff" stroke="transparent" points="370.5,-37 370.5,-55 432.5,-55 432.5,-37 370.5,-37"/>
<polygon fill="none" stroke="black" points="370.5,-37 370.5,-55 432.5,-55 432.5,-37 370.5,-37"/>
<text text-anchor="start" x="373.5" y="-43.2" font-family="Helvetica,sans-Serif" font-size="11.00">&lt; 2</text>
<polygon fill="#ffffff" stroke="transparent" points="432.5,-37 432.5,-55 491.5,-55 491.5,-37 432.5,-37"/>
<polygon fill="none" stroke="black" points="432.5,-37 432.5,-55 491.5,-55 491.5,-37 432.5,-37"/>
<text text-anchor="start" x="455.5" y="-43.2" font-family="Helvetica,sans-Serif" font-size="11.00">0 rows</text>
<polygon fill="#ffffff" stroke="transparent" points="491.5,-37 491.5,-55 525.5,-55 525.5,-37 491.5,-37"/>
<polygon fill="none" stroke="black" points="491.5,-37 491.5,-55 525.5,-55 525.5,-37 491.5,-37"/>
<text text-anchor="start" x="515.5" y="-43.2" font-family="Helvetica,sans-Serif" font-size="11.00"> &#160;</text>
</a>
</g>
</g>
<!-- analysisunitlithostrat&#45;&gt;analysisunits -->
<g id="edge6" class="edge">
<title>analysisunitlithostrat:w&#45;&gt;analysisunits:e</title>
<path fill="none" stroke="black" d="M356.07,-69.32C313.7,-108.89 369,-356 308,-356"/>
<polygon fill="black" stroke="black" points="362.06,-66.95 370.83,-67.35 365.78,-65.47 369.5,-64 369.5,-64 369.5,-64 365.78,-65.47 368.17,-60.65 362.06,-66.95 362.06,-66.95"/>
<ellipse fill="none" stroke="black" cx="359.09" cy="-68.12" rx="3.2" ry="3.2"/>
</g>
<!-- chroncontrols -->
<g id="node9" class="node">
<title>chroncontrols</title>
<g id="a_node9"><a xlink:href="../../tables/chroncontrols.html" xlink:title="chroncontrols" target="_top">
<polygon fill="#ffffff" stroke="transparent" points="388,-380 388,-438 507,-438 507,-380 388,-380"/>
<polygon fill="#f5f5f5" stroke="transparent" points="388.5,-416 388.5,-438 507.5,-438 507.5,-416 388.5,-416"/>
<polygon fill="none" stroke="black" points="388.5,-416 388.5,-438 507.5,-438 507.5,-416 388.5,-416"/>
<text text-anchor="start" x="393.5" y="-425.2" font-family="Helvetica,sans-Serif" font-weight="bold" font-size="11.00">chroncontrols</text>
<text text-anchor="start" x="472.5" y="-424.2" font-family="Helvetica,sans-Serif" font-size="11.00">[table]</text>
<polygon fill="none" stroke="black" points="388.5,-398 388.5,-416 507.5,-416 507.5,-398 388.5,-398"/>
<text text-anchor="start" x="391.5" y="-404.2" font-family="Helvetica,sans-Serif" font-size="11.00">...</text>
<polygon fill="#ffffff" stroke="transparent" points="388.5,-380 388.5,-398 411.5,-398 411.5,-380 388.5,-380"/>
<polygon fill="none" stroke="black" points="388.5,-380 388.5,-398 411.5,-398 411.5,-380 388.5,-380"/>
<text text-anchor="start" x="391.5" y="-386.2" font-family="Helvetica,sans-Serif" font-size="11.00">&lt; 4</text>
<polygon fill="#ffffff" stroke="transparent" points="411.5,-380 411.5,-398 484.5,-398 484.5,-380 411.5,-380"/>
<polygon fill="none" stroke="black" points="411.5,-380 411.5,-398 484.5,-398 484.5,-380 411.5,-380"/>
<text text-anchor="start" x="415.5" y="-386.2" font-family="Helvetica,sans-Serif" font-size="11.00">100,724 rows</text>
<polygon fill="#ffffff" stroke="transparent" points="484.5,-380 484.5,-398 507.5,-398 507.5,-380 484.5,-380"/>
<polygon fill="none" stroke="black" points="484.5,-380 484.5,-398 507.5,-398 507.5,-380 484.5,-380"/>
<text text-anchor="start" x="488.5" y="-386.2" font-family="Helvetica,sans-Serif" font-size="11.00">5 &gt;</text>
</a>
</g>
</g>
<!-- chroncontrols&#45;&gt;analysisunits -->
<g id="edge9" class="edge">
<title>chroncontrols:w&#45;&gt;analysisunits:e</title>
<path fill="none" stroke="black" d="M373.01,-404.54C345.89,-394.35 344.4,-356 308,-356"/>
<polygon fill="black" stroke="black" points="379.61,-405.66 386.9,-410.55 383.56,-406.33 387.5,-407 387.5,-407 387.5,-407 383.56,-406.33 388.1,-403.45 379.61,-405.66 379.61,-405.66"/>
<ellipse fill="none" stroke="black" cx="376.46" cy="-405.12" rx="3.2" ry="3.2"/>
</g>
<!-- depagents -->
<g id="node10" class="node">
<title>depagents</title>
<g id="a_node10"><a xlink:href="../../tables/depagents.html" xlink:title="depagents" target="_top">
<polygon fill="#ffffff" stroke="transparent" points="398,-274 398,-332 497,-332 497,-274 398,-274"/>
<polygon fill="#f5f5f5" stroke="transparent" points="398.5,-310 398.5,-332 497.5,-332 497.5,-310 398.5,-310"/>
<polygon fill="none" stroke="black" points="398.5,-310 398.5,-332 497.5,-332 497.5,-310 398.5,-310"/>
<text text-anchor="start" x="403.5" y="-319.2" font-family="Helvetica,sans-Serif" font-weight="bold" font-size="11.00">depagents</text>
<text text-anchor="start" x="462.5" y="-318.2" font-family="Helvetica,sans-Serif" font-size="11.00">[table]</text>
<polygon fill="none" stroke="black" points="398.5,-292 398.5,-310 497.5,-310 497.5,-292 398.5,-292"/>
<text text-anchor="start" x="401.5" y="-298.2" font-family="Helvetica,sans-Serif" font-size="11.00">...</text>
<polygon fill="#ffffff" stroke="transparent" points="398.5,-274 398.5,-292 422.5,-292 422.5,-274 398.5,-274"/>
<polygon fill="none" stroke="black" points="398.5,-274 398.5,-292 422.5,-292 422.5,-274 398.5,-274"/>
<text text-anchor="start" x="401.5" y="-280.2" font-family="Helvetica,sans-Serif" font-size="11.00">&lt; 2</text>
<polygon fill="#ffffff" stroke="transparent" points="422.5,-274 422.5,-292 483.5,-292 483.5,-274 422.5,-274"/>
<polygon fill="none" stroke="black" points="422.5,-274 422.5,-292 483.5,-292 483.5,-274 422.5,-274"/>
<text text-anchor="start" x="426.5" y="-280.2" font-family="Helvetica,sans-Serif" font-size="11.00">5,273 rows</text>
<polygon fill="#ffffff" stroke="transparent" points="483.5,-274 483.5,-292 497.5,-292 497.5,-274 483.5,-274"/>
<polygon fill="none" stroke="black" points="483.5,-274 483.5,-292 497.5,-292 497.5,-274 483.5,-274"/>
<text text-anchor="start" x="487.5" y="-280.2" font-family="Helvetica,sans-Serif" font-size="11.00"> &#160;</text>
</a>
</g>
</g>
<!-- depagents&#45;&gt;analysisunits -->
<g id="edge10" class="edge">
<title>depagents:w&#45;&gt;analysisunits:e</title>
<path fill="none" stroke="black" d="M383.01,-303.09C351.03,-313.14 349.22,-356 308,-356"/>
<polygon fill="black" stroke="black" points="389.58,-302.14 398.01,-304.56 393.54,-301.57 397.5,-301 397.5,-301 397.5,-301 393.54,-301.57 396.99,-297.44 389.58,-302.14 389.58,-302.14"/>
<ellipse fill="none" stroke="black" cx="386.41" cy="-302.6" rx="3.2" ry="3.2"/>
</g>
<!-- eventchronology -->
<g id="node11" class="node">
<title>eventchronology</title>
<g id="a_node11"><a xlink:href="../../tables/eventchronology.html" xlink:title="eventchronology" target="_top">
<polygon fill="#ffffff" stroke="transparent" points="636,-428 636,-486 769,-486 769,-428 636,-428"/>
<polygon fill="#f5f5f5" stroke="transparent" points="636.5,-464 636.5,-486 769.5,-486 769.5,-464 636.5,-464"/>
<polygon fill="none" stroke="black" points="636.5,-464 636.5,-486 769.5,-486 769.5,-464 636.5,-464"/>
<text text-anchor="start" x="641.5" y="-473.2" font-family="Helvetica,sans-Serif" font-weight="bold" font-size="11.00">eventchronology</text>
<text text-anchor="start" x="734.5" y="-472.2" font-family="Helvetica,sans-Serif" font-size="11.00">[table]</text>
<polygon fill="none" stroke="black" points="636.5,-446 636.5,-464 769.5,-464 769.5,-446 636.5,-446"/>
<text text-anchor="start" x="639.5" y="-452.2" font-family="Helvetica,sans-Serif" font-size="11.00">...</text>
<polygon fill="#ffffff" stroke="transparent" points="636.5,-428 636.5,-446 681.5,-446 681.5,-428 636.5,-428"/>
<polygon fill="none" stroke="black" points="636.5,-428 636.5,-446 681.5,-446 681.5,-428 636.5,-428"/>
<text text-anchor="start" x="639.5" y="-434.2" font-family="Helvetica,sans-Serif" font-size="11.00">&lt; 3</text>
<polygon fill="#ffffff" stroke="transparent" points="681.5,-428 681.5,-446 744.5,-446 744.5,-428 681.5,-428"/>
<polygon fill="none" stroke="black" points="681.5,-428 681.5,-446 744.5,-446 744.5,-428 681.5,-428"/>
<text text-anchor="start" x="696.5" y="-434.2" font-family="Helvetica,sans-Serif" font-size="11.00">271 rows</text>
<polygon fill="#ffffff" stroke="transparent" points="744.5,-428 744.5,-446 769.5,-446 769.5,-428 744.5,-428"/>
<polygon fill="none" stroke="black" points="744.5,-428 744.5,-446 769.5,-446 769.5,-428 744.5,-428"/>
<text text-anchor="start" x="759.5" y="-434.2" font-family="Helvetica,sans-Serif" font-size="11.00"> &#160;</text>
</a>
</g>
</g>
<!-- eventchronology&#45;&gt;analysisunits -->
<g id="edge11" class="edge">
<title>eventchronology:w&#45;&gt;analysisunits:e</title>
<path fill="none" stroke="black" d="M620.97,-455.39C548.82,-458.75 397.38,-482.26 348,-449 310.68,-423.86 352.99,-356 308,-356"/>
<polygon fill="black" stroke="black" points="627.5,-455.21 635.6,-458.6 631.5,-455.11 635.5,-455 635.5,-455 635.5,-455 631.5,-455.11 635.4,-451.4 627.5,-455.21 627.5,-455.21"/>
<ellipse fill="none" stroke="black" cx="624.3" cy="-455.3" rx="3.2" ry="3.2"/>
</g>
<!-- eventchronology&#45;&gt;chroncontrols -->
<g id="edge12" class="edge">
<title>eventchronology:w&#45;&gt;chroncontrols:e</title>
<path fill="none" stroke="black" d="M621.07,-454C573.67,-447.1 563.66,-407 508.5,-407"/>
<polygon fill="black" stroke="black" points="627.52,-454.45 635.25,-458.59 631.51,-454.72 635.5,-455 635.5,-455 635.5,-455 631.51,-454.72 635.75,-451.41 627.52,-454.45 627.52,-454.45"/>
<ellipse fill="none" stroke="black" cx="624.33" cy="-454.22" rx="3.2" ry="3.2"/>
</g>
<!-- relativechronology -->
<g id="node12" class="node">
<title>relativechronology</title>
<g id="a_node12"><a xlink:href="../../tables/relativechronology.html" xlink:title="relativechronology" target="_top">
<polygon fill="#ffffff" stroke="transparent" points="631,-342 631,-400 774,-400 774,-342 631,-342"/>
<polygon fill="#f5f5f5" stroke="transparent" points="631.5,-378 631.5,-400 774.5,-400 774.5,-378 631.5,-378"/>
<polygon fill="none" stroke="black" points="631.5,-378 631.5,-400 774.5,-400 774.5,-378 631.5,-378"/>
<text text-anchor="start" x="636.5" y="-387.2" font-family="Helvetica,sans-Serif" font-weight="bold" font-size="11.00">relativechronology</text>
<text text-anchor="start" x="739.5" y="-386.2" font-family="Helvetica,sans-Serif" font-size="11.00">[table]</text>
<polygon fill="none" stroke="black" points="631.5,-360 631.5,-378 774.5,-378 774.5,-360 631.5,-360"/>
<text text-anchor="start" x="634.5" y="-366.2" font-family="Helvetica,sans-Serif" font-size="11.00">...</text>
<polygon fill="#ffffff" stroke="transparent" points="631.5,-342 631.5,-360 677.5,-360 677.5,-342 631.5,-342"/>
<polygon fill="none" stroke="black" points="631.5,-342 631.5,-360 677.5,-360 677.5,-342 631.5,-342"/>
<text text-anchor="start" x="634.5" y="-348.2" font-family="Helvetica,sans-Serif" font-size="11.00">&lt; 3</text>
<polygon fill="#ffffff" stroke="transparent" points="677.5,-342 677.5,-360 749.5,-360 749.5,-342 677.5,-342"/>
<polygon fill="none" stroke="black" points="677.5,-342 677.5,-360 749.5,-360 749.5,-342 677.5,-342"/>
<text text-anchor="start" x="692.5" y="-348.2" font-family="Helvetica,sans-Serif" font-size="11.00">4,625 rows</text>
<polygon fill="#ffffff" stroke="transparent" points="749.5,-342 749.5,-360 774.5,-360 774.5,-342 749.5,-342"/>
<polygon fill="none" stroke="black" points="749.5,-342 749.5,-360 774.5,-360 774.5,-342 749.5,-342"/>
<text text-anchor="start" x="764.5" y="-348.2" font-family="Helvetica,sans-Serif" font-size="11.00"> &#160;</text>
</a>
</g>
</g>
<!-- relativechronology&#45;&gt;analysisunits -->
<g id="edge13" class="edge">
<title>relativechronology:w&#45;&gt;analysisunits:e</title>
<path fill="none" stroke="black" d="M615.76,-368.95C484.41,-368.1 446.41,-356 308,-356"/>
<polygon fill="black" stroke="black" points="622.5,-368.97 630.49,-372.6 626.5,-368.99 630.5,-369 630.5,-369 630.5,-369 626.5,-368.99 630.51,-365.4 622.5,-368.97 622.5,-368.97"/>
<ellipse fill="none" stroke="black" cx="619.3" cy="-368.96" rx="3.2" ry="3.2"/>
</g>
<!-- relativechronology&#45;&gt;chroncontrols -->
<g id="edge14" class="edge">
<title>relativechronology:w&#45;&gt;chroncontrols:e</title>
<path fill="none" stroke="black" d="M616.01,-369.9C571.76,-375.66 560.08,-407 508.5,-407"/>
<polygon fill="black" stroke="black" points="622.52,-369.5 630.72,-372.59 626.51,-369.25 630.5,-369 630.5,-369 630.5,-369 626.51,-369.25 630.28,-365.41 622.52,-369.5 622.52,-369.5"/>
<ellipse fill="none" stroke="black" cx="619.32" cy="-369.7" rx="3.2" ry="3.2"/>
</g>
<!-- samples -->
<g id="node13" class="node">
<title>samples</title>
<g id="a_node13"><a xlink:href="../../tables/samples.html" xlink:title="samples" target="_top">
<polygon fill="#ffffff" stroke="transparent" points="389.5,-195 389.5,-253 505.5,-253 505.5,-195 389.5,-195"/>
<polygon fill="#f5f5f5" stroke="transparent" points="389.5,-231 389.5,-253 505.5,-253 505.5,-231 389.5,-231"/>
<polygon fill="none" stroke="black" points="389.5,-231 389.5,-253 505.5,-253 505.5,-231 389.5,-231"/>
<text text-anchor="start" x="394.5" y="-240.2" font-family="Helvetica,sans-Serif" font-weight="bold" font-size="11.00">samples</text>
<text text-anchor="start" x="470.5" y="-239.2" font-family="Helvetica,sans-Serif" font-size="11.00">[table]</text>
<polygon fill="none" stroke="black" points="389.5,-213 389.5,-231 505.5,-231 505.5,-213 389.5,-213"/>
<text text-anchor="start" x="392.5" y="-219.2" font-family="Helvetica,sans-Serif" font-size="11.00">...</text>
<polygon fill="#ffffff" stroke="transparent" points="389.5,-195 389.5,-213 411.5,-213 411.5,-195 389.5,-195"/>
<polygon fill="none" stroke="black" points="389.5,-195 389.5,-213 411.5,-213 411.5,-195 389.5,-195"/>
<text text-anchor="start" x="392.5" y="-201.2" font-family="Helvetica,sans-Serif" font-size="11.00">&lt; 3</text>
<polygon fill="#ffffff" stroke="transparent" points="411.5,-195 411.5,-213 483.5,-213 483.5,-195 411.5,-195"/>
<polygon fill="none" stroke="black" points="411.5,-195 411.5,-213 483.5,-213 483.5,-195 411.5,-195"/>
<text text-anchor="start" x="414.5" y="-201.2" font-family="Helvetica,sans-Serif" font-size="11.00">506,105 rows</text>
<polygon fill="#ffffff" stroke="transparent" points="483.5,-195 483.5,-213 505.5,-213 505.5,-195 483.5,-195"/>
<polygon fill="none" stroke="black" points="483.5,-195 483.5,-213 505.5,-213 505.5,-195 483.5,-195"/>
<text text-anchor="start" x="486.5" y="-201.2" font-family="Helvetica,sans-Serif" font-size="11.00">7 &gt;</text>
</a>
</g>
</g>
<!-- samples&#45;&gt;analysisunits -->
<g id="edge15" class="edge">
<title>samples:w&#45;&gt;analysisunits:e</title>
<path fill="none" stroke="black" d="M374.38,-224.92C361.76,-231.32 359.14,-247.32 348,-264 323.24,-301.08 352.59,-356 308,-356"/>
<polygon fill="black" stroke="black" points="380.67,-223.62 389.23,-225.53 384.58,-222.81 388.5,-222 388.5,-222 388.5,-222 384.58,-222.81 387.77,-218.47 380.67,-223.62 380.67,-223.62"/>
<ellipse fill="none" stroke="black" cx="377.53" cy="-224.27" rx="3.2" ry="3.2"/>
</g>
<!-- tephras -->
<g id="node14" class="node">
<title>tephras</title>
<g id="a_node14"><a xlink:href="../../tables/tephras.html" xlink:title="tephras" target="_top">
<polygon fill="#ffffff" stroke="transparent" points="404.5,-116 404.5,-174 490.5,-174 490.5,-116 404.5,-116"/>
<polygon fill="#f5f5f5" stroke="transparent" points="404.5,-152 404.5,-174 490.5,-174 490.5,-152 404.5,-152"/>
<polygon fill="none" stroke="black" points="404.5,-152 404.5,-174 490.5,-174 490.5,-152 404.5,-152"/>
<text text-anchor="start" x="409.5" y="-161.2" font-family="Helvetica,sans-Serif" font-weight="bold" font-size="11.00">tephras</text>
<text text-anchor="start" x="455.5" y="-160.2" font-family="Helvetica,sans-Serif" font-size="11.00">[table]</text>
<polygon fill="none" stroke="black" points="404.5,-134 404.5,-152 490.5,-152 490.5,-134 404.5,-134"/>
<text text-anchor="start" x="407.5" y="-140.2" font-family="Helvetica,sans-Serif" font-size="11.00">...</text>
<polygon fill="#ffffff" stroke="transparent" points="404.5,-116 404.5,-134 426.5,-134 426.5,-116 404.5,-116"/>
<polygon fill="none" stroke="black" points="404.5,-116 404.5,-134 426.5,-134 426.5,-116 404.5,-116"/>
<text text-anchor="start" x="407.5" y="-122.2" font-family="Helvetica,sans-Serif" font-size="11.00">&lt; 2</text>
<polygon fill="#ffffff" stroke="transparent" points="426.5,-116 426.5,-134 477.5,-134 477.5,-116 426.5,-116"/>
<polygon fill="none" stroke="black" points="426.5,-116 426.5,-134 477.5,-134 477.5,-116 426.5,-116"/>
<text text-anchor="start" x="429.5" y="-122.2" font-family="Helvetica,sans-Serif" font-size="11.00">148 rows</text>
<polygon fill="#ffffff" stroke="transparent" points="477.5,-116 477.5,-134 490.5,-134 490.5,-116 477.5,-116"/>
<polygon fill="none" stroke="black" points="477.5,-116 477.5,-134 490.5,-134 490.5,-116 477.5,-116"/>
<text text-anchor="start" x="480.5" y="-122.2" font-family="Helvetica,sans-Serif" font-size="11.00"> &#160;</text>
</a>
</g>
</g>
<!-- tephras&#45;&gt;analysisunits -->
<g id="edge16" class="edge">
<title>tephras:w&#45;&gt;analysisunits:e</title>
<path fill="none" stroke="black" d="M388.98,-144.46C369.68,-148.86 361.82,-162.98 348,-184 304.89,-249.58 386.48,-356 308,-356"/>
<polygon fill="black" stroke="black" points="395.54,-143.8 403.86,-146.58 399.52,-143.4 403.5,-143 403.5,-143 403.5,-143 399.52,-143.4 403.14,-139.42 395.54,-143.8 395.54,-143.8"/>
<ellipse fill="none" stroke="black" cx="392.36" cy="-144.12" rx="3.2" ry="3.2"/>
</g>
</g>
</svg>
