<?xml version="1.0" encoding="UTF-8" standalone="no"?>
<!DOCTYPE svg PUBLIC "-//W3C//DTD SVG 1.1//EN"
 "http://www.w3.org/Graphics/SVG/1.1/DTD/svg11.dtd">
<!-- Generated by graphviz version 2.43.0 (0)
 -->
<!-- Title: oneDegreeRelationshipsDiagram Pages: 1 -->
<svg width="430pt" height="318pt"
 viewBox="0.00 0.00 430.00 318.00" xmlns="http://www.w3.org/2000/svg" xmlns:xlink="http://www.w3.org/1999/xlink">
<g id="graph0" class="graph" transform="scale(1 1) rotate(0) translate(4 314)">
<title>oneDegreeRelationshipsDiagram</title>
<polygon fill="#ffffff" stroke="transparent" points="-4,4 -4,-314 426,-314 426,4 -4,4"/>
<text text-anchor="middle" x="71.5" y="-7.2" font-family="Helvetica,sans-Serif" font-size="11.00">Generated by SchemaSpy</text>
<!-- analysisunitlithostrat -->
<g id="node1" class="node">
<title>analysisunitlithostrat</title>
<g id="a_node1"><a xlink:href="../../tables/analysisunitlithostrat.html" xlink:title="analysisunitlithostrat" target="_top">
<polygon fill="#ffffff" stroke="transparent" points="185,-114 185,-246 414,-246 414,-114 185,-114"/>
<polygon fill="#f5f5f5" stroke="transparent" points="187.5,-222 187.5,-244 412.5,-244 412.5,-222 187.5,-222"/>
<polygon fill="none" stroke="black" points="187.5,-222 187.5,-244 412.5,-244 412.5,-222 187.5,-222"/>
<text text-anchor="start" x="192.5" y="-231.2" font-family="Helvetica,sans-Serif" font-weight="bold" font-size="11.00">analysisunitlithostrat</text>
<text text-anchor="start" x="377.5" y="-230.2" font-family="Helvetica,sans-Serif" font-size="11.00">[table]</text>
<polygon fill="none" stroke="black" points="187.5,-200 187.5,-222 338.5,-222 338.5,-200 187.5,-200"/>
<image xlink:href="../../images/primaryKeys.png" width="11px" height="12px" preserveAspectRatio="xMinYMin meet" x="192.5" y="-217"/>
<text text-anchor="start" x="207.5" y="-208.2" font-family="Helvetica,sans-Serif" font-size="11.00">analysisunitid</text>
<polygon fill="none" stroke="black" points="338.5,-200 338.5,-222 412.5,-222 412.5,-200 338.5,-200"/>
<text text-anchor="start" x="341.5" y="-208.2" font-family="Helvetica,sans-Serif" font-size="11.00">int4[10]</text>
<polygon fill="none" stroke="black" points="187.5,-178 187.5,-200 338.5,-200 338.5,-178 187.5,-178"/>
<image xlink:href="../../images/primaryKeys.png" width="11px" height="12px" preserveAspectRatio="xMinYMin meet" x="192.5" y="-195"/>
<text text-anchor="start" x="207.5" y="-186.2" font-family="Helvetica,sans-Serif" font-size="11.00">lithostratid</text>
<polygon fill="none" stroke="black" points="338.5,-178 338.5,-200 412.5,-200 412.5,-178 338.5,-178"/>
<text text-anchor="start" x="341.5" y="-186.2" font-family="Helvetica,sans-Serif" font-size="11.00">int4[10]</text>
<polygon fill="none" stroke="black" points="187.5,-156 187.5,-178 338.5,-178 338.5,-156 187.5,-156"/>
<text text-anchor="start" x="207.5" y="-164.2" font-family="Helvetica,sans-Serif" font-size="11.00">recdatecreated</text>
<polygon fill="none" stroke="black" points="338.5,-156 338.5,-178 412.5,-178 412.5,-156 338.5,-156"/>
<text text-anchor="start" x="341.5" y="-164.2" font-family="Helvetica,sans-Serif" font-size="11.00">timestamp[22]</text>
<polygon fill="none" stroke="black" points="187.5,-134 187.5,-156 338.5,-156 338.5,-134 187.5,-134"/>
<text text-anchor="start" x="207.5" y="-142.2" font-family="Helvetica,sans-Serif" font-size="11.00">recdatemodified</text>
<polygon fill="none" stroke="black" points="338.5,-134 338.5,-156 412.5,-156 412.5,-134 338.5,-134"/>
<text text-anchor="start" x="341.5" y="-142.2" font-family="Helvetica,sans-Serif" font-size="11.00">timestamp[22]</text>
<polygon fill="#ffffff" stroke="transparent" points="187.5,-116 187.5,-134 254.5,-134 254.5,-116 187.5,-116"/>
<polygon fill="none" stroke="black" points="187.5,-116 187.5,-134 254.5,-134 254.5,-116 187.5,-116"/>
<text text-anchor="start" x="190.5" y="-122.2" font-family="Helvetica,sans-Serif" font-size="11.00">&lt; 2</text>
<polygon fill="#ffffff" stroke="transparent" points="254.5,-116 254.5,-134 338.5,-134 338.5,-116 254.5,-116"/>
<polygon fill="none" stroke="black" points="254.5,-116 254.5,-134 338.5,-134 338.5,-116 254.5,-116"/>
<text text-anchor="start" x="302.5" y="-122.2" font-family="Helvetica,sans-Serif" font-size="11.00">0 rows</text>
<polygon fill="#ffffff" stroke="transparent" points="338.5,-116 338.5,-134 412.5,-134 412.5,-116 338.5,-116"/>
<polygon fill="none" stroke="black" points="338.5,-116 338.5,-134 412.5,-134 412.5,-116 338.5,-116"/>
<text text-anchor="start" x="393.5" y="-122.2" font-family="Helvetica,sans-Serif" font-size="11.00">0 &gt;</text>
<polygon fill="none" stroke="black" stroke-width="2" points="186,-115 186,-245 413,-245 413,-115 186,-115"/>
</a>
</g>
</g>
<!-- analysisunits -->
<g id="node2" class="node">
<title>analysisunits</title>
<g id="a_node2"><a xlink:href="../../tables/analysisunits.html" xlink:title="analysisunits" target="_top">
<polygon fill="#ffffff" stroke="transparent" points="8,-182 8,-306 136,-306 136,-182 8,-182"/>
<polygon fill="#f5f5f5" stroke="transparent" points="8,-284 8,-306 136,-306 136,-284 8,-284"/>
<polygon fill="none" stroke="black" points="8,-284 8,-306 136,-306 136,-284 8,-284"/>
<text text-anchor="start" x="13" y="-293.2" font-family="Helvetica,sans-Serif" font-weight="bold" font-size="11.00">analysisunits</text>
<text text-anchor="start" x="101" y="-292.2" font-family="Helvetica,sans-Serif" font-size="11.00">[table]</text>
<polygon fill="none" stroke="black" points="8,-262 8,-284 136,-284 136,-262 8,-262"/>
<image xlink:href="../../images/primaryKeys.png" width="11px" height="12px" preserveAspectRatio="xMinYMin meet" x="13" y="-279"/>
<text text-anchor="start" x="28" y="-270.2" font-family="Helvetica,sans-Serif" font-size="11.00">analysisunitid</text>
<polygon fill="#ffffff" stroke="transparent" points="8,-240 8,-262 136,-262 136,-240 8,-240"/>
<polygon fill="none" stroke="black" points="8,-240 8,-262 136,-262 136,-240 8,-240"/>
<image xlink:href="../../images/foreignKeys.png" width="11px" height="12px" preserveAspectRatio="xMinYMin meet" x="13" y="-257"/>
<text text-anchor="start" x="28" y="-248.2" font-family="Helvetica,sans-Serif" font-size="11.00">collectionunitid</text>
<polygon fill="#ffffff" stroke="transparent" points="8,-218 8,-240 136,-240 136,-218 8,-218"/>
<polygon fill="none" stroke="black" points="8,-218 8,-240 136,-240 136,-218 8,-218"/>
<image xlink:href="../../images/foreignKeys.png" width="11px" height="12px" preserveAspectRatio="xMinYMin meet" x="13" y="-235"/>
<text text-anchor="start" x="28" y="-226.2" font-family="Helvetica,sans-Serif" font-size="11.00">faciesid</text>
<polygon fill="none" stroke="black" points="8,-200 8,-218 136,-218 136,-200 8,-200"/>
<text text-anchor="start" x="11" y="-206.2" font-family="Helvetica,sans-Serif" font-size="11.00">...</text>
<polygon fill="#ffffff" stroke="transparent" points="8,-182 8,-200 36,-200 36,-182 8,-182"/>
<polygon fill="none" stroke="black" points="8,-182 8,-200 36,-200 36,-182 8,-182"/>
<text text-anchor="start" x="11" y="-188.2" font-family="Helvetica,sans-Serif" font-size="11.00">&lt; 2</text>
<polygon fill="#ffffff" stroke="transparent" points="36,-182 36,-200 111,-200 111,-182 36,-182"/>
<polygon fill="none" stroke="black" points="36,-182 36,-200 111,-200 111,-182 36,-182"/>
<text text-anchor="start" x="42" y="-188.2" font-family="Helvetica,sans-Serif" font-size="11.00">449,200 rows</text>
<polygon fill="#ffffff" stroke="transparent" points="111,-182 111,-200 136,-200 136,-182 111,-182"/>
<polygon fill="none" stroke="black" points="111,-182 111,-200 136,-200 136,-182 111,-182"/>
<text text-anchor="start" x="117" y="-188.2" font-family="Helvetica,sans-Serif" font-size="11.00">9 &gt;</text>
</a>
</g>
</g>
<!-- analysisunitlithostrat&#45;&gt;analysisunits -->
<g id="edge1" class="edge">
<title>analysisunitlithostrat:w&#45;&gt;analysisunits:e</title>
<path fill="none" stroke="black" d="M172.74,-215.87C156.8,-230.48 166.2,-273 137,-273"/>
<polygon fill="black" stroke="black" points="178.96,-213.67 187.7,-214.39 182.73,-212.33 186.5,-211 186.5,-211 186.5,-211 182.73,-212.33 185.3,-207.61 178.96,-213.67 178.96,-213.67"/>
<ellipse fill="none" stroke="black" cx="175.94" cy="-214.73" rx="3.2" ry="3.2"/>
</g>
<!-- lithostrat -->
<g id="node3" class="node">
<title>lithostrat</title>
<g id="a_node3"><a xlink:href="../../tables/lithostrat.html" xlink:title="lithostrat" target="_top">
<polygon fill="#ffffff" stroke="transparent" points="8,-37 8,-161 136,-161 136,-37 8,-37"/>
<polygon fill="#f5f5f5" stroke="transparent" points="8,-139 8,-161 136,-161 136,-139 8,-139"/>
<polygon fill="none" stroke="black" points="8,-139 8,-161 136,-161 136,-139 8,-139"/>
<text text-anchor="start" x="13" y="-148.2" font-family="Helvetica,sans-Serif" font-weight="bold" font-size="11.00">lithostrat</text>
<text text-anchor="start" x="101" y="-147.2" font-family="Helvetica,sans-Serif" font-size="11.00">[table]</text>
<polygon fill="none" stroke="black" points="8,-117 8,-139 136,-139 136,-117 8,-117"/>
<image xlink:href="../../images/primaryKeys.png" width="11px" height="12px" preserveAspectRatio="xMinYMin meet" x="13" y="-134"/>
<text text-anchor="start" x="28" y="-125.2" font-family="Helvetica,sans-Serif" font-size="11.00">lithostratid</text>
<polygon fill="none" stroke="black" points="8,-95 8,-117 136,-117 136,-95 8,-95"/>
<image xlink:href="../../images/foreignKeys.png" width="11px" height="12px" preserveAspectRatio="xMinYMin meet" x="13" y="-112"/>
<text text-anchor="start" x="28" y="-103.2" font-family="Helvetica,sans-Serif" font-size="11.00">lithostratunitid</text>
<polygon fill="none" stroke="black" points="8,-73 8,-95 136,-95 136,-73 8,-73"/>
<image xlink:href="../../images/foreignKeys.png" width="11px" height="12px" preserveAspectRatio="xMinYMin meet" x="13" y="-90"/>
<text text-anchor="start" x="28" y="-81.2" font-family="Helvetica,sans-Serif" font-size="11.00">higherlithostratid</text>
<polygon fill="none" stroke="black" points="8,-55 8,-73 136,-73 136,-55 8,-55"/>
<text text-anchor="start" x="11" y="-61.2" font-family="Helvetica,sans-Serif" font-size="11.00">...</text>
<polygon fill="#ffffff" stroke="transparent" points="8,-37 8,-55 49,-55 49,-37 8,-37"/>
<polygon fill="none" stroke="black" points="8,-37 8,-55 49,-55 49,-37 8,-37"/>
<text text-anchor="start" x="11" y="-43.2" font-family="Helvetica,sans-Serif" font-size="11.00">&lt; 2</text>
<polygon fill="#ffffff" stroke="transparent" points="49,-37 49,-55 104,-55 104,-37 49,-37"/>
<polygon fill="none" stroke="black" points="49,-37 49,-55 104,-55 104,-37 49,-37"/>
<text text-anchor="start" x="62" y="-43.2" font-family="Helvetica,sans-Serif" font-size="11.00">16 rows</text>
<polygon fill="#ffffff" stroke="transparent" points="104,-37 104,-55 136,-55 136,-37 104,-37"/>
<polygon fill="none" stroke="black" points="104,-37 104,-55 136,-55 136,-37 104,-37"/>
<text text-anchor="start" x="117" y="-43.2" font-family="Helvetica,sans-Serif" font-size="11.00">2 &gt;</text>
</a>
</g>
</g>
<!-- analysisunitlithostrat&#45;&gt;lithostrat -->
<g id="edge2" class="edge">
<title>analysisunitlithostrat:w&#45;&gt;lithostrat:e</title>
<path fill="none" stroke="black" d="M172.83,-184.21C156.94,-169.83 165.91,-128 137,-128"/>
<polygon fill="black" stroke="black" points="178.95,-186.36 185.31,-192.4 182.72,-187.68 186.5,-189 186.5,-189 186.5,-189 182.72,-187.68 187.69,-185.6 178.95,-186.36 178.95,-186.36"/>
<ellipse fill="none" stroke="black" cx="175.93" cy="-185.3" rx="3.2" ry="3.2"/>
</g>
</g>
</svg>
