<?xml version="1.0" encoding="UTF-8" standalone="no"?>
<!DOCTYPE svg PUBLIC "-//W3C//DTD SVG 1.1//EN"
 "http://www.w3.org/Graphics/SVG/1.1/DTD/svg11.dtd">
<!-- Generated by graphviz version 2.43.0 (0)
 -->
<!-- Title: oneDegreeRelationshipsDiagram Pages: 1 -->
<svg width="673pt" height="267pt"
 viewBox="0.00 0.00 673.00 267.00" xmlns="http://www.w3.org/2000/svg" xmlns:xlink="http://www.w3.org/1999/xlink">
<g id="graph0" class="graph" transform="scale(1 1) rotate(0) translate(4 263)">
<title>oneDegreeRelationshipsDiagram</title>
<polygon fill="#ffffff" stroke="transparent" points="-4,4 -4,-263 669,-263 669,4 -4,4"/>
<text text-anchor="middle" x="71.5" y="-7.2" font-family="Helvetica,sans-Serif" font-size="11.00">Generated by SchemaSpy</text>
<!-- analysisunitaltdepths -->
<g id="node1" class="node">
<title>analysisunitaltdepths</title>
<g id="a_node1"><a xlink:href="../../tables/analysisunitaltdepths.html" xlink:title="analysisunitaltdepths" target="_top">
<polygon fill="#ffffff" stroke="transparent" points="501,-153 501,-255 657,-255 657,-153 501,-153"/>
<polygon fill="#f5f5f5" stroke="transparent" points="501,-233 501,-255 657,-255 657,-233 501,-233"/>
<polygon fill="none" stroke="black" points="501,-233 501,-255 657,-255 657,-233 501,-233"/>
<text text-anchor="start" x="506" y="-242.2" font-family="Helvetica,sans-Serif" font-weight="bold" font-size="11.00">analysisunitaltdepths</text>
<text text-anchor="start" x="622" y="-241.2" font-family="Helvetica,sans-Serif" font-size="11.00">[table]</text>
<polygon fill="none" stroke="black" points="501,-211 501,-233 657,-233 657,-211 501,-211"/>
<image xlink:href="../../images/primaryKeys.png" width="11px" height="12px" preserveAspectRatio="xMinYMin meet" x="506" y="-228"/>
<text text-anchor="start" x="524" y="-219.2" font-family="Helvetica,sans-Serif" font-size="11.00">analysisunitid</text>
<polygon fill="none" stroke="black" points="501,-189 501,-211 657,-211 657,-189 501,-189"/>
<image xlink:href="../../images/primaryKeys.png" width="11px" height="12px" preserveAspectRatio="xMinYMin meet" x="506" y="-206"/>
<text text-anchor="start" x="524" y="-197.2" font-family="Helvetica,sans-Serif" font-size="11.00">altdepthscaleid</text>
<polygon fill="none" stroke="black" points="501,-171 501,-189 657,-189 657,-171 501,-171"/>
<text text-anchor="start" x="504" y="-177.2" font-family="Helvetica,sans-Serif" font-size="11.00">...</text>
<polygon fill="#ffffff" stroke="transparent" points="501,-153 501,-171 553,-171 553,-153 501,-153"/>
<polygon fill="none" stroke="black" points="501,-153 501,-171 553,-171 553,-153 501,-153"/>
<text text-anchor="start" x="504" y="-159.2" font-family="Helvetica,sans-Serif" font-size="11.00">&lt; 2</text>
<polygon fill="#ffffff" stroke="transparent" points="553,-153 553,-171 628,-171 628,-153 553,-153"/>
<polygon fill="none" stroke="black" points="553,-153 553,-171 628,-171 628,-153 553,-153"/>
<text text-anchor="start" x="571" y="-159.2" font-family="Helvetica,sans-Serif" font-size="11.00">7,395 rows</text>
<polygon fill="#ffffff" stroke="transparent" points="628,-153 628,-171 657,-171 657,-153 628,-153"/>
<polygon fill="none" stroke="black" points="628,-153 628,-171 657,-171 657,-153 628,-153"/>
<text text-anchor="start" x="647" y="-159.2" font-family="Helvetica,sans-Serif" font-size="11.00"> &#160;</text>
</a>
</g>
</g>
<!-- analysisunitaltdepthscales -->
<g id="node2" class="node">
<title>analysisunitaltdepthscales</title>
<g id="a_node2"><a xlink:href="../../tables/analysisunitaltdepthscales.html" xlink:title="analysisunitaltdepthscales" target="_top">
<polygon fill="#ffffff" stroke="transparent" points="177,-37 177,-235 452,-235 452,-37 177,-37"/>
<polygon fill="#f5f5f5" stroke="transparent" points="179.5,-211 179.5,-233 450.5,-233 450.5,-211 179.5,-211"/>
<polygon fill="none" stroke="black" points="179.5,-211 179.5,-233 450.5,-233 450.5,-211 179.5,-211"/>
<text text-anchor="start" x="184.5" y="-220.2" font-family="Helvetica,sans-Serif" font-weight="bold" font-size="11.00">analysisunitaltdepthscales</text>
<text text-anchor="start" x="415.5" y="-219.2" font-family="Helvetica,sans-Serif" font-size="11.00">[table]</text>
<polygon fill="none" stroke="black" points="179.5,-189 179.5,-211 360.5,-211 360.5,-189 179.5,-189"/>
<image xlink:href="../../images/primaryKeys.png" width="11px" height="12px" preserveAspectRatio="xMinYMin meet" x="184.5" y="-206"/>
<text text-anchor="start" x="199.5" y="-197.2" font-family="Helvetica,sans-Serif" font-size="11.00">altdepthscaleid</text>
<polygon fill="none" stroke="black" points="360.5,-189 360.5,-211 450.5,-211 450.5,-189 360.5,-189"/>
<text text-anchor="start" x="363.5" y="-197.2" font-family="Helvetica,sans-Serif" font-size="11.00">serial[10]</text>
<polygon fill="none" stroke="black" points="179.5,-167 179.5,-189 360.5,-189 360.5,-167 179.5,-167"/>
<text text-anchor="start" x="199.5" y="-175.2" font-family="Helvetica,sans-Serif" font-size="11.00">altdepthid</text>
<polygon fill="none" stroke="black" points="360.5,-167 360.5,-189 450.5,-189 450.5,-167 360.5,-167"/>
<text text-anchor="start" x="363.5" y="-175.2" font-family="Helvetica,sans-Serif" font-size="11.00">int4[10]</text>
<polygon fill="none" stroke="black" points="179.5,-145 179.5,-167 360.5,-167 360.5,-145 179.5,-145"/>
<text text-anchor="start" x="199.5" y="-153.2" font-family="Helvetica,sans-Serif" font-size="11.00">altdepthname</text>
<polygon fill="none" stroke="black" points="360.5,-145 360.5,-167 450.5,-167 450.5,-145 360.5,-145"/>
<text text-anchor="start" x="363.5" y="-153.2" font-family="Helvetica,sans-Serif" font-size="11.00">varchar[80]</text>
<polygon fill="none" stroke="black" points="179.5,-123 179.5,-145 360.5,-145 360.5,-123 179.5,-123"/>
<image xlink:href="../../images/foreignKeys.png" width="11px" height="12px" preserveAspectRatio="xMinYMin meet" x="184.5" y="-140"/>
<text text-anchor="start" x="199.5" y="-131.2" font-family="Helvetica,sans-Serif" font-size="11.00">variableunitsid</text>
<polygon fill="none" stroke="black" points="360.5,-123 360.5,-145 450.5,-145 450.5,-123 360.5,-123"/>
<text text-anchor="start" x="363.5" y="-131.2" font-family="Helvetica,sans-Serif" font-size="11.00">int4[10]</text>
<polygon fill="none" stroke="black" points="179.5,-101 179.5,-123 360.5,-123 360.5,-101 179.5,-101"/>
<text text-anchor="start" x="199.5" y="-109.2" font-family="Helvetica,sans-Serif" font-size="11.00">notes</text>
<polygon fill="none" stroke="black" points="360.5,-101 360.5,-123 450.5,-123 450.5,-101 360.5,-101"/>
<text text-anchor="start" x="363.5" y="-109.2" font-family="Helvetica,sans-Serif" font-size="11.00">text[2147483647]</text>
<polygon fill="none" stroke="black" points="179.5,-79 179.5,-101 360.5,-101 360.5,-79 179.5,-79"/>
<text text-anchor="start" x="199.5" y="-87.2" font-family="Helvetica,sans-Serif" font-size="11.00">recdatecreated</text>
<polygon fill="none" stroke="black" points="360.5,-79 360.5,-101 450.5,-101 450.5,-79 360.5,-79"/>
<text text-anchor="start" x="363.5" y="-87.2" font-family="Helvetica,sans-Serif" font-size="11.00">timestamp[22]</text>
<polygon fill="none" stroke="black" points="179.5,-57 179.5,-79 360.5,-79 360.5,-57 179.5,-57"/>
<text text-anchor="start" x="199.5" y="-65.2" font-family="Helvetica,sans-Serif" font-size="11.00">recdatemodified</text>
<polygon fill="none" stroke="black" points="360.5,-57 360.5,-79 450.5,-79 450.5,-57 360.5,-57"/>
<text text-anchor="start" x="363.5" y="-65.2" font-family="Helvetica,sans-Serif" font-size="11.00">timestamp[22]</text>
<polygon fill="#ffffff" stroke="transparent" points="179.5,-39 179.5,-57 258.5,-57 258.5,-39 179.5,-39"/>
<polygon fill="none" stroke="black" points="179.5,-39 179.5,-57 258.5,-57 258.5,-39 179.5,-39"/>
<text text-anchor="start" x="182.5" y="-45.2" font-family="Helvetica,sans-Serif" font-size="11.00">&lt; 1</text>
<polygon fill="#ffffff" stroke="transparent" points="258.5,-39 258.5,-57 360.5,-57 360.5,-39 258.5,-39"/>
<polygon fill="none" stroke="black" points="258.5,-39 258.5,-57 360.5,-57 360.5,-39 258.5,-39"/>
<text text-anchor="start" x="318.5" y="-45.2" font-family="Helvetica,sans-Serif" font-size="11.00">55 rows</text>
<polygon fill="#ffffff" stroke="transparent" points="360.5,-39 360.5,-57 450.5,-57 450.5,-39 360.5,-39"/>
<polygon fill="none" stroke="black" points="360.5,-39 360.5,-57 450.5,-57 450.5,-39 360.5,-39"/>
<text text-anchor="start" x="431.5" y="-45.2" font-family="Helvetica,sans-Serif" font-size="11.00">1 &gt;</text>
<polygon fill="none" stroke="black" stroke-width="2" points="178,-38 178,-234 451,-234 451,-38 178,-38"/>
</a>
</g>
</g>
<!-- analysisunitaltdepths&#45;&gt;analysisunitaltdepthscales -->
<g id="edge1" class="edge">
<title>analysisunitaltdepths:w&#45;&gt;analysisunitaltdepthscales:e</title>
<path fill="none" stroke="black" d="M485.28,-200C474.29,-200 467.16,-200 451.5,-200"/>
<polygon fill="black" stroke="black" points="492,-200 500,-203.6 496,-200 500,-200 500,-200 500,-200 496,-200 500,-196.4 492,-200 492,-200"/>
<ellipse fill="none" stroke="black" cx="488.8" cy="-200" rx="3.2" ry="3.2"/>
</g>
<!-- variableunits -->
<g id="node3" class="node">
<title>variableunits</title>
<g id="a_node3"><a xlink:href="../../tables/variableunits.html" xlink:title="variableunits" target="_top">
<polygon fill="#ffffff" stroke="transparent" points="8,-87 8,-167 128,-167 128,-87 8,-87"/>
<polygon fill="#f5f5f5" stroke="transparent" points="8,-145 8,-167 128,-167 128,-145 8,-145"/>
<polygon fill="none" stroke="black" points="8,-145 8,-167 128,-167 128,-145 8,-145"/>
<text text-anchor="start" x="13" y="-154.2" font-family="Helvetica,sans-Serif" font-weight="bold" font-size="11.00">variableunits</text>
<text text-anchor="start" x="93" y="-153.2" font-family="Helvetica,sans-Serif" font-size="11.00">[table]</text>
<polygon fill="none" stroke="black" points="8,-123 8,-145 128,-145 128,-123 8,-123"/>
<image xlink:href="../../images/primaryKeys.png" width="11px" height="12px" preserveAspectRatio="xMinYMin meet" x="13" y="-140"/>
<text text-anchor="start" x="28" y="-131.2" font-family="Helvetica,sans-Serif" font-size="11.00">variableunitsid</text>
<polygon fill="none" stroke="black" points="8,-105 8,-123 128,-123 128,-105 8,-105"/>
<text text-anchor="start" x="11" y="-111.2" font-family="Helvetica,sans-Serif" font-size="11.00">...</text>
<polygon fill="#ffffff" stroke="transparent" points="8,-87 8,-105 38,-105 38,-87 8,-87"/>
<polygon fill="none" stroke="black" points="8,-87 8,-105 38,-105 38,-87 8,-87"/>
<text text-anchor="start" x="11" y="-93.2" font-family="Helvetica,sans-Serif" font-size="11.00"> &#160;</text>
<polygon fill="#ffffff" stroke="transparent" points="38,-87 38,-105 97,-105 97,-87 38,-87"/>
<polygon fill="none" stroke="black" points="38,-87 38,-105 97,-105 97,-87 38,-87"/>
<text text-anchor="start" x="49" y="-93.2" font-family="Helvetica,sans-Serif" font-size="11.00">209 rows</text>
<polygon fill="#ffffff" stroke="transparent" points="97,-87 97,-105 128,-105 128,-87 97,-87"/>
<polygon fill="none" stroke="black" points="97,-87 97,-105 128,-105 128,-87 97,-87"/>
<text text-anchor="start" x="109" y="-93.2" font-family="Helvetica,sans-Serif" font-size="11.00">4 &gt;</text>
</a>
</g>
</g>
<!-- analysisunitaltdepthscales&#45;&gt;variableunits -->
<g id="edge2" class="edge">
<title>analysisunitaltdepthscales:w&#45;&gt;variableunits:e</title>
<path fill="none" stroke="black" d="M163.84,-134C152.41,-134 145.16,-134 129,-134"/>
<polygon fill="black" stroke="black" points="170.5,-134 178.5,-137.6 174.5,-134 178.5,-134 178.5,-134 178.5,-134 174.5,-134 178.5,-130.4 170.5,-134 170.5,-134"/>
<ellipse fill="none" stroke="black" cx="167.3" cy="-134" rx="3.2" ry="3.2"/>
</g>
</g>
</svg>
