<?xml version="1.0" encoding="UTF-8" standalone="no"?>
<!DOCTYPE svg PUBLIC "-//W3C//DTD SVG 1.1//EN"
 "http://www.w3.org/Graphics/SVG/1.1/DTD/svg11.dtd">
<!-- Generated by graphviz version 2.43.0 (0)
 -->
<!-- Title: twoDegreesRelationshipsDiagram Pages: 1 -->
<svg width="673pt" height="616pt"
 viewBox="0.00 0.00 673.00 616.20" xmlns="http://www.w3.org/2000/svg" xmlns:xlink="http://www.w3.org/1999/xlink">
<g id="graph0" class="graph" transform="scale(1 1) rotate(0) translate(4 612.2)">
<title>twoDegreesRelationshipsDiagram</title>
<polygon fill="#ffffff" stroke="transparent" points="-4,4 -4,-612.2 669,-612.2 669,4 -4,4"/>
<text text-anchor="middle" x="71.5" y="-7.2" font-family="Helvetica,sans-Serif" font-size="11.00">Generated by SchemaSpy</text>
<!-- accumulationrates -->
<g id="node1" class="node">
<title>accumulationrates</title>
<g id="a_node1"><a xlink:href="../../tables/accumulationrates.html" xlink:title="accumulationrates" target="_top">
<polygon fill="#ffffff" stroke="transparent" points="508.5,-539 508.5,-597 649.5,-597 649.5,-539 508.5,-539"/>
<polygon fill="#f5f5f5" stroke="transparent" points="509,-575 509,-597 650,-597 650,-575 509,-575"/>
<polygon fill="none" stroke="black" points="509,-575 509,-597 650,-597 650,-575 509,-575"/>
<text text-anchor="start" x="514" y="-584.2" font-family="Helvetica,sans-Serif" font-weight="bold" font-size="11.00">accumulationrates</text>
<text text-anchor="start" x="615" y="-583.2" font-family="Helvetica,sans-Serif" font-size="11.00">[table]</text>
<polygon fill="none" stroke="black" points="509,-557 509,-575 650,-575 650,-557 509,-557"/>
<text text-anchor="start" x="512" y="-563.2" font-family="Helvetica,sans-Serif" font-size="11.00">...</text>
<polygon fill="#ffffff" stroke="transparent" points="509,-539 509,-557 554,-557 554,-539 509,-539"/>
<polygon fill="none" stroke="black" points="509,-539 509,-557 554,-557 554,-539 509,-539"/>
<text text-anchor="start" x="512" y="-545.2" font-family="Helvetica,sans-Serif" font-size="11.00">&lt; 3</text>
<polygon fill="#ffffff" stroke="transparent" points="554,-539 554,-557 625,-557 625,-539 554,-539"/>
<polygon fill="none" stroke="black" points="554,-539 554,-557 625,-557 625,-539 554,-539"/>
<text text-anchor="start" x="568" y="-545.2" font-family="Helvetica,sans-Serif" font-size="11.00">1,089 rows</text>
<polygon fill="#ffffff" stroke="transparent" points="625,-539 625,-557 650,-557 650,-539 625,-539"/>
<polygon fill="none" stroke="black" points="625,-539 625,-557 650,-557 650,-539 625,-539"/>
<text text-anchor="start" x="640" y="-545.2" font-family="Helvetica,sans-Serif" font-size="11.00"> &#160;</text>
</a>
</g>
</g>
<!-- analysisunits -->
<g id="node2" class="node">
<title>analysisunits</title>
<g id="a_node2"><a xlink:href="../../tables/analysisunits.html" xlink:title="analysisunits" target="_top">
<polygon fill="#ffffff" stroke="transparent" points="253.5,-493 253.5,-551 375.5,-551 375.5,-493 253.5,-493"/>
<polygon fill="#f5f5f5" stroke="transparent" points="253.5,-529 253.5,-551 375.5,-551 375.5,-529 253.5,-529"/>
<polygon fill="none" stroke="black" points="253.5,-529 253.5,-551 375.5,-551 375.5,-529 253.5,-529"/>
<text text-anchor="start" x="258.5" y="-538.2" font-family="Helvetica,sans-Serif" font-weight="bold" font-size="11.00">analysisunits</text>
<text text-anchor="start" x="340.5" y="-537.2" font-family="Helvetica,sans-Serif" font-size="11.00">[table]</text>
<polygon fill="none" stroke="black" points="253.5,-511 253.5,-529 375.5,-529 375.5,-511 253.5,-511"/>
<text text-anchor="start" x="256.5" y="-517.2" font-family="Helvetica,sans-Serif" font-size="11.00">...</text>
<polygon fill="#ffffff" stroke="transparent" points="253.5,-493 253.5,-511 275.5,-511 275.5,-493 253.5,-493"/>
<polygon fill="none" stroke="black" points="253.5,-493 253.5,-511 275.5,-511 275.5,-493 253.5,-493"/>
<text text-anchor="start" x="256.5" y="-499.2" font-family="Helvetica,sans-Serif" font-size="11.00">&lt; 2</text>
<polygon fill="#ffffff" stroke="transparent" points="275.5,-493 275.5,-511 347.5,-511 347.5,-493 275.5,-493"/>
<polygon fill="none" stroke="black" points="275.5,-493 275.5,-511 347.5,-511 347.5,-493 275.5,-493"/>
<text text-anchor="start" x="278.5" y="-499.2" font-family="Helvetica,sans-Serif" font-size="11.00">486,580 rows</text>
<polygon fill="#ffffff" stroke="transparent" points="347.5,-493 347.5,-511 375.5,-511 375.5,-493 347.5,-493"/>
<polygon fill="none" stroke="black" points="347.5,-493 347.5,-511 375.5,-511 375.5,-493 347.5,-493"/>
<text text-anchor="start" x="350.5" y="-499.2" font-family="Helvetica,sans-Serif" font-size="11.00">10 &gt;</text>
</a>
</g>
</g>
<!-- accumulationrates&#45;&gt;analysisunits -->
<g id="edge1" class="edge">
<title>accumulationrates:w&#45;&gt;analysisunits:e</title>
<path fill="none" stroke="black" d="M493.48,-565.08C444.41,-558.6 433.22,-520 376.5,-520"/>
<polygon fill="black" stroke="black" points="500.02,-565.49 507.77,-569.59 504.01,-565.75 508,-566 508,-566 508,-566 504.01,-565.75 508.23,-562.41 500.02,-565.49 500.02,-565.49"/>
<ellipse fill="none" stroke="black" cx="496.82" cy="-565.29" rx="3.2" ry="3.2"/>
</g>
<!-- variableunits -->
<g id="node3" class="node">
<title>variableunits</title>
<g id="a_node3"><a xlink:href="../../tables/variableunits.html" xlink:title="variableunits" target="_top">
<polygon fill="#ffffff" stroke="transparent" points="8,-175 8,-255 128,-255 128,-175 8,-175"/>
<polygon fill="#f5f5f5" stroke="transparent" points="8,-233 8,-255 128,-255 128,-233 8,-233"/>
<polygon fill="none" stroke="black" points="8,-233 8,-255 128,-255 128,-233 8,-233"/>
<text text-anchor="start" x="13" y="-242.2" font-family="Helvetica,sans-Serif" font-weight="bold" font-size="11.00">variableunits</text>
<text text-anchor="start" x="93" y="-241.2" font-family="Helvetica,sans-Serif" font-size="11.00">[table]</text>
<polygon fill="none" stroke="black" points="8,-211 8,-233 128,-233 128,-211 8,-211"/>
<image xlink:href="../../images/primaryKeys.png" width="11px" height="12px" preserveAspectRatio="xMinYMin meet" x="13" y="-228"/>
<text text-anchor="start" x="28" y="-219.2" font-family="Helvetica,sans-Serif" font-size="11.00">variableunitsid</text>
<polygon fill="none" stroke="black" points="8,-193 8,-211 128,-211 128,-193 8,-193"/>
<text text-anchor="start" x="11" y="-199.2" font-family="Helvetica,sans-Serif" font-size="11.00">...</text>
<polygon fill="#ffffff" stroke="transparent" points="8,-175 8,-193 38,-193 38,-175 8,-175"/>
<polygon fill="none" stroke="black" points="8,-175 8,-193 38,-193 38,-175 8,-175"/>
<text text-anchor="start" x="11" y="-181.2" font-family="Helvetica,sans-Serif" font-size="11.00"> &#160;</text>
<polygon fill="#ffffff" stroke="transparent" points="38,-175 38,-193 97,-193 97,-175 38,-175"/>
<polygon fill="none" stroke="black" points="38,-175 38,-193 97,-193 97,-175 38,-175"/>
<text text-anchor="start" x="49" y="-181.2" font-family="Helvetica,sans-Serif" font-size="11.00">212 rows</text>
<polygon fill="#ffffff" stroke="transparent" points="97,-175 97,-193 128,-193 128,-175 97,-175"/>
<polygon fill="none" stroke="black" points="97,-175 97,-193 128,-193 128,-175 97,-175"/>
<text text-anchor="start" x="109" y="-181.2" font-family="Helvetica,sans-Serif" font-size="11.00">5 &gt;</text>
</a>
</g>
</g>
<!-- accumulationrates&#45;&gt;variableunits -->
<g id="edge2" class="edge">
<title>accumulationrates:w&#45;&gt;variableunits:e</title>
<path fill="none" stroke="black" d="M493.23,-566.31C352.22,-572.21 277.29,-659.44 169,-562 112.45,-511.11 205.08,-222 129,-222"/>
<polygon fill="black" stroke="black" points="500,-566.17 508.08,-569.6 504,-566.08 508,-566 508,-566 508,-566 504,-566.08 507.92,-562.4 500,-566.17 500,-566.17"/>
<ellipse fill="none" stroke="black" cx="496.8" cy="-566.23" rx="3.2" ry="3.2"/>
</g>
<!-- analysisunitaltdepths -->
<g id="node4" class="node">
<title>analysisunitaltdepths</title>
<g id="a_node4"><a xlink:href="../../tables/analysisunitaltdepths.html" xlink:title="analysisunitaltdepths" target="_top">
<polygon fill="#ffffff" stroke="transparent" points="501,-407 501,-509 657,-509 657,-407 501,-407"/>
<polygon fill="#f5f5f5" stroke="transparent" points="501,-487 501,-509 657,-509 657,-487 501,-487"/>
<polygon fill="none" stroke="black" points="501,-487 501,-509 657,-509 657,-487 501,-487"/>
<text text-anchor="start" x="506" y="-496.2" font-family="Helvetica,sans-Serif" font-weight="bold" font-size="11.00">analysisunitaltdepths</text>
<text text-anchor="start" x="622" y="-495.2" font-family="Helvetica,sans-Serif" font-size="11.00">[table]</text>
<polygon fill="none" stroke="black" points="501,-465 501,-487 657,-487 657,-465 501,-465"/>
<image xlink:href="../../images/primaryKeys.png" width="11px" height="12px" preserveAspectRatio="xMinYMin meet" x="506" y="-482"/>
<text text-anchor="start" x="524" y="-473.2" font-family="Helvetica,sans-Serif" font-size="11.00">analysisunitid</text>
<polygon fill="none" stroke="black" points="501,-443 501,-465 657,-465 657,-443 501,-443"/>
<image xlink:href="../../images/primaryKeys.png" width="11px" height="12px" preserveAspectRatio="xMinYMin meet" x="506" y="-460"/>
<text text-anchor="start" x="524" y="-451.2" font-family="Helvetica,sans-Serif" font-size="11.00">altdepthscaleid</text>
<polygon fill="none" stroke="black" points="501,-425 501,-443 657,-443 657,-425 501,-425"/>
<text text-anchor="start" x="504" y="-431.2" font-family="Helvetica,sans-Serif" font-size="11.00">...</text>
<polygon fill="#ffffff" stroke="transparent" points="501,-407 501,-425 553,-425 553,-407 501,-407"/>
<polygon fill="none" stroke="black" points="501,-407 501,-425 553,-425 553,-407 501,-407"/>
<text text-anchor="start" x="504" y="-413.2" font-family="Helvetica,sans-Serif" font-size="11.00">&lt; 2</text>
<polygon fill="#ffffff" stroke="transparent" points="553,-407 553,-425 628,-425 628,-407 553,-407"/>
<polygon fill="none" stroke="black" points="553,-407 553,-425 628,-425 628,-407 553,-407"/>
<text text-anchor="start" x="571" y="-413.2" font-family="Helvetica,sans-Serif" font-size="11.00">7,492 rows</text>
<polygon fill="#ffffff" stroke="transparent" points="628,-407 628,-425 657,-425 657,-407 628,-407"/>
<polygon fill="none" stroke="black" points="628,-407 628,-425 657,-425 657,-407 628,-407"/>
<text text-anchor="start" x="647" y="-413.2" font-family="Helvetica,sans-Serif" font-size="11.00"> &#160;</text>
</a>
</g>
</g>
<!-- analysisunitaltdepths&#45;&gt;analysisunits -->
<g id="edge4" class="edge">
<title>analysisunitaltdepths:w&#45;&gt;analysisunits:e</title>
<path fill="none" stroke="black" d="M485.46,-477C440.07,-483.55 429.53,-520 376.5,-520"/>
<polygon fill="black" stroke="black" points="492.02,-476.55 500.25,-479.59 496.01,-476.27 500,-476 500,-476 500,-476 496.01,-476.27 499.75,-472.41 492.02,-476.55 492.02,-476.55"/>
<ellipse fill="none" stroke="black" cx="488.83" cy="-476.77" rx="3.2" ry="3.2"/>
</g>
<!-- analysisunitaltdepthscales -->
<g id="node5" class="node">
<title>analysisunitaltdepthscales</title>
<g id="a_node5"><a xlink:href="../../tables/analysisunitaltdepthscales.html" xlink:title="analysisunitaltdepthscales" target="_top">
<polygon fill="#ffffff" stroke="transparent" points="177,-274 177,-472 452,-472 452,-274 177,-274"/>
<polygon fill="#f5f5f5" stroke="transparent" points="179.5,-448 179.5,-470 450.5,-470 450.5,-448 179.5,-448"/>
<polygon fill="none" stroke="black" points="179.5,-448 179.5,-470 450.5,-470 450.5,-448 179.5,-448"/>
<text text-anchor="start" x="184.5" y="-457.2" font-family="Helvetica,sans-Serif" font-weight="bold" font-size="11.00">analysisunitaltdepthscales</text>
<text text-anchor="start" x="415.5" y="-456.2" font-family="Helvetica,sans-Serif" font-size="11.00">[table]</text>
<polygon fill="none" stroke="black" points="179.5,-426 179.5,-448 360.5,-448 360.5,-426 179.5,-426"/>
<image xlink:href="../../images/primaryKeys.png" width="11px" height="12px" preserveAspectRatio="xMinYMin meet" x="184.5" y="-443"/>
<text text-anchor="start" x="199.5" y="-434.2" font-family="Helvetica,sans-Serif" font-size="11.00">altdepthscaleid</text>
<polygon fill="none" stroke="black" points="360.5,-426 360.5,-448 450.5,-448 450.5,-426 360.5,-426"/>
<text text-anchor="start" x="363.5" y="-434.2" font-family="Helvetica,sans-Serif" font-size="11.00">serial[10]</text>
<polygon fill="none" stroke="black" points="179.5,-404 179.5,-426 360.5,-426 360.5,-404 179.5,-404"/>
<text text-anchor="start" x="199.5" y="-412.2" font-family="Helvetica,sans-Serif" font-size="11.00">altdepthid</text>
<polygon fill="none" stroke="black" points="360.5,-404 360.5,-426 450.5,-426 450.5,-404 360.5,-404"/>
<text text-anchor="start" x="363.5" y="-412.2" font-family="Helvetica,sans-Serif" font-size="11.00">int4[10]</text>
<polygon fill="none" stroke="black" points="179.5,-382 179.5,-404 360.5,-404 360.5,-382 179.5,-382"/>
<text text-anchor="start" x="199.5" y="-390.2" font-family="Helvetica,sans-Serif" font-size="11.00">altdepthname</text>
<polygon fill="none" stroke="black" points="360.5,-382 360.5,-404 450.5,-404 450.5,-382 360.5,-382"/>
<text text-anchor="start" x="363.5" y="-390.2" font-family="Helvetica,sans-Serif" font-size="11.00">varchar[80]</text>
<polygon fill="none" stroke="black" points="179.5,-360 179.5,-382 360.5,-382 360.5,-360 179.5,-360"/>
<image xlink:href="../../images/foreignKeys.png" width="11px" height="12px" preserveAspectRatio="xMinYMin meet" x="184.5" y="-377"/>
<text text-anchor="start" x="199.5" y="-368.2" font-family="Helvetica,sans-Serif" font-size="11.00">variableunitsid</text>
<polygon fill="none" stroke="black" points="360.5,-360 360.5,-382 450.5,-382 450.5,-360 360.5,-360"/>
<text text-anchor="start" x="363.5" y="-368.2" font-family="Helvetica,sans-Serif" font-size="11.00">int4[10]</text>
<polygon fill="none" stroke="black" points="179.5,-338 179.5,-360 360.5,-360 360.5,-338 179.5,-338"/>
<text text-anchor="start" x="199.5" y="-346.2" font-family="Helvetica,sans-Serif" font-size="11.00">notes</text>
<polygon fill="none" stroke="black" points="360.5,-338 360.5,-360 450.5,-360 450.5,-338 360.5,-338"/>
<text text-anchor="start" x="363.5" y="-346.2" font-family="Helvetica,sans-Serif" font-size="11.00">text[2147483647]</text>
<polygon fill="none" stroke="black" points="179.5,-316 179.5,-338 360.5,-338 360.5,-316 179.5,-316"/>
<text text-anchor="start" x="199.5" y="-324.2" font-family="Helvetica,sans-Serif" font-size="11.00">recdatecreated</text>
<polygon fill="none" stroke="black" points="360.5,-316 360.5,-338 450.5,-338 450.5,-316 360.5,-316"/>
<text text-anchor="start" x="363.5" y="-324.2" font-family="Helvetica,sans-Serif" font-size="11.00">timestamp[22]</text>
<polygon fill="none" stroke="black" points="179.5,-294 179.5,-316 360.5,-316 360.5,-294 179.5,-294"/>
<text text-anchor="start" x="199.5" y="-302.2" font-family="Helvetica,sans-Serif" font-size="11.00">recdatemodified</text>
<polygon fill="none" stroke="black" points="360.5,-294 360.5,-316 450.5,-316 450.5,-294 360.5,-294"/>
<text text-anchor="start" x="363.5" y="-302.2" font-family="Helvetica,sans-Serif" font-size="11.00">timestamp[22]</text>
<polygon fill="#ffffff" stroke="transparent" points="179.5,-276 179.5,-294 258.5,-294 258.5,-276 179.5,-276"/>
<polygon fill="none" stroke="black" points="179.5,-276 179.5,-294 258.5,-294 258.5,-276 179.5,-276"/>
<text text-anchor="start" x="182.5" y="-282.2" font-family="Helvetica,sans-Serif" font-size="11.00">&lt; 1</text>
<polygon fill="#ffffff" stroke="transparent" points="258.5,-276 258.5,-294 360.5,-294 360.5,-276 258.5,-276"/>
<polygon fill="none" stroke="black" points="258.5,-276 258.5,-294 360.5,-294 360.5,-276 258.5,-276"/>
<text text-anchor="start" x="318.5" y="-282.2" font-family="Helvetica,sans-Serif" font-size="11.00">59 rows</text>
<polygon fill="#ffffff" stroke="transparent" points="360.5,-276 360.5,-294 450.5,-294 450.5,-276 360.5,-276"/>
<polygon fill="none" stroke="black" points="360.5,-276 360.5,-294 450.5,-294 450.5,-276 360.5,-276"/>
<text text-anchor="start" x="431.5" y="-282.2" font-family="Helvetica,sans-Serif" font-size="11.00">1 &gt;</text>
<polygon fill="none" stroke="black" stroke-width="2" points="178,-275 178,-471 451,-471 451,-275 178,-275"/>
</a>
</g>
</g>
<!-- analysisunitaltdepths&#45;&gt;analysisunitaltdepthscales -->
<g id="edge3" class="edge">
<title>analysisunitaltdepths:w&#45;&gt;analysisunitaltdepthscales:e</title>
<path fill="none" stroke="black" d="M485.64,-451.19C474.38,-446.36 468.45,-437 451.5,-437"/>
<polygon fill="black" stroke="black" points="492.15,-452.47 499.31,-457.53 496.07,-453.23 500,-454 500,-454 500,-454 496.07,-453.23 500.69,-450.47 492.15,-452.47 492.15,-452.47"/>
<ellipse fill="none" stroke="black" cx="489.01" cy="-451.85" rx="3.2" ry="3.2"/>
</g>
<!-- analysisunitaltdepthscales&#45;&gt;variableunits -->
<g id="edge5" class="edge">
<title>analysisunitaltdepthscales:w&#45;&gt;variableunits:e</title>
<path fill="none" stroke="black" d="M164.38,-368.16C122.42,-347.56 193.06,-222 129,-222"/>
<polygon fill="black" stroke="black" points="170.66,-369.42 177.79,-374.53 174.58,-370.21 178.5,-371 178.5,-371 178.5,-371 174.58,-370.21 179.21,-367.47 170.66,-369.42 170.66,-369.42"/>
<ellipse fill="none" stroke="black" cx="167.52" cy="-368.79" rx="3.2" ry="3.2"/>
</g>
<!-- datauncertainties -->
<g id="node6" class="node">
<title>datauncertainties</title>
<g id="a_node6"><a xlink:href="../../tables/datauncertainties.html" xlink:title="datauncertainties" target="_top">
<polygon fill="#ffffff" stroke="transparent" points="247,-195 247,-253 382,-253 382,-195 247,-195"/>
<polygon fill="#f5f5f5" stroke="transparent" points="247.5,-231 247.5,-253 382.5,-253 382.5,-231 247.5,-231"/>
<polygon fill="none" stroke="black" points="247.5,-231 247.5,-253 382.5,-253 382.5,-231 247.5,-231"/>
<text text-anchor="start" x="252.5" y="-240.2" font-family="Helvetica,sans-Serif" font-weight="bold" font-size="11.00">datauncertainties</text>
<text text-anchor="start" x="347.5" y="-239.2" font-family="Helvetica,sans-Serif" font-size="11.00">[table]</text>
<polygon fill="none" stroke="black" points="247.5,-213 247.5,-231 382.5,-231 382.5,-213 247.5,-213"/>
<text text-anchor="start" x="250.5" y="-219.2" font-family="Helvetica,sans-Serif" font-size="11.00">...</text>
<polygon fill="#ffffff" stroke="transparent" points="247.5,-195 247.5,-213 299.5,-213 299.5,-195 247.5,-195"/>
<polygon fill="none" stroke="black" points="247.5,-195 247.5,-213 299.5,-213 299.5,-195 247.5,-195"/>
<text text-anchor="start" x="250.5" y="-201.2" font-family="Helvetica,sans-Serif" font-size="11.00">&lt; 3</text>
<polygon fill="#ffffff" stroke="transparent" points="299.5,-195 299.5,-213 353.5,-213 353.5,-195 299.5,-195"/>
<polygon fill="none" stroke="black" points="299.5,-195 299.5,-213 353.5,-213 353.5,-195 299.5,-195"/>
<text text-anchor="start" x="317.5" y="-201.2" font-family="Helvetica,sans-Serif" font-size="11.00">0 rows</text>
<polygon fill="#ffffff" stroke="transparent" points="353.5,-195 353.5,-213 382.5,-213 382.5,-195 353.5,-195"/>
<polygon fill="none" stroke="black" points="353.5,-195 353.5,-213 382.5,-213 382.5,-195 353.5,-195"/>
<text text-anchor="start" x="372.5" y="-201.2" font-family="Helvetica,sans-Serif" font-size="11.00"> &#160;</text>
</a>
</g>
</g>
<!-- datauncertainties&#45;&gt;variableunits -->
<g id="edge6" class="edge">
<title>datauncertainties:w&#45;&gt;variableunits:e</title>
<path fill="none" stroke="black" d="M231.98,-222C191.29,-222 176.02,-222 129,-222"/>
<polygon fill="black" stroke="black" points="238.5,-222 246.5,-225.6 242.5,-222 246.5,-222 246.5,-222 246.5,-222 242.5,-222 246.5,-218.4 238.5,-222 238.5,-222"/>
<ellipse fill="none" stroke="black" cx="235.3" cy="-222" rx="3.2" ry="3.2"/>
</g>
<!-- unitsdatasettypes -->
<g id="node7" class="node">
<title>unitsdatasettypes</title>
<g id="a_node7"><a xlink:href="../../tables/unitsdatasettypes.html" xlink:title="unitsdatasettypes" target="_top">
<polygon fill="#ffffff" stroke="transparent" points="245.5,-116 245.5,-174 383.5,-174 383.5,-116 245.5,-116"/>
<polygon fill="#f5f5f5" stroke="transparent" points="245.5,-152 245.5,-174 383.5,-174 383.5,-152 245.5,-152"/>
<polygon fill="none" stroke="black" points="245.5,-152 245.5,-174 383.5,-174 383.5,-152 245.5,-152"/>
<text text-anchor="start" x="250.5" y="-161.2" font-family="Helvetica,sans-Serif" font-weight="bold" font-size="11.00">unitsdatasettypes</text>
<text text-anchor="start" x="348.5" y="-160.2" font-family="Helvetica,sans-Serif" font-size="11.00">[table]</text>
<polygon fill="none" stroke="black" points="245.5,-134 245.5,-152 383.5,-152 383.5,-134 245.5,-134"/>
<text text-anchor="start" x="248.5" y="-140.2" font-family="Helvetica,sans-Serif" font-size="11.00">...</text>
<polygon fill="#ffffff" stroke="transparent" points="245.5,-116 245.5,-134 293.5,-134 293.5,-116 245.5,-116"/>
<polygon fill="none" stroke="black" points="245.5,-116 245.5,-134 293.5,-134 293.5,-116 245.5,-116"/>
<text text-anchor="start" x="248.5" y="-122.2" font-family="Helvetica,sans-Serif" font-size="11.00">&lt; 2</text>
<polygon fill="#ffffff" stroke="transparent" points="293.5,-116 293.5,-134 357.5,-134 357.5,-116 293.5,-116"/>
<polygon fill="none" stroke="black" points="293.5,-116 293.5,-134 357.5,-134 357.5,-116 293.5,-116"/>
<text text-anchor="start" x="309.5" y="-122.2" font-family="Helvetica,sans-Serif" font-size="11.00">672 rows</text>
<polygon fill="#ffffff" stroke="transparent" points="357.5,-116 357.5,-134 383.5,-134 383.5,-116 357.5,-116"/>
<polygon fill="none" stroke="black" points="357.5,-116 357.5,-134 383.5,-134 383.5,-116 357.5,-116"/>
<text text-anchor="start" x="373.5" y="-122.2" font-family="Helvetica,sans-Serif" font-size="11.00"> &#160;</text>
</a>
</g>
</g>
<!-- unitsdatasettypes&#45;&gt;variableunits -->
<g id="edge7" class="edge">
<title>unitsdatasettypes:w&#45;&gt;variableunits:e</title>
<path fill="none" stroke="black" d="M230.06,-144.11C203.92,-148.54 195.72,-165.64 169,-185 149.39,-199.21 153.22,-222 129,-222"/>
<polygon fill="black" stroke="black" points="236.52,-143.61 244.78,-146.59 240.51,-143.31 244.5,-143 244.5,-143 244.5,-143 240.51,-143.31 244.22,-139.41 236.52,-143.61 236.52,-143.61"/>
<ellipse fill="none" stroke="black" cx="233.33" cy="-143.86" rx="3.2" ry="3.2"/>
</g>
<!-- variables -->
<g id="node8" class="node">
<title>variables</title>
<g id="a_node8"><a xlink:href="../../tables/variables.html" xlink:title="variables" target="_top">
<polygon fill="#ffffff" stroke="transparent" points="259.5,-37 259.5,-95 369.5,-95 369.5,-37 259.5,-37"/>
<polygon fill="#f5f5f5" stroke="transparent" points="259.5,-73 259.5,-95 369.5,-95 369.5,-73 259.5,-73"/>
<polygon fill="none" stroke="black" points="259.5,-73 259.5,-95 369.5,-95 369.5,-73 259.5,-73"/>
<text text-anchor="start" x="264.5" y="-82.2" font-family="Helvetica,sans-Serif" font-weight="bold" font-size="11.00">variables</text>
<text text-anchor="start" x="334.5" y="-81.2" font-family="Helvetica,sans-Serif" font-size="11.00">[table]</text>
<polygon fill="none" stroke="black" points="259.5,-55 259.5,-73 369.5,-73 369.5,-55 259.5,-55"/>
<text text-anchor="start" x="262.5" y="-61.2" font-family="Helvetica,sans-Serif" font-size="11.00">...</text>
<polygon fill="#ffffff" stroke="transparent" points="259.5,-37 259.5,-55 281.5,-55 281.5,-37 259.5,-37"/>
<polygon fill="none" stroke="black" points="259.5,-37 259.5,-55 281.5,-55 281.5,-37 259.5,-37"/>
<text text-anchor="start" x="262.5" y="-43.2" font-family="Helvetica,sans-Serif" font-size="11.00">&lt; 4</text>
<polygon fill="#ffffff" stroke="transparent" points="281.5,-37 281.5,-55 347.5,-55 347.5,-37 281.5,-37"/>
<polygon fill="none" stroke="black" points="281.5,-37 281.5,-55 347.5,-55 347.5,-37 281.5,-37"/>
<text text-anchor="start" x="284.5" y="-43.2" font-family="Helvetica,sans-Serif" font-size="11.00">57,421 rows</text>
<polygon fill="#ffffff" stroke="transparent" points="347.5,-37 347.5,-55 369.5,-55 369.5,-37 347.5,-37"/>
<polygon fill="none" stroke="black" points="347.5,-37 347.5,-55 369.5,-55 369.5,-37 347.5,-37"/>
<text text-anchor="start" x="350.5" y="-43.2" font-family="Helvetica,sans-Serif" font-size="11.00">6 &gt;</text>
</a>
</g>
</g>
<!-- variables&#45;&gt;variableunits -->
<g id="edge8" class="edge">
<title>variables:w&#45;&gt;variableunits:e</title>
<path fill="none" stroke="black" d="M243.69,-64.43C210.45,-66.6 194.81,-77.27 169,-106 132.55,-146.56 183.53,-222 129,-222"/>
<polygon fill="black" stroke="black" points="250.5,-64.23 258.61,-67.6 254.5,-64.12 258.5,-64 258.5,-64 258.5,-64 254.5,-64.12 258.39,-60.4 250.5,-64.23 250.5,-64.23"/>
<ellipse fill="none" stroke="black" cx="247.3" cy="-64.33" rx="3.2" ry="3.2"/>
</g>
</g>
</svg>
