<?xml version="1.0" encoding="UTF-8" standalone="no"?>
<!DOCTYPE svg PUBLIC "-//W3C//DTD SVG 1.1//EN"
 "http://www.w3.org/Graphics/SVG/1.1/DTD/svg11.dtd">
<!-- Generated by graphviz version 2.43.0 (0)
 -->
<!-- Title: oneDegreeRelationshipsDiagramImplied Pages: 1 -->
<svg width="814pt" height="1163pt"
 viewBox="0.00 0.00 814.00 1163.00" xmlns="http://www.w3.org/2000/svg" xmlns:xlink="http://www.w3.org/1999/xlink">
<g id="graph0" class="graph" transform="scale(1 1) rotate(0) translate(4 1159)">
<title>oneDegreeRelationshipsDiagramImplied</title>
<polygon fill="#ffffff" stroke="transparent" points="-4,4 -4,-1159 810,-1159 810,4 -4,4"/>
<text text-anchor="middle" x="71.5" y="-7.2" font-family="Helvetica,sans-Serif" font-size="11.00">Generated by SchemaSpy</text>
<!-- accumulationrates -->
<g id="node1" class="node">
<title>accumulationrates</title>
<g id="a_node1"><a xlink:href="../../tables/accumulationrates.html" xlink:title="accumulationrates" target="_top">
<polygon fill="#ffffff" stroke="transparent" points="457.5,-1027 457.5,-1151 598.5,-1151 598.5,-1027 457.5,-1027"/>
<polygon fill="#f5f5f5" stroke="transparent" points="458,-1129 458,-1151 599,-1151 599,-1129 458,-1129"/>
<polygon fill="none" stroke="black" points="458,-1129 458,-1151 599,-1151 599,-1129 458,-1129"/>
<text text-anchor="start" x="463" y="-1138.2" font-family="Helvetica,sans-Serif" font-weight="bold" font-size="11.00">accumulationrates</text>
<text text-anchor="start" x="564" y="-1137.2" font-family="Helvetica,sans-Serif" font-size="11.00">[table]</text>
<polygon fill="none" stroke="black" points="458,-1107 458,-1129 599,-1129 599,-1107 458,-1107"/>
<image xlink:href="../../images/primaryKeys.png" width="11px" height="12px" preserveAspectRatio="xMinYMin meet" x="463" y="-1124"/>
<text text-anchor="start" x="482" y="-1115.2" font-family="Helvetica,sans-Serif" font-size="11.00">analysisunitid</text>
<polygon fill="none" stroke="black" points="458,-1085 458,-1107 599,-1107 599,-1085 458,-1085"/>
<image xlink:href="../../images/primaryKeys.png" width="11px" height="12px" preserveAspectRatio="xMinYMin meet" x="463" y="-1102"/>
<text text-anchor="start" x="482" y="-1093.2" font-family="Helvetica,sans-Serif" font-size="11.00">chronologyid</text>
<polygon fill="none" stroke="black" points="458,-1063 458,-1085 599,-1085 599,-1063 458,-1063"/>
<image xlink:href="../../images/foreignKeys.png" width="11px" height="12px" preserveAspectRatio="xMinYMin meet" x="463" y="-1080"/>
<text text-anchor="start" x="482" y="-1071.2" font-family="Helvetica,sans-Serif" font-size="11.00">variableunitsid</text>
<polygon fill="none" stroke="black" points="458,-1045 458,-1063 599,-1063 599,-1045 458,-1045"/>
<text text-anchor="start" x="461" y="-1051.2" font-family="Helvetica,sans-Serif" font-size="11.00">...</text>
<polygon fill="#ffffff" stroke="transparent" points="458,-1027 458,-1045 503,-1045 503,-1027 458,-1027"/>
<polygon fill="none" stroke="black" points="458,-1027 458,-1045 503,-1045 503,-1027 458,-1027"/>
<text text-anchor="start" x="461" y="-1033.2" font-family="Helvetica,sans-Serif" font-size="11.00">&lt; 3</text>
<polygon fill="#ffffff" stroke="transparent" points="503,-1027 503,-1045 574,-1045 574,-1027 503,-1027"/>
<polygon fill="none" stroke="black" points="503,-1027 503,-1045 574,-1045 574,-1027 503,-1027"/>
<text text-anchor="start" x="517" y="-1033.2" font-family="Helvetica,sans-Serif" font-size="11.00">1,089 rows</text>
<polygon fill="#ffffff" stroke="transparent" points="574,-1027 574,-1045 599,-1045 599,-1027 574,-1027"/>
<polygon fill="none" stroke="black" points="574,-1027 574,-1045 599,-1045 599,-1027 574,-1027"/>
<text text-anchor="start" x="589" y="-1033.2" font-family="Helvetica,sans-Serif" font-size="11.00"> &#160;</text>
</a>
</g>
</g>
<!-- analysisunits -->
<g id="node2" class="node">
<title>analysisunits</title>
<g id="a_node2"><a xlink:href="../../tables/analysisunits.html" xlink:title="analysisunits" target="_top">
<polygon fill="#ffffff" stroke="transparent" points="179,-449 179,-735 401,-735 401,-449 179,-449"/>
<polygon fill="#f5f5f5" stroke="transparent" points="181,-711 181,-733 399,-733 399,-711 181,-711"/>
<polygon fill="none" stroke="black" points="181,-711 181,-733 399,-733 399,-711 181,-711"/>
<text text-anchor="start" x="186" y="-720.2" font-family="Helvetica,sans-Serif" font-weight="bold" font-size="11.00">analysisunits</text>
<text text-anchor="start" x="364" y="-719.2" font-family="Helvetica,sans-Serif" font-size="11.00">[table]</text>
<polygon fill="none" stroke="black" points="181,-689 181,-711 309,-711 309,-689 181,-689"/>
<image xlink:href="../../images/primaryKeys.png" width="11px" height="12px" preserveAspectRatio="xMinYMin meet" x="186" y="-706"/>
<text text-anchor="start" x="201" y="-697.2" font-family="Helvetica,sans-Serif" font-size="11.00">analysisunitid</text>
<polygon fill="none" stroke="black" points="309,-689 309,-711 399,-711 399,-689 309,-689"/>
<text text-anchor="start" x="312" y="-697.2" font-family="Helvetica,sans-Serif" font-size="11.00">serial[10]</text>
<polygon fill="#ffffff" stroke="transparent" points="181,-667 181,-689 309,-689 309,-667 181,-667"/>
<polygon fill="none" stroke="black" points="181,-667 181,-689 309,-689 309,-667 181,-667"/>
<image xlink:href="../../images/foreignKeys.png" width="11px" height="12px" preserveAspectRatio="xMinYMin meet" x="186" y="-684"/>
<text text-anchor="start" x="201" y="-675.2" font-family="Helvetica,sans-Serif" font-size="11.00">collectionunitid</text>
<polygon fill="none" stroke="black" points="309,-667 309,-689 399,-689 399,-667 309,-667"/>
<text text-anchor="start" x="312" y="-675.2" font-family="Helvetica,sans-Serif" font-size="11.00">int4[10]</text>
<polygon fill="none" stroke="black" points="181,-645 181,-667 309,-667 309,-645 181,-645"/>
<text text-anchor="start" x="201" y="-653.2" font-family="Helvetica,sans-Serif" font-size="11.00">analysisunitname</text>
<polygon fill="none" stroke="black" points="309,-645 309,-667 399,-667 399,-645 309,-645"/>
<text text-anchor="start" x="312" y="-653.2" font-family="Helvetica,sans-Serif" font-size="11.00">varchar[80]</text>
<polygon fill="none" stroke="black" points="181,-623 181,-645 309,-645 309,-623 181,-623"/>
<text text-anchor="start" x="201" y="-631.2" font-family="Helvetica,sans-Serif" font-size="11.00">depth</text>
<polygon fill="none" stroke="black" points="309,-623 309,-645 399,-645 399,-623 309,-623"/>
<text text-anchor="start" x="312" y="-631.2" font-family="Helvetica,sans-Serif" font-size="11.00">float8[17,17]</text>
<polygon fill="none" stroke="black" points="181,-601 181,-623 309,-623 309,-601 181,-601"/>
<text text-anchor="start" x="201" y="-609.2" font-family="Helvetica,sans-Serif" font-size="11.00">thickness</text>
<polygon fill="none" stroke="black" points="309,-601 309,-623 399,-623 399,-601 309,-601"/>
<text text-anchor="start" x="312" y="-609.2" font-family="Helvetica,sans-Serif" font-size="11.00">float8[17,17]</text>
<polygon fill="#ffffff" stroke="transparent" points="181,-579 181,-601 309,-601 309,-579 181,-579"/>
<polygon fill="none" stroke="black" points="181,-579 181,-601 309,-601 309,-579 181,-579"/>
<image xlink:href="../../images/foreignKeys.png" width="11px" height="12px" preserveAspectRatio="xMinYMin meet" x="186" y="-596"/>
<text text-anchor="start" x="201" y="-587.2" font-family="Helvetica,sans-Serif" font-size="11.00">faciesid</text>
<polygon fill="none" stroke="black" points="309,-579 309,-601 399,-601 399,-579 309,-579"/>
<text text-anchor="start" x="312" y="-587.2" font-family="Helvetica,sans-Serif" font-size="11.00">int4[10]</text>
<polygon fill="none" stroke="black" points="181,-557 181,-579 309,-579 309,-557 181,-557"/>
<text text-anchor="start" x="201" y="-565.2" font-family="Helvetica,sans-Serif" font-size="11.00">mixed</text>
<polygon fill="none" stroke="black" points="309,-557 309,-579 399,-579 399,-557 309,-557"/>
<text text-anchor="start" x="312" y="-565.2" font-family="Helvetica,sans-Serif" font-size="11.00">bool[1]</text>
<polygon fill="none" stroke="black" points="181,-535 181,-557 309,-557 309,-535 181,-535"/>
<text text-anchor="start" x="201" y="-543.2" font-family="Helvetica,sans-Serif" font-size="11.00">igsn</text>
<polygon fill="none" stroke="black" points="309,-535 309,-557 399,-557 399,-535 309,-535"/>
<text text-anchor="start" x="312" y="-543.2" font-family="Helvetica,sans-Serif" font-size="11.00">varchar[40]</text>
<polygon fill="none" stroke="black" points="181,-513 181,-535 309,-535 309,-513 181,-513"/>
<text text-anchor="start" x="201" y="-521.2" font-family="Helvetica,sans-Serif" font-size="11.00">notes</text>
<polygon fill="none" stroke="black" points="309,-513 309,-535 399,-535 399,-513 309,-513"/>
<text text-anchor="start" x="312" y="-521.2" font-family="Helvetica,sans-Serif" font-size="11.00">text[2147483647]</text>
<polygon fill="none" stroke="black" points="181,-491 181,-513 309,-513 309,-491 181,-491"/>
<text text-anchor="start" x="201" y="-499.2" font-family="Helvetica,sans-Serif" font-size="11.00">recdatecreated</text>
<polygon fill="none" stroke="black" points="309,-491 309,-513 399,-513 399,-491 309,-491"/>
<text text-anchor="start" x="312" y="-499.2" font-family="Helvetica,sans-Serif" font-size="11.00">timestamp[22]</text>
<polygon fill="none" stroke="black" points="181,-469 181,-491 309,-491 309,-469 181,-469"/>
<text text-anchor="start" x="201" y="-477.2" font-family="Helvetica,sans-Serif" font-size="11.00">recdatemodified</text>
<polygon fill="none" stroke="black" points="309,-469 309,-491 399,-491 399,-469 309,-469"/>
<text text-anchor="start" x="312" y="-477.2" font-family="Helvetica,sans-Serif" font-size="11.00">timestamp[22]</text>
<polygon fill="#ffffff" stroke="transparent" points="181,-451 181,-469 220,-469 220,-451 181,-451"/>
<polygon fill="none" stroke="black" points="181,-451 181,-469 220,-469 220,-451 181,-451"/>
<text text-anchor="start" x="184" y="-457.2" font-family="Helvetica,sans-Serif" font-size="11.00">&lt; 2</text>
<polygon fill="#ffffff" stroke="transparent" points="220,-451 220,-469 309,-469 309,-451 220,-451"/>
<polygon fill="none" stroke="black" points="220,-451 220,-469 309,-469 309,-451 220,-451"/>
<text text-anchor="start" x="240" y="-457.2" font-family="Helvetica,sans-Serif" font-size="11.00">449,200 rows</text>
<polygon fill="#ffffff" stroke="transparent" points="309,-451 309,-469 399,-469 399,-451 309,-451"/>
<polygon fill="none" stroke="black" points="309,-451 309,-469 399,-469 399,-451 309,-451"/>
<text text-anchor="start" x="380" y="-457.2" font-family="Helvetica,sans-Serif" font-size="11.00">9 &gt;</text>
<polygon fill="none" stroke="black" stroke-width="2" points="180,-450 180,-734 400,-734 400,-450 180,-450"/>
</a>
</g>
</g>
<!-- accumulationrates&#45;&gt;analysisunits -->
<g id="edge1" class="edge">
<title>accumulationrates:w&#45;&gt;analysisunits:e</title>
<path fill="none" stroke="black" d="M442.74,-1113.86C377.77,-1070.45 488.26,-700 400,-700"/>
<polygon fill="black" stroke="black" points="449.32,-1115.77 456,-1121.46 453.16,-1116.89 457,-1118 457,-1118 457,-1118 453.16,-1116.89 458,-1114.54 449.32,-1115.77 449.32,-1115.77"/>
<ellipse fill="none" stroke="black" cx="446.24" cy="-1114.88" rx="3.2" ry="3.2"/>
</g>
<!-- collectionunits -->
<g id="node5" class="node">
<title>collectionunits</title>
<g id="a_node5"><a xlink:href="../../tables/collectionunits.html" xlink:title="collectionunits" target="_top">
<polygon fill="#ffffff" stroke="transparent" points="8,-594 8,-762 130,-762 130,-594 8,-594"/>
<polygon fill="#f5f5f5" stroke="transparent" points="8,-740 8,-762 130,-762 130,-740 8,-740"/>
<polygon fill="none" stroke="black" points="8,-740 8,-762 130,-762 130,-740 8,-740"/>
<text text-anchor="start" x="13" y="-749.2" font-family="Helvetica,sans-Serif" font-weight="bold" font-size="11.00">collectionunits</text>
<text text-anchor="start" x="95" y="-748.2" font-family="Helvetica,sans-Serif" font-size="11.00">[table]</text>
<polygon fill="none" stroke="black" points="8,-718 8,-740 130,-740 130,-718 8,-718"/>
<image xlink:href="../../images/primaryKeys.png" width="11px" height="12px" preserveAspectRatio="xMinYMin meet" x="13" y="-735"/>
<text text-anchor="start" x="29" y="-726.2" font-family="Helvetica,sans-Serif" font-size="11.00">collectionunitid</text>
<polygon fill="#ffffff" stroke="transparent" points="8,-696 8,-718 130,-718 130,-696 8,-696"/>
<polygon fill="none" stroke="black" points="8,-696 8,-718 130,-718 130,-696 8,-696"/>
<image xlink:href="../../images/foreignKeys.png" width="11px" height="12px" preserveAspectRatio="xMinYMin meet" x="13" y="-713"/>
<text text-anchor="start" x="29" y="-704.2" font-family="Helvetica,sans-Serif" font-size="11.00">siteid</text>
<polygon fill="none" stroke="black" points="8,-674 8,-696 130,-696 130,-674 8,-674"/>
<image xlink:href="../../images/foreignKeys.png" width="11px" height="12px" preserveAspectRatio="xMinYMin meet" x="13" y="-691"/>
<text text-anchor="start" x="29" y="-682.2" font-family="Helvetica,sans-Serif" font-size="11.00">colltypeid</text>
<polygon fill="#ffffff" stroke="transparent" points="8,-652 8,-674 130,-674 130,-652 8,-652"/>
<polygon fill="none" stroke="black" points="8,-652 8,-674 130,-674 130,-652 8,-652"/>
<image xlink:href="../../images/foreignKeys.png" width="11px" height="12px" preserveAspectRatio="xMinYMin meet" x="13" y="-669"/>
<text text-anchor="start" x="29" y="-660.2" font-family="Helvetica,sans-Serif" font-size="11.00">depenvtid</text>
<polygon fill="none" stroke="black" points="8,-630 8,-652 130,-652 130,-630 8,-630"/>
<image xlink:href="../../images/foreignKeys.png" width="11px" height="12px" preserveAspectRatio="xMinYMin meet" x="13" y="-647"/>
<text text-anchor="start" x="29" y="-638.2" font-family="Helvetica,sans-Serif" font-size="11.00">substrateid</text>
<polygon fill="none" stroke="black" points="8,-612 8,-630 130,-630 130,-612 8,-612"/>
<text text-anchor="start" x="11" y="-618.2" font-family="Helvetica,sans-Serif" font-size="11.00">...</text>
<polygon fill="#ffffff" stroke="transparent" points="8,-594 8,-612 36,-612 36,-594 8,-594"/>
<polygon fill="none" stroke="black" points="8,-594 8,-612 36,-612 36,-594 8,-594"/>
<text text-anchor="start" x="11" y="-600.2" font-family="Helvetica,sans-Serif" font-size="11.00">&lt; 4</text>
<polygon fill="#ffffff" stroke="transparent" points="36,-594 36,-612 105,-612 105,-594 36,-594"/>
<polygon fill="none" stroke="black" points="36,-594 36,-612 105,-612 105,-594 36,-594"/>
<text text-anchor="start" x="42" y="-600.2" font-family="Helvetica,sans-Serif" font-size="11.00">32,827 rows</text>
<polygon fill="#ffffff" stroke="transparent" points="105,-594 105,-612 130,-612 130,-594 105,-594"/>
<polygon fill="none" stroke="black" points="105,-594 105,-612 130,-612 130,-594 105,-594"/>
<text text-anchor="start" x="111" y="-600.2" font-family="Helvetica,sans-Serif" font-size="11.00">5 &gt;</text>
</a>
</g>
</g>
<!-- analysisunits&#45;&gt;collectionunits -->
<g id="edge4" class="edge">
<title>analysisunits:w&#45;&gt;collectionunits:e</title>
<path fill="none" stroke="black" d="M166.09,-683.08C152.26,-695.98 156.29,-729 131,-729"/>
<polygon fill="black" stroke="black" points="172.48,-680.74 181.23,-681.38 176.24,-679.37 180,-678 180,-678 180,-678 176.24,-679.37 178.77,-674.62 172.48,-680.74 172.48,-680.74"/>
<ellipse fill="none" stroke="black" cx="169.48" cy="-681.84" rx="3.2" ry="3.2"/>
</g>
<!-- faciestypes -->
<g id="node6" class="node">
<title>faciestypes</title>
<g id="a_node6"><a xlink:href="../../tables/faciestypes.html" xlink:title="faciestypes" target="_top">
<polygon fill="#ffffff" stroke="transparent" points="9,-493 9,-573 129,-573 129,-493 9,-493"/>
<polygon fill="#f5f5f5" stroke="transparent" points="9,-551 9,-573 129,-573 129,-551 9,-551"/>
<polygon fill="none" stroke="black" points="9,-551 9,-573 129,-573 129,-551 9,-551"/>
<text text-anchor="start" x="14" y="-560.2" font-family="Helvetica,sans-Serif" font-weight="bold" font-size="11.00">faciestypes</text>
<text text-anchor="start" x="94" y="-559.2" font-family="Helvetica,sans-Serif" font-size="11.00">[table]</text>
<polygon fill="none" stroke="black" points="9,-529 9,-551 129,-551 129,-529 9,-529"/>
<image xlink:href="../../images/primaryKeys.png" width="11px" height="12px" preserveAspectRatio="xMinYMin meet" x="14" y="-546"/>
<text text-anchor="start" x="29" y="-537.2" font-family="Helvetica,sans-Serif" font-size="11.00">faciesid</text>
<polygon fill="none" stroke="black" points="9,-511 9,-529 129,-529 129,-511 9,-511"/>
<text text-anchor="start" x="12" y="-517.2" font-family="Helvetica,sans-Serif" font-size="11.00">...</text>
<polygon fill="#ffffff" stroke="transparent" points="9,-493 9,-511 39,-511 39,-493 9,-493"/>
<polygon fill="none" stroke="black" points="9,-493 9,-511 39,-511 39,-493 9,-493"/>
<text text-anchor="start" x="12" y="-499.2" font-family="Helvetica,sans-Serif" font-size="11.00"> &#160;</text>
<polygon fill="#ffffff" stroke="transparent" points="39,-493 39,-511 98,-511 98,-493 39,-493"/>
<polygon fill="none" stroke="black" points="39,-493 39,-511 98,-511 98,-493 39,-493"/>
<text text-anchor="start" x="50" y="-499.2" font-family="Helvetica,sans-Serif" font-size="11.00">103 rows</text>
<polygon fill="#ffffff" stroke="transparent" points="98,-493 98,-511 129,-511 129,-493 98,-493"/>
<polygon fill="none" stroke="black" points="98,-493 98,-511 129,-511 129,-493 98,-493"/>
<text text-anchor="start" x="110" y="-499.2" font-family="Helvetica,sans-Serif" font-size="11.00">1 &gt;</text>
</a>
</g>
</g>
<!-- analysisunits&#45;&gt;faciestypes -->
<g id="edge5" class="edge">
<title>analysisunits:w&#45;&gt;faciestypes:e</title>
<path fill="none" stroke="black" d="M165.99,-585.02C151.9,-572.38 155.29,-540 130,-540"/>
<polygon fill="black" stroke="black" points="172.46,-587.32 178.79,-593.39 176.23,-588.66 180,-590 180,-590 180,-590 176.23,-588.66 181.21,-586.61 172.46,-587.32 172.46,-587.32"/>
<ellipse fill="none" stroke="black" cx="169.45" cy="-586.25" rx="3.2" ry="3.2"/>
</g>
<!-- analysisunitaltdepths -->
<g id="node3" class="node">
<title>analysisunitaltdepths</title>
<g id="a_node3"><a xlink:href="../../tables/analysisunitaltdepths.html" xlink:title="analysisunitaltdepths" target="_top">
<polygon fill="#ffffff" stroke="transparent" points="450,-904 450,-1006 606,-1006 606,-904 450,-904"/>
<polygon fill="#f5f5f5" stroke="transparent" points="450,-984 450,-1006 606,-1006 606,-984 450,-984"/>
<polygon fill="none" stroke="black" points="450,-984 450,-1006 606,-1006 606,-984 450,-984"/>
<text text-anchor="start" x="455" y="-993.2" font-family="Helvetica,sans-Serif" font-weight="bold" font-size="11.00">analysisunitaltdepths</text>
<text text-anchor="start" x="571" y="-992.2" font-family="Helvetica,sans-Serif" font-size="11.00">[table]</text>
<polygon fill="none" stroke="black" points="450,-962 450,-984 606,-984 606,-962 450,-962"/>
<image xlink:href="../../images/primaryKeys.png" width="11px" height="12px" preserveAspectRatio="xMinYMin meet" x="455" y="-979"/>
<text text-anchor="start" x="473" y="-970.2" font-family="Helvetica,sans-Serif" font-size="11.00">analysisunitid</text>
<polygon fill="none" stroke="black" points="450,-940 450,-962 606,-962 606,-940 450,-940"/>
<image xlink:href="../../images/primaryKeys.png" width="11px" height="12px" preserveAspectRatio="xMinYMin meet" x="455" y="-957"/>
<text text-anchor="start" x="473" y="-948.2" font-family="Helvetica,sans-Serif" font-size="11.00">altdepthscaleid</text>
<polygon fill="none" stroke="black" points="450,-922 450,-940 606,-940 606,-922 450,-922"/>
<text text-anchor="start" x="453" y="-928.2" font-family="Helvetica,sans-Serif" font-size="11.00">...</text>
<polygon fill="#ffffff" stroke="transparent" points="450,-904 450,-922 502,-922 502,-904 450,-904"/>
<polygon fill="none" stroke="black" points="450,-904 450,-922 502,-922 502,-904 450,-904"/>
<text text-anchor="start" x="453" y="-910.2" font-family="Helvetica,sans-Serif" font-size="11.00">&lt; 2</text>
<polygon fill="#ffffff" stroke="transparent" points="502,-904 502,-922 577,-922 577,-904 502,-904"/>
<polygon fill="none" stroke="black" points="502,-904 502,-922 577,-922 577,-904 502,-904"/>
<text text-anchor="start" x="520" y="-910.2" font-family="Helvetica,sans-Serif" font-size="11.00">7,395 rows</text>
<polygon fill="#ffffff" stroke="transparent" points="577,-904 577,-922 606,-922 606,-904 577,-904"/>
<polygon fill="none" stroke="black" points="577,-904 577,-922 606,-922 606,-904 577,-904"/>
<text text-anchor="start" x="596" y="-910.2" font-family="Helvetica,sans-Serif" font-size="11.00"> &#160;</text>
</a>
</g>
</g>
<!-- analysisunitaltdepths&#45;&gt;analysisunits -->
<g id="edge2" class="edge">
<title>analysisunitaltdepths:w&#45;&gt;analysisunits:e</title>
<path fill="none" stroke="black" d="M435.71,-967.04C399.37,-927.12 456.22,-700 400,-700"/>
<polygon fill="black" stroke="black" points="441.7,-969.73 447.53,-976.29 445.35,-971.36 449,-973 449,-973 449,-973 445.35,-971.36 450.47,-969.71 441.7,-969.73 441.7,-969.73"/>
<ellipse fill="none" stroke="black" cx="438.78" cy="-968.42" rx="3.2" ry="3.2"/>
</g>
<!-- analysisunitlithostrat -->
<g id="node4" class="node">
<title>analysisunitlithostrat</title>
<g id="a_node4"><a xlink:href="../../tables/analysisunitlithostrat.html" xlink:title="analysisunitlithostrat" target="_top">
<polygon fill="#ffffff" stroke="transparent" points="450.5,-781 450.5,-883 605.5,-883 605.5,-781 450.5,-781"/>
<polygon fill="#f5f5f5" stroke="transparent" points="451,-861 451,-883 606,-883 606,-861 451,-861"/>
<polygon fill="none" stroke="black" points="451,-861 451,-883 606,-883 606,-861 451,-861"/>
<text text-anchor="start" x="456" y="-870.2" font-family="Helvetica,sans-Serif" font-weight="bold" font-size="11.00">analysisunitlithostrat</text>
<text text-anchor="start" x="571" y="-869.2" font-family="Helvetica,sans-Serif" font-size="11.00">[table]</text>
<polygon fill="none" stroke="black" points="451,-839 451,-861 606,-861 606,-839 451,-839"/>
<image xlink:href="../../images/primaryKeys.png" width="11px" height="12px" preserveAspectRatio="xMinYMin meet" x="456" y="-856"/>
<text text-anchor="start" x="473" y="-847.2" font-family="Helvetica,sans-Serif" font-size="11.00">analysisunitid</text>
<polygon fill="none" stroke="black" points="451,-817 451,-839 606,-839 606,-817 451,-817"/>
<image xlink:href="../../images/primaryKeys.png" width="11px" height="12px" preserveAspectRatio="xMinYMin meet" x="456" y="-834"/>
<text text-anchor="start" x="473" y="-825.2" font-family="Helvetica,sans-Serif" font-size="11.00">lithostratid</text>
<polygon fill="none" stroke="black" points="451,-799 451,-817 606,-817 606,-799 451,-799"/>
<text text-anchor="start" x="454" y="-805.2" font-family="Helvetica,sans-Serif" font-size="11.00">...</text>
<polygon fill="#ffffff" stroke="transparent" points="451,-781 451,-799 513,-799 513,-781 451,-781"/>
<polygon fill="none" stroke="black" points="451,-781 451,-799 513,-799 513,-781 451,-781"/>
<text text-anchor="start" x="454" y="-787.2" font-family="Helvetica,sans-Serif" font-size="11.00">&lt; 2</text>
<polygon fill="#ffffff" stroke="transparent" points="513,-781 513,-799 572,-799 572,-781 513,-781"/>
<polygon fill="none" stroke="black" points="513,-781 513,-799 572,-799 572,-781 513,-781"/>
<text text-anchor="start" x="536" y="-787.2" font-family="Helvetica,sans-Serif" font-size="11.00">0 rows</text>
<polygon fill="#ffffff" stroke="transparent" points="572,-781 572,-799 606,-799 606,-781 572,-781"/>
<polygon fill="none" stroke="black" points="572,-781 572,-799 606,-799 606,-781 572,-781"/>
<text text-anchor="start" x="596" y="-787.2" font-family="Helvetica,sans-Serif" font-size="11.00"> &#160;</text>
</a>
</g>
</g>
<!-- analysisunitlithostrat&#45;&gt;analysisunits -->
<g id="edge3" class="edge">
<title>analysisunitlithostrat:w&#45;&gt;analysisunits:e</title>
<path fill="none" stroke="black" d="M435.78,-847.14C393.5,-826.4 464.51,-700 400,-700"/>
<polygon fill="black" stroke="black" points="442.16,-848.42 449.29,-853.53 446.08,-849.21 450,-850 450,-850 450,-850 446.08,-849.21 450.71,-846.47 442.16,-848.42 442.16,-848.42"/>
<ellipse fill="none" stroke="black" cx="439.02" cy="-847.79" rx="3.2" ry="3.2"/>
</g>
<!-- chroncontrols -->
<g id="node7" class="node">
<title>chroncontrols</title>
<g id="a_node7"><a xlink:href="../../tables/chroncontrols.html" xlink:title="chroncontrols" target="_top">
<polygon fill="#ffffff" stroke="transparent" points="459.5,-376 459.5,-610 596.5,-610 596.5,-376 459.5,-376"/>
<polygon fill="#f5f5f5" stroke="transparent" points="460,-588 460,-610 597,-610 597,-588 460,-588"/>
<polygon fill="none" stroke="black" points="460,-588 460,-610 597,-610 597,-588 460,-588"/>
<text text-anchor="start" x="465" y="-597.2" font-family="Helvetica,sans-Serif" font-weight="bold" font-size="11.00">chroncontrols</text>
<text text-anchor="start" x="562" y="-596.2" font-family="Helvetica,sans-Serif" font-size="11.00">[table]</text>
<polygon fill="none" stroke="black" points="460,-566 460,-588 597,-588 597,-566 460,-566"/>
<image xlink:href="../../images/primaryKeys.png" width="11px" height="12px" preserveAspectRatio="xMinYMin meet" x="465" y="-583"/>
<text text-anchor="start" x="480" y="-574.2" font-family="Helvetica,sans-Serif" font-size="11.00">chroncontrolid</text>
<polygon fill="none" stroke="black" points="460,-544 460,-566 597,-566 597,-544 460,-544"/>
<image xlink:href="../../images/foreignKeys.png" width="11px" height="12px" preserveAspectRatio="xMinYMin meet" x="465" y="-561"/>
<text text-anchor="start" x="480" y="-552.2" font-family="Helvetica,sans-Serif" font-size="11.00">chronologyid</text>
<polygon fill="none" stroke="black" points="460,-522 460,-544 597,-544 597,-522 460,-522"/>
<image xlink:href="../../images/foreignKeys.png" width="11px" height="12px" preserveAspectRatio="xMinYMin meet" x="465" y="-539"/>
<text text-anchor="start" x="480" y="-530.2" font-family="Helvetica,sans-Serif" font-size="11.00">chroncontroltypeid</text>
<polygon fill="#ffffff" stroke="transparent" points="460,-500 460,-522 597,-522 597,-500 460,-500"/>
<polygon fill="none" stroke="black" points="460,-500 460,-522 597,-522 597,-500 460,-500"/>
<text text-anchor="start" x="480" y="-508.2" font-family="Helvetica,sans-Serif" font-size="11.00">age</text>
<polygon fill="#ffffff" stroke="transparent" points="460,-478 460,-500 597,-500 597,-478 460,-478"/>
<polygon fill="none" stroke="black" points="460,-478 460,-500 597,-500 597,-478 460,-478"/>
<text text-anchor="start" x="480" y="-486.2" font-family="Helvetica,sans-Serif" font-size="11.00">agelimityounger</text>
<polygon fill="#ffffff" stroke="transparent" points="460,-456 460,-478 597,-478 597,-456 460,-456"/>
<polygon fill="none" stroke="black" points="460,-456 460,-478 597,-478 597,-456 460,-456"/>
<text text-anchor="start" x="480" y="-464.2" font-family="Helvetica,sans-Serif" font-size="11.00">agelimitolder</text>
<polygon fill="none" stroke="black" points="460,-434 460,-456 597,-456 597,-434 460,-434"/>
<image xlink:href="../../images/foreignKeys.png" width="11px" height="12px" preserveAspectRatio="xMinYMin meet" x="465" y="-451"/>
<text text-anchor="start" x="480" y="-442.2" font-family="Helvetica,sans-Serif" font-size="11.00">analysisunitid</text>
<polygon fill="none" stroke="black" points="460,-412 460,-434 597,-434 597,-412 460,-412"/>
<image xlink:href="../../images/foreignKeys.png" width="11px" height="12px" preserveAspectRatio="xMinYMin meet" x="465" y="-429"/>
<text text-anchor="start" x="480" y="-420.2" font-family="Helvetica,sans-Serif" font-size="11.00">agetypeid</text>
<polygon fill="none" stroke="black" points="460,-394 460,-412 597,-412 597,-394 460,-394"/>
<text text-anchor="start" x="463" y="-400.2" font-family="Helvetica,sans-Serif" font-size="11.00">...</text>
<polygon fill="#ffffff" stroke="transparent" points="460,-376 460,-394 492,-394 492,-376 460,-376"/>
<polygon fill="none" stroke="black" points="460,-376 460,-394 492,-394 492,-376 460,-376"/>
<text text-anchor="start" x="463" y="-382.2" font-family="Helvetica,sans-Serif" font-size="11.00">&lt; 4</text>
<polygon fill="#ffffff" stroke="transparent" points="492,-376 492,-394 569,-394 569,-376 492,-376"/>
<polygon fill="none" stroke="black" points="492,-376 492,-394 569,-394 569,-376 492,-376"/>
<text text-anchor="start" x="500" y="-382.2" font-family="Helvetica,sans-Serif" font-size="11.00">100,724 rows</text>
<polygon fill="#ffffff" stroke="transparent" points="569,-376 569,-394 597,-394 597,-376 569,-376"/>
<polygon fill="none" stroke="black" points="569,-376 569,-394 597,-394 597,-376 569,-376"/>
<text text-anchor="start" x="578" y="-382.2" font-family="Helvetica,sans-Serif" font-size="11.00">5 &gt;</text>
</a>
</g>
</g>
<!-- chroncontrols&#45;&gt;analysisunits -->
<g id="edge6" class="edge">
<title>chroncontrols:w&#45;&gt;analysisunits:e</title>
<path fill="none" stroke="black" d="M445.5,-451.3C410.57,-490.57 452.71,-700 400,-700"/>
<polygon fill="black" stroke="black" points="451.75,-448.38 460.52,-448.26 455.38,-446.69 459,-445 459,-445 459,-445 455.38,-446.69 457.48,-441.74 451.75,-448.38 451.75,-448.38"/>
<ellipse fill="none" stroke="black" cx="448.85" cy="-449.74" rx="3.2" ry="3.2"/>
</g>
<!-- depagents -->
<g id="node8" class="node">
<title>depagents</title>
<g id="a_node8"><a xlink:href="../../tables/depagents.html" xlink:title="depagents" target="_top">
<polygon fill="#ffffff" stroke="transparent" points="468,-631 468,-733 588,-733 588,-631 468,-631"/>
<polygon fill="#f5f5f5" stroke="transparent" points="468,-711 468,-733 588,-733 588,-711 468,-711"/>
<polygon fill="none" stroke="black" points="468,-711 468,-733 588,-733 588,-711 468,-711"/>
<text text-anchor="start" x="473" y="-720.2" font-family="Helvetica,sans-Serif" font-weight="bold" font-size="11.00">depagents</text>
<text text-anchor="start" x="553" y="-719.2" font-family="Helvetica,sans-Serif" font-size="11.00">[table]</text>
<polygon fill="none" stroke="black" points="468,-689 468,-711 588,-711 588,-689 468,-689"/>
<image xlink:href="../../images/primaryKeys.png" width="11px" height="12px" preserveAspectRatio="xMinYMin meet" x="473" y="-706"/>
<text text-anchor="start" x="488" y="-697.2" font-family="Helvetica,sans-Serif" font-size="11.00">analysisunitid</text>
<polygon fill="none" stroke="black" points="468,-667 468,-689 588,-689 588,-667 468,-667"/>
<image xlink:href="../../images/primaryKeys.png" width="11px" height="12px" preserveAspectRatio="xMinYMin meet" x="473" y="-684"/>
<text text-anchor="start" x="488" y="-675.2" font-family="Helvetica,sans-Serif" font-size="11.00">depagentid</text>
<polygon fill="none" stroke="black" points="468,-649 468,-667 588,-667 588,-649 468,-649"/>
<text text-anchor="start" x="471" y="-655.2" font-family="Helvetica,sans-Serif" font-size="11.00">...</text>
<polygon fill="#ffffff" stroke="transparent" points="468,-631 468,-649 502,-649 502,-631 468,-631"/>
<polygon fill="none" stroke="black" points="468,-631 468,-649 502,-649 502,-631 468,-631"/>
<text text-anchor="start" x="471" y="-637.2" font-family="Helvetica,sans-Serif" font-size="11.00">&lt; 2</text>
<polygon fill="#ffffff" stroke="transparent" points="502,-631 502,-649 568,-649 568,-631 502,-631"/>
<polygon fill="none" stroke="black" points="502,-631 502,-649 568,-649 568,-631 502,-631"/>
<text text-anchor="start" x="511" y="-637.2" font-family="Helvetica,sans-Serif" font-size="11.00">5,273 rows</text>
<polygon fill="#ffffff" stroke="transparent" points="568,-631 568,-649 588,-649 588,-631 568,-631"/>
<polygon fill="none" stroke="black" points="568,-631 568,-649 588,-649 588,-631 568,-631"/>
<text text-anchor="start" x="578" y="-637.2" font-family="Helvetica,sans-Serif" font-size="11.00"> &#160;</text>
</a>
</g>
</g>
<!-- depagents&#45;&gt;analysisunits -->
<g id="edge7" class="edge">
<title>depagents:w&#45;&gt;analysisunits:e</title>
<path fill="none" stroke="black" d="M452.58,-700C433.74,-700 424.31,-700 400,-700"/>
<polygon fill="black" stroke="black" points="459,-700 467,-703.6 463,-700 467,-700 467,-700 467,-700 463,-700 467,-696.4 459,-700 459,-700"/>
<ellipse fill="none" stroke="black" cx="455.8" cy="-700" rx="3.2" ry="3.2"/>
</g>
<!-- eventchronology -->
<g id="node9" class="node">
<title>eventchronology</title>
<g id="a_node9"><a xlink:href="../../tables/eventchronology.html" xlink:title="eventchronology" target="_top">
<polygon fill="#ffffff" stroke="transparent" points="659.5,-598 659.5,-744 793.5,-744 793.5,-598 659.5,-598"/>
<polygon fill="#f5f5f5" stroke="transparent" points="659.5,-722 659.5,-744 793.5,-744 793.5,-722 659.5,-722"/>
<polygon fill="none" stroke="black" points="659.5,-722 659.5,-744 793.5,-744 793.5,-722 659.5,-722"/>
<text text-anchor="start" x="664.5" y="-731.2" font-family="Helvetica,sans-Serif" font-weight="bold" font-size="11.00">eventchronology</text>
<text text-anchor="start" x="758.5" y="-730.2" font-family="Helvetica,sans-Serif" font-size="11.00">[table]</text>
<polygon fill="none" stroke="black" points="659.5,-700 659.5,-722 793.5,-722 793.5,-700 659.5,-700"/>
<image xlink:href="../../images/primaryKeys.png" width="11px" height="12px" preserveAspectRatio="xMinYMin meet" x="664.5" y="-717"/>
<text text-anchor="start" x="679.5" y="-708.2" font-family="Helvetica,sans-Serif" font-size="11.00">eventchronologyid</text>
<polygon fill="#ffffff" stroke="transparent" points="659.5,-678 659.5,-700 793.5,-700 793.5,-678 659.5,-678"/>
<polygon fill="none" stroke="black" points="659.5,-678 659.5,-700 793.5,-700 793.5,-678 659.5,-678"/>
<image xlink:href="../../images/foreignKeys.png" width="11px" height="12px" preserveAspectRatio="xMinYMin meet" x="664.5" y="-695"/>
<text text-anchor="start" x="679.5" y="-686.2" font-family="Helvetica,sans-Serif" font-size="11.00">analysisunitid</text>
<polygon fill="#ffffff" stroke="transparent" points="659.5,-656 659.5,-678 793.5,-678 793.5,-656 659.5,-656"/>
<polygon fill="none" stroke="black" points="659.5,-656 659.5,-678 793.5,-678 793.5,-656 659.5,-656"/>
<image xlink:href="../../images/foreignKeys.png" width="11px" height="12px" preserveAspectRatio="xMinYMin meet" x="664.5" y="-673"/>
<text text-anchor="start" x="679.5" y="-664.2" font-family="Helvetica,sans-Serif" font-size="11.00">eventid</text>
<polygon fill="#ffffff" stroke="transparent" points="659.5,-634 659.5,-656 793.5,-656 793.5,-634 659.5,-634"/>
<polygon fill="none" stroke="black" points="659.5,-634 659.5,-656 793.5,-656 793.5,-634 659.5,-634"/>
<image xlink:href="../../images/foreignKeys.png" width="11px" height="12px" preserveAspectRatio="xMinYMin meet" x="664.5" y="-651"/>
<text text-anchor="start" x="679.5" y="-642.2" font-family="Helvetica,sans-Serif" font-size="11.00">chroncontrolid</text>
<polygon fill="none" stroke="black" points="659.5,-616 659.5,-634 793.5,-634 793.5,-616 659.5,-616"/>
<text text-anchor="start" x="662.5" y="-622.2" font-family="Helvetica,sans-Serif" font-size="11.00">...</text>
<polygon fill="#ffffff" stroke="transparent" points="659.5,-598 659.5,-616 705.5,-616 705.5,-598 659.5,-598"/>
<polygon fill="none" stroke="black" points="659.5,-598 659.5,-616 705.5,-616 705.5,-598 659.5,-598"/>
<text text-anchor="start" x="662.5" y="-604.2" font-family="Helvetica,sans-Serif" font-size="11.00">&lt; 3</text>
<polygon fill="#ffffff" stroke="transparent" points="705.5,-598 705.5,-616 768.5,-616 768.5,-598 705.5,-598"/>
<polygon fill="none" stroke="black" points="705.5,-598 705.5,-616 768.5,-616 768.5,-598 705.5,-598"/>
<text text-anchor="start" x="720.5" y="-604.2" font-family="Helvetica,sans-Serif" font-size="11.00">271 rows</text>
<polygon fill="#ffffff" stroke="transparent" points="768.5,-598 768.5,-616 793.5,-616 793.5,-598 768.5,-598"/>
<polygon fill="none" stroke="black" points="768.5,-598 768.5,-616 793.5,-616 793.5,-598 768.5,-598"/>
<text text-anchor="start" x="783.5" y="-604.2" font-family="Helvetica,sans-Serif" font-size="11.00"> &#160;</text>
</a>
</g>
</g>
<!-- eventchronology&#45;&gt;analysisunits -->
<g id="edge8" class="edge">
<title>eventchronology:w&#45;&gt;analysisunits:e</title>
<path fill="none" stroke="black" d="M644.37,-693.55C631.48,-704.69 636.61,-733.21 614,-744 545.01,-776.92 512.28,-774.07 442,-744 417.15,-733.36 427.03,-700 400,-700"/>
<polygon fill="black" stroke="black" points="650.89,-691.45 659.6,-692.43 654.69,-690.23 658.5,-689 658.5,-689 658.5,-689 654.69,-690.23 657.4,-685.57 650.89,-691.45 650.89,-691.45"/>
<ellipse fill="none" stroke="black" cx="647.84" cy="-692.43" rx="3.2" ry="3.2"/>
</g>
<!-- eventchronology&#45;&gt;chroncontrols -->
<g id="edge9" class="edge">
<title>eventchronology:w&#45;&gt;chroncontrols:e</title>
<path fill="none" stroke="black" d="M644.41,-641.15C622.67,-626.76 632.61,-577 598,-577"/>
<polygon fill="black" stroke="black" points="650.78,-642.89 657.55,-648.47 654.64,-643.95 658.5,-645 658.5,-645 658.5,-645 654.64,-643.95 659.45,-641.53 650.78,-642.89 650.78,-642.89"/>
<ellipse fill="none" stroke="black" cx="647.7" cy="-642.05" rx="3.2" ry="3.2"/>
</g>
<!-- relativechronology -->
<g id="node10" class="node">
<title>relativechronology</title>
<g id="a_node10"><a xlink:href="../../tables/relativechronology.html" xlink:title="relativechronology" target="_top">
<polygon fill="#ffffff" stroke="transparent" points="655,-346 655,-492 798,-492 798,-346 655,-346"/>
<polygon fill="#f5f5f5" stroke="transparent" points="655.5,-470 655.5,-492 798.5,-492 798.5,-470 655.5,-470"/>
<polygon fill="none" stroke="black" points="655.5,-470 655.5,-492 798.5,-492 798.5,-470 655.5,-470"/>
<text text-anchor="start" x="660.5" y="-479.2" font-family="Helvetica,sans-Serif" font-weight="bold" font-size="11.00">relativechronology</text>
<text text-anchor="start" x="763.5" y="-478.2" font-family="Helvetica,sans-Serif" font-size="11.00">[table]</text>
<polygon fill="none" stroke="black" points="655.5,-448 655.5,-470 798.5,-470 798.5,-448 655.5,-448"/>
<image xlink:href="../../images/primaryKeys.png" width="11px" height="12px" preserveAspectRatio="xMinYMin meet" x="660.5" y="-465"/>
<text text-anchor="start" x="680.5" y="-456.2" font-family="Helvetica,sans-Serif" font-size="11.00">relativechronid</text>
<polygon fill="#ffffff" stroke="transparent" points="655.5,-426 655.5,-448 798.5,-448 798.5,-426 655.5,-426"/>
<polygon fill="none" stroke="black" points="655.5,-426 655.5,-448 798.5,-448 798.5,-426 655.5,-426"/>
<image xlink:href="../../images/foreignKeys.png" width="11px" height="12px" preserveAspectRatio="xMinYMin meet" x="660.5" y="-443"/>
<text text-anchor="start" x="680.5" y="-434.2" font-family="Helvetica,sans-Serif" font-size="11.00">analysisunitid</text>
<polygon fill="#ffffff" stroke="transparent" points="655.5,-404 655.5,-426 798.5,-426 798.5,-404 655.5,-404"/>
<polygon fill="none" stroke="black" points="655.5,-404 655.5,-426 798.5,-426 798.5,-404 655.5,-404"/>
<image xlink:href="../../images/foreignKeys.png" width="11px" height="12px" preserveAspectRatio="xMinYMin meet" x="660.5" y="-421"/>
<text text-anchor="start" x="680.5" y="-412.2" font-family="Helvetica,sans-Serif" font-size="11.00">relativeageid</text>
<polygon fill="none" stroke="black" points="655.5,-382 655.5,-404 798.5,-404 798.5,-382 655.5,-382"/>
<image xlink:href="../../images/foreignKeys.png" width="11px" height="12px" preserveAspectRatio="xMinYMin meet" x="660.5" y="-399"/>
<text text-anchor="start" x="680.5" y="-390.2" font-family="Helvetica,sans-Serif" font-size="11.00">chroncontrolid</text>
<polygon fill="none" stroke="black" points="655.5,-364 655.5,-382 798.5,-382 798.5,-364 655.5,-364"/>
<text text-anchor="start" x="658.5" y="-370.2" font-family="Helvetica,sans-Serif" font-size="11.00">...</text>
<polygon fill="#ffffff" stroke="transparent" points="655.5,-346 655.5,-364 701.5,-364 701.5,-346 655.5,-346"/>
<polygon fill="none" stroke="black" points="655.5,-346 655.5,-364 701.5,-364 701.5,-346 655.5,-346"/>
<text text-anchor="start" x="658.5" y="-352.2" font-family="Helvetica,sans-Serif" font-size="11.00">&lt; 3</text>
<polygon fill="#ffffff" stroke="transparent" points="701.5,-346 701.5,-364 773.5,-364 773.5,-346 701.5,-346"/>
<polygon fill="none" stroke="black" points="701.5,-346 701.5,-364 773.5,-364 773.5,-346 701.5,-346"/>
<text text-anchor="start" x="716.5" y="-352.2" font-family="Helvetica,sans-Serif" font-size="11.00">4,625 rows</text>
<polygon fill="#ffffff" stroke="transparent" points="773.5,-346 773.5,-364 798.5,-364 798.5,-346 773.5,-346"/>
<polygon fill="none" stroke="black" points="773.5,-346 773.5,-364 798.5,-364 798.5,-346 773.5,-346"/>
<text text-anchor="start" x="788.5" y="-352.2" font-family="Helvetica,sans-Serif" font-size="11.00"> &#160;</text>
</a>
</g>
</g>
<!-- relativechronology&#45;&gt;analysisunits -->
<g id="edge10" class="edge">
<title>relativechronology:w&#45;&gt;analysisunits:e</title>
<path fill="none" stroke="black" d="M640.37,-432.4C626.07,-419.16 639.77,-380.97 614,-366 580.95,-346.8 470.66,-340.71 442,-366 385.9,-415.49 474.81,-700 400,-700"/>
<polygon fill="black" stroke="black" points="646.89,-434.52 653.39,-440.42 650.7,-435.76 654.5,-437 654.5,-437 654.5,-437 650.7,-435.76 655.61,-433.58 646.89,-434.52 646.89,-434.52"/>
<ellipse fill="none" stroke="black" cx="643.85" cy="-433.53" rx="3.2" ry="3.2"/>
</g>
<!-- relativechronology&#45;&gt;chroncontrols -->
<g id="edge11" class="edge">
<title>relativechronology:w&#45;&gt;chroncontrols:e</title>
<path fill="none" stroke="black" d="M639.99,-395.33C583.29,-416.63 677.87,-577 598,-577"/>
<polygon fill="black" stroke="black" points="646.6,-394.27 655.07,-396.55 650.55,-393.63 654.5,-393 654.5,-393 654.5,-393 650.55,-393.63 653.93,-389.45 646.6,-394.27 646.6,-394.27"/>
<ellipse fill="none" stroke="black" cx="643.44" cy="-394.77" rx="3.2" ry="3.2"/>
</g>
<!-- samples -->
<g id="node11" class="node">
<title>samples</title>
<g id="a_node11"><a xlink:href="../../tables/samples.html" xlink:title="samples" target="_top">
<polygon fill="#ffffff" stroke="transparent" points="458.5,-182 458.5,-328 597.5,-328 597.5,-182 458.5,-182"/>
<polygon fill="#f5f5f5" stroke="transparent" points="459,-306 459,-328 598,-328 598,-306 459,-306"/>
<polygon fill="none" stroke="black" points="459,-306 459,-328 598,-328 598,-306 459,-306"/>
<text text-anchor="start" x="464" y="-315.2" font-family="Helvetica,sans-Serif" font-weight="bold" font-size="11.00">samples</text>
<text text-anchor="start" x="563" y="-314.2" font-family="Helvetica,sans-Serif" font-size="11.00">[table]</text>
<polygon fill="none" stroke="black" points="459,-284 459,-306 598,-306 598,-284 459,-284"/>
<image xlink:href="../../images/primaryKeys.png" width="11px" height="12px" preserveAspectRatio="xMinYMin meet" x="464" y="-301"/>
<text text-anchor="start" x="479" y="-292.2" font-family="Helvetica,sans-Serif" font-size="11.00">sampleid</text>
<polygon fill="#ffffff" stroke="transparent" points="459,-262 459,-284 598,-284 598,-262 459,-262"/>
<polygon fill="none" stroke="black" points="459,-262 459,-284 598,-284 598,-262 459,-262"/>
<image xlink:href="../../images/foreignKeys.png" width="11px" height="12px" preserveAspectRatio="xMinYMin meet" x="464" y="-279"/>
<text text-anchor="start" x="479" y="-270.2" font-family="Helvetica,sans-Serif" font-size="11.00">analysisunitid</text>
<polygon fill="#ffffff" stroke="transparent" points="459,-240 459,-262 598,-262 598,-240 459,-240"/>
<polygon fill="none" stroke="black" points="459,-240 459,-262 598,-262 598,-240 459,-240"/>
<image xlink:href="../../images/foreignKeys.png" width="11px" height="12px" preserveAspectRatio="xMinYMin meet" x="464" y="-257"/>
<text text-anchor="start" x="479" y="-248.2" font-family="Helvetica,sans-Serif" font-size="11.00">datasetid</text>
<polygon fill="#ffffff" stroke="transparent" points="459,-218 459,-240 598,-240 598,-218 459,-218"/>
<polygon fill="none" stroke="black" points="459,-218 459,-240 598,-240 598,-218 459,-218"/>
<image xlink:href="../../images/foreignKeys.png" width="11px" height="12px" preserveAspectRatio="xMinYMin meet" x="464" y="-235"/>
<text text-anchor="start" x="479" y="-226.2" font-family="Helvetica,sans-Serif" font-size="11.00">taxonid</text>
<polygon fill="none" stroke="black" points="459,-200 459,-218 598,-218 598,-200 459,-200"/>
<text text-anchor="start" x="462" y="-206.2" font-family="Helvetica,sans-Serif" font-size="11.00">...</text>
<polygon fill="#ffffff" stroke="transparent" points="459,-182 459,-200 492,-200 492,-182 459,-182"/>
<polygon fill="none" stroke="black" points="459,-182 459,-200 492,-200 492,-182 459,-182"/>
<text text-anchor="start" x="462" y="-188.2" font-family="Helvetica,sans-Serif" font-size="11.00">&lt; 3</text>
<polygon fill="#ffffff" stroke="transparent" points="492,-182 492,-200 570,-200 570,-182 492,-182"/>
<polygon fill="none" stroke="black" points="492,-182 492,-200 570,-200 570,-182 492,-182"/>
<text text-anchor="start" x="501" y="-188.2" font-family="Helvetica,sans-Serif" font-size="11.00">506,105 rows</text>
<polygon fill="#ffffff" stroke="transparent" points="570,-182 570,-200 598,-200 598,-182 570,-182"/>
<polygon fill="none" stroke="black" points="570,-182 570,-200 598,-200 598,-182 570,-182"/>
<text text-anchor="start" x="579" y="-188.2" font-family="Helvetica,sans-Serif" font-size="11.00">7 &gt;</text>
</a>
</g>
</g>
<!-- samples&#45;&gt;analysisunits -->
<g id="edge12" class="edge">
<title>samples:w&#45;&gt;analysisunits:e</title>
<path fill="none" stroke="black" d="M443.85,-276.95C376.63,-320 490.34,-700 400,-700"/>
<polygon fill="black" stroke="black" points="450.3,-275.15 458.97,-276.47 454.15,-274.08 458,-273 458,-273 458,-273 454.15,-274.08 457.03,-269.53 450.3,-275.15 450.3,-275.15"/>
<ellipse fill="none" stroke="black" cx="447.21" cy="-276.01" rx="3.2" ry="3.2"/>
</g>
<!-- tephras -->
<g id="node12" class="node">
<title>tephras</title>
<g id="a_node12"><a xlink:href="../../tables/tephras.html" xlink:title="tephras" target="_top">
<polygon fill="#ffffff" stroke="transparent" points="468,-37 468,-161 588,-161 588,-37 468,-37"/>
<polygon fill="#f5f5f5" stroke="transparent" points="468,-139 468,-161 588,-161 588,-139 468,-139"/>
<polygon fill="none" stroke="black" points="468,-139 468,-161 588,-161 588,-139 468,-139"/>
<text text-anchor="start" x="473" y="-148.2" font-family="Helvetica,sans-Serif" font-weight="bold" font-size="11.00">tephras</text>
<text text-anchor="start" x="553" y="-147.2" font-family="Helvetica,sans-Serif" font-size="11.00">[table]</text>
<polygon fill="none" stroke="black" points="468,-117 468,-139 588,-139 588,-117 468,-117"/>
<image xlink:href="../../images/primaryKeys.png" width="11px" height="12px" preserveAspectRatio="xMinYMin meet" x="473" y="-134"/>
<text text-anchor="start" x="488" y="-125.2" font-family="Helvetica,sans-Serif" font-size="11.00">tephraid</text>
<polygon fill="none" stroke="black" points="468,-95 468,-117 588,-117 588,-95 468,-95"/>
<image xlink:href="../../images/foreignKeys.png" width="11px" height="12px" preserveAspectRatio="xMinYMin meet" x="473" y="-112"/>
<text text-anchor="start" x="488" y="-103.2" font-family="Helvetica,sans-Serif" font-size="11.00">eventid</text>
<polygon fill="none" stroke="black" points="468,-73 468,-95 588,-95 588,-73 468,-73"/>
<image xlink:href="../../images/foreignKeys.png" width="11px" height="12px" preserveAspectRatio="xMinYMin meet" x="473" y="-90"/>
<text text-anchor="start" x="488" y="-81.2" font-family="Helvetica,sans-Serif" font-size="11.00">analysisunitid</text>
<polygon fill="none" stroke="black" points="468,-55 468,-73 588,-73 588,-55 468,-55"/>
<text text-anchor="start" x="471" y="-61.2" font-family="Helvetica,sans-Serif" font-size="11.00">...</text>
<polygon fill="#ffffff" stroke="transparent" points="468,-37 468,-55 507,-55 507,-37 468,-37"/>
<polygon fill="none" stroke="black" points="468,-37 468,-55 507,-55 507,-37 468,-37"/>
<text text-anchor="start" x="471" y="-43.2" font-family="Helvetica,sans-Serif" font-size="11.00">&lt; 2</text>
<polygon fill="#ffffff" stroke="transparent" points="507,-37 507,-55 566,-55 566,-37 507,-37"/>
<polygon fill="none" stroke="black" points="507,-37 507,-55 566,-55 566,-37 507,-37"/>
<text text-anchor="start" x="518" y="-43.2" font-family="Helvetica,sans-Serif" font-size="11.00">148 rows</text>
<polygon fill="#ffffff" stroke="transparent" points="566,-37 566,-55 588,-55 588,-37 566,-37"/>
<polygon fill="none" stroke="black" points="566,-37 566,-55 588,-55 588,-37 566,-37"/>
<text text-anchor="start" x="578" y="-43.2" font-family="Helvetica,sans-Serif" font-size="11.00"> &#160;</text>
</a>
</g>
</g>
<!-- tephras&#45;&gt;analysisunits -->
<g id="edge13" class="edge">
<title>tephras:w&#45;&gt;analysisunits:e</title>
<path fill="none" stroke="black" d="M454.75,-92.24C407.17,-165.34 464.14,-700 400,-700"/>
<polygon fill="black" stroke="black" points="460.36,-88.47 469.01,-86.99 463.68,-86.23 467,-84 467,-84 467,-84 463.68,-86.23 464.99,-81.01 460.36,-88.47 460.36,-88.47"/>
<ellipse fill="none" stroke="black" cx="457.71" cy="-90.25" rx="3.2" ry="3.2"/>
</g>
</g>
</svg>
