<?xml version="1.0" encoding="UTF-8" standalone="no"?>
<!DOCTYPE svg PUBLIC "-//W3C//DTD SVG 1.1//EN"
 "http://www.w3.org/Graphics/SVG/1.1/DTD/svg11.dtd">
<!-- Generated by graphviz version 2.43.0 (0)
 -->
<!-- Title: oneDegreeRelationshipsDiagram Pages: 1 -->
<svg width="605pt" height="340pt"
 viewBox="0.00 0.00 605.00 340.00" xmlns="http://www.w3.org/2000/svg" xmlns:xlink="http://www.w3.org/1999/xlink">
<g id="graph0" class="graph" transform="scale(1 1) rotate(0) translate(4 336)">
<title>oneDegreeRelationshipsDiagram</title>
<polygon fill="#ffffff" stroke="transparent" points="-4,4 -4,-336 601,-336 601,4 -4,4"/>
<text text-anchor="middle" x="71.5" y="-7.2" font-family="Helvetica,sans-Serif" font-size="11.00">Generated by SchemaSpy</text>
<!-- calibrationcurves -->
<g id="node1" class="node">
<title>calibrationcurves</title>
<g id="a_node1"><a xlink:href="../../tables/calibrationcurves.html" xlink:title="calibrationcurves" target="_top">
<polygon fill="#ffffff" stroke="transparent" points="180,-70 180,-224 388,-224 388,-70 180,-70"/>
<polygon fill="#f5f5f5" stroke="transparent" points="182,-200 182,-222 386,-222 386,-200 182,-200"/>
<polygon fill="none" stroke="black" points="182,-200 182,-222 386,-222 386,-200 182,-200"/>
<text text-anchor="start" x="187" y="-209.2" font-family="Helvetica,sans-Serif" font-weight="bold" font-size="11.00">calibrationcurves</text>
<text text-anchor="start" x="351" y="-208.2" font-family="Helvetica,sans-Serif" font-size="11.00">[table]</text>
<polygon fill="none" stroke="black" points="182,-178 182,-200 312,-200 312,-178 182,-178"/>
<image xlink:href="../../images/primaryKeys.png" width="11px" height="12px" preserveAspectRatio="xMinYMin meet" x="187" y="-195"/>
<text text-anchor="start" x="202" y="-186.2" font-family="Helvetica,sans-Serif" font-size="11.00">calibrationcurveid</text>
<polygon fill="none" stroke="black" points="312,-178 312,-200 386,-200 386,-178 312,-178"/>
<text text-anchor="start" x="315" y="-186.2" font-family="Helvetica,sans-Serif" font-size="11.00">serial[10]</text>
<polygon fill="none" stroke="black" points="182,-156 182,-178 312,-178 312,-156 182,-156"/>
<text text-anchor="start" x="202" y="-164.2" font-family="Helvetica,sans-Serif" font-size="11.00">calibrationcurve</text>
<polygon fill="none" stroke="black" points="312,-156 312,-178 386,-178 386,-156 312,-156"/>
<text text-anchor="start" x="315" y="-164.2" font-family="Helvetica,sans-Serif" font-size="11.00">varchar[24]</text>
<polygon fill="none" stroke="black" points="182,-134 182,-156 312,-156 312,-134 182,-134"/>
<image xlink:href="../../images/foreignKeys.png" width="11px" height="12px" preserveAspectRatio="xMinYMin meet" x="187" y="-151"/>
<text text-anchor="start" x="202" y="-142.2" font-family="Helvetica,sans-Serif" font-size="11.00">publicationid</text>
<polygon fill="none" stroke="black" points="312,-134 312,-156 386,-156 386,-134 312,-134"/>
<text text-anchor="start" x="315" y="-142.2" font-family="Helvetica,sans-Serif" font-size="11.00">int4[10]</text>
<polygon fill="none" stroke="black" points="182,-112 182,-134 312,-134 312,-112 182,-112"/>
<text text-anchor="start" x="202" y="-120.2" font-family="Helvetica,sans-Serif" font-size="11.00">recdatecreated</text>
<polygon fill="none" stroke="black" points="312,-112 312,-134 386,-134 386,-112 312,-112"/>
<text text-anchor="start" x="315" y="-120.2" font-family="Helvetica,sans-Serif" font-size="11.00">timestamp[22]</text>
<polygon fill="none" stroke="black" points="182,-90 182,-112 312,-112 312,-90 182,-90"/>
<text text-anchor="start" x="202" y="-98.2" font-family="Helvetica,sans-Serif" font-size="11.00">recdatemodified</text>
<polygon fill="none" stroke="black" points="312,-90 312,-112 386,-112 386,-90 312,-90"/>
<text text-anchor="start" x="315" y="-98.2" font-family="Helvetica,sans-Serif" font-size="11.00">timestamp[22]</text>
<polygon fill="#ffffff" stroke="transparent" points="182,-72 182,-90 235,-90 235,-72 182,-72"/>
<polygon fill="none" stroke="black" points="182,-72 182,-90 235,-90 235,-72 182,-72"/>
<text text-anchor="start" x="185" y="-78.2" font-family="Helvetica,sans-Serif" font-size="11.00">&lt; 1</text>
<polygon fill="#ffffff" stroke="transparent" points="235,-72 235,-90 312,-90 312,-72 235,-72"/>
<polygon fill="none" stroke="black" points="235,-72 235,-90 312,-90 312,-72 235,-72"/>
<text text-anchor="start" x="270" y="-78.2" font-family="Helvetica,sans-Serif" font-size="11.00">15 rows</text>
<polygon fill="#ffffff" stroke="transparent" points="312,-72 312,-90 386,-90 386,-72 312,-72"/>
<polygon fill="none" stroke="black" points="312,-72 312,-90 386,-90 386,-72 312,-72"/>
<text text-anchor="start" x="367" y="-78.2" font-family="Helvetica,sans-Serif" font-size="11.00">2 &gt;</text>
<polygon fill="none" stroke="black" stroke-width="2" points="181,-71 181,-223 387,-223 387,-71 181,-71"/>
</a>
</g>
</g>
<!-- publications -->
<g id="node2" class="node">
<title>publications</title>
<g id="a_node2"><a xlink:href="../../tables/publications.html" xlink:title="publications" target="_top">
<polygon fill="#ffffff" stroke="transparent" points="8,-76 8,-178 131,-178 131,-76 8,-76"/>
<polygon fill="#f5f5f5" stroke="transparent" points="8.5,-156 8.5,-178 131.5,-178 131.5,-156 8.5,-156"/>
<polygon fill="none" stroke="black" points="8.5,-156 8.5,-178 131.5,-178 131.5,-156 8.5,-156"/>
<text text-anchor="start" x="13.5" y="-165.2" font-family="Helvetica,sans-Serif" font-weight="bold" font-size="11.00">publications</text>
<text text-anchor="start" x="96.5" y="-164.2" font-family="Helvetica,sans-Serif" font-size="11.00">[table]</text>
<polygon fill="none" stroke="black" points="8.5,-134 8.5,-156 131.5,-156 131.5,-134 8.5,-134"/>
<image xlink:href="../../images/primaryKeys.png" width="11px" height="12px" preserveAspectRatio="xMinYMin meet" x="13.5" y="-151"/>
<text text-anchor="start" x="28.5" y="-142.2" font-family="Helvetica,sans-Serif" font-size="11.00">publicationid</text>
<polygon fill="none" stroke="black" points="8.5,-112 8.5,-134 131.5,-134 131.5,-112 8.5,-112"/>
<image xlink:href="../../images/foreignKeys.png" width="11px" height="12px" preserveAspectRatio="xMinYMin meet" x="13.5" y="-129"/>
<text text-anchor="start" x="28.5" y="-120.2" font-family="Helvetica,sans-Serif" font-size="11.00">pubtypeid</text>
<polygon fill="none" stroke="black" points="8.5,-94 8.5,-112 131.5,-112 131.5,-94 8.5,-94"/>
<text text-anchor="start" x="11.5" y="-100.2" font-family="Helvetica,sans-Serif" font-size="11.00">...</text>
<polygon fill="#ffffff" stroke="transparent" points="8.5,-76 8.5,-94 33.5,-94 33.5,-76 8.5,-76"/>
<polygon fill="none" stroke="black" points="8.5,-76 8.5,-94 33.5,-94 33.5,-76 8.5,-76"/>
<text text-anchor="start" x="11.5" y="-82.2" font-family="Helvetica,sans-Serif" font-size="11.00">&lt; 1</text>
<polygon fill="#ffffff" stroke="transparent" points="33.5,-76 33.5,-94 101.5,-94 101.5,-76 33.5,-76"/>
<polygon fill="none" stroke="black" points="33.5,-76 33.5,-94 101.5,-94 101.5,-76 33.5,-76"/>
<text text-anchor="start" x="38.5" y="-82.2" font-family="Helvetica,sans-Serif" font-size="11.00">13,466 rows</text>
<polygon fill="#ffffff" stroke="transparent" points="101.5,-76 101.5,-94 131.5,-94 131.5,-76 101.5,-76"/>
<polygon fill="none" stroke="black" points="101.5,-76 101.5,-94 131.5,-94 131.5,-76 101.5,-76"/>
<text text-anchor="start" x="106.5" y="-82.2" font-family="Helvetica,sans-Serif" font-size="11.00">12 &gt;</text>
</a>
</g>
</g>
<!-- calibrationcurves&#45;&gt;publications -->
<g id="edge1" class="edge">
<title>calibrationcurves:w&#45;&gt;publications:e</title>
<path fill="none" stroke="black" d="M166.28,-145C155.29,-145 148.16,-145 132.5,-145"/>
<polygon fill="black" stroke="black" points="173,-145 181,-148.6 177,-145 181,-145 181,-145 181,-145 177,-145 181,-141.4 173,-145 173,-145"/>
<ellipse fill="none" stroke="black" cx="169.8" cy="-145" rx="3.2" ry="3.2"/>
</g>
<!-- chroncontrolscal14c -->
<g id="node3" class="node">
<title>chroncontrolscal14c</title>
<g id="a_node3"><a xlink:href="../../tables/chroncontrolscal14c.html" xlink:title="chroncontrolscal14c" target="_top">
<polygon fill="#ffffff" stroke="transparent" points="437,-204 437,-328 589,-328 589,-204 437,-204"/>
<polygon fill="#f5f5f5" stroke="transparent" points="437,-306 437,-328 589,-328 589,-306 437,-306"/>
<polygon fill="none" stroke="black" points="437,-306 437,-328 589,-328 589,-306 437,-306"/>
<text text-anchor="start" x="442" y="-315.2" font-family="Helvetica,sans-Serif" font-weight="bold" font-size="11.00">chroncontrolscal14c</text>
<text text-anchor="start" x="554" y="-314.2" font-family="Helvetica,sans-Serif" font-size="11.00">[table]</text>
<polygon fill="none" stroke="black" points="437,-284 437,-306 589,-306 589,-284 437,-284"/>
<image xlink:href="../../images/primaryKeys.png" width="11px" height="12px" preserveAspectRatio="xMinYMin meet" x="442" y="-301"/>
<text text-anchor="start" x="458" y="-292.2" font-family="Helvetica,sans-Serif" font-size="11.00">chroncontrolid</text>
<polygon fill="none" stroke="black" points="437,-262 437,-284 589,-284 589,-262 437,-262"/>
<image xlink:href="../../images/foreignKeys.png" width="11px" height="12px" preserveAspectRatio="xMinYMin meet" x="442" y="-279"/>
<text text-anchor="start" x="458" y="-270.2" font-family="Helvetica,sans-Serif" font-size="11.00">calibrationcurveid</text>
<polygon fill="none" stroke="black" points="437,-240 437,-262 589,-262 589,-240 437,-240"/>
<image xlink:href="../../images/foreignKeys.png" width="11px" height="12px" preserveAspectRatio="xMinYMin meet" x="442" y="-257"/>
<text text-anchor="start" x="458" y="-248.2" font-family="Helvetica,sans-Serif" font-size="11.00">calibrationprogramid</text>
<polygon fill="none" stroke="black" points="437,-222 437,-240 589,-240 589,-222 437,-222"/>
<text text-anchor="start" x="440" y="-228.2" font-family="Helvetica,sans-Serif" font-size="11.00">...</text>
<polygon fill="#ffffff" stroke="transparent" points="437,-204 437,-222 487,-222 487,-204 437,-204"/>
<polygon fill="none" stroke="black" points="437,-204 437,-222 487,-222 487,-204 437,-204"/>
<text text-anchor="start" x="440" y="-210.2" font-family="Helvetica,sans-Serif" font-size="11.00">&lt; 3</text>
<polygon fill="#ffffff" stroke="transparent" points="487,-204 487,-222 561,-222 561,-204 487,-204"/>
<polygon fill="none" stroke="black" points="487,-204 487,-222 561,-222 561,-204 487,-204"/>
<text text-anchor="start" x="504" y="-210.2" font-family="Helvetica,sans-Serif" font-size="11.00">6,591 rows</text>
<polygon fill="#ffffff" stroke="transparent" points="561,-204 561,-222 589,-222 589,-204 561,-204"/>
<polygon fill="none" stroke="black" points="561,-204 561,-222 589,-222 589,-204 561,-204"/>
<text text-anchor="start" x="579" y="-210.2" font-family="Helvetica,sans-Serif" font-size="11.00"> &#160;</text>
</a>
</g>
</g>
<!-- chroncontrolscal14c&#45;&gt;calibrationcurves -->
<g id="edge2" class="edge">
<title>chroncontrolscal14c:w&#45;&gt;calibrationcurves:e</title>
<path fill="none" stroke="black" d="M422.1,-268.48C401.71,-251.04 424.14,-189 387,-189"/>
<polygon fill="black" stroke="black" points="428.39,-270.53 434.89,-276.42 432.2,-271.76 436,-273 436,-273 436,-273 432.2,-271.76 437.11,-269.58 428.39,-270.53 428.39,-270.53"/>
<ellipse fill="none" stroke="black" cx="425.35" cy="-269.54" rx="3.2" ry="3.2"/>
</g>
<!-- specimendatescal -->
<g id="node4" class="node">
<title>specimendatescal</title>
<g id="a_node4"><a xlink:href="../../tables/specimendatescal.html" xlink:title="specimendatescal" target="_top">
<polygon fill="#ffffff" stroke="transparent" points="438,-37 438,-183 588,-183 588,-37 438,-37"/>
<polygon fill="#f5f5f5" stroke="transparent" points="438,-161 438,-183 588,-183 588,-161 438,-161"/>
<polygon fill="none" stroke="black" points="438,-161 438,-183 588,-183 588,-161 438,-161"/>
<text text-anchor="start" x="443" y="-170.2" font-family="Helvetica,sans-Serif" font-weight="bold" font-size="11.00">specimendatescal</text>
<text text-anchor="start" x="553" y="-169.2" font-family="Helvetica,sans-Serif" font-size="11.00">[table]</text>
<polygon fill="none" stroke="black" points="438,-139 438,-161 588,-161 588,-139 438,-139"/>
<image xlink:href="../../images/primaryKeys.png" width="11px" height="12px" preserveAspectRatio="xMinYMin meet" x="443" y="-156"/>
<text text-anchor="start" x="458" y="-147.2" font-family="Helvetica,sans-Serif" font-size="11.00">specimendatecalid</text>
<polygon fill="none" stroke="black" points="438,-117 438,-139 588,-139 588,-117 438,-117"/>
<image xlink:href="../../images/foreignKeys.png" width="11px" height="12px" preserveAspectRatio="xMinYMin meet" x="443" y="-134"/>
<text text-anchor="start" x="458" y="-125.2" font-family="Helvetica,sans-Serif" font-size="11.00">specimendateid</text>
<polygon fill="none" stroke="black" points="438,-95 438,-117 588,-117 588,-95 438,-95"/>
<image xlink:href="../../images/foreignKeys.png" width="11px" height="12px" preserveAspectRatio="xMinYMin meet" x="443" y="-112"/>
<text text-anchor="start" x="458" y="-103.2" font-family="Helvetica,sans-Serif" font-size="11.00">calibrationcurveid</text>
<polygon fill="none" stroke="black" points="438,-73 438,-95 588,-95 588,-73 438,-73"/>
<image xlink:href="../../images/foreignKeys.png" width="11px" height="12px" preserveAspectRatio="xMinYMin meet" x="443" y="-90"/>
<text text-anchor="start" x="458" y="-81.2" font-family="Helvetica,sans-Serif" font-size="11.00">calibrationprogramid</text>
<polygon fill="none" stroke="black" points="438,-55 438,-73 588,-73 588,-55 438,-55"/>
<text text-anchor="start" x="441" y="-61.2" font-family="Helvetica,sans-Serif" font-size="11.00">...</text>
<polygon fill="#ffffff" stroke="transparent" points="438,-37 438,-55 487,-55 487,-37 438,-37"/>
<polygon fill="none" stroke="black" points="438,-37 438,-55 487,-55 487,-37 438,-37"/>
<text text-anchor="start" x="441" y="-43.2" font-family="Helvetica,sans-Serif" font-size="11.00">&lt; 3</text>
<polygon fill="#ffffff" stroke="transparent" points="487,-37 487,-55 561,-55 561,-37 487,-37"/>
<polygon fill="none" stroke="black" points="487,-37 487,-55 561,-55 561,-37 487,-37"/>
<text text-anchor="start" x="504" y="-43.2" font-family="Helvetica,sans-Serif" font-size="11.00">2,605 rows</text>
<polygon fill="#ffffff" stroke="transparent" points="561,-37 561,-55 588,-55 588,-37 561,-37"/>
<polygon fill="none" stroke="black" points="561,-37 561,-55 588,-55 588,-37 561,-37"/>
<text text-anchor="start" x="578" y="-43.2" font-family="Helvetica,sans-Serif" font-size="11.00"> &#160;</text>
</a>
</g>
</g>
<!-- specimendatescal&#45;&gt;calibrationcurves -->
<g id="edge3" class="edge">
<title>specimendatescal:w&#45;&gt;calibrationcurves:e</title>
<path fill="none" stroke="black" d="M423.09,-110.46C402.53,-127.7 424.01,-189 387,-189"/>
<polygon fill="black" stroke="black" points="429.38,-108.44 438.1,-109.43 433.19,-107.22 437,-106 437,-106 437,-106 433.19,-107.22 435.9,-102.57 429.38,-108.44 429.38,-108.44"/>
<ellipse fill="none" stroke="black" cx="426.34" cy="-109.42" rx="3.2" ry="3.2"/>
</g>
</g>
</svg>
