<?xml version="1.0" encoding="UTF-8" standalone="no"?>
<!DOCTYPE svg PUBLIC "-//W3C//DTD SVG 1.1//EN"
 "http://www.w3.org/Graphics/SVG/1.1/DTD/svg11.dtd">
<!-- Generated by graphviz version 2.43.0 (0)
 -->
<!-- Title: oneDegreeRelationshipsDiagram Pages: 1 -->
<svg width="453pt" height="340pt"
 viewBox="0.00 0.00 453.00 340.00" xmlns="http://www.w3.org/2000/svg" xmlns:xlink="http://www.w3.org/1999/xlink">
<g id="graph0" class="graph" transform="scale(1 1) rotate(0) translate(4 336)">
<title>oneDegreeRelationshipsDiagram</title>
<polygon fill="#ffffff" stroke="transparent" points="-4,4 -4,-336 449,-336 449,4 -4,4"/>
<text text-anchor="middle" x="71.5" y="-7.2" font-family="Helvetica,sans-Serif" font-size="11.00">Generated by SchemaSpy</text>
<!-- chroncontrolscal14c -->
<g id="node1" class="node">
<title>chroncontrolscal14c</title>
<g id="a_node1"><a xlink:href="../../tables/chroncontrolscal14c.html" xlink:title="chroncontrolscal14c" target="_top">
<polygon fill="#ffffff" stroke="transparent" points="285,-204 285,-328 437,-328 437,-204 285,-204"/>
<polygon fill="#f5f5f5" stroke="transparent" points="285,-306 285,-328 437,-328 437,-306 285,-306"/>
<polygon fill="none" stroke="black" points="285,-306 285,-328 437,-328 437,-306 285,-306"/>
<text text-anchor="start" x="290" y="-315.2" font-family="Helvetica,sans-Serif" font-weight="bold" font-size="11.00">chroncontrolscal14c</text>
<text text-anchor="start" x="402" y="-314.2" font-family="Helvetica,sans-Serif" font-size="11.00">[table]</text>
<polygon fill="none" stroke="black" points="285,-284 285,-306 437,-306 437,-284 285,-284"/>
<image xlink:href="../../images/primaryKeys.png" width="11px" height="12px" preserveAspectRatio="xMinYMin meet" x="290" y="-301"/>
<text text-anchor="start" x="306" y="-292.2" font-family="Helvetica,sans-Serif" font-size="11.00">chroncontrolid</text>
<polygon fill="none" stroke="black" points="285,-262 285,-284 437,-284 437,-262 285,-262"/>
<image xlink:href="../../images/foreignKeys.png" width="11px" height="12px" preserveAspectRatio="xMinYMin meet" x="290" y="-279"/>
<text text-anchor="start" x="306" y="-270.2" font-family="Helvetica,sans-Serif" font-size="11.00">calibrationcurveid</text>
<polygon fill="none" stroke="black" points="285,-240 285,-262 437,-262 437,-240 285,-240"/>
<image xlink:href="../../images/foreignKeys.png" width="11px" height="12px" preserveAspectRatio="xMinYMin meet" x="290" y="-257"/>
<text text-anchor="start" x="306" y="-248.2" font-family="Helvetica,sans-Serif" font-size="11.00">calibrationprogramid</text>
<polygon fill="none" stroke="black" points="285,-222 285,-240 437,-240 437,-222 285,-222"/>
<text text-anchor="start" x="288" y="-228.2" font-family="Helvetica,sans-Serif" font-size="11.00">...</text>
<polygon fill="#ffffff" stroke="transparent" points="285,-204 285,-222 335,-222 335,-204 285,-204"/>
<polygon fill="none" stroke="black" points="285,-204 285,-222 335,-222 335,-204 285,-204"/>
<text text-anchor="start" x="288" y="-210.2" font-family="Helvetica,sans-Serif" font-size="11.00">&lt; 3</text>
<polygon fill="#ffffff" stroke="transparent" points="335,-204 335,-222 409,-222 409,-204 335,-204"/>
<polygon fill="none" stroke="black" points="335,-204 335,-222 409,-222 409,-204 335,-204"/>
<text text-anchor="start" x="352" y="-210.2" font-family="Helvetica,sans-Serif" font-size="11.00">6,899 rows</text>
<polygon fill="#ffffff" stroke="transparent" points="409,-204 409,-222 437,-222 437,-204 409,-204"/>
<polygon fill="none" stroke="black" points="409,-204 409,-222 437,-222 437,-204 409,-204"/>
<text text-anchor="start" x="427" y="-210.2" font-family="Helvetica,sans-Serif" font-size="11.00"> &#160;</text>
</a>
</g>
</g>
<!-- calibrationprograms -->
<g id="node2" class="node">
<title>calibrationprograms</title>
<g id="a_node2"><a xlink:href="../../tables/calibrationprograms.html" xlink:title="calibrationprograms" target="_top">
<polygon fill="#ffffff" stroke="transparent" points="8,-48 8,-202 236,-202 236,-48 8,-48"/>
<polygon fill="#f5f5f5" stroke="transparent" points="10,-178 10,-200 234,-200 234,-178 10,-178"/>
<polygon fill="none" stroke="black" points="10,-178 10,-200 234,-200 234,-178 10,-178"/>
<text text-anchor="start" x="15" y="-187.2" font-family="Helvetica,sans-Serif" font-weight="bold" font-size="11.00">calibrationprograms</text>
<text text-anchor="start" x="199" y="-186.2" font-family="Helvetica,sans-Serif" font-size="11.00">[table]</text>
<polygon fill="none" stroke="black" points="10,-156 10,-178 160,-178 160,-156 10,-156"/>
<image xlink:href="../../images/primaryKeys.png" width="11px" height="12px" preserveAspectRatio="xMinYMin meet" x="15" y="-173"/>
<text text-anchor="start" x="30" y="-164.2" font-family="Helvetica,sans-Serif" font-size="11.00">calibrationprogramid</text>
<polygon fill="none" stroke="black" points="160,-156 160,-178 234,-178 234,-156 160,-156"/>
<text text-anchor="start" x="163" y="-164.2" font-family="Helvetica,sans-Serif" font-size="11.00">serial[10]</text>
<polygon fill="none" stroke="black" points="10,-134 10,-156 160,-156 160,-134 10,-134"/>
<text text-anchor="start" x="30" y="-142.2" font-family="Helvetica,sans-Serif" font-size="11.00">calibrationprogram</text>
<polygon fill="none" stroke="black" points="160,-134 160,-156 234,-156 234,-134 160,-134"/>
<text text-anchor="start" x="163" y="-142.2" font-family="Helvetica,sans-Serif" font-size="11.00">varchar[24]</text>
<polygon fill="none" stroke="black" points="10,-112 10,-134 160,-134 160,-112 10,-112"/>
<text text-anchor="start" x="30" y="-120.2" font-family="Helvetica,sans-Serif" font-size="11.00">version</text>
<polygon fill="none" stroke="black" points="160,-112 160,-134 234,-134 234,-112 160,-112"/>
<text text-anchor="start" x="163" y="-120.2" font-family="Helvetica,sans-Serif" font-size="11.00">varchar[24]</text>
<polygon fill="none" stroke="black" points="10,-90 10,-112 160,-112 160,-90 10,-90"/>
<text text-anchor="start" x="30" y="-98.2" font-family="Helvetica,sans-Serif" font-size="11.00">recdatecreated</text>
<polygon fill="none" stroke="black" points="160,-90 160,-112 234,-112 234,-90 160,-90"/>
<text text-anchor="start" x="163" y="-98.2" font-family="Helvetica,sans-Serif" font-size="11.00">timestamp[22]</text>
<polygon fill="none" stroke="black" points="10,-68 10,-90 160,-90 160,-68 10,-68"/>
<text text-anchor="start" x="30" y="-76.2" font-family="Helvetica,sans-Serif" font-size="11.00">recdatemodified</text>
<polygon fill="none" stroke="black" points="160,-68 160,-90 234,-90 234,-68 160,-68"/>
<text text-anchor="start" x="163" y="-76.2" font-family="Helvetica,sans-Serif" font-size="11.00">timestamp[22]</text>
<polygon fill="#ffffff" stroke="transparent" points="10,-50 10,-68 73,-68 73,-50 10,-50"/>
<polygon fill="none" stroke="black" points="10,-50 10,-68 73,-68 73,-50 10,-50"/>
<text text-anchor="start" x="13" y="-56.2" font-family="Helvetica,sans-Serif" font-size="11.00">&lt; 0</text>
<polygon fill="#ffffff" stroke="transparent" points="73,-50 73,-68 160,-68 160,-50 73,-50"/>
<polygon fill="none" stroke="black" points="73,-50 73,-68 160,-68 160,-50 73,-50"/>
<text text-anchor="start" x="118" y="-56.2" font-family="Helvetica,sans-Serif" font-size="11.00">73 rows</text>
<polygon fill="#ffffff" stroke="transparent" points="160,-50 160,-68 234,-68 234,-50 160,-50"/>
<polygon fill="none" stroke="black" points="160,-50 160,-68 234,-68 234,-50 160,-50"/>
<text text-anchor="start" x="215" y="-56.2" font-family="Helvetica,sans-Serif" font-size="11.00">2 &gt;</text>
<polygon fill="none" stroke="black" stroke-width="2" points="9,-49 9,-201 235,-201 235,-49 9,-49"/>
</a>
</g>
</g>
<!-- chroncontrolscal14c&#45;&gt;calibrationprograms -->
<g id="edge1" class="edge">
<title>chroncontrolscal14c:w&#45;&gt;calibrationprograms:e</title>
<path fill="none" stroke="black" d="M270.1,-246.48C249.71,-229.04 272.14,-167 235,-167"/>
<polygon fill="black" stroke="black" points="276.39,-248.53 282.89,-254.42 280.2,-249.76 284,-251 284,-251 284,-251 280.2,-249.76 285.11,-247.58 276.39,-248.53 276.39,-248.53"/>
<ellipse fill="none" stroke="black" cx="273.35" cy="-247.54" rx="3.2" ry="3.2"/>
</g>
<!-- specimendatescal -->
<g id="node3" class="node">
<title>specimendatescal</title>
<g id="a_node3"><a xlink:href="../../tables/specimendatescal.html" xlink:title="specimendatescal" target="_top">
<polygon fill="#ffffff" stroke="transparent" points="286,-37 286,-183 436,-183 436,-37 286,-37"/>
<polygon fill="#f5f5f5" stroke="transparent" points="286,-161 286,-183 436,-183 436,-161 286,-161"/>
<polygon fill="none" stroke="black" points="286,-161 286,-183 436,-183 436,-161 286,-161"/>
<text text-anchor="start" x="291" y="-170.2" font-family="Helvetica,sans-Serif" font-weight="bold" font-size="11.00">specimendatescal</text>
<text text-anchor="start" x="401" y="-169.2" font-family="Helvetica,sans-Serif" font-size="11.00">[table]</text>
<polygon fill="none" stroke="black" points="286,-139 286,-161 436,-161 436,-139 286,-139"/>
<image xlink:href="../../images/primaryKeys.png" width="11px" height="12px" preserveAspectRatio="xMinYMin meet" x="291" y="-156"/>
<text text-anchor="start" x="306" y="-147.2" font-family="Helvetica,sans-Serif" font-size="11.00">specimendatecalid</text>
<polygon fill="none" stroke="black" points="286,-117 286,-139 436,-139 436,-117 286,-117"/>
<image xlink:href="../../images/foreignKeys.png" width="11px" height="12px" preserveAspectRatio="xMinYMin meet" x="291" y="-134"/>
<text text-anchor="start" x="306" y="-125.2" font-family="Helvetica,sans-Serif" font-size="11.00">specimendateid</text>
<polygon fill="none" stroke="black" points="286,-95 286,-117 436,-117 436,-95 286,-95"/>
<image xlink:href="../../images/foreignKeys.png" width="11px" height="12px" preserveAspectRatio="xMinYMin meet" x="291" y="-112"/>
<text text-anchor="start" x="306" y="-103.2" font-family="Helvetica,sans-Serif" font-size="11.00">calibrationcurveid</text>
<polygon fill="none" stroke="black" points="286,-73 286,-95 436,-95 436,-73 286,-73"/>
<image xlink:href="../../images/foreignKeys.png" width="11px" height="12px" preserveAspectRatio="xMinYMin meet" x="291" y="-90"/>
<text text-anchor="start" x="306" y="-81.2" font-family="Helvetica,sans-Serif" font-size="11.00">calibrationprogramid</text>
<polygon fill="none" stroke="black" points="286,-55 286,-73 436,-73 436,-55 286,-55"/>
<text text-anchor="start" x="289" y="-61.2" font-family="Helvetica,sans-Serif" font-size="11.00">...</text>
<polygon fill="#ffffff" stroke="transparent" points="286,-37 286,-55 335,-55 335,-37 286,-37"/>
<polygon fill="none" stroke="black" points="286,-37 286,-55 335,-55 335,-37 286,-37"/>
<text text-anchor="start" x="289" y="-43.2" font-family="Helvetica,sans-Serif" font-size="11.00">&lt; 3</text>
<polygon fill="#ffffff" stroke="transparent" points="335,-37 335,-55 409,-55 409,-37 335,-37"/>
<polygon fill="none" stroke="black" points="335,-37 335,-55 409,-55 409,-37 335,-37"/>
<text text-anchor="start" x="352" y="-43.2" font-family="Helvetica,sans-Serif" font-size="11.00">2,605 rows</text>
<polygon fill="#ffffff" stroke="transparent" points="409,-37 409,-55 436,-55 436,-37 409,-37"/>
<polygon fill="none" stroke="black" points="409,-37 409,-55 436,-55 436,-37 409,-37"/>
<text text-anchor="start" x="426" y="-43.2" font-family="Helvetica,sans-Serif" font-size="11.00"> &#160;</text>
</a>
</g>
</g>
<!-- specimendatescal&#45;&gt;calibrationprograms -->
<g id="edge2" class="edge">
<title>specimendatescal:w&#45;&gt;calibrationprograms:e</title>
<path fill="none" stroke="black" d="M271.09,-88.46C250.53,-105.7 272.01,-167 235,-167"/>
<polygon fill="black" stroke="black" points="277.38,-86.44 286.1,-87.43 281.19,-85.22 285,-84 285,-84 285,-84 281.19,-85.22 283.9,-80.57 277.38,-86.44 277.38,-86.44"/>
<ellipse fill="none" stroke="black" cx="274.34" cy="-87.42" rx="3.2" ry="3.2"/>
</g>
</g>
</svg>
