<?xml version="1.0" encoding="UTF-8" standalone="no"?>
<!DOCTYPE svg PUBLIC "-//W3C//DTD SVG 1.1//EN"
 "http://www.w3.org/Graphics/SVG/1.1/DTD/svg11.dtd">
<!-- Generated by graphviz version 2.43.0 (0)
 -->
<!-- Title: twoDegreesRelationshipsDiagram Pages: 1 -->
<svg width="783pt" height="610pt"
 viewBox="0.00 0.00 783.00 610.00" xmlns="http://www.w3.org/2000/svg" xmlns:xlink="http://www.w3.org/1999/xlink">
<g id="graph0" class="graph" transform="scale(1 1) rotate(0) translate(4 606)">
<title>twoDegreesRelationshipsDiagram</title>
<polygon fill="#ffffff" stroke="transparent" points="-4,4 -4,-606 779,-606 779,4 -4,4"/>
<text text-anchor="middle" x="71.5" y="-7.2" font-family="Helvetica,sans-Serif" font-size="11.00">Generated by SchemaSpy</text>
<!-- calibrationcurves -->
<g id="node1" class="node">
<title>calibrationcurves</title>
<g id="a_node1"><a xlink:href="../../tables/calibrationcurves.html" xlink:title="calibrationcurves" target="_top">
<polygon fill="#ffffff" stroke="transparent" points="347,-496 347,-598 482,-598 482,-496 347,-496"/>
<polygon fill="#f5f5f5" stroke="transparent" points="347.5,-576 347.5,-598 482.5,-598 482.5,-576 347.5,-576"/>
<polygon fill="none" stroke="black" points="347.5,-576 347.5,-598 482.5,-598 482.5,-576 347.5,-576"/>
<text text-anchor="start" x="352.5" y="-585.2" font-family="Helvetica,sans-Serif" font-weight="bold" font-size="11.00">calibrationcurves</text>
<text text-anchor="start" x="447.5" y="-584.2" font-family="Helvetica,sans-Serif" font-size="11.00">[table]</text>
<polygon fill="none" stroke="black" points="347.5,-554 347.5,-576 482.5,-576 482.5,-554 347.5,-554"/>
<image xlink:href="../../images/primaryKeys.png" width="11px" height="12px" preserveAspectRatio="xMinYMin meet" x="352.5" y="-571"/>
<text text-anchor="start" x="370.5" y="-562.2" font-family="Helvetica,sans-Serif" font-size="11.00">calibrationcurveid</text>
<polygon fill="none" stroke="black" points="347.5,-532 347.5,-554 482.5,-554 482.5,-532 347.5,-532"/>
<image xlink:href="../../images/foreignKeys.png" width="11px" height="12px" preserveAspectRatio="xMinYMin meet" x="352.5" y="-549"/>
<text text-anchor="start" x="370.5" y="-540.2" font-family="Helvetica,sans-Serif" font-size="11.00">publicationid</text>
<polygon fill="none" stroke="black" points="347.5,-514 347.5,-532 482.5,-532 482.5,-514 347.5,-514"/>
<text text-anchor="start" x="350.5" y="-520.2" font-family="Helvetica,sans-Serif" font-size="11.00">...</text>
<polygon fill="#ffffff" stroke="transparent" points="347.5,-496 347.5,-514 392.5,-514 392.5,-496 347.5,-496"/>
<polygon fill="none" stroke="black" points="347.5,-496 347.5,-514 392.5,-514 392.5,-496 347.5,-496"/>
<text text-anchor="start" x="350.5" y="-502.2" font-family="Helvetica,sans-Serif" font-size="11.00">&lt; 1</text>
<polygon fill="#ffffff" stroke="transparent" points="392.5,-496 392.5,-514 448.5,-514 448.5,-496 392.5,-496"/>
<polygon fill="none" stroke="black" points="392.5,-496 392.5,-514 448.5,-514 448.5,-496 392.5,-496"/>
<text text-anchor="start" x="406.5" y="-502.2" font-family="Helvetica,sans-Serif" font-size="11.00">15 rows</text>
<polygon fill="#ffffff" stroke="transparent" points="448.5,-496 448.5,-514 482.5,-514 482.5,-496 448.5,-496"/>
<polygon fill="none" stroke="black" points="448.5,-496 448.5,-514 482.5,-514 482.5,-496 448.5,-496"/>
<text text-anchor="start" x="463.5" y="-502.2" font-family="Helvetica,sans-Serif" font-size="11.00">2 &gt;</text>
</a>
</g>
</g>
<!-- publications -->
<g id="node2" class="node">
<title>publications</title>
<g id="a_node2"><a xlink:href="../../tables/publications.html" xlink:title="publications" target="_top">
<polygon fill="#ffffff" stroke="transparent" points="161.5,-516 161.5,-574 277.5,-574 277.5,-516 161.5,-516"/>
<polygon fill="#f5f5f5" stroke="transparent" points="161.5,-552 161.5,-574 277.5,-574 277.5,-552 161.5,-552"/>
<polygon fill="none" stroke="black" points="161.5,-552 161.5,-574 277.5,-574 277.5,-552 161.5,-552"/>
<text text-anchor="start" x="166.5" y="-561.2" font-family="Helvetica,sans-Serif" font-weight="bold" font-size="11.00">publications</text>
<text text-anchor="start" x="242.5" y="-560.2" font-family="Helvetica,sans-Serif" font-size="11.00">[table]</text>
<polygon fill="none" stroke="black" points="161.5,-534 161.5,-552 277.5,-552 277.5,-534 161.5,-534"/>
<text text-anchor="start" x="164.5" y="-540.2" font-family="Helvetica,sans-Serif" font-size="11.00">...</text>
<polygon fill="#ffffff" stroke="transparent" points="161.5,-516 161.5,-534 183.5,-534 183.5,-516 161.5,-516"/>
<polygon fill="none" stroke="black" points="161.5,-516 161.5,-534 183.5,-534 183.5,-516 161.5,-516"/>
<text text-anchor="start" x="164.5" y="-522.2" font-family="Helvetica,sans-Serif" font-size="11.00">&lt; 1</text>
<polygon fill="#ffffff" stroke="transparent" points="183.5,-516 183.5,-534 249.5,-534 249.5,-516 183.5,-516"/>
<polygon fill="none" stroke="black" points="183.5,-516 183.5,-534 249.5,-534 249.5,-516 183.5,-516"/>
<text text-anchor="start" x="186.5" y="-522.2" font-family="Helvetica,sans-Serif" font-size="11.00">13,725 rows</text>
<polygon fill="#ffffff" stroke="transparent" points="249.5,-516 249.5,-534 277.5,-534 277.5,-516 249.5,-516"/>
<polygon fill="none" stroke="black" points="249.5,-516 249.5,-534 277.5,-534 277.5,-516 249.5,-516"/>
<text text-anchor="start" x="252.5" y="-522.2" font-family="Helvetica,sans-Serif" font-size="11.00">12 &gt;</text>
</a>
</g>
</g>
<!-- calibrationcurves&#45;&gt;publications -->
<g id="edge1" class="edge">
<title>calibrationcurves:w&#45;&gt;publications:e</title>
<path fill="none" stroke="black" d="M331.87,-543C312.74,-543 303.17,-543 278.5,-543"/>
<polygon fill="black" stroke="black" points="338.5,-543 346.5,-546.6 342.5,-543 346.5,-543 346.5,-543 346.5,-543 342.5,-543 346.5,-539.4 338.5,-543 338.5,-543"/>
<ellipse fill="none" stroke="black" cx="335.3" cy="-543" rx="3.2" ry="3.2"/>
</g>
<!-- chroncontrolranks -->
<g id="node3" class="node">
<title>chroncontrolranks</title>
<g id="a_node3"><a xlink:href="../../tables/chroncontrolranks.html" xlink:title="chroncontrolranks" target="_top">
<polygon fill="#ffffff" stroke="transparent" points="582,-285 582,-343 724,-343 724,-285 582,-285"/>
<polygon fill="#f5f5f5" stroke="transparent" points="582,-321 582,-343 724,-343 724,-321 582,-321"/>
<polygon fill="none" stroke="black" points="582,-321 582,-343 724,-343 724,-321 582,-321"/>
<text text-anchor="start" x="587" y="-330.2" font-family="Helvetica,sans-Serif" font-weight="bold" font-size="11.00">chroncontrolranks</text>
<text text-anchor="start" x="689" y="-329.2" font-family="Helvetica,sans-Serif" font-size="11.00">[table]</text>
<polygon fill="none" stroke="black" points="582,-303 582,-321 724,-321 724,-303 582,-303"/>
<text text-anchor="start" x="585" y="-309.2" font-family="Helvetica,sans-Serif" font-size="11.00">...</text>
<polygon fill="#ffffff" stroke="transparent" points="582,-285 582,-303 638,-303 638,-285 582,-285"/>
<polygon fill="none" stroke="black" points="582,-285 582,-303 638,-303 638,-285 582,-285"/>
<text text-anchor="start" x="585" y="-291.2" font-family="Helvetica,sans-Serif" font-size="11.00">&lt; 5</text>
<polygon fill="#ffffff" stroke="transparent" points="638,-285 638,-303 694,-303 694,-285 638,-285"/>
<polygon fill="none" stroke="black" points="638,-285 638,-303 694,-303 694,-285 638,-285"/>
<text text-anchor="start" x="658" y="-291.2" font-family="Helvetica,sans-Serif" font-size="11.00">0 rows</text>
<polygon fill="#ffffff" stroke="transparent" points="694,-285 694,-303 724,-303 724,-285 694,-285"/>
<polygon fill="none" stroke="black" points="694,-285 694,-303 724,-303 724,-285 694,-285"/>
<text text-anchor="start" x="714" y="-291.2" font-family="Helvetica,sans-Serif" font-size="11.00"> &#160;</text>
</a>
</g>
</g>
<!-- chroncontrols -->
<g id="node4" class="node">
<title>chroncontrols</title>
<g id="a_node4"><a xlink:href="../../tables/chroncontrols.html" xlink:title="chroncontrols" target="_top">
<polygon fill="#ffffff" stroke="transparent" points="346,-111 346,-345 483,-345 483,-111 346,-111"/>
<polygon fill="#f5f5f5" stroke="transparent" points="346.5,-323 346.5,-345 483.5,-345 483.5,-323 346.5,-323"/>
<polygon fill="none" stroke="black" points="346.5,-323 346.5,-345 483.5,-345 483.5,-323 346.5,-323"/>
<text text-anchor="start" x="351.5" y="-332.2" font-family="Helvetica,sans-Serif" font-weight="bold" font-size="11.00">chroncontrols</text>
<text text-anchor="start" x="448.5" y="-331.2" font-family="Helvetica,sans-Serif" font-size="11.00">[table]</text>
<polygon fill="none" stroke="black" points="346.5,-301 346.5,-323 483.5,-323 483.5,-301 346.5,-301"/>
<image xlink:href="../../images/primaryKeys.png" width="11px" height="12px" preserveAspectRatio="xMinYMin meet" x="351.5" y="-318"/>
<text text-anchor="start" x="366.5" y="-309.2" font-family="Helvetica,sans-Serif" font-size="11.00">chroncontrolid</text>
<polygon fill="none" stroke="black" points="346.5,-279 346.5,-301 483.5,-301 483.5,-279 346.5,-279"/>
<image xlink:href="../../images/foreignKeys.png" width="11px" height="12px" preserveAspectRatio="xMinYMin meet" x="351.5" y="-296"/>
<text text-anchor="start" x="366.5" y="-287.2" font-family="Helvetica,sans-Serif" font-size="11.00">chronologyid</text>
<polygon fill="none" stroke="black" points="346.5,-257 346.5,-279 483.5,-279 483.5,-257 346.5,-257"/>
<image xlink:href="../../images/foreignKeys.png" width="11px" height="12px" preserveAspectRatio="xMinYMin meet" x="351.5" y="-274"/>
<text text-anchor="start" x="366.5" y="-265.2" font-family="Helvetica,sans-Serif" font-size="11.00">chroncontroltypeid</text>
<polygon fill="#ffffff" stroke="transparent" points="346.5,-235 346.5,-257 483.5,-257 483.5,-235 346.5,-235"/>
<polygon fill="none" stroke="black" points="346.5,-235 346.5,-257 483.5,-257 483.5,-235 346.5,-235"/>
<text text-anchor="start" x="366.5" y="-243.2" font-family="Helvetica,sans-Serif" font-size="11.00">age</text>
<polygon fill="#ffffff" stroke="transparent" points="346.5,-213 346.5,-235 483.5,-235 483.5,-213 346.5,-213"/>
<polygon fill="none" stroke="black" points="346.5,-213 346.5,-235 483.5,-235 483.5,-213 346.5,-213"/>
<text text-anchor="start" x="366.5" y="-221.2" font-family="Helvetica,sans-Serif" font-size="11.00">agelimityounger</text>
<polygon fill="#ffffff" stroke="transparent" points="346.5,-191 346.5,-213 483.5,-213 483.5,-191 346.5,-191"/>
<polygon fill="none" stroke="black" points="346.5,-191 346.5,-213 483.5,-213 483.5,-191 346.5,-191"/>
<text text-anchor="start" x="366.5" y="-199.2" font-family="Helvetica,sans-Serif" font-size="11.00">agelimitolder</text>
<polygon fill="none" stroke="black" points="346.5,-169 346.5,-191 483.5,-191 483.5,-169 346.5,-169"/>
<image xlink:href="../../images/foreignKeys.png" width="11px" height="12px" preserveAspectRatio="xMinYMin meet" x="351.5" y="-186"/>
<text text-anchor="start" x="366.5" y="-177.2" font-family="Helvetica,sans-Serif" font-size="11.00">analysisunitid</text>
<polygon fill="none" stroke="black" points="346.5,-147 346.5,-169 483.5,-169 483.5,-147 346.5,-147"/>
<image xlink:href="../../images/foreignKeys.png" width="11px" height="12px" preserveAspectRatio="xMinYMin meet" x="351.5" y="-164"/>
<text text-anchor="start" x="366.5" y="-155.2" font-family="Helvetica,sans-Serif" font-size="11.00">agetypeid</text>
<polygon fill="none" stroke="black" points="346.5,-129 346.5,-147 483.5,-147 483.5,-129 346.5,-129"/>
<text text-anchor="start" x="349.5" y="-135.2" font-family="Helvetica,sans-Serif" font-size="11.00">...</text>
<polygon fill="#ffffff" stroke="transparent" points="346.5,-111 346.5,-129 378.5,-129 378.5,-111 346.5,-111"/>
<polygon fill="none" stroke="black" points="346.5,-111 346.5,-129 378.5,-129 378.5,-111 346.5,-111"/>
<text text-anchor="start" x="349.5" y="-117.2" font-family="Helvetica,sans-Serif" font-size="11.00">&lt; 4</text>
<polygon fill="#ffffff" stroke="transparent" points="378.5,-111 378.5,-129 455.5,-129 455.5,-111 378.5,-111"/>
<polygon fill="none" stroke="black" points="378.5,-111 378.5,-129 455.5,-129 455.5,-111 378.5,-111"/>
<text text-anchor="start" x="386.5" y="-117.2" font-family="Helvetica,sans-Serif" font-size="11.00">103,140 rows</text>
<polygon fill="#ffffff" stroke="transparent" points="455.5,-111 455.5,-129 483.5,-129 483.5,-111 455.5,-111"/>
<polygon fill="none" stroke="black" points="455.5,-111 455.5,-129 483.5,-129 483.5,-111 455.5,-111"/>
<text text-anchor="start" x="464.5" y="-117.2" font-family="Helvetica,sans-Serif" font-size="11.00">5 &gt;</text>
</a>
</g>
</g>
<!-- chroncontrolranks&#45;&gt;chroncontrols -->
<g id="edge2" class="edge">
<title>chroncontrolranks:w&#45;&gt;chroncontrols:e</title>
<path fill="none" stroke="black" d="M566.3,-312C534.93,-312 522.03,-312 484.5,-312"/>
<polygon fill="black" stroke="black" points="573,-312 581,-315.6 577,-312 581,-312 581,-312 581,-312 577,-312 581,-308.4 573,-312 573,-312"/>
<ellipse fill="none" stroke="black" cx="569.8" cy="-312" rx="3.2" ry="3.2"/>
</g>
<!-- agetypes -->
<g id="node5" class="node">
<title>agetypes</title>
<g id="a_node5"><a xlink:href="../../tables/agetypes.html" xlink:title="agetypes" target="_top">
<polygon fill="#ffffff" stroke="transparent" points="8,-197 8,-255 100,-255 100,-197 8,-197"/>
<polygon fill="#f5f5f5" stroke="transparent" points="8,-233 8,-255 100,-255 100,-233 8,-233"/>
<polygon fill="none" stroke="black" points="8,-233 8,-255 100,-255 100,-233 8,-233"/>
<text text-anchor="start" x="13" y="-242.2" font-family="Helvetica,sans-Serif" font-weight="bold" font-size="11.00">agetypes</text>
<text text-anchor="start" x="65" y="-241.2" font-family="Helvetica,sans-Serif" font-size="11.00">[table]</text>
<polygon fill="none" stroke="black" points="8,-215 8,-233 100,-233 100,-215 8,-215"/>
<text text-anchor="start" x="11" y="-221.2" font-family="Helvetica,sans-Serif" font-size="11.00">...</text>
<polygon fill="#ffffff" stroke="transparent" points="8,-197 8,-215 30,-215 30,-197 8,-197"/>
<polygon fill="none" stroke="black" points="8,-197 8,-215 30,-215 30,-197 8,-197"/>
<text text-anchor="start" x="11" y="-203.2" font-family="Helvetica,sans-Serif" font-size="11.00"> &#160;</text>
<polygon fill="#ffffff" stroke="transparent" points="30,-197 30,-215 73,-215 73,-197 30,-197"/>
<polygon fill="none" stroke="black" points="30,-197 30,-215 73,-215 73,-197 30,-197"/>
<text text-anchor="start" x="37" y="-203.2" font-family="Helvetica,sans-Serif" font-size="11.00">5 rows</text>
<polygon fill="#ffffff" stroke="transparent" points="73,-197 73,-215 100,-215 100,-197 73,-197"/>
<polygon fill="none" stroke="black" points="73,-197 73,-215 100,-215 100,-197 73,-197"/>
<text text-anchor="start" x="81" y="-203.2" font-family="Helvetica,sans-Serif" font-size="11.00">4 &gt;</text>
</a>
</g>
</g>
<!-- chroncontrols&#45;&gt;agetypes -->
<g id="edge3" class="edge">
<title>chroncontrols:w&#45;&gt;agetypes:e</title>
<path fill="none" stroke="black" d="M331.05,-157.78C250.61,-155.29 217.16,-133.66 141,-174 115.85,-187.32 129.46,-224 101,-224"/>
<polygon fill="black" stroke="black" points="337.5,-157.88 345.44,-161.6 341.5,-157.94 345.5,-158 345.5,-158 345.5,-158 341.5,-157.94 345.56,-154.4 337.5,-157.88 337.5,-157.88"/>
<ellipse fill="none" stroke="black" cx="334.3" cy="-157.83" rx="3.2" ry="3.2"/>
</g>
<!-- analysisunits -->
<g id="node6" class="node">
<title>analysisunits</title>
<g id="a_node6"><a xlink:href="../../tables/analysisunits.html" xlink:title="analysisunits" target="_top">
<polygon fill="#ffffff" stroke="transparent" points="158.5,-60 158.5,-118 280.5,-118 280.5,-60 158.5,-60"/>
<polygon fill="#f5f5f5" stroke="transparent" points="158.5,-96 158.5,-118 280.5,-118 280.5,-96 158.5,-96"/>
<polygon fill="none" stroke="black" points="158.5,-96 158.5,-118 280.5,-118 280.5,-96 158.5,-96"/>
<text text-anchor="start" x="163.5" y="-105.2" font-family="Helvetica,sans-Serif" font-weight="bold" font-size="11.00">analysisunits</text>
<text text-anchor="start" x="245.5" y="-104.2" font-family="Helvetica,sans-Serif" font-size="11.00">[table]</text>
<polygon fill="none" stroke="black" points="158.5,-78 158.5,-96 280.5,-96 280.5,-78 158.5,-78"/>
<text text-anchor="start" x="161.5" y="-84.2" font-family="Helvetica,sans-Serif" font-size="11.00">...</text>
<polygon fill="#ffffff" stroke="transparent" points="158.5,-60 158.5,-78 180.5,-78 180.5,-60 158.5,-60"/>
<polygon fill="none" stroke="black" points="158.5,-60 158.5,-78 180.5,-78 180.5,-60 158.5,-60"/>
<text text-anchor="start" x="161.5" y="-66.2" font-family="Helvetica,sans-Serif" font-size="11.00">&lt; 2</text>
<polygon fill="#ffffff" stroke="transparent" points="180.5,-60 180.5,-78 252.5,-78 252.5,-60 180.5,-60"/>
<polygon fill="none" stroke="black" points="180.5,-60 180.5,-78 252.5,-78 252.5,-60 180.5,-60"/>
<text text-anchor="start" x="183.5" y="-66.2" font-family="Helvetica,sans-Serif" font-size="11.00">486,580 rows</text>
<polygon fill="#ffffff" stroke="transparent" points="252.5,-60 252.5,-78 280.5,-78 280.5,-60 252.5,-60"/>
<polygon fill="none" stroke="black" points="252.5,-60 252.5,-78 280.5,-78 280.5,-60 252.5,-60"/>
<text text-anchor="start" x="255.5" y="-66.2" font-family="Helvetica,sans-Serif" font-size="11.00">10 &gt;</text>
</a>
</g>
</g>
<!-- chroncontrols&#45;&gt;analysisunits -->
<g id="edge4" class="edge">
<title>chroncontrols:w&#45;&gt;analysisunits:e</title>
<path fill="none" stroke="black" d="M331.15,-176.47C302.66,-159.48 325.8,-87 281.5,-87"/>
<polygon fill="black" stroke="black" points="337.73,-178.09 344.64,-183.5 341.62,-179.04 345.5,-180 345.5,-180 345.5,-180 341.62,-179.04 346.36,-176.5 337.73,-178.09 337.73,-178.09"/>
<ellipse fill="none" stroke="black" cx="334.62" cy="-177.32" rx="3.2" ry="3.2"/>
</g>
<!-- chroncontroltypes -->
<g id="node7" class="node">
<title>chroncontroltypes</title>
<g id="a_node7"><a xlink:href="../../tables/chroncontroltypes.html" xlink:title="chroncontroltypes" target="_top">
<polygon fill="#ffffff" stroke="transparent" points="149,-184 149,-242 290,-242 290,-184 149,-184"/>
<polygon fill="#f5f5f5" stroke="transparent" points="149.5,-220 149.5,-242 290.5,-242 290.5,-220 149.5,-220"/>
<polygon fill="none" stroke="black" points="149.5,-220 149.5,-242 290.5,-242 290.5,-220 149.5,-220"/>
<text text-anchor="start" x="154.5" y="-229.2" font-family="Helvetica,sans-Serif" font-weight="bold" font-size="11.00">chroncontroltypes</text>
<text text-anchor="start" x="255.5" y="-228.2" font-family="Helvetica,sans-Serif" font-size="11.00">[table]</text>
<polygon fill="none" stroke="black" points="149.5,-202 149.5,-220 290.5,-220 290.5,-202 149.5,-202"/>
<text text-anchor="start" x="152.5" y="-208.2" font-family="Helvetica,sans-Serif" font-size="11.00">...</text>
<polygon fill="#ffffff" stroke="transparent" points="149.5,-184 149.5,-202 197.5,-202 197.5,-184 149.5,-184"/>
<polygon fill="none" stroke="black" points="149.5,-184 149.5,-202 197.5,-202 197.5,-184 149.5,-184"/>
<text text-anchor="start" x="152.5" y="-190.2" font-family="Helvetica,sans-Serif" font-size="11.00">&lt; 1</text>
<polygon fill="#ffffff" stroke="transparent" points="197.5,-184 197.5,-202 255.5,-202 255.5,-184 197.5,-184"/>
<polygon fill="none" stroke="black" points="197.5,-184 197.5,-202 255.5,-202 255.5,-184 197.5,-184"/>
<text text-anchor="start" x="213.5" y="-190.2" font-family="Helvetica,sans-Serif" font-size="11.00">99 rows</text>
<polygon fill="#ffffff" stroke="transparent" points="255.5,-184 255.5,-202 290.5,-202 290.5,-184 255.5,-184"/>
<polygon fill="none" stroke="black" points="255.5,-184 255.5,-202 290.5,-202 290.5,-184 255.5,-184"/>
<text text-anchor="start" x="271.5" y="-190.2" font-family="Helvetica,sans-Serif" font-size="11.00">3 &gt;</text>
</a>
</g>
</g>
<!-- chroncontrols&#45;&gt;chroncontroltypes -->
<g id="edge5" class="edge">
<title>chroncontrols:w&#45;&gt;chroncontroltypes:e</title>
<path fill="none" stroke="black" d="M331.48,-263.53C314.53,-250.09 320.4,-211 291.5,-211"/>
<polygon fill="black" stroke="black" points="337.88,-265.57 344.41,-271.43 341.69,-266.78 345.5,-268 345.5,-268 345.5,-268 341.69,-266.78 346.59,-264.57 337.88,-265.57 337.88,-265.57"/>
<ellipse fill="none" stroke="black" cx="334.83" cy="-264.6" rx="3.2" ry="3.2"/>
</g>
<!-- chronologies -->
<g id="node8" class="node">
<title>chronologies</title>
<g id="a_node8"><a xlink:href="../../tables/chronologies.html" xlink:title="chronologies" target="_top">
<polygon fill="#ffffff" stroke="transparent" points="162.5,-263 162.5,-321 276.5,-321 276.5,-263 162.5,-263"/>
<polygon fill="#f5f5f5" stroke="transparent" points="162.5,-299 162.5,-321 276.5,-321 276.5,-299 162.5,-299"/>
<polygon fill="none" stroke="black" points="162.5,-299 162.5,-321 276.5,-321 276.5,-299 162.5,-299"/>
<text text-anchor="start" x="167.5" y="-308.2" font-family="Helvetica,sans-Serif" font-weight="bold" font-size="11.00">chronologies</text>
<text text-anchor="start" x="241.5" y="-307.2" font-family="Helvetica,sans-Serif" font-size="11.00">[table]</text>
<polygon fill="none" stroke="black" points="162.5,-281 162.5,-299 276.5,-299 276.5,-281 162.5,-281"/>
<text text-anchor="start" x="165.5" y="-287.2" font-family="Helvetica,sans-Serif" font-size="11.00">...</text>
<polygon fill="#ffffff" stroke="transparent" points="162.5,-263 162.5,-281 186.5,-281 186.5,-263 162.5,-263"/>
<polygon fill="none" stroke="black" points="162.5,-263 162.5,-281 186.5,-281 186.5,-263 162.5,-263"/>
<text text-anchor="start" x="165.5" y="-269.2" font-family="Helvetica,sans-Serif" font-size="11.00">&lt; 3</text>
<polygon fill="#ffffff" stroke="transparent" points="186.5,-263 186.5,-281 253.5,-281 253.5,-263 186.5,-263"/>
<polygon fill="none" stroke="black" points="186.5,-263 186.5,-281 253.5,-281 253.5,-263 186.5,-263"/>
<text text-anchor="start" x="190.5" y="-269.2" font-family="Helvetica,sans-Serif" font-size="11.00">32,182 rows</text>
<polygon fill="#ffffff" stroke="transparent" points="253.5,-263 253.5,-281 276.5,-281 276.5,-263 253.5,-263"/>
<polygon fill="none" stroke="black" points="253.5,-263 253.5,-281 276.5,-281 276.5,-263 253.5,-263"/>
<text text-anchor="start" x="257.5" y="-269.2" font-family="Helvetica,sans-Serif" font-size="11.00">3 &gt;</text>
</a>
</g>
</g>
<!-- chroncontrols&#45;&gt;chronologies -->
<g id="edge6" class="edge">
<title>chroncontrols:w&#45;&gt;chronologies:e</title>
<path fill="none" stroke="black" d="M330.87,-290C311.74,-290 302.17,-290 277.5,-290"/>
<polygon fill="black" stroke="black" points="337.5,-290 345.5,-293.6 341.5,-290 345.5,-290 345.5,-290 345.5,-290 341.5,-290 345.5,-286.4 337.5,-290 337.5,-290"/>
<ellipse fill="none" stroke="black" cx="334.3" cy="-290" rx="3.2" ry="3.2"/>
</g>
<!-- chronologies&#45;&gt;agetypes -->
<g id="edge10" class="edge">
<title>chronologies:w&#45;&gt;agetypes:e</title>
<path fill="none" stroke="black" d="M147.58,-286.26C125.99,-272.3 135.04,-224 101,-224"/>
<polygon fill="black" stroke="black" points="153.77,-287.93 160.57,-293.48 157.64,-288.96 161.5,-290 161.5,-290 161.5,-290 157.64,-288.96 162.43,-286.52 153.77,-287.93 153.77,-287.93"/>
<ellipse fill="none" stroke="black" cx="150.68" cy="-287.1" rx="3.2" ry="3.2"/>
</g>
<!-- chroncontrolscal14c -->
<g id="node9" class="node">
<title>chroncontrolscal14c</title>
<g id="a_node9"><a xlink:href="../../tables/chroncontrolscal14c.html" xlink:title="chroncontrolscal14c" target="_top">
<polygon fill="#ffffff" stroke="transparent" points="539,-364 539,-518 767,-518 767,-364 539,-364"/>
<polygon fill="#f5f5f5" stroke="transparent" points="541,-494 541,-516 765,-516 765,-494 541,-494"/>
<polygon fill="none" stroke="black" points="541,-494 541,-516 765,-516 765,-494 541,-494"/>
<text text-anchor="start" x="546" y="-503.2" font-family="Helvetica,sans-Serif" font-weight="bold" font-size="11.00">chroncontrolscal14c</text>
<text text-anchor="start" x="730" y="-502.2" font-family="Helvetica,sans-Serif" font-size="11.00">[table]</text>
<polygon fill="none" stroke="black" points="541,-472 541,-494 691,-494 691,-472 541,-472"/>
<image xlink:href="../../images/primaryKeys.png" width="11px" height="12px" preserveAspectRatio="xMinYMin meet" x="546" y="-489"/>
<text text-anchor="start" x="561" y="-480.2" font-family="Helvetica,sans-Serif" font-size="11.00">chroncontrolid</text>
<polygon fill="none" stroke="black" points="691,-472 691,-494 765,-494 765,-472 691,-472"/>
<text text-anchor="start" x="694" y="-480.2" font-family="Helvetica,sans-Serif" font-size="11.00">int4[10]</text>
<polygon fill="none" stroke="black" points="541,-450 541,-472 691,-472 691,-450 541,-450"/>
<image xlink:href="../../images/foreignKeys.png" width="11px" height="12px" preserveAspectRatio="xMinYMin meet" x="546" y="-467"/>
<text text-anchor="start" x="561" y="-458.2" font-family="Helvetica,sans-Serif" font-size="11.00">calibrationcurveid</text>
<polygon fill="none" stroke="black" points="691,-450 691,-472 765,-472 765,-450 691,-450"/>
<text text-anchor="start" x="694" y="-458.2" font-family="Helvetica,sans-Serif" font-size="11.00">int4[10]</text>
<polygon fill="none" stroke="black" points="541,-428 541,-450 691,-450 691,-428 541,-428"/>
<image xlink:href="../../images/foreignKeys.png" width="11px" height="12px" preserveAspectRatio="xMinYMin meet" x="546" y="-445"/>
<text text-anchor="start" x="561" y="-436.2" font-family="Helvetica,sans-Serif" font-size="11.00">calibrationprogramid</text>
<polygon fill="none" stroke="black" points="691,-428 691,-450 765,-450 765,-428 691,-428"/>
<text text-anchor="start" x="694" y="-436.2" font-family="Helvetica,sans-Serif" font-size="11.00">int4[10]</text>
<polygon fill="none" stroke="black" points="541,-406 541,-428 691,-428 691,-406 541,-406"/>
<text text-anchor="start" x="561" y="-414.2" font-family="Helvetica,sans-Serif" font-size="11.00">recdatecreated</text>
<polygon fill="none" stroke="black" points="691,-406 691,-428 765,-428 765,-406 691,-406"/>
<text text-anchor="start" x="694" y="-414.2" font-family="Helvetica,sans-Serif" font-size="11.00">timestamp[22]</text>
<polygon fill="none" stroke="black" points="541,-384 541,-406 691,-406 691,-384 541,-384"/>
<text text-anchor="start" x="561" y="-392.2" font-family="Helvetica,sans-Serif" font-size="11.00">recdatemodified</text>
<polygon fill="none" stroke="black" points="691,-384 691,-406 765,-406 765,-384 691,-384"/>
<text text-anchor="start" x="694" y="-392.2" font-family="Helvetica,sans-Serif" font-size="11.00">timestamp[22]</text>
<polygon fill="#ffffff" stroke="transparent" points="541,-366 541,-384 597,-384 597,-366 541,-366"/>
<polygon fill="none" stroke="black" points="541,-366 541,-384 597,-384 597,-366 541,-366"/>
<text text-anchor="start" x="544" y="-372.2" font-family="Helvetica,sans-Serif" font-size="11.00">&lt; 3</text>
<polygon fill="#ffffff" stroke="transparent" points="597,-366 597,-384 691,-384 691,-366 597,-366"/>
<polygon fill="none" stroke="black" points="597,-366 597,-384 691,-384 691,-366 597,-366"/>
<text text-anchor="start" x="634" y="-372.2" font-family="Helvetica,sans-Serif" font-size="11.00">6,899 rows</text>
<polygon fill="#ffffff" stroke="transparent" points="691,-366 691,-384 765,-384 765,-366 691,-366"/>
<polygon fill="none" stroke="black" points="691,-366 691,-384 765,-384 765,-366 691,-366"/>
<text text-anchor="start" x="746" y="-372.2" font-family="Helvetica,sans-Serif" font-size="11.00">0 &gt;</text>
<polygon fill="none" stroke="black" stroke-width="2" points="540,-365 540,-517 766,-517 766,-365 540,-365"/>
</a>
</g>
</g>
<!-- chroncontrolscal14c&#45;&gt;calibrationcurves -->
<g id="edge7" class="edge">
<title>chroncontrolscal14c:w&#45;&gt;calibrationcurves:e</title>
<path fill="none" stroke="black" d="M525.73,-464.7C497.13,-483.23 530.14,-565 483.5,-565"/>
<polygon fill="black" stroke="black" points="532.26,-463.01 540.9,-464.48 536.13,-462 540,-461 540,-461 540,-461 536.13,-462 539.1,-457.52 532.26,-463.01 532.26,-463.01"/>
<ellipse fill="none" stroke="black" cx="529.16" cy="-463.81" rx="3.2" ry="3.2"/>
</g>
<!-- chroncontrolscal14c&#45;&gt;chroncontrols -->
<g id="edge9" class="edge">
<title>chroncontrolscal14c:w&#45;&gt;chroncontrols:e</title>
<path fill="none" stroke="black" d="M529.57,-481.82C469.84,-466.71 560.5,-312 484.5,-312"/>
<polygon fill="black" stroke="black" points="539.66,-478.94 538.75,-486.88 537.16,-486.7 538.07,-478.75 539.66,-478.94"/>
<polyline fill="none" stroke="black" points="540,-483 536.03,-482.55 "/>
<ellipse fill="none" stroke="black" cx="532.85" cy="-482.19" rx="3.2" ry="3.2"/>
</g>
<!-- calibrationprograms -->
<g id="node10" class="node">
<title>calibrationprograms</title>
<g id="a_node10"><a xlink:href="../../tables/calibrationprograms.html" xlink:title="calibrationprograms" target="_top">
<polygon fill="#ffffff" stroke="transparent" points="339,-394 339,-474 490,-474 490,-394 339,-394"/>
<polygon fill="#f5f5f5" stroke="transparent" points="339.5,-452 339.5,-474 490.5,-474 490.5,-452 339.5,-452"/>
<polygon fill="none" stroke="black" points="339.5,-452 339.5,-474 490.5,-474 490.5,-452 339.5,-452"/>
<text text-anchor="start" x="344.5" y="-461.2" font-family="Helvetica,sans-Serif" font-weight="bold" font-size="11.00">calibrationprograms</text>
<text text-anchor="start" x="455.5" y="-460.2" font-family="Helvetica,sans-Serif" font-size="11.00">[table]</text>
<polygon fill="none" stroke="black" points="339.5,-430 339.5,-452 490.5,-452 490.5,-430 339.5,-430"/>
<image xlink:href="../../images/primaryKeys.png" width="11px" height="12px" preserveAspectRatio="xMinYMin meet" x="344.5" y="-447"/>
<text text-anchor="start" x="360.5" y="-438.2" font-family="Helvetica,sans-Serif" font-size="11.00">calibrationprogramid</text>
<polygon fill="none" stroke="black" points="339.5,-412 339.5,-430 490.5,-430 490.5,-412 339.5,-412"/>
<text text-anchor="start" x="342.5" y="-418.2" font-family="Helvetica,sans-Serif" font-size="11.00">...</text>
<polygon fill="#ffffff" stroke="transparent" points="339.5,-394 339.5,-412 387.5,-412 387.5,-394 339.5,-394"/>
<polygon fill="none" stroke="black" points="339.5,-394 339.5,-412 387.5,-412 387.5,-394 339.5,-394"/>
<text text-anchor="start" x="342.5" y="-400.2" font-family="Helvetica,sans-Serif" font-size="11.00"> &#160;</text>
<polygon fill="#ffffff" stroke="transparent" points="387.5,-394 387.5,-412 450.5,-412 450.5,-394 387.5,-394"/>
<polygon fill="none" stroke="black" points="387.5,-394 387.5,-412 450.5,-412 450.5,-394 387.5,-394"/>
<text text-anchor="start" x="408.5" y="-400.2" font-family="Helvetica,sans-Serif" font-size="11.00">73 rows</text>
<polygon fill="#ffffff" stroke="transparent" points="450.5,-394 450.5,-412 490.5,-412 490.5,-394 450.5,-394"/>
<polygon fill="none" stroke="black" points="450.5,-394 450.5,-412 490.5,-412 490.5,-394 450.5,-394"/>
<text text-anchor="start" x="471.5" y="-400.2" font-family="Helvetica,sans-Serif" font-size="11.00">2 &gt;</text>
</a>
</g>
</g>
<!-- chroncontrolscal14c&#45;&gt;calibrationprograms -->
<g id="edge8" class="edge">
<title>chroncontrolscal14c:w&#45;&gt;calibrationprograms:e</title>
<path fill="none" stroke="black" d="M525.28,-439.37C514.29,-439.94 507.17,-441 491.5,-441"/>
<polygon fill="black" stroke="black" points="532,-439.2 540.09,-442.6 536,-439.1 540,-439 540,-439 540,-439 536,-439.1 539.91,-435.4 532,-439.2 532,-439.2"/>
<ellipse fill="none" stroke="black" cx="528.8" cy="-439.28" rx="3.2" ry="3.2"/>
</g>
<!-- eventchronology -->
<g id="node11" class="node">
<title>eventchronology</title>
<g id="a_node11"><a xlink:href="../../tables/eventchronology.html" xlink:title="eventchronology" target="_top">
<polygon fill="#ffffff" stroke="transparent" points="586.5,-37 586.5,-95 719.5,-95 719.5,-37 586.5,-37"/>
<polygon fill="#f5f5f5" stroke="transparent" points="587,-73 587,-95 720,-95 720,-73 587,-73"/>
<polygon fill="none" stroke="black" points="587,-73 587,-95 720,-95 720,-73 587,-73"/>
<text text-anchor="start" x="592" y="-82.2" font-family="Helvetica,sans-Serif" font-weight="bold" font-size="11.00">eventchronology</text>
<text text-anchor="start" x="685" y="-81.2" font-family="Helvetica,sans-Serif" font-size="11.00">[table]</text>
<polygon fill="none" stroke="black" points="587,-55 587,-73 720,-73 720,-55 587,-55"/>
<text text-anchor="start" x="590" y="-61.2" font-family="Helvetica,sans-Serif" font-size="11.00">...</text>
<polygon fill="#ffffff" stroke="transparent" points="587,-37 587,-55 632,-55 632,-37 587,-37"/>
<polygon fill="none" stroke="black" points="587,-37 587,-55 632,-55 632,-37 587,-37"/>
<text text-anchor="start" x="590" y="-43.2" font-family="Helvetica,sans-Serif" font-size="11.00">&lt; 3</text>
<polygon fill="#ffffff" stroke="transparent" points="632,-37 632,-55 695,-55 695,-37 632,-37"/>
<polygon fill="none" stroke="black" points="632,-37 632,-55 695,-55 695,-37 632,-37"/>
<text text-anchor="start" x="647" y="-43.2" font-family="Helvetica,sans-Serif" font-size="11.00">276 rows</text>
<polygon fill="#ffffff" stroke="transparent" points="695,-37 695,-55 720,-55 720,-37 695,-37"/>
<polygon fill="none" stroke="black" points="695,-37 695,-55 720,-55 720,-37 695,-37"/>
<text text-anchor="start" x="710" y="-43.2" font-family="Helvetica,sans-Serif" font-size="11.00"> &#160;</text>
</a>
</g>
</g>
<!-- eventchronology&#45;&gt;chroncontrols -->
<g id="edge12" class="edge">
<title>eventchronology:w&#45;&gt;chroncontrols:e</title>
<path fill="none" stroke="black" d="M571.62,-65.7C551.09,-71.21 544.92,-89.58 531,-113 484.59,-191.08 575.33,-312 484.5,-312"/>
<polygon fill="black" stroke="black" points="578.06,-64.94 586.42,-67.58 582.03,-64.47 586,-64 586,-64 586,-64 582.03,-64.47 585.58,-60.42 578.06,-64.94 578.06,-64.94"/>
<ellipse fill="none" stroke="black" cx="574.88" cy="-65.32" rx="3.2" ry="3.2"/>
</g>
<!-- eventchronology&#45;&gt;analysisunits -->
<g id="edge11" class="edge">
<title>eventchronology:w&#45;&gt;analysisunits:e</title>
<path fill="none" stroke="black" d="M571.51,-63.99C469.82,-63.93 438.65,-63.46 331,-77 308.73,-79.8 303.94,-87 281.5,-87"/>
<polygon fill="black" stroke="black" points="578,-64 586,-67.6 582,-64 586,-64 586,-64 586,-64 582,-64 586,-60.4 578,-64 578,-64"/>
<ellipse fill="none" stroke="black" cx="574.8" cy="-64" rx="3.2" ry="3.2"/>
</g>
<!-- geochroncontrols -->
<g id="node12" class="node">
<title>geochroncontrols</title>
<g id="a_node12"><a xlink:href="../../tables/geochroncontrols.html" xlink:title="geochroncontrols" target="_top">
<polygon fill="#ffffff" stroke="transparent" points="584,-206 584,-264 722,-264 722,-206 584,-206"/>
<polygon fill="#f5f5f5" stroke="transparent" points="584,-242 584,-264 722,-264 722,-242 584,-242"/>
<polygon fill="none" stroke="black" points="584,-242 584,-264 722,-264 722,-242 584,-242"/>
<text text-anchor="start" x="589" y="-251.2" font-family="Helvetica,sans-Serif" font-weight="bold" font-size="11.00">geochroncontrols</text>
<text text-anchor="start" x="687" y="-250.2" font-family="Helvetica,sans-Serif" font-size="11.00">[table]</text>
<polygon fill="none" stroke="black" points="584,-224 584,-242 722,-242 722,-224 584,-224"/>
<text text-anchor="start" x="587" y="-230.2" font-family="Helvetica,sans-Serif" font-size="11.00">...</text>
<polygon fill="#ffffff" stroke="transparent" points="584,-206 584,-224 624,-224 624,-206 584,-206"/>
<polygon fill="none" stroke="black" points="584,-206 584,-224 624,-224 624,-206 584,-206"/>
<text text-anchor="start" x="587" y="-212.2" font-family="Helvetica,sans-Serif" font-size="11.00">&lt; 2</text>
<polygon fill="#ffffff" stroke="transparent" points="624,-206 624,-224 699,-224 699,-206 624,-206"/>
<polygon fill="none" stroke="black" points="624,-206 624,-224 699,-224 699,-206 624,-206"/>
<text text-anchor="start" x="636" y="-212.2" font-family="Helvetica,sans-Serif" font-size="11.00">43,605 rows</text>
<polygon fill="#ffffff" stroke="transparent" points="699,-206 699,-224 722,-224 722,-206 699,-206"/>
<polygon fill="none" stroke="black" points="699,-206 699,-224 722,-224 722,-206 699,-206"/>
<text text-anchor="start" x="712" y="-212.2" font-family="Helvetica,sans-Serif" font-size="11.00"> &#160;</text>
</a>
</g>
</g>
<!-- geochroncontrols&#45;&gt;chroncontrols -->
<g id="edge13" class="edge">
<title>geochroncontrols:w&#45;&gt;chroncontrols:e</title>
<path fill="none" stroke="black" d="M570.81,-241.16C545.4,-261.34 490.12,-312 484.5,-312"/>
<polygon fill="black" stroke="black" points="576.35,-237.45 585,-235.99 579.68,-235.22 583,-233 583,-233 583,-233 579.68,-235.22 581,-230.01 576.35,-237.45 576.35,-237.45"/>
<ellipse fill="none" stroke="black" cx="573.69" cy="-239.23" rx="3.2" ry="3.2"/>
</g>
<!-- relativechronology -->
<g id="node13" class="node">
<title>relativechronology</title>
<g id="a_node13"><a xlink:href="../../tables/relativechronology.html" xlink:title="relativechronology" target="_top">
<polygon fill="#ffffff" stroke="transparent" points="581.5,-123 581.5,-181 724.5,-181 724.5,-123 581.5,-123"/>
<polygon fill="#f5f5f5" stroke="transparent" points="582,-159 582,-181 725,-181 725,-159 582,-159"/>
<polygon fill="none" stroke="black" points="582,-159 582,-181 725,-181 725,-159 582,-159"/>
<text text-anchor="start" x="587" y="-168.2" font-family="Helvetica,sans-Serif" font-weight="bold" font-size="11.00">relativechronology</text>
<text text-anchor="start" x="690" y="-167.2" font-family="Helvetica,sans-Serif" font-size="11.00">[table]</text>
<polygon fill="none" stroke="black" points="582,-141 582,-159 725,-159 725,-141 582,-141"/>
<text text-anchor="start" x="585" y="-147.2" font-family="Helvetica,sans-Serif" font-size="11.00">...</text>
<polygon fill="#ffffff" stroke="transparent" points="582,-123 582,-141 628,-141 628,-123 582,-123"/>
<polygon fill="none" stroke="black" points="582,-123 582,-141 628,-141 628,-123 582,-123"/>
<text text-anchor="start" x="585" y="-129.2" font-family="Helvetica,sans-Serif" font-size="11.00">&lt; 3</text>
<polygon fill="#ffffff" stroke="transparent" points="628,-123 628,-141 700,-141 700,-123 628,-123"/>
<polygon fill="none" stroke="black" points="628,-123 628,-141 700,-141 700,-123 628,-123"/>
<text text-anchor="start" x="643" y="-129.2" font-family="Helvetica,sans-Serif" font-size="11.00">4,630 rows</text>
<polygon fill="#ffffff" stroke="transparent" points="700,-123 700,-141 725,-141 725,-123 700,-123"/>
<polygon fill="none" stroke="black" points="700,-123 700,-141 725,-141 725,-123 700,-123"/>
<text text-anchor="start" x="715" y="-129.2" font-family="Helvetica,sans-Serif" font-size="11.00"> &#160;</text>
</a>
</g>
</g>
<!-- relativechronology&#45;&gt;chroncontrols -->
<g id="edge15" class="edge">
<title>relativechronology:w&#45;&gt;chroncontrols:e</title>
<path fill="none" stroke="black" d="M566.64,-152.12C549.3,-158.06 544.94,-175.81 531,-196 499.45,-241.71 540.04,-312 484.5,-312"/>
<polygon fill="black" stroke="black" points="573.09,-151.17 581.52,-153.56 577.04,-150.58 581,-150 581,-150 581,-150 577.04,-150.58 580.48,-146.44 573.09,-151.17 573.09,-151.17"/>
<ellipse fill="none" stroke="black" cx="569.92" cy="-151.63" rx="3.2" ry="3.2"/>
</g>
<!-- relativechronology&#45;&gt;analysisunits -->
<g id="edge14" class="edge">
<title>relativechronology:w&#45;&gt;analysisunits:e</title>
<path fill="none" stroke="black" d="M566.43,-148.32C537.67,-141.01 533.66,-111.99 498,-101 405.85,-72.6 377.92,-87 281.5,-87"/>
<polygon fill="black" stroke="black" points="573.05,-149.08 580.59,-153.58 577.03,-149.54 581,-150 581,-150 581,-150 577.03,-149.54 581.41,-146.42 573.05,-149.08 573.05,-149.08"/>
<ellipse fill="none" stroke="black" cx="569.87" cy="-148.71" rx="3.2" ry="3.2"/>
</g>
<!-- specimendatescal -->
<g id="node14" class="node">
<title>specimendatescal</title>
<g id="a_node14"><a xlink:href="../../tables/specimendatescal.html" xlink:title="specimendatescal" target="_top">
<polygon fill="#ffffff" stroke="transparent" points="584,-539 584,-597 722,-597 722,-539 584,-539"/>
<polygon fill="#f5f5f5" stroke="transparent" points="584,-575 584,-597 722,-597 722,-575 584,-575"/>
<polygon fill="none" stroke="black" points="584,-575 584,-597 722,-597 722,-575 584,-575"/>
<text text-anchor="start" x="589" y="-584.2" font-family="Helvetica,sans-Serif" font-weight="bold" font-size="11.00">specimendatescal</text>
<text text-anchor="start" x="687" y="-583.2" font-family="Helvetica,sans-Serif" font-size="11.00">[table]</text>
<polygon fill="none" stroke="black" points="584,-557 584,-575 722,-575 722,-557 584,-557"/>
<text text-anchor="start" x="587" y="-563.2" font-family="Helvetica,sans-Serif" font-size="11.00">...</text>
<polygon fill="#ffffff" stroke="transparent" points="584,-539 584,-557 627,-557 627,-539 584,-539"/>
<polygon fill="none" stroke="black" points="584,-539 584,-557 627,-557 627,-539 584,-539"/>
<text text-anchor="start" x="587" y="-545.2" font-family="Helvetica,sans-Serif" font-size="11.00">&lt; 3</text>
<polygon fill="#ffffff" stroke="transparent" points="627,-539 627,-557 698,-557 698,-539 627,-539"/>
<polygon fill="none" stroke="black" points="627,-539 627,-557 698,-557 698,-539 627,-539"/>
<text text-anchor="start" x="641" y="-545.2" font-family="Helvetica,sans-Serif" font-size="11.00">2,605 rows</text>
<polygon fill="#ffffff" stroke="transparent" points="698,-539 698,-557 722,-557 722,-539 698,-539"/>
<polygon fill="none" stroke="black" points="698,-539 698,-557 722,-557 722,-539 698,-539"/>
<text text-anchor="start" x="712" y="-545.2" font-family="Helvetica,sans-Serif" font-size="11.00"> &#160;</text>
</a>
</g>
</g>
<!-- specimendatescal&#45;&gt;calibrationcurves -->
<g id="edge16" class="edge">
<title>specimendatescal:w&#45;&gt;calibrationcurves:e</title>
<path fill="none" stroke="black" d="M568.28,-565.96C535.61,-565.77 522.37,-565 483.5,-565"/>
<polygon fill="black" stroke="black" points="575,-565.98 582.99,-569.6 579,-565.99 583,-566 583,-566 583,-566 579,-565.99 583.01,-562.4 575,-565.98 575,-565.98"/>
<ellipse fill="none" stroke="black" cx="571.8" cy="-565.97" rx="3.2" ry="3.2"/>
</g>
<!-- specimendatescal&#45;&gt;calibrationprograms -->
<g id="edge17" class="edge">
<title>specimendatescal:w&#45;&gt;calibrationprograms:e</title>
<path fill="none" stroke="black" d="M568.23,-564.2C551.83,-559.59 545.34,-546.47 531,-529 503.81,-495.86 534.37,-441 491.5,-441"/>
<polygon fill="black" stroke="black" points="575.06,-565.03 582.57,-569.57 579.03,-565.52 583,-566 583,-566 583,-566 579.03,-565.52 583.43,-562.43 575.06,-565.03 575.06,-565.03"/>
<ellipse fill="none" stroke="black" cx="571.88" cy="-564.65" rx="3.2" ry="3.2"/>
</g>
</g>
</svg>
