<?xml version="1.0" encoding="UTF-8" standalone="no"?>
<!DOCTYPE svg PUBLIC "-//W3C//DTD SVG 1.1//EN"
 "http://www.w3.org/Graphics/SVG/1.1/DTD/svg11.dtd">
<!-- Generated by graphviz version 2.43.0 (0)
 -->
<!-- Title: oneDegreeRelationshipsDiagramImplied Pages: 1 -->
<svg width="854pt" height="841pt"
 viewBox="0.00 0.00 854.00 841.00" xmlns="http://www.w3.org/2000/svg" xmlns:xlink="http://www.w3.org/1999/xlink">
<g id="graph0" class="graph" transform="scale(1 1) rotate(0) translate(4 837)">
<title>oneDegreeRelationshipsDiagramImplied</title>
<polygon fill="#ffffff" stroke="transparent" points="-4,4 -4,-837 850,-837 850,4 -4,4"/>
<text text-anchor="middle" x="71.5" y="-7.2" font-family="Helvetica,sans-Serif" font-size="11.00">Generated by SchemaSpy</text>
<!-- chroncontrolranks -->
<g id="node1" class="node">
<title>chroncontrolranks</title>
<g id="a_node1"><a xlink:href="../../tables/chroncontrolranks.html" xlink:title="chroncontrolranks" target="_top">
<polygon fill="#ffffff" stroke="transparent" points="682,-639 682,-829 838,-829 838,-639 682,-639"/>
<polygon fill="#f5f5f5" stroke="transparent" points="682,-807 682,-829 838,-829 838,-807 682,-807"/>
<polygon fill="none" stroke="black" points="682,-807 682,-829 838,-829 838,-807 682,-807"/>
<text text-anchor="start" x="687" y="-816.2" font-family="Helvetica,sans-Serif" font-weight="bold" font-size="11.00">chroncontrolranks</text>
<text text-anchor="start" x="803" y="-815.2" font-family="Helvetica,sans-Serif" font-size="11.00">[table]</text>
<polygon fill="none" stroke="black" points="682,-785 682,-807 838,-807 838,-785 682,-785"/>
<image xlink:href="../../images/primaryKeys.png" width="11px" height="12px" preserveAspectRatio="xMinYMin meet" x="687" y="-802"/>
<text text-anchor="start" x="702" y="-793.2" font-family="Helvetica,sans-Serif" font-size="11.00">chroncontrolrankid</text>
<polygon fill="none" stroke="black" points="682,-763 682,-785 838,-785 838,-763 682,-763"/>
<image xlink:href="../../images/foreignKeys.png" width="11px" height="12px" preserveAspectRatio="xMinYMin meet" x="687" y="-780"/>
<text text-anchor="start" x="702" y="-771.2" font-family="Helvetica,sans-Serif" font-size="11.00">chroncontrolid</text>
<polygon fill="none" stroke="black" points="682,-741 682,-763 838,-763 838,-741 682,-741"/>
<image xlink:href="../../images/foreignKeys.png" width="11px" height="12px" preserveAspectRatio="xMinYMin meet" x="687" y="-758"/>
<text text-anchor="start" x="702" y="-749.2" font-family="Helvetica,sans-Serif" font-size="11.00">accuracyrankid</text>
<polygon fill="none" stroke="black" points="682,-719 682,-741 838,-741 838,-719 682,-719"/>
<image xlink:href="../../images/foreignKeys.png" width="11px" height="12px" preserveAspectRatio="xMinYMin meet" x="687" y="-736"/>
<text text-anchor="start" x="702" y="-727.2" font-family="Helvetica,sans-Serif" font-size="11.00">accuracydirectionid</text>
<polygon fill="none" stroke="black" points="682,-697 682,-719 838,-719 838,-697 682,-697"/>
<image xlink:href="../../images/foreignKeys.png" width="11px" height="12px" preserveAspectRatio="xMinYMin meet" x="687" y="-714"/>
<text text-anchor="start" x="702" y="-705.2" font-family="Helvetica,sans-Serif" font-size="11.00">accuracydistributionid</text>
<polygon fill="none" stroke="black" points="682,-675 682,-697 838,-697 838,-675 682,-675"/>
<image xlink:href="../../images/foreignKeys.png" width="11px" height="12px" preserveAspectRatio="xMinYMin meet" x="687" y="-692"/>
<text text-anchor="start" x="702" y="-683.2" font-family="Helvetica,sans-Serif" font-size="11.00">precisionrankid</text>
<polygon fill="none" stroke="black" points="682,-657 682,-675 838,-675 838,-657 682,-657"/>
<text text-anchor="start" x="685" y="-663.2" font-family="Helvetica,sans-Serif" font-size="11.00">...</text>
<polygon fill="#ffffff" stroke="transparent" points="682,-639 682,-657 745,-657 745,-639 682,-639"/>
<polygon fill="none" stroke="black" points="682,-639 682,-657 745,-657 745,-639 682,-639"/>
<text text-anchor="start" x="685" y="-645.2" font-family="Helvetica,sans-Serif" font-size="11.00">&lt; 5</text>
<polygon fill="#ffffff" stroke="transparent" points="745,-639 745,-657 804,-657 804,-639 745,-639"/>
<polygon fill="none" stroke="black" points="745,-639 745,-657 804,-657 804,-639 745,-639"/>
<text text-anchor="start" x="768" y="-645.2" font-family="Helvetica,sans-Serif" font-size="11.00">0 rows</text>
<polygon fill="#ffffff" stroke="transparent" points="804,-639 804,-657 838,-657 838,-639 804,-639"/>
<polygon fill="none" stroke="black" points="804,-639 804,-657 838,-657 838,-639 804,-639"/>
<text text-anchor="start" x="828" y="-645.2" font-family="Helvetica,sans-Serif" font-size="11.00"> &#160;</text>
</a>
</g>
</g>
<!-- chroncontrols -->
<g id="node2" class="node">
<title>chroncontrols</title>
<g id="a_node2"><a xlink:href="../../tables/chroncontrols.html" xlink:title="chroncontrols" target="_top">
<polygon fill="#ffffff" stroke="transparent" points="402,-179 402,-509 633,-509 633,-179 402,-179"/>
<polygon fill="#f5f5f5" stroke="transparent" points="404.5,-485 404.5,-507 631.5,-507 631.5,-485 404.5,-485"/>
<polygon fill="none" stroke="black" points="404.5,-485 404.5,-507 631.5,-507 631.5,-485 404.5,-485"/>
<text text-anchor="start" x="409.5" y="-494.2" font-family="Helvetica,sans-Serif" font-weight="bold" font-size="11.00">chroncontrols</text>
<text text-anchor="start" x="596.5" y="-493.2" font-family="Helvetica,sans-Serif" font-size="11.00">[table]</text>
<polygon fill="none" stroke="black" points="404.5,-463 404.5,-485 541.5,-485 541.5,-463 404.5,-463"/>
<image xlink:href="../../images/primaryKeys.png" width="11px" height="12px" preserveAspectRatio="xMinYMin meet" x="409.5" y="-480"/>
<text text-anchor="start" x="424.5" y="-471.2" font-family="Helvetica,sans-Serif" font-size="11.00">chroncontrolid</text>
<polygon fill="none" stroke="black" points="541.5,-463 541.5,-485 631.5,-485 631.5,-463 541.5,-463"/>
<text text-anchor="start" x="544.5" y="-471.2" font-family="Helvetica,sans-Serif" font-size="11.00">serial[10]</text>
<polygon fill="none" stroke="black" points="404.5,-441 404.5,-463 541.5,-463 541.5,-441 404.5,-441"/>
<image xlink:href="../../images/foreignKeys.png" width="11px" height="12px" preserveAspectRatio="xMinYMin meet" x="409.5" y="-458"/>
<text text-anchor="start" x="424.5" y="-449.2" font-family="Helvetica,sans-Serif" font-size="11.00">chronologyid</text>
<polygon fill="none" stroke="black" points="541.5,-441 541.5,-463 631.5,-463 631.5,-441 541.5,-441"/>
<text text-anchor="start" x="544.5" y="-449.2" font-family="Helvetica,sans-Serif" font-size="11.00">int4[10]</text>
<polygon fill="none" stroke="black" points="404.5,-419 404.5,-441 541.5,-441 541.5,-419 404.5,-419"/>
<image xlink:href="../../images/foreignKeys.png" width="11px" height="12px" preserveAspectRatio="xMinYMin meet" x="409.5" y="-436"/>
<text text-anchor="start" x="424.5" y="-427.2" font-family="Helvetica,sans-Serif" font-size="11.00">chroncontroltypeid</text>
<polygon fill="none" stroke="black" points="541.5,-419 541.5,-441 631.5,-441 631.5,-419 541.5,-419"/>
<text text-anchor="start" x="544.5" y="-427.2" font-family="Helvetica,sans-Serif" font-size="11.00">int4[10]</text>
<polygon fill="none" stroke="black" points="404.5,-397 404.5,-419 541.5,-419 541.5,-397 404.5,-397"/>
<text text-anchor="start" x="424.5" y="-405.2" font-family="Helvetica,sans-Serif" font-size="11.00">depth</text>
<polygon fill="none" stroke="black" points="541.5,-397 541.5,-419 631.5,-419 631.5,-397 541.5,-397"/>
<text text-anchor="start" x="544.5" y="-405.2" font-family="Helvetica,sans-Serif" font-size="11.00">float8[17,17]</text>
<polygon fill="none" stroke="black" points="404.5,-375 404.5,-397 541.5,-397 541.5,-375 404.5,-375"/>
<text text-anchor="start" x="424.5" y="-383.2" font-family="Helvetica,sans-Serif" font-size="11.00">thickness</text>
<polygon fill="none" stroke="black" points="541.5,-375 541.5,-397 631.5,-397 631.5,-375 541.5,-375"/>
<text text-anchor="start" x="544.5" y="-383.2" font-family="Helvetica,sans-Serif" font-size="11.00">float8[17,17]</text>
<polygon fill="#ffffff" stroke="transparent" points="404.5,-353 404.5,-375 541.5,-375 541.5,-353 404.5,-353"/>
<polygon fill="none" stroke="black" points="404.5,-353 404.5,-375 541.5,-375 541.5,-353 404.5,-353"/>
<text text-anchor="start" x="424.5" y="-361.2" font-family="Helvetica,sans-Serif" font-size="11.00">age</text>
<polygon fill="none" stroke="black" points="541.5,-353 541.5,-375 631.5,-375 631.5,-353 541.5,-353"/>
<text text-anchor="start" x="544.5" y="-361.2" font-family="Helvetica,sans-Serif" font-size="11.00">float8[17,17]</text>
<polygon fill="#ffffff" stroke="transparent" points="404.5,-331 404.5,-353 541.5,-353 541.5,-331 404.5,-331"/>
<polygon fill="none" stroke="black" points="404.5,-331 404.5,-353 541.5,-353 541.5,-331 404.5,-331"/>
<text text-anchor="start" x="424.5" y="-339.2" font-family="Helvetica,sans-Serif" font-size="11.00">agelimityounger</text>
<polygon fill="none" stroke="black" points="541.5,-331 541.5,-353 631.5,-353 631.5,-331 541.5,-331"/>
<text text-anchor="start" x="544.5" y="-339.2" font-family="Helvetica,sans-Serif" font-size="11.00">float8[17,17]</text>
<polygon fill="#ffffff" stroke="transparent" points="404.5,-309 404.5,-331 541.5,-331 541.5,-309 404.5,-309"/>
<polygon fill="none" stroke="black" points="404.5,-309 404.5,-331 541.5,-331 541.5,-309 404.5,-309"/>
<text text-anchor="start" x="424.5" y="-317.2" font-family="Helvetica,sans-Serif" font-size="11.00">agelimitolder</text>
<polygon fill="none" stroke="black" points="541.5,-309 541.5,-331 631.5,-331 631.5,-309 541.5,-309"/>
<text text-anchor="start" x="544.5" y="-317.2" font-family="Helvetica,sans-Serif" font-size="11.00">float8[17,17]</text>
<polygon fill="none" stroke="black" points="404.5,-287 404.5,-309 541.5,-309 541.5,-287 404.5,-287"/>
<text text-anchor="start" x="424.5" y="-295.2" font-family="Helvetica,sans-Serif" font-size="11.00">notes</text>
<polygon fill="none" stroke="black" points="541.5,-287 541.5,-309 631.5,-309 631.5,-287 541.5,-287"/>
<text text-anchor="start" x="544.5" y="-295.2" font-family="Helvetica,sans-Serif" font-size="11.00">text[2147483647]</text>
<polygon fill="none" stroke="black" points="404.5,-265 404.5,-287 541.5,-287 541.5,-265 404.5,-265"/>
<text text-anchor="start" x="424.5" y="-273.2" font-family="Helvetica,sans-Serif" font-size="11.00">recdatecreated</text>
<polygon fill="none" stroke="black" points="541.5,-265 541.5,-287 631.5,-287 631.5,-265 541.5,-265"/>
<text text-anchor="start" x="544.5" y="-273.2" font-family="Helvetica,sans-Serif" font-size="11.00">timestamp[22]</text>
<polygon fill="none" stroke="black" points="404.5,-243 404.5,-265 541.5,-265 541.5,-243 404.5,-243"/>
<text text-anchor="start" x="424.5" y="-251.2" font-family="Helvetica,sans-Serif" font-size="11.00">recdatemodified</text>
<polygon fill="none" stroke="black" points="541.5,-243 541.5,-265 631.5,-265 631.5,-243 541.5,-243"/>
<text text-anchor="start" x="544.5" y="-251.2" font-family="Helvetica,sans-Serif" font-size="11.00">timestamp[22]</text>
<polygon fill="none" stroke="black" points="404.5,-221 404.5,-243 541.5,-243 541.5,-221 404.5,-221"/>
<image xlink:href="../../images/foreignKeys.png" width="11px" height="12px" preserveAspectRatio="xMinYMin meet" x="409.5" y="-238"/>
<text text-anchor="start" x="424.5" y="-229.2" font-family="Helvetica,sans-Serif" font-size="11.00">analysisunitid</text>
<polygon fill="none" stroke="black" points="541.5,-221 541.5,-243 631.5,-243 631.5,-221 541.5,-221"/>
<text text-anchor="start" x="544.5" y="-229.2" font-family="Helvetica,sans-Serif" font-size="11.00">int4[10]</text>
<polygon fill="none" stroke="black" points="404.5,-199 404.5,-221 541.5,-221 541.5,-199 404.5,-199"/>
<image xlink:href="../../images/foreignKeys.png" width="11px" height="12px" preserveAspectRatio="xMinYMin meet" x="409.5" y="-216"/>
<text text-anchor="start" x="424.5" y="-207.2" font-family="Helvetica,sans-Serif" font-size="11.00">agetypeid</text>
<polygon fill="none" stroke="black" points="541.5,-199 541.5,-221 631.5,-221 631.5,-199 541.5,-199"/>
<text text-anchor="start" x="544.5" y="-207.2" font-family="Helvetica,sans-Serif" font-size="11.00">int4[10]</text>
<polygon fill="#ffffff" stroke="transparent" points="404.5,-181 404.5,-199 447.5,-199 447.5,-181 404.5,-181"/>
<polygon fill="none" stroke="black" points="404.5,-181 404.5,-199 447.5,-199 447.5,-181 404.5,-181"/>
<text text-anchor="start" x="407.5" y="-187.2" font-family="Helvetica,sans-Serif" font-size="11.00">&lt; 4</text>
<polygon fill="#ffffff" stroke="transparent" points="447.5,-181 447.5,-199 541.5,-199 541.5,-181 447.5,-181"/>
<polygon fill="none" stroke="black" points="447.5,-181 447.5,-199 541.5,-199 541.5,-181 447.5,-181"/>
<text text-anchor="start" x="472.5" y="-187.2" font-family="Helvetica,sans-Serif" font-size="11.00">100,724 rows</text>
<polygon fill="#ffffff" stroke="transparent" points="541.5,-181 541.5,-199 631.5,-199 631.5,-181 541.5,-181"/>
<polygon fill="none" stroke="black" points="541.5,-181 541.5,-199 631.5,-199 631.5,-181 541.5,-181"/>
<text text-anchor="start" x="612.5" y="-187.2" font-family="Helvetica,sans-Serif" font-size="11.00">5 &gt;</text>
<polygon fill="none" stroke="black" stroke-width="2" points="403,-180 403,-508 632,-508 632,-180 403,-180"/>
</a>
</g>
</g>
<!-- chroncontrolranks&#45;&gt;chroncontrols -->
<g id="edge1" class="edge">
<title>chroncontrolranks:w&#45;&gt;chroncontrols:e</title>
<path fill="none" stroke="black" d="M667.58,-768.54C626.34,-727.88 694.62,-474 632.5,-474"/>
<polygon fill="black" stroke="black" points="673.59,-770.98 679.64,-777.33 677.3,-772.49 681,-774 681,-774 681,-774 677.3,-772.49 682.36,-770.67 673.59,-770.98 673.59,-770.98"/>
<ellipse fill="none" stroke="black" cx="670.63" cy="-769.78" rx="3.2" ry="3.2"/>
</g>
<!-- agetypes -->
<g id="node3" class="node">
<title>agetypes</title>
<g id="a_node3"><a xlink:href="../../tables/agetypes.html" xlink:title="agetypes" target="_top">
<polygon fill="#ffffff" stroke="transparent" points="8,-294 8,-374 128,-374 128,-294 8,-294"/>
<polygon fill="#f5f5f5" stroke="transparent" points="8,-352 8,-374 128,-374 128,-352 8,-352"/>
<polygon fill="none" stroke="black" points="8,-352 8,-374 128,-374 128,-352 8,-352"/>
<text text-anchor="start" x="13" y="-361.2" font-family="Helvetica,sans-Serif" font-weight="bold" font-size="11.00">agetypes</text>
<text text-anchor="start" x="93" y="-360.2" font-family="Helvetica,sans-Serif" font-size="11.00">[table]</text>
<polygon fill="none" stroke="black" points="8,-330 8,-352 128,-352 128,-330 8,-330"/>
<image xlink:href="../../images/primaryKeys.png" width="11px" height="12px" preserveAspectRatio="xMinYMin meet" x="13" y="-347"/>
<text text-anchor="start" x="28" y="-338.2" font-family="Helvetica,sans-Serif" font-size="11.00">agetypeid</text>
<polygon fill="none" stroke="black" points="8,-312 8,-330 128,-330 128,-312 8,-312"/>
<text text-anchor="start" x="11" y="-318.2" font-family="Helvetica,sans-Serif" font-size="11.00">...</text>
<polygon fill="#ffffff" stroke="transparent" points="8,-294 8,-312 44,-312 44,-294 8,-294"/>
<polygon fill="none" stroke="black" points="8,-294 8,-312 44,-312 44,-294 8,-294"/>
<text text-anchor="start" x="11" y="-300.2" font-family="Helvetica,sans-Serif" font-size="11.00"> &#160;</text>
<polygon fill="#ffffff" stroke="transparent" points="44,-294 44,-312 94,-312 94,-294 44,-294"/>
<polygon fill="none" stroke="black" points="44,-294 44,-312 94,-312 94,-294 44,-294"/>
<text text-anchor="start" x="58" y="-300.2" font-family="Helvetica,sans-Serif" font-size="11.00">5 rows</text>
<polygon fill="#ffffff" stroke="transparent" points="94,-294 94,-312 128,-312 128,-294 94,-294"/>
<polygon fill="none" stroke="black" points="94,-294 94,-312 128,-312 128,-294 94,-294"/>
<text text-anchor="start" x="109" y="-300.2" font-family="Helvetica,sans-Serif" font-size="11.00">4 &gt;</text>
</a>
</g>
</g>
<!-- chroncontrols&#45;&gt;agetypes -->
<g id="edge2" class="edge">
<title>chroncontrols:w&#45;&gt;agetypes:e</title>
<path fill="none" stroke="black" d="M388.97,-209.68C328.87,-207.44 207.14,-194.98 169,-224 125.27,-257.28 183.95,-341 129,-341"/>
<polygon fill="black" stroke="black" points="395.5,-209.82 403.42,-213.6 399.5,-209.91 403.5,-210 403.5,-210 403.5,-210 399.5,-209.91 403.58,-206.4 395.5,-209.82 395.5,-209.82"/>
<ellipse fill="none" stroke="black" cx="392.3" cy="-209.75" rx="3.2" ry="3.2"/>
</g>
<!-- analysisunits -->
<g id="node4" class="node">
<title>analysisunits</title>
<g id="a_node4"><a xlink:href="../../tables/analysisunits.html" xlink:title="analysisunits" target="_top">
<polygon fill="#ffffff" stroke="transparent" points="201,-63 201,-187 329,-187 329,-63 201,-63"/>
<polygon fill="#f5f5f5" stroke="transparent" points="201,-165 201,-187 329,-187 329,-165 201,-165"/>
<polygon fill="none" stroke="black" points="201,-165 201,-187 329,-187 329,-165 201,-165"/>
<text text-anchor="start" x="206" y="-174.2" font-family="Helvetica,sans-Serif" font-weight="bold" font-size="11.00">analysisunits</text>
<text text-anchor="start" x="294" y="-173.2" font-family="Helvetica,sans-Serif" font-size="11.00">[table]</text>
<polygon fill="none" stroke="black" points="201,-143 201,-165 329,-165 329,-143 201,-143"/>
<image xlink:href="../../images/primaryKeys.png" width="11px" height="12px" preserveAspectRatio="xMinYMin meet" x="206" y="-160"/>
<text text-anchor="start" x="221" y="-151.2" font-family="Helvetica,sans-Serif" font-size="11.00">analysisunitid</text>
<polygon fill="#ffffff" stroke="transparent" points="201,-121 201,-143 329,-143 329,-121 201,-121"/>
<polygon fill="none" stroke="black" points="201,-121 201,-143 329,-143 329,-121 201,-121"/>
<image xlink:href="../../images/foreignKeys.png" width="11px" height="12px" preserveAspectRatio="xMinYMin meet" x="206" y="-138"/>
<text text-anchor="start" x="221" y="-129.2" font-family="Helvetica,sans-Serif" font-size="11.00">collectionunitid</text>
<polygon fill="#ffffff" stroke="transparent" points="201,-99 201,-121 329,-121 329,-99 201,-99"/>
<polygon fill="none" stroke="black" points="201,-99 201,-121 329,-121 329,-99 201,-99"/>
<image xlink:href="../../images/foreignKeys.png" width="11px" height="12px" preserveAspectRatio="xMinYMin meet" x="206" y="-116"/>
<text text-anchor="start" x="221" y="-107.2" font-family="Helvetica,sans-Serif" font-size="11.00">faciesid</text>
<polygon fill="none" stroke="black" points="201,-81 201,-99 329,-99 329,-81 201,-81"/>
<text text-anchor="start" x="204" y="-87.2" font-family="Helvetica,sans-Serif" font-size="11.00">...</text>
<polygon fill="#ffffff" stroke="transparent" points="201,-63 201,-81 229,-81 229,-63 201,-63"/>
<polygon fill="none" stroke="black" points="201,-63 201,-81 229,-81 229,-63 201,-63"/>
<text text-anchor="start" x="204" y="-69.2" font-family="Helvetica,sans-Serif" font-size="11.00">&lt; 2</text>
<polygon fill="#ffffff" stroke="transparent" points="229,-63 229,-81 304,-81 304,-63 229,-63"/>
<polygon fill="none" stroke="black" points="229,-63 229,-81 304,-81 304,-63 229,-63"/>
<text text-anchor="start" x="235" y="-69.2" font-family="Helvetica,sans-Serif" font-size="11.00">449,200 rows</text>
<polygon fill="#ffffff" stroke="transparent" points="304,-63 304,-81 329,-81 329,-63 304,-63"/>
<polygon fill="none" stroke="black" points="304,-63 304,-81 329,-81 329,-63 304,-63"/>
<text text-anchor="start" x="310" y="-69.2" font-family="Helvetica,sans-Serif" font-size="11.00">9 &gt;</text>
</a>
</g>
</g>
<!-- chroncontrols&#45;&gt;analysisunits -->
<g id="edge3" class="edge">
<title>chroncontrols:w&#45;&gt;analysisunits:e</title>
<path fill="none" stroke="black" d="M389.39,-229.04C360.02,-214.79 372.05,-154 330,-154"/>
<polygon fill="black" stroke="black" points="395.67,-230.36 402.76,-235.52 399.59,-231.18 403.5,-232 403.5,-232 403.5,-232 399.59,-231.18 404.24,-228.48 395.67,-230.36 395.67,-230.36"/>
<ellipse fill="none" stroke="black" cx="392.54" cy="-229.7" rx="3.2" ry="3.2"/>
</g>
<!-- chroncontroltypes -->
<g id="node5" class="node">
<title>chroncontroltypes</title>
<g id="a_node5"><a xlink:href="../../tables/chroncontroltypes.html" xlink:title="chroncontroltypes" target="_top">
<polygon fill="#ffffff" stroke="transparent" points="177,-235 177,-337 353,-337 353,-235 177,-235"/>
<polygon fill="#f5f5f5" stroke="transparent" points="177,-315 177,-337 353,-337 353,-315 177,-315"/>
<polygon fill="none" stroke="black" points="177,-315 177,-337 353,-337 353,-315 177,-315"/>
<text text-anchor="start" x="182" y="-324.2" font-family="Helvetica,sans-Serif" font-weight="bold" font-size="11.00">chroncontroltypes</text>
<text text-anchor="start" x="318" y="-323.2" font-family="Helvetica,sans-Serif" font-size="11.00">[table]</text>
<polygon fill="none" stroke="black" points="177,-293 177,-315 353,-315 353,-293 177,-293"/>
<image xlink:href="../../images/primaryKeys.png" width="11px" height="12px" preserveAspectRatio="xMinYMin meet" x="182" y="-310"/>
<text text-anchor="start" x="197" y="-301.2" font-family="Helvetica,sans-Serif" font-size="11.00">chroncontroltypeid</text>
<polygon fill="none" stroke="black" points="177,-271 177,-293 353,-293 353,-271 177,-271"/>
<image xlink:href="../../images/foreignKeys.png" width="11px" height="12px" preserveAspectRatio="xMinYMin meet" x="182" y="-288"/>
<text text-anchor="start" x="197" y="-279.2" font-family="Helvetica,sans-Serif" font-size="11.00">higherchroncontroltypeid</text>
<polygon fill="none" stroke="black" points="177,-253 177,-271 353,-271 353,-253 177,-253"/>
<text text-anchor="start" x="180" y="-259.2" font-family="Helvetica,sans-Serif" font-size="11.00">...</text>
<polygon fill="#ffffff" stroke="transparent" points="177,-235 177,-253 242,-253 242,-235 177,-235"/>
<polygon fill="none" stroke="black" points="177,-235 177,-253 242,-253 242,-235 177,-235"/>
<text text-anchor="start" x="180" y="-241.2" font-family="Helvetica,sans-Serif" font-size="11.00">&lt; 1</text>
<polygon fill="#ffffff" stroke="transparent" points="242,-235 242,-253 309,-253 309,-235 242,-235"/>
<polygon fill="none" stroke="black" points="242,-235 242,-253 309,-253 309,-235 242,-235"/>
<text text-anchor="start" x="267" y="-241.2" font-family="Helvetica,sans-Serif" font-size="11.00">99 rows</text>
<polygon fill="#ffffff" stroke="transparent" points="309,-235 309,-253 353,-253 353,-235 309,-235"/>
<polygon fill="none" stroke="black" points="309,-235 309,-253 353,-253 353,-235 309,-235"/>
<text text-anchor="start" x="334" y="-241.2" font-family="Helvetica,sans-Serif" font-size="11.00">3 &gt;</text>
</a>
</g>
</g>
<!-- chroncontrols&#45;&gt;chroncontroltypes -->
<g id="edge4" class="edge">
<title>chroncontrols:w&#45;&gt;chroncontroltypes:e</title>
<path fill="none" stroke="black" d="M389.38,-426.63C355.92,-406.59 408.29,-304 354,-304"/>
<polygon fill="black" stroke="black" points="395.72,-428.14 402.66,-433.5 399.61,-429.07 403.5,-430 403.5,-430 403.5,-430 399.61,-429.07 404.34,-426.5 395.72,-428.14 395.72,-428.14"/>
<ellipse fill="none" stroke="black" cx="392.61" cy="-427.4" rx="3.2" ry="3.2"/>
</g>
<!-- chronologies -->
<g id="node6" class="node">
<title>chronologies</title>
<g id="a_node6"><a xlink:href="../../tables/chronologies.html" xlink:title="chronologies" target="_top">
<polygon fill="#ffffff" stroke="transparent" points="199.5,-358 199.5,-548 330.5,-548 330.5,-358 199.5,-358"/>
<polygon fill="#f5f5f5" stroke="transparent" points="200,-526 200,-548 331,-548 331,-526 200,-526"/>
<polygon fill="none" stroke="black" points="200,-526 200,-548 331,-548 331,-526 200,-526"/>
<text text-anchor="start" x="205" y="-535.2" font-family="Helvetica,sans-Serif" font-weight="bold" font-size="11.00">chronologies</text>
<text text-anchor="start" x="296" y="-534.2" font-family="Helvetica,sans-Serif" font-size="11.00">[table]</text>
<polygon fill="none" stroke="black" points="200,-504 200,-526 331,-526 331,-504 200,-504"/>
<image xlink:href="../../images/primaryKeys.png" width="11px" height="12px" preserveAspectRatio="xMinYMin meet" x="205" y="-521"/>
<text text-anchor="start" x="220" y="-512.2" font-family="Helvetica,sans-Serif" font-size="11.00">chronologyid</text>
<polygon fill="none" stroke="black" points="200,-482 200,-504 331,-504 331,-482 200,-482"/>
<image xlink:href="../../images/foreignKeys.png" width="11px" height="12px" preserveAspectRatio="xMinYMin meet" x="205" y="-499"/>
<text text-anchor="start" x="220" y="-490.2" font-family="Helvetica,sans-Serif" font-size="11.00">collectionunitid</text>
<polygon fill="none" stroke="black" points="200,-460 200,-482 331,-482 331,-460 200,-460"/>
<image xlink:href="../../images/foreignKeys.png" width="11px" height="12px" preserveAspectRatio="xMinYMin meet" x="205" y="-477"/>
<text text-anchor="start" x="220" y="-468.2" font-family="Helvetica,sans-Serif" font-size="11.00">agetypeid</text>
<polygon fill="none" stroke="black" points="200,-438 200,-460 331,-460 331,-438 200,-438"/>
<image xlink:href="../../images/foreignKeys.png" width="11px" height="12px" preserveAspectRatio="xMinYMin meet" x="205" y="-455"/>
<text text-anchor="start" x="220" y="-446.2" font-family="Helvetica,sans-Serif" font-size="11.00">contactid</text>
<polygon fill="#ffffff" stroke="transparent" points="200,-416 200,-438 331,-438 331,-416 200,-416"/>
<polygon fill="none" stroke="black" points="200,-416 200,-438 331,-438 331,-416 200,-416"/>
<text text-anchor="start" x="220" y="-424.2" font-family="Helvetica,sans-Serif" font-size="11.00">ageboundyounger</text>
<polygon fill="#ffffff" stroke="transparent" points="200,-394 200,-416 331,-416 331,-394 200,-394"/>
<polygon fill="none" stroke="black" points="200,-394 200,-416 331,-416 331,-394 200,-394"/>
<text text-anchor="start" x="220" y="-402.2" font-family="Helvetica,sans-Serif" font-size="11.00">ageboundolder</text>
<polygon fill="none" stroke="black" points="200,-376 200,-394 331,-394 331,-376 200,-376"/>
<text text-anchor="start" x="203" y="-382.2" font-family="Helvetica,sans-Serif" font-size="11.00">...</text>
<polygon fill="#ffffff" stroke="transparent" points="200,-358 200,-376 232,-376 232,-358 200,-358"/>
<polygon fill="none" stroke="black" points="200,-358 200,-376 232,-376 232,-358 200,-358"/>
<text text-anchor="start" x="203" y="-364.2" font-family="Helvetica,sans-Serif" font-size="11.00">&lt; 3</text>
<polygon fill="#ffffff" stroke="transparent" points="232,-358 232,-376 303,-376 303,-358 232,-358"/>
<polygon fill="none" stroke="black" points="232,-358 232,-376 303,-376 303,-358 232,-358"/>
<text text-anchor="start" x="240" y="-364.2" font-family="Helvetica,sans-Serif" font-size="11.00">31,133 rows</text>
<polygon fill="#ffffff" stroke="transparent" points="303,-358 303,-376 331,-376 331,-358 303,-358"/>
<polygon fill="none" stroke="black" points="303,-358 303,-376 331,-376 331,-358 303,-358"/>
<text text-anchor="start" x="312" y="-364.2" font-family="Helvetica,sans-Serif" font-size="11.00">3 &gt;</text>
</a>
</g>
</g>
<!-- chroncontrols&#45;&gt;chronologies -->
<g id="edge5" class="edge">
<title>chroncontrols:w&#45;&gt;chronologies:e</title>
<path fill="none" stroke="black" d="M389.3,-455.04C363.67,-467.62 368.73,-515 332,-515"/>
<polygon fill="black" stroke="black" points="395.68,-453.67 404.25,-455.52 399.59,-452.84 403.5,-452 403.5,-452 403.5,-452 399.59,-452.84 402.75,-448.48 395.68,-453.67 395.68,-453.67"/>
<ellipse fill="none" stroke="black" cx="392.55" cy="-454.34" rx="3.2" ry="3.2"/>
</g>
<!-- chronologies&#45;&gt;agetypes -->
<g id="edge7" class="edge">
<title>chronologies:w&#45;&gt;agetypes:e</title>
<path fill="none" stroke="black" d="M184.73,-468.28C142.97,-449.62 188.98,-341 129,-341"/>
<polygon fill="black" stroke="black" points="191.14,-469.5 198.33,-474.54 195.07,-470.25 199,-471 199,-471 199,-471 195.07,-470.25 199.67,-467.46 191.14,-469.5 191.14,-469.5"/>
<ellipse fill="none" stroke="black" cx="188" cy="-468.91" rx="3.2" ry="3.2"/>
</g>
<!-- chroncontrolscal14c -->
<g id="node7" class="node">
<title>chroncontrolscal14c</title>
<g id="a_node7"><a xlink:href="../../tables/chroncontrolscal14c.html" xlink:title="chroncontrolscal14c" target="_top">
<polygon fill="#ffffff" stroke="transparent" points="684,-494 684,-618 836,-618 836,-494 684,-494"/>
<polygon fill="#f5f5f5" stroke="transparent" points="684,-596 684,-618 836,-618 836,-596 684,-596"/>
<polygon fill="none" stroke="black" points="684,-596 684,-618 836,-618 836,-596 684,-596"/>
<text text-anchor="start" x="689" y="-605.2" font-family="Helvetica,sans-Serif" font-weight="bold" font-size="11.00">chroncontrolscal14c</text>
<text text-anchor="start" x="801" y="-604.2" font-family="Helvetica,sans-Serif" font-size="11.00">[table]</text>
<polygon fill="none" stroke="black" points="684,-574 684,-596 836,-596 836,-574 684,-574"/>
<image xlink:href="../../images/primaryKeys.png" width="11px" height="12px" preserveAspectRatio="xMinYMin meet" x="689" y="-591"/>
<text text-anchor="start" x="705" y="-582.2" font-family="Helvetica,sans-Serif" font-size="11.00">chroncontrolid</text>
<polygon fill="none" stroke="black" points="684,-552 684,-574 836,-574 836,-552 684,-552"/>
<image xlink:href="../../images/foreignKeys.png" width="11px" height="12px" preserveAspectRatio="xMinYMin meet" x="689" y="-569"/>
<text text-anchor="start" x="705" y="-560.2" font-family="Helvetica,sans-Serif" font-size="11.00">calibrationcurveid</text>
<polygon fill="none" stroke="black" points="684,-530 684,-552 836,-552 836,-530 684,-530"/>
<image xlink:href="../../images/foreignKeys.png" width="11px" height="12px" preserveAspectRatio="xMinYMin meet" x="689" y="-547"/>
<text text-anchor="start" x="705" y="-538.2" font-family="Helvetica,sans-Serif" font-size="11.00">calibrationprogramid</text>
<polygon fill="none" stroke="black" points="684,-512 684,-530 836,-530 836,-512 684,-512"/>
<text text-anchor="start" x="687" y="-518.2" font-family="Helvetica,sans-Serif" font-size="11.00">...</text>
<polygon fill="#ffffff" stroke="transparent" points="684,-494 684,-512 734,-512 734,-494 684,-494"/>
<polygon fill="none" stroke="black" points="684,-494 684,-512 734,-512 734,-494 684,-494"/>
<text text-anchor="start" x="687" y="-500.2" font-family="Helvetica,sans-Serif" font-size="11.00">&lt; 3</text>
<polygon fill="#ffffff" stroke="transparent" points="734,-494 734,-512 808,-512 808,-494 734,-494"/>
<polygon fill="none" stroke="black" points="734,-494 734,-512 808,-512 808,-494 734,-494"/>
<text text-anchor="start" x="751" y="-500.2" font-family="Helvetica,sans-Serif" font-size="11.00">6,591 rows</text>
<polygon fill="#ffffff" stroke="transparent" points="808,-494 808,-512 836,-512 836,-494 808,-494"/>
<polygon fill="none" stroke="black" points="808,-494 808,-512 836,-512 836,-494 808,-494"/>
<text text-anchor="start" x="826" y="-500.2" font-family="Helvetica,sans-Serif" font-size="11.00"> &#160;</text>
</a>
</g>
</g>
<!-- chroncontrolscal14c&#45;&gt;chroncontrols -->
<g id="edge6" class="edge">
<title>chroncontrolscal14c:w&#45;&gt;chroncontrols:e</title>
<path fill="none" stroke="black" d="M672.69,-583.26C636.78,-569.13 682.68,-474 632.5,-474"/>
<polygon fill="black" stroke="black" points="682.88,-580.92 681.54,-588.81 679.97,-588.54 681.3,-580.66 682.88,-580.92"/>
<polyline fill="none" stroke="black" points="683,-585 679.06,-584.33 "/>
<ellipse fill="none" stroke="black" cx="675.9" cy="-583.8" rx="3.2" ry="3.2"/>
</g>
<!-- eventchronology -->
<g id="node8" class="node">
<title>eventchronology</title>
<g id="a_node8"><a xlink:href="../../tables/eventchronology.html" xlink:title="eventchronology" target="_top">
<polygon fill="#ffffff" stroke="transparent" points="693,-37 693,-183 827,-183 827,-37 693,-37"/>
<polygon fill="#f5f5f5" stroke="transparent" points="693,-161 693,-183 827,-183 827,-161 693,-161"/>
<polygon fill="none" stroke="black" points="693,-161 693,-183 827,-183 827,-161 693,-161"/>
<text text-anchor="start" x="698" y="-170.2" font-family="Helvetica,sans-Serif" font-weight="bold" font-size="11.00">eventchronology</text>
<text text-anchor="start" x="792" y="-169.2" font-family="Helvetica,sans-Serif" font-size="11.00">[table]</text>
<polygon fill="none" stroke="black" points="693,-139 693,-161 827,-161 827,-139 693,-139"/>
<image xlink:href="../../images/primaryKeys.png" width="11px" height="12px" preserveAspectRatio="xMinYMin meet" x="698" y="-156"/>
<text text-anchor="start" x="713" y="-147.2" font-family="Helvetica,sans-Serif" font-size="11.00">eventchronologyid</text>
<polygon fill="#ffffff" stroke="transparent" points="693,-117 693,-139 827,-139 827,-117 693,-117"/>
<polygon fill="none" stroke="black" points="693,-117 693,-139 827,-139 827,-117 693,-117"/>
<image xlink:href="../../images/foreignKeys.png" width="11px" height="12px" preserveAspectRatio="xMinYMin meet" x="698" y="-134"/>
<text text-anchor="start" x="713" y="-125.2" font-family="Helvetica,sans-Serif" font-size="11.00">analysisunitid</text>
<polygon fill="#ffffff" stroke="transparent" points="693,-95 693,-117 827,-117 827,-95 693,-95"/>
<polygon fill="none" stroke="black" points="693,-95 693,-117 827,-117 827,-95 693,-95"/>
<image xlink:href="../../images/foreignKeys.png" width="11px" height="12px" preserveAspectRatio="xMinYMin meet" x="698" y="-112"/>
<text text-anchor="start" x="713" y="-103.2" font-family="Helvetica,sans-Serif" font-size="11.00">eventid</text>
<polygon fill="#ffffff" stroke="transparent" points="693,-73 693,-95 827,-95 827,-73 693,-73"/>
<polygon fill="none" stroke="black" points="693,-73 693,-95 827,-95 827,-73 693,-73"/>
<image xlink:href="../../images/foreignKeys.png" width="11px" height="12px" preserveAspectRatio="xMinYMin meet" x="698" y="-90"/>
<text text-anchor="start" x="713" y="-81.2" font-family="Helvetica,sans-Serif" font-size="11.00">chroncontrolid</text>
<polygon fill="none" stroke="black" points="693,-55 693,-73 827,-73 827,-55 693,-55"/>
<text text-anchor="start" x="696" y="-61.2" font-family="Helvetica,sans-Serif" font-size="11.00">...</text>
<polygon fill="#ffffff" stroke="transparent" points="693,-37 693,-55 739,-55 739,-37 693,-37"/>
<polygon fill="none" stroke="black" points="693,-37 693,-55 739,-55 739,-37 693,-37"/>
<text text-anchor="start" x="696" y="-43.2" font-family="Helvetica,sans-Serif" font-size="11.00">&lt; 3</text>
<polygon fill="#ffffff" stroke="transparent" points="739,-37 739,-55 802,-55 802,-37 739,-37"/>
<polygon fill="none" stroke="black" points="739,-37 739,-55 802,-55 802,-37 739,-37"/>
<text text-anchor="start" x="754" y="-43.2" font-family="Helvetica,sans-Serif" font-size="11.00">271 rows</text>
<polygon fill="#ffffff" stroke="transparent" points="802,-37 802,-55 827,-55 827,-37 802,-37"/>
<polygon fill="none" stroke="black" points="802,-37 802,-55 827,-55 827,-37 802,-37"/>
<text text-anchor="start" x="817" y="-43.2" font-family="Helvetica,sans-Serif" font-size="11.00"> &#160;</text>
</a>
</g>
</g>
<!-- eventchronology&#45;&gt;chroncontrols -->
<g id="edge9" class="edge">
<title>eventchronology:w&#45;&gt;chroncontrols:e</title>
<path fill="none" stroke="black" d="M677.85,-88.38C618.02,-131.23 714.69,-474 632.5,-474"/>
<polygon fill="black" stroke="black" points="684.36,-86.37 693.06,-87.44 688.18,-85.18 692,-84 692,-84 692,-84 688.18,-85.18 690.94,-80.56 684.36,-86.37 684.36,-86.37"/>
<ellipse fill="none" stroke="black" cx="681.3" cy="-87.31" rx="3.2" ry="3.2"/>
</g>
<!-- eventchronology&#45;&gt;analysisunits -->
<g id="edge8" class="edge">
<title>eventchronology:w&#45;&gt;analysisunits:e</title>
<path fill="none" stroke="black" d="M677.26,-128.02C556.66,-128.32 520.99,-132.47 394,-145 365.41,-147.82 358.72,-154 330,-154"/>
<polygon fill="black" stroke="black" points="684,-128.01 692,-131.6 688,-128 692,-128 692,-128 692,-128 688,-128 692,-124.4 684,-128.01 684,-128.01"/>
<ellipse fill="none" stroke="black" cx="680.8" cy="-128.01" rx="3.2" ry="3.2"/>
</g>
<!-- geochroncontrols -->
<g id="node9" class="node">
<title>geochroncontrols</title>
<g id="a_node9"><a xlink:href="../../tables/geochroncontrols.html" xlink:title="geochroncontrols" target="_top">
<polygon fill="#ffffff" stroke="transparent" points="691,-371 691,-473 829,-473 829,-371 691,-371"/>
<polygon fill="#f5f5f5" stroke="transparent" points="691,-451 691,-473 829,-473 829,-451 691,-451"/>
<polygon fill="none" stroke="black" points="691,-451 691,-473 829,-473 829,-451 691,-451"/>
<text text-anchor="start" x="696" y="-460.2" font-family="Helvetica,sans-Serif" font-weight="bold" font-size="11.00">geochroncontrols</text>
<text text-anchor="start" x="794" y="-459.2" font-family="Helvetica,sans-Serif" font-size="11.00">[table]</text>
<polygon fill="none" stroke="black" points="691,-429 691,-451 829,-451 829,-429 691,-429"/>
<image xlink:href="../../images/primaryKeys.png" width="11px" height="12px" preserveAspectRatio="xMinYMin meet" x="696" y="-446"/>
<text text-anchor="start" x="717" y="-437.2" font-family="Helvetica,sans-Serif" font-size="11.00">chroncontrolid</text>
<polygon fill="none" stroke="black" points="691,-407 691,-429 829,-429 829,-407 691,-407"/>
<image xlink:href="../../images/primaryKeys.png" width="11px" height="12px" preserveAspectRatio="xMinYMin meet" x="696" y="-424"/>
<text text-anchor="start" x="717" y="-415.2" font-family="Helvetica,sans-Serif" font-size="11.00">geochronid</text>
<polygon fill="none" stroke="black" points="691,-389 691,-407 829,-407 829,-389 691,-389"/>
<text text-anchor="start" x="694" y="-395.2" font-family="Helvetica,sans-Serif" font-size="11.00">...</text>
<polygon fill="#ffffff" stroke="transparent" points="691,-371 691,-389 731,-389 731,-371 691,-371"/>
<polygon fill="none" stroke="black" points="691,-371 691,-389 731,-389 731,-371 691,-371"/>
<text text-anchor="start" x="694" y="-377.2" font-family="Helvetica,sans-Serif" font-size="11.00">&lt; 2</text>
<polygon fill="#ffffff" stroke="transparent" points="731,-371 731,-389 806,-389 806,-371 731,-371"/>
<polygon fill="none" stroke="black" points="731,-371 731,-389 806,-389 806,-371 731,-371"/>
<text text-anchor="start" x="743" y="-377.2" font-family="Helvetica,sans-Serif" font-size="11.00">42,293 rows</text>
<polygon fill="#ffffff" stroke="transparent" points="806,-371 806,-389 829,-389 829,-371 806,-371"/>
<polygon fill="none" stroke="black" points="806,-371 806,-389 829,-389 829,-371 806,-371"/>
<text text-anchor="start" x="819" y="-377.2" font-family="Helvetica,sans-Serif" font-size="11.00"> &#160;</text>
</a>
</g>
</g>
<!-- geochroncontrols&#45;&gt;chroncontrols -->
<g id="edge10" class="edge">
<title>geochroncontrols:w&#45;&gt;chroncontrols:e</title>
<path fill="none" stroke="black" d="M675.75,-443.38C659.84,-451.98 656.39,-474 632.5,-474"/>
<polygon fill="black" stroke="black" points="682.22,-441.85 690.83,-443.5 686.11,-440.92 690,-440 690,-440 690,-440 686.11,-440.92 689.17,-436.5 682.22,-441.85 682.22,-441.85"/>
<ellipse fill="none" stroke="black" cx="679.1" cy="-442.59" rx="3.2" ry="3.2"/>
</g>
<!-- relativechronology -->
<g id="node10" class="node">
<title>relativechronology</title>
<g id="a_node10"><a xlink:href="../../tables/relativechronology.html" xlink:title="relativechronology" target="_top">
<polygon fill="#ffffff" stroke="transparent" points="688.5,-204 688.5,-350 831.5,-350 831.5,-204 688.5,-204"/>
<polygon fill="#f5f5f5" stroke="transparent" points="689,-328 689,-350 832,-350 832,-328 689,-328"/>
<polygon fill="none" stroke="black" points="689,-328 689,-350 832,-350 832,-328 689,-328"/>
<text text-anchor="start" x="694" y="-337.2" font-family="Helvetica,sans-Serif" font-weight="bold" font-size="11.00">relativechronology</text>
<text text-anchor="start" x="797" y="-336.2" font-family="Helvetica,sans-Serif" font-size="11.00">[table]</text>
<polygon fill="none" stroke="black" points="689,-306 689,-328 832,-328 832,-306 689,-306"/>
<image xlink:href="../../images/primaryKeys.png" width="11px" height="12px" preserveAspectRatio="xMinYMin meet" x="694" y="-323"/>
<text text-anchor="start" x="714" y="-314.2" font-family="Helvetica,sans-Serif" font-size="11.00">relativechronid</text>
<polygon fill="#ffffff" stroke="transparent" points="689,-284 689,-306 832,-306 832,-284 689,-284"/>
<polygon fill="none" stroke="black" points="689,-284 689,-306 832,-306 832,-284 689,-284"/>
<image xlink:href="../../images/foreignKeys.png" width="11px" height="12px" preserveAspectRatio="xMinYMin meet" x="694" y="-301"/>
<text text-anchor="start" x="714" y="-292.2" font-family="Helvetica,sans-Serif" font-size="11.00">analysisunitid</text>
<polygon fill="#ffffff" stroke="transparent" points="689,-262 689,-284 832,-284 832,-262 689,-262"/>
<polygon fill="none" stroke="black" points="689,-262 689,-284 832,-284 832,-262 689,-262"/>
<image xlink:href="../../images/foreignKeys.png" width="11px" height="12px" preserveAspectRatio="xMinYMin meet" x="694" y="-279"/>
<text text-anchor="start" x="714" y="-270.2" font-family="Helvetica,sans-Serif" font-size="11.00">relativeageid</text>
<polygon fill="none" stroke="black" points="689,-240 689,-262 832,-262 832,-240 689,-240"/>
<image xlink:href="../../images/foreignKeys.png" width="11px" height="12px" preserveAspectRatio="xMinYMin meet" x="694" y="-257"/>
<text text-anchor="start" x="714" y="-248.2" font-family="Helvetica,sans-Serif" font-size="11.00">chroncontrolid</text>
<polygon fill="none" stroke="black" points="689,-222 689,-240 832,-240 832,-222 689,-222"/>
<text text-anchor="start" x="692" y="-228.2" font-family="Helvetica,sans-Serif" font-size="11.00">...</text>
<polygon fill="#ffffff" stroke="transparent" points="689,-204 689,-222 735,-222 735,-204 689,-204"/>
<polygon fill="none" stroke="black" points="689,-204 689,-222 735,-222 735,-204 689,-204"/>
<text text-anchor="start" x="692" y="-210.2" font-family="Helvetica,sans-Serif" font-size="11.00">&lt; 3</text>
<polygon fill="#ffffff" stroke="transparent" points="735,-204 735,-222 807,-222 807,-204 735,-204"/>
<polygon fill="none" stroke="black" points="735,-204 735,-222 807,-222 807,-204 735,-204"/>
<text text-anchor="start" x="750" y="-210.2" font-family="Helvetica,sans-Serif" font-size="11.00">4,625 rows</text>
<polygon fill="#ffffff" stroke="transparent" points="807,-204 807,-222 832,-222 832,-204 807,-204"/>
<polygon fill="none" stroke="black" points="807,-204 807,-222 832,-222 832,-204 807,-204"/>
<text text-anchor="start" x="822" y="-210.2" font-family="Helvetica,sans-Serif" font-size="11.00"> &#160;</text>
</a>
</g>
</g>
<!-- relativechronology&#45;&gt;chroncontrols -->
<g id="edge12" class="edge">
<title>relativechronology:w&#45;&gt;chroncontrols:e</title>
<path fill="none" stroke="black" d="M673.41,-252.93C601.39,-274.72 729.05,-474 632.5,-474"/>
<polygon fill="black" stroke="black" points="680.07,-252.05 688.47,-254.57 684.03,-251.52 688,-251 688,-251 688,-251 684.03,-251.52 687.53,-247.43 680.07,-252.05 680.07,-252.05"/>
<ellipse fill="none" stroke="black" cx="676.9" cy="-252.47" rx="3.2" ry="3.2"/>
</g>
<!-- relativechronology&#45;&gt;analysisunits -->
<g id="edge11" class="edge">
<title>relativechronology:w&#45;&gt;analysisunits:e</title>
<path fill="none" stroke="black" d="M673.73,-292.54C639.11,-277.81 684.55,-200.82 641,-169 585.13,-128.18 399.19,-154 330,-154"/>
<polygon fill="black" stroke="black" points="680.12,-293.64 687.39,-298.55 684.06,-294.32 688,-295 688,-295 688,-295 684.06,-294.32 688.61,-291.45 680.12,-293.64 680.12,-293.64"/>
<ellipse fill="none" stroke="black" cx="676.96" cy="-293.1" rx="3.2" ry="3.2"/>
</g>
</g>
</svg>
