<?xml version="1.0" encoding="UTF-8" standalone="no"?>
<!DOCTYPE svg PUBLIC "-//W3C//DTD SVG 1.1//EN"
 "http://www.w3.org/Graphics/SVG/1.1/DTD/svg11.dtd">
<!-- Generated by graphviz version 2.43.0 (0)
 -->
<!-- Title: twoDegreesRelationshipsDiagram Pages: 1 -->
<svg width="494pt" height="497pt"
 viewBox="0.00 0.00 494.00 497.00" xmlns="http://www.w3.org/2000/svg" xmlns:xlink="http://www.w3.org/1999/xlink">
<g id="graph0" class="graph" transform="scale(1 1) rotate(0) translate(4 493)">
<title>twoDegreesRelationshipsDiagram</title>
<polygon fill="#ffffff" stroke="transparent" points="-4,4 -4,-493 490,-493 490,4 -4,4"/>
<text text-anchor="middle" x="71.5" y="-7.2" font-family="Helvetica,sans-Serif" font-size="11.00">Generated by SchemaSpy</text>
<!-- chroncontrolranks -->
<g id="node1" class="node">
<title>chroncontrolranks</title>
<g id="a_node1"><a xlink:href="../../tables/chroncontrolranks.html" xlink:title="chroncontrolranks" target="_top">
<polygon fill="#ffffff" stroke="transparent" points="322,-205 322,-395 478,-395 478,-205 322,-205"/>
<polygon fill="#f5f5f5" stroke="transparent" points="322,-373 322,-395 478,-395 478,-373 322,-373"/>
<polygon fill="none" stroke="black" points="322,-373 322,-395 478,-395 478,-373 322,-373"/>
<text text-anchor="start" x="327" y="-382.2" font-family="Helvetica,sans-Serif" font-weight="bold" font-size="11.00">chroncontrolranks</text>
<text text-anchor="start" x="443" y="-381.2" font-family="Helvetica,sans-Serif" font-size="11.00">[table]</text>
<polygon fill="none" stroke="black" points="322,-351 322,-373 478,-373 478,-351 322,-351"/>
<image xlink:href="../../images/primaryKeys.png" width="11px" height="12px" preserveAspectRatio="xMinYMin meet" x="327" y="-368"/>
<text text-anchor="start" x="342" y="-359.2" font-family="Helvetica,sans-Serif" font-size="11.00">chroncontrolrankid</text>
<polygon fill="none" stroke="black" points="322,-329 322,-351 478,-351 478,-329 322,-329"/>
<image xlink:href="../../images/foreignKeys.png" width="11px" height="12px" preserveAspectRatio="xMinYMin meet" x="327" y="-346"/>
<text text-anchor="start" x="342" y="-337.2" font-family="Helvetica,sans-Serif" font-size="11.00">chroncontrolid</text>
<polygon fill="none" stroke="black" points="322,-307 322,-329 478,-329 478,-307 322,-307"/>
<image xlink:href="../../images/foreignKeys.png" width="11px" height="12px" preserveAspectRatio="xMinYMin meet" x="327" y="-324"/>
<text text-anchor="start" x="342" y="-315.2" font-family="Helvetica,sans-Serif" font-size="11.00">accuracyrankid</text>
<polygon fill="none" stroke="black" points="322,-285 322,-307 478,-307 478,-285 322,-285"/>
<image xlink:href="../../images/foreignKeys.png" width="11px" height="12px" preserveAspectRatio="xMinYMin meet" x="327" y="-302"/>
<text text-anchor="start" x="342" y="-293.2" font-family="Helvetica,sans-Serif" font-size="11.00">accuracydirectionid</text>
<polygon fill="none" stroke="black" points="322,-263 322,-285 478,-285 478,-263 322,-263"/>
<image xlink:href="../../images/foreignKeys.png" width="11px" height="12px" preserveAspectRatio="xMinYMin meet" x="327" y="-280"/>
<text text-anchor="start" x="342" y="-271.2" font-family="Helvetica,sans-Serif" font-size="11.00">accuracydistributionid</text>
<polygon fill="none" stroke="black" points="322,-241 322,-263 478,-263 478,-241 322,-241"/>
<image xlink:href="../../images/foreignKeys.png" width="11px" height="12px" preserveAspectRatio="xMinYMin meet" x="327" y="-258"/>
<text text-anchor="start" x="342" y="-249.2" font-family="Helvetica,sans-Serif" font-size="11.00">precisionrankid</text>
<polygon fill="none" stroke="black" points="322,-223 322,-241 478,-241 478,-223 322,-223"/>
<text text-anchor="start" x="325" y="-229.2" font-family="Helvetica,sans-Serif" font-size="11.00">...</text>
<polygon fill="#ffffff" stroke="transparent" points="322,-205 322,-223 385,-223 385,-205 322,-205"/>
<polygon fill="none" stroke="black" points="322,-205 322,-223 385,-223 385,-205 322,-205"/>
<text text-anchor="start" x="325" y="-211.2" font-family="Helvetica,sans-Serif" font-size="11.00">&lt; 5</text>
<polygon fill="#ffffff" stroke="transparent" points="385,-205 385,-223 444,-223 444,-205 385,-205"/>
<polygon fill="none" stroke="black" points="385,-205 385,-223 444,-223 444,-205 385,-205"/>
<text text-anchor="start" x="408" y="-211.2" font-family="Helvetica,sans-Serif" font-size="11.00">0 rows</text>
<polygon fill="#ffffff" stroke="transparent" points="444,-205 444,-223 478,-223 478,-205 444,-205"/>
<polygon fill="none" stroke="black" points="444,-205 444,-223 478,-223 478,-205 444,-205"/>
<text text-anchor="start" x="468" y="-211.2" font-family="Helvetica,sans-Serif" font-size="11.00"> &#160;</text>
</a>
</g>
</g>
<!-- chroncontrolaccuracydirections -->
<g id="node2" class="node">
<title>chroncontrolaccuracydirections</title>
<g id="a_node2"><a xlink:href="../../tables/chroncontrolaccuracydirections.html" xlink:title="chroncontrolaccuracydirections" target="_top">
<polygon fill="#ffffff" stroke="transparent" points="34,-269 34,-327 247,-327 247,-269 34,-269"/>
<polygon fill="#f5f5f5" stroke="transparent" points="34.5,-305 34.5,-327 247.5,-327 247.5,-305 34.5,-305"/>
<polygon fill="none" stroke="black" points="34.5,-305 34.5,-327 247.5,-327 247.5,-305 34.5,-305"/>
<text text-anchor="start" x="39.5" y="-314.2" font-family="Helvetica,sans-Serif" font-weight="bold" font-size="11.00">chroncontrolaccuracydirections</text>
<text text-anchor="start" x="212.5" y="-313.2" font-family="Helvetica,sans-Serif" font-size="11.00">[table]</text>
<polygon fill="none" stroke="black" points="34.5,-287 34.5,-305 247.5,-305 247.5,-287 34.5,-287"/>
<text text-anchor="start" x="37.5" y="-293.2" font-family="Helvetica,sans-Serif" font-size="11.00">...</text>
<polygon fill="#ffffff" stroke="transparent" points="34.5,-269 34.5,-287 116.5,-287 116.5,-269 34.5,-269"/>
<polygon fill="none" stroke="black" points="34.5,-269 34.5,-287 116.5,-287 116.5,-269 34.5,-269"/>
<text text-anchor="start" x="37.5" y="-275.2" font-family="Helvetica,sans-Serif" font-size="11.00"> &#160;</text>
<polygon fill="#ffffff" stroke="transparent" points="116.5,-269 116.5,-287 190.5,-287 190.5,-269 116.5,-269"/>
<polygon fill="none" stroke="black" points="116.5,-269 116.5,-287 190.5,-287 190.5,-269 116.5,-269"/>
<text text-anchor="start" x="154.5" y="-275.2" font-family="Helvetica,sans-Serif" font-size="11.00">3 rows</text>
<polygon fill="#ffffff" stroke="transparent" points="190.5,-269 190.5,-287 247.5,-287 247.5,-269 190.5,-269"/>
<polygon fill="none" stroke="black" points="190.5,-269 190.5,-287 247.5,-287 247.5,-269 190.5,-269"/>
<text text-anchor="start" x="228.5" y="-275.2" font-family="Helvetica,sans-Serif" font-size="11.00">1 &gt;</text>
</a>
</g>
</g>
<!-- chroncontrolranks&#45;&gt;chroncontrolaccuracydirections -->
<g id="edge1" class="edge">
<title>chroncontrolranks:w&#45;&gt;chroncontrolaccuracydirections:e</title>
<path fill="none" stroke="black" d="M306.58,-296C285.39,-296 275.31,-296 248.5,-296"/>
<polygon fill="black" stroke="black" points="313,-296 321,-299.6 317,-296 321,-296 321,-296 321,-296 317,-296 321,-292.4 313,-296 313,-296"/>
<ellipse fill="none" stroke="black" cx="309.8" cy="-296" rx="3.2" ry="3.2"/>
</g>
<!-- chroncontrolaccuracydistributions -->
<g id="node3" class="node">
<title>chroncontrolaccuracydistributions</title>
<g id="a_node3"><a xlink:href="../../tables/chroncontrolaccuracydistributions.html" xlink:title="chroncontrolaccuracydistributions" target="_top">
<polygon fill="#ffffff" stroke="transparent" points="27,-190 27,-248 254,-248 254,-190 27,-190"/>
<polygon fill="#f5f5f5" stroke="transparent" points="27.5,-226 27.5,-248 254.5,-248 254.5,-226 27.5,-226"/>
<polygon fill="none" stroke="black" points="27.5,-226 27.5,-248 254.5,-248 254.5,-226 27.5,-226"/>
<text text-anchor="start" x="32.5" y="-235.2" font-family="Helvetica,sans-Serif" font-weight="bold" font-size="11.00">chroncontrolaccuracydistributions</text>
<text text-anchor="start" x="219.5" y="-234.2" font-family="Helvetica,sans-Serif" font-size="11.00">[table]</text>
<polygon fill="none" stroke="black" points="27.5,-208 27.5,-226 254.5,-226 254.5,-208 27.5,-208"/>
<text text-anchor="start" x="30.5" y="-214.2" font-family="Helvetica,sans-Serif" font-size="11.00">...</text>
<polygon fill="#ffffff" stroke="transparent" points="27.5,-190 27.5,-208 116.5,-208 116.5,-190 27.5,-190"/>
<polygon fill="none" stroke="black" points="27.5,-190 27.5,-208 116.5,-208 116.5,-190 27.5,-190"/>
<text text-anchor="start" x="30.5" y="-196.2" font-family="Helvetica,sans-Serif" font-size="11.00"> &#160;</text>
<polygon fill="#ffffff" stroke="transparent" points="116.5,-190 116.5,-208 193.5,-208 193.5,-190 116.5,-190"/>
<polygon fill="none" stroke="black" points="116.5,-190 116.5,-208 193.5,-208 193.5,-190 116.5,-190"/>
<text text-anchor="start" x="157.5" y="-196.2" font-family="Helvetica,sans-Serif" font-size="11.00">4 rows</text>
<polygon fill="#ffffff" stroke="transparent" points="193.5,-190 193.5,-208 254.5,-208 254.5,-190 193.5,-190"/>
<polygon fill="none" stroke="black" points="193.5,-190 193.5,-208 254.5,-208 254.5,-190 193.5,-190"/>
<text text-anchor="start" x="235.5" y="-196.2" font-family="Helvetica,sans-Serif" font-size="11.00">1 &gt;</text>
</a>
</g>
</g>
<!-- chroncontrolranks&#45;&gt;chroncontrolaccuracydistributions -->
<g id="edge2" class="edge">
<title>chroncontrolranks:w&#45;&gt;chroncontrolaccuracydistributions:e</title>
<path fill="none" stroke="black" d="M306.81,-270.61C284.77,-258.33 288.36,-217 255.5,-217"/>
<polygon fill="black" stroke="black" points="313.22,-272.14 320.16,-277.5 317.11,-273.07 321,-274 321,-274 321,-274 317.11,-273.07 321.84,-270.5 313.22,-272.14 313.22,-272.14"/>
<ellipse fill="none" stroke="black" cx="310.11" cy="-271.39" rx="3.2" ry="3.2"/>
</g>
<!-- chroncontrolaccuracyranks -->
<g id="node4" class="node">
<title>chroncontrolaccuracyranks</title>
<g id="a_node4"><a xlink:href="../../tables/chroncontrolaccuracyranks.html" xlink:title="chroncontrolaccuracyranks" target="_top">
<polygon fill="#ffffff" stroke="transparent" points="46,-348 46,-406 235,-406 235,-348 46,-348"/>
<polygon fill="#f5f5f5" stroke="transparent" points="46.5,-384 46.5,-406 235.5,-406 235.5,-384 46.5,-384"/>
<polygon fill="none" stroke="black" points="46.5,-384 46.5,-406 235.5,-406 235.5,-384 46.5,-384"/>
<text text-anchor="start" x="51.5" y="-393.2" font-family="Helvetica,sans-Serif" font-weight="bold" font-size="11.00">chroncontrolaccuracyranks</text>
<text text-anchor="start" x="200.5" y="-392.2" font-family="Helvetica,sans-Serif" font-size="11.00">[table]</text>
<polygon fill="none" stroke="black" points="46.5,-366 46.5,-384 235.5,-384 235.5,-366 46.5,-366"/>
<text text-anchor="start" x="49.5" y="-372.2" font-family="Helvetica,sans-Serif" font-size="11.00">...</text>
<polygon fill="#ffffff" stroke="transparent" points="46.5,-348 46.5,-366 116.5,-366 116.5,-348 46.5,-348"/>
<polygon fill="none" stroke="black" points="46.5,-348 46.5,-366 116.5,-366 116.5,-348 46.5,-348"/>
<text text-anchor="start" x="49.5" y="-354.2" font-family="Helvetica,sans-Serif" font-size="11.00"> &#160;</text>
<polygon fill="#ffffff" stroke="transparent" points="116.5,-348 116.5,-366 184.5,-366 184.5,-348 116.5,-348"/>
<polygon fill="none" stroke="black" points="116.5,-348 116.5,-366 184.5,-366 184.5,-348 116.5,-348"/>
<text text-anchor="start" x="148.5" y="-354.2" font-family="Helvetica,sans-Serif" font-size="11.00">8 rows</text>
<polygon fill="#ffffff" stroke="transparent" points="184.5,-348 184.5,-366 235.5,-366 235.5,-348 184.5,-348"/>
<polygon fill="none" stroke="black" points="184.5,-348 184.5,-366 235.5,-366 235.5,-348 184.5,-348"/>
<text text-anchor="start" x="216.5" y="-354.2" font-family="Helvetica,sans-Serif" font-size="11.00">1 &gt;</text>
</a>
</g>
</g>
<!-- chroncontrolranks&#45;&gt;chroncontrolaccuracyranks -->
<g id="edge3" class="edge">
<title>chroncontrolranks:w&#45;&gt;chroncontrolaccuracyranks:e</title>
<path fill="none" stroke="black" d="M306.62,-320.31C276.42,-330.97 276.32,-375 236.5,-375"/>
<polygon fill="black" stroke="black" points="313.1,-319.27 321.57,-321.55 317.05,-318.63 321,-318 321,-318 321,-318 317.05,-318.63 320.43,-314.45 313.1,-319.27 313.1,-319.27"/>
<ellipse fill="none" stroke="black" cx="309.94" cy="-319.77" rx="3.2" ry="3.2"/>
</g>
<!-- chroncontrols -->
<g id="node5" class="node">
<title>chroncontrols</title>
<g id="a_node5"><a xlink:href="../../tables/chroncontrols.html" xlink:title="chroncontrols" target="_top">
<polygon fill="#ffffff" stroke="transparent" points="81,-427 81,-485 200,-485 200,-427 81,-427"/>
<polygon fill="#f5f5f5" stroke="transparent" points="81.5,-463 81.5,-485 200.5,-485 200.5,-463 81.5,-463"/>
<polygon fill="none" stroke="black" points="81.5,-463 81.5,-485 200.5,-485 200.5,-463 81.5,-463"/>
<text text-anchor="start" x="86.5" y="-472.2" font-family="Helvetica,sans-Serif" font-weight="bold" font-size="11.00">chroncontrols</text>
<text text-anchor="start" x="165.5" y="-471.2" font-family="Helvetica,sans-Serif" font-size="11.00">[table]</text>
<polygon fill="none" stroke="black" points="81.5,-445 81.5,-463 200.5,-463 200.5,-445 81.5,-445"/>
<text text-anchor="start" x="84.5" y="-451.2" font-family="Helvetica,sans-Serif" font-size="11.00">...</text>
<polygon fill="#ffffff" stroke="transparent" points="81.5,-427 81.5,-445 104.5,-445 104.5,-427 81.5,-427"/>
<polygon fill="none" stroke="black" points="81.5,-427 81.5,-445 104.5,-445 104.5,-427 81.5,-427"/>
<text text-anchor="start" x="84.5" y="-433.2" font-family="Helvetica,sans-Serif" font-size="11.00">&lt; 4</text>
<polygon fill="#ffffff" stroke="transparent" points="104.5,-427 104.5,-445 177.5,-445 177.5,-427 104.5,-427"/>
<polygon fill="none" stroke="black" points="104.5,-427 104.5,-445 177.5,-445 177.5,-427 104.5,-427"/>
<text text-anchor="start" x="108.5" y="-433.2" font-family="Helvetica,sans-Serif" font-size="11.00">103,140 rows</text>
<polygon fill="#ffffff" stroke="transparent" points="177.5,-427 177.5,-445 200.5,-445 200.5,-427 177.5,-427"/>
<polygon fill="none" stroke="black" points="177.5,-427 177.5,-445 200.5,-445 200.5,-427 177.5,-427"/>
<text text-anchor="start" x="181.5" y="-433.2" font-family="Helvetica,sans-Serif" font-size="11.00">5 &gt;</text>
</a>
</g>
</g>
<!-- chroncontrolranks&#45;&gt;chroncontrols -->
<g id="edge4" class="edge">
<title>chroncontrolranks:w&#45;&gt;chroncontrols:e</title>
<path fill="none" stroke="black" d="M306.74,-343.74C289.64,-355.88 304.29,-394.71 281,-417 252.85,-443.95 240.47,-454 201.5,-454"/>
<polygon fill="black" stroke="black" points="313.26,-342.03 321.91,-343.48 317.13,-341.01 321,-340 321,-340 321,-340 317.13,-341.01 320.09,-336.52 313.26,-342.03 313.26,-342.03"/>
<ellipse fill="none" stroke="black" cx="310.17" cy="-342.84" rx="3.2" ry="3.2"/>
</g>
<!-- chroncontrolprecisionranks -->
<g id="node6" class="node">
<title>chroncontrolprecisionranks</title>
<g id="a_node6"><a xlink:href="../../tables/chroncontrolprecisionranks.html" xlink:title="chroncontrolprecisionranks" target="_top">
<polygon fill="#ffffff" stroke="transparent" points="8,-37 8,-169 273,-169 273,-37 8,-37"/>
<polygon fill="#f5f5f5" stroke="transparent" points="10.5,-145 10.5,-167 271.5,-167 271.5,-145 10.5,-145"/>
<polygon fill="none" stroke="black" points="10.5,-145 10.5,-167 271.5,-167 271.5,-145 10.5,-145"/>
<text text-anchor="start" x="15.5" y="-154.2" font-family="Helvetica,sans-Serif" font-weight="bold" font-size="11.00">chroncontrolprecisionranks</text>
<text text-anchor="start" x="236.5" y="-153.2" font-family="Helvetica,sans-Serif" font-size="11.00">[table]</text>
<polygon fill="none" stroke="black" points="10.5,-123 10.5,-145 197.5,-145 197.5,-123 10.5,-123"/>
<image xlink:href="../../images/primaryKeys.png" width="11px" height="12px" preserveAspectRatio="xMinYMin meet" x="15.5" y="-140"/>
<text text-anchor="start" x="30.5" y="-131.2" font-family="Helvetica,sans-Serif" font-size="11.00">precisionrankid</text>
<polygon fill="none" stroke="black" points="197.5,-123 197.5,-145 271.5,-145 271.5,-123 197.5,-123"/>
<text text-anchor="start" x="200.5" y="-131.2" font-family="Helvetica,sans-Serif" font-size="11.00">serial[10]</text>
<polygon fill="none" stroke="black" points="10.5,-101 10.5,-123 197.5,-123 197.5,-101 10.5,-101"/>
<text text-anchor="start" x="30.5" y="-109.2" font-family="Helvetica,sans-Serif" font-size="11.00">precisionrank</text>
<polygon fill="none" stroke="black" points="197.5,-101 197.5,-123 271.5,-123 271.5,-101 197.5,-101"/>
<text text-anchor="start" x="200.5" y="-109.2" font-family="Helvetica,sans-Serif" font-size="11.00">varchar[255]</text>
<polygon fill="none" stroke="black" points="10.5,-79 10.5,-101 197.5,-101 197.5,-79 10.5,-79"/>
<text text-anchor="start" x="30.5" y="-87.2" font-family="Helvetica,sans-Serif" font-size="11.00">recdatecreated</text>
<polygon fill="none" stroke="black" points="197.5,-79 197.5,-101 271.5,-101 271.5,-79 197.5,-79"/>
<text text-anchor="start" x="200.5" y="-87.2" font-family="Helvetica,sans-Serif" font-size="11.00">timestamp[22]</text>
<polygon fill="none" stroke="black" points="10.5,-57 10.5,-79 197.5,-79 197.5,-57 10.5,-57"/>
<text text-anchor="start" x="30.5" y="-65.2" font-family="Helvetica,sans-Serif" font-size="11.00">recdatemodified</text>
<polygon fill="none" stroke="black" points="197.5,-57 197.5,-79 271.5,-79 271.5,-57 197.5,-57"/>
<text text-anchor="start" x="200.5" y="-65.2" font-family="Helvetica,sans-Serif" font-size="11.00">timestamp[22]</text>
<polygon fill="#ffffff" stroke="transparent" points="10.5,-39 10.5,-57 95.5,-57 95.5,-39 10.5,-39"/>
<polygon fill="none" stroke="black" points="10.5,-39 10.5,-57 95.5,-57 95.5,-39 10.5,-39"/>
<text text-anchor="start" x="13.5" y="-45.2" font-family="Helvetica,sans-Serif" font-size="11.00">&lt; 0</text>
<polygon fill="#ffffff" stroke="transparent" points="95.5,-39 95.5,-57 197.5,-57 197.5,-39 95.5,-39"/>
<polygon fill="none" stroke="black" points="95.5,-39 95.5,-57 197.5,-57 197.5,-39 95.5,-39"/>
<text text-anchor="start" x="161.5" y="-45.2" font-family="Helvetica,sans-Serif" font-size="11.00">8 rows</text>
<polygon fill="#ffffff" stroke="transparent" points="197.5,-39 197.5,-57 271.5,-57 271.5,-39 197.5,-39"/>
<polygon fill="none" stroke="black" points="197.5,-39 197.5,-57 271.5,-57 271.5,-39 197.5,-39"/>
<text text-anchor="start" x="252.5" y="-45.2" font-family="Helvetica,sans-Serif" font-size="11.00">1 &gt;</text>
<polygon fill="none" stroke="black" stroke-width="2" points="9,-38 9,-168 272,-168 272,-38 9,-38"/>
</a>
</g>
</g>
<!-- chroncontrolranks&#45;&gt;chroncontrolprecisionranks -->
<g id="edge5" class="edge">
<title>chroncontrolranks:w&#45;&gt;chroncontrolprecisionranks:e</title>
<path fill="none" stroke="black" d="M306.83,-248.34C276.64,-228.42 323.22,-134 272.5,-134"/>
<polygon fill="black" stroke="black" points="313.25,-250 320.1,-255.49 317.13,-251 321,-252 321,-252 321,-252 317.13,-251 321.9,-248.51 313.25,-250 313.25,-250"/>
<ellipse fill="none" stroke="black" cx="310.16" cy="-249.2" rx="3.2" ry="3.2"/>
</g>
</g>
</svg>
