<?xml version="1.0" encoding="UTF-8" standalone="no"?>
<!DOCTYPE svg PUBLIC "-//W3C//DTD SVG 1.1//EN"
 "http://www.w3.org/Graphics/SVG/1.1/DTD/svg11.dtd">
<!-- Generated by graphviz version 2.43.0 (0)
 -->
<!-- Title: oneDegreeRelationshipsDiagram Pages: 1 -->
<svg width="610pt" height="649pt"
 viewBox="0.00 0.00 610.00 649.00" xmlns="http://www.w3.org/2000/svg" xmlns:xlink="http://www.w3.org/1999/xlink">
<g id="graph0" class="graph" transform="scale(1 1) rotate(0) translate(4 645)">
<title>oneDegreeRelationshipsDiagram</title>
<polygon fill="#ffffff" stroke="transparent" points="-4,4 -4,-645 606,-645 606,4 -4,4"/>
<text text-anchor="middle" x="71.5" y="-7.2" font-family="Helvetica,sans-Serif" font-size="11.00">Generated by SchemaSpy</text>
<!-- accumulationrates -->
<g id="node1" class="node">
<title>accumulationrates</title>
<g id="a_node1"><a xlink:href="../../tables/accumulationrates.html" xlink:title="accumulationrates" target="_top">
<polygon fill="#ffffff" stroke="transparent" points="453,-302 453,-426 594,-426 594,-302 453,-302"/>
<polygon fill="#f5f5f5" stroke="transparent" points="453.5,-404 453.5,-426 594.5,-426 594.5,-404 453.5,-404"/>
<polygon fill="none" stroke="black" points="453.5,-404 453.5,-426 594.5,-426 594.5,-404 453.5,-404"/>
<text text-anchor="start" x="458.5" y="-413.2" font-family="Helvetica,sans-Serif" font-weight="bold" font-size="11.00">accumulationrates</text>
<text text-anchor="start" x="559.5" y="-412.2" font-family="Helvetica,sans-Serif" font-size="11.00">[table]</text>
<polygon fill="none" stroke="black" points="453.5,-382 453.5,-404 594.5,-404 594.5,-382 453.5,-382"/>
<image xlink:href="../../images/primaryKeys.png" width="11px" height="12px" preserveAspectRatio="xMinYMin meet" x="458.5" y="-399"/>
<text text-anchor="start" x="477.5" y="-390.2" font-family="Helvetica,sans-Serif" font-size="11.00">analysisunitid</text>
<polygon fill="none" stroke="black" points="453.5,-360 453.5,-382 594.5,-382 594.5,-360 453.5,-360"/>
<image xlink:href="../../images/primaryKeys.png" width="11px" height="12px" preserveAspectRatio="xMinYMin meet" x="458.5" y="-377"/>
<text text-anchor="start" x="477.5" y="-368.2" font-family="Helvetica,sans-Serif" font-size="11.00">chronologyid</text>
<polygon fill="none" stroke="black" points="453.5,-338 453.5,-360 594.5,-360 594.5,-338 453.5,-338"/>
<image xlink:href="../../images/foreignKeys.png" width="11px" height="12px" preserveAspectRatio="xMinYMin meet" x="458.5" y="-355"/>
<text text-anchor="start" x="477.5" y="-346.2" font-family="Helvetica,sans-Serif" font-size="11.00">variableunitsid</text>
<polygon fill="none" stroke="black" points="453.5,-320 453.5,-338 594.5,-338 594.5,-320 453.5,-320"/>
<text text-anchor="start" x="456.5" y="-326.2" font-family="Helvetica,sans-Serif" font-size="11.00">...</text>
<polygon fill="#ffffff" stroke="transparent" points="453.5,-302 453.5,-320 498.5,-320 498.5,-302 453.5,-302"/>
<polygon fill="none" stroke="black" points="453.5,-302 453.5,-320 498.5,-320 498.5,-302 453.5,-302"/>
<text text-anchor="start" x="456.5" y="-308.2" font-family="Helvetica,sans-Serif" font-size="11.00">&lt; 3</text>
<polygon fill="#ffffff" stroke="transparent" points="498.5,-302 498.5,-320 569.5,-320 569.5,-302 498.5,-302"/>
<polygon fill="none" stroke="black" points="498.5,-302 498.5,-320 569.5,-320 569.5,-302 498.5,-302"/>
<text text-anchor="start" x="512.5" y="-308.2" font-family="Helvetica,sans-Serif" font-size="11.00">1,089 rows</text>
<polygon fill="#ffffff" stroke="transparent" points="569.5,-302 569.5,-320 594.5,-320 594.5,-302 569.5,-302"/>
<polygon fill="none" stroke="black" points="569.5,-302 569.5,-320 594.5,-320 594.5,-302 569.5,-302"/>
<text text-anchor="start" x="584.5" y="-308.2" font-family="Helvetica,sans-Serif" font-size="11.00"> &#160;</text>
</a>
</g>
</g>
<!-- chronologies -->
<g id="node2" class="node">
<title>chronologies</title>
<g id="a_node2"><a xlink:href="../../tables/chronologies.html" xlink:title="chronologies" target="_top">
<polygon fill="#ffffff" stroke="transparent" points="179,-87 179,-417 404,-417 404,-87 179,-87"/>
<polygon fill="#f5f5f5" stroke="transparent" points="181.5,-393 181.5,-415 402.5,-415 402.5,-393 181.5,-393"/>
<polygon fill="none" stroke="black" points="181.5,-393 181.5,-415 402.5,-415 402.5,-393 181.5,-393"/>
<text text-anchor="start" x="186.5" y="-402.2" font-family="Helvetica,sans-Serif" font-weight="bold" font-size="11.00">chronologies</text>
<text text-anchor="start" x="367.5" y="-401.2" font-family="Helvetica,sans-Serif" font-size="11.00">[table]</text>
<polygon fill="none" stroke="black" points="181.5,-371 181.5,-393 312.5,-393 312.5,-371 181.5,-371"/>
<image xlink:href="../../images/primaryKeys.png" width="11px" height="12px" preserveAspectRatio="xMinYMin meet" x="186.5" y="-388"/>
<text text-anchor="start" x="201.5" y="-379.2" font-family="Helvetica,sans-Serif" font-size="11.00">chronologyid</text>
<polygon fill="none" stroke="black" points="312.5,-371 312.5,-393 402.5,-393 402.5,-371 312.5,-371"/>
<text text-anchor="start" x="315.5" y="-379.2" font-family="Helvetica,sans-Serif" font-size="11.00">serial[10]</text>
<polygon fill="none" stroke="black" points="181.5,-349 181.5,-371 312.5,-371 312.5,-349 181.5,-349"/>
<image xlink:href="../../images/foreignKeys.png" width="11px" height="12px" preserveAspectRatio="xMinYMin meet" x="186.5" y="-366"/>
<text text-anchor="start" x="201.5" y="-357.2" font-family="Helvetica,sans-Serif" font-size="11.00">collectionunitid</text>
<polygon fill="none" stroke="black" points="312.5,-349 312.5,-371 402.5,-371 402.5,-349 312.5,-349"/>
<text text-anchor="start" x="315.5" y="-357.2" font-family="Helvetica,sans-Serif" font-size="11.00">int4[10]</text>
<polygon fill="none" stroke="black" points="181.5,-327 181.5,-349 312.5,-349 312.5,-327 181.5,-327"/>
<image xlink:href="../../images/foreignKeys.png" width="11px" height="12px" preserveAspectRatio="xMinYMin meet" x="186.5" y="-344"/>
<text text-anchor="start" x="201.5" y="-335.2" font-family="Helvetica,sans-Serif" font-size="11.00">agetypeid</text>
<polygon fill="none" stroke="black" points="312.5,-327 312.5,-349 402.5,-349 402.5,-327 312.5,-327"/>
<text text-anchor="start" x="315.5" y="-335.2" font-family="Helvetica,sans-Serif" font-size="11.00">int4[10]</text>
<polygon fill="none" stroke="black" points="181.5,-305 181.5,-327 312.5,-327 312.5,-305 181.5,-305"/>
<image xlink:href="../../images/foreignKeys.png" width="11px" height="12px" preserveAspectRatio="xMinYMin meet" x="186.5" y="-322"/>
<text text-anchor="start" x="201.5" y="-313.2" font-family="Helvetica,sans-Serif" font-size="11.00">contactid</text>
<polygon fill="none" stroke="black" points="312.5,-305 312.5,-327 402.5,-327 402.5,-305 312.5,-305"/>
<text text-anchor="start" x="315.5" y="-313.2" font-family="Helvetica,sans-Serif" font-size="11.00">int4[10]</text>
<polygon fill="none" stroke="black" points="181.5,-283 181.5,-305 312.5,-305 312.5,-283 181.5,-283"/>
<text text-anchor="start" x="201.5" y="-291.2" font-family="Helvetica,sans-Serif" font-size="11.00">isdefault</text>
<polygon fill="none" stroke="black" points="312.5,-283 312.5,-305 402.5,-305 402.5,-283 312.5,-283"/>
<text text-anchor="start" x="315.5" y="-291.2" font-family="Helvetica,sans-Serif" font-size="11.00">bool[1]</text>
<polygon fill="none" stroke="black" points="181.5,-261 181.5,-283 312.5,-283 312.5,-261 181.5,-261"/>
<text text-anchor="start" x="201.5" y="-269.2" font-family="Helvetica,sans-Serif" font-size="11.00">chronologyname</text>
<polygon fill="none" stroke="black" points="312.5,-261 312.5,-283 402.5,-283 402.5,-261 312.5,-261"/>
<text text-anchor="start" x="315.5" y="-269.2" font-family="Helvetica,sans-Serif" font-size="11.00">varchar[80]</text>
<polygon fill="none" stroke="black" points="181.5,-239 181.5,-261 312.5,-261 312.5,-239 181.5,-239"/>
<text text-anchor="start" x="201.5" y="-247.2" font-family="Helvetica,sans-Serif" font-size="11.00">dateprepared</text>
<polygon fill="none" stroke="black" points="312.5,-239 312.5,-261 402.5,-261 402.5,-239 312.5,-239"/>
<text text-anchor="start" x="315.5" y="-247.2" font-family="Helvetica,sans-Serif" font-size="11.00">date[13]</text>
<polygon fill="none" stroke="black" points="181.5,-217 181.5,-239 312.5,-239 312.5,-217 181.5,-217"/>
<text text-anchor="start" x="201.5" y="-225.2" font-family="Helvetica,sans-Serif" font-size="11.00">agemodel</text>
<polygon fill="none" stroke="black" points="312.5,-217 312.5,-239 402.5,-239 402.5,-217 312.5,-217"/>
<text text-anchor="start" x="315.5" y="-225.2" font-family="Helvetica,sans-Serif" font-size="11.00">varchar[80]</text>
<polygon fill="#ffffff" stroke="transparent" points="181.5,-195 181.5,-217 312.5,-217 312.5,-195 181.5,-195"/>
<polygon fill="none" stroke="black" points="181.5,-195 181.5,-217 312.5,-217 312.5,-195 181.5,-195"/>
<text text-anchor="start" x="201.5" y="-203.2" font-family="Helvetica,sans-Serif" font-size="11.00">ageboundyounger</text>
<polygon fill="none" stroke="black" points="312.5,-195 312.5,-217 402.5,-217 402.5,-195 312.5,-195"/>
<text text-anchor="start" x="315.5" y="-203.2" font-family="Helvetica,sans-Serif" font-size="11.00">int4[10]</text>
<polygon fill="#ffffff" stroke="transparent" points="181.5,-173 181.5,-195 312.5,-195 312.5,-173 181.5,-173"/>
<polygon fill="none" stroke="black" points="181.5,-173 181.5,-195 312.5,-195 312.5,-173 181.5,-173"/>
<text text-anchor="start" x="201.5" y="-181.2" font-family="Helvetica,sans-Serif" font-size="11.00">ageboundolder</text>
<polygon fill="none" stroke="black" points="312.5,-173 312.5,-195 402.5,-195 402.5,-173 312.5,-173"/>
<text text-anchor="start" x="315.5" y="-181.2" font-family="Helvetica,sans-Serif" font-size="11.00">int4[10]</text>
<polygon fill="none" stroke="black" points="181.5,-151 181.5,-173 312.5,-173 312.5,-151 181.5,-151"/>
<text text-anchor="start" x="201.5" y="-159.2" font-family="Helvetica,sans-Serif" font-size="11.00">notes</text>
<polygon fill="none" stroke="black" points="312.5,-151 312.5,-173 402.5,-173 402.5,-151 312.5,-151"/>
<text text-anchor="start" x="315.5" y="-159.2" font-family="Helvetica,sans-Serif" font-size="11.00">text[2147483647]</text>
<polygon fill="none" stroke="black" points="181.5,-129 181.5,-151 312.5,-151 312.5,-129 181.5,-129"/>
<text text-anchor="start" x="201.5" y="-137.2" font-family="Helvetica,sans-Serif" font-size="11.00">recdatecreated</text>
<polygon fill="none" stroke="black" points="312.5,-129 312.5,-151 402.5,-151 402.5,-129 312.5,-129"/>
<text text-anchor="start" x="315.5" y="-137.2" font-family="Helvetica,sans-Serif" font-size="11.00">timestamp[22]</text>
<polygon fill="none" stroke="black" points="181.5,-107 181.5,-129 312.5,-129 312.5,-107 181.5,-107"/>
<text text-anchor="start" x="201.5" y="-115.2" font-family="Helvetica,sans-Serif" font-size="11.00">recdatemodified</text>
<polygon fill="none" stroke="black" points="312.5,-107 312.5,-129 402.5,-129 402.5,-107 312.5,-107"/>
<text text-anchor="start" x="315.5" y="-115.2" font-family="Helvetica,sans-Serif" font-size="11.00">timestamp[22]</text>
<polygon fill="#ffffff" stroke="transparent" points="181.5,-89 181.5,-107 224.5,-107 224.5,-89 181.5,-89"/>
<polygon fill="none" stroke="black" points="181.5,-89 181.5,-107 224.5,-107 224.5,-89 181.5,-89"/>
<text text-anchor="start" x="184.5" y="-95.2" font-family="Helvetica,sans-Serif" font-size="11.00">&lt; 3</text>
<polygon fill="#ffffff" stroke="transparent" points="224.5,-89 224.5,-107 312.5,-107 312.5,-89 224.5,-89"/>
<polygon fill="none" stroke="black" points="224.5,-89 224.5,-107 312.5,-107 312.5,-89 224.5,-89"/>
<text text-anchor="start" x="249.5" y="-95.2" font-family="Helvetica,sans-Serif" font-size="11.00">31,133 rows</text>
<polygon fill="#ffffff" stroke="transparent" points="312.5,-89 312.5,-107 402.5,-107 402.5,-89 312.5,-89"/>
<polygon fill="none" stroke="black" points="312.5,-89 312.5,-107 402.5,-107 402.5,-89 312.5,-89"/>
<text text-anchor="start" x="383.5" y="-95.2" font-family="Helvetica,sans-Serif" font-size="11.00">3 &gt;</text>
<polygon fill="none" stroke="black" stroke-width="2" points="180,-88 180,-416 403,-416 403,-88 180,-88"/>
</a>
</g>
</g>
<!-- accumulationrates&#45;&gt;chronologies -->
<g id="edge1" class="edge">
<title>accumulationrates:w&#45;&gt;chronologies:e</title>
<path fill="none" stroke="black" d="M438.2,-372.82C426.74,-375.94 420.07,-382 403.5,-382"/>
<polygon fill="black" stroke="black" points="444.56,-372.01 452.95,-374.57 448.53,-371.5 452.5,-371 452.5,-371 452.5,-371 448.53,-371.5 452.05,-367.43 444.56,-372.01 444.56,-372.01"/>
<ellipse fill="none" stroke="black" cx="441.39" cy="-372.41" rx="3.2" ry="3.2"/>
</g>
<!-- agetypes -->
<g id="node4" class="node">
<title>agetypes</title>
<g id="a_node4"><a xlink:href="../../tables/agetypes.html" xlink:title="agetypes" target="_top">
<polygon fill="#ffffff" stroke="transparent" points="9,-43 9,-123 129,-123 129,-43 9,-43"/>
<polygon fill="#f5f5f5" stroke="transparent" points="9,-101 9,-123 129,-123 129,-101 9,-101"/>
<polygon fill="none" stroke="black" points="9,-101 9,-123 129,-123 129,-101 9,-101"/>
<text text-anchor="start" x="14" y="-110.2" font-family="Helvetica,sans-Serif" font-weight="bold" font-size="11.00">agetypes</text>
<text text-anchor="start" x="94" y="-109.2" font-family="Helvetica,sans-Serif" font-size="11.00">[table]</text>
<polygon fill="none" stroke="black" points="9,-79 9,-101 129,-101 129,-79 9,-79"/>
<image xlink:href="../../images/primaryKeys.png" width="11px" height="12px" preserveAspectRatio="xMinYMin meet" x="14" y="-96"/>
<text text-anchor="start" x="29" y="-87.2" font-family="Helvetica,sans-Serif" font-size="11.00">agetypeid</text>
<polygon fill="none" stroke="black" points="9,-61 9,-79 129,-79 129,-61 9,-61"/>
<text text-anchor="start" x="12" y="-67.2" font-family="Helvetica,sans-Serif" font-size="11.00">...</text>
<polygon fill="#ffffff" stroke="transparent" points="9,-43 9,-61 45,-61 45,-43 9,-43"/>
<polygon fill="none" stroke="black" points="9,-43 9,-61 45,-61 45,-43 9,-43"/>
<text text-anchor="start" x="12" y="-49.2" font-family="Helvetica,sans-Serif" font-size="11.00"> &#160;</text>
<polygon fill="#ffffff" stroke="transparent" points="45,-43 45,-61 95,-61 95,-43 45,-43"/>
<polygon fill="none" stroke="black" points="45,-43 45,-61 95,-61 95,-43 45,-43"/>
<text text-anchor="start" x="59" y="-49.2" font-family="Helvetica,sans-Serif" font-size="11.00">5 rows</text>
<polygon fill="#ffffff" stroke="transparent" points="95,-43 95,-61 129,-61 129,-43 95,-43"/>
<polygon fill="none" stroke="black" points="95,-43 95,-61 129,-61 129,-43 95,-43"/>
<text text-anchor="start" x="110" y="-49.2" font-family="Helvetica,sans-Serif" font-size="11.00">4 &gt;</text>
</a>
</g>
</g>
<!-- chronologies&#45;&gt;agetypes -->
<g id="edge4" class="edge">
<title>chronologies:w&#45;&gt;agetypes:e</title>
<path fill="none" stroke="black" d="M166.01,-336.28C84.37,-314.37 236.99,-90 130,-90"/>
<polygon fill="black" stroke="black" points="172.56,-337.06 180.08,-341.58 176.53,-337.53 180.5,-338 180.5,-338 180.5,-338 176.53,-337.53 180.92,-334.42 172.56,-337.06 172.56,-337.06"/>
<ellipse fill="none" stroke="black" cx="169.38" cy="-336.68" rx="3.2" ry="3.2"/>
</g>
<!-- collectionunits -->
<g id="node5" class="node">
<title>collectionunits</title>
<g id="a_node5"><a xlink:href="../../tables/collectionunits.html" xlink:title="collectionunits" target="_top">
<polygon fill="#ffffff" stroke="transparent" points="8,-343 8,-511 130,-511 130,-343 8,-343"/>
<polygon fill="#f5f5f5" stroke="transparent" points="8,-489 8,-511 130,-511 130,-489 8,-489"/>
<polygon fill="none" stroke="black" points="8,-489 8,-511 130,-511 130,-489 8,-489"/>
<text text-anchor="start" x="13" y="-498.2" font-family="Helvetica,sans-Serif" font-weight="bold" font-size="11.00">collectionunits</text>
<text text-anchor="start" x="95" y="-497.2" font-family="Helvetica,sans-Serif" font-size="11.00">[table]</text>
<polygon fill="none" stroke="black" points="8,-467 8,-489 130,-489 130,-467 8,-467"/>
<image xlink:href="../../images/primaryKeys.png" width="11px" height="12px" preserveAspectRatio="xMinYMin meet" x="13" y="-484"/>
<text text-anchor="start" x="29" y="-475.2" font-family="Helvetica,sans-Serif" font-size="11.00">collectionunitid</text>
<polygon fill="#ffffff" stroke="transparent" points="8,-445 8,-467 130,-467 130,-445 8,-445"/>
<polygon fill="none" stroke="black" points="8,-445 8,-467 130,-467 130,-445 8,-445"/>
<image xlink:href="../../images/foreignKeys.png" width="11px" height="12px" preserveAspectRatio="xMinYMin meet" x="13" y="-462"/>
<text text-anchor="start" x="29" y="-453.2" font-family="Helvetica,sans-Serif" font-size="11.00">siteid</text>
<polygon fill="none" stroke="black" points="8,-423 8,-445 130,-445 130,-423 8,-423"/>
<image xlink:href="../../images/foreignKeys.png" width="11px" height="12px" preserveAspectRatio="xMinYMin meet" x="13" y="-440"/>
<text text-anchor="start" x="29" y="-431.2" font-family="Helvetica,sans-Serif" font-size="11.00">colltypeid</text>
<polygon fill="#ffffff" stroke="transparent" points="8,-401 8,-423 130,-423 130,-401 8,-401"/>
<polygon fill="none" stroke="black" points="8,-401 8,-423 130,-423 130,-401 8,-401"/>
<image xlink:href="../../images/foreignKeys.png" width="11px" height="12px" preserveAspectRatio="xMinYMin meet" x="13" y="-418"/>
<text text-anchor="start" x="29" y="-409.2" font-family="Helvetica,sans-Serif" font-size="11.00">depenvtid</text>
<polygon fill="none" stroke="black" points="8,-379 8,-401 130,-401 130,-379 8,-379"/>
<image xlink:href="../../images/foreignKeys.png" width="11px" height="12px" preserveAspectRatio="xMinYMin meet" x="13" y="-396"/>
<text text-anchor="start" x="29" y="-387.2" font-family="Helvetica,sans-Serif" font-size="11.00">substrateid</text>
<polygon fill="none" stroke="black" points="8,-361 8,-379 130,-379 130,-361 8,-361"/>
<text text-anchor="start" x="11" y="-367.2" font-family="Helvetica,sans-Serif" font-size="11.00">...</text>
<polygon fill="#ffffff" stroke="transparent" points="8,-343 8,-361 36,-361 36,-343 8,-343"/>
<polygon fill="none" stroke="black" points="8,-343 8,-361 36,-361 36,-343 8,-343"/>
<text text-anchor="start" x="11" y="-349.2" font-family="Helvetica,sans-Serif" font-size="11.00">&lt; 4</text>
<polygon fill="#ffffff" stroke="transparent" points="36,-343 36,-361 105,-361 105,-343 36,-343"/>
<polygon fill="none" stroke="black" points="36,-343 36,-361 105,-361 105,-343 36,-343"/>
<text text-anchor="start" x="42" y="-349.2" font-family="Helvetica,sans-Serif" font-size="11.00">32,827 rows</text>
<polygon fill="#ffffff" stroke="transparent" points="105,-343 105,-361 130,-361 130,-343 105,-343"/>
<polygon fill="none" stroke="black" points="105,-343 105,-361 130,-361 130,-343 105,-343"/>
<text text-anchor="start" x="111" y="-349.2" font-family="Helvetica,sans-Serif" font-size="11.00">5 &gt;</text>
</a>
</g>
</g>
<!-- chronologies&#45;&gt;collectionunits -->
<g id="edge5" class="edge">
<title>chronologies:w&#45;&gt;collectionunits:e</title>
<path fill="none" stroke="black" d="M166.26,-363.66C135.83,-383.58 181.87,-478 131,-478"/>
<polygon fill="black" stroke="black" points="172.75,-361.99 181.4,-363.49 176.63,-361 180.5,-360 180.5,-360 180.5,-360 176.63,-361 179.6,-356.51 172.75,-361.99 172.75,-361.99"/>
<ellipse fill="none" stroke="black" cx="169.65" cy="-362.79" rx="3.2" ry="3.2"/>
</g>
<!-- contacts -->
<g id="node6" class="node">
<title>contacts</title>
<g id="a_node6"><a xlink:href="../../tables/contacts.html" xlink:title="contacts" target="_top">
<polygon fill="#ffffff" stroke="transparent" points="9,-198 9,-322 129,-322 129,-198 9,-198"/>
<polygon fill="#f5f5f5" stroke="transparent" points="9,-300 9,-322 129,-322 129,-300 9,-300"/>
<polygon fill="none" stroke="black" points="9,-300 9,-322 129,-322 129,-300 9,-300"/>
<text text-anchor="start" x="14" y="-309.2" font-family="Helvetica,sans-Serif" font-weight="bold" font-size="11.00">contacts</text>
<text text-anchor="start" x="94" y="-308.2" font-family="Helvetica,sans-Serif" font-size="11.00">[table]</text>
<polygon fill="none" stroke="black" points="9,-278 9,-300 129,-300 129,-278 9,-278"/>
<image xlink:href="../../images/primaryKeys.png" width="11px" height="12px" preserveAspectRatio="xMinYMin meet" x="14" y="-295"/>
<text text-anchor="start" x="29" y="-286.2" font-family="Helvetica,sans-Serif" font-size="11.00">contactid</text>
<polygon fill="none" stroke="black" points="9,-256 9,-278 129,-278 129,-256 9,-256"/>
<image xlink:href="../../images/foreignKeys.png" width="11px" height="12px" preserveAspectRatio="xMinYMin meet" x="14" y="-273"/>
<text text-anchor="start" x="29" y="-264.2" font-family="Helvetica,sans-Serif" font-size="11.00">contactstatusid</text>
<polygon fill="#ffffff" stroke="transparent" points="9,-234 9,-256 129,-256 129,-234 9,-234"/>
<polygon fill="none" stroke="black" points="9,-234 9,-256 129,-256 129,-234 9,-234"/>
<text text-anchor="start" x="29" y="-242.2" font-family="Helvetica,sans-Serif" font-size="11.00">familyname</text>
<polygon fill="none" stroke="black" points="9,-216 9,-234 129,-234 129,-216 9,-216"/>
<text text-anchor="start" x="12" y="-222.2" font-family="Helvetica,sans-Serif" font-size="11.00">...</text>
<polygon fill="#ffffff" stroke="transparent" points="9,-198 9,-216 33,-216 33,-198 9,-198"/>
<polygon fill="none" stroke="black" points="9,-198 9,-216 33,-216 33,-198 9,-198"/>
<text text-anchor="start" x="12" y="-204.2" font-family="Helvetica,sans-Serif" font-size="11.00">&lt; 1</text>
<polygon fill="#ffffff" stroke="transparent" points="33,-198 33,-216 100,-216 100,-198 33,-198"/>
<polygon fill="none" stroke="black" points="33,-198 33,-216 100,-216 100,-198 33,-198"/>
<text text-anchor="start" x="37" y="-204.2" font-family="Helvetica,sans-Serif" font-size="11.00">13,247 rows</text>
<polygon fill="#ffffff" stroke="transparent" points="100,-198 100,-216 129,-216 129,-198 100,-198"/>
<polygon fill="none" stroke="black" points="100,-198 100,-216 129,-216 129,-198 100,-198"/>
<text text-anchor="start" x="104" y="-204.2" font-family="Helvetica,sans-Serif" font-size="11.00">17 &gt;</text>
</a>
</g>
</g>
<!-- chronologies&#45;&gt;contacts -->
<g id="edge6" class="edge">
<title>chronologies:w&#45;&gt;contacts:e</title>
<path fill="none" stroke="black" d="M166.2,-312.25C153.82,-304.83 149.49,-289 130,-289"/>
<polygon fill="black" stroke="black" points="172.76,-313.97 179.59,-319.48 176.63,-314.98 180.5,-316 180.5,-316 180.5,-316 176.63,-314.98 181.41,-312.52 172.76,-313.97 172.76,-313.97"/>
<ellipse fill="none" stroke="black" cx="169.67" cy="-313.16" rx="3.2" ry="3.2"/>
</g>
<!-- chroncontrols -->
<g id="node3" class="node">
<title>chroncontrols</title>
<g id="a_node3"><a xlink:href="../../tables/chroncontrols.html" xlink:title="chroncontrols" target="_top">
<polygon fill="#ffffff" stroke="transparent" points="455,-37 455,-271 592,-271 592,-37 455,-37"/>
<polygon fill="#f5f5f5" stroke="transparent" points="455.5,-249 455.5,-271 592.5,-271 592.5,-249 455.5,-249"/>
<polygon fill="none" stroke="black" points="455.5,-249 455.5,-271 592.5,-271 592.5,-249 455.5,-249"/>
<text text-anchor="start" x="460.5" y="-258.2" font-family="Helvetica,sans-Serif" font-weight="bold" font-size="11.00">chroncontrols</text>
<text text-anchor="start" x="557.5" y="-257.2" font-family="Helvetica,sans-Serif" font-size="11.00">[table]</text>
<polygon fill="none" stroke="black" points="455.5,-227 455.5,-249 592.5,-249 592.5,-227 455.5,-227"/>
<image xlink:href="../../images/primaryKeys.png" width="11px" height="12px" preserveAspectRatio="xMinYMin meet" x="460.5" y="-244"/>
<text text-anchor="start" x="475.5" y="-235.2" font-family="Helvetica,sans-Serif" font-size="11.00">chroncontrolid</text>
<polygon fill="none" stroke="black" points="455.5,-205 455.5,-227 592.5,-227 592.5,-205 455.5,-205"/>
<image xlink:href="../../images/foreignKeys.png" width="11px" height="12px" preserveAspectRatio="xMinYMin meet" x="460.5" y="-222"/>
<text text-anchor="start" x="475.5" y="-213.2" font-family="Helvetica,sans-Serif" font-size="11.00">chronologyid</text>
<polygon fill="none" stroke="black" points="455.5,-183 455.5,-205 592.5,-205 592.5,-183 455.5,-183"/>
<image xlink:href="../../images/foreignKeys.png" width="11px" height="12px" preserveAspectRatio="xMinYMin meet" x="460.5" y="-200"/>
<text text-anchor="start" x="475.5" y="-191.2" font-family="Helvetica,sans-Serif" font-size="11.00">chroncontroltypeid</text>
<polygon fill="#ffffff" stroke="transparent" points="455.5,-161 455.5,-183 592.5,-183 592.5,-161 455.5,-161"/>
<polygon fill="none" stroke="black" points="455.5,-161 455.5,-183 592.5,-183 592.5,-161 455.5,-161"/>
<text text-anchor="start" x="475.5" y="-169.2" font-family="Helvetica,sans-Serif" font-size="11.00">age</text>
<polygon fill="#ffffff" stroke="transparent" points="455.5,-139 455.5,-161 592.5,-161 592.5,-139 455.5,-139"/>
<polygon fill="none" stroke="black" points="455.5,-139 455.5,-161 592.5,-161 592.5,-139 455.5,-139"/>
<text text-anchor="start" x="475.5" y="-147.2" font-family="Helvetica,sans-Serif" font-size="11.00">agelimityounger</text>
<polygon fill="#ffffff" stroke="transparent" points="455.5,-117 455.5,-139 592.5,-139 592.5,-117 455.5,-117"/>
<polygon fill="none" stroke="black" points="455.5,-117 455.5,-139 592.5,-139 592.5,-117 455.5,-117"/>
<text text-anchor="start" x="475.5" y="-125.2" font-family="Helvetica,sans-Serif" font-size="11.00">agelimitolder</text>
<polygon fill="none" stroke="black" points="455.5,-95 455.5,-117 592.5,-117 592.5,-95 455.5,-95"/>
<image xlink:href="../../images/foreignKeys.png" width="11px" height="12px" preserveAspectRatio="xMinYMin meet" x="460.5" y="-112"/>
<text text-anchor="start" x="475.5" y="-103.2" font-family="Helvetica,sans-Serif" font-size="11.00">analysisunitid</text>
<polygon fill="none" stroke="black" points="455.5,-73 455.5,-95 592.5,-95 592.5,-73 455.5,-73"/>
<image xlink:href="../../images/foreignKeys.png" width="11px" height="12px" preserveAspectRatio="xMinYMin meet" x="460.5" y="-90"/>
<text text-anchor="start" x="475.5" y="-81.2" font-family="Helvetica,sans-Serif" font-size="11.00">agetypeid</text>
<polygon fill="none" stroke="black" points="455.5,-55 455.5,-73 592.5,-73 592.5,-55 455.5,-55"/>
<text text-anchor="start" x="458.5" y="-61.2" font-family="Helvetica,sans-Serif" font-size="11.00">...</text>
<polygon fill="#ffffff" stroke="transparent" points="455.5,-37 455.5,-55 487.5,-55 487.5,-37 455.5,-37"/>
<polygon fill="none" stroke="black" points="455.5,-37 455.5,-55 487.5,-55 487.5,-37 455.5,-37"/>
<text text-anchor="start" x="458.5" y="-43.2" font-family="Helvetica,sans-Serif" font-size="11.00">&lt; 4</text>
<polygon fill="#ffffff" stroke="transparent" points="487.5,-37 487.5,-55 564.5,-55 564.5,-37 487.5,-37"/>
<polygon fill="none" stroke="black" points="487.5,-37 487.5,-55 564.5,-55 564.5,-37 487.5,-37"/>
<text text-anchor="start" x="495.5" y="-43.2" font-family="Helvetica,sans-Serif" font-size="11.00">100,724 rows</text>
<polygon fill="#ffffff" stroke="transparent" points="564.5,-37 564.5,-55 592.5,-55 592.5,-37 564.5,-37"/>
<polygon fill="none" stroke="black" points="564.5,-37 564.5,-55 592.5,-55 592.5,-37 564.5,-37"/>
<text text-anchor="start" x="573.5" y="-43.2" font-family="Helvetica,sans-Serif" font-size="11.00">5 &gt;</text>
</a>
</g>
</g>
<!-- chroncontrols&#45;&gt;chronologies -->
<g id="edge3" class="edge">
<title>chroncontrols:w&#45;&gt;chronologies:e</title>
<path fill="none" stroke="black" d="M440.15,-218.61C391.67,-239.73 474.95,-382 403.5,-382"/>
<polygon fill="black" stroke="black" points="446.63,-217.43 455.14,-219.54 450.56,-216.72 454.5,-216 454.5,-216 454.5,-216 450.56,-216.72 453.86,-212.46 446.63,-217.43 446.63,-217.43"/>
<ellipse fill="none" stroke="black" cx="443.48" cy="-218" rx="3.2" ry="3.2"/>
</g>
<!-- chroncontrols&#45;&gt;agetypes -->
<g id="edge2" class="edge">
<title>chroncontrols:w&#45;&gt;agetypes:e</title>
<path fill="none" stroke="black" d="M440,-82.69C431.24,-80.98 425.12,-78.07 412,-77 305.25,-68.27 276.85,-60.62 171,-77 152.11,-79.92 149.12,-90 130,-90"/>
<polygon fill="black" stroke="black" points="446.53,-83.28 454.18,-87.59 450.52,-83.64 454.5,-84 454.5,-84 454.5,-84 450.52,-83.64 454.82,-80.41 446.53,-83.28 446.53,-83.28"/>
<ellipse fill="none" stroke="black" cx="443.35" cy="-82.99" rx="3.2" ry="3.2"/>
</g>
<!-- sampleages -->
<g id="node7" class="node">
<title>sampleages</title>
<g id="a_node7"><a xlink:href="../../tables/sampleages.html" xlink:title="sampleages" target="_top">
<polygon fill="#ffffff" stroke="transparent" points="463.5,-447 463.5,-637 583.5,-637 583.5,-447 463.5,-447"/>
<polygon fill="#f5f5f5" stroke="transparent" points="463.5,-615 463.5,-637 583.5,-637 583.5,-615 463.5,-615"/>
<polygon fill="none" stroke="black" points="463.5,-615 463.5,-637 583.5,-637 583.5,-615 463.5,-615"/>
<text text-anchor="start" x="468.5" y="-624.2" font-family="Helvetica,sans-Serif" font-weight="bold" font-size="11.00">sampleages</text>
<text text-anchor="start" x="548.5" y="-623.2" font-family="Helvetica,sans-Serif" font-size="11.00">[table]</text>
<polygon fill="none" stroke="black" points="463.5,-593 463.5,-615 583.5,-615 583.5,-593 463.5,-593"/>
<image xlink:href="../../images/primaryKeys.png" width="11px" height="12px" preserveAspectRatio="xMinYMin meet" x="468.5" y="-610"/>
<text text-anchor="start" x="483.5" y="-601.2" font-family="Helvetica,sans-Serif" font-size="11.00">sampleageid</text>
<polygon fill="#ffffff" stroke="transparent" points="463.5,-571 463.5,-593 583.5,-593 583.5,-571 463.5,-571"/>
<polygon fill="none" stroke="black" points="463.5,-571 463.5,-593 583.5,-593 583.5,-571 463.5,-571"/>
<image xlink:href="../../images/foreignKeys.png" width="11px" height="12px" preserveAspectRatio="xMinYMin meet" x="468.5" y="-588"/>
<text text-anchor="start" x="483.5" y="-579.2" font-family="Helvetica,sans-Serif" font-size="11.00">sampleid</text>
<polygon fill="#ffffff" stroke="transparent" points="463.5,-549 463.5,-571 583.5,-571 583.5,-549 463.5,-549"/>
<polygon fill="none" stroke="black" points="463.5,-549 463.5,-571 583.5,-571 583.5,-549 463.5,-549"/>
<image xlink:href="../../images/foreignKeys.png" width="11px" height="12px" preserveAspectRatio="xMinYMin meet" x="468.5" y="-566"/>
<text text-anchor="start" x="483.5" y="-557.2" font-family="Helvetica,sans-Serif" font-size="11.00">chronologyid</text>
<polygon fill="#ffffff" stroke="transparent" points="463.5,-527 463.5,-549 583.5,-549 583.5,-527 463.5,-527"/>
<polygon fill="none" stroke="black" points="463.5,-527 463.5,-549 583.5,-549 583.5,-527 463.5,-527"/>
<text text-anchor="start" x="483.5" y="-535.2" font-family="Helvetica,sans-Serif" font-size="11.00">age</text>
<polygon fill="#ffffff" stroke="transparent" points="463.5,-505 463.5,-527 583.5,-527 583.5,-505 463.5,-505"/>
<polygon fill="none" stroke="black" points="463.5,-505 463.5,-527 583.5,-527 583.5,-505 463.5,-505"/>
<text text-anchor="start" x="483.5" y="-513.2" font-family="Helvetica,sans-Serif" font-size="11.00">ageyounger</text>
<polygon fill="#ffffff" stroke="transparent" points="463.5,-483 463.5,-505 583.5,-505 583.5,-483 463.5,-483"/>
<polygon fill="none" stroke="black" points="463.5,-483 463.5,-505 583.5,-505 583.5,-483 463.5,-483"/>
<text text-anchor="start" x="483.5" y="-491.2" font-family="Helvetica,sans-Serif" font-size="11.00">ageolder</text>
<polygon fill="none" stroke="black" points="463.5,-465 463.5,-483 583.5,-483 583.5,-465 463.5,-465"/>
<text text-anchor="start" x="466.5" y="-471.2" font-family="Helvetica,sans-Serif" font-size="11.00">...</text>
<polygon fill="#ffffff" stroke="transparent" points="463.5,-447 463.5,-465 487.5,-465 487.5,-447 463.5,-447"/>
<polygon fill="none" stroke="black" points="463.5,-447 463.5,-465 487.5,-465 487.5,-447 463.5,-447"/>
<text text-anchor="start" x="466.5" y="-453.2" font-family="Helvetica,sans-Serif" font-size="11.00">&lt; 2</text>
<polygon fill="#ffffff" stroke="transparent" points="487.5,-447 487.5,-465 560.5,-465 560.5,-447 487.5,-447"/>
<polygon fill="none" stroke="black" points="487.5,-447 487.5,-465 560.5,-465 560.5,-447 487.5,-447"/>
<text text-anchor="start" x="491.5" y="-453.2" font-family="Helvetica,sans-Serif" font-size="11.00">591,749 rows</text>
<polygon fill="#ffffff" stroke="transparent" points="560.5,-447 560.5,-465 583.5,-465 583.5,-447 560.5,-447"/>
<polygon fill="none" stroke="black" points="560.5,-447 560.5,-465 583.5,-465 583.5,-447 560.5,-447"/>
<text text-anchor="start" x="564.5" y="-453.2" font-family="Helvetica,sans-Serif" font-size="11.00">1 &gt;</text>
</a>
</g>
</g>
<!-- sampleages&#45;&gt;chronologies -->
<g id="edge7" class="edge">
<title>sampleages:w&#45;&gt;chronologies:e</title>
<path fill="none" stroke="black" d="M447.96,-557.62C392.99,-536.5 481.15,-382 403.5,-382"/>
<polygon fill="black" stroke="black" points="454.61,-558.71 461.92,-563.55 458.55,-559.35 462.5,-560 462.5,-560 462.5,-560 458.55,-559.35 463.08,-556.45 454.61,-558.71 454.61,-558.71"/>
<ellipse fill="none" stroke="black" cx="451.45" cy="-558.19" rx="3.2" ry="3.2"/>
</g>
</g>
</svg>
