<?xml version="1.0" encoding="UTF-8" standalone="no"?>
<!DOCTYPE svg PUBLIC "-//W3C//DTD SVG 1.1//EN"
 "http://www.w3.org/Graphics/SVG/1.1/DTD/svg11.dtd">
<!-- Generated by graphviz version 2.43.0 (0)
 -->
<!-- Title: oneDegreeRelationshipsDiagram Pages: 1 -->
<svg width="536pt" height="267pt"
 viewBox="0.00 0.00 536.00 267.00" xmlns="http://www.w3.org/2000/svg" xmlns:xlink="http://www.w3.org/1999/xlink">
<g id="graph0" class="graph" transform="scale(1 1) rotate(0) translate(4 263)">
<title>oneDegreeRelationshipsDiagram</title>
<polygon fill="#ffffff" stroke="transparent" points="-4,4 -4,-263 532,-263 532,4 -4,4"/>
<text text-anchor="middle" x="71.5" y="-7.2" font-family="Helvetica,sans-Serif" font-size="11.00">Generated by SchemaSpy</text>
<!-- chroncontrolranks -->
<g id="node1" class="node">
<title>chroncontrolranks</title>
<g id="a_node1"><a xlink:href="../../tables/chroncontrolranks.html" xlink:title="chroncontrolranks" target="_top">
<polygon fill="#ffffff" stroke="transparent" points="364,-65 364,-255 520,-255 520,-65 364,-65"/>
<polygon fill="#f5f5f5" stroke="transparent" points="364,-233 364,-255 520,-255 520,-233 364,-233"/>
<polygon fill="none" stroke="black" points="364,-233 364,-255 520,-255 520,-233 364,-233"/>
<text text-anchor="start" x="369" y="-242.2" font-family="Helvetica,sans-Serif" font-weight="bold" font-size="11.00">chroncontrolranks</text>
<text text-anchor="start" x="485" y="-241.2" font-family="Helvetica,sans-Serif" font-size="11.00">[table]</text>
<polygon fill="none" stroke="black" points="364,-211 364,-233 520,-233 520,-211 364,-211"/>
<image xlink:href="../../images/primaryKeys.png" width="11px" height="12px" preserveAspectRatio="xMinYMin meet" x="369" y="-228"/>
<text text-anchor="start" x="384" y="-219.2" font-family="Helvetica,sans-Serif" font-size="11.00">chroncontrolrankid</text>
<polygon fill="none" stroke="black" points="364,-189 364,-211 520,-211 520,-189 364,-189"/>
<image xlink:href="../../images/foreignKeys.png" width="11px" height="12px" preserveAspectRatio="xMinYMin meet" x="369" y="-206"/>
<text text-anchor="start" x="384" y="-197.2" font-family="Helvetica,sans-Serif" font-size="11.00">chroncontrolid</text>
<polygon fill="none" stroke="black" points="364,-167 364,-189 520,-189 520,-167 364,-167"/>
<image xlink:href="../../images/foreignKeys.png" width="11px" height="12px" preserveAspectRatio="xMinYMin meet" x="369" y="-184"/>
<text text-anchor="start" x="384" y="-175.2" font-family="Helvetica,sans-Serif" font-size="11.00">accuracyrankid</text>
<polygon fill="none" stroke="black" points="364,-145 364,-167 520,-167 520,-145 364,-145"/>
<image xlink:href="../../images/foreignKeys.png" width="11px" height="12px" preserveAspectRatio="xMinYMin meet" x="369" y="-162"/>
<text text-anchor="start" x="384" y="-153.2" font-family="Helvetica,sans-Serif" font-size="11.00">accuracydirectionid</text>
<polygon fill="none" stroke="black" points="364,-123 364,-145 520,-145 520,-123 364,-123"/>
<image xlink:href="../../images/foreignKeys.png" width="11px" height="12px" preserveAspectRatio="xMinYMin meet" x="369" y="-140"/>
<text text-anchor="start" x="384" y="-131.2" font-family="Helvetica,sans-Serif" font-size="11.00">accuracydistributionid</text>
<polygon fill="none" stroke="black" points="364,-101 364,-123 520,-123 520,-101 364,-101"/>
<image xlink:href="../../images/foreignKeys.png" width="11px" height="12px" preserveAspectRatio="xMinYMin meet" x="369" y="-118"/>
<text text-anchor="start" x="384" y="-109.2" font-family="Helvetica,sans-Serif" font-size="11.00">precisionrankid</text>
<polygon fill="none" stroke="black" points="364,-83 364,-101 520,-101 520,-83 364,-83"/>
<text text-anchor="start" x="367" y="-89.2" font-family="Helvetica,sans-Serif" font-size="11.00">...</text>
<polygon fill="#ffffff" stroke="transparent" points="364,-65 364,-83 427,-83 427,-65 364,-65"/>
<polygon fill="none" stroke="black" points="364,-65 364,-83 427,-83 427,-65 364,-65"/>
<text text-anchor="start" x="367" y="-71.2" font-family="Helvetica,sans-Serif" font-size="11.00">&lt; 5</text>
<polygon fill="#ffffff" stroke="transparent" points="427,-65 427,-83 486,-83 486,-65 427,-65"/>
<polygon fill="none" stroke="black" points="427,-65 427,-83 486,-83 486,-65 427,-65"/>
<text text-anchor="start" x="450" y="-71.2" font-family="Helvetica,sans-Serif" font-size="11.00">0 rows</text>
<polygon fill="#ffffff" stroke="transparent" points="486,-65 486,-83 520,-83 520,-65 486,-65"/>
<polygon fill="none" stroke="black" points="486,-65 486,-83 520,-83 520,-65 486,-65"/>
<text text-anchor="start" x="510" y="-71.2" font-family="Helvetica,sans-Serif" font-size="11.00"> &#160;</text>
</a>
</g>
</g>
<!-- chroncontrolaccuracydistributions -->
<g id="node2" class="node">
<title>chroncontrolaccuracydistributions</title>
<g id="a_node2"><a xlink:href="../../tables/chroncontrolaccuracydistributions.html" xlink:title="chroncontrolaccuracydistributions" target="_top">
<polygon fill="#ffffff" stroke="transparent" points="8,-37 8,-169 315,-169 315,-37 8,-37"/>
<polygon fill="#f5f5f5" stroke="transparent" points="10.5,-145 10.5,-167 313.5,-167 313.5,-145 10.5,-145"/>
<polygon fill="none" stroke="black" points="10.5,-145 10.5,-167 313.5,-167 313.5,-145 10.5,-145"/>
<text text-anchor="start" x="15.5" y="-154.2" font-family="Helvetica,sans-Serif" font-weight="bold" font-size="11.00">chroncontrolaccuracydistributions</text>
<text text-anchor="start" x="278.5" y="-153.2" font-family="Helvetica,sans-Serif" font-size="11.00">[table]</text>
<polygon fill="none" stroke="black" points="10.5,-123 10.5,-145 239.5,-145 239.5,-123 10.5,-123"/>
<image xlink:href="../../images/primaryKeys.png" width="11px" height="12px" preserveAspectRatio="xMinYMin meet" x="15.5" y="-140"/>
<text text-anchor="start" x="30.5" y="-131.2" font-family="Helvetica,sans-Serif" font-size="11.00">accuracydistributionid</text>
<polygon fill="none" stroke="black" points="239.5,-123 239.5,-145 313.5,-145 313.5,-123 239.5,-123"/>
<text text-anchor="start" x="242.5" y="-131.2" font-family="Helvetica,sans-Serif" font-size="11.00">serial[10]</text>
<polygon fill="none" stroke="black" points="10.5,-101 10.5,-123 239.5,-123 239.5,-101 10.5,-101"/>
<text text-anchor="start" x="30.5" y="-109.2" font-family="Helvetica,sans-Serif" font-size="11.00">accuracydistribution</text>
<polygon fill="none" stroke="black" points="239.5,-101 239.5,-123 313.5,-123 313.5,-101 239.5,-101"/>
<text text-anchor="start" x="242.5" y="-109.2" font-family="Helvetica,sans-Serif" font-size="11.00">varchar[40]</text>
<polygon fill="none" stroke="black" points="10.5,-79 10.5,-101 239.5,-101 239.5,-79 10.5,-79"/>
<text text-anchor="start" x="30.5" y="-87.2" font-family="Helvetica,sans-Serif" font-size="11.00">recdatecreated</text>
<polygon fill="none" stroke="black" points="239.5,-79 239.5,-101 313.5,-101 313.5,-79 239.5,-79"/>
<text text-anchor="start" x="242.5" y="-87.2" font-family="Helvetica,sans-Serif" font-size="11.00">timestamp[22]</text>
<polygon fill="none" stroke="black" points="10.5,-57 10.5,-79 239.5,-79 239.5,-57 10.5,-57"/>
<text text-anchor="start" x="30.5" y="-65.2" font-family="Helvetica,sans-Serif" font-size="11.00">recdatemodified</text>
<polygon fill="none" stroke="black" points="239.5,-57 239.5,-79 313.5,-79 313.5,-57 239.5,-57"/>
<text text-anchor="start" x="242.5" y="-65.2" font-family="Helvetica,sans-Serif" font-size="11.00">timestamp[22]</text>
<polygon fill="#ffffff" stroke="transparent" points="10.5,-39 10.5,-57 116.5,-57 116.5,-39 10.5,-39"/>
<polygon fill="none" stroke="black" points="10.5,-39 10.5,-57 116.5,-57 116.5,-39 10.5,-39"/>
<text text-anchor="start" x="13.5" y="-45.2" font-family="Helvetica,sans-Serif" font-size="11.00">&lt; 0</text>
<polygon fill="#ffffff" stroke="transparent" points="116.5,-39 116.5,-57 239.5,-57 239.5,-39 116.5,-39"/>
<polygon fill="none" stroke="black" points="116.5,-39 116.5,-57 239.5,-57 239.5,-39 116.5,-39"/>
<text text-anchor="start" x="203.5" y="-45.2" font-family="Helvetica,sans-Serif" font-size="11.00">4 rows</text>
<polygon fill="#ffffff" stroke="transparent" points="239.5,-39 239.5,-57 313.5,-57 313.5,-39 239.5,-39"/>
<polygon fill="none" stroke="black" points="239.5,-39 239.5,-57 313.5,-57 313.5,-39 239.5,-39"/>
<text text-anchor="start" x="294.5" y="-45.2" font-family="Helvetica,sans-Serif" font-size="11.00">1 &gt;</text>
<polygon fill="none" stroke="black" stroke-width="2" points="9,-38 9,-168 314,-168 314,-38 9,-38"/>
</a>
</g>
</g>
<!-- chroncontrolranks&#45;&gt;chroncontrolaccuracydistributions -->
<g id="edge1" class="edge">
<title>chroncontrolranks:w&#45;&gt;chroncontrolaccuracydistributions:e</title>
<path fill="none" stroke="black" d="M348.28,-134C337.29,-134 330.16,-134 314.5,-134"/>
<polygon fill="black" stroke="black" points="355,-134 363,-137.6 359,-134 363,-134 363,-134 363,-134 359,-134 363,-130.4 355,-134 355,-134"/>
<ellipse fill="none" stroke="black" cx="351.8" cy="-134" rx="3.2" ry="3.2"/>
</g>
</g>
</svg>
