<?xml version="1.0" encoding="UTF-8" standalone="no"?>
<!DOCTYPE svg PUBLIC "-//W3C//DTD SVG 1.1//EN"
 "http://www.w3.org/Graphics/SVG/1.1/DTD/svg11.dtd">
<!-- Generated by graphviz version 2.43.0 (0)
 -->
<!-- Title: twoDegreesRelationshipsDiagram Pages: 1 -->
<svg width="867pt" height="754pt"
 viewBox="0.00 0.00 867.00 754.00" xmlns="http://www.w3.org/2000/svg" xmlns:xlink="http://www.w3.org/1999/xlink">
<g id="graph0" class="graph" transform="scale(1 1) rotate(0) translate(4 750)">
<title>twoDegreesRelationshipsDiagram</title>
<polygon fill="#ffffff" stroke="transparent" points="-4,4 -4,-750 863,-750 863,4 -4,4"/>
<text text-anchor="middle" x="71.5" y="-7.2" font-family="Helvetica,sans-Serif" font-size="11.00">Generated by SchemaSpy</text>
<!-- chroncontrolranks -->
<g id="node1" class="node">
<title>chroncontrolranks</title>
<g id="a_node1"><a xlink:href="../../tables/chroncontrolranks.html" xlink:title="chroncontrolranks" target="_top">
<polygon fill="#ffffff" stroke="transparent" points="617,-388 617,-630 851,-630 851,-388 617,-388"/>
<polygon fill="#f5f5f5" stroke="transparent" points="619,-606 619,-628 849,-628 849,-606 619,-606"/>
<polygon fill="none" stroke="black" points="619,-606 619,-628 849,-628 849,-606 619,-606"/>
<text text-anchor="start" x="624" y="-615.2" font-family="Helvetica,sans-Serif" font-weight="bold" font-size="11.00">chroncontrolranks</text>
<text text-anchor="start" x="814" y="-614.2" font-family="Helvetica,sans-Serif" font-size="11.00">[table]</text>
<polygon fill="none" stroke="black" points="619,-584 619,-606 775,-606 775,-584 619,-584"/>
<image xlink:href="../../images/primaryKeys.png" width="11px" height="12px" preserveAspectRatio="xMinYMin meet" x="624" y="-601"/>
<text text-anchor="start" x="639" y="-592.2" font-family="Helvetica,sans-Serif" font-size="11.00">chroncontrolrankid</text>
<polygon fill="none" stroke="black" points="775,-584 775,-606 849,-606 849,-584 775,-584"/>
<text text-anchor="start" x="778" y="-592.2" font-family="Helvetica,sans-Serif" font-size="11.00">serial[10]</text>
<polygon fill="none" stroke="black" points="619,-562 619,-584 775,-584 775,-562 619,-562"/>
<image xlink:href="../../images/foreignKeys.png" width="11px" height="12px" preserveAspectRatio="xMinYMin meet" x="624" y="-579"/>
<text text-anchor="start" x="639" y="-570.2" font-family="Helvetica,sans-Serif" font-size="11.00">chroncontrolid</text>
<polygon fill="none" stroke="black" points="775,-562 775,-584 849,-584 849,-562 775,-562"/>
<text text-anchor="start" x="778" y="-570.2" font-family="Helvetica,sans-Serif" font-size="11.00">int4[10]</text>
<polygon fill="none" stroke="black" points="619,-540 619,-562 775,-562 775,-540 619,-540"/>
<image xlink:href="../../images/foreignKeys.png" width="11px" height="12px" preserveAspectRatio="xMinYMin meet" x="624" y="-557"/>
<text text-anchor="start" x="639" y="-548.2" font-family="Helvetica,sans-Serif" font-size="11.00">accuracyrankid</text>
<polygon fill="none" stroke="black" points="775,-540 775,-562 849,-562 849,-540 775,-540"/>
<text text-anchor="start" x="778" y="-548.2" font-family="Helvetica,sans-Serif" font-size="11.00">int4[10]</text>
<polygon fill="none" stroke="black" points="619,-518 619,-540 775,-540 775,-518 619,-518"/>
<image xlink:href="../../images/foreignKeys.png" width="11px" height="12px" preserveAspectRatio="xMinYMin meet" x="624" y="-535"/>
<text text-anchor="start" x="639" y="-526.2" font-family="Helvetica,sans-Serif" font-size="11.00">accuracydirectionid</text>
<polygon fill="none" stroke="black" points="775,-518 775,-540 849,-540 849,-518 775,-518"/>
<text text-anchor="start" x="778" y="-526.2" font-family="Helvetica,sans-Serif" font-size="11.00">int4[10]</text>
<polygon fill="none" stroke="black" points="619,-496 619,-518 775,-518 775,-496 619,-496"/>
<image xlink:href="../../images/foreignKeys.png" width="11px" height="12px" preserveAspectRatio="xMinYMin meet" x="624" y="-513"/>
<text text-anchor="start" x="639" y="-504.2" font-family="Helvetica,sans-Serif" font-size="11.00">accuracydistributionid</text>
<polygon fill="none" stroke="black" points="775,-496 775,-518 849,-518 849,-496 775,-496"/>
<text text-anchor="start" x="778" y="-504.2" font-family="Helvetica,sans-Serif" font-size="11.00">int4[10]</text>
<polygon fill="none" stroke="black" points="619,-474 619,-496 775,-496 775,-474 619,-474"/>
<image xlink:href="../../images/foreignKeys.png" width="11px" height="12px" preserveAspectRatio="xMinYMin meet" x="624" y="-491"/>
<text text-anchor="start" x="639" y="-482.2" font-family="Helvetica,sans-Serif" font-size="11.00">precisionrankid</text>
<polygon fill="none" stroke="black" points="775,-474 775,-496 849,-496 849,-474 775,-474"/>
<text text-anchor="start" x="778" y="-482.2" font-family="Helvetica,sans-Serif" font-size="11.00">int4[10]</text>
<polygon fill="none" stroke="black" points="619,-452 619,-474 775,-474 775,-452 619,-452"/>
<text text-anchor="start" x="639" y="-460.2" font-family="Helvetica,sans-Serif" font-size="11.00">outlier</text>
<polygon fill="none" stroke="black" points="775,-452 775,-474 849,-474 849,-452 775,-452"/>
<text text-anchor="start" x="778" y="-460.2" font-family="Helvetica,sans-Serif" font-size="11.00">bool[1]</text>
<polygon fill="none" stroke="black" points="619,-430 619,-452 775,-452 775,-430 619,-430"/>
<text text-anchor="start" x="639" y="-438.2" font-family="Helvetica,sans-Serif" font-size="11.00">recdatecreated</text>
<polygon fill="none" stroke="black" points="775,-430 775,-452 849,-452 849,-430 775,-430"/>
<text text-anchor="start" x="778" y="-438.2" font-family="Helvetica,sans-Serif" font-size="11.00">timestamp[22]</text>
<polygon fill="none" stroke="black" points="619,-408 619,-430 775,-430 775,-408 619,-408"/>
<text text-anchor="start" x="639" y="-416.2" font-family="Helvetica,sans-Serif" font-size="11.00">recdatemodified</text>
<polygon fill="none" stroke="black" points="775,-408 775,-430 849,-430 849,-408 775,-408"/>
<text text-anchor="start" x="778" y="-416.2" font-family="Helvetica,sans-Serif" font-size="11.00">timestamp[22]</text>
<polygon fill="#ffffff" stroke="transparent" points="619,-390 619,-408 688,-408 688,-390 619,-390"/>
<polygon fill="none" stroke="black" points="619,-390 619,-408 688,-408 688,-390 619,-390"/>
<text text-anchor="start" x="622" y="-396.2" font-family="Helvetica,sans-Serif" font-size="11.00">&lt; 5</text>
<polygon fill="#ffffff" stroke="transparent" points="688,-390 688,-408 775,-408 775,-390 688,-390"/>
<polygon fill="none" stroke="black" points="688,-390 688,-408 775,-408 775,-390 688,-390"/>
<text text-anchor="start" x="739" y="-396.2" font-family="Helvetica,sans-Serif" font-size="11.00">0 rows</text>
<polygon fill="#ffffff" stroke="transparent" points="775,-390 775,-408 849,-408 849,-390 775,-390"/>
<polygon fill="none" stroke="black" points="775,-390 775,-408 849,-408 849,-390 775,-390"/>
<text text-anchor="start" x="830" y="-396.2" font-family="Helvetica,sans-Serif" font-size="11.00">0 &gt;</text>
<polygon fill="none" stroke="black" stroke-width="2" points="618,-389 618,-629 850,-629 850,-389 618,-389"/>
</a>
</g>
</g>
<!-- chroncontrolaccuracydirections -->
<g id="node2" class="node">
<title>chroncontrolaccuracydirections</title>
<g id="a_node2"><a xlink:href="../../tables/chroncontrolaccuracydirections.html" xlink:title="chroncontrolaccuracydirections" target="_top">
<polygon fill="#ffffff" stroke="transparent" points="347,-561 347,-641 560,-641 560,-561 347,-561"/>
<polygon fill="#f5f5f5" stroke="transparent" points="347.5,-619 347.5,-641 560.5,-641 560.5,-619 347.5,-619"/>
<polygon fill="none" stroke="black" points="347.5,-619 347.5,-641 560.5,-641 560.5,-619 347.5,-619"/>
<text text-anchor="start" x="352.5" y="-628.2" font-family="Helvetica,sans-Serif" font-weight="bold" font-size="11.00">chroncontrolaccuracydirections</text>
<text text-anchor="start" x="525.5" y="-627.2" font-family="Helvetica,sans-Serif" font-size="11.00">[table]</text>
<polygon fill="none" stroke="black" points="347.5,-597 347.5,-619 560.5,-619 560.5,-597 347.5,-597"/>
<image xlink:href="../../images/primaryKeys.png" width="11px" height="12px" preserveAspectRatio="xMinYMin meet" x="352.5" y="-614"/>
<text text-anchor="start" x="368.5" y="-605.2" font-family="Helvetica,sans-Serif" font-size="11.00">accuracydirectionid</text>
<polygon fill="none" stroke="black" points="347.5,-579 347.5,-597 560.5,-597 560.5,-579 347.5,-579"/>
<text text-anchor="start" x="350.5" y="-585.2" font-family="Helvetica,sans-Serif" font-size="11.00">...</text>
<polygon fill="#ffffff" stroke="transparent" points="347.5,-561 347.5,-579 429.5,-579 429.5,-561 347.5,-561"/>
<polygon fill="none" stroke="black" points="347.5,-561 347.5,-579 429.5,-579 429.5,-561 347.5,-561"/>
<text text-anchor="start" x="350.5" y="-567.2" font-family="Helvetica,sans-Serif" font-size="11.00"> &#160;</text>
<polygon fill="#ffffff" stroke="transparent" points="429.5,-561 429.5,-579 503.5,-579 503.5,-561 429.5,-561"/>
<polygon fill="none" stroke="black" points="429.5,-561 429.5,-579 503.5,-579 503.5,-561 429.5,-561"/>
<text text-anchor="start" x="467.5" y="-567.2" font-family="Helvetica,sans-Serif" font-size="11.00">3 rows</text>
<polygon fill="#ffffff" stroke="transparent" points="503.5,-561 503.5,-579 560.5,-579 560.5,-561 503.5,-561"/>
<polygon fill="none" stroke="black" points="503.5,-561 503.5,-579 560.5,-579 560.5,-561 503.5,-561"/>
<text text-anchor="start" x="541.5" y="-567.2" font-family="Helvetica,sans-Serif" font-size="11.00">1 &gt;</text>
</a>
</g>
</g>
<!-- chroncontrolranks&#45;&gt;chroncontrolaccuracydirections -->
<g id="edge1" class="edge">
<title>chroncontrolranks:w&#45;&gt;chroncontrolaccuracydirections:e</title>
<path fill="none" stroke="black" d="M604.02,-533.03C581.63,-549.12 598.76,-608 561.5,-608"/>
<polygon fill="black" stroke="black" points="610.31,-531.21 619,-532.46 614.16,-530.11 618,-529 618,-529 618,-529 614.16,-530.11 617,-525.54 610.31,-531.21 610.31,-531.21"/>
<ellipse fill="none" stroke="black" cx="607.24" cy="-532.1" rx="3.2" ry="3.2"/>
</g>
<!-- chroncontrolaccuracydistributions -->
<g id="node3" class="node">
<title>chroncontrolaccuracydistributions</title>
<g id="a_node3"><a xlink:href="../../tables/chroncontrolaccuracydistributions.html" xlink:title="chroncontrolaccuracydistributions" target="_top">
<polygon fill="#ffffff" stroke="transparent" points="339,-460 339,-540 568,-540 568,-460 339,-460"/>
<polygon fill="#f5f5f5" stroke="transparent" points="339.5,-518 339.5,-540 568.5,-540 568.5,-518 339.5,-518"/>
<polygon fill="none" stroke="black" points="339.5,-518 339.5,-540 568.5,-540 568.5,-518 339.5,-518"/>
<text text-anchor="start" x="344.5" y="-527.2" font-family="Helvetica,sans-Serif" font-weight="bold" font-size="11.00">chroncontrolaccuracydistributions</text>
<text text-anchor="start" x="533.5" y="-526.2" font-family="Helvetica,sans-Serif" font-size="11.00">[table]</text>
<polygon fill="none" stroke="black" points="339.5,-496 339.5,-518 568.5,-518 568.5,-496 339.5,-496"/>
<image xlink:href="../../images/primaryKeys.png" width="11px" height="12px" preserveAspectRatio="xMinYMin meet" x="344.5" y="-513"/>
<text text-anchor="start" x="359.5" y="-504.2" font-family="Helvetica,sans-Serif" font-size="11.00">accuracydistributionid</text>
<polygon fill="none" stroke="black" points="339.5,-478 339.5,-496 568.5,-496 568.5,-478 339.5,-478"/>
<text text-anchor="start" x="342.5" y="-484.2" font-family="Helvetica,sans-Serif" font-size="11.00">...</text>
<polygon fill="#ffffff" stroke="transparent" points="339.5,-460 339.5,-478 429.5,-478 429.5,-460 339.5,-460"/>
<polygon fill="none" stroke="black" points="339.5,-460 339.5,-478 429.5,-478 429.5,-460 339.5,-460"/>
<text text-anchor="start" x="342.5" y="-466.2" font-family="Helvetica,sans-Serif" font-size="11.00"> &#160;</text>
<polygon fill="#ffffff" stroke="transparent" points="429.5,-460 429.5,-478 507.5,-478 507.5,-460 429.5,-460"/>
<polygon fill="none" stroke="black" points="429.5,-460 429.5,-478 507.5,-478 507.5,-460 429.5,-460"/>
<text text-anchor="start" x="471.5" y="-466.2" font-family="Helvetica,sans-Serif" font-size="11.00">4 rows</text>
<polygon fill="#ffffff" stroke="transparent" points="507.5,-460 507.5,-478 568.5,-478 568.5,-460 507.5,-460"/>
<polygon fill="none" stroke="black" points="507.5,-460 507.5,-478 568.5,-478 568.5,-460 507.5,-460"/>
<text text-anchor="start" x="549.5" y="-466.2" font-family="Helvetica,sans-Serif" font-size="11.00">1 &gt;</text>
</a>
</g>
</g>
<!-- chroncontrolranks&#45;&gt;chroncontrolaccuracydistributions -->
<g id="edge2" class="edge">
<title>chroncontrolranks:w&#45;&gt;chroncontrolaccuracydistributions:e</title>
<path fill="none" stroke="black" d="M603.28,-507C592.29,-507 585.16,-507 569.5,-507"/>
<polygon fill="black" stroke="black" points="610,-507 618,-510.6 614,-507 618,-507 618,-507 618,-507 614,-507 618,-503.4 610,-507 610,-507"/>
<ellipse fill="none" stroke="black" cx="606.8" cy="-507" rx="3.2" ry="3.2"/>
</g>
<!-- chroncontrolaccuracyranks -->
<g id="node4" class="node">
<title>chroncontrolaccuracyranks</title>
<g id="a_node4"><a xlink:href="../../tables/chroncontrolaccuracyranks.html" xlink:title="chroncontrolaccuracyranks" target="_top">
<polygon fill="#ffffff" stroke="transparent" points="359,-662 359,-742 548,-742 548,-662 359,-662"/>
<polygon fill="#f5f5f5" stroke="transparent" points="359.5,-720 359.5,-742 548.5,-742 548.5,-720 359.5,-720"/>
<polygon fill="none" stroke="black" points="359.5,-720 359.5,-742 548.5,-742 548.5,-720 359.5,-720"/>
<text text-anchor="start" x="364.5" y="-729.2" font-family="Helvetica,sans-Serif" font-weight="bold" font-size="11.00">chroncontrolaccuracyranks</text>
<text text-anchor="start" x="513.5" y="-728.2" font-family="Helvetica,sans-Serif" font-size="11.00">[table]</text>
<polygon fill="none" stroke="black" points="359.5,-698 359.5,-720 548.5,-720 548.5,-698 359.5,-698"/>
<image xlink:href="../../images/primaryKeys.png" width="11px" height="12px" preserveAspectRatio="xMinYMin meet" x="364.5" y="-715"/>
<text text-anchor="start" x="381.5" y="-706.2" font-family="Helvetica,sans-Serif" font-size="11.00">accuracyrankid</text>
<polygon fill="none" stroke="black" points="359.5,-680 359.5,-698 548.5,-698 548.5,-680 359.5,-680"/>
<text text-anchor="start" x="362.5" y="-686.2" font-family="Helvetica,sans-Serif" font-size="11.00">...</text>
<polygon fill="#ffffff" stroke="transparent" points="359.5,-662 359.5,-680 429.5,-680 429.5,-662 359.5,-662"/>
<polygon fill="none" stroke="black" points="359.5,-662 359.5,-680 429.5,-680 429.5,-662 359.5,-662"/>
<text text-anchor="start" x="362.5" y="-668.2" font-family="Helvetica,sans-Serif" font-size="11.00"> &#160;</text>
<polygon fill="#ffffff" stroke="transparent" points="429.5,-662 429.5,-680 497.5,-680 497.5,-662 429.5,-662"/>
<polygon fill="none" stroke="black" points="429.5,-662 429.5,-680 497.5,-680 497.5,-662 429.5,-662"/>
<text text-anchor="start" x="461.5" y="-668.2" font-family="Helvetica,sans-Serif" font-size="11.00">8 rows</text>
<polygon fill="#ffffff" stroke="transparent" points="497.5,-662 497.5,-680 548.5,-680 548.5,-662 497.5,-662"/>
<polygon fill="none" stroke="black" points="497.5,-662 497.5,-680 548.5,-680 548.5,-662 497.5,-662"/>
<text text-anchor="start" x="529.5" y="-668.2" font-family="Helvetica,sans-Serif" font-size="11.00">1 &gt;</text>
</a>
</g>
</g>
<!-- chroncontrolranks&#45;&gt;chroncontrolaccuracyranks -->
<g id="edge3" class="edge">
<title>chroncontrolranks:w&#45;&gt;chroncontrolaccuracyranks:e</title>
<path fill="none" stroke="black" d="M603.49,-553.48C553.13,-573.58 620.36,-709 549.5,-709"/>
<polygon fill="black" stroke="black" points="610.11,-552.35 618.61,-554.55 614.06,-551.67 618,-551 618,-551 618,-551 614.06,-551.67 617.39,-547.45 610.11,-552.35 610.11,-552.35"/>
<ellipse fill="none" stroke="black" cx="606.96" cy="-552.89" rx="3.2" ry="3.2"/>
</g>
<!-- chroncontrols -->
<g id="node5" class="node">
<title>chroncontrols</title>
<g id="a_node5"><a xlink:href="../../tables/chroncontrols.html" xlink:title="chroncontrols" target="_top">
<polygon fill="#ffffff" stroke="transparent" points="385,-104 385,-338 522,-338 522,-104 385,-104"/>
<polygon fill="#f5f5f5" stroke="transparent" points="385.5,-316 385.5,-338 522.5,-338 522.5,-316 385.5,-316"/>
<polygon fill="none" stroke="black" points="385.5,-316 385.5,-338 522.5,-338 522.5,-316 385.5,-316"/>
<text text-anchor="start" x="390.5" y="-325.2" font-family="Helvetica,sans-Serif" font-weight="bold" font-size="11.00">chroncontrols</text>
<text text-anchor="start" x="487.5" y="-324.2" font-family="Helvetica,sans-Serif" font-size="11.00">[table]</text>
<polygon fill="none" stroke="black" points="385.5,-294 385.5,-316 522.5,-316 522.5,-294 385.5,-294"/>
<image xlink:href="../../images/primaryKeys.png" width="11px" height="12px" preserveAspectRatio="xMinYMin meet" x="390.5" y="-311"/>
<text text-anchor="start" x="405.5" y="-302.2" font-family="Helvetica,sans-Serif" font-size="11.00">chroncontrolid</text>
<polygon fill="none" stroke="black" points="385.5,-272 385.5,-294 522.5,-294 522.5,-272 385.5,-272"/>
<image xlink:href="../../images/foreignKeys.png" width="11px" height="12px" preserveAspectRatio="xMinYMin meet" x="390.5" y="-289"/>
<text text-anchor="start" x="405.5" y="-280.2" font-family="Helvetica,sans-Serif" font-size="11.00">chronologyid</text>
<polygon fill="none" stroke="black" points="385.5,-250 385.5,-272 522.5,-272 522.5,-250 385.5,-250"/>
<image xlink:href="../../images/foreignKeys.png" width="11px" height="12px" preserveAspectRatio="xMinYMin meet" x="390.5" y="-267"/>
<text text-anchor="start" x="405.5" y="-258.2" font-family="Helvetica,sans-Serif" font-size="11.00">chroncontroltypeid</text>
<polygon fill="#ffffff" stroke="transparent" points="385.5,-228 385.5,-250 522.5,-250 522.5,-228 385.5,-228"/>
<polygon fill="none" stroke="black" points="385.5,-228 385.5,-250 522.5,-250 522.5,-228 385.5,-228"/>
<text text-anchor="start" x="405.5" y="-236.2" font-family="Helvetica,sans-Serif" font-size="11.00">age</text>
<polygon fill="#ffffff" stroke="transparent" points="385.5,-206 385.5,-228 522.5,-228 522.5,-206 385.5,-206"/>
<polygon fill="none" stroke="black" points="385.5,-206 385.5,-228 522.5,-228 522.5,-206 385.5,-206"/>
<text text-anchor="start" x="405.5" y="-214.2" font-family="Helvetica,sans-Serif" font-size="11.00">agelimityounger</text>
<polygon fill="#ffffff" stroke="transparent" points="385.5,-184 385.5,-206 522.5,-206 522.5,-184 385.5,-184"/>
<polygon fill="none" stroke="black" points="385.5,-184 385.5,-206 522.5,-206 522.5,-184 385.5,-184"/>
<text text-anchor="start" x="405.5" y="-192.2" font-family="Helvetica,sans-Serif" font-size="11.00">agelimitolder</text>
<polygon fill="none" stroke="black" points="385.5,-162 385.5,-184 522.5,-184 522.5,-162 385.5,-162"/>
<image xlink:href="../../images/foreignKeys.png" width="11px" height="12px" preserveAspectRatio="xMinYMin meet" x="390.5" y="-179"/>
<text text-anchor="start" x="405.5" y="-170.2" font-family="Helvetica,sans-Serif" font-size="11.00">analysisunitid</text>
<polygon fill="none" stroke="black" points="385.5,-140 385.5,-162 522.5,-162 522.5,-140 385.5,-140"/>
<image xlink:href="../../images/foreignKeys.png" width="11px" height="12px" preserveAspectRatio="xMinYMin meet" x="390.5" y="-157"/>
<text text-anchor="start" x="405.5" y="-148.2" font-family="Helvetica,sans-Serif" font-size="11.00">agetypeid</text>
<polygon fill="none" stroke="black" points="385.5,-122 385.5,-140 522.5,-140 522.5,-122 385.5,-122"/>
<text text-anchor="start" x="388.5" y="-128.2" font-family="Helvetica,sans-Serif" font-size="11.00">...</text>
<polygon fill="#ffffff" stroke="transparent" points="385.5,-104 385.5,-122 417.5,-122 417.5,-104 385.5,-104"/>
<polygon fill="none" stroke="black" points="385.5,-104 385.5,-122 417.5,-122 417.5,-104 385.5,-104"/>
<text text-anchor="start" x="388.5" y="-110.2" font-family="Helvetica,sans-Serif" font-size="11.00">&lt; 4</text>
<polygon fill="#ffffff" stroke="transparent" points="417.5,-104 417.5,-122 494.5,-122 494.5,-104 417.5,-104"/>
<polygon fill="none" stroke="black" points="417.5,-104 417.5,-122 494.5,-122 494.5,-104 417.5,-104"/>
<text text-anchor="start" x="425.5" y="-110.2" font-family="Helvetica,sans-Serif" font-size="11.00">100,724 rows</text>
<polygon fill="#ffffff" stroke="transparent" points="494.5,-104 494.5,-122 522.5,-122 522.5,-104 494.5,-104"/>
<polygon fill="none" stroke="black" points="494.5,-104 494.5,-122 522.5,-122 522.5,-104 494.5,-104"/>
<text text-anchor="start" x="503.5" y="-110.2" font-family="Helvetica,sans-Serif" font-size="11.00">5 &gt;</text>
</a>
</g>
</g>
<!-- chroncontrolranks&#45;&gt;chroncontrols -->
<g id="edge4" class="edge">
<title>chroncontrolranks:w&#45;&gt;chroncontrols:e</title>
<path fill="none" stroke="black" d="M604.64,-567.36C573.91,-536.49 598.88,-388.1 576,-349 560.63,-322.72 553.94,-305 523.5,-305"/>
<polygon fill="black" stroke="black" points="610.63,-569.89 616.6,-576.32 614.32,-571.44 618,-573 618,-573 618,-573 614.32,-571.44 619.4,-569.68 610.63,-569.89 610.63,-569.89"/>
<ellipse fill="none" stroke="black" cx="607.68" cy="-568.64" rx="3.2" ry="3.2"/>
</g>
<!-- chroncontrolprecisionranks -->
<g id="node6" class="node">
<title>chroncontrolprecisionranks</title>
<g id="a_node6"><a xlink:href="../../tables/chroncontrolprecisionranks.html" xlink:title="chroncontrolprecisionranks" target="_top">
<polygon fill="#ffffff" stroke="transparent" points="358,-359 358,-439 549,-439 549,-359 358,-359"/>
<polygon fill="#f5f5f5" stroke="transparent" points="358.5,-417 358.5,-439 549.5,-439 549.5,-417 358.5,-417"/>
<polygon fill="none" stroke="black" points="358.5,-417 358.5,-439 549.5,-439 549.5,-417 358.5,-417"/>
<text text-anchor="start" x="363.5" y="-426.2" font-family="Helvetica,sans-Serif" font-weight="bold" font-size="11.00">chroncontrolprecisionranks</text>
<text text-anchor="start" x="514.5" y="-425.2" font-family="Helvetica,sans-Serif" font-size="11.00">[table]</text>
<polygon fill="none" stroke="black" points="358.5,-395 358.5,-417 549.5,-417 549.5,-395 358.5,-395"/>
<image xlink:href="../../images/primaryKeys.png" width="11px" height="12px" preserveAspectRatio="xMinYMin meet" x="363.5" y="-412"/>
<text text-anchor="start" x="380.5" y="-403.2" font-family="Helvetica,sans-Serif" font-size="11.00">precisionrankid</text>
<polygon fill="none" stroke="black" points="358.5,-377 358.5,-395 549.5,-395 549.5,-377 358.5,-377"/>
<text text-anchor="start" x="361.5" y="-383.2" font-family="Helvetica,sans-Serif" font-size="11.00">...</text>
<polygon fill="#ffffff" stroke="transparent" points="358.5,-359 358.5,-377 429.5,-377 429.5,-359 358.5,-359"/>
<polygon fill="none" stroke="black" points="358.5,-359 358.5,-377 429.5,-377 429.5,-359 358.5,-359"/>
<text text-anchor="start" x="361.5" y="-365.2" font-family="Helvetica,sans-Serif" font-size="11.00"> &#160;</text>
<polygon fill="#ffffff" stroke="transparent" points="429.5,-359 429.5,-377 497.5,-377 497.5,-359 429.5,-359"/>
<polygon fill="none" stroke="black" points="429.5,-359 429.5,-377 497.5,-377 497.5,-359 429.5,-359"/>
<text text-anchor="start" x="461.5" y="-365.2" font-family="Helvetica,sans-Serif" font-size="11.00">8 rows</text>
<polygon fill="#ffffff" stroke="transparent" points="497.5,-359 497.5,-377 549.5,-377 549.5,-359 497.5,-359"/>
<polygon fill="none" stroke="black" points="497.5,-359 497.5,-377 549.5,-377 549.5,-359 497.5,-359"/>
<text text-anchor="start" x="530.5" y="-365.2" font-family="Helvetica,sans-Serif" font-size="11.00">1 &gt;</text>
</a>
</g>
</g>
<!-- chroncontrolranks&#45;&gt;chroncontrolprecisionranks -->
<g id="edge5" class="edge">
<title>chroncontrolranks:w&#45;&gt;chroncontrolprecisionranks:e</title>
<path fill="none" stroke="black" d="M603.73,-481.61C576.92,-466.48 590.91,-406 550.5,-406"/>
<polygon fill="black" stroke="black" points="610.22,-483.15 617.17,-488.5 614.11,-484.07 618,-485 618,-485 618,-485 614.11,-484.07 618.83,-481.5 610.22,-483.15 610.22,-483.15"/>
<ellipse fill="none" stroke="black" cx="607.1" cy="-482.41" rx="3.2" ry="3.2"/>
</g>
<!-- agetypes -->
<g id="node7" class="node">
<title>agetypes</title>
<g id="a_node7"><a xlink:href="../../tables/agetypes.html" xlink:title="agetypes" target="_top">
<polygon fill="#ffffff" stroke="transparent" points="8,-190 8,-248 100,-248 100,-190 8,-190"/>
<polygon fill="#f5f5f5" stroke="transparent" points="8,-226 8,-248 100,-248 100,-226 8,-226"/>
<polygon fill="none" stroke="black" points="8,-226 8,-248 100,-248 100,-226 8,-226"/>
<text text-anchor="start" x="13" y="-235.2" font-family="Helvetica,sans-Serif" font-weight="bold" font-size="11.00">agetypes</text>
<text text-anchor="start" x="65" y="-234.2" font-family="Helvetica,sans-Serif" font-size="11.00">[table]</text>
<polygon fill="none" stroke="black" points="8,-208 8,-226 100,-226 100,-208 8,-208"/>
<text text-anchor="start" x="11" y="-214.2" font-family="Helvetica,sans-Serif" font-size="11.00">...</text>
<polygon fill="#ffffff" stroke="transparent" points="8,-190 8,-208 30,-208 30,-190 8,-190"/>
<polygon fill="none" stroke="black" points="8,-190 8,-208 30,-208 30,-190 8,-190"/>
<text text-anchor="start" x="11" y="-196.2" font-family="Helvetica,sans-Serif" font-size="11.00"> &#160;</text>
<polygon fill="#ffffff" stroke="transparent" points="30,-190 30,-208 73,-208 73,-190 30,-190"/>
<polygon fill="none" stroke="black" points="30,-190 30,-208 73,-208 73,-190 30,-190"/>
<text text-anchor="start" x="37" y="-196.2" font-family="Helvetica,sans-Serif" font-size="11.00">5 rows</text>
<polygon fill="#ffffff" stroke="transparent" points="73,-190 73,-208 100,-208 100,-190 73,-190"/>
<polygon fill="none" stroke="black" points="73,-190 73,-208 100,-208 100,-190 73,-190"/>
<text text-anchor="start" x="81" y="-196.2" font-family="Helvetica,sans-Serif" font-size="11.00">4 &gt;</text>
</a>
</g>
</g>
<!-- chroncontrols&#45;&gt;agetypes -->
<g id="edge6" class="edge">
<title>chroncontrols:w&#45;&gt;agetypes:e</title>
<path fill="none" stroke="black" d="M369.99,-150.8C272.35,-148.04 232.74,-119.14 141,-167 115.77,-180.16 129.46,-217 101,-217"/>
<polygon fill="black" stroke="black" points="376.5,-150.89 384.45,-154.6 380.5,-150.94 384.5,-151 384.5,-151 384.5,-151 380.5,-150.94 384.55,-147.4 376.5,-150.89 376.5,-150.89"/>
<ellipse fill="none" stroke="black" cx="373.3" cy="-150.84" rx="3.2" ry="3.2"/>
</g>
<!-- analysisunits -->
<g id="node8" class="node">
<title>analysisunits</title>
<g id="a_node8"><a xlink:href="../../tables/analysisunits.html" xlink:title="analysisunits" target="_top">
<polygon fill="#ffffff" stroke="transparent" points="161.5,-53 161.5,-111 277.5,-111 277.5,-53 161.5,-53"/>
<polygon fill="#f5f5f5" stroke="transparent" points="161.5,-89 161.5,-111 277.5,-111 277.5,-89 161.5,-89"/>
<polygon fill="none" stroke="black" points="161.5,-89 161.5,-111 277.5,-111 277.5,-89 161.5,-89"/>
<text text-anchor="start" x="166.5" y="-98.2" font-family="Helvetica,sans-Serif" font-weight="bold" font-size="11.00">analysisunits</text>
<text text-anchor="start" x="242.5" y="-97.2" font-family="Helvetica,sans-Serif" font-size="11.00">[table]</text>
<polygon fill="none" stroke="black" points="161.5,-71 161.5,-89 277.5,-89 277.5,-71 161.5,-71"/>
<text text-anchor="start" x="164.5" y="-77.2" font-family="Helvetica,sans-Serif" font-size="11.00">...</text>
<polygon fill="#ffffff" stroke="transparent" points="161.5,-53 161.5,-71 183.5,-71 183.5,-53 161.5,-53"/>
<polygon fill="none" stroke="black" points="161.5,-53 161.5,-71 183.5,-71 183.5,-53 161.5,-53"/>
<text text-anchor="start" x="164.5" y="-59.2" font-family="Helvetica,sans-Serif" font-size="11.00">&lt; 2</text>
<polygon fill="#ffffff" stroke="transparent" points="183.5,-53 183.5,-71 255.5,-71 255.5,-53 183.5,-53"/>
<polygon fill="none" stroke="black" points="183.5,-53 183.5,-71 255.5,-71 255.5,-53 183.5,-53"/>
<text text-anchor="start" x="186.5" y="-59.2" font-family="Helvetica,sans-Serif" font-size="11.00">449,200 rows</text>
<polygon fill="#ffffff" stroke="transparent" points="255.5,-53 255.5,-71 277.5,-71 277.5,-53 255.5,-53"/>
<polygon fill="none" stroke="black" points="255.5,-53 255.5,-71 277.5,-71 277.5,-53 255.5,-53"/>
<text text-anchor="start" x="258.5" y="-59.2" font-family="Helvetica,sans-Serif" font-size="11.00">9 &gt;</text>
</a>
</g>
</g>
<!-- chroncontrols&#45;&gt;analysisunits -->
<g id="edge7" class="edge">
<title>chroncontrols:w&#45;&gt;analysisunits:e</title>
<path fill="none" stroke="black" d="M370.06,-171.06C324.55,-157.7 335.79,-80 278.5,-80"/>
<polygon fill="black" stroke="black" points="376.57,-171.93 384.02,-176.57 380.54,-172.47 384.5,-173 384.5,-173 384.5,-173 380.54,-172.47 384.98,-169.43 376.57,-171.93 376.57,-171.93"/>
<ellipse fill="none" stroke="black" cx="373.4" cy="-171.51" rx="3.2" ry="3.2"/>
</g>
<!-- chroncontroltypes -->
<g id="node9" class="node">
<title>chroncontroltypes</title>
<g id="a_node9"><a xlink:href="../../tables/chroncontroltypes.html" xlink:title="chroncontroltypes" target="_top">
<polygon fill="#ffffff" stroke="transparent" points="149,-177 149,-235 290,-235 290,-177 149,-177"/>
<polygon fill="#f5f5f5" stroke="transparent" points="149.5,-213 149.5,-235 290.5,-235 290.5,-213 149.5,-213"/>
<polygon fill="none" stroke="black" points="149.5,-213 149.5,-235 290.5,-235 290.5,-213 149.5,-213"/>
<text text-anchor="start" x="154.5" y="-222.2" font-family="Helvetica,sans-Serif" font-weight="bold" font-size="11.00">chroncontroltypes</text>
<text text-anchor="start" x="255.5" y="-221.2" font-family="Helvetica,sans-Serif" font-size="11.00">[table]</text>
<polygon fill="none" stroke="black" points="149.5,-195 149.5,-213 290.5,-213 290.5,-195 149.5,-195"/>
<text text-anchor="start" x="152.5" y="-201.2" font-family="Helvetica,sans-Serif" font-size="11.00">...</text>
<polygon fill="#ffffff" stroke="transparent" points="149.5,-177 149.5,-195 197.5,-195 197.5,-177 149.5,-177"/>
<polygon fill="none" stroke="black" points="149.5,-177 149.5,-195 197.5,-195 197.5,-177 149.5,-177"/>
<text text-anchor="start" x="152.5" y="-183.2" font-family="Helvetica,sans-Serif" font-size="11.00">&lt; 1</text>
<polygon fill="#ffffff" stroke="transparent" points="197.5,-177 197.5,-195 255.5,-195 255.5,-177 197.5,-177"/>
<polygon fill="none" stroke="black" points="197.5,-177 197.5,-195 255.5,-195 255.5,-177 197.5,-177"/>
<text text-anchor="start" x="213.5" y="-183.2" font-family="Helvetica,sans-Serif" font-size="11.00">99 rows</text>
<polygon fill="#ffffff" stroke="transparent" points="255.5,-177 255.5,-195 290.5,-195 290.5,-177 255.5,-177"/>
<polygon fill="none" stroke="black" points="255.5,-177 255.5,-195 290.5,-195 290.5,-177 255.5,-177"/>
<text text-anchor="start" x="271.5" y="-183.2" font-family="Helvetica,sans-Serif" font-size="11.00">3 &gt;</text>
</a>
</g>
</g>
<!-- chroncontrols&#45;&gt;chroncontroltypes -->
<g id="edge8" class="edge">
<title>chroncontrols:w&#45;&gt;chroncontroltypes:e</title>
<path fill="none" stroke="black" d="M369.89,-258.97C336.24,-248.82 334.49,-204 291.5,-204"/>
<polygon fill="black" stroke="black" points="376.58,-259.9 384,-264.57 380.54,-260.45 384.5,-261 384.5,-261 384.5,-261 380.54,-260.45 385,-257.43 376.58,-259.9 376.58,-259.9"/>
<ellipse fill="none" stroke="black" cx="373.41" cy="-259.46" rx="3.2" ry="3.2"/>
</g>
<!-- chronologies -->
<g id="node10" class="node">
<title>chronologies</title>
<g id="a_node10"><a xlink:href="../../tables/chronologies.html" xlink:title="chronologies" target="_top">
<polygon fill="#ffffff" stroke="transparent" points="162.5,-256 162.5,-314 276.5,-314 276.5,-256 162.5,-256"/>
<polygon fill="#f5f5f5" stroke="transparent" points="162.5,-292 162.5,-314 276.5,-314 276.5,-292 162.5,-292"/>
<polygon fill="none" stroke="black" points="162.5,-292 162.5,-314 276.5,-314 276.5,-292 162.5,-292"/>
<text text-anchor="start" x="167.5" y="-301.2" font-family="Helvetica,sans-Serif" font-weight="bold" font-size="11.00">chronologies</text>
<text text-anchor="start" x="241.5" y="-300.2" font-family="Helvetica,sans-Serif" font-size="11.00">[table]</text>
<polygon fill="none" stroke="black" points="162.5,-274 162.5,-292 276.5,-292 276.5,-274 162.5,-274"/>
<text text-anchor="start" x="165.5" y="-280.2" font-family="Helvetica,sans-Serif" font-size="11.00">...</text>
<polygon fill="#ffffff" stroke="transparent" points="162.5,-256 162.5,-274 186.5,-274 186.5,-256 162.5,-256"/>
<polygon fill="none" stroke="black" points="162.5,-256 162.5,-274 186.5,-274 186.5,-256 162.5,-256"/>
<text text-anchor="start" x="165.5" y="-262.2" font-family="Helvetica,sans-Serif" font-size="11.00">&lt; 3</text>
<polygon fill="#ffffff" stroke="transparent" points="186.5,-256 186.5,-274 253.5,-274 253.5,-256 186.5,-256"/>
<polygon fill="none" stroke="black" points="186.5,-256 186.5,-274 253.5,-274 253.5,-256 186.5,-256"/>
<text text-anchor="start" x="190.5" y="-262.2" font-family="Helvetica,sans-Serif" font-size="11.00">31,133 rows</text>
<polygon fill="#ffffff" stroke="transparent" points="253.5,-256 253.5,-274 276.5,-274 276.5,-256 253.5,-256"/>
<polygon fill="none" stroke="black" points="253.5,-256 253.5,-274 276.5,-274 276.5,-256 253.5,-256"/>
<text text-anchor="start" x="257.5" y="-262.2" font-family="Helvetica,sans-Serif" font-size="11.00">3 &gt;</text>
</a>
</g>
</g>
<!-- chroncontrols&#45;&gt;chronologies -->
<g id="edge9" class="edge">
<title>chroncontrols:w&#45;&gt;chronologies:e</title>
<path fill="none" stroke="black" d="M370.08,-283C333.92,-283 319.85,-283 277.5,-283"/>
<polygon fill="black" stroke="black" points="376.5,-283 384.5,-286.6 380.5,-283 384.5,-283 384.5,-283 384.5,-283 380.5,-283 384.5,-279.4 376.5,-283 376.5,-283"/>
<ellipse fill="none" stroke="black" cx="373.3" cy="-283" rx="3.2" ry="3.2"/>
</g>
<!-- chronologies&#45;&gt;agetypes -->
<g id="edge11" class="edge">
<title>chronologies:w&#45;&gt;agetypes:e</title>
<path fill="none" stroke="black" d="M147.58,-279.26C125.99,-265.3 135.04,-217 101,-217"/>
<polygon fill="black" stroke="black" points="153.77,-280.93 160.57,-286.48 157.64,-281.96 161.5,-283 161.5,-283 161.5,-283 157.64,-281.96 162.43,-279.52 153.77,-280.93 153.77,-280.93"/>
<ellipse fill="none" stroke="black" cx="150.68" cy="-280.1" rx="3.2" ry="3.2"/>
</g>
<!-- chroncontrolscal14c -->
<g id="node11" class="node">
<title>chroncontrolscal14c</title>
<g id="a_node11"><a xlink:href="../../tables/chroncontrolscal14c.html" xlink:title="chroncontrolscal14c" target="_top">
<polygon fill="#ffffff" stroke="transparent" points="658,-224 658,-282 810,-282 810,-224 658,-224"/>
<polygon fill="#f5f5f5" stroke="transparent" points="658,-260 658,-282 810,-282 810,-260 658,-260"/>
<polygon fill="none" stroke="black" points="658,-260 658,-282 810,-282 810,-260 658,-260"/>
<text text-anchor="start" x="663" y="-269.2" font-family="Helvetica,sans-Serif" font-weight="bold" font-size="11.00">chroncontrolscal14c</text>
<text text-anchor="start" x="775" y="-268.2" font-family="Helvetica,sans-Serif" font-size="11.00">[table]</text>
<polygon fill="none" stroke="black" points="658,-242 658,-260 810,-260 810,-242 658,-242"/>
<text text-anchor="start" x="661" y="-248.2" font-family="Helvetica,sans-Serif" font-size="11.00">...</text>
<polygon fill="#ffffff" stroke="transparent" points="658,-224 658,-242 708,-242 708,-224 658,-224"/>
<polygon fill="none" stroke="black" points="658,-224 658,-242 708,-242 708,-224 658,-224"/>
<text text-anchor="start" x="661" y="-230.2" font-family="Helvetica,sans-Serif" font-size="11.00">&lt; 3</text>
<polygon fill="#ffffff" stroke="transparent" points="708,-224 708,-242 782,-242 782,-224 708,-224"/>
<polygon fill="none" stroke="black" points="708,-224 708,-242 782,-242 782,-224 708,-224"/>
<text text-anchor="start" x="725" y="-230.2" font-family="Helvetica,sans-Serif" font-size="11.00">6,591 rows</text>
<polygon fill="#ffffff" stroke="transparent" points="782,-224 782,-242 810,-242 810,-224 782,-224"/>
<polygon fill="none" stroke="black" points="782,-224 782,-242 810,-242 810,-224 782,-224"/>
<text text-anchor="start" x="800" y="-230.2" font-family="Helvetica,sans-Serif" font-size="11.00"> &#160;</text>
</a>
</g>
</g>
<!-- chroncontrolscal14c&#45;&gt;chroncontrols -->
<g id="edge10" class="edge">
<title>chroncontrolscal14c:w&#45;&gt;chroncontrols:e</title>
<path fill="none" stroke="black" d="M646.33,-251.53C592.15,-257.14 583.75,-305 523.5,-305"/>
<polygon fill="black" stroke="black" points="656,-247.05 656.4,-255.04 654.8,-255.12 654.4,-247.13 656,-247.05"/>
<polyline fill="none" stroke="black" points="657,-251 653.01,-251.2 "/>
<ellipse fill="none" stroke="black" cx="649.81" cy="-251.36" rx="3.2" ry="3.2"/>
</g>
<!-- eventchronology -->
<g id="node12" class="node">
<title>eventchronology</title>
<g id="a_node12"><a xlink:href="../../tables/eventchronology.html" xlink:title="eventchronology" target="_top">
<polygon fill="#ffffff" stroke="transparent" points="667.5,-37 667.5,-95 800.5,-95 800.5,-37 667.5,-37"/>
<polygon fill="#f5f5f5" stroke="transparent" points="668,-73 668,-95 801,-95 801,-73 668,-73"/>
<polygon fill="none" stroke="black" points="668,-73 668,-95 801,-95 801,-73 668,-73"/>
<text text-anchor="start" x="673" y="-82.2" font-family="Helvetica,sans-Serif" font-weight="bold" font-size="11.00">eventchronology</text>
<text text-anchor="start" x="766" y="-81.2" font-family="Helvetica,sans-Serif" font-size="11.00">[table]</text>
<polygon fill="none" stroke="black" points="668,-55 668,-73 801,-73 801,-55 668,-55"/>
<text text-anchor="start" x="671" y="-61.2" font-family="Helvetica,sans-Serif" font-size="11.00">...</text>
<polygon fill="#ffffff" stroke="transparent" points="668,-37 668,-55 713,-55 713,-37 668,-37"/>
<polygon fill="none" stroke="black" points="668,-37 668,-55 713,-55 713,-37 668,-37"/>
<text text-anchor="start" x="671" y="-43.2" font-family="Helvetica,sans-Serif" font-size="11.00">&lt; 3</text>
<polygon fill="#ffffff" stroke="transparent" points="713,-37 713,-55 776,-55 776,-37 713,-37"/>
<polygon fill="none" stroke="black" points="713,-37 713,-55 776,-55 776,-37 713,-37"/>
<text text-anchor="start" x="728" y="-43.2" font-family="Helvetica,sans-Serif" font-size="11.00">271 rows</text>
<polygon fill="#ffffff" stroke="transparent" points="776,-37 776,-55 801,-55 801,-37 776,-37"/>
<polygon fill="none" stroke="black" points="776,-37 776,-55 801,-55 801,-37 776,-37"/>
<text text-anchor="start" x="791" y="-43.2" font-family="Helvetica,sans-Serif" font-size="11.00"> &#160;</text>
</a>
</g>
</g>
<!-- eventchronology&#45;&gt;chroncontrols -->
<g id="edge13" class="edge">
<title>eventchronology:w&#45;&gt;chroncontrols:e</title>
<path fill="none" stroke="black" d="M652.48,-65.24C550.82,-83.82 642.93,-305 523.5,-305"/>
<polygon fill="black" stroke="black" points="659.03,-64.68 667.31,-67.59 663.01,-64.34 667,-64 667,-64 667,-64 663.01,-64.34 666.69,-60.41 659.03,-64.68 659.03,-64.68"/>
<ellipse fill="none" stroke="black" cx="655.84" cy="-64.95" rx="3.2" ry="3.2"/>
</g>
<!-- eventchronology&#45;&gt;analysisunits -->
<g id="edge12" class="edge">
<title>eventchronology:w&#45;&gt;analysisunits:e</title>
<path fill="none" stroke="black" d="M652.48,-63.97C514.99,-63.41 474.63,-55.15 331,-70 307.37,-72.44 302.25,-80 278.5,-80"/>
<polygon fill="black" stroke="black" points="659,-63.98 666.99,-67.6 663,-63.99 667,-64 667,-64 667,-64 663,-63.99 667.01,-60.4 659,-63.98 659,-63.98"/>
<ellipse fill="none" stroke="black" cx="655.8" cy="-63.98" rx="3.2" ry="3.2"/>
</g>
<!-- geochroncontrols -->
<g id="node13" class="node">
<title>geochroncontrols</title>
<g id="a_node13"><a xlink:href="../../tables/geochroncontrols.html" xlink:title="geochroncontrols" target="_top">
<polygon fill="#ffffff" stroke="transparent" points="665,-303 665,-361 803,-361 803,-303 665,-303"/>
<polygon fill="#f5f5f5" stroke="transparent" points="665,-339 665,-361 803,-361 803,-339 665,-339"/>
<polygon fill="none" stroke="black" points="665,-339 665,-361 803,-361 803,-339 665,-339"/>
<text text-anchor="start" x="670" y="-348.2" font-family="Helvetica,sans-Serif" font-weight="bold" font-size="11.00">geochroncontrols</text>
<text text-anchor="start" x="768" y="-347.2" font-family="Helvetica,sans-Serif" font-size="11.00">[table]</text>
<polygon fill="none" stroke="black" points="665,-321 665,-339 803,-339 803,-321 665,-321"/>
<text text-anchor="start" x="668" y="-327.2" font-family="Helvetica,sans-Serif" font-size="11.00">...</text>
<polygon fill="#ffffff" stroke="transparent" points="665,-303 665,-321 705,-321 705,-303 665,-303"/>
<polygon fill="none" stroke="black" points="665,-303 665,-321 705,-321 705,-303 665,-303"/>
<text text-anchor="start" x="668" y="-309.2" font-family="Helvetica,sans-Serif" font-size="11.00">&lt; 2</text>
<polygon fill="#ffffff" stroke="transparent" points="705,-303 705,-321 780,-321 780,-303 705,-303"/>
<polygon fill="none" stroke="black" points="705,-303 705,-321 780,-321 780,-303 705,-303"/>
<text text-anchor="start" x="717" y="-309.2" font-family="Helvetica,sans-Serif" font-size="11.00">42,293 rows</text>
<polygon fill="#ffffff" stroke="transparent" points="780,-303 780,-321 803,-321 803,-303 780,-303"/>
<polygon fill="none" stroke="black" points="780,-303 780,-321 803,-321 803,-303 780,-303"/>
<text text-anchor="start" x="793" y="-309.2" font-family="Helvetica,sans-Serif" font-size="11.00"> &#160;</text>
</a>
</g>
</g>
<!-- geochroncontrols&#45;&gt;chroncontrols -->
<g id="edge14" class="edge">
<title>geochroncontrols:w&#45;&gt;chroncontrols:e</title>
<path fill="none" stroke="black" d="M649.34,-329.52C598,-326.07 581.72,-305 523.5,-305"/>
<polygon fill="black" stroke="black" points="656,-329.74 663.88,-333.6 660,-329.87 664,-330 664,-330 664,-330 660,-329.87 664.12,-326.4 656,-329.74 656,-329.74"/>
<ellipse fill="none" stroke="black" cx="652.81" cy="-329.64" rx="3.2" ry="3.2"/>
</g>
<!-- relativechronology -->
<g id="node14" class="node">
<title>relativechronology</title>
<g id="a_node14"><a xlink:href="../../tables/relativechronology.html" xlink:title="relativechronology" target="_top">
<polygon fill="#ffffff" stroke="transparent" points="662.5,-139 662.5,-197 805.5,-197 805.5,-139 662.5,-139"/>
<polygon fill="#f5f5f5" stroke="transparent" points="663,-175 663,-197 806,-197 806,-175 663,-175"/>
<polygon fill="none" stroke="black" points="663,-175 663,-197 806,-197 806,-175 663,-175"/>
<text text-anchor="start" x="668" y="-184.2" font-family="Helvetica,sans-Serif" font-weight="bold" font-size="11.00">relativechronology</text>
<text text-anchor="start" x="771" y="-183.2" font-family="Helvetica,sans-Serif" font-size="11.00">[table]</text>
<polygon fill="none" stroke="black" points="663,-157 663,-175 806,-175 806,-157 663,-157"/>
<text text-anchor="start" x="666" y="-163.2" font-family="Helvetica,sans-Serif" font-size="11.00">...</text>
<polygon fill="#ffffff" stroke="transparent" points="663,-139 663,-157 709,-157 709,-139 663,-139"/>
<polygon fill="none" stroke="black" points="663,-139 663,-157 709,-157 709,-139 663,-139"/>
<text text-anchor="start" x="666" y="-145.2" font-family="Helvetica,sans-Serif" font-size="11.00">&lt; 3</text>
<polygon fill="#ffffff" stroke="transparent" points="709,-139 709,-157 781,-157 781,-139 709,-139"/>
<polygon fill="none" stroke="black" points="709,-139 709,-157 781,-157 781,-139 709,-139"/>
<text text-anchor="start" x="724" y="-145.2" font-family="Helvetica,sans-Serif" font-size="11.00">4,625 rows</text>
<polygon fill="#ffffff" stroke="transparent" points="781,-139 781,-157 806,-157 806,-139 781,-139"/>
<polygon fill="none" stroke="black" points="781,-139 781,-157 806,-157 806,-139 781,-139"/>
<text text-anchor="start" x="796" y="-145.2" font-family="Helvetica,sans-Serif" font-size="11.00"> &#160;</text>
</a>
</g>
</g>
<!-- relativechronology&#45;&gt;chroncontrols -->
<g id="edge16" class="edge">
<title>relativechronology:w&#45;&gt;chroncontrols:e</title>
<path fill="none" stroke="black" d="M647.46,-167.47C578.69,-182.32 605.43,-305 523.5,-305"/>
<polygon fill="black" stroke="black" points="654.04,-166.8 662.36,-169.58 658.02,-166.4 662,-166 662,-166 662,-166 658.02,-166.4 661.64,-162.42 654.04,-166.8 654.04,-166.8"/>
<ellipse fill="none" stroke="black" cx="650.86" cy="-167.12" rx="3.2" ry="3.2"/>
</g>
<!-- relativechronology&#45;&gt;analysisunits -->
<g id="edge15" class="edge">
<title>relativechronology:w&#45;&gt;analysisunits:e</title>
<path fill="none" stroke="black" d="M647.65,-164.18C613.72,-154.64 617.36,-110.14 576,-94 514.34,-69.94 344.68,-80 278.5,-80"/>
<polygon fill="black" stroke="black" points="654.06,-165 661.55,-169.57 658.03,-165.5 662,-166 662,-166 662,-166 658.03,-165.5 662.45,-162.43 654.06,-165 654.06,-165"/>
<ellipse fill="none" stroke="black" cx="650.89" cy="-164.59" rx="3.2" ry="3.2"/>
</g>
</g>
</svg>
