<?xml version="1.0" encoding="UTF-8" standalone="no"?>
<!DOCTYPE svg PUBLIC "-//W3C//DTD SVG 1.1//EN"
 "http://www.w3.org/Graphics/SVG/1.1/DTD/svg11.dtd">
<!-- Generated by graphviz version 2.43.0 (0)
 -->
<!-- Title: oneDegreeRelationshipsDiagram Pages: 1 -->
<svg width="452pt" height="507pt"
 viewBox="0.00 0.00 452.00 507.00" xmlns="http://www.w3.org/2000/svg" xmlns:xlink="http://www.w3.org/1999/xlink">
<g id="graph0" class="graph" transform="scale(1 1) rotate(0) translate(4 503)">
<title>oneDegreeRelationshipsDiagram</title>
<polygon fill="#ffffff" stroke="transparent" points="-4,4 -4,-503 448,-503 448,4 -4,4"/>
<text text-anchor="middle" x="71.5" y="-7.2" font-family="Helvetica,sans-Serif" font-size="11.00">Generated by SchemaSpy</text>
<!-- chroncontrolscal14c -->
<g id="node1" class="node">
<title>chroncontrolscal14c</title>
<g id="a_node1"><a xlink:href="../../tables/chroncontrolscal14c.html" xlink:title="chroncontrolscal14c" target="_top">
<polygon fill="#ffffff" stroke="transparent" points="208,-110 208,-264 436,-264 436,-110 208,-110"/>
<polygon fill="#f5f5f5" stroke="transparent" points="210,-240 210,-262 434,-262 434,-240 210,-240"/>
<polygon fill="none" stroke="black" points="210,-240 210,-262 434,-262 434,-240 210,-240"/>
<text text-anchor="start" x="215" y="-249.2" font-family="Helvetica,sans-Serif" font-weight="bold" font-size="11.00">chroncontrolscal14c</text>
<text text-anchor="start" x="399" y="-248.2" font-family="Helvetica,sans-Serif" font-size="11.00">[table]</text>
<polygon fill="none" stroke="black" points="210,-218 210,-240 360,-240 360,-218 210,-218"/>
<image xlink:href="../../images/primaryKeys.png" width="11px" height="12px" preserveAspectRatio="xMinYMin meet" x="215" y="-235"/>
<text text-anchor="start" x="230" y="-226.2" font-family="Helvetica,sans-Serif" font-size="11.00">chroncontrolid</text>
<polygon fill="none" stroke="black" points="360,-218 360,-240 434,-240 434,-218 360,-218"/>
<text text-anchor="start" x="363" y="-226.2" font-family="Helvetica,sans-Serif" font-size="11.00">int4[10]</text>
<polygon fill="none" stroke="black" points="210,-196 210,-218 360,-218 360,-196 210,-196"/>
<image xlink:href="../../images/foreignKeys.png" width="11px" height="12px" preserveAspectRatio="xMinYMin meet" x="215" y="-213"/>
<text text-anchor="start" x="230" y="-204.2" font-family="Helvetica,sans-Serif" font-size="11.00">calibrationcurveid</text>
<polygon fill="none" stroke="black" points="360,-196 360,-218 434,-218 434,-196 360,-196"/>
<text text-anchor="start" x="363" y="-204.2" font-family="Helvetica,sans-Serif" font-size="11.00">int4[10]</text>
<polygon fill="none" stroke="black" points="210,-174 210,-196 360,-196 360,-174 210,-174"/>
<image xlink:href="../../images/foreignKeys.png" width="11px" height="12px" preserveAspectRatio="xMinYMin meet" x="215" y="-191"/>
<text text-anchor="start" x="230" y="-182.2" font-family="Helvetica,sans-Serif" font-size="11.00">calibrationprogramid</text>
<polygon fill="none" stroke="black" points="360,-174 360,-196 434,-196 434,-174 360,-174"/>
<text text-anchor="start" x="363" y="-182.2" font-family="Helvetica,sans-Serif" font-size="11.00">int4[10]</text>
<polygon fill="none" stroke="black" points="210,-152 210,-174 360,-174 360,-152 210,-152"/>
<text text-anchor="start" x="230" y="-160.2" font-family="Helvetica,sans-Serif" font-size="11.00">recdatecreated</text>
<polygon fill="none" stroke="black" points="360,-152 360,-174 434,-174 434,-152 360,-152"/>
<text text-anchor="start" x="363" y="-160.2" font-family="Helvetica,sans-Serif" font-size="11.00">timestamp[22]</text>
<polygon fill="none" stroke="black" points="210,-130 210,-152 360,-152 360,-130 210,-130"/>
<text text-anchor="start" x="230" y="-138.2" font-family="Helvetica,sans-Serif" font-size="11.00">recdatemodified</text>
<polygon fill="none" stroke="black" points="360,-130 360,-152 434,-152 434,-130 360,-130"/>
<text text-anchor="start" x="363" y="-138.2" font-family="Helvetica,sans-Serif" font-size="11.00">timestamp[22]</text>
<polygon fill="#ffffff" stroke="transparent" points="210,-112 210,-130 266,-130 266,-112 210,-112"/>
<polygon fill="none" stroke="black" points="210,-112 210,-130 266,-130 266,-112 210,-112"/>
<text text-anchor="start" x="213" y="-118.2" font-family="Helvetica,sans-Serif" font-size="11.00">&lt; 3</text>
<polygon fill="#ffffff" stroke="transparent" points="266,-112 266,-130 360,-130 360,-112 266,-112"/>
<polygon fill="none" stroke="black" points="266,-112 266,-130 360,-130 360,-112 266,-112"/>
<text text-anchor="start" x="303" y="-118.2" font-family="Helvetica,sans-Serif" font-size="11.00">6,591 rows</text>
<polygon fill="#ffffff" stroke="transparent" points="360,-112 360,-130 434,-130 434,-112 360,-112"/>
<polygon fill="none" stroke="black" points="360,-112 360,-130 434,-130 434,-112 360,-112"/>
<text text-anchor="start" x="415" y="-118.2" font-family="Helvetica,sans-Serif" font-size="11.00">0 &gt;</text>
<polygon fill="none" stroke="black" stroke-width="2" points="209,-111 209,-263 435,-263 435,-111 209,-111"/>
</a>
</g>
</g>
<!-- calibrationcurves -->
<g id="node2" class="node">
<title>calibrationcurves</title>
<g id="a_node2"><a xlink:href="../../tables/calibrationcurves.html" xlink:title="calibrationcurves" target="_top">
<polygon fill="#ffffff" stroke="transparent" points="16,-138 16,-240 151,-240 151,-138 16,-138"/>
<polygon fill="#f5f5f5" stroke="transparent" points="16.5,-218 16.5,-240 151.5,-240 151.5,-218 16.5,-218"/>
<polygon fill="none" stroke="black" points="16.5,-218 16.5,-240 151.5,-240 151.5,-218 16.5,-218"/>
<text text-anchor="start" x="21.5" y="-227.2" font-family="Helvetica,sans-Serif" font-weight="bold" font-size="11.00">calibrationcurves</text>
<text text-anchor="start" x="116.5" y="-226.2" font-family="Helvetica,sans-Serif" font-size="11.00">[table]</text>
<polygon fill="none" stroke="black" points="16.5,-196 16.5,-218 151.5,-218 151.5,-196 16.5,-196"/>
<image xlink:href="../../images/primaryKeys.png" width="11px" height="12px" preserveAspectRatio="xMinYMin meet" x="21.5" y="-213"/>
<text text-anchor="start" x="39.5" y="-204.2" font-family="Helvetica,sans-Serif" font-size="11.00">calibrationcurveid</text>
<polygon fill="none" stroke="black" points="16.5,-174 16.5,-196 151.5,-196 151.5,-174 16.5,-174"/>
<image xlink:href="../../images/foreignKeys.png" width="11px" height="12px" preserveAspectRatio="xMinYMin meet" x="21.5" y="-191"/>
<text text-anchor="start" x="39.5" y="-182.2" font-family="Helvetica,sans-Serif" font-size="11.00">publicationid</text>
<polygon fill="none" stroke="black" points="16.5,-156 16.5,-174 151.5,-174 151.5,-156 16.5,-156"/>
<text text-anchor="start" x="19.5" y="-162.2" font-family="Helvetica,sans-Serif" font-size="11.00">...</text>
<polygon fill="#ffffff" stroke="transparent" points="16.5,-138 16.5,-156 61.5,-156 61.5,-138 16.5,-138"/>
<polygon fill="none" stroke="black" points="16.5,-138 16.5,-156 61.5,-156 61.5,-138 16.5,-138"/>
<text text-anchor="start" x="19.5" y="-144.2" font-family="Helvetica,sans-Serif" font-size="11.00">&lt; 1</text>
<polygon fill="#ffffff" stroke="transparent" points="61.5,-138 61.5,-156 117.5,-156 117.5,-138 61.5,-138"/>
<polygon fill="none" stroke="black" points="61.5,-138 61.5,-156 117.5,-156 117.5,-138 61.5,-138"/>
<text text-anchor="start" x="75.5" y="-144.2" font-family="Helvetica,sans-Serif" font-size="11.00">15 rows</text>
<polygon fill="#ffffff" stroke="transparent" points="117.5,-138 117.5,-156 151.5,-156 151.5,-138 117.5,-138"/>
<polygon fill="none" stroke="black" points="117.5,-138 117.5,-156 151.5,-156 151.5,-138 117.5,-138"/>
<text text-anchor="start" x="132.5" y="-144.2" font-family="Helvetica,sans-Serif" font-size="11.00">2 &gt;</text>
</a>
</g>
</g>
<!-- chroncontrolscal14c&#45;&gt;calibrationcurves -->
<g id="edge1" class="edge">
<title>chroncontrolscal14c:w&#45;&gt;calibrationcurves:e</title>
<path fill="none" stroke="black" d="M194.39,-207C180.08,-207 171.92,-207 152.5,-207"/>
<polygon fill="black" stroke="black" points="201,-207 209,-210.6 205,-207 209,-207 209,-207 209,-207 205,-207 209,-203.4 201,-207 201,-207"/>
<ellipse fill="none" stroke="black" cx="197.8" cy="-207" rx="3.2" ry="3.2"/>
</g>
<!-- calibrationprograms -->
<g id="node3" class="node">
<title>calibrationprograms</title>
<g id="a_node3"><a xlink:href="../../tables/calibrationprograms.html" xlink:title="calibrationprograms" target="_top">
<polygon fill="#ffffff" stroke="transparent" points="8,-37 8,-117 159,-117 159,-37 8,-37"/>
<polygon fill="#f5f5f5" stroke="transparent" points="8.5,-95 8.5,-117 159.5,-117 159.5,-95 8.5,-95"/>
<polygon fill="none" stroke="black" points="8.5,-95 8.5,-117 159.5,-117 159.5,-95 8.5,-95"/>
<text text-anchor="start" x="13.5" y="-104.2" font-family="Helvetica,sans-Serif" font-weight="bold" font-size="11.00">calibrationprograms</text>
<text text-anchor="start" x="124.5" y="-103.2" font-family="Helvetica,sans-Serif" font-size="11.00">[table]</text>
<polygon fill="none" stroke="black" points="8.5,-73 8.5,-95 159.5,-95 159.5,-73 8.5,-73"/>
<image xlink:href="../../images/primaryKeys.png" width="11px" height="12px" preserveAspectRatio="xMinYMin meet" x="13.5" y="-90"/>
<text text-anchor="start" x="29.5" y="-81.2" font-family="Helvetica,sans-Serif" font-size="11.00">calibrationprogramid</text>
<polygon fill="none" stroke="black" points="8.5,-55 8.5,-73 159.5,-73 159.5,-55 8.5,-55"/>
<text text-anchor="start" x="11.5" y="-61.2" font-family="Helvetica,sans-Serif" font-size="11.00">...</text>
<polygon fill="#ffffff" stroke="transparent" points="8.5,-37 8.5,-55 56.5,-55 56.5,-37 8.5,-37"/>
<polygon fill="none" stroke="black" points="8.5,-37 8.5,-55 56.5,-55 56.5,-37 8.5,-37"/>
<text text-anchor="start" x="11.5" y="-43.2" font-family="Helvetica,sans-Serif" font-size="11.00"> &#160;</text>
<polygon fill="#ffffff" stroke="transparent" points="56.5,-37 56.5,-55 119.5,-55 119.5,-37 56.5,-37"/>
<polygon fill="none" stroke="black" points="56.5,-37 56.5,-55 119.5,-55 119.5,-37 56.5,-37"/>
<text text-anchor="start" x="77.5" y="-43.2" font-family="Helvetica,sans-Serif" font-size="11.00">73 rows</text>
<polygon fill="#ffffff" stroke="transparent" points="119.5,-37 119.5,-55 159.5,-55 159.5,-37 119.5,-37"/>
<polygon fill="none" stroke="black" points="119.5,-37 119.5,-55 159.5,-55 159.5,-37 119.5,-37"/>
<text text-anchor="start" x="140.5" y="-43.2" font-family="Helvetica,sans-Serif" font-size="11.00">2 &gt;</text>
</a>
</g>
</g>
<!-- chroncontrolscal14c&#45;&gt;calibrationprograms -->
<g id="edge2" class="edge">
<title>chroncontrolscal14c:w&#45;&gt;calibrationprograms:e</title>
<path fill="none" stroke="black" d="M194.99,-180.92C170.1,-162.02 204.27,-84 160.5,-84"/>
<polygon fill="black" stroke="black" points="201.32,-182.76 207.99,-188.46 205.16,-183.88 209,-185 209,-185 209,-185 205.16,-183.88 210.01,-181.54 201.32,-182.76 201.32,-182.76"/>
<ellipse fill="none" stroke="black" cx="198.25" cy="-181.87" rx="3.2" ry="3.2"/>
</g>
<!-- chroncontrols -->
<g id="node4" class="node">
<title>chroncontrols</title>
<g id="a_node4"><a xlink:href="../../tables/chroncontrols.html" xlink:title="chroncontrols" target="_top">
<polygon fill="#ffffff" stroke="transparent" points="15,-261 15,-495 152,-495 152,-261 15,-261"/>
<polygon fill="#f5f5f5" stroke="transparent" points="15.5,-473 15.5,-495 152.5,-495 152.5,-473 15.5,-473"/>
<polygon fill="none" stroke="black" points="15.5,-473 15.5,-495 152.5,-495 152.5,-473 15.5,-473"/>
<text text-anchor="start" x="20.5" y="-482.2" font-family="Helvetica,sans-Serif" font-weight="bold" font-size="11.00">chroncontrols</text>
<text text-anchor="start" x="117.5" y="-481.2" font-family="Helvetica,sans-Serif" font-size="11.00">[table]</text>
<polygon fill="none" stroke="black" points="15.5,-451 15.5,-473 152.5,-473 152.5,-451 15.5,-451"/>
<image xlink:href="../../images/primaryKeys.png" width="11px" height="12px" preserveAspectRatio="xMinYMin meet" x="20.5" y="-468"/>
<text text-anchor="start" x="35.5" y="-459.2" font-family="Helvetica,sans-Serif" font-size="11.00">chroncontrolid</text>
<polygon fill="none" stroke="black" points="15.5,-429 15.5,-451 152.5,-451 152.5,-429 15.5,-429"/>
<image xlink:href="../../images/foreignKeys.png" width="11px" height="12px" preserveAspectRatio="xMinYMin meet" x="20.5" y="-446"/>
<text text-anchor="start" x="35.5" y="-437.2" font-family="Helvetica,sans-Serif" font-size="11.00">chronologyid</text>
<polygon fill="none" stroke="black" points="15.5,-407 15.5,-429 152.5,-429 152.5,-407 15.5,-407"/>
<image xlink:href="../../images/foreignKeys.png" width="11px" height="12px" preserveAspectRatio="xMinYMin meet" x="20.5" y="-424"/>
<text text-anchor="start" x="35.5" y="-415.2" font-family="Helvetica,sans-Serif" font-size="11.00">chroncontroltypeid</text>
<polygon fill="#ffffff" stroke="transparent" points="15.5,-385 15.5,-407 152.5,-407 152.5,-385 15.5,-385"/>
<polygon fill="none" stroke="black" points="15.5,-385 15.5,-407 152.5,-407 152.5,-385 15.5,-385"/>
<text text-anchor="start" x="35.5" y="-393.2" font-family="Helvetica,sans-Serif" font-size="11.00">age</text>
<polygon fill="#ffffff" stroke="transparent" points="15.5,-363 15.5,-385 152.5,-385 152.5,-363 15.5,-363"/>
<polygon fill="none" stroke="black" points="15.5,-363 15.5,-385 152.5,-385 152.5,-363 15.5,-363"/>
<text text-anchor="start" x="35.5" y="-371.2" font-family="Helvetica,sans-Serif" font-size="11.00">agelimityounger</text>
<polygon fill="#ffffff" stroke="transparent" points="15.5,-341 15.5,-363 152.5,-363 152.5,-341 15.5,-341"/>
<polygon fill="none" stroke="black" points="15.5,-341 15.5,-363 152.5,-363 152.5,-341 15.5,-341"/>
<text text-anchor="start" x="35.5" y="-349.2" font-family="Helvetica,sans-Serif" font-size="11.00">agelimitolder</text>
<polygon fill="none" stroke="black" points="15.5,-319 15.5,-341 152.5,-341 152.5,-319 15.5,-319"/>
<image xlink:href="../../images/foreignKeys.png" width="11px" height="12px" preserveAspectRatio="xMinYMin meet" x="20.5" y="-336"/>
<text text-anchor="start" x="35.5" y="-327.2" font-family="Helvetica,sans-Serif" font-size="11.00">analysisunitid</text>
<polygon fill="none" stroke="black" points="15.5,-297 15.5,-319 152.5,-319 152.5,-297 15.5,-297"/>
<image xlink:href="../../images/foreignKeys.png" width="11px" height="12px" preserveAspectRatio="xMinYMin meet" x="20.5" y="-314"/>
<text text-anchor="start" x="35.5" y="-305.2" font-family="Helvetica,sans-Serif" font-size="11.00">agetypeid</text>
<polygon fill="none" stroke="black" points="15.5,-279 15.5,-297 152.5,-297 152.5,-279 15.5,-279"/>
<text text-anchor="start" x="18.5" y="-285.2" font-family="Helvetica,sans-Serif" font-size="11.00">...</text>
<polygon fill="#ffffff" stroke="transparent" points="15.5,-261 15.5,-279 47.5,-279 47.5,-261 15.5,-261"/>
<polygon fill="none" stroke="black" points="15.5,-261 15.5,-279 47.5,-279 47.5,-261 15.5,-261"/>
<text text-anchor="start" x="18.5" y="-267.2" font-family="Helvetica,sans-Serif" font-size="11.00">&lt; 4</text>
<polygon fill="#ffffff" stroke="transparent" points="47.5,-261 47.5,-279 124.5,-279 124.5,-261 47.5,-261"/>
<polygon fill="none" stroke="black" points="47.5,-261 47.5,-279 124.5,-279 124.5,-261 47.5,-261"/>
<text text-anchor="start" x="55.5" y="-267.2" font-family="Helvetica,sans-Serif" font-size="11.00">100,724 rows</text>
<polygon fill="#ffffff" stroke="transparent" points="124.5,-261 124.5,-279 152.5,-279 152.5,-261 124.5,-261"/>
<polygon fill="none" stroke="black" points="124.5,-261 124.5,-279 152.5,-279 152.5,-261 124.5,-261"/>
<text text-anchor="start" x="133.5" y="-267.2" font-family="Helvetica,sans-Serif" font-size="11.00">5 &gt;</text>
</a>
</g>
</g>
<!-- chroncontrolscal14c&#45;&gt;chroncontrols -->
<g id="edge3" class="edge">
<title>chroncontrolscal14c:w&#45;&gt;chroncontrols:e</title>
<path fill="none" stroke="black" d="M198.47,-229.89C113.58,-245.53 256.11,-462 153.5,-462"/>
<polygon fill="black" stroke="black" points="207.87,-225.08 208.54,-233.05 206.95,-233.19 206.27,-225.22 207.87,-225.08"/>
<polyline fill="none" stroke="black" points="209,-229 205.01,-229.34 "/>
<ellipse fill="none" stroke="black" cx="201.83" cy="-229.61" rx="3.2" ry="3.2"/>
</g>
</g>
</svg>
