<?xml version="1.0" encoding="UTF-8" standalone="no"?>
<!DOCTYPE svg PUBLIC "-//W3C//DTD SVG 1.1//EN"
 "http://www.w3.org/Graphics/SVG/1.1/DTD/svg11.dtd">
<!-- Generated by graphviz version 2.43.0 (0)
 -->
<!-- Title: oneDegreeRelationshipsDiagram Pages: 1 -->
<svg width="536pt" height="687pt"
 viewBox="0.00 0.00 536.00 687.00" xmlns="http://www.w3.org/2000/svg" xmlns:xlink="http://www.w3.org/1999/xlink">
<g id="graph0" class="graph" transform="scale(1 1) rotate(0) translate(4 683)">
<title>oneDegreeRelationshipsDiagram</title>
<polygon fill="#ffffff" stroke="transparent" points="-4,4 -4,-683 532,-683 532,4 -4,4"/>
<text text-anchor="middle" x="71.5" y="-7.2" font-family="Helvetica,sans-Serif" font-size="11.00">Generated by SchemaSpy</text>
<!-- chroncontrolranks -->
<g id="node1" class="node">
<title>chroncontrolranks</title>
<g id="a_node1"><a xlink:href="../../tables/chroncontrolranks.html" xlink:title="chroncontrolranks" target="_top">
<polygon fill="#ffffff" stroke="transparent" points="286,-145 286,-387 520,-387 520,-145 286,-145"/>
<polygon fill="#f5f5f5" stroke="transparent" points="288,-363 288,-385 518,-385 518,-363 288,-363"/>
<polygon fill="none" stroke="black" points="288,-363 288,-385 518,-385 518,-363 288,-363"/>
<text text-anchor="start" x="293" y="-372.2" font-family="Helvetica,sans-Serif" font-weight="bold" font-size="11.00">chroncontrolranks</text>
<text text-anchor="start" x="483" y="-371.2" font-family="Helvetica,sans-Serif" font-size="11.00">[table]</text>
<polygon fill="none" stroke="black" points="288,-341 288,-363 444,-363 444,-341 288,-341"/>
<image xlink:href="../../images/primaryKeys.png" width="11px" height="12px" preserveAspectRatio="xMinYMin meet" x="293" y="-358"/>
<text text-anchor="start" x="308" y="-349.2" font-family="Helvetica,sans-Serif" font-size="11.00">chroncontrolrankid</text>
<polygon fill="none" stroke="black" points="444,-341 444,-363 518,-363 518,-341 444,-341"/>
<text text-anchor="start" x="447" y="-349.2" font-family="Helvetica,sans-Serif" font-size="11.00">serial[10]</text>
<polygon fill="none" stroke="black" points="288,-319 288,-341 444,-341 444,-319 288,-319"/>
<image xlink:href="../../images/foreignKeys.png" width="11px" height="12px" preserveAspectRatio="xMinYMin meet" x="293" y="-336"/>
<text text-anchor="start" x="308" y="-327.2" font-family="Helvetica,sans-Serif" font-size="11.00">chroncontrolid</text>
<polygon fill="none" stroke="black" points="444,-319 444,-341 518,-341 518,-319 444,-319"/>
<text text-anchor="start" x="447" y="-327.2" font-family="Helvetica,sans-Serif" font-size="11.00">int4[10]</text>
<polygon fill="none" stroke="black" points="288,-297 288,-319 444,-319 444,-297 288,-297"/>
<image xlink:href="../../images/foreignKeys.png" width="11px" height="12px" preserveAspectRatio="xMinYMin meet" x="293" y="-314"/>
<text text-anchor="start" x="308" y="-305.2" font-family="Helvetica,sans-Serif" font-size="11.00">accuracyrankid</text>
<polygon fill="none" stroke="black" points="444,-297 444,-319 518,-319 518,-297 444,-297"/>
<text text-anchor="start" x="447" y="-305.2" font-family="Helvetica,sans-Serif" font-size="11.00">int4[10]</text>
<polygon fill="none" stroke="black" points="288,-275 288,-297 444,-297 444,-275 288,-275"/>
<image xlink:href="../../images/foreignKeys.png" width="11px" height="12px" preserveAspectRatio="xMinYMin meet" x="293" y="-292"/>
<text text-anchor="start" x="308" y="-283.2" font-family="Helvetica,sans-Serif" font-size="11.00">accuracydirectionid</text>
<polygon fill="none" stroke="black" points="444,-275 444,-297 518,-297 518,-275 444,-275"/>
<text text-anchor="start" x="447" y="-283.2" font-family="Helvetica,sans-Serif" font-size="11.00">int4[10]</text>
<polygon fill="none" stroke="black" points="288,-253 288,-275 444,-275 444,-253 288,-253"/>
<image xlink:href="../../images/foreignKeys.png" width="11px" height="12px" preserveAspectRatio="xMinYMin meet" x="293" y="-270"/>
<text text-anchor="start" x="308" y="-261.2" font-family="Helvetica,sans-Serif" font-size="11.00">accuracydistributionid</text>
<polygon fill="none" stroke="black" points="444,-253 444,-275 518,-275 518,-253 444,-253"/>
<text text-anchor="start" x="447" y="-261.2" font-family="Helvetica,sans-Serif" font-size="11.00">int4[10]</text>
<polygon fill="none" stroke="black" points="288,-231 288,-253 444,-253 444,-231 288,-231"/>
<image xlink:href="../../images/foreignKeys.png" width="11px" height="12px" preserveAspectRatio="xMinYMin meet" x="293" y="-248"/>
<text text-anchor="start" x="308" y="-239.2" font-family="Helvetica,sans-Serif" font-size="11.00">precisionrankid</text>
<polygon fill="none" stroke="black" points="444,-231 444,-253 518,-253 518,-231 444,-231"/>
<text text-anchor="start" x="447" y="-239.2" font-family="Helvetica,sans-Serif" font-size="11.00">int4[10]</text>
<polygon fill="none" stroke="black" points="288,-209 288,-231 444,-231 444,-209 288,-209"/>
<text text-anchor="start" x="308" y="-217.2" font-family="Helvetica,sans-Serif" font-size="11.00">outlier</text>
<polygon fill="none" stroke="black" points="444,-209 444,-231 518,-231 518,-209 444,-209"/>
<text text-anchor="start" x="447" y="-217.2" font-family="Helvetica,sans-Serif" font-size="11.00">bool[1]</text>
<polygon fill="none" stroke="black" points="288,-187 288,-209 444,-209 444,-187 288,-187"/>
<text text-anchor="start" x="308" y="-195.2" font-family="Helvetica,sans-Serif" font-size="11.00">recdatecreated</text>
<polygon fill="none" stroke="black" points="444,-187 444,-209 518,-209 518,-187 444,-187"/>
<text text-anchor="start" x="447" y="-195.2" font-family="Helvetica,sans-Serif" font-size="11.00">timestamp[22]</text>
<polygon fill="none" stroke="black" points="288,-165 288,-187 444,-187 444,-165 288,-165"/>
<text text-anchor="start" x="308" y="-173.2" font-family="Helvetica,sans-Serif" font-size="11.00">recdatemodified</text>
<polygon fill="none" stroke="black" points="444,-165 444,-187 518,-187 518,-165 444,-165"/>
<text text-anchor="start" x="447" y="-173.2" font-family="Helvetica,sans-Serif" font-size="11.00">timestamp[22]</text>
<polygon fill="#ffffff" stroke="transparent" points="288,-147 288,-165 357,-165 357,-147 288,-147"/>
<polygon fill="none" stroke="black" points="288,-147 288,-165 357,-165 357,-147 288,-147"/>
<text text-anchor="start" x="291" y="-153.2" font-family="Helvetica,sans-Serif" font-size="11.00">&lt; 5</text>
<polygon fill="#ffffff" stroke="transparent" points="357,-147 357,-165 444,-165 444,-147 357,-147"/>
<polygon fill="none" stroke="black" points="357,-147 357,-165 444,-165 444,-147 357,-147"/>
<text text-anchor="start" x="408" y="-153.2" font-family="Helvetica,sans-Serif" font-size="11.00">0 rows</text>
<polygon fill="#ffffff" stroke="transparent" points="444,-147 444,-165 518,-165 518,-147 444,-147"/>
<polygon fill="none" stroke="black" points="444,-147 444,-165 518,-165 518,-147 444,-147"/>
<text text-anchor="start" x="499" y="-153.2" font-family="Helvetica,sans-Serif" font-size="11.00">0 &gt;</text>
<polygon fill="none" stroke="black" stroke-width="2" points="287,-146 287,-386 519,-386 519,-146 287,-146"/>
</a>
</g>
</g>
<!-- chroncontrolaccuracydirections -->
<g id="node2" class="node">
<title>chroncontrolaccuracydirections</title>
<g id="a_node2"><a xlink:href="../../tables/chroncontrolaccuracydirections.html" xlink:title="chroncontrolaccuracydirections" target="_top">
<polygon fill="#ffffff" stroke="transparent" points="16,-239 16,-319 229,-319 229,-239 16,-239"/>
<polygon fill="#f5f5f5" stroke="transparent" points="16.5,-297 16.5,-319 229.5,-319 229.5,-297 16.5,-297"/>
<polygon fill="none" stroke="black" points="16.5,-297 16.5,-319 229.5,-319 229.5,-297 16.5,-297"/>
<text text-anchor="start" x="21.5" y="-306.2" font-family="Helvetica,sans-Serif" font-weight="bold" font-size="11.00">chroncontrolaccuracydirections</text>
<text text-anchor="start" x="194.5" y="-305.2" font-family="Helvetica,sans-Serif" font-size="11.00">[table]</text>
<polygon fill="none" stroke="black" points="16.5,-275 16.5,-297 229.5,-297 229.5,-275 16.5,-275"/>
<image xlink:href="../../images/primaryKeys.png" width="11px" height="12px" preserveAspectRatio="xMinYMin meet" x="21.5" y="-292"/>
<text text-anchor="start" x="37.5" y="-283.2" font-family="Helvetica,sans-Serif" font-size="11.00">accuracydirectionid</text>
<polygon fill="none" stroke="black" points="16.5,-257 16.5,-275 229.5,-275 229.5,-257 16.5,-257"/>
<text text-anchor="start" x="19.5" y="-263.2" font-family="Helvetica,sans-Serif" font-size="11.00">...</text>
<polygon fill="#ffffff" stroke="transparent" points="16.5,-239 16.5,-257 98.5,-257 98.5,-239 16.5,-239"/>
<polygon fill="none" stroke="black" points="16.5,-239 16.5,-257 98.5,-257 98.5,-239 16.5,-239"/>
<text text-anchor="start" x="19.5" y="-245.2" font-family="Helvetica,sans-Serif" font-size="11.00"> &#160;</text>
<polygon fill="#ffffff" stroke="transparent" points="98.5,-239 98.5,-257 172.5,-257 172.5,-239 98.5,-239"/>
<polygon fill="none" stroke="black" points="98.5,-239 98.5,-257 172.5,-257 172.5,-239 98.5,-239"/>
<text text-anchor="start" x="136.5" y="-245.2" font-family="Helvetica,sans-Serif" font-size="11.00">3 rows</text>
<polygon fill="#ffffff" stroke="transparent" points="172.5,-239 172.5,-257 229.5,-257 229.5,-239 172.5,-239"/>
<polygon fill="none" stroke="black" points="172.5,-239 172.5,-257 229.5,-257 229.5,-239 172.5,-239"/>
<text text-anchor="start" x="210.5" y="-245.2" font-family="Helvetica,sans-Serif" font-size="11.00">1 &gt;</text>
</a>
</g>
</g>
<!-- chroncontrolranks&#45;&gt;chroncontrolaccuracydirections -->
<g id="edge1" class="edge">
<title>chroncontrolranks:w&#45;&gt;chroncontrolaccuracydirections:e</title>
<path fill="none" stroke="black" d="M272.39,-286C258.08,-286 249.92,-286 230.5,-286"/>
<polygon fill="black" stroke="black" points="279,-286 287,-289.6 283,-286 287,-286 287,-286 287,-286 283,-286 287,-282.4 279,-286 279,-286"/>
<ellipse fill="none" stroke="black" cx="275.8" cy="-286" rx="3.2" ry="3.2"/>
</g>
<!-- chroncontrolaccuracydistributions -->
<g id="node3" class="node">
<title>chroncontrolaccuracydistributions</title>
<g id="a_node3"><a xlink:href="../../tables/chroncontrolaccuracydistributions.html" xlink:title="chroncontrolaccuracydistributions" target="_top">
<polygon fill="#ffffff" stroke="transparent" points="8,-138 8,-218 237,-218 237,-138 8,-138"/>
<polygon fill="#f5f5f5" stroke="transparent" points="8.5,-196 8.5,-218 237.5,-218 237.5,-196 8.5,-196"/>
<polygon fill="none" stroke="black" points="8.5,-196 8.5,-218 237.5,-218 237.5,-196 8.5,-196"/>
<text text-anchor="start" x="13.5" y="-205.2" font-family="Helvetica,sans-Serif" font-weight="bold" font-size="11.00">chroncontrolaccuracydistributions</text>
<text text-anchor="start" x="202.5" y="-204.2" font-family="Helvetica,sans-Serif" font-size="11.00">[table]</text>
<polygon fill="none" stroke="black" points="8.5,-174 8.5,-196 237.5,-196 237.5,-174 8.5,-174"/>
<image xlink:href="../../images/primaryKeys.png" width="11px" height="12px" preserveAspectRatio="xMinYMin meet" x="13.5" y="-191"/>
<text text-anchor="start" x="28.5" y="-182.2" font-family="Helvetica,sans-Serif" font-size="11.00">accuracydistributionid</text>
<polygon fill="none" stroke="black" points="8.5,-156 8.5,-174 237.5,-174 237.5,-156 8.5,-156"/>
<text text-anchor="start" x="11.5" y="-162.2" font-family="Helvetica,sans-Serif" font-size="11.00">...</text>
<polygon fill="#ffffff" stroke="transparent" points="8.5,-138 8.5,-156 98.5,-156 98.5,-138 8.5,-138"/>
<polygon fill="none" stroke="black" points="8.5,-138 8.5,-156 98.5,-156 98.5,-138 8.5,-138"/>
<text text-anchor="start" x="11.5" y="-144.2" font-family="Helvetica,sans-Serif" font-size="11.00"> &#160;</text>
<polygon fill="#ffffff" stroke="transparent" points="98.5,-138 98.5,-156 176.5,-156 176.5,-138 98.5,-138"/>
<polygon fill="none" stroke="black" points="98.5,-138 98.5,-156 176.5,-156 176.5,-138 98.5,-138"/>
<text text-anchor="start" x="140.5" y="-144.2" font-family="Helvetica,sans-Serif" font-size="11.00">4 rows</text>
<polygon fill="#ffffff" stroke="transparent" points="176.5,-138 176.5,-156 237.5,-156 237.5,-138 176.5,-138"/>
<polygon fill="none" stroke="black" points="176.5,-138 176.5,-156 237.5,-156 237.5,-138 176.5,-138"/>
<text text-anchor="start" x="218.5" y="-144.2" font-family="Helvetica,sans-Serif" font-size="11.00">1 &gt;</text>
</a>
</g>
</g>
<!-- chroncontrolranks&#45;&gt;chroncontrolaccuracydistributions -->
<g id="edge2" class="edge">
<title>chroncontrolranks:w&#45;&gt;chroncontrolaccuracydistributions:e</title>
<path fill="none" stroke="black" d="M273.13,-259.29C254.21,-242.29 273.58,-185 238.5,-185"/>
<polygon fill="black" stroke="black" points="279.42,-261.43 285.84,-267.41 283.21,-262.72 287,-264 287,-264 287,-264 283.21,-262.72 288.16,-260.59 279.42,-261.43 279.42,-261.43"/>
<ellipse fill="none" stroke="black" cx="276.39" cy="-260.4" rx="3.2" ry="3.2"/>
</g>
<!-- chroncontrolaccuracyranks -->
<g id="node4" class="node">
<title>chroncontrolaccuracyranks</title>
<g id="a_node4"><a xlink:href="../../tables/chroncontrolaccuracyranks.html" xlink:title="chroncontrolaccuracyranks" target="_top">
<polygon fill="#ffffff" stroke="transparent" points="28,-340 28,-420 217,-420 217,-340 28,-340"/>
<polygon fill="#f5f5f5" stroke="transparent" points="28.5,-398 28.5,-420 217.5,-420 217.5,-398 28.5,-398"/>
<polygon fill="none" stroke="black" points="28.5,-398 28.5,-420 217.5,-420 217.5,-398 28.5,-398"/>
<text text-anchor="start" x="33.5" y="-407.2" font-family="Helvetica,sans-Serif" font-weight="bold" font-size="11.00">chroncontrolaccuracyranks</text>
<text text-anchor="start" x="182.5" y="-406.2" font-family="Helvetica,sans-Serif" font-size="11.00">[table]</text>
<polygon fill="none" stroke="black" points="28.5,-376 28.5,-398 217.5,-398 217.5,-376 28.5,-376"/>
<image xlink:href="../../images/primaryKeys.png" width="11px" height="12px" preserveAspectRatio="xMinYMin meet" x="33.5" y="-393"/>
<text text-anchor="start" x="50.5" y="-384.2" font-family="Helvetica,sans-Serif" font-size="11.00">accuracyrankid</text>
<polygon fill="none" stroke="black" points="28.5,-358 28.5,-376 217.5,-376 217.5,-358 28.5,-358"/>
<text text-anchor="start" x="31.5" y="-364.2" font-family="Helvetica,sans-Serif" font-size="11.00">...</text>
<polygon fill="#ffffff" stroke="transparent" points="28.5,-340 28.5,-358 98.5,-358 98.5,-340 28.5,-340"/>
<polygon fill="none" stroke="black" points="28.5,-340 28.5,-358 98.5,-358 98.5,-340 28.5,-340"/>
<text text-anchor="start" x="31.5" y="-346.2" font-family="Helvetica,sans-Serif" font-size="11.00"> &#160;</text>
<polygon fill="#ffffff" stroke="transparent" points="98.5,-340 98.5,-358 166.5,-358 166.5,-340 98.5,-340"/>
<polygon fill="none" stroke="black" points="98.5,-340 98.5,-358 166.5,-358 166.5,-340 98.5,-340"/>
<text text-anchor="start" x="130.5" y="-346.2" font-family="Helvetica,sans-Serif" font-size="11.00">8 rows</text>
<polygon fill="#ffffff" stroke="transparent" points="166.5,-340 166.5,-358 217.5,-358 217.5,-340 166.5,-340"/>
<polygon fill="none" stroke="black" points="166.5,-340 166.5,-358 217.5,-358 217.5,-340 166.5,-340"/>
<text text-anchor="start" x="198.5" y="-346.2" font-family="Helvetica,sans-Serif" font-size="11.00">1 &gt;</text>
</a>
</g>
</g>
<!-- chroncontrolranks&#45;&gt;chroncontrolaccuracyranks -->
<g id="edge3" class="edge">
<title>chroncontrolranks:w&#45;&gt;chroncontrolaccuracyranks:e</title>
<path fill="none" stroke="black" d="M272.62,-311.39C245.53,-326.52 259.16,-387 218.5,-387"/>
<polygon fill="black" stroke="black" points="279.21,-309.84 287.83,-311.5 283.11,-308.92 287,-308 287,-308 287,-308 283.11,-308.92 286.17,-304.5 279.21,-309.84 279.21,-309.84"/>
<ellipse fill="none" stroke="black" cx="276.1" cy="-310.57" rx="3.2" ry="3.2"/>
</g>
<!-- chroncontrols -->
<g id="node5" class="node">
<title>chroncontrols</title>
<g id="a_node5"><a xlink:href="../../tables/chroncontrols.html" xlink:title="chroncontrols" target="_top">
<polygon fill="#ffffff" stroke="transparent" points="54,-441 54,-675 191,-675 191,-441 54,-441"/>
<polygon fill="#f5f5f5" stroke="transparent" points="54.5,-653 54.5,-675 191.5,-675 191.5,-653 54.5,-653"/>
<polygon fill="none" stroke="black" points="54.5,-653 54.5,-675 191.5,-675 191.5,-653 54.5,-653"/>
<text text-anchor="start" x="59.5" y="-662.2" font-family="Helvetica,sans-Serif" font-weight="bold" font-size="11.00">chroncontrols</text>
<text text-anchor="start" x="156.5" y="-661.2" font-family="Helvetica,sans-Serif" font-size="11.00">[table]</text>
<polygon fill="none" stroke="black" points="54.5,-631 54.5,-653 191.5,-653 191.5,-631 54.5,-631"/>
<image xlink:href="../../images/primaryKeys.png" width="11px" height="12px" preserveAspectRatio="xMinYMin meet" x="59.5" y="-648"/>
<text text-anchor="start" x="74.5" y="-639.2" font-family="Helvetica,sans-Serif" font-size="11.00">chroncontrolid</text>
<polygon fill="none" stroke="black" points="54.5,-609 54.5,-631 191.5,-631 191.5,-609 54.5,-609"/>
<image xlink:href="../../images/foreignKeys.png" width="11px" height="12px" preserveAspectRatio="xMinYMin meet" x="59.5" y="-626"/>
<text text-anchor="start" x="74.5" y="-617.2" font-family="Helvetica,sans-Serif" font-size="11.00">chronologyid</text>
<polygon fill="none" stroke="black" points="54.5,-587 54.5,-609 191.5,-609 191.5,-587 54.5,-587"/>
<image xlink:href="../../images/foreignKeys.png" width="11px" height="12px" preserveAspectRatio="xMinYMin meet" x="59.5" y="-604"/>
<text text-anchor="start" x="74.5" y="-595.2" font-family="Helvetica,sans-Serif" font-size="11.00">chroncontroltypeid</text>
<polygon fill="#ffffff" stroke="transparent" points="54.5,-565 54.5,-587 191.5,-587 191.5,-565 54.5,-565"/>
<polygon fill="none" stroke="black" points="54.5,-565 54.5,-587 191.5,-587 191.5,-565 54.5,-565"/>
<text text-anchor="start" x="74.5" y="-573.2" font-family="Helvetica,sans-Serif" font-size="11.00">age</text>
<polygon fill="#ffffff" stroke="transparent" points="54.5,-543 54.5,-565 191.5,-565 191.5,-543 54.5,-543"/>
<polygon fill="none" stroke="black" points="54.5,-543 54.5,-565 191.5,-565 191.5,-543 54.5,-543"/>
<text text-anchor="start" x="74.5" y="-551.2" font-family="Helvetica,sans-Serif" font-size="11.00">agelimityounger</text>
<polygon fill="#ffffff" stroke="transparent" points="54.5,-521 54.5,-543 191.5,-543 191.5,-521 54.5,-521"/>
<polygon fill="none" stroke="black" points="54.5,-521 54.5,-543 191.5,-543 191.5,-521 54.5,-521"/>
<text text-anchor="start" x="74.5" y="-529.2" font-family="Helvetica,sans-Serif" font-size="11.00">agelimitolder</text>
<polygon fill="none" stroke="black" points="54.5,-499 54.5,-521 191.5,-521 191.5,-499 54.5,-499"/>
<image xlink:href="../../images/foreignKeys.png" width="11px" height="12px" preserveAspectRatio="xMinYMin meet" x="59.5" y="-516"/>
<text text-anchor="start" x="74.5" y="-507.2" font-family="Helvetica,sans-Serif" font-size="11.00">analysisunitid</text>
<polygon fill="none" stroke="black" points="54.5,-477 54.5,-499 191.5,-499 191.5,-477 54.5,-477"/>
<image xlink:href="../../images/foreignKeys.png" width="11px" height="12px" preserveAspectRatio="xMinYMin meet" x="59.5" y="-494"/>
<text text-anchor="start" x="74.5" y="-485.2" font-family="Helvetica,sans-Serif" font-size="11.00">agetypeid</text>
<polygon fill="none" stroke="black" points="54.5,-459 54.5,-477 191.5,-477 191.5,-459 54.5,-459"/>
<text text-anchor="start" x="57.5" y="-465.2" font-family="Helvetica,sans-Serif" font-size="11.00">...</text>
<polygon fill="#ffffff" stroke="transparent" points="54.5,-441 54.5,-459 86.5,-459 86.5,-441 54.5,-441"/>
<polygon fill="none" stroke="black" points="54.5,-441 54.5,-459 86.5,-459 86.5,-441 54.5,-441"/>
<text text-anchor="start" x="57.5" y="-447.2" font-family="Helvetica,sans-Serif" font-size="11.00">&lt; 4</text>
<polygon fill="#ffffff" stroke="transparent" points="86.5,-441 86.5,-459 163.5,-459 163.5,-441 86.5,-441"/>
<polygon fill="none" stroke="black" points="86.5,-441 86.5,-459 163.5,-459 163.5,-441 86.5,-441"/>
<text text-anchor="start" x="94.5" y="-447.2" font-family="Helvetica,sans-Serif" font-size="11.00">100,724 rows</text>
<polygon fill="#ffffff" stroke="transparent" points="163.5,-441 163.5,-459 191.5,-459 191.5,-441 163.5,-441"/>
<polygon fill="none" stroke="black" points="163.5,-441 163.5,-459 191.5,-459 191.5,-441 163.5,-441"/>
<text text-anchor="start" x="172.5" y="-447.2" font-family="Helvetica,sans-Serif" font-size="11.00">5 &gt;</text>
</a>
</g>
</g>
<!-- chroncontrolranks&#45;&gt;chroncontrols -->
<g id="edge4" class="edge">
<title>chroncontrolranks:w&#45;&gt;chroncontrols:e</title>
<path fill="none" stroke="black" d="M275.98,-339.68C245.97,-392.34 224.9,-642 192.5,-642"/>
<polygon fill="black" stroke="black" points="280.99,-335.28 289.38,-332.7 283.99,-332.64 287,-330 287,-330 287,-330 283.99,-332.64 284.62,-327.3 280.99,-335.28 280.99,-335.28"/>
<ellipse fill="none" stroke="black" cx="278.58" cy="-337.39" rx="3.2" ry="3.2"/>
</g>
<!-- chroncontrolprecisionranks -->
<g id="node6" class="node">
<title>chroncontrolprecisionranks</title>
<g id="a_node6"><a xlink:href="../../tables/chroncontrolprecisionranks.html" xlink:title="chroncontrolprecisionranks" target="_top">
<polygon fill="#ffffff" stroke="transparent" points="27,-37 27,-117 218,-117 218,-37 27,-37"/>
<polygon fill="#f5f5f5" stroke="transparent" points="27.5,-95 27.5,-117 218.5,-117 218.5,-95 27.5,-95"/>
<polygon fill="none" stroke="black" points="27.5,-95 27.5,-117 218.5,-117 218.5,-95 27.5,-95"/>
<text text-anchor="start" x="32.5" y="-104.2" font-family="Helvetica,sans-Serif" font-weight="bold" font-size="11.00">chroncontrolprecisionranks</text>
<text text-anchor="start" x="183.5" y="-103.2" font-family="Helvetica,sans-Serif" font-size="11.00">[table]</text>
<polygon fill="none" stroke="black" points="27.5,-73 27.5,-95 218.5,-95 218.5,-73 27.5,-73"/>
<image xlink:href="../../images/primaryKeys.png" width="11px" height="12px" preserveAspectRatio="xMinYMin meet" x="32.5" y="-90"/>
<text text-anchor="start" x="49.5" y="-81.2" font-family="Helvetica,sans-Serif" font-size="11.00">precisionrankid</text>
<polygon fill="none" stroke="black" points="27.5,-55 27.5,-73 218.5,-73 218.5,-55 27.5,-55"/>
<text text-anchor="start" x="30.5" y="-61.2" font-family="Helvetica,sans-Serif" font-size="11.00">...</text>
<polygon fill="#ffffff" stroke="transparent" points="27.5,-37 27.5,-55 98.5,-55 98.5,-37 27.5,-37"/>
<polygon fill="none" stroke="black" points="27.5,-37 27.5,-55 98.5,-55 98.5,-37 27.5,-37"/>
<text text-anchor="start" x="30.5" y="-43.2" font-family="Helvetica,sans-Serif" font-size="11.00"> &#160;</text>
<polygon fill="#ffffff" stroke="transparent" points="98.5,-37 98.5,-55 166.5,-55 166.5,-37 98.5,-37"/>
<polygon fill="none" stroke="black" points="98.5,-37 98.5,-55 166.5,-55 166.5,-37 98.5,-37"/>
<text text-anchor="start" x="130.5" y="-43.2" font-family="Helvetica,sans-Serif" font-size="11.00">8 rows</text>
<polygon fill="#ffffff" stroke="transparent" points="166.5,-37 166.5,-55 218.5,-55 218.5,-37 166.5,-37"/>
<polygon fill="none" stroke="black" points="166.5,-37 166.5,-55 218.5,-55 218.5,-37 166.5,-37"/>
<text text-anchor="start" x="199.5" y="-43.2" font-family="Helvetica,sans-Serif" font-size="11.00">1 &gt;</text>
</a>
</g>
</g>
<!-- chroncontrolranks&#45;&gt;chroncontrolprecisionranks -->
<g id="edge5" class="edge">
<title>chroncontrolranks:w&#45;&gt;chroncontrolprecisionranks:e</title>
<path fill="none" stroke="black" d="M272.54,-239.52C222.4,-219.42 290.19,-84 219.5,-84"/>
<polygon fill="black" stroke="black" points="279.12,-240.65 286.39,-245.55 283.06,-241.32 287,-242 287,-242 287,-242 283.06,-241.32 287.61,-238.45 279.12,-240.65 279.12,-240.65"/>
<ellipse fill="none" stroke="black" cx="275.96" cy="-240.11" rx="3.2" ry="3.2"/>
</g>
</g>
</svg>
