<?xml version="1.0" encoding="UTF-8" standalone="no"?>
<!DOCTYPE svg PUBLIC "-//W3C//DTD SVG 1.1//EN"
 "http://www.w3.org/Graphics/SVG/1.1/DTD/svg11.dtd">
<!-- Generated by graphviz version 2.43.0 (0)
 -->
<!-- Title: twoDegreesRelationshipsDiagram Pages: 1 -->
<svg width="493pt" height="497pt"
 viewBox="0.00 0.00 493.00 497.00" xmlns="http://www.w3.org/2000/svg" xmlns:xlink="http://www.w3.org/1999/xlink">
<g id="graph0" class="graph" transform="scale(1 1) rotate(0) translate(4 493)">
<title>twoDegreesRelationshipsDiagram</title>
<polygon fill="#ffffff" stroke="transparent" points="-4,4 -4,-493 489,-493 489,4 -4,4"/>
<text text-anchor="middle" x="71.5" y="-7.2" font-family="Helvetica,sans-Serif" font-size="11.00">Generated by SchemaSpy</text>
<!-- chroncontrolranks -->
<g id="node1" class="node">
<title>chroncontrolranks</title>
<g id="a_node1"><a xlink:href="../../tables/chroncontrolranks.html" xlink:title="chroncontrolranks" target="_top">
<polygon fill="#ffffff" stroke="transparent" points="321,-131 321,-321 477,-321 477,-131 321,-131"/>
<polygon fill="#f5f5f5" stroke="transparent" points="321,-299 321,-321 477,-321 477,-299 321,-299"/>
<polygon fill="none" stroke="black" points="321,-299 321,-321 477,-321 477,-299 321,-299"/>
<text text-anchor="start" x="326" y="-308.2" font-family="Helvetica,sans-Serif" font-weight="bold" font-size="11.00">chroncontrolranks</text>
<text text-anchor="start" x="442" y="-307.2" font-family="Helvetica,sans-Serif" font-size="11.00">[table]</text>
<polygon fill="none" stroke="black" points="321,-277 321,-299 477,-299 477,-277 321,-277"/>
<image xlink:href="../../images/primaryKeys.png" width="11px" height="12px" preserveAspectRatio="xMinYMin meet" x="326" y="-294"/>
<text text-anchor="start" x="341" y="-285.2" font-family="Helvetica,sans-Serif" font-size="11.00">chroncontrolrankid</text>
<polygon fill="none" stroke="black" points="321,-255 321,-277 477,-277 477,-255 321,-255"/>
<image xlink:href="../../images/foreignKeys.png" width="11px" height="12px" preserveAspectRatio="xMinYMin meet" x="326" y="-272"/>
<text text-anchor="start" x="341" y="-263.2" font-family="Helvetica,sans-Serif" font-size="11.00">chroncontrolid</text>
<polygon fill="none" stroke="black" points="321,-233 321,-255 477,-255 477,-233 321,-233"/>
<image xlink:href="../../images/foreignKeys.png" width="11px" height="12px" preserveAspectRatio="xMinYMin meet" x="326" y="-250"/>
<text text-anchor="start" x="341" y="-241.2" font-family="Helvetica,sans-Serif" font-size="11.00">accuracyrankid</text>
<polygon fill="none" stroke="black" points="321,-211 321,-233 477,-233 477,-211 321,-211"/>
<image xlink:href="../../images/foreignKeys.png" width="11px" height="12px" preserveAspectRatio="xMinYMin meet" x="326" y="-228"/>
<text text-anchor="start" x="341" y="-219.2" font-family="Helvetica,sans-Serif" font-size="11.00">accuracydirectionid</text>
<polygon fill="none" stroke="black" points="321,-189 321,-211 477,-211 477,-189 321,-189"/>
<image xlink:href="../../images/foreignKeys.png" width="11px" height="12px" preserveAspectRatio="xMinYMin meet" x="326" y="-206"/>
<text text-anchor="start" x="341" y="-197.2" font-family="Helvetica,sans-Serif" font-size="11.00">accuracydistributionid</text>
<polygon fill="none" stroke="black" points="321,-167 321,-189 477,-189 477,-167 321,-167"/>
<image xlink:href="../../images/foreignKeys.png" width="11px" height="12px" preserveAspectRatio="xMinYMin meet" x="326" y="-184"/>
<text text-anchor="start" x="341" y="-175.2" font-family="Helvetica,sans-Serif" font-size="11.00">precisionrankid</text>
<polygon fill="none" stroke="black" points="321,-149 321,-167 477,-167 477,-149 321,-149"/>
<text text-anchor="start" x="324" y="-155.2" font-family="Helvetica,sans-Serif" font-size="11.00">...</text>
<polygon fill="#ffffff" stroke="transparent" points="321,-131 321,-149 384,-149 384,-131 321,-131"/>
<polygon fill="none" stroke="black" points="321,-131 321,-149 384,-149 384,-131 321,-131"/>
<text text-anchor="start" x="324" y="-137.2" font-family="Helvetica,sans-Serif" font-size="11.00">&lt; 5</text>
<polygon fill="#ffffff" stroke="transparent" points="384,-131 384,-149 443,-149 443,-131 384,-131"/>
<polygon fill="none" stroke="black" points="384,-131 384,-149 443,-149 443,-131 384,-131"/>
<text text-anchor="start" x="407" y="-137.2" font-family="Helvetica,sans-Serif" font-size="11.00">0 rows</text>
<polygon fill="#ffffff" stroke="transparent" points="443,-131 443,-149 477,-149 477,-131 443,-131"/>
<polygon fill="none" stroke="black" points="443,-131 443,-149 477,-149 477,-131 443,-131"/>
<text text-anchor="start" x="467" y="-137.2" font-family="Helvetica,sans-Serif" font-size="11.00"> &#160;</text>
</a>
</g>
</g>
<!-- chroncontrolaccuracydirections -->
<g id="node2" class="node">
<title>chroncontrolaccuracydirections</title>
<g id="a_node2"><a xlink:href="../../tables/chroncontrolaccuracydirections.html" xlink:title="chroncontrolaccuracydirections" target="_top">
<polygon fill="#ffffff" stroke="transparent" points="33.5,-195 33.5,-253 246.5,-253 246.5,-195 33.5,-195"/>
<polygon fill="#f5f5f5" stroke="transparent" points="34,-231 34,-253 247,-253 247,-231 34,-231"/>
<polygon fill="none" stroke="black" points="34,-231 34,-253 247,-253 247,-231 34,-231"/>
<text text-anchor="start" x="39" y="-240.2" font-family="Helvetica,sans-Serif" font-weight="bold" font-size="11.00">chroncontrolaccuracydirections</text>
<text text-anchor="start" x="212" y="-239.2" font-family="Helvetica,sans-Serif" font-size="11.00">[table]</text>
<polygon fill="none" stroke="black" points="34,-213 34,-231 247,-231 247,-213 34,-213"/>
<text text-anchor="start" x="37" y="-219.2" font-family="Helvetica,sans-Serif" font-size="11.00">...</text>
<polygon fill="#ffffff" stroke="transparent" points="34,-195 34,-213 116,-213 116,-195 34,-195"/>
<polygon fill="none" stroke="black" points="34,-195 34,-213 116,-213 116,-195 34,-195"/>
<text text-anchor="start" x="37" y="-201.2" font-family="Helvetica,sans-Serif" font-size="11.00"> &#160;</text>
<polygon fill="#ffffff" stroke="transparent" points="116,-195 116,-213 190,-213 190,-195 116,-195"/>
<polygon fill="none" stroke="black" points="116,-195 116,-213 190,-213 190,-195 116,-195"/>
<text text-anchor="start" x="154" y="-201.2" font-family="Helvetica,sans-Serif" font-size="11.00">3 rows</text>
<polygon fill="#ffffff" stroke="transparent" points="190,-195 190,-213 247,-213 247,-195 190,-195"/>
<polygon fill="none" stroke="black" points="190,-195 190,-213 247,-213 247,-195 190,-195"/>
<text text-anchor="start" x="228" y="-201.2" font-family="Helvetica,sans-Serif" font-size="11.00">1 &gt;</text>
</a>
</g>
</g>
<!-- chroncontrolranks&#45;&gt;chroncontrolaccuracydirections -->
<g id="edge1" class="edge">
<title>chroncontrolranks:w&#45;&gt;chroncontrolaccuracydirections:e</title>
<path fill="none" stroke="black" d="M305.38,-222C284.54,-222 274.5,-222 248,-222"/>
<polygon fill="black" stroke="black" points="312,-222 320,-225.6 316,-222 320,-222 320,-222 320,-222 316,-222 320,-218.4 312,-222 312,-222"/>
<ellipse fill="none" stroke="black" cx="308.8" cy="-222" rx="3.2" ry="3.2"/>
</g>
<!-- chroncontrolaccuracydistributions -->
<g id="node3" class="node">
<title>chroncontrolaccuracydistributions</title>
<g id="a_node3"><a xlink:href="../../tables/chroncontrolaccuracydistributions.html" xlink:title="chroncontrolaccuracydistributions" target="_top">
<polygon fill="#ffffff" stroke="transparent" points="26.5,-116 26.5,-174 253.5,-174 253.5,-116 26.5,-116"/>
<polygon fill="#f5f5f5" stroke="transparent" points="27,-152 27,-174 254,-174 254,-152 27,-152"/>
<polygon fill="none" stroke="black" points="27,-152 27,-174 254,-174 254,-152 27,-152"/>
<text text-anchor="start" x="32" y="-161.2" font-family="Helvetica,sans-Serif" font-weight="bold" font-size="11.00">chroncontrolaccuracydistributions</text>
<text text-anchor="start" x="219" y="-160.2" font-family="Helvetica,sans-Serif" font-size="11.00">[table]</text>
<polygon fill="none" stroke="black" points="27,-134 27,-152 254,-152 254,-134 27,-134"/>
<text text-anchor="start" x="30" y="-140.2" font-family="Helvetica,sans-Serif" font-size="11.00">...</text>
<polygon fill="#ffffff" stroke="transparent" points="27,-116 27,-134 116,-134 116,-116 27,-116"/>
<polygon fill="none" stroke="black" points="27,-116 27,-134 116,-134 116,-116 27,-116"/>
<text text-anchor="start" x="30" y="-122.2" font-family="Helvetica,sans-Serif" font-size="11.00"> &#160;</text>
<polygon fill="#ffffff" stroke="transparent" points="116,-116 116,-134 193,-134 193,-116 116,-116"/>
<polygon fill="none" stroke="black" points="116,-116 116,-134 193,-134 193,-116 116,-116"/>
<text text-anchor="start" x="157" y="-122.2" font-family="Helvetica,sans-Serif" font-size="11.00">4 rows</text>
<polygon fill="#ffffff" stroke="transparent" points="193,-116 193,-134 254,-134 254,-116 193,-116"/>
<polygon fill="none" stroke="black" points="193,-116 193,-134 254,-134 254,-116 193,-116"/>
<text text-anchor="start" x="235" y="-122.2" font-family="Helvetica,sans-Serif" font-size="11.00">1 &gt;</text>
</a>
</g>
</g>
<!-- chroncontrolranks&#45;&gt;chroncontrolaccuracydistributions -->
<g id="edge2" class="edge">
<title>chroncontrolranks:w&#45;&gt;chroncontrolaccuracydistributions:e</title>
<path fill="none" stroke="black" d="M305.88,-196.61C283.99,-184.33 287.72,-143 255,-143"/>
<polygon fill="black" stroke="black" points="312.22,-198.13 319.16,-203.5 316.11,-199.06 320,-200 320,-200 320,-200 316.11,-199.06 320.84,-196.5 312.22,-198.13 312.22,-198.13"/>
<ellipse fill="none" stroke="black" cx="309.11" cy="-197.38" rx="3.2" ry="3.2"/>
</g>
<!-- chroncontrolaccuracyranks -->
<g id="node4" class="node">
<title>chroncontrolaccuracyranks</title>
<g id="a_node4"><a xlink:href="../../tables/chroncontrolaccuracyranks.html" xlink:title="chroncontrolaccuracyranks" target="_top">
<polygon fill="#ffffff" stroke="transparent" points="8,-274 8,-406 272,-406 272,-274 8,-274"/>
<polygon fill="#f5f5f5" stroke="transparent" points="10,-382 10,-404 270,-404 270,-382 10,-382"/>
<polygon fill="none" stroke="black" points="10,-382 10,-404 270,-404 270,-382 10,-382"/>
<text text-anchor="start" x="15" y="-391.2" font-family="Helvetica,sans-Serif" font-weight="bold" font-size="11.00">chroncontrolaccuracyranks</text>
<text text-anchor="start" x="235" y="-390.2" font-family="Helvetica,sans-Serif" font-size="11.00">[table]</text>
<polygon fill="none" stroke="black" points="10,-360 10,-382 196,-382 196,-360 10,-360"/>
<image xlink:href="../../images/primaryKeys.png" width="11px" height="12px" preserveAspectRatio="xMinYMin meet" x="15" y="-377"/>
<text text-anchor="start" x="30" y="-368.2" font-family="Helvetica,sans-Serif" font-size="11.00">accuracyrankid</text>
<polygon fill="none" stroke="black" points="196,-360 196,-382 270,-382 270,-360 196,-360"/>
<text text-anchor="start" x="199" y="-368.2" font-family="Helvetica,sans-Serif" font-size="11.00">serial[10]</text>
<polygon fill="none" stroke="black" points="10,-338 10,-360 196,-360 196,-338 10,-338"/>
<text text-anchor="start" x="30" y="-346.2" font-family="Helvetica,sans-Serif" font-size="11.00">accuracyrank</text>
<polygon fill="none" stroke="black" points="196,-338 196,-360 270,-360 270,-338 196,-338"/>
<text text-anchor="start" x="199" y="-346.2" font-family="Helvetica,sans-Serif" font-size="11.00">varchar[255]</text>
<polygon fill="none" stroke="black" points="10,-316 10,-338 196,-338 196,-316 10,-316"/>
<text text-anchor="start" x="30" y="-324.2" font-family="Helvetica,sans-Serif" font-size="11.00">recdatecreated</text>
<polygon fill="none" stroke="black" points="196,-316 196,-338 270,-338 270,-316 196,-316"/>
<text text-anchor="start" x="199" y="-324.2" font-family="Helvetica,sans-Serif" font-size="11.00">timestamp[22]</text>
<polygon fill="none" stroke="black" points="10,-294 10,-316 196,-316 196,-294 10,-294"/>
<text text-anchor="start" x="30" y="-302.2" font-family="Helvetica,sans-Serif" font-size="11.00">recdatemodified</text>
<polygon fill="none" stroke="black" points="196,-294 196,-316 270,-316 270,-294 196,-294"/>
<text text-anchor="start" x="199" y="-302.2" font-family="Helvetica,sans-Serif" font-size="11.00">timestamp[22]</text>
<polygon fill="#ffffff" stroke="transparent" points="10,-276 10,-294 94,-294 94,-276 10,-276"/>
<polygon fill="none" stroke="black" points="10,-276 10,-294 94,-294 94,-276 10,-276"/>
<text text-anchor="start" x="13" y="-282.2" font-family="Helvetica,sans-Serif" font-size="11.00">&lt; 0</text>
<polygon fill="#ffffff" stroke="transparent" points="94,-276 94,-294 196,-294 196,-276 94,-276"/>
<polygon fill="none" stroke="black" points="94,-276 94,-294 196,-294 196,-276 94,-276"/>
<text text-anchor="start" x="160" y="-282.2" font-family="Helvetica,sans-Serif" font-size="11.00">8 rows</text>
<polygon fill="#ffffff" stroke="transparent" points="196,-276 196,-294 270,-294 270,-276 196,-276"/>
<polygon fill="none" stroke="black" points="196,-276 196,-294 270,-294 270,-276 196,-276"/>
<text text-anchor="start" x="251" y="-282.2" font-family="Helvetica,sans-Serif" font-size="11.00">1 &gt;</text>
<polygon fill="none" stroke="black" stroke-width="2" points="9,-275 9,-405 271,-405 271,-275 9,-275"/>
</a>
</g>
</g>
<!-- chroncontrolranks&#45;&gt;chroncontrolaccuracyranks -->
<g id="edge3" class="edge">
<title>chroncontrolranks:w&#45;&gt;chroncontrolaccuracyranks:e</title>
<path fill="none" stroke="black" d="M305.82,-247.4C272.3,-267.59 325.59,-371 271,-371"/>
<polygon fill="black" stroke="black" points="312.22,-245.86 320.84,-247.5 316.11,-244.93 320,-244 320,-244 320,-244 316.11,-244.93 319.16,-240.5 312.22,-245.86 312.22,-245.86"/>
<ellipse fill="none" stroke="black" cx="309.11" cy="-246.61" rx="3.2" ry="3.2"/>
</g>
<!-- chroncontrols -->
<g id="node5" class="node">
<title>chroncontrols</title>
<g id="a_node5"><a xlink:href="../../tables/chroncontrols.html" xlink:title="chroncontrols" target="_top">
<polygon fill="#ffffff" stroke="transparent" points="80.5,-427 80.5,-485 199.5,-485 199.5,-427 80.5,-427"/>
<polygon fill="#f5f5f5" stroke="transparent" points="81,-463 81,-485 200,-485 200,-463 81,-463"/>
<polygon fill="none" stroke="black" points="81,-463 81,-485 200,-485 200,-463 81,-463"/>
<text text-anchor="start" x="86" y="-472.2" font-family="Helvetica,sans-Serif" font-weight="bold" font-size="11.00">chroncontrols</text>
<text text-anchor="start" x="165" y="-471.2" font-family="Helvetica,sans-Serif" font-size="11.00">[table]</text>
<polygon fill="none" stroke="black" points="81,-445 81,-463 200,-463 200,-445 81,-445"/>
<text text-anchor="start" x="84" y="-451.2" font-family="Helvetica,sans-Serif" font-size="11.00">...</text>
<polygon fill="#ffffff" stroke="transparent" points="81,-427 81,-445 104,-445 104,-427 81,-427"/>
<polygon fill="none" stroke="black" points="81,-427 81,-445 104,-445 104,-427 81,-427"/>
<text text-anchor="start" x="84" y="-433.2" font-family="Helvetica,sans-Serif" font-size="11.00">&lt; 4</text>
<polygon fill="#ffffff" stroke="transparent" points="104,-427 104,-445 177,-445 177,-427 104,-427"/>
<polygon fill="none" stroke="black" points="104,-427 104,-445 177,-445 177,-427 104,-427"/>
<text text-anchor="start" x="108" y="-433.2" font-family="Helvetica,sans-Serif" font-size="11.00">100,724 rows</text>
<polygon fill="#ffffff" stroke="transparent" points="177,-427 177,-445 200,-445 200,-427 177,-427"/>
<polygon fill="none" stroke="black" points="177,-427 177,-445 200,-445 200,-427 177,-427"/>
<text text-anchor="start" x="181" y="-433.2" font-family="Helvetica,sans-Serif" font-size="11.00">5 &gt;</text>
</a>
</g>
</g>
<!-- chroncontrolranks&#45;&gt;chroncontrols -->
<g id="edge4" class="edge">
<title>chroncontrolranks:w&#45;&gt;chroncontrols:e</title>
<path fill="none" stroke="black" d="M305.66,-267.89C261.91,-281.73 320.85,-368.09 280,-417 255.15,-446.76 239.77,-454 201,-454"/>
<polygon fill="black" stroke="black" points="312.07,-267.05 320.47,-269.57 316.03,-266.52 320,-266 320,-266 320,-266 316.03,-266.52 319.53,-262.43 312.07,-267.05 312.07,-267.05"/>
<ellipse fill="none" stroke="black" cx="308.9" cy="-267.47" rx="3.2" ry="3.2"/>
</g>
<!-- chroncontrolprecisionranks -->
<g id="node6" class="node">
<title>chroncontrolprecisionranks</title>
<g id="a_node6"><a xlink:href="../../tables/chroncontrolprecisionranks.html" xlink:title="chroncontrolprecisionranks" target="_top">
<polygon fill="#ffffff" stroke="transparent" points="44.5,-37 44.5,-95 235.5,-95 235.5,-37 44.5,-37"/>
<polygon fill="#f5f5f5" stroke="transparent" points="45,-73 45,-95 236,-95 236,-73 45,-73"/>
<polygon fill="none" stroke="black" points="45,-73 45,-95 236,-95 236,-73 45,-73"/>
<text text-anchor="start" x="50" y="-82.2" font-family="Helvetica,sans-Serif" font-weight="bold" font-size="11.00">chroncontrolprecisionranks</text>
<text text-anchor="start" x="201" y="-81.2" font-family="Helvetica,sans-Serif" font-size="11.00">[table]</text>
<polygon fill="none" stroke="black" points="45,-55 45,-73 236,-73 236,-55 45,-55"/>
<text text-anchor="start" x="48" y="-61.2" font-family="Helvetica,sans-Serif" font-size="11.00">...</text>
<polygon fill="#ffffff" stroke="transparent" points="45,-37 45,-55 116,-55 116,-37 45,-37"/>
<polygon fill="none" stroke="black" points="45,-37 45,-55 116,-55 116,-37 45,-37"/>
<text text-anchor="start" x="48" y="-43.2" font-family="Helvetica,sans-Serif" font-size="11.00"> &#160;</text>
<polygon fill="#ffffff" stroke="transparent" points="116,-37 116,-55 184,-55 184,-37 116,-37"/>
<polygon fill="none" stroke="black" points="116,-37 116,-55 184,-55 184,-37 116,-37"/>
<text text-anchor="start" x="148" y="-43.2" font-family="Helvetica,sans-Serif" font-size="11.00">8 rows</text>
<polygon fill="#ffffff" stroke="transparent" points="184,-37 184,-55 236,-55 236,-37 184,-37"/>
<polygon fill="none" stroke="black" points="184,-37 184,-55 236,-55 236,-37 184,-37"/>
<text text-anchor="start" x="217" y="-43.2" font-family="Helvetica,sans-Serif" font-size="11.00">1 &gt;</text>
</a>
</g>
</g>
<!-- chroncontrolranks&#45;&gt;chroncontrolprecisionranks -->
<g id="edge5" class="edge">
<title>chroncontrolranks:w&#45;&gt;chroncontrolprecisionranks:e</title>
<path fill="none" stroke="black" d="M305.55,-174.49C288.65,-163.66 298.4,-130.09 280,-106 263.79,-84.77 263.71,-64 237,-64"/>
<polygon fill="black" stroke="black" points="312.23,-176.11 319.15,-181.5 316.11,-177.05 320,-178 320,-178 320,-178 316.11,-177.05 320.85,-174.5 312.23,-176.11 312.23,-176.11"/>
<ellipse fill="none" stroke="black" cx="309.12" cy="-175.35" rx="3.2" ry="3.2"/>
</g>
</g>
</svg>
