<?xml version="1.0" encoding="UTF-8" standalone="no"?>
<!DOCTYPE svg PUBLIC "-//W3C//DTD SVG 1.1//EN"
 "http://www.w3.org/Graphics/SVG/1.1/DTD/svg11.dtd">
<!-- Generated by graphviz version 2.43.0 (0)
 -->
<!-- Title: oneDegreeRelationshipsDiagram Pages: 1 -->
<svg width="491pt" height="406pt"
 viewBox="0.00 0.00 490.72 406.00" xmlns="http://www.w3.org/2000/svg" xmlns:xlink="http://www.w3.org/1999/xlink">
<g id="graph0" class="graph" transform="scale(1 1) rotate(0) translate(4 402)">
<title>oneDegreeRelationshipsDiagram</title>
<polygon fill="#ffffff" stroke="transparent" points="-4,4 -4,-402 486.72,-402 486.72,4 -4,4"/>
<text text-anchor="middle" x="71.5" y="-7.2" font-family="Helvetica,sans-Serif" font-size="11.00">Generated by SchemaSpy</text>
<!-- chroncontrols -->
<g id="node1" class="node">
<title>chroncontrols</title>
<g id="a_node1"><a xlink:href="../../tables/chroncontrols.html" xlink:title="chroncontrols" target="_top">
<polygon fill="#ffffff" stroke="transparent" points="337.72,-160 337.72,-394 474.72,-394 474.72,-160 337.72,-160"/>
<polygon fill="#f5f5f5" stroke="transparent" points="338.22,-372 338.22,-394 475.22,-394 475.22,-372 338.22,-372"/>
<polygon fill="none" stroke="black" points="338.22,-372 338.22,-394 475.22,-394 475.22,-372 338.22,-372"/>
<text text-anchor="start" x="343.22" y="-381.2" font-family="Helvetica,sans-Serif" font-weight="bold" font-size="11.00">chroncontrols</text>
<text text-anchor="start" x="440.22" y="-380.2" font-family="Helvetica,sans-Serif" font-size="11.00">[table]</text>
<polygon fill="none" stroke="black" points="338.22,-350 338.22,-372 475.22,-372 475.22,-350 338.22,-350"/>
<image xlink:href="../../images/primaryKeys.png" width="11px" height="12px" preserveAspectRatio="xMinYMin meet" x="343.225" y="-367"/>
<text text-anchor="start" x="358.22" y="-358.2" font-family="Helvetica,sans-Serif" font-size="11.00">chroncontrolid</text>
<polygon fill="none" stroke="black" points="338.22,-328 338.22,-350 475.22,-350 475.22,-328 338.22,-328"/>
<image xlink:href="../../images/foreignKeys.png" width="11px" height="12px" preserveAspectRatio="xMinYMin meet" x="343.225" y="-345"/>
<text text-anchor="start" x="358.22" y="-336.2" font-family="Helvetica,sans-Serif" font-size="11.00">chronologyid</text>
<polygon fill="none" stroke="black" points="338.22,-306 338.22,-328 475.22,-328 475.22,-306 338.22,-306"/>
<image xlink:href="../../images/foreignKeys.png" width="11px" height="12px" preserveAspectRatio="xMinYMin meet" x="343.225" y="-323"/>
<text text-anchor="start" x="358.22" y="-314.2" font-family="Helvetica,sans-Serif" font-size="11.00">chroncontroltypeid</text>
<polygon fill="#ffffff" stroke="transparent" points="338.22,-284 338.22,-306 475.22,-306 475.22,-284 338.22,-284"/>
<polygon fill="none" stroke="black" points="338.22,-284 338.22,-306 475.22,-306 475.22,-284 338.22,-284"/>
<text text-anchor="start" x="358.22" y="-292.2" font-family="Helvetica,sans-Serif" font-size="11.00">age</text>
<polygon fill="#ffffff" stroke="transparent" points="338.22,-262 338.22,-284 475.22,-284 475.22,-262 338.22,-262"/>
<polygon fill="none" stroke="black" points="338.22,-262 338.22,-284 475.22,-284 475.22,-262 338.22,-262"/>
<text text-anchor="start" x="358.22" y="-270.2" font-family="Helvetica,sans-Serif" font-size="11.00">agelimityounger</text>
<polygon fill="#ffffff" stroke="transparent" points="338.22,-240 338.22,-262 475.22,-262 475.22,-240 338.22,-240"/>
<polygon fill="none" stroke="black" points="338.22,-240 338.22,-262 475.22,-262 475.22,-240 338.22,-240"/>
<text text-anchor="start" x="358.22" y="-248.2" font-family="Helvetica,sans-Serif" font-size="11.00">agelimitolder</text>
<polygon fill="none" stroke="black" points="338.22,-218 338.22,-240 475.22,-240 475.22,-218 338.22,-218"/>
<image xlink:href="../../images/foreignKeys.png" width="11px" height="12px" preserveAspectRatio="xMinYMin meet" x="343.225" y="-235"/>
<text text-anchor="start" x="358.22" y="-226.2" font-family="Helvetica,sans-Serif" font-size="11.00">analysisunitid</text>
<polygon fill="none" stroke="black" points="338.22,-196 338.22,-218 475.22,-218 475.22,-196 338.22,-196"/>
<image xlink:href="../../images/foreignKeys.png" width="11px" height="12px" preserveAspectRatio="xMinYMin meet" x="343.225" y="-213"/>
<text text-anchor="start" x="358.22" y="-204.2" font-family="Helvetica,sans-Serif" font-size="11.00">agetypeid</text>
<polygon fill="none" stroke="black" points="338.22,-178 338.22,-196 475.22,-196 475.22,-178 338.22,-178"/>
<text text-anchor="start" x="341.22" y="-184.2" font-family="Helvetica,sans-Serif" font-size="11.00">...</text>
<polygon fill="#ffffff" stroke="transparent" points="338.22,-160 338.22,-178 370.22,-178 370.22,-160 338.22,-160"/>
<polygon fill="none" stroke="black" points="338.22,-160 338.22,-178 370.22,-178 370.22,-160 338.22,-160"/>
<text text-anchor="start" x="341.22" y="-166.2" font-family="Helvetica,sans-Serif" font-size="11.00">&lt; 4</text>
<polygon fill="#ffffff" stroke="transparent" points="370.22,-160 370.22,-178 447.22,-178 447.22,-160 370.22,-160"/>
<polygon fill="none" stroke="black" points="370.22,-160 370.22,-178 447.22,-178 447.22,-160 370.22,-160"/>
<text text-anchor="start" x="378.22" y="-166.2" font-family="Helvetica,sans-Serif" font-size="11.00">100,724 rows</text>
<polygon fill="#ffffff" stroke="transparent" points="447.22,-160 447.22,-178 475.22,-178 475.22,-160 447.22,-160"/>
<polygon fill="none" stroke="black" points="447.22,-160 447.22,-178 475.22,-178 475.22,-160 447.22,-160"/>
<text text-anchor="start" x="456.22" y="-166.2" font-family="Helvetica,sans-Serif" font-size="11.00">5 &gt;</text>
</a>
</g>
</g>
<!-- chroncontroltypes -->
<g id="node2" class="node">
<title>chroncontroltypes</title>
<g id="a_node2"><a xlink:href="../../tables/chroncontroltypes.html" xlink:title="chroncontroltypes" target="_top">
<polygon fill="#ffffff" stroke="transparent" points="34.72,-81 34.72,-235 288.72,-235 288.72,-81 34.72,-81"/>
<polygon fill="#f5f5f5" stroke="transparent" points="36.72,-211 36.72,-233 286.72,-233 286.72,-211 36.72,-211"/>
<polygon fill="none" stroke="black" points="36.72,-211 36.72,-233 286.72,-233 286.72,-211 36.72,-211"/>
<text text-anchor="start" x="41.72" y="-220.2" font-family="Helvetica,sans-Serif" font-weight="bold" font-size="11.00">chroncontroltypes</text>
<text text-anchor="start" x="251.72" y="-219.2" font-family="Helvetica,sans-Serif" font-size="11.00">[table]</text>
<polygon fill="none" stroke="black" points="36.72,-189 36.72,-211 212.72,-211 212.72,-189 36.72,-189"/>
<image xlink:href="../../images/primaryKeys.png" width="11px" height="12px" preserveAspectRatio="xMinYMin meet" x="41.7247" y="-206"/>
<text text-anchor="start" x="56.72" y="-197.2" font-family="Helvetica,sans-Serif" font-size="11.00">chroncontroltypeid</text>
<polygon fill="none" stroke="black" points="212.72,-189 212.72,-211 286.72,-211 286.72,-189 212.72,-189"/>
<text text-anchor="start" x="215.72" y="-197.2" font-family="Helvetica,sans-Serif" font-size="11.00">serial[10]</text>
<polygon fill="none" stroke="black" points="36.72,-167 36.72,-189 212.72,-189 212.72,-167 36.72,-167"/>
<text text-anchor="start" x="56.72" y="-175.2" font-family="Helvetica,sans-Serif" font-size="11.00">chroncontroltype</text>
<polygon fill="none" stroke="black" points="212.72,-167 212.72,-189 286.72,-189 286.72,-167 212.72,-167"/>
<text text-anchor="start" x="215.72" y="-175.2" font-family="Helvetica,sans-Serif" font-size="11.00">varchar[64]</text>
<polygon fill="none" stroke="black" points="36.72,-145 36.72,-167 212.72,-167 212.72,-145 36.72,-145"/>
<image xlink:href="../../images/foreignKeys.png" width="11px" height="12px" preserveAspectRatio="xMinYMin meet" x="41.7247" y="-162"/>
<text text-anchor="start" x="56.72" y="-153.2" font-family="Helvetica,sans-Serif" font-size="11.00">higherchroncontroltypeid</text>
<polygon fill="none" stroke="black" points="212.72,-145 212.72,-167 286.72,-167 286.72,-145 212.72,-145"/>
<text text-anchor="start" x="215.72" y="-153.2" font-family="Helvetica,sans-Serif" font-size="11.00">int4[10]</text>
<polygon fill="none" stroke="black" points="36.72,-123 36.72,-145 212.72,-145 212.72,-123 36.72,-123"/>
<text text-anchor="start" x="56.72" y="-131.2" font-family="Helvetica,sans-Serif" font-size="11.00">recdatecreated</text>
<polygon fill="none" stroke="black" points="212.72,-123 212.72,-145 286.72,-145 286.72,-123 212.72,-123"/>
<text text-anchor="start" x="215.72" y="-131.2" font-family="Helvetica,sans-Serif" font-size="11.00">timestamp[22]</text>
<polygon fill="none" stroke="black" points="36.72,-101 36.72,-123 212.72,-123 212.72,-101 36.72,-101"/>
<text text-anchor="start" x="56.72" y="-109.2" font-family="Helvetica,sans-Serif" font-size="11.00">recdatemodified</text>
<polygon fill="none" stroke="black" points="212.72,-101 212.72,-123 286.72,-123 286.72,-101 212.72,-101"/>
<text text-anchor="start" x="215.72" y="-109.2" font-family="Helvetica,sans-Serif" font-size="11.00">timestamp[22]</text>
<polygon fill="#ffffff" stroke="transparent" points="36.72,-83 36.72,-101 112.72,-101 112.72,-83 36.72,-83"/>
<polygon fill="none" stroke="black" points="36.72,-83 36.72,-101 112.72,-101 112.72,-83 36.72,-83"/>
<text text-anchor="start" x="39.72" y="-89.2" font-family="Helvetica,sans-Serif" font-size="11.00">&lt; 1</text>
<polygon fill="#ffffff" stroke="transparent" points="112.72,-83 112.72,-101 212.72,-101 212.72,-83 112.72,-83"/>
<polygon fill="none" stroke="black" points="112.72,-83 112.72,-101 212.72,-101 212.72,-83 112.72,-83"/>
<text text-anchor="start" x="170.72" y="-89.2" font-family="Helvetica,sans-Serif" font-size="11.00">99 rows</text>
<polygon fill="#ffffff" stroke="transparent" points="212.72,-83 212.72,-101 286.72,-101 286.72,-83 212.72,-83"/>
<polygon fill="none" stroke="black" points="212.72,-83 212.72,-101 286.72,-101 286.72,-83 212.72,-83"/>
<text text-anchor="start" x="267.72" y="-89.2" font-family="Helvetica,sans-Serif" font-size="11.00">3 &gt;</text>
<polygon fill="none" stroke="black" stroke-width="2" points="35.72,-82 35.72,-234 287.72,-234 287.72,-82 35.72,-82"/>
</a>
</g>
</g>
<!-- chroncontrols&#45;&gt;chroncontroltypes -->
<g id="edge1" class="edge">
<title>chroncontrols:w&#45;&gt;chroncontroltypes:e</title>
<path fill="none" stroke="black" d="M323.08,-313.37C292.81,-293.62 338.23,-200 287.72,-200"/>
<polygon fill="black" stroke="black" points="329.48,-315.01 336.33,-320.49 333.35,-316.01 337.22,-317 337.22,-317 337.22,-317 333.35,-316.01 338.12,-313.51 329.48,-315.01 329.48,-315.01"/>
<ellipse fill="none" stroke="black" cx="326.38" cy="-314.22" rx="3.2" ry="3.2"/>
</g>
<!-- chroncontroltypes&#45;&gt;chroncontroltypes -->
<g id="edge2" class="edge">
<title>chroncontroltypes:w&#45;&gt;chroncontroltypes:e</title>
<path fill="none" stroke="black" d="M24.2,-163.49C-23.25,-196.58 -10.47,-252 161.72,-252 347.72,-252 347.72,-231.33 286.72,-200"/>
<polygon fill="black" stroke="black" points="29.86,-160.11 38.57,-159.09 33.29,-158.05 36.72,-156 36.72,-156 36.72,-156 33.29,-158.05 34.88,-152.91 29.86,-160.11 29.86,-160.11"/>
<ellipse fill="none" stroke="black" cx="27.11" cy="-161.75" rx="3.2" ry="3.2"/>
</g>
<!-- eventtypes -->
<g id="node3" class="node">
<title>eventtypes</title>
<g id="a_node3"><a xlink:href="../../tables/eventtypes.html" xlink:title="eventtypes" target="_top">
<polygon fill="#ffffff" stroke="transparent" points="337.72,-37 337.72,-139 474.72,-139 474.72,-37 337.72,-37"/>
<polygon fill="#f5f5f5" stroke="transparent" points="338.22,-117 338.22,-139 475.22,-139 475.22,-117 338.22,-117"/>
<polygon fill="none" stroke="black" points="338.22,-117 338.22,-139 475.22,-139 475.22,-117 338.22,-117"/>
<text text-anchor="start" x="343.22" y="-126.2" font-family="Helvetica,sans-Serif" font-weight="bold" font-size="11.00">eventtypes</text>
<text text-anchor="start" x="440.22" y="-125.2" font-family="Helvetica,sans-Serif" font-size="11.00">[table]</text>
<polygon fill="none" stroke="black" points="338.22,-95 338.22,-117 475.22,-117 475.22,-95 338.22,-95"/>
<image xlink:href="../../images/primaryKeys.png" width="11px" height="12px" preserveAspectRatio="xMinYMin meet" x="343.225" y="-112"/>
<text text-anchor="start" x="358.22" y="-103.2" font-family="Helvetica,sans-Serif" font-size="11.00">eventtypeid</text>
<polygon fill="none" stroke="black" points="338.22,-73 338.22,-95 475.22,-95 475.22,-73 338.22,-73"/>
<image xlink:href="../../images/foreignKeys.png" width="11px" height="12px" preserveAspectRatio="xMinYMin meet" x="343.225" y="-90"/>
<text text-anchor="start" x="358.22" y="-81.2" font-family="Helvetica,sans-Serif" font-size="11.00">chroncontroltypeid</text>
<polygon fill="none" stroke="black" points="338.22,-55 338.22,-73 475.22,-73 475.22,-55 338.22,-55"/>
<text text-anchor="start" x="341.22" y="-61.2" font-family="Helvetica,sans-Serif" font-size="11.00">...</text>
<polygon fill="#ffffff" stroke="transparent" points="338.22,-37 338.22,-55 387.22,-55 387.22,-37 338.22,-37"/>
<polygon fill="none" stroke="black" points="338.22,-37 338.22,-55 387.22,-55 387.22,-37 338.22,-37"/>
<text text-anchor="start" x="341.22" y="-43.2" font-family="Helvetica,sans-Serif" font-size="11.00">&lt; 1</text>
<polygon fill="#ffffff" stroke="transparent" points="387.22,-37 387.22,-55 439.22,-55 439.22,-37 387.22,-37"/>
<polygon fill="none" stroke="black" points="387.22,-37 387.22,-55 439.22,-55 439.22,-37 387.22,-37"/>
<text text-anchor="start" x="403.22" y="-43.2" font-family="Helvetica,sans-Serif" font-size="11.00">9 rows</text>
<polygon fill="#ffffff" stroke="transparent" points="439.22,-37 439.22,-55 475.22,-55 475.22,-37 439.22,-37"/>
<polygon fill="none" stroke="black" points="439.22,-37 439.22,-55 475.22,-55 475.22,-37 439.22,-37"/>
<text text-anchor="start" x="456.22" y="-43.2" font-family="Helvetica,sans-Serif" font-size="11.00">1 &gt;</text>
</a>
</g>
</g>
<!-- eventtypes&#45;&gt;chroncontroltypes -->
<g id="edge3" class="edge">
<title>eventtypes:w&#45;&gt;chroncontroltypes:e</title>
<path fill="none" stroke="black" d="M323.17,-87.6C293.06,-107.18 337.87,-200 287.72,-200"/>
<polygon fill="black" stroke="black" points="329.47,-85.98 338.12,-87.49 333.35,-84.99 337.22,-84 337.22,-84 337.22,-84 333.35,-84.99 336.33,-80.51 329.47,-85.98 329.47,-85.98"/>
<ellipse fill="none" stroke="black" cx="326.37" cy="-86.78" rx="3.2" ry="3.2"/>
</g>
</g>
</svg>
