<?xml version="1.0" encoding="UTF-8" standalone="no"?>
<!DOCTYPE svg PUBLIC "-//W3C//DTD SVG 1.1//EN"
 "http://www.w3.org/Graphics/SVG/1.1/DTD/svg11.dtd">
<!-- Generated by graphviz version 2.43.0 (0)
 -->
<!-- Title: oneDegreeRelationshipsDiagram Pages: 1 -->
<svg width="519pt" height="245pt"
 viewBox="0.00 0.00 519.00 245.00" xmlns="http://www.w3.org/2000/svg" xmlns:xlink="http://www.w3.org/1999/xlink">
<g id="graph0" class="graph" transform="scale(1 1) rotate(0) translate(4 241)">
<title>oneDegreeRelationshipsDiagram</title>
<polygon fill="#ffffff" stroke="transparent" points="-4,4 -4,-241 515,-241 515,4 -4,4"/>
<text text-anchor="middle" x="71.5" y="-7.2" font-family="Helvetica,sans-Serif" font-size="11.00">Generated by SchemaSpy</text>
<!-- chroncontrolranks -->
<g id="node1" class="node">
<title>chroncontrolranks</title>
<g id="a_node1"><a xlink:href="../../tables/chroncontrolranks.html" xlink:title="chroncontrolranks" target="_top">
<polygon fill="#ffffff" stroke="transparent" points="347,-43 347,-233 503,-233 503,-43 347,-43"/>
<polygon fill="#f5f5f5" stroke="transparent" points="347,-211 347,-233 503,-233 503,-211 347,-211"/>
<polygon fill="none" stroke="black" points="347,-211 347,-233 503,-233 503,-211 347,-211"/>
<text text-anchor="start" x="352" y="-220.2" font-family="Helvetica,sans-Serif" font-weight="bold" font-size="11.00">chroncontrolranks</text>
<text text-anchor="start" x="468" y="-219.2" font-family="Helvetica,sans-Serif" font-size="11.00">[table]</text>
<polygon fill="none" stroke="black" points="347,-189 347,-211 503,-211 503,-189 347,-189"/>
<image xlink:href="../../images/primaryKeys.png" width="11px" height="12px" preserveAspectRatio="xMinYMin meet" x="352" y="-206"/>
<text text-anchor="start" x="367" y="-197.2" font-family="Helvetica,sans-Serif" font-size="11.00">chroncontrolrankid</text>
<polygon fill="none" stroke="black" points="347,-167 347,-189 503,-189 503,-167 347,-167"/>
<image xlink:href="../../images/foreignKeys.png" width="11px" height="12px" preserveAspectRatio="xMinYMin meet" x="352" y="-184"/>
<text text-anchor="start" x="367" y="-175.2" font-family="Helvetica,sans-Serif" font-size="11.00">chroncontrolid</text>
<polygon fill="none" stroke="black" points="347,-145 347,-167 503,-167 503,-145 347,-145"/>
<image xlink:href="../../images/foreignKeys.png" width="11px" height="12px" preserveAspectRatio="xMinYMin meet" x="352" y="-162"/>
<text text-anchor="start" x="367" y="-153.2" font-family="Helvetica,sans-Serif" font-size="11.00">accuracyrankid</text>
<polygon fill="none" stroke="black" points="347,-123 347,-145 503,-145 503,-123 347,-123"/>
<image xlink:href="../../images/foreignKeys.png" width="11px" height="12px" preserveAspectRatio="xMinYMin meet" x="352" y="-140"/>
<text text-anchor="start" x="367" y="-131.2" font-family="Helvetica,sans-Serif" font-size="11.00">accuracydirectionid</text>
<polygon fill="none" stroke="black" points="347,-101 347,-123 503,-123 503,-101 347,-101"/>
<image xlink:href="../../images/foreignKeys.png" width="11px" height="12px" preserveAspectRatio="xMinYMin meet" x="352" y="-118"/>
<text text-anchor="start" x="367" y="-109.2" font-family="Helvetica,sans-Serif" font-size="11.00">accuracydistributionid</text>
<polygon fill="none" stroke="black" points="347,-79 347,-101 503,-101 503,-79 347,-79"/>
<image xlink:href="../../images/foreignKeys.png" width="11px" height="12px" preserveAspectRatio="xMinYMin meet" x="352" y="-96"/>
<text text-anchor="start" x="367" y="-87.2" font-family="Helvetica,sans-Serif" font-size="11.00">precisionrankid</text>
<polygon fill="none" stroke="black" points="347,-61 347,-79 503,-79 503,-61 347,-61"/>
<text text-anchor="start" x="350" y="-67.2" font-family="Helvetica,sans-Serif" font-size="11.00">...</text>
<polygon fill="#ffffff" stroke="transparent" points="347,-43 347,-61 410,-61 410,-43 347,-43"/>
<polygon fill="none" stroke="black" points="347,-43 347,-61 410,-61 410,-43 347,-43"/>
<text text-anchor="start" x="350" y="-49.2" font-family="Helvetica,sans-Serif" font-size="11.00">&lt; 5</text>
<polygon fill="#ffffff" stroke="transparent" points="410,-43 410,-61 469,-61 469,-43 410,-43"/>
<polygon fill="none" stroke="black" points="410,-43 410,-61 469,-61 469,-43 410,-43"/>
<text text-anchor="start" x="433" y="-49.2" font-family="Helvetica,sans-Serif" font-size="11.00">0 rows</text>
<polygon fill="#ffffff" stroke="transparent" points="469,-43 469,-61 503,-61 503,-43 469,-43"/>
<polygon fill="none" stroke="black" points="469,-43 469,-61 503,-61 503,-43 469,-43"/>
<text text-anchor="start" x="493" y="-49.2" font-family="Helvetica,sans-Serif" font-size="11.00"> &#160;</text>
</a>
</g>
</g>
<!-- chroncontrolaccuracydirections -->
<g id="node2" class="node">
<title>chroncontrolaccuracydirections</title>
<g id="a_node2"><a xlink:href="../../tables/chroncontrolaccuracydirections.html" xlink:title="chroncontrolaccuracydirections" target="_top">
<polygon fill="#ffffff" stroke="transparent" points="8,-37 8,-169 298,-169 298,-37 8,-37"/>
<polygon fill="#f5f5f5" stroke="transparent" points="10,-145 10,-167 296,-167 296,-145 10,-145"/>
<polygon fill="none" stroke="black" points="10,-145 10,-167 296,-167 296,-145 10,-145"/>
<text text-anchor="start" x="15" y="-154.2" font-family="Helvetica,sans-Serif" font-weight="bold" font-size="11.00">chroncontrolaccuracydirections</text>
<text text-anchor="start" x="261" y="-153.2" font-family="Helvetica,sans-Serif" font-size="11.00">[table]</text>
<polygon fill="none" stroke="black" points="10,-123 10,-145 222,-145 222,-123 10,-123"/>
<image xlink:href="../../images/primaryKeys.png" width="11px" height="12px" preserveAspectRatio="xMinYMin meet" x="15" y="-140"/>
<text text-anchor="start" x="30" y="-131.2" font-family="Helvetica,sans-Serif" font-size="11.00">accuracydirectionid</text>
<polygon fill="none" stroke="black" points="222,-123 222,-145 296,-145 296,-123 222,-123"/>
<text text-anchor="start" x="225" y="-131.2" font-family="Helvetica,sans-Serif" font-size="11.00">serial[10]</text>
<polygon fill="none" stroke="black" points="10,-101 10,-123 222,-123 222,-101 10,-101"/>
<text text-anchor="start" x="30" y="-109.2" font-family="Helvetica,sans-Serif" font-size="11.00">accuracydirection</text>
<polygon fill="none" stroke="black" points="222,-101 222,-123 296,-123 296,-101 222,-101"/>
<text text-anchor="start" x="225" y="-109.2" font-family="Helvetica,sans-Serif" font-size="11.00">varchar[80]</text>
<polygon fill="none" stroke="black" points="10,-79 10,-101 222,-101 222,-79 10,-79"/>
<text text-anchor="start" x="30" y="-87.2" font-family="Helvetica,sans-Serif" font-size="11.00">recdatecreated</text>
<polygon fill="none" stroke="black" points="222,-79 222,-101 296,-101 296,-79 222,-79"/>
<text text-anchor="start" x="225" y="-87.2" font-family="Helvetica,sans-Serif" font-size="11.00">timestamp[22]</text>
<polygon fill="none" stroke="black" points="10,-57 10,-79 222,-79 222,-57 10,-57"/>
<text text-anchor="start" x="30" y="-65.2" font-family="Helvetica,sans-Serif" font-size="11.00">recdatemodified</text>
<polygon fill="none" stroke="black" points="222,-57 222,-79 296,-79 296,-57 222,-57"/>
<text text-anchor="start" x="225" y="-65.2" font-family="Helvetica,sans-Serif" font-size="11.00">timestamp[22]</text>
<polygon fill="#ffffff" stroke="transparent" points="10,-39 10,-57 107,-57 107,-39 10,-39"/>
<polygon fill="none" stroke="black" points="10,-39 10,-57 107,-57 107,-39 10,-39"/>
<text text-anchor="start" x="13" y="-45.2" font-family="Helvetica,sans-Serif" font-size="11.00">&lt; 0</text>
<polygon fill="#ffffff" stroke="transparent" points="107,-39 107,-57 222,-57 222,-39 107,-39"/>
<polygon fill="none" stroke="black" points="107,-39 107,-57 222,-57 222,-39 107,-39"/>
<text text-anchor="start" x="186" y="-45.2" font-family="Helvetica,sans-Serif" font-size="11.00">3 rows</text>
<polygon fill="#ffffff" stroke="transparent" points="222,-39 222,-57 296,-57 296,-39 222,-39"/>
<polygon fill="none" stroke="black" points="222,-39 222,-57 296,-57 296,-39 222,-39"/>
<text text-anchor="start" x="277" y="-45.2" font-family="Helvetica,sans-Serif" font-size="11.00">1 &gt;</text>
<polygon fill="none" stroke="black" stroke-width="2" points="9,-38 9,-168 297,-168 297,-38 9,-38"/>
</a>
</g>
</g>
<!-- chroncontrolranks&#45;&gt;chroncontrolaccuracydirections -->
<g id="edge1" class="edge">
<title>chroncontrolranks:w&#45;&gt;chroncontrolaccuracydirections:e</title>
<path fill="none" stroke="black" d="M331.49,-134C320.18,-134 312.99,-134 297,-134"/>
<polygon fill="black" stroke="black" points="338,-134 346,-137.6 342,-134 346,-134 346,-134 346,-134 342,-134 346,-130.4 338,-134 338,-134"/>
<ellipse fill="none" stroke="black" cx="334.8" cy="-134" rx="3.2" ry="3.2"/>
</g>
</g>
</svg>
