<?xml version="1.0" encoding="UTF-8" standalone="no"?>
<!DOCTYPE svg PUBLIC "-//W3C//DTD SVG 1.1//EN"
 "http://www.w3.org/Graphics/SVG/1.1/DTD/svg11.dtd">
<!-- Generated by graphviz version 2.43.0 (0)
 -->
<!-- Title: twoDegreesRelationshipsDiagram Pages: 1 -->
<svg width="519pt" height="497pt"
 viewBox="0.00 0.00 519.00 497.00" xmlns="http://www.w3.org/2000/svg" xmlns:xlink="http://www.w3.org/1999/xlink">
<g id="graph0" class="graph" transform="scale(1 1) rotate(0) translate(4 493)">
<title>twoDegreesRelationshipsDiagram</title>
<polygon fill="#ffffff" stroke="transparent" points="-4,4 -4,-493 515,-493 515,4 -4,4"/>
<text text-anchor="middle" x="71.5" y="-7.2" font-family="Helvetica,sans-Serif" font-size="11.00">Generated by SchemaSpy</text>
<!-- chroncontrolranks -->
<g id="node1" class="node">
<title>chroncontrolranks</title>
<g id="a_node1"><a xlink:href="../../tables/chroncontrolranks.html" xlink:title="chroncontrolranks" target="_top">
<polygon fill="#ffffff" stroke="transparent" points="347,-201 347,-391 503,-391 503,-201 347,-201"/>
<polygon fill="#f5f5f5" stroke="transparent" points="347,-369 347,-391 503,-391 503,-369 347,-369"/>
<polygon fill="none" stroke="black" points="347,-369 347,-391 503,-391 503,-369 347,-369"/>
<text text-anchor="start" x="352" y="-378.2" font-family="Helvetica,sans-Serif" font-weight="bold" font-size="11.00">chroncontrolranks</text>
<text text-anchor="start" x="468" y="-377.2" font-family="Helvetica,sans-Serif" font-size="11.00">[table]</text>
<polygon fill="none" stroke="black" points="347,-347 347,-369 503,-369 503,-347 347,-347"/>
<image xlink:href="../../images/primaryKeys.png" width="11px" height="12px" preserveAspectRatio="xMinYMin meet" x="352" y="-364"/>
<text text-anchor="start" x="367" y="-355.2" font-family="Helvetica,sans-Serif" font-size="11.00">chroncontrolrankid</text>
<polygon fill="none" stroke="black" points="347,-325 347,-347 503,-347 503,-325 347,-325"/>
<image xlink:href="../../images/foreignKeys.png" width="11px" height="12px" preserveAspectRatio="xMinYMin meet" x="352" y="-342"/>
<text text-anchor="start" x="367" y="-333.2" font-family="Helvetica,sans-Serif" font-size="11.00">chroncontrolid</text>
<polygon fill="none" stroke="black" points="347,-303 347,-325 503,-325 503,-303 347,-303"/>
<image xlink:href="../../images/foreignKeys.png" width="11px" height="12px" preserveAspectRatio="xMinYMin meet" x="352" y="-320"/>
<text text-anchor="start" x="367" y="-311.2" font-family="Helvetica,sans-Serif" font-size="11.00">accuracyrankid</text>
<polygon fill="none" stroke="black" points="347,-281 347,-303 503,-303 503,-281 347,-281"/>
<image xlink:href="../../images/foreignKeys.png" width="11px" height="12px" preserveAspectRatio="xMinYMin meet" x="352" y="-298"/>
<text text-anchor="start" x="367" y="-289.2" font-family="Helvetica,sans-Serif" font-size="11.00">accuracydirectionid</text>
<polygon fill="none" stroke="black" points="347,-259 347,-281 503,-281 503,-259 347,-259"/>
<image xlink:href="../../images/foreignKeys.png" width="11px" height="12px" preserveAspectRatio="xMinYMin meet" x="352" y="-276"/>
<text text-anchor="start" x="367" y="-267.2" font-family="Helvetica,sans-Serif" font-size="11.00">accuracydistributionid</text>
<polygon fill="none" stroke="black" points="347,-237 347,-259 503,-259 503,-237 347,-237"/>
<image xlink:href="../../images/foreignKeys.png" width="11px" height="12px" preserveAspectRatio="xMinYMin meet" x="352" y="-254"/>
<text text-anchor="start" x="367" y="-245.2" font-family="Helvetica,sans-Serif" font-size="11.00">precisionrankid</text>
<polygon fill="none" stroke="black" points="347,-219 347,-237 503,-237 503,-219 347,-219"/>
<text text-anchor="start" x="350" y="-225.2" font-family="Helvetica,sans-Serif" font-size="11.00">...</text>
<polygon fill="#ffffff" stroke="transparent" points="347,-201 347,-219 410,-219 410,-201 347,-201"/>
<polygon fill="none" stroke="black" points="347,-201 347,-219 410,-219 410,-201 347,-201"/>
<text text-anchor="start" x="350" y="-207.2" font-family="Helvetica,sans-Serif" font-size="11.00">&lt; 5</text>
<polygon fill="#ffffff" stroke="transparent" points="410,-201 410,-219 469,-219 469,-201 410,-201"/>
<polygon fill="none" stroke="black" points="410,-201 410,-219 469,-219 469,-201 410,-201"/>
<text text-anchor="start" x="433" y="-207.2" font-family="Helvetica,sans-Serif" font-size="11.00">0 rows</text>
<polygon fill="#ffffff" stroke="transparent" points="469,-201 469,-219 503,-219 503,-201 469,-201"/>
<polygon fill="none" stroke="black" points="469,-201 469,-219 503,-219 503,-201 469,-201"/>
<text text-anchor="start" x="493" y="-207.2" font-family="Helvetica,sans-Serif" font-size="11.00"> &#160;</text>
</a>
</g>
</g>
<!-- chroncontrolaccuracydirections -->
<g id="node2" class="node">
<title>chroncontrolaccuracydirections</title>
<g id="a_node2"><a xlink:href="../../tables/chroncontrolaccuracydirections.html" xlink:title="chroncontrolaccuracydirections" target="_top">
<polygon fill="#ffffff" stroke="transparent" points="8,-195 8,-327 298,-327 298,-195 8,-195"/>
<polygon fill="#f5f5f5" stroke="transparent" points="10,-303 10,-325 296,-325 296,-303 10,-303"/>
<polygon fill="none" stroke="black" points="10,-303 10,-325 296,-325 296,-303 10,-303"/>
<text text-anchor="start" x="15" y="-312.2" font-family="Helvetica,sans-Serif" font-weight="bold" font-size="11.00">chroncontrolaccuracydirections</text>
<text text-anchor="start" x="261" y="-311.2" font-family="Helvetica,sans-Serif" font-size="11.00">[table]</text>
<polygon fill="none" stroke="black" points="10,-281 10,-303 222,-303 222,-281 10,-281"/>
<image xlink:href="../../images/primaryKeys.png" width="11px" height="12px" preserveAspectRatio="xMinYMin meet" x="15" y="-298"/>
<text text-anchor="start" x="30" y="-289.2" font-family="Helvetica,sans-Serif" font-size="11.00">accuracydirectionid</text>
<polygon fill="none" stroke="black" points="222,-281 222,-303 296,-303 296,-281 222,-281"/>
<text text-anchor="start" x="225" y="-289.2" font-family="Helvetica,sans-Serif" font-size="11.00">serial[10]</text>
<polygon fill="none" stroke="black" points="10,-259 10,-281 222,-281 222,-259 10,-259"/>
<text text-anchor="start" x="30" y="-267.2" font-family="Helvetica,sans-Serif" font-size="11.00">accuracydirection</text>
<polygon fill="none" stroke="black" points="222,-259 222,-281 296,-281 296,-259 222,-259"/>
<text text-anchor="start" x="225" y="-267.2" font-family="Helvetica,sans-Serif" font-size="11.00">varchar[80]</text>
<polygon fill="none" stroke="black" points="10,-237 10,-259 222,-259 222,-237 10,-237"/>
<text text-anchor="start" x="30" y="-245.2" font-family="Helvetica,sans-Serif" font-size="11.00">recdatecreated</text>
<polygon fill="none" stroke="black" points="222,-237 222,-259 296,-259 296,-237 222,-237"/>
<text text-anchor="start" x="225" y="-245.2" font-family="Helvetica,sans-Serif" font-size="11.00">timestamp[22]</text>
<polygon fill="none" stroke="black" points="10,-215 10,-237 222,-237 222,-215 10,-215"/>
<text text-anchor="start" x="30" y="-223.2" font-family="Helvetica,sans-Serif" font-size="11.00">recdatemodified</text>
<polygon fill="none" stroke="black" points="222,-215 222,-237 296,-237 296,-215 222,-215"/>
<text text-anchor="start" x="225" y="-223.2" font-family="Helvetica,sans-Serif" font-size="11.00">timestamp[22]</text>
<polygon fill="#ffffff" stroke="transparent" points="10,-197 10,-215 107,-215 107,-197 10,-197"/>
<polygon fill="none" stroke="black" points="10,-197 10,-215 107,-215 107,-197 10,-197"/>
<text text-anchor="start" x="13" y="-203.2" font-family="Helvetica,sans-Serif" font-size="11.00">&lt; 0</text>
<polygon fill="#ffffff" stroke="transparent" points="107,-197 107,-215 222,-215 222,-197 107,-197"/>
<polygon fill="none" stroke="black" points="107,-197 107,-215 222,-215 222,-197 107,-197"/>
<text text-anchor="start" x="186" y="-203.2" font-family="Helvetica,sans-Serif" font-size="11.00">3 rows</text>
<polygon fill="#ffffff" stroke="transparent" points="222,-197 222,-215 296,-215 296,-197 222,-197"/>
<polygon fill="none" stroke="black" points="222,-197 222,-215 296,-215 296,-197 222,-197"/>
<text text-anchor="start" x="277" y="-203.2" font-family="Helvetica,sans-Serif" font-size="11.00">1 &gt;</text>
<polygon fill="none" stroke="black" stroke-width="2" points="9,-196 9,-326 297,-326 297,-196 9,-196"/>
</a>
</g>
</g>
<!-- chroncontrolranks&#45;&gt;chroncontrolaccuracydirections -->
<g id="edge1" class="edge">
<title>chroncontrolranks:w&#45;&gt;chroncontrolaccuracydirections:e</title>
<path fill="none" stroke="black" d="M331.49,-292C320.18,-292 312.99,-292 297,-292"/>
<polygon fill="black" stroke="black" points="338,-292 346,-295.6 342,-292 346,-292 346,-292 346,-292 342,-292 346,-288.4 338,-292 338,-292"/>
<ellipse fill="none" stroke="black" cx="334.8" cy="-292" rx="3.2" ry="3.2"/>
</g>
<!-- chroncontrolaccuracydistributions -->
<g id="node3" class="node">
<title>chroncontrolaccuracydistributions</title>
<g id="a_node3"><a xlink:href="../../tables/chroncontrolaccuracydistributions.html" xlink:title="chroncontrolaccuracydistributions" target="_top">
<polygon fill="#ffffff" stroke="transparent" points="39.5,-116 39.5,-174 266.5,-174 266.5,-116 39.5,-116"/>
<polygon fill="#f5f5f5" stroke="transparent" points="40,-152 40,-174 267,-174 267,-152 40,-152"/>
<polygon fill="none" stroke="black" points="40,-152 40,-174 267,-174 267,-152 40,-152"/>
<text text-anchor="start" x="45" y="-161.2" font-family="Helvetica,sans-Serif" font-weight="bold" font-size="11.00">chroncontrolaccuracydistributions</text>
<text text-anchor="start" x="232" y="-160.2" font-family="Helvetica,sans-Serif" font-size="11.00">[table]</text>
<polygon fill="none" stroke="black" points="40,-134 40,-152 267,-152 267,-134 40,-134"/>
<text text-anchor="start" x="43" y="-140.2" font-family="Helvetica,sans-Serif" font-size="11.00">...</text>
<polygon fill="#ffffff" stroke="transparent" points="40,-116 40,-134 129,-134 129,-116 40,-116"/>
<polygon fill="none" stroke="black" points="40,-116 40,-134 129,-134 129,-116 40,-116"/>
<text text-anchor="start" x="43" y="-122.2" font-family="Helvetica,sans-Serif" font-size="11.00"> &#160;</text>
<polygon fill="#ffffff" stroke="transparent" points="129,-116 129,-134 206,-134 206,-116 129,-116"/>
<polygon fill="none" stroke="black" points="129,-116 129,-134 206,-134 206,-116 129,-116"/>
<text text-anchor="start" x="170" y="-122.2" font-family="Helvetica,sans-Serif" font-size="11.00">4 rows</text>
<polygon fill="#ffffff" stroke="transparent" points="206,-116 206,-134 267,-134 267,-116 206,-116"/>
<polygon fill="none" stroke="black" points="206,-116 206,-134 267,-134 267,-116 206,-116"/>
<text text-anchor="start" x="248" y="-122.2" font-family="Helvetica,sans-Serif" font-size="11.00">1 &gt;</text>
</a>
</g>
</g>
<!-- chroncontrolranks&#45;&gt;chroncontrolaccuracydistributions -->
<g id="edge2" class="edge">
<title>chroncontrolranks:w&#45;&gt;chroncontrolaccuracydistributions:e</title>
<path fill="none" stroke="black" d="M331.73,-267.05C310.44,-255.8 325.8,-214.73 306,-185 292.04,-164.05 293.17,-143 268,-143"/>
<polygon fill="black" stroke="black" points="338.17,-268.38 345.27,-273.53 342.08,-269.19 346,-270 346,-270 346,-270 342.08,-269.19 346.73,-266.47 338.17,-268.38 338.17,-268.38"/>
<ellipse fill="none" stroke="black" cx="335.03" cy="-267.73" rx="3.2" ry="3.2"/>
</g>
<!-- chroncontrolaccuracyranks -->
<g id="node4" class="node">
<title>chroncontrolaccuracyranks</title>
<g id="a_node4"><a xlink:href="../../tables/chroncontrolaccuracyranks.html" xlink:title="chroncontrolaccuracyranks" target="_top">
<polygon fill="#ffffff" stroke="transparent" points="58.5,-348 58.5,-406 247.5,-406 247.5,-348 58.5,-348"/>
<polygon fill="#f5f5f5" stroke="transparent" points="59,-384 59,-406 248,-406 248,-384 59,-384"/>
<polygon fill="none" stroke="black" points="59,-384 59,-406 248,-406 248,-384 59,-384"/>
<text text-anchor="start" x="64" y="-393.2" font-family="Helvetica,sans-Serif" font-weight="bold" font-size="11.00">chroncontrolaccuracyranks</text>
<text text-anchor="start" x="213" y="-392.2" font-family="Helvetica,sans-Serif" font-size="11.00">[table]</text>
<polygon fill="none" stroke="black" points="59,-366 59,-384 248,-384 248,-366 59,-366"/>
<text text-anchor="start" x="62" y="-372.2" font-family="Helvetica,sans-Serif" font-size="11.00">...</text>
<polygon fill="#ffffff" stroke="transparent" points="59,-348 59,-366 129,-366 129,-348 59,-348"/>
<polygon fill="none" stroke="black" points="59,-348 59,-366 129,-366 129,-348 59,-348"/>
<text text-anchor="start" x="62" y="-354.2" font-family="Helvetica,sans-Serif" font-size="11.00"> &#160;</text>
<polygon fill="#ffffff" stroke="transparent" points="129,-348 129,-366 197,-366 197,-348 129,-348"/>
<polygon fill="none" stroke="black" points="129,-348 129,-366 197,-366 197,-348 129,-348"/>
<text text-anchor="start" x="161" y="-354.2" font-family="Helvetica,sans-Serif" font-size="11.00">8 rows</text>
<polygon fill="#ffffff" stroke="transparent" points="197,-348 197,-366 248,-366 248,-348 197,-348"/>
<polygon fill="none" stroke="black" points="197,-348 197,-366 248,-366 248,-348 197,-348"/>
<text text-anchor="start" x="229" y="-354.2" font-family="Helvetica,sans-Serif" font-size="11.00">1 &gt;</text>
</a>
</g>
</g>
<!-- chroncontrolranks&#45;&gt;chroncontrolaccuracyranks -->
<g id="edge3" class="edge">
<title>chroncontrolranks:w&#45;&gt;chroncontrolaccuracyranks:e</title>
<path fill="none" stroke="black" d="M332.69,-320.07C307.57,-335.5 259.25,-375 249,-375"/>
<polygon fill="black" stroke="black" points="338.72,-317.32 347.49,-317.28 342.36,-315.66 346,-314 346,-314 346,-314 342.36,-315.66 344.51,-310.72 338.72,-317.32 338.72,-317.32"/>
<ellipse fill="none" stroke="black" cx="335.81" cy="-318.65" rx="3.2" ry="3.2"/>
</g>
<!-- chroncontrols -->
<g id="node5" class="node">
<title>chroncontrols</title>
<g id="a_node5"><a xlink:href="../../tables/chroncontrols.html" xlink:title="chroncontrols" target="_top">
<polygon fill="#ffffff" stroke="transparent" points="93.5,-427 93.5,-485 212.5,-485 212.5,-427 93.5,-427"/>
<polygon fill="#f5f5f5" stroke="transparent" points="94,-463 94,-485 213,-485 213,-463 94,-463"/>
<polygon fill="none" stroke="black" points="94,-463 94,-485 213,-485 213,-463 94,-463"/>
<text text-anchor="start" x="99" y="-472.2" font-family="Helvetica,sans-Serif" font-weight="bold" font-size="11.00">chroncontrols</text>
<text text-anchor="start" x="178" y="-471.2" font-family="Helvetica,sans-Serif" font-size="11.00">[table]</text>
<polygon fill="none" stroke="black" points="94,-445 94,-463 213,-463 213,-445 94,-445"/>
<text text-anchor="start" x="97" y="-451.2" font-family="Helvetica,sans-Serif" font-size="11.00">...</text>
<polygon fill="#ffffff" stroke="transparent" points="94,-427 94,-445 117,-445 117,-427 94,-427"/>
<polygon fill="none" stroke="black" points="94,-427 94,-445 117,-445 117,-427 94,-427"/>
<text text-anchor="start" x="97" y="-433.2" font-family="Helvetica,sans-Serif" font-size="11.00">&lt; 4</text>
<polygon fill="#ffffff" stroke="transparent" points="117,-427 117,-445 190,-445 190,-427 117,-427"/>
<polygon fill="none" stroke="black" points="117,-427 117,-445 190,-445 190,-427 117,-427"/>
<text text-anchor="start" x="121" y="-433.2" font-family="Helvetica,sans-Serif" font-size="11.00">100,724 rows</text>
<polygon fill="#ffffff" stroke="transparent" points="190,-427 190,-445 213,-445 213,-427 190,-427"/>
<polygon fill="none" stroke="black" points="190,-427 190,-445 213,-445 213,-427 190,-427"/>
<text text-anchor="start" x="194" y="-433.2" font-family="Helvetica,sans-Serif" font-size="11.00">5 &gt;</text>
</a>
</g>
</g>
<!-- chroncontrolranks&#45;&gt;chroncontrols -->
<g id="edge4" class="edge">
<title>chroncontrolranks:w&#45;&gt;chroncontrols:e</title>
<path fill="none" stroke="black" d="M331.8,-339.63C313.66,-352.14 330.85,-393.98 306,-417 273.67,-446.95 258.07,-454 214,-454"/>
<polygon fill="black" stroke="black" points="338.25,-337.98 346.89,-339.49 342.12,-336.99 346,-336 346,-336 346,-336 342.12,-336.99 345.11,-332.51 338.25,-337.98 338.25,-337.98"/>
<ellipse fill="none" stroke="black" cx="335.15" cy="-338.77" rx="3.2" ry="3.2"/>
</g>
<!-- chroncontrolprecisionranks -->
<g id="node6" class="node">
<title>chroncontrolprecisionranks</title>
<g id="a_node6"><a xlink:href="../../tables/chroncontrolprecisionranks.html" xlink:title="chroncontrolprecisionranks" target="_top">
<polygon fill="#ffffff" stroke="transparent" points="57.5,-37 57.5,-95 248.5,-95 248.5,-37 57.5,-37"/>
<polygon fill="#f5f5f5" stroke="transparent" points="58,-73 58,-95 249,-95 249,-73 58,-73"/>
<polygon fill="none" stroke="black" points="58,-73 58,-95 249,-95 249,-73 58,-73"/>
<text text-anchor="start" x="63" y="-82.2" font-family="Helvetica,sans-Serif" font-weight="bold" font-size="11.00">chroncontrolprecisionranks</text>
<text text-anchor="start" x="214" y="-81.2" font-family="Helvetica,sans-Serif" font-size="11.00">[table]</text>
<polygon fill="none" stroke="black" points="58,-55 58,-73 249,-73 249,-55 58,-55"/>
<text text-anchor="start" x="61" y="-61.2" font-family="Helvetica,sans-Serif" font-size="11.00">...</text>
<polygon fill="#ffffff" stroke="transparent" points="58,-37 58,-55 129,-55 129,-37 58,-37"/>
<polygon fill="none" stroke="black" points="58,-37 58,-55 129,-55 129,-37 58,-37"/>
<text text-anchor="start" x="61" y="-43.2" font-family="Helvetica,sans-Serif" font-size="11.00"> &#160;</text>
<polygon fill="#ffffff" stroke="transparent" points="129,-37 129,-55 197,-55 197,-37 129,-37"/>
<polygon fill="none" stroke="black" points="129,-37 129,-55 197,-55 197,-37 129,-37"/>
<text text-anchor="start" x="161" y="-43.2" font-family="Helvetica,sans-Serif" font-size="11.00">8 rows</text>
<polygon fill="#ffffff" stroke="transparent" points="197,-37 197,-55 249,-55 249,-37 197,-37"/>
<polygon fill="none" stroke="black" points="197,-37 197,-55 249,-55 249,-37 197,-37"/>
<text text-anchor="start" x="230" y="-43.2" font-family="Helvetica,sans-Serif" font-size="11.00">1 &gt;</text>
</a>
</g>
</g>
<!-- chroncontrolranks&#45;&gt;chroncontrolprecisionranks -->
<g id="edge5" class="edge">
<title>chroncontrolranks:w&#45;&gt;chroncontrolprecisionranks:e</title>
<path fill="none" stroke="black" d="M331.53,-246.05C290.67,-232.81 339.81,-155.33 306,-106 288.41,-80.34 281.11,-64 250,-64"/>
<polygon fill="black" stroke="black" points="338.07,-246.93 345.52,-251.57 342.04,-247.46 346,-248 346,-248 346,-248 342.04,-247.46 346.48,-244.43 338.07,-246.93 338.07,-246.93"/>
<ellipse fill="none" stroke="black" cx="334.9" cy="-246.5" rx="3.2" ry="3.2"/>
</g>
</g>
</svg>
