<?xml version="1.0" encoding="UTF-8" standalone="no"?>
<!DOCTYPE svg PUBLIC "-//W3C//DTD SVG 1.1//EN"
 "http://www.w3.org/Graphics/SVG/1.1/DTD/svg11.dtd">
<!-- Generated by graphviz version 2.43.0 (0)
 -->
<!-- Title: oneDegreeRelationshipsDiagramImplied Pages: 1 -->
<svg width="756pt" height="982pt"
 viewBox="0.00 0.00 756.00 982.00" xmlns="http://www.w3.org/2000/svg" xmlns:xlink="http://www.w3.org/1999/xlink">
<g id="graph0" class="graph" transform="scale(1 1) rotate(0) translate(4 978)">
<title>oneDegreeRelationshipsDiagramImplied</title>
<polygon fill="#ffffff" stroke="transparent" points="-4,4 -4,-978 752,-978 752,4 -4,4"/>
<text text-anchor="middle" x="71.5" y="-7.2" font-family="Helvetica,sans-Serif" font-size="11.00">Generated by SchemaSpy</text>
<!-- analysisunits -->
<g id="node1" class="node">
<title>analysisunits</title>
<g id="a_node1"><a xlink:href="../../tables/analysisunits.html" xlink:title="analysisunits" target="_top">
<polygon fill="#ffffff" stroke="transparent" points="446.5,-846 446.5,-970 574.5,-970 574.5,-846 446.5,-846"/>
<polygon fill="#f5f5f5" stroke="transparent" points="446.5,-948 446.5,-970 574.5,-970 574.5,-948 446.5,-948"/>
<polygon fill="none" stroke="black" points="446.5,-948 446.5,-970 574.5,-970 574.5,-948 446.5,-948"/>
<text text-anchor="start" x="451.5" y="-957.2" font-family="Helvetica,sans-Serif" font-weight="bold" font-size="11.00">analysisunits</text>
<text text-anchor="start" x="539.5" y="-956.2" font-family="Helvetica,sans-Serif" font-size="11.00">[table]</text>
<polygon fill="none" stroke="black" points="446.5,-926 446.5,-948 574.5,-948 574.5,-926 446.5,-926"/>
<image xlink:href="../../images/primaryKeys.png" width="11px" height="12px" preserveAspectRatio="xMinYMin meet" x="451.5" y="-943"/>
<text text-anchor="start" x="466.5" y="-934.2" font-family="Helvetica,sans-Serif" font-size="11.00">analysisunitid</text>
<polygon fill="#ffffff" stroke="transparent" points="446.5,-904 446.5,-926 574.5,-926 574.5,-904 446.5,-904"/>
<polygon fill="none" stroke="black" points="446.5,-904 446.5,-926 574.5,-926 574.5,-904 446.5,-904"/>
<image xlink:href="../../images/foreignKeys.png" width="11px" height="12px" preserveAspectRatio="xMinYMin meet" x="451.5" y="-921"/>
<text text-anchor="start" x="466.5" y="-912.2" font-family="Helvetica,sans-Serif" font-size="11.00">collectionunitid</text>
<polygon fill="#ffffff" stroke="transparent" points="446.5,-882 446.5,-904 574.5,-904 574.5,-882 446.5,-882"/>
<polygon fill="none" stroke="black" points="446.5,-882 446.5,-904 574.5,-904 574.5,-882 446.5,-882"/>
<image xlink:href="../../images/foreignKeys.png" width="11px" height="12px" preserveAspectRatio="xMinYMin meet" x="451.5" y="-899"/>
<text text-anchor="start" x="466.5" y="-890.2" font-family="Helvetica,sans-Serif" font-size="11.00">faciesid</text>
<polygon fill="none" stroke="black" points="446.5,-864 446.5,-882 574.5,-882 574.5,-864 446.5,-864"/>
<text text-anchor="start" x="449.5" y="-870.2" font-family="Helvetica,sans-Serif" font-size="11.00">...</text>
<polygon fill="#ffffff" stroke="transparent" points="446.5,-846 446.5,-864 471.5,-864 471.5,-846 446.5,-846"/>
<polygon fill="none" stroke="black" points="446.5,-846 446.5,-864 471.5,-864 471.5,-846 446.5,-846"/>
<text text-anchor="start" x="449.5" y="-852.2" font-family="Helvetica,sans-Serif" font-size="11.00">&lt; 2</text>
<polygon fill="#ffffff" stroke="transparent" points="471.5,-846 471.5,-864 544.5,-864 544.5,-846 471.5,-846"/>
<polygon fill="none" stroke="black" points="471.5,-846 471.5,-864 544.5,-864 544.5,-846 471.5,-846"/>
<text text-anchor="start" x="475.5" y="-852.2" font-family="Helvetica,sans-Serif" font-size="11.00">486,580 rows</text>
<polygon fill="#ffffff" stroke="transparent" points="544.5,-846 544.5,-864 574.5,-864 574.5,-846 544.5,-846"/>
<polygon fill="none" stroke="black" points="544.5,-846 544.5,-864 574.5,-864 574.5,-846 544.5,-846"/>
<text text-anchor="start" x="549.5" y="-852.2" font-family="Helvetica,sans-Serif" font-size="11.00">10 &gt;</text>
</a>
</g>
</g>
<!-- collectionunits -->
<g id="node2" class="node">
<title>collectionunits</title>
<g id="a_node2"><a xlink:href="../../tables/collectionunits.html" xlink:title="collectionunits" target="_top">
<polygon fill="#ffffff" stroke="transparent" points="182,-37 182,-521 396,-521 396,-37 182,-37"/>
<polygon fill="#f5f5f5" stroke="transparent" points="184,-497 184,-519 394,-519 394,-497 184,-497"/>
<polygon fill="none" stroke="black" points="184,-497 184,-519 394,-519 394,-497 184,-497"/>
<text text-anchor="start" x="189" y="-506.2" font-family="Helvetica,sans-Serif" font-weight="bold" font-size="11.00">collectionunits</text>
<text text-anchor="start" x="359" y="-505.2" font-family="Helvetica,sans-Serif" font-size="11.00">[table]</text>
<polygon fill="none" stroke="black" points="184,-475 184,-497 304,-497 304,-475 184,-475"/>
<image xlink:href="../../images/primaryKeys.png" width="11px" height="12px" preserveAspectRatio="xMinYMin meet" x="189" y="-492"/>
<text text-anchor="start" x="204" y="-483.2" font-family="Helvetica,sans-Serif" font-size="11.00">collectionunitid</text>
<polygon fill="none" stroke="black" points="304,-475 304,-497 394,-497 394,-475 304,-475"/>
<text text-anchor="start" x="307" y="-483.2" font-family="Helvetica,sans-Serif" font-size="11.00">serial[10]</text>
<polygon fill="none" stroke="black" points="184,-453 184,-475 304,-475 304,-453 184,-453"/>
<text text-anchor="start" x="204" y="-461.2" font-family="Helvetica,sans-Serif" font-size="11.00">handle</text>
<polygon fill="none" stroke="black" points="304,-453 304,-475 394,-475 394,-453 304,-453"/>
<text text-anchor="start" x="307" y="-461.2" font-family="Helvetica,sans-Serif" font-size="11.00">varchar[10]</text>
<polygon fill="#ffffff" stroke="transparent" points="184,-431 184,-453 304,-453 304,-431 184,-431"/>
<polygon fill="none" stroke="black" points="184,-431 184,-453 304,-453 304,-431 184,-431"/>
<image xlink:href="../../images/foreignKeys.png" width="11px" height="12px" preserveAspectRatio="xMinYMin meet" x="189" y="-448"/>
<text text-anchor="start" x="204" y="-439.2" font-family="Helvetica,sans-Serif" font-size="11.00">siteid</text>
<polygon fill="none" stroke="black" points="304,-431 304,-453 394,-453 394,-431 304,-431"/>
<text text-anchor="start" x="307" y="-439.2" font-family="Helvetica,sans-Serif" font-size="11.00">int4[10]</text>
<polygon fill="none" stroke="black" points="184,-409 184,-431 304,-431 304,-409 184,-409"/>
<image xlink:href="../../images/foreignKeys.png" width="11px" height="12px" preserveAspectRatio="xMinYMin meet" x="189" y="-426"/>
<text text-anchor="start" x="204" y="-417.2" font-family="Helvetica,sans-Serif" font-size="11.00">colltypeid</text>
<polygon fill="none" stroke="black" points="304,-409 304,-431 394,-431 394,-409 304,-409"/>
<text text-anchor="start" x="307" y="-417.2" font-family="Helvetica,sans-Serif" font-size="11.00">int4[10]</text>
<polygon fill="#ffffff" stroke="transparent" points="184,-387 184,-409 304,-409 304,-387 184,-387"/>
<polygon fill="none" stroke="black" points="184,-387 184,-409 304,-409 304,-387 184,-387"/>
<image xlink:href="../../images/foreignKeys.png" width="11px" height="12px" preserveAspectRatio="xMinYMin meet" x="189" y="-404"/>
<text text-anchor="start" x="204" y="-395.2" font-family="Helvetica,sans-Serif" font-size="11.00">depenvtid</text>
<polygon fill="none" stroke="black" points="304,-387 304,-409 394,-409 394,-387 304,-387"/>
<text text-anchor="start" x="307" y="-395.2" font-family="Helvetica,sans-Serif" font-size="11.00">int4[10]</text>
<polygon fill="none" stroke="black" points="184,-365 184,-387 304,-387 304,-365 184,-365"/>
<text text-anchor="start" x="204" y="-373.2" font-family="Helvetica,sans-Serif" font-size="11.00">collunitname</text>
<polygon fill="none" stroke="black" points="304,-365 304,-387 394,-387 394,-365 304,-365"/>
<text text-anchor="start" x="307" y="-373.2" font-family="Helvetica,sans-Serif" font-size="11.00">varchar[255]</text>
<polygon fill="none" stroke="black" points="184,-343 184,-365 304,-365 304,-343 184,-343"/>
<text text-anchor="start" x="204" y="-351.2" font-family="Helvetica,sans-Serif" font-size="11.00">colldate</text>
<polygon fill="none" stroke="black" points="304,-343 304,-365 394,-365 394,-343 304,-343"/>
<text text-anchor="start" x="307" y="-351.2" font-family="Helvetica,sans-Serif" font-size="11.00">date[13]</text>
<polygon fill="none" stroke="black" points="184,-321 184,-343 304,-343 304,-321 184,-321"/>
<text text-anchor="start" x="204" y="-329.2" font-family="Helvetica,sans-Serif" font-size="11.00">colldevice</text>
<polygon fill="none" stroke="black" points="304,-321 304,-343 394,-343 394,-321 304,-321"/>
<text text-anchor="start" x="307" y="-329.2" font-family="Helvetica,sans-Serif" font-size="11.00">varchar[255]</text>
<polygon fill="none" stroke="black" points="184,-299 184,-321 304,-321 304,-299 184,-299"/>
<text text-anchor="start" x="204" y="-307.2" font-family="Helvetica,sans-Serif" font-size="11.00">gpslatitude</text>
<polygon fill="none" stroke="black" points="304,-299 304,-321 394,-321 394,-299 304,-299"/>
<text text-anchor="start" x="307" y="-307.2" font-family="Helvetica,sans-Serif" font-size="11.00">float8[17,17]</text>
<polygon fill="none" stroke="black" points="184,-277 184,-299 304,-299 304,-277 184,-277"/>
<text text-anchor="start" x="204" y="-285.2" font-family="Helvetica,sans-Serif" font-size="11.00">gpslongitude</text>
<polygon fill="none" stroke="black" points="304,-277 304,-299 394,-299 394,-277 304,-277"/>
<text text-anchor="start" x="307" y="-285.2" font-family="Helvetica,sans-Serif" font-size="11.00">float8[17,17]</text>
<polygon fill="none" stroke="black" points="184,-255 184,-277 304,-277 304,-255 184,-255"/>
<text text-anchor="start" x="204" y="-263.2" font-family="Helvetica,sans-Serif" font-size="11.00">gpsaltitude</text>
<polygon fill="none" stroke="black" points="304,-255 304,-277 394,-277 394,-255 304,-255"/>
<text text-anchor="start" x="307" y="-263.2" font-family="Helvetica,sans-Serif" font-size="11.00">float8[17,17]</text>
<polygon fill="none" stroke="black" points="184,-233 184,-255 304,-255 304,-233 184,-233"/>
<text text-anchor="start" x="204" y="-241.2" font-family="Helvetica,sans-Serif" font-size="11.00">gpserror</text>
<polygon fill="none" stroke="black" points="304,-233 304,-255 394,-255 394,-233 304,-233"/>
<text text-anchor="start" x="307" y="-241.2" font-family="Helvetica,sans-Serif" font-size="11.00">float8[17,17]</text>
<polygon fill="none" stroke="black" points="184,-211 184,-233 304,-233 304,-211 184,-211"/>
<text text-anchor="start" x="204" y="-219.2" font-family="Helvetica,sans-Serif" font-size="11.00">waterdepth</text>
<polygon fill="none" stroke="black" points="304,-211 304,-233 394,-233 394,-211 304,-211"/>
<text text-anchor="start" x="307" y="-219.2" font-family="Helvetica,sans-Serif" font-size="11.00">float8[17,17]</text>
<polygon fill="none" stroke="black" points="184,-189 184,-211 304,-211 304,-189 184,-189"/>
<image xlink:href="../../images/foreignKeys.png" width="11px" height="12px" preserveAspectRatio="xMinYMin meet" x="189" y="-206"/>
<text text-anchor="start" x="204" y="-197.2" font-family="Helvetica,sans-Serif" font-size="11.00">substrateid</text>
<polygon fill="none" stroke="black" points="304,-189 304,-211 394,-211 394,-189 304,-189"/>
<text text-anchor="start" x="307" y="-197.2" font-family="Helvetica,sans-Serif" font-size="11.00">int4[10]</text>
<polygon fill="none" stroke="black" points="184,-167 184,-189 304,-189 304,-167 184,-167"/>
<text text-anchor="start" x="204" y="-175.2" font-family="Helvetica,sans-Serif" font-size="11.00">slopeaspect</text>
<polygon fill="none" stroke="black" points="304,-167 304,-189 394,-189 394,-167 304,-167"/>
<text text-anchor="start" x="307" y="-175.2" font-family="Helvetica,sans-Serif" font-size="11.00">int4[10]</text>
<polygon fill="none" stroke="black" points="184,-145 184,-167 304,-167 304,-145 184,-145"/>
<text text-anchor="start" x="204" y="-153.2" font-family="Helvetica,sans-Serif" font-size="11.00">slopeangle</text>
<polygon fill="none" stroke="black" points="304,-145 304,-167 394,-167 394,-145 304,-145"/>
<text text-anchor="start" x="307" y="-153.2" font-family="Helvetica,sans-Serif" font-size="11.00">int4[10]</text>
<polygon fill="none" stroke="black" points="184,-123 184,-145 304,-145 304,-123 184,-123"/>
<text text-anchor="start" x="204" y="-131.2" font-family="Helvetica,sans-Serif" font-size="11.00">location</text>
<polygon fill="none" stroke="black" points="304,-123 304,-145 394,-145 394,-123 304,-123"/>
<text text-anchor="start" x="307" y="-131.2" font-family="Helvetica,sans-Serif" font-size="11.00">varchar[255]</text>
<polygon fill="none" stroke="black" points="184,-101 184,-123 304,-123 304,-101 184,-101"/>
<text text-anchor="start" x="204" y="-109.2" font-family="Helvetica,sans-Serif" font-size="11.00">notes</text>
<polygon fill="none" stroke="black" points="304,-101 304,-123 394,-123 394,-101 304,-101"/>
<text text-anchor="start" x="307" y="-109.2" font-family="Helvetica,sans-Serif" font-size="11.00">text[2147483647]</text>
<polygon fill="none" stroke="black" points="184,-79 184,-101 304,-101 304,-79 184,-79"/>
<text text-anchor="start" x="204" y="-87.2" font-family="Helvetica,sans-Serif" font-size="11.00">recdatecreated</text>
<polygon fill="none" stroke="black" points="304,-79 304,-101 394,-101 394,-79 304,-79"/>
<text text-anchor="start" x="307" y="-87.2" font-family="Helvetica,sans-Serif" font-size="11.00">timestamp[22]</text>
<polygon fill="none" stroke="black" points="184,-57 184,-79 304,-79 304,-57 184,-57"/>
<text text-anchor="start" x="204" y="-65.2" font-family="Helvetica,sans-Serif" font-size="11.00">recdatemodified</text>
<polygon fill="none" stroke="black" points="304,-57 304,-79 394,-79 394,-57 304,-57"/>
<text text-anchor="start" x="307" y="-65.2" font-family="Helvetica,sans-Serif" font-size="11.00">timestamp[22]</text>
<polygon fill="#ffffff" stroke="transparent" points="184,-39 184,-57 222,-57 222,-39 184,-39"/>
<polygon fill="none" stroke="black" points="184,-39 184,-57 222,-57 222,-39 184,-39"/>
<text text-anchor="start" x="187" y="-45.2" font-family="Helvetica,sans-Serif" font-size="11.00">&lt; 4</text>
<polygon fill="#ffffff" stroke="transparent" points="222,-39 222,-57 304,-57 304,-39 222,-39"/>
<polygon fill="none" stroke="black" points="222,-39 222,-57 304,-57 304,-39 222,-39"/>
<text text-anchor="start" x="241" y="-45.2" font-family="Helvetica,sans-Serif" font-size="11.00">33,980 rows</text>
<polygon fill="#ffffff" stroke="transparent" points="304,-39 304,-57 394,-57 394,-39 304,-39"/>
<polygon fill="none" stroke="black" points="304,-39 304,-57 394,-57 394,-39 304,-39"/>
<text text-anchor="start" x="375" y="-45.2" font-family="Helvetica,sans-Serif" font-size="11.00">6 &gt;</text>
<polygon fill="none" stroke="black" stroke-width="2" points="183,-38 183,-520 395,-520 395,-38 183,-38"/>
</a>
</g>
</g>
<!-- analysisunits&#45;&gt;collectionunits -->
<g id="edge1" class="edge">
<title>analysisunits:w&#45;&gt;collectionunits:e</title>
<path fill="none" stroke="black" d="M431.39,-911.03C364.77,-867.78 485.55,-486 395,-486"/>
<polygon fill="black" stroke="black" points="437.8,-912.83 444.52,-918.47 441.65,-913.92 445.5,-915 445.5,-915 445.5,-915 441.65,-913.92 446.48,-911.53 437.8,-912.83 437.8,-912.83"/>
<ellipse fill="none" stroke="black" cx="434.72" cy="-911.96" rx="3.2" ry="3.2"/>
</g>
<!-- collectiontypes -->
<g id="node4" class="node">
<title>collectiontypes</title>
<g id="a_node4"><a xlink:href="../../tables/collectiontypes.html" xlink:title="collectiontypes" target="_top">
<polygon fill="#ffffff" stroke="transparent" points="8.5,-375 8.5,-455 132.5,-455 132.5,-375 8.5,-375"/>
<polygon fill="#f5f5f5" stroke="transparent" points="8.5,-433 8.5,-455 132.5,-455 132.5,-433 8.5,-433"/>
<polygon fill="none" stroke="black" points="8.5,-433 8.5,-455 132.5,-455 132.5,-433 8.5,-433"/>
<text text-anchor="start" x="13.5" y="-442.2" font-family="Helvetica,sans-Serif" font-weight="bold" font-size="11.00">collectiontypes</text>
<text text-anchor="start" x="97.5" y="-441.2" font-family="Helvetica,sans-Serif" font-size="11.00">[table]</text>
<polygon fill="none" stroke="black" points="8.5,-411 8.5,-433 132.5,-433 132.5,-411 8.5,-411"/>
<image xlink:href="../../images/primaryKeys.png" width="11px" height="12px" preserveAspectRatio="xMinYMin meet" x="13.5" y="-428"/>
<text text-anchor="start" x="30.5" y="-419.2" font-family="Helvetica,sans-Serif" font-size="11.00">colltypeid</text>
<polygon fill="none" stroke="black" points="8.5,-393 8.5,-411 132.5,-411 132.5,-393 8.5,-393"/>
<text text-anchor="start" x="11.5" y="-399.2" font-family="Helvetica,sans-Serif" font-size="11.00">...</text>
<polygon fill="#ffffff" stroke="transparent" points="8.5,-375 8.5,-393 43.5,-393 43.5,-375 8.5,-375"/>
<polygon fill="none" stroke="black" points="8.5,-375 8.5,-393 43.5,-393 43.5,-375 8.5,-375"/>
<text text-anchor="start" x="11.5" y="-381.2" font-family="Helvetica,sans-Serif" font-size="11.00"> &#160;</text>
<polygon fill="#ffffff" stroke="transparent" points="43.5,-375 43.5,-393 99.5,-393 99.5,-375 43.5,-375"/>
<polygon fill="none" stroke="black" points="43.5,-375 43.5,-393 99.5,-393 99.5,-375 43.5,-375"/>
<text text-anchor="start" x="57.5" y="-381.2" font-family="Helvetica,sans-Serif" font-size="11.00">11 rows</text>
<polygon fill="#ffffff" stroke="transparent" points="99.5,-375 99.5,-393 132.5,-393 132.5,-375 99.5,-375"/>
<polygon fill="none" stroke="black" points="99.5,-375 99.5,-393 132.5,-393 132.5,-375 99.5,-375"/>
<text text-anchor="start" x="113.5" y="-381.2" font-family="Helvetica,sans-Serif" font-size="11.00">1 &gt;</text>
</a>
</g>
</g>
<!-- collectionunits&#45;&gt;collectiontypes -->
<g id="edge3" class="edge">
<title>collectionunits:w&#45;&gt;collectiontypes:e</title>
<path fill="none" stroke="black" d="M168.34,-420.35C156.91,-420.92 149.67,-422 133.5,-422"/>
<polygon fill="black" stroke="black" points="175,-420.19 183.09,-423.6 179,-420.1 183,-420 183,-420 183,-420 179,-420.1 182.91,-416.4 175,-420.19 175,-420.19"/>
<ellipse fill="none" stroke="black" cx="171.8" cy="-420.27" rx="3.2" ry="3.2"/>
</g>
<!-- depenvttypes -->
<g id="node5" class="node">
<title>depenvttypes</title>
<g id="a_node5"><a xlink:href="../../tables/depenvttypes.html" xlink:title="depenvttypes" target="_top">
<polygon fill="#ffffff" stroke="transparent" points="10,-252 10,-354 131,-354 131,-252 10,-252"/>
<polygon fill="#f5f5f5" stroke="transparent" points="10.5,-332 10.5,-354 131.5,-354 131.5,-332 10.5,-332"/>
<polygon fill="none" stroke="black" points="10.5,-332 10.5,-354 131.5,-354 131.5,-332 10.5,-332"/>
<text text-anchor="start" x="15.5" y="-341.2" font-family="Helvetica,sans-Serif" font-weight="bold" font-size="11.00">depenvttypes</text>
<text text-anchor="start" x="96.5" y="-340.2" font-family="Helvetica,sans-Serif" font-size="11.00">[table]</text>
<polygon fill="none" stroke="black" points="10.5,-310 10.5,-332 131.5,-332 131.5,-310 10.5,-310"/>
<image xlink:href="../../images/primaryKeys.png" width="11px" height="12px" preserveAspectRatio="xMinYMin meet" x="15.5" y="-327"/>
<text text-anchor="start" x="30.5" y="-318.2" font-family="Helvetica,sans-Serif" font-size="11.00">depenvtid</text>
<polygon fill="none" stroke="black" points="10.5,-288 10.5,-310 131.5,-310 131.5,-288 10.5,-288"/>
<image xlink:href="../../images/foreignKeys.png" width="11px" height="12px" preserveAspectRatio="xMinYMin meet" x="15.5" y="-305"/>
<text text-anchor="start" x="30.5" y="-296.2" font-family="Helvetica,sans-Serif" font-size="11.00">depenvthigherid</text>
<polygon fill="none" stroke="black" points="10.5,-270 10.5,-288 131.5,-288 131.5,-270 10.5,-270"/>
<text text-anchor="start" x="13.5" y="-276.2" font-family="Helvetica,sans-Serif" font-size="11.00">...</text>
<polygon fill="#ffffff" stroke="transparent" points="10.5,-252 10.5,-270 45.5,-270 45.5,-252 10.5,-252"/>
<polygon fill="none" stroke="black" points="10.5,-252 10.5,-270 45.5,-270 45.5,-252 10.5,-252"/>
<text text-anchor="start" x="13.5" y="-258.2" font-family="Helvetica,sans-Serif" font-size="11.00">&lt; 1</text>
<polygon fill="#ffffff" stroke="transparent" points="45.5,-252 45.5,-270 102.5,-270 102.5,-252 45.5,-252"/>
<polygon fill="none" stroke="black" points="45.5,-252 45.5,-270 102.5,-270 102.5,-252 45.5,-252"/>
<text text-anchor="start" x="54.5" y="-258.2" font-family="Helvetica,sans-Serif" font-size="11.00">222 rows</text>
<polygon fill="#ffffff" stroke="transparent" points="102.5,-252 102.5,-270 131.5,-270 131.5,-252 102.5,-252"/>
<polygon fill="none" stroke="black" points="102.5,-252 102.5,-270 131.5,-270 131.5,-252 102.5,-252"/>
<text text-anchor="start" x="112.5" y="-258.2" font-family="Helvetica,sans-Serif" font-size="11.00">2 &gt;</text>
</a>
</g>
</g>
<!-- collectionunits&#45;&gt;depenvttypes -->
<g id="edge4" class="edge">
<title>collectionunits:w&#45;&gt;depenvttypes:e</title>
<path fill="none" stroke="black" d="M169.08,-393.41C149.79,-376.84 167.35,-321 132.5,-321"/>
<polygon fill="black" stroke="black" points="175.4,-395.5 181.87,-401.42 179.2,-396.75 183,-398 183,-398 183,-398 179.2,-396.75 184.13,-394.58 175.4,-395.5 175.4,-395.5"/>
<ellipse fill="none" stroke="black" cx="172.36" cy="-394.5" rx="3.2" ry="3.2"/>
</g>
<!-- sites -->
<g id="node6" class="node">
<title>sites</title>
<g id="a_node6"><a xlink:href="../../tables/sites.html" xlink:title="sites" target="_top">
<polygon fill="#ffffff" stroke="transparent" points="10.5,-476 10.5,-600 130.5,-600 130.5,-476 10.5,-476"/>
<polygon fill="#f5f5f5" stroke="transparent" points="10.5,-578 10.5,-600 130.5,-600 130.5,-578 10.5,-578"/>
<polygon fill="none" stroke="black" points="10.5,-578 10.5,-600 130.5,-600 130.5,-578 10.5,-578"/>
<text text-anchor="start" x="15.5" y="-587.2" font-family="Helvetica,sans-Serif" font-weight="bold" font-size="11.00">sites</text>
<text text-anchor="start" x="95.5" y="-586.2" font-family="Helvetica,sans-Serif" font-size="11.00">[table]</text>
<polygon fill="none" stroke="black" points="10.5,-556 10.5,-578 130.5,-578 130.5,-556 10.5,-556"/>
<image xlink:href="../../images/primaryKeys.png" width="11px" height="12px" preserveAspectRatio="xMinYMin meet" x="15.5" y="-573"/>
<text text-anchor="start" x="30.5" y="-564.2" font-family="Helvetica,sans-Serif" font-size="11.00">siteid</text>
<polygon fill="#ffffff" stroke="transparent" points="10.5,-534 10.5,-556 130.5,-556 130.5,-534 10.5,-534"/>
<polygon fill="none" stroke="black" points="10.5,-534 10.5,-556 130.5,-556 130.5,-534 10.5,-534"/>
<text text-anchor="start" x="30.5" y="-542.2" font-family="Helvetica,sans-Serif" font-size="11.00">sitename</text>
<polygon fill="#ffffff" stroke="transparent" points="10.5,-512 10.5,-534 130.5,-534 130.5,-512 10.5,-512"/>
<polygon fill="none" stroke="black" points="10.5,-512 10.5,-534 130.5,-534 130.5,-512 10.5,-512"/>
<text text-anchor="start" x="30.5" y="-520.2" font-family="Helvetica,sans-Serif" font-size="11.00">geog</text>
<polygon fill="none" stroke="black" points="10.5,-494 10.5,-512 130.5,-512 130.5,-494 10.5,-494"/>
<text text-anchor="start" x="13.5" y="-500.2" font-family="Helvetica,sans-Serif" font-size="11.00">...</text>
<polygon fill="#ffffff" stroke="transparent" points="10.5,-476 10.5,-494 32.5,-494 32.5,-476 10.5,-476"/>
<polygon fill="none" stroke="black" points="10.5,-476 10.5,-494 32.5,-494 32.5,-476 10.5,-476"/>
<text text-anchor="start" x="13.5" y="-482.2" font-family="Helvetica,sans-Serif" font-size="11.00"> &#160;</text>
<polygon fill="#ffffff" stroke="transparent" points="32.5,-476 32.5,-494 103.5,-494 103.5,-476 32.5,-476"/>
<polygon fill="none" stroke="black" points="32.5,-476 32.5,-494 103.5,-494 103.5,-476 32.5,-476"/>
<text text-anchor="start" x="40.5" y="-482.2" font-family="Helvetica,sans-Serif" font-size="11.00">22,697 rows</text>
<polygon fill="#ffffff" stroke="transparent" points="103.5,-476 103.5,-494 130.5,-494 130.5,-476 103.5,-476"/>
<polygon fill="none" stroke="black" points="103.5,-476 103.5,-494 130.5,-494 130.5,-476 103.5,-476"/>
<text text-anchor="start" x="111.5" y="-482.2" font-family="Helvetica,sans-Serif" font-size="11.00">4 &gt;</text>
</a>
</g>
</g>
<!-- collectionunits&#45;&gt;sites -->
<g id="edge5" class="edge">
<title>collectionunits:w&#45;&gt;sites:e</title>
<path fill="none" stroke="black" d="M168.84,-445.34C135.1,-465.22 185.72,-567 131.5,-567"/>
<polygon fill="black" stroke="black" points="175.21,-443.84 183.83,-445.5 179.11,-442.92 183,-442 183,-442 183,-442 179.11,-442.92 182.17,-438.5 175.21,-443.84 175.21,-443.84"/>
<ellipse fill="none" stroke="black" cx="172.1" cy="-444.57" rx="3.2" ry="3.2"/>
</g>
<!-- rocktypes -->
<g id="node7" class="node">
<title>rocktypes</title>
<g id="a_node7"><a xlink:href="../../tables/rocktypes.html" xlink:title="rocktypes" target="_top">
<polygon fill="#ffffff" stroke="transparent" points="8,-129 8,-231 133,-231 133,-129 8,-129"/>
<polygon fill="#f5f5f5" stroke="transparent" points="8.5,-209 8.5,-231 133.5,-231 133.5,-209 8.5,-209"/>
<polygon fill="none" stroke="black" points="8.5,-209 8.5,-231 133.5,-231 133.5,-209 8.5,-209"/>
<text text-anchor="start" x="13.5" y="-218.2" font-family="Helvetica,sans-Serif" font-weight="bold" font-size="11.00">rocktypes</text>
<text text-anchor="start" x="98.5" y="-217.2" font-family="Helvetica,sans-Serif" font-size="11.00">[table]</text>
<polygon fill="none" stroke="black" points="8.5,-187 8.5,-209 133.5,-209 133.5,-187 8.5,-187"/>
<image xlink:href="../../images/primaryKeys.png" width="11px" height="12px" preserveAspectRatio="xMinYMin meet" x="13.5" y="-204"/>
<text text-anchor="start" x="28.5" y="-195.2" font-family="Helvetica,sans-Serif" font-size="11.00">rocktypeid</text>
<polygon fill="none" stroke="black" points="8.5,-165 8.5,-187 133.5,-187 133.5,-165 8.5,-165"/>
<image xlink:href="../../images/foreignKeys.png" width="11px" height="12px" preserveAspectRatio="xMinYMin meet" x="13.5" y="-182"/>
<text text-anchor="start" x="28.5" y="-173.2" font-family="Helvetica,sans-Serif" font-size="11.00">higherrocktypeid</text>
<polygon fill="none" stroke="black" points="8.5,-147 8.5,-165 133.5,-165 133.5,-147 8.5,-147"/>
<text text-anchor="start" x="11.5" y="-153.2" font-family="Helvetica,sans-Serif" font-size="11.00">...</text>
<polygon fill="#ffffff" stroke="transparent" points="8.5,-129 8.5,-147 45.5,-147 45.5,-129 8.5,-129"/>
<polygon fill="none" stroke="black" points="8.5,-129 8.5,-147 45.5,-147 45.5,-129 8.5,-129"/>
<text text-anchor="start" x="11.5" y="-135.2" font-family="Helvetica,sans-Serif" font-size="11.00">&lt; 1</text>
<polygon fill="#ffffff" stroke="transparent" points="45.5,-129 45.5,-147 103.5,-147 103.5,-129 45.5,-129"/>
<polygon fill="none" stroke="black" points="45.5,-129 45.5,-147 103.5,-147 103.5,-129 45.5,-129"/>
<text text-anchor="start" x="55.5" y="-135.2" font-family="Helvetica,sans-Serif" font-size="11.00">206 rows</text>
<polygon fill="#ffffff" stroke="transparent" points="103.5,-129 103.5,-147 133.5,-147 133.5,-129 103.5,-129"/>
<polygon fill="none" stroke="black" points="103.5,-129 103.5,-147 133.5,-147 133.5,-129 103.5,-129"/>
<text text-anchor="start" x="114.5" y="-135.2" font-family="Helvetica,sans-Serif" font-size="11.00">2 &gt;</text>
</a>
</g>
</g>
<!-- collectionunits&#45;&gt;rocktypes -->
<g id="edge6" class="edge">
<title>collectionunits:w&#45;&gt;rocktypes:e</title>
<path fill="none" stroke="black" d="M168.28,-199.63C157.29,-199.06 150.17,-198 134.5,-198"/>
<polygon fill="black" stroke="black" points="175,-199.8 182.91,-203.6 179,-199.9 183,-200 183,-200 183,-200 179,-199.9 183.09,-196.4 175,-199.8 175,-199.8"/>
<ellipse fill="none" stroke="black" cx="171.8" cy="-199.72" rx="3.2" ry="3.2"/>
</g>
<!-- chronologies -->
<g id="node3" class="node">
<title>chronologies</title>
<g id="a_node3"><a xlink:href="../../tables/chronologies.html" xlink:title="chronologies" target="_top">
<polygon fill="#ffffff" stroke="transparent" points="445,-635 445,-825 576,-825 576,-635 445,-635"/>
<polygon fill="#f5f5f5" stroke="transparent" points="445.5,-803 445.5,-825 576.5,-825 576.5,-803 445.5,-803"/>
<polygon fill="none" stroke="black" points="445.5,-803 445.5,-825 576.5,-825 576.5,-803 445.5,-803"/>
<text text-anchor="start" x="450.5" y="-812.2" font-family="Helvetica,sans-Serif" font-weight="bold" font-size="11.00">chronologies</text>
<text text-anchor="start" x="541.5" y="-811.2" font-family="Helvetica,sans-Serif" font-size="11.00">[table]</text>
<polygon fill="none" stroke="black" points="445.5,-781 445.5,-803 576.5,-803 576.5,-781 445.5,-781"/>
<image xlink:href="../../images/primaryKeys.png" width="11px" height="12px" preserveAspectRatio="xMinYMin meet" x="450.5" y="-798"/>
<text text-anchor="start" x="465.5" y="-789.2" font-family="Helvetica,sans-Serif" font-size="11.00">chronologyid</text>
<polygon fill="none" stroke="black" points="445.5,-759 445.5,-781 576.5,-781 576.5,-759 445.5,-759"/>
<image xlink:href="../../images/foreignKeys.png" width="11px" height="12px" preserveAspectRatio="xMinYMin meet" x="450.5" y="-776"/>
<text text-anchor="start" x="465.5" y="-767.2" font-family="Helvetica,sans-Serif" font-size="11.00">collectionunitid</text>
<polygon fill="none" stroke="black" points="445.5,-737 445.5,-759 576.5,-759 576.5,-737 445.5,-737"/>
<image xlink:href="../../images/foreignKeys.png" width="11px" height="12px" preserveAspectRatio="xMinYMin meet" x="450.5" y="-754"/>
<text text-anchor="start" x="465.5" y="-745.2" font-family="Helvetica,sans-Serif" font-size="11.00">agetypeid</text>
<polygon fill="none" stroke="black" points="445.5,-715 445.5,-737 576.5,-737 576.5,-715 445.5,-715"/>
<image xlink:href="../../images/foreignKeys.png" width="11px" height="12px" preserveAspectRatio="xMinYMin meet" x="450.5" y="-732"/>
<text text-anchor="start" x="465.5" y="-723.2" font-family="Helvetica,sans-Serif" font-size="11.00">contactid</text>
<polygon fill="#ffffff" stroke="transparent" points="445.5,-693 445.5,-715 576.5,-715 576.5,-693 445.5,-693"/>
<polygon fill="none" stroke="black" points="445.5,-693 445.5,-715 576.5,-715 576.5,-693 445.5,-693"/>
<text text-anchor="start" x="465.5" y="-701.2" font-family="Helvetica,sans-Serif" font-size="11.00">ageboundyounger</text>
<polygon fill="#ffffff" stroke="transparent" points="445.5,-671 445.5,-693 576.5,-693 576.5,-671 445.5,-671"/>
<polygon fill="none" stroke="black" points="445.5,-671 445.5,-693 576.5,-693 576.5,-671 445.5,-671"/>
<text text-anchor="start" x="465.5" y="-679.2" font-family="Helvetica,sans-Serif" font-size="11.00">ageboundolder</text>
<polygon fill="none" stroke="black" points="445.5,-653 445.5,-671 576.5,-671 576.5,-653 445.5,-653"/>
<text text-anchor="start" x="448.5" y="-659.2" font-family="Helvetica,sans-Serif" font-size="11.00">...</text>
<polygon fill="#ffffff" stroke="transparent" points="445.5,-635 445.5,-653 477.5,-653 477.5,-635 445.5,-635"/>
<polygon fill="none" stroke="black" points="445.5,-635 445.5,-653 477.5,-653 477.5,-635 445.5,-635"/>
<text text-anchor="start" x="448.5" y="-641.2" font-family="Helvetica,sans-Serif" font-size="11.00">&lt; 3</text>
<polygon fill="#ffffff" stroke="transparent" points="477.5,-635 477.5,-653 548.5,-653 548.5,-635 477.5,-635"/>
<polygon fill="none" stroke="black" points="477.5,-635 477.5,-653 548.5,-653 548.5,-635 477.5,-635"/>
<text text-anchor="start" x="485.5" y="-641.2" font-family="Helvetica,sans-Serif" font-size="11.00">32,182 rows</text>
<polygon fill="#ffffff" stroke="transparent" points="548.5,-635 548.5,-653 576.5,-653 576.5,-635 548.5,-635"/>
<polygon fill="none" stroke="black" points="548.5,-635 548.5,-653 576.5,-653 576.5,-635 548.5,-635"/>
<text text-anchor="start" x="557.5" y="-641.2" font-family="Helvetica,sans-Serif" font-size="11.00">3 &gt;</text>
</a>
</g>
</g>
<!-- chronologies&#45;&gt;collectionunits -->
<g id="edge2" class="edge">
<title>chronologies:w&#45;&gt;collectionunits:e</title>
<path fill="none" stroke="black" d="M431.21,-764.33C392.64,-724.3 453.68,-486 395,-486"/>
<polygon fill="black" stroke="black" points="437.14,-766.86 443.09,-773.31 440.82,-768.43 444.5,-770 444.5,-770 444.5,-770 440.82,-768.43 445.91,-766.69 437.14,-766.86 437.14,-766.86"/>
<ellipse fill="none" stroke="black" cx="434.2" cy="-765.6" rx="3.2" ry="3.2"/>
</g>
<!-- collectors -->
<g id="node8" class="node">
<title>collectors</title>
<g id="a_node8"><a xlink:href="../../tables/collectors.html" xlink:title="collectors" target="_top">
<polygon fill="#ffffff" stroke="transparent" points="450.5,-490 450.5,-614 570.5,-614 570.5,-490 450.5,-490"/>
<polygon fill="#f5f5f5" stroke="transparent" points="450.5,-592 450.5,-614 570.5,-614 570.5,-592 450.5,-592"/>
<polygon fill="none" stroke="black" points="450.5,-592 450.5,-614 570.5,-614 570.5,-592 450.5,-592"/>
<text text-anchor="start" x="455.5" y="-601.2" font-family="Helvetica,sans-Serif" font-weight="bold" font-size="11.00">collectors</text>
<text text-anchor="start" x="535.5" y="-600.2" font-family="Helvetica,sans-Serif" font-size="11.00">[table]</text>
<polygon fill="none" stroke="black" points="450.5,-570 450.5,-592 570.5,-592 570.5,-570 450.5,-570"/>
<image xlink:href="../../images/primaryKeys.png" width="11px" height="12px" preserveAspectRatio="xMinYMin meet" x="455.5" y="-587"/>
<text text-anchor="start" x="470.5" y="-578.2" font-family="Helvetica,sans-Serif" font-size="11.00">collectorid</text>
<polygon fill="none" stroke="black" points="450.5,-548 450.5,-570 570.5,-570 570.5,-548 450.5,-548"/>
<image xlink:href="../../images/foreignKeys.png" width="11px" height="12px" preserveAspectRatio="xMinYMin meet" x="455.5" y="-565"/>
<text text-anchor="start" x="470.5" y="-556.2" font-family="Helvetica,sans-Serif" font-size="11.00">collectionunitid</text>
<polygon fill="none" stroke="black" points="450.5,-526 450.5,-548 570.5,-548 570.5,-526 450.5,-526"/>
<image xlink:href="../../images/foreignKeys.png" width="11px" height="12px" preserveAspectRatio="xMinYMin meet" x="455.5" y="-543"/>
<text text-anchor="start" x="470.5" y="-534.2" font-family="Helvetica,sans-Serif" font-size="11.00">contactid</text>
<polygon fill="none" stroke="black" points="450.5,-508 450.5,-526 570.5,-526 570.5,-508 450.5,-508"/>
<text text-anchor="start" x="453.5" y="-514.2" font-family="Helvetica,sans-Serif" font-size="11.00">...</text>
<polygon fill="#ffffff" stroke="transparent" points="450.5,-490 450.5,-508 481.5,-508 481.5,-490 450.5,-490"/>
<polygon fill="none" stroke="black" points="450.5,-490 450.5,-508 481.5,-508 481.5,-490 450.5,-490"/>
<text text-anchor="start" x="453.5" y="-496.2" font-family="Helvetica,sans-Serif" font-size="11.00">&lt; 2</text>
<polygon fill="#ffffff" stroke="transparent" points="481.5,-490 481.5,-508 552.5,-508 552.5,-490 481.5,-490"/>
<polygon fill="none" stroke="black" points="481.5,-490 481.5,-508 552.5,-508 552.5,-490 481.5,-490"/>
<text text-anchor="start" x="489.5" y="-496.2" font-family="Helvetica,sans-Serif" font-size="11.00">47,972 rows</text>
<polygon fill="#ffffff" stroke="transparent" points="552.5,-490 552.5,-508 570.5,-508 570.5,-490 552.5,-490"/>
<polygon fill="none" stroke="black" points="552.5,-490 552.5,-508 570.5,-508 570.5,-490 552.5,-490"/>
<text text-anchor="start" x="560.5" y="-496.2" font-family="Helvetica,sans-Serif" font-size="11.00"> &#160;</text>
</a>
</g>
</g>
<!-- collectors&#45;&gt;collectionunits -->
<g id="edge7" class="edge">
<title>collectors:w&#45;&gt;collectionunits:e</title>
<path fill="none" stroke="black" d="M435.46,-554.65C415.4,-538.94 429.48,-486 395,-486"/>
<polygon fill="black" stroke="black" points="441.86,-556.63 448.44,-562.44 445.68,-557.82 449.5,-559 449.5,-559 449.5,-559 445.68,-557.82 450.56,-555.56 441.86,-556.63 441.86,-556.63"/>
<ellipse fill="none" stroke="black" cx="438.8" cy="-555.69" rx="3.2" ry="3.2"/>
</g>
<!-- datasets -->
<g id="node9" class="node">
<title>datasets</title>
<g id="a_node9"><a xlink:href="../../tables/datasets.html" xlink:title="datasets" target="_top">
<polygon fill="#ffffff" stroke="transparent" points="450.5,-323 450.5,-469 570.5,-469 570.5,-323 450.5,-323"/>
<polygon fill="#f5f5f5" stroke="transparent" points="450.5,-447 450.5,-469 570.5,-469 570.5,-447 450.5,-447"/>
<polygon fill="none" stroke="black" points="450.5,-447 450.5,-469 570.5,-469 570.5,-447 450.5,-447"/>
<text text-anchor="start" x="455.5" y="-456.2" font-family="Helvetica,sans-Serif" font-weight="bold" font-size="11.00">datasets</text>
<text text-anchor="start" x="535.5" y="-455.2" font-family="Helvetica,sans-Serif" font-size="11.00">[table]</text>
<polygon fill="none" stroke="black" points="450.5,-425 450.5,-447 570.5,-447 570.5,-425 450.5,-425"/>
<image xlink:href="../../images/primaryKeys.png" width="11px" height="12px" preserveAspectRatio="xMinYMin meet" x="455.5" y="-442"/>
<text text-anchor="start" x="470.5" y="-433.2" font-family="Helvetica,sans-Serif" font-size="11.00">datasetid</text>
<polygon fill="#ffffff" stroke="transparent" points="450.5,-403 450.5,-425 570.5,-425 570.5,-403 450.5,-403"/>
<polygon fill="none" stroke="black" points="450.5,-403 450.5,-425 570.5,-425 570.5,-403 450.5,-403"/>
<image xlink:href="../../images/foreignKeys.png" width="11px" height="12px" preserveAspectRatio="xMinYMin meet" x="455.5" y="-420"/>
<text text-anchor="start" x="470.5" y="-411.2" font-family="Helvetica,sans-Serif" font-size="11.00">collectionunitid</text>
<polygon fill="#ffffff" stroke="transparent" points="450.5,-381 450.5,-403 570.5,-403 570.5,-381 450.5,-381"/>
<polygon fill="none" stroke="black" points="450.5,-381 450.5,-403 570.5,-403 570.5,-381 450.5,-381"/>
<image xlink:href="../../images/foreignKeys.png" width="11px" height="12px" preserveAspectRatio="xMinYMin meet" x="455.5" y="-398"/>
<text text-anchor="start" x="470.5" y="-389.2" font-family="Helvetica,sans-Serif" font-size="11.00">datasettypeid</text>
<polygon fill="none" stroke="black" points="450.5,-359 450.5,-381 570.5,-381 570.5,-359 450.5,-359"/>
<image xlink:href="../../images/foreignKeys.png" width="11px" height="12px" preserveAspectRatio="xMinYMin meet" x="455.5" y="-376"/>
<text text-anchor="start" x="470.5" y="-367.2" font-family="Helvetica,sans-Serif" font-size="11.00">embargoid</text>
<polygon fill="none" stroke="black" points="450.5,-341 450.5,-359 570.5,-359 570.5,-341 450.5,-341"/>
<text text-anchor="start" x="453.5" y="-347.2" font-family="Helvetica,sans-Serif" font-size="11.00">...</text>
<polygon fill="#ffffff" stroke="transparent" points="450.5,-323 450.5,-341 474.5,-341 474.5,-323 450.5,-323"/>
<polygon fill="none" stroke="black" points="450.5,-323 450.5,-341 474.5,-341 474.5,-323 450.5,-323"/>
<text text-anchor="start" x="453.5" y="-329.2" font-family="Helvetica,sans-Serif" font-size="11.00">&lt; 3</text>
<polygon fill="#ffffff" stroke="transparent" points="474.5,-323 474.5,-341 541.5,-341 541.5,-323 474.5,-323"/>
<polygon fill="none" stroke="black" points="474.5,-323 474.5,-341 541.5,-341 541.5,-323 474.5,-323"/>
<text text-anchor="start" x="478.5" y="-329.2" font-family="Helvetica,sans-Serif" font-size="11.00">49,780 rows</text>
<polygon fill="#ffffff" stroke="transparent" points="541.5,-323 541.5,-341 570.5,-341 570.5,-323 541.5,-323"/>
<polygon fill="none" stroke="black" points="541.5,-323 541.5,-341 570.5,-341 570.5,-323 541.5,-323"/>
<text text-anchor="start" x="545.5" y="-329.2" font-family="Helvetica,sans-Serif" font-size="11.00">17 &gt;</text>
</a>
</g>
</g>
<!-- datasets&#45;&gt;collectionunits -->
<g id="edge8" class="edge">
<title>datasets:w&#45;&gt;collectionunits:e</title>
<path fill="none" stroke="black" d="M435.55,-418.29C415.56,-433.79 429.18,-486 395,-486"/>
<polygon fill="black" stroke="black" points="441.85,-416.35 450.56,-417.44 445.68,-415.18 449.5,-414 449.5,-414 449.5,-414 445.68,-415.18 448.44,-410.56 441.85,-416.35 441.85,-416.35"/>
<ellipse fill="none" stroke="black" cx="438.79" cy="-417.29" rx="3.2" ry="3.2"/>
</g>
<!-- dslinks -->
<g id="node10" class="node">
<title>dslinks</title>
<g id="a_node10"><a xlink:href="../../tables/dslinks.html" xlink:title="dslinks" target="_top">
<polygon fill="#ffffff" stroke="transparent" points="625,-327 625,-411 740,-411 740,-327 625,-327"/>
<polygon fill="#f5f5f5" stroke="transparent" points="625.5,-389 625.5,-411 740.5,-411 740.5,-389 625.5,-389"/>
<polygon fill="none" stroke="black" points="625.5,-389 625.5,-411 740.5,-411 740.5,-389 625.5,-389"/>
<text text-anchor="start" x="630.5" y="-398.2" font-family="Helvetica,sans-Serif" font-weight="bold" font-size="11.00">dslinks</text>
<text text-anchor="start" x="707.5" y="-397.2" font-family="Helvetica,sans-Serif" font-size="11.00">[view]</text>
<polygon fill="none" stroke="black" points="625.5,-367 625.5,-389 740.5,-389 740.5,-367 625.5,-367"/>
<image xlink:href="../../images/foreignKeys.png" width="11px" height="12px" preserveAspectRatio="xMinYMin meet" x="630.5" y="-384"/>
<text text-anchor="start" x="645.5" y="-375.2" font-family="Helvetica,sans-Serif" font-size="11.00">datasetid</text>
<polygon fill="none" stroke="black" points="625.5,-345 625.5,-367 740.5,-367 740.5,-345 625.5,-345"/>
<image xlink:href="../../images/foreignKeys.png" width="11px" height="12px" preserveAspectRatio="xMinYMin meet" x="630.5" y="-362"/>
<text text-anchor="start" x="645.5" y="-353.2" font-family="Helvetica,sans-Serif" font-size="11.00">collectionunitid</text>
<polygon fill="none" stroke="black" points="625.5,-327 625.5,-345 740.5,-345 740.5,-327 625.5,-327"/>
<text text-anchor="start" x="628.5" y="-333.2" font-family="Helvetica,sans-Serif" font-size="11.00">...</text>
</a>
</g>
</g>
<!-- dslinks&#45;&gt;collectionunits -->
<g id="edge9" class="edge">
<title>dslinks:w&#45;&gt;collectionunits:e</title>
<path fill="none" stroke="black" stroke-dasharray="5,2" d="M610.78,-351.04C601.03,-341.51 602.26,-320.89 584,-313 524.02,-287.1 488.36,-272.62 437,-313 374.8,-361.9 474.12,-486 395,-486"/>
<polygon fill="black" stroke="black" points="616.98,-353.28 623.28,-359.39 620.74,-354.64 624.5,-356 624.5,-356 624.5,-356 620.74,-354.64 625.72,-352.61 616.98,-353.28 616.98,-353.28"/>
<ellipse fill="none" stroke="black" cx="613.97" cy="-352.19" rx="3.2" ry="3.2"/>
</g>
<!-- dslinks&#45;&gt;datasets -->
<g id="edge10" class="edge">
<title>dslinks:w&#45;&gt;datasets:e</title>
<path fill="none" stroke="black" stroke-dasharray="5,2" d="M610.56,-382.55C593.84,-396.22 600.42,-436 571.5,-436"/>
<polygon fill="black" stroke="black" points="616.89,-380.48 625.62,-381.42 620.7,-379.24 624.5,-378 624.5,-378 624.5,-378 620.7,-379.24 623.38,-374.58 616.89,-380.48 616.89,-380.48"/>
<ellipse fill="none" stroke="black" cx="613.85" cy="-381.48" rx="3.2" ry="3.2"/>
</g>
<!-- lithology -->
<g id="node11" class="node">
<title>lithology</title>
<g id="a_node11"><a xlink:href="../../tables/lithology.html" xlink:title="lithology" target="_top">
<polygon fill="#ffffff" stroke="transparent" points="450.5,-173 450.5,-275 570.5,-275 570.5,-173 450.5,-173"/>
<polygon fill="#f5f5f5" stroke="transparent" points="450.5,-253 450.5,-275 570.5,-275 570.5,-253 450.5,-253"/>
<polygon fill="none" stroke="black" points="450.5,-253 450.5,-275 570.5,-275 570.5,-253 450.5,-253"/>
<text text-anchor="start" x="455.5" y="-262.2" font-family="Helvetica,sans-Serif" font-weight="bold" font-size="11.00">lithology</text>
<text text-anchor="start" x="535.5" y="-261.2" font-family="Helvetica,sans-Serif" font-size="11.00">[table]</text>
<polygon fill="none" stroke="black" points="450.5,-231 450.5,-253 570.5,-253 570.5,-231 450.5,-231"/>
<image xlink:href="../../images/primaryKeys.png" width="11px" height="12px" preserveAspectRatio="xMinYMin meet" x="455.5" y="-248"/>
<text text-anchor="start" x="470.5" y="-239.2" font-family="Helvetica,sans-Serif" font-size="11.00">lithologyid</text>
<polygon fill="#ffffff" stroke="transparent" points="450.5,-209 450.5,-231 570.5,-231 570.5,-209 450.5,-209"/>
<polygon fill="none" stroke="black" points="450.5,-209 450.5,-231 570.5,-231 570.5,-209 450.5,-209"/>
<image xlink:href="../../images/foreignKeys.png" width="11px" height="12px" preserveAspectRatio="xMinYMin meet" x="455.5" y="-226"/>
<text text-anchor="start" x="470.5" y="-217.2" font-family="Helvetica,sans-Serif" font-size="11.00">collectionunitid</text>
<polygon fill="none" stroke="black" points="450.5,-191 450.5,-209 570.5,-209 570.5,-191 450.5,-191"/>
<text text-anchor="start" x="453.5" y="-197.2" font-family="Helvetica,sans-Serif" font-size="11.00">...</text>
<polygon fill="#ffffff" stroke="transparent" points="450.5,-173 450.5,-191 481.5,-191 481.5,-173 450.5,-173"/>
<polygon fill="none" stroke="black" points="450.5,-173 450.5,-191 481.5,-191 481.5,-173 450.5,-173"/>
<text text-anchor="start" x="453.5" y="-179.2" font-family="Helvetica,sans-Serif" font-size="11.00">&lt; 1</text>
<polygon fill="#ffffff" stroke="transparent" points="481.5,-173 481.5,-191 552.5,-191 552.5,-173 481.5,-173"/>
<polygon fill="none" stroke="black" points="481.5,-173 481.5,-191 552.5,-191 552.5,-173 481.5,-173"/>
<text text-anchor="start" x="489.5" y="-179.2" font-family="Helvetica,sans-Serif" font-size="11.00">32,805 rows</text>
<polygon fill="#ffffff" stroke="transparent" points="552.5,-173 552.5,-191 570.5,-191 570.5,-173 552.5,-173"/>
<polygon fill="none" stroke="black" points="552.5,-173 552.5,-191 570.5,-191 570.5,-173 552.5,-173"/>
<text text-anchor="start" x="560.5" y="-179.2" font-family="Helvetica,sans-Serif" font-size="11.00"> &#160;</text>
</a>
</g>
</g>
<!-- lithology&#45;&gt;collectionunits -->
<g id="edge11" class="edge">
<title>lithology:w&#45;&gt;collectionunits:e</title>
<path fill="none" stroke="black" d="M436.12,-226.06C400.03,-265.65 449.92,-486 395,-486"/>
<polygon fill="black" stroke="black" points="442.21,-223.3 450.98,-223.28 445.86,-221.65 449.5,-220 449.5,-220 449.5,-220 445.86,-221.65 448.02,-216.72 442.21,-223.3 442.21,-223.3"/>
<ellipse fill="none" stroke="black" cx="439.3" cy="-224.62" rx="3.2" ry="3.2"/>
</g>
</g>
</svg>
