<?xml version="1.0" encoding="UTF-8" standalone="no"?>
<!DOCTYPE svg PUBLIC "-//W3C//DTD SVG 1.1//EN"
 "http://www.w3.org/Graphics/SVG/1.1/DTD/svg11.dtd">
<!-- Generated by graphviz version 2.43.0 (0)
 -->
<!-- Title: twoDegreesRelationshipsDiagram Pages: 1 -->
<svg width="564pt" height="473pt"
 viewBox="0.00 0.00 564.00 473.00" xmlns="http://www.w3.org/2000/svg" xmlns:xlink="http://www.w3.org/1999/xlink">
<g id="graph0" class="graph" transform="scale(1 1) rotate(0) translate(4 469)">
<title>twoDegreesRelationshipsDiagram</title>
<polygon fill="#ffffff" stroke="transparent" points="-4,4 -4,-469 560,-469 560,4 -4,4"/>
<text text-anchor="middle" x="71.5" y="-7.2" font-family="Helvetica,sans-Serif" font-size="11.00">Generated by SchemaSpy</text>
<!-- analysisunits -->
<g id="node1" class="node">
<title>analysisunits</title>
<g id="a_node1"><a xlink:href="../../tables/analysisunits.html" xlink:title="analysisunits" target="_top">
<polygon fill="#ffffff" stroke="transparent" points="426,-403 426,-461 548,-461 548,-403 426,-403"/>
<polygon fill="#f5f5f5" stroke="transparent" points="426,-439 426,-461 548,-461 548,-439 426,-439"/>
<polygon fill="none" stroke="black" points="426,-439 426,-461 548,-461 548,-439 426,-439"/>
<text text-anchor="start" x="431" y="-448.2" font-family="Helvetica,sans-Serif" font-weight="bold" font-size="11.00">analysisunits</text>
<text text-anchor="start" x="513" y="-447.2" font-family="Helvetica,sans-Serif" font-size="11.00">[table]</text>
<polygon fill="none" stroke="black" points="426,-421 426,-439 548,-439 548,-421 426,-421"/>
<text text-anchor="start" x="429" y="-427.2" font-family="Helvetica,sans-Serif" font-size="11.00">...</text>
<polygon fill="#ffffff" stroke="transparent" points="426,-403 426,-421 448,-421 448,-403 426,-403"/>
<polygon fill="none" stroke="black" points="426,-403 426,-421 448,-421 448,-403 426,-403"/>
<text text-anchor="start" x="429" y="-409.2" font-family="Helvetica,sans-Serif" font-size="11.00">&lt; 2</text>
<polygon fill="#ffffff" stroke="transparent" points="448,-403 448,-421 520,-421 520,-403 448,-403"/>
<polygon fill="none" stroke="black" points="448,-403 448,-421 520,-421 520,-403 448,-403"/>
<text text-anchor="start" x="451" y="-409.2" font-family="Helvetica,sans-Serif" font-size="11.00">486,580 rows</text>
<polygon fill="#ffffff" stroke="transparent" points="520,-403 520,-421 548,-421 548,-403 520,-403"/>
<polygon fill="none" stroke="black" points="520,-403 520,-421 548,-421 548,-403 520,-403"/>
<text text-anchor="start" x="523" y="-409.2" font-family="Helvetica,sans-Serif" font-size="11.00">10 &gt;</text>
</a>
</g>
</g>
<!-- collectionunits -->
<g id="node2" class="node">
<title>collectionunits</title>
<g id="a_node2"><a xlink:href="../../tables/collectionunits.html" xlink:title="collectionunits" target="_top">
<polygon fill="#ffffff" stroke="transparent" points="255,-137 255,-305 377,-305 377,-137 255,-137"/>
<polygon fill="#f5f5f5" stroke="transparent" points="255,-283 255,-305 377,-305 377,-283 255,-283"/>
<polygon fill="none" stroke="black" points="255,-283 255,-305 377,-305 377,-283 255,-283"/>
<text text-anchor="start" x="260" y="-292.2" font-family="Helvetica,sans-Serif" font-weight="bold" font-size="11.00">collectionunits</text>
<text text-anchor="start" x="342" y="-291.2" font-family="Helvetica,sans-Serif" font-size="11.00">[table]</text>
<polygon fill="none" stroke="black" points="255,-261 255,-283 377,-283 377,-261 255,-261"/>
<image xlink:href="../../images/primaryKeys.png" width="11px" height="12px" preserveAspectRatio="xMinYMin meet" x="260" y="-278"/>
<text text-anchor="start" x="276" y="-269.2" font-family="Helvetica,sans-Serif" font-size="11.00">collectionunitid</text>
<polygon fill="#ffffff" stroke="transparent" points="255,-239 255,-261 377,-261 377,-239 255,-239"/>
<polygon fill="none" stroke="black" points="255,-239 255,-261 377,-261 377,-239 255,-239"/>
<image xlink:href="../../images/foreignKeys.png" width="11px" height="12px" preserveAspectRatio="xMinYMin meet" x="260" y="-256"/>
<text text-anchor="start" x="276" y="-247.2" font-family="Helvetica,sans-Serif" font-size="11.00">siteid</text>
<polygon fill="none" stroke="black" points="255,-217 255,-239 377,-239 377,-217 255,-217"/>
<image xlink:href="../../images/foreignKeys.png" width="11px" height="12px" preserveAspectRatio="xMinYMin meet" x="260" y="-234"/>
<text text-anchor="start" x="276" y="-225.2" font-family="Helvetica,sans-Serif" font-size="11.00">colltypeid</text>
<polygon fill="#ffffff" stroke="transparent" points="255,-195 255,-217 377,-217 377,-195 255,-195"/>
<polygon fill="none" stroke="black" points="255,-195 255,-217 377,-217 377,-195 255,-195"/>
<image xlink:href="../../images/foreignKeys.png" width="11px" height="12px" preserveAspectRatio="xMinYMin meet" x="260" y="-212"/>
<text text-anchor="start" x="276" y="-203.2" font-family="Helvetica,sans-Serif" font-size="11.00">depenvtid</text>
<polygon fill="none" stroke="black" points="255,-173 255,-195 377,-195 377,-173 255,-173"/>
<image xlink:href="../../images/foreignKeys.png" width="11px" height="12px" preserveAspectRatio="xMinYMin meet" x="260" y="-190"/>
<text text-anchor="start" x="276" y="-181.2" font-family="Helvetica,sans-Serif" font-size="11.00">substrateid</text>
<polygon fill="none" stroke="black" points="255,-155 255,-173 377,-173 377,-155 255,-155"/>
<text text-anchor="start" x="258" y="-161.2" font-family="Helvetica,sans-Serif" font-size="11.00">...</text>
<polygon fill="#ffffff" stroke="transparent" points="255,-137 255,-155 283,-155 283,-137 255,-137"/>
<polygon fill="none" stroke="black" points="255,-137 255,-155 283,-155 283,-137 255,-137"/>
<text text-anchor="start" x="258" y="-143.2" font-family="Helvetica,sans-Serif" font-size="11.00">&lt; 4</text>
<polygon fill="#ffffff" stroke="transparent" points="283,-137 283,-155 352,-155 352,-137 283,-137"/>
<polygon fill="none" stroke="black" points="283,-137 283,-155 352,-155 352,-137 283,-137"/>
<text text-anchor="start" x="289" y="-143.2" font-family="Helvetica,sans-Serif" font-size="11.00">33,980 rows</text>
<polygon fill="#ffffff" stroke="transparent" points="352,-137 352,-155 377,-155 377,-137 352,-137"/>
<polygon fill="none" stroke="black" points="352,-137 352,-155 377,-155 377,-137 352,-137"/>
<text text-anchor="start" x="358" y="-143.2" font-family="Helvetica,sans-Serif" font-size="11.00">5 &gt;</text>
</a>
</g>
</g>
<!-- analysisunits&#45;&gt;collectionunits -->
<g id="edge1" class="edge">
<title>analysisunits:w&#45;&gt;collectionunits:e</title>
<path fill="none" stroke="black" d="M410.83,-427.26C366.23,-406.28 445.54,-272 378,-272"/>
<polygon fill="black" stroke="black" points="417.15,-428.48 424.32,-433.53 421.07,-429.24 425,-430 425,-430 425,-430 421.07,-429.24 425.68,-426.47 417.15,-428.48 417.15,-428.48"/>
<ellipse fill="none" stroke="black" cx="414" cy="-427.87" rx="3.2" ry="3.2"/>
</g>
<!-- collectiontypes -->
<g id="node4" class="node">
<title>collectiontypes</title>
<g id="a_node4"><a xlink:href="../../tables/collectiontypes.html" xlink:title="collectiontypes" target="_top">
<polygon fill="#ffffff" stroke="transparent" points="8,-195 8,-327 206,-327 206,-195 8,-195"/>
<polygon fill="#f5f5f5" stroke="transparent" points="10,-303 10,-325 204,-325 204,-303 10,-303"/>
<polygon fill="none" stroke="black" points="10,-303 10,-325 204,-325 204,-303 10,-303"/>
<text text-anchor="start" x="15" y="-312.2" font-family="Helvetica,sans-Serif" font-weight="bold" font-size="11.00">collectiontypes</text>
<text text-anchor="start" x="169" y="-311.2" font-family="Helvetica,sans-Serif" font-size="11.00">[table]</text>
<polygon fill="none" stroke="black" points="10,-281 10,-303 130,-303 130,-281 10,-281"/>
<image xlink:href="../../images/primaryKeys.png" width="11px" height="12px" preserveAspectRatio="xMinYMin meet" x="15" y="-298"/>
<text text-anchor="start" x="30" y="-289.2" font-family="Helvetica,sans-Serif" font-size="11.00">colltypeid</text>
<polygon fill="none" stroke="black" points="130,-281 130,-303 204,-303 204,-281 130,-281"/>
<text text-anchor="start" x="133" y="-289.2" font-family="Helvetica,sans-Serif" font-size="11.00">serial[10]</text>
<polygon fill="none" stroke="black" points="10,-259 10,-281 130,-281 130,-259 10,-259"/>
<text text-anchor="start" x="30" y="-267.2" font-family="Helvetica,sans-Serif" font-size="11.00">colltype</text>
<polygon fill="none" stroke="black" points="130,-259 130,-281 204,-281 204,-259 130,-259"/>
<text text-anchor="start" x="133" y="-267.2" font-family="Helvetica,sans-Serif" font-size="11.00">varchar[64]</text>
<polygon fill="none" stroke="black" points="10,-237 10,-259 130,-259 130,-237 10,-237"/>
<text text-anchor="start" x="30" y="-245.2" font-family="Helvetica,sans-Serif" font-size="11.00">recdatecreated</text>
<polygon fill="none" stroke="black" points="130,-237 130,-259 204,-259 204,-237 130,-237"/>
<text text-anchor="start" x="133" y="-245.2" font-family="Helvetica,sans-Serif" font-size="11.00">timestamp[22]</text>
<polygon fill="none" stroke="black" points="10,-215 10,-237 130,-237 130,-215 10,-215"/>
<text text-anchor="start" x="30" y="-223.2" font-family="Helvetica,sans-Serif" font-size="11.00">recdatemodified</text>
<polygon fill="none" stroke="black" points="130,-215 130,-237 204,-237 204,-215 130,-215"/>
<text text-anchor="start" x="133" y="-223.2" font-family="Helvetica,sans-Serif" font-size="11.00">timestamp[22]</text>
<polygon fill="#ffffff" stroke="transparent" points="10,-197 10,-215 58,-215 58,-197 10,-197"/>
<polygon fill="none" stroke="black" points="10,-197 10,-215 58,-215 58,-197 10,-197"/>
<text text-anchor="start" x="13" y="-203.2" font-family="Helvetica,sans-Serif" font-size="11.00">&lt; 0</text>
<polygon fill="#ffffff" stroke="transparent" points="58,-197 58,-215 130,-215 130,-197 58,-197"/>
<polygon fill="none" stroke="black" points="58,-197 58,-215 130,-215 130,-197 58,-197"/>
<text text-anchor="start" x="88" y="-203.2" font-family="Helvetica,sans-Serif" font-size="11.00">11 rows</text>
<polygon fill="#ffffff" stroke="transparent" points="130,-197 130,-215 204,-215 204,-197 130,-197"/>
<polygon fill="none" stroke="black" points="130,-197 130,-215 204,-215 204,-197 130,-197"/>
<text text-anchor="start" x="185" y="-203.2" font-family="Helvetica,sans-Serif" font-size="11.00">1 &gt;</text>
<polygon fill="none" stroke="black" stroke-width="2" points="9,-196 9,-326 205,-326 205,-196 9,-196"/>
</a>
</g>
</g>
<!-- collectionunits&#45;&gt;collectiontypes -->
<g id="edge3" class="edge">
<title>collectionunits:w&#45;&gt;collectiontypes:e</title>
<path fill="none" stroke="black" d="M240.12,-233.02C224.23,-248.11 234.67,-292 205,-292"/>
<polygon fill="black" stroke="black" points="246.48,-230.72 255.22,-231.39 250.24,-229.36 254,-228 254,-228 254,-228 250.24,-229.36 252.78,-224.61 246.48,-230.72 246.48,-230.72"/>
<ellipse fill="none" stroke="black" cx="243.47" cy="-231.81" rx="3.2" ry="3.2"/>
</g>
<!-- depenvttypes -->
<g id="node5" class="node">
<title>depenvttypes</title>
<g id="a_node5"><a xlink:href="../../tables/depenvttypes.html" xlink:title="depenvttypes" target="_top">
<polygon fill="#ffffff" stroke="transparent" points="49.5,-116 49.5,-174 164.5,-174 164.5,-116 49.5,-116"/>
<polygon fill="#f5f5f5" stroke="transparent" points="50,-152 50,-174 165,-174 165,-152 50,-152"/>
<polygon fill="none" stroke="black" points="50,-152 50,-174 165,-174 165,-152 50,-152"/>
<text text-anchor="start" x="55" y="-161.2" font-family="Helvetica,sans-Serif" font-weight="bold" font-size="11.00">depenvttypes</text>
<text text-anchor="start" x="130" y="-160.2" font-family="Helvetica,sans-Serif" font-size="11.00">[table]</text>
<polygon fill="none" stroke="black" points="50,-134 50,-152 165,-152 165,-134 50,-134"/>
<text text-anchor="start" x="53" y="-140.2" font-family="Helvetica,sans-Serif" font-size="11.00">...</text>
<polygon fill="#ffffff" stroke="transparent" points="50,-116 50,-134 82,-134 82,-116 50,-116"/>
<polygon fill="none" stroke="black" points="50,-116 50,-134 82,-134 82,-116 50,-116"/>
<text text-anchor="start" x="53" y="-122.2" font-family="Helvetica,sans-Serif" font-size="11.00">&lt; 1</text>
<polygon fill="#ffffff" stroke="transparent" points="82,-116 82,-134 138,-134 138,-116 82,-116"/>
<polygon fill="none" stroke="black" points="82,-116 82,-134 138,-134 138,-116 82,-116"/>
<text text-anchor="start" x="90" y="-122.2" font-family="Helvetica,sans-Serif" font-size="11.00">222 rows</text>
<polygon fill="#ffffff" stroke="transparent" points="138,-116 138,-134 165,-134 165,-116 138,-116"/>
<polygon fill="none" stroke="black" points="138,-116 138,-134 165,-134 165,-116 138,-116"/>
<text text-anchor="start" x="146" y="-122.2" font-family="Helvetica,sans-Serif" font-size="11.00">2 &gt;</text>
</a>
</g>
</g>
<!-- collectionunits&#45;&gt;depenvttypes -->
<g id="edge4" class="edge">
<title>collectionunits:w&#45;&gt;depenvttypes:e</title>
<path fill="none" stroke="black" d="M239.66,-203.76C207.03,-192.54 208.65,-143 166,-143"/>
<polygon fill="black" stroke="black" points="246.1,-204.76 253.44,-209.56 250.05,-205.38 254,-206 254,-206 254,-206 250.05,-205.38 254.56,-202.44 246.1,-204.76 246.1,-204.76"/>
<ellipse fill="none" stroke="black" cx="242.93" cy="-204.27" rx="3.2" ry="3.2"/>
</g>
<!-- sites -->
<g id="node6" class="node">
<title>sites</title>
<g id="a_node6"><a xlink:href="../../tables/sites.html" xlink:title="sites" target="_top">
<polygon fill="#ffffff" stroke="transparent" points="56.5,-348 56.5,-406 157.5,-406 157.5,-348 56.5,-348"/>
<polygon fill="#f5f5f5" stroke="transparent" points="57,-384 57,-406 158,-406 158,-384 57,-384"/>
<polygon fill="none" stroke="black" points="57,-384 57,-406 158,-406 158,-384 57,-384"/>
<text text-anchor="start" x="62" y="-393.2" font-family="Helvetica,sans-Serif" font-weight="bold" font-size="11.00">sites</text>
<text text-anchor="start" x="123" y="-392.2" font-family="Helvetica,sans-Serif" font-size="11.00">[table]</text>
<polygon fill="none" stroke="black" points="57,-366 57,-384 158,-384 158,-366 57,-366"/>
<text text-anchor="start" x="60" y="-372.2" font-family="Helvetica,sans-Serif" font-size="11.00">...</text>
<polygon fill="#ffffff" stroke="transparent" points="57,-348 57,-366 70,-366 70,-348 57,-348"/>
<polygon fill="none" stroke="black" points="57,-348 57,-366 70,-366 70,-348 57,-348"/>
<text text-anchor="start" x="60" y="-354.2" font-family="Helvetica,sans-Serif" font-size="11.00"> &#160;</text>
<polygon fill="#ffffff" stroke="transparent" points="70,-348 70,-366 136,-366 136,-348 70,-348"/>
<polygon fill="none" stroke="black" points="70,-348 70,-366 136,-366 136,-348 70,-348"/>
<text text-anchor="start" x="73" y="-354.2" font-family="Helvetica,sans-Serif" font-size="11.00">22,697 rows</text>
<polygon fill="#ffffff" stroke="transparent" points="136,-348 136,-366 158,-366 158,-348 136,-348"/>
<polygon fill="none" stroke="black" points="136,-348 136,-366 158,-366 158,-348 136,-348"/>
<text text-anchor="start" x="139" y="-354.2" font-family="Helvetica,sans-Serif" font-size="11.00">4 &gt;</text>
</a>
</g>
</g>
<!-- collectionunits&#45;&gt;sites -->
<g id="edge5" class="edge">
<title>collectionunits:w&#45;&gt;sites:e</title>
<path fill="none" stroke="black" d="M239.88,-253.06C218.52,-265.09 237.86,-309.82 214,-338 194.96,-360.48 188.46,-375 159,-375"/>
<polygon fill="black" stroke="black" points="246.18,-251.69 254.76,-253.52 250.09,-250.85 254,-250 254,-250 254,-250 250.09,-250.85 253.24,-246.48 246.18,-251.69 246.18,-251.69"/>
<ellipse fill="none" stroke="black" cx="243.05" cy="-252.37" rx="3.2" ry="3.2"/>
</g>
<!-- rocktypes -->
<g id="node7" class="node">
<title>rocktypes</title>
<g id="a_node7"><a xlink:href="../../tables/rocktypes.html" xlink:title="rocktypes" target="_top">
<polygon fill="#ffffff" stroke="transparent" points="59,-37 59,-95 155,-95 155,-37 59,-37"/>
<polygon fill="#f5f5f5" stroke="transparent" points="59,-73 59,-95 155,-95 155,-73 59,-73"/>
<polygon fill="none" stroke="black" points="59,-73 59,-95 155,-95 155,-73 59,-73"/>
<text text-anchor="start" x="64" y="-82.2" font-family="Helvetica,sans-Serif" font-weight="bold" font-size="11.00">rocktypes</text>
<text text-anchor="start" x="120" y="-81.2" font-family="Helvetica,sans-Serif" font-size="11.00">[table]</text>
<polygon fill="none" stroke="black" points="59,-55 59,-73 155,-73 155,-55 59,-55"/>
<text text-anchor="start" x="62" y="-61.2" font-family="Helvetica,sans-Serif" font-size="11.00">...</text>
<polygon fill="#ffffff" stroke="transparent" points="59,-37 59,-55 81,-55 81,-37 59,-37"/>
<polygon fill="none" stroke="black" points="59,-37 59,-55 81,-55 81,-37 59,-37"/>
<text text-anchor="start" x="62" y="-43.2" font-family="Helvetica,sans-Serif" font-size="11.00">&lt; 1</text>
<polygon fill="#ffffff" stroke="transparent" points="81,-37 81,-55 132,-55 132,-37 81,-37"/>
<polygon fill="none" stroke="black" points="81,-37 81,-55 132,-55 132,-37 81,-37"/>
<text text-anchor="start" x="84" y="-43.2" font-family="Helvetica,sans-Serif" font-size="11.00">206 rows</text>
<polygon fill="#ffffff" stroke="transparent" points="132,-37 132,-55 155,-55 155,-37 132,-37"/>
<polygon fill="none" stroke="black" points="132,-37 132,-55 155,-55 155,-37 132,-37"/>
<text text-anchor="start" x="136" y="-43.2" font-family="Helvetica,sans-Serif" font-size="11.00">2 &gt;</text>
</a>
</g>
</g>
<!-- collectionunits&#45;&gt;rocktypes -->
<g id="edge6" class="edge">
<title>collectionunits:w&#45;&gt;rocktypes:e</title>
<path fill="none" stroke="black" d="M239.83,-180.66C221.24,-169.1 235.7,-130.14 214,-105 193.37,-81.1 187.57,-64 156,-64"/>
<polygon fill="black" stroke="black" points="246.21,-182.16 253.17,-187.5 250.11,-183.08 254,-184 254,-184 254,-184 250.11,-183.08 254.83,-180.5 246.21,-182.16 246.21,-182.16"/>
<ellipse fill="none" stroke="black" cx="243.1" cy="-181.43" rx="3.2" ry="3.2"/>
</g>
<!-- chronologies -->
<g id="node3" class="node">
<title>chronologies</title>
<g id="a_node3"><a xlink:href="../../tables/chronologies.html" xlink:title="chronologies" target="_top">
<polygon fill="#ffffff" stroke="transparent" points="430,-324 430,-382 544,-382 544,-324 430,-324"/>
<polygon fill="#f5f5f5" stroke="transparent" points="430,-360 430,-382 544,-382 544,-360 430,-360"/>
<polygon fill="none" stroke="black" points="430,-360 430,-382 544,-382 544,-360 430,-360"/>
<text text-anchor="start" x="435" y="-369.2" font-family="Helvetica,sans-Serif" font-weight="bold" font-size="11.00">chronologies</text>
<text text-anchor="start" x="509" y="-368.2" font-family="Helvetica,sans-Serif" font-size="11.00">[table]</text>
<polygon fill="none" stroke="black" points="430,-342 430,-360 544,-360 544,-342 430,-342"/>
<text text-anchor="start" x="433" y="-348.2" font-family="Helvetica,sans-Serif" font-size="11.00">...</text>
<polygon fill="#ffffff" stroke="transparent" points="430,-324 430,-342 454,-342 454,-324 430,-324"/>
<polygon fill="none" stroke="black" points="430,-324 430,-342 454,-342 454,-324 430,-324"/>
<text text-anchor="start" x="433" y="-330.2" font-family="Helvetica,sans-Serif" font-size="11.00">&lt; 3</text>
<polygon fill="#ffffff" stroke="transparent" points="454,-324 454,-342 521,-342 521,-324 454,-324"/>
<polygon fill="none" stroke="black" points="454,-324 454,-342 521,-342 521,-324 454,-324"/>
<text text-anchor="start" x="458" y="-330.2" font-family="Helvetica,sans-Serif" font-size="11.00">32,182 rows</text>
<polygon fill="#ffffff" stroke="transparent" points="521,-324 521,-342 544,-342 544,-324 521,-324"/>
<polygon fill="none" stroke="black" points="521,-324 521,-342 544,-342 544,-324 521,-324"/>
<text text-anchor="start" x="525" y="-330.2" font-family="Helvetica,sans-Serif" font-size="11.00">3 &gt;</text>
</a>
</g>
</g>
<!-- chronologies&#45;&gt;collectionunits -->
<g id="edge2" class="edge">
<title>chronologies:w&#45;&gt;collectionunits:e</title>
<path fill="none" stroke="black" d="M415.09,-346.53C395.07,-329.81 413.75,-272 378,-272"/>
<polygon fill="black" stroke="black" points="421.38,-348.55 427.9,-354.43 425.19,-349.78 429,-351 429,-351 429,-351 425.19,-349.78 430.1,-347.57 421.38,-348.55 421.38,-348.55"/>
<ellipse fill="none" stroke="black" cx="418.34" cy="-347.57" rx="3.2" ry="3.2"/>
</g>
<!-- collectors -->
<g id="node8" class="node">
<title>collectors</title>
<g id="a_node8"><a xlink:href="../../tables/collectors.html" xlink:title="collectors" target="_top">
<polygon fill="#ffffff" stroke="transparent" points="436.5,-245 436.5,-303 537.5,-303 537.5,-245 436.5,-245"/>
<polygon fill="#f5f5f5" stroke="transparent" points="437,-281 437,-303 538,-303 538,-281 437,-281"/>
<polygon fill="none" stroke="black" points="437,-281 437,-303 538,-303 538,-281 437,-281"/>
<text text-anchor="start" x="442" y="-290.2" font-family="Helvetica,sans-Serif" font-weight="bold" font-size="11.00">collectors</text>
<text text-anchor="start" x="503" y="-289.2" font-family="Helvetica,sans-Serif" font-size="11.00">[table]</text>
<polygon fill="none" stroke="black" points="437,-263 437,-281 538,-281 538,-263 437,-263"/>
<text text-anchor="start" x="440" y="-269.2" font-family="Helvetica,sans-Serif" font-size="11.00">...</text>
<polygon fill="#ffffff" stroke="transparent" points="437,-245 437,-263 459,-263 459,-245 437,-245"/>
<polygon fill="none" stroke="black" points="437,-245 437,-263 459,-263 459,-245 437,-245"/>
<text text-anchor="start" x="440" y="-251.2" font-family="Helvetica,sans-Serif" font-size="11.00">&lt; 2</text>
<polygon fill="#ffffff" stroke="transparent" points="459,-245 459,-263 525,-263 525,-245 459,-245"/>
<polygon fill="none" stroke="black" points="459,-245 459,-263 525,-263 525,-245 459,-245"/>
<text text-anchor="start" x="462" y="-251.2" font-family="Helvetica,sans-Serif" font-size="11.00">47,972 rows</text>
<polygon fill="#ffffff" stroke="transparent" points="525,-245 525,-263 538,-263 538,-245 525,-245"/>
<polygon fill="none" stroke="black" points="525,-245 525,-263 538,-263 538,-245 525,-245"/>
<text text-anchor="start" x="528" y="-251.2" font-family="Helvetica,sans-Serif" font-size="11.00"> &#160;</text>
</a>
</g>
</g>
<!-- collectors&#45;&gt;collectionunits -->
<g id="edge7" class="edge">
<title>collectors:w&#45;&gt;collectionunits:e</title>
<path fill="none" stroke="black" d="M421.45,-272C406.48,-272 398.14,-272 378,-272"/>
<polygon fill="black" stroke="black" points="428,-272 436,-275.6 432,-272 436,-272 436,-272 436,-272 432,-272 436,-268.4 428,-272 428,-272"/>
<ellipse fill="none" stroke="black" cx="424.8" cy="-272" rx="3.2" ry="3.2"/>
</g>
<!-- datasets -->
<g id="node9" class="node">
<title>datasets</title>
<g id="a_node9"><a xlink:href="../../tables/datasets.html" xlink:title="datasets" target="_top">
<polygon fill="#ffffff" stroke="transparent" points="429,-166 429,-224 545,-224 545,-166 429,-166"/>
<polygon fill="#f5f5f5" stroke="transparent" points="429,-202 429,-224 545,-224 545,-202 429,-202"/>
<polygon fill="none" stroke="black" points="429,-202 429,-224 545,-224 545,-202 429,-202"/>
<text text-anchor="start" x="434" y="-211.2" font-family="Helvetica,sans-Serif" font-weight="bold" font-size="11.00">datasets</text>
<text text-anchor="start" x="510" y="-210.2" font-family="Helvetica,sans-Serif" font-size="11.00">[table]</text>
<polygon fill="none" stroke="black" points="429,-184 429,-202 545,-202 545,-184 429,-184"/>
<text text-anchor="start" x="432" y="-190.2" font-family="Helvetica,sans-Serif" font-size="11.00">...</text>
<polygon fill="#ffffff" stroke="transparent" points="429,-166 429,-184 451,-184 451,-166 429,-166"/>
<polygon fill="none" stroke="black" points="429,-166 429,-184 451,-184 451,-166 429,-166"/>
<text text-anchor="start" x="432" y="-172.2" font-family="Helvetica,sans-Serif" font-size="11.00">&lt; 3</text>
<polygon fill="#ffffff" stroke="transparent" points="451,-166 451,-184 517,-184 517,-166 451,-166"/>
<polygon fill="none" stroke="black" points="451,-166 451,-184 517,-184 517,-166 451,-166"/>
<text text-anchor="start" x="454" y="-172.2" font-family="Helvetica,sans-Serif" font-size="11.00">49,780 rows</text>
<polygon fill="#ffffff" stroke="transparent" points="517,-166 517,-184 545,-184 545,-166 517,-166"/>
<polygon fill="none" stroke="black" points="517,-166 517,-184 545,-184 545,-166 517,-166"/>
<text text-anchor="start" x="520" y="-172.2" font-family="Helvetica,sans-Serif" font-size="11.00">13 &gt;</text>
</a>
</g>
</g>
<!-- datasets&#45;&gt;collectionunits -->
<g id="edge8" class="edge">
<title>datasets:w&#45;&gt;collectionunits:e</title>
<path fill="none" stroke="black" d="M414.21,-197.47C394.46,-214.19 413.55,-272 378,-272"/>
<polygon fill="black" stroke="black" points="420.39,-195.47 429.11,-196.42 424.2,-194.23 428,-193 428,-193 428,-193 424.2,-194.23 426.89,-189.58 420.39,-195.47 420.39,-195.47"/>
<ellipse fill="none" stroke="black" cx="417.35" cy="-196.46" rx="3.2" ry="3.2"/>
</g>
<!-- lithology -->
<g id="node10" class="node">
<title>lithology</title>
<g id="a_node10"><a xlink:href="../../tables/lithology.html" xlink:title="lithology" target="_top">
<polygon fill="#ffffff" stroke="transparent" points="436.5,-87 436.5,-145 537.5,-145 537.5,-87 436.5,-87"/>
<polygon fill="#f5f5f5" stroke="transparent" points="437,-123 437,-145 538,-145 538,-123 437,-123"/>
<polygon fill="none" stroke="black" points="437,-123 437,-145 538,-145 538,-123 437,-123"/>
<text text-anchor="start" x="442" y="-132.2" font-family="Helvetica,sans-Serif" font-weight="bold" font-size="11.00">lithology</text>
<text text-anchor="start" x="503" y="-131.2" font-family="Helvetica,sans-Serif" font-size="11.00">[table]</text>
<polygon fill="none" stroke="black" points="437,-105 437,-123 538,-123 538,-105 437,-105"/>
<text text-anchor="start" x="440" y="-111.2" font-family="Helvetica,sans-Serif" font-size="11.00">...</text>
<polygon fill="#ffffff" stroke="transparent" points="437,-87 437,-105 459,-105 459,-87 437,-87"/>
<polygon fill="none" stroke="black" points="437,-87 437,-105 459,-105 459,-87 437,-87"/>
<text text-anchor="start" x="440" y="-93.2" font-family="Helvetica,sans-Serif" font-size="11.00">&lt; 1</text>
<polygon fill="#ffffff" stroke="transparent" points="459,-87 459,-105 525,-105 525,-87 459,-87"/>
<polygon fill="none" stroke="black" points="459,-87 459,-105 525,-105 525,-87 459,-87"/>
<text text-anchor="start" x="462" y="-93.2" font-family="Helvetica,sans-Serif" font-size="11.00">32,805 rows</text>
<polygon fill="#ffffff" stroke="transparent" points="525,-87 525,-105 538,-105 538,-87 525,-87"/>
<polygon fill="none" stroke="black" points="525,-87 525,-105 538,-105 538,-87 525,-87"/>
<text text-anchor="start" x="528" y="-93.2" font-family="Helvetica,sans-Serif" font-size="11.00"> &#160;</text>
</a>
</g>
</g>
<!-- lithology&#45;&gt;collectionunits -->
<g id="edge9" class="edge">
<title>lithology:w&#45;&gt;collectionunits:e</title>
<path fill="none" stroke="black" d="M421.66,-116.61C374.19,-137.15 447.11,-272 378,-272"/>
<polygon fill="black" stroke="black" points="428.13,-115.43 436.64,-117.54 432.06,-114.72 436,-114 436,-114 436,-114 432.06,-114.72 435.36,-110.46 428.13,-115.43 428.13,-115.43"/>
<ellipse fill="none" stroke="black" cx="424.98" cy="-116.01" rx="3.2" ry="3.2"/>
</g>
</g>
</svg>
