<?xml version="1.0" encoding="UTF-8" standalone="no"?>
<!DOCTYPE svg PUBLIC "-//W3C//DTD SVG 1.1//EN"
 "http://www.w3.org/Graphics/SVG/1.1/DTD/svg11.dtd">
<!-- Generated by graphviz version 2.43.0 (0)
 -->
<!-- Title: oneDegreeRelationshipsDiagram Pages: 1 -->
<svg width="393pt" height="362pt"
 viewBox="0.00 0.00 393.00 362.00" xmlns="http://www.w3.org/2000/svg" xmlns:xlink="http://www.w3.org/1999/xlink">
<g id="graph0" class="graph" transform="scale(1 1) rotate(0) translate(4 358)">
<title>oneDegreeRelationshipsDiagram</title>
<polygon fill="#ffffff" stroke="transparent" points="-4,4 -4,-358 389,-358 389,4 -4,4"/>
<text text-anchor="middle" x="71.5" y="-7.2" font-family="Helvetica,sans-Serif" font-size="11.00">Generated by SchemaSpy</text>
<!-- collectors -->
<g id="node1" class="node">
<title>collectors</title>
<g id="a_node1"><a xlink:href="../../tables/collectors.html" xlink:title="collectors" target="_top">
<polygon fill="#ffffff" stroke="transparent" points="179,-114 179,-290 377,-290 377,-114 179,-114"/>
<polygon fill="#f5f5f5" stroke="transparent" points="181,-266 181,-288 375,-288 375,-266 181,-266"/>
<polygon fill="none" stroke="black" points="181,-266 181,-288 375,-288 375,-266 181,-266"/>
<text text-anchor="start" x="186" y="-275.2" font-family="Helvetica,sans-Serif" font-weight="bold" font-size="11.00">collectors</text>
<text text-anchor="start" x="340" y="-274.2" font-family="Helvetica,sans-Serif" font-size="11.00">[table]</text>
<polygon fill="none" stroke="black" points="181,-244 181,-266 301,-266 301,-244 181,-244"/>
<image xlink:href="../../images/primaryKeys.png" width="11px" height="12px" preserveAspectRatio="xMinYMin meet" x="186" y="-261"/>
<text text-anchor="start" x="201" y="-252.2" font-family="Helvetica,sans-Serif" font-size="11.00">collectorid</text>
<polygon fill="none" stroke="black" points="301,-244 301,-266 375,-266 375,-244 301,-244"/>
<text text-anchor="start" x="304" y="-252.2" font-family="Helvetica,sans-Serif" font-size="11.00">serial[10]</text>
<polygon fill="none" stroke="black" points="181,-222 181,-244 301,-244 301,-222 181,-222"/>
<image xlink:href="../../images/foreignKeys.png" width="11px" height="12px" preserveAspectRatio="xMinYMin meet" x="186" y="-239"/>
<text text-anchor="start" x="201" y="-230.2" font-family="Helvetica,sans-Serif" font-size="11.00">collectionunitid</text>
<polygon fill="none" stroke="black" points="301,-222 301,-244 375,-244 375,-222 301,-222"/>
<text text-anchor="start" x="304" y="-230.2" font-family="Helvetica,sans-Serif" font-size="11.00">int4[10]</text>
<polygon fill="none" stroke="black" points="181,-200 181,-222 301,-222 301,-200 181,-200"/>
<image xlink:href="../../images/foreignKeys.png" width="11px" height="12px" preserveAspectRatio="xMinYMin meet" x="186" y="-217"/>
<text text-anchor="start" x="201" y="-208.2" font-family="Helvetica,sans-Serif" font-size="11.00">contactid</text>
<polygon fill="none" stroke="black" points="301,-200 301,-222 375,-222 375,-200 301,-200"/>
<text text-anchor="start" x="304" y="-208.2" font-family="Helvetica,sans-Serif" font-size="11.00">int4[10]</text>
<polygon fill="none" stroke="black" points="181,-178 181,-200 301,-200 301,-178 181,-178"/>
<text text-anchor="start" x="201" y="-186.2" font-family="Helvetica,sans-Serif" font-size="11.00">collectororder</text>
<polygon fill="none" stroke="black" points="301,-178 301,-200 375,-200 375,-178 301,-178"/>
<text text-anchor="start" x="304" y="-186.2" font-family="Helvetica,sans-Serif" font-size="11.00">int4[10]</text>
<polygon fill="none" stroke="black" points="181,-156 181,-178 301,-178 301,-156 181,-156"/>
<text text-anchor="start" x="201" y="-164.2" font-family="Helvetica,sans-Serif" font-size="11.00">recdatecreated</text>
<polygon fill="none" stroke="black" points="301,-156 301,-178 375,-178 375,-156 301,-156"/>
<text text-anchor="start" x="304" y="-164.2" font-family="Helvetica,sans-Serif" font-size="11.00">timestamp[22]</text>
<polygon fill="none" stroke="black" points="181,-134 181,-156 301,-156 301,-134 181,-134"/>
<text text-anchor="start" x="201" y="-142.2" font-family="Helvetica,sans-Serif" font-size="11.00">recdatemodified</text>
<polygon fill="none" stroke="black" points="301,-134 301,-156 375,-156 375,-134 301,-134"/>
<text text-anchor="start" x="304" y="-142.2" font-family="Helvetica,sans-Serif" font-size="11.00">timestamp[22]</text>
<polygon fill="#ffffff" stroke="transparent" points="181,-116 181,-134 219,-134 219,-116 181,-116"/>
<polygon fill="none" stroke="black" points="181,-116 181,-134 219,-134 219,-116 181,-116"/>
<text text-anchor="start" x="184" y="-122.2" font-family="Helvetica,sans-Serif" font-size="11.00">&lt; 2</text>
<polygon fill="#ffffff" stroke="transparent" points="219,-116 219,-134 301,-134 301,-116 219,-116"/>
<polygon fill="none" stroke="black" points="219,-116 219,-134 301,-134 301,-116 219,-116"/>
<text text-anchor="start" x="238" y="-122.2" font-family="Helvetica,sans-Serif" font-size="11.00">47,972 rows</text>
<polygon fill="#ffffff" stroke="transparent" points="301,-116 301,-134 375,-134 375,-116 301,-116"/>
<polygon fill="none" stroke="black" points="301,-116 301,-134 375,-134 375,-116 301,-116"/>
<text text-anchor="start" x="356" y="-122.2" font-family="Helvetica,sans-Serif" font-size="11.00">0 &gt;</text>
<polygon fill="none" stroke="black" stroke-width="2" points="180,-115 180,-289 376,-289 376,-115 180,-115"/>
</a>
</g>
</g>
<!-- collectionunits -->
<g id="node2" class="node">
<title>collectionunits</title>
<g id="a_node2"><a xlink:href="../../tables/collectionunits.html" xlink:title="collectionunits" target="_top">
<polygon fill="#ffffff" stroke="transparent" points="8,-182 8,-350 130,-350 130,-182 8,-182"/>
<polygon fill="#f5f5f5" stroke="transparent" points="8,-328 8,-350 130,-350 130,-328 8,-328"/>
<polygon fill="none" stroke="black" points="8,-328 8,-350 130,-350 130,-328 8,-328"/>
<text text-anchor="start" x="13" y="-337.2" font-family="Helvetica,sans-Serif" font-weight="bold" font-size="11.00">collectionunits</text>
<text text-anchor="start" x="95" y="-336.2" font-family="Helvetica,sans-Serif" font-size="11.00">[table]</text>
<polygon fill="none" stroke="black" points="8,-306 8,-328 130,-328 130,-306 8,-306"/>
<image xlink:href="../../images/primaryKeys.png" width="11px" height="12px" preserveAspectRatio="xMinYMin meet" x="13" y="-323"/>
<text text-anchor="start" x="29" y="-314.2" font-family="Helvetica,sans-Serif" font-size="11.00">collectionunitid</text>
<polygon fill="#ffffff" stroke="transparent" points="8,-284 8,-306 130,-306 130,-284 8,-284"/>
<polygon fill="none" stroke="black" points="8,-284 8,-306 130,-306 130,-284 8,-284"/>
<image xlink:href="../../images/foreignKeys.png" width="11px" height="12px" preserveAspectRatio="xMinYMin meet" x="13" y="-301"/>
<text text-anchor="start" x="29" y="-292.2" font-family="Helvetica,sans-Serif" font-size="11.00">siteid</text>
<polygon fill="none" stroke="black" points="8,-262 8,-284 130,-284 130,-262 8,-262"/>
<image xlink:href="../../images/foreignKeys.png" width="11px" height="12px" preserveAspectRatio="xMinYMin meet" x="13" y="-279"/>
<text text-anchor="start" x="29" y="-270.2" font-family="Helvetica,sans-Serif" font-size="11.00">colltypeid</text>
<polygon fill="#ffffff" stroke="transparent" points="8,-240 8,-262 130,-262 130,-240 8,-240"/>
<polygon fill="none" stroke="black" points="8,-240 8,-262 130,-262 130,-240 8,-240"/>
<image xlink:href="../../images/foreignKeys.png" width="11px" height="12px" preserveAspectRatio="xMinYMin meet" x="13" y="-257"/>
<text text-anchor="start" x="29" y="-248.2" font-family="Helvetica,sans-Serif" font-size="11.00">depenvtid</text>
<polygon fill="none" stroke="black" points="8,-218 8,-240 130,-240 130,-218 8,-218"/>
<image xlink:href="../../images/foreignKeys.png" width="11px" height="12px" preserveAspectRatio="xMinYMin meet" x="13" y="-235"/>
<text text-anchor="start" x="29" y="-226.2" font-family="Helvetica,sans-Serif" font-size="11.00">substrateid</text>
<polygon fill="none" stroke="black" points="8,-200 8,-218 130,-218 130,-200 8,-200"/>
<text text-anchor="start" x="11" y="-206.2" font-family="Helvetica,sans-Serif" font-size="11.00">...</text>
<polygon fill="#ffffff" stroke="transparent" points="8,-182 8,-200 36,-200 36,-182 8,-182"/>
<polygon fill="none" stroke="black" points="8,-182 8,-200 36,-200 36,-182 8,-182"/>
<text text-anchor="start" x="11" y="-188.2" font-family="Helvetica,sans-Serif" font-size="11.00">&lt; 4</text>
<polygon fill="#ffffff" stroke="transparent" points="36,-182 36,-200 105,-200 105,-182 36,-182"/>
<polygon fill="none" stroke="black" points="36,-182 36,-200 105,-200 105,-182 36,-182"/>
<text text-anchor="start" x="42" y="-188.2" font-family="Helvetica,sans-Serif" font-size="11.00">33,980 rows</text>
<polygon fill="#ffffff" stroke="transparent" points="105,-182 105,-200 130,-200 130,-182 105,-182"/>
<polygon fill="none" stroke="black" points="105,-182 105,-200 130,-200 130,-182 105,-182"/>
<text text-anchor="start" x="111" y="-188.2" font-family="Helvetica,sans-Serif" font-size="11.00">5 &gt;</text>
</a>
</g>
</g>
<!-- collectors&#45;&gt;collectionunits -->
<g id="edge1" class="edge">
<title>collectors:w&#45;&gt;collectionunits:e</title>
<path fill="none" stroke="black" d="M166.1,-237.52C145.71,-254.96 168.14,-317 131,-317"/>
<polygon fill="black" stroke="black" points="172.39,-235.47 181.11,-236.42 176.2,-234.24 180,-233 180,-233 180,-233 176.2,-234.24 178.89,-229.58 172.39,-235.47 172.39,-235.47"/>
<ellipse fill="none" stroke="black" cx="169.35" cy="-236.46" rx="3.2" ry="3.2"/>
</g>
<!-- contacts -->
<g id="node3" class="node">
<title>contacts</title>
<g id="a_node3"><a xlink:href="../../tables/contacts.html" xlink:title="contacts" target="_top">
<polygon fill="#ffffff" stroke="transparent" points="9,-37 9,-161 129,-161 129,-37 9,-37"/>
<polygon fill="#f5f5f5" stroke="transparent" points="9,-139 9,-161 129,-161 129,-139 9,-139"/>
<polygon fill="none" stroke="black" points="9,-139 9,-161 129,-161 129,-139 9,-139"/>
<text text-anchor="start" x="14" y="-148.2" font-family="Helvetica,sans-Serif" font-weight="bold" font-size="11.00">contacts</text>
<text text-anchor="start" x="94" y="-147.2" font-family="Helvetica,sans-Serif" font-size="11.00">[table]</text>
<polygon fill="none" stroke="black" points="9,-117 9,-139 129,-139 129,-117 9,-117"/>
<image xlink:href="../../images/primaryKeys.png" width="11px" height="12px" preserveAspectRatio="xMinYMin meet" x="14" y="-134"/>
<text text-anchor="start" x="29" y="-125.2" font-family="Helvetica,sans-Serif" font-size="11.00">contactid</text>
<polygon fill="none" stroke="black" points="9,-95 9,-117 129,-117 129,-95 9,-95"/>
<image xlink:href="../../images/foreignKeys.png" width="11px" height="12px" preserveAspectRatio="xMinYMin meet" x="14" y="-112"/>
<text text-anchor="start" x="29" y="-103.2" font-family="Helvetica,sans-Serif" font-size="11.00">contactstatusid</text>
<polygon fill="#ffffff" stroke="transparent" points="9,-73 9,-95 129,-95 129,-73 9,-73"/>
<polygon fill="none" stroke="black" points="9,-73 9,-95 129,-95 129,-73 9,-73"/>
<text text-anchor="start" x="29" y="-81.2" font-family="Helvetica,sans-Serif" font-size="11.00">familyname</text>
<polygon fill="none" stroke="black" points="9,-55 9,-73 129,-73 129,-55 9,-55"/>
<text text-anchor="start" x="12" y="-61.2" font-family="Helvetica,sans-Serif" font-size="11.00">...</text>
<polygon fill="#ffffff" stroke="transparent" points="9,-37 9,-55 33,-55 33,-37 9,-37"/>
<polygon fill="none" stroke="black" points="9,-37 9,-55 33,-55 33,-37 9,-37"/>
<text text-anchor="start" x="12" y="-43.2" font-family="Helvetica,sans-Serif" font-size="11.00">&lt; 1</text>
<polygon fill="#ffffff" stroke="transparent" points="33,-37 33,-55 100,-55 100,-37 33,-37"/>
<polygon fill="none" stroke="black" points="33,-37 33,-55 100,-55 100,-37 33,-37"/>
<text text-anchor="start" x="37" y="-43.2" font-family="Helvetica,sans-Serif" font-size="11.00">13,549 rows</text>
<polygon fill="#ffffff" stroke="transparent" points="100,-37 100,-55 129,-55 129,-37 100,-37"/>
<polygon fill="none" stroke="black" points="100,-37 100,-55 129,-55 129,-37 100,-37"/>
<text text-anchor="start" x="104" y="-43.2" font-family="Helvetica,sans-Serif" font-size="11.00">17 &gt;</text>
</a>
</g>
</g>
<!-- collectors&#45;&gt;contacts -->
<g id="edge2" class="edge">
<title>collectors:w&#45;&gt;contacts:e</title>
<path fill="none" stroke="black" d="M166.09,-206.54C145.53,-189.3 167.01,-128 130,-128"/>
<polygon fill="black" stroke="black" points="172.38,-208.56 178.9,-214.43 176.19,-209.78 180,-211 180,-211 180,-211 176.19,-209.78 181.1,-207.57 172.38,-208.56 172.38,-208.56"/>
<ellipse fill="none" stroke="black" cx="169.34" cy="-207.58" rx="3.2" ry="3.2"/>
</g>
</g>
</svg>
