<?xml version="1.0" encoding="UTF-8" standalone="no"?>
<!DOCTYPE svg PUBLIC "-//W3C//DTD SVG 1.1//EN"
 "http://www.w3.org/Graphics/SVG/1.1/DTD/svg11.dtd">
<!-- Generated by graphviz version 2.43.0 (0)
 -->
<!-- Title: oneDegreeRelationshipsDiagram Pages: 1 -->
<svg width="621pt" height="441pt"
 viewBox="0.00 0.00 621.00 441.00" xmlns="http://www.w3.org/2000/svg" xmlns:xlink="http://www.w3.org/1999/xlink">
<g id="graph0" class="graph" transform="scale(1 1) rotate(0) translate(4 437)">
<title>oneDegreeRelationshipsDiagram</title>
<polygon fill="#ffffff" stroke="transparent" points="-4,4 -4,-437 617,-437 617,4 -4,4"/>
<text text-anchor="middle" x="71.5" y="-7.2" font-family="Helvetica,sans-Serif" font-size="11.00">Generated by SchemaSpy</text>
<!-- constituentdatabases -->
<g id="node1" class="node">
<title>constituentdatabases</title>
<g id="a_node1"><a xlink:href="../../tables/constituentdatabases.html" xlink:title="constituentdatabases" target="_top">
<polygon fill="#ffffff" stroke="transparent" points="177,-132 177,-308 406,-308 406,-132 177,-132"/>
<polygon fill="#f5f5f5" stroke="transparent" points="179.5,-284 179.5,-306 404.5,-306 404.5,-284 179.5,-284"/>
<polygon fill="none" stroke="black" points="179.5,-284 179.5,-306 404.5,-306 404.5,-284 179.5,-284"/>
<text text-anchor="start" x="184.5" y="-293.2" font-family="Helvetica,sans-Serif" font-weight="bold" font-size="11.00">constituentdatabases</text>
<text text-anchor="start" x="369.5" y="-292.2" font-family="Helvetica,sans-Serif" font-size="11.00">[table]</text>
<polygon fill="none" stroke="black" points="179.5,-262 179.5,-284 330.5,-284 330.5,-262 179.5,-262"/>
<image xlink:href="../../images/primaryKeys.png" width="11px" height="12px" preserveAspectRatio="xMinYMin meet" x="184.5" y="-279"/>
<text text-anchor="start" x="199.5" y="-270.2" font-family="Helvetica,sans-Serif" font-size="11.00">databaseid</text>
<polygon fill="none" stroke="black" points="330.5,-262 330.5,-284 404.5,-284 404.5,-262 330.5,-262"/>
<text text-anchor="start" x="333.5" y="-270.2" font-family="Helvetica,sans-Serif" font-size="11.00">serial[10]</text>
<polygon fill="none" stroke="black" points="179.5,-240 179.5,-262 330.5,-262 330.5,-240 179.5,-240"/>
<text text-anchor="start" x="199.5" y="-248.2" font-family="Helvetica,sans-Serif" font-size="11.00">databasename</text>
<polygon fill="none" stroke="black" points="330.5,-240 330.5,-262 404.5,-262 404.5,-240 330.5,-240"/>
<text text-anchor="start" x="333.5" y="-248.2" font-family="Helvetica,sans-Serif" font-size="11.00">varchar[80]</text>
<polygon fill="none" stroke="black" points="179.5,-218 179.5,-240 330.5,-240 330.5,-218 179.5,-218"/>
<image xlink:href="../../images/foreignKeys.png" width="11px" height="12px" preserveAspectRatio="xMinYMin meet" x="184.5" y="-235"/>
<text text-anchor="start" x="199.5" y="-226.2" font-family="Helvetica,sans-Serif" font-size="11.00">contactid</text>
<polygon fill="none" stroke="black" points="330.5,-218 330.5,-240 404.5,-240 404.5,-218 330.5,-218"/>
<text text-anchor="start" x="333.5" y="-226.2" font-family="Helvetica,sans-Serif" font-size="11.00">int4[10]</text>
<polygon fill="none" stroke="black" points="179.5,-196 179.5,-218 330.5,-218 330.5,-196 179.5,-196"/>
<text text-anchor="start" x="199.5" y="-204.2" font-family="Helvetica,sans-Serif" font-size="11.00">url</text>
<polygon fill="none" stroke="black" points="330.5,-196 330.5,-218 404.5,-218 404.5,-196 330.5,-196"/>
<text text-anchor="start" x="333.5" y="-204.2" font-family="Helvetica,sans-Serif" font-size="11.00">varchar[128]</text>
<polygon fill="none" stroke="black" points="179.5,-174 179.5,-196 330.5,-196 330.5,-174 179.5,-174"/>
<text text-anchor="start" x="199.5" y="-182.2" font-family="Helvetica,sans-Serif" font-size="11.00">recdatecreated</text>
<polygon fill="none" stroke="black" points="330.5,-174 330.5,-196 404.5,-196 404.5,-174 330.5,-174"/>
<text text-anchor="start" x="333.5" y="-182.2" font-family="Helvetica,sans-Serif" font-size="11.00">timestamp[22]</text>
<polygon fill="none" stroke="black" points="179.5,-152 179.5,-174 330.5,-174 330.5,-152 179.5,-152"/>
<text text-anchor="start" x="199.5" y="-160.2" font-family="Helvetica,sans-Serif" font-size="11.00">recdatemodified</text>
<polygon fill="none" stroke="black" points="330.5,-152 330.5,-174 404.5,-174 404.5,-152 330.5,-152"/>
<text text-anchor="start" x="333.5" y="-160.2" font-family="Helvetica,sans-Serif" font-size="11.00">timestamp[22]</text>
<polygon fill="#ffffff" stroke="transparent" points="179.5,-134 179.5,-152 243.5,-152 243.5,-134 179.5,-134"/>
<polygon fill="none" stroke="black" points="179.5,-134 179.5,-152 243.5,-152 243.5,-134 179.5,-134"/>
<text text-anchor="start" x="182.5" y="-140.2" font-family="Helvetica,sans-Serif" font-size="11.00">&lt; 1</text>
<polygon fill="#ffffff" stroke="transparent" points="243.5,-134 243.5,-152 330.5,-152 330.5,-134 243.5,-134"/>
<polygon fill="none" stroke="black" points="243.5,-134 243.5,-152 330.5,-152 330.5,-134 243.5,-134"/>
<text text-anchor="start" x="288.5" y="-140.2" font-family="Helvetica,sans-Serif" font-size="11.00">37 rows</text>
<polygon fill="#ffffff" stroke="transparent" points="330.5,-134 330.5,-152 404.5,-152 404.5,-134 330.5,-134"/>
<polygon fill="none" stroke="black" points="330.5,-134 330.5,-152 404.5,-152 404.5,-134 330.5,-134"/>
<text text-anchor="start" x="385.5" y="-140.2" font-family="Helvetica,sans-Serif" font-size="11.00">3 &gt;</text>
<polygon fill="none" stroke="black" stroke-width="2" points="178,-133 178,-307 405,-307 405,-133 178,-133"/>
</a>
</g>
</g>
<!-- contacts -->
<g id="node2" class="node">
<title>contacts</title>
<g id="a_node2"><a xlink:href="../../tables/contacts.html" xlink:title="contacts" target="_top">
<polygon fill="#ffffff" stroke="transparent" points="8,-77 8,-201 128,-201 128,-77 8,-77"/>
<polygon fill="#f5f5f5" stroke="transparent" points="8,-179 8,-201 128,-201 128,-179 8,-179"/>
<polygon fill="none" stroke="black" points="8,-179 8,-201 128,-201 128,-179 8,-179"/>
<text text-anchor="start" x="13" y="-188.2" font-family="Helvetica,sans-Serif" font-weight="bold" font-size="11.00">contacts</text>
<text text-anchor="start" x="93" y="-187.2" font-family="Helvetica,sans-Serif" font-size="11.00">[table]</text>
<polygon fill="none" stroke="black" points="8,-157 8,-179 128,-179 128,-157 8,-157"/>
<image xlink:href="../../images/primaryKeys.png" width="11px" height="12px" preserveAspectRatio="xMinYMin meet" x="13" y="-174"/>
<text text-anchor="start" x="28" y="-165.2" font-family="Helvetica,sans-Serif" font-size="11.00">contactid</text>
<polygon fill="none" stroke="black" points="8,-135 8,-157 128,-157 128,-135 8,-135"/>
<image xlink:href="../../images/foreignKeys.png" width="11px" height="12px" preserveAspectRatio="xMinYMin meet" x="13" y="-152"/>
<text text-anchor="start" x="28" y="-143.2" font-family="Helvetica,sans-Serif" font-size="11.00">contactstatusid</text>
<polygon fill="#ffffff" stroke="transparent" points="8,-113 8,-135 128,-135 128,-113 8,-113"/>
<polygon fill="none" stroke="black" points="8,-113 8,-135 128,-135 128,-113 8,-113"/>
<text text-anchor="start" x="28" y="-121.2" font-family="Helvetica,sans-Serif" font-size="11.00">familyname</text>
<polygon fill="none" stroke="black" points="8,-95 8,-113 128,-113 128,-95 8,-95"/>
<text text-anchor="start" x="11" y="-101.2" font-family="Helvetica,sans-Serif" font-size="11.00">...</text>
<polygon fill="#ffffff" stroke="transparent" points="8,-77 8,-95 32,-95 32,-77 8,-77"/>
<polygon fill="none" stroke="black" points="8,-77 8,-95 32,-95 32,-77 8,-77"/>
<text text-anchor="start" x="11" y="-83.2" font-family="Helvetica,sans-Serif" font-size="11.00">&lt; 1</text>
<polygon fill="#ffffff" stroke="transparent" points="32,-77 32,-95 99,-95 99,-77 32,-77"/>
<polygon fill="none" stroke="black" points="32,-77 32,-95 99,-95 99,-77 32,-77"/>
<text text-anchor="start" x="36" y="-83.2" font-family="Helvetica,sans-Serif" font-size="11.00">13,247 rows</text>
<polygon fill="#ffffff" stroke="transparent" points="99,-77 99,-95 128,-95 128,-77 99,-77"/>
<polygon fill="none" stroke="black" points="99,-77 99,-95 128,-95 128,-77 99,-77"/>
<text text-anchor="start" x="103" y="-83.2" font-family="Helvetica,sans-Serif" font-size="11.00">17 &gt;</text>
</a>
</g>
</g>
<!-- constituentdatabases&#45;&gt;contacts -->
<g id="edge1" class="edge">
<title>constituentdatabases:w&#45;&gt;contacts:e</title>
<path fill="none" stroke="black" d="M164.83,-224.21C148.94,-209.83 157.91,-168 129,-168"/>
<polygon fill="black" stroke="black" points="170.95,-226.36 177.31,-232.4 174.72,-227.68 178.5,-229 178.5,-229 178.5,-229 174.72,-227.68 179.69,-225.6 170.95,-226.36 170.95,-226.36"/>
<ellipse fill="none" stroke="black" cx="167.93" cy="-225.3" rx="3.2" ry="3.2"/>
</g>
<!-- datasetdatabases -->
<g id="node3" class="node">
<title>datasetdatabases</title>
<g id="a_node3"><a xlink:href="../../tables/datasetdatabases.html" xlink:title="datasetdatabases" target="_top">
<polygon fill="#ffffff" stroke="transparent" points="462,-327 462,-429 598,-429 598,-327 462,-327"/>
<polygon fill="#f5f5f5" stroke="transparent" points="462,-407 462,-429 598,-429 598,-407 462,-407"/>
<polygon fill="none" stroke="black" points="462,-407 462,-429 598,-429 598,-407 462,-407"/>
<text text-anchor="start" x="467" y="-416.2" font-family="Helvetica,sans-Serif" font-weight="bold" font-size="11.00">datasetdatabases</text>
<text text-anchor="start" x="563" y="-415.2" font-family="Helvetica,sans-Serif" font-size="11.00">[table]</text>
<polygon fill="none" stroke="black" points="462,-385 462,-407 598,-407 598,-385 462,-385"/>
<image xlink:href="../../images/primaryKeys.png" width="11px" height="12px" preserveAspectRatio="xMinYMin meet" x="467" y="-402"/>
<text text-anchor="start" x="487" y="-393.2" font-family="Helvetica,sans-Serif" font-size="11.00">datasetid</text>
<polygon fill="none" stroke="black" points="462,-363 462,-385 598,-385 598,-363 462,-363"/>
<image xlink:href="../../images/primaryKeys.png" width="11px" height="12px" preserveAspectRatio="xMinYMin meet" x="467" y="-380"/>
<text text-anchor="start" x="487" y="-371.2" font-family="Helvetica,sans-Serif" font-size="11.00">databaseid</text>
<polygon fill="none" stroke="black" points="462,-345 462,-363 598,-363 598,-345 462,-345"/>
<text text-anchor="start" x="465" y="-351.2" font-family="Helvetica,sans-Serif" font-size="11.00">...</text>
<polygon fill="#ffffff" stroke="transparent" points="462,-327 462,-345 501,-345 501,-327 462,-327"/>
<polygon fill="none" stroke="black" points="462,-327 462,-345 501,-345 501,-327 462,-327"/>
<text text-anchor="start" x="465" y="-333.2" font-family="Helvetica,sans-Serif" font-size="11.00">&lt; 2</text>
<polygon fill="#ffffff" stroke="transparent" points="501,-327 501,-345 576,-345 576,-327 501,-327"/>
<polygon fill="none" stroke="black" points="501,-327 501,-345 576,-345 576,-327 501,-327"/>
<text text-anchor="start" x="513" y="-333.2" font-family="Helvetica,sans-Serif" font-size="11.00">47,689 rows</text>
<polygon fill="#ffffff" stroke="transparent" points="576,-327 576,-345 598,-345 598,-327 576,-327"/>
<polygon fill="none" stroke="black" points="576,-327 576,-345 598,-345 598,-327 576,-327"/>
<text text-anchor="start" x="588" y="-333.2" font-family="Helvetica,sans-Serif" font-size="11.00"> &#160;</text>
</a>
</g>
</g>
<!-- datasetdatabases&#45;&gt;constituentdatabases -->
<g id="edge2" class="edge">
<title>datasetdatabases:w&#45;&gt;constituentdatabases:e</title>
<path fill="none" stroke="black" d="M446.72,-370.16C419.43,-351.72 450.72,-273 405.5,-273"/>
<polygon fill="black" stroke="black" points="453.27,-371.92 460.07,-377.48 457.14,-372.96 461,-374 461,-374 461,-374 457.14,-372.96 461.93,-370.52 453.27,-371.92 453.27,-371.92"/>
<ellipse fill="none" stroke="black" cx="450.18" cy="-371.09" rx="3.2" ry="3.2"/>
</g>
<!-- datasetsubmissions -->
<g id="node4" class="node">
<title>datasetsubmissions</title>
<g id="a_node4"><a xlink:href="../../tables/datasetsubmissions.html" xlink:title="datasetsubmissions" target="_top">
<polygon fill="#ffffff" stroke="transparent" points="455,-37 455,-205 605,-205 605,-37 455,-37"/>
<polygon fill="#f5f5f5" stroke="transparent" points="455,-183 455,-205 605,-205 605,-183 455,-183"/>
<polygon fill="none" stroke="black" points="455,-183 455,-205 605,-205 605,-183 455,-183"/>
<text text-anchor="start" x="460" y="-192.2" font-family="Helvetica,sans-Serif" font-weight="bold" font-size="11.00">datasetsubmissions</text>
<text text-anchor="start" x="570" y="-191.2" font-family="Helvetica,sans-Serif" font-size="11.00">[table]</text>
<polygon fill="none" stroke="black" points="455,-161 455,-183 605,-183 605,-161 455,-161"/>
<image xlink:href="../../images/primaryKeys.png" width="11px" height="12px" preserveAspectRatio="xMinYMin meet" x="460" y="-178"/>
<text text-anchor="start" x="480" y="-169.2" font-family="Helvetica,sans-Serif" font-size="11.00">submissionid</text>
<polygon fill="#ffffff" stroke="transparent" points="455,-139 455,-161 605,-161 605,-139 455,-139"/>
<polygon fill="none" stroke="black" points="455,-139 455,-161 605,-161 605,-139 455,-139"/>
<image xlink:href="../../images/foreignKeys.png" width="11px" height="12px" preserveAspectRatio="xMinYMin meet" x="460" y="-156"/>
<text text-anchor="start" x="480" y="-147.2" font-family="Helvetica,sans-Serif" font-size="11.00">datasetid</text>
<polygon fill="#ffffff" stroke="transparent" points="455,-117 455,-139 605,-139 605,-117 455,-117"/>
<polygon fill="none" stroke="black" points="455,-117 455,-139 605,-139 605,-117 455,-117"/>
<image xlink:href="../../images/foreignKeys.png" width="11px" height="12px" preserveAspectRatio="xMinYMin meet" x="460" y="-134"/>
<text text-anchor="start" x="480" y="-125.2" font-family="Helvetica,sans-Serif" font-size="11.00">databaseid</text>
<polygon fill="none" stroke="black" points="455,-95 455,-117 605,-117 605,-95 455,-95"/>
<image xlink:href="../../images/foreignKeys.png" width="11px" height="12px" preserveAspectRatio="xMinYMin meet" x="460" y="-112"/>
<text text-anchor="start" x="480" y="-103.2" font-family="Helvetica,sans-Serif" font-size="11.00">contactid</text>
<polygon fill="none" stroke="black" points="455,-73 455,-95 605,-95 605,-73 455,-73"/>
<image xlink:href="../../images/foreignKeys.png" width="11px" height="12px" preserveAspectRatio="xMinYMin meet" x="460" y="-90"/>
<text text-anchor="start" x="480" y="-81.2" font-family="Helvetica,sans-Serif" font-size="11.00">submissiontypeid</text>
<polygon fill="none" stroke="black" points="455,-55 455,-73 605,-73 605,-55 455,-55"/>
<text text-anchor="start" x="458" y="-61.2" font-family="Helvetica,sans-Serif" font-size="11.00">...</text>
<polygon fill="#ffffff" stroke="transparent" points="455,-37 455,-55 501,-55 501,-37 455,-37"/>
<polygon fill="none" stroke="black" points="455,-37 455,-55 501,-55 501,-37 455,-37"/>
<text text-anchor="start" x="458" y="-43.2" font-family="Helvetica,sans-Serif" font-size="11.00">&lt; 4</text>
<polygon fill="#ffffff" stroke="transparent" points="501,-37 501,-55 579,-55 579,-37 501,-37"/>
<polygon fill="none" stroke="black" points="501,-37 501,-55 579,-55 579,-37 501,-37"/>
<text text-anchor="start" x="516" y="-43.2" font-family="Helvetica,sans-Serif" font-size="11.00">57,403 rows</text>
<polygon fill="#ffffff" stroke="transparent" points="579,-37 579,-55 605,-55 605,-37 579,-37"/>
<polygon fill="none" stroke="black" points="579,-37 579,-55 605,-55 605,-37 579,-37"/>
<text text-anchor="start" x="595" y="-43.2" font-family="Helvetica,sans-Serif" font-size="11.00"> &#160;</text>
</a>
</g>
</g>
<!-- datasetsubmissions&#45;&gt;constituentdatabases -->
<g id="edge4" class="edge">
<title>datasetsubmissions:w&#45;&gt;constituentdatabases:e</title>
<path fill="none" stroke="black" d="M439.73,-131.03C399.92,-151.85 467.61,-273 405.5,-273"/>
<polygon fill="black" stroke="black" points="446.17,-129.66 454.75,-131.52 450.09,-128.83 454,-128 454,-128 454,-128 450.09,-128.83 453.25,-124.48 446.17,-129.66 446.17,-129.66"/>
<ellipse fill="none" stroke="black" cx="443.04" cy="-130.32" rx="3.2" ry="3.2"/>
</g>
<!-- datasetsubmissions&#45;&gt;contacts -->
<g id="edge3" class="edge">
<title>datasetsubmissions:w&#45;&gt;contacts:e</title>
<path fill="none" stroke="black" d="M439.5,-105.82C323.58,-102.93 278.26,-66.98 169,-121 144.41,-133.16 156.43,-168 129,-168"/>
<polygon fill="black" stroke="black" points="446,-105.9 453.96,-109.6 450,-105.95 454,-106 454,-106 454,-106 450,-105.95 454.04,-102.4 446,-105.9 446,-105.9"/>
<ellipse fill="none" stroke="black" cx="442.8" cy="-105.86" rx="3.2" ry="3.2"/>
</g>
<!-- ti.stewarddatabases -->
<g id="node5" class="node">
<title>ti.stewarddatabases</title>
<g id="a_node5"><a xlink:href="../../../ti/tables/stewarddatabases.html" xlink:title="ti.stewarddatabases" target="_top">
<polygon fill="#ffffff" stroke="transparent" points="455.5,-226 455.5,-306 604.5,-306 604.5,-226 455.5,-226"/>
<polygon fill="#f5f5f5" stroke="transparent" points="456,-284 456,-306 605,-306 605,-284 456,-284"/>
<polygon fill="none" stroke="black" points="456,-284 456,-306 605,-306 605,-284 456,-284"/>
<text text-anchor="start" x="461" y="-293.2" font-family="Helvetica,sans-Serif" font-weight="bold" font-size="11.00">ti.stewarddatabases</text>
<text text-anchor="start" x="570" y="-292.2" font-family="Helvetica,sans-Serif" font-size="11.00">[table]</text>
<polygon fill="none" stroke="black" points="456,-262 456,-284 605,-284 605,-262 456,-262"/>
<image xlink:href="../../images/foreignKeys.png" width="11px" height="12px" preserveAspectRatio="xMinYMin meet" x="461" y="-279"/>
<text text-anchor="start" x="486" y="-270.2" font-family="Helvetica,sans-Serif" font-size="11.00">databaseid</text>
<polygon fill="none" stroke="black" points="456,-244 456,-262 605,-262 605,-244 456,-244"/>
<text text-anchor="start" x="459" y="-250.2" font-family="Helvetica,sans-Serif" font-size="11.00">...</text>
<polygon fill="#ffffff" stroke="transparent" points="456,-226 456,-244 515,-244 515,-226 456,-226"/>
<polygon fill="none" stroke="black" points="456,-226 456,-244 515,-244 515,-226 456,-226"/>
<text text-anchor="start" x="459" y="-232.2" font-family="Helvetica,sans-Serif" font-size="11.00">&lt; 1</text>
<polygon fill="#ffffff" stroke="transparent" points="515,-226 515,-244 573,-244 573,-226 515,-226"/>
<polygon fill="none" stroke="black" points="515,-226 515,-244 573,-244 573,-226 515,-226"/>
<text text-anchor="start" x="537" y="-232.2" font-family="Helvetica,sans-Serif" font-size="11.00">0 rows</text>
<polygon fill="#ffffff" stroke="transparent" points="573,-226 573,-244 605,-244 605,-226 573,-226"/>
<polygon fill="none" stroke="black" points="573,-226 573,-244 605,-244 605,-226 573,-226"/>
<text text-anchor="start" x="595" y="-232.2" font-family="Helvetica,sans-Serif" font-size="11.00"> &#160;</text>
</a>
</g>
</g>
<!-- ti.stewarddatabases&#45;&gt;constituentdatabases -->
<g id="edge5" class="edge">
<title>ti.stewarddatabases:w&#45;&gt;constituentdatabases:e</title>
<path fill="none" stroke="black" d="M440.34,-273C428.91,-273 421.66,-273 405.5,-273"/>
<polygon fill="black" stroke="black" points="447,-273 455,-276.6 451,-273 455,-273 455,-273 455,-273 451,-273 455,-269.4 447,-273 447,-273"/>
<ellipse fill="none" stroke="black" cx="443.8" cy="-273" rx="3.2" ry="3.2"/>
</g>
</g>
</svg>
