<?xml version="1.0" encoding="UTF-8" standalone="no"?>
<!DOCTYPE svg PUBLIC "-//W3C//DTD SVG 1.1//EN"
 "http://www.w3.org/Graphics/SVG/1.1/DTD/svg11.dtd">
<!-- Generated by graphviz version 2.43.0 (0)
 -->
<!-- Title: oneDegreeRelationshipsDiagram Pages: 1 -->
<svg width="397pt" height="223pt"
 viewBox="0.00 0.00 397.00 223.00" xmlns="http://www.w3.org/2000/svg" xmlns:xlink="http://www.w3.org/1999/xlink">
<g id="graph0" class="graph" transform="scale(1 1) rotate(0) translate(4 219)">
<title>oneDegreeRelationshipsDiagram</title>
<polygon fill="#ffffff" stroke="transparent" points="-4,4 -4,-219 393,-219 393,4 -4,4"/>
<text text-anchor="middle" x="71.5" y="-7.2" font-family="Helvetica,sans-Serif" font-size="11.00">Generated by SchemaSpy</text>
<!-- contacts -->
<g id="node1" class="node">
<title>contacts</title>
<g id="a_node1"><a xlink:href="../../tables/contacts.html" xlink:title="contacts" target="_top">
<polygon fill="#ffffff" stroke="transparent" points="261,-87 261,-211 381,-211 381,-87 261,-87"/>
<polygon fill="#f5f5f5" stroke="transparent" points="261,-189 261,-211 381,-211 381,-189 261,-189"/>
<polygon fill="none" stroke="black" points="261,-189 261,-211 381,-211 381,-189 261,-189"/>
<text text-anchor="start" x="266" y="-198.2" font-family="Helvetica,sans-Serif" font-weight="bold" font-size="11.00">contacts</text>
<text text-anchor="start" x="346" y="-197.2" font-family="Helvetica,sans-Serif" font-size="11.00">[table]</text>
<polygon fill="none" stroke="black" points="261,-167 261,-189 381,-189 381,-167 261,-167"/>
<image xlink:href="../../images/primaryKeys.png" width="11px" height="12px" preserveAspectRatio="xMinYMin meet" x="266" y="-184"/>
<text text-anchor="start" x="281" y="-175.2" font-family="Helvetica,sans-Serif" font-size="11.00">contactid</text>
<polygon fill="none" stroke="black" points="261,-145 261,-167 381,-167 381,-145 261,-145"/>
<image xlink:href="../../images/foreignKeys.png" width="11px" height="12px" preserveAspectRatio="xMinYMin meet" x="266" y="-162"/>
<text text-anchor="start" x="281" y="-153.2" font-family="Helvetica,sans-Serif" font-size="11.00">contactstatusid</text>
<polygon fill="#ffffff" stroke="transparent" points="261,-123 261,-145 381,-145 381,-123 261,-123"/>
<polygon fill="none" stroke="black" points="261,-123 261,-145 381,-145 381,-123 261,-123"/>
<text text-anchor="start" x="281" y="-131.2" font-family="Helvetica,sans-Serif" font-size="11.00">familyname</text>
<polygon fill="none" stroke="black" points="261,-105 261,-123 381,-123 381,-105 261,-105"/>
<text text-anchor="start" x="264" y="-111.2" font-family="Helvetica,sans-Serif" font-size="11.00">...</text>
<polygon fill="#ffffff" stroke="transparent" points="261,-87 261,-105 285,-105 285,-87 261,-87"/>
<polygon fill="none" stroke="black" points="261,-87 261,-105 285,-105 285,-87 261,-87"/>
<text text-anchor="start" x="264" y="-93.2" font-family="Helvetica,sans-Serif" font-size="11.00">&lt; 1</text>
<polygon fill="#ffffff" stroke="transparent" points="285,-87 285,-105 352,-105 352,-87 285,-87"/>
<polygon fill="none" stroke="black" points="285,-87 285,-105 352,-105 352,-87 285,-87"/>
<text text-anchor="start" x="289" y="-93.2" font-family="Helvetica,sans-Serif" font-size="11.00">13,247 rows</text>
<polygon fill="#ffffff" stroke="transparent" points="352,-87 352,-105 381,-105 381,-87 352,-87"/>
<polygon fill="none" stroke="black" points="352,-87 352,-105 381,-105 381,-87 352,-87"/>
<text text-anchor="start" x="356" y="-93.2" font-family="Helvetica,sans-Serif" font-size="11.00">17 &gt;</text>
</a>
</g>
</g>
<!-- contactstatuses -->
<g id="node2" class="node">
<title>contactstatuses</title>
<g id="a_node2"><a xlink:href="../../tables/contactstatuses.html" xlink:title="contactstatuses" target="_top">
<polygon fill="#ffffff" stroke="transparent" points="8,-37 8,-191 212,-191 212,-37 8,-37"/>
<polygon fill="#f5f5f5" stroke="transparent" points="10,-167 10,-189 210,-189 210,-167 10,-167"/>
<polygon fill="none" stroke="black" points="10,-167 10,-189 210,-189 210,-167 10,-167"/>
<text text-anchor="start" x="15" y="-176.2" font-family="Helvetica,sans-Serif" font-weight="bold" font-size="11.00">contactstatuses</text>
<text text-anchor="start" x="175" y="-175.2" font-family="Helvetica,sans-Serif" font-size="11.00">[table]</text>
<polygon fill="none" stroke="black" points="10,-145 10,-167 136,-167 136,-145 10,-145"/>
<image xlink:href="../../images/primaryKeys.png" width="11px" height="12px" preserveAspectRatio="xMinYMin meet" x="15" y="-162"/>
<text text-anchor="start" x="30" y="-153.2" font-family="Helvetica,sans-Serif" font-size="11.00">contactstatusid</text>
<polygon fill="none" stroke="black" points="136,-145 136,-167 210,-167 210,-145 136,-145"/>
<text text-anchor="start" x="139" y="-153.2" font-family="Helvetica,sans-Serif" font-size="11.00">serial[10]</text>
<polygon fill="none" stroke="black" points="10,-123 10,-145 136,-145 136,-123 10,-123"/>
<text text-anchor="start" x="30" y="-131.2" font-family="Helvetica,sans-Serif" font-size="11.00">contactstatus</text>
<polygon fill="none" stroke="black" points="136,-123 136,-145 210,-145 210,-123 136,-123"/>
<text text-anchor="start" x="139" y="-131.2" font-family="Helvetica,sans-Serif" font-size="11.00">varchar[16]</text>
<polygon fill="none" stroke="black" points="10,-101 10,-123 136,-123 136,-101 10,-101"/>
<text text-anchor="start" x="30" y="-109.2" font-family="Helvetica,sans-Serif" font-size="11.00">statusdescription</text>
<polygon fill="none" stroke="black" points="136,-101 136,-123 210,-123 210,-101 136,-101"/>
<text text-anchor="start" x="139" y="-109.2" font-family="Helvetica,sans-Serif" font-size="11.00">varchar[255]</text>
<polygon fill="none" stroke="black" points="10,-79 10,-101 136,-101 136,-79 10,-79"/>
<text text-anchor="start" x="30" y="-87.2" font-family="Helvetica,sans-Serif" font-size="11.00">recdatecreated</text>
<polygon fill="none" stroke="black" points="136,-79 136,-101 210,-101 210,-79 136,-79"/>
<text text-anchor="start" x="139" y="-87.2" font-family="Helvetica,sans-Serif" font-size="11.00">timestamp[22]</text>
<polygon fill="none" stroke="black" points="10,-57 10,-79 136,-79 136,-57 10,-57"/>
<text text-anchor="start" x="30" y="-65.2" font-family="Helvetica,sans-Serif" font-size="11.00">recdatemodified</text>
<polygon fill="none" stroke="black" points="136,-57 136,-79 210,-79 210,-57 136,-57"/>
<text text-anchor="start" x="139" y="-65.2" font-family="Helvetica,sans-Serif" font-size="11.00">timestamp[22]</text>
<polygon fill="#ffffff" stroke="transparent" points="10,-39 10,-57 64,-57 64,-39 10,-39"/>
<polygon fill="none" stroke="black" points="10,-39 10,-57 64,-57 64,-39 10,-39"/>
<text text-anchor="start" x="13" y="-45.2" font-family="Helvetica,sans-Serif" font-size="11.00">&lt; 0</text>
<polygon fill="#ffffff" stroke="transparent" points="64,-39 64,-57 136,-57 136,-39 64,-39"/>
<polygon fill="none" stroke="black" points="64,-39 64,-57 136,-57 136,-39 64,-39"/>
<text text-anchor="start" x="100" y="-45.2" font-family="Helvetica,sans-Serif" font-size="11.00">7 rows</text>
<polygon fill="#ffffff" stroke="transparent" points="136,-39 136,-57 210,-57 210,-39 136,-39"/>
<polygon fill="none" stroke="black" points="136,-39 136,-57 210,-57 210,-39 136,-39"/>
<text text-anchor="start" x="191" y="-45.2" font-family="Helvetica,sans-Serif" font-size="11.00">1 &gt;</text>
<polygon fill="none" stroke="black" stroke-width="2" points="9,-38 9,-190 211,-190 211,-38 9,-38"/>
</a>
</g>
</g>
<!-- contacts&#45;&gt;contactstatuses -->
<g id="edge1" class="edge">
<title>contacts:w&#45;&gt;contactstatuses:e</title>
<path fill="none" stroke="black" d="M245.49,-156C234.18,-156 226.99,-156 211,-156"/>
<polygon fill="black" stroke="black" points="252,-156 260,-159.6 256,-156 260,-156 260,-156 260,-156 256,-156 260,-152.4 252,-156 252,-156"/>
<ellipse fill="none" stroke="black" cx="248.8" cy="-156" rx="3.2" ry="3.2"/>
</g>
</g>
</svg>
