<?xml version="1.0" encoding="UTF-8" standalone="no"?>
<!DOCTYPE svg PUBLIC "-//W3C//DTD SVG 1.1//EN"
 "http://www.w3.org/Graphics/SVG/1.1/DTD/svg11.dtd">
<!-- Generated by graphviz version 2.43.0 (0)
 -->
<!-- Title: twoDegreesRelationshipsDiagram Pages: 1 -->
<svg width="433pt" height="655pt"
 viewBox="0.00 0.00 433.00 655.00" xmlns="http://www.w3.org/2000/svg" xmlns:xlink="http://www.w3.org/1999/xlink">
<g id="graph0" class="graph" transform="scale(1 1) rotate(0) translate(4 651)">
<title>twoDegreesRelationshipsDiagram</title>
<polygon fill="#ffffff" stroke="transparent" points="-4,4 -4,-651 429,-651 429,4 -4,4"/>
<text text-anchor="middle" x="71.5" y="-7.2" font-family="Helvetica,sans-Serif" font-size="11.00">Generated by SchemaSpy</text>
<!-- contextsdatasettypes -->
<g id="node1" class="node">
<title>contextsdatasettypes</title>
<g id="a_node1"><a xlink:href="../../tables/contextsdatasettypes.html" xlink:title="contextsdatasettypes" target="_top">
<polygon fill="#ffffff" stroke="transparent" points="188,-116 188,-248 417,-248 417,-116 188,-116"/>
<polygon fill="#f5f5f5" stroke="transparent" points="190.5,-224 190.5,-246 415.5,-246 415.5,-224 190.5,-224"/>
<polygon fill="none" stroke="black" points="190.5,-224 190.5,-246 415.5,-246 415.5,-224 190.5,-224"/>
<text text-anchor="start" x="195.5" y="-233.2" font-family="Helvetica,sans-Serif" font-weight="bold" font-size="11.00">contextsdatasettypes</text>
<text text-anchor="start" x="380.5" y="-232.2" font-family="Helvetica,sans-Serif" font-size="11.00">[table]</text>
<polygon fill="none" stroke="black" points="190.5,-202 190.5,-224 341.5,-224 341.5,-202 190.5,-202"/>
<image xlink:href="../../images/primaryKeys.png" width="11px" height="12px" preserveAspectRatio="xMinYMin meet" x="195.5" y="-219"/>
<text text-anchor="start" x="210.5" y="-210.2" font-family="Helvetica,sans-Serif" font-size="11.00">datasettypeid</text>
<polygon fill="none" stroke="black" points="341.5,-202 341.5,-224 415.5,-224 415.5,-202 341.5,-202"/>
<text text-anchor="start" x="344.5" y="-210.2" font-family="Helvetica,sans-Serif" font-size="11.00">int4[10]</text>
<polygon fill="none" stroke="black" points="190.5,-180 190.5,-202 341.5,-202 341.5,-180 190.5,-180"/>
<image xlink:href="../../images/primaryKeys.png" width="11px" height="12px" preserveAspectRatio="xMinYMin meet" x="195.5" y="-197"/>
<text text-anchor="start" x="210.5" y="-188.2" font-family="Helvetica,sans-Serif" font-size="11.00">variablecontextid</text>
<polygon fill="none" stroke="black" points="341.5,-180 341.5,-202 415.5,-202 415.5,-180 341.5,-180"/>
<text text-anchor="start" x="344.5" y="-188.2" font-family="Helvetica,sans-Serif" font-size="11.00">int4[10]</text>
<polygon fill="none" stroke="black" points="190.5,-158 190.5,-180 341.5,-180 341.5,-158 190.5,-158"/>
<text text-anchor="start" x="210.5" y="-166.2" font-family="Helvetica,sans-Serif" font-size="11.00">recdatecreated</text>
<polygon fill="none" stroke="black" points="341.5,-158 341.5,-180 415.5,-180 415.5,-158 341.5,-158"/>
<text text-anchor="start" x="344.5" y="-166.2" font-family="Helvetica,sans-Serif" font-size="11.00">timestamp[22]</text>
<polygon fill="none" stroke="black" points="190.5,-136 190.5,-158 341.5,-158 341.5,-136 190.5,-136"/>
<text text-anchor="start" x="210.5" y="-144.2" font-family="Helvetica,sans-Serif" font-size="11.00">recdatemodified</text>
<polygon fill="none" stroke="black" points="341.5,-136 341.5,-158 415.5,-158 415.5,-136 341.5,-136"/>
<text text-anchor="start" x="344.5" y="-144.2" font-family="Helvetica,sans-Serif" font-size="11.00">timestamp[22]</text>
<polygon fill="#ffffff" stroke="transparent" points="190.5,-118 190.5,-136 251.5,-136 251.5,-118 190.5,-118"/>
<polygon fill="none" stroke="black" points="190.5,-118 190.5,-136 251.5,-136 251.5,-118 190.5,-118"/>
<text text-anchor="start" x="193.5" y="-124.2" font-family="Helvetica,sans-Serif" font-size="11.00">&lt; 2</text>
<polygon fill="#ffffff" stroke="transparent" points="251.5,-118 251.5,-136 341.5,-136 341.5,-118 251.5,-118"/>
<polygon fill="none" stroke="black" points="251.5,-118 251.5,-136 341.5,-136 341.5,-118 251.5,-118"/>
<text text-anchor="start" x="293.5" y="-124.2" font-family="Helvetica,sans-Serif" font-size="11.00">205 rows</text>
<polygon fill="#ffffff" stroke="transparent" points="341.5,-118 341.5,-136 415.5,-136 415.5,-118 341.5,-118"/>
<polygon fill="none" stroke="black" points="341.5,-118 341.5,-136 415.5,-136 415.5,-118 341.5,-118"/>
<text text-anchor="start" x="396.5" y="-124.2" font-family="Helvetica,sans-Serif" font-size="11.00">0 &gt;</text>
<polygon fill="none" stroke="black" stroke-width="2" points="189,-117 189,-247 416,-247 416,-117 189,-117"/>
</a>
</g>
</g>
<!-- datasettypes -->
<g id="node2" class="node">
<title>datasettypes</title>
<g id="a_node2"><a xlink:href="../../tables/datasettypes.html" xlink:title="datasettypes" target="_top">
<polygon fill="#ffffff" stroke="transparent" points="13.5,-367 13.5,-447 133.5,-447 133.5,-367 13.5,-367"/>
<polygon fill="#f5f5f5" stroke="transparent" points="13.5,-425 13.5,-447 133.5,-447 133.5,-425 13.5,-425"/>
<polygon fill="none" stroke="black" points="13.5,-425 13.5,-447 133.5,-447 133.5,-425 13.5,-425"/>
<text text-anchor="start" x="18.5" y="-434.2" font-family="Helvetica,sans-Serif" font-weight="bold" font-size="11.00">datasettypes</text>
<text text-anchor="start" x="98.5" y="-433.2" font-family="Helvetica,sans-Serif" font-size="11.00">[table]</text>
<polygon fill="none" stroke="black" points="13.5,-403 13.5,-425 133.5,-425 133.5,-403 13.5,-403"/>
<image xlink:href="../../images/primaryKeys.png" width="11px" height="12px" preserveAspectRatio="xMinYMin meet" x="18.5" y="-420"/>
<text text-anchor="start" x="33.5" y="-411.2" font-family="Helvetica,sans-Serif" font-size="11.00">datasettypeid</text>
<polygon fill="none" stroke="black" points="13.5,-385 13.5,-403 133.5,-403 133.5,-385 13.5,-385"/>
<text text-anchor="start" x="16.5" y="-391.2" font-family="Helvetica,sans-Serif" font-size="11.00">...</text>
<polygon fill="#ffffff" stroke="transparent" points="13.5,-367 13.5,-385 46.5,-385 46.5,-367 13.5,-367"/>
<polygon fill="none" stroke="black" points="13.5,-367 13.5,-385 46.5,-385 46.5,-367 13.5,-367"/>
<text text-anchor="start" x="16.5" y="-373.2" font-family="Helvetica,sans-Serif" font-size="11.00"> &#160;</text>
<polygon fill="#ffffff" stroke="transparent" points="46.5,-367 46.5,-385 101.5,-385 101.5,-367 46.5,-367"/>
<polygon fill="none" stroke="black" points="46.5,-367 46.5,-385 101.5,-385 101.5,-367 46.5,-367"/>
<text text-anchor="start" x="59.5" y="-373.2" font-family="Helvetica,sans-Serif" font-size="11.00">42 rows</text>
<polygon fill="#ffffff" stroke="transparent" points="101.5,-367 101.5,-385 133.5,-385 133.5,-367 101.5,-367"/>
<polygon fill="none" stroke="black" points="101.5,-367 101.5,-385 133.5,-385 133.5,-367 101.5,-367"/>
<text text-anchor="start" x="114.5" y="-373.2" font-family="Helvetica,sans-Serif" font-size="11.00">6 &gt;</text>
</a>
</g>
</g>
<!-- contextsdatasettypes&#45;&gt;datasettypes -->
<g id="edge1" class="edge">
<title>contextsdatasettypes:w&#45;&gt;datasettypes:e</title>
<path fill="none" stroke="black" d="M175.03,-215.12C111.84,-236.6 221.51,-414 134.5,-414"/>
<polygon fill="black" stroke="black" points="181.58,-214.16 190.02,-216.56 185.54,-213.58 189.5,-213 189.5,-213 189.5,-213 185.54,-213.58 188.98,-209.44 181.58,-214.16 181.58,-214.16"/>
<ellipse fill="none" stroke="black" cx="178.42" cy="-214.62" rx="3.2" ry="3.2"/>
</g>
<!-- variablecontexts -->
<g id="node3" class="node">
<title>variablecontexts</title>
<g id="a_node3"><a xlink:href="../../tables/variablecontexts.html" xlink:title="variablecontexts" target="_top">
<polygon fill="#ffffff" stroke="transparent" points="8,-80 8,-160 139,-160 139,-80 8,-80"/>
<polygon fill="#f5f5f5" stroke="transparent" points="8.5,-138 8.5,-160 139.5,-160 139.5,-138 8.5,-138"/>
<polygon fill="none" stroke="black" points="8.5,-138 8.5,-160 139.5,-160 139.5,-138 8.5,-138"/>
<text text-anchor="start" x="13.5" y="-147.2" font-family="Helvetica,sans-Serif" font-weight="bold" font-size="11.00">variablecontexts</text>
<text text-anchor="start" x="104.5" y="-146.2" font-family="Helvetica,sans-Serif" font-size="11.00">[table]</text>
<polygon fill="none" stroke="black" points="8.5,-116 8.5,-138 139.5,-138 139.5,-116 8.5,-116"/>
<image xlink:href="../../images/primaryKeys.png" width="11px" height="12px" preserveAspectRatio="xMinYMin meet" x="13.5" y="-133"/>
<text text-anchor="start" x="31.5" y="-124.2" font-family="Helvetica,sans-Serif" font-size="11.00">variablecontextid</text>
<polygon fill="none" stroke="black" points="8.5,-98 8.5,-116 139.5,-116 139.5,-98 8.5,-98"/>
<text text-anchor="start" x="11.5" y="-104.2" font-family="Helvetica,sans-Serif" font-size="11.00">...</text>
<polygon fill="#ffffff" stroke="transparent" points="8.5,-80 8.5,-98 46.5,-98 46.5,-80 8.5,-80"/>
<polygon fill="none" stroke="black" points="8.5,-80 8.5,-98 46.5,-98 46.5,-80 8.5,-80"/>
<text text-anchor="start" x="11.5" y="-86.2" font-family="Helvetica,sans-Serif" font-size="11.00"> &#160;</text>
<polygon fill="#ffffff" stroke="transparent" points="46.5,-80 46.5,-98 104.5,-98 104.5,-80 46.5,-80"/>
<polygon fill="none" stroke="black" points="46.5,-80 46.5,-98 104.5,-98 104.5,-80 46.5,-80"/>
<text text-anchor="start" x="62.5" y="-86.2" font-family="Helvetica,sans-Serif" font-size="11.00">90 rows</text>
<polygon fill="#ffffff" stroke="transparent" points="104.5,-80 104.5,-98 139.5,-98 139.5,-80 104.5,-80"/>
<polygon fill="none" stroke="black" points="104.5,-80 104.5,-98 139.5,-98 139.5,-80 104.5,-80"/>
<text text-anchor="start" x="120.5" y="-86.2" font-family="Helvetica,sans-Serif" font-size="11.00">2 &gt;</text>
</a>
</g>
</g>
<!-- contextsdatasettypes&#45;&gt;variablecontexts -->
<g id="edge2" class="edge">
<title>contextsdatasettypes:w&#45;&gt;variablecontexts:e</title>
<path fill="none" stroke="black" d="M175.62,-185.98C159.73,-170.89 170.17,-127 140.5,-127"/>
<polygon fill="black" stroke="black" points="181.98,-188.28 188.28,-194.39 185.74,-189.64 189.5,-191 189.5,-191 189.5,-191 185.74,-189.64 190.72,-187.61 181.98,-188.28 181.98,-188.28"/>
<ellipse fill="none" stroke="black" cx="178.97" cy="-187.19" rx="3.2" ry="3.2"/>
</g>
<!-- datasets -->
<g id="node4" class="node">
<title>datasets</title>
<g id="a_node4"><a xlink:href="../../tables/datasets.html" xlink:title="datasets" target="_top">
<polygon fill="#ffffff" stroke="transparent" points="244.5,-585 244.5,-643 360.5,-643 360.5,-585 244.5,-585"/>
<polygon fill="#f5f5f5" stroke="transparent" points="244.5,-621 244.5,-643 360.5,-643 360.5,-621 244.5,-621"/>
<polygon fill="none" stroke="black" points="244.5,-621 244.5,-643 360.5,-643 360.5,-621 244.5,-621"/>
<text text-anchor="start" x="249.5" y="-630.2" font-family="Helvetica,sans-Serif" font-weight="bold" font-size="11.00">datasets</text>
<text text-anchor="start" x="325.5" y="-629.2" font-family="Helvetica,sans-Serif" font-size="11.00">[table]</text>
<polygon fill="none" stroke="black" points="244.5,-603 244.5,-621 360.5,-621 360.5,-603 244.5,-603"/>
<text text-anchor="start" x="247.5" y="-609.2" font-family="Helvetica,sans-Serif" font-size="11.00">...</text>
<polygon fill="#ffffff" stroke="transparent" points="244.5,-585 244.5,-603 266.5,-603 266.5,-585 244.5,-585"/>
<polygon fill="none" stroke="black" points="244.5,-585 244.5,-603 266.5,-603 266.5,-585 244.5,-585"/>
<text text-anchor="start" x="247.5" y="-591.2" font-family="Helvetica,sans-Serif" font-size="11.00">&lt; 3</text>
<polygon fill="#ffffff" stroke="transparent" points="266.5,-585 266.5,-603 332.5,-603 332.5,-585 266.5,-585"/>
<polygon fill="none" stroke="black" points="266.5,-585 266.5,-603 332.5,-603 332.5,-585 266.5,-585"/>
<text text-anchor="start" x="269.5" y="-591.2" font-family="Helvetica,sans-Serif" font-size="11.00">49,780 rows</text>
<polygon fill="#ffffff" stroke="transparent" points="332.5,-585 332.5,-603 360.5,-603 360.5,-585 332.5,-585"/>
<polygon fill="none" stroke="black" points="332.5,-585 332.5,-603 360.5,-603 360.5,-585 332.5,-585"/>
<text text-anchor="start" x="335.5" y="-591.2" font-family="Helvetica,sans-Serif" font-size="11.00">13 &gt;</text>
</a>
</g>
</g>
<!-- datasets&#45;&gt;datasettypes -->
<g id="edge3" class="edge">
<title>datasets:w&#45;&gt;datasettypes:e</title>
<path fill="none" stroke="black" d="M229.05,-611.08C207.04,-607.94 196.73,-596.58 180,-575 134.45,-516.23 208.86,-414 134.5,-414"/>
<polygon fill="black" stroke="black" points="235.52,-611.49 243.27,-615.59 239.51,-611.75 243.5,-612 243.5,-612 243.5,-612 239.51,-611.75 243.73,-608.41 235.52,-611.49 235.52,-611.49"/>
<ellipse fill="none" stroke="black" cx="232.32" cy="-611.29" rx="3.2" ry="3.2"/>
</g>
<!-- datasettaxagrouptypes -->
<g id="node5" class="node">
<title>datasettaxagrouptypes</title>
<g id="a_node5"><a xlink:href="../../tables/datasettaxagrouptypes.html" xlink:title="datasettaxagrouptypes" target="_top">
<polygon fill="#ffffff" stroke="transparent" points="220,-506 220,-564 385,-564 385,-506 220,-506"/>
<polygon fill="#f5f5f5" stroke="transparent" points="220.5,-542 220.5,-564 385.5,-564 385.5,-542 220.5,-542"/>
<polygon fill="none" stroke="black" points="220.5,-542 220.5,-564 385.5,-564 385.5,-542 220.5,-542"/>
<text text-anchor="start" x="225.5" y="-551.2" font-family="Helvetica,sans-Serif" font-weight="bold" font-size="11.00">datasettaxagrouptypes</text>
<text text-anchor="start" x="350.5" y="-550.2" font-family="Helvetica,sans-Serif" font-size="11.00">[table]</text>
<polygon fill="none" stroke="black" points="220.5,-524 220.5,-542 385.5,-542 385.5,-524 220.5,-524"/>
<text text-anchor="start" x="223.5" y="-530.2" font-family="Helvetica,sans-Serif" font-size="11.00">...</text>
<polygon fill="#ffffff" stroke="transparent" points="220.5,-506 220.5,-524 281.5,-524 281.5,-506 220.5,-506"/>
<polygon fill="none" stroke="black" points="220.5,-506 220.5,-524 281.5,-524 281.5,-506 220.5,-506"/>
<text text-anchor="start" x="223.5" y="-512.2" font-family="Helvetica,sans-Serif" font-size="11.00">&lt; 2</text>
<polygon fill="#ffffff" stroke="transparent" points="281.5,-506 281.5,-524 352.5,-524 352.5,-506 281.5,-506"/>
<polygon fill="none" stroke="black" points="281.5,-506 281.5,-524 352.5,-524 352.5,-506 281.5,-506"/>
<text text-anchor="start" x="304.5" y="-512.2" font-family="Helvetica,sans-Serif" font-size="11.00">207 rows</text>
<polygon fill="#ffffff" stroke="transparent" points="352.5,-506 352.5,-524 385.5,-524 385.5,-506 352.5,-506"/>
<polygon fill="none" stroke="black" points="352.5,-506 352.5,-524 385.5,-524 385.5,-506 352.5,-506"/>
<text text-anchor="start" x="375.5" y="-512.2" font-family="Helvetica,sans-Serif" font-size="11.00"> &#160;</text>
</a>
</g>
</g>
<!-- datasettaxagrouptypes&#45;&gt;datasettypes -->
<g id="edge4" class="edge">
<title>datasettaxagrouptypes:w&#45;&gt;datasettypes:e</title>
<path fill="none" stroke="black" d="M205.26,-529.89C194.24,-523.93 191.09,-510.23 180,-496 154.37,-463.13 176.18,-414 134.5,-414"/>
<polygon fill="black" stroke="black" points="211.68,-531.29 218.73,-536.52 215.59,-532.15 219.5,-533 219.5,-533 219.5,-533 215.59,-532.15 220.27,-529.48 211.68,-531.29 211.68,-531.29"/>
<ellipse fill="none" stroke="black" cx="208.56" cy="-530.61" rx="3.2" ry="3.2"/>
</g>
<!-- elementdatasettaxagroups -->
<g id="node6" class="node">
<title>elementdatasettaxagroups</title>
<g id="a_node6"><a xlink:href="../../tables/elementdatasettaxagroups.html" xlink:title="elementdatasettaxagroups" target="_top">
<polygon fill="#ffffff" stroke="transparent" points="211,-427 211,-485 394,-485 394,-427 211,-427"/>
<polygon fill="#f5f5f5" stroke="transparent" points="211.5,-463 211.5,-485 394.5,-485 394.5,-463 211.5,-463"/>
<polygon fill="none" stroke="black" points="211.5,-463 211.5,-485 394.5,-485 394.5,-463 211.5,-463"/>
<text text-anchor="start" x="216.5" y="-472.2" font-family="Helvetica,sans-Serif" font-weight="bold" font-size="11.00">elementdatasettaxagroups</text>
<text text-anchor="start" x="359.5" y="-471.2" font-family="Helvetica,sans-Serif" font-size="11.00">[table]</text>
<polygon fill="none" stroke="black" points="211.5,-445 211.5,-463 394.5,-463 394.5,-445 211.5,-445"/>
<text text-anchor="start" x="214.5" y="-451.2" font-family="Helvetica,sans-Serif" font-size="11.00">...</text>
<polygon fill="#ffffff" stroke="transparent" points="211.5,-427 211.5,-445 277.5,-445 277.5,-427 211.5,-427"/>
<polygon fill="none" stroke="black" points="211.5,-427 211.5,-445 277.5,-445 277.5,-427 211.5,-427"/>
<text text-anchor="start" x="214.5" y="-433.2" font-family="Helvetica,sans-Serif" font-size="11.00">&lt; 2</text>
<polygon fill="#ffffff" stroke="transparent" points="277.5,-427 277.5,-445 359.5,-445 359.5,-427 277.5,-427"/>
<polygon fill="none" stroke="black" points="277.5,-427 277.5,-445 359.5,-445 359.5,-427 277.5,-427"/>
<text text-anchor="start" x="302.5" y="-433.2" font-family="Helvetica,sans-Serif" font-size="11.00">1,474 rows</text>
<polygon fill="#ffffff" stroke="transparent" points="359.5,-427 359.5,-445 394.5,-445 394.5,-427 359.5,-427"/>
<polygon fill="none" stroke="black" points="359.5,-427 359.5,-445 394.5,-445 394.5,-427 359.5,-427"/>
<text text-anchor="start" x="384.5" y="-433.2" font-family="Helvetica,sans-Serif" font-size="11.00"> &#160;</text>
</a>
</g>
</g>
<!-- elementdatasettaxagroups&#45;&gt;datasettypes -->
<g id="edge5" class="edge">
<title>elementdatasettaxagroups:w&#45;&gt;datasettypes:e</title>
<path fill="none" stroke="black" d="M196.13,-451.73C171.62,-443.27 167.15,-414 134.5,-414"/>
<polygon fill="black" stroke="black" points="202.6,-452.75 209.94,-457.56 206.55,-453.38 210.5,-454 210.5,-454 210.5,-454 206.55,-453.38 211.06,-450.44 202.6,-452.75 202.6,-452.75"/>
<ellipse fill="none" stroke="black" cx="199.44" cy="-452.26" rx="3.2" ry="3.2"/>
</g>
<!-- taphonomicsystemsdatasettypes -->
<g id="node7" class="node">
<title>taphonomicsystemsdatasettypes</title>
<g id="a_node7"><a xlink:href="../../tables/taphonomicsystemsdatasettypes.html" xlink:title="taphonomicsystemsdatasettypes" target="_top">
<polygon fill="#ffffff" stroke="transparent" points="194,-348 194,-406 411,-406 411,-348 194,-348"/>
<polygon fill="#f5f5f5" stroke="transparent" points="194.5,-384 194.5,-406 411.5,-406 411.5,-384 194.5,-384"/>
<polygon fill="none" stroke="black" points="194.5,-384 194.5,-406 411.5,-406 411.5,-384 194.5,-384"/>
<text text-anchor="start" x="199.5" y="-393.2" font-family="Helvetica,sans-Serif" font-weight="bold" font-size="11.00">taphonomicsystemsdatasettypes</text>
<text text-anchor="start" x="376.5" y="-392.2" font-family="Helvetica,sans-Serif" font-size="11.00">[table]</text>
<polygon fill="none" stroke="black" points="194.5,-366 194.5,-384 411.5,-384 411.5,-366 194.5,-366"/>
<text text-anchor="start" x="197.5" y="-372.2" font-family="Helvetica,sans-Serif" font-size="11.00">...</text>
<polygon fill="#ffffff" stroke="transparent" points="194.5,-348 194.5,-366 284.5,-366 284.5,-348 194.5,-348"/>
<polygon fill="none" stroke="black" points="194.5,-348 194.5,-366 284.5,-366 284.5,-348 194.5,-348"/>
<text text-anchor="start" x="197.5" y="-354.2" font-family="Helvetica,sans-Serif" font-size="11.00">&lt; 2</text>
<polygon fill="#ffffff" stroke="transparent" points="284.5,-348 284.5,-366 363.5,-366 363.5,-348 284.5,-348"/>
<polygon fill="none" stroke="black" points="284.5,-348 284.5,-366 363.5,-366 363.5,-348 284.5,-348"/>
<text text-anchor="start" x="321.5" y="-354.2" font-family="Helvetica,sans-Serif" font-size="11.00">11 rows</text>
<polygon fill="#ffffff" stroke="transparent" points="363.5,-348 363.5,-366 411.5,-366 411.5,-348 363.5,-348"/>
<polygon fill="none" stroke="black" points="363.5,-348 363.5,-366 411.5,-366 411.5,-348 363.5,-348"/>
<text text-anchor="start" x="401.5" y="-354.2" font-family="Helvetica,sans-Serif" font-size="11.00"> &#160;</text>
</a>
</g>
</g>
<!-- taphonomicsystemsdatasettypes&#45;&gt;datasettypes -->
<g id="edge6" class="edge">
<title>taphonomicsystemsdatasettypes:w&#45;&gt;datasettypes:e</title>
<path fill="none" stroke="black" d="M179.08,-378.6C162.28,-388.25 160.04,-414 134.5,-414"/>
<polygon fill="black" stroke="black" points="185.74,-376.94 194.37,-378.49 189.62,-375.97 193.5,-375 193.5,-375 193.5,-375 189.62,-375.97 192.63,-371.51 185.74,-376.94 185.74,-376.94"/>
<ellipse fill="none" stroke="black" cx="182.63" cy="-377.71" rx="3.2" ry="3.2"/>
</g>
<!-- unitsdatasettypes -->
<g id="node8" class="node">
<title>unitsdatasettypes</title>
<g id="a_node8"><a xlink:href="../../tables/unitsdatasettypes.html" xlink:title="unitsdatasettypes" target="_top">
<polygon fill="#ffffff" stroke="transparent" points="233.5,-269 233.5,-327 371.5,-327 371.5,-269 233.5,-269"/>
<polygon fill="#f5f5f5" stroke="transparent" points="233.5,-305 233.5,-327 371.5,-327 371.5,-305 233.5,-305"/>
<polygon fill="none" stroke="black" points="233.5,-305 233.5,-327 371.5,-327 371.5,-305 233.5,-305"/>
<text text-anchor="start" x="238.5" y="-314.2" font-family="Helvetica,sans-Serif" font-weight="bold" font-size="11.00">unitsdatasettypes</text>
<text text-anchor="start" x="336.5" y="-313.2" font-family="Helvetica,sans-Serif" font-size="11.00">[table]</text>
<polygon fill="none" stroke="black" points="233.5,-287 233.5,-305 371.5,-305 371.5,-287 233.5,-287"/>
<text text-anchor="start" x="236.5" y="-293.2" font-family="Helvetica,sans-Serif" font-size="11.00">...</text>
<polygon fill="#ffffff" stroke="transparent" points="233.5,-269 233.5,-287 281.5,-287 281.5,-269 233.5,-269"/>
<polygon fill="none" stroke="black" points="233.5,-269 233.5,-287 281.5,-287 281.5,-269 233.5,-269"/>
<text text-anchor="start" x="236.5" y="-275.2" font-family="Helvetica,sans-Serif" font-size="11.00">&lt; 2</text>
<polygon fill="#ffffff" stroke="transparent" points="281.5,-269 281.5,-287 345.5,-287 345.5,-269 281.5,-269"/>
<polygon fill="none" stroke="black" points="281.5,-269 281.5,-287 345.5,-287 345.5,-269 281.5,-269"/>
<text text-anchor="start" x="297.5" y="-275.2" font-family="Helvetica,sans-Serif" font-size="11.00">672 rows</text>
<polygon fill="#ffffff" stroke="transparent" points="345.5,-269 345.5,-287 371.5,-287 371.5,-269 345.5,-269"/>
<polygon fill="none" stroke="black" points="345.5,-269 345.5,-287 371.5,-287 371.5,-269 345.5,-269"/>
<text text-anchor="start" x="361.5" y="-275.2" font-family="Helvetica,sans-Serif" font-size="11.00"> &#160;</text>
</a>
</g>
</g>
<!-- unitsdatasettypes&#45;&gt;datasettypes -->
<g id="edge7" class="edge">
<title>unitsdatasettypes:w&#45;&gt;datasettypes:e</title>
<path fill="none" stroke="black" d="M217.75,-298.11C200.82,-303.73 195.81,-319.89 180,-338 154.11,-367.66 173.87,-414 134.5,-414"/>
<polygon fill="black" stroke="black" points="224.58,-297.13 233.01,-299.56 228.54,-296.57 232.5,-296 232.5,-296 232.5,-296 228.54,-296.57 231.99,-292.44 224.58,-297.13 224.58,-297.13"/>
<ellipse fill="none" stroke="black" cx="221.41" cy="-297.58" rx="3.2" ry="3.2"/>
</g>
<!-- variables -->
<g id="node9" class="node">
<title>variables</title>
<g id="a_node9"><a xlink:href="../../tables/variables.html" xlink:title="variables" target="_top">
<polygon fill="#ffffff" stroke="transparent" points="247.5,-37 247.5,-95 357.5,-95 357.5,-37 247.5,-37"/>
<polygon fill="#f5f5f5" stroke="transparent" points="247.5,-73 247.5,-95 357.5,-95 357.5,-73 247.5,-73"/>
<polygon fill="none" stroke="black" points="247.5,-73 247.5,-95 357.5,-95 357.5,-73 247.5,-73"/>
<text text-anchor="start" x="252.5" y="-82.2" font-family="Helvetica,sans-Serif" font-weight="bold" font-size="11.00">variables</text>
<text text-anchor="start" x="322.5" y="-81.2" font-family="Helvetica,sans-Serif" font-size="11.00">[table]</text>
<polygon fill="none" stroke="black" points="247.5,-55 247.5,-73 357.5,-73 357.5,-55 247.5,-55"/>
<text text-anchor="start" x="250.5" y="-61.2" font-family="Helvetica,sans-Serif" font-size="11.00">...</text>
<polygon fill="#ffffff" stroke="transparent" points="247.5,-37 247.5,-55 269.5,-55 269.5,-37 247.5,-37"/>
<polygon fill="none" stroke="black" points="247.5,-37 247.5,-55 269.5,-55 269.5,-37 247.5,-37"/>
<text text-anchor="start" x="250.5" y="-43.2" font-family="Helvetica,sans-Serif" font-size="11.00">&lt; 4</text>
<polygon fill="#ffffff" stroke="transparent" points="269.5,-37 269.5,-55 335.5,-55 335.5,-37 269.5,-37"/>
<polygon fill="none" stroke="black" points="269.5,-37 269.5,-55 335.5,-55 335.5,-37 269.5,-37"/>
<text text-anchor="start" x="272.5" y="-43.2" font-family="Helvetica,sans-Serif" font-size="11.00">57,421 rows</text>
<polygon fill="#ffffff" stroke="transparent" points="335.5,-37 335.5,-55 357.5,-55 357.5,-37 335.5,-37"/>
<polygon fill="none" stroke="black" points="335.5,-37 335.5,-55 357.5,-55 357.5,-37 335.5,-37"/>
<text text-anchor="start" x="338.5" y="-43.2" font-family="Helvetica,sans-Serif" font-size="11.00">6 &gt;</text>
</a>
</g>
</g>
<!-- variables&#45;&gt;variablecontexts -->
<g id="edge8" class="edge">
<title>variables:w&#45;&gt;variablecontexts:e</title>
<path fill="none" stroke="black" d="M233.19,-69.59C206.13,-85.01 151.69,-127 140.5,-127"/>
<polygon fill="black" stroke="black" points="239.12,-67.1 247.89,-67.32 242.81,-65.55 246.5,-64 246.5,-64 246.5,-64 242.81,-65.55 245.11,-60.68 239.12,-67.1 239.12,-67.1"/>
<ellipse fill="none" stroke="black" cx="236.17" cy="-68.34" rx="3.2" ry="3.2"/>
</g>
</g>
</svg>
