<?xml version="1.0" encoding="UTF-8" standalone="no"?>
<!DOCTYPE svg PUBLIC "-//W3C//DTD SVG 1.1//EN"
 "http://www.w3.org/Graphics/SVG/1.1/DTD/svg11.dtd">
<!-- Generated by graphviz version 2.43.0 (0)
 -->
<!-- Title: oneDegreeRelationshipsDiagram Pages: 1 -->
<svg width="437pt" height="274pt"
 viewBox="0.00 0.00 437.00 274.00" xmlns="http://www.w3.org/2000/svg" xmlns:xlink="http://www.w3.org/1999/xlink">
<g id="graph0" class="graph" transform="scale(1 1) rotate(0) translate(4 270)">
<title>oneDegreeRelationshipsDiagram</title>
<polygon fill="#ffffff" stroke="transparent" points="-4,4 -4,-270 433,-270 433,4 -4,4"/>
<text text-anchor="middle" x="71.5" y="-7.2" font-family="Helvetica,sans-Serif" font-size="11.00">Generated by SchemaSpy</text>
<!-- contactreferences -->
<g id="node1" class="node">
<title>contactreferences</title>
<g id="a_node1"><a xlink:href="../../tables/contactreferences.html" xlink:title="contactreferences" target="_top">
<polygon fill="#ffffff" stroke="transparent" points="197,-92 197,-202 421,-202 421,-92 197,-92"/>
<polygon fill="#f5f5f5" stroke="transparent" points="199,-178 199,-200 419,-200 419,-178 199,-178"/>
<polygon fill="none" stroke="black" points="199,-178 199,-200 419,-200 419,-178 199,-178"/>
<text text-anchor="start" x="204" y="-187.2" font-family="Helvetica,sans-Serif" font-weight="bold" font-size="11.00">contactreferences</text>
<text text-anchor="start" x="384" y="-186.2" font-family="Helvetica,sans-Serif" font-size="11.00">[table]</text>
<polygon fill="none" stroke="black" points="199,-156 199,-178 329,-178 329,-156 199,-156"/>
<image xlink:href="../../images/foreignKeys.png" width="11px" height="12px" preserveAspectRatio="xMinYMin meet" x="204" y="-173"/>
<text text-anchor="start" x="219" y="-164.2" font-family="Helvetica,sans-Serif" font-size="11.00">contactid</text>
<polygon fill="none" stroke="black" points="329,-156 329,-178 419,-178 419,-156 329,-156"/>
<text text-anchor="start" x="332" y="-164.2" font-family="Helvetica,sans-Serif" font-size="11.00">int4[10]</text>
<polygon fill="none" stroke="black" points="199,-134 199,-156 329,-156 329,-134 199,-134"/>
<image xlink:href="../../images/foreignKeys.png" width="11px" height="12px" preserveAspectRatio="xMinYMin meet" x="204" y="-151"/>
<text text-anchor="start" x="219" y="-142.2" font-family="Helvetica,sans-Serif" font-size="11.00">exdatabaseid</text>
<polygon fill="none" stroke="black" points="329,-134 329,-156 419,-156 419,-134 329,-134"/>
<text text-anchor="start" x="332" y="-142.2" font-family="Helvetica,sans-Serif" font-size="11.00">int4[10]</text>
<polygon fill="none" stroke="black" points="199,-112 199,-134 329,-134 329,-112 199,-112"/>
<text text-anchor="start" x="219" y="-120.2" font-family="Helvetica,sans-Serif" font-size="11.00">identifier</text>
<polygon fill="none" stroke="black" points="329,-112 329,-134 419,-134 419,-112 329,-112"/>
<text text-anchor="start" x="332" y="-120.2" font-family="Helvetica,sans-Serif" font-size="11.00">text[2147483647]</text>
<polygon fill="#ffffff" stroke="transparent" points="199,-94 199,-112 249,-112 249,-94 199,-94"/>
<polygon fill="none" stroke="black" points="199,-94 199,-112 249,-112 249,-94 199,-94"/>
<text text-anchor="start" x="202" y="-100.2" font-family="Helvetica,sans-Serif" font-size="11.00">&lt; 2</text>
<polygon fill="#ffffff" stroke="transparent" points="249,-94 249,-112 329,-112 329,-94 249,-94"/>
<polygon fill="none" stroke="black" points="249,-94 249,-112 329,-112 329,-94 249,-94"/>
<text text-anchor="start" x="281" y="-100.2" font-family="Helvetica,sans-Serif" font-size="11.00">662 rows</text>
<polygon fill="#ffffff" stroke="transparent" points="329,-94 329,-112 419,-112 419,-94 329,-94"/>
<polygon fill="none" stroke="black" points="329,-94 329,-112 419,-112 419,-94 329,-94"/>
<text text-anchor="start" x="400" y="-100.2" font-family="Helvetica,sans-Serif" font-size="11.00">0 &gt;</text>
<polygon fill="none" stroke="black" stroke-width="2" points="198,-93 198,-201 420,-201 420,-93 198,-93"/>
</a>
</g>
</g>
<!-- contacts -->
<g id="node2" class="node">
<title>contacts</title>
<g id="a_node2"><a xlink:href="../../tables/contacts.html" xlink:title="contacts" target="_top">
<polygon fill="#ffffff" stroke="transparent" points="18,-138 18,-262 138,-262 138,-138 18,-138"/>
<polygon fill="#f5f5f5" stroke="transparent" points="18,-240 18,-262 138,-262 138,-240 18,-240"/>
<polygon fill="none" stroke="black" points="18,-240 18,-262 138,-262 138,-240 18,-240"/>
<text text-anchor="start" x="23" y="-249.2" font-family="Helvetica,sans-Serif" font-weight="bold" font-size="11.00">contacts</text>
<text text-anchor="start" x="103" y="-248.2" font-family="Helvetica,sans-Serif" font-size="11.00">[table]</text>
<polygon fill="none" stroke="black" points="18,-218 18,-240 138,-240 138,-218 18,-218"/>
<image xlink:href="../../images/primaryKeys.png" width="11px" height="12px" preserveAspectRatio="xMinYMin meet" x="23" y="-235"/>
<text text-anchor="start" x="38" y="-226.2" font-family="Helvetica,sans-Serif" font-size="11.00">contactid</text>
<polygon fill="none" stroke="black" points="18,-196 18,-218 138,-218 138,-196 18,-196"/>
<image xlink:href="../../images/foreignKeys.png" width="11px" height="12px" preserveAspectRatio="xMinYMin meet" x="23" y="-213"/>
<text text-anchor="start" x="38" y="-204.2" font-family="Helvetica,sans-Serif" font-size="11.00">contactstatusid</text>
<polygon fill="#ffffff" stroke="transparent" points="18,-174 18,-196 138,-196 138,-174 18,-174"/>
<polygon fill="none" stroke="black" points="18,-174 18,-196 138,-196 138,-174 18,-174"/>
<text text-anchor="start" x="38" y="-182.2" font-family="Helvetica,sans-Serif" font-size="11.00">familyname</text>
<polygon fill="none" stroke="black" points="18,-156 18,-174 138,-174 138,-156 18,-156"/>
<text text-anchor="start" x="21" y="-162.2" font-family="Helvetica,sans-Serif" font-size="11.00">...</text>
<polygon fill="#ffffff" stroke="transparent" points="18,-138 18,-156 42,-156 42,-138 18,-138"/>
<polygon fill="none" stroke="black" points="18,-138 18,-156 42,-156 42,-138 18,-138"/>
<text text-anchor="start" x="21" y="-144.2" font-family="Helvetica,sans-Serif" font-size="11.00">&lt; 1</text>
<polygon fill="#ffffff" stroke="transparent" points="42,-138 42,-156 109,-156 109,-138 42,-138"/>
<polygon fill="none" stroke="black" points="42,-138 42,-156 109,-156 109,-138 42,-138"/>
<text text-anchor="start" x="46" y="-144.2" font-family="Helvetica,sans-Serif" font-size="11.00">13,549 rows</text>
<polygon fill="#ffffff" stroke="transparent" points="109,-138 109,-156 138,-156 138,-138 109,-138"/>
<polygon fill="none" stroke="black" points="109,-138 109,-156 138,-156 138,-138 109,-138"/>
<text text-anchor="start" x="113" y="-144.2" font-family="Helvetica,sans-Serif" font-size="11.00">17 &gt;</text>
</a>
</g>
</g>
<!-- contactreferences&#45;&gt;contacts -->
<g id="edge1" class="edge">
<title>contactreferences:w&#45;&gt;contacts:e</title>
<path fill="none" stroke="black" d="M184.06,-170.88C163.89,-184.45 171.24,-229 139,-229"/>
<polygon fill="black" stroke="black" points="190.29,-169.14 198.97,-170.47 194.15,-168.07 198,-167 198,-167 198,-167 194.15,-168.07 197.03,-163.53 190.29,-169.14 190.29,-169.14"/>
<ellipse fill="none" stroke="black" cx="187.21" cy="-170" rx="3.2" ry="3.2"/>
</g>
<!-- externaldatabases -->
<g id="node3" class="node">
<title>externaldatabases</title>
<g id="a_node3"><a xlink:href="../../tables/externaldatabases.html" xlink:title="externaldatabases" target="_top">
<polygon fill="#ffffff" stroke="transparent" points="8,-37 8,-117 148,-117 148,-37 8,-37"/>
<polygon fill="#f5f5f5" stroke="transparent" points="8,-95 8,-117 148,-117 148,-95 8,-95"/>
<polygon fill="none" stroke="black" points="8,-95 8,-117 148,-117 148,-95 8,-95"/>
<text text-anchor="start" x="13" y="-104.2" font-family="Helvetica,sans-Serif" font-weight="bold" font-size="11.00">externaldatabases</text>
<text text-anchor="start" x="113" y="-103.2" font-family="Helvetica,sans-Serif" font-size="11.00">[table]</text>
<polygon fill="none" stroke="black" points="8,-73 8,-95 148,-95 148,-73 8,-73"/>
<image xlink:href="../../images/primaryKeys.png" width="11px" height="12px" preserveAspectRatio="xMinYMin meet" x="13" y="-90"/>
<text text-anchor="start" x="32" y="-81.2" font-family="Helvetica,sans-Serif" font-size="11.00">extdatabaseid</text>
<polygon fill="none" stroke="black" points="8,-55 8,-73 148,-73 148,-55 8,-55"/>
<text text-anchor="start" x="11" y="-61.2" font-family="Helvetica,sans-Serif" font-size="11.00">...</text>
<polygon fill="#ffffff" stroke="transparent" points="8,-37 8,-55 54,-55 54,-37 8,-37"/>
<polygon fill="none" stroke="black" points="8,-37 8,-55 54,-55 54,-37 8,-37"/>
<text text-anchor="start" x="11" y="-43.2" font-family="Helvetica,sans-Serif" font-size="11.00"> &#160;</text>
<polygon fill="#ffffff" stroke="transparent" points="54,-37 54,-55 109,-55 109,-37 54,-37"/>
<polygon fill="none" stroke="black" points="54,-37 54,-55 109,-55 109,-37 54,-37"/>
<text text-anchor="start" x="73" y="-43.2" font-family="Helvetica,sans-Serif" font-size="11.00">9 rows</text>
<polygon fill="#ffffff" stroke="transparent" points="109,-37 109,-55 148,-55 148,-37 109,-37"/>
<polygon fill="none" stroke="black" points="109,-37 109,-55 148,-55 148,-37 109,-37"/>
<text text-anchor="start" x="129" y="-43.2" font-family="Helvetica,sans-Serif" font-size="11.00">3 &gt;</text>
</a>
</g>
</g>
<!-- contactreferences&#45;&gt;externaldatabases -->
<g id="edge2" class="edge">
<title>contactreferences:w&#45;&gt;externaldatabases:e</title>
<path fill="none" stroke="black" d="M184.41,-140.21C168.65,-125.83 177.8,-84 149,-84"/>
<polygon fill="black" stroke="black" points="190.45,-142.34 196.8,-148.4 194.23,-143.67 198,-145 198,-145 198,-145 194.23,-143.67 199.2,-141.6 190.45,-142.34 190.45,-142.34"/>
<ellipse fill="none" stroke="black" cx="187.44" cy="-141.28" rx="3.2" ry="3.2"/>
</g>
</g>
</svg>
