<?xml version="1.0" encoding="UTF-8" standalone="no"?>
<!DOCTYPE svg PUBLIC "-//W3C//DTD SVG 1.1//EN"
 "http://www.w3.org/Graphics/SVG/1.1/DTD/svg11.dtd">
<!-- Generated by graphviz version 2.43.0 (0)
 -->
<!-- Title: oneDegreeRelationshipsDiagram Pages: 1 -->
<svg width="590pt" height="486pt"
 viewBox="0.00 0.00 590.00 486.00" xmlns="http://www.w3.org/2000/svg" xmlns:xlink="http://www.w3.org/1999/xlink">
<g id="graph0" class="graph" transform="scale(1 1) rotate(0) translate(4 482)">
<title>oneDegreeRelationshipsDiagram</title>
<polygon fill="#ffffff" stroke="transparent" points="-4,4 -4,-482 586,-482 586,4 -4,4"/>
<text text-anchor="middle" x="71.5" y="-7.2" font-family="Helvetica,sans-Serif" font-size="11.00">Generated by SchemaSpy</text>
<!-- datasettaxonnotes -->
<g id="node1" class="node">
<title>datasettaxonnotes</title>
<g id="a_node1"><a xlink:href="../../tables/datasettaxonnotes.html" xlink:title="datasettaxonnotes" target="_top">
<polygon fill="#ffffff" stroke="transparent" points="346,-133 346,-331 574,-331 574,-133 346,-133"/>
<polygon fill="#f5f5f5" stroke="transparent" points="348,-307 348,-329 572,-329 572,-307 348,-307"/>
<polygon fill="none" stroke="black" points="348,-307 348,-329 572,-329 572,-307 348,-307"/>
<text text-anchor="start" x="353" y="-316.2" font-family="Helvetica,sans-Serif" font-weight="bold" font-size="11.00">datasettaxonnotes</text>
<text text-anchor="start" x="537" y="-315.2" font-family="Helvetica,sans-Serif" font-size="11.00">[table]</text>
<polygon fill="none" stroke="black" points="348,-285 348,-307 482,-307 482,-285 348,-285"/>
<image xlink:href="../../images/primaryKeys.png" width="11px" height="12px" preserveAspectRatio="xMinYMin meet" x="353" y="-302"/>
<text text-anchor="start" x="368" y="-293.2" font-family="Helvetica,sans-Serif" font-size="11.00">datasetid</text>
<polygon fill="none" stroke="black" points="482,-285 482,-307 572,-307 572,-285 482,-285"/>
<text text-anchor="start" x="485" y="-293.2" font-family="Helvetica,sans-Serif" font-size="11.00">int4[10]</text>
<polygon fill="none" stroke="black" points="348,-263 348,-285 482,-285 482,-263 348,-263"/>
<image xlink:href="../../images/primaryKeys.png" width="11px" height="12px" preserveAspectRatio="xMinYMin meet" x="353" y="-280"/>
<text text-anchor="start" x="368" y="-271.2" font-family="Helvetica,sans-Serif" font-size="11.00">taxonid</text>
<polygon fill="none" stroke="black" points="482,-263 482,-285 572,-285 572,-263 482,-263"/>
<text text-anchor="start" x="485" y="-271.2" font-family="Helvetica,sans-Serif" font-size="11.00">int4[10]</text>
<polygon fill="none" stroke="black" points="348,-241 348,-263 482,-263 482,-241 348,-241"/>
<image xlink:href="../../images/foreignKeys.png" width="11px" height="12px" preserveAspectRatio="xMinYMin meet" x="353" y="-258"/>
<text text-anchor="start" x="368" y="-249.2" font-family="Helvetica,sans-Serif" font-size="11.00">contactid</text>
<polygon fill="none" stroke="black" points="482,-241 482,-263 572,-263 572,-241 482,-241"/>
<text text-anchor="start" x="485" y="-249.2" font-family="Helvetica,sans-Serif" font-size="11.00">int4[10]</text>
<polygon fill="none" stroke="black" points="348,-219 348,-241 482,-241 482,-219 348,-219"/>
<text text-anchor="start" x="368" y="-227.2" font-family="Helvetica,sans-Serif" font-size="11.00">date</text>
<polygon fill="none" stroke="black" points="482,-219 482,-241 572,-241 572,-219 482,-219"/>
<text text-anchor="start" x="485" y="-227.2" font-family="Helvetica,sans-Serif" font-size="11.00">date[13]</text>
<polygon fill="none" stroke="black" points="348,-197 348,-219 482,-219 482,-197 348,-197"/>
<text text-anchor="start" x="368" y="-205.2" font-family="Helvetica,sans-Serif" font-size="11.00">notes</text>
<polygon fill="none" stroke="black" points="482,-197 482,-219 572,-219 572,-197 482,-197"/>
<text text-anchor="start" x="485" y="-205.2" font-family="Helvetica,sans-Serif" font-size="11.00">text[2147483647]</text>
<polygon fill="none" stroke="black" points="348,-175 348,-197 482,-197 482,-175 348,-175"/>
<text text-anchor="start" x="368" y="-183.2" font-family="Helvetica,sans-Serif" font-size="11.00">recdatecreated</text>
<polygon fill="none" stroke="black" points="482,-175 482,-197 572,-197 572,-175 482,-175"/>
<text text-anchor="start" x="485" y="-183.2" font-family="Helvetica,sans-Serif" font-size="11.00">timestamp[22]</text>
<polygon fill="none" stroke="black" points="348,-153 348,-175 482,-175 482,-153 348,-153"/>
<text text-anchor="start" x="368" y="-161.2" font-family="Helvetica,sans-Serif" font-size="11.00">recdatemodified</text>
<polygon fill="none" stroke="black" points="482,-153 482,-175 572,-175 572,-153 482,-153"/>
<text text-anchor="start" x="485" y="-161.2" font-family="Helvetica,sans-Serif" font-size="11.00">timestamp[22]</text>
<polygon fill="#ffffff" stroke="transparent" points="348,-135 348,-153 396,-153 396,-135 348,-135"/>
<polygon fill="none" stroke="black" points="348,-135 348,-153 396,-153 396,-135 348,-135"/>
<text text-anchor="start" x="351" y="-141.2" font-family="Helvetica,sans-Serif" font-size="11.00">&lt; 3</text>
<polygon fill="#ffffff" stroke="transparent" points="396,-135 396,-153 482,-153 482,-135 396,-135"/>
<polygon fill="none" stroke="black" points="396,-135 396,-153 482,-153 482,-135 396,-135"/>
<text text-anchor="start" x="425" y="-141.2" font-family="Helvetica,sans-Serif" font-size="11.00">1,674 rows</text>
<polygon fill="#ffffff" stroke="transparent" points="482,-135 482,-153 572,-153 572,-135 482,-135"/>
<polygon fill="none" stroke="black" points="482,-135 482,-153 572,-153 572,-135 482,-135"/>
<text text-anchor="start" x="553" y="-141.2" font-family="Helvetica,sans-Serif" font-size="11.00">0 &gt;</text>
<polygon fill="none" stroke="black" stroke-width="2" points="347,-134 347,-330 573,-330 573,-134 347,-134"/>
</a>
</g>
</g>
<!-- contacts -->
<g id="node2" class="node">
<title>contacts</title>
<g id="a_node2"><a xlink:href="../../tables/contacts.html" xlink:title="contacts" target="_top">
<polygon fill="#ffffff" stroke="transparent" points="8,-37 8,-161 128,-161 128,-37 8,-37"/>
<polygon fill="#f5f5f5" stroke="transparent" points="8,-139 8,-161 128,-161 128,-139 8,-139"/>
<polygon fill="none" stroke="black" points="8,-139 8,-161 128,-161 128,-139 8,-139"/>
<text text-anchor="start" x="13" y="-148.2" font-family="Helvetica,sans-Serif" font-weight="bold" font-size="11.00">contacts</text>
<text text-anchor="start" x="93" y="-147.2" font-family="Helvetica,sans-Serif" font-size="11.00">[table]</text>
<polygon fill="none" stroke="black" points="8,-117 8,-139 128,-139 128,-117 8,-117"/>
<image xlink:href="../../images/primaryKeys.png" width="11px" height="12px" preserveAspectRatio="xMinYMin meet" x="13" y="-134"/>
<text text-anchor="start" x="28" y="-125.2" font-family="Helvetica,sans-Serif" font-size="11.00">contactid</text>
<polygon fill="none" stroke="black" points="8,-95 8,-117 128,-117 128,-95 8,-95"/>
<image xlink:href="../../images/foreignKeys.png" width="11px" height="12px" preserveAspectRatio="xMinYMin meet" x="13" y="-112"/>
<text text-anchor="start" x="28" y="-103.2" font-family="Helvetica,sans-Serif" font-size="11.00">contactstatusid</text>
<polygon fill="#ffffff" stroke="transparent" points="8,-73 8,-95 128,-95 128,-73 8,-73"/>
<polygon fill="none" stroke="black" points="8,-73 8,-95 128,-95 128,-73 8,-73"/>
<text text-anchor="start" x="28" y="-81.2" font-family="Helvetica,sans-Serif" font-size="11.00">familyname</text>
<polygon fill="none" stroke="black" points="8,-55 8,-73 128,-73 128,-55 8,-55"/>
<text text-anchor="start" x="11" y="-61.2" font-family="Helvetica,sans-Serif" font-size="11.00">...</text>
<polygon fill="#ffffff" stroke="transparent" points="8,-37 8,-55 32,-55 32,-37 8,-37"/>
<polygon fill="none" stroke="black" points="8,-37 8,-55 32,-55 32,-37 8,-37"/>
<text text-anchor="start" x="11" y="-43.2" font-family="Helvetica,sans-Serif" font-size="11.00">&lt; 1</text>
<polygon fill="#ffffff" stroke="transparent" points="32,-37 32,-55 99,-55 99,-37 32,-37"/>
<polygon fill="none" stroke="black" points="32,-37 32,-55 99,-55 99,-37 32,-37"/>
<text text-anchor="start" x="36" y="-43.2" font-family="Helvetica,sans-Serif" font-size="11.00">13,549 rows</text>
<polygon fill="#ffffff" stroke="transparent" points="99,-37 99,-55 128,-55 128,-37 99,-37"/>
<polygon fill="none" stroke="black" points="99,-37 99,-55 128,-55 128,-37 99,-37"/>
<text text-anchor="start" x="103" y="-43.2" font-family="Helvetica,sans-Serif" font-size="11.00">17 &gt;</text>
</a>
</g>
</g>
<!-- datasettaxonnotes&#45;&gt;contacts -->
<g id="edge1" class="edge">
<title>datasettaxonnotes:w&#45;&gt;contacts:e</title>
<path fill="none" stroke="black" d="M332.67,-249.77C292.15,-234.36 354.31,-143.12 305,-106 256.71,-69.64 227.54,-90.96 169,-106 149.35,-111.05 149.29,-128 129,-128"/>
<polygon fill="black" stroke="black" points="339.09,-250.77 346.45,-255.56 343.05,-251.39 347,-252 347,-252 347,-252 343.05,-251.39 347.55,-248.44 339.09,-250.77 339.09,-250.77"/>
<ellipse fill="none" stroke="black" cx="335.93" cy="-250.28" rx="3.2" ry="3.2"/>
</g>
<!-- datasets -->
<g id="node3" class="node">
<title>datasets</title>
<g id="a_node3"><a xlink:href="../../tables/datasets.html" xlink:title="datasets" target="_top">
<polygon fill="#ffffff" stroke="transparent" points="177,-328 177,-474 297,-474 297,-328 177,-328"/>
<polygon fill="#f5f5f5" stroke="transparent" points="177,-452 177,-474 297,-474 297,-452 177,-452"/>
<polygon fill="none" stroke="black" points="177,-452 177,-474 297,-474 297,-452 177,-452"/>
<text text-anchor="start" x="182" y="-461.2" font-family="Helvetica,sans-Serif" font-weight="bold" font-size="11.00">datasets</text>
<text text-anchor="start" x="262" y="-460.2" font-family="Helvetica,sans-Serif" font-size="11.00">[table]</text>
<polygon fill="none" stroke="black" points="177,-430 177,-452 297,-452 297,-430 177,-430"/>
<image xlink:href="../../images/primaryKeys.png" width="11px" height="12px" preserveAspectRatio="xMinYMin meet" x="182" y="-447"/>
<text text-anchor="start" x="197" y="-438.2" font-family="Helvetica,sans-Serif" font-size="11.00">datasetid</text>
<polygon fill="#ffffff" stroke="transparent" points="177,-408 177,-430 297,-430 297,-408 177,-408"/>
<polygon fill="none" stroke="black" points="177,-408 177,-430 297,-430 297,-408 177,-408"/>
<image xlink:href="../../images/foreignKeys.png" width="11px" height="12px" preserveAspectRatio="xMinYMin meet" x="182" y="-425"/>
<text text-anchor="start" x="197" y="-416.2" font-family="Helvetica,sans-Serif" font-size="11.00">collectionunitid</text>
<polygon fill="#ffffff" stroke="transparent" points="177,-386 177,-408 297,-408 297,-386 177,-386"/>
<polygon fill="none" stroke="black" points="177,-386 177,-408 297,-408 297,-386 177,-386"/>
<image xlink:href="../../images/foreignKeys.png" width="11px" height="12px" preserveAspectRatio="xMinYMin meet" x="182" y="-403"/>
<text text-anchor="start" x="197" y="-394.2" font-family="Helvetica,sans-Serif" font-size="11.00">datasettypeid</text>
<polygon fill="none" stroke="black" points="177,-364 177,-386 297,-386 297,-364 177,-364"/>
<image xlink:href="../../images/foreignKeys.png" width="11px" height="12px" preserveAspectRatio="xMinYMin meet" x="182" y="-381"/>
<text text-anchor="start" x="197" y="-372.2" font-family="Helvetica,sans-Serif" font-size="11.00">embargoid</text>
<polygon fill="none" stroke="black" points="177,-346 177,-364 297,-364 297,-346 177,-346"/>
<text text-anchor="start" x="180" y="-352.2" font-family="Helvetica,sans-Serif" font-size="11.00">...</text>
<polygon fill="#ffffff" stroke="transparent" points="177,-328 177,-346 201,-346 201,-328 177,-328"/>
<polygon fill="none" stroke="black" points="177,-328 177,-346 201,-346 201,-328 177,-328"/>
<text text-anchor="start" x="180" y="-334.2" font-family="Helvetica,sans-Serif" font-size="11.00">&lt; 3</text>
<polygon fill="#ffffff" stroke="transparent" points="201,-328 201,-346 268,-346 268,-328 201,-328"/>
<polygon fill="none" stroke="black" points="201,-328 201,-346 268,-346 268,-328 201,-328"/>
<text text-anchor="start" x="205" y="-334.2" font-family="Helvetica,sans-Serif" font-size="11.00">49,780 rows</text>
<polygon fill="#ffffff" stroke="transparent" points="268,-328 268,-346 297,-346 297,-328 268,-328"/>
<polygon fill="none" stroke="black" points="268,-328 268,-346 297,-346 297,-328 268,-328"/>
<text text-anchor="start" x="272" y="-334.2" font-family="Helvetica,sans-Serif" font-size="11.00">13 &gt;</text>
</a>
</g>
</g>
<!-- datasettaxonnotes&#45;&gt;datasets -->
<g id="edge2" class="edge">
<title>datasettaxonnotes:w&#45;&gt;datasets:e</title>
<path fill="none" stroke="black" d="M332.7,-299.03C292.79,-319.85 360.18,-441 298,-441"/>
<polygon fill="black" stroke="black" points="339.17,-297.66 347.75,-299.52 343.09,-296.83 347,-296 347,-296 347,-296 343.09,-296.83 346.25,-292.48 339.17,-297.66 339.17,-297.66"/>
<ellipse fill="none" stroke="black" cx="336.04" cy="-298.32" rx="3.2" ry="3.2"/>
</g>
<!-- taxa -->
<g id="node4" class="node">
<title>taxa</title>
<g id="a_node4"><a xlink:href="../../tables/taxa.html" xlink:title="taxa" target="_top">
<polygon fill="#ffffff" stroke="transparent" points="177,-117 177,-307 297,-307 297,-117 177,-117"/>
<polygon fill="#f5f5f5" stroke="transparent" points="177,-285 177,-307 297,-307 297,-285 177,-285"/>
<polygon fill="none" stroke="black" points="177,-285 177,-307 297,-307 297,-285 177,-285"/>
<text text-anchor="start" x="182" y="-294.2" font-family="Helvetica,sans-Serif" font-weight="bold" font-size="11.00">taxa</text>
<text text-anchor="start" x="262" y="-293.2" font-family="Helvetica,sans-Serif" font-size="11.00">[table]</text>
<polygon fill="none" stroke="black" points="177,-263 177,-285 297,-285 297,-263 177,-263"/>
<image xlink:href="../../images/primaryKeys.png" width="11px" height="12px" preserveAspectRatio="xMinYMin meet" x="182" y="-280"/>
<text text-anchor="start" x="197" y="-271.2" font-family="Helvetica,sans-Serif" font-size="11.00">taxonid</text>
<polygon fill="#ffffff" stroke="transparent" points="177,-241 177,-263 297,-263 297,-241 177,-241"/>
<polygon fill="none" stroke="black" points="177,-241 177,-263 297,-263 297,-241 177,-241"/>
<text text-anchor="start" x="197" y="-249.2" font-family="Helvetica,sans-Serif" font-size="11.00">taxonname</text>
<polygon fill="none" stroke="black" points="177,-219 177,-241 297,-241 297,-219 177,-219"/>
<image xlink:href="../../images/foreignKeys.png" width="11px" height="12px" preserveAspectRatio="xMinYMin meet" x="182" y="-236"/>
<text text-anchor="start" x="197" y="-227.2" font-family="Helvetica,sans-Serif" font-size="11.00">highertaxonid</text>
<polygon fill="#ffffff" stroke="transparent" points="177,-197 177,-219 297,-219 297,-197 177,-197"/>
<polygon fill="none" stroke="black" points="177,-197 177,-219 297,-219 297,-197 177,-197"/>
<image xlink:href="../../images/foreignKeys.png" width="11px" height="12px" preserveAspectRatio="xMinYMin meet" x="182" y="-214"/>
<text text-anchor="start" x="197" y="-205.2" font-family="Helvetica,sans-Serif" font-size="11.00">taxagroupid</text>
<polygon fill="none" stroke="black" points="177,-175 177,-197 297,-197 297,-175 177,-175"/>
<image xlink:href="../../images/foreignKeys.png" width="11px" height="12px" preserveAspectRatio="xMinYMin meet" x="182" y="-192"/>
<text text-anchor="start" x="197" y="-183.2" font-family="Helvetica,sans-Serif" font-size="11.00">publicationid</text>
<polygon fill="none" stroke="black" points="177,-153 177,-175 297,-175 297,-153 177,-153"/>
<image xlink:href="../../images/foreignKeys.png" width="11px" height="12px" preserveAspectRatio="xMinYMin meet" x="182" y="-170"/>
<text text-anchor="start" x="197" y="-161.2" font-family="Helvetica,sans-Serif" font-size="11.00">validatorid</text>
<polygon fill="none" stroke="black" points="177,-135 177,-153 297,-153 297,-135 177,-135"/>
<text text-anchor="start" x="180" y="-141.2" font-family="Helvetica,sans-Serif" font-size="11.00">...</text>
<polygon fill="#ffffff" stroke="transparent" points="177,-117 177,-135 201,-135 201,-117 177,-117"/>
<polygon fill="none" stroke="black" points="177,-117 177,-135 201,-135 201,-117 177,-117"/>
<text text-anchor="start" x="180" y="-123.2" font-family="Helvetica,sans-Serif" font-size="11.00">&lt; 4</text>
<polygon fill="#ffffff" stroke="transparent" points="201,-117 201,-135 268,-135 268,-117 201,-117"/>
<polygon fill="none" stroke="black" points="201,-117 201,-135 268,-135 268,-117 201,-117"/>
<text text-anchor="start" x="205" y="-123.2" font-family="Helvetica,sans-Serif" font-size="11.00">47,314 rows</text>
<polygon fill="#ffffff" stroke="transparent" points="268,-117 268,-135 297,-135 297,-117 268,-117"/>
<polygon fill="none" stroke="black" points="268,-117 268,-135 297,-135 297,-117 268,-117"/>
<text text-anchor="start" x="272" y="-123.2" font-family="Helvetica,sans-Serif" font-size="11.00">17 &gt;</text>
</a>
</g>
</g>
<!-- datasettaxonnotes&#45;&gt;taxa -->
<g id="edge3" class="edge">
<title>datasettaxonnotes:w&#45;&gt;taxa:e</title>
<path fill="none" stroke="black" d="M332.49,-274C321.18,-274 313.99,-274 298,-274"/>
<polygon fill="black" stroke="black" points="339,-274 347,-277.6 343,-274 347,-274 347,-274 347,-274 343,-274 347,-270.4 339,-274 339,-274"/>
<ellipse fill="none" stroke="black" cx="335.8" cy="-274" rx="3.2" ry="3.2"/>
</g>
<!-- taxa&#45;&gt;contacts -->
<g id="edge4" class="edge">
<title>taxa:w&#45;&gt;contacts:e</title>
<path fill="none" stroke="black" d="M162.29,-159.29C150.6,-149.54 149.35,-128 129,-128"/>
<polygon fill="black" stroke="black" points="168.43,-161.4 174.83,-167.4 172.22,-162.7 176,-164 176,-164 176,-164 172.22,-162.7 177.17,-160.6 168.43,-161.4 168.43,-161.4"/>
<ellipse fill="none" stroke="black" cx="165.41" cy="-160.36" rx="3.2" ry="3.2"/>
</g>
</g>
</svg>
