<?xml version="1.0" encoding="UTF-8" standalone="no"?>
<!DOCTYPE svg PUBLIC "-//W3C//DTD SVG 1.1//EN"
 "http://www.w3.org/Graphics/SVG/1.1/DTD/svg11.dtd">
<!-- Generated by graphviz version 2.43.0 (0)
 -->
<!-- Title: oneDegreeRelationshipsDiagram Pages: 1 -->
<svg width="816pt" height="1079pt"
 viewBox="0.00 0.00 816.00 1079.00" xmlns="http://www.w3.org/2000/svg" xmlns:xlink="http://www.w3.org/1999/xlink">
<g id="graph0" class="graph" transform="scale(1 1) rotate(0) translate(4 1075)">
<title>oneDegreeRelationshipsDiagram</title>
<polygon fill="#ffffff" stroke="transparent" points="-4,4 -4,-1075 812,-1075 812,4 -4,4"/>
<text text-anchor="middle" x="71.5" y="-7.2" font-family="Helvetica,sans-Serif" font-size="11.00">Generated by SchemaSpy</text>
<!-- data -->
<g id="node1" class="node">
<title>data</title>
<g id="a_node1"><a xlink:href="../../tables/data.html" xlink:title="data" target="_top">
<polygon fill="#ffffff" stroke="transparent" points="196,-444 196,-620 394,-620 394,-444 196,-444"/>
<polygon fill="#f5f5f5" stroke="transparent" points="198,-596 198,-618 392,-618 392,-596 198,-596"/>
<polygon fill="none" stroke="black" points="198,-596 198,-618 392,-618 392,-596 198,-596"/>
<text text-anchor="start" x="203" y="-605.2" font-family="Helvetica,sans-Serif" font-weight="bold" font-size="11.00">data</text>
<text text-anchor="start" x="357" y="-604.2" font-family="Helvetica,sans-Serif" font-size="11.00">[table]</text>
<polygon fill="none" stroke="black" points="198,-574 198,-596 318,-596 318,-574 198,-574"/>
<image xlink:href="../../images/primaryKeys.png" width="11px" height="12px" preserveAspectRatio="xMinYMin meet" x="203" y="-591"/>
<text text-anchor="start" x="218" y="-582.2" font-family="Helvetica,sans-Serif" font-size="11.00">dataid</text>
<polygon fill="none" stroke="black" points="318,-574 318,-596 392,-596 392,-574 318,-574"/>
<text text-anchor="start" x="321" y="-582.2" font-family="Helvetica,sans-Serif" font-size="11.00">serial[10]</text>
<polygon fill="#ffffff" stroke="transparent" points="198,-552 198,-574 318,-574 318,-552 198,-552"/>
<polygon fill="none" stroke="black" points="198,-552 198,-574 318,-574 318,-552 198,-552"/>
<image xlink:href="../../images/foreignKeys.png" width="11px" height="12px" preserveAspectRatio="xMinYMin meet" x="203" y="-569"/>
<text text-anchor="start" x="218" y="-560.2" font-family="Helvetica,sans-Serif" font-size="11.00">sampleid</text>
<polygon fill="none" stroke="black" points="318,-552 318,-574 392,-574 392,-552 318,-552"/>
<text text-anchor="start" x="321" y="-560.2" font-family="Helvetica,sans-Serif" font-size="11.00">int4[10]</text>
<polygon fill="#ffffff" stroke="transparent" points="198,-530 198,-552 318,-552 318,-530 198,-530"/>
<polygon fill="none" stroke="black" points="198,-530 198,-552 318,-552 318,-530 198,-530"/>
<image xlink:href="../../images/foreignKeys.png" width="11px" height="12px" preserveAspectRatio="xMinYMin meet" x="203" y="-547"/>
<text text-anchor="start" x="218" y="-538.2" font-family="Helvetica,sans-Serif" font-size="11.00">variableid</text>
<polygon fill="none" stroke="black" points="318,-530 318,-552 392,-552 392,-530 318,-530"/>
<text text-anchor="start" x="321" y="-538.2" font-family="Helvetica,sans-Serif" font-size="11.00">int4[10]</text>
<polygon fill="none" stroke="black" points="198,-508 198,-530 318,-530 318,-508 198,-508"/>
<text text-anchor="start" x="218" y="-516.2" font-family="Helvetica,sans-Serif" font-size="11.00">value</text>
<polygon fill="none" stroke="black" points="318,-508 318,-530 392,-530 392,-508 318,-508"/>
<text text-anchor="start" x="321" y="-516.2" font-family="Helvetica,sans-Serif" font-size="11.00">float8[17,17]</text>
<polygon fill="none" stroke="black" points="198,-486 198,-508 318,-508 318,-486 198,-486"/>
<text text-anchor="start" x="218" y="-494.2" font-family="Helvetica,sans-Serif" font-size="11.00">recdatecreated</text>
<polygon fill="none" stroke="black" points="318,-486 318,-508 392,-508 392,-486 318,-486"/>
<text text-anchor="start" x="321" y="-494.2" font-family="Helvetica,sans-Serif" font-size="11.00">timestamp[22]</text>
<polygon fill="none" stroke="black" points="198,-464 198,-486 318,-486 318,-464 198,-464"/>
<text text-anchor="start" x="218" y="-472.2" font-family="Helvetica,sans-Serif" font-size="11.00">recdatemodified</text>
<polygon fill="none" stroke="black" points="318,-464 318,-486 392,-486 392,-464 318,-464"/>
<text text-anchor="start" x="321" y="-472.2" font-family="Helvetica,sans-Serif" font-size="11.00">timestamp[22]</text>
<polygon fill="#ffffff" stroke="transparent" points="198,-446 198,-464 225,-464 225,-446 198,-446"/>
<polygon fill="none" stroke="black" points="198,-446 198,-464 225,-464 225,-446 198,-446"/>
<text text-anchor="start" x="201" y="-452.2" font-family="Helvetica,sans-Serif" font-size="11.00">&lt; 2</text>
<polygon fill="#ffffff" stroke="transparent" points="225,-446 225,-464 318,-464 318,-446 225,-446"/>
<polygon fill="none" stroke="black" points="225,-446 225,-464 318,-464 318,-446 225,-446"/>
<text text-anchor="start" x="234" y="-452.2" font-family="Helvetica,sans-Serif" font-size="11.00">10,039,985 rows</text>
<polygon fill="#ffffff" stroke="transparent" points="318,-446 318,-464 392,-464 392,-446 318,-446"/>
<polygon fill="none" stroke="black" points="318,-446 318,-464 392,-464 392,-446 318,-446"/>
<text text-anchor="start" x="373" y="-452.2" font-family="Helvetica,sans-Serif" font-size="11.00">7 &gt;</text>
<polygon fill="none" stroke="black" stroke-width="2" points="197,-445 197,-619 393,-619 393,-445 197,-445"/>
</a>
</g>
</g>
<!-- samples -->
<g id="node2" class="node">
<title>samples</title>
<g id="a_node2"><a xlink:href="../../tables/samples.html" xlink:title="samples" target="_top">
<polygon fill="#ffffff" stroke="transparent" points="8,-523 8,-669 147,-669 147,-523 8,-523"/>
<polygon fill="#f5f5f5" stroke="transparent" points="8.5,-647 8.5,-669 147.5,-669 147.5,-647 8.5,-647"/>
<polygon fill="none" stroke="black" points="8.5,-647 8.5,-669 147.5,-669 147.5,-647 8.5,-647"/>
<text text-anchor="start" x="13.5" y="-656.2" font-family="Helvetica,sans-Serif" font-weight="bold" font-size="11.00">samples</text>
<text text-anchor="start" x="112.5" y="-655.2" font-family="Helvetica,sans-Serif" font-size="11.00">[table]</text>
<polygon fill="none" stroke="black" points="8.5,-625 8.5,-647 147.5,-647 147.5,-625 8.5,-625"/>
<image xlink:href="../../images/primaryKeys.png" width="11px" height="12px" preserveAspectRatio="xMinYMin meet" x="13.5" y="-642"/>
<text text-anchor="start" x="28.5" y="-633.2" font-family="Helvetica,sans-Serif" font-size="11.00">sampleid</text>
<polygon fill="#ffffff" stroke="transparent" points="8.5,-603 8.5,-625 147.5,-625 147.5,-603 8.5,-603"/>
<polygon fill="none" stroke="black" points="8.5,-603 8.5,-625 147.5,-625 147.5,-603 8.5,-603"/>
<image xlink:href="../../images/foreignKeys.png" width="11px" height="12px" preserveAspectRatio="xMinYMin meet" x="13.5" y="-620"/>
<text text-anchor="start" x="28.5" y="-611.2" font-family="Helvetica,sans-Serif" font-size="11.00">analysisunitid</text>
<polygon fill="#ffffff" stroke="transparent" points="8.5,-581 8.5,-603 147.5,-603 147.5,-581 8.5,-581"/>
<polygon fill="none" stroke="black" points="8.5,-581 8.5,-603 147.5,-603 147.5,-581 8.5,-581"/>
<image xlink:href="../../images/foreignKeys.png" width="11px" height="12px" preserveAspectRatio="xMinYMin meet" x="13.5" y="-598"/>
<text text-anchor="start" x="28.5" y="-589.2" font-family="Helvetica,sans-Serif" font-size="11.00">datasetid</text>
<polygon fill="#ffffff" stroke="transparent" points="8.5,-559 8.5,-581 147.5,-581 147.5,-559 8.5,-559"/>
<polygon fill="none" stroke="black" points="8.5,-559 8.5,-581 147.5,-581 147.5,-559 8.5,-559"/>
<image xlink:href="../../images/foreignKeys.png" width="11px" height="12px" preserveAspectRatio="xMinYMin meet" x="13.5" y="-576"/>
<text text-anchor="start" x="28.5" y="-567.2" font-family="Helvetica,sans-Serif" font-size="11.00">taxonid</text>
<polygon fill="none" stroke="black" points="8.5,-541 8.5,-559 147.5,-559 147.5,-541 8.5,-541"/>
<text text-anchor="start" x="11.5" y="-547.2" font-family="Helvetica,sans-Serif" font-size="11.00">...</text>
<polygon fill="#ffffff" stroke="transparent" points="8.5,-523 8.5,-541 41.5,-541 41.5,-523 8.5,-523"/>
<polygon fill="none" stroke="black" points="8.5,-523 8.5,-541 41.5,-541 41.5,-523 8.5,-523"/>
<text text-anchor="start" x="11.5" y="-529.2" font-family="Helvetica,sans-Serif" font-size="11.00">&lt; 3</text>
<polygon fill="#ffffff" stroke="transparent" points="41.5,-523 41.5,-541 119.5,-541 119.5,-523 41.5,-523"/>
<polygon fill="none" stroke="black" points="41.5,-523 41.5,-541 119.5,-541 119.5,-523 41.5,-523"/>
<text text-anchor="start" x="50.5" y="-529.2" font-family="Helvetica,sans-Serif" font-size="11.00">506,105 rows</text>
<polygon fill="#ffffff" stroke="transparent" points="119.5,-523 119.5,-541 147.5,-541 147.5,-523 119.5,-523"/>
<polygon fill="none" stroke="black" points="119.5,-523 119.5,-541 147.5,-541 147.5,-523 119.5,-523"/>
<text text-anchor="start" x="128.5" y="-529.2" font-family="Helvetica,sans-Serif" font-size="11.00">7 &gt;</text>
</a>
</g>
</g>
<!-- data&#45;&gt;samples -->
<g id="edge1" class="edge">
<title>data:w&#45;&gt;samples:e</title>
<path fill="none" stroke="black" d="M183.23,-567.79C165.57,-584.03 181.37,-636 148.5,-636"/>
<polygon fill="black" stroke="black" points="189.44,-565.63 198.18,-566.4 193.22,-564.31 197,-563 197,-563 197,-563 193.22,-564.31 195.82,-559.6 189.44,-565.63 189.44,-565.63"/>
<ellipse fill="none" stroke="black" cx="186.42" cy="-566.68" rx="3.2" ry="3.2"/>
</g>
<!-- variables -->
<g id="node3" class="node">
<title>variables</title>
<g id="a_node3"><a xlink:href="../../tables/variables.html" xlink:title="variables" target="_top">
<polygon fill="#ffffff" stroke="transparent" points="12.5,-334 12.5,-502 142.5,-502 142.5,-334 12.5,-334"/>
<polygon fill="#f5f5f5" stroke="transparent" points="12.5,-480 12.5,-502 142.5,-502 142.5,-480 12.5,-480"/>
<polygon fill="none" stroke="black" points="12.5,-480 12.5,-502 142.5,-502 142.5,-480 12.5,-480"/>
<text text-anchor="start" x="17.5" y="-489.2" font-family="Helvetica,sans-Serif" font-weight="bold" font-size="11.00">variables</text>
<text text-anchor="start" x="107.5" y="-488.2" font-family="Helvetica,sans-Serif" font-size="11.00">[table]</text>
<polygon fill="none" stroke="black" points="12.5,-458 12.5,-480 142.5,-480 142.5,-458 12.5,-458"/>
<image xlink:href="../../images/primaryKeys.png" width="11px" height="12px" preserveAspectRatio="xMinYMin meet" x="17.5" y="-475"/>
<text text-anchor="start" x="32.5" y="-466.2" font-family="Helvetica,sans-Serif" font-size="11.00">variableid</text>
<polygon fill="#ffffff" stroke="transparent" points="12.5,-436 12.5,-458 142.5,-458 142.5,-436 12.5,-436"/>
<polygon fill="none" stroke="black" points="12.5,-436 12.5,-458 142.5,-458 142.5,-436 12.5,-436"/>
<image xlink:href="../../images/foreignKeys.png" width="11px" height="12px" preserveAspectRatio="xMinYMin meet" x="17.5" y="-453"/>
<text text-anchor="start" x="32.5" y="-444.2" font-family="Helvetica,sans-Serif" font-size="11.00">taxonid</text>
<polygon fill="#ffffff" stroke="transparent" points="12.5,-414 12.5,-436 142.5,-436 142.5,-414 12.5,-414"/>
<polygon fill="none" stroke="black" points="12.5,-414 12.5,-436 142.5,-436 142.5,-414 12.5,-414"/>
<image xlink:href="../../images/foreignKeys.png" width="11px" height="12px" preserveAspectRatio="xMinYMin meet" x="17.5" y="-431"/>
<text text-anchor="start" x="32.5" y="-422.2" font-family="Helvetica,sans-Serif" font-size="11.00">variableelementid</text>
<polygon fill="#ffffff" stroke="transparent" points="12.5,-392 12.5,-414 142.5,-414 142.5,-392 12.5,-392"/>
<polygon fill="none" stroke="black" points="12.5,-392 12.5,-414 142.5,-414 142.5,-392 12.5,-392"/>
<image xlink:href="../../images/foreignKeys.png" width="11px" height="12px" preserveAspectRatio="xMinYMin meet" x="17.5" y="-409"/>
<text text-anchor="start" x="32.5" y="-400.2" font-family="Helvetica,sans-Serif" font-size="11.00">variableunitsid</text>
<polygon fill="none" stroke="black" points="12.5,-370 12.5,-392 142.5,-392 142.5,-370 12.5,-370"/>
<image xlink:href="../../images/foreignKeys.png" width="11px" height="12px" preserveAspectRatio="xMinYMin meet" x="17.5" y="-387"/>
<text text-anchor="start" x="32.5" y="-378.2" font-family="Helvetica,sans-Serif" font-size="11.00">variablecontextid</text>
<polygon fill="none" stroke="black" points="12.5,-352 12.5,-370 142.5,-370 142.5,-352 12.5,-352"/>
<text text-anchor="start" x="15.5" y="-358.2" font-family="Helvetica,sans-Serif" font-size="11.00">...</text>
<polygon fill="#ffffff" stroke="transparent" points="12.5,-334 12.5,-352 44.5,-352 44.5,-334 12.5,-334"/>
<polygon fill="none" stroke="black" points="12.5,-334 12.5,-352 44.5,-352 44.5,-334 12.5,-334"/>
<text text-anchor="start" x="15.5" y="-340.2" font-family="Helvetica,sans-Serif" font-size="11.00">&lt; 4</text>
<polygon fill="#ffffff" stroke="transparent" points="44.5,-334 44.5,-352 115.5,-352 115.5,-334 44.5,-334"/>
<polygon fill="none" stroke="black" points="44.5,-334 44.5,-352 115.5,-352 115.5,-334 44.5,-334"/>
<text text-anchor="start" x="52.5" y="-340.2" font-family="Helvetica,sans-Serif" font-size="11.00">55,155 rows</text>
<polygon fill="#ffffff" stroke="transparent" points="115.5,-334 115.5,-352 142.5,-352 142.5,-334 115.5,-334"/>
<polygon fill="none" stroke="black" points="115.5,-334 115.5,-352 142.5,-352 142.5,-334 115.5,-334"/>
<text text-anchor="start" x="123.5" y="-340.2" font-family="Helvetica,sans-Serif" font-size="11.00">6 &gt;</text>
</a>
</g>
</g>
<!-- data&#45;&gt;variables -->
<g id="edge2" class="edge">
<title>data:w&#45;&gt;variables:e</title>
<path fill="none" stroke="black" d="M183.18,-536.71C163.46,-521.21 177.45,-469 143.5,-469"/>
<polygon fill="black" stroke="black" points="189.36,-538.63 195.93,-544.44 193.18,-539.81 197,-541 197,-541 197,-541 193.18,-539.81 198.07,-537.56 189.36,-538.63 189.36,-538.63"/>
<ellipse fill="none" stroke="black" cx="186.3" cy="-537.68" rx="3.2" ry="3.2"/>
</g>
<!-- datataxonnotes -->
<g id="node4" class="node">
<title>datataxonnotes</title>
<g id="a_node4"><a xlink:href="../../tables/datataxonnotes.html" xlink:title="datataxonnotes" target="_top">
<polygon fill="#ffffff" stroke="transparent" points="467,-943 467,-1067 594,-1067 594,-943 467,-943"/>
<polygon fill="#f5f5f5" stroke="transparent" points="467.5,-1045 467.5,-1067 594.5,-1067 594.5,-1045 467.5,-1045"/>
<polygon fill="none" stroke="black" points="467.5,-1045 467.5,-1067 594.5,-1067 594.5,-1045 467.5,-1045"/>
<text text-anchor="start" x="472.5" y="-1054.2" font-family="Helvetica,sans-Serif" font-weight="bold" font-size="11.00">datataxonnotes</text>
<text text-anchor="start" x="559.5" y="-1053.2" font-family="Helvetica,sans-Serif" font-size="11.00">[table]</text>
<polygon fill="none" stroke="black" points="467.5,-1023 467.5,-1045 594.5,-1045 594.5,-1023 467.5,-1023"/>
<image xlink:href="../../images/primaryKeys.png" width="11px" height="12px" preserveAspectRatio="xMinYMin meet" x="472.5" y="-1040"/>
<text text-anchor="start" x="487.5" y="-1031.2" font-family="Helvetica,sans-Serif" font-size="11.00">datataxonnotesid</text>
<polygon fill="none" stroke="black" points="467.5,-1001 467.5,-1023 594.5,-1023 594.5,-1001 467.5,-1001"/>
<image xlink:href="../../images/foreignKeys.png" width="11px" height="12px" preserveAspectRatio="xMinYMin meet" x="472.5" y="-1018"/>
<text text-anchor="start" x="487.5" y="-1009.2" font-family="Helvetica,sans-Serif" font-size="11.00">dataid</text>
<polygon fill="none" stroke="black" points="467.5,-979 467.5,-1001 594.5,-1001 594.5,-979 467.5,-979"/>
<image xlink:href="../../images/foreignKeys.png" width="11px" height="12px" preserveAspectRatio="xMinYMin meet" x="472.5" y="-996"/>
<text text-anchor="start" x="487.5" y="-987.2" font-family="Helvetica,sans-Serif" font-size="11.00">contactid</text>
<polygon fill="none" stroke="black" points="467.5,-961 467.5,-979 594.5,-979 594.5,-961 467.5,-961"/>
<text text-anchor="start" x="470.5" y="-967.2" font-family="Helvetica,sans-Serif" font-size="11.00">...</text>
<polygon fill="#ffffff" stroke="transparent" points="467.5,-943 467.5,-961 515.5,-961 515.5,-943 467.5,-943"/>
<polygon fill="none" stroke="black" points="467.5,-943 467.5,-961 515.5,-961 515.5,-943 467.5,-943"/>
<text text-anchor="start" x="470.5" y="-949.2" font-family="Helvetica,sans-Serif" font-size="11.00">&lt; 2</text>
<polygon fill="#ffffff" stroke="transparent" points="515.5,-943 515.5,-961 567.5,-961 567.5,-943 515.5,-943"/>
<polygon fill="none" stroke="black" points="515.5,-943 515.5,-961 567.5,-961 567.5,-943 515.5,-943"/>
<text text-anchor="start" x="531.5" y="-949.2" font-family="Helvetica,sans-Serif" font-size="11.00">0 rows</text>
<polygon fill="#ffffff" stroke="transparent" points="567.5,-943 567.5,-961 594.5,-961 594.5,-943 567.5,-943"/>
<polygon fill="none" stroke="black" points="567.5,-943 567.5,-961 594.5,-961 594.5,-943 567.5,-943"/>
<text text-anchor="start" x="584.5" y="-949.2" font-family="Helvetica,sans-Serif" font-size="11.00"> &#160;</text>
</a>
</g>
</g>
<!-- datataxonnotes&#45;&gt;data -->
<g id="edge3" class="edge">
<title>datataxonnotes:w&#45;&gt;data:e</title>
<path fill="none" stroke="black" d="M452.57,-1008.31C382.59,-966.57 484.02,-585 393,-585"/>
<polygon fill="black" stroke="black" points="458.77,-1009.95 465.58,-1015.48 462.63,-1010.98 466.5,-1012 466.5,-1012 466.5,-1012 462.63,-1010.98 467.42,-1008.52 458.77,-1009.95 458.77,-1009.95"/>
<ellipse fill="none" stroke="black" cx="455.67" cy="-1009.13" rx="3.2" ry="3.2"/>
</g>
<!-- isometadata -->
<g id="node5" class="node">
<title>isometadata</title>
<g id="a_node5"><a xlink:href="../../tables/isometadata.html" xlink:title="isometadata" target="_top">
<polygon fill="#ffffff" stroke="transparent" points="464,-754 464,-922 597,-922 597,-754 464,-754"/>
<polygon fill="#f5f5f5" stroke="transparent" points="464.5,-900 464.5,-922 597.5,-922 597.5,-900 464.5,-900"/>
<polygon fill="none" stroke="black" points="464.5,-900 464.5,-922 597.5,-922 597.5,-900 464.5,-900"/>
<text text-anchor="start" x="469.5" y="-909.2" font-family="Helvetica,sans-Serif" font-weight="bold" font-size="11.00">isometadata</text>
<text text-anchor="start" x="562.5" y="-908.2" font-family="Helvetica,sans-Serif" font-size="11.00">[table]</text>
<polygon fill="none" stroke="black" points="464.5,-878 464.5,-900 597.5,-900 597.5,-878 464.5,-878"/>
<image xlink:href="../../images/primaryKeys.png" width="11px" height="12px" preserveAspectRatio="xMinYMin meet" x="469.5" y="-895"/>
<text text-anchor="start" x="484.5" y="-886.2" font-family="Helvetica,sans-Serif" font-size="11.00">isometadataid</text>
<polygon fill="none" stroke="black" points="464.5,-856 464.5,-878 597.5,-878 597.5,-856 464.5,-856"/>
<image xlink:href="../../images/foreignKeys.png" width="11px" height="12px" preserveAspectRatio="xMinYMin meet" x="469.5" y="-873"/>
<text text-anchor="start" x="484.5" y="-864.2" font-family="Helvetica,sans-Serif" font-size="11.00">dataid</text>
<polygon fill="none" stroke="black" points="464.5,-834 464.5,-856 597.5,-856 597.5,-834 464.5,-834"/>
<image xlink:href="../../images/foreignKeys.png" width="11px" height="12px" preserveAspectRatio="xMinYMin meet" x="469.5" y="-851"/>
<text text-anchor="start" x="484.5" y="-842.2" font-family="Helvetica,sans-Serif" font-size="11.00">isomatanaltypeid</text>
<polygon fill="none" stroke="black" points="464.5,-812 464.5,-834 597.5,-834 597.5,-812 464.5,-812"/>
<image xlink:href="../../images/foreignKeys.png" width="11px" height="12px" preserveAspectRatio="xMinYMin meet" x="469.5" y="-829"/>
<text text-anchor="start" x="484.5" y="-820.2" font-family="Helvetica,sans-Serif" font-size="11.00">isosubstratetypeid</text>
<polygon fill="none" stroke="black" points="464.5,-790 464.5,-812 597.5,-812 597.5,-790 464.5,-790"/>
<image xlink:href="../../images/foreignKeys.png" width="11px" height="12px" preserveAspectRatio="xMinYMin meet" x="469.5" y="-807"/>
<text text-anchor="start" x="484.5" y="-798.2" font-family="Helvetica,sans-Serif" font-size="11.00">analystid</text>
<polygon fill="none" stroke="black" points="464.5,-772 464.5,-790 597.5,-790 597.5,-772 464.5,-772"/>
<text text-anchor="start" x="467.5" y="-778.2" font-family="Helvetica,sans-Serif" font-size="11.00">...</text>
<polygon fill="#ffffff" stroke="transparent" points="464.5,-754 464.5,-772 505.5,-772 505.5,-754 464.5,-754"/>
<polygon fill="none" stroke="black" points="464.5,-754 464.5,-772 505.5,-772 505.5,-754 464.5,-754"/>
<text text-anchor="start" x="467.5" y="-760.2" font-family="Helvetica,sans-Serif" font-size="11.00">&lt; 4</text>
<polygon fill="#ffffff" stroke="transparent" points="505.5,-754 505.5,-772 574.5,-772 574.5,-754 505.5,-754"/>
<polygon fill="none" stroke="black" points="505.5,-754 505.5,-772 574.5,-772 574.5,-754 505.5,-754"/>
<text text-anchor="start" x="517.5" y="-760.2" font-family="Helvetica,sans-Serif" font-size="11.00">4,893 rows</text>
<polygon fill="#ffffff" stroke="transparent" points="574.5,-754 574.5,-772 597.5,-772 597.5,-754 574.5,-754"/>
<polygon fill="none" stroke="black" points="574.5,-754 574.5,-772 597.5,-772 597.5,-754 574.5,-754"/>
<text text-anchor="start" x="587.5" y="-760.2" font-family="Helvetica,sans-Serif" font-size="11.00"> &#160;</text>
</a>
</g>
</g>
<!-- isometadata&#45;&gt;data -->
<g id="edge4" class="edge">
<title>isometadata:w&#45;&gt;data:e</title>
<path fill="none" stroke="black" d="M449.96,-861.62C407.7,-822.63 452.3,-585 393,-585"/>
<polygon fill="black" stroke="black" points="456.07,-864.05 462.17,-870.35 459.78,-865.52 463.5,-867 463.5,-867 463.5,-867 459.78,-865.52 464.83,-863.65 456.07,-864.05 456.07,-864.05"/>
<ellipse fill="none" stroke="black" cx="453.09" cy="-862.86" rx="3.2" ry="3.2"/>
</g>
<!-- isosamplepretreatments -->
<g id="node6" class="node">
<title>isosamplepretreatments</title>
<g id="a_node6"><a xlink:href="../../tables/isosamplepretreatments.html" xlink:title="isosamplepretreatments" target="_top">
<polygon fill="#ffffff" stroke="transparent" points="445,-609 445,-733 616,-733 616,-609 445,-609"/>
<polygon fill="#f5f5f5" stroke="transparent" points="445.5,-711 445.5,-733 616.5,-733 616.5,-711 445.5,-711"/>
<polygon fill="none" stroke="black" points="445.5,-711 445.5,-733 616.5,-733 616.5,-711 445.5,-711"/>
<text text-anchor="start" x="450.5" y="-720.2" font-family="Helvetica,sans-Serif" font-weight="bold" font-size="11.00">isosamplepretreatments</text>
<text text-anchor="start" x="581.5" y="-719.2" font-family="Helvetica,sans-Serif" font-size="11.00">[table]</text>
<polygon fill="none" stroke="black" points="445.5,-689 445.5,-711 616.5,-711 616.5,-689 445.5,-689"/>
<image xlink:href="../../images/primaryKeys.png" width="11px" height="12px" preserveAspectRatio="xMinYMin meet" x="450.5" y="-706"/>
<text text-anchor="start" x="466.5" y="-697.2" font-family="Helvetica,sans-Serif" font-size="11.00">dataid</text>
<polygon fill="none" stroke="black" points="445.5,-667 445.5,-689 616.5,-689 616.5,-667 445.5,-667"/>
<image xlink:href="../../images/primaryKeys.png" width="11px" height="12px" preserveAspectRatio="xMinYMin meet" x="450.5" y="-684"/>
<text text-anchor="start" x="466.5" y="-675.2" font-family="Helvetica,sans-Serif" font-size="11.00">isopretreatmenttypeid</text>
<polygon fill="none" stroke="black" points="445.5,-645 445.5,-667 616.5,-667 616.5,-645 445.5,-645"/>
<image xlink:href="../../images/primaryKeys.png" width="11px" height="12px" preserveAspectRatio="xMinYMin meet" x="450.5" y="-662"/>
<text text-anchor="start" x="466.5" y="-653.2" font-family="Helvetica,sans-Serif" font-size="11.00">order</text>
<polygon fill="none" stroke="black" points="445.5,-627 445.5,-645 616.5,-645 616.5,-627 445.5,-627"/>
<text text-anchor="start" x="448.5" y="-633.2" font-family="Helvetica,sans-Serif" font-size="11.00">...</text>
<polygon fill="#ffffff" stroke="transparent" points="445.5,-609 445.5,-627 505.5,-627 505.5,-609 445.5,-609"/>
<polygon fill="none" stroke="black" points="445.5,-609 445.5,-627 505.5,-627 505.5,-609 445.5,-609"/>
<text text-anchor="start" x="448.5" y="-615.2" font-family="Helvetica,sans-Serif" font-size="11.00">&lt; 2</text>
<polygon fill="#ffffff" stroke="transparent" points="505.5,-609 505.5,-627 584.5,-627 584.5,-609 505.5,-609"/>
<polygon fill="none" stroke="black" points="505.5,-609 505.5,-627 584.5,-627 584.5,-609 505.5,-609"/>
<text text-anchor="start" x="527.5" y="-615.2" font-family="Helvetica,sans-Serif" font-size="11.00">1,035 rows</text>
<polygon fill="#ffffff" stroke="transparent" points="584.5,-609 584.5,-627 616.5,-627 616.5,-609 584.5,-609"/>
<polygon fill="none" stroke="black" points="584.5,-609 584.5,-627 616.5,-627 616.5,-609 584.5,-609"/>
<text text-anchor="start" x="606.5" y="-615.2" font-family="Helvetica,sans-Serif" font-size="11.00"> &#160;</text>
</a>
</g>
</g>
<!-- isosamplepretreatments&#45;&gt;data -->
<g id="edge5" class="edge">
<title>isosamplepretreatments:w&#45;&gt;data:e</title>
<path fill="none" stroke="black" d="M430.4,-696.43C399.96,-677.02 443.1,-585 393,-585"/>
<polygon fill="black" stroke="black" points="436.74,-698.04 443.62,-703.49 440.62,-699.02 444.5,-700 444.5,-700 444.5,-700 440.62,-699.02 445.38,-696.51 436.74,-698.04 436.74,-698.04"/>
<ellipse fill="none" stroke="black" cx="433.64" cy="-697.25" rx="3.2" ry="3.2"/>
</g>
<!-- isospecimendata -->
<g id="node7" class="node">
<title>isospecimendata</title>
<g id="a_node7"><a xlink:href="../../tables/isospecimendata.html" xlink:title="isospecimendata" target="_top">
<polygon fill="#ffffff" stroke="transparent" points="667,-498 667,-622 800,-622 800,-498 667,-498"/>
<polygon fill="#f5f5f5" stroke="transparent" points="667.5,-600 667.5,-622 800.5,-622 800.5,-600 667.5,-600"/>
<polygon fill="none" stroke="black" points="667.5,-600 667.5,-622 800.5,-622 800.5,-600 667.5,-600"/>
<text text-anchor="start" x="672.5" y="-609.2" font-family="Helvetica,sans-Serif" font-weight="bold" font-size="11.00">isospecimendata</text>
<text text-anchor="start" x="765.5" y="-608.2" font-family="Helvetica,sans-Serif" font-size="11.00">[table]</text>
<polygon fill="none" stroke="black" points="667.5,-578 667.5,-600 800.5,-600 800.5,-578 667.5,-578"/>
<image xlink:href="../../images/primaryKeys.png" width="11px" height="12px" preserveAspectRatio="xMinYMin meet" x="672.5" y="-595"/>
<text text-anchor="start" x="687.5" y="-586.2" font-family="Helvetica,sans-Serif" font-size="11.00">isospecimendataid</text>
<polygon fill="none" stroke="black" points="667.5,-556 667.5,-578 800.5,-578 800.5,-556 667.5,-556"/>
<image xlink:href="../../images/foreignKeys.png" width="11px" height="12px" preserveAspectRatio="xMinYMin meet" x="672.5" y="-573"/>
<text text-anchor="start" x="687.5" y="-564.2" font-family="Helvetica,sans-Serif" font-size="11.00">dataid</text>
<polygon fill="none" stroke="black" points="667.5,-534 667.5,-556 800.5,-556 800.5,-534 667.5,-534"/>
<image xlink:href="../../images/foreignKeys.png" width="11px" height="12px" preserveAspectRatio="xMinYMin meet" x="672.5" y="-551"/>
<text text-anchor="start" x="687.5" y="-542.2" font-family="Helvetica,sans-Serif" font-size="11.00">specimenid</text>
<polygon fill="none" stroke="black" points="667.5,-516 667.5,-534 800.5,-534 800.5,-516 667.5,-516"/>
<text text-anchor="start" x="670.5" y="-522.2" font-family="Helvetica,sans-Serif" font-size="11.00">...</text>
<polygon fill="#ffffff" stroke="transparent" points="667.5,-498 667.5,-516 708.5,-516 708.5,-498 667.5,-498"/>
<polygon fill="none" stroke="black" points="667.5,-498 667.5,-516 708.5,-516 708.5,-498 667.5,-498"/>
<text text-anchor="start" x="670.5" y="-504.2" font-family="Helvetica,sans-Serif" font-size="11.00">&lt; 2</text>
<polygon fill="#ffffff" stroke="transparent" points="708.5,-498 708.5,-516 777.5,-516 777.5,-498 708.5,-498"/>
<polygon fill="none" stroke="black" points="708.5,-498 708.5,-516 777.5,-516 777.5,-498 708.5,-498"/>
<text text-anchor="start" x="720.5" y="-504.2" font-family="Helvetica,sans-Serif" font-size="11.00">5,193 rows</text>
<polygon fill="#ffffff" stroke="transparent" points="777.5,-498 777.5,-516 800.5,-516 800.5,-498 777.5,-498"/>
<polygon fill="none" stroke="black" points="777.5,-498 777.5,-516 800.5,-516 800.5,-498 777.5,-498"/>
<text text-anchor="start" x="790.5" y="-504.2" font-family="Helvetica,sans-Serif" font-size="11.00"> &#160;</text>
</a>
</g>
</g>
<!-- isospecimendata&#45;&gt;data -->
<g id="edge6" class="edge">
<title>isospecimendata:w&#45;&gt;data:e</title>
<path fill="none" stroke="black" d="M651.86,-567.95C643.92,-569.07 638,-570.93 626,-572 522.7,-581.25 496.72,-585 393,-585"/>
<polygon fill="black" stroke="black" points="658.52,-567.52 666.73,-570.59 662.51,-567.26 666.5,-567 666.5,-567 666.5,-567 662.51,-567.26 666.27,-563.41 658.52,-567.52 658.52,-567.52"/>
<ellipse fill="none" stroke="black" cx="655.32" cy="-567.73" rx="3.2" ry="3.2"/>
</g>
<!-- specimens -->
<g id="node8" class="node">
<title>specimens</title>
<g id="a_node8"><a xlink:href="../../tables/specimens.html" xlink:title="specimens" target="_top">
<polygon fill="#ffffff" stroke="transparent" points="468.5,-305 468.5,-561 592.5,-561 592.5,-305 468.5,-305"/>
<polygon fill="#f5f5f5" stroke="transparent" points="468.5,-539 468.5,-561 592.5,-561 592.5,-539 468.5,-539"/>
<polygon fill="none" stroke="black" points="468.5,-539 468.5,-561 592.5,-561 592.5,-539 468.5,-539"/>
<text text-anchor="start" x="473.5" y="-548.2" font-family="Helvetica,sans-Serif" font-weight="bold" font-size="11.00">specimens</text>
<text text-anchor="start" x="557.5" y="-547.2" font-family="Helvetica,sans-Serif" font-size="11.00">[table]</text>
<polygon fill="none" stroke="black" points="468.5,-517 468.5,-539 592.5,-539 592.5,-517 468.5,-517"/>
<image xlink:href="../../images/primaryKeys.png" width="11px" height="12px" preserveAspectRatio="xMinYMin meet" x="473.5" y="-534"/>
<text text-anchor="start" x="488.5" y="-525.2" font-family="Helvetica,sans-Serif" font-size="11.00">specimenid</text>
<polygon fill="none" stroke="black" points="468.5,-495 468.5,-517 592.5,-517 592.5,-495 468.5,-495"/>
<image xlink:href="../../images/foreignKeys.png" width="11px" height="12px" preserveAspectRatio="xMinYMin meet" x="473.5" y="-512"/>
<text text-anchor="start" x="488.5" y="-503.2" font-family="Helvetica,sans-Serif" font-size="11.00">dataid</text>
<polygon fill="none" stroke="black" points="468.5,-473 468.5,-495 592.5,-495 592.5,-473 468.5,-473"/>
<image xlink:href="../../images/foreignKeys.png" width="11px" height="12px" preserveAspectRatio="xMinYMin meet" x="473.5" y="-490"/>
<text text-anchor="start" x="488.5" y="-481.2" font-family="Helvetica,sans-Serif" font-size="11.00">elementtypeid</text>
<polygon fill="none" stroke="black" points="468.5,-451 468.5,-473 592.5,-473 592.5,-451 468.5,-451"/>
<image xlink:href="../../images/foreignKeys.png" width="11px" height="12px" preserveAspectRatio="xMinYMin meet" x="473.5" y="-468"/>
<text text-anchor="start" x="488.5" y="-459.2" font-family="Helvetica,sans-Serif" font-size="11.00">symmetryid</text>
<polygon fill="none" stroke="black" points="468.5,-429 468.5,-451 592.5,-451 592.5,-429 468.5,-429"/>
<image xlink:href="../../images/foreignKeys.png" width="11px" height="12px" preserveAspectRatio="xMinYMin meet" x="473.5" y="-446"/>
<text text-anchor="start" x="488.5" y="-437.2" font-family="Helvetica,sans-Serif" font-size="11.00">portionid</text>
<polygon fill="none" stroke="black" points="468.5,-407 468.5,-429 592.5,-429 592.5,-407 468.5,-407"/>
<image xlink:href="../../images/foreignKeys.png" width="11px" height="12px" preserveAspectRatio="xMinYMin meet" x="473.5" y="-424"/>
<text text-anchor="start" x="488.5" y="-415.2" font-family="Helvetica,sans-Serif" font-size="11.00">maturityid</text>
<polygon fill="none" stroke="black" points="468.5,-385 468.5,-407 592.5,-407 592.5,-385 468.5,-385"/>
<image xlink:href="../../images/foreignKeys.png" width="11px" height="12px" preserveAspectRatio="xMinYMin meet" x="473.5" y="-402"/>
<text text-anchor="start" x="488.5" y="-393.2" font-family="Helvetica,sans-Serif" font-size="11.00">sexid</text>
<polygon fill="none" stroke="black" points="468.5,-363 468.5,-385 592.5,-385 592.5,-363 468.5,-363"/>
<image xlink:href="../../images/foreignKeys.png" width="11px" height="12px" preserveAspectRatio="xMinYMin meet" x="473.5" y="-380"/>
<text text-anchor="start" x="488.5" y="-371.2" font-family="Helvetica,sans-Serif" font-size="11.00">domesticstatusid</text>
<polygon fill="none" stroke="black" points="468.5,-341 468.5,-363 592.5,-363 592.5,-341 468.5,-341"/>
<image xlink:href="../../images/foreignKeys.png" width="11px" height="12px" preserveAspectRatio="xMinYMin meet" x="473.5" y="-358"/>
<text text-anchor="start" x="488.5" y="-349.2" font-family="Helvetica,sans-Serif" font-size="11.00">repositoryid</text>
<polygon fill="none" stroke="black" points="468.5,-323 468.5,-341 592.5,-341 592.5,-323 468.5,-323"/>
<text text-anchor="start" x="471.5" y="-329.2" font-family="Helvetica,sans-Serif" font-size="11.00">...</text>
<polygon fill="#ffffff" stroke="transparent" points="468.5,-305 468.5,-323 500.5,-323 500.5,-305 468.5,-305"/>
<polygon fill="none" stroke="black" points="468.5,-305 468.5,-323 500.5,-323 500.5,-305 468.5,-305"/>
<text text-anchor="start" x="471.5" y="-311.2" font-family="Helvetica,sans-Serif" font-size="11.00">&lt; 8</text>
<polygon fill="#ffffff" stroke="transparent" points="500.5,-305 500.5,-323 565.5,-323 565.5,-305 500.5,-305"/>
<polygon fill="none" stroke="black" points="500.5,-305 500.5,-323 565.5,-323 565.5,-305 500.5,-305"/>
<text text-anchor="start" x="508.5" y="-311.2" font-family="Helvetica,sans-Serif" font-size="11.00">3,351 rows</text>
<polygon fill="#ffffff" stroke="transparent" points="565.5,-305 565.5,-323 592.5,-323 592.5,-305 565.5,-305"/>
<polygon fill="none" stroke="black" points="565.5,-305 565.5,-323 592.5,-323 592.5,-305 565.5,-305"/>
<text text-anchor="start" x="573.5" y="-311.2" font-family="Helvetica,sans-Serif" font-size="11.00">4 &gt;</text>
</a>
</g>
</g>
<!-- isospecimendata&#45;&gt;specimens -->
<g id="edge7" class="edge">
<title>isospecimendata:w&#45;&gt;specimens:e</title>
<path fill="none" stroke="black" d="M652.04,-543.78C630.37,-539.88 621.35,-528 593.5,-528"/>
<polygon fill="black" stroke="black" points="658.53,-544.33 666.2,-548.59 662.51,-544.66 666.5,-545 666.5,-545 666.5,-545 662.51,-544.66 666.8,-541.41 658.53,-544.33 658.53,-544.33"/>
<ellipse fill="none" stroke="black" cx="655.34" cy="-544.06" rx="3.2" ry="3.2"/>
</g>
<!-- specimens&#45;&gt;data -->
<g id="edge9" class="edge">
<title>specimens:w&#45;&gt;data:e</title>
<path fill="none" stroke="black" d="M453.2,-509C423.44,-523.43 435.61,-585 393,-585"/>
<polygon fill="black" stroke="black" points="459.67,-507.64 468.24,-509.52 463.59,-506.82 467.5,-506 467.5,-506 467.5,-506 463.59,-506.82 466.76,-502.48 459.67,-507.64 459.67,-507.64"/>
<ellipse fill="none" stroke="black" cx="456.54" cy="-508.3" rx="3.2" ry="3.2"/>
</g>
<!-- isostratdata -->
<g id="node9" class="node">
<title>isostratdata</title>
<g id="a_node9"><a xlink:href="../../tables/isostratdata.html" xlink:title="isostratdata" target="_top">
<polygon fill="#ffffff" stroke="transparent" points="470.5,-160 470.5,-284 590.5,-284 590.5,-160 470.5,-160"/>
<polygon fill="#f5f5f5" stroke="transparent" points="470.5,-262 470.5,-284 590.5,-284 590.5,-262 470.5,-262"/>
<polygon fill="none" stroke="black" points="470.5,-262 470.5,-284 590.5,-284 590.5,-262 470.5,-262"/>
<text text-anchor="start" x="475.5" y="-271.2" font-family="Helvetica,sans-Serif" font-weight="bold" font-size="11.00">isostratdata</text>
<text text-anchor="start" x="555.5" y="-270.2" font-family="Helvetica,sans-Serif" font-size="11.00">[table]</text>
<polygon fill="none" stroke="black" points="470.5,-240 470.5,-262 590.5,-262 590.5,-240 470.5,-240"/>
<image xlink:href="../../images/primaryKeys.png" width="11px" height="12px" preserveAspectRatio="xMinYMin meet" x="475.5" y="-257"/>
<text text-anchor="start" x="490.5" y="-248.2" font-family="Helvetica,sans-Serif" font-size="11.00">dataid</text>
<polygon fill="none" stroke="black" points="470.5,-218 470.5,-240 590.5,-240 590.5,-218 470.5,-218"/>
<image xlink:href="../../images/foreignKeys.png" width="11px" height="12px" preserveAspectRatio="xMinYMin meet" x="475.5" y="-235"/>
<text text-anchor="start" x="490.5" y="-226.2" font-family="Helvetica,sans-Serif" font-size="11.00">taxonid</text>
<polygon fill="none" stroke="black" points="470.5,-196 470.5,-218 590.5,-218 590.5,-196 470.5,-196"/>
<image xlink:href="../../images/foreignKeys.png" width="11px" height="12px" preserveAspectRatio="xMinYMin meet" x="475.5" y="-213"/>
<text text-anchor="start" x="490.5" y="-204.2" font-family="Helvetica,sans-Serif" font-size="11.00">elementtypeid</text>
<polygon fill="none" stroke="black" points="470.5,-178 470.5,-196 590.5,-196 590.5,-178 470.5,-178"/>
<text text-anchor="start" x="473.5" y="-184.2" font-family="Helvetica,sans-Serif" font-size="11.00">...</text>
<polygon fill="#ffffff" stroke="transparent" points="470.5,-160 470.5,-178 509.5,-178 509.5,-160 470.5,-160"/>
<polygon fill="none" stroke="black" points="470.5,-160 470.5,-178 509.5,-178 509.5,-160 470.5,-160"/>
<text text-anchor="start" x="473.5" y="-166.2" font-family="Helvetica,sans-Serif" font-size="11.00">&lt; 3</text>
<polygon fill="#ffffff" stroke="transparent" points="509.5,-160 509.5,-178 568.5,-178 568.5,-160 509.5,-160"/>
<polygon fill="none" stroke="black" points="509.5,-160 509.5,-178 568.5,-178 568.5,-160 509.5,-160"/>
<text text-anchor="start" x="520.5" y="-166.2" font-family="Helvetica,sans-Serif" font-size="11.00">634 rows</text>
<polygon fill="#ffffff" stroke="transparent" points="568.5,-160 568.5,-178 590.5,-178 590.5,-160 568.5,-160"/>
<polygon fill="none" stroke="black" points="568.5,-160 568.5,-178 590.5,-178 590.5,-160 568.5,-160"/>
<text text-anchor="start" x="580.5" y="-166.2" font-family="Helvetica,sans-Serif" font-size="11.00"> &#160;</text>
</a>
</g>
</g>
<!-- isostratdata&#45;&gt;data -->
<g id="edge8" class="edge">
<title>isostratdata:w&#45;&gt;data:e</title>
<path fill="none" stroke="black" d="M459.13,-252.62C444.43,-257.99 443.17,-275.9 435,-295 409.38,-354.86 458.12,-585 393,-585"/>
<polygon fill="black" stroke="black" points="468.09,-247.17 469.33,-255.08 467.75,-255.32 466.51,-247.42 468.09,-247.17"/>
<polyline fill="none" stroke="black" points="469.5,-251 465.55,-251.62 "/>
<ellipse fill="none" stroke="black" cx="462.39" cy="-252.11" rx="3.2" ry="3.2"/>
</g>
<!-- summarydatataphonomy -->
<g id="node10" class="node">
<title>summarydatataphonomy</title>
<g id="a_node10"><a xlink:href="../../tables/summarydatataphonomy.html" xlink:title="summarydatataphonomy" target="_top">
<polygon fill="#ffffff" stroke="transparent" points="443,-37 443,-139 618,-139 618,-37 443,-37"/>
<polygon fill="#f5f5f5" stroke="transparent" points="443.5,-117 443.5,-139 618.5,-139 618.5,-117 443.5,-117"/>
<polygon fill="none" stroke="black" points="443.5,-117 443.5,-139 618.5,-139 618.5,-117 443.5,-117"/>
<text text-anchor="start" x="448.5" y="-126.2" font-family="Helvetica,sans-Serif" font-weight="bold" font-size="11.00">summarydatataphonomy</text>
<text text-anchor="start" x="583.5" y="-125.2" font-family="Helvetica,sans-Serif" font-size="11.00">[table]</text>
<polygon fill="none" stroke="black" points="443.5,-95 443.5,-117 618.5,-117 618.5,-95 443.5,-95"/>
<image xlink:href="../../images/primaryKeys.png" width="11px" height="12px" preserveAspectRatio="xMinYMin meet" x="448.5" y="-112"/>
<text text-anchor="start" x="464.5" y="-103.2" font-family="Helvetica,sans-Serif" font-size="11.00">dataid</text>
<polygon fill="none" stroke="black" points="443.5,-73 443.5,-95 618.5,-95 618.5,-73 443.5,-73"/>
<image xlink:href="../../images/primaryKeys.png" width="11px" height="12px" preserveAspectRatio="xMinYMin meet" x="448.5" y="-90"/>
<text text-anchor="start" x="464.5" y="-81.2" font-family="Helvetica,sans-Serif" font-size="11.00">taphonomictypeid</text>
<polygon fill="none" stroke="black" points="443.5,-55 443.5,-73 618.5,-73 618.5,-55 443.5,-55"/>
<text text-anchor="start" x="446.5" y="-61.2" font-family="Helvetica,sans-Serif" font-size="11.00">...</text>
<polygon fill="#ffffff" stroke="transparent" points="443.5,-37 443.5,-55 502.5,-55 502.5,-37 443.5,-37"/>
<polygon fill="none" stroke="black" points="443.5,-37 443.5,-55 502.5,-55 502.5,-37 443.5,-37"/>
<text text-anchor="start" x="446.5" y="-43.2" font-family="Helvetica,sans-Serif" font-size="11.00">&lt; 2</text>
<polygon fill="#ffffff" stroke="transparent" points="502.5,-37 502.5,-55 586.5,-55 586.5,-37 502.5,-37"/>
<polygon fill="none" stroke="black" points="502.5,-37 502.5,-55 586.5,-55 586.5,-37 502.5,-37"/>
<text text-anchor="start" x="523.5" y="-43.2" font-family="Helvetica,sans-Serif" font-size="11.00">42,956 rows</text>
<polygon fill="#ffffff" stroke="transparent" points="586.5,-37 586.5,-55 618.5,-55 618.5,-37 586.5,-37"/>
<polygon fill="none" stroke="black" points="586.5,-37 586.5,-55 618.5,-55 618.5,-37 586.5,-37"/>
<text text-anchor="start" x="608.5" y="-43.2" font-family="Helvetica,sans-Serif" font-size="11.00"> &#160;</text>
</a>
</g>
</g>
<!-- summarydatataphonomy&#45;&gt;data -->
<g id="edge10" class="edge">
<title>summarydatataphonomy:w&#45;&gt;data:e</title>
<path fill="none" stroke="black" d="M428.23,-109.58C351.5,-153.41 494.58,-585 393,-585"/>
<polygon fill="black" stroke="black" points="434.74,-107.95 443.38,-109.49 438.62,-106.97 442.5,-106 442.5,-106 442.5,-106 438.62,-106.97 441.62,-102.51 434.74,-107.95 434.74,-107.95"/>
<ellipse fill="none" stroke="black" cx="431.64" cy="-108.73" rx="3.2" ry="3.2"/>
</g>
</g>
</svg>
