<?xml version="1.0" encoding="UTF-8" standalone="no"?>
<!DOCTYPE svg PUBLIC "-//W3C//DTD SVG 1.1//EN"
 "http://www.w3.org/Graphics/SVG/1.1/DTD/svg11.dtd">
<!-- Generated by graphviz version 2.43.0 (0)
 -->
<!-- Title: twoDegreesRelationshipsDiagram Pages: 1 -->
<svg width="1018pt" height="704pt"
 viewBox="0.00 0.00 1018.00 704.00" xmlns="http://www.w3.org/2000/svg" xmlns:xlink="http://www.w3.org/1999/xlink">
<g id="graph0" class="graph" transform="scale(1 1) rotate(0) translate(4 700)">
<title>twoDegreesRelationshipsDiagram</title>
<polygon fill="#ffffff" stroke="transparent" points="-4,4 -4,-700 1014,-700 1014,4 -4,4"/>
<text text-anchor="middle" x="71.5" y="-7.2" font-family="Helvetica,sans-Serif" font-size="11.00">Generated by SchemaSpy</text>
<!-- accumulationrates -->
<g id="node1" class="node">
<title>accumulationrates</title>
<g id="a_node1"><a xlink:href="../../tables/accumulationrates.html" xlink:title="accumulationrates" target="_top">
<polygon fill="#ffffff" stroke="transparent" points="198,-506 198,-564 339,-564 339,-506 198,-506"/>
<polygon fill="#f5f5f5" stroke="transparent" points="198.5,-542 198.5,-564 339.5,-564 339.5,-542 198.5,-542"/>
<polygon fill="none" stroke="black" points="198.5,-542 198.5,-564 339.5,-564 339.5,-542 198.5,-542"/>
<text text-anchor="start" x="203.5" y="-551.2" font-family="Helvetica,sans-Serif" font-weight="bold" font-size="11.00">accumulationrates</text>
<text text-anchor="start" x="304.5" y="-550.2" font-family="Helvetica,sans-Serif" font-size="11.00">[table]</text>
<polygon fill="none" stroke="black" points="198.5,-524 198.5,-542 339.5,-542 339.5,-524 198.5,-524"/>
<text text-anchor="start" x="201.5" y="-530.2" font-family="Helvetica,sans-Serif" font-size="11.00">...</text>
<polygon fill="#ffffff" stroke="transparent" points="198.5,-506 198.5,-524 243.5,-524 243.5,-506 198.5,-506"/>
<polygon fill="none" stroke="black" points="198.5,-506 198.5,-524 243.5,-524 243.5,-506 198.5,-506"/>
<text text-anchor="start" x="201.5" y="-512.2" font-family="Helvetica,sans-Serif" font-size="11.00">&lt; 3</text>
<polygon fill="#ffffff" stroke="transparent" points="243.5,-506 243.5,-524 314.5,-524 314.5,-506 243.5,-506"/>
<polygon fill="none" stroke="black" points="243.5,-506 243.5,-524 314.5,-524 314.5,-506 243.5,-506"/>
<text text-anchor="start" x="257.5" y="-512.2" font-family="Helvetica,sans-Serif" font-size="11.00">1,089 rows</text>
<polygon fill="#ffffff" stroke="transparent" points="314.5,-506 314.5,-524 339.5,-524 339.5,-506 314.5,-506"/>
<polygon fill="none" stroke="black" points="314.5,-506 314.5,-524 339.5,-524 339.5,-506 314.5,-506"/>
<text text-anchor="start" x="329.5" y="-512.2" font-family="Helvetica,sans-Serif" font-size="11.00"> &#160;</text>
</a>
</g>
</g>
<!-- variableunits -->
<g id="node2" class="node">
<title>variableunits</title>
<g id="a_node2"><a xlink:href="../../tables/variableunits.html" xlink:title="variableunits" target="_top">
<polygon fill="#ffffff" stroke="transparent" points="8,-249 8,-329 128,-329 128,-249 8,-249"/>
<polygon fill="#f5f5f5" stroke="transparent" points="8,-307 8,-329 128,-329 128,-307 8,-307"/>
<polygon fill="none" stroke="black" points="8,-307 8,-329 128,-329 128,-307 8,-307"/>
<text text-anchor="start" x="13" y="-316.2" font-family="Helvetica,sans-Serif" font-weight="bold" font-size="11.00">variableunits</text>
<text text-anchor="start" x="93" y="-315.2" font-family="Helvetica,sans-Serif" font-size="11.00">[table]</text>
<polygon fill="none" stroke="black" points="8,-285 8,-307 128,-307 128,-285 8,-285"/>
<image xlink:href="../../images/primaryKeys.png" width="11px" height="12px" preserveAspectRatio="xMinYMin meet" x="13" y="-302"/>
<text text-anchor="start" x="28" y="-293.2" font-family="Helvetica,sans-Serif" font-size="11.00">variableunitsid</text>
<polygon fill="none" stroke="black" points="8,-267 8,-285 128,-285 128,-267 8,-267"/>
<text text-anchor="start" x="11" y="-273.2" font-family="Helvetica,sans-Serif" font-size="11.00">...</text>
<polygon fill="#ffffff" stroke="transparent" points="8,-249 8,-267 38,-267 38,-249 8,-249"/>
<polygon fill="none" stroke="black" points="8,-249 8,-267 38,-267 38,-249 8,-249"/>
<text text-anchor="start" x="11" y="-255.2" font-family="Helvetica,sans-Serif" font-size="11.00"> &#160;</text>
<polygon fill="#ffffff" stroke="transparent" points="38,-249 38,-267 97,-267 97,-249 38,-249"/>
<polygon fill="none" stroke="black" points="38,-249 38,-267 97,-267 97,-249 38,-249"/>
<text text-anchor="start" x="49" y="-255.2" font-family="Helvetica,sans-Serif" font-size="11.00">212 rows</text>
<polygon fill="#ffffff" stroke="transparent" points="97,-249 97,-267 128,-267 128,-249 97,-249"/>
<polygon fill="none" stroke="black" points="97,-249 97,-267 128,-267 128,-249 97,-249"/>
<text text-anchor="start" x="109" y="-255.2" font-family="Helvetica,sans-Serif" font-size="11.00">5 &gt;</text>
</a>
</g>
</g>
<!-- accumulationrates&#45;&gt;variableunits -->
<g id="edge1" class="edge">
<title>accumulationrates:w&#45;&gt;variableunits:e</title>
<path fill="none" stroke="black" d="M183.67,-528.45C176.38,-521.89 174.98,-509.14 169,-496 150.23,-454.74 174.32,-296 129,-296"/>
<polygon fill="black" stroke="black" points="189.9,-530.5 196.37,-536.42 193.7,-531.75 197.5,-533 197.5,-533 197.5,-533 193.7,-531.75 198.63,-529.58 189.9,-530.5 189.9,-530.5"/>
<ellipse fill="none" stroke="black" cx="186.86" cy="-529.5" rx="3.2" ry="3.2"/>
</g>
<!-- analysisunitaltdepthscales -->
<g id="node3" class="node">
<title>analysisunitaltdepthscales</title>
<g id="a_node3"><a xlink:href="../../tables/analysisunitaltdepthscales.html" xlink:title="analysisunitaltdepthscales" target="_top">
<polygon fill="#ffffff" stroke="transparent" points="177,-427 177,-485 360,-485 360,-427 177,-427"/>
<polygon fill="#f5f5f5" stroke="transparent" points="177.5,-463 177.5,-485 360.5,-485 360.5,-463 177.5,-463"/>
<polygon fill="none" stroke="black" points="177.5,-463 177.5,-485 360.5,-485 360.5,-463 177.5,-463"/>
<text text-anchor="start" x="182.5" y="-472.2" font-family="Helvetica,sans-Serif" font-weight="bold" font-size="11.00">analysisunitaltdepthscales</text>
<text text-anchor="start" x="325.5" y="-471.2" font-family="Helvetica,sans-Serif" font-size="11.00">[table]</text>
<polygon fill="none" stroke="black" points="177.5,-445 177.5,-463 360.5,-463 360.5,-445 177.5,-445"/>
<text text-anchor="start" x="180.5" y="-451.2" font-family="Helvetica,sans-Serif" font-size="11.00">...</text>
<polygon fill="#ffffff" stroke="transparent" points="177.5,-427 177.5,-445 246.5,-445 246.5,-427 177.5,-427"/>
<polygon fill="none" stroke="black" points="177.5,-427 177.5,-445 246.5,-445 246.5,-427 177.5,-427"/>
<text text-anchor="start" x="180.5" y="-433.2" font-family="Helvetica,sans-Serif" font-size="11.00">&lt; 1</text>
<polygon fill="#ffffff" stroke="transparent" points="246.5,-427 246.5,-445 314.5,-445 314.5,-427 246.5,-427"/>
<polygon fill="none" stroke="black" points="246.5,-427 246.5,-445 314.5,-445 314.5,-427 246.5,-427"/>
<text text-anchor="start" x="272.5" y="-433.2" font-family="Helvetica,sans-Serif" font-size="11.00">59 rows</text>
<polygon fill="#ffffff" stroke="transparent" points="314.5,-427 314.5,-445 360.5,-445 360.5,-427 314.5,-427"/>
<polygon fill="none" stroke="black" points="314.5,-427 314.5,-445 360.5,-445 360.5,-427 314.5,-427"/>
<text text-anchor="start" x="341.5" y="-433.2" font-family="Helvetica,sans-Serif" font-size="11.00">1 &gt;</text>
</a>
</g>
</g>
<!-- analysisunitaltdepthscales&#45;&gt;variableunits -->
<g id="edge2" class="edge">
<title>analysisunitaltdepthscales:w&#45;&gt;variableunits:e</title>
<path fill="none" stroke="black" d="M162.31,-451.26C117.61,-430.28 196.6,-296 129,-296"/>
<polygon fill="black" stroke="black" points="168.65,-452.48 175.82,-457.53 172.57,-453.24 176.5,-454 176.5,-454 176.5,-454 172.57,-453.24 177.18,-450.47 168.65,-452.48 168.65,-452.48"/>
<ellipse fill="none" stroke="black" cx="165.5" cy="-451.88" rx="3.2" ry="3.2"/>
</g>
<!-- data -->
<g id="node4" class="node">
<title>data</title>
<g id="a_node4"><a xlink:href="../../tables/data.html" xlink:title="data" target="_top">
<polygon fill="#ffffff" stroke="transparent" points="411,-306 411,-430 542,-430 542,-306 411,-306"/>
<polygon fill="#f5f5f5" stroke="transparent" points="411.5,-408 411.5,-430 542.5,-430 542.5,-408 411.5,-408"/>
<polygon fill="none" stroke="black" points="411.5,-408 411.5,-430 542.5,-430 542.5,-408 411.5,-408"/>
<text text-anchor="start" x="416.5" y="-417.2" font-family="Helvetica,sans-Serif" font-weight="bold" font-size="11.00">data</text>
<text text-anchor="start" x="507.5" y="-416.2" font-family="Helvetica,sans-Serif" font-size="11.00">[table]</text>
<polygon fill="none" stroke="black" points="411.5,-386 411.5,-408 542.5,-408 542.5,-386 411.5,-386"/>
<image xlink:href="../../images/primaryKeys.png" width="11px" height="12px" preserveAspectRatio="xMinYMin meet" x="416.5" y="-403"/>
<text text-anchor="start" x="437.5" y="-394.2" font-family="Helvetica,sans-Serif" font-size="11.00">dataid</text>
<polygon fill="#ffffff" stroke="transparent" points="411.5,-364 411.5,-386 542.5,-386 542.5,-364 411.5,-364"/>
<polygon fill="none" stroke="black" points="411.5,-364 411.5,-386 542.5,-386 542.5,-364 411.5,-364"/>
<image xlink:href="../../images/foreignKeys.png" width="11px" height="12px" preserveAspectRatio="xMinYMin meet" x="416.5" y="-381"/>
<text text-anchor="start" x="437.5" y="-372.2" font-family="Helvetica,sans-Serif" font-size="11.00">sampleid</text>
<polygon fill="#ffffff" stroke="transparent" points="411.5,-342 411.5,-364 542.5,-364 542.5,-342 411.5,-342"/>
<polygon fill="none" stroke="black" points="411.5,-342 411.5,-364 542.5,-364 542.5,-342 411.5,-342"/>
<image xlink:href="../../images/foreignKeys.png" width="11px" height="12px" preserveAspectRatio="xMinYMin meet" x="416.5" y="-359"/>
<text text-anchor="start" x="437.5" y="-350.2" font-family="Helvetica,sans-Serif" font-size="11.00">variableid</text>
<polygon fill="none" stroke="black" points="411.5,-324 411.5,-342 542.5,-342 542.5,-324 411.5,-324"/>
<text text-anchor="start" x="414.5" y="-330.2" font-family="Helvetica,sans-Serif" font-size="11.00">...</text>
<polygon fill="#ffffff" stroke="transparent" points="411.5,-306 411.5,-324 433.5,-324 433.5,-306 411.5,-306"/>
<polygon fill="none" stroke="black" points="411.5,-306 411.5,-324 433.5,-324 433.5,-306 411.5,-306"/>
<text text-anchor="start" x="414.5" y="-312.2" font-family="Helvetica,sans-Serif" font-size="11.00">&lt; 2</text>
<polygon fill="#ffffff" stroke="transparent" points="433.5,-306 433.5,-324 520.5,-324 520.5,-306 433.5,-306"/>
<polygon fill="none" stroke="black" points="433.5,-306 433.5,-324 520.5,-324 520.5,-306 433.5,-306"/>
<text text-anchor="start" x="436.5" y="-312.2" font-family="Helvetica,sans-Serif" font-size="11.00">10,527,055 rows</text>
<polygon fill="#ffffff" stroke="transparent" points="520.5,-306 520.5,-324 542.5,-324 542.5,-306 520.5,-306"/>
<polygon fill="none" stroke="black" points="520.5,-306 520.5,-324 542.5,-324 542.5,-306 520.5,-306"/>
<text text-anchor="start" x="523.5" y="-312.2" font-family="Helvetica,sans-Serif" font-size="11.00">8 &gt;</text>
</a>
</g>
</g>
<!-- samples -->
<g id="node5" class="node">
<title>samples</title>
<g id="a_node5"><a xlink:href="../../tables/samples.html" xlink:title="samples" target="_top">
<polygon fill="#ffffff" stroke="transparent" points="210.5,-348 210.5,-406 326.5,-406 326.5,-348 210.5,-348"/>
<polygon fill="#f5f5f5" stroke="transparent" points="210.5,-384 210.5,-406 326.5,-406 326.5,-384 210.5,-384"/>
<polygon fill="none" stroke="black" points="210.5,-384 210.5,-406 326.5,-406 326.5,-384 210.5,-384"/>
<text text-anchor="start" x="215.5" y="-393.2" font-family="Helvetica,sans-Serif" font-weight="bold" font-size="11.00">samples</text>
<text text-anchor="start" x="291.5" y="-392.2" font-family="Helvetica,sans-Serif" font-size="11.00">[table]</text>
<polygon fill="none" stroke="black" points="210.5,-366 210.5,-384 326.5,-384 326.5,-366 210.5,-366"/>
<text text-anchor="start" x="213.5" y="-372.2" font-family="Helvetica,sans-Serif" font-size="11.00">...</text>
<polygon fill="#ffffff" stroke="transparent" points="210.5,-348 210.5,-366 232.5,-366 232.5,-348 210.5,-348"/>
<polygon fill="none" stroke="black" points="210.5,-348 210.5,-366 232.5,-366 232.5,-348 210.5,-348"/>
<text text-anchor="start" x="213.5" y="-354.2" font-family="Helvetica,sans-Serif" font-size="11.00">&lt; 3</text>
<polygon fill="#ffffff" stroke="transparent" points="232.5,-348 232.5,-366 304.5,-366 304.5,-348 232.5,-348"/>
<polygon fill="none" stroke="black" points="232.5,-348 232.5,-366 304.5,-366 304.5,-348 232.5,-348"/>
<text text-anchor="start" x="235.5" y="-354.2" font-family="Helvetica,sans-Serif" font-size="11.00">541,654 rows</text>
<polygon fill="#ffffff" stroke="transparent" points="304.5,-348 304.5,-366 326.5,-366 326.5,-348 304.5,-348"/>
<polygon fill="none" stroke="black" points="304.5,-348 304.5,-366 326.5,-366 326.5,-348 304.5,-348"/>
<text text-anchor="start" x="307.5" y="-354.2" font-family="Helvetica,sans-Serif" font-size="11.00">7 &gt;</text>
</a>
</g>
</g>
<!-- data&#45;&gt;samples -->
<g id="edge3" class="edge">
<title>data:w&#45;&gt;samples:e</title>
<path fill="none" stroke="black" d="M396.07,-375C370.37,-375 359.06,-375 327.5,-375"/>
<polygon fill="black" stroke="black" points="402.5,-375 410.5,-378.6 406.5,-375 410.5,-375 410.5,-375 410.5,-375 406.5,-375 410.5,-371.4 402.5,-375 402.5,-375"/>
<ellipse fill="none" stroke="black" cx="399.3" cy="-375" rx="3.2" ry="3.2"/>
</g>
<!-- variables -->
<g id="node6" class="node">
<title>variables</title>
<g id="a_node6"><a xlink:href="../../tables/variables.html" xlink:title="variables" target="_top">
<polygon fill="#ffffff" stroke="transparent" points="213.5,-269 213.5,-327 323.5,-327 323.5,-269 213.5,-269"/>
<polygon fill="#f5f5f5" stroke="transparent" points="213.5,-305 213.5,-327 323.5,-327 323.5,-305 213.5,-305"/>
<polygon fill="none" stroke="black" points="213.5,-305 213.5,-327 323.5,-327 323.5,-305 213.5,-305"/>
<text text-anchor="start" x="218.5" y="-314.2" font-family="Helvetica,sans-Serif" font-weight="bold" font-size="11.00">variables</text>
<text text-anchor="start" x="288.5" y="-313.2" font-family="Helvetica,sans-Serif" font-size="11.00">[table]</text>
<polygon fill="none" stroke="black" points="213.5,-287 213.5,-305 323.5,-305 323.5,-287 213.5,-287"/>
<text text-anchor="start" x="216.5" y="-293.2" font-family="Helvetica,sans-Serif" font-size="11.00">...</text>
<polygon fill="#ffffff" stroke="transparent" points="213.5,-269 213.5,-287 235.5,-287 235.5,-269 213.5,-269"/>
<polygon fill="none" stroke="black" points="213.5,-269 213.5,-287 235.5,-287 235.5,-269 213.5,-269"/>
<text text-anchor="start" x="216.5" y="-275.2" font-family="Helvetica,sans-Serif" font-size="11.00">&lt; 4</text>
<polygon fill="#ffffff" stroke="transparent" points="235.5,-269 235.5,-287 301.5,-287 301.5,-269 235.5,-269"/>
<polygon fill="none" stroke="black" points="235.5,-269 235.5,-287 301.5,-287 301.5,-269 235.5,-269"/>
<text text-anchor="start" x="238.5" y="-275.2" font-family="Helvetica,sans-Serif" font-size="11.00">57,421 rows</text>
<polygon fill="#ffffff" stroke="transparent" points="301.5,-269 301.5,-287 323.5,-287 323.5,-269 301.5,-269"/>
<polygon fill="none" stroke="black" points="301.5,-269 301.5,-287 323.5,-287 323.5,-269 301.5,-269"/>
<text text-anchor="start" x="304.5" y="-275.2" font-family="Helvetica,sans-Serif" font-size="11.00">6 &gt;</text>
</a>
</g>
</g>
<!-- data&#45;&gt;variables -->
<g id="edge4" class="edge">
<title>data:w&#45;&gt;variables:e</title>
<path fill="none" stroke="black" d="M395.93,-350.69C365.27,-340.03 364.8,-296 324.5,-296"/>
<polygon fill="black" stroke="black" points="402.6,-351.75 409.94,-356.56 406.55,-352.38 410.5,-353 410.5,-353 410.5,-353 406.55,-352.38 411.06,-349.44 402.6,-351.75 402.6,-351.75"/>
<ellipse fill="none" stroke="black" cx="399.44" cy="-351.25" rx="3.2" ry="3.2"/>
</g>
<!-- variables&#45;&gt;variableunits -->
<g id="edge17" class="edge">
<title>variables:w&#45;&gt;variableunits:e</title>
<path fill="none" stroke="black" d="M197.99,-296C172.13,-296 160.75,-296 129,-296"/>
<polygon fill="black" stroke="black" points="204.5,-296 212.5,-299.6 208.5,-296 212.5,-296 212.5,-296 212.5,-296 208.5,-296 212.5,-292.4 204.5,-296 204.5,-296"/>
<ellipse fill="none" stroke="black" cx="201.3" cy="-296" rx="3.2" ry="3.2"/>
</g>
<!-- datataxonnotes -->
<g id="node7" class="node">
<title>datataxonnotes</title>
<g id="a_node7"><a xlink:href="../../tables/datataxonnotes.html" xlink:title="datataxonnotes" target="_top">
<polygon fill="#ffffff" stroke="transparent" points="643.5,-634 643.5,-692 769.5,-692 769.5,-634 643.5,-634"/>
<polygon fill="#f5f5f5" stroke="transparent" points="643.5,-670 643.5,-692 769.5,-692 769.5,-670 643.5,-670"/>
<polygon fill="none" stroke="black" points="643.5,-670 643.5,-692 769.5,-692 769.5,-670 643.5,-670"/>
<text text-anchor="start" x="648.5" y="-679.2" font-family="Helvetica,sans-Serif" font-weight="bold" font-size="11.00">datataxonnotes</text>
<text text-anchor="start" x="734.5" y="-678.2" font-family="Helvetica,sans-Serif" font-size="11.00">[table]</text>
<polygon fill="none" stroke="black" points="643.5,-652 643.5,-670 769.5,-670 769.5,-652 643.5,-652"/>
<text text-anchor="start" x="646.5" y="-658.2" font-family="Helvetica,sans-Serif" font-size="11.00">...</text>
<polygon fill="#ffffff" stroke="transparent" points="643.5,-634 643.5,-652 691.5,-652 691.5,-634 643.5,-634"/>
<polygon fill="none" stroke="black" points="643.5,-634 643.5,-652 691.5,-652 691.5,-634 643.5,-634"/>
<text text-anchor="start" x="646.5" y="-640.2" font-family="Helvetica,sans-Serif" font-size="11.00">&lt; 2</text>
<polygon fill="#ffffff" stroke="transparent" points="691.5,-634 691.5,-652 743.5,-652 743.5,-634 691.5,-634"/>
<polygon fill="none" stroke="black" points="691.5,-634 691.5,-652 743.5,-652 743.5,-634 691.5,-634"/>
<text text-anchor="start" x="707.5" y="-640.2" font-family="Helvetica,sans-Serif" font-size="11.00">0 rows</text>
<polygon fill="#ffffff" stroke="transparent" points="743.5,-634 743.5,-652 769.5,-652 769.5,-634 743.5,-634"/>
<polygon fill="none" stroke="black" points="743.5,-634 743.5,-652 769.5,-652 769.5,-634 743.5,-634"/>
<text text-anchor="start" x="759.5" y="-640.2" font-family="Helvetica,sans-Serif" font-size="11.00"> &#160;</text>
</a>
</g>
</g>
<!-- datataxonnotes&#45;&gt;data -->
<g id="edge5" class="edge">
<title>datataxonnotes:w&#45;&gt;data:e</title>
<path fill="none" stroke="black" d="M627.92,-659.85C608.23,-656.34 598.87,-644.72 585,-624 556.47,-581.39 594.78,-397 543.5,-397"/>
<polygon fill="black" stroke="black" points="634.52,-660.37 642.22,-664.59 638.51,-660.69 642.5,-661 642.5,-661 642.5,-661 638.51,-660.69 642.78,-657.41 634.52,-660.37 634.52,-660.37"/>
<ellipse fill="none" stroke="black" cx="631.33" cy="-660.12" rx="3.2" ry="3.2"/>
</g>
<!-- datauncertainties -->
<g id="node8" class="node">
<title>datauncertainties</title>
<g id="a_node8"><a xlink:href="../../tables/datauncertainties.html" xlink:title="datauncertainties" target="_top">
<polygon fill="#ffffff" stroke="transparent" points="593,-37 593,-191 820,-191 820,-37 593,-37"/>
<polygon fill="#f5f5f5" stroke="transparent" points="595.5,-167 595.5,-189 818.5,-189 818.5,-167 595.5,-167"/>
<polygon fill="none" stroke="black" points="595.5,-167 595.5,-189 818.5,-189 818.5,-167 595.5,-167"/>
<text text-anchor="start" x="600.5" y="-176.2" font-family="Helvetica,sans-Serif" font-weight="bold" font-size="11.00">datauncertainties</text>
<text text-anchor="start" x="783.5" y="-175.2" font-family="Helvetica,sans-Serif" font-size="11.00">[table]</text>
<polygon fill="#ffffff" stroke="transparent" points="595.5,-145 595.5,-167 728.5,-167 728.5,-145 595.5,-145"/>
<polygon fill="none" stroke="black" points="595.5,-145 595.5,-167 728.5,-167 728.5,-145 595.5,-145"/>
<image xlink:href="../../images/foreignKeys.png" width="11px" height="12px" preserveAspectRatio="xMinYMin meet" x="600.5" y="-162"/>
<text text-anchor="start" x="615.5" y="-153.2" font-family="Helvetica,sans-Serif" font-size="11.00">dataid</text>
<polygon fill="none" stroke="black" points="728.5,-145 728.5,-167 818.5,-167 818.5,-145 728.5,-145"/>
<text text-anchor="start" x="731.5" y="-153.2" font-family="Helvetica,sans-Serif" font-size="11.00">int4[10]</text>
<polygon fill="none" stroke="black" points="595.5,-123 595.5,-145 728.5,-145 728.5,-123 595.5,-123"/>
<text text-anchor="start" x="615.5" y="-131.2" font-family="Helvetica,sans-Serif" font-size="11.00">uncertaintyvalue</text>
<polygon fill="none" stroke="black" points="728.5,-123 728.5,-145 818.5,-145 818.5,-123 728.5,-123"/>
<text text-anchor="start" x="731.5" y="-131.2" font-family="Helvetica,sans-Serif" font-size="11.00">float8[17,17]</text>
<polygon fill="#ffffff" stroke="transparent" points="595.5,-101 595.5,-123 728.5,-123 728.5,-101 595.5,-101"/>
<polygon fill="none" stroke="black" points="595.5,-101 595.5,-123 728.5,-123 728.5,-101 595.5,-101"/>
<image xlink:href="../../images/foreignKeys.png" width="11px" height="12px" preserveAspectRatio="xMinYMin meet" x="600.5" y="-118"/>
<text text-anchor="start" x="615.5" y="-109.2" font-family="Helvetica,sans-Serif" font-size="11.00">uncertaintyunitid</text>
<polygon fill="none" stroke="black" points="728.5,-101 728.5,-123 818.5,-123 818.5,-101 728.5,-101"/>
<text text-anchor="start" x="731.5" y="-109.2" font-family="Helvetica,sans-Serif" font-size="11.00">int4[10]</text>
<polygon fill="#ffffff" stroke="transparent" points="595.5,-79 595.5,-101 728.5,-101 728.5,-79 595.5,-79"/>
<polygon fill="none" stroke="black" points="595.5,-79 595.5,-101 728.5,-101 728.5,-79 595.5,-79"/>
<image xlink:href="../../images/foreignKeys.png" width="11px" height="12px" preserveAspectRatio="xMinYMin meet" x="600.5" y="-96"/>
<text text-anchor="start" x="615.5" y="-87.2" font-family="Helvetica,sans-Serif" font-size="11.00">uncertaintybasisid</text>
<polygon fill="none" stroke="black" points="728.5,-79 728.5,-101 818.5,-101 818.5,-79 728.5,-79"/>
<text text-anchor="start" x="731.5" y="-87.2" font-family="Helvetica,sans-Serif" font-size="11.00">int4[10]</text>
<polygon fill="none" stroke="black" points="595.5,-57 595.5,-79 728.5,-79 728.5,-57 595.5,-57"/>
<text text-anchor="start" x="615.5" y="-65.2" font-family="Helvetica,sans-Serif" font-size="11.00">notes</text>
<polygon fill="none" stroke="black" points="728.5,-57 728.5,-79 818.5,-79 818.5,-57 728.5,-57"/>
<text text-anchor="start" x="731.5" y="-65.2" font-family="Helvetica,sans-Serif" font-size="11.00">text[2147483647]</text>
<polygon fill="#ffffff" stroke="transparent" points="595.5,-39 595.5,-57 653.5,-57 653.5,-39 595.5,-39"/>
<polygon fill="none" stroke="black" points="595.5,-39 595.5,-57 653.5,-57 653.5,-39 595.5,-39"/>
<text text-anchor="start" x="598.5" y="-45.2" font-family="Helvetica,sans-Serif" font-size="11.00">&lt; 3</text>
<polygon fill="#ffffff" stroke="transparent" points="653.5,-39 653.5,-57 728.5,-57 728.5,-39 653.5,-39"/>
<polygon fill="none" stroke="black" points="653.5,-39 653.5,-57 728.5,-57 728.5,-39 653.5,-39"/>
<text text-anchor="start" x="692.5" y="-45.2" font-family="Helvetica,sans-Serif" font-size="11.00">0 rows</text>
<polygon fill="#ffffff" stroke="transparent" points="728.5,-39 728.5,-57 818.5,-57 818.5,-39 728.5,-39"/>
<polygon fill="none" stroke="black" points="728.5,-39 728.5,-57 818.5,-57 818.5,-39 728.5,-39"/>
<text text-anchor="start" x="799.5" y="-45.2" font-family="Helvetica,sans-Serif" font-size="11.00">0 &gt;</text>
<polygon fill="none" stroke="black" stroke-width="2" points="594,-38 594,-190 819,-190 819,-38 594,-38"/>
</a>
</g>
</g>
<!-- datauncertainties&#45;&gt;variableunits -->
<g id="edge8" class="edge">
<title>datauncertainties:w&#45;&gt;variableunits:e</title>
<path fill="none" stroke="black" d="M581.11,-118.01C533.09,-142.06 373.85,-230.12 368,-232 283.03,-259.32 249.73,-220.93 169,-259 147.1,-269.33 153.22,-296 129,-296"/>
<polygon fill="black" stroke="black" points="587.2,-115.28 595.97,-115.28 590.85,-113.64 594.5,-112 594.5,-112 594.5,-112 590.85,-113.64 593.03,-108.72 587.2,-115.28 587.2,-115.28"/>
<ellipse fill="none" stroke="black" cx="584.28" cy="-116.59" rx="3.2" ry="3.2"/>
</g>
<!-- datauncertainties&#45;&gt;data -->
<g id="edge6" class="edge">
<title>datauncertainties:w&#45;&gt;data:e</title>
<path fill="none" stroke="black" d="M579.89,-157.8C501.36,-179.86 647.42,-397 543.5,-397"/>
<polygon fill="black" stroke="black" points="586.56,-156.98 594.94,-159.57 590.53,-156.49 594.5,-156 594.5,-156 594.5,-156 590.53,-156.49 594.06,-152.43 586.56,-156.98 586.56,-156.98"/>
<ellipse fill="none" stroke="black" cx="583.38" cy="-157.37" rx="3.2" ry="3.2"/>
</g>
<!-- uncertaintybases -->
<g id="node9" class="node">
<title>uncertaintybases</title>
<g id="a_node9"><a xlink:href="../../tables/uncertaintybases.html" xlink:title="uncertaintybases" target="_top">
<polygon fill="#ffffff" stroke="transparent" points="409,-39 409,-123 544,-123 544,-39 409,-39"/>
<polygon fill="#f5f5f5" stroke="transparent" points="409.5,-101 409.5,-123 544.5,-123 544.5,-101 409.5,-101"/>
<polygon fill="none" stroke="black" points="409.5,-101 409.5,-123 544.5,-123 544.5,-101 409.5,-101"/>
<text text-anchor="start" x="414.5" y="-110.2" font-family="Helvetica,sans-Serif" font-weight="bold" font-size="11.00">uncertaintybases</text>
<text text-anchor="start" x="509.5" y="-109.2" font-family="Helvetica,sans-Serif" font-size="11.00">[table]</text>
<polygon fill="none" stroke="black" points="409.5,-79 409.5,-101 544.5,-101 544.5,-79 409.5,-79"/>
<image xlink:href="../../images/primaryKeys.png" width="11px" height="12px" preserveAspectRatio="xMinYMin meet" x="414.5" y="-96"/>
<text text-anchor="start" x="430.5" y="-87.2" font-family="Helvetica,sans-Serif" font-size="11.00">uncertaintybasisid</text>
<polygon fill="#ffffff" stroke="transparent" points="409.5,-57 409.5,-79 544.5,-79 544.5,-57 409.5,-57"/>
<polygon fill="none" stroke="black" points="409.5,-57 409.5,-79 544.5,-79 544.5,-57 409.5,-57"/>
<text text-anchor="start" x="430.5" y="-65.2" font-family="Helvetica,sans-Serif" font-size="11.00">uncertaintybasis</text>
<polygon fill="#ffffff" stroke="transparent" points="409.5,-39 409.5,-57 452.5,-57 452.5,-39 409.5,-39"/>
<polygon fill="none" stroke="black" points="409.5,-39 409.5,-57 452.5,-57 452.5,-39 409.5,-39"/>
<text text-anchor="start" x="412.5" y="-45.2" font-family="Helvetica,sans-Serif" font-size="11.00"> &#160;</text>
<polygon fill="#ffffff" stroke="transparent" points="452.5,-39 452.5,-57 506.5,-57 506.5,-39 452.5,-39"/>
<polygon fill="none" stroke="black" points="452.5,-39 452.5,-57 506.5,-57 506.5,-39 452.5,-39"/>
<text text-anchor="start" x="470.5" y="-45.2" font-family="Helvetica,sans-Serif" font-size="11.00">4 rows</text>
<polygon fill="#ffffff" stroke="transparent" points="506.5,-39 506.5,-57 544.5,-57 544.5,-39 506.5,-39"/>
<polygon fill="none" stroke="black" points="506.5,-39 506.5,-57 544.5,-57 544.5,-39 506.5,-39"/>
<text text-anchor="start" x="525.5" y="-45.2" font-family="Helvetica,sans-Serif" font-size="11.00">1 &gt;</text>
</a>
</g>
</g>
<!-- datauncertainties&#45;&gt;uncertaintybases -->
<g id="edge7" class="edge">
<title>datauncertainties:w&#45;&gt;uncertaintybases:e</title>
<path fill="none" stroke="black" d="M579.99,-90C568.68,-90 561.49,-90 545.5,-90"/>
<polygon fill="black" stroke="black" points="586.5,-90 594.5,-93.6 590.5,-90 594.5,-90 594.5,-90 594.5,-90 590.5,-90 594.5,-86.4 586.5,-90 586.5,-90"/>
<ellipse fill="none" stroke="black" cx="583.3" cy="-90" rx="3.2" ry="3.2"/>
</g>
<!-- isometadata -->
<g id="node10" class="node">
<title>isometadata</title>
<g id="a_node10"><a xlink:href="../../tables/isometadata.html" xlink:title="isometadata" target="_top">
<polygon fill="#ffffff" stroke="transparent" points="652.5,-555 652.5,-613 760.5,-613 760.5,-555 652.5,-555"/>
<polygon fill="#f5f5f5" stroke="transparent" points="652.5,-591 652.5,-613 760.5,-613 760.5,-591 652.5,-591"/>
<polygon fill="none" stroke="black" points="652.5,-591 652.5,-613 760.5,-613 760.5,-591 652.5,-591"/>
<text text-anchor="start" x="657.5" y="-600.2" font-family="Helvetica,sans-Serif" font-weight="bold" font-size="11.00">isometadata</text>
<text text-anchor="start" x="725.5" y="-599.2" font-family="Helvetica,sans-Serif" font-size="11.00">[table]</text>
<polygon fill="none" stroke="black" points="652.5,-573 652.5,-591 760.5,-591 760.5,-573 652.5,-573"/>
<text text-anchor="start" x="655.5" y="-579.2" font-family="Helvetica,sans-Serif" font-size="11.00">...</text>
<polygon fill="#ffffff" stroke="transparent" points="652.5,-555 652.5,-573 680.5,-573 680.5,-555 652.5,-555"/>
<polygon fill="none" stroke="black" points="652.5,-555 652.5,-573 680.5,-573 680.5,-555 652.5,-555"/>
<text text-anchor="start" x="655.5" y="-561.2" font-family="Helvetica,sans-Serif" font-size="11.00">&lt; 4</text>
<polygon fill="#ffffff" stroke="transparent" points="680.5,-555 680.5,-573 743.5,-573 743.5,-555 680.5,-555"/>
<polygon fill="none" stroke="black" points="680.5,-555 680.5,-573 743.5,-573 743.5,-555 680.5,-555"/>
<text text-anchor="start" x="686.5" y="-561.2" font-family="Helvetica,sans-Serif" font-size="11.00">4,893 rows</text>
<polygon fill="#ffffff" stroke="transparent" points="743.5,-555 743.5,-573 760.5,-573 760.5,-555 743.5,-555"/>
<polygon fill="none" stroke="black" points="743.5,-555 743.5,-573 760.5,-573 760.5,-555 743.5,-555"/>
<text text-anchor="start" x="750.5" y="-561.2" font-family="Helvetica,sans-Serif" font-size="11.00"> &#160;</text>
</a>
</g>
</g>
<!-- isometadata&#45;&gt;data -->
<g id="edge9" class="edge">
<title>isometadata:w&#45;&gt;data:e</title>
<path fill="none" stroke="black" d="M636.82,-581.17C613.69,-578.24 602.6,-567.3 585,-545 542.67,-491.38 611.81,-397 543.5,-397"/>
<polygon fill="black" stroke="black" points="643.51,-581.55 651.3,-585.59 647.51,-581.77 651.5,-582 651.5,-582 651.5,-582 647.51,-581.77 651.7,-578.41 643.51,-581.55 643.51,-581.55"/>
<ellipse fill="none" stroke="black" cx="640.32" cy="-581.37" rx="3.2" ry="3.2"/>
</g>
<!-- isosamplepretreatments -->
<g id="node11" class="node">
<title>isosamplepretreatments</title>
<g id="a_node11"><a xlink:href="../../tables/isosamplepretreatments.html" xlink:title="isosamplepretreatments" target="_top">
<polygon fill="#ffffff" stroke="transparent" points="621,-476 621,-534 792,-534 792,-476 621,-476"/>
<polygon fill="#f5f5f5" stroke="transparent" points="621.5,-512 621.5,-534 792.5,-534 792.5,-512 621.5,-512"/>
<polygon fill="none" stroke="black" points="621.5,-512 621.5,-534 792.5,-534 792.5,-512 621.5,-512"/>
<text text-anchor="start" x="626.5" y="-521.2" font-family="Helvetica,sans-Serif" font-weight="bold" font-size="11.00">isosamplepretreatments</text>
<text text-anchor="start" x="757.5" y="-520.2" font-family="Helvetica,sans-Serif" font-size="11.00">[table]</text>
<polygon fill="none" stroke="black" points="621.5,-494 621.5,-512 792.5,-512 792.5,-494 621.5,-494"/>
<text text-anchor="start" x="624.5" y="-500.2" font-family="Helvetica,sans-Serif" font-size="11.00">...</text>
<polygon fill="#ffffff" stroke="transparent" points="621.5,-476 621.5,-494 681.5,-494 681.5,-476 621.5,-476"/>
<polygon fill="none" stroke="black" points="621.5,-476 621.5,-494 681.5,-494 681.5,-476 621.5,-476"/>
<text text-anchor="start" x="624.5" y="-482.2" font-family="Helvetica,sans-Serif" font-size="11.00">&lt; 2</text>
<polygon fill="#ffffff" stroke="transparent" points="681.5,-476 681.5,-494 760.5,-494 760.5,-476 681.5,-476"/>
<polygon fill="none" stroke="black" points="681.5,-476 681.5,-494 760.5,-494 760.5,-476 681.5,-476"/>
<text text-anchor="start" x="703.5" y="-482.2" font-family="Helvetica,sans-Serif" font-size="11.00">1,035 rows</text>
<polygon fill="#ffffff" stroke="transparent" points="760.5,-476 760.5,-494 792.5,-494 792.5,-476 760.5,-476"/>
<polygon fill="none" stroke="black" points="760.5,-476 760.5,-494 792.5,-494 792.5,-476 760.5,-476"/>
<text text-anchor="start" x="782.5" y="-482.2" font-family="Helvetica,sans-Serif" font-size="11.00"> &#160;</text>
</a>
</g>
</g>
<!-- isosamplepretreatments&#45;&gt;data -->
<g id="edge10" class="edge">
<title>isosamplepretreatments:w&#45;&gt;data:e</title>
<path fill="none" stroke="black" d="M606.05,-500.16C569.05,-483.31 596.04,-397 543.5,-397"/>
<polygon fill="black" stroke="black" points="612.65,-501.46 619.81,-506.53 616.57,-502.23 620.5,-503 620.5,-503 620.5,-503 616.57,-502.23 621.19,-499.47 612.65,-501.46 612.65,-501.46"/>
<ellipse fill="none" stroke="black" cx="609.51" cy="-500.84" rx="3.2" ry="3.2"/>
</g>
<!-- isospecimendata -->
<g id="node12" class="node">
<title>isospecimendata</title>
<g id="a_node12"><a xlink:href="../../tables/isospecimendata.html" xlink:title="isospecimendata" target="_top">
<polygon fill="#ffffff" stroke="transparent" points="869,-397 869,-455 1002,-455 1002,-397 869,-397"/>
<polygon fill="#f5f5f5" stroke="transparent" points="869.5,-433 869.5,-455 1002.5,-455 1002.5,-433 869.5,-433"/>
<polygon fill="none" stroke="black" points="869.5,-433 869.5,-455 1002.5,-455 1002.5,-433 869.5,-433"/>
<text text-anchor="start" x="874.5" y="-442.2" font-family="Helvetica,sans-Serif" font-weight="bold" font-size="11.00">isospecimendata</text>
<text text-anchor="start" x="967.5" y="-441.2" font-family="Helvetica,sans-Serif" font-size="11.00">[table]</text>
<polygon fill="none" stroke="black" points="869.5,-415 869.5,-433 1002.5,-433 1002.5,-415 869.5,-415"/>
<text text-anchor="start" x="872.5" y="-421.2" font-family="Helvetica,sans-Serif" font-size="11.00">...</text>
<polygon fill="#ffffff" stroke="transparent" points="869.5,-397 869.5,-415 910.5,-415 910.5,-397 869.5,-397"/>
<polygon fill="none" stroke="black" points="869.5,-397 869.5,-415 910.5,-415 910.5,-397 869.5,-397"/>
<text text-anchor="start" x="872.5" y="-403.2" font-family="Helvetica,sans-Serif" font-size="11.00">&lt; 2</text>
<polygon fill="#ffffff" stroke="transparent" points="910.5,-397 910.5,-415 979.5,-415 979.5,-397 910.5,-397"/>
<polygon fill="none" stroke="black" points="910.5,-397 910.5,-415 979.5,-415 979.5,-397 910.5,-397"/>
<text text-anchor="start" x="922.5" y="-403.2" font-family="Helvetica,sans-Serif" font-size="11.00">5,193 rows</text>
<polygon fill="#ffffff" stroke="transparent" points="979.5,-397 979.5,-415 1002.5,-415 1002.5,-397 979.5,-397"/>
<polygon fill="none" stroke="black" points="979.5,-397 979.5,-415 1002.5,-415 1002.5,-397 979.5,-397"/>
<text text-anchor="start" x="992.5" y="-403.2" font-family="Helvetica,sans-Serif" font-size="11.00"> &#160;</text>
</a>
</g>
</g>
<!-- isospecimendata&#45;&gt;data -->
<g id="edge11" class="edge">
<title>isospecimendata:w&#45;&gt;data:e</title>
<path fill="none" stroke="black" d="M854.13,-426.92C846.07,-430.6 840.84,-436.7 828,-439 721.69,-458.05 684.65,-480.63 585,-439 560.79,-428.89 569.74,-397 543.5,-397"/>
<polygon fill="black" stroke="black" points="860.66,-425.59 869.22,-427.53 864.58,-424.8 868.5,-424 868.5,-424 868.5,-424 864.58,-424.8 867.78,-420.47 860.66,-425.59 860.66,-425.59"/>
<ellipse fill="none" stroke="black" cx="857.52" cy="-426.23" rx="3.2" ry="3.2"/>
</g>
<!-- specimens -->
<g id="node13" class="node">
<title>specimens</title>
<g id="a_node13"><a xlink:href="../../tables/specimens.html" xlink:title="specimens" target="_top">
<polygon fill="#ffffff" stroke="transparent" points="654.5,-370 654.5,-428 758.5,-428 758.5,-370 654.5,-370"/>
<polygon fill="#f5f5f5" stroke="transparent" points="654.5,-406 654.5,-428 758.5,-428 758.5,-406 654.5,-406"/>
<polygon fill="none" stroke="black" points="654.5,-406 654.5,-428 758.5,-428 758.5,-406 654.5,-406"/>
<text text-anchor="start" x="659.5" y="-415.2" font-family="Helvetica,sans-Serif" font-weight="bold" font-size="11.00">specimens</text>
<text text-anchor="start" x="723.5" y="-414.2" font-family="Helvetica,sans-Serif" font-size="11.00">[table]</text>
<polygon fill="none" stroke="black" points="654.5,-388 654.5,-406 758.5,-406 758.5,-388 654.5,-388"/>
<text text-anchor="start" x="657.5" y="-394.2" font-family="Helvetica,sans-Serif" font-size="11.00">...</text>
<polygon fill="#ffffff" stroke="transparent" points="654.5,-370 654.5,-388 676.5,-388 676.5,-370 654.5,-370"/>
<polygon fill="none" stroke="black" points="654.5,-370 654.5,-388 676.5,-388 676.5,-370 654.5,-370"/>
<text text-anchor="start" x="657.5" y="-376.2" font-family="Helvetica,sans-Serif" font-size="11.00">&lt; 8</text>
<polygon fill="#ffffff" stroke="transparent" points="676.5,-370 676.5,-388 736.5,-388 736.5,-370 676.5,-370"/>
<polygon fill="none" stroke="black" points="676.5,-370 676.5,-388 736.5,-388 736.5,-370 676.5,-370"/>
<text text-anchor="start" x="679.5" y="-376.2" font-family="Helvetica,sans-Serif" font-size="11.00">3,453 rows</text>
<polygon fill="#ffffff" stroke="transparent" points="736.5,-370 736.5,-388 758.5,-388 758.5,-370 736.5,-370"/>
<polygon fill="none" stroke="black" points="736.5,-370 736.5,-388 758.5,-388 758.5,-370 736.5,-370"/>
<text text-anchor="start" x="739.5" y="-376.2" font-family="Helvetica,sans-Serif" font-size="11.00">4 &gt;</text>
</a>
</g>
</g>
<!-- isospecimendata&#45;&gt;specimens -->
<g id="edge12" class="edge">
<title>isospecimendata:w&#45;&gt;specimens:e</title>
<path fill="none" stroke="black" d="M853.97,-423.16C816.2,-418.61 804.14,-397 759.5,-397"/>
<polygon fill="black" stroke="black" points="860.51,-423.54 868.29,-427.59 864.51,-423.77 868.5,-424 868.5,-424 868.5,-424 864.51,-423.77 868.71,-420.41 860.51,-423.54 860.51,-423.54"/>
<ellipse fill="none" stroke="black" cx="857.32" cy="-423.36" rx="3.2" ry="3.2"/>
</g>
<!-- specimens&#45;&gt;data -->
<g id="edge14" class="edge">
<title>specimens:w&#45;&gt;data:e</title>
<path fill="none" stroke="black" d="M638.68,-397C601.5,-397 587.04,-397 543.5,-397"/>
<polygon fill="black" stroke="black" points="645.5,-397 653.5,-400.6 649.5,-397 653.5,-397 653.5,-397 653.5,-397 649.5,-397 653.5,-393.4 645.5,-397 645.5,-397"/>
<ellipse fill="none" stroke="black" cx="642.3" cy="-397" rx="3.2" ry="3.2"/>
</g>
<!-- isostratdata -->
<g id="node14" class="node">
<title>isostratdata</title>
<g id="a_node14"><a xlink:href="../../tables/isostratdata.html" xlink:title="isostratdata" target="_top">
<polygon fill="#ffffff" stroke="transparent" points="653,-291 653,-349 760,-349 760,-291 653,-291"/>
<polygon fill="#f5f5f5" stroke="transparent" points="653.5,-327 653.5,-349 760.5,-349 760.5,-327 653.5,-327"/>
<polygon fill="none" stroke="black" points="653.5,-327 653.5,-349 760.5,-349 760.5,-327 653.5,-327"/>
<text text-anchor="start" x="658.5" y="-336.2" font-family="Helvetica,sans-Serif" font-weight="bold" font-size="11.00">isostratdata</text>
<text text-anchor="start" x="725.5" y="-335.2" font-family="Helvetica,sans-Serif" font-size="11.00">[table]</text>
<polygon fill="none" stroke="black" points="653.5,-309 653.5,-327 760.5,-327 760.5,-309 653.5,-309"/>
<text text-anchor="start" x="656.5" y="-315.2" font-family="Helvetica,sans-Serif" font-size="11.00">...</text>
<polygon fill="#ffffff" stroke="transparent" points="653.5,-291 653.5,-309 685.5,-309 685.5,-291 653.5,-291"/>
<polygon fill="none" stroke="black" points="653.5,-291 653.5,-309 685.5,-309 685.5,-291 653.5,-291"/>
<text text-anchor="start" x="656.5" y="-297.2" font-family="Helvetica,sans-Serif" font-size="11.00">&lt; 3</text>
<polygon fill="#ffffff" stroke="transparent" points="685.5,-291 685.5,-309 741.5,-309 741.5,-291 685.5,-291"/>
<polygon fill="none" stroke="black" points="685.5,-291 685.5,-309 741.5,-309 741.5,-291 685.5,-291"/>
<text text-anchor="start" x="693.5" y="-297.2" font-family="Helvetica,sans-Serif" font-size="11.00">634 rows</text>
<polygon fill="#ffffff" stroke="transparent" points="741.5,-291 741.5,-309 760.5,-309 760.5,-291 741.5,-291"/>
<polygon fill="none" stroke="black" points="741.5,-291 741.5,-309 760.5,-309 760.5,-291 741.5,-291"/>
<text text-anchor="start" x="750.5" y="-297.2" font-family="Helvetica,sans-Serif" font-size="11.00"> &#160;</text>
</a>
</g>
</g>
<!-- isostratdata&#45;&gt;data -->
<g id="edge13" class="edge">
<title>isostratdata:w&#45;&gt;data:e</title>
<path fill="none" stroke="black" d="M641.96,-318.72C616.03,-322.56 610.2,-341.15 585,-360 565.21,-374.8 568.21,-397 543.5,-397"/>
<polygon fill="black" stroke="black" points="651.43,-314.06 651.97,-322.05 650.38,-322.15 649.83,-314.17 651.43,-314.06"/>
<polyline fill="none" stroke="black" points="652.5,-318 648.51,-318.27 "/>
<ellipse fill="none" stroke="black" cx="645.32" cy="-318.49" rx="3.2" ry="3.2"/>
</g>
<!-- summarydatataphonomy -->
<g id="node15" class="node">
<title>summarydatataphonomy</title>
<g id="a_node15"><a xlink:href="../../tables/summarydatataphonomy.html" xlink:title="summarydatataphonomy" target="_top">
<polygon fill="#ffffff" stroke="transparent" points="619,-212 619,-270 794,-270 794,-212 619,-212"/>
<polygon fill="#f5f5f5" stroke="transparent" points="619.5,-248 619.5,-270 794.5,-270 794.5,-248 619.5,-248"/>
<polygon fill="none" stroke="black" points="619.5,-248 619.5,-270 794.5,-270 794.5,-248 619.5,-248"/>
<text text-anchor="start" x="624.5" y="-257.2" font-family="Helvetica,sans-Serif" font-weight="bold" font-size="11.00">summarydatataphonomy</text>
<text text-anchor="start" x="759.5" y="-256.2" font-family="Helvetica,sans-Serif" font-size="11.00">[table]</text>
<polygon fill="none" stroke="black" points="619.5,-230 619.5,-248 794.5,-248 794.5,-230 619.5,-230"/>
<text text-anchor="start" x="622.5" y="-236.2" font-family="Helvetica,sans-Serif" font-size="11.00">...</text>
<polygon fill="#ffffff" stroke="transparent" points="619.5,-212 619.5,-230 678.5,-230 678.5,-212 619.5,-212"/>
<polygon fill="none" stroke="black" points="619.5,-212 619.5,-230 678.5,-230 678.5,-212 619.5,-212"/>
<text text-anchor="start" x="622.5" y="-218.2" font-family="Helvetica,sans-Serif" font-size="11.00">&lt; 2</text>
<polygon fill="#ffffff" stroke="transparent" points="678.5,-212 678.5,-230 762.5,-230 762.5,-212 678.5,-212"/>
<polygon fill="none" stroke="black" points="678.5,-212 678.5,-230 762.5,-230 762.5,-212 678.5,-212"/>
<text text-anchor="start" x="699.5" y="-218.2" font-family="Helvetica,sans-Serif" font-size="11.00">43,202 rows</text>
<polygon fill="#ffffff" stroke="transparent" points="762.5,-212 762.5,-230 794.5,-230 794.5,-212 762.5,-212"/>
<polygon fill="none" stroke="black" points="762.5,-212 762.5,-230 794.5,-230 794.5,-212 762.5,-212"/>
<text text-anchor="start" x="784.5" y="-218.2" font-family="Helvetica,sans-Serif" font-size="11.00"> &#160;</text>
</a>
</g>
</g>
<!-- summarydatataphonomy&#45;&gt;data -->
<g id="edge15" class="edge">
<title>summarydatataphonomy:w&#45;&gt;data:e</title>
<path fill="none" stroke="black" d="M604.01,-241.36C551.57,-261.01 615.61,-397 543.5,-397"/>
<polygon fill="black" stroke="black" points="610.6,-240.28 619.08,-242.55 614.55,-239.64 618.5,-239 618.5,-239 618.5,-239 614.55,-239.64 617.92,-235.45 610.6,-240.28 610.6,-240.28"/>
<ellipse fill="none" stroke="black" cx="607.45" cy="-240.8" rx="3.2" ry="3.2"/>
</g>
<!-- unitsdatasettypes -->
<g id="node16" class="node">
<title>unitsdatasettypes</title>
<g id="a_node16"><a xlink:href="../../tables/unitsdatasettypes.html" xlink:title="unitsdatasettypes" target="_top">
<polygon fill="#ffffff" stroke="transparent" points="199.5,-163 199.5,-221 337.5,-221 337.5,-163 199.5,-163"/>
<polygon fill="#f5f5f5" stroke="transparent" points="199.5,-199 199.5,-221 337.5,-221 337.5,-199 199.5,-199"/>
<polygon fill="none" stroke="black" points="199.5,-199 199.5,-221 337.5,-221 337.5,-199 199.5,-199"/>
<text text-anchor="start" x="204.5" y="-208.2" font-family="Helvetica,sans-Serif" font-weight="bold" font-size="11.00">unitsdatasettypes</text>
<text text-anchor="start" x="302.5" y="-207.2" font-family="Helvetica,sans-Serif" font-size="11.00">[table]</text>
<polygon fill="none" stroke="black" points="199.5,-181 199.5,-199 337.5,-199 337.5,-181 199.5,-181"/>
<text text-anchor="start" x="202.5" y="-187.2" font-family="Helvetica,sans-Serif" font-size="11.00">...</text>
<polygon fill="#ffffff" stroke="transparent" points="199.5,-163 199.5,-181 247.5,-181 247.5,-163 199.5,-163"/>
<polygon fill="none" stroke="black" points="199.5,-163 199.5,-181 247.5,-181 247.5,-163 199.5,-163"/>
<text text-anchor="start" x="202.5" y="-169.2" font-family="Helvetica,sans-Serif" font-size="11.00">&lt; 2</text>
<polygon fill="#ffffff" stroke="transparent" points="247.5,-163 247.5,-181 311.5,-181 311.5,-163 247.5,-163"/>
<polygon fill="none" stroke="black" points="247.5,-163 247.5,-181 311.5,-181 311.5,-163 247.5,-163"/>
<text text-anchor="start" x="263.5" y="-169.2" font-family="Helvetica,sans-Serif" font-size="11.00">672 rows</text>
<polygon fill="#ffffff" stroke="transparent" points="311.5,-163 311.5,-181 337.5,-181 337.5,-163 311.5,-163"/>
<polygon fill="none" stroke="black" points="311.5,-163 311.5,-181 337.5,-181 337.5,-163 311.5,-163"/>
<text text-anchor="start" x="327.5" y="-169.2" font-family="Helvetica,sans-Serif" font-size="11.00"> &#160;</text>
</a>
</g>
</g>
<!-- unitsdatasettypes&#45;&gt;variableunits -->
<g id="edge16" class="edge">
<title>unitsdatasettypes:w&#45;&gt;variableunits:e</title>
<path fill="none" stroke="black" d="M184.21,-193.06C149.91,-210.44 179.61,-296 129,-296"/>
<polygon fill="black" stroke="black" points="190.68,-191.67 199.25,-193.52 194.59,-190.84 198.5,-190 198.5,-190 198.5,-190 194.59,-190.84 197.75,-186.48 190.68,-191.67 190.68,-191.67"/>
<ellipse fill="none" stroke="black" cx="187.55" cy="-192.34" rx="3.2" ry="3.2"/>
</g>
</g>
</svg>
