<?xml version="1.0" encoding="UTF-8" standalone="no"?>
<!DOCTYPE svg PUBLIC "-//W3C//DTD SVG 1.1//EN"
 "http://www.w3.org/Graphics/SVG/1.1/DTD/svg11.dtd">
<!-- Generated by graphviz version 2.43.0 (0)
 -->
<!-- Title: twoDegreesRelationshipsDiagram Pages: 1 -->
<svg width="438pt" height="734pt"
 viewBox="0.00 0.00 438.00 734.00" xmlns="http://www.w3.org/2000/svg" xmlns:xlink="http://www.w3.org/1999/xlink">
<g id="graph0" class="graph" transform="scale(1 1) rotate(0) translate(4 730)">
<title>twoDegreesRelationshipsDiagram</title>
<polygon fill="#ffffff" stroke="transparent" points="-4,4 -4,-730 434,-730 434,4 -4,4"/>
<text text-anchor="middle" x="71.5" y="-7.2" font-family="Helvetica,sans-Serif" font-size="11.00">Generated by SchemaSpy</text>
<!-- contextsdatasettypes -->
<g id="node1" class="node">
<title>contextsdatasettypes</title>
<g id="a_node1"><a xlink:href="../../tables/contextsdatasettypes.html" xlink:title="contextsdatasettypes" target="_top">
<polygon fill="#ffffff" stroke="transparent" points="224.5,-664 224.5,-722 380.5,-722 380.5,-664 224.5,-664"/>
<polygon fill="#f5f5f5" stroke="transparent" points="224.5,-700 224.5,-722 380.5,-722 380.5,-700 224.5,-700"/>
<polygon fill="none" stroke="black" points="224.5,-700 224.5,-722 380.5,-722 380.5,-700 224.5,-700"/>
<text text-anchor="start" x="229.5" y="-709.2" font-family="Helvetica,sans-Serif" font-weight="bold" font-size="11.00">contextsdatasettypes</text>
<text text-anchor="start" x="345.5" y="-708.2" font-family="Helvetica,sans-Serif" font-size="11.00">[table]</text>
<polygon fill="none" stroke="black" points="224.5,-682 224.5,-700 380.5,-700 380.5,-682 224.5,-682"/>
<text text-anchor="start" x="227.5" y="-688.2" font-family="Helvetica,sans-Serif" font-size="11.00">...</text>
<polygon fill="#ffffff" stroke="transparent" points="224.5,-664 224.5,-682 281.5,-682 281.5,-664 224.5,-664"/>
<polygon fill="none" stroke="black" points="224.5,-664 224.5,-682 281.5,-682 281.5,-664 224.5,-664"/>
<text text-anchor="start" x="227.5" y="-670.2" font-family="Helvetica,sans-Serif" font-size="11.00">&lt; 2</text>
<polygon fill="#ffffff" stroke="transparent" points="281.5,-664 281.5,-682 349.5,-682 349.5,-664 281.5,-664"/>
<polygon fill="none" stroke="black" points="281.5,-664 281.5,-682 349.5,-682 349.5,-664 281.5,-664"/>
<text text-anchor="start" x="301.5" y="-670.2" font-family="Helvetica,sans-Serif" font-size="11.00">205 rows</text>
<polygon fill="#ffffff" stroke="transparent" points="349.5,-664 349.5,-682 380.5,-682 380.5,-664 349.5,-664"/>
<polygon fill="none" stroke="black" points="349.5,-664 349.5,-682 380.5,-682 380.5,-664 349.5,-664"/>
<text text-anchor="start" x="370.5" y="-670.2" font-family="Helvetica,sans-Serif" font-size="11.00"> &#160;</text>
</a>
</g>
</g>
<!-- datasettypes -->
<g id="node2" class="node">
<title>datasettypes</title>
<g id="a_node2"><a xlink:href="../../tables/datasettypes.html" xlink:title="datasettypes" target="_top">
<polygon fill="#ffffff" stroke="transparent" points="11,-446 11,-526 131,-526 131,-446 11,-446"/>
<polygon fill="#f5f5f5" stroke="transparent" points="11,-504 11,-526 131,-526 131,-504 11,-504"/>
<polygon fill="none" stroke="black" points="11,-504 11,-526 131,-526 131,-504 11,-504"/>
<text text-anchor="start" x="16" y="-513.2" font-family="Helvetica,sans-Serif" font-weight="bold" font-size="11.00">datasettypes</text>
<text text-anchor="start" x="96" y="-512.2" font-family="Helvetica,sans-Serif" font-size="11.00">[table]</text>
<polygon fill="none" stroke="black" points="11,-482 11,-504 131,-504 131,-482 11,-482"/>
<image xlink:href="../../images/primaryKeys.png" width="11px" height="12px" preserveAspectRatio="xMinYMin meet" x="16" y="-499"/>
<text text-anchor="start" x="31" y="-490.2" font-family="Helvetica,sans-Serif" font-size="11.00">datasettypeid</text>
<polygon fill="none" stroke="black" points="11,-464 11,-482 131,-482 131,-464 11,-464"/>
<text text-anchor="start" x="14" y="-470.2" font-family="Helvetica,sans-Serif" font-size="11.00">...</text>
<polygon fill="#ffffff" stroke="transparent" points="11,-446 11,-464 44,-464 44,-446 11,-446"/>
<polygon fill="none" stroke="black" points="11,-446 11,-464 44,-464 44,-446 11,-446"/>
<text text-anchor="start" x="14" y="-452.2" font-family="Helvetica,sans-Serif" font-size="11.00"> &#160;</text>
<polygon fill="#ffffff" stroke="transparent" points="44,-446 44,-464 99,-464 99,-446 44,-446"/>
<polygon fill="none" stroke="black" points="44,-446 44,-464 99,-464 99,-446 44,-446"/>
<text text-anchor="start" x="57" y="-452.2" font-family="Helvetica,sans-Serif" font-size="11.00">42 rows</text>
<polygon fill="#ffffff" stroke="transparent" points="99,-446 99,-464 131,-464 131,-446 99,-446"/>
<polygon fill="none" stroke="black" points="99,-446 99,-464 131,-464 131,-446 99,-446"/>
<text text-anchor="start" x="112" y="-452.2" font-family="Helvetica,sans-Serif" font-size="11.00">6 &gt;</text>
</a>
</g>
</g>
<!-- contextsdatasettypes&#45;&gt;datasettypes -->
<g id="edge1" class="edge">
<title>contextsdatasettypes:w&#45;&gt;datasettypes:e</title>
<path fill="none" stroke="black" d="M208.84,-689.13C193.34,-684.54 186.9,-671.78 175,-654 133.79,-592.46 206.06,-493 132,-493"/>
<polygon fill="black" stroke="black" points="215.56,-689.99 223.04,-694.57 219.53,-690.49 223.5,-691 223.5,-691 223.5,-691 219.53,-690.49 223.96,-687.43 215.56,-689.99 215.56,-689.99"/>
<ellipse fill="none" stroke="black" cx="212.39" cy="-689.58" rx="3.2" ry="3.2"/>
</g>
<!-- datasets -->
<g id="node3" class="node">
<title>datasets</title>
<g id="a_node3"><a xlink:href="../../tables/datasets.html" xlink:title="datasets" target="_top">
<polygon fill="#ffffff" stroke="transparent" points="244.5,-585 244.5,-643 360.5,-643 360.5,-585 244.5,-585"/>
<polygon fill="#f5f5f5" stroke="transparent" points="244.5,-621 244.5,-643 360.5,-643 360.5,-621 244.5,-621"/>
<polygon fill="none" stroke="black" points="244.5,-621 244.5,-643 360.5,-643 360.5,-621 244.5,-621"/>
<text text-anchor="start" x="249.5" y="-630.2" font-family="Helvetica,sans-Serif" font-weight="bold" font-size="11.00">datasets</text>
<text text-anchor="start" x="325.5" y="-629.2" font-family="Helvetica,sans-Serif" font-size="11.00">[table]</text>
<polygon fill="none" stroke="black" points="244.5,-603 244.5,-621 360.5,-621 360.5,-603 244.5,-603"/>
<text text-anchor="start" x="247.5" y="-609.2" font-family="Helvetica,sans-Serif" font-size="11.00">...</text>
<polygon fill="#ffffff" stroke="transparent" points="244.5,-585 244.5,-603 266.5,-603 266.5,-585 244.5,-585"/>
<polygon fill="none" stroke="black" points="244.5,-585 244.5,-603 266.5,-603 266.5,-585 244.5,-585"/>
<text text-anchor="start" x="247.5" y="-591.2" font-family="Helvetica,sans-Serif" font-size="11.00">&lt; 3</text>
<polygon fill="#ffffff" stroke="transparent" points="266.5,-585 266.5,-603 332.5,-603 332.5,-585 266.5,-585"/>
<polygon fill="none" stroke="black" points="266.5,-585 266.5,-603 332.5,-603 332.5,-585 266.5,-585"/>
<text text-anchor="start" x="269.5" y="-591.2" font-family="Helvetica,sans-Serif" font-size="11.00">49,780 rows</text>
<polygon fill="#ffffff" stroke="transparent" points="332.5,-585 332.5,-603 360.5,-603 360.5,-585 332.5,-585"/>
<polygon fill="none" stroke="black" points="332.5,-585 332.5,-603 360.5,-603 360.5,-585 332.5,-585"/>
<text text-anchor="start" x="335.5" y="-591.2" font-family="Helvetica,sans-Serif" font-size="11.00">13 &gt;</text>
</a>
</g>
</g>
<!-- datasets&#45;&gt;datasettypes -->
<g id="edge2" class="edge">
<title>datasets:w&#45;&gt;datasettypes:e</title>
<path fill="none" stroke="black" d="M228.96,-611.09C205.54,-607.83 195.52,-595.77 175,-575 146.08,-545.72 173.15,-493 132,-493"/>
<polygon fill="black" stroke="black" points="235.52,-611.5 243.28,-615.59 239.51,-611.75 243.5,-612 243.5,-612 243.5,-612 239.51,-611.75 243.72,-608.41 235.52,-611.5 235.52,-611.5"/>
<ellipse fill="none" stroke="black" cx="232.32" cy="-611.3" rx="3.2" ry="3.2"/>
</g>
<!-- datasettaxagrouptypes -->
<g id="node4" class="node">
<title>datasettaxagrouptypes</title>
<g id="a_node4"><a xlink:href="../../tables/datasettaxagrouptypes.html" xlink:title="datasettaxagrouptypes" target="_top">
<polygon fill="#ffffff" stroke="transparent" points="183,-274 183,-406 422,-406 422,-274 183,-274"/>
<polygon fill="#f5f5f5" stroke="transparent" points="185.5,-382 185.5,-404 420.5,-404 420.5,-382 185.5,-382"/>
<polygon fill="none" stroke="black" points="185.5,-382 185.5,-404 420.5,-404 420.5,-382 185.5,-382"/>
<text text-anchor="start" x="190.5" y="-391.2" font-family="Helvetica,sans-Serif" font-weight="bold" font-size="11.00">datasettaxagrouptypes</text>
<text text-anchor="start" x="385.5" y="-390.2" font-family="Helvetica,sans-Serif" font-size="11.00">[table]</text>
<polygon fill="none" stroke="black" points="185.5,-360 185.5,-382 346.5,-382 346.5,-360 185.5,-360"/>
<image xlink:href="../../images/primaryKeys.png" width="11px" height="12px" preserveAspectRatio="xMinYMin meet" x="190.5" y="-377"/>
<text text-anchor="start" x="205.5" y="-368.2" font-family="Helvetica,sans-Serif" font-size="11.00">datasettypeid</text>
<polygon fill="none" stroke="black" points="346.5,-360 346.5,-382 420.5,-382 420.5,-360 346.5,-360"/>
<text text-anchor="start" x="349.5" y="-368.2" font-family="Helvetica,sans-Serif" font-size="11.00">int4[10]</text>
<polygon fill="none" stroke="black" points="185.5,-338 185.5,-360 346.5,-360 346.5,-338 185.5,-338"/>
<image xlink:href="../../images/primaryKeys.png" width="11px" height="12px" preserveAspectRatio="xMinYMin meet" x="190.5" y="-355"/>
<text text-anchor="start" x="205.5" y="-346.2" font-family="Helvetica,sans-Serif" font-size="11.00">taxagroupid</text>
<polygon fill="none" stroke="black" points="346.5,-338 346.5,-360 420.5,-360 420.5,-338 346.5,-338"/>
<text text-anchor="start" x="349.5" y="-346.2" font-family="Helvetica,sans-Serif" font-size="11.00">varchar[3]</text>
<polygon fill="none" stroke="black" points="185.5,-316 185.5,-338 346.5,-338 346.5,-316 185.5,-316"/>
<text text-anchor="start" x="205.5" y="-324.2" font-family="Helvetica,sans-Serif" font-size="11.00">recdatecreated</text>
<polygon fill="none" stroke="black" points="346.5,-316 346.5,-338 420.5,-338 420.5,-316 346.5,-316"/>
<text text-anchor="start" x="349.5" y="-324.2" font-family="Helvetica,sans-Serif" font-size="11.00">timestamp[22]</text>
<polygon fill="none" stroke="black" points="185.5,-294 185.5,-316 346.5,-316 346.5,-294 185.5,-294"/>
<text text-anchor="start" x="205.5" y="-302.2" font-family="Helvetica,sans-Serif" font-size="11.00">recdatemodified</text>
<polygon fill="none" stroke="black" points="346.5,-294 346.5,-316 420.5,-316 420.5,-294 346.5,-294"/>
<text text-anchor="start" x="349.5" y="-302.2" font-family="Helvetica,sans-Serif" font-size="11.00">timestamp[22]</text>
<polygon fill="#ffffff" stroke="transparent" points="185.5,-276 185.5,-294 251.5,-294 251.5,-276 185.5,-276"/>
<polygon fill="none" stroke="black" points="185.5,-276 185.5,-294 251.5,-294 251.5,-276 185.5,-276"/>
<text text-anchor="start" x="188.5" y="-282.2" font-family="Helvetica,sans-Serif" font-size="11.00">&lt; 2</text>
<polygon fill="#ffffff" stroke="transparent" points="251.5,-276 251.5,-294 346.5,-294 346.5,-276 251.5,-276"/>
<polygon fill="none" stroke="black" points="251.5,-276 251.5,-294 346.5,-294 346.5,-276 251.5,-276"/>
<text text-anchor="start" x="298.5" y="-282.2" font-family="Helvetica,sans-Serif" font-size="11.00">207 rows</text>
<polygon fill="#ffffff" stroke="transparent" points="346.5,-276 346.5,-294 420.5,-294 420.5,-276 346.5,-276"/>
<polygon fill="none" stroke="black" points="346.5,-276 346.5,-294 420.5,-294 420.5,-276 346.5,-276"/>
<text text-anchor="start" x="401.5" y="-282.2" font-family="Helvetica,sans-Serif" font-size="11.00">0 &gt;</text>
<polygon fill="none" stroke="black" stroke-width="2" points="184,-275 184,-405 421,-405 421,-275 184,-275"/>
</a>
</g>
</g>
<!-- datasettaxagrouptypes&#45;&gt;datasettypes -->
<g id="edge3" class="edge">
<title>datasettaxagrouptypes:w&#45;&gt;datasettypes:e</title>
<path fill="none" stroke="black" d="M170.11,-374.52C137.5,-394.52 185.03,-493 132,-493"/>
<polygon fill="black" stroke="black" points="176.73,-372.9 185.36,-374.5 180.61,-371.95 184.5,-371 184.5,-371 184.5,-371 180.61,-371.95 183.64,-367.5 176.73,-372.9 176.73,-372.9"/>
<ellipse fill="none" stroke="black" cx="173.62" cy="-373.66" rx="3.2" ry="3.2"/>
</g>
<!-- taxagrouptypes -->
<g id="node5" class="node">
<title>taxagrouptypes</title>
<g id="a_node5"><a xlink:href="../../tables/taxagrouptypes.html" xlink:title="taxagrouptypes" target="_top">
<polygon fill="#ffffff" stroke="transparent" points="8,-135 8,-215 134,-215 134,-135 8,-135"/>
<polygon fill="#f5f5f5" stroke="transparent" points="8,-193 8,-215 134,-215 134,-193 8,-193"/>
<polygon fill="none" stroke="black" points="8,-193 8,-215 134,-215 134,-193 8,-193"/>
<text text-anchor="start" x="13" y="-202.2" font-family="Helvetica,sans-Serif" font-weight="bold" font-size="11.00">taxagrouptypes</text>
<text text-anchor="start" x="99" y="-201.2" font-family="Helvetica,sans-Serif" font-size="11.00">[table]</text>
<polygon fill="none" stroke="black" points="8,-171 8,-193 134,-193 134,-171 8,-171"/>
<image xlink:href="../../images/primaryKeys.png" width="11px" height="12px" preserveAspectRatio="xMinYMin meet" x="13" y="-188"/>
<text text-anchor="start" x="31" y="-179.2" font-family="Helvetica,sans-Serif" font-size="11.00">taxagroupid</text>
<polygon fill="none" stroke="black" points="8,-153 8,-171 134,-171 134,-153 8,-153"/>
<text text-anchor="start" x="11" y="-159.2" font-family="Helvetica,sans-Serif" font-size="11.00">...</text>
<polygon fill="#ffffff" stroke="transparent" points="8,-135 8,-153 44,-153 44,-135 8,-135"/>
<polygon fill="none" stroke="black" points="8,-135 8,-153 44,-153 44,-135 8,-135"/>
<text text-anchor="start" x="11" y="-141.2" font-family="Helvetica,sans-Serif" font-size="11.00"> &#160;</text>
<polygon fill="#ffffff" stroke="transparent" points="44,-135 44,-153 100,-153 100,-135 44,-135"/>
<polygon fill="none" stroke="black" points="44,-135 44,-153 100,-153 100,-135 44,-135"/>
<text text-anchor="start" x="58" y="-141.2" font-family="Helvetica,sans-Serif" font-size="11.00">55 rows</text>
<polygon fill="#ffffff" stroke="transparent" points="100,-135 100,-153 134,-153 134,-135 100,-135"/>
<polygon fill="none" stroke="black" points="100,-135 100,-153 134,-153 134,-135 100,-135"/>
<text text-anchor="start" x="115" y="-141.2" font-family="Helvetica,sans-Serif" font-size="11.00">4 &gt;</text>
</a>
</g>
</g>
<!-- datasettaxagrouptypes&#45;&gt;taxagrouptypes -->
<g id="edge4" class="edge">
<title>datasettaxagrouptypes:w&#45;&gt;taxagrouptypes:e</title>
<path fill="none" stroke="black" d="M170.13,-346.38C121.71,-325.13 206.67,-182 135,-182"/>
<polygon fill="black" stroke="black" points="176.63,-347.56 183.85,-352.54 180.57,-348.28 184.5,-349 184.5,-349 184.5,-349 180.57,-348.28 185.15,-345.46 176.63,-347.56 176.63,-347.56"/>
<ellipse fill="none" stroke="black" cx="173.48" cy="-346.99" rx="3.2" ry="3.2"/>
</g>
<!-- elementdatasettaxagroups -->
<g id="node6" class="node">
<title>elementdatasettaxagroups</title>
<g id="a_node6"><a xlink:href="../../tables/elementdatasettaxagroups.html" xlink:title="elementdatasettaxagroups" target="_top">
<polygon fill="#ffffff" stroke="transparent" points="211,-195 211,-253 394,-253 394,-195 211,-195"/>
<polygon fill="#f5f5f5" stroke="transparent" points="211.5,-231 211.5,-253 394.5,-253 394.5,-231 211.5,-231"/>
<polygon fill="none" stroke="black" points="211.5,-231 211.5,-253 394.5,-253 394.5,-231 211.5,-231"/>
<text text-anchor="start" x="216.5" y="-240.2" font-family="Helvetica,sans-Serif" font-weight="bold" font-size="11.00">elementdatasettaxagroups</text>
<text text-anchor="start" x="359.5" y="-239.2" font-family="Helvetica,sans-Serif" font-size="11.00">[table]</text>
<polygon fill="none" stroke="black" points="211.5,-213 211.5,-231 394.5,-231 394.5,-213 211.5,-213"/>
<text text-anchor="start" x="214.5" y="-219.2" font-family="Helvetica,sans-Serif" font-size="11.00">...</text>
<polygon fill="#ffffff" stroke="transparent" points="211.5,-195 211.5,-213 277.5,-213 277.5,-195 211.5,-195"/>
<polygon fill="none" stroke="black" points="211.5,-195 211.5,-213 277.5,-213 277.5,-195 211.5,-195"/>
<text text-anchor="start" x="214.5" y="-201.2" font-family="Helvetica,sans-Serif" font-size="11.00">&lt; 2</text>
<polygon fill="#ffffff" stroke="transparent" points="277.5,-195 277.5,-213 359.5,-213 359.5,-195 277.5,-195"/>
<polygon fill="none" stroke="black" points="277.5,-195 277.5,-213 359.5,-213 359.5,-195 277.5,-195"/>
<text text-anchor="start" x="302.5" y="-201.2" font-family="Helvetica,sans-Serif" font-size="11.00">1,474 rows</text>
<polygon fill="#ffffff" stroke="transparent" points="359.5,-195 359.5,-213 394.5,-213 394.5,-195 359.5,-195"/>
<polygon fill="none" stroke="black" points="359.5,-195 359.5,-213 394.5,-213 394.5,-195 359.5,-195"/>
<text text-anchor="start" x="384.5" y="-201.2" font-family="Helvetica,sans-Serif" font-size="11.00"> &#160;</text>
</a>
</g>
</g>
<!-- elementdatasettaxagroups&#45;&gt;datasettypes -->
<g id="edge5" class="edge">
<title>elementdatasettaxagroups:w&#45;&gt;datasettypes:e</title>
<path fill="none" stroke="black" d="M196.26,-225.35C185.34,-231.8 182.85,-246.72 175,-263 152.42,-309.84 184,-493 132,-493"/>
<polygon fill="black" stroke="black" points="202.71,-223.83 211.32,-225.5 206.61,-222.92 210.5,-222 210.5,-222 210.5,-222 206.61,-222.92 209.68,-218.5 202.71,-223.83 202.71,-223.83"/>
<ellipse fill="none" stroke="black" cx="199.6" cy="-224.57" rx="3.2" ry="3.2"/>
</g>
<!-- elementdatasettaxagroups&#45;&gt;taxagrouptypes -->
<g id="edge6" class="edge">
<title>elementdatasettaxagroups:w&#45;&gt;taxagrouptypes:e</title>
<path fill="none" stroke="black" d="M196.21,-219.73C171.85,-211.27 167.49,-182 135,-182"/>
<polygon fill="black" stroke="black" points="202.6,-220.75 209.94,-225.56 206.55,-221.37 210.5,-222 210.5,-222 210.5,-222 206.55,-221.37 211.06,-218.44 202.6,-220.75 202.6,-220.75"/>
<ellipse fill="none" stroke="black" cx="199.44" cy="-220.25" rx="3.2" ry="3.2"/>
</g>
<!-- elementtaxagroups -->
<g id="node7" class="node">
<title>elementtaxagroups</title>
<g id="a_node7"><a xlink:href="../../tables/elementtaxagroups.html" xlink:title="elementtaxagroups" target="_top">
<polygon fill="#ffffff" stroke="transparent" points="230,-116 230,-174 375,-174 375,-116 230,-116"/>
<polygon fill="#f5f5f5" stroke="transparent" points="230.5,-152 230.5,-174 375.5,-174 375.5,-152 230.5,-152"/>
<polygon fill="none" stroke="black" points="230.5,-152 230.5,-174 375.5,-174 375.5,-152 230.5,-152"/>
<text text-anchor="start" x="235.5" y="-161.2" font-family="Helvetica,sans-Serif" font-weight="bold" font-size="11.00">elementtaxagroups</text>
<text text-anchor="start" x="340.5" y="-160.2" font-family="Helvetica,sans-Serif" font-size="11.00">[table]</text>
<polygon fill="none" stroke="black" points="230.5,-134 230.5,-152 375.5,-152 375.5,-134 230.5,-134"/>
<text text-anchor="start" x="233.5" y="-140.2" font-family="Helvetica,sans-Serif" font-size="11.00">...</text>
<polygon fill="#ffffff" stroke="transparent" points="230.5,-116 230.5,-134 272.5,-134 272.5,-116 230.5,-116"/>
<polygon fill="none" stroke="black" points="230.5,-116 230.5,-134 272.5,-134 272.5,-116 230.5,-116"/>
<text text-anchor="start" x="233.5" y="-122.2" font-family="Helvetica,sans-Serif" font-size="11.00">&lt; 2</text>
<polygon fill="#ffffff" stroke="transparent" points="272.5,-116 272.5,-134 342.5,-134 342.5,-116 272.5,-116"/>
<polygon fill="none" stroke="black" points="272.5,-116 272.5,-134 342.5,-134 342.5,-116 272.5,-116"/>
<text text-anchor="start" x="285.5" y="-122.2" font-family="Helvetica,sans-Serif" font-size="11.00">1,024 rows</text>
<polygon fill="#ffffff" stroke="transparent" points="342.5,-116 342.5,-134 375.5,-134 375.5,-116 342.5,-116"/>
<polygon fill="none" stroke="black" points="342.5,-116 342.5,-134 375.5,-134 375.5,-116 342.5,-116"/>
<text text-anchor="start" x="356.5" y="-122.2" font-family="Helvetica,sans-Serif" font-size="11.00">3 &gt;</text>
</a>
</g>
</g>
<!-- elementtaxagroups&#45;&gt;taxagrouptypes -->
<g id="edge7" class="edge">
<title>elementtaxagroups:w&#45;&gt;taxagrouptypes:e</title>
<path fill="none" stroke="black" d="M215.11,-144.48C182.64,-151.61 175.11,-182 135,-182"/>
<polygon fill="black" stroke="black" points="221.54,-143.82 229.87,-146.58 225.52,-143.41 229.5,-143 229.5,-143 229.5,-143 225.52,-143.41 229.13,-139.42 221.54,-143.82 221.54,-143.82"/>
<ellipse fill="none" stroke="black" cx="218.36" cy="-144.15" rx="3.2" ry="3.2"/>
</g>
<!-- taphonomicsystemsdatasettypes -->
<g id="node8" class="node">
<title>taphonomicsystemsdatasettypes</title>
<g id="a_node8"><a xlink:href="../../tables/taphonomicsystemsdatasettypes.html" xlink:title="taphonomicsystemsdatasettypes" target="_top">
<polygon fill="#ffffff" stroke="transparent" points="194,-506 194,-564 411,-564 411,-506 194,-506"/>
<polygon fill="#f5f5f5" stroke="transparent" points="194.5,-542 194.5,-564 411.5,-564 411.5,-542 194.5,-542"/>
<polygon fill="none" stroke="black" points="194.5,-542 194.5,-564 411.5,-564 411.5,-542 194.5,-542"/>
<text text-anchor="start" x="199.5" y="-551.2" font-family="Helvetica,sans-Serif" font-weight="bold" font-size="11.00">taphonomicsystemsdatasettypes</text>
<text text-anchor="start" x="376.5" y="-550.2" font-family="Helvetica,sans-Serif" font-size="11.00">[table]</text>
<polygon fill="none" stroke="black" points="194.5,-524 194.5,-542 411.5,-542 411.5,-524 194.5,-524"/>
<text text-anchor="start" x="197.5" y="-530.2" font-family="Helvetica,sans-Serif" font-size="11.00">...</text>
<polygon fill="#ffffff" stroke="transparent" points="194.5,-506 194.5,-524 284.5,-524 284.5,-506 194.5,-506"/>
<polygon fill="none" stroke="black" points="194.5,-506 194.5,-524 284.5,-524 284.5,-506 194.5,-506"/>
<text text-anchor="start" x="197.5" y="-512.2" font-family="Helvetica,sans-Serif" font-size="11.00">&lt; 2</text>
<polygon fill="#ffffff" stroke="transparent" points="284.5,-506 284.5,-524 363.5,-524 363.5,-506 284.5,-506"/>
<polygon fill="none" stroke="black" points="284.5,-506 284.5,-524 363.5,-524 363.5,-506 284.5,-506"/>
<text text-anchor="start" x="321.5" y="-512.2" font-family="Helvetica,sans-Serif" font-size="11.00">11 rows</text>
<polygon fill="#ffffff" stroke="transparent" points="363.5,-506 363.5,-524 411.5,-524 411.5,-506 363.5,-506"/>
<polygon fill="none" stroke="black" points="363.5,-506 363.5,-524 411.5,-524 411.5,-506 363.5,-506"/>
<text text-anchor="start" x="401.5" y="-512.2" font-family="Helvetica,sans-Serif" font-size="11.00"> &#160;</text>
</a>
</g>
</g>
<!-- taphonomicsystemsdatasettypes&#45;&gt;datasettypes -->
<g id="edge8" class="edge">
<title>taphonomicsystemsdatasettypes:w&#45;&gt;datasettypes:e</title>
<path fill="none" stroke="black" d="M179.28,-529.73C161.08,-520.17 158.87,-493 132,-493"/>
<polygon fill="black" stroke="black" points="185.7,-531.21 192.69,-536.51 189.6,-532.1 193.5,-533 193.5,-533 193.5,-533 189.6,-532.1 194.31,-529.49 185.7,-531.21 185.7,-531.21"/>
<ellipse fill="none" stroke="black" cx="182.59" cy="-530.49" rx="3.2" ry="3.2"/>
</g>
<!-- taxa -->
<g id="node9" class="node">
<title>taxa</title>
<g id="a_node9"><a xlink:href="../../tables/taxa.html" xlink:title="taxa" target="_top">
<polygon fill="#ffffff" stroke="transparent" points="244.5,-37 244.5,-95 360.5,-95 360.5,-37 244.5,-37"/>
<polygon fill="#f5f5f5" stroke="transparent" points="244.5,-73 244.5,-95 360.5,-95 360.5,-73 244.5,-73"/>
<polygon fill="none" stroke="black" points="244.5,-73 244.5,-95 360.5,-95 360.5,-73 244.5,-73"/>
<text text-anchor="start" x="249.5" y="-82.2" font-family="Helvetica,sans-Serif" font-weight="bold" font-size="11.00">taxa</text>
<text text-anchor="start" x="325.5" y="-81.2" font-family="Helvetica,sans-Serif" font-size="11.00">[table]</text>
<polygon fill="none" stroke="black" points="244.5,-55 244.5,-73 360.5,-73 360.5,-55 244.5,-55"/>
<text text-anchor="start" x="247.5" y="-61.2" font-family="Helvetica,sans-Serif" font-size="11.00">...</text>
<polygon fill="#ffffff" stroke="transparent" points="244.5,-37 244.5,-55 266.5,-55 266.5,-37 244.5,-37"/>
<polygon fill="none" stroke="black" points="244.5,-37 244.5,-55 266.5,-55 266.5,-37 244.5,-37"/>
<text text-anchor="start" x="247.5" y="-43.2" font-family="Helvetica,sans-Serif" font-size="11.00">&lt; 4</text>
<polygon fill="#ffffff" stroke="transparent" points="266.5,-37 266.5,-55 332.5,-55 332.5,-37 266.5,-37"/>
<polygon fill="none" stroke="black" points="266.5,-37 266.5,-55 332.5,-55 332.5,-37 266.5,-37"/>
<text text-anchor="start" x="269.5" y="-43.2" font-family="Helvetica,sans-Serif" font-size="11.00">47,314 rows</text>
<polygon fill="#ffffff" stroke="transparent" points="332.5,-37 332.5,-55 360.5,-55 360.5,-37 332.5,-37"/>
<polygon fill="none" stroke="black" points="332.5,-37 332.5,-55 360.5,-55 360.5,-37 332.5,-37"/>
<text text-anchor="start" x="335.5" y="-43.2" font-family="Helvetica,sans-Serif" font-size="11.00">17 &gt;</text>
</a>
</g>
</g>
<!-- taxa&#45;&gt;taxagrouptypes -->
<g id="edge9" class="edge">
<title>taxa:w&#45;&gt;taxagrouptypes:e</title>
<path fill="none" stroke="black" d="M229,-65.04C205.01,-68.87 195.62,-83.1 175,-105 148.56,-133.08 173.56,-182 135,-182"/>
<polygon fill="black" stroke="black" points="235.52,-64.57 243.76,-67.59 239.51,-64.29 243.5,-64 243.5,-64 243.5,-64 239.51,-64.29 243.24,-60.41 235.52,-64.57 235.52,-64.57"/>
<ellipse fill="none" stroke="black" cx="232.33" cy="-64.8" rx="3.2" ry="3.2"/>
</g>
<!-- unitsdatasettypes -->
<g id="node10" class="node">
<title>unitsdatasettypes</title>
<g id="a_node10"><a xlink:href="../../tables/unitsdatasettypes.html" xlink:title="unitsdatasettypes" target="_top">
<polygon fill="#ffffff" stroke="transparent" points="233.5,-427 233.5,-485 371.5,-485 371.5,-427 233.5,-427"/>
<polygon fill="#f5f5f5" stroke="transparent" points="233.5,-463 233.5,-485 371.5,-485 371.5,-463 233.5,-463"/>
<polygon fill="none" stroke="black" points="233.5,-463 233.5,-485 371.5,-485 371.5,-463 233.5,-463"/>
<text text-anchor="start" x="238.5" y="-472.2" font-family="Helvetica,sans-Serif" font-weight="bold" font-size="11.00">unitsdatasettypes</text>
<text text-anchor="start" x="336.5" y="-471.2" font-family="Helvetica,sans-Serif" font-size="11.00">[table]</text>
<polygon fill="none" stroke="black" points="233.5,-445 233.5,-463 371.5,-463 371.5,-445 233.5,-445"/>
<text text-anchor="start" x="236.5" y="-451.2" font-family="Helvetica,sans-Serif" font-size="11.00">...</text>
<polygon fill="#ffffff" stroke="transparent" points="233.5,-427 233.5,-445 281.5,-445 281.5,-427 233.5,-427"/>
<polygon fill="none" stroke="black" points="233.5,-427 233.5,-445 281.5,-445 281.5,-427 233.5,-427"/>
<text text-anchor="start" x="236.5" y="-433.2" font-family="Helvetica,sans-Serif" font-size="11.00">&lt; 2</text>
<polygon fill="#ffffff" stroke="transparent" points="281.5,-427 281.5,-445 345.5,-445 345.5,-427 281.5,-427"/>
<polygon fill="none" stroke="black" points="281.5,-427 281.5,-445 345.5,-445 345.5,-427 281.5,-427"/>
<text text-anchor="start" x="297.5" y="-433.2" font-family="Helvetica,sans-Serif" font-size="11.00">672 rows</text>
<polygon fill="#ffffff" stroke="transparent" points="345.5,-427 345.5,-445 371.5,-445 371.5,-427 345.5,-427"/>
<polygon fill="none" stroke="black" points="345.5,-427 345.5,-445 371.5,-445 371.5,-427 345.5,-427"/>
<text text-anchor="start" x="361.5" y="-433.2" font-family="Helvetica,sans-Serif" font-size="11.00"> &#160;</text>
</a>
</g>
</g>
<!-- unitsdatasettypes&#45;&gt;datasettypes -->
<g id="edge10" class="edge">
<title>unitsdatasettypes:w&#45;&gt;datasettypes:e</title>
<path fill="none" stroke="black" d="M217.76,-455.39C182.97,-462.34 174.48,-493 132,-493"/>
<polygon fill="black" stroke="black" points="224.54,-454.75 232.84,-457.58 228.52,-454.37 232.5,-454 232.5,-454 232.5,-454 228.52,-454.37 232.16,-450.42 224.54,-454.75 224.54,-454.75"/>
<ellipse fill="none" stroke="black" cx="221.35" cy="-455.05" rx="3.2" ry="3.2"/>
</g>
</g>
</svg>
