<?xml version="1.0" encoding="UTF-8" standalone="no"?>
<!DOCTYPE svg PUBLIC "-//W3C//DTD SVG 1.1//EN"
 "http://www.w3.org/Graphics/SVG/1.1/DTD/svg11.dtd">
<!-- Generated by graphviz version 2.43.0 (0)
 -->
<!-- Title: oneDegreeRelationshipsDiagram Pages: 1 -->
<svg width="468pt" height="267pt"
 viewBox="0.00 0.00 468.00 267.00" xmlns="http://www.w3.org/2000/svg" xmlns:xlink="http://www.w3.org/1999/xlink">
<g id="graph0" class="graph" transform="scale(1 1) rotate(0) translate(4 263)">
<title>oneDegreeRelationshipsDiagram</title>
<polygon fill="#ffffff" stroke="transparent" points="-4,4 -4,-263 464,-263 464,4 -4,4"/>
<text text-anchor="middle" x="71.5" y="-7.2" font-family="Helvetica,sans-Serif" font-size="11.00">Generated by SchemaSpy</text>
<!-- datasetsubmissions -->
<g id="node1" class="node">
<title>datasetsubmissions</title>
<g id="a_node1"><a xlink:href="../../tables/datasetsubmissions.html" xlink:title="datasetsubmissions" target="_top">
<polygon fill="#ffffff" stroke="transparent" points="302,-87 302,-255 452,-255 452,-87 302,-87"/>
<polygon fill="#f5f5f5" stroke="transparent" points="302,-233 302,-255 452,-255 452,-233 302,-233"/>
<polygon fill="none" stroke="black" points="302,-233 302,-255 452,-255 452,-233 302,-233"/>
<text text-anchor="start" x="307" y="-242.2" font-family="Helvetica,sans-Serif" font-weight="bold" font-size="11.00">datasetsubmissions</text>
<text text-anchor="start" x="417" y="-241.2" font-family="Helvetica,sans-Serif" font-size="11.00">[table]</text>
<polygon fill="none" stroke="black" points="302,-211 302,-233 452,-233 452,-211 302,-211"/>
<image xlink:href="../../images/primaryKeys.png" width="11px" height="12px" preserveAspectRatio="xMinYMin meet" x="307" y="-228"/>
<text text-anchor="start" x="327" y="-219.2" font-family="Helvetica,sans-Serif" font-size="11.00">submissionid</text>
<polygon fill="#ffffff" stroke="transparent" points="302,-189 302,-211 452,-211 452,-189 302,-189"/>
<polygon fill="none" stroke="black" points="302,-189 302,-211 452,-211 452,-189 302,-189"/>
<image xlink:href="../../images/foreignKeys.png" width="11px" height="12px" preserveAspectRatio="xMinYMin meet" x="307" y="-206"/>
<text text-anchor="start" x="327" y="-197.2" font-family="Helvetica,sans-Serif" font-size="11.00">datasetid</text>
<polygon fill="#ffffff" stroke="transparent" points="302,-167 302,-189 452,-189 452,-167 302,-167"/>
<polygon fill="none" stroke="black" points="302,-167 302,-189 452,-189 452,-167 302,-167"/>
<image xlink:href="../../images/foreignKeys.png" width="11px" height="12px" preserveAspectRatio="xMinYMin meet" x="307" y="-184"/>
<text text-anchor="start" x="327" y="-175.2" font-family="Helvetica,sans-Serif" font-size="11.00">databaseid</text>
<polygon fill="none" stroke="black" points="302,-145 302,-167 452,-167 452,-145 302,-145"/>
<image xlink:href="../../images/foreignKeys.png" width="11px" height="12px" preserveAspectRatio="xMinYMin meet" x="307" y="-162"/>
<text text-anchor="start" x="327" y="-153.2" font-family="Helvetica,sans-Serif" font-size="11.00">contactid</text>
<polygon fill="none" stroke="black" points="302,-123 302,-145 452,-145 452,-123 302,-123"/>
<image xlink:href="../../images/foreignKeys.png" width="11px" height="12px" preserveAspectRatio="xMinYMin meet" x="307" y="-140"/>
<text text-anchor="start" x="327" y="-131.2" font-family="Helvetica,sans-Serif" font-size="11.00">submissiontypeid</text>
<polygon fill="none" stroke="black" points="302,-105 302,-123 452,-123 452,-105 302,-105"/>
<text text-anchor="start" x="305" y="-111.2" font-family="Helvetica,sans-Serif" font-size="11.00">...</text>
<polygon fill="#ffffff" stroke="transparent" points="302,-87 302,-105 348,-105 348,-87 302,-87"/>
<polygon fill="none" stroke="black" points="302,-87 302,-105 348,-105 348,-87 302,-87"/>
<text text-anchor="start" x="305" y="-93.2" font-family="Helvetica,sans-Serif" font-size="11.00">&lt; 4</text>
<polygon fill="#ffffff" stroke="transparent" points="348,-87 348,-105 426,-105 426,-87 348,-87"/>
<polygon fill="none" stroke="black" points="348,-87 348,-105 426,-105 426,-87 348,-87"/>
<text text-anchor="start" x="363" y="-93.2" font-family="Helvetica,sans-Serif" font-size="11.00">58,836 rows</text>
<polygon fill="#ffffff" stroke="transparent" points="426,-87 426,-105 452,-105 452,-87 426,-87"/>
<polygon fill="none" stroke="black" points="426,-87 426,-105 452,-105 452,-87 426,-87"/>
<text text-anchor="start" x="442" y="-93.2" font-family="Helvetica,sans-Serif" font-size="11.00"> &#160;</text>
</a>
</g>
</g>
<!-- datasetsubmissiontypes -->
<g id="node2" class="node">
<title>datasetsubmissiontypes</title>
<g id="a_node2"><a xlink:href="../../tables/datasetsubmissiontypes.html" xlink:title="datasetsubmissiontypes" target="_top">
<polygon fill="#ffffff" stroke="transparent" points="8,-37 8,-169 253,-169 253,-37 8,-37"/>
<polygon fill="#f5f5f5" stroke="transparent" points="10.5,-145 10.5,-167 251.5,-167 251.5,-145 10.5,-145"/>
<polygon fill="none" stroke="black" points="10.5,-145 10.5,-167 251.5,-167 251.5,-145 10.5,-145"/>
<text text-anchor="start" x="15.5" y="-154.2" font-family="Helvetica,sans-Serif" font-weight="bold" font-size="11.00">datasetsubmissiontypes</text>
<text text-anchor="start" x="216.5" y="-153.2" font-family="Helvetica,sans-Serif" font-size="11.00">[table]</text>
<polygon fill="none" stroke="black" points="10.5,-123 10.5,-145 177.5,-145 177.5,-123 10.5,-123"/>
<image xlink:href="../../images/primaryKeys.png" width="11px" height="12px" preserveAspectRatio="xMinYMin meet" x="15.5" y="-140"/>
<text text-anchor="start" x="30.5" y="-131.2" font-family="Helvetica,sans-Serif" font-size="11.00">submissiontypeid</text>
<polygon fill="none" stroke="black" points="177.5,-123 177.5,-145 251.5,-145 251.5,-123 177.5,-123"/>
<text text-anchor="start" x="180.5" y="-131.2" font-family="Helvetica,sans-Serif" font-size="11.00">serial[10]</text>
<polygon fill="none" stroke="black" points="10.5,-101 10.5,-123 177.5,-123 177.5,-101 10.5,-101"/>
<text text-anchor="start" x="30.5" y="-109.2" font-family="Helvetica,sans-Serif" font-size="11.00">submissiontype</text>
<polygon fill="none" stroke="black" points="177.5,-101 177.5,-123 251.5,-123 251.5,-101 177.5,-101"/>
<text text-anchor="start" x="180.5" y="-109.2" font-family="Helvetica,sans-Serif" font-size="11.00">varchar[80]</text>
<polygon fill="none" stroke="black" points="10.5,-79 10.5,-101 177.5,-101 177.5,-79 10.5,-79"/>
<text text-anchor="start" x="30.5" y="-87.2" font-family="Helvetica,sans-Serif" font-size="11.00">recdatecreated</text>
<polygon fill="none" stroke="black" points="177.5,-79 177.5,-101 251.5,-101 251.5,-79 177.5,-79"/>
<text text-anchor="start" x="180.5" y="-87.2" font-family="Helvetica,sans-Serif" font-size="11.00">timestamp[22]</text>
<polygon fill="none" stroke="black" points="10.5,-57 10.5,-79 177.5,-79 177.5,-57 10.5,-57"/>
<text text-anchor="start" x="30.5" y="-65.2" font-family="Helvetica,sans-Serif" font-size="11.00">recdatemodified</text>
<polygon fill="none" stroke="black" points="177.5,-57 177.5,-79 251.5,-79 251.5,-57 177.5,-57"/>
<text text-anchor="start" x="180.5" y="-65.2" font-family="Helvetica,sans-Serif" font-size="11.00">timestamp[22]</text>
<polygon fill="#ffffff" stroke="transparent" points="10.5,-39 10.5,-57 85.5,-57 85.5,-39 10.5,-39"/>
<polygon fill="none" stroke="black" points="10.5,-39 10.5,-57 85.5,-57 85.5,-39 10.5,-39"/>
<text text-anchor="start" x="13.5" y="-45.2" font-family="Helvetica,sans-Serif" font-size="11.00">&lt; 0</text>
<polygon fill="#ffffff" stroke="transparent" points="85.5,-39 85.5,-57 177.5,-57 177.5,-39 85.5,-39"/>
<polygon fill="none" stroke="black" points="85.5,-39 85.5,-57 177.5,-57 177.5,-39 85.5,-39"/>
<text text-anchor="start" x="141.5" y="-45.2" font-family="Helvetica,sans-Serif" font-size="11.00">9 rows</text>
<polygon fill="#ffffff" stroke="transparent" points="177.5,-39 177.5,-57 251.5,-57 251.5,-39 177.5,-39"/>
<polygon fill="none" stroke="black" points="177.5,-39 177.5,-57 251.5,-57 251.5,-39 177.5,-39"/>
<text text-anchor="start" x="232.5" y="-45.2" font-family="Helvetica,sans-Serif" font-size="11.00">1 &gt;</text>
<polygon fill="none" stroke="black" stroke-width="2" points="9,-38 9,-168 252,-168 252,-38 9,-38"/>
</a>
</g>
</g>
<!-- datasetsubmissions&#45;&gt;datasetsubmissiontypes -->
<g id="edge1" class="edge">
<title>datasetsubmissions:w&#45;&gt;datasetsubmissiontypes:e</title>
<path fill="none" stroke="black" d="M286.28,-134C275.29,-134 268.16,-134 252.5,-134"/>
<polygon fill="black" stroke="black" points="293,-134 301,-137.6 297,-134 301,-134 301,-134 301,-134 297,-134 301,-130.4 293,-134 293,-134"/>
<ellipse fill="none" stroke="black" cx="289.8" cy="-134" rx="3.2" ry="3.2"/>
</g>
</g>
</svg>
