<?xml version="1.0" encoding="UTF-8" standalone="no"?>
<!DOCTYPE svg PUBLIC "-//W3C//DTD SVG 1.1//EN"
 "http://www.w3.org/Graphics/SVG/1.1/DTD/svg11.dtd">
<!-- Generated by graphviz version 2.43.0 (0)
 -->
<!-- Title: twoDegreesRelationshipsDiagram Pages: 1 -->
<svg width="633pt" height="366pt"
 viewBox="0.00 0.00 633.00 366.00" xmlns="http://www.w3.org/2000/svg" xmlns:xlink="http://www.w3.org/1999/xlink">
<g id="graph0" class="graph" transform="scale(1 1) rotate(0) translate(4 362)">
<title>twoDegreesRelationshipsDiagram</title>
<polygon fill="#ffffff" stroke="transparent" points="-4,4 -4,-362 629,-362 629,4 -4,4"/>
<text text-anchor="middle" x="71.5" y="-7.2" font-family="Helvetica,sans-Serif" font-size="11.00">Generated by SchemaSpy</text>
<!-- constituentdatabases -->
<g id="node1" class="node">
<title>constituentdatabases</title>
<g id="a_node1"><a xlink:href="../../tables/constituentdatabases.html" xlink:title="constituentdatabases" target="_top">
<polygon fill="#ffffff" stroke="transparent" points="217,-217 217,-275 374,-275 374,-217 217,-217"/>
<polygon fill="#f5f5f5" stroke="transparent" points="217.5,-253 217.5,-275 374.5,-275 374.5,-253 217.5,-253"/>
<polygon fill="none" stroke="black" points="217.5,-253 217.5,-275 374.5,-275 374.5,-253 217.5,-253"/>
<text text-anchor="start" x="222.5" y="-262.2" font-family="Helvetica,sans-Serif" font-weight="bold" font-size="11.00">constituentdatabases</text>
<text text-anchor="start" x="339.5" y="-261.2" font-family="Helvetica,sans-Serif" font-size="11.00">[table]</text>
<polygon fill="none" stroke="black" points="217.5,-235 217.5,-253 374.5,-253 374.5,-235 217.5,-235"/>
<text text-anchor="start" x="220.5" y="-241.2" font-family="Helvetica,sans-Serif" font-size="11.00">...</text>
<polygon fill="#ffffff" stroke="transparent" points="217.5,-217 217.5,-235 273.5,-235 273.5,-217 217.5,-217"/>
<polygon fill="none" stroke="black" points="217.5,-217 217.5,-235 273.5,-235 273.5,-217 217.5,-217"/>
<text text-anchor="start" x="220.5" y="-223.2" font-family="Helvetica,sans-Serif" font-size="11.00">&lt; 1</text>
<polygon fill="#ffffff" stroke="transparent" points="273.5,-217 273.5,-235 335.5,-235 335.5,-217 273.5,-217"/>
<polygon fill="none" stroke="black" points="273.5,-217 273.5,-235 335.5,-235 335.5,-217 273.5,-217"/>
<text text-anchor="start" x="293.5" y="-223.2" font-family="Helvetica,sans-Serif" font-size="11.00">37 rows</text>
<polygon fill="#ffffff" stroke="transparent" points="335.5,-217 335.5,-235 374.5,-235 374.5,-217 335.5,-217"/>
<polygon fill="none" stroke="black" points="335.5,-217 335.5,-235 374.5,-235 374.5,-217 335.5,-217"/>
<text text-anchor="start" x="355.5" y="-223.2" font-family="Helvetica,sans-Serif" font-size="11.00">3 &gt;</text>
</a>
</g>
</g>
<!-- contacts -->
<g id="node2" class="node">
<title>contacts</title>
<g id="a_node2"><a xlink:href="../../tables/contacts.html" xlink:title="contacts" target="_top">
<polygon fill="#ffffff" stroke="transparent" points="8,-191 8,-249 124,-249 124,-191 8,-191"/>
<polygon fill="#f5f5f5" stroke="transparent" points="8,-227 8,-249 124,-249 124,-227 8,-227"/>
<polygon fill="none" stroke="black" points="8,-227 8,-249 124,-249 124,-227 8,-227"/>
<text text-anchor="start" x="13" y="-236.2" font-family="Helvetica,sans-Serif" font-weight="bold" font-size="11.00">contacts</text>
<text text-anchor="start" x="89" y="-235.2" font-family="Helvetica,sans-Serif" font-size="11.00">[table]</text>
<polygon fill="none" stroke="black" points="8,-209 8,-227 124,-227 124,-209 8,-209"/>
<text text-anchor="start" x="11" y="-215.2" font-family="Helvetica,sans-Serif" font-size="11.00">...</text>
<polygon fill="#ffffff" stroke="transparent" points="8,-191 8,-209 30,-209 30,-191 8,-191"/>
<polygon fill="none" stroke="black" points="8,-191 8,-209 30,-209 30,-191 8,-191"/>
<text text-anchor="start" x="11" y="-197.2" font-family="Helvetica,sans-Serif" font-size="11.00">&lt; 1</text>
<polygon fill="#ffffff" stroke="transparent" points="30,-191 30,-209 96,-209 96,-191 30,-191"/>
<polygon fill="none" stroke="black" points="30,-191 30,-209 96,-209 96,-191 30,-191"/>
<text text-anchor="start" x="33" y="-197.2" font-family="Helvetica,sans-Serif" font-size="11.00">13,247 rows</text>
<polygon fill="#ffffff" stroke="transparent" points="96,-191 96,-209 124,-209 124,-191 96,-191"/>
<polygon fill="none" stroke="black" points="96,-191 96,-209 124,-209 124,-191 96,-191"/>
<text text-anchor="start" x="99" y="-197.2" font-family="Helvetica,sans-Serif" font-size="11.00">17 &gt;</text>
</a>
</g>
</g>
<!-- constituentdatabases&#45;&gt;contacts -->
<g id="edge1" class="edge">
<title>constituentdatabases:w&#45;&gt;contacts:e</title>
<path fill="none" stroke="black" d="M201.76,-242.82C171.85,-237.73 161.83,-218 125,-218"/>
<polygon fill="black" stroke="black" points="208.53,-243.36 216.21,-247.59 212.51,-243.68 216.5,-244 216.5,-244 216.5,-244 212.51,-243.68 216.79,-240.41 208.53,-243.36 208.53,-243.36"/>
<ellipse fill="none" stroke="black" cx="205.34" cy="-243.1" rx="3.2" ry="3.2"/>
</g>
<!-- datasetsubmissions -->
<g id="node3" class="node">
<title>datasetsubmissions</title>
<g id="a_node3"><a xlink:href="../../tables/datasetsubmissions.html" xlink:title="datasetsubmissions" target="_top">
<polygon fill="#ffffff" stroke="transparent" points="467,-138 467,-306 617,-306 617,-138 467,-138"/>
<polygon fill="#f5f5f5" stroke="transparent" points="467,-284 467,-306 617,-306 617,-284 467,-284"/>
<polygon fill="none" stroke="black" points="467,-284 467,-306 617,-306 617,-284 467,-284"/>
<text text-anchor="start" x="472" y="-293.2" font-family="Helvetica,sans-Serif" font-weight="bold" font-size="11.00">datasetsubmissions</text>
<text text-anchor="start" x="582" y="-292.2" font-family="Helvetica,sans-Serif" font-size="11.00">[table]</text>
<polygon fill="none" stroke="black" points="467,-262 467,-284 617,-284 617,-262 467,-262"/>
<image xlink:href="../../images/primaryKeys.png" width="11px" height="12px" preserveAspectRatio="xMinYMin meet" x="472" y="-279"/>
<text text-anchor="start" x="492" y="-270.2" font-family="Helvetica,sans-Serif" font-size="11.00">submissionid</text>
<polygon fill="#ffffff" stroke="transparent" points="467,-240 467,-262 617,-262 617,-240 467,-240"/>
<polygon fill="none" stroke="black" points="467,-240 467,-262 617,-262 617,-240 467,-240"/>
<image xlink:href="../../images/foreignKeys.png" width="11px" height="12px" preserveAspectRatio="xMinYMin meet" x="472" y="-257"/>
<text text-anchor="start" x="492" y="-248.2" font-family="Helvetica,sans-Serif" font-size="11.00">datasetid</text>
<polygon fill="#ffffff" stroke="transparent" points="467,-218 467,-240 617,-240 617,-218 467,-218"/>
<polygon fill="none" stroke="black" points="467,-218 467,-240 617,-240 617,-218 467,-218"/>
<image xlink:href="../../images/foreignKeys.png" width="11px" height="12px" preserveAspectRatio="xMinYMin meet" x="472" y="-235"/>
<text text-anchor="start" x="492" y="-226.2" font-family="Helvetica,sans-Serif" font-size="11.00">databaseid</text>
<polygon fill="none" stroke="black" points="467,-196 467,-218 617,-218 617,-196 467,-196"/>
<image xlink:href="../../images/foreignKeys.png" width="11px" height="12px" preserveAspectRatio="xMinYMin meet" x="472" y="-213"/>
<text text-anchor="start" x="492" y="-204.2" font-family="Helvetica,sans-Serif" font-size="11.00">contactid</text>
<polygon fill="none" stroke="black" points="467,-174 467,-196 617,-196 617,-174 467,-174"/>
<image xlink:href="../../images/foreignKeys.png" width="11px" height="12px" preserveAspectRatio="xMinYMin meet" x="472" y="-191"/>
<text text-anchor="start" x="492" y="-182.2" font-family="Helvetica,sans-Serif" font-size="11.00">submissiontypeid</text>
<polygon fill="none" stroke="black" points="467,-156 467,-174 617,-174 617,-156 467,-156"/>
<text text-anchor="start" x="470" y="-162.2" font-family="Helvetica,sans-Serif" font-size="11.00">...</text>
<polygon fill="#ffffff" stroke="transparent" points="467,-138 467,-156 513,-156 513,-138 467,-138"/>
<polygon fill="none" stroke="black" points="467,-138 467,-156 513,-156 513,-138 467,-138"/>
<text text-anchor="start" x="470" y="-144.2" font-family="Helvetica,sans-Serif" font-size="11.00">&lt; 4</text>
<polygon fill="#ffffff" stroke="transparent" points="513,-138 513,-156 591,-156 591,-138 513,-138"/>
<polygon fill="none" stroke="black" points="513,-138 513,-156 591,-156 591,-138 513,-138"/>
<text text-anchor="start" x="528" y="-144.2" font-family="Helvetica,sans-Serif" font-size="11.00">57,403 rows</text>
<polygon fill="#ffffff" stroke="transparent" points="591,-138 591,-156 617,-156 617,-138 591,-138"/>
<polygon fill="none" stroke="black" points="591,-138 591,-156 617,-156 617,-138 591,-138"/>
<text text-anchor="start" x="607" y="-144.2" font-family="Helvetica,sans-Serif" font-size="11.00"> &#160;</text>
</a>
</g>
</g>
<!-- datasetsubmissions&#45;&gt;constituentdatabases -->
<g id="edge3" class="edge">
<title>datasetsubmissions:w&#45;&gt;constituentdatabases:e</title>
<path fill="none" stroke="black" d="M451.29,-229.72C422.29,-232.72 410.86,-244 375.5,-244"/>
<polygon fill="black" stroke="black" points="458.01,-229.39 466.18,-232.6 462,-229.2 466,-229 466,-229 466,-229 462,-229.2 465.82,-225.4 458.01,-229.39 458.01,-229.39"/>
<ellipse fill="none" stroke="black" cx="454.81" cy="-229.55" rx="3.2" ry="3.2"/>
</g>
<!-- datasetsubmissions&#45;&gt;contacts -->
<g id="edge2" class="edge">
<title>datasetsubmissions:w&#45;&gt;contacts:e</title>
<path fill="none" stroke="black" d="M451.51,-206.93C329.52,-205.72 292.66,-189.77 165,-207 146.73,-209.47 143.44,-218 125,-218"/>
<polygon fill="black" stroke="black" points="458,-206.96 465.98,-210.6 462,-206.98 466,-207 466,-207 466,-207 462,-206.98 466.02,-203.4 458,-206.96 458,-206.96"/>
<ellipse fill="none" stroke="black" cx="454.8" cy="-206.94" rx="3.2" ry="3.2"/>
</g>
<!-- datasets -->
<g id="node4" class="node">
<title>datasets</title>
<g id="a_node4"><a xlink:href="../../tables/datasets.html" xlink:title="datasets" target="_top">
<polygon fill="#ffffff" stroke="transparent" points="237.5,-296 237.5,-354 353.5,-354 353.5,-296 237.5,-296"/>
<polygon fill="#f5f5f5" stroke="transparent" points="237.5,-332 237.5,-354 353.5,-354 353.5,-332 237.5,-332"/>
<polygon fill="none" stroke="black" points="237.5,-332 237.5,-354 353.5,-354 353.5,-332 237.5,-332"/>
<text text-anchor="start" x="242.5" y="-341.2" font-family="Helvetica,sans-Serif" font-weight="bold" font-size="11.00">datasets</text>
<text text-anchor="start" x="318.5" y="-340.2" font-family="Helvetica,sans-Serif" font-size="11.00">[table]</text>
<polygon fill="none" stroke="black" points="237.5,-314 237.5,-332 353.5,-332 353.5,-314 237.5,-314"/>
<text text-anchor="start" x="240.5" y="-320.2" font-family="Helvetica,sans-Serif" font-size="11.00">...</text>
<polygon fill="#ffffff" stroke="transparent" points="237.5,-296 237.5,-314 259.5,-314 259.5,-296 237.5,-296"/>
<polygon fill="none" stroke="black" points="237.5,-296 237.5,-314 259.5,-314 259.5,-296 237.5,-296"/>
<text text-anchor="start" x="240.5" y="-302.2" font-family="Helvetica,sans-Serif" font-size="11.00">&lt; 3</text>
<polygon fill="#ffffff" stroke="transparent" points="259.5,-296 259.5,-314 325.5,-314 325.5,-296 259.5,-296"/>
<polygon fill="none" stroke="black" points="259.5,-296 259.5,-314 325.5,-314 325.5,-296 259.5,-296"/>
<text text-anchor="start" x="262.5" y="-302.2" font-family="Helvetica,sans-Serif" font-size="11.00">48,328 rows</text>
<polygon fill="#ffffff" stroke="transparent" points="325.5,-296 325.5,-314 353.5,-314 353.5,-296 325.5,-296"/>
<polygon fill="none" stroke="black" points="325.5,-296 325.5,-314 353.5,-314 353.5,-296 325.5,-296"/>
<text text-anchor="start" x="328.5" y="-302.2" font-family="Helvetica,sans-Serif" font-size="11.00">13 &gt;</text>
</a>
</g>
</g>
<!-- datasetsubmissions&#45;&gt;datasets -->
<g id="edge4" class="edge">
<title>datasetsubmissions:w&#45;&gt;datasets:e</title>
<path fill="none" stroke="black" d="M451.91,-255.03C442.45,-261.93 440.34,-276.23 426,-286 396.43,-306.15 390.28,-323 354.5,-323"/>
<polygon fill="black" stroke="black" points="458.31,-253.2 466.99,-254.46 462.15,-252.1 466,-251 466,-251 466,-251 462.15,-252.1 465.01,-247.54 458.31,-253.2 458.31,-253.2"/>
<ellipse fill="none" stroke="black" cx="455.23" cy="-254.08" rx="3.2" ry="3.2"/>
</g>
<!-- datasetsubmissiontypes -->
<g id="node5" class="node">
<title>datasetsubmissiontypes</title>
<g id="a_node5"><a xlink:href="../../tables/datasetsubmissiontypes.html" xlink:title="datasetsubmissiontypes" target="_top">
<polygon fill="#ffffff" stroke="transparent" points="173,-37 173,-169 418,-169 418,-37 173,-37"/>
<polygon fill="#f5f5f5" stroke="transparent" points="175.5,-145 175.5,-167 416.5,-167 416.5,-145 175.5,-145"/>
<polygon fill="none" stroke="black" points="175.5,-145 175.5,-167 416.5,-167 416.5,-145 175.5,-145"/>
<text text-anchor="start" x="180.5" y="-154.2" font-family="Helvetica,sans-Serif" font-weight="bold" font-size="11.00">datasetsubmissiontypes</text>
<text text-anchor="start" x="381.5" y="-153.2" font-family="Helvetica,sans-Serif" font-size="11.00">[table]</text>
<polygon fill="none" stroke="black" points="175.5,-123 175.5,-145 342.5,-145 342.5,-123 175.5,-123"/>
<image xlink:href="../../images/primaryKeys.png" width="11px" height="12px" preserveAspectRatio="xMinYMin meet" x="180.5" y="-140"/>
<text text-anchor="start" x="195.5" y="-131.2" font-family="Helvetica,sans-Serif" font-size="11.00">submissiontypeid</text>
<polygon fill="none" stroke="black" points="342.5,-123 342.5,-145 416.5,-145 416.5,-123 342.5,-123"/>
<text text-anchor="start" x="345.5" y="-131.2" font-family="Helvetica,sans-Serif" font-size="11.00">serial[10]</text>
<polygon fill="none" stroke="black" points="175.5,-101 175.5,-123 342.5,-123 342.5,-101 175.5,-101"/>
<text text-anchor="start" x="195.5" y="-109.2" font-family="Helvetica,sans-Serif" font-size="11.00">submissiontype</text>
<polygon fill="none" stroke="black" points="342.5,-101 342.5,-123 416.5,-123 416.5,-101 342.5,-101"/>
<text text-anchor="start" x="345.5" y="-109.2" font-family="Helvetica,sans-Serif" font-size="11.00">varchar[80]</text>
<polygon fill="none" stroke="black" points="175.5,-79 175.5,-101 342.5,-101 342.5,-79 175.5,-79"/>
<text text-anchor="start" x="195.5" y="-87.2" font-family="Helvetica,sans-Serif" font-size="11.00">recdatecreated</text>
<polygon fill="none" stroke="black" points="342.5,-79 342.5,-101 416.5,-101 416.5,-79 342.5,-79"/>
<text text-anchor="start" x="345.5" y="-87.2" font-family="Helvetica,sans-Serif" font-size="11.00">timestamp[22]</text>
<polygon fill="none" stroke="black" points="175.5,-57 175.5,-79 342.5,-79 342.5,-57 175.5,-57"/>
<text text-anchor="start" x="195.5" y="-65.2" font-family="Helvetica,sans-Serif" font-size="11.00">recdatemodified</text>
<polygon fill="none" stroke="black" points="342.5,-57 342.5,-79 416.5,-79 416.5,-57 342.5,-57"/>
<text text-anchor="start" x="345.5" y="-65.2" font-family="Helvetica,sans-Serif" font-size="11.00">timestamp[22]</text>
<polygon fill="#ffffff" stroke="transparent" points="175.5,-39 175.5,-57 250.5,-57 250.5,-39 175.5,-39"/>
<polygon fill="none" stroke="black" points="175.5,-39 175.5,-57 250.5,-57 250.5,-39 175.5,-39"/>
<text text-anchor="start" x="178.5" y="-45.2" font-family="Helvetica,sans-Serif" font-size="11.00">&lt; 0</text>
<polygon fill="#ffffff" stroke="transparent" points="250.5,-39 250.5,-57 342.5,-57 342.5,-39 250.5,-39"/>
<polygon fill="none" stroke="black" points="250.5,-39 250.5,-57 342.5,-57 342.5,-39 250.5,-39"/>
<text text-anchor="start" x="306.5" y="-45.2" font-family="Helvetica,sans-Serif" font-size="11.00">9 rows</text>
<polygon fill="#ffffff" stroke="transparent" points="342.5,-39 342.5,-57 416.5,-57 416.5,-39 342.5,-39"/>
<polygon fill="none" stroke="black" points="342.5,-39 342.5,-57 416.5,-57 416.5,-39 342.5,-39"/>
<text text-anchor="start" x="397.5" y="-45.2" font-family="Helvetica,sans-Serif" font-size="11.00">1 &gt;</text>
<polygon fill="none" stroke="black" stroke-width="2" points="174,-38 174,-168 417,-168 417,-38 174,-38"/>
</a>
</g>
</g>
<!-- datasetsubmissions&#45;&gt;datasetsubmissiontypes -->
<g id="edge5" class="edge">
<title>datasetsubmissions:w&#45;&gt;datasetsubmissiontypes:e</title>
<path fill="none" stroke="black" d="M452.19,-179.92C438.48,-167.02 442.67,-134 417.5,-134"/>
<polygon fill="black" stroke="black" points="458.49,-182.24 464.76,-188.38 462.25,-183.62 466,-185 466,-185 466,-185 462.25,-183.62 467.24,-181.62 458.49,-182.24 458.49,-182.24"/>
<ellipse fill="none" stroke="black" cx="455.49" cy="-181.14" rx="3.2" ry="3.2"/>
</g>
</g>
</svg>
