<?xml version="1.0" encoding="UTF-8" standalone="no"?>
<!DOCTYPE svg PUBLIC "-//W3C//DTD SVG 1.1//EN"
 "http://www.w3.org/Graphics/SVG/1.1/DTD/svg11.dtd">
<!-- Generated by graphviz version 2.43.0 (0)
 -->
<!-- Title: oneDegreeRelationshipsDiagram Pages: 1 -->
<svg width="438pt" height="230pt"
 viewBox="0.00 0.00 438.00 230.00" xmlns="http://www.w3.org/2000/svg" xmlns:xlink="http://www.w3.org/1999/xlink">
<g id="graph0" class="graph" transform="scale(1 1) rotate(0) translate(4 226)">
<title>oneDegreeRelationshipsDiagram</title>
<polygon fill="#ffffff" stroke="transparent" points="-4,4 -4,-226 434,-226 434,4 -4,4"/>
<text text-anchor="middle" x="71.5" y="-7.2" font-family="Helvetica,sans-Serif" font-size="11.00">Generated by SchemaSpy</text>
<!-- datasettaxagrouptypes -->
<g id="node1" class="node">
<title>datasettaxagrouptypes</title>
<g id="a_node1"><a xlink:href="../../tables/datasettaxagrouptypes.html" xlink:title="datasettaxagrouptypes" target="_top">
<polygon fill="#ffffff" stroke="transparent" points="183,-48 183,-180 422,-180 422,-48 183,-48"/>
<polygon fill="#f5f5f5" stroke="transparent" points="185.5,-156 185.5,-178 420.5,-178 420.5,-156 185.5,-156"/>
<polygon fill="none" stroke="black" points="185.5,-156 185.5,-178 420.5,-178 420.5,-156 185.5,-156"/>
<text text-anchor="start" x="190.5" y="-165.2" font-family="Helvetica,sans-Serif" font-weight="bold" font-size="11.00">datasettaxagrouptypes</text>
<text text-anchor="start" x="385.5" y="-164.2" font-family="Helvetica,sans-Serif" font-size="11.00">[table]</text>
<polygon fill="none" stroke="black" points="185.5,-134 185.5,-156 346.5,-156 346.5,-134 185.5,-134"/>
<image xlink:href="../../images/primaryKeys.png" width="11px" height="12px" preserveAspectRatio="xMinYMin meet" x="190.5" y="-151"/>
<text text-anchor="start" x="205.5" y="-142.2" font-family="Helvetica,sans-Serif" font-size="11.00">datasettypeid</text>
<polygon fill="none" stroke="black" points="346.5,-134 346.5,-156 420.5,-156 420.5,-134 346.5,-134"/>
<text text-anchor="start" x="349.5" y="-142.2" font-family="Helvetica,sans-Serif" font-size="11.00">int4[10]</text>
<polygon fill="none" stroke="black" points="185.5,-112 185.5,-134 346.5,-134 346.5,-112 185.5,-112"/>
<image xlink:href="../../images/primaryKeys.png" width="11px" height="12px" preserveAspectRatio="xMinYMin meet" x="190.5" y="-129"/>
<text text-anchor="start" x="205.5" y="-120.2" font-family="Helvetica,sans-Serif" font-size="11.00">taxagroupid</text>
<polygon fill="none" stroke="black" points="346.5,-112 346.5,-134 420.5,-134 420.5,-112 346.5,-112"/>
<text text-anchor="start" x="349.5" y="-120.2" font-family="Helvetica,sans-Serif" font-size="11.00">varchar[3]</text>
<polygon fill="none" stroke="black" points="185.5,-90 185.5,-112 346.5,-112 346.5,-90 185.5,-90"/>
<text text-anchor="start" x="205.5" y="-98.2" font-family="Helvetica,sans-Serif" font-size="11.00">recdatecreated</text>
<polygon fill="none" stroke="black" points="346.5,-90 346.5,-112 420.5,-112 420.5,-90 346.5,-90"/>
<text text-anchor="start" x="349.5" y="-98.2" font-family="Helvetica,sans-Serif" font-size="11.00">timestamp[22]</text>
<polygon fill="none" stroke="black" points="185.5,-68 185.5,-90 346.5,-90 346.5,-68 185.5,-68"/>
<text text-anchor="start" x="205.5" y="-76.2" font-family="Helvetica,sans-Serif" font-size="11.00">recdatemodified</text>
<polygon fill="none" stroke="black" points="346.5,-68 346.5,-90 420.5,-90 420.5,-68 346.5,-68"/>
<text text-anchor="start" x="349.5" y="-76.2" font-family="Helvetica,sans-Serif" font-size="11.00">timestamp[22]</text>
<polygon fill="#ffffff" stroke="transparent" points="185.5,-50 185.5,-68 251.5,-68 251.5,-50 185.5,-50"/>
<polygon fill="none" stroke="black" points="185.5,-50 185.5,-68 251.5,-68 251.5,-50 185.5,-50"/>
<text text-anchor="start" x="188.5" y="-56.2" font-family="Helvetica,sans-Serif" font-size="11.00">&lt; 2</text>
<polygon fill="#ffffff" stroke="transparent" points="251.5,-50 251.5,-68 346.5,-68 346.5,-50 251.5,-50"/>
<polygon fill="none" stroke="black" points="251.5,-50 251.5,-68 346.5,-68 346.5,-50 251.5,-50"/>
<text text-anchor="start" x="298.5" y="-56.2" font-family="Helvetica,sans-Serif" font-size="11.00">184 rows</text>
<polygon fill="#ffffff" stroke="transparent" points="346.5,-50 346.5,-68 420.5,-68 420.5,-50 346.5,-50"/>
<polygon fill="none" stroke="black" points="346.5,-50 346.5,-68 420.5,-68 420.5,-50 346.5,-50"/>
<text text-anchor="start" x="401.5" y="-56.2" font-family="Helvetica,sans-Serif" font-size="11.00">0 &gt;</text>
<polygon fill="none" stroke="black" stroke-width="2" points="184,-49 184,-179 421,-179 421,-49 184,-49"/>
</a>
</g>
</g>
<!-- datasettypes -->
<g id="node2" class="node">
<title>datasettypes</title>
<g id="a_node2"><a xlink:href="../../tables/datasettypes.html" xlink:title="datasettypes" target="_top">
<polygon fill="#ffffff" stroke="transparent" points="11,-138 11,-218 131,-218 131,-138 11,-138"/>
<polygon fill="#f5f5f5" stroke="transparent" points="11,-196 11,-218 131,-218 131,-196 11,-196"/>
<polygon fill="none" stroke="black" points="11,-196 11,-218 131,-218 131,-196 11,-196"/>
<text text-anchor="start" x="16" y="-205.2" font-family="Helvetica,sans-Serif" font-weight="bold" font-size="11.00">datasettypes</text>
<text text-anchor="start" x="96" y="-204.2" font-family="Helvetica,sans-Serif" font-size="11.00">[table]</text>
<polygon fill="none" stroke="black" points="11,-174 11,-196 131,-196 131,-174 11,-174"/>
<image xlink:href="../../images/primaryKeys.png" width="11px" height="12px" preserveAspectRatio="xMinYMin meet" x="16" y="-191"/>
<text text-anchor="start" x="31" y="-182.2" font-family="Helvetica,sans-Serif" font-size="11.00">datasettypeid</text>
<polygon fill="none" stroke="black" points="11,-156 11,-174 131,-174 131,-156 11,-156"/>
<text text-anchor="start" x="14" y="-162.2" font-family="Helvetica,sans-Serif" font-size="11.00">...</text>
<polygon fill="#ffffff" stroke="transparent" points="11,-138 11,-156 44,-156 44,-138 11,-138"/>
<polygon fill="none" stroke="black" points="11,-138 11,-156 44,-156 44,-138 11,-138"/>
<text text-anchor="start" x="14" y="-144.2" font-family="Helvetica,sans-Serif" font-size="11.00"> &#160;</text>
<polygon fill="#ffffff" stroke="transparent" points="44,-138 44,-156 99,-156 99,-138 44,-138"/>
<polygon fill="none" stroke="black" points="44,-138 44,-156 99,-156 99,-138 44,-138"/>
<text text-anchor="start" x="57" y="-144.2" font-family="Helvetica,sans-Serif" font-size="11.00">41 rows</text>
<polygon fill="#ffffff" stroke="transparent" points="99,-138 99,-156 131,-156 131,-138 99,-138"/>
<polygon fill="none" stroke="black" points="99,-138 99,-156 131,-156 131,-138 99,-138"/>
<text text-anchor="start" x="112" y="-144.2" font-family="Helvetica,sans-Serif" font-size="11.00">6 &gt;</text>
</a>
</g>
</g>
<!-- datasettaxagrouptypes&#45;&gt;datasettypes -->
<g id="edge1" class="edge">
<title>datasettaxagrouptypes:w&#45;&gt;datasettypes:e</title>
<path fill="none" stroke="black" d="M170.42,-149.28C156.21,-159.6 155.38,-185 132,-185"/>
<polygon fill="black" stroke="black" points="176.85,-147.33 185.55,-148.44 180.67,-146.16 184.5,-145 184.5,-145 184.5,-145 180.67,-146.16 183.45,-141.56 176.85,-147.33 176.85,-147.33"/>
<ellipse fill="none" stroke="black" cx="173.78" cy="-148.26" rx="3.2" ry="3.2"/>
</g>
<!-- taxagrouptypes -->
<g id="node3" class="node">
<title>taxagrouptypes</title>
<g id="a_node3"><a xlink:href="../../tables/taxagrouptypes.html" xlink:title="taxagrouptypes" target="_top">
<polygon fill="#ffffff" stroke="transparent" points="8,-37 8,-117 134,-117 134,-37 8,-37"/>
<polygon fill="#f5f5f5" stroke="transparent" points="8,-95 8,-117 134,-117 134,-95 8,-95"/>
<polygon fill="none" stroke="black" points="8,-95 8,-117 134,-117 134,-95 8,-95"/>
<text text-anchor="start" x="13" y="-104.2" font-family="Helvetica,sans-Serif" font-weight="bold" font-size="11.00">taxagrouptypes</text>
<text text-anchor="start" x="99" y="-103.2" font-family="Helvetica,sans-Serif" font-size="11.00">[table]</text>
<polygon fill="none" stroke="black" points="8,-73 8,-95 134,-95 134,-73 8,-73"/>
<image xlink:href="../../images/primaryKeys.png" width="11px" height="12px" preserveAspectRatio="xMinYMin meet" x="13" y="-90"/>
<text text-anchor="start" x="31" y="-81.2" font-family="Helvetica,sans-Serif" font-size="11.00">taxagroupid</text>
<polygon fill="none" stroke="black" points="8,-55 8,-73 134,-73 134,-55 8,-55"/>
<text text-anchor="start" x="11" y="-61.2" font-family="Helvetica,sans-Serif" font-size="11.00">...</text>
<polygon fill="#ffffff" stroke="transparent" points="8,-37 8,-55 44,-55 44,-37 8,-37"/>
<polygon fill="none" stroke="black" points="8,-37 8,-55 44,-55 44,-37 8,-37"/>
<text text-anchor="start" x="11" y="-43.2" font-family="Helvetica,sans-Serif" font-size="11.00"> &#160;</text>
<polygon fill="#ffffff" stroke="transparent" points="44,-37 44,-55 100,-55 100,-37 44,-37"/>
<polygon fill="none" stroke="black" points="44,-37 44,-55 100,-55 100,-37 44,-37"/>
<text text-anchor="start" x="58" y="-43.2" font-family="Helvetica,sans-Serif" font-size="11.00">55 rows</text>
<polygon fill="#ffffff" stroke="transparent" points="100,-37 100,-55 134,-55 134,-37 100,-37"/>
<polygon fill="none" stroke="black" points="100,-37 100,-55 134,-55 134,-37 100,-37"/>
<text text-anchor="start" x="115" y="-43.2" font-family="Helvetica,sans-Serif" font-size="11.00">4 &gt;</text>
</a>
</g>
</g>
<!-- datasettaxagrouptypes&#45;&gt;taxagrouptypes -->
<g id="edge2" class="edge">
<title>datasettaxagrouptypes:w&#45;&gt;taxagrouptypes:e</title>
<path fill="none" stroke="black" d="M170.74,-118.53C157.7,-108.28 157.1,-84 135,-84"/>
<polygon fill="black" stroke="black" points="176.89,-120.53 183.39,-126.42 180.7,-121.76 184.5,-123 184.5,-123 184.5,-123 180.7,-121.76 185.61,-119.58 176.89,-120.53 176.89,-120.53"/>
<ellipse fill="none" stroke="black" cx="173.85" cy="-119.54" rx="3.2" ry="3.2"/>
</g>
</g>
</svg>
