<?xml version="1.0" encoding="UTF-8" standalone="no"?>
<!DOCTYPE svg PUBLIC "-//W3C//DTD SVG 1.1//EN"
 "http://www.w3.org/Graphics/SVG/1.1/DTD/svg11.dtd">
<!-- Generated by graphviz version 2.43.0 (0)
 -->
<!-- Title: oneDegreeRelationshipsDiagramImplied Pages: 1 -->
<svg width="407pt" height="384pt"
 viewBox="0.00 0.00 407.00 384.00" xmlns="http://www.w3.org/2000/svg" xmlns:xlink="http://www.w3.org/1999/xlink">
<g id="graph0" class="graph" transform="scale(1 1) rotate(0) translate(4 380)">
<title>oneDegreeRelationshipsDiagramImplied</title>
<polygon fill="#ffffff" stroke="transparent" points="-4,4 -4,-380 403,-380 403,4 -4,4"/>
<text text-anchor="middle" x="71.5" y="-7.2" font-family="Helvetica,sans-Serif" font-size="11.00">Generated by SchemaSpy</text>
<!-- datasetvariables -->
<g id="node1" class="node">
<title>datasetvariables</title>
<g id="a_node1"><a xlink:href="../../tables/datasetvariables.html" xlink:title="datasetvariables" target="_top">
<polygon fill="#ffffff" stroke="transparent" points="187,-169 187,-323 391,-323 391,-169 187,-169"/>
<polygon fill="#f5f5f5" stroke="transparent" points="189,-299 189,-321 389,-321 389,-299 189,-299"/>
<polygon fill="none" stroke="black" points="189,-299 189,-321 389,-321 389,-299 189,-299"/>
<text text-anchor="start" x="194" y="-308.2" font-family="Helvetica,sans-Serif" font-weight="bold" font-size="11.00">datasetvariables</text>
<text text-anchor="start" x="354" y="-307.2" font-family="Helvetica,sans-Serif" font-size="11.00">[table]</text>
<polygon fill="none" stroke="black" points="189,-277 189,-299 315,-299 315,-277 189,-277"/>
<image xlink:href="../../images/primaryKeys.png" width="11px" height="12px" preserveAspectRatio="xMinYMin meet" x="194" y="-294"/>
<text text-anchor="start" x="209" y="-285.2" font-family="Helvetica,sans-Serif" font-size="11.00">datasetvariableid</text>
<polygon fill="none" stroke="black" points="315,-277 315,-299 389,-299 389,-277 315,-277"/>
<text text-anchor="start" x="318" y="-285.2" font-family="Helvetica,sans-Serif" font-size="11.00">serial[10]</text>
<polygon fill="none" stroke="black" points="189,-255 189,-277 315,-277 315,-255 189,-255"/>
<image xlink:href="../../images/foreignKeys.png" width="11px" height="12px" preserveAspectRatio="xMinYMin meet" x="194" y="-272"/>
<text text-anchor="start" x="209" y="-263.2" font-family="Helvetica,sans-Serif" font-size="11.00">datasetid</text>
<polygon fill="none" stroke="black" points="315,-255 315,-277 389,-277 389,-255 315,-255"/>
<text text-anchor="start" x="318" y="-263.2" font-family="Helvetica,sans-Serif" font-size="11.00">int4[10]</text>
<polygon fill="none" stroke="black" points="189,-233 189,-255 315,-255 315,-233 189,-233"/>
<image xlink:href="../../images/foreignKeys.png" width="11px" height="12px" preserveAspectRatio="xMinYMin meet" x="194" y="-250"/>
<text text-anchor="start" x="209" y="-241.2" font-family="Helvetica,sans-Serif" font-size="11.00">variableid</text>
<polygon fill="none" stroke="black" points="315,-233 315,-255 389,-255 389,-233 315,-233"/>
<text text-anchor="start" x="318" y="-241.2" font-family="Helvetica,sans-Serif" font-size="11.00">int4[10]</text>
<polygon fill="none" stroke="black" points="189,-211 189,-233 315,-233 315,-211 189,-211"/>
<text text-anchor="start" x="209" y="-219.2" font-family="Helvetica,sans-Serif" font-size="11.00">recdatecreated</text>
<polygon fill="none" stroke="black" points="315,-211 315,-233 389,-233 389,-211 315,-211"/>
<text text-anchor="start" x="318" y="-219.2" font-family="Helvetica,sans-Serif" font-size="11.00">timestamp[22]</text>
<polygon fill="none" stroke="black" points="189,-189 189,-211 315,-211 315,-189 189,-189"/>
<text text-anchor="start" x="209" y="-197.2" font-family="Helvetica,sans-Serif" font-size="11.00">recdatemodified</text>
<polygon fill="none" stroke="black" points="315,-189 315,-211 389,-211 389,-189 315,-189"/>
<text text-anchor="start" x="318" y="-197.2" font-family="Helvetica,sans-Serif" font-size="11.00">timestamp[22]</text>
<polygon fill="#ffffff" stroke="transparent" points="189,-171 189,-189 243,-189 243,-171 189,-171"/>
<polygon fill="none" stroke="black" points="189,-171 189,-189 243,-189 243,-171 189,-171"/>
<text text-anchor="start" x="192" y="-177.2" font-family="Helvetica,sans-Serif" font-size="11.00">&lt; 2</text>
<polygon fill="#ffffff" stroke="transparent" points="243,-171 243,-189 315,-189 315,-171 243,-171"/>
<polygon fill="none" stroke="black" points="243,-171 243,-189 315,-189 315,-171 243,-171"/>
<text text-anchor="start" x="279" y="-177.2" font-family="Helvetica,sans-Serif" font-size="11.00">0 rows</text>
<polygon fill="#ffffff" stroke="transparent" points="315,-171 315,-189 389,-189 389,-171 315,-171"/>
<polygon fill="none" stroke="black" points="315,-171 315,-189 389,-189 389,-171 315,-171"/>
<text text-anchor="start" x="370" y="-177.2" font-family="Helvetica,sans-Serif" font-size="11.00">0 &gt;</text>
<polygon fill="none" stroke="black" stroke-width="2" points="188,-170 188,-322 390,-322 390,-170 188,-170"/>
</a>
</g>
</g>
<!-- datasets -->
<g id="node2" class="node">
<title>datasets</title>
<g id="a_node2"><a xlink:href="../../tables/datasets.html" xlink:title="datasets" target="_top">
<polygon fill="#ffffff" stroke="transparent" points="13,-226 13,-372 133,-372 133,-226 13,-226"/>
<polygon fill="#f5f5f5" stroke="transparent" points="13,-350 13,-372 133,-372 133,-350 13,-350"/>
<polygon fill="none" stroke="black" points="13,-350 13,-372 133,-372 133,-350 13,-350"/>
<text text-anchor="start" x="18" y="-359.2" font-family="Helvetica,sans-Serif" font-weight="bold" font-size="11.00">datasets</text>
<text text-anchor="start" x="98" y="-358.2" font-family="Helvetica,sans-Serif" font-size="11.00">[table]</text>
<polygon fill="none" stroke="black" points="13,-328 13,-350 133,-350 133,-328 13,-328"/>
<image xlink:href="../../images/primaryKeys.png" width="11px" height="12px" preserveAspectRatio="xMinYMin meet" x="18" y="-345"/>
<text text-anchor="start" x="33" y="-336.2" font-family="Helvetica,sans-Serif" font-size="11.00">datasetid</text>
<polygon fill="#ffffff" stroke="transparent" points="13,-306 13,-328 133,-328 133,-306 13,-306"/>
<polygon fill="none" stroke="black" points="13,-306 13,-328 133,-328 133,-306 13,-306"/>
<image xlink:href="../../images/foreignKeys.png" width="11px" height="12px" preserveAspectRatio="xMinYMin meet" x="18" y="-323"/>
<text text-anchor="start" x="33" y="-314.2" font-family="Helvetica,sans-Serif" font-size="11.00">collectionunitid</text>
<polygon fill="#ffffff" stroke="transparent" points="13,-284 13,-306 133,-306 133,-284 13,-284"/>
<polygon fill="none" stroke="black" points="13,-284 13,-306 133,-306 133,-284 13,-284"/>
<image xlink:href="../../images/foreignKeys.png" width="11px" height="12px" preserveAspectRatio="xMinYMin meet" x="18" y="-301"/>
<text text-anchor="start" x="33" y="-292.2" font-family="Helvetica,sans-Serif" font-size="11.00">datasettypeid</text>
<polygon fill="none" stroke="black" points="13,-262 13,-284 133,-284 133,-262 13,-262"/>
<image xlink:href="../../images/foreignKeys.png" width="11px" height="12px" preserveAspectRatio="xMinYMin meet" x="18" y="-279"/>
<text text-anchor="start" x="33" y="-270.2" font-family="Helvetica,sans-Serif" font-size="11.00">embargoid</text>
<polygon fill="none" stroke="black" points="13,-244 13,-262 133,-262 133,-244 13,-244"/>
<text text-anchor="start" x="16" y="-250.2" font-family="Helvetica,sans-Serif" font-size="11.00">...</text>
<polygon fill="#ffffff" stroke="transparent" points="13,-226 13,-244 37,-244 37,-226 13,-226"/>
<polygon fill="none" stroke="black" points="13,-226 13,-244 37,-244 37,-226 13,-226"/>
<text text-anchor="start" x="16" y="-232.2" font-family="Helvetica,sans-Serif" font-size="11.00">&lt; 3</text>
<polygon fill="#ffffff" stroke="transparent" points="37,-226 37,-244 104,-244 104,-226 37,-226"/>
<polygon fill="none" stroke="black" points="37,-226 37,-244 104,-244 104,-226 37,-226"/>
<text text-anchor="start" x="41" y="-232.2" font-family="Helvetica,sans-Serif" font-size="11.00">48,328 rows</text>
<polygon fill="#ffffff" stroke="transparent" points="104,-226 104,-244 133,-244 133,-226 104,-226"/>
<polygon fill="none" stroke="black" points="104,-226 104,-244 133,-244 133,-226 104,-226"/>
<text text-anchor="start" x="108" y="-232.2" font-family="Helvetica,sans-Serif" font-size="11.00">13 &gt;</text>
</a>
</g>
</g>
<!-- datasetvariables&#45;&gt;datasets -->
<g id="edge1" class="edge">
<title>datasetvariables:w&#45;&gt;datasets:e</title>
<path fill="none" stroke="black" d="M174.02,-270.35C154.1,-286.06 168.37,-339 134,-339"/>
<polygon fill="black" stroke="black" points="180.36,-268.38 189.07,-269.44 184.18,-267.19 188,-266 188,-266 188,-266 184.18,-267.19 186.93,-262.56 180.36,-268.38 180.36,-268.38"/>
<ellipse fill="none" stroke="black" cx="177.31" cy="-269.33" rx="3.2" ry="3.2"/>
</g>
<!-- variables -->
<g id="node3" class="node">
<title>variables</title>
<g id="a_node3"><a xlink:href="../../tables/variables.html" xlink:title="variables" target="_top">
<polygon fill="#ffffff" stroke="transparent" points="8,-37 8,-205 138,-205 138,-37 8,-37"/>
<polygon fill="#f5f5f5" stroke="transparent" points="8,-183 8,-205 138,-205 138,-183 8,-183"/>
<polygon fill="none" stroke="black" points="8,-183 8,-205 138,-205 138,-183 8,-183"/>
<text text-anchor="start" x="13" y="-192.2" font-family="Helvetica,sans-Serif" font-weight="bold" font-size="11.00">variables</text>
<text text-anchor="start" x="103" y="-191.2" font-family="Helvetica,sans-Serif" font-size="11.00">[table]</text>
<polygon fill="none" stroke="black" points="8,-161 8,-183 138,-183 138,-161 8,-161"/>
<image xlink:href="../../images/primaryKeys.png" width="11px" height="12px" preserveAspectRatio="xMinYMin meet" x="13" y="-178"/>
<text text-anchor="start" x="28" y="-169.2" font-family="Helvetica,sans-Serif" font-size="11.00">variableid</text>
<polygon fill="#ffffff" stroke="transparent" points="8,-139 8,-161 138,-161 138,-139 8,-139"/>
<polygon fill="none" stroke="black" points="8,-139 8,-161 138,-161 138,-139 8,-139"/>
<image xlink:href="../../images/foreignKeys.png" width="11px" height="12px" preserveAspectRatio="xMinYMin meet" x="13" y="-156"/>
<text text-anchor="start" x="28" y="-147.2" font-family="Helvetica,sans-Serif" font-size="11.00">taxonid</text>
<polygon fill="#ffffff" stroke="transparent" points="8,-117 8,-139 138,-139 138,-117 8,-117"/>
<polygon fill="none" stroke="black" points="8,-117 8,-139 138,-139 138,-117 8,-117"/>
<image xlink:href="../../images/foreignKeys.png" width="11px" height="12px" preserveAspectRatio="xMinYMin meet" x="13" y="-134"/>
<text text-anchor="start" x="28" y="-125.2" font-family="Helvetica,sans-Serif" font-size="11.00">variableelementid</text>
<polygon fill="#ffffff" stroke="transparent" points="8,-95 8,-117 138,-117 138,-95 8,-95"/>
<polygon fill="none" stroke="black" points="8,-95 8,-117 138,-117 138,-95 8,-95"/>
<image xlink:href="../../images/foreignKeys.png" width="11px" height="12px" preserveAspectRatio="xMinYMin meet" x="13" y="-112"/>
<text text-anchor="start" x="28" y="-103.2" font-family="Helvetica,sans-Serif" font-size="11.00">variableunitsid</text>
<polygon fill="none" stroke="black" points="8,-73 8,-95 138,-95 138,-73 8,-73"/>
<image xlink:href="../../images/foreignKeys.png" width="11px" height="12px" preserveAspectRatio="xMinYMin meet" x="13" y="-90"/>
<text text-anchor="start" x="28" y="-81.2" font-family="Helvetica,sans-Serif" font-size="11.00">variablecontextid</text>
<polygon fill="none" stroke="black" points="8,-55 8,-73 138,-73 138,-55 8,-55"/>
<text text-anchor="start" x="11" y="-61.2" font-family="Helvetica,sans-Serif" font-size="11.00">...</text>
<polygon fill="#ffffff" stroke="transparent" points="8,-37 8,-55 40,-55 40,-37 8,-37"/>
<polygon fill="none" stroke="black" points="8,-37 8,-55 40,-55 40,-37 8,-37"/>
<text text-anchor="start" x="11" y="-43.2" font-family="Helvetica,sans-Serif" font-size="11.00">&lt; 4</text>
<polygon fill="#ffffff" stroke="transparent" points="40,-37 40,-55 111,-55 111,-37 40,-37"/>
<polygon fill="none" stroke="black" points="40,-37 40,-55 111,-55 111,-37 40,-37"/>
<text text-anchor="start" x="48" y="-43.2" font-family="Helvetica,sans-Serif" font-size="11.00">55,155 rows</text>
<polygon fill="#ffffff" stroke="transparent" points="111,-37 111,-55 138,-55 138,-37 111,-37"/>
<polygon fill="none" stroke="black" points="111,-37 111,-55 138,-55 138,-37 111,-37"/>
<text text-anchor="start" x="119" y="-43.2" font-family="Helvetica,sans-Serif" font-size="11.00">6 &gt;</text>
</a>
</g>
</g>
<!-- datasetvariables&#45;&gt;variables -->
<g id="edge2" class="edge">
<title>datasetvariables:w&#45;&gt;variables:e</title>
<path fill="none" stroke="black" d="M174.26,-239.28C156.53,-223.26 171.66,-172 139,-172"/>
<polygon fill="black" stroke="black" points="180.43,-241.4 186.83,-247.4 184.22,-242.7 188,-244 188,-244 188,-244 184.22,-242.7 189.17,-240.6 180.43,-241.4 180.43,-241.4"/>
<ellipse fill="none" stroke="black" cx="177.41" cy="-240.36" rx="3.2" ry="3.2"/>
</g>
</g>
</svg>
