<?xml version="1.0" encoding="UTF-8" standalone="no"?>
<!DOCTYPE svg PUBLIC "-//W3C//DTD SVG 1.1//EN"
 "http://www.w3.org/Graphics/SVG/1.1/DTD/svg11.dtd">
<!-- Generated by graphviz version 2.43.0 (0)
 -->
<!-- Title: twoDegreesRelationshipsDiagram Pages: 1 -->
<svg width="580pt" height="541pt"
 viewBox="0.00 0.00 580.23 541.00" xmlns="http://www.w3.org/2000/svg" xmlns:xlink="http://www.w3.org/1999/xlink">
<g id="graph0" class="graph" transform="scale(1 1) rotate(0) translate(4 537)">
<title>twoDegreesRelationshipsDiagram</title>
<polygon fill="#ffffff" stroke="transparent" points="-4,4 -4,-537 576.23,-537 576.23,4 -4,4"/>
<text text-anchor="middle" x="71.5" y="-7.2" font-family="Helvetica,sans-Serif" font-size="11.00">Generated by SchemaSpy</text>
<!-- analysisunits -->
<g id="node1" class="node">
<title>analysisunits</title>
<g id="a_node1"><a xlink:href="../../tables/analysisunits.html" xlink:title="analysisunits" target="_top">
<polygon fill="#ffffff" stroke="transparent" points="448.23,-471 448.23,-529 564.23,-529 564.23,-471 448.23,-471"/>
<polygon fill="#f5f5f5" stroke="transparent" points="448.23,-507 448.23,-529 564.23,-529 564.23,-507 448.23,-507"/>
<polygon fill="none" stroke="black" points="448.23,-507 448.23,-529 564.23,-529 564.23,-507 448.23,-507"/>
<text text-anchor="start" x="453.23" y="-516.2" font-family="Helvetica,sans-Serif" font-weight="bold" font-size="11.00">analysisunits</text>
<text text-anchor="start" x="529.23" y="-515.2" font-family="Helvetica,sans-Serif" font-size="11.00">[table]</text>
<polygon fill="none" stroke="black" points="448.23,-489 448.23,-507 564.23,-507 564.23,-489 448.23,-489"/>
<text text-anchor="start" x="451.23" y="-495.2" font-family="Helvetica,sans-Serif" font-size="11.00">...</text>
<polygon fill="#ffffff" stroke="transparent" points="448.23,-471 448.23,-489 470.23,-489 470.23,-471 448.23,-471"/>
<polygon fill="none" stroke="black" points="448.23,-471 448.23,-489 470.23,-489 470.23,-471 448.23,-471"/>
<text text-anchor="start" x="451.23" y="-477.2" font-family="Helvetica,sans-Serif" font-size="11.00">&lt; 2</text>
<polygon fill="#ffffff" stroke="transparent" points="470.23,-471 470.23,-489 542.23,-489 542.23,-471 470.23,-471"/>
<polygon fill="none" stroke="black" points="470.23,-471 470.23,-489 542.23,-489 542.23,-471 470.23,-471"/>
<text text-anchor="start" x="473.23" y="-477.2" font-family="Helvetica,sans-Serif" font-size="11.00">449,200 rows</text>
<polygon fill="#ffffff" stroke="transparent" points="542.23,-471 542.23,-489 564.23,-489 564.23,-471 542.23,-471"/>
<polygon fill="none" stroke="black" points="542.23,-471 542.23,-489 564.23,-489 564.23,-471 542.23,-471"/>
<text text-anchor="start" x="545.23" y="-477.2" font-family="Helvetica,sans-Serif" font-size="11.00">9 &gt;</text>
</a>
</g>
</g>
<!-- collectionunits -->
<g id="node2" class="node">
<title>collectionunits</title>
<g id="a_node2"><a xlink:href="../../tables/collectionunits.html" xlink:title="collectionunits" target="_top">
<polygon fill="#ffffff" stroke="transparent" points="277.23,-205 277.23,-373 399.23,-373 399.23,-205 277.23,-205"/>
<polygon fill="#f5f5f5" stroke="transparent" points="277.23,-351 277.23,-373 399.23,-373 399.23,-351 277.23,-351"/>
<polygon fill="none" stroke="black" points="277.23,-351 277.23,-373 399.23,-373 399.23,-351 277.23,-351"/>
<text text-anchor="start" x="282.23" y="-360.2" font-family="Helvetica,sans-Serif" font-weight="bold" font-size="11.00">collectionunits</text>
<text text-anchor="start" x="364.23" y="-359.2" font-family="Helvetica,sans-Serif" font-size="11.00">[table]</text>
<polygon fill="none" stroke="black" points="277.23,-329 277.23,-351 399.23,-351 399.23,-329 277.23,-329"/>
<image xlink:href="../../images/primaryKeys.png" width="11px" height="12px" preserveAspectRatio="xMinYMin meet" x="282.225" y="-346"/>
<text text-anchor="start" x="298.23" y="-337.2" font-family="Helvetica,sans-Serif" font-size="11.00">collectionunitid</text>
<polygon fill="#ffffff" stroke="transparent" points="277.23,-307 277.23,-329 399.23,-329 399.23,-307 277.23,-307"/>
<polygon fill="none" stroke="black" points="277.23,-307 277.23,-329 399.23,-329 399.23,-307 277.23,-307"/>
<image xlink:href="../../images/foreignKeys.png" width="11px" height="12px" preserveAspectRatio="xMinYMin meet" x="282.225" y="-324"/>
<text text-anchor="start" x="298.23" y="-315.2" font-family="Helvetica,sans-Serif" font-size="11.00">siteid</text>
<polygon fill="none" stroke="black" points="277.23,-285 277.23,-307 399.23,-307 399.23,-285 277.23,-285"/>
<image xlink:href="../../images/foreignKeys.png" width="11px" height="12px" preserveAspectRatio="xMinYMin meet" x="282.225" y="-302"/>
<text text-anchor="start" x="298.23" y="-293.2" font-family="Helvetica,sans-Serif" font-size="11.00">colltypeid</text>
<polygon fill="#ffffff" stroke="transparent" points="277.23,-263 277.23,-285 399.23,-285 399.23,-263 277.23,-263"/>
<polygon fill="none" stroke="black" points="277.23,-263 277.23,-285 399.23,-285 399.23,-263 277.23,-263"/>
<image xlink:href="../../images/foreignKeys.png" width="11px" height="12px" preserveAspectRatio="xMinYMin meet" x="282.225" y="-280"/>
<text text-anchor="start" x="298.23" y="-271.2" font-family="Helvetica,sans-Serif" font-size="11.00">depenvtid</text>
<polygon fill="none" stroke="black" points="277.23,-241 277.23,-263 399.23,-263 399.23,-241 277.23,-241"/>
<image xlink:href="../../images/foreignKeys.png" width="11px" height="12px" preserveAspectRatio="xMinYMin meet" x="282.225" y="-258"/>
<text text-anchor="start" x="298.23" y="-249.2" font-family="Helvetica,sans-Serif" font-size="11.00">substrateid</text>
<polygon fill="none" stroke="black" points="277.23,-223 277.23,-241 399.23,-241 399.23,-223 277.23,-223"/>
<text text-anchor="start" x="280.23" y="-229.2" font-family="Helvetica,sans-Serif" font-size="11.00">...</text>
<polygon fill="#ffffff" stroke="transparent" points="277.23,-205 277.23,-223 305.23,-223 305.23,-205 277.23,-205"/>
<polygon fill="none" stroke="black" points="277.23,-205 277.23,-223 305.23,-223 305.23,-205 277.23,-205"/>
<text text-anchor="start" x="280.23" y="-211.2" font-family="Helvetica,sans-Serif" font-size="11.00">&lt; 4</text>
<polygon fill="#ffffff" stroke="transparent" points="305.23,-205 305.23,-223 374.23,-223 374.23,-205 305.23,-205"/>
<polygon fill="none" stroke="black" points="305.23,-205 305.23,-223 374.23,-223 374.23,-205 305.23,-205"/>
<text text-anchor="start" x="311.23" y="-211.2" font-family="Helvetica,sans-Serif" font-size="11.00">32,827 rows</text>
<polygon fill="#ffffff" stroke="transparent" points="374.23,-205 374.23,-223 399.23,-223 399.23,-205 374.23,-205"/>
<polygon fill="none" stroke="black" points="374.23,-205 374.23,-223 399.23,-223 399.23,-205 374.23,-205"/>
<text text-anchor="start" x="380.23" y="-211.2" font-family="Helvetica,sans-Serif" font-size="11.00">5 &gt;</text>
</a>
</g>
</g>
<!-- analysisunits&#45;&gt;collectionunits -->
<g id="edge1" class="edge">
<title>analysisunits:w&#45;&gt;collectionunits:e</title>
<path fill="none" stroke="black" d="M433.05,-495.26C388.46,-474.28 467.76,-340 400.23,-340"/>
<polygon fill="black" stroke="black" points="439.37,-496.48 446.54,-501.53 443.3,-497.24 447.23,-498 447.23,-498 447.23,-498 443.3,-497.24 447.91,-494.47 439.37,-496.48 439.37,-496.48"/>
<ellipse fill="none" stroke="black" cx="436.23" cy="-495.87" rx="3.2" ry="3.2"/>
</g>
<!-- collectiontypes -->
<g id="node4" class="node">
<title>collectiontypes</title>
<g id="a_node4"><a xlink:href="../../tables/collectiontypes.html" xlink:title="collectiontypes" target="_top">
<polygon fill="#ffffff" stroke="transparent" points="66.73,-309 66.73,-367 190.73,-367 190.73,-309 66.73,-309"/>
<polygon fill="#f5f5f5" stroke="transparent" points="66.73,-345 66.73,-367 190.73,-367 190.73,-345 66.73,-345"/>
<polygon fill="none" stroke="black" points="66.73,-345 66.73,-367 190.73,-367 190.73,-345 66.73,-345"/>
<text text-anchor="start" x="71.73" y="-354.2" font-family="Helvetica,sans-Serif" font-weight="bold" font-size="11.00">collectiontypes</text>
<text text-anchor="start" x="155.73" y="-353.2" font-family="Helvetica,sans-Serif" font-size="11.00">[table]</text>
<polygon fill="none" stroke="black" points="66.73,-327 66.73,-345 190.73,-345 190.73,-327 66.73,-327"/>
<text text-anchor="start" x="69.73" y="-333.2" font-family="Helvetica,sans-Serif" font-size="11.00">...</text>
<polygon fill="#ffffff" stroke="transparent" points="66.73,-309 66.73,-327 101.73,-327 101.73,-309 66.73,-309"/>
<polygon fill="none" stroke="black" points="66.73,-309 66.73,-327 101.73,-327 101.73,-309 66.73,-309"/>
<text text-anchor="start" x="69.73" y="-315.2" font-family="Helvetica,sans-Serif" font-size="11.00"> &#160;</text>
<polygon fill="#ffffff" stroke="transparent" points="101.73,-309 101.73,-327 157.73,-327 157.73,-309 101.73,-309"/>
<polygon fill="none" stroke="black" points="101.73,-309 101.73,-327 157.73,-327 157.73,-309 101.73,-309"/>
<text text-anchor="start" x="115.73" y="-315.2" font-family="Helvetica,sans-Serif" font-size="11.00">11 rows</text>
<polygon fill="#ffffff" stroke="transparent" points="157.73,-309 157.73,-327 190.73,-327 190.73,-309 157.73,-309"/>
<polygon fill="none" stroke="black" points="157.73,-309 157.73,-327 190.73,-327 190.73,-309 157.73,-309"/>
<text text-anchor="start" x="171.73" y="-315.2" font-family="Helvetica,sans-Serif" font-size="11.00">1 &gt;</text>
</a>
</g>
</g>
<!-- collectionunits&#45;&gt;collectiontypes -->
<g id="edge3" class="edge">
<title>collectionunits:w&#45;&gt;collectiontypes:e</title>
<path fill="none" stroke="black" d="M261.61,-297.93C233.59,-305.92 227.76,-336 191.73,-336"/>
<polygon fill="black" stroke="black" points="268.29,-297.05 276.7,-299.57 272.26,-296.52 276.23,-296 276.23,-296 276.23,-296 272.26,-296.52 275.75,-292.43 268.29,-297.05 268.29,-297.05"/>
<ellipse fill="none" stroke="black" cx="265.12" cy="-297.47" rx="3.2" ry="3.2"/>
</g>
<!-- depenvttypes -->
<g id="node5" class="node">
<title>depenvttypes</title>
<g id="a_node5"><a xlink:href="../../tables/depenvttypes.html" xlink:title="depenvttypes" target="_top">
<polygon fill="#ffffff" stroke="transparent" points="29.23,-116 29.23,-270 228.23,-270 228.23,-116 29.23,-116"/>
<polygon fill="#f5f5f5" stroke="transparent" points="31.73,-246 31.73,-268 226.73,-268 226.73,-246 31.73,-246"/>
<polygon fill="none" stroke="black" points="31.73,-246 31.73,-268 226.73,-268 226.73,-246 31.73,-246"/>
<text text-anchor="start" x="36.73" y="-255.2" font-family="Helvetica,sans-Serif" font-weight="bold" font-size="11.00">depenvttypes</text>
<text text-anchor="start" x="191.73" y="-254.2" font-family="Helvetica,sans-Serif" font-size="11.00">[table]</text>
<polygon fill="none" stroke="black" points="31.73,-224 31.73,-246 152.73,-246 152.73,-224 31.73,-224"/>
<image xlink:href="../../images/primaryKeys.png" width="11px" height="12px" preserveAspectRatio="xMinYMin meet" x="36.7251" y="-241"/>
<text text-anchor="start" x="51.73" y="-232.2" font-family="Helvetica,sans-Serif" font-size="11.00">depenvtid</text>
<polygon fill="none" stroke="black" points="152.73,-224 152.73,-246 226.73,-246 226.73,-224 152.73,-224"/>
<text text-anchor="start" x="155.73" y="-232.2" font-family="Helvetica,sans-Serif" font-size="11.00">serial[10]</text>
<polygon fill="none" stroke="black" points="31.73,-202 31.73,-224 152.73,-224 152.73,-202 31.73,-202"/>
<text text-anchor="start" x="51.73" y="-210.2" font-family="Helvetica,sans-Serif" font-size="11.00">depenvt</text>
<polygon fill="none" stroke="black" points="152.73,-202 152.73,-224 226.73,-224 226.73,-202 152.73,-202"/>
<text text-anchor="start" x="155.73" y="-210.2" font-family="Helvetica,sans-Serif" font-size="11.00">varchar[255]</text>
<polygon fill="none" stroke="black" points="31.73,-180 31.73,-202 152.73,-202 152.73,-180 31.73,-180"/>
<image xlink:href="../../images/foreignKeys.png" width="11px" height="12px" preserveAspectRatio="xMinYMin meet" x="36.7251" y="-197"/>
<text text-anchor="start" x="51.73" y="-188.2" font-family="Helvetica,sans-Serif" font-size="11.00">depenvthigherid</text>
<polygon fill="none" stroke="black" points="152.73,-180 152.73,-202 226.73,-202 226.73,-180 152.73,-180"/>
<text text-anchor="start" x="155.73" y="-188.2" font-family="Helvetica,sans-Serif" font-size="11.00">int4[10]</text>
<polygon fill="none" stroke="black" points="31.73,-158 31.73,-180 152.73,-180 152.73,-158 31.73,-158"/>
<text text-anchor="start" x="51.73" y="-166.2" font-family="Helvetica,sans-Serif" font-size="11.00">recdatecreated</text>
<polygon fill="none" stroke="black" points="152.73,-158 152.73,-180 226.73,-180 226.73,-158 152.73,-158"/>
<text text-anchor="start" x="155.73" y="-166.2" font-family="Helvetica,sans-Serif" font-size="11.00">timestamp[22]</text>
<polygon fill="none" stroke="black" points="31.73,-136 31.73,-158 152.73,-158 152.73,-136 31.73,-136"/>
<text text-anchor="start" x="51.73" y="-144.2" font-family="Helvetica,sans-Serif" font-size="11.00">recdatemodified</text>
<polygon fill="none" stroke="black" points="152.73,-136 152.73,-158 226.73,-158 226.73,-136 152.73,-136"/>
<text text-anchor="start" x="155.73" y="-144.2" font-family="Helvetica,sans-Serif" font-size="11.00">timestamp[22]</text>
<polygon fill="#ffffff" stroke="transparent" points="31.73,-118 31.73,-136 77.73,-136 77.73,-118 31.73,-118"/>
<polygon fill="none" stroke="black" points="31.73,-118 31.73,-136 77.73,-136 77.73,-118 31.73,-118"/>
<text text-anchor="start" x="34.73" y="-124.2" font-family="Helvetica,sans-Serif" font-size="11.00">&lt; 1</text>
<polygon fill="#ffffff" stroke="transparent" points="77.73,-118 77.73,-136 152.73,-136 152.73,-118 77.73,-118"/>
<polygon fill="none" stroke="black" points="77.73,-118 77.73,-136 152.73,-136 152.73,-118 77.73,-118"/>
<text text-anchor="start" x="104.73" y="-124.2" font-family="Helvetica,sans-Serif" font-size="11.00">222 rows</text>
<polygon fill="#ffffff" stroke="transparent" points="152.73,-118 152.73,-136 226.73,-136 226.73,-118 152.73,-118"/>
<polygon fill="none" stroke="black" points="152.73,-118 152.73,-136 226.73,-136 226.73,-118 152.73,-118"/>
<text text-anchor="start" x="207.73" y="-124.2" font-family="Helvetica,sans-Serif" font-size="11.00">2 &gt;</text>
<polygon fill="none" stroke="black" stroke-width="2" points="30.23,-117 30.23,-269 227.23,-269 227.23,-117 30.23,-117"/>
</a>
</g>
</g>
<!-- collectionunits&#45;&gt;depenvttypes -->
<g id="edge4" class="edge">
<title>collectionunits:w&#45;&gt;depenvttypes:e</title>
<path fill="none" stroke="black" d="M262.3,-269.22C249.9,-258.8 249.33,-235 227.73,-235"/>
<polygon fill="black" stroke="black" points="268.66,-271.4 275.06,-277.4 272.44,-272.7 276.23,-274 276.23,-274 276.23,-274 272.44,-272.7 277.39,-270.6 268.66,-271.4 268.66,-271.4"/>
<ellipse fill="none" stroke="black" cx="265.63" cy="-270.36" rx="3.2" ry="3.2"/>
</g>
<!-- sites -->
<g id="node6" class="node">
<title>sites</title>
<g id="a_node6"><a xlink:href="../../tables/sites.html" xlink:title="sites" target="_top">
<polygon fill="#ffffff" stroke="transparent" points="78.23,-388 78.23,-446 179.23,-446 179.23,-388 78.23,-388"/>
<polygon fill="#f5f5f5" stroke="transparent" points="78.73,-424 78.73,-446 179.73,-446 179.73,-424 78.73,-424"/>
<polygon fill="none" stroke="black" points="78.73,-424 78.73,-446 179.73,-446 179.73,-424 78.73,-424"/>
<text text-anchor="start" x="83.73" y="-433.2" font-family="Helvetica,sans-Serif" font-weight="bold" font-size="11.00">sites</text>
<text text-anchor="start" x="144.73" y="-432.2" font-family="Helvetica,sans-Serif" font-size="11.00">[table]</text>
<polygon fill="none" stroke="black" points="78.73,-406 78.73,-424 179.73,-424 179.73,-406 78.73,-406"/>
<text text-anchor="start" x="81.73" y="-412.2" font-family="Helvetica,sans-Serif" font-size="11.00">...</text>
<polygon fill="#ffffff" stroke="transparent" points="78.73,-388 78.73,-406 91.73,-406 91.73,-388 78.73,-388"/>
<polygon fill="none" stroke="black" points="78.73,-388 78.73,-406 91.73,-406 91.73,-388 78.73,-388"/>
<text text-anchor="start" x="81.73" y="-394.2" font-family="Helvetica,sans-Serif" font-size="11.00"> &#160;</text>
<polygon fill="#ffffff" stroke="transparent" points="91.73,-388 91.73,-406 157.73,-406 157.73,-388 91.73,-388"/>
<polygon fill="none" stroke="black" points="91.73,-388 91.73,-406 157.73,-406 157.73,-388 91.73,-388"/>
<text text-anchor="start" x="94.73" y="-394.2" font-family="Helvetica,sans-Serif" font-size="11.00">21,776 rows</text>
<polygon fill="#ffffff" stroke="transparent" points="157.73,-388 157.73,-406 179.73,-406 179.73,-388 157.73,-388"/>
<polygon fill="none" stroke="black" points="157.73,-388 157.73,-406 179.73,-406 179.73,-388 157.73,-388"/>
<text text-anchor="start" x="160.73" y="-394.2" font-family="Helvetica,sans-Serif" font-size="11.00">4 &gt;</text>
</a>
</g>
</g>
<!-- collectionunits&#45;&gt;sites -->
<g id="edge5" class="edge">
<title>collectionunits:w&#45;&gt;sites:e</title>
<path fill="none" stroke="black" d="M262.17,-321.89C248.5,-332.03 254.46,-359.76 236.23,-378 215.26,-398.96 210.37,-415 180.73,-415"/>
<polygon fill="black" stroke="black" points="268.51,-320.13 277.18,-321.47 272.37,-319.07 276.23,-318 276.23,-318 276.23,-318 272.37,-319.07 275.27,-314.53 268.51,-320.13 268.51,-320.13"/>
<ellipse fill="none" stroke="black" cx="265.43" cy="-320.98" rx="3.2" ry="3.2"/>
</g>
<!-- rocktypes -->
<g id="node7" class="node">
<title>rocktypes</title>
<g id="a_node7"><a xlink:href="../../tables/rocktypes.html" xlink:title="rocktypes" target="_top">
<polygon fill="#ffffff" stroke="transparent" points="80.73,-37 80.73,-95 176.73,-95 176.73,-37 80.73,-37"/>
<polygon fill="#f5f5f5" stroke="transparent" points="80.73,-73 80.73,-95 176.73,-95 176.73,-73 80.73,-73"/>
<polygon fill="none" stroke="black" points="80.73,-73 80.73,-95 176.73,-95 176.73,-73 80.73,-73"/>
<text text-anchor="start" x="85.73" y="-82.2" font-family="Helvetica,sans-Serif" font-weight="bold" font-size="11.00">rocktypes</text>
<text text-anchor="start" x="141.73" y="-81.2" font-family="Helvetica,sans-Serif" font-size="11.00">[table]</text>
<polygon fill="none" stroke="black" points="80.73,-55 80.73,-73 176.73,-73 176.73,-55 80.73,-55"/>
<text text-anchor="start" x="83.73" y="-61.2" font-family="Helvetica,sans-Serif" font-size="11.00">...</text>
<polygon fill="#ffffff" stroke="transparent" points="80.73,-37 80.73,-55 102.73,-55 102.73,-37 80.73,-37"/>
<polygon fill="none" stroke="black" points="80.73,-37 80.73,-55 102.73,-55 102.73,-37 80.73,-37"/>
<text text-anchor="start" x="83.73" y="-43.2" font-family="Helvetica,sans-Serif" font-size="11.00">&lt; 1</text>
<polygon fill="#ffffff" stroke="transparent" points="102.73,-37 102.73,-55 153.73,-55 153.73,-37 102.73,-37"/>
<polygon fill="none" stroke="black" points="102.73,-37 102.73,-55 153.73,-55 153.73,-37 102.73,-37"/>
<text text-anchor="start" x="105.73" y="-43.2" font-family="Helvetica,sans-Serif" font-size="11.00">206 rows</text>
<polygon fill="#ffffff" stroke="transparent" points="153.73,-37 153.73,-55 176.73,-55 176.73,-37 153.73,-37"/>
<polygon fill="none" stroke="black" points="153.73,-37 153.73,-55 176.73,-55 176.73,-37 153.73,-37"/>
<text text-anchor="start" x="157.73" y="-43.2" font-family="Helvetica,sans-Serif" font-size="11.00">2 &gt;</text>
</a>
</g>
</g>
<!-- collectionunits&#45;&gt;rocktypes -->
<g id="edge6" class="edge">
<title>collectionunits:w&#45;&gt;rocktypes:e</title>
<path fill="none" stroke="black" d="M261.87,-250.14C218.97,-236.87 271.89,-155.74 236.23,-105 217.97,-79.02 209.47,-64 177.73,-64"/>
<polygon fill="black" stroke="black" points="268.29,-250.97 275.76,-255.57 272.26,-251.49 276.23,-252 276.23,-252 276.23,-252 272.26,-251.49 276.69,-248.43 268.29,-250.97 268.29,-250.97"/>
<ellipse fill="none" stroke="black" cx="265.12" cy="-250.56" rx="3.2" ry="3.2"/>
</g>
<!-- chronologies -->
<g id="node3" class="node">
<title>chronologies</title>
<g id="a_node3"><a xlink:href="../../tables/chronologies.html" xlink:title="chronologies" target="_top">
<polygon fill="#ffffff" stroke="transparent" points="449.23,-392 449.23,-450 563.23,-450 563.23,-392 449.23,-392"/>
<polygon fill="#f5f5f5" stroke="transparent" points="449.23,-428 449.23,-450 563.23,-450 563.23,-428 449.23,-428"/>
<polygon fill="none" stroke="black" points="449.23,-428 449.23,-450 563.23,-450 563.23,-428 449.23,-428"/>
<text text-anchor="start" x="454.23" y="-437.2" font-family="Helvetica,sans-Serif" font-weight="bold" font-size="11.00">chronologies</text>
<text text-anchor="start" x="528.23" y="-436.2" font-family="Helvetica,sans-Serif" font-size="11.00">[table]</text>
<polygon fill="none" stroke="black" points="449.23,-410 449.23,-428 563.23,-428 563.23,-410 449.23,-410"/>
<text text-anchor="start" x="452.23" y="-416.2" font-family="Helvetica,sans-Serif" font-size="11.00">...</text>
<polygon fill="#ffffff" stroke="transparent" points="449.23,-392 449.23,-410 473.23,-410 473.23,-392 449.23,-392"/>
<polygon fill="none" stroke="black" points="449.23,-392 449.23,-410 473.23,-410 473.23,-392 449.23,-392"/>
<text text-anchor="start" x="452.23" y="-398.2" font-family="Helvetica,sans-Serif" font-size="11.00">&lt; 3</text>
<polygon fill="#ffffff" stroke="transparent" points="473.23,-392 473.23,-410 540.23,-410 540.23,-392 473.23,-392"/>
<polygon fill="none" stroke="black" points="473.23,-392 473.23,-410 540.23,-410 540.23,-392 473.23,-392"/>
<text text-anchor="start" x="477.23" y="-398.2" font-family="Helvetica,sans-Serif" font-size="11.00">31,133 rows</text>
<polygon fill="#ffffff" stroke="transparent" points="540.23,-392 540.23,-410 563.23,-410 563.23,-392 540.23,-392"/>
<polygon fill="none" stroke="black" points="540.23,-392 540.23,-410 563.23,-410 563.23,-392 540.23,-392"/>
<text text-anchor="start" x="544.23" y="-398.2" font-family="Helvetica,sans-Serif" font-size="11.00">3 &gt;</text>
</a>
</g>
</g>
<!-- chronologies&#45;&gt;collectionunits -->
<g id="edge2" class="edge">
<title>chronologies:w&#45;&gt;collectionunits:e</title>
<path fill="none" stroke="black" d="M434.41,-414.29C415.63,-397.29 435.21,-340 400.23,-340"/>
<polygon fill="black" stroke="black" points="440.65,-416.42 447.06,-422.41 444.44,-417.71 448.23,-419 448.23,-419 448.23,-419 444.44,-417.71 449.39,-415.59 440.65,-416.42 440.65,-416.42"/>
<ellipse fill="none" stroke="black" cx="437.62" cy="-415.39" rx="3.2" ry="3.2"/>
</g>
<!-- depenvttypes&#45;&gt;depenvttypes -->
<g id="edge9" class="edge">
<title>depenvttypes:w&#45;&gt;depenvttypes:e</title>
<path fill="none" stroke="black" d="M19.53,-199.75C-19.17,-232.97 -7.43,-287 129.23,-287 278.73,-287 278.73,-266.33 226.73,-235"/>
<polygon fill="black" stroke="black" points="25.23,-195.67 33.82,-193.92 28.48,-193.33 31.73,-191 31.73,-191 31.73,-191 28.48,-193.33 29.63,-188.08 25.23,-195.67 25.23,-195.67"/>
<ellipse fill="none" stroke="black" cx="22.63" cy="-197.53" rx="3.2" ry="3.2"/>
</g>
<!-- collectors -->
<g id="node8" class="node">
<title>collectors</title>
<g id="a_node8"><a xlink:href="../../tables/collectors.html" xlink:title="collectors" target="_top">
<polygon fill="#ffffff" stroke="transparent" points="455.73,-313 455.73,-371 556.73,-371 556.73,-313 455.73,-313"/>
<polygon fill="#f5f5f5" stroke="transparent" points="456.23,-349 456.23,-371 557.23,-371 557.23,-349 456.23,-349"/>
<polygon fill="none" stroke="black" points="456.23,-349 456.23,-371 557.23,-371 557.23,-349 456.23,-349"/>
<text text-anchor="start" x="461.23" y="-358.2" font-family="Helvetica,sans-Serif" font-weight="bold" font-size="11.00">collectors</text>
<text text-anchor="start" x="522.23" y="-357.2" font-family="Helvetica,sans-Serif" font-size="11.00">[table]</text>
<polygon fill="none" stroke="black" points="456.23,-331 456.23,-349 557.23,-349 557.23,-331 456.23,-331"/>
<text text-anchor="start" x="459.23" y="-337.2" font-family="Helvetica,sans-Serif" font-size="11.00">...</text>
<polygon fill="#ffffff" stroke="transparent" points="456.23,-313 456.23,-331 478.23,-331 478.23,-313 456.23,-313"/>
<polygon fill="none" stroke="black" points="456.23,-313 456.23,-331 478.23,-331 478.23,-313 456.23,-313"/>
<text text-anchor="start" x="459.23" y="-319.2" font-family="Helvetica,sans-Serif" font-size="11.00">&lt; 2</text>
<polygon fill="#ffffff" stroke="transparent" points="478.23,-313 478.23,-331 544.23,-331 544.23,-313 478.23,-313"/>
<polygon fill="none" stroke="black" points="478.23,-313 478.23,-331 544.23,-331 544.23,-313 478.23,-313"/>
<text text-anchor="start" x="481.23" y="-319.2" font-family="Helvetica,sans-Serif" font-size="11.00">46,892 rows</text>
<polygon fill="#ffffff" stroke="transparent" points="544.23,-313 544.23,-331 557.23,-331 557.23,-313 544.23,-313"/>
<polygon fill="none" stroke="black" points="544.23,-313 544.23,-331 557.23,-331 557.23,-313 544.23,-313"/>
<text text-anchor="start" x="547.23" y="-319.2" font-family="Helvetica,sans-Serif" font-size="11.00"> &#160;</text>
</a>
</g>
</g>
<!-- collectors&#45;&gt;collectionunits -->
<g id="edge7" class="edge">
<title>collectors:w&#45;&gt;collectionunits:e</title>
<path fill="none" stroke="black" d="M440.59,-340C426.91,-340 418.94,-340 400.23,-340"/>
<polygon fill="black" stroke="black" points="447.23,-340 455.23,-343.6 451.23,-340 455.23,-340 455.23,-340 455.23,-340 451.23,-340 455.23,-336.4 447.23,-340 447.23,-340"/>
<ellipse fill="none" stroke="black" cx="444.03" cy="-340" rx="3.2" ry="3.2"/>
</g>
<!-- datasets -->
<g id="node9" class="node">
<title>datasets</title>
<g id="a_node9"><a xlink:href="../../tables/datasets.html" xlink:title="datasets" target="_top">
<polygon fill="#ffffff" stroke="transparent" points="448.23,-234 448.23,-292 564.23,-292 564.23,-234 448.23,-234"/>
<polygon fill="#f5f5f5" stroke="transparent" points="448.23,-270 448.23,-292 564.23,-292 564.23,-270 448.23,-270"/>
<polygon fill="none" stroke="black" points="448.23,-270 448.23,-292 564.23,-292 564.23,-270 448.23,-270"/>
<text text-anchor="start" x="453.23" y="-279.2" font-family="Helvetica,sans-Serif" font-weight="bold" font-size="11.00">datasets</text>
<text text-anchor="start" x="529.23" y="-278.2" font-family="Helvetica,sans-Serif" font-size="11.00">[table]</text>
<polygon fill="none" stroke="black" points="448.23,-252 448.23,-270 564.23,-270 564.23,-252 448.23,-252"/>
<text text-anchor="start" x="451.23" y="-258.2" font-family="Helvetica,sans-Serif" font-size="11.00">...</text>
<polygon fill="#ffffff" stroke="transparent" points="448.23,-234 448.23,-252 470.23,-252 470.23,-234 448.23,-234"/>
<polygon fill="none" stroke="black" points="448.23,-234 448.23,-252 470.23,-252 470.23,-234 448.23,-234"/>
<text text-anchor="start" x="451.23" y="-240.2" font-family="Helvetica,sans-Serif" font-size="11.00">&lt; 3</text>
<polygon fill="#ffffff" stroke="transparent" points="470.23,-234 470.23,-252 536.23,-252 536.23,-234 470.23,-234"/>
<polygon fill="none" stroke="black" points="470.23,-234 470.23,-252 536.23,-252 536.23,-234 470.23,-234"/>
<text text-anchor="start" x="473.23" y="-240.2" font-family="Helvetica,sans-Serif" font-size="11.00">48,328 rows</text>
<polygon fill="#ffffff" stroke="transparent" points="536.23,-234 536.23,-252 564.23,-252 564.23,-234 536.23,-234"/>
<polygon fill="none" stroke="black" points="536.23,-234 536.23,-252 564.23,-252 564.23,-234 536.23,-234"/>
<text text-anchor="start" x="539.23" y="-240.2" font-family="Helvetica,sans-Serif" font-size="11.00">13 &gt;</text>
</a>
</g>
</g>
<!-- datasets&#45;&gt;collectionunits -->
<g id="edge8" class="edge">
<title>datasets:w&#45;&gt;collectionunits:e</title>
<path fill="none" stroke="black" d="M433.53,-265.71C415.01,-282.71 435.02,-340 400.23,-340"/>
<polygon fill="black" stroke="black" points="439.66,-263.6 448.4,-264.4 443.44,-262.3 447.23,-261 447.23,-261 447.23,-261 443.44,-262.3 446.06,-257.6 439.66,-263.6 439.66,-263.6"/>
<ellipse fill="none" stroke="black" cx="436.63" cy="-264.64" rx="3.2" ry="3.2"/>
</g>
<!-- lithology -->
<g id="node10" class="node">
<title>lithology</title>
<g id="a_node10"><a xlink:href="../../tables/lithology.html" xlink:title="lithology" target="_top">
<polygon fill="#ffffff" stroke="transparent" points="455.73,-155 455.73,-213 556.73,-213 556.73,-155 455.73,-155"/>
<polygon fill="#f5f5f5" stroke="transparent" points="456.23,-191 456.23,-213 557.23,-213 557.23,-191 456.23,-191"/>
<polygon fill="none" stroke="black" points="456.23,-191 456.23,-213 557.23,-213 557.23,-191 456.23,-191"/>
<text text-anchor="start" x="461.23" y="-200.2" font-family="Helvetica,sans-Serif" font-weight="bold" font-size="11.00">lithology</text>
<text text-anchor="start" x="522.23" y="-199.2" font-family="Helvetica,sans-Serif" font-size="11.00">[table]</text>
<polygon fill="none" stroke="black" points="456.23,-173 456.23,-191 557.23,-191 557.23,-173 456.23,-173"/>
<text text-anchor="start" x="459.23" y="-179.2" font-family="Helvetica,sans-Serif" font-size="11.00">...</text>
<polygon fill="#ffffff" stroke="transparent" points="456.23,-155 456.23,-173 478.23,-173 478.23,-155 456.23,-155"/>
<polygon fill="none" stroke="black" points="456.23,-155 456.23,-173 478.23,-173 478.23,-155 456.23,-155"/>
<text text-anchor="start" x="459.23" y="-161.2" font-family="Helvetica,sans-Serif" font-size="11.00">&lt; 1</text>
<polygon fill="#ffffff" stroke="transparent" points="478.23,-155 478.23,-173 544.23,-173 544.23,-155 478.23,-155"/>
<polygon fill="none" stroke="black" points="478.23,-155 478.23,-173 544.23,-173 544.23,-155 478.23,-155"/>
<text text-anchor="start" x="481.23" y="-161.2" font-family="Helvetica,sans-Serif" font-size="11.00">30,155 rows</text>
<polygon fill="#ffffff" stroke="transparent" points="544.23,-155 544.23,-173 557.23,-173 557.23,-155 544.23,-155"/>
<polygon fill="none" stroke="black" points="544.23,-155 544.23,-173 557.23,-173 557.23,-155 544.23,-155"/>
<text text-anchor="start" x="547.23" y="-161.2" font-family="Helvetica,sans-Serif" font-size="11.00"> &#160;</text>
</a>
</g>
</g>
<!-- lithology&#45;&gt;collectionunits -->
<g id="edge10" class="edge">
<title>lithology:w&#45;&gt;collectionunits:e</title>
<path fill="none" stroke="black" d="M441.01,-184.61C394.17,-205.15 468.92,-340 400.23,-340"/>
<polygon fill="black" stroke="black" points="447.36,-183.45 455.88,-185.54 451.29,-182.72 455.23,-182 455.23,-182 455.23,-182 451.29,-182.72 454.57,-178.46 447.36,-183.45 447.36,-183.45"/>
<ellipse fill="none" stroke="black" cx="444.21" cy="-184.02" rx="3.2" ry="3.2"/>
</g>
</g>
</svg>
