<?xml version="1.0" encoding="UTF-8" standalone="no"?>
<!DOCTYPE svg PUBLIC "-//W3C//DTD SVG 1.1//EN"
 "http://www.w3.org/Graphics/SVG/1.1/DTD/svg11.dtd">
<!-- Generated by graphviz version 2.43.0 (0)
 -->
<!-- Title: oneDegreeRelationshipsDiagramImplied Pages: 1 -->
<svg width="360pt" height="296pt"
 viewBox="0.00 0.00 360.00 296.00" xmlns="http://www.w3.org/2000/svg" xmlns:xlink="http://www.w3.org/1999/xlink">
<g id="graph0" class="graph" transform="scale(1 1) rotate(0) translate(4 292)">
<title>oneDegreeRelationshipsDiagramImplied</title>
<polygon fill="#ffffff" stroke="transparent" points="-4,4 -4,-292 356,-292 356,4 -4,4"/>
<text text-anchor="middle" x="71.5" y="-7.2" font-family="Helvetica,sans-Serif" font-size="11.00">Generated by SchemaSpy</text>
<!-- dsageranges -->
<g id="node1" class="node">
<title>dsageranges</title>
<g id="a_node1"><a xlink:href="../../tables/dsageranges.html" xlink:title="dsageranges" target="_top">
<polygon fill="#ffffff" stroke="transparent" points="177,-121 177,-235 344,-235 344,-121 177,-121"/>
<polygon fill="#f5f5f5" stroke="transparent" points="179.5,-211 179.5,-233 342.5,-233 342.5,-211 179.5,-211"/>
<polygon fill="none" stroke="black" points="179.5,-211 179.5,-233 342.5,-233 342.5,-211 179.5,-211"/>
<text text-anchor="start" x="184.5" y="-220.2" font-family="Helvetica,sans-Serif" font-weight="bold" font-size="11.00">dsageranges</text>
<text text-anchor="start" x="309.5" y="-219.2" font-family="Helvetica,sans-Serif" font-size="11.00">[view]</text>
<polygon fill="none" stroke="black" points="179.5,-189 179.5,-211 276.5,-211 276.5,-189 179.5,-189"/>
<image xlink:href="../../images/foreignKeys.png" width="11px" height="12px" preserveAspectRatio="xMinYMin meet" x="184.5" y="-206"/>
<text text-anchor="start" x="199.5" y="-197.2" font-family="Helvetica,sans-Serif" font-size="11.00">datasetid</text>
<polygon fill="none" stroke="black" points="276.5,-189 276.5,-211 342.5,-211 342.5,-189 276.5,-189"/>
<text text-anchor="start" x="279.5" y="-197.2" font-family="Helvetica,sans-Serif" font-size="11.00">int4[10]</text>
<polygon fill="none" stroke="black" points="179.5,-167 179.5,-189 276.5,-189 276.5,-167 179.5,-167"/>
<text text-anchor="start" x="199.5" y="-175.2" font-family="Helvetica,sans-Serif" font-size="11.00">younger</text>
<polygon fill="none" stroke="black" points="276.5,-167 276.5,-189 342.5,-189 342.5,-167 276.5,-167"/>
<text text-anchor="start" x="279.5" y="-175.2" font-family="Helvetica,sans-Serif" font-size="11.00">float8[17,17]</text>
<polygon fill="none" stroke="black" points="179.5,-145 179.5,-167 276.5,-167 276.5,-145 179.5,-145"/>
<text text-anchor="start" x="199.5" y="-153.2" font-family="Helvetica,sans-Serif" font-size="11.00">older</text>
<polygon fill="none" stroke="black" points="276.5,-145 276.5,-167 342.5,-167 342.5,-145 276.5,-145"/>
<text text-anchor="start" x="279.5" y="-153.2" font-family="Helvetica,sans-Serif" font-size="11.00">float8[17,17]</text>
<polygon fill="none" stroke="black" points="179.5,-123 179.5,-145 276.5,-145 276.5,-123 179.5,-123"/>
<image xlink:href="../../images/foreignKeys.png" width="11px" height="12px" preserveAspectRatio="xMinYMin meet" x="184.5" y="-140"/>
<text text-anchor="start" x="199.5" y="-131.2" font-family="Helvetica,sans-Serif" font-size="11.00">agetypeid</text>
<polygon fill="none" stroke="black" points="276.5,-123 276.5,-145 342.5,-145 342.5,-123 276.5,-123"/>
<text text-anchor="start" x="279.5" y="-131.2" font-family="Helvetica,sans-Serif" font-size="11.00">int4[10]</text>
<polygon fill="none" stroke="black" stroke-width="2" points="178,-122 178,-234 343,-234 343,-122 178,-122"/>
</a>
</g>
</g>
<!-- agetypes -->
<g id="node2" class="node">
<title>agetypes</title>
<g id="a_node2"><a xlink:href="../../tables/agetypes.html" xlink:title="agetypes" target="_top">
<polygon fill="#ffffff" stroke="transparent" points="8,-37 8,-117 128,-117 128,-37 8,-37"/>
<polygon fill="#f5f5f5" stroke="transparent" points="8,-95 8,-117 128,-117 128,-95 8,-95"/>
<polygon fill="none" stroke="black" points="8,-95 8,-117 128,-117 128,-95 8,-95"/>
<text text-anchor="start" x="13" y="-104.2" font-family="Helvetica,sans-Serif" font-weight="bold" font-size="11.00">agetypes</text>
<text text-anchor="start" x="93" y="-103.2" font-family="Helvetica,sans-Serif" font-size="11.00">[table]</text>
<polygon fill="none" stroke="black" points="8,-73 8,-95 128,-95 128,-73 8,-73"/>
<image xlink:href="../../images/primaryKeys.png" width="11px" height="12px" preserveAspectRatio="xMinYMin meet" x="13" y="-90"/>
<text text-anchor="start" x="28" y="-81.2" font-family="Helvetica,sans-Serif" font-size="11.00">agetypeid</text>
<polygon fill="none" stroke="black" points="8,-55 8,-73 128,-73 128,-55 8,-55"/>
<text text-anchor="start" x="11" y="-61.2" font-family="Helvetica,sans-Serif" font-size="11.00">...</text>
<polygon fill="#ffffff" stroke="transparent" points="8,-37 8,-55 44,-55 44,-37 8,-37"/>
<polygon fill="none" stroke="black" points="8,-37 8,-55 44,-55 44,-37 8,-37"/>
<text text-anchor="start" x="11" y="-43.2" font-family="Helvetica,sans-Serif" font-size="11.00"> &#160;</text>
<polygon fill="#ffffff" stroke="transparent" points="44,-37 44,-55 94,-55 94,-37 44,-37"/>
<polygon fill="none" stroke="black" points="44,-37 44,-55 94,-55 94,-37 44,-37"/>
<text text-anchor="start" x="58" y="-43.2" font-family="Helvetica,sans-Serif" font-size="11.00">5 rows</text>
<polygon fill="#ffffff" stroke="transparent" points="94,-37 94,-55 128,-55 128,-37 94,-37"/>
<polygon fill="none" stroke="black" points="94,-37 94,-55 128,-55 128,-37 94,-37"/>
<text text-anchor="start" x="109" y="-43.2" font-family="Helvetica,sans-Serif" font-size="11.00">5 &gt;</text>
</a>
</g>
</g>
<!-- dsageranges&#45;&gt;agetypes -->
<g id="edge1" class="edge">
<title>dsageranges:w&#45;&gt;agetypes:e</title>
<path fill="none" stroke="black" stroke-dasharray="5,2" d="M164.59,-129.02C150.63,-116.38 154.16,-84 129,-84"/>
<polygon fill="black" stroke="black" points="170.97,-131.31 177.29,-137.39 174.73,-132.65 178.5,-134 178.5,-134 178.5,-134 174.73,-132.65 179.71,-130.61 170.97,-131.31 170.97,-131.31"/>
<ellipse fill="none" stroke="black" cx="167.95" cy="-130.23" rx="3.2" ry="3.2"/>
</g>
<!-- datasets -->
<g id="node3" class="node">
<title>datasets</title>
<g id="a_node3"><a xlink:href="../../tables/datasets.html" xlink:title="datasets" target="_top">
<polygon fill="#ffffff" stroke="transparent" points="8,-138 8,-284 128,-284 128,-138 8,-138"/>
<polygon fill="#f5f5f5" stroke="transparent" points="8,-262 8,-284 128,-284 128,-262 8,-262"/>
<polygon fill="none" stroke="black" points="8,-262 8,-284 128,-284 128,-262 8,-262"/>
<text text-anchor="start" x="13" y="-271.2" font-family="Helvetica,sans-Serif" font-weight="bold" font-size="11.00">datasets</text>
<text text-anchor="start" x="93" y="-270.2" font-family="Helvetica,sans-Serif" font-size="11.00">[table]</text>
<polygon fill="none" stroke="black" points="8,-240 8,-262 128,-262 128,-240 8,-240"/>
<image xlink:href="../../images/primaryKeys.png" width="11px" height="12px" preserveAspectRatio="xMinYMin meet" x="13" y="-257"/>
<text text-anchor="start" x="28" y="-248.2" font-family="Helvetica,sans-Serif" font-size="11.00">datasetid</text>
<polygon fill="#ffffff" stroke="transparent" points="8,-218 8,-240 128,-240 128,-218 8,-218"/>
<polygon fill="none" stroke="black" points="8,-218 8,-240 128,-240 128,-218 8,-218"/>
<image xlink:href="../../images/foreignKeys.png" width="11px" height="12px" preserveAspectRatio="xMinYMin meet" x="13" y="-235"/>
<text text-anchor="start" x="28" y="-226.2" font-family="Helvetica,sans-Serif" font-size="11.00">collectionunitid</text>
<polygon fill="#ffffff" stroke="transparent" points="8,-196 8,-218 128,-218 128,-196 8,-196"/>
<polygon fill="none" stroke="black" points="8,-196 8,-218 128,-218 128,-196 8,-196"/>
<image xlink:href="../../images/foreignKeys.png" width="11px" height="12px" preserveAspectRatio="xMinYMin meet" x="13" y="-213"/>
<text text-anchor="start" x="28" y="-204.2" font-family="Helvetica,sans-Serif" font-size="11.00">datasettypeid</text>
<polygon fill="none" stroke="black" points="8,-174 8,-196 128,-196 128,-174 8,-174"/>
<image xlink:href="../../images/foreignKeys.png" width="11px" height="12px" preserveAspectRatio="xMinYMin meet" x="13" y="-191"/>
<text text-anchor="start" x="28" y="-182.2" font-family="Helvetica,sans-Serif" font-size="11.00">embargoid</text>
<polygon fill="none" stroke="black" points="8,-156 8,-174 128,-174 128,-156 8,-156"/>
<text text-anchor="start" x="11" y="-162.2" font-family="Helvetica,sans-Serif" font-size="11.00">...</text>
<polygon fill="#ffffff" stroke="transparent" points="8,-138 8,-156 32,-156 32,-138 8,-138"/>
<polygon fill="none" stroke="black" points="8,-138 8,-156 32,-156 32,-138 8,-138"/>
<text text-anchor="start" x="11" y="-144.2" font-family="Helvetica,sans-Serif" font-size="11.00">&lt; 3</text>
<polygon fill="#ffffff" stroke="transparent" points="32,-138 32,-156 99,-156 99,-138 32,-138"/>
<polygon fill="none" stroke="black" points="32,-138 32,-156 99,-156 99,-138 32,-138"/>
<text text-anchor="start" x="36" y="-144.2" font-family="Helvetica,sans-Serif" font-size="11.00">49,780 rows</text>
<polygon fill="#ffffff" stroke="transparent" points="99,-138 99,-156 128,-156 128,-138 99,-138"/>
<polygon fill="none" stroke="black" points="99,-138 99,-156 128,-156 128,-138 99,-138"/>
<text text-anchor="start" x="103" y="-144.2" font-family="Helvetica,sans-Serif" font-size="11.00">17 &gt;</text>
</a>
</g>
</g>
<!-- dsageranges&#45;&gt;datasets -->
<g id="edge2" class="edge">
<title>dsageranges:w&#45;&gt;datasets:e</title>
<path fill="none" stroke="black" stroke-dasharray="5,2" d="M164.5,-205.08C150.53,-217.98 154.42,-251 129,-251"/>
<polygon fill="black" stroke="black" points="170.98,-202.73 179.73,-203.38 174.74,-201.36 178.5,-200 178.5,-200 178.5,-200 174.74,-201.36 177.27,-196.62 170.98,-202.73 170.98,-202.73"/>
<ellipse fill="none" stroke="black" cx="167.97" cy="-203.82" rx="3.2" ry="3.2"/>
</g>
</g>
</svg>
