<?xml version="1.0" encoding="UTF-8" standalone="no"?>
<!DOCTYPE svg PUBLIC "-//W3C//DTD SVG 1.1//EN"
 "http://www.w3.org/Graphics/SVG/1.1/DTD/svg11.dtd">
<!-- Generated by graphviz version 2.43.0 (0)
 -->
<!-- Title: oneDegreeRelationshipsDiagram Pages: 1 -->
<svg width="191pt" height="163pt"
 viewBox="0.00 0.00 191.00 163.00" xmlns="http://www.w3.org/2000/svg" xmlns:xlink="http://www.w3.org/1999/xlink">
<g id="graph0" class="graph" transform="scale(1 1) rotate(0) translate(4 159)">
<title>oneDegreeRelationshipsDiagram</title>
<polygon fill="#ffffff" stroke="transparent" points="-4,4 -4,-159 187,-159 187,4 -4,4"/>
<text text-anchor="middle" x="71.5" y="-7.2" font-family="Helvetica,sans-Serif" font-size="11.00">Generated by SchemaSpy</text>
<!-- dsageranges -->
<g id="node1" class="node">
<title>dsageranges</title>
<g id="a_node1"><a xlink:href="../../tables/dsageranges.html" xlink:title="dsageranges" target="_top">
<polygon fill="#ffffff" stroke="transparent" points="8,-37 8,-151 175,-151 175,-37 8,-37"/>
<polygon fill="#f5f5f5" stroke="transparent" points="10.5,-127 10.5,-149 173.5,-149 173.5,-127 10.5,-127"/>
<polygon fill="none" stroke="black" points="10.5,-127 10.5,-149 173.5,-149 173.5,-127 10.5,-127"/>
<text text-anchor="start" x="15.5" y="-136.2" font-family="Helvetica,sans-Serif" font-weight="bold" font-size="11.00">dsageranges</text>
<text text-anchor="start" x="140.5" y="-135.2" font-family="Helvetica,sans-Serif" font-size="11.00">[view]</text>
<polygon fill="none" stroke="black" points="10.5,-105 10.5,-127 107.5,-127 107.5,-105 10.5,-105"/>
<image xlink:href="../../images/foreignKeys.png" width="11px" height="12px" preserveAspectRatio="xMinYMin meet" x="15.5" y="-122"/>
<text text-anchor="start" x="30.5" y="-113.2" font-family="Helvetica,sans-Serif" font-size="11.00">datasetid</text>
<polygon fill="none" stroke="black" points="107.5,-105 107.5,-127 173.5,-127 173.5,-105 107.5,-105"/>
<text text-anchor="start" x="110.5" y="-113.2" font-family="Helvetica,sans-Serif" font-size="11.00">int4[10]</text>
<polygon fill="none" stroke="black" points="10.5,-83 10.5,-105 107.5,-105 107.5,-83 10.5,-83"/>
<text text-anchor="start" x="30.5" y="-91.2" font-family="Helvetica,sans-Serif" font-size="11.00">younger</text>
<polygon fill="none" stroke="black" points="107.5,-83 107.5,-105 173.5,-105 173.5,-83 107.5,-83"/>
<text text-anchor="start" x="110.5" y="-91.2" font-family="Helvetica,sans-Serif" font-size="11.00">float8[17,17]</text>
<polygon fill="none" stroke="black" points="10.5,-61 10.5,-83 107.5,-83 107.5,-61 10.5,-61"/>
<text text-anchor="start" x="30.5" y="-69.2" font-family="Helvetica,sans-Serif" font-size="11.00">older</text>
<polygon fill="none" stroke="black" points="107.5,-61 107.5,-83 173.5,-83 173.5,-61 107.5,-61"/>
<text text-anchor="start" x="110.5" y="-69.2" font-family="Helvetica,sans-Serif" font-size="11.00">float8[17,17]</text>
<polygon fill="none" stroke="black" points="10.5,-39 10.5,-61 107.5,-61 107.5,-39 10.5,-39"/>
<image xlink:href="../../images/foreignKeys.png" width="11px" height="12px" preserveAspectRatio="xMinYMin meet" x="15.5" y="-56"/>
<text text-anchor="start" x="30.5" y="-47.2" font-family="Helvetica,sans-Serif" font-size="11.00">agetypeid</text>
<polygon fill="none" stroke="black" points="107.5,-39 107.5,-61 173.5,-61 173.5,-39 107.5,-39"/>
<text text-anchor="start" x="110.5" y="-47.2" font-family="Helvetica,sans-Serif" font-size="11.00">int4[10]</text>
<polygon fill="none" stroke="black" stroke-width="2" points="9,-38 9,-150 174,-150 174,-38 9,-38"/>
</a>
</g>
</g>
</g>
</svg>
