<?xml version="1.0" encoding="UTF-8" standalone="no"?>
<!DOCTYPE svg PUBLIC "-//W3C//DTD SVG 1.1//EN"
 "http://www.w3.org/Graphics/SVG/1.1/DTD/svg11.dtd">
<!-- Generated by graphviz version 2.43.0 (0)
 -->
<!-- Title: oneDegreeRelationshipsDiagram Pages: 1 -->
<svg width="185pt" height="141pt"
 viewBox="0.00 0.00 185.00 141.00" xmlns="http://www.w3.org/2000/svg" xmlns:xlink="http://www.w3.org/1999/xlink">
<g id="graph0" class="graph" transform="scale(1 1) rotate(0) translate(4 137)">
<title>oneDegreeRelationshipsDiagram</title>
<polygon fill="#ffffff" stroke="transparent" points="-4,4 -4,-137 181,-137 181,4 -4,4"/>
<text text-anchor="middle" x="71.5" y="-7.2" font-family="Helvetica,sans-Serif" font-size="11.00">Generated by SchemaSpy</text>
<!-- dslinks -->
<g id="node1" class="node">
<title>dslinks</title>
<g id="a_node1"><a xlink:href="../../tables/dslinks.html" xlink:title="dslinks" target="_top">
<polygon fill="#ffffff" stroke="transparent" points="8,-37 8,-129 169,-129 169,-37 8,-37"/>
<polygon fill="#f5f5f5" stroke="transparent" points="10.5,-105 10.5,-127 167.5,-127 167.5,-105 10.5,-105"/>
<polygon fill="none" stroke="black" points="10.5,-105 10.5,-127 167.5,-127 167.5,-105 10.5,-105"/>
<text text-anchor="start" x="15.5" y="-114.2" font-family="Helvetica,sans-Serif" font-weight="bold" font-size="11.00">dslinks</text>
<text text-anchor="start" x="134.5" y="-113.2" font-family="Helvetica,sans-Serif" font-size="11.00">[view]</text>
<polygon fill="none" stroke="black" points="10.5,-83 10.5,-105 125.5,-105 125.5,-83 10.5,-83"/>
<image xlink:href="../../images/foreignKeys.png" width="11px" height="12px" preserveAspectRatio="xMinYMin meet" x="15.5" y="-100"/>
<text text-anchor="start" x="30.5" y="-91.2" font-family="Helvetica,sans-Serif" font-size="11.00">datasetid</text>
<polygon fill="none" stroke="black" points="125.5,-83 125.5,-105 167.5,-105 167.5,-83 125.5,-83"/>
<text text-anchor="start" x="128.5" y="-91.2" font-family="Helvetica,sans-Serif" font-size="11.00">int4[10]</text>
<polygon fill="none" stroke="black" points="10.5,-61 10.5,-83 125.5,-83 125.5,-61 10.5,-61"/>
<image xlink:href="../../images/foreignKeys.png" width="11px" height="12px" preserveAspectRatio="xMinYMin meet" x="15.5" y="-78"/>
<text text-anchor="start" x="30.5" y="-69.2" font-family="Helvetica,sans-Serif" font-size="11.00">collectionunitid</text>
<polygon fill="none" stroke="black" points="125.5,-61 125.5,-83 167.5,-83 167.5,-61 125.5,-61"/>
<text text-anchor="start" x="128.5" y="-69.2" font-family="Helvetica,sans-Serif" font-size="11.00">int4[10]</text>
<polygon fill="none" stroke="black" points="10.5,-39 10.5,-61 125.5,-61 125.5,-39 10.5,-39"/>
<text text-anchor="start" x="30.5" y="-47.2" font-family="Helvetica,sans-Serif" font-size="11.00">siteid</text>
<polygon fill="none" stroke="black" points="125.5,-39 125.5,-61 167.5,-61 167.5,-39 125.5,-39"/>
<text text-anchor="start" x="128.5" y="-47.2" font-family="Helvetica,sans-Serif" font-size="11.00">int4[10]</text>
<polygon fill="none" stroke="black" stroke-width="2" points="9,-38 9,-128 168,-128 168,-38 9,-38"/>
</a>
</g>
</g>
</g>
</svg>
