<?xml version="1.0" encoding="UTF-8" standalone="no"?>
<!DOCTYPE svg PUBLIC "-//W3C//DTD SVG 1.1//EN"
 "http://www.w3.org/Graphics/SVG/1.1/DTD/svg11.dtd">
<!-- Generated by graphviz version 2.43.0 (0)
 -->
<!-- Title: oneDegreeRelationshipsDiagramImplied Pages: 1 -->
<svg width="525pt" height="297pt"
 viewBox="0.00 0.00 525.00 297.00" xmlns="http://www.w3.org/2000/svg" xmlns:xlink="http://www.w3.org/1999/xlink">
<g id="graph0" class="graph" transform="scale(1 1) rotate(0) translate(4 293)">
<title>oneDegreeRelationshipsDiagramImplied</title>
<polygon fill="#ffffff" stroke="transparent" points="-4,4 -4,-293 521,-293 521,4 -4,4"/>
<text text-anchor="middle" x="71.5" y="-7.2" font-family="Helvetica,sans-Serif" font-size="11.00">Generated by SchemaSpy</text>
<!-- datasets -->
<g id="node1" class="node">
<title>datasets</title>
<g id="a_node1"><a xlink:href="../../tables/datasets.html" xlink:title="datasets" target="_top">
<polygon fill="#ffffff" stroke="transparent" points="179,-139 179,-285 299,-285 299,-139 179,-139"/>
<polygon fill="#f5f5f5" stroke="transparent" points="179,-263 179,-285 299,-285 299,-263 179,-263"/>
<polygon fill="none" stroke="black" points="179,-263 179,-285 299,-285 299,-263 179,-263"/>
<text text-anchor="start" x="184" y="-272.2" font-family="Helvetica,sans-Serif" font-weight="bold" font-size="11.00">datasets</text>
<text text-anchor="start" x="264" y="-271.2" font-family="Helvetica,sans-Serif" font-size="11.00">[table]</text>
<polygon fill="none" stroke="black" points="179,-241 179,-263 299,-263 299,-241 179,-241"/>
<image xlink:href="../../images/primaryKeys.png" width="11px" height="12px" preserveAspectRatio="xMinYMin meet" x="184" y="-258"/>
<text text-anchor="start" x="199" y="-249.2" font-family="Helvetica,sans-Serif" font-size="11.00">datasetid</text>
<polygon fill="#ffffff" stroke="transparent" points="179,-219 179,-241 299,-241 299,-219 179,-219"/>
<polygon fill="none" stroke="black" points="179,-219 179,-241 299,-241 299,-219 179,-219"/>
<image xlink:href="../../images/foreignKeys.png" width="11px" height="12px" preserveAspectRatio="xMinYMin meet" x="184" y="-236"/>
<text text-anchor="start" x="199" y="-227.2" font-family="Helvetica,sans-Serif" font-size="11.00">collectionunitid</text>
<polygon fill="#ffffff" stroke="transparent" points="179,-197 179,-219 299,-219 299,-197 179,-197"/>
<polygon fill="none" stroke="black" points="179,-197 179,-219 299,-219 299,-197 179,-197"/>
<image xlink:href="../../images/foreignKeys.png" width="11px" height="12px" preserveAspectRatio="xMinYMin meet" x="184" y="-214"/>
<text text-anchor="start" x="199" y="-205.2" font-family="Helvetica,sans-Serif" font-size="11.00">datasettypeid</text>
<polygon fill="none" stroke="black" points="179,-175 179,-197 299,-197 299,-175 179,-175"/>
<image xlink:href="../../images/foreignKeys.png" width="11px" height="12px" preserveAspectRatio="xMinYMin meet" x="184" y="-192"/>
<text text-anchor="start" x="199" y="-183.2" font-family="Helvetica,sans-Serif" font-size="11.00">embargoid</text>
<polygon fill="none" stroke="black" points="179,-157 179,-175 299,-175 299,-157 179,-157"/>
<text text-anchor="start" x="182" y="-163.2" font-family="Helvetica,sans-Serif" font-size="11.00">...</text>
<polygon fill="#ffffff" stroke="transparent" points="179,-139 179,-157 203,-157 203,-139 179,-139"/>
<polygon fill="none" stroke="black" points="179,-139 179,-157 203,-157 203,-139 179,-139"/>
<text text-anchor="start" x="182" y="-145.2" font-family="Helvetica,sans-Serif" font-size="11.00">&lt; 3</text>
<polygon fill="#ffffff" stroke="transparent" points="203,-139 203,-157 270,-157 270,-139 203,-139"/>
<polygon fill="none" stroke="black" points="203,-139 203,-157 270,-157 270,-139 203,-139"/>
<text text-anchor="start" x="207" y="-145.2" font-family="Helvetica,sans-Serif" font-size="11.00">49,780 rows</text>
<polygon fill="#ffffff" stroke="transparent" points="270,-139 270,-157 299,-157 299,-139 270,-139"/>
<polygon fill="none" stroke="black" points="270,-139 270,-157 299,-157 299,-139 270,-139"/>
<text text-anchor="start" x="274" y="-145.2" font-family="Helvetica,sans-Serif" font-size="11.00">17 &gt;</text>
</a>
</g>
</g>
<!-- collectionunits -->
<g id="node2" class="node">
<title>collectionunits</title>
<g id="a_node2"><a xlink:href="../../tables/collectionunits.html" xlink:title="collectionunits" target="_top">
<polygon fill="#ffffff" stroke="transparent" points="8,-37 8,-205 130,-205 130,-37 8,-37"/>
<polygon fill="#f5f5f5" stroke="transparent" points="8,-183 8,-205 130,-205 130,-183 8,-183"/>
<polygon fill="none" stroke="black" points="8,-183 8,-205 130,-205 130,-183 8,-183"/>
<text text-anchor="start" x="13" y="-192.2" font-family="Helvetica,sans-Serif" font-weight="bold" font-size="11.00">collectionunits</text>
<text text-anchor="start" x="95" y="-191.2" font-family="Helvetica,sans-Serif" font-size="11.00">[table]</text>
<polygon fill="none" stroke="black" points="8,-161 8,-183 130,-183 130,-161 8,-161"/>
<image xlink:href="../../images/primaryKeys.png" width="11px" height="12px" preserveAspectRatio="xMinYMin meet" x="13" y="-178"/>
<text text-anchor="start" x="29" y="-169.2" font-family="Helvetica,sans-Serif" font-size="11.00">collectionunitid</text>
<polygon fill="#ffffff" stroke="transparent" points="8,-139 8,-161 130,-161 130,-139 8,-139"/>
<polygon fill="none" stroke="black" points="8,-139 8,-161 130,-161 130,-139 8,-139"/>
<image xlink:href="../../images/foreignKeys.png" width="11px" height="12px" preserveAspectRatio="xMinYMin meet" x="13" y="-156"/>
<text text-anchor="start" x="29" y="-147.2" font-family="Helvetica,sans-Serif" font-size="11.00">siteid</text>
<polygon fill="none" stroke="black" points="8,-117 8,-139 130,-139 130,-117 8,-117"/>
<image xlink:href="../../images/foreignKeys.png" width="11px" height="12px" preserveAspectRatio="xMinYMin meet" x="13" y="-134"/>
<text text-anchor="start" x="29" y="-125.2" font-family="Helvetica,sans-Serif" font-size="11.00">colltypeid</text>
<polygon fill="#ffffff" stroke="transparent" points="8,-95 8,-117 130,-117 130,-95 8,-95"/>
<polygon fill="none" stroke="black" points="8,-95 8,-117 130,-117 130,-95 8,-95"/>
<image xlink:href="../../images/foreignKeys.png" width="11px" height="12px" preserveAspectRatio="xMinYMin meet" x="13" y="-112"/>
<text text-anchor="start" x="29" y="-103.2" font-family="Helvetica,sans-Serif" font-size="11.00">depenvtid</text>
<polygon fill="none" stroke="black" points="8,-73 8,-95 130,-95 130,-73 8,-73"/>
<image xlink:href="../../images/foreignKeys.png" width="11px" height="12px" preserveAspectRatio="xMinYMin meet" x="13" y="-90"/>
<text text-anchor="start" x="29" y="-81.2" font-family="Helvetica,sans-Serif" font-size="11.00">substrateid</text>
<polygon fill="none" stroke="black" points="8,-55 8,-73 130,-73 130,-55 8,-55"/>
<text text-anchor="start" x="11" y="-61.2" font-family="Helvetica,sans-Serif" font-size="11.00">...</text>
<polygon fill="#ffffff" stroke="transparent" points="8,-37 8,-55 36,-55 36,-37 8,-37"/>
<polygon fill="none" stroke="black" points="8,-37 8,-55 36,-55 36,-37 8,-37"/>
<text text-anchor="start" x="11" y="-43.2" font-family="Helvetica,sans-Serif" font-size="11.00">&lt; 4</text>
<polygon fill="#ffffff" stroke="transparent" points="36,-37 36,-55 105,-55 105,-37 36,-37"/>
<polygon fill="none" stroke="black" points="36,-37 36,-55 105,-55 105,-37 36,-37"/>
<text text-anchor="start" x="42" y="-43.2" font-family="Helvetica,sans-Serif" font-size="11.00">33,980 rows</text>
<polygon fill="#ffffff" stroke="transparent" points="105,-37 105,-55 130,-55 130,-37 105,-37"/>
<polygon fill="none" stroke="black" points="105,-37 105,-55 130,-55 130,-37 105,-37"/>
<text text-anchor="start" x="111" y="-43.2" font-family="Helvetica,sans-Serif" font-size="11.00">6 &gt;</text>
</a>
</g>
</g>
<!-- datasets&#45;&gt;collectionunits -->
<g id="edge1" class="edge">
<title>datasets:w&#45;&gt;collectionunits:e</title>
<path fill="none" stroke="black" d="M164.19,-224.65C150.23,-210.29 157.96,-172 131,-172"/>
<polygon fill="black" stroke="black" points="170.54,-227.11 176.7,-233.36 174.27,-228.55 178,-230 178,-230 178,-230 174.27,-228.55 179.3,-226.64 170.54,-227.11 170.54,-227.11"/>
<ellipse fill="none" stroke="black" cx="167.56" cy="-225.95" rx="3.2" ry="3.2"/>
</g>
<!-- dslinks -->
<g id="node3" class="node">
<title>dslinks</title>
<g id="a_node3"><a xlink:href="../../tables/dslinks.html" xlink:title="dslinks" target="_top">
<polygon fill="#ffffff" stroke="transparent" points="348,-137 348,-229 509,-229 509,-137 348,-137"/>
<polygon fill="#f5f5f5" stroke="transparent" points="350.5,-205 350.5,-227 507.5,-227 507.5,-205 350.5,-205"/>
<polygon fill="none" stroke="black" points="350.5,-205 350.5,-227 507.5,-227 507.5,-205 350.5,-205"/>
<text text-anchor="start" x="355.5" y="-214.2" font-family="Helvetica,sans-Serif" font-weight="bold" font-size="11.00">dslinks</text>
<text text-anchor="start" x="474.5" y="-213.2" font-family="Helvetica,sans-Serif" font-size="11.00">[view]</text>
<polygon fill="none" stroke="black" points="350.5,-183 350.5,-205 465.5,-205 465.5,-183 350.5,-183"/>
<image xlink:href="../../images/foreignKeys.png" width="11px" height="12px" preserveAspectRatio="xMinYMin meet" x="355.5" y="-200"/>
<text text-anchor="start" x="370.5" y="-191.2" font-family="Helvetica,sans-Serif" font-size="11.00">datasetid</text>
<polygon fill="none" stroke="black" points="465.5,-183 465.5,-205 507.5,-205 507.5,-183 465.5,-183"/>
<text text-anchor="start" x="468.5" y="-191.2" font-family="Helvetica,sans-Serif" font-size="11.00">int4[10]</text>
<polygon fill="none" stroke="black" points="350.5,-161 350.5,-183 465.5,-183 465.5,-161 350.5,-161"/>
<image xlink:href="../../images/foreignKeys.png" width="11px" height="12px" preserveAspectRatio="xMinYMin meet" x="355.5" y="-178"/>
<text text-anchor="start" x="370.5" y="-169.2" font-family="Helvetica,sans-Serif" font-size="11.00">collectionunitid</text>
<polygon fill="none" stroke="black" points="465.5,-161 465.5,-183 507.5,-183 507.5,-161 465.5,-161"/>
<text text-anchor="start" x="468.5" y="-169.2" font-family="Helvetica,sans-Serif" font-size="11.00">int4[10]</text>
<polygon fill="none" stroke="black" points="350.5,-139 350.5,-161 465.5,-161 465.5,-139 350.5,-139"/>
<text text-anchor="start" x="370.5" y="-147.2" font-family="Helvetica,sans-Serif" font-size="11.00">siteid</text>
<polygon fill="none" stroke="black" points="465.5,-139 465.5,-161 507.5,-161 507.5,-139 465.5,-139"/>
<text text-anchor="start" x="468.5" y="-147.2" font-family="Helvetica,sans-Serif" font-size="11.00">int4[10]</text>
<polygon fill="none" stroke="black" stroke-width="2" points="349,-138 349,-228 508,-228 508,-138 349,-138"/>
</a>
</g>
</g>
<!-- dslinks&#45;&gt;datasets -->
<g id="edge3" class="edge">
<title>dslinks:w&#45;&gt;datasets:e</title>
<path fill="none" stroke="black" stroke-dasharray="5,2" d="M335.68,-198.95C320.5,-212.97 327.8,-252 300,-252"/>
<polygon fill="black" stroke="black" points="341.97,-196.7 350.71,-197.39 345.73,-195.35 349.5,-194 349.5,-194 349.5,-194 345.73,-195.35 348.29,-190.61 341.97,-196.7 341.97,-196.7"/>
<ellipse fill="none" stroke="black" cx="338.95" cy="-197.77" rx="3.2" ry="3.2"/>
</g>
<!-- dslinks&#45;&gt;collectionunits -->
<g id="edge2" class="edge">
<title>dslinks:w&#45;&gt;collectionunits:e</title>
<path fill="none" stroke="black" stroke-dasharray="5,2" d="M335.64,-167.33C325.06,-157.92 325.98,-136.93 307,-129 251.22,-105.71 226.42,-104.86 171,-129 147.07,-139.42 157.1,-172 131,-172"/>
<polygon fill="black" stroke="black" points="341.92,-169.44 348.35,-175.41 345.71,-170.72 349.5,-172 349.5,-172 349.5,-172 345.71,-170.72 350.65,-168.59 341.92,-169.44 341.92,-169.44"/>
<ellipse fill="none" stroke="black" cx="338.89" cy="-168.42" rx="3.2" ry="3.2"/>
</g>
</g>
</svg>
