<?xml version="1.0" encoding="UTF-8" standalone="no"?>
<!DOCTYPE svg PUBLIC "-//W3C//DTD SVG 1.1//EN"
 "http://www.w3.org/Graphics/SVG/1.1/DTD/svg11.dtd">
<!-- Generated by graphviz version 2.43.0 (0)
 -->
<!-- Title: oneDegreeRelationshipsDiagram Pages: 1 -->
<svg width="168pt" height="141pt"
 viewBox="0.00 0.00 168.00 141.00" xmlns="http://www.w3.org/2000/svg" xmlns:xlink="http://www.w3.org/1999/xlink">
<g id="graph0" class="graph" transform="scale(1 1) rotate(0) translate(4 137)">
<title>oneDegreeRelationshipsDiagram</title>
<polygon fill="#ffffff" stroke="transparent" points="-4,4 -4,-137 164,-137 164,4 -4,4"/>
<text text-anchor="middle" x="71.5" y="-7.2" font-family="Helvetica,sans-Serif" font-size="11.00">Generated by SchemaSpy</text>
<!-- dssampdata -->
<g id="node1" class="node">
<title>dssampdata</title>
<g id="a_node1"><a xlink:href="../../tables/dssampdata.html" xlink:title="dssampdata" target="_top">
<polygon fill="#ffffff" stroke="transparent" points="8,-37 8,-129 152,-129 152,-37 8,-37"/>
<polygon fill="#f5f5f5" stroke="transparent" points="10,-105 10,-127 150,-127 150,-105 10,-105"/>
<polygon fill="none" stroke="black" points="10,-105 10,-127 150,-127 150,-105 10,-105"/>
<text text-anchor="start" x="15" y="-114.2" font-family="Helvetica,sans-Serif" font-weight="bold" font-size="11.00">dssampdata</text>
<text text-anchor="start" x="117" y="-113.2" font-family="Helvetica,sans-Serif" font-size="11.00">[view]</text>
<polygon fill="none" stroke="black" points="10,-83 10,-105 108,-105 108,-83 10,-83"/>
<image xlink:href="../../images/foreignKeys.png" width="11px" height="12px" preserveAspectRatio="xMinYMin meet" x="15" y="-100"/>
<text text-anchor="start" x="30" y="-91.2" font-family="Helvetica,sans-Serif" font-size="11.00">datasetid</text>
<polygon fill="none" stroke="black" points="108,-83 108,-105 150,-105 150,-83 108,-83"/>
<text text-anchor="start" x="111" y="-91.2" font-family="Helvetica,sans-Serif" font-size="11.00">int4[10]</text>
<polygon fill="none" stroke="black" points="10,-61 10,-83 108,-83 108,-61 10,-61"/>
<text text-anchor="start" x="30" y="-69.2" font-family="Helvetica,sans-Serif" font-size="11.00">samples</text>
<polygon fill="none" stroke="black" points="108,-61 108,-83 150,-83 150,-61 108,-61"/>
<text text-anchor="start" x="111" y="-69.2" font-family="Helvetica,sans-Serif" font-size="11.00">int8[19]</text>
<polygon fill="none" stroke="black" points="10,-39 10,-61 108,-61 108,-39 10,-39"/>
<text text-anchor="start" x="30" y="-47.2" font-family="Helvetica,sans-Serif" font-size="11.00">observations</text>
<polygon fill="none" stroke="black" points="108,-39 108,-61 150,-61 150,-39 108,-39"/>
<text text-anchor="start" x="111" y="-47.2" font-family="Helvetica,sans-Serif" font-size="11.00">int8[19]</text>
<polygon fill="none" stroke="black" stroke-width="2" points="9,-38 9,-128 151,-128 151,-38 9,-38"/>
</a>
</g>
</g>
</g>
</svg>
