<?xml version="1.0" encoding="UTF-8" standalone="no"?>
<!DOCTYPE svg PUBLIC "-//W3C//DTD SVG 1.1//EN"
 "http://www.w3.org/Graphics/SVG/1.1/DTD/svg11.dtd">
<!-- Generated by graphviz version 2.43.0 (0)
 -->
<!-- Title: oneDegreeRelationshipsDiagramImplied Pages: 1 -->
<svg width="337pt" height="197pt"
 viewBox="0.00 0.00 337.00 197.00" xmlns="http://www.w3.org/2000/svg" xmlns:xlink="http://www.w3.org/1999/xlink">
<g id="graph0" class="graph" transform="scale(1 1) rotate(0) translate(4 193)">
<title>oneDegreeRelationshipsDiagramImplied</title>
<polygon fill="#ffffff" stroke="transparent" points="-4,4 -4,-193 333,-193 333,4 -4,4"/>
<text text-anchor="middle" x="71.5" y="-7.2" font-family="Helvetica,sans-Serif" font-size="11.00">Generated by SchemaSpy</text>
<!-- dssampdata -->
<g id="node1" class="node">
<title>dssampdata</title>
<g id="a_node1"><a xlink:href="../../tables/dssampdata.html" xlink:title="dssampdata" target="_top">
<polygon fill="#ffffff" stroke="transparent" points="177,-93 177,-185 321,-185 321,-93 177,-93"/>
<polygon fill="#f5f5f5" stroke="transparent" points="179,-161 179,-183 319,-183 319,-161 179,-161"/>
<polygon fill="none" stroke="black" points="179,-161 179,-183 319,-183 319,-161 179,-161"/>
<text text-anchor="start" x="184" y="-170.2" font-family="Helvetica,sans-Serif" font-weight="bold" font-size="11.00">dssampdata</text>
<text text-anchor="start" x="286" y="-169.2" font-family="Helvetica,sans-Serif" font-size="11.00">[view]</text>
<polygon fill="none" stroke="black" points="179,-139 179,-161 277,-161 277,-139 179,-139"/>
<image xlink:href="../../images/foreignKeys.png" width="11px" height="12px" preserveAspectRatio="xMinYMin meet" x="184" y="-156"/>
<text text-anchor="start" x="199" y="-147.2" font-family="Helvetica,sans-Serif" font-size="11.00">datasetid</text>
<polygon fill="none" stroke="black" points="277,-139 277,-161 319,-161 319,-139 277,-139"/>
<text text-anchor="start" x="280" y="-147.2" font-family="Helvetica,sans-Serif" font-size="11.00">int4[10]</text>
<polygon fill="none" stroke="black" points="179,-117 179,-139 277,-139 277,-117 179,-117"/>
<text text-anchor="start" x="199" y="-125.2" font-family="Helvetica,sans-Serif" font-size="11.00">samples</text>
<polygon fill="none" stroke="black" points="277,-117 277,-139 319,-139 319,-117 277,-117"/>
<text text-anchor="start" x="280" y="-125.2" font-family="Helvetica,sans-Serif" font-size="11.00">int8[19]</text>
<polygon fill="none" stroke="black" points="179,-95 179,-117 277,-117 277,-95 179,-95"/>
<text text-anchor="start" x="199" y="-103.2" font-family="Helvetica,sans-Serif" font-size="11.00">observations</text>
<polygon fill="none" stroke="black" points="277,-95 277,-117 319,-117 319,-95 277,-95"/>
<text text-anchor="start" x="280" y="-103.2" font-family="Helvetica,sans-Serif" font-size="11.00">int8[19]</text>
<polygon fill="none" stroke="black" stroke-width="2" points="178,-94 178,-184 320,-184 320,-94 178,-94"/>
</a>
</g>
</g>
<!-- datasets -->
<g id="node2" class="node">
<title>datasets</title>
<g id="a_node2"><a xlink:href="../../tables/datasets.html" xlink:title="datasets" target="_top">
<polygon fill="#ffffff" stroke="transparent" points="8,-37 8,-183 128,-183 128,-37 8,-37"/>
<polygon fill="#f5f5f5" stroke="transparent" points="8,-161 8,-183 128,-183 128,-161 8,-161"/>
<polygon fill="none" stroke="black" points="8,-161 8,-183 128,-183 128,-161 8,-161"/>
<text text-anchor="start" x="13" y="-170.2" font-family="Helvetica,sans-Serif" font-weight="bold" font-size="11.00">datasets</text>
<text text-anchor="start" x="93" y="-169.2" font-family="Helvetica,sans-Serif" font-size="11.00">[table]</text>
<polygon fill="none" stroke="black" points="8,-139 8,-161 128,-161 128,-139 8,-139"/>
<image xlink:href="../../images/primaryKeys.png" width="11px" height="12px" preserveAspectRatio="xMinYMin meet" x="13" y="-156"/>
<text text-anchor="start" x="28" y="-147.2" font-family="Helvetica,sans-Serif" font-size="11.00">datasetid</text>
<polygon fill="#ffffff" stroke="transparent" points="8,-117 8,-139 128,-139 128,-117 8,-117"/>
<polygon fill="none" stroke="black" points="8,-117 8,-139 128,-139 128,-117 8,-117"/>
<image xlink:href="../../images/foreignKeys.png" width="11px" height="12px" preserveAspectRatio="xMinYMin meet" x="13" y="-134"/>
<text text-anchor="start" x="28" y="-125.2" font-family="Helvetica,sans-Serif" font-size="11.00">collectionunitid</text>
<polygon fill="#ffffff" stroke="transparent" points="8,-95 8,-117 128,-117 128,-95 8,-95"/>
<polygon fill="none" stroke="black" points="8,-95 8,-117 128,-117 128,-95 8,-95"/>
<image xlink:href="../../images/foreignKeys.png" width="11px" height="12px" preserveAspectRatio="xMinYMin meet" x="13" y="-112"/>
<text text-anchor="start" x="28" y="-103.2" font-family="Helvetica,sans-Serif" font-size="11.00">datasettypeid</text>
<polygon fill="none" stroke="black" points="8,-73 8,-95 128,-95 128,-73 8,-73"/>
<image xlink:href="../../images/foreignKeys.png" width="11px" height="12px" preserveAspectRatio="xMinYMin meet" x="13" y="-90"/>
<text text-anchor="start" x="28" y="-81.2" font-family="Helvetica,sans-Serif" font-size="11.00">embargoid</text>
<polygon fill="none" stroke="black" points="8,-55 8,-73 128,-73 128,-55 8,-55"/>
<text text-anchor="start" x="11" y="-61.2" font-family="Helvetica,sans-Serif" font-size="11.00">...</text>
<polygon fill="#ffffff" stroke="transparent" points="8,-37 8,-55 32,-55 32,-37 8,-37"/>
<polygon fill="none" stroke="black" points="8,-37 8,-55 32,-55 32,-37 8,-37"/>
<text text-anchor="start" x="11" y="-43.2" font-family="Helvetica,sans-Serif" font-size="11.00">&lt; 3</text>
<polygon fill="#ffffff" stroke="transparent" points="32,-37 32,-55 99,-55 99,-37 32,-37"/>
<polygon fill="none" stroke="black" points="32,-37 32,-55 99,-55 99,-37 32,-37"/>
<text text-anchor="start" x="36" y="-43.2" font-family="Helvetica,sans-Serif" font-size="11.00">48,328 rows</text>
<polygon fill="#ffffff" stroke="transparent" points="99,-37 99,-55 128,-55 128,-37 99,-37"/>
<polygon fill="none" stroke="black" points="99,-37 99,-55 128,-55 128,-37 99,-37"/>
<text text-anchor="start" x="103" y="-43.2" font-family="Helvetica,sans-Serif" font-size="11.00">17 &gt;</text>
</a>
</g>
</g>
<!-- dssampdata&#45;&gt;datasets -->
<g id="edge1" class="edge">
<title>dssampdata:w&#45;&gt;datasets:e</title>
<path fill="none" stroke="black" stroke-dasharray="5,2" d="M163.49,-150C152.18,-150 144.99,-150 129,-150"/>
<polygon fill="black" stroke="black" points="170,-150 178,-153.6 174,-150 178,-150 178,-150 178,-150 174,-150 178,-146.4 170,-150 170,-150"/>
<ellipse fill="none" stroke="black" cx="166.8" cy="-150" rx="3.2" ry="3.2"/>
</g>
</g>
</svg>
