<?xml version="1.0" encoding="UTF-8" standalone="no"?>
<!DOCTYPE svg PUBLIC "-//W3C//DTD SVG 1.1//EN"
 "http://www.w3.org/Graphics/SVG/1.1/DTD/svg11.dtd">
<!-- Generated by graphviz version 2.43.0 (0)
 -->
<!-- Title: oneDegreeRelationshipsDiagram Pages: 1 -->
<svg width="391pt" height="201pt"
 viewBox="0.00 0.00 391.00 201.00" xmlns="http://www.w3.org/2000/svg" xmlns:xlink="http://www.w3.org/1999/xlink">
<g id="graph0" class="graph" transform="scale(1 1) rotate(0) translate(4 197)">
<title>oneDegreeRelationshipsDiagram</title>
<polygon fill="#ffffff" stroke="transparent" points="-4,4 -4,-197 387,-197 387,4 -4,4"/>
<text text-anchor="middle" x="71.5" y="-7.2" font-family="Helvetica,sans-Serif" font-size="11.00">Generated by SchemaSpy</text>
<!-- ecolgroups -->
<g id="node1" class="node">
<title>ecolgroups</title>
<g id="a_node1"><a xlink:href="../../tables/ecolgroups.html" xlink:title="ecolgroups" target="_top">
<polygon fill="#ffffff" stroke="transparent" points="255,-65 255,-189 375,-189 375,-65 255,-65"/>
<polygon fill="#f5f5f5" stroke="transparent" points="255,-167 255,-189 375,-189 375,-167 255,-167"/>
<polygon fill="none" stroke="black" points="255,-167 255,-189 375,-189 375,-167 255,-167"/>
<text text-anchor="start" x="260" y="-176.2" font-family="Helvetica,sans-Serif" font-weight="bold" font-size="11.00">ecolgroups</text>
<text text-anchor="start" x="340" y="-175.2" font-family="Helvetica,sans-Serif" font-size="11.00">[table]</text>
<polygon fill="none" stroke="black" points="255,-145 255,-167 375,-167 375,-145 255,-145"/>
<image xlink:href="../../images/primaryKeys.png" width="11px" height="12px" preserveAspectRatio="xMinYMin meet" x="260" y="-162"/>
<text text-anchor="start" x="275" y="-153.2" font-family="Helvetica,sans-Serif" font-size="11.00">taxonid</text>
<polygon fill="none" stroke="black" points="255,-123 255,-145 375,-145 375,-123 255,-123"/>
<image xlink:href="../../images/primaryKeys.png" width="11px" height="12px" preserveAspectRatio="xMinYMin meet" x="260" y="-140"/>
<text text-anchor="start" x="275" y="-131.2" font-family="Helvetica,sans-Serif" font-size="11.00">ecolsetid</text>
<polygon fill="#ffffff" stroke="transparent" points="255,-101 255,-123 375,-123 375,-101 255,-101"/>
<polygon fill="none" stroke="black" points="255,-101 255,-123 375,-123 375,-101 255,-101"/>
<image xlink:href="../../images/foreignKeys.png" width="11px" height="12px" preserveAspectRatio="xMinYMin meet" x="260" y="-118"/>
<text text-anchor="start" x="275" y="-109.2" font-family="Helvetica,sans-Serif" font-size="11.00">ecolgroupid</text>
<polygon fill="none" stroke="black" points="255,-83 255,-101 375,-101 375,-83 255,-83"/>
<text text-anchor="start" x="258" y="-89.2" font-family="Helvetica,sans-Serif" font-size="11.00">...</text>
<polygon fill="#ffffff" stroke="transparent" points="255,-65 255,-83 286,-83 286,-65 255,-65"/>
<polygon fill="none" stroke="black" points="255,-65 255,-83 286,-83 286,-65 255,-65"/>
<text text-anchor="start" x="258" y="-71.2" font-family="Helvetica,sans-Serif" font-size="11.00">&lt; 3</text>
<polygon fill="#ffffff" stroke="transparent" points="286,-65 286,-83 357,-83 357,-65 286,-65"/>
<polygon fill="none" stroke="black" points="286,-65 286,-83 357,-83 357,-65 286,-65"/>
<text text-anchor="start" x="294" y="-71.2" font-family="Helvetica,sans-Serif" font-size="11.00">43,776 rows</text>
<polygon fill="#ffffff" stroke="transparent" points="357,-65 357,-83 375,-83 375,-65 357,-65"/>
<polygon fill="none" stroke="black" points="357,-65 357,-83 375,-83 375,-65 357,-65"/>
<text text-anchor="start" x="365" y="-71.2" font-family="Helvetica,sans-Serif" font-size="11.00"> &#160;</text>
</a>
</g>
</g>
<!-- ecolsettypes -->
<g id="node2" class="node">
<title>ecolsettypes</title>
<g id="a_node2"><a xlink:href="../../tables/ecolsettypes.html" xlink:title="ecolsettypes" target="_top">
<polygon fill="#ffffff" stroke="transparent" points="8,-37 8,-169 206,-169 206,-37 8,-37"/>
<polygon fill="#f5f5f5" stroke="transparent" points="10,-145 10,-167 204,-167 204,-145 10,-145"/>
<polygon fill="none" stroke="black" points="10,-145 10,-167 204,-167 204,-145 10,-145"/>
<text text-anchor="start" x="15" y="-154.2" font-family="Helvetica,sans-Serif" font-weight="bold" font-size="11.00">ecolsettypes</text>
<text text-anchor="start" x="169" y="-153.2" font-family="Helvetica,sans-Serif" font-size="11.00">[table]</text>
<polygon fill="none" stroke="black" points="10,-123 10,-145 130,-145 130,-123 10,-123"/>
<image xlink:href="../../images/primaryKeys.png" width="11px" height="12px" preserveAspectRatio="xMinYMin meet" x="15" y="-140"/>
<text text-anchor="start" x="30" y="-131.2" font-family="Helvetica,sans-Serif" font-size="11.00">ecolsetid</text>
<polygon fill="none" stroke="black" points="130,-123 130,-145 204,-145 204,-123 130,-123"/>
<text text-anchor="start" x="133" y="-131.2" font-family="Helvetica,sans-Serif" font-size="11.00">serial[10]</text>
<polygon fill="none" stroke="black" points="10,-101 10,-123 130,-123 130,-101 10,-101"/>
<text text-anchor="start" x="30" y="-109.2" font-family="Helvetica,sans-Serif" font-size="11.00">ecolsetname</text>
<polygon fill="none" stroke="black" points="130,-101 130,-123 204,-123 204,-101 130,-101"/>
<text text-anchor="start" x="133" y="-109.2" font-family="Helvetica,sans-Serif" font-size="11.00">varchar[64]</text>
<polygon fill="none" stroke="black" points="10,-79 10,-101 130,-101 130,-79 10,-79"/>
<text text-anchor="start" x="30" y="-87.2" font-family="Helvetica,sans-Serif" font-size="11.00">recdatecreated</text>
<polygon fill="none" stroke="black" points="130,-79 130,-101 204,-101 204,-79 130,-79"/>
<text text-anchor="start" x="133" y="-87.2" font-family="Helvetica,sans-Serif" font-size="11.00">timestamp[22]</text>
<polygon fill="none" stroke="black" points="10,-57 10,-79 130,-79 130,-57 10,-57"/>
<text text-anchor="start" x="30" y="-65.2" font-family="Helvetica,sans-Serif" font-size="11.00">recdatemodified</text>
<polygon fill="none" stroke="black" points="130,-57 130,-79 204,-79 204,-57 130,-57"/>
<text text-anchor="start" x="133" y="-65.2" font-family="Helvetica,sans-Serif" font-size="11.00">timestamp[22]</text>
<polygon fill="#ffffff" stroke="transparent" points="10,-39 10,-57 58,-57 58,-39 10,-39"/>
<polygon fill="none" stroke="black" points="10,-39 10,-57 58,-57 58,-39 10,-39"/>
<text text-anchor="start" x="13" y="-45.2" font-family="Helvetica,sans-Serif" font-size="11.00">&lt; 0</text>
<polygon fill="#ffffff" stroke="transparent" points="58,-39 58,-57 130,-57 130,-39 58,-39"/>
<polygon fill="none" stroke="black" points="58,-39 58,-57 130,-57 130,-39 58,-39"/>
<text text-anchor="start" x="88" y="-45.2" font-family="Helvetica,sans-Serif" font-size="11.00">23 rows</text>
<polygon fill="#ffffff" stroke="transparent" points="130,-39 130,-57 204,-57 204,-39 130,-39"/>
<polygon fill="none" stroke="black" points="130,-39 130,-57 204,-57 204,-39 130,-39"/>
<text text-anchor="start" x="185" y="-45.2" font-family="Helvetica,sans-Serif" font-size="11.00">1 &gt;</text>
<polygon fill="none" stroke="black" stroke-width="2" points="9,-38 9,-168 205,-168 205,-38 9,-38"/>
</a>
</g>
</g>
<!-- ecolgroups&#45;&gt;ecolsettypes -->
<g id="edge1" class="edge">
<title>ecolgroups:w&#45;&gt;ecolsettypes:e</title>
<path fill="none" stroke="black" d="M239.49,-134C228.18,-134 220.99,-134 205,-134"/>
<polygon fill="black" stroke="black" points="246,-134 254,-137.6 250,-134 254,-134 254,-134 254,-134 250,-134 254,-130.4 246,-134 246,-134"/>
<ellipse fill="none" stroke="black" cx="242.8" cy="-134" rx="3.2" ry="3.2"/>
</g>
</g>
</svg>
