<?xml version="1.0" encoding="UTF-8" standalone="no"?>
<!DOCTYPE svg PUBLIC "-//W3C//DTD SVG 1.1//EN"
 "http://www.w3.org/Graphics/SVG/1.1/DTD/svg11.dtd">
<!-- Generated by graphviz version 2.43.0 (0)
 -->
<!-- Title: twoDegreesRelationshipsDiagram Pages: 1 -->
<svg width="391pt" height="339pt"
 viewBox="0.00 0.00 391.00 339.00" xmlns="http://www.w3.org/2000/svg" xmlns:xlink="http://www.w3.org/1999/xlink">
<g id="graph0" class="graph" transform="scale(1 1) rotate(0) translate(4 335)">
<title>twoDegreesRelationshipsDiagram</title>
<polygon fill="#ffffff" stroke="transparent" points="-4,4 -4,-335 387,-335 387,4 -4,4"/>
<text text-anchor="middle" x="71.5" y="-7.2" font-family="Helvetica,sans-Serif" font-size="11.00">Generated by SchemaSpy</text>
<!-- ecolgroups -->
<g id="node1" class="node">
<title>ecolgroups</title>
<g id="a_node1"><a xlink:href="../../tables/ecolgroups.html" xlink:title="ecolgroups" target="_top">
<polygon fill="#ffffff" stroke="transparent" points="255,-148 255,-272 375,-272 375,-148 255,-148"/>
<polygon fill="#f5f5f5" stroke="transparent" points="255,-250 255,-272 375,-272 375,-250 255,-250"/>
<polygon fill="none" stroke="black" points="255,-250 255,-272 375,-272 375,-250 255,-250"/>
<text text-anchor="start" x="260" y="-259.2" font-family="Helvetica,sans-Serif" font-weight="bold" font-size="11.00">ecolgroups</text>
<text text-anchor="start" x="340" y="-258.2" font-family="Helvetica,sans-Serif" font-size="11.00">[table]</text>
<polygon fill="none" stroke="black" points="255,-228 255,-250 375,-250 375,-228 255,-228"/>
<image xlink:href="../../images/primaryKeys.png" width="11px" height="12px" preserveAspectRatio="xMinYMin meet" x="260" y="-245"/>
<text text-anchor="start" x="275" y="-236.2" font-family="Helvetica,sans-Serif" font-size="11.00">taxonid</text>
<polygon fill="none" stroke="black" points="255,-206 255,-228 375,-228 375,-206 255,-206"/>
<image xlink:href="../../images/primaryKeys.png" width="11px" height="12px" preserveAspectRatio="xMinYMin meet" x="260" y="-223"/>
<text text-anchor="start" x="275" y="-214.2" font-family="Helvetica,sans-Serif" font-size="11.00">ecolsetid</text>
<polygon fill="#ffffff" stroke="transparent" points="255,-184 255,-206 375,-206 375,-184 255,-184"/>
<polygon fill="none" stroke="black" points="255,-184 255,-206 375,-206 375,-184 255,-184"/>
<image xlink:href="../../images/foreignKeys.png" width="11px" height="12px" preserveAspectRatio="xMinYMin meet" x="260" y="-201"/>
<text text-anchor="start" x="275" y="-192.2" font-family="Helvetica,sans-Serif" font-size="11.00">ecolgroupid</text>
<polygon fill="none" stroke="black" points="255,-166 255,-184 375,-184 375,-166 255,-166"/>
<text text-anchor="start" x="258" y="-172.2" font-family="Helvetica,sans-Serif" font-size="11.00">...</text>
<polygon fill="#ffffff" stroke="transparent" points="255,-148 255,-166 286,-166 286,-148 255,-148"/>
<polygon fill="none" stroke="black" points="255,-148 255,-166 286,-166 286,-148 255,-148"/>
<text text-anchor="start" x="258" y="-154.2" font-family="Helvetica,sans-Serif" font-size="11.00">&lt; 3</text>
<polygon fill="#ffffff" stroke="transparent" points="286,-148 286,-166 357,-166 357,-148 286,-148"/>
<polygon fill="none" stroke="black" points="286,-148 286,-166 357,-166 357,-148 286,-148"/>
<text text-anchor="start" x="294" y="-154.2" font-family="Helvetica,sans-Serif" font-size="11.00">43,776 rows</text>
<polygon fill="#ffffff" stroke="transparent" points="357,-148 357,-166 375,-166 375,-148 357,-148"/>
<polygon fill="none" stroke="black" points="357,-148 357,-166 375,-166 375,-148 357,-148"/>
<text text-anchor="start" x="365" y="-154.2" font-family="Helvetica,sans-Serif" font-size="11.00"> &#160;</text>
</a>
</g>
</g>
<!-- ecolgrouptypes -->
<g id="node2" class="node">
<title>ecolgrouptypes</title>
<g id="a_node2"><a xlink:href="../../tables/ecolgrouptypes.html" xlink:title="ecolgrouptypes" target="_top">
<polygon fill="#ffffff" stroke="transparent" points="8,-37 8,-169 206,-169 206,-37 8,-37"/>
<polygon fill="#f5f5f5" stroke="transparent" points="10,-145 10,-167 204,-167 204,-145 10,-145"/>
<polygon fill="none" stroke="black" points="10,-145 10,-167 204,-167 204,-145 10,-145"/>
<text text-anchor="start" x="15" y="-154.2" font-family="Helvetica,sans-Serif" font-weight="bold" font-size="11.00">ecolgrouptypes</text>
<text text-anchor="start" x="169" y="-153.2" font-family="Helvetica,sans-Serif" font-size="11.00">[table]</text>
<polygon fill="none" stroke="black" points="10,-123 10,-145 130,-145 130,-123 10,-123"/>
<image xlink:href="../../images/primaryKeys.png" width="11px" height="12px" preserveAspectRatio="xMinYMin meet" x="15" y="-140"/>
<text text-anchor="start" x="30" y="-131.2" font-family="Helvetica,sans-Serif" font-size="11.00">ecolgroupid</text>
<polygon fill="none" stroke="black" points="130,-123 130,-145 204,-145 204,-123 130,-123"/>
<text text-anchor="start" x="133" y="-131.2" font-family="Helvetica,sans-Serif" font-size="11.00">varchar[4]</text>
<polygon fill="none" stroke="black" points="10,-101 10,-123 130,-123 130,-101 10,-101"/>
<text text-anchor="start" x="30" y="-109.2" font-family="Helvetica,sans-Serif" font-size="11.00">ecolgroup</text>
<polygon fill="none" stroke="black" points="130,-101 130,-123 204,-123 204,-101 130,-101"/>
<text text-anchor="start" x="133" y="-109.2" font-family="Helvetica,sans-Serif" font-size="11.00">varchar[64]</text>
<polygon fill="none" stroke="black" points="10,-79 10,-101 130,-101 130,-79 10,-79"/>
<text text-anchor="start" x="30" y="-87.2" font-family="Helvetica,sans-Serif" font-size="11.00">recdatecreated</text>
<polygon fill="none" stroke="black" points="130,-79 130,-101 204,-101 204,-79 130,-79"/>
<text text-anchor="start" x="133" y="-87.2" font-family="Helvetica,sans-Serif" font-size="11.00">timestamp[22]</text>
<polygon fill="none" stroke="black" points="10,-57 10,-79 130,-79 130,-57 10,-57"/>
<text text-anchor="start" x="30" y="-65.2" font-family="Helvetica,sans-Serif" font-size="11.00">recdatemodified</text>
<polygon fill="none" stroke="black" points="130,-57 130,-79 204,-79 204,-57 130,-57"/>
<text text-anchor="start" x="133" y="-65.2" font-family="Helvetica,sans-Serif" font-size="11.00">timestamp[22]</text>
<polygon fill="#ffffff" stroke="transparent" points="10,-39 10,-57 55,-57 55,-39 10,-39"/>
<polygon fill="none" stroke="black" points="10,-39 10,-57 55,-57 55,-39 10,-39"/>
<text text-anchor="start" x="13" y="-45.2" font-family="Helvetica,sans-Serif" font-size="11.00">&lt; 0</text>
<polygon fill="#ffffff" stroke="transparent" points="55,-39 55,-57 130,-57 130,-39 55,-39"/>
<polygon fill="none" stroke="black" points="55,-39 55,-57 130,-57 130,-39 55,-39"/>
<text text-anchor="start" x="82" y="-45.2" font-family="Helvetica,sans-Serif" font-size="11.00">193 rows</text>
<polygon fill="#ffffff" stroke="transparent" points="130,-39 130,-57 204,-57 204,-39 130,-39"/>
<polygon fill="none" stroke="black" points="130,-39 130,-57 204,-57 204,-39 130,-39"/>
<text text-anchor="start" x="185" y="-45.2" font-family="Helvetica,sans-Serif" font-size="11.00">1 &gt;</text>
<polygon fill="none" stroke="black" stroke-width="2" points="9,-38 9,-168 205,-168 205,-38 9,-38"/>
</a>
</g>
</g>
<!-- ecolgroups&#45;&gt;ecolgrouptypes -->
<g id="edge1" class="edge">
<title>ecolgroups:w&#45;&gt;ecolgrouptypes:e</title>
<path fill="none" stroke="black" d="M240.41,-190.21C224.65,-175.83 233.8,-134 205,-134"/>
<polygon fill="black" stroke="black" points="246.45,-192.34 252.8,-198.4 250.23,-193.67 254,-195 254,-195 254,-195 250.23,-193.67 255.2,-191.6 246.45,-192.34 246.45,-192.34"/>
<ellipse fill="none" stroke="black" cx="243.44" cy="-191.28" rx="3.2" ry="3.2"/>
</g>
<!-- ecolsettypes -->
<g id="node3" class="node">
<title>ecolsettypes</title>
<g id="a_node3"><a xlink:href="../../tables/ecolsettypes.html" xlink:title="ecolsettypes" target="_top">
<polygon fill="#ffffff" stroke="transparent" points="51.5,-190 51.5,-248 162.5,-248 162.5,-190 51.5,-190"/>
<polygon fill="#f5f5f5" stroke="transparent" points="52,-226 52,-248 163,-248 163,-226 52,-226"/>
<polygon fill="none" stroke="black" points="52,-226 52,-248 163,-248 163,-226 52,-226"/>
<text text-anchor="start" x="57" y="-235.2" font-family="Helvetica,sans-Serif" font-weight="bold" font-size="11.00">ecolsettypes</text>
<text text-anchor="start" x="128" y="-234.2" font-family="Helvetica,sans-Serif" font-size="11.00">[table]</text>
<polygon fill="none" stroke="black" points="52,-208 52,-226 163,-226 163,-208 52,-208"/>
<text text-anchor="start" x="55" y="-214.2" font-family="Helvetica,sans-Serif" font-size="11.00">...</text>
<polygon fill="#ffffff" stroke="transparent" points="52,-190 52,-208 80,-208 80,-190 52,-190"/>
<polygon fill="none" stroke="black" points="52,-190 52,-208 80,-208 80,-190 52,-190"/>
<text text-anchor="start" x="55" y="-196.2" font-family="Helvetica,sans-Serif" font-size="11.00"> &#160;</text>
<polygon fill="#ffffff" stroke="transparent" points="80,-190 80,-208 133,-208 133,-190 80,-190"/>
<polygon fill="none" stroke="black" points="80,-190 80,-208 133,-208 133,-190 80,-190"/>
<text text-anchor="start" x="91" y="-196.2" font-family="Helvetica,sans-Serif" font-size="11.00">23 rows</text>
<polygon fill="#ffffff" stroke="transparent" points="133,-190 133,-208 163,-208 163,-190 133,-190"/>
<polygon fill="none" stroke="black" points="133,-190 133,-208 163,-208 163,-190 133,-190"/>
<text text-anchor="start" x="144" y="-196.2" font-family="Helvetica,sans-Serif" font-size="11.00">1 &gt;</text>
</a>
</g>
</g>
<!-- ecolgroups&#45;&gt;ecolsettypes -->
<g id="edge2" class="edge">
<title>ecolgroups:w&#45;&gt;ecolsettypes:e</title>
<path fill="none" stroke="black" d="M239.51,-217C210.81,-217 198.69,-217 164,-217"/>
<polygon fill="black" stroke="black" points="246,-217 254,-220.6 250,-217 254,-217 254,-217 254,-217 250,-217 254,-213.4 246,-217 246,-217"/>
<ellipse fill="none" stroke="black" cx="242.8" cy="-217" rx="3.2" ry="3.2"/>
</g>
<!-- taxa -->
<g id="node4" class="node">
<title>taxa</title>
<g id="a_node4"><a xlink:href="../../tables/taxa.html" xlink:title="taxa" target="_top">
<polygon fill="#ffffff" stroke="transparent" points="49,-269 49,-327 165,-327 165,-269 49,-269"/>
<polygon fill="#f5f5f5" stroke="transparent" points="49,-305 49,-327 165,-327 165,-305 49,-305"/>
<polygon fill="none" stroke="black" points="49,-305 49,-327 165,-327 165,-305 49,-305"/>
<text text-anchor="start" x="54" y="-314.2" font-family="Helvetica,sans-Serif" font-weight="bold" font-size="11.00">taxa</text>
<text text-anchor="start" x="130" y="-313.2" font-family="Helvetica,sans-Serif" font-size="11.00">[table]</text>
<polygon fill="none" stroke="black" points="49,-287 49,-305 165,-305 165,-287 49,-287"/>
<text text-anchor="start" x="52" y="-293.2" font-family="Helvetica,sans-Serif" font-size="11.00">...</text>
<polygon fill="#ffffff" stroke="transparent" points="49,-269 49,-287 71,-287 71,-269 49,-269"/>
<polygon fill="none" stroke="black" points="49,-269 49,-287 71,-287 71,-269 49,-269"/>
<text text-anchor="start" x="52" y="-275.2" font-family="Helvetica,sans-Serif" font-size="11.00">&lt; 4</text>
<polygon fill="#ffffff" stroke="transparent" points="71,-269 71,-287 137,-287 137,-269 71,-269"/>
<polygon fill="none" stroke="black" points="71,-269 71,-287 137,-287 137,-269 71,-269"/>
<text text-anchor="start" x="74" y="-275.2" font-family="Helvetica,sans-Serif" font-size="11.00">46,322 rows</text>
<polygon fill="#ffffff" stroke="transparent" points="137,-269 137,-287 165,-287 165,-269 137,-269"/>
<polygon fill="none" stroke="black" points="137,-269 137,-287 165,-287 165,-269 137,-269"/>
<text text-anchor="start" x="140" y="-275.2" font-family="Helvetica,sans-Serif" font-size="11.00">17 &gt;</text>
</a>
</g>
</g>
<!-- ecolgroups&#45;&gt;taxa -->
<g id="edge3" class="edge">
<title>ecolgroups:w&#45;&gt;taxa:e</title>
<path fill="none" stroke="black" d="M239.58,-241.16C207.91,-251.58 207.14,-296 166,-296"/>
<polygon fill="black" stroke="black" points="246.09,-240.19 254.53,-242.56 250.04,-239.59 254,-239 254,-239 254,-239 250.04,-239.59 253.47,-235.44 246.09,-240.19 246.09,-240.19"/>
<ellipse fill="none" stroke="black" cx="242.92" cy="-240.66" rx="3.2" ry="3.2"/>
</g>
</g>
</svg>
