<?xml version="1.0" encoding="UTF-8" standalone="no"?>
<!DOCTYPE svg PUBLIC "-//W3C//DTD SVG 1.1//EN"
 "http://www.w3.org/Graphics/SVG/1.1/DTD/svg11.dtd">
<!-- Generated by graphviz version 2.43.0 (0)
 -->
<!-- Title: oneDegreeRelationshipsDiagram Pages: 1 -->
<svg width="397pt" height="441pt"
 viewBox="0.00 0.00 397.00 441.00" xmlns="http://www.w3.org/2000/svg" xmlns:xlink="http://www.w3.org/1999/xlink">
<g id="graph0" class="graph" transform="scale(1 1) rotate(0) translate(4 437)">
<title>oneDegreeRelationshipsDiagram</title>
<polygon fill="#ffffff" stroke="transparent" points="-4,4 -4,-437 393,-437 393,4 -4,4"/>
<text text-anchor="middle" x="71.5" y="-7.2" font-family="Helvetica,sans-Serif" font-size="11.00">Generated by SchemaSpy</text>
<!-- ecolgroups -->
<g id="node1" class="node">
<title>ecolgroups</title>
<g id="a_node1"><a xlink:href="../../tables/ecolgroups.html" xlink:title="ecolgroups" target="_top">
<polygon fill="#ffffff" stroke="transparent" points="183,-88 183,-242 381,-242 381,-88 183,-88"/>
<polygon fill="#f5f5f5" stroke="transparent" points="185,-218 185,-240 379,-240 379,-218 185,-218"/>
<polygon fill="none" stroke="black" points="185,-218 185,-240 379,-240 379,-218 185,-218"/>
<text text-anchor="start" x="190" y="-227.2" font-family="Helvetica,sans-Serif" font-weight="bold" font-size="11.00">ecolgroups</text>
<text text-anchor="start" x="344" y="-226.2" font-family="Helvetica,sans-Serif" font-size="11.00">[table]</text>
<polygon fill="none" stroke="black" points="185,-196 185,-218 305,-218 305,-196 185,-196"/>
<image xlink:href="../../images/primaryKeys.png" width="11px" height="12px" preserveAspectRatio="xMinYMin meet" x="190" y="-213"/>
<text text-anchor="start" x="205" y="-204.2" font-family="Helvetica,sans-Serif" font-size="11.00">taxonid</text>
<polygon fill="none" stroke="black" points="305,-196 305,-218 379,-218 379,-196 305,-196"/>
<text text-anchor="start" x="308" y="-204.2" font-family="Helvetica,sans-Serif" font-size="11.00">int4[10]</text>
<polygon fill="none" stroke="black" points="185,-174 185,-196 305,-196 305,-174 185,-174"/>
<image xlink:href="../../images/primaryKeys.png" width="11px" height="12px" preserveAspectRatio="xMinYMin meet" x="190" y="-191"/>
<text text-anchor="start" x="205" y="-182.2" font-family="Helvetica,sans-Serif" font-size="11.00">ecolsetid</text>
<polygon fill="none" stroke="black" points="305,-174 305,-196 379,-196 379,-174 305,-174"/>
<text text-anchor="start" x="308" y="-182.2" font-family="Helvetica,sans-Serif" font-size="11.00">int4[10]</text>
<polygon fill="#ffffff" stroke="transparent" points="185,-152 185,-174 305,-174 305,-152 185,-152"/>
<polygon fill="none" stroke="black" points="185,-152 185,-174 305,-174 305,-152 185,-152"/>
<image xlink:href="../../images/foreignKeys.png" width="11px" height="12px" preserveAspectRatio="xMinYMin meet" x="190" y="-169"/>
<text text-anchor="start" x="205" y="-160.2" font-family="Helvetica,sans-Serif" font-size="11.00">ecolgroupid</text>
<polygon fill="none" stroke="black" points="305,-152 305,-174 379,-174 379,-152 305,-152"/>
<text text-anchor="start" x="308" y="-160.2" font-family="Helvetica,sans-Serif" font-size="11.00">varchar[4]</text>
<polygon fill="none" stroke="black" points="185,-130 185,-152 305,-152 305,-130 185,-130"/>
<text text-anchor="start" x="205" y="-138.2" font-family="Helvetica,sans-Serif" font-size="11.00">recdatecreated</text>
<polygon fill="none" stroke="black" points="305,-130 305,-152 379,-152 379,-130 305,-130"/>
<text text-anchor="start" x="308" y="-138.2" font-family="Helvetica,sans-Serif" font-size="11.00">timestamp[22]</text>
<polygon fill="none" stroke="black" points="185,-108 185,-130 305,-130 305,-108 185,-108"/>
<text text-anchor="start" x="205" y="-116.2" font-family="Helvetica,sans-Serif" font-size="11.00">recdatemodified</text>
<polygon fill="none" stroke="black" points="305,-108 305,-130 379,-130 379,-108 305,-108"/>
<text text-anchor="start" x="308" y="-116.2" font-family="Helvetica,sans-Serif" font-size="11.00">timestamp[22]</text>
<polygon fill="#ffffff" stroke="transparent" points="185,-90 185,-108 223,-108 223,-90 185,-90"/>
<polygon fill="none" stroke="black" points="185,-90 185,-108 223,-108 223,-90 185,-90"/>
<text text-anchor="start" x="188" y="-96.2" font-family="Helvetica,sans-Serif" font-size="11.00">&lt; 3</text>
<polygon fill="#ffffff" stroke="transparent" points="223,-90 223,-108 305,-108 305,-90 223,-90"/>
<polygon fill="none" stroke="black" points="223,-90 223,-108 305,-108 305,-90 223,-90"/>
<text text-anchor="start" x="242" y="-96.2" font-family="Helvetica,sans-Serif" font-size="11.00">44,734 rows</text>
<polygon fill="#ffffff" stroke="transparent" points="305,-90 305,-108 379,-108 379,-90 305,-90"/>
<polygon fill="none" stroke="black" points="305,-90 305,-108 379,-108 379,-90 305,-90"/>
<text text-anchor="start" x="360" y="-96.2" font-family="Helvetica,sans-Serif" font-size="11.00">0 &gt;</text>
<polygon fill="none" stroke="black" stroke-width="2" points="184,-89 184,-241 380,-241 380,-89 184,-89"/>
</a>
</g>
</g>
<!-- ecolgrouptypes -->
<g id="node2" class="node">
<title>ecolgrouptypes</title>
<g id="a_node2"><a xlink:href="../../tables/ecolgrouptypes.html" xlink:title="ecolgrouptypes" target="_top">
<polygon fill="#ffffff" stroke="transparent" points="8,-37 8,-117 134,-117 134,-37 8,-37"/>
<polygon fill="#f5f5f5" stroke="transparent" points="8,-95 8,-117 134,-117 134,-95 8,-95"/>
<polygon fill="none" stroke="black" points="8,-95 8,-117 134,-117 134,-95 8,-95"/>
<text text-anchor="start" x="13" y="-104.2" font-family="Helvetica,sans-Serif" font-weight="bold" font-size="11.00">ecolgrouptypes</text>
<text text-anchor="start" x="99" y="-103.2" font-family="Helvetica,sans-Serif" font-size="11.00">[table]</text>
<polygon fill="none" stroke="black" points="8,-73 8,-95 134,-95 134,-73 8,-73"/>
<image xlink:href="../../images/primaryKeys.png" width="11px" height="12px" preserveAspectRatio="xMinYMin meet" x="13" y="-90"/>
<text text-anchor="start" x="31" y="-81.2" font-family="Helvetica,sans-Serif" font-size="11.00">ecolgroupid</text>
<polygon fill="none" stroke="black" points="8,-55 8,-73 134,-73 134,-55 8,-55"/>
<text text-anchor="start" x="11" y="-61.2" font-family="Helvetica,sans-Serif" font-size="11.00">...</text>
<polygon fill="#ffffff" stroke="transparent" points="8,-37 8,-55 41,-55 41,-37 8,-37"/>
<polygon fill="none" stroke="black" points="8,-37 8,-55 41,-55 41,-37 8,-37"/>
<text text-anchor="start" x="11" y="-43.2" font-family="Helvetica,sans-Serif" font-size="11.00"> &#160;</text>
<polygon fill="#ffffff" stroke="transparent" points="41,-37 41,-55 102,-55 102,-37 41,-37"/>
<polygon fill="none" stroke="black" points="41,-37 41,-55 102,-55 102,-37 41,-37"/>
<text text-anchor="start" x="54" y="-43.2" font-family="Helvetica,sans-Serif" font-size="11.00">193 rows</text>
<polygon fill="#ffffff" stroke="transparent" points="102,-37 102,-55 134,-55 134,-37 102,-37"/>
<polygon fill="none" stroke="black" points="102,-37 102,-55 134,-55 134,-37 102,-37"/>
<text text-anchor="start" x="115" y="-43.2" font-family="Helvetica,sans-Serif" font-size="11.00">1 &gt;</text>
</a>
</g>
</g>
<!-- ecolgroups&#45;&gt;ecolgrouptypes -->
<g id="edge1" class="edge">
<title>ecolgroups:w&#45;&gt;ecolgrouptypes:e</title>
<path fill="none" stroke="black" d="M170.07,-158.29C151.02,-141.29 170.18,-84 135,-84"/>
<polygon fill="black" stroke="black" points="176.42,-160.44 182.85,-166.41 180.21,-161.72 184,-163 184,-163 184,-163 180.21,-161.72 185.15,-159.59 176.42,-160.44 176.42,-160.44"/>
<ellipse fill="none" stroke="black" cx="173.39" cy="-159.42" rx="3.2" ry="3.2"/>
</g>
<!-- ecolsettypes -->
<g id="node3" class="node">
<title>ecolsettypes</title>
<g id="a_node3"><a xlink:href="../../tables/ecolsettypes.html" xlink:title="ecolsettypes" target="_top">
<polygon fill="#ffffff" stroke="transparent" points="11,-138 11,-218 131,-218 131,-138 11,-138"/>
<polygon fill="#f5f5f5" stroke="transparent" points="11,-196 11,-218 131,-218 131,-196 11,-196"/>
<polygon fill="none" stroke="black" points="11,-196 11,-218 131,-218 131,-196 11,-196"/>
<text text-anchor="start" x="16" y="-205.2" font-family="Helvetica,sans-Serif" font-weight="bold" font-size="11.00">ecolsettypes</text>
<text text-anchor="start" x="96" y="-204.2" font-family="Helvetica,sans-Serif" font-size="11.00">[table]</text>
<polygon fill="none" stroke="black" points="11,-174 11,-196 131,-196 131,-174 11,-174"/>
<image xlink:href="../../images/primaryKeys.png" width="11px" height="12px" preserveAspectRatio="xMinYMin meet" x="16" y="-191"/>
<text text-anchor="start" x="31" y="-182.2" font-family="Helvetica,sans-Serif" font-size="11.00">ecolsetid</text>
<polygon fill="none" stroke="black" points="11,-156 11,-174 131,-174 131,-156 11,-156"/>
<text text-anchor="start" x="14" y="-162.2" font-family="Helvetica,sans-Serif" font-size="11.00">...</text>
<polygon fill="#ffffff" stroke="transparent" points="11,-138 11,-156 44,-156 44,-138 11,-138"/>
<polygon fill="none" stroke="black" points="11,-138 11,-156 44,-156 44,-138 11,-138"/>
<text text-anchor="start" x="14" y="-144.2" font-family="Helvetica,sans-Serif" font-size="11.00"> &#160;</text>
<polygon fill="#ffffff" stroke="transparent" points="44,-138 44,-156 99,-156 99,-138 44,-138"/>
<polygon fill="none" stroke="black" points="44,-138 44,-156 99,-156 99,-138 44,-138"/>
<text text-anchor="start" x="57" y="-144.2" font-family="Helvetica,sans-Serif" font-size="11.00">23 rows</text>
<polygon fill="#ffffff" stroke="transparent" points="99,-138 99,-156 131,-156 131,-138 99,-138"/>
<polygon fill="none" stroke="black" points="99,-138 99,-156 131,-156 131,-138 99,-138"/>
<text text-anchor="start" x="112" y="-144.2" font-family="Helvetica,sans-Serif" font-size="11.00">1 &gt;</text>
</a>
</g>
</g>
<!-- ecolgroups&#45;&gt;ecolsettypes -->
<g id="edge2" class="edge">
<title>ecolgroups:w&#45;&gt;ecolsettypes:e</title>
<path fill="none" stroke="black" d="M169.38,-185C156.92,-185 149.33,-185 132,-185"/>
<polygon fill="black" stroke="black" points="176,-185 184,-188.6 180,-185 184,-185 184,-185 184,-185 180,-185 184,-181.4 176,-185 176,-185"/>
<ellipse fill="none" stroke="black" cx="172.8" cy="-185" rx="3.2" ry="3.2"/>
</g>
<!-- taxa -->
<g id="node4" class="node">
<title>taxa</title>
<g id="a_node4"><a xlink:href="../../tables/taxa.html" xlink:title="taxa" target="_top">
<polygon fill="#ffffff" stroke="transparent" points="11,-239 11,-429 131,-429 131,-239 11,-239"/>
<polygon fill="#f5f5f5" stroke="transparent" points="11,-407 11,-429 131,-429 131,-407 11,-407"/>
<polygon fill="none" stroke="black" points="11,-407 11,-429 131,-429 131,-407 11,-407"/>
<text text-anchor="start" x="16" y="-416.2" font-family="Helvetica,sans-Serif" font-weight="bold" font-size="11.00">taxa</text>
<text text-anchor="start" x="96" y="-415.2" font-family="Helvetica,sans-Serif" font-size="11.00">[table]</text>
<polygon fill="none" stroke="black" points="11,-385 11,-407 131,-407 131,-385 11,-385"/>
<image xlink:href="../../images/primaryKeys.png" width="11px" height="12px" preserveAspectRatio="xMinYMin meet" x="16" y="-402"/>
<text text-anchor="start" x="31" y="-393.2" font-family="Helvetica,sans-Serif" font-size="11.00">taxonid</text>
<polygon fill="#ffffff" stroke="transparent" points="11,-363 11,-385 131,-385 131,-363 11,-363"/>
<polygon fill="none" stroke="black" points="11,-363 11,-385 131,-385 131,-363 11,-363"/>
<text text-anchor="start" x="31" y="-371.2" font-family="Helvetica,sans-Serif" font-size="11.00">taxonname</text>
<polygon fill="none" stroke="black" points="11,-341 11,-363 131,-363 131,-341 11,-341"/>
<image xlink:href="../../images/foreignKeys.png" width="11px" height="12px" preserveAspectRatio="xMinYMin meet" x="16" y="-358"/>
<text text-anchor="start" x="31" y="-349.2" font-family="Helvetica,sans-Serif" font-size="11.00">highertaxonid</text>
<polygon fill="#ffffff" stroke="transparent" points="11,-319 11,-341 131,-341 131,-319 11,-319"/>
<polygon fill="none" stroke="black" points="11,-319 11,-341 131,-341 131,-319 11,-319"/>
<image xlink:href="../../images/foreignKeys.png" width="11px" height="12px" preserveAspectRatio="xMinYMin meet" x="16" y="-336"/>
<text text-anchor="start" x="31" y="-327.2" font-family="Helvetica,sans-Serif" font-size="11.00">taxagroupid</text>
<polygon fill="none" stroke="black" points="11,-297 11,-319 131,-319 131,-297 11,-297"/>
<image xlink:href="../../images/foreignKeys.png" width="11px" height="12px" preserveAspectRatio="xMinYMin meet" x="16" y="-314"/>
<text text-anchor="start" x="31" y="-305.2" font-family="Helvetica,sans-Serif" font-size="11.00">publicationid</text>
<polygon fill="none" stroke="black" points="11,-275 11,-297 131,-297 131,-275 11,-275"/>
<image xlink:href="../../images/foreignKeys.png" width="11px" height="12px" preserveAspectRatio="xMinYMin meet" x="16" y="-292"/>
<text text-anchor="start" x="31" y="-283.2" font-family="Helvetica,sans-Serif" font-size="11.00">validatorid</text>
<polygon fill="none" stroke="black" points="11,-257 11,-275 131,-275 131,-257 11,-257"/>
<text text-anchor="start" x="14" y="-263.2" font-family="Helvetica,sans-Serif" font-size="11.00">...</text>
<polygon fill="#ffffff" stroke="transparent" points="11,-239 11,-257 35,-257 35,-239 11,-239"/>
<polygon fill="none" stroke="black" points="11,-239 11,-257 35,-257 35,-239 11,-239"/>
<text text-anchor="start" x="14" y="-245.2" font-family="Helvetica,sans-Serif" font-size="11.00">&lt; 4</text>
<polygon fill="#ffffff" stroke="transparent" points="35,-239 35,-257 102,-257 102,-239 35,-239"/>
<polygon fill="none" stroke="black" points="35,-239 35,-257 102,-257 102,-239 35,-239"/>
<text text-anchor="start" x="39" y="-245.2" font-family="Helvetica,sans-Serif" font-size="11.00">47,314 rows</text>
<polygon fill="#ffffff" stroke="transparent" points="102,-239 102,-257 131,-257 131,-239 102,-239"/>
<polygon fill="none" stroke="black" points="102,-239 102,-257 131,-257 131,-239 102,-239"/>
<text text-anchor="start" x="106" y="-245.2" font-family="Helvetica,sans-Serif" font-size="11.00">17 &gt;</text>
</a>
</g>
</g>
<!-- ecolgroups&#45;&gt;taxa -->
<g id="edge3" class="edge">
<title>ecolgroups:w&#45;&gt;taxa:e</title>
<path fill="none" stroke="black" d="M169.65,-209.25C111.77,-230.58 213.51,-396 132,-396"/>
<polygon fill="black" stroke="black" points="176.1,-208.24 184.56,-210.56 180.05,-207.62 184,-207 184,-207 184,-207 180.05,-207.62 183.44,-203.44 176.1,-208.24 176.1,-208.24"/>
<ellipse fill="none" stroke="black" cx="172.94" cy="-208.74" rx="3.2" ry="3.2"/>
</g>
</g>
</svg>
