<?xml version="1.0" encoding="UTF-8" standalone="no"?>
<!DOCTYPE svg PUBLIC "-//W3C//DTD SVG 1.1//EN"
 "http://www.w3.org/Graphics/SVG/1.1/DTD/svg11.dtd">
<!-- Generated by graphviz version 2.43.0 (0)
 -->
<!-- Title: oneDegreeRelationshipsDiagram Pages: 1 -->
<svg width="456pt" height="617pt"
 viewBox="0.00 0.00 456.00 617.00" xmlns="http://www.w3.org/2000/svg" xmlns:xlink="http://www.w3.org/1999/xlink">
<g id="graph0" class="graph" transform="scale(1 1) rotate(0) translate(4 613)">
<title>oneDegreeRelationshipsDiagram</title>
<polygon fill="#ffffff" stroke="transparent" points="-4,4 -4,-613 452,-613 452,4 -4,4"/>
<text text-anchor="middle" x="71.5" y="-7.2" font-family="Helvetica,sans-Serif" font-size="11.00">Generated by SchemaSpy</text>
<!-- elementtaxagroupportions -->
<g id="node1" class="node">
<title>elementtaxagroupportions</title>
<g id="a_node1"><a xlink:href="../../tables/elementtaxagroupportions.html" xlink:title="elementtaxagroupportions" target="_top">
<polygon fill="#ffffff" stroke="transparent" points="256,-503 256,-605 440,-605 440,-503 256,-503"/>
<polygon fill="#f5f5f5" stroke="transparent" points="256,-583 256,-605 440,-605 440,-583 256,-583"/>
<polygon fill="none" stroke="black" points="256,-583 256,-605 440,-605 440,-583 256,-583"/>
<text text-anchor="start" x="261" y="-592.2" font-family="Helvetica,sans-Serif" font-weight="bold" font-size="11.00">elementtaxagroupportions</text>
<text text-anchor="start" x="405" y="-591.2" font-family="Helvetica,sans-Serif" font-size="11.00">[table]</text>
<polygon fill="none" stroke="black" points="256,-561 256,-583 440,-583 440,-561 256,-561"/>
<image xlink:href="../../images/primaryKeys.png" width="11px" height="12px" preserveAspectRatio="xMinYMin meet" x="261" y="-578"/>
<text text-anchor="start" x="276" y="-569.2" font-family="Helvetica,sans-Serif" font-size="11.00">elementtaxagroupid</text>
<polygon fill="none" stroke="black" points="256,-539 256,-561 440,-561 440,-539 256,-539"/>
<image xlink:href="../../images/primaryKeys.png" width="11px" height="12px" preserveAspectRatio="xMinYMin meet" x="261" y="-556"/>
<text text-anchor="start" x="276" y="-547.2" font-family="Helvetica,sans-Serif" font-size="11.00">portionid</text>
<polygon fill="none" stroke="black" points="256,-521 256,-539 440,-539 440,-521 256,-521"/>
<text text-anchor="start" x="259" y="-527.2" font-family="Helvetica,sans-Serif" font-size="11.00">...</text>
<polygon fill="#ffffff" stroke="transparent" points="256,-503 256,-521 327,-521 327,-503 256,-503"/>
<polygon fill="none" stroke="black" points="256,-503 256,-521 327,-521 327,-503 256,-503"/>
<text text-anchor="start" x="259" y="-509.2" font-family="Helvetica,sans-Serif" font-size="11.00">&lt; 2</text>
<polygon fill="#ffffff" stroke="transparent" points="327,-503 327,-521 402,-521 402,-503 327,-503"/>
<polygon fill="none" stroke="black" points="327,-503 327,-521 402,-521 402,-503 327,-503"/>
<text text-anchor="start" x="354" y="-509.2" font-family="Helvetica,sans-Serif" font-size="11.00">411 rows</text>
<polygon fill="#ffffff" stroke="transparent" points="402,-503 402,-521 440,-521 440,-503 402,-503"/>
<polygon fill="none" stroke="black" points="402,-503 402,-521 440,-521 440,-503 402,-503"/>
<text text-anchor="start" x="430" y="-509.2" font-family="Helvetica,sans-Serif" font-size="11.00"> &#160;</text>
</a>
</g>
</g>
<!-- elementportions -->
<g id="node2" class="node">
<title>elementportions</title>
<g id="a_node2"><a xlink:href="../../tables/elementportions.html" xlink:title="elementportions" target="_top">
<polygon fill="#ffffff" stroke="transparent" points="8,-264 8,-396 207,-396 207,-264 8,-264"/>
<polygon fill="#f5f5f5" stroke="transparent" points="10.5,-372 10.5,-394 205.5,-394 205.5,-372 10.5,-372"/>
<polygon fill="none" stroke="black" points="10.5,-372 10.5,-394 205.5,-394 205.5,-372 10.5,-372"/>
<text text-anchor="start" x="15.5" y="-381.2" font-family="Helvetica,sans-Serif" font-weight="bold" font-size="11.00">elementportions</text>
<text text-anchor="start" x="170.5" y="-380.2" font-family="Helvetica,sans-Serif" font-size="11.00">[table]</text>
<polygon fill="none" stroke="black" points="10.5,-350 10.5,-372 131.5,-372 131.5,-350 10.5,-350"/>
<image xlink:href="../../images/primaryKeys.png" width="11px" height="12px" preserveAspectRatio="xMinYMin meet" x="15.5" y="-367"/>
<text text-anchor="start" x="30.5" y="-358.2" font-family="Helvetica,sans-Serif" font-size="11.00">portionid</text>
<polygon fill="none" stroke="black" points="131.5,-350 131.5,-372 205.5,-372 205.5,-350 131.5,-350"/>
<text text-anchor="start" x="134.5" y="-358.2" font-family="Helvetica,sans-Serif" font-size="11.00">serial[10]</text>
<polygon fill="#ffffff" stroke="transparent" points="10.5,-328 10.5,-350 131.5,-350 131.5,-328 10.5,-328"/>
<polygon fill="none" stroke="black" points="10.5,-328 10.5,-350 131.5,-350 131.5,-328 10.5,-328"/>
<text text-anchor="start" x="30.5" y="-336.2" font-family="Helvetica,sans-Serif" font-size="11.00">portion</text>
<polygon fill="none" stroke="black" points="131.5,-328 131.5,-350 205.5,-350 205.5,-328 131.5,-328"/>
<text text-anchor="start" x="134.5" y="-336.2" font-family="Helvetica,sans-Serif" font-size="11.00">varchar[48]</text>
<polygon fill="none" stroke="black" points="10.5,-306 10.5,-328 131.5,-328 131.5,-306 10.5,-306"/>
<text text-anchor="start" x="30.5" y="-314.2" font-family="Helvetica,sans-Serif" font-size="11.00">recdatecreated</text>
<polygon fill="none" stroke="black" points="131.5,-306 131.5,-328 205.5,-328 205.5,-306 131.5,-306"/>
<text text-anchor="start" x="134.5" y="-314.2" font-family="Helvetica,sans-Serif" font-size="11.00">timestamp[22]</text>
<polygon fill="none" stroke="black" points="10.5,-284 10.5,-306 131.5,-306 131.5,-284 10.5,-284"/>
<text text-anchor="start" x="30.5" y="-292.2" font-family="Helvetica,sans-Serif" font-size="11.00">recdatemodified</text>
<polygon fill="none" stroke="black" points="131.5,-284 131.5,-306 205.5,-306 205.5,-284 131.5,-284"/>
<text text-anchor="start" x="134.5" y="-292.2" font-family="Helvetica,sans-Serif" font-size="11.00">timestamp[22]</text>
<polygon fill="#ffffff" stroke="transparent" points="10.5,-266 10.5,-284 59.5,-284 59.5,-266 10.5,-266"/>
<polygon fill="none" stroke="black" points="10.5,-266 10.5,-284 59.5,-284 59.5,-266 10.5,-266"/>
<text text-anchor="start" x="13.5" y="-272.2" font-family="Helvetica,sans-Serif" font-size="11.00">&lt; 0</text>
<polygon fill="#ffffff" stroke="transparent" points="59.5,-266 59.5,-284 131.5,-284 131.5,-266 59.5,-266"/>
<polygon fill="none" stroke="black" points="59.5,-266 59.5,-284 131.5,-284 131.5,-266 59.5,-266"/>
<text text-anchor="start" x="89.5" y="-272.2" font-family="Helvetica,sans-Serif" font-size="11.00">54 rows</text>
<polygon fill="#ffffff" stroke="transparent" points="131.5,-266 131.5,-284 205.5,-284 205.5,-266 131.5,-266"/>
<polygon fill="none" stroke="black" points="131.5,-266 131.5,-284 205.5,-284 205.5,-266 131.5,-266"/>
<text text-anchor="start" x="186.5" y="-272.2" font-family="Helvetica,sans-Serif" font-size="11.00">3 &gt;</text>
<polygon fill="none" stroke="black" stroke-width="2" points="9,-265 9,-395 206,-395 206,-265 9,-265"/>
</a>
</g>
</g>
<!-- elementtaxagroupportions&#45;&gt;elementportions -->
<g id="edge1" class="edge">
<title>elementtaxagroupportions:w&#45;&gt;elementportions:e</title>
<path fill="none" stroke="black" d="M240.76,-547.75C183.51,-526.42 287.63,-361 206.5,-361"/>
<polygon fill="black" stroke="black" points="247.1,-548.75 254.44,-553.56 251.05,-549.37 255,-550 255,-550 255,-550 251.05,-549.37 255.56,-546.44 247.1,-548.75 247.1,-548.75"/>
<ellipse fill="none" stroke="black" cx="243.94" cy="-548.25" rx="3.2" ry="3.2"/>
</g>
<!-- specimens -->
<g id="node3" class="node">
<title>specimens</title>
<g id="a_node3"><a xlink:href="../../tables/specimens.html" xlink:title="specimens" target="_top">
<polygon fill="#ffffff" stroke="transparent" points="286,-226 286,-482 410,-482 410,-226 286,-226"/>
<polygon fill="#f5f5f5" stroke="transparent" points="286,-460 286,-482 410,-482 410,-460 286,-460"/>
<polygon fill="none" stroke="black" points="286,-460 286,-482 410,-482 410,-460 286,-460"/>
<text text-anchor="start" x="291" y="-469.2" font-family="Helvetica,sans-Serif" font-weight="bold" font-size="11.00">specimens</text>
<text text-anchor="start" x="375" y="-468.2" font-family="Helvetica,sans-Serif" font-size="11.00">[table]</text>
<polygon fill="none" stroke="black" points="286,-438 286,-460 410,-460 410,-438 286,-438"/>
<image xlink:href="../../images/primaryKeys.png" width="11px" height="12px" preserveAspectRatio="xMinYMin meet" x="291" y="-455"/>
<text text-anchor="start" x="306" y="-446.2" font-family="Helvetica,sans-Serif" font-size="11.00">specimenid</text>
<polygon fill="none" stroke="black" points="286,-416 286,-438 410,-438 410,-416 286,-416"/>
<image xlink:href="../../images/foreignKeys.png" width="11px" height="12px" preserveAspectRatio="xMinYMin meet" x="291" y="-433"/>
<text text-anchor="start" x="306" y="-424.2" font-family="Helvetica,sans-Serif" font-size="11.00">dataid</text>
<polygon fill="none" stroke="black" points="286,-394 286,-416 410,-416 410,-394 286,-394"/>
<image xlink:href="../../images/foreignKeys.png" width="11px" height="12px" preserveAspectRatio="xMinYMin meet" x="291" y="-411"/>
<text text-anchor="start" x="306" y="-402.2" font-family="Helvetica,sans-Serif" font-size="11.00">elementtypeid</text>
<polygon fill="none" stroke="black" points="286,-372 286,-394 410,-394 410,-372 286,-372"/>
<image xlink:href="../../images/foreignKeys.png" width="11px" height="12px" preserveAspectRatio="xMinYMin meet" x="291" y="-389"/>
<text text-anchor="start" x="306" y="-380.2" font-family="Helvetica,sans-Serif" font-size="11.00">symmetryid</text>
<polygon fill="none" stroke="black" points="286,-350 286,-372 410,-372 410,-350 286,-350"/>
<image xlink:href="../../images/foreignKeys.png" width="11px" height="12px" preserveAspectRatio="xMinYMin meet" x="291" y="-367"/>
<text text-anchor="start" x="306" y="-358.2" font-family="Helvetica,sans-Serif" font-size="11.00">portionid</text>
<polygon fill="none" stroke="black" points="286,-328 286,-350 410,-350 410,-328 286,-328"/>
<image xlink:href="../../images/foreignKeys.png" width="11px" height="12px" preserveAspectRatio="xMinYMin meet" x="291" y="-345"/>
<text text-anchor="start" x="306" y="-336.2" font-family="Helvetica,sans-Serif" font-size="11.00">maturityid</text>
<polygon fill="none" stroke="black" points="286,-306 286,-328 410,-328 410,-306 286,-306"/>
<image xlink:href="../../images/foreignKeys.png" width="11px" height="12px" preserveAspectRatio="xMinYMin meet" x="291" y="-323"/>
<text text-anchor="start" x="306" y="-314.2" font-family="Helvetica,sans-Serif" font-size="11.00">sexid</text>
<polygon fill="none" stroke="black" points="286,-284 286,-306 410,-306 410,-284 286,-284"/>
<image xlink:href="../../images/foreignKeys.png" width="11px" height="12px" preserveAspectRatio="xMinYMin meet" x="291" y="-301"/>
<text text-anchor="start" x="306" y="-292.2" font-family="Helvetica,sans-Serif" font-size="11.00">domesticstatusid</text>
<polygon fill="none" stroke="black" points="286,-262 286,-284 410,-284 410,-262 286,-262"/>
<image xlink:href="../../images/foreignKeys.png" width="11px" height="12px" preserveAspectRatio="xMinYMin meet" x="291" y="-279"/>
<text text-anchor="start" x="306" y="-270.2" font-family="Helvetica,sans-Serif" font-size="11.00">repositoryid</text>
<polygon fill="none" stroke="black" points="286,-244 286,-262 410,-262 410,-244 286,-244"/>
<text text-anchor="start" x="289" y="-250.2" font-family="Helvetica,sans-Serif" font-size="11.00">...</text>
<polygon fill="#ffffff" stroke="transparent" points="286,-226 286,-244 318,-244 318,-226 286,-226"/>
<polygon fill="none" stroke="black" points="286,-226 286,-244 318,-244 318,-226 286,-226"/>
<text text-anchor="start" x="289" y="-232.2" font-family="Helvetica,sans-Serif" font-size="11.00">&lt; 8</text>
<polygon fill="#ffffff" stroke="transparent" points="318,-226 318,-244 383,-244 383,-226 318,-226"/>
<polygon fill="none" stroke="black" points="318,-226 318,-244 383,-244 383,-226 318,-226"/>
<text text-anchor="start" x="326" y="-232.2" font-family="Helvetica,sans-Serif" font-size="11.00">3,351 rows</text>
<polygon fill="#ffffff" stroke="transparent" points="383,-226 383,-244 410,-244 410,-226 383,-226"/>
<polygon fill="none" stroke="black" points="383,-226 383,-244 410,-244 410,-226 383,-226"/>
<text text-anchor="start" x="391" y="-232.2" font-family="Helvetica,sans-Serif" font-size="11.00">4 &gt;</text>
</a>
</g>
</g>
<!-- specimens&#45;&gt;elementportions -->
<g id="edge2" class="edge">
<title>specimens:w&#45;&gt;elementportions:e</title>
<path fill="none" stroke="black" d="M270.36,-361C246.75,-361 235.94,-361 206.5,-361"/>
<polygon fill="black" stroke="black" points="277,-361 285,-364.6 281,-361 285,-361 285,-361 285,-361 281,-361 285,-357.4 277,-361 277,-361"/>
<ellipse fill="none" stroke="black" cx="273.8" cy="-361" rx="3.2" ry="3.2"/>
</g>
<!-- variableelements -->
<g id="node4" class="node">
<title>variableelements</title>
<g id="a_node4"><a xlink:href="../../tables/variableelements.html" xlink:title="variableelements" target="_top">
<polygon fill="#ffffff" stroke="transparent" points="281.5,-37 281.5,-205 414.5,-205 414.5,-37 281.5,-37"/>
<polygon fill="#f5f5f5" stroke="transparent" points="282,-183 282,-205 415,-205 415,-183 282,-183"/>
<polygon fill="none" stroke="black" points="282,-183 282,-205 415,-205 415,-183 282,-183"/>
<text text-anchor="start" x="287" y="-192.2" font-family="Helvetica,sans-Serif" font-weight="bold" font-size="11.00">variableelements</text>
<text text-anchor="start" x="380" y="-191.2" font-family="Helvetica,sans-Serif" font-size="11.00">[table]</text>
<polygon fill="none" stroke="black" points="282,-161 282,-183 415,-183 415,-161 282,-161"/>
<image xlink:href="../../images/primaryKeys.png" width="11px" height="12px" preserveAspectRatio="xMinYMin meet" x="287" y="-178"/>
<text text-anchor="start" x="304" y="-169.2" font-family="Helvetica,sans-Serif" font-size="11.00">variableelementid</text>
<polygon fill="none" stroke="black" points="282,-139 282,-161 415,-161 415,-139 282,-139"/>
<image xlink:href="../../images/foreignKeys.png" width="11px" height="12px" preserveAspectRatio="xMinYMin meet" x="287" y="-156"/>
<text text-anchor="start" x="304" y="-147.2" font-family="Helvetica,sans-Serif" font-size="11.00">elementtypeid</text>
<polygon fill="none" stroke="black" points="282,-117 282,-139 415,-139 415,-117 282,-117"/>
<image xlink:href="../../images/foreignKeys.png" width="11px" height="12px" preserveAspectRatio="xMinYMin meet" x="287" y="-134"/>
<text text-anchor="start" x="304" y="-125.2" font-family="Helvetica,sans-Serif" font-size="11.00">symmetryid</text>
<polygon fill="none" stroke="black" points="282,-95 282,-117 415,-117 415,-95 282,-95"/>
<image xlink:href="../../images/foreignKeys.png" width="11px" height="12px" preserveAspectRatio="xMinYMin meet" x="287" y="-112"/>
<text text-anchor="start" x="304" y="-103.2" font-family="Helvetica,sans-Serif" font-size="11.00">portionid</text>
<polygon fill="none" stroke="black" points="282,-73 282,-95 415,-95 415,-73 282,-73"/>
<image xlink:href="../../images/foreignKeys.png" width="11px" height="12px" preserveAspectRatio="xMinYMin meet" x="287" y="-90"/>
<text text-anchor="start" x="304" y="-81.2" font-family="Helvetica,sans-Serif" font-size="11.00">maturityid</text>
<polygon fill="none" stroke="black" points="282,-55 282,-73 415,-73 415,-55 282,-55"/>
<text text-anchor="start" x="285" y="-61.2" font-family="Helvetica,sans-Serif" font-size="11.00">...</text>
<polygon fill="#ffffff" stroke="transparent" points="282,-37 282,-55 323,-55 323,-37 282,-37"/>
<polygon fill="none" stroke="black" points="282,-37 282,-55 323,-55 323,-37 282,-37"/>
<text text-anchor="start" x="285" y="-43.2" font-family="Helvetica,sans-Serif" font-size="11.00">&lt; 4</text>
<polygon fill="#ffffff" stroke="transparent" points="323,-37 323,-55 383,-55 383,-37 323,-37"/>
<polygon fill="none" stroke="black" points="323,-37 323,-55 383,-55 383,-37 323,-37"/>
<text text-anchor="start" x="335" y="-43.2" font-family="Helvetica,sans-Serif" font-size="11.00">967 rows</text>
<polygon fill="#ffffff" stroke="transparent" points="383,-37 383,-55 415,-55 415,-37 383,-37"/>
<polygon fill="none" stroke="black" points="383,-37 383,-55 415,-55 415,-37 383,-37"/>
<text text-anchor="start" x="396" y="-43.2" font-family="Helvetica,sans-Serif" font-size="11.00">1 &gt;</text>
</a>
</g>
</g>
<!-- variableelements&#45;&gt;elementportions -->
<g id="edge3" class="edge">
<title>variableelements:w&#45;&gt;elementportions:e</title>
<path fill="none" stroke="black" d="M267.42,-111.81C228.97,-149.76 260.23,-361 206.5,-361"/>
<polygon fill="black" stroke="black" points="273.64,-109.15 282.42,-109.31 277.32,-107.57 281,-106 281,-106 281,-106 277.32,-107.57 279.58,-102.69 273.64,-109.15 273.64,-109.15"/>
<ellipse fill="none" stroke="black" cx="270.7" cy="-110.4" rx="3.2" ry="3.2"/>
</g>
</g>
</svg>
