<?xml version="1.0" encoding="UTF-8" standalone="no"?>
<!DOCTYPE svg PUBLIC "-//W3C//DTD SVG 1.1//EN"
 "http://www.w3.org/Graphics/SVG/1.1/DTD/svg11.dtd">
<!-- Generated by graphviz version 2.43.0 (0)
 -->
<!-- Title: oneDegreeRelationshipsDiagram Pages: 1 -->
<svg width="674pt" height="397pt"
 viewBox="0.00 0.00 674.00 397.00" xmlns="http://www.w3.org/2000/svg" xmlns:xlink="http://www.w3.org/1999/xlink">
<g id="graph0" class="graph" transform="scale(1 1) rotate(0) translate(4 393)">
<title>oneDegreeRelationshipsDiagram</title>
<polygon fill="#ffffff" stroke="transparent" points="-4,4 -4,-393 670,-393 670,4 -4,4"/>
<text text-anchor="middle" x="71.5" y="-7.2" font-family="Helvetica,sans-Serif" font-size="11.00">Generated by SchemaSpy</text>
<!-- elementtaxagroupmaturities -->
<g id="node1" class="node">
<title>elementtaxagroupmaturities</title>
<g id="a_node1"><a xlink:href="../../tables/elementtaxagroupmaturities.html" xlink:title="elementtaxagroupmaturities" target="_top">
<polygon fill="#ffffff" stroke="transparent" points="458,-283 458,-385 654,-385 654,-283 458,-283"/>
<polygon fill="#f5f5f5" stroke="transparent" points="458,-363 458,-385 654,-385 654,-363 458,-363"/>
<polygon fill="none" stroke="black" points="458,-363 458,-385 654,-385 654,-363 458,-363"/>
<text text-anchor="start" x="463" y="-372.2" font-family="Helvetica,sans-Serif" font-weight="bold" font-size="11.00">elementtaxagroupmaturities</text>
<text text-anchor="start" x="619" y="-371.2" font-family="Helvetica,sans-Serif" font-size="11.00">[table]</text>
<polygon fill="none" stroke="black" points="458,-341 458,-363 654,-363 654,-341 458,-341"/>
<image xlink:href="../../images/primaryKeys.png" width="11px" height="12px" preserveAspectRatio="xMinYMin meet" x="463" y="-358"/>
<text text-anchor="start" x="478" y="-349.2" font-family="Helvetica,sans-Serif" font-size="11.00">elementtaxagroupid</text>
<polygon fill="none" stroke="black" points="458,-319 458,-341 654,-341 654,-319 458,-319"/>
<image xlink:href="../../images/primaryKeys.png" width="11px" height="12px" preserveAspectRatio="xMinYMin meet" x="463" y="-336"/>
<text text-anchor="start" x="478" y="-327.2" font-family="Helvetica,sans-Serif" font-size="11.00">maturityid</text>
<polygon fill="none" stroke="black" points="458,-301 458,-319 654,-319 654,-301 458,-301"/>
<text text-anchor="start" x="461" y="-307.2" font-family="Helvetica,sans-Serif" font-size="11.00">...</text>
<polygon fill="#ffffff" stroke="transparent" points="458,-283 458,-301 538,-301 538,-283 458,-283"/>
<polygon fill="none" stroke="black" points="458,-283 458,-301 538,-301 538,-283 458,-283"/>
<text text-anchor="start" x="461" y="-289.2" font-family="Helvetica,sans-Serif" font-size="11.00">&lt; 2</text>
<polygon fill="#ffffff" stroke="transparent" points="538,-283 538,-301 612,-301 612,-283 538,-283"/>
<polygon fill="none" stroke="black" points="538,-283 538,-301 612,-301 612,-283 538,-283"/>
<text text-anchor="start" x="570" y="-289.2" font-family="Helvetica,sans-Serif" font-size="11.00">40 rows</text>
<polygon fill="#ffffff" stroke="transparent" points="612,-283 612,-301 654,-301 654,-283 612,-283"/>
<polygon fill="none" stroke="black" points="612,-283 612,-301 654,-301 654,-283 612,-283"/>
<text text-anchor="start" x="644" y="-289.2" font-family="Helvetica,sans-Serif" font-size="11.00"> &#160;</text>
</a>
</g>
</g>
<!-- elementtaxagroups -->
<g id="node2" class="node">
<title>elementtaxagroups</title>
<g id="a_node2"><a xlink:href="../../tables/elementtaxagroups.html" xlink:title="elementtaxagroups" target="_top">
<polygon fill="#ffffff" stroke="transparent" points="183,-110 183,-264 405,-264 405,-110 183,-110"/>
<polygon fill="#f5f5f5" stroke="transparent" points="185,-240 185,-262 403,-262 403,-240 185,-240"/>
<polygon fill="none" stroke="black" points="185,-240 185,-262 403,-262 403,-240 185,-240"/>
<text text-anchor="start" x="190" y="-249.2" font-family="Helvetica,sans-Serif" font-weight="bold" font-size="11.00">elementtaxagroups</text>
<text text-anchor="start" x="368" y="-248.2" font-family="Helvetica,sans-Serif" font-size="11.00">[table]</text>
<polygon fill="none" stroke="black" points="185,-218 185,-240 329,-240 329,-218 185,-218"/>
<image xlink:href="../../images/primaryKeys.png" width="11px" height="12px" preserveAspectRatio="xMinYMin meet" x="190" y="-235"/>
<text text-anchor="start" x="205" y="-226.2" font-family="Helvetica,sans-Serif" font-size="11.00">elementtaxagroupid</text>
<polygon fill="none" stroke="black" points="329,-218 329,-240 403,-240 403,-218 329,-218"/>
<text text-anchor="start" x="332" y="-226.2" font-family="Helvetica,sans-Serif" font-size="11.00">serial[10]</text>
<polygon fill="#ffffff" stroke="transparent" points="185,-196 185,-218 329,-218 329,-196 185,-196"/>
<polygon fill="none" stroke="black" points="185,-196 185,-218 329,-218 329,-196 185,-196"/>
<image xlink:href="../../images/foreignKeys.png" width="11px" height="12px" preserveAspectRatio="xMinYMin meet" x="190" y="-213"/>
<text text-anchor="start" x="205" y="-204.2" font-family="Helvetica,sans-Serif" font-size="11.00">taxagroupid</text>
<polygon fill="none" stroke="black" points="329,-196 329,-218 403,-218 403,-196 329,-196"/>
<text text-anchor="start" x="332" y="-204.2" font-family="Helvetica,sans-Serif" font-size="11.00">varchar[3]</text>
<polygon fill="#ffffff" stroke="transparent" points="185,-174 185,-196 329,-196 329,-174 185,-174"/>
<polygon fill="none" stroke="black" points="185,-174 185,-196 329,-196 329,-174 185,-174"/>
<image xlink:href="../../images/foreignKeys.png" width="11px" height="12px" preserveAspectRatio="xMinYMin meet" x="190" y="-191"/>
<text text-anchor="start" x="205" y="-182.2" font-family="Helvetica,sans-Serif" font-size="11.00">elementtypeid</text>
<polygon fill="none" stroke="black" points="329,-174 329,-196 403,-196 403,-174 329,-174"/>
<text text-anchor="start" x="332" y="-182.2" font-family="Helvetica,sans-Serif" font-size="11.00">int4[10]</text>
<polygon fill="none" stroke="black" points="185,-152 185,-174 329,-174 329,-152 185,-152"/>
<text text-anchor="start" x="205" y="-160.2" font-family="Helvetica,sans-Serif" font-size="11.00">recdatecreated</text>
<polygon fill="none" stroke="black" points="329,-152 329,-174 403,-174 403,-152 329,-152"/>
<text text-anchor="start" x="332" y="-160.2" font-family="Helvetica,sans-Serif" font-size="11.00">timestamp[22]</text>
<polygon fill="none" stroke="black" points="185,-130 185,-152 329,-152 329,-130 185,-130"/>
<text text-anchor="start" x="205" y="-138.2" font-family="Helvetica,sans-Serif" font-size="11.00">recdatemodified</text>
<polygon fill="none" stroke="black" points="329,-130 329,-152 403,-152 403,-130 329,-130"/>
<text text-anchor="start" x="332" y="-138.2" font-family="Helvetica,sans-Serif" font-size="11.00">timestamp[22]</text>
<polygon fill="#ffffff" stroke="transparent" points="185,-112 185,-130 238,-130 238,-112 185,-112"/>
<polygon fill="none" stroke="black" points="185,-112 185,-130 238,-130 238,-112 185,-112"/>
<text text-anchor="start" x="188" y="-118.2" font-family="Helvetica,sans-Serif" font-size="11.00">&lt; 2</text>
<polygon fill="#ffffff" stroke="transparent" points="238,-112 238,-130 329,-130 329,-112 238,-112"/>
<polygon fill="none" stroke="black" points="238,-112 238,-130 329,-130 329,-112 238,-112"/>
<text text-anchor="start" x="272" y="-118.2" font-family="Helvetica,sans-Serif" font-size="11.00">1,010 rows</text>
<polygon fill="#ffffff" stroke="transparent" points="329,-112 329,-130 403,-130 403,-112 329,-112"/>
<polygon fill="none" stroke="black" points="329,-112 329,-130 403,-130 403,-112 329,-112"/>
<text text-anchor="start" x="384" y="-118.2" font-family="Helvetica,sans-Serif" font-size="11.00">3 &gt;</text>
<polygon fill="none" stroke="black" stroke-width="2" points="184,-111 184,-263 404,-263 404,-111 184,-111"/>
</a>
</g>
</g>
<!-- elementtaxagroupmaturities&#45;&gt;elementtaxagroups -->
<g id="edge1" class="edge">
<title>elementtaxagroupmaturities:w&#45;&gt;elementtaxagroups:e</title>
<path fill="none" stroke="black" d="M442.92,-348.71C409.18,-329.15 457.71,-229 404,-229"/>
<polygon fill="black" stroke="black" points="449.21,-350.18 456.18,-355.51 453.1,-351.09 457,-352 457,-352 457,-352 453.1,-351.09 457.82,-348.49 449.21,-350.18 449.21,-350.18"/>
<ellipse fill="none" stroke="black" cx="446.09" cy="-349.45" rx="3.2" ry="3.2"/>
</g>
<!-- elementtypes -->
<g id="node4" class="node">
<title>elementtypes</title>
<g id="a_node4"><a xlink:href="../../tables/elementtypes.html" xlink:title="elementtypes" target="_top">
<polygon fill="#ffffff" stroke="transparent" points="11,-77 11,-179 131,-179 131,-77 11,-77"/>
<polygon fill="#f5f5f5" stroke="transparent" points="11,-157 11,-179 131,-179 131,-157 11,-157"/>
<polygon fill="none" stroke="black" points="11,-157 11,-179 131,-179 131,-157 11,-157"/>
<text text-anchor="start" x="16" y="-166.2" font-family="Helvetica,sans-Serif" font-weight="bold" font-size="11.00">elementtypes</text>
<text text-anchor="start" x="96" y="-165.2" font-family="Helvetica,sans-Serif" font-size="11.00">[table]</text>
<polygon fill="none" stroke="black" points="11,-135 11,-157 131,-157 131,-135 11,-135"/>
<image xlink:href="../../images/primaryKeys.png" width="11px" height="12px" preserveAspectRatio="xMinYMin meet" x="16" y="-152"/>
<text text-anchor="start" x="31" y="-143.2" font-family="Helvetica,sans-Serif" font-size="11.00">elementtypeid</text>
<polygon fill="#ffffff" stroke="transparent" points="11,-113 11,-135 131,-135 131,-113 11,-113"/>
<polygon fill="none" stroke="black" points="11,-113 11,-135 131,-135 131,-113 11,-113"/>
<text text-anchor="start" x="31" y="-121.2" font-family="Helvetica,sans-Serif" font-size="11.00">elementtype</text>
<polygon fill="none" stroke="black" points="11,-95 11,-113 131,-113 131,-95 11,-95"/>
<text text-anchor="start" x="14" y="-101.2" font-family="Helvetica,sans-Serif" font-size="11.00">...</text>
<polygon fill="#ffffff" stroke="transparent" points="11,-77 11,-95 41,-95 41,-77 11,-77"/>
<polygon fill="none" stroke="black" points="11,-77 11,-95 41,-95 41,-77 11,-77"/>
<text text-anchor="start" x="14" y="-83.2" font-family="Helvetica,sans-Serif" font-size="11.00"> &#160;</text>
<polygon fill="#ffffff" stroke="transparent" points="41,-77 41,-95 100,-95 100,-77 41,-77"/>
<polygon fill="none" stroke="black" points="41,-77 41,-95 100,-95 100,-77 41,-77"/>
<text text-anchor="start" x="52" y="-83.2" font-family="Helvetica,sans-Serif" font-size="11.00">926 rows</text>
<polygon fill="#ffffff" stroke="transparent" points="100,-77 100,-95 131,-95 131,-77 100,-77"/>
<polygon fill="none" stroke="black" points="100,-77 100,-95 131,-95 131,-77 100,-77"/>
<text text-anchor="start" x="112" y="-83.2" font-family="Helvetica,sans-Serif" font-size="11.00">5 &gt;</text>
</a>
</g>
</g>
<!-- elementtaxagroups&#45;&gt;elementtypes -->
<g id="edge3" class="edge">
<title>elementtaxagroups:w&#45;&gt;elementtypes:e</title>
<path fill="none" stroke="black" d="M170.11,-180.83C156.03,-170.77 155.02,-146 132,-146"/>
<polygon fill="black" stroke="black" points="176.34,-182.7 182.96,-188.45 180.17,-183.85 184,-185 184,-185 184,-185 180.17,-183.85 185.04,-181.55 176.34,-182.7 176.34,-182.7"/>
<ellipse fill="none" stroke="black" cx="173.27" cy="-181.78" rx="3.2" ry="3.2"/>
</g>
<!-- taxagrouptypes -->
<g id="node5" class="node">
<title>taxagrouptypes</title>
<g id="a_node5"><a xlink:href="../../tables/taxagrouptypes.html" xlink:title="taxagrouptypes" target="_top">
<polygon fill="#ffffff" stroke="transparent" points="8,-200 8,-280 134,-280 134,-200 8,-200"/>
<polygon fill="#f5f5f5" stroke="transparent" points="8,-258 8,-280 134,-280 134,-258 8,-258"/>
<polygon fill="none" stroke="black" points="8,-258 8,-280 134,-280 134,-258 8,-258"/>
<text text-anchor="start" x="13" y="-267.2" font-family="Helvetica,sans-Serif" font-weight="bold" font-size="11.00">taxagrouptypes</text>
<text text-anchor="start" x="99" y="-266.2" font-family="Helvetica,sans-Serif" font-size="11.00">[table]</text>
<polygon fill="none" stroke="black" points="8,-236 8,-258 134,-258 134,-236 8,-236"/>
<image xlink:href="../../images/primaryKeys.png" width="11px" height="12px" preserveAspectRatio="xMinYMin meet" x="13" y="-253"/>
<text text-anchor="start" x="31" y="-244.2" font-family="Helvetica,sans-Serif" font-size="11.00">taxagroupid</text>
<polygon fill="none" stroke="black" points="8,-218 8,-236 134,-236 134,-218 8,-218"/>
<text text-anchor="start" x="11" y="-224.2" font-family="Helvetica,sans-Serif" font-size="11.00">...</text>
<polygon fill="#ffffff" stroke="transparent" points="8,-200 8,-218 44,-218 44,-200 8,-200"/>
<polygon fill="none" stroke="black" points="8,-200 8,-218 44,-218 44,-200 8,-200"/>
<text text-anchor="start" x="11" y="-206.2" font-family="Helvetica,sans-Serif" font-size="11.00"> &#160;</text>
<polygon fill="#ffffff" stroke="transparent" points="44,-200 44,-218 100,-218 100,-200 44,-200"/>
<polygon fill="none" stroke="black" points="44,-200 44,-218 100,-218 100,-200 44,-200"/>
<text text-anchor="start" x="58" y="-206.2" font-family="Helvetica,sans-Serif" font-size="11.00">55 rows</text>
<polygon fill="#ffffff" stroke="transparent" points="100,-200 100,-218 134,-218 134,-200 100,-200"/>
<polygon fill="none" stroke="black" points="100,-200 100,-218 134,-218 134,-200 100,-200"/>
<text text-anchor="start" x="115" y="-206.2" font-family="Helvetica,sans-Serif" font-size="11.00">4 &gt;</text>
</a>
</g>
</g>
<!-- elementtaxagroups&#45;&gt;taxagrouptypes -->
<g id="edge4" class="edge">
<title>elementtaxagroups:w&#45;&gt;taxagrouptypes:e</title>
<path fill="none" stroke="black" d="M170.26,-211.59C157.36,-222.1 157.18,-247 135,-247"/>
<polygon fill="black" stroke="black" points="176.41,-209.53 185.14,-210.41 180.21,-208.27 184,-207 184,-207 184,-207 180.21,-208.27 182.86,-203.59 176.41,-209.53 176.41,-209.53"/>
<ellipse fill="none" stroke="black" cx="173.38" cy="-210.55" rx="3.2" ry="3.2"/>
</g>
<!-- elementtaxagroupportions -->
<g id="node3" class="node">
<title>elementtaxagroupportions</title>
<g id="a_node3"><a xlink:href="../../tables/elementtaxagroupportions.html" xlink:title="elementtaxagroupportions" target="_top">
<polygon fill="#ffffff" stroke="transparent" points="464,-160 464,-262 648,-262 648,-160 464,-160"/>
<polygon fill="#f5f5f5" stroke="transparent" points="464,-240 464,-262 648,-262 648,-240 464,-240"/>
<polygon fill="none" stroke="black" points="464,-240 464,-262 648,-262 648,-240 464,-240"/>
<text text-anchor="start" x="469" y="-249.2" font-family="Helvetica,sans-Serif" font-weight="bold" font-size="11.00">elementtaxagroupportions</text>
<text text-anchor="start" x="613" y="-248.2" font-family="Helvetica,sans-Serif" font-size="11.00">[table]</text>
<polygon fill="none" stroke="black" points="464,-218 464,-240 648,-240 648,-218 464,-218"/>
<image xlink:href="../../images/primaryKeys.png" width="11px" height="12px" preserveAspectRatio="xMinYMin meet" x="469" y="-235"/>
<text text-anchor="start" x="484" y="-226.2" font-family="Helvetica,sans-Serif" font-size="11.00">elementtaxagroupid</text>
<polygon fill="none" stroke="black" points="464,-196 464,-218 648,-218 648,-196 464,-196"/>
<image xlink:href="../../images/primaryKeys.png" width="11px" height="12px" preserveAspectRatio="xMinYMin meet" x="469" y="-213"/>
<text text-anchor="start" x="484" y="-204.2" font-family="Helvetica,sans-Serif" font-size="11.00">portionid</text>
<polygon fill="none" stroke="black" points="464,-178 464,-196 648,-196 648,-178 464,-178"/>
<text text-anchor="start" x="467" y="-184.2" font-family="Helvetica,sans-Serif" font-size="11.00">...</text>
<polygon fill="#ffffff" stroke="transparent" points="464,-160 464,-178 535,-178 535,-160 464,-160"/>
<polygon fill="none" stroke="black" points="464,-160 464,-178 535,-178 535,-160 464,-160"/>
<text text-anchor="start" x="467" y="-166.2" font-family="Helvetica,sans-Serif" font-size="11.00">&lt; 2</text>
<polygon fill="#ffffff" stroke="transparent" points="535,-160 535,-178 610,-178 610,-160 535,-160"/>
<polygon fill="none" stroke="black" points="535,-160 535,-178 610,-178 610,-160 535,-160"/>
<text text-anchor="start" x="562" y="-166.2" font-family="Helvetica,sans-Serif" font-size="11.00">411 rows</text>
<polygon fill="#ffffff" stroke="transparent" points="610,-160 610,-178 648,-178 648,-160 610,-160"/>
<polygon fill="none" stroke="black" points="610,-160 610,-178 648,-178 648,-160 610,-160"/>
<text text-anchor="start" x="638" y="-166.2" font-family="Helvetica,sans-Serif" font-size="11.00"> &#160;</text>
</a>
</g>
</g>
<!-- elementtaxagroupportions&#45;&gt;elementtaxagroups -->
<g id="edge2" class="edge">
<title>elementtaxagroupportions:w&#45;&gt;elementtaxagroups:e</title>
<path fill="none" stroke="black" d="M448.2,-229C432.97,-229 424.49,-229 404,-229"/>
<polygon fill="black" stroke="black" points="455,-229 463,-232.6 459,-229 463,-229 463,-229 463,-229 459,-229 463,-225.4 455,-229 455,-229"/>
<ellipse fill="none" stroke="black" cx="451.8" cy="-229" rx="3.2" ry="3.2"/>
</g>
<!-- elementtaxagroupsymmetries -->
<g id="node6" class="node">
<title>elementtaxagroupsymmetries</title>
<g id="a_node6"><a xlink:href="../../tables/elementtaxagroupsymmetries.html" xlink:title="elementtaxagroupsymmetries" target="_top">
<polygon fill="#ffffff" stroke="transparent" points="454,-37 454,-139 658,-139 658,-37 454,-37"/>
<polygon fill="#f5f5f5" stroke="transparent" points="454,-117 454,-139 658,-139 658,-117 454,-117"/>
<polygon fill="none" stroke="black" points="454,-117 454,-139 658,-139 658,-117 454,-117"/>
<text text-anchor="start" x="459" y="-126.2" font-family="Helvetica,sans-Serif" font-weight="bold" font-size="11.00">elementtaxagroupsymmetries</text>
<text text-anchor="start" x="623" y="-125.2" font-family="Helvetica,sans-Serif" font-size="11.00">[table]</text>
<polygon fill="none" stroke="black" points="454,-95 454,-117 658,-117 658,-95 454,-95"/>
<image xlink:href="../../images/primaryKeys.png" width="11px" height="12px" preserveAspectRatio="xMinYMin meet" x="459" y="-112"/>
<text text-anchor="start" x="474" y="-103.2" font-family="Helvetica,sans-Serif" font-size="11.00">elementtaxagroupid</text>
<polygon fill="none" stroke="black" points="454,-73 454,-95 658,-95 658,-73 454,-73"/>
<image xlink:href="../../images/primaryKeys.png" width="11px" height="12px" preserveAspectRatio="xMinYMin meet" x="459" y="-90"/>
<text text-anchor="start" x="474" y="-81.2" font-family="Helvetica,sans-Serif" font-size="11.00">symmetryid</text>
<polygon fill="none" stroke="black" points="454,-55 454,-73 658,-73 658,-55 454,-55"/>
<text text-anchor="start" x="457" y="-61.2" font-family="Helvetica,sans-Serif" font-size="11.00">...</text>
<polygon fill="#ffffff" stroke="transparent" points="454,-37 454,-55 535,-55 535,-37 454,-37"/>
<polygon fill="none" stroke="black" points="454,-37 454,-55 535,-55 535,-37 454,-37"/>
<text text-anchor="start" x="457" y="-43.2" font-family="Helvetica,sans-Serif" font-size="11.00">&lt; 2</text>
<polygon fill="#ffffff" stroke="transparent" points="535,-37 535,-55 615,-55 615,-37 535,-37"/>
<polygon fill="none" stroke="black" points="535,-37 535,-55 615,-55 615,-37 535,-37"/>
<text text-anchor="start" x="567" y="-43.2" font-family="Helvetica,sans-Serif" font-size="11.00">446 rows</text>
<polygon fill="#ffffff" stroke="transparent" points="615,-37 615,-55 658,-55 658,-37 615,-37"/>
<polygon fill="none" stroke="black" points="615,-37 615,-55 658,-55 658,-37 615,-37"/>
<text text-anchor="start" x="648" y="-43.2" font-family="Helvetica,sans-Serif" font-size="11.00"> &#160;</text>
</a>
</g>
</g>
<!-- elementtaxagroupsymmetries&#45;&gt;elementtaxagroups -->
<g id="edge5" class="edge">
<title>elementtaxagroupsymmetries:w&#45;&gt;elementtaxagroups:e</title>
<path fill="none" stroke="black" d="M438.75,-109.55C406.79,-129.72 456.87,-229 404,-229"/>
<polygon fill="black" stroke="black" points="445.24,-107.93 453.87,-109.49 449.12,-106.97 453,-106 453,-106 453,-106 449.12,-106.97 452.13,-102.51 445.24,-107.93 445.24,-107.93"/>
<ellipse fill="none" stroke="black" cx="442.13" cy="-108.71" rx="3.2" ry="3.2"/>
</g>
</g>
</svg>
