<?xml version="1.0" encoding="UTF-8" standalone="no"?>
<!DOCTYPE svg PUBLIC "-//W3C//DTD SVG 1.1//EN"
 "http://www.w3.org/Graphics/SVG/1.1/DTD/svg11.dtd">
<!-- Generated by graphviz version 2.43.0 (0)
 -->
<!-- Title: oneDegreeRelationshipsDiagram Pages: 1 -->
<svg width="502pt" height="296pt"
 viewBox="0.00 0.00 502.00 296.00" xmlns="http://www.w3.org/2000/svg" xmlns:xlink="http://www.w3.org/1999/xlink">
<g id="graph0" class="graph" transform="scale(1 1) rotate(0) translate(4 292)">
<title>oneDegreeRelationshipsDiagram</title>
<polygon fill="#ffffff" stroke="transparent" points="-4,4 -4,-292 498,-292 498,4 -4,4"/>
<text text-anchor="middle" x="71.5" y="-7.2" font-family="Helvetica,sans-Serif" font-size="11.00">Generated by SchemaSpy</text>
<!-- elementtaxagroupsymmetries -->
<g id="node1" class="node">
<title>elementtaxagroupsymmetries</title>
<g id="a_node1"><a xlink:href="../../tables/elementtaxagroupsymmetries.html" xlink:title="elementtaxagroupsymmetries" target="_top">
<polygon fill="#ffffff" stroke="transparent" points="204,-92 204,-224 486,-224 486,-92 204,-92"/>
<polygon fill="#f5f5f5" stroke="transparent" points="206,-200 206,-222 484,-222 484,-200 206,-200"/>
<polygon fill="none" stroke="black" points="206,-200 206,-222 484,-222 484,-200 206,-200"/>
<text text-anchor="start" x="211" y="-209.2" font-family="Helvetica,sans-Serif" font-weight="bold" font-size="11.00">elementtaxagroupsymmetries</text>
<text text-anchor="start" x="449" y="-208.2" font-family="Helvetica,sans-Serif" font-size="11.00">[table]</text>
<polygon fill="none" stroke="black" points="206,-178 206,-200 410,-200 410,-178 206,-178"/>
<image xlink:href="../../images/primaryKeys.png" width="11px" height="12px" preserveAspectRatio="xMinYMin meet" x="211" y="-195"/>
<text text-anchor="start" x="226" y="-186.2" font-family="Helvetica,sans-Serif" font-size="11.00">elementtaxagroupid</text>
<polygon fill="none" stroke="black" points="410,-178 410,-200 484,-200 484,-178 410,-178"/>
<text text-anchor="start" x="413" y="-186.2" font-family="Helvetica,sans-Serif" font-size="11.00">int4[10]</text>
<polygon fill="none" stroke="black" points="206,-156 206,-178 410,-178 410,-156 206,-156"/>
<image xlink:href="../../images/primaryKeys.png" width="11px" height="12px" preserveAspectRatio="xMinYMin meet" x="211" y="-173"/>
<text text-anchor="start" x="226" y="-164.2" font-family="Helvetica,sans-Serif" font-size="11.00">symmetryid</text>
<polygon fill="none" stroke="black" points="410,-156 410,-178 484,-178 484,-156 410,-156"/>
<text text-anchor="start" x="413" y="-164.2" font-family="Helvetica,sans-Serif" font-size="11.00">int4[10]</text>
<polygon fill="none" stroke="black" points="206,-134 206,-156 410,-156 410,-134 206,-134"/>
<text text-anchor="start" x="226" y="-142.2" font-family="Helvetica,sans-Serif" font-size="11.00">recdatecreated</text>
<polygon fill="none" stroke="black" points="410,-134 410,-156 484,-156 484,-134 410,-134"/>
<text text-anchor="start" x="413" y="-142.2" font-family="Helvetica,sans-Serif" font-size="11.00">timestamp[22]</text>
<polygon fill="none" stroke="black" points="206,-112 206,-134 410,-134 410,-112 206,-112"/>
<text text-anchor="start" x="226" y="-120.2" font-family="Helvetica,sans-Serif" font-size="11.00">recdatemodified</text>
<polygon fill="none" stroke="black" points="410,-112 410,-134 484,-134 484,-112 410,-112"/>
<text text-anchor="start" x="413" y="-120.2" font-family="Helvetica,sans-Serif" font-size="11.00">timestamp[22]</text>
<polygon fill="#ffffff" stroke="transparent" points="206,-94 206,-112 293,-112 293,-94 206,-94"/>
<polygon fill="none" stroke="black" points="206,-94 206,-112 293,-112 293,-94 206,-94"/>
<text text-anchor="start" x="209" y="-100.2" font-family="Helvetica,sans-Serif" font-size="11.00">&lt; 2</text>
<polygon fill="#ffffff" stroke="transparent" points="293,-94 293,-112 410,-112 410,-94 293,-94"/>
<polygon fill="none" stroke="black" points="293,-94 293,-112 410,-112 410,-94 293,-94"/>
<text text-anchor="start" x="362" y="-100.2" font-family="Helvetica,sans-Serif" font-size="11.00">446 rows</text>
<polygon fill="#ffffff" stroke="transparent" points="410,-94 410,-112 484,-112 484,-94 410,-94"/>
<polygon fill="none" stroke="black" points="410,-94 410,-112 484,-112 484,-94 410,-94"/>
<text text-anchor="start" x="465" y="-100.2" font-family="Helvetica,sans-Serif" font-size="11.00">0 &gt;</text>
<polygon fill="none" stroke="black" stroke-width="2" points="205,-93 205,-223 485,-223 485,-93 205,-93"/>
</a>
</g>
</g>
<!-- elementtaxagroups -->
<g id="node2" class="node">
<title>elementtaxagroups</title>
<g id="a_node2"><a xlink:href="../../tables/elementtaxagroups.html" xlink:title="elementtaxagroups" target="_top">
<polygon fill="#ffffff" stroke="transparent" points="9,-160 9,-284 154,-284 154,-160 9,-160"/>
<polygon fill="#f5f5f5" stroke="transparent" points="9.5,-262 9.5,-284 154.5,-284 154.5,-262 9.5,-262"/>
<polygon fill="none" stroke="black" points="9.5,-262 9.5,-284 154.5,-284 154.5,-262 9.5,-262"/>
<text text-anchor="start" x="14.5" y="-271.2" font-family="Helvetica,sans-Serif" font-weight="bold" font-size="11.00">elementtaxagroups</text>
<text text-anchor="start" x="119.5" y="-270.2" font-family="Helvetica,sans-Serif" font-size="11.00">[table]</text>
<polygon fill="none" stroke="black" points="9.5,-240 9.5,-262 154.5,-262 154.5,-240 9.5,-240"/>
<image xlink:href="../../images/primaryKeys.png" width="11px" height="12px" preserveAspectRatio="xMinYMin meet" x="14.5" y="-257"/>
<text text-anchor="start" x="30.5" y="-248.2" font-family="Helvetica,sans-Serif" font-size="11.00">elementtaxagroupid</text>
<polygon fill="#ffffff" stroke="transparent" points="9.5,-218 9.5,-240 154.5,-240 154.5,-218 9.5,-218"/>
<polygon fill="none" stroke="black" points="9.5,-218 9.5,-240 154.5,-240 154.5,-218 9.5,-218"/>
<image xlink:href="../../images/foreignKeys.png" width="11px" height="12px" preserveAspectRatio="xMinYMin meet" x="14.5" y="-235"/>
<text text-anchor="start" x="30.5" y="-226.2" font-family="Helvetica,sans-Serif" font-size="11.00">taxagroupid</text>
<polygon fill="#ffffff" stroke="transparent" points="9.5,-196 9.5,-218 154.5,-218 154.5,-196 9.5,-196"/>
<polygon fill="none" stroke="black" points="9.5,-196 9.5,-218 154.5,-218 154.5,-196 9.5,-196"/>
<image xlink:href="../../images/foreignKeys.png" width="11px" height="12px" preserveAspectRatio="xMinYMin meet" x="14.5" y="-213"/>
<text text-anchor="start" x="30.5" y="-204.2" font-family="Helvetica,sans-Serif" font-size="11.00">elementtypeid</text>
<polygon fill="none" stroke="black" points="9.5,-178 9.5,-196 154.5,-196 154.5,-178 9.5,-178"/>
<text text-anchor="start" x="12.5" y="-184.2" font-family="Helvetica,sans-Serif" font-size="11.00">...</text>
<polygon fill="#ffffff" stroke="transparent" points="9.5,-160 9.5,-178 51.5,-178 51.5,-160 9.5,-160"/>
<polygon fill="none" stroke="black" points="9.5,-160 9.5,-178 51.5,-178 51.5,-160 9.5,-160"/>
<text text-anchor="start" x="12.5" y="-166.2" font-family="Helvetica,sans-Serif" font-size="11.00">&lt; 2</text>
<polygon fill="#ffffff" stroke="transparent" points="51.5,-160 51.5,-178 121.5,-178 121.5,-160 51.5,-160"/>
<polygon fill="none" stroke="black" points="51.5,-160 51.5,-178 121.5,-178 121.5,-160 51.5,-160"/>
<text text-anchor="start" x="64.5" y="-166.2" font-family="Helvetica,sans-Serif" font-size="11.00">1,010 rows</text>
<polygon fill="#ffffff" stroke="transparent" points="121.5,-160 121.5,-178 154.5,-178 154.5,-160 121.5,-160"/>
<polygon fill="none" stroke="black" points="121.5,-160 121.5,-178 154.5,-178 154.5,-160 121.5,-160"/>
<text text-anchor="start" x="135.5" y="-166.2" font-family="Helvetica,sans-Serif" font-size="11.00">3 &gt;</text>
</a>
</g>
</g>
<!-- elementtaxagroupsymmetries&#45;&gt;elementtaxagroups -->
<g id="edge1" class="edge">
<title>elementtaxagroupsymmetries:w&#45;&gt;elementtaxagroups:e</title>
<path fill="none" stroke="black" d="M191.24,-193.87C175.3,-208.48 184.7,-251 155.5,-251"/>
<polygon fill="black" stroke="black" points="197.46,-191.67 206.2,-192.39 201.23,-190.33 205,-189 205,-189 205,-189 201.23,-190.33 203.8,-185.61 197.46,-191.67 197.46,-191.67"/>
<ellipse fill="none" stroke="black" cx="194.44" cy="-192.73" rx="3.2" ry="3.2"/>
</g>
<!-- elementsymmetries -->
<g id="node3" class="node">
<title>elementsymmetries</title>
<g id="a_node3"><a xlink:href="../../tables/elementsymmetries.html" xlink:title="elementsymmetries" target="_top">
<polygon fill="#ffffff" stroke="transparent" points="8,-37 8,-139 155,-139 155,-37 8,-37"/>
<polygon fill="#f5f5f5" stroke="transparent" points="8.5,-117 8.5,-139 155.5,-139 155.5,-117 8.5,-117"/>
<polygon fill="none" stroke="black" points="8.5,-117 8.5,-139 155.5,-139 155.5,-117 8.5,-117"/>
<text text-anchor="start" x="13.5" y="-126.2" font-family="Helvetica,sans-Serif" font-weight="bold" font-size="11.00">elementsymmetries</text>
<text text-anchor="start" x="120.5" y="-125.2" font-family="Helvetica,sans-Serif" font-size="11.00">[table]</text>
<polygon fill="none" stroke="black" points="8.5,-95 8.5,-117 155.5,-117 155.5,-95 8.5,-95"/>
<image xlink:href="../../images/primaryKeys.png" width="11px" height="12px" preserveAspectRatio="xMinYMin meet" x="13.5" y="-112"/>
<text text-anchor="start" x="31.5" y="-103.2" font-family="Helvetica,sans-Serif" font-size="11.00">symmetryid</text>
<polygon fill="#ffffff" stroke="transparent" points="8.5,-73 8.5,-95 155.5,-95 155.5,-73 8.5,-73"/>
<polygon fill="none" stroke="black" points="8.5,-73 8.5,-95 155.5,-95 155.5,-73 8.5,-73"/>
<text text-anchor="start" x="31.5" y="-81.2" font-family="Helvetica,sans-Serif" font-size="11.00">symmetry</text>
<polygon fill="none" stroke="black" points="8.5,-55 8.5,-73 155.5,-73 155.5,-55 8.5,-55"/>
<text text-anchor="start" x="11.5" y="-61.2" font-family="Helvetica,sans-Serif" font-size="11.00">...</text>
<polygon fill="#ffffff" stroke="transparent" points="8.5,-37 8.5,-55 57.5,-55 57.5,-37 8.5,-37"/>
<polygon fill="none" stroke="black" points="8.5,-37 8.5,-55 57.5,-55 57.5,-37 8.5,-37"/>
<text text-anchor="start" x="11.5" y="-43.2" font-family="Helvetica,sans-Serif" font-size="11.00"> &#160;</text>
<polygon fill="#ffffff" stroke="transparent" points="57.5,-37 57.5,-55 114.5,-55 114.5,-37 57.5,-37"/>
<polygon fill="none" stroke="black" points="57.5,-37 57.5,-55 114.5,-55 114.5,-37 57.5,-37"/>
<text text-anchor="start" x="78.5" y="-43.2" font-family="Helvetica,sans-Serif" font-size="11.00">8 rows</text>
<polygon fill="#ffffff" stroke="transparent" points="114.5,-37 114.5,-55 155.5,-55 155.5,-37 114.5,-37"/>
<polygon fill="none" stroke="black" points="114.5,-37 114.5,-55 155.5,-55 155.5,-37 114.5,-37"/>
<text text-anchor="start" x="136.5" y="-43.2" font-family="Helvetica,sans-Serif" font-size="11.00">3 &gt;</text>
</a>
</g>
</g>
<!-- elementtaxagroupsymmetries&#45;&gt;elementsymmetries -->
<g id="edge2" class="edge">
<title>elementtaxagroupsymmetries:w&#45;&gt;elementsymmetries:e</title>
<path fill="none" stroke="black" d="M191.05,-161.8C176.04,-147.05 184.91,-106 156.5,-106"/>
<polygon fill="black" stroke="black" points="197.5,-164.2 203.74,-170.37 201.25,-165.6 205,-167 205,-167 205,-167 201.25,-165.6 206.26,-163.63 197.5,-164.2 197.5,-164.2"/>
<ellipse fill="none" stroke="black" cx="194.51" cy="-163.09" rx="3.2" ry="3.2"/>
</g>
</g>
</svg>
