<?xml version="1.0" encoding="UTF-8" standalone="no"?>
<!DOCTYPE svg PUBLIC "-//W3C//DTD SVG 1.1//EN"
 "http://www.w3.org/Graphics/SVG/1.1/DTD/svg11.dtd">
<!-- Generated by graphviz version 2.43.0 (0)
 -->
<!-- Title: oneDegreeRelationshipsDiagram Pages: 1 -->
<svg width="492pt" height="296pt"
 viewBox="0.00 0.00 492.00 296.00" xmlns="http://www.w3.org/2000/svg" xmlns:xlink="http://www.w3.org/1999/xlink">
<g id="graph0" class="graph" transform="scale(1 1) rotate(0) translate(4 292)">
<title>oneDegreeRelationshipsDiagram</title>
<polygon fill="#ffffff" stroke="transparent" points="-4,4 -4,-292 488,-292 488,4 -4,4"/>
<text text-anchor="middle" x="71.5" y="-7.2" font-family="Helvetica,sans-Serif" font-size="11.00">Generated by SchemaSpy</text>
<!-- elementtaxagroupmaturities -->
<g id="node1" class="node">
<title>elementtaxagroupmaturities</title>
<g id="a_node1"><a xlink:href="../../tables/elementtaxagroupmaturities.html" xlink:title="elementtaxagroupmaturities" target="_top">
<polygon fill="#ffffff" stroke="transparent" points="202,-92 202,-224 476,-224 476,-92 202,-92"/>
<polygon fill="#f5f5f5" stroke="transparent" points="204,-200 204,-222 474,-222 474,-200 204,-200"/>
<polygon fill="none" stroke="black" points="204,-200 204,-222 474,-222 474,-200 204,-200"/>
<text text-anchor="start" x="209" y="-209.2" font-family="Helvetica,sans-Serif" font-weight="bold" font-size="11.00">elementtaxagroupmaturities</text>
<text text-anchor="start" x="439" y="-208.2" font-family="Helvetica,sans-Serif" font-size="11.00">[table]</text>
<polygon fill="none" stroke="black" points="204,-178 204,-200 400,-200 400,-178 204,-178"/>
<image xlink:href="../../images/primaryKeys.png" width="11px" height="12px" preserveAspectRatio="xMinYMin meet" x="209" y="-195"/>
<text text-anchor="start" x="224" y="-186.2" font-family="Helvetica,sans-Serif" font-size="11.00">elementtaxagroupid</text>
<polygon fill="none" stroke="black" points="400,-178 400,-200 474,-200 474,-178 400,-178"/>
<text text-anchor="start" x="403" y="-186.2" font-family="Helvetica,sans-Serif" font-size="11.00">int4[10]</text>
<polygon fill="none" stroke="black" points="204,-156 204,-178 400,-178 400,-156 204,-156"/>
<image xlink:href="../../images/primaryKeys.png" width="11px" height="12px" preserveAspectRatio="xMinYMin meet" x="209" y="-173"/>
<text text-anchor="start" x="224" y="-164.2" font-family="Helvetica,sans-Serif" font-size="11.00">maturityid</text>
<polygon fill="none" stroke="black" points="400,-156 400,-178 474,-178 474,-156 400,-156"/>
<text text-anchor="start" x="403" y="-164.2" font-family="Helvetica,sans-Serif" font-size="11.00">int4[10]</text>
<polygon fill="none" stroke="black" points="204,-134 204,-156 400,-156 400,-134 204,-134"/>
<text text-anchor="start" x="224" y="-142.2" font-family="Helvetica,sans-Serif" font-size="11.00">recdatecreated</text>
<polygon fill="none" stroke="black" points="400,-134 400,-156 474,-156 474,-134 400,-134"/>
<text text-anchor="start" x="403" y="-142.2" font-family="Helvetica,sans-Serif" font-size="11.00">timestamp[22]</text>
<polygon fill="none" stroke="black" points="204,-112 204,-134 400,-134 400,-112 204,-112"/>
<text text-anchor="start" x="224" y="-120.2" font-family="Helvetica,sans-Serif" font-size="11.00">recdatemodified</text>
<polygon fill="none" stroke="black" points="400,-112 400,-134 474,-134 474,-112 400,-112"/>
<text text-anchor="start" x="403" y="-120.2" font-family="Helvetica,sans-Serif" font-size="11.00">timestamp[22]</text>
<polygon fill="#ffffff" stroke="transparent" points="204,-94 204,-112 290,-112 290,-94 204,-94"/>
<polygon fill="none" stroke="black" points="204,-94 204,-112 290,-112 290,-94 204,-94"/>
<text text-anchor="start" x="207" y="-100.2" font-family="Helvetica,sans-Serif" font-size="11.00">&lt; 2</text>
<polygon fill="#ffffff" stroke="transparent" points="290,-94 290,-112 400,-112 400,-94 290,-94"/>
<polygon fill="none" stroke="black" points="290,-94 290,-112 400,-112 400,-94 290,-94"/>
<text text-anchor="start" x="358" y="-100.2" font-family="Helvetica,sans-Serif" font-size="11.00">40 rows</text>
<polygon fill="#ffffff" stroke="transparent" points="400,-94 400,-112 474,-112 474,-94 400,-94"/>
<polygon fill="none" stroke="black" points="400,-94 400,-112 474,-112 474,-94 400,-94"/>
<text text-anchor="start" x="455" y="-100.2" font-family="Helvetica,sans-Serif" font-size="11.00">0 &gt;</text>
<polygon fill="none" stroke="black" stroke-width="2" points="203,-93 203,-223 475,-223 475,-93 203,-93"/>
</a>
</g>
</g>
<!-- elementtaxagroups -->
<g id="node2" class="node">
<title>elementtaxagroups</title>
<g id="a_node2"><a xlink:href="../../tables/elementtaxagroups.html" xlink:title="elementtaxagroups" target="_top">
<polygon fill="#ffffff" stroke="transparent" points="8,-160 8,-284 153,-284 153,-160 8,-160"/>
<polygon fill="#f5f5f5" stroke="transparent" points="8.5,-262 8.5,-284 153.5,-284 153.5,-262 8.5,-262"/>
<polygon fill="none" stroke="black" points="8.5,-262 8.5,-284 153.5,-284 153.5,-262 8.5,-262"/>
<text text-anchor="start" x="13.5" y="-271.2" font-family="Helvetica,sans-Serif" font-weight="bold" font-size="11.00">elementtaxagroups</text>
<text text-anchor="start" x="118.5" y="-270.2" font-family="Helvetica,sans-Serif" font-size="11.00">[table]</text>
<polygon fill="none" stroke="black" points="8.5,-240 8.5,-262 153.5,-262 153.5,-240 8.5,-240"/>
<image xlink:href="../../images/primaryKeys.png" width="11px" height="12px" preserveAspectRatio="xMinYMin meet" x="13.5" y="-257"/>
<text text-anchor="start" x="29.5" y="-248.2" font-family="Helvetica,sans-Serif" font-size="11.00">elementtaxagroupid</text>
<polygon fill="#ffffff" stroke="transparent" points="8.5,-218 8.5,-240 153.5,-240 153.5,-218 8.5,-218"/>
<polygon fill="none" stroke="black" points="8.5,-218 8.5,-240 153.5,-240 153.5,-218 8.5,-218"/>
<image xlink:href="../../images/foreignKeys.png" width="11px" height="12px" preserveAspectRatio="xMinYMin meet" x="13.5" y="-235"/>
<text text-anchor="start" x="29.5" y="-226.2" font-family="Helvetica,sans-Serif" font-size="11.00">taxagroupid</text>
<polygon fill="#ffffff" stroke="transparent" points="8.5,-196 8.5,-218 153.5,-218 153.5,-196 8.5,-196"/>
<polygon fill="none" stroke="black" points="8.5,-196 8.5,-218 153.5,-218 153.5,-196 8.5,-196"/>
<image xlink:href="../../images/foreignKeys.png" width="11px" height="12px" preserveAspectRatio="xMinYMin meet" x="13.5" y="-213"/>
<text text-anchor="start" x="29.5" y="-204.2" font-family="Helvetica,sans-Serif" font-size="11.00">elementtypeid</text>
<polygon fill="none" stroke="black" points="8.5,-178 8.5,-196 153.5,-196 153.5,-178 8.5,-178"/>
<text text-anchor="start" x="11.5" y="-184.2" font-family="Helvetica,sans-Serif" font-size="11.00">...</text>
<polygon fill="#ffffff" stroke="transparent" points="8.5,-160 8.5,-178 50.5,-178 50.5,-160 8.5,-160"/>
<polygon fill="none" stroke="black" points="8.5,-160 8.5,-178 50.5,-178 50.5,-160 8.5,-160"/>
<text text-anchor="start" x="11.5" y="-166.2" font-family="Helvetica,sans-Serif" font-size="11.00">&lt; 2</text>
<polygon fill="#ffffff" stroke="transparent" points="50.5,-160 50.5,-178 120.5,-178 120.5,-160 50.5,-160"/>
<polygon fill="none" stroke="black" points="50.5,-160 50.5,-178 120.5,-178 120.5,-160 50.5,-160"/>
<text text-anchor="start" x="63.5" y="-166.2" font-family="Helvetica,sans-Serif" font-size="11.00">1,010 rows</text>
<polygon fill="#ffffff" stroke="transparent" points="120.5,-160 120.5,-178 153.5,-178 153.5,-160 120.5,-160"/>
<polygon fill="none" stroke="black" points="120.5,-160 120.5,-178 153.5,-178 153.5,-160 120.5,-160"/>
<text text-anchor="start" x="134.5" y="-166.2" font-family="Helvetica,sans-Serif" font-size="11.00">3 &gt;</text>
</a>
</g>
</g>
<!-- elementtaxagroupmaturities&#45;&gt;elementtaxagroups -->
<g id="edge1" class="edge">
<title>elementtaxagroupmaturities:w&#45;&gt;elementtaxagroups:e</title>
<path fill="none" stroke="black" d="M189.39,-193.87C173.73,-208.48 183.47,-251 154.5,-251"/>
<polygon fill="black" stroke="black" points="195.47,-191.69 204.21,-192.39 199.23,-190.35 203,-189 203,-189 203,-189 199.23,-190.35 201.79,-185.61 195.47,-191.69 195.47,-191.69"/>
<ellipse fill="none" stroke="black" cx="192.45" cy="-192.77" rx="3.2" ry="3.2"/>
</g>
<!-- elementmaturities -->
<g id="node3" class="node">
<title>elementmaturities</title>
<g id="a_node3"><a xlink:href="../../tables/elementmaturities.html" xlink:title="elementmaturities" target="_top">
<polygon fill="#ffffff" stroke="transparent" points="11.5,-37 11.5,-139 149.5,-139 149.5,-37 11.5,-37"/>
<polygon fill="#f5f5f5" stroke="transparent" points="11.5,-117 11.5,-139 149.5,-139 149.5,-117 11.5,-117"/>
<polygon fill="none" stroke="black" points="11.5,-117 11.5,-139 149.5,-139 149.5,-117 11.5,-117"/>
<text text-anchor="start" x="16.5" y="-126.2" font-family="Helvetica,sans-Serif" font-weight="bold" font-size="11.00">elementmaturities</text>
<text text-anchor="start" x="114.5" y="-125.2" font-family="Helvetica,sans-Serif" font-size="11.00">[table]</text>
<polygon fill="none" stroke="black" points="11.5,-95 11.5,-117 149.5,-117 149.5,-95 11.5,-95"/>
<image xlink:href="../../images/primaryKeys.png" width="11px" height="12px" preserveAspectRatio="xMinYMin meet" x="16.5" y="-112"/>
<text text-anchor="start" x="34.5" y="-103.2" font-family="Helvetica,sans-Serif" font-size="11.00">maturityid</text>
<polygon fill="#ffffff" stroke="transparent" points="11.5,-73 11.5,-95 149.5,-95 149.5,-73 11.5,-73"/>
<polygon fill="none" stroke="black" points="11.5,-73 11.5,-95 149.5,-95 149.5,-73 11.5,-73"/>
<text text-anchor="start" x="34.5" y="-81.2" font-family="Helvetica,sans-Serif" font-size="11.00">maturity</text>
<polygon fill="none" stroke="black" points="11.5,-55 11.5,-73 149.5,-73 149.5,-55 11.5,-55"/>
<text text-anchor="start" x="14.5" y="-61.2" font-family="Helvetica,sans-Serif" font-size="11.00">...</text>
<polygon fill="#ffffff" stroke="transparent" points="11.5,-37 11.5,-55 53.5,-55 53.5,-37 11.5,-37"/>
<polygon fill="none" stroke="black" points="11.5,-37 11.5,-55 53.5,-55 53.5,-37 11.5,-37"/>
<text text-anchor="start" x="14.5" y="-43.2" font-family="Helvetica,sans-Serif" font-size="11.00"> &#160;</text>
<polygon fill="#ffffff" stroke="transparent" points="53.5,-37 53.5,-55 112.5,-55 112.5,-37 53.5,-37"/>
<polygon fill="none" stroke="black" points="53.5,-37 53.5,-55 112.5,-55 112.5,-37 53.5,-37"/>
<text text-anchor="start" x="70.5" y="-43.2" font-family="Helvetica,sans-Serif" font-size="11.00">12 rows</text>
<polygon fill="#ffffff" stroke="transparent" points="112.5,-37 112.5,-55 149.5,-55 149.5,-37 112.5,-37"/>
<polygon fill="none" stroke="black" points="112.5,-37 112.5,-55 149.5,-55 149.5,-37 112.5,-37"/>
<text text-anchor="start" x="130.5" y="-43.2" font-family="Helvetica,sans-Serif" font-size="11.00">3 &gt;</text>
</a>
</g>
</g>
<!-- elementtaxagroupmaturities&#45;&gt;elementmaturities -->
<g id="edge2" class="edge">
<title>elementtaxagroupmaturities:w&#45;&gt;elementmaturities:e</title>
<path fill="none" stroke="black" d="M188.86,-162.21C172.16,-147.83 180.12,-106 150.5,-106"/>
<polygon fill="black" stroke="black" points="195.42,-164.44 201.85,-170.41 199.21,-165.72 203,-167 203,-167 203,-167 199.21,-165.72 204.15,-163.59 195.42,-164.44 195.42,-164.44"/>
<ellipse fill="none" stroke="black" cx="192.39" cy="-163.41" rx="3.2" ry="3.2"/>
</g>
</g>
</svg>
