<?xml version="1.0" encoding="UTF-8" standalone="no"?>
<!DOCTYPE svg PUBLIC "-//W3C//DTD SVG 1.1//EN"
 "http://www.w3.org/Graphics/SVG/1.1/DTD/svg11.dtd">
<!-- Generated by graphviz version 2.43.0 (0)
 -->
<!-- Title: twoDegreesRelationshipsDiagram Pages: 1 -->
<svg width="659pt" height="411pt"
 viewBox="0.00 0.00 659.00 411.00" xmlns="http://www.w3.org/2000/svg" xmlns:xlink="http://www.w3.org/1999/xlink">
<g id="graph0" class="graph" transform="scale(1 1) rotate(0) translate(4 407)">
<title>twoDegreesRelationshipsDiagram</title>
<polygon fill="#ffffff" stroke="transparent" points="-4,4 -4,-407 655,-407 655,4 -4,4"/>
<text text-anchor="middle" x="71.5" y="-7.2" font-family="Helvetica,sans-Serif" font-size="11.00">Generated by SchemaSpy</text>
<!-- elementtaxagroupmaturities -->
<g id="node1" class="node">
<title>elementtaxagroupmaturities</title>
<g id="a_node1"><a xlink:href="../../tables/elementtaxagroupmaturities.html" xlink:title="elementtaxagroupmaturities" target="_top">
<polygon fill="#ffffff" stroke="transparent" points="416,-262 416,-320 608,-320 608,-262 416,-262"/>
<polygon fill="#f5f5f5" stroke="transparent" points="416,-298 416,-320 608,-320 608,-298 416,-298"/>
<polygon fill="none" stroke="black" points="416,-298 416,-320 608,-320 608,-298 416,-298"/>
<text text-anchor="start" x="421" y="-307.2" font-family="Helvetica,sans-Serif" font-weight="bold" font-size="11.00">elementtaxagroupmaturities</text>
<text text-anchor="start" x="573" y="-306.2" font-family="Helvetica,sans-Serif" font-size="11.00">[table]</text>
<polygon fill="none" stroke="black" points="416,-280 416,-298 608,-298 608,-280 416,-280"/>
<text text-anchor="start" x="419" y="-286.2" font-family="Helvetica,sans-Serif" font-size="11.00">...</text>
<polygon fill="#ffffff" stroke="transparent" points="416,-262 416,-280 494,-280 494,-262 416,-262"/>
<polygon fill="none" stroke="black" points="416,-262 416,-280 494,-280 494,-262 416,-262"/>
<text text-anchor="start" x="419" y="-268.2" font-family="Helvetica,sans-Serif" font-size="11.00">&lt; 2</text>
<polygon fill="#ffffff" stroke="transparent" points="494,-262 494,-280 567,-280 567,-262 494,-262"/>
<polygon fill="none" stroke="black" points="494,-262 494,-280 567,-280 567,-262 494,-262"/>
<text text-anchor="start" x="525" y="-268.2" font-family="Helvetica,sans-Serif" font-size="11.00">40 rows</text>
<polygon fill="#ffffff" stroke="transparent" points="567,-262 567,-280 608,-280 608,-262 567,-262"/>
<polygon fill="none" stroke="black" points="567,-262 567,-280 608,-280 608,-262 567,-262"/>
<text text-anchor="start" x="598" y="-268.2" font-family="Helvetica,sans-Serif" font-size="11.00"> &#160;</text>
</a>
</g>
</g>
<!-- elementtaxagroups -->
<g id="node2" class="node">
<title>elementtaxagroups</title>
<g id="a_node2"><a xlink:href="../../tables/elementtaxagroups.html" xlink:title="elementtaxagroups" target="_top">
<polygon fill="#ffffff" stroke="transparent" points="187,-238 187,-362 332,-362 332,-238 187,-238"/>
<polygon fill="#f5f5f5" stroke="transparent" points="187.5,-340 187.5,-362 332.5,-362 332.5,-340 187.5,-340"/>
<polygon fill="none" stroke="black" points="187.5,-340 187.5,-362 332.5,-362 332.5,-340 187.5,-340"/>
<text text-anchor="start" x="192.5" y="-349.2" font-family="Helvetica,sans-Serif" font-weight="bold" font-size="11.00">elementtaxagroups</text>
<text text-anchor="start" x="297.5" y="-348.2" font-family="Helvetica,sans-Serif" font-size="11.00">[table]</text>
<polygon fill="none" stroke="black" points="187.5,-318 187.5,-340 332.5,-340 332.5,-318 187.5,-318"/>
<image xlink:href="../../images/primaryKeys.png" width="11px" height="12px" preserveAspectRatio="xMinYMin meet" x="192.5" y="-335"/>
<text text-anchor="start" x="208.5" y="-326.2" font-family="Helvetica,sans-Serif" font-size="11.00">elementtaxagroupid</text>
<polygon fill="#ffffff" stroke="transparent" points="187.5,-296 187.5,-318 332.5,-318 332.5,-296 187.5,-296"/>
<polygon fill="none" stroke="black" points="187.5,-296 187.5,-318 332.5,-318 332.5,-296 187.5,-296"/>
<image xlink:href="../../images/foreignKeys.png" width="11px" height="12px" preserveAspectRatio="xMinYMin meet" x="192.5" y="-313"/>
<text text-anchor="start" x="208.5" y="-304.2" font-family="Helvetica,sans-Serif" font-size="11.00">taxagroupid</text>
<polygon fill="#ffffff" stroke="transparent" points="187.5,-274 187.5,-296 332.5,-296 332.5,-274 187.5,-274"/>
<polygon fill="none" stroke="black" points="187.5,-274 187.5,-296 332.5,-296 332.5,-274 187.5,-274"/>
<image xlink:href="../../images/foreignKeys.png" width="11px" height="12px" preserveAspectRatio="xMinYMin meet" x="192.5" y="-291"/>
<text text-anchor="start" x="208.5" y="-282.2" font-family="Helvetica,sans-Serif" font-size="11.00">elementtypeid</text>
<polygon fill="none" stroke="black" points="187.5,-256 187.5,-274 332.5,-274 332.5,-256 187.5,-256"/>
<text text-anchor="start" x="190.5" y="-262.2" font-family="Helvetica,sans-Serif" font-size="11.00">...</text>
<polygon fill="#ffffff" stroke="transparent" points="187.5,-238 187.5,-256 229.5,-256 229.5,-238 187.5,-238"/>
<polygon fill="none" stroke="black" points="187.5,-238 187.5,-256 229.5,-256 229.5,-238 187.5,-238"/>
<text text-anchor="start" x="190.5" y="-244.2" font-family="Helvetica,sans-Serif" font-size="11.00">&lt; 2</text>
<polygon fill="#ffffff" stroke="transparent" points="229.5,-238 229.5,-256 299.5,-256 299.5,-238 229.5,-238"/>
<polygon fill="none" stroke="black" points="229.5,-238 229.5,-256 299.5,-256 299.5,-238 229.5,-238"/>
<text text-anchor="start" x="242.5" y="-244.2" font-family="Helvetica,sans-Serif" font-size="11.00">1,010 rows</text>
<polygon fill="#ffffff" stroke="transparent" points="299.5,-238 299.5,-256 332.5,-256 332.5,-238 299.5,-238"/>
<polygon fill="none" stroke="black" points="299.5,-238 299.5,-256 332.5,-256 332.5,-238 299.5,-238"/>
<text text-anchor="start" x="313.5" y="-244.2" font-family="Helvetica,sans-Serif" font-size="11.00">3 &gt;</text>
</a>
</g>
</g>
<!-- elementtaxagroupmaturities&#45;&gt;elementtaxagroups -->
<g id="edge1" class="edge">
<title>elementtaxagroupmaturities:w&#45;&gt;elementtaxagroups:e</title>
<path fill="none" stroke="black" d="M400.47,-291.04C373.69,-299.19 368.33,-329 333.5,-329"/>
<polygon fill="black" stroke="black" points="407.08,-290.11 415.5,-292.57 411.04,-289.56 415,-289 415,-289 415,-289 411.04,-289.56 414.5,-285.43 407.08,-290.11 407.08,-290.11"/>
<ellipse fill="none" stroke="black" cx="403.91" cy="-290.56" rx="3.2" ry="3.2"/>
</g>
<!-- elementtypes -->
<g id="node5" class="node">
<title>elementtypes</title>
<g id="a_node5"><a xlink:href="../../tables/elementtypes.html" xlink:title="elementtypes" target="_top">
<polygon fill="#ffffff" stroke="transparent" points="16,-160 16,-218 130,-218 130,-160 16,-160"/>
<polygon fill="#f5f5f5" stroke="transparent" points="16,-196 16,-218 130,-218 130,-196 16,-196"/>
<polygon fill="none" stroke="black" points="16,-196 16,-218 130,-218 130,-196 16,-196"/>
<text text-anchor="start" x="21" y="-205.2" font-family="Helvetica,sans-Serif" font-weight="bold" font-size="11.00">elementtypes</text>
<text text-anchor="start" x="95" y="-204.2" font-family="Helvetica,sans-Serif" font-size="11.00">[table]</text>
<polygon fill="none" stroke="black" points="16,-178 16,-196 130,-196 130,-178 16,-178"/>
<text text-anchor="start" x="19" y="-184.2" font-family="Helvetica,sans-Serif" font-size="11.00">...</text>
<polygon fill="#ffffff" stroke="transparent" points="16,-160 16,-178 43,-178 43,-160 16,-160"/>
<polygon fill="none" stroke="black" points="16,-160 16,-178 43,-178 43,-160 16,-160"/>
<text text-anchor="start" x="19" y="-166.2" font-family="Helvetica,sans-Serif" font-size="11.00"> &#160;</text>
<polygon fill="#ffffff" stroke="transparent" points="43,-160 43,-178 101,-178 101,-160 43,-160"/>
<polygon fill="none" stroke="black" points="43,-160 43,-178 101,-178 101,-160 43,-160"/>
<text text-anchor="start" x="53" y="-166.2" font-family="Helvetica,sans-Serif" font-size="11.00">926 rows</text>
<polygon fill="#ffffff" stroke="transparent" points="101,-160 101,-178 130,-178 130,-160 101,-160"/>
<polygon fill="none" stroke="black" points="101,-160 101,-178 130,-178 130,-160 101,-160"/>
<text text-anchor="start" x="111" y="-166.2" font-family="Helvetica,sans-Serif" font-size="11.00">5 &gt;</text>
</a>
</g>
</g>
<!-- elementtaxagroups&#45;&gt;elementtypes -->
<g id="edge4" class="edge">
<title>elementtaxagroups:w&#45;&gt;elementtypes:e</title>
<path fill="none" stroke="black" d="M172.5,-281.28C145.6,-263.38 175.19,-187 131,-187"/>
<polygon fill="black" stroke="black" points="178.77,-282.94 185.58,-288.48 182.63,-283.97 186.5,-285 186.5,-285 186.5,-285 182.63,-283.97 187.42,-281.52 178.77,-282.94 178.77,-282.94"/>
<ellipse fill="none" stroke="black" cx="175.68" cy="-282.12" rx="3.2" ry="3.2"/>
</g>
<!-- taxagrouptypes -->
<g id="node6" class="node">
<title>taxagrouptypes</title>
<g id="a_node6"><a xlink:href="../../tables/taxagrouptypes.html" xlink:title="taxagrouptypes" target="_top">
<polygon fill="#ffffff" stroke="transparent" points="10,-280 10,-338 136,-338 136,-280 10,-280"/>
<polygon fill="#f5f5f5" stroke="transparent" points="10,-316 10,-338 136,-338 136,-316 10,-316"/>
<polygon fill="none" stroke="black" points="10,-316 10,-338 136,-338 136,-316 10,-316"/>
<text text-anchor="start" x="15" y="-325.2" font-family="Helvetica,sans-Serif" font-weight="bold" font-size="11.00">taxagrouptypes</text>
<text text-anchor="start" x="101" y="-324.2" font-family="Helvetica,sans-Serif" font-size="11.00">[table]</text>
<polygon fill="none" stroke="black" points="10,-298 10,-316 136,-316 136,-298 10,-298"/>
<text text-anchor="start" x="13" y="-304.2" font-family="Helvetica,sans-Serif" font-size="11.00">...</text>
<polygon fill="#ffffff" stroke="transparent" points="10,-280 10,-298 46,-298 46,-280 10,-280"/>
<polygon fill="none" stroke="black" points="10,-280 10,-298 46,-298 46,-280 10,-280"/>
<text text-anchor="start" x="13" y="-286.2" font-family="Helvetica,sans-Serif" font-size="11.00"> &#160;</text>
<polygon fill="#ffffff" stroke="transparent" points="46,-280 46,-298 102,-298 102,-280 46,-280"/>
<polygon fill="none" stroke="black" points="46,-280 46,-298 102,-298 102,-280 46,-280"/>
<text text-anchor="start" x="60" y="-286.2" font-family="Helvetica,sans-Serif" font-size="11.00">55 rows</text>
<polygon fill="#ffffff" stroke="transparent" points="102,-280 102,-298 136,-298 136,-280 102,-280"/>
<polygon fill="none" stroke="black" points="102,-280 102,-298 136,-298 136,-280 102,-280"/>
<text text-anchor="start" x="117" y="-286.2" font-family="Helvetica,sans-Serif" font-size="11.00">4 &gt;</text>
</a>
</g>
</g>
<!-- elementtaxagroups&#45;&gt;taxagrouptypes -->
<g id="edge5" class="edge">
<title>elementtaxagroups:w&#45;&gt;taxagrouptypes:e</title>
<path fill="none" stroke="black" d="M171.84,-307C160.41,-307 153.16,-307 137,-307"/>
<polygon fill="black" stroke="black" points="178.5,-307 186.5,-310.6 182.5,-307 186.5,-307 186.5,-307 186.5,-307 182.5,-307 186.5,-303.4 178.5,-307 178.5,-307"/>
<ellipse fill="none" stroke="black" cx="175.3" cy="-307" rx="3.2" ry="3.2"/>
</g>
<!-- elementtaxagroupportions -->
<g id="node3" class="node">
<title>elementtaxagroupportions</title>
<g id="a_node3"><a xlink:href="../../tables/elementtaxagroupportions.html" xlink:title="elementtaxagroupportions" target="_top">
<polygon fill="#ffffff" stroke="transparent" points="381,-45 381,-177 643,-177 643,-45 381,-45"/>
<polygon fill="#f5f5f5" stroke="transparent" points="383,-153 383,-175 641,-175 641,-153 383,-153"/>
<polygon fill="none" stroke="black" points="383,-153 383,-175 641,-175 641,-153 383,-153"/>
<text text-anchor="start" x="388" y="-162.2" font-family="Helvetica,sans-Serif" font-weight="bold" font-size="11.00">elementtaxagroupportions</text>
<text text-anchor="start" x="606" y="-161.2" font-family="Helvetica,sans-Serif" font-size="11.00">[table]</text>
<polygon fill="none" stroke="black" points="383,-131 383,-153 567,-153 567,-131 383,-131"/>
<image xlink:href="../../images/primaryKeys.png" width="11px" height="12px" preserveAspectRatio="xMinYMin meet" x="388" y="-148"/>
<text text-anchor="start" x="403" y="-139.2" font-family="Helvetica,sans-Serif" font-size="11.00">elementtaxagroupid</text>
<polygon fill="none" stroke="black" points="567,-131 567,-153 641,-153 641,-131 567,-131"/>
<text text-anchor="start" x="570" y="-139.2" font-family="Helvetica,sans-Serif" font-size="11.00">int4[10]</text>
<polygon fill="none" stroke="black" points="383,-109 383,-131 567,-131 567,-109 383,-109"/>
<image xlink:href="../../images/primaryKeys.png" width="11px" height="12px" preserveAspectRatio="xMinYMin meet" x="388" y="-126"/>
<text text-anchor="start" x="403" y="-117.2" font-family="Helvetica,sans-Serif" font-size="11.00">portionid</text>
<polygon fill="none" stroke="black" points="567,-109 567,-131 641,-131 641,-109 567,-109"/>
<text text-anchor="start" x="570" y="-117.2" font-family="Helvetica,sans-Serif" font-size="11.00">int4[10]</text>
<polygon fill="none" stroke="black" points="383,-87 383,-109 567,-109 567,-87 383,-87"/>
<text text-anchor="start" x="403" y="-95.2" font-family="Helvetica,sans-Serif" font-size="11.00">recdatecreated</text>
<polygon fill="none" stroke="black" points="567,-87 567,-109 641,-109 641,-87 567,-87"/>
<text text-anchor="start" x="570" y="-95.2" font-family="Helvetica,sans-Serif" font-size="11.00">timestamp[22]</text>
<polygon fill="none" stroke="black" points="383,-65 383,-87 567,-87 567,-65 383,-65"/>
<text text-anchor="start" x="403" y="-73.2" font-family="Helvetica,sans-Serif" font-size="11.00">recdatemodified</text>
<polygon fill="none" stroke="black" points="567,-65 567,-87 641,-87 641,-65 567,-65"/>
<text text-anchor="start" x="570" y="-73.2" font-family="Helvetica,sans-Serif" font-size="11.00">timestamp[22]</text>
<polygon fill="#ffffff" stroke="transparent" points="383,-47 383,-65 460,-65 460,-47 383,-47"/>
<polygon fill="none" stroke="black" points="383,-47 383,-65 460,-65 460,-47 383,-47"/>
<text text-anchor="start" x="386" y="-53.2" font-family="Helvetica,sans-Serif" font-size="11.00">&lt; 2</text>
<polygon fill="#ffffff" stroke="transparent" points="460,-47 460,-65 567,-65 567,-47 460,-47"/>
<polygon fill="none" stroke="black" points="460,-47 460,-65 567,-65 567,-47 460,-47"/>
<text text-anchor="start" x="519" y="-53.2" font-family="Helvetica,sans-Serif" font-size="11.00">411 rows</text>
<polygon fill="#ffffff" stroke="transparent" points="567,-47 567,-65 641,-65 641,-47 567,-47"/>
<polygon fill="none" stroke="black" points="567,-47 567,-65 641,-65 641,-47 567,-47"/>
<text text-anchor="start" x="622" y="-53.2" font-family="Helvetica,sans-Serif" font-size="11.00">0 &gt;</text>
<polygon fill="none" stroke="black" stroke-width="2" points="382,-46 382,-176 642,-176 642,-46 382,-46"/>
</a>
</g>
</g>
<!-- elementtaxagroupportions&#45;&gt;elementtaxagroups -->
<g id="edge2" class="edge">
<title>elementtaxagroupportions:w&#45;&gt;elementtaxagroups:e</title>
<path fill="none" stroke="black" d="M367.54,-144.36C311.58,-166.01 413.66,-329 333.5,-329"/>
<polygon fill="black" stroke="black" points="374.1,-143.29 382.58,-145.55 378.05,-142.65 382,-142 382,-142 382,-142 378.05,-142.65 381.42,-138.45 374.1,-143.29 374.1,-143.29"/>
<ellipse fill="none" stroke="black" cx="370.95" cy="-143.81" rx="3.2" ry="3.2"/>
</g>
<!-- elementportions -->
<g id="node4" class="node">
<title>elementportions</title>
<g id="a_node4"><a xlink:href="../../tables/elementportions.html" xlink:title="elementportions" target="_top">
<polygon fill="#ffffff" stroke="transparent" points="8,-37 8,-139 138,-139 138,-37 8,-37"/>
<polygon fill="#f5f5f5" stroke="transparent" points="8,-117 8,-139 138,-139 138,-117 8,-117"/>
<polygon fill="none" stroke="black" points="8,-117 8,-139 138,-139 138,-117 8,-117"/>
<text text-anchor="start" x="13" y="-126.2" font-family="Helvetica,sans-Serif" font-weight="bold" font-size="11.00">elementportions</text>
<text text-anchor="start" x="103" y="-125.2" font-family="Helvetica,sans-Serif" font-size="11.00">[table]</text>
<polygon fill="none" stroke="black" points="8,-95 8,-117 138,-117 138,-95 8,-95"/>
<image xlink:href="../../images/primaryKeys.png" width="11px" height="12px" preserveAspectRatio="xMinYMin meet" x="13" y="-112"/>
<text text-anchor="start" x="33" y="-103.2" font-family="Helvetica,sans-Serif" font-size="11.00">portionid</text>
<polygon fill="#ffffff" stroke="transparent" points="8,-73 8,-95 138,-95 138,-73 8,-73"/>
<polygon fill="none" stroke="black" points="8,-73 8,-95 138,-95 138,-73 8,-73"/>
<text text-anchor="start" x="33" y="-81.2" font-family="Helvetica,sans-Serif" font-size="11.00">portion</text>
<polygon fill="none" stroke="black" points="8,-55 8,-73 138,-73 138,-55 8,-55"/>
<text text-anchor="start" x="11" y="-61.2" font-family="Helvetica,sans-Serif" font-size="11.00">...</text>
<polygon fill="#ffffff" stroke="transparent" points="8,-37 8,-55 46,-55 46,-37 8,-37"/>
<polygon fill="none" stroke="black" points="8,-37 8,-55 46,-55 46,-37 8,-37"/>
<text text-anchor="start" x="11" y="-43.2" font-family="Helvetica,sans-Serif" font-size="11.00"> &#160;</text>
<polygon fill="#ffffff" stroke="transparent" points="46,-37 46,-55 103,-55 103,-37 46,-37"/>
<polygon fill="none" stroke="black" points="46,-37 46,-55 103,-55 103,-37 46,-37"/>
<text text-anchor="start" x="61" y="-43.2" font-family="Helvetica,sans-Serif" font-size="11.00">54 rows</text>
<polygon fill="#ffffff" stroke="transparent" points="103,-37 103,-55 138,-55 138,-37 103,-37"/>
<polygon fill="none" stroke="black" points="103,-37 103,-55 138,-55 138,-37 103,-37"/>
<text text-anchor="start" x="119" y="-43.2" font-family="Helvetica,sans-Serif" font-size="11.00">3 &gt;</text>
</a>
</g>
</g>
<!-- elementtaxagroupportions&#45;&gt;elementportions -->
<g id="edge3" class="edge">
<title>elementtaxagroupportions:w&#45;&gt;elementportions:e</title>
<path fill="none" stroke="black" d="M368.07,-115.15C356.79,-104.41 360.75,-78.79 340,-69 275.29,-38.46 245.63,-42.91 179,-69 156.45,-77.83 163.22,-106 139,-106"/>
<polygon fill="black" stroke="black" points="374.44,-117.37 380.82,-123.4 378.22,-118.69 382,-120 382,-120 382,-120 378.22,-118.69 383.18,-116.6 374.44,-117.37 374.44,-117.37"/>
<ellipse fill="none" stroke="black" cx="371.42" cy="-116.32" rx="3.2" ry="3.2"/>
</g>
<!-- elementtaxagroupsymmetries -->
<g id="node7" class="node">
<title>elementtaxagroupsymmetries</title>
<g id="a_node7"><a xlink:href="../../tables/elementtaxagroupsymmetries.html" xlink:title="elementtaxagroupsymmetries" target="_top">
<polygon fill="#ffffff" stroke="transparent" points="412,-341 412,-399 612,-399 612,-341 412,-341"/>
<polygon fill="#f5f5f5" stroke="transparent" points="412,-377 412,-399 612,-399 612,-377 412,-377"/>
<polygon fill="none" stroke="black" points="412,-377 412,-399 612,-399 612,-377 412,-377"/>
<text text-anchor="start" x="417" y="-386.2" font-family="Helvetica,sans-Serif" font-weight="bold" font-size="11.00">elementtaxagroupsymmetries</text>
<text text-anchor="start" x="577" y="-385.2" font-family="Helvetica,sans-Serif" font-size="11.00">[table]</text>
<polygon fill="none" stroke="black" points="412,-359 412,-377 612,-377 612,-359 412,-359"/>
<text text-anchor="start" x="415" y="-365.2" font-family="Helvetica,sans-Serif" font-size="11.00">...</text>
<polygon fill="#ffffff" stroke="transparent" points="412,-341 412,-359 491,-359 491,-341 412,-341"/>
<polygon fill="none" stroke="black" points="412,-341 412,-359 491,-359 491,-341 412,-341"/>
<text text-anchor="start" x="415" y="-347.2" font-family="Helvetica,sans-Serif" font-size="11.00">&lt; 2</text>
<polygon fill="#ffffff" stroke="transparent" points="491,-341 491,-359 570,-359 570,-341 491,-341"/>
<polygon fill="none" stroke="black" points="491,-341 491,-359 570,-359 570,-341 491,-341"/>
<text text-anchor="start" x="522" y="-347.2" font-family="Helvetica,sans-Serif" font-size="11.00">446 rows</text>
<polygon fill="#ffffff" stroke="transparent" points="570,-341 570,-359 612,-359 612,-341 570,-341"/>
<polygon fill="none" stroke="black" points="570,-341 570,-359 612,-359 612,-341 570,-341"/>
<text text-anchor="start" x="602" y="-347.2" font-family="Helvetica,sans-Serif" font-size="11.00"> &#160;</text>
</a>
</g>
</g>
<!-- elementtaxagroupsymmetries&#45;&gt;elementtaxagroups -->
<g id="edge6" class="edge">
<title>elementtaxagroupsymmetries:w&#45;&gt;elementtaxagroups:e</title>
<path fill="none" stroke="black" d="M396.44,-365.79C371.53,-357.54 366.49,-329 333.5,-329"/>
<polygon fill="black" stroke="black" points="403.09,-366.8 410.46,-371.56 407.05,-367.4 411,-368 411,-368 411,-368 407.05,-367.4 411.54,-364.44 403.09,-366.8 403.09,-366.8"/>
<ellipse fill="none" stroke="black" cx="399.93" cy="-366.32" rx="3.2" ry="3.2"/>
</g>
<!-- specimens -->
<g id="node8" class="node">
<title>specimens</title>
<g id="a_node8"><a xlink:href="../../tables/specimens.html" xlink:title="specimens" target="_top">
<polygon fill="#ffffff" stroke="transparent" points="207.5,-159 207.5,-217 311.5,-217 311.5,-159 207.5,-159"/>
<polygon fill="#f5f5f5" stroke="transparent" points="207.5,-195 207.5,-217 311.5,-217 311.5,-195 207.5,-195"/>
<polygon fill="none" stroke="black" points="207.5,-195 207.5,-217 311.5,-217 311.5,-195 207.5,-195"/>
<text text-anchor="start" x="212.5" y="-204.2" font-family="Helvetica,sans-Serif" font-weight="bold" font-size="11.00">specimens</text>
<text text-anchor="start" x="276.5" y="-203.2" font-family="Helvetica,sans-Serif" font-size="11.00">[table]</text>
<polygon fill="none" stroke="black" points="207.5,-177 207.5,-195 311.5,-195 311.5,-177 207.5,-177"/>
<text text-anchor="start" x="210.5" y="-183.2" font-family="Helvetica,sans-Serif" font-size="11.00">...</text>
<polygon fill="#ffffff" stroke="transparent" points="207.5,-159 207.5,-177 229.5,-177 229.5,-159 207.5,-159"/>
<polygon fill="none" stroke="black" points="207.5,-159 207.5,-177 229.5,-177 229.5,-159 207.5,-159"/>
<text text-anchor="start" x="210.5" y="-165.2" font-family="Helvetica,sans-Serif" font-size="11.00">&lt; 8</text>
<polygon fill="#ffffff" stroke="transparent" points="229.5,-159 229.5,-177 289.5,-177 289.5,-159 229.5,-159"/>
<polygon fill="none" stroke="black" points="229.5,-159 229.5,-177 289.5,-177 289.5,-159 229.5,-159"/>
<text text-anchor="start" x="232.5" y="-165.2" font-family="Helvetica,sans-Serif" font-size="11.00">3,351 rows</text>
<polygon fill="#ffffff" stroke="transparent" points="289.5,-159 289.5,-177 311.5,-177 311.5,-159 289.5,-159"/>
<polygon fill="none" stroke="black" points="289.5,-159 289.5,-177 311.5,-177 311.5,-159 289.5,-159"/>
<text text-anchor="start" x="292.5" y="-165.2" font-family="Helvetica,sans-Serif" font-size="11.00">4 &gt;</text>
</a>
</g>
</g>
<!-- specimens&#45;&gt;elementportions -->
<g id="edge8" class="edge">
<title>specimens:w&#45;&gt;elementportions:e</title>
<path fill="none" stroke="black" d="M192.15,-182.56C165.24,-167.25 179.71,-106 139,-106"/>
<polygon fill="black" stroke="black" points="198.72,-184.14 205.66,-189.5 202.61,-185.07 206.5,-186 206.5,-186 206.5,-186 202.61,-185.07 207.34,-182.5 198.72,-184.14 198.72,-184.14"/>
<ellipse fill="none" stroke="black" cx="195.61" cy="-183.39" rx="3.2" ry="3.2"/>
</g>
<!-- specimens&#45;&gt;elementtypes -->
<g id="edge7" class="edge">
<title>specimens:w&#45;&gt;elementtypes:e</title>
<path fill="none" stroke="black" d="M191.79,-186.07C169.51,-186.3 159.05,-187 131,-187"/>
<polygon fill="black" stroke="black" points="198.5,-186.04 206.52,-189.6 202.5,-186.02 206.5,-186 206.5,-186 206.5,-186 202.5,-186.02 206.48,-182.4 198.5,-186.04 198.5,-186.04"/>
<ellipse fill="none" stroke="black" cx="195.3" cy="-186.05" rx="3.2" ry="3.2"/>
</g>
<!-- variableelements -->
<g id="node9" class="node">
<title>variableelements</title>
<g id="a_node9"><a xlink:href="../../tables/variableelements.html" xlink:title="variableelements" target="_top">
<polygon fill="#ffffff" stroke="transparent" points="193,-80 193,-138 326,-138 326,-80 193,-80"/>
<polygon fill="#f5f5f5" stroke="transparent" points="193.5,-116 193.5,-138 326.5,-138 326.5,-116 193.5,-116"/>
<polygon fill="none" stroke="black" points="193.5,-116 193.5,-138 326.5,-138 326.5,-116 193.5,-116"/>
<text text-anchor="start" x="198.5" y="-125.2" font-family="Helvetica,sans-Serif" font-weight="bold" font-size="11.00">variableelements</text>
<text text-anchor="start" x="291.5" y="-124.2" font-family="Helvetica,sans-Serif" font-size="11.00">[table]</text>
<polygon fill="none" stroke="black" points="193.5,-98 193.5,-116 326.5,-116 326.5,-98 193.5,-98"/>
<text text-anchor="start" x="196.5" y="-104.2" font-family="Helvetica,sans-Serif" font-size="11.00">...</text>
<polygon fill="#ffffff" stroke="transparent" points="193.5,-80 193.5,-98 234.5,-98 234.5,-80 193.5,-80"/>
<polygon fill="none" stroke="black" points="193.5,-80 193.5,-98 234.5,-98 234.5,-80 193.5,-80"/>
<text text-anchor="start" x="196.5" y="-86.2" font-family="Helvetica,sans-Serif" font-size="11.00">&lt; 4</text>
<polygon fill="#ffffff" stroke="transparent" points="234.5,-80 234.5,-98 294.5,-98 294.5,-80 234.5,-80"/>
<polygon fill="none" stroke="black" points="234.5,-80 234.5,-98 294.5,-98 294.5,-80 234.5,-80"/>
<text text-anchor="start" x="246.5" y="-86.2" font-family="Helvetica,sans-Serif" font-size="11.00">967 rows</text>
<polygon fill="#ffffff" stroke="transparent" points="294.5,-80 294.5,-98 326.5,-98 326.5,-80 294.5,-80"/>
<polygon fill="none" stroke="black" points="294.5,-80 294.5,-98 326.5,-98 326.5,-80 294.5,-80"/>
<text text-anchor="start" x="307.5" y="-86.2" font-family="Helvetica,sans-Serif" font-size="11.00">1 &gt;</text>
</a>
</g>
</g>
<!-- variableelements&#45;&gt;elementportions -->
<g id="edge10" class="edge">
<title>variableelements:w&#45;&gt;elementportions:e</title>
<path fill="none" stroke="black" d="M177.85,-106.85C164.8,-106.57 157.02,-106 139,-106"/>
<polygon fill="black" stroke="black" points="184.5,-106.92 192.46,-110.6 188.5,-106.96 192.5,-107 192.5,-107 192.5,-107 188.5,-106.96 192.54,-103.4 184.5,-106.92 184.5,-106.92"/>
<ellipse fill="none" stroke="black" cx="181.3" cy="-106.89" rx="3.2" ry="3.2"/>
</g>
<!-- variableelements&#45;&gt;elementtypes -->
<g id="edge9" class="edge">
<title>variableelements:w&#45;&gt;elementtypes:e</title>
<path fill="none" stroke="black" d="M178.48,-110.65C153.71,-126.3 170.07,-187 131,-187"/>
<polygon fill="black" stroke="black" points="184.76,-109.01 193.41,-110.48 188.63,-108.01 192.5,-107 192.5,-107 192.5,-107 188.63,-108.01 191.59,-103.52 184.76,-109.01 184.76,-109.01"/>
<ellipse fill="none" stroke="black" cx="181.66" cy="-109.82" rx="3.2" ry="3.2"/>
</g>
</g>
</svg>
