<?xml version="1.0" encoding="UTF-8" standalone="no"?>
<!DOCTYPE svg PUBLIC "-//W3C//DTD SVG 1.1//EN"
 "http://www.w3.org/Graphics/SVG/1.1/DTD/svg11.dtd">
<!-- Generated by graphviz version 2.43.0 (0)
 -->
<!-- Title: twoDegreesRelationshipsDiagram Pages: 1 -->
<svg width="461pt" height="756pt"
 viewBox="0.00 0.00 461.00 756.00" xmlns="http://www.w3.org/2000/svg" xmlns:xlink="http://www.w3.org/1999/xlink">
<g id="graph0" class="graph" transform="scale(1 1) rotate(0) translate(4 752)">
<title>twoDegreesRelationshipsDiagram</title>
<polygon fill="#ffffff" stroke="transparent" points="-4,4 -4,-752 457,-752 457,4 -4,4"/>
<text text-anchor="middle" x="71.5" y="-7.2" font-family="Helvetica,sans-Serif" font-size="11.00">Generated by SchemaSpy</text>
<!-- contextsdatasettypes -->
<g id="node1" class="node">
<title>contextsdatasettypes</title>
<g id="a_node1"><a xlink:href="../../tables/contextsdatasettypes.html" xlink:title="contextsdatasettypes" target="_top">
<polygon fill="#ffffff" stroke="transparent" points="236,-686 236,-744 392,-744 392,-686 236,-686"/>
<polygon fill="#f5f5f5" stroke="transparent" points="236,-722 236,-744 392,-744 392,-722 236,-722"/>
<polygon fill="none" stroke="black" points="236,-722 236,-744 392,-744 392,-722 236,-722"/>
<text text-anchor="start" x="241" y="-731.2" font-family="Helvetica,sans-Serif" font-weight="bold" font-size="11.00">contextsdatasettypes</text>
<text text-anchor="start" x="357" y="-730.2" font-family="Helvetica,sans-Serif" font-size="11.00">[table]</text>
<polygon fill="none" stroke="black" points="236,-704 236,-722 392,-722 392,-704 236,-704"/>
<text text-anchor="start" x="239" y="-710.2" font-family="Helvetica,sans-Serif" font-size="11.00">...</text>
<polygon fill="#ffffff" stroke="transparent" points="236,-686 236,-704 293,-704 293,-686 236,-686"/>
<polygon fill="none" stroke="black" points="236,-686 236,-704 293,-704 293,-686 236,-686"/>
<text text-anchor="start" x="239" y="-692.2" font-family="Helvetica,sans-Serif" font-size="11.00">&lt; 2</text>
<polygon fill="#ffffff" stroke="transparent" points="293,-686 293,-704 361,-704 361,-686 293,-686"/>
<polygon fill="none" stroke="black" points="293,-686 293,-704 361,-704 361,-686 293,-686"/>
<text text-anchor="start" x="313" y="-692.2" font-family="Helvetica,sans-Serif" font-size="11.00">205 rows</text>
<polygon fill="#ffffff" stroke="transparent" points="361,-686 361,-704 392,-704 392,-686 361,-686"/>
<polygon fill="none" stroke="black" points="361,-686 361,-704 392,-704 392,-686 361,-686"/>
<text text-anchor="start" x="382" y="-692.2" font-family="Helvetica,sans-Serif" font-size="11.00"> &#160;</text>
</a>
</g>
</g>
<!-- datasettypes -->
<g id="node2" class="node">
<title>datasettypes</title>
<g id="a_node2"><a xlink:href="../../tables/datasettypes.html" xlink:title="datasettypes" target="_top">
<polygon fill="#ffffff" stroke="transparent" points="11,-468 11,-548 131,-548 131,-468 11,-468"/>
<polygon fill="#f5f5f5" stroke="transparent" points="11,-526 11,-548 131,-548 131,-526 11,-526"/>
<polygon fill="none" stroke="black" points="11,-526 11,-548 131,-548 131,-526 11,-526"/>
<text text-anchor="start" x="16" y="-535.2" font-family="Helvetica,sans-Serif" font-weight="bold" font-size="11.00">datasettypes</text>
<text text-anchor="start" x="96" y="-534.2" font-family="Helvetica,sans-Serif" font-size="11.00">[table]</text>
<polygon fill="none" stroke="black" points="11,-504 11,-526 131,-526 131,-504 11,-504"/>
<image xlink:href="../../images/primaryKeys.png" width="11px" height="12px" preserveAspectRatio="xMinYMin meet" x="16" y="-521"/>
<text text-anchor="start" x="31" y="-512.2" font-family="Helvetica,sans-Serif" font-size="11.00">datasettypeid</text>
<polygon fill="none" stroke="black" points="11,-486 11,-504 131,-504 131,-486 11,-486"/>
<text text-anchor="start" x="14" y="-492.2" font-family="Helvetica,sans-Serif" font-size="11.00">...</text>
<polygon fill="#ffffff" stroke="transparent" points="11,-468 11,-486 44,-486 44,-468 11,-468"/>
<polygon fill="none" stroke="black" points="11,-468 11,-486 44,-486 44,-468 11,-468"/>
<text text-anchor="start" x="14" y="-474.2" font-family="Helvetica,sans-Serif" font-size="11.00"> &#160;</text>
<polygon fill="#ffffff" stroke="transparent" points="44,-468 44,-486 99,-486 99,-468 44,-468"/>
<polygon fill="none" stroke="black" points="44,-468 44,-486 99,-486 99,-468 44,-468"/>
<text text-anchor="start" x="57" y="-474.2" font-family="Helvetica,sans-Serif" font-size="11.00">42 rows</text>
<polygon fill="#ffffff" stroke="transparent" points="99,-468 99,-486 131,-486 131,-468 99,-468"/>
<polygon fill="none" stroke="black" points="99,-468 99,-486 131,-486 131,-468 99,-468"/>
<text text-anchor="start" x="112" y="-474.2" font-family="Helvetica,sans-Serif" font-size="11.00">6 &gt;</text>
</a>
</g>
</g>
<!-- contextsdatasettypes&#45;&gt;datasettypes -->
<g id="edge1" class="edge">
<title>contextsdatasettypes:w&#45;&gt;datasettypes:e</title>
<path fill="none" stroke="black" d="M220.59,-711.94C199.99,-708.53 190.49,-696.82 175,-676 130.79,-616.58 206.06,-515 132,-515"/>
<polygon fill="black" stroke="black" points="227.02,-712.41 234.74,-716.59 231.01,-712.71 235,-713 235,-713 235,-713 231.01,-712.71 235.26,-709.41 227.02,-712.41 227.02,-712.41"/>
<ellipse fill="none" stroke="black" cx="223.83" cy="-712.18" rx="3.2" ry="3.2"/>
</g>
<!-- datasets -->
<g id="node3" class="node">
<title>datasets</title>
<g id="a_node3"><a xlink:href="../../tables/datasets.html" xlink:title="datasets" target="_top">
<polygon fill="#ffffff" stroke="transparent" points="256,-607 256,-665 372,-665 372,-607 256,-607"/>
<polygon fill="#f5f5f5" stroke="transparent" points="256,-643 256,-665 372,-665 372,-643 256,-643"/>
<polygon fill="none" stroke="black" points="256,-643 256,-665 372,-665 372,-643 256,-643"/>
<text text-anchor="start" x="261" y="-652.2" font-family="Helvetica,sans-Serif" font-weight="bold" font-size="11.00">datasets</text>
<text text-anchor="start" x="337" y="-651.2" font-family="Helvetica,sans-Serif" font-size="11.00">[table]</text>
<polygon fill="none" stroke="black" points="256,-625 256,-643 372,-643 372,-625 256,-625"/>
<text text-anchor="start" x="259" y="-631.2" font-family="Helvetica,sans-Serif" font-size="11.00">...</text>
<polygon fill="#ffffff" stroke="transparent" points="256,-607 256,-625 278,-625 278,-607 256,-607"/>
<polygon fill="none" stroke="black" points="256,-607 256,-625 278,-625 278,-607 256,-607"/>
<text text-anchor="start" x="259" y="-613.2" font-family="Helvetica,sans-Serif" font-size="11.00">&lt; 3</text>
<polygon fill="#ffffff" stroke="transparent" points="278,-607 278,-625 344,-625 344,-607 278,-607"/>
<polygon fill="none" stroke="black" points="278,-607 278,-625 344,-625 344,-607 278,-607"/>
<text text-anchor="start" x="281" y="-613.2" font-family="Helvetica,sans-Serif" font-size="11.00">49,780 rows</text>
<polygon fill="#ffffff" stroke="transparent" points="344,-607 344,-625 372,-625 372,-607 344,-607"/>
<polygon fill="none" stroke="black" points="344,-607 344,-625 372,-625 372,-607 344,-607"/>
<text text-anchor="start" x="347" y="-613.2" font-family="Helvetica,sans-Serif" font-size="11.00">13 &gt;</text>
</a>
</g>
</g>
<!-- datasets&#45;&gt;datasettypes -->
<g id="edge2" class="edge">
<title>datasets:w&#45;&gt;datasettypes:e</title>
<path fill="none" stroke="black" d="M240.32,-633.42C212.13,-630.95 199.5,-620.31 175,-597 145.19,-568.63 173.15,-515 132,-515"/>
<polygon fill="black" stroke="black" points="247.01,-633.68 254.86,-637.6 251,-633.84 255,-634 255,-634 255,-634 251,-633.84 255.14,-630.4 247.01,-633.68 247.01,-633.68"/>
<ellipse fill="none" stroke="black" cx="243.81" cy="-633.56" rx="3.2" ry="3.2"/>
</g>
<!-- datasettaxagrouptypes -->
<g id="node4" class="node">
<title>datasettaxagrouptypes</title>
<g id="a_node4"><a xlink:href="../../tables/datasettaxagrouptypes.html" xlink:title="datasettaxagrouptypes" target="_top">
<polygon fill="#ffffff" stroke="transparent" points="231.5,-370 231.5,-428 396.5,-428 396.5,-370 231.5,-370"/>
<polygon fill="#f5f5f5" stroke="transparent" points="232,-406 232,-428 397,-428 397,-406 232,-406"/>
<polygon fill="none" stroke="black" points="232,-406 232,-428 397,-428 397,-406 232,-406"/>
<text text-anchor="start" x="237" y="-415.2" font-family="Helvetica,sans-Serif" font-weight="bold" font-size="11.00">datasettaxagrouptypes</text>
<text text-anchor="start" x="362" y="-414.2" font-family="Helvetica,sans-Serif" font-size="11.00">[table]</text>
<polygon fill="none" stroke="black" points="232,-388 232,-406 397,-406 397,-388 232,-388"/>
<text text-anchor="start" x="235" y="-394.2" font-family="Helvetica,sans-Serif" font-size="11.00">...</text>
<polygon fill="#ffffff" stroke="transparent" points="232,-370 232,-388 293,-388 293,-370 232,-370"/>
<polygon fill="none" stroke="black" points="232,-370 232,-388 293,-388 293,-370 232,-370"/>
<text text-anchor="start" x="235" y="-376.2" font-family="Helvetica,sans-Serif" font-size="11.00">&lt; 2</text>
<polygon fill="#ffffff" stroke="transparent" points="293,-370 293,-388 364,-388 364,-370 293,-370"/>
<polygon fill="none" stroke="black" points="293,-370 293,-388 364,-388 364,-370 293,-370"/>
<text text-anchor="start" x="316" y="-376.2" font-family="Helvetica,sans-Serif" font-size="11.00">207 rows</text>
<polygon fill="#ffffff" stroke="transparent" points="364,-370 364,-388 397,-388 397,-370 364,-370"/>
<polygon fill="none" stroke="black" points="364,-370 364,-388 397,-388 397,-370 364,-370"/>
<text text-anchor="start" x="387" y="-376.2" font-family="Helvetica,sans-Serif" font-size="11.00"> &#160;</text>
</a>
</g>
</g>
<!-- datasettaxagrouptypes&#45;&gt;datasettypes -->
<g id="edge3" class="edge">
<title>datasettaxagrouptypes:w&#45;&gt;datasettypes:e</title>
<path fill="none" stroke="black" d="M216.66,-398.66C197.95,-403.6 191.76,-419.04 175,-438 149.03,-467.36 171.2,-515 132,-515"/>
<polygon fill="black" stroke="black" points="223.05,-397.92 231.41,-400.58 227.03,-397.46 231,-397 231,-397 231,-397 227.03,-397.46 230.59,-393.42 223.05,-397.92 223.05,-397.92"/>
<ellipse fill="none" stroke="black" cx="219.87" cy="-398.29" rx="3.2" ry="3.2"/>
</g>
<!-- taxagrouptypes -->
<g id="node5" class="node">
<title>taxagrouptypes</title>
<g id="a_node5"><a xlink:href="../../tables/taxagrouptypes.html" xlink:title="taxagrouptypes" target="_top">
<polygon fill="#ffffff" stroke="transparent" points="8,-170 8,-250 134,-250 134,-170 8,-170"/>
<polygon fill="#f5f5f5" stroke="transparent" points="8,-228 8,-250 134,-250 134,-228 8,-228"/>
<polygon fill="none" stroke="black" points="8,-228 8,-250 134,-250 134,-228 8,-228"/>
<text text-anchor="start" x="13" y="-237.2" font-family="Helvetica,sans-Serif" font-weight="bold" font-size="11.00">taxagrouptypes</text>
<text text-anchor="start" x="99" y="-236.2" font-family="Helvetica,sans-Serif" font-size="11.00">[table]</text>
<polygon fill="none" stroke="black" points="8,-206 8,-228 134,-228 134,-206 8,-206"/>
<image xlink:href="../../images/primaryKeys.png" width="11px" height="12px" preserveAspectRatio="xMinYMin meet" x="13" y="-223"/>
<text text-anchor="start" x="31" y="-214.2" font-family="Helvetica,sans-Serif" font-size="11.00">taxagroupid</text>
<polygon fill="none" stroke="black" points="8,-188 8,-206 134,-206 134,-188 8,-188"/>
<text text-anchor="start" x="11" y="-194.2" font-family="Helvetica,sans-Serif" font-size="11.00">...</text>
<polygon fill="#ffffff" stroke="transparent" points="8,-170 8,-188 44,-188 44,-170 8,-170"/>
<polygon fill="none" stroke="black" points="8,-170 8,-188 44,-188 44,-170 8,-170"/>
<text text-anchor="start" x="11" y="-176.2" font-family="Helvetica,sans-Serif" font-size="11.00"> &#160;</text>
<polygon fill="#ffffff" stroke="transparent" points="44,-170 44,-188 100,-188 100,-170 44,-170"/>
<polygon fill="none" stroke="black" points="44,-170 44,-188 100,-188 100,-170 44,-170"/>
<text text-anchor="start" x="58" y="-176.2" font-family="Helvetica,sans-Serif" font-size="11.00">55 rows</text>
<polygon fill="#ffffff" stroke="transparent" points="100,-170 100,-188 134,-188 134,-170 100,-170"/>
<polygon fill="none" stroke="black" points="100,-170 100,-188 134,-188 134,-170 100,-170"/>
<text text-anchor="start" x="115" y="-176.2" font-family="Helvetica,sans-Serif" font-size="11.00">4 &gt;</text>
</a>
</g>
</g>
<!-- datasettaxagrouptypes&#45;&gt;taxagrouptypes -->
<g id="edge4" class="edge">
<title>datasettaxagrouptypes:w&#45;&gt;taxagrouptypes:e</title>
<path fill="none" stroke="black" d="M216.44,-395.64C197.55,-391.64 189.36,-378.92 175,-359 136.66,-305.81 200.57,-217 135,-217"/>
<polygon fill="black" stroke="black" points="223.03,-396.26 230.67,-400.58 227.02,-396.63 231,-397 231,-397 231,-397 227.02,-396.63 231.33,-393.42 223.03,-396.26 223.03,-396.26"/>
<ellipse fill="none" stroke="black" cx="219.85" cy="-395.96" rx="3.2" ry="3.2"/>
</g>
<!-- elementdatasettaxagroups -->
<g id="node6" class="node">
<title>elementdatasettaxagroups</title>
<g id="a_node6"><a xlink:href="../../tables/elementdatasettaxagroups.html" xlink:title="elementdatasettaxagroups" target="_top">
<polygon fill="#ffffff" stroke="transparent" points="183,-195 183,-349 445,-349 445,-195 183,-195"/>
<polygon fill="#f5f5f5" stroke="transparent" points="185,-325 185,-347 443,-347 443,-325 185,-325"/>
<polygon fill="none" stroke="black" points="185,-325 185,-347 443,-347 443,-325 185,-325"/>
<text text-anchor="start" x="190" y="-334.2" font-family="Helvetica,sans-Serif" font-weight="bold" font-size="11.00">elementdatasettaxagroups</text>
<text text-anchor="start" x="408" y="-333.2" font-family="Helvetica,sans-Serif" font-size="11.00">[table]</text>
<polygon fill="none" stroke="black" points="185,-303 185,-325 369,-325 369,-303 185,-303"/>
<image xlink:href="../../images/primaryKeys.png" width="11px" height="12px" preserveAspectRatio="xMinYMin meet" x="190" y="-320"/>
<text text-anchor="start" x="205" y="-311.2" font-family="Helvetica,sans-Serif" font-size="11.00">datasettypeid</text>
<polygon fill="none" stroke="black" points="369,-303 369,-325 443,-325 443,-303 369,-303"/>
<text text-anchor="start" x="372" y="-311.2" font-family="Helvetica,sans-Serif" font-size="11.00">int4[10]</text>
<polygon fill="none" stroke="black" points="185,-281 185,-303 369,-303 369,-281 185,-281"/>
<image xlink:href="../../images/primaryKeys.png" width="11px" height="12px" preserveAspectRatio="xMinYMin meet" x="190" y="-298"/>
<text text-anchor="start" x="205" y="-289.2" font-family="Helvetica,sans-Serif" font-size="11.00">taxagroupid</text>
<polygon fill="none" stroke="black" points="369,-281 369,-303 443,-303 443,-281 369,-281"/>
<text text-anchor="start" x="372" y="-289.2" font-family="Helvetica,sans-Serif" font-size="11.00">varchar[3]</text>
<polygon fill="none" stroke="black" points="185,-259 185,-281 369,-281 369,-259 185,-259"/>
<image xlink:href="../../images/primaryKeys.png" width="11px" height="12px" preserveAspectRatio="xMinYMin meet" x="190" y="-276"/>
<text text-anchor="start" x="205" y="-267.2" font-family="Helvetica,sans-Serif" font-size="11.00">elementtypeid</text>
<polygon fill="none" stroke="black" points="369,-259 369,-281 443,-281 443,-259 369,-259"/>
<text text-anchor="start" x="372" y="-267.2" font-family="Helvetica,sans-Serif" font-size="11.00">int4[10]</text>
<polygon fill="none" stroke="black" points="185,-237 185,-259 369,-259 369,-237 185,-237"/>
<text text-anchor="start" x="205" y="-245.2" font-family="Helvetica,sans-Serif" font-size="11.00">recdatecreated</text>
<polygon fill="none" stroke="black" points="369,-237 369,-259 443,-259 443,-237 369,-237"/>
<text text-anchor="start" x="372" y="-245.2" font-family="Helvetica,sans-Serif" font-size="11.00">timestamp[22]</text>
<polygon fill="none" stroke="black" points="185,-215 185,-237 369,-237 369,-215 185,-215"/>
<text text-anchor="start" x="205" y="-223.2" font-family="Helvetica,sans-Serif" font-size="11.00">recdatemodified</text>
<polygon fill="none" stroke="black" points="369,-215 369,-237 443,-237 443,-215 369,-215"/>
<text text-anchor="start" x="372" y="-223.2" font-family="Helvetica,sans-Serif" font-size="11.00">timestamp[22]</text>
<polygon fill="#ffffff" stroke="transparent" points="185,-197 185,-215 258,-215 258,-197 185,-197"/>
<polygon fill="none" stroke="black" points="185,-197 185,-215 258,-215 258,-197 185,-197"/>
<text text-anchor="start" x="188" y="-203.2" font-family="Helvetica,sans-Serif" font-size="11.00">&lt; 2</text>
<polygon fill="#ffffff" stroke="transparent" points="258,-197 258,-215 369,-215 369,-197 258,-197"/>
<polygon fill="none" stroke="black" points="258,-197 258,-215 369,-215 369,-197 258,-197"/>
<text text-anchor="start" x="312" y="-203.2" font-family="Helvetica,sans-Serif" font-size="11.00">1,474 rows</text>
<polygon fill="#ffffff" stroke="transparent" points="369,-197 369,-215 443,-215 443,-197 369,-197"/>
<polygon fill="none" stroke="black" points="369,-197 369,-215 443,-215 443,-197 369,-197"/>
<text text-anchor="start" x="424" y="-203.2" font-family="Helvetica,sans-Serif" font-size="11.00">0 &gt;</text>
<polygon fill="none" stroke="black" stroke-width="2" points="184,-196 184,-348 444,-348 444,-196 184,-196"/>
</a>
</g>
</g>
<!-- elementdatasettaxagroups&#45;&gt;datasettypes -->
<g id="edge5" class="edge">
<title>elementdatasettaxagroups:w&#45;&gt;datasettypes:e</title>
<path fill="none" stroke="black" d="M169.61,-316.12C106.95,-337.6 218.69,-515 132,-515"/>
<polygon fill="black" stroke="black" points="176.09,-315.17 184.53,-317.56 180.04,-314.58 184,-314 184,-314 184,-314 180.04,-314.58 183.47,-310.44 176.09,-315.17 176.09,-315.17"/>
<ellipse fill="none" stroke="black" cx="172.92" cy="-315.63" rx="3.2" ry="3.2"/>
</g>
<!-- elementdatasettaxagroups&#45;&gt;taxagrouptypes -->
<g id="edge6" class="edge">
<title>elementdatasettaxagroups:w&#45;&gt;taxagrouptypes:e</title>
<path fill="none" stroke="black" d="M170.21,-287.31C151.88,-270.89 168.75,-217 135,-217"/>
<polygon fill="black" stroke="black" points="176.43,-289.42 182.84,-295.41 180.21,-290.71 184,-292 184,-292 184,-292 180.21,-290.71 185.16,-288.59 176.43,-289.42 176.43,-289.42"/>
<ellipse fill="none" stroke="black" cx="173.4" cy="-288.39" rx="3.2" ry="3.2"/>
</g>
<!-- elementtaxagroups -->
<g id="node7" class="node">
<title>elementtaxagroups</title>
<g id="a_node7"><a xlink:href="../../tables/elementtaxagroups.html" xlink:title="elementtaxagroups" target="_top">
<polygon fill="#ffffff" stroke="transparent" points="241.5,-116 241.5,-174 386.5,-174 386.5,-116 241.5,-116"/>
<polygon fill="#f5f5f5" stroke="transparent" points="242,-152 242,-174 387,-174 387,-152 242,-152"/>
<polygon fill="none" stroke="black" points="242,-152 242,-174 387,-174 387,-152 242,-152"/>
<text text-anchor="start" x="247" y="-161.2" font-family="Helvetica,sans-Serif" font-weight="bold" font-size="11.00">elementtaxagroups</text>
<text text-anchor="start" x="352" y="-160.2" font-family="Helvetica,sans-Serif" font-size="11.00">[table]</text>
<polygon fill="none" stroke="black" points="242,-134 242,-152 387,-152 387,-134 242,-134"/>
<text text-anchor="start" x="245" y="-140.2" font-family="Helvetica,sans-Serif" font-size="11.00">...</text>
<polygon fill="#ffffff" stroke="transparent" points="242,-116 242,-134 284,-134 284,-116 242,-116"/>
<polygon fill="none" stroke="black" points="242,-116 242,-134 284,-134 284,-116 242,-116"/>
<text text-anchor="start" x="245" y="-122.2" font-family="Helvetica,sans-Serif" font-size="11.00">&lt; 2</text>
<polygon fill="#ffffff" stroke="transparent" points="284,-116 284,-134 354,-134 354,-116 284,-116"/>
<polygon fill="none" stroke="black" points="284,-116 284,-134 354,-134 354,-116 284,-116"/>
<text text-anchor="start" x="297" y="-122.2" font-family="Helvetica,sans-Serif" font-size="11.00">1,024 rows</text>
<polygon fill="#ffffff" stroke="transparent" points="354,-116 354,-134 387,-134 387,-116 354,-116"/>
<polygon fill="none" stroke="black" points="354,-116 354,-134 387,-134 387,-116 354,-116"/>
<text text-anchor="start" x="368" y="-122.2" font-family="Helvetica,sans-Serif" font-size="11.00">3 &gt;</text>
</a>
</g>
</g>
<!-- elementtaxagroups&#45;&gt;taxagrouptypes -->
<g id="edge7" class="edge">
<title>elementtaxagroups:w&#45;&gt;taxagrouptypes:e</title>
<path fill="none" stroke="black" d="M226.57,-144.52C204.74,-149.66 198.56,-167.08 175,-184 156.28,-197.44 158.05,-217 135,-217"/>
<polygon fill="black" stroke="black" points="233.04,-143.84 241.38,-146.58 237.02,-143.42 241,-143 241,-143 241,-143 237.02,-143.42 240.62,-139.42 233.04,-143.84 233.04,-143.84"/>
<ellipse fill="none" stroke="black" cx="229.86" cy="-144.17" rx="3.2" ry="3.2"/>
</g>
<!-- taphonomicsystemsdatasettypes -->
<g id="node8" class="node">
<title>taphonomicsystemsdatasettypes</title>
<g id="a_node8"><a xlink:href="../../tables/taphonomicsystemsdatasettypes.html" xlink:title="taphonomicsystemsdatasettypes" target="_top">
<polygon fill="#ffffff" stroke="transparent" points="205.5,-528 205.5,-586 422.5,-586 422.5,-528 205.5,-528"/>
<polygon fill="#f5f5f5" stroke="transparent" points="206,-564 206,-586 423,-586 423,-564 206,-564"/>
<polygon fill="none" stroke="black" points="206,-564 206,-586 423,-586 423,-564 206,-564"/>
<text text-anchor="start" x="211" y="-573.2" font-family="Helvetica,sans-Serif" font-weight="bold" font-size="11.00">taphonomicsystemsdatasettypes</text>
<text text-anchor="start" x="388" y="-572.2" font-family="Helvetica,sans-Serif" font-size="11.00">[table]</text>
<polygon fill="none" stroke="black" points="206,-546 206,-564 423,-564 423,-546 206,-546"/>
<text text-anchor="start" x="209" y="-552.2" font-family="Helvetica,sans-Serif" font-size="11.00">...</text>
<polygon fill="#ffffff" stroke="transparent" points="206,-528 206,-546 296,-546 296,-528 206,-528"/>
<polygon fill="none" stroke="black" points="206,-528 206,-546 296,-546 296,-528 206,-528"/>
<text text-anchor="start" x="209" y="-534.2" font-family="Helvetica,sans-Serif" font-size="11.00">&lt; 2</text>
<polygon fill="#ffffff" stroke="transparent" points="296,-528 296,-546 375,-546 375,-528 296,-528"/>
<polygon fill="none" stroke="black" points="296,-528 296,-546 375,-546 375,-528 296,-528"/>
<text text-anchor="start" x="333" y="-534.2" font-family="Helvetica,sans-Serif" font-size="11.00">11 rows</text>
<polygon fill="#ffffff" stroke="transparent" points="375,-528 375,-546 423,-546 423,-528 375,-528"/>
<polygon fill="none" stroke="black" points="375,-528 375,-546 423,-546 423,-528 375,-528"/>
<text text-anchor="start" x="413" y="-534.2" font-family="Helvetica,sans-Serif" font-size="11.00"> &#160;</text>
</a>
</g>
</g>
<!-- taphonomicsystemsdatasettypes&#45;&gt;datasettypes -->
<g id="edge8" class="edge">
<title>taphonomicsystemsdatasettypes:w&#45;&gt;datasettypes:e</title>
<path fill="none" stroke="black" d="M190.79,-552.62C167.46,-544.01 163.5,-515 132,-515"/>
<polygon fill="black" stroke="black" points="197.11,-553.68 204.4,-558.55 201.06,-554.34 205,-555 205,-555 205,-555 201.06,-554.34 205.6,-551.45 197.11,-553.68 197.11,-553.68"/>
<ellipse fill="none" stroke="black" cx="193.95" cy="-553.15" rx="3.2" ry="3.2"/>
</g>
<!-- taxa -->
<g id="node9" class="node">
<title>taxa</title>
<g id="a_node9"><a xlink:href="../../tables/taxa.html" xlink:title="taxa" target="_top">
<polygon fill="#ffffff" stroke="transparent" points="256,-37 256,-95 372,-95 372,-37 256,-37"/>
<polygon fill="#f5f5f5" stroke="transparent" points="256,-73 256,-95 372,-95 372,-73 256,-73"/>
<polygon fill="none" stroke="black" points="256,-73 256,-95 372,-95 372,-73 256,-73"/>
<text text-anchor="start" x="261" y="-82.2" font-family="Helvetica,sans-Serif" font-weight="bold" font-size="11.00">taxa</text>
<text text-anchor="start" x="337" y="-81.2" font-family="Helvetica,sans-Serif" font-size="11.00">[table]</text>
<polygon fill="none" stroke="black" points="256,-55 256,-73 372,-73 372,-55 256,-55"/>
<text text-anchor="start" x="259" y="-61.2" font-family="Helvetica,sans-Serif" font-size="11.00">...</text>
<polygon fill="#ffffff" stroke="transparent" points="256,-37 256,-55 278,-55 278,-37 256,-37"/>
<polygon fill="none" stroke="black" points="256,-37 256,-55 278,-55 278,-37 256,-37"/>
<text text-anchor="start" x="259" y="-43.2" font-family="Helvetica,sans-Serif" font-size="11.00">&lt; 4</text>
<polygon fill="#ffffff" stroke="transparent" points="278,-37 278,-55 344,-55 344,-37 278,-37"/>
<polygon fill="none" stroke="black" points="278,-37 278,-55 344,-55 344,-37 278,-37"/>
<text text-anchor="start" x="281" y="-43.2" font-family="Helvetica,sans-Serif" font-size="11.00">47,314 rows</text>
<polygon fill="#ffffff" stroke="transparent" points="344,-37 344,-55 372,-55 372,-37 344,-37"/>
<polygon fill="none" stroke="black" points="344,-37 344,-55 372,-55 372,-37 344,-37"/>
<text text-anchor="start" x="347" y="-43.2" font-family="Helvetica,sans-Serif" font-size="11.00">17 &gt;</text>
</a>
</g>
</g>
<!-- taxa&#45;&gt;taxagrouptypes -->
<g id="edge9" class="edge">
<title>taxa:w&#45;&gt;taxagrouptypes:e</title>
<path fill="none" stroke="black" d="M240.38,-64.6C211.18,-67.25 197.85,-78.95 175,-105 140.14,-144.73 187.86,-217 135,-217"/>
<polygon fill="black" stroke="black" points="247.01,-64.33 255.15,-67.6 251,-64.16 255,-64 255,-64 255,-64 251,-64.16 254.85,-60.4 247.01,-64.33 247.01,-64.33"/>
<ellipse fill="none" stroke="black" cx="243.81" cy="-64.46" rx="3.2" ry="3.2"/>
</g>
<!-- unitsdatasettypes -->
<g id="node10" class="node">
<title>unitsdatasettypes</title>
<g id="a_node10"><a xlink:href="../../tables/unitsdatasettypes.html" xlink:title="unitsdatasettypes" target="_top">
<polygon fill="#ffffff" stroke="transparent" points="245,-449 245,-507 383,-507 383,-449 245,-449"/>
<polygon fill="#f5f5f5" stroke="transparent" points="245,-485 245,-507 383,-507 383,-485 245,-485"/>
<polygon fill="none" stroke="black" points="245,-485 245,-507 383,-507 383,-485 245,-485"/>
<text text-anchor="start" x="250" y="-494.2" font-family="Helvetica,sans-Serif" font-weight="bold" font-size="11.00">unitsdatasettypes</text>
<text text-anchor="start" x="348" y="-493.2" font-family="Helvetica,sans-Serif" font-size="11.00">[table]</text>
<polygon fill="none" stroke="black" points="245,-467 245,-485 383,-485 383,-467 245,-467"/>
<text text-anchor="start" x="248" y="-473.2" font-family="Helvetica,sans-Serif" font-size="11.00">...</text>
<polygon fill="#ffffff" stroke="transparent" points="245,-449 245,-467 293,-467 293,-449 245,-449"/>
<polygon fill="none" stroke="black" points="245,-449 245,-467 293,-467 293,-449 245,-449"/>
<text text-anchor="start" x="248" y="-455.2" font-family="Helvetica,sans-Serif" font-size="11.00">&lt; 2</text>
<polygon fill="#ffffff" stroke="transparent" points="293,-449 293,-467 357,-467 357,-449 293,-449"/>
<polygon fill="none" stroke="black" points="293,-449 293,-467 357,-467 357,-449 293,-449"/>
<text text-anchor="start" x="309" y="-455.2" font-family="Helvetica,sans-Serif" font-size="11.00">672 rows</text>
<polygon fill="#ffffff" stroke="transparent" points="357,-449 357,-467 383,-467 383,-449 357,-449"/>
<polygon fill="none" stroke="black" points="357,-449 357,-467 383,-467 383,-449 357,-449"/>
<text text-anchor="start" x="373" y="-455.2" font-family="Helvetica,sans-Serif" font-size="11.00"> &#160;</text>
</a>
</g>
</g>
<!-- unitsdatasettypes&#45;&gt;datasettypes -->
<g id="edge10" class="edge">
<title>unitsdatasettypes:w&#45;&gt;datasettypes:e</title>
<path fill="none" stroke="black" d="M229.53,-477.08C189.52,-483.38 179.46,-515 132,-515"/>
<polygon fill="black" stroke="black" points="236.02,-476.6 244.27,-479.59 240.01,-476.3 244,-476 244,-476 244,-476 240.01,-476.3 243.73,-472.41 236.02,-476.6 236.02,-476.6"/>
<ellipse fill="none" stroke="black" cx="232.83" cy="-476.84" rx="3.2" ry="3.2"/>
</g>
</g>
</svg>
