<?xml version="1.0" encoding="UTF-8" standalone="no"?>
<!DOCTYPE svg PUBLIC "-//W3C//DTD SVG 1.1//EN"
 "http://www.w3.org/Graphics/SVG/1.1/DTD/svg11.dtd">
<!-- Generated by graphviz version 2.43.0 (0)
 -->
<!-- Title: oneDegreeRelationshipsDiagram Pages: 1 -->
<svg width="588pt" height="811pt"
 viewBox="0.00 0.00 588.00 811.00" xmlns="http://www.w3.org/2000/svg" xmlns:xlink="http://www.w3.org/1999/xlink">
<g id="graph0" class="graph" transform="scale(1 1) rotate(0) translate(4 807)">
<title>oneDegreeRelationshipsDiagram</title>
<polygon fill="#ffffff" stroke="transparent" points="-4,4 -4,-807 584,-807 584,4 -4,4"/>
<text text-anchor="middle" x="71.5" y="-7.2" font-family="Helvetica,sans-Serif" font-size="11.00">Generated by SchemaSpy</text>
<!-- elementtaxagroups -->
<g id="node1" class="node">
<title>elementtaxagroups</title>
<g id="a_node1"><a xlink:href="../../tables/elementtaxagroups.html" xlink:title="elementtaxagroups" target="_top">
<polygon fill="#ffffff" stroke="transparent" points="255,-675 255,-799 400,-799 400,-675 255,-675"/>
<polygon fill="#f5f5f5" stroke="transparent" points="255.5,-777 255.5,-799 400.5,-799 400.5,-777 255.5,-777"/>
<polygon fill="none" stroke="black" points="255.5,-777 255.5,-799 400.5,-799 400.5,-777 255.5,-777"/>
<text text-anchor="start" x="260.5" y="-786.2" font-family="Helvetica,sans-Serif" font-weight="bold" font-size="11.00">elementtaxagroups</text>
<text text-anchor="start" x="365.5" y="-785.2" font-family="Helvetica,sans-Serif" font-size="11.00">[table]</text>
<polygon fill="none" stroke="black" points="255.5,-755 255.5,-777 400.5,-777 400.5,-755 255.5,-755"/>
<image xlink:href="../../images/primaryKeys.png" width="11px" height="12px" preserveAspectRatio="xMinYMin meet" x="260.5" y="-772"/>
<text text-anchor="start" x="276.5" y="-763.2" font-family="Helvetica,sans-Serif" font-size="11.00">elementtaxagroupid</text>
<polygon fill="#ffffff" stroke="transparent" points="255.5,-733 255.5,-755 400.5,-755 400.5,-733 255.5,-733"/>
<polygon fill="none" stroke="black" points="255.5,-733 255.5,-755 400.5,-755 400.5,-733 255.5,-733"/>
<image xlink:href="../../images/foreignKeys.png" width="11px" height="12px" preserveAspectRatio="xMinYMin meet" x="260.5" y="-750"/>
<text text-anchor="start" x="276.5" y="-741.2" font-family="Helvetica,sans-Serif" font-size="11.00">taxagroupid</text>
<polygon fill="#ffffff" stroke="transparent" points="255.5,-711 255.5,-733 400.5,-733 400.5,-711 255.5,-711"/>
<polygon fill="none" stroke="black" points="255.5,-711 255.5,-733 400.5,-733 400.5,-711 255.5,-711"/>
<image xlink:href="../../images/foreignKeys.png" width="11px" height="12px" preserveAspectRatio="xMinYMin meet" x="260.5" y="-728"/>
<text text-anchor="start" x="276.5" y="-719.2" font-family="Helvetica,sans-Serif" font-size="11.00">elementtypeid</text>
<polygon fill="none" stroke="black" points="255.5,-693 255.5,-711 400.5,-711 400.5,-693 255.5,-693"/>
<text text-anchor="start" x="258.5" y="-699.2" font-family="Helvetica,sans-Serif" font-size="11.00">...</text>
<polygon fill="#ffffff" stroke="transparent" points="255.5,-675 255.5,-693 297.5,-693 297.5,-675 255.5,-675"/>
<polygon fill="none" stroke="black" points="255.5,-675 255.5,-693 297.5,-693 297.5,-675 255.5,-675"/>
<text text-anchor="start" x="258.5" y="-681.2" font-family="Helvetica,sans-Serif" font-size="11.00">&lt; 2</text>
<polygon fill="#ffffff" stroke="transparent" points="297.5,-675 297.5,-693 367.5,-693 367.5,-675 297.5,-675"/>
<polygon fill="none" stroke="black" points="297.5,-675 297.5,-693 367.5,-693 367.5,-675 297.5,-675"/>
<text text-anchor="start" x="310.5" y="-681.2" font-family="Helvetica,sans-Serif" font-size="11.00">1,024 rows</text>
<polygon fill="#ffffff" stroke="transparent" points="367.5,-675 367.5,-693 400.5,-693 400.5,-675 367.5,-675"/>
<polygon fill="none" stroke="black" points="367.5,-675 367.5,-693 400.5,-693 400.5,-675 367.5,-675"/>
<text text-anchor="start" x="381.5" y="-681.2" font-family="Helvetica,sans-Serif" font-size="11.00">3 &gt;</text>
</a>
</g>
</g>
<!-- elementtypes -->
<g id="node2" class="node">
<title>elementtypes</title>
<g id="a_node2"><a xlink:href="../../tables/elementtypes.html" xlink:title="elementtypes" target="_top">
<polygon fill="#ffffff" stroke="transparent" points="8,-409 8,-541 206,-541 206,-409 8,-409"/>
<polygon fill="#f5f5f5" stroke="transparent" points="10,-517 10,-539 204,-539 204,-517 10,-517"/>
<polygon fill="none" stroke="black" points="10,-517 10,-539 204,-539 204,-517 10,-517"/>
<text text-anchor="start" x="15" y="-526.2" font-family="Helvetica,sans-Serif" font-weight="bold" font-size="11.00">elementtypes</text>
<text text-anchor="start" x="169" y="-525.2" font-family="Helvetica,sans-Serif" font-size="11.00">[table]</text>
<polygon fill="none" stroke="black" points="10,-495 10,-517 130,-517 130,-495 10,-495"/>
<image xlink:href="../../images/primaryKeys.png" width="11px" height="12px" preserveAspectRatio="xMinYMin meet" x="15" y="-512"/>
<text text-anchor="start" x="30" y="-503.2" font-family="Helvetica,sans-Serif" font-size="11.00">elementtypeid</text>
<polygon fill="none" stroke="black" points="130,-495 130,-517 204,-517 204,-495 130,-495"/>
<text text-anchor="start" x="133" y="-503.2" font-family="Helvetica,sans-Serif" font-size="11.00">serial[10]</text>
<polygon fill="#ffffff" stroke="transparent" points="10,-473 10,-495 130,-495 130,-473 10,-473"/>
<polygon fill="none" stroke="black" points="10,-473 10,-495 130,-495 130,-473 10,-473"/>
<text text-anchor="start" x="30" y="-481.2" font-family="Helvetica,sans-Serif" font-size="11.00">elementtype</text>
<polygon fill="none" stroke="black" points="130,-473 130,-495 204,-495 204,-473 130,-473"/>
<text text-anchor="start" x="133" y="-481.2" font-family="Helvetica,sans-Serif" font-size="11.00">varchar[64]</text>
<polygon fill="none" stroke="black" points="10,-451 10,-473 130,-473 130,-451 10,-451"/>
<text text-anchor="start" x="30" y="-459.2" font-family="Helvetica,sans-Serif" font-size="11.00">recdatecreated</text>
<polygon fill="none" stroke="black" points="130,-451 130,-473 204,-473 204,-451 130,-451"/>
<text text-anchor="start" x="133" y="-459.2" font-family="Helvetica,sans-Serif" font-size="11.00">timestamp[22]</text>
<polygon fill="none" stroke="black" points="10,-429 10,-451 130,-451 130,-429 10,-429"/>
<text text-anchor="start" x="30" y="-437.2" font-family="Helvetica,sans-Serif" font-size="11.00">recdatemodified</text>
<polygon fill="none" stroke="black" points="130,-429 130,-451 204,-451 204,-429 130,-429"/>
<text text-anchor="start" x="133" y="-437.2" font-family="Helvetica,sans-Serif" font-size="11.00">timestamp[22]</text>
<polygon fill="#ffffff" stroke="transparent" points="10,-411 10,-429 55,-429 55,-411 10,-411"/>
<polygon fill="none" stroke="black" points="10,-411 10,-429 55,-429 55,-411 10,-411"/>
<text text-anchor="start" x="13" y="-417.2" font-family="Helvetica,sans-Serif" font-size="11.00">&lt; 0</text>
<polygon fill="#ffffff" stroke="transparent" points="55,-411 55,-429 130,-429 130,-411 55,-411"/>
<polygon fill="none" stroke="black" points="55,-411 55,-429 130,-429 130,-411 55,-411"/>
<text text-anchor="start" x="82" y="-417.2" font-family="Helvetica,sans-Serif" font-size="11.00">939 rows</text>
<polygon fill="#ffffff" stroke="transparent" points="130,-411 130,-429 204,-429 204,-411 130,-411"/>
<polygon fill="none" stroke="black" points="130,-411 130,-429 204,-429 204,-411 130,-411"/>
<text text-anchor="start" x="185" y="-417.2" font-family="Helvetica,sans-Serif" font-size="11.00">5 &gt;</text>
<polygon fill="none" stroke="black" stroke-width="2" points="9,-410 9,-540 205,-540 205,-410 9,-410"/>
</a>
</g>
</g>
<!-- elementtaxagroups&#45;&gt;elementtypes -->
<g id="edge1" class="edge">
<title>elementtaxagroups:w&#45;&gt;elementtypes:e</title>
<path fill="none" stroke="black" d="M240.04,-720C171.93,-698.22 297.91,-506 205,-506"/>
<polygon fill="black" stroke="black" points="246.58,-720.9 254.01,-725.57 250.54,-721.45 254.5,-722 254.5,-722 254.5,-722 250.54,-721.45 254.99,-718.43 246.58,-720.9 246.58,-720.9"/>
<ellipse fill="none" stroke="black" cx="243.41" cy="-720.46" rx="3.2" ry="3.2"/>
</g>
<!-- isostratdata -->
<g id="node3" class="node">
<title>isostratdata</title>
<g id="a_node3"><a xlink:href="../../tables/isostratdata.html" xlink:title="isostratdata" target="_top">
<polygon fill="#ffffff" stroke="transparent" points="267.5,-530 267.5,-654 387.5,-654 387.5,-530 267.5,-530"/>
<polygon fill="#f5f5f5" stroke="transparent" points="267.5,-632 267.5,-654 387.5,-654 387.5,-632 267.5,-632"/>
<polygon fill="none" stroke="black" points="267.5,-632 267.5,-654 387.5,-654 387.5,-632 267.5,-632"/>
<text text-anchor="start" x="272.5" y="-641.2" font-family="Helvetica,sans-Serif" font-weight="bold" font-size="11.00">isostratdata</text>
<text text-anchor="start" x="352.5" y="-640.2" font-family="Helvetica,sans-Serif" font-size="11.00">[table]</text>
<polygon fill="none" stroke="black" points="267.5,-610 267.5,-632 387.5,-632 387.5,-610 267.5,-610"/>
<image xlink:href="../../images/primaryKeys.png" width="11px" height="12px" preserveAspectRatio="xMinYMin meet" x="272.5" y="-627"/>
<text text-anchor="start" x="287.5" y="-618.2" font-family="Helvetica,sans-Serif" font-size="11.00">dataid</text>
<polygon fill="none" stroke="black" points="267.5,-588 267.5,-610 387.5,-610 387.5,-588 267.5,-588"/>
<image xlink:href="../../images/foreignKeys.png" width="11px" height="12px" preserveAspectRatio="xMinYMin meet" x="272.5" y="-605"/>
<text text-anchor="start" x="287.5" y="-596.2" font-family="Helvetica,sans-Serif" font-size="11.00">taxonid</text>
<polygon fill="none" stroke="black" points="267.5,-566 267.5,-588 387.5,-588 387.5,-566 267.5,-566"/>
<image xlink:href="../../images/foreignKeys.png" width="11px" height="12px" preserveAspectRatio="xMinYMin meet" x="272.5" y="-583"/>
<text text-anchor="start" x="287.5" y="-574.2" font-family="Helvetica,sans-Serif" font-size="11.00">elementtypeid</text>
<polygon fill="none" stroke="black" points="267.5,-548 267.5,-566 387.5,-566 387.5,-548 267.5,-548"/>
<text text-anchor="start" x="270.5" y="-554.2" font-family="Helvetica,sans-Serif" font-size="11.00">...</text>
<polygon fill="#ffffff" stroke="transparent" points="267.5,-530 267.5,-548 306.5,-548 306.5,-530 267.5,-530"/>
<polygon fill="none" stroke="black" points="267.5,-530 267.5,-548 306.5,-548 306.5,-530 267.5,-530"/>
<text text-anchor="start" x="270.5" y="-536.2" font-family="Helvetica,sans-Serif" font-size="11.00">&lt; 3</text>
<polygon fill="#ffffff" stroke="transparent" points="306.5,-530 306.5,-548 365.5,-548 365.5,-530 306.5,-530"/>
<polygon fill="none" stroke="black" points="306.5,-530 306.5,-548 365.5,-548 365.5,-530 306.5,-530"/>
<text text-anchor="start" x="317.5" y="-536.2" font-family="Helvetica,sans-Serif" font-size="11.00">634 rows</text>
<polygon fill="#ffffff" stroke="transparent" points="365.5,-530 365.5,-548 387.5,-548 387.5,-530 365.5,-530"/>
<polygon fill="none" stroke="black" points="365.5,-530 365.5,-548 387.5,-548 387.5,-530 365.5,-530"/>
<text text-anchor="start" x="377.5" y="-536.2" font-family="Helvetica,sans-Serif" font-size="11.00"> &#160;</text>
</a>
</g>
</g>
<!-- isostratdata&#45;&gt;elementtypes -->
<g id="edge2" class="edge">
<title>isostratdata:w&#45;&gt;elementtypes:e</title>
<path fill="none" stroke="black" d="M252.31,-573.18C229.68,-558.44 240.88,-506 205,-506"/>
<polygon fill="black" stroke="black" points="258.77,-574.92 265.56,-580.48 262.64,-575.96 266.5,-577 266.5,-577 266.5,-577 262.64,-575.96 267.44,-573.52 258.77,-574.92 258.77,-574.92"/>
<ellipse fill="none" stroke="black" cx="255.68" cy="-574.09" rx="3.2" ry="3.2"/>
</g>
<!-- specimendates -->
<g id="node4" class="node">
<title>specimendates</title>
<g id="a_node4"><a xlink:href="../../tables/specimendates.html" xlink:title="specimendates" target="_top">
<polygon fill="#ffffff" stroke="transparent" points="449,-419 449,-631 572,-631 572,-419 449,-419"/>
<polygon fill="#f5f5f5" stroke="transparent" points="449.5,-609 449.5,-631 572.5,-631 572.5,-609 449.5,-609"/>
<polygon fill="none" stroke="black" points="449.5,-609 449.5,-631 572.5,-631 572.5,-609 449.5,-609"/>
<text text-anchor="start" x="454.5" y="-618.2" font-family="Helvetica,sans-Serif" font-weight="bold" font-size="11.00">specimendates</text>
<text text-anchor="start" x="537.5" y="-617.2" font-family="Helvetica,sans-Serif" font-size="11.00">[table]</text>
<polygon fill="none" stroke="black" points="449.5,-587 449.5,-609 572.5,-609 572.5,-587 449.5,-587"/>
<image xlink:href="../../images/primaryKeys.png" width="11px" height="12px" preserveAspectRatio="xMinYMin meet" x="454.5" y="-604"/>
<text text-anchor="start" x="471.5" y="-595.2" font-family="Helvetica,sans-Serif" font-size="11.00">specimendateid</text>
<polygon fill="none" stroke="black" points="449.5,-565 449.5,-587 572.5,-587 572.5,-565 449.5,-565"/>
<image xlink:href="../../images/foreignKeys.png" width="11px" height="12px" preserveAspectRatio="xMinYMin meet" x="454.5" y="-582"/>
<text text-anchor="start" x="471.5" y="-573.2" font-family="Helvetica,sans-Serif" font-size="11.00">geochronid</text>
<polygon fill="#ffffff" stroke="transparent" points="449.5,-543 449.5,-565 572.5,-565 572.5,-543 449.5,-543"/>
<polygon fill="none" stroke="black" points="449.5,-543 449.5,-565 572.5,-565 572.5,-543 449.5,-543"/>
<image xlink:href="../../images/foreignKeys.png" width="11px" height="12px" preserveAspectRatio="xMinYMin meet" x="454.5" y="-560"/>
<text text-anchor="start" x="471.5" y="-551.2" font-family="Helvetica,sans-Serif" font-size="11.00">taxonid</text>
<polygon fill="none" stroke="black" points="449.5,-521 449.5,-543 572.5,-543 572.5,-521 449.5,-521"/>
<image xlink:href="../../images/foreignKeys.png" width="11px" height="12px" preserveAspectRatio="xMinYMin meet" x="454.5" y="-538"/>
<text text-anchor="start" x="471.5" y="-529.2" font-family="Helvetica,sans-Serif" font-size="11.00">fractionid</text>
<polygon fill="#ffffff" stroke="transparent" points="449.5,-499 449.5,-521 572.5,-521 572.5,-499 449.5,-499"/>
<polygon fill="none" stroke="black" points="449.5,-499 449.5,-521 572.5,-521 572.5,-499 449.5,-499"/>
<image xlink:href="../../images/foreignKeys.png" width="11px" height="12px" preserveAspectRatio="xMinYMin meet" x="454.5" y="-516"/>
<text text-anchor="start" x="471.5" y="-507.2" font-family="Helvetica,sans-Serif" font-size="11.00">sampleid</text>
<polygon fill="none" stroke="black" points="449.5,-477 449.5,-499 572.5,-499 572.5,-477 449.5,-477"/>
<image xlink:href="../../images/foreignKeys.png" width="11px" height="12px" preserveAspectRatio="xMinYMin meet" x="454.5" y="-494"/>
<text text-anchor="start" x="471.5" y="-485.2" font-family="Helvetica,sans-Serif" font-size="11.00">elementtypeid</text>
<polygon fill="none" stroke="black" points="449.5,-455 449.5,-477 572.5,-477 572.5,-455 449.5,-455"/>
<image xlink:href="../../images/foreignKeys.png" width="11px" height="12px" preserveAspectRatio="xMinYMin meet" x="454.5" y="-472"/>
<text text-anchor="start" x="471.5" y="-463.2" font-family="Helvetica,sans-Serif" font-size="11.00">specimenid</text>
<polygon fill="none" stroke="black" points="449.5,-437 449.5,-455 572.5,-455 572.5,-437 449.5,-437"/>
<text text-anchor="start" x="452.5" y="-443.2" font-family="Helvetica,sans-Serif" font-size="11.00">...</text>
<polygon fill="#ffffff" stroke="transparent" points="449.5,-419 449.5,-437 480.5,-437 480.5,-419 449.5,-419"/>
<polygon fill="none" stroke="black" points="449.5,-419 449.5,-437 480.5,-437 480.5,-419 449.5,-419"/>
<text text-anchor="start" x="452.5" y="-425.2" font-family="Helvetica,sans-Serif" font-size="11.00">&lt; 6</text>
<polygon fill="#ffffff" stroke="transparent" points="480.5,-419 480.5,-437 545.5,-437 545.5,-419 480.5,-419"/>
<polygon fill="none" stroke="black" points="480.5,-419 480.5,-437 545.5,-437 545.5,-419 480.5,-419"/>
<text text-anchor="start" x="488.5" y="-425.2" font-family="Helvetica,sans-Serif" font-size="11.00">2,662 rows</text>
<polygon fill="#ffffff" stroke="transparent" points="545.5,-419 545.5,-437 572.5,-437 572.5,-419 545.5,-419"/>
<polygon fill="none" stroke="black" points="545.5,-419 545.5,-437 572.5,-437 572.5,-419 545.5,-419"/>
<text text-anchor="start" x="553.5" y="-425.2" font-family="Helvetica,sans-Serif" font-size="11.00">1 &gt;</text>
</a>
</g>
</g>
<!-- specimendates&#45;&gt;elementtypes -->
<g id="edge3" class="edge">
<title>specimendates:w&#45;&gt;elementtypes:e</title>
<path fill="none" stroke="black" d="M433.86,-488.93C425.92,-490.04 419.99,-491.88 408,-493 317.99,-501.43 295.41,-506 205,-506"/>
<polygon fill="black" stroke="black" points="440.52,-488.51 448.73,-491.59 444.51,-488.25 448.5,-488 448.5,-488 448.5,-488 444.51,-488.25 448.27,-484.41 440.52,-488.51 440.52,-488.51"/>
<ellipse fill="none" stroke="black" cx="437.32" cy="-488.71" rx="3.2" ry="3.2"/>
</g>
<!-- specimens -->
<g id="node5" class="node">
<title>specimens</title>
<g id="a_node5"><a xlink:href="../../tables/specimens.html" xlink:title="specimens" target="_top">
<polygon fill="#ffffff" stroke="transparent" points="265.5,-226 265.5,-482 389.5,-482 389.5,-226 265.5,-226"/>
<polygon fill="#f5f5f5" stroke="transparent" points="265.5,-460 265.5,-482 389.5,-482 389.5,-460 265.5,-460"/>
<polygon fill="none" stroke="black" points="265.5,-460 265.5,-482 389.5,-482 389.5,-460 265.5,-460"/>
<text text-anchor="start" x="270.5" y="-469.2" font-family="Helvetica,sans-Serif" font-weight="bold" font-size="11.00">specimens</text>
<text text-anchor="start" x="354.5" y="-468.2" font-family="Helvetica,sans-Serif" font-size="11.00">[table]</text>
<polygon fill="none" stroke="black" points="265.5,-438 265.5,-460 389.5,-460 389.5,-438 265.5,-438"/>
<image xlink:href="../../images/primaryKeys.png" width="11px" height="12px" preserveAspectRatio="xMinYMin meet" x="270.5" y="-455"/>
<text text-anchor="start" x="285.5" y="-446.2" font-family="Helvetica,sans-Serif" font-size="11.00">specimenid</text>
<polygon fill="none" stroke="black" points="265.5,-416 265.5,-438 389.5,-438 389.5,-416 265.5,-416"/>
<image xlink:href="../../images/foreignKeys.png" width="11px" height="12px" preserveAspectRatio="xMinYMin meet" x="270.5" y="-433"/>
<text text-anchor="start" x="285.5" y="-424.2" font-family="Helvetica,sans-Serif" font-size="11.00">dataid</text>
<polygon fill="none" stroke="black" points="265.5,-394 265.5,-416 389.5,-416 389.5,-394 265.5,-394"/>
<image xlink:href="../../images/foreignKeys.png" width="11px" height="12px" preserveAspectRatio="xMinYMin meet" x="270.5" y="-411"/>
<text text-anchor="start" x="285.5" y="-402.2" font-family="Helvetica,sans-Serif" font-size="11.00">elementtypeid</text>
<polygon fill="none" stroke="black" points="265.5,-372 265.5,-394 389.5,-394 389.5,-372 265.5,-372"/>
<image xlink:href="../../images/foreignKeys.png" width="11px" height="12px" preserveAspectRatio="xMinYMin meet" x="270.5" y="-389"/>
<text text-anchor="start" x="285.5" y="-380.2" font-family="Helvetica,sans-Serif" font-size="11.00">symmetryid</text>
<polygon fill="none" stroke="black" points="265.5,-350 265.5,-372 389.5,-372 389.5,-350 265.5,-350"/>
<image xlink:href="../../images/foreignKeys.png" width="11px" height="12px" preserveAspectRatio="xMinYMin meet" x="270.5" y="-367"/>
<text text-anchor="start" x="285.5" y="-358.2" font-family="Helvetica,sans-Serif" font-size="11.00">portionid</text>
<polygon fill="none" stroke="black" points="265.5,-328 265.5,-350 389.5,-350 389.5,-328 265.5,-328"/>
<image xlink:href="../../images/foreignKeys.png" width="11px" height="12px" preserveAspectRatio="xMinYMin meet" x="270.5" y="-345"/>
<text text-anchor="start" x="285.5" y="-336.2" font-family="Helvetica,sans-Serif" font-size="11.00">maturityid</text>
<polygon fill="none" stroke="black" points="265.5,-306 265.5,-328 389.5,-328 389.5,-306 265.5,-306"/>
<image xlink:href="../../images/foreignKeys.png" width="11px" height="12px" preserveAspectRatio="xMinYMin meet" x="270.5" y="-323"/>
<text text-anchor="start" x="285.5" y="-314.2" font-family="Helvetica,sans-Serif" font-size="11.00">sexid</text>
<polygon fill="none" stroke="black" points="265.5,-284 265.5,-306 389.5,-306 389.5,-284 265.5,-284"/>
<image xlink:href="../../images/foreignKeys.png" width="11px" height="12px" preserveAspectRatio="xMinYMin meet" x="270.5" y="-301"/>
<text text-anchor="start" x="285.5" y="-292.2" font-family="Helvetica,sans-Serif" font-size="11.00">domesticstatusid</text>
<polygon fill="none" stroke="black" points="265.5,-262 265.5,-284 389.5,-284 389.5,-262 265.5,-262"/>
<image xlink:href="../../images/foreignKeys.png" width="11px" height="12px" preserveAspectRatio="xMinYMin meet" x="270.5" y="-279"/>
<text text-anchor="start" x="285.5" y="-270.2" font-family="Helvetica,sans-Serif" font-size="11.00">repositoryid</text>
<polygon fill="none" stroke="black" points="265.5,-244 265.5,-262 389.5,-262 389.5,-244 265.5,-244"/>
<text text-anchor="start" x="268.5" y="-250.2" font-family="Helvetica,sans-Serif" font-size="11.00">...</text>
<polygon fill="#ffffff" stroke="transparent" points="265.5,-226 265.5,-244 297.5,-244 297.5,-226 265.5,-226"/>
<polygon fill="none" stroke="black" points="265.5,-226 265.5,-244 297.5,-244 297.5,-226 265.5,-226"/>
<text text-anchor="start" x="268.5" y="-232.2" font-family="Helvetica,sans-Serif" font-size="11.00">&lt; 8</text>
<polygon fill="#ffffff" stroke="transparent" points="297.5,-226 297.5,-244 362.5,-244 362.5,-226 297.5,-226"/>
<polygon fill="none" stroke="black" points="297.5,-226 297.5,-244 362.5,-244 362.5,-226 297.5,-226"/>
<text text-anchor="start" x="305.5" y="-232.2" font-family="Helvetica,sans-Serif" font-size="11.00">3,453 rows</text>
<polygon fill="#ffffff" stroke="transparent" points="362.5,-226 362.5,-244 389.5,-244 389.5,-226 362.5,-226"/>
<polygon fill="none" stroke="black" points="362.5,-226 362.5,-244 389.5,-244 389.5,-226 362.5,-226"/>
<text text-anchor="start" x="370.5" y="-232.2" font-family="Helvetica,sans-Serif" font-size="11.00">4 &gt;</text>
</a>
</g>
</g>
<!-- specimendates&#45;&gt;specimens -->
<g id="edge4" class="edge">
<title>specimendates:w&#45;&gt;specimens:e</title>
<path fill="none" stroke="black" d="M434.09,-464.05C418.83,-459.58 411.7,-449 390.5,-449"/>
<polygon fill="black" stroke="black" points="440.57,-464.93 448.02,-469.57 444.54,-465.46 448.5,-466 448.5,-466 448.5,-466 444.54,-465.46 448.98,-462.43 440.57,-464.93 440.57,-464.93"/>
<ellipse fill="none" stroke="black" cx="437.4" cy="-464.5" rx="3.2" ry="3.2"/>
</g>
<!-- specimens&#45;&gt;elementtypes -->
<g id="edge5" class="edge">
<title>specimens:w&#45;&gt;elementtypes:e</title>
<path fill="none" stroke="black" d="M250.24,-408.59C221.29,-426.59 251.2,-506 205,-506"/>
<polygon fill="black" stroke="black" points="256.74,-406.96 265.38,-408.49 260.62,-405.98 264.5,-405 264.5,-405 264.5,-405 260.62,-405.98 263.62,-401.51 256.74,-406.96 256.74,-406.96"/>
<ellipse fill="none" stroke="black" cx="253.64" cy="-407.74" rx="3.2" ry="3.2"/>
</g>
<!-- variableelements -->
<g id="node6" class="node">
<title>variableelements</title>
<g id="a_node6"><a xlink:href="../../tables/variableelements.html" xlink:title="variableelements" target="_top">
<polygon fill="#ffffff" stroke="transparent" points="261,-37 261,-205 394,-205 394,-37 261,-37"/>
<polygon fill="#f5f5f5" stroke="transparent" points="261.5,-183 261.5,-205 394.5,-205 394.5,-183 261.5,-183"/>
<polygon fill="none" stroke="black" points="261.5,-183 261.5,-205 394.5,-205 394.5,-183 261.5,-183"/>
<text text-anchor="start" x="266.5" y="-192.2" font-family="Helvetica,sans-Serif" font-weight="bold" font-size="11.00">variableelements</text>
<text text-anchor="start" x="359.5" y="-191.2" font-family="Helvetica,sans-Serif" font-size="11.00">[table]</text>
<polygon fill="none" stroke="black" points="261.5,-161 261.5,-183 394.5,-183 394.5,-161 261.5,-161"/>
<image xlink:href="../../images/primaryKeys.png" width="11px" height="12px" preserveAspectRatio="xMinYMin meet" x="266.5" y="-178"/>
<text text-anchor="start" x="283.5" y="-169.2" font-family="Helvetica,sans-Serif" font-size="11.00">variableelementid</text>
<polygon fill="none" stroke="black" points="261.5,-139 261.5,-161 394.5,-161 394.5,-139 261.5,-139"/>
<image xlink:href="../../images/foreignKeys.png" width="11px" height="12px" preserveAspectRatio="xMinYMin meet" x="266.5" y="-156"/>
<text text-anchor="start" x="283.5" y="-147.2" font-family="Helvetica,sans-Serif" font-size="11.00">elementtypeid</text>
<polygon fill="none" stroke="black" points="261.5,-117 261.5,-139 394.5,-139 394.5,-117 261.5,-117"/>
<image xlink:href="../../images/foreignKeys.png" width="11px" height="12px" preserveAspectRatio="xMinYMin meet" x="266.5" y="-134"/>
<text text-anchor="start" x="283.5" y="-125.2" font-family="Helvetica,sans-Serif" font-size="11.00">symmetryid</text>
<polygon fill="none" stroke="black" points="261.5,-95 261.5,-117 394.5,-117 394.5,-95 261.5,-95"/>
<image xlink:href="../../images/foreignKeys.png" width="11px" height="12px" preserveAspectRatio="xMinYMin meet" x="266.5" y="-112"/>
<text text-anchor="start" x="283.5" y="-103.2" font-family="Helvetica,sans-Serif" font-size="11.00">portionid</text>
<polygon fill="none" stroke="black" points="261.5,-73 261.5,-95 394.5,-95 394.5,-73 261.5,-73"/>
<image xlink:href="../../images/foreignKeys.png" width="11px" height="12px" preserveAspectRatio="xMinYMin meet" x="266.5" y="-90"/>
<text text-anchor="start" x="283.5" y="-81.2" font-family="Helvetica,sans-Serif" font-size="11.00">maturityid</text>
<polygon fill="none" stroke="black" points="261.5,-55 261.5,-73 394.5,-73 394.5,-55 261.5,-55"/>
<text text-anchor="start" x="264.5" y="-61.2" font-family="Helvetica,sans-Serif" font-size="11.00">...</text>
<polygon fill="#ffffff" stroke="transparent" points="261.5,-37 261.5,-55 302.5,-55 302.5,-37 261.5,-37"/>
<polygon fill="none" stroke="black" points="261.5,-37 261.5,-55 302.5,-55 302.5,-37 261.5,-37"/>
<text text-anchor="start" x="264.5" y="-43.2" font-family="Helvetica,sans-Serif" font-size="11.00">&lt; 4</text>
<polygon fill="#ffffff" stroke="transparent" points="302.5,-37 302.5,-55 362.5,-55 362.5,-37 302.5,-37"/>
<polygon fill="none" stroke="black" points="302.5,-37 302.5,-55 362.5,-55 362.5,-37 302.5,-37"/>
<text text-anchor="start" x="314.5" y="-43.2" font-family="Helvetica,sans-Serif" font-size="11.00">986 rows</text>
<polygon fill="#ffffff" stroke="transparent" points="362.5,-37 362.5,-55 394.5,-55 394.5,-37 362.5,-37"/>
<polygon fill="none" stroke="black" points="362.5,-37 362.5,-55 394.5,-55 394.5,-37 362.5,-37"/>
<text text-anchor="start" x="375.5" y="-43.2" font-family="Helvetica,sans-Serif" font-size="11.00">1 &gt;</text>
</a>
</g>
</g>
<!-- variableelements&#45;&gt;elementtypes -->
<g id="edge6" class="edge">
<title>variableelements:w&#45;&gt;elementtypes:e</title>
<path fill="none" stroke="black" d="M246.55,-154.76C193.88,-197.01 279.59,-506 205,-506"/>
<polygon fill="black" stroke="black" points="252.93,-152.59 261.66,-153.41 256.71,-151.29 260.5,-150 260.5,-150 260.5,-150 256.71,-151.29 259.34,-146.59 252.93,-152.59 252.93,-152.59"/>
<ellipse fill="none" stroke="black" cx="249.9" cy="-153.62" rx="3.2" ry="3.2"/>
</g>
</g>
</svg>
