<?xml version="1.0" encoding="UTF-8" standalone="no"?>
<!DOCTYPE svg PUBLIC "-//W3C//DTD SVG 1.1//EN"
 "http://www.w3.org/Graphics/SVG/1.1/DTD/svg11.dtd">
<!-- Generated by graphviz version 2.43.0 (0)
 -->
<!-- Title: twoDegreesRelationshipsDiagram Pages: 1 -->
<svg width="679pt" height="411pt"
 viewBox="0.00 0.00 679.00 411.00" xmlns="http://www.w3.org/2000/svg" xmlns:xlink="http://www.w3.org/1999/xlink">
<g id="graph0" class="graph" transform="scale(1 1) rotate(0) translate(4 407)">
<title>twoDegreesRelationshipsDiagram</title>
<polygon fill="#ffffff" stroke="transparent" points="-4,4 -4,-407 675,-407 675,4 -4,4"/>
<text text-anchor="middle" x="71.5" y="-7.2" font-family="Helvetica,sans-Serif" font-size="11.00">Generated by SchemaSpy</text>
<!-- elementtaxagroupmaturities -->
<g id="node1" class="node">
<title>elementtaxagroupmaturities</title>
<g id="a_node1"><a xlink:href="../../tables/elementtaxagroupmaturities.html" xlink:title="elementtaxagroupmaturities" target="_top">
<polygon fill="#ffffff" stroke="transparent" points="389,-45 389,-177 663,-177 663,-45 389,-45"/>
<polygon fill="#f5f5f5" stroke="transparent" points="391,-153 391,-175 661,-175 661,-153 391,-153"/>
<polygon fill="none" stroke="black" points="391,-153 391,-175 661,-175 661,-153 391,-153"/>
<text text-anchor="start" x="396" y="-162.2" font-family="Helvetica,sans-Serif" font-weight="bold" font-size="11.00">elementtaxagroupmaturities</text>
<text text-anchor="start" x="626" y="-161.2" font-family="Helvetica,sans-Serif" font-size="11.00">[table]</text>
<polygon fill="none" stroke="black" points="391,-131 391,-153 587,-153 587,-131 391,-131"/>
<image xlink:href="../../images/primaryKeys.png" width="11px" height="12px" preserveAspectRatio="xMinYMin meet" x="396" y="-148"/>
<text text-anchor="start" x="411" y="-139.2" font-family="Helvetica,sans-Serif" font-size="11.00">elementtaxagroupid</text>
<polygon fill="none" stroke="black" points="587,-131 587,-153 661,-153 661,-131 587,-131"/>
<text text-anchor="start" x="590" y="-139.2" font-family="Helvetica,sans-Serif" font-size="11.00">int4[10]</text>
<polygon fill="none" stroke="black" points="391,-109 391,-131 587,-131 587,-109 391,-109"/>
<image xlink:href="../../images/primaryKeys.png" width="11px" height="12px" preserveAspectRatio="xMinYMin meet" x="396" y="-126"/>
<text text-anchor="start" x="411" y="-117.2" font-family="Helvetica,sans-Serif" font-size="11.00">maturityid</text>
<polygon fill="none" stroke="black" points="587,-109 587,-131 661,-131 661,-109 587,-109"/>
<text text-anchor="start" x="590" y="-117.2" font-family="Helvetica,sans-Serif" font-size="11.00">int4[10]</text>
<polygon fill="none" stroke="black" points="391,-87 391,-109 587,-109 587,-87 391,-87"/>
<text text-anchor="start" x="411" y="-95.2" font-family="Helvetica,sans-Serif" font-size="11.00">recdatecreated</text>
<polygon fill="none" stroke="black" points="587,-87 587,-109 661,-109 661,-87 587,-87"/>
<text text-anchor="start" x="590" y="-95.2" font-family="Helvetica,sans-Serif" font-size="11.00">timestamp[22]</text>
<polygon fill="none" stroke="black" points="391,-65 391,-87 587,-87 587,-65 391,-65"/>
<text text-anchor="start" x="411" y="-73.2" font-family="Helvetica,sans-Serif" font-size="11.00">recdatemodified</text>
<polygon fill="none" stroke="black" points="587,-65 587,-87 661,-87 661,-65 587,-65"/>
<text text-anchor="start" x="590" y="-73.2" font-family="Helvetica,sans-Serif" font-size="11.00">timestamp[22]</text>
<polygon fill="#ffffff" stroke="transparent" points="391,-47 391,-65 477,-65 477,-47 391,-47"/>
<polygon fill="none" stroke="black" points="391,-47 391,-65 477,-65 477,-47 391,-47"/>
<text text-anchor="start" x="394" y="-53.2" font-family="Helvetica,sans-Serif" font-size="11.00">&lt; 2</text>
<polygon fill="#ffffff" stroke="transparent" points="477,-47 477,-65 587,-65 587,-47 477,-47"/>
<polygon fill="none" stroke="black" points="477,-47 477,-65 587,-65 587,-47 477,-47"/>
<text text-anchor="start" x="545" y="-53.2" font-family="Helvetica,sans-Serif" font-size="11.00">40 rows</text>
<polygon fill="#ffffff" stroke="transparent" points="587,-47 587,-65 661,-65 661,-47 587,-47"/>
<polygon fill="none" stroke="black" points="587,-47 587,-65 661,-65 661,-47 587,-47"/>
<text text-anchor="start" x="642" y="-53.2" font-family="Helvetica,sans-Serif" font-size="11.00">0 &gt;</text>
<polygon fill="none" stroke="black" stroke-width="2" points="390,-46 390,-176 662,-176 662,-46 390,-46"/>
</a>
</g>
</g>
<!-- elementtaxagroups -->
<g id="node2" class="node">
<title>elementtaxagroups</title>
<g id="a_node2"><a xlink:href="../../tables/elementtaxagroups.html" xlink:title="elementtaxagroups" target="_top">
<polygon fill="#ffffff" stroke="transparent" points="195,-238 195,-362 340,-362 340,-238 195,-238"/>
<polygon fill="#f5f5f5" stroke="transparent" points="195.5,-340 195.5,-362 340.5,-362 340.5,-340 195.5,-340"/>
<polygon fill="none" stroke="black" points="195.5,-340 195.5,-362 340.5,-362 340.5,-340 195.5,-340"/>
<text text-anchor="start" x="200.5" y="-349.2" font-family="Helvetica,sans-Serif" font-weight="bold" font-size="11.00">elementtaxagroups</text>
<text text-anchor="start" x="305.5" y="-348.2" font-family="Helvetica,sans-Serif" font-size="11.00">[table]</text>
<polygon fill="none" stroke="black" points="195.5,-318 195.5,-340 340.5,-340 340.5,-318 195.5,-318"/>
<image xlink:href="../../images/primaryKeys.png" width="11px" height="12px" preserveAspectRatio="xMinYMin meet" x="200.5" y="-335"/>
<text text-anchor="start" x="216.5" y="-326.2" font-family="Helvetica,sans-Serif" font-size="11.00">elementtaxagroupid</text>
<polygon fill="#ffffff" stroke="transparent" points="195.5,-296 195.5,-318 340.5,-318 340.5,-296 195.5,-296"/>
<polygon fill="none" stroke="black" points="195.5,-296 195.5,-318 340.5,-318 340.5,-296 195.5,-296"/>
<image xlink:href="../../images/foreignKeys.png" width="11px" height="12px" preserveAspectRatio="xMinYMin meet" x="200.5" y="-313"/>
<text text-anchor="start" x="216.5" y="-304.2" font-family="Helvetica,sans-Serif" font-size="11.00">taxagroupid</text>
<polygon fill="#ffffff" stroke="transparent" points="195.5,-274 195.5,-296 340.5,-296 340.5,-274 195.5,-274"/>
<polygon fill="none" stroke="black" points="195.5,-274 195.5,-296 340.5,-296 340.5,-274 195.5,-274"/>
<image xlink:href="../../images/foreignKeys.png" width="11px" height="12px" preserveAspectRatio="xMinYMin meet" x="200.5" y="-291"/>
<text text-anchor="start" x="216.5" y="-282.2" font-family="Helvetica,sans-Serif" font-size="11.00">elementtypeid</text>
<polygon fill="none" stroke="black" points="195.5,-256 195.5,-274 340.5,-274 340.5,-256 195.5,-256"/>
<text text-anchor="start" x="198.5" y="-262.2" font-family="Helvetica,sans-Serif" font-size="11.00">...</text>
<polygon fill="#ffffff" stroke="transparent" points="195.5,-238 195.5,-256 237.5,-256 237.5,-238 195.5,-238"/>
<polygon fill="none" stroke="black" points="195.5,-238 195.5,-256 237.5,-256 237.5,-238 195.5,-238"/>
<text text-anchor="start" x="198.5" y="-244.2" font-family="Helvetica,sans-Serif" font-size="11.00">&lt; 2</text>
<polygon fill="#ffffff" stroke="transparent" points="237.5,-238 237.5,-256 307.5,-256 307.5,-238 237.5,-238"/>
<polygon fill="none" stroke="black" points="237.5,-238 237.5,-256 307.5,-256 307.5,-238 237.5,-238"/>
<text text-anchor="start" x="250.5" y="-244.2" font-family="Helvetica,sans-Serif" font-size="11.00">1,024 rows</text>
<polygon fill="#ffffff" stroke="transparent" points="307.5,-238 307.5,-256 340.5,-256 340.5,-238 307.5,-238"/>
<polygon fill="none" stroke="black" points="307.5,-238 307.5,-256 340.5,-256 340.5,-238 307.5,-238"/>
<text text-anchor="start" x="321.5" y="-244.2" font-family="Helvetica,sans-Serif" font-size="11.00">3 &gt;</text>
</a>
</g>
</g>
<!-- elementtaxagroupmaturities&#45;&gt;elementtaxagroups -->
<g id="edge1" class="edge">
<title>elementtaxagroupmaturities:w&#45;&gt;elementtaxagroups:e</title>
<path fill="none" stroke="black" d="M375.54,-144.36C319.58,-166.01 421.66,-329 341.5,-329"/>
<polygon fill="black" stroke="black" points="382.1,-143.29 390.58,-145.55 386.05,-142.65 390,-142 390,-142 390,-142 386.05,-142.65 389.42,-138.45 382.1,-143.29 382.1,-143.29"/>
<ellipse fill="none" stroke="black" cx="378.95" cy="-143.81" rx="3.2" ry="3.2"/>
</g>
<!-- elementmaturities -->
<g id="node3" class="node">
<title>elementmaturities</title>
<g id="a_node3"><a xlink:href="../../tables/elementmaturities.html" xlink:title="elementmaturities" target="_top">
<polygon fill="#ffffff" stroke="transparent" points="8,-37 8,-139 146,-139 146,-37 8,-37"/>
<polygon fill="#f5f5f5" stroke="transparent" points="8,-117 8,-139 146,-139 146,-117 8,-117"/>
<polygon fill="none" stroke="black" points="8,-117 8,-139 146,-139 146,-117 8,-117"/>
<text text-anchor="start" x="13" y="-126.2" font-family="Helvetica,sans-Serif" font-weight="bold" font-size="11.00">elementmaturities</text>
<text text-anchor="start" x="111" y="-125.2" font-family="Helvetica,sans-Serif" font-size="11.00">[table]</text>
<polygon fill="none" stroke="black" points="8,-95 8,-117 146,-117 146,-95 8,-95"/>
<image xlink:href="../../images/primaryKeys.png" width="11px" height="12px" preserveAspectRatio="xMinYMin meet" x="13" y="-112"/>
<text text-anchor="start" x="31" y="-103.2" font-family="Helvetica,sans-Serif" font-size="11.00">maturityid</text>
<polygon fill="#ffffff" stroke="transparent" points="8,-73 8,-95 146,-95 146,-73 8,-73"/>
<polygon fill="none" stroke="black" points="8,-73 8,-95 146,-95 146,-73 8,-73"/>
<text text-anchor="start" x="31" y="-81.2" font-family="Helvetica,sans-Serif" font-size="11.00">maturity</text>
<polygon fill="none" stroke="black" points="8,-55 8,-73 146,-73 146,-55 8,-55"/>
<text text-anchor="start" x="11" y="-61.2" font-family="Helvetica,sans-Serif" font-size="11.00">...</text>
<polygon fill="#ffffff" stroke="transparent" points="8,-37 8,-55 50,-55 50,-37 8,-37"/>
<polygon fill="none" stroke="black" points="8,-37 8,-55 50,-55 50,-37 8,-37"/>
<text text-anchor="start" x="11" y="-43.2" font-family="Helvetica,sans-Serif" font-size="11.00"> &#160;</text>
<polygon fill="#ffffff" stroke="transparent" points="50,-37 50,-55 109,-55 109,-37 50,-37"/>
<polygon fill="none" stroke="black" points="50,-37 50,-55 109,-55 109,-37 50,-37"/>
<text text-anchor="start" x="67" y="-43.2" font-family="Helvetica,sans-Serif" font-size="11.00">12 rows</text>
<polygon fill="#ffffff" stroke="transparent" points="109,-37 109,-55 146,-55 146,-37 109,-37"/>
<polygon fill="none" stroke="black" points="109,-37 109,-55 146,-55 146,-37 109,-37"/>
<text text-anchor="start" x="127" y="-43.2" font-family="Helvetica,sans-Serif" font-size="11.00">3 &gt;</text>
</a>
</g>
</g>
<!-- elementtaxagroupmaturities&#45;&gt;elementmaturities -->
<g id="edge2" class="edge">
<title>elementtaxagroupmaturities:w&#45;&gt;elementmaturities:e</title>
<path fill="none" stroke="black" d="M376.07,-115.15C364.79,-104.41 368.75,-78.79 348,-69 283.29,-38.46 253.63,-42.91 187,-69 164.45,-77.83 171.22,-106 147,-106"/>
<polygon fill="black" stroke="black" points="382.44,-117.37 388.82,-123.4 386.22,-118.69 390,-120 390,-120 390,-120 386.22,-118.69 391.18,-116.6 382.44,-117.37 382.44,-117.37"/>
<ellipse fill="none" stroke="black" cx="379.42" cy="-116.32" rx="3.2" ry="3.2"/>
</g>
<!-- elementtypes -->
<g id="node5" class="node">
<title>elementtypes</title>
<g id="a_node5"><a xlink:href="../../tables/elementtypes.html" xlink:title="elementtypes" target="_top">
<polygon fill="#ffffff" stroke="transparent" points="20,-160 20,-218 134,-218 134,-160 20,-160"/>
<polygon fill="#f5f5f5" stroke="transparent" points="20,-196 20,-218 134,-218 134,-196 20,-196"/>
<polygon fill="none" stroke="black" points="20,-196 20,-218 134,-218 134,-196 20,-196"/>
<text text-anchor="start" x="25" y="-205.2" font-family="Helvetica,sans-Serif" font-weight="bold" font-size="11.00">elementtypes</text>
<text text-anchor="start" x="99" y="-204.2" font-family="Helvetica,sans-Serif" font-size="11.00">[table]</text>
<polygon fill="none" stroke="black" points="20,-178 20,-196 134,-196 134,-178 20,-178"/>
<text text-anchor="start" x="23" y="-184.2" font-family="Helvetica,sans-Serif" font-size="11.00">...</text>
<polygon fill="#ffffff" stroke="transparent" points="20,-160 20,-178 47,-178 47,-160 20,-160"/>
<polygon fill="none" stroke="black" points="20,-160 20,-178 47,-178 47,-160 20,-160"/>
<text text-anchor="start" x="23" y="-166.2" font-family="Helvetica,sans-Serif" font-size="11.00"> &#160;</text>
<polygon fill="#ffffff" stroke="transparent" points="47,-160 47,-178 105,-178 105,-160 47,-160"/>
<polygon fill="none" stroke="black" points="47,-160 47,-178 105,-178 105,-160 47,-160"/>
<text text-anchor="start" x="57" y="-166.2" font-family="Helvetica,sans-Serif" font-size="11.00">939 rows</text>
<polygon fill="#ffffff" stroke="transparent" points="105,-160 105,-178 134,-178 134,-160 105,-160"/>
<polygon fill="none" stroke="black" points="105,-160 105,-178 134,-178 134,-160 105,-160"/>
<text text-anchor="start" x="115" y="-166.2" font-family="Helvetica,sans-Serif" font-size="11.00">5 &gt;</text>
</a>
</g>
</g>
<!-- elementtaxagroups&#45;&gt;elementtypes -->
<g id="edge4" class="edge">
<title>elementtaxagroups:w&#45;&gt;elementtypes:e</title>
<path fill="none" stroke="black" d="M180.51,-281.51C151.96,-264.05 180.18,-187 135,-187"/>
<polygon fill="black" stroke="black" points="186.74,-283.07 193.63,-288.49 190.62,-284.03 194.5,-285 194.5,-285 194.5,-285 190.62,-284.03 195.37,-281.51 186.74,-283.07 186.74,-283.07"/>
<ellipse fill="none" stroke="black" cx="183.63" cy="-282.29" rx="3.2" ry="3.2"/>
</g>
<!-- taxagrouptypes -->
<g id="node6" class="node">
<title>taxagrouptypes</title>
<g id="a_node6"><a xlink:href="../../tables/taxagrouptypes.html" xlink:title="taxagrouptypes" target="_top">
<polygon fill="#ffffff" stroke="transparent" points="14,-280 14,-338 140,-338 140,-280 14,-280"/>
<polygon fill="#f5f5f5" stroke="transparent" points="14,-316 14,-338 140,-338 140,-316 14,-316"/>
<polygon fill="none" stroke="black" points="14,-316 14,-338 140,-338 140,-316 14,-316"/>
<text text-anchor="start" x="19" y="-325.2" font-family="Helvetica,sans-Serif" font-weight="bold" font-size="11.00">taxagrouptypes</text>
<text text-anchor="start" x="105" y="-324.2" font-family="Helvetica,sans-Serif" font-size="11.00">[table]</text>
<polygon fill="none" stroke="black" points="14,-298 14,-316 140,-316 140,-298 14,-298"/>
<text text-anchor="start" x="17" y="-304.2" font-family="Helvetica,sans-Serif" font-size="11.00">...</text>
<polygon fill="#ffffff" stroke="transparent" points="14,-280 14,-298 50,-298 50,-280 14,-280"/>
<polygon fill="none" stroke="black" points="14,-280 14,-298 50,-298 50,-280 14,-280"/>
<text text-anchor="start" x="17" y="-286.2" font-family="Helvetica,sans-Serif" font-size="11.00"> &#160;</text>
<polygon fill="#ffffff" stroke="transparent" points="50,-280 50,-298 106,-298 106,-280 50,-280"/>
<polygon fill="none" stroke="black" points="50,-280 50,-298 106,-298 106,-280 50,-280"/>
<text text-anchor="start" x="64" y="-286.2" font-family="Helvetica,sans-Serif" font-size="11.00">55 rows</text>
<polygon fill="#ffffff" stroke="transparent" points="106,-280 106,-298 140,-298 140,-280 106,-280"/>
<polygon fill="none" stroke="black" points="106,-280 106,-298 140,-298 140,-280 106,-280"/>
<text text-anchor="start" x="121" y="-286.2" font-family="Helvetica,sans-Serif" font-size="11.00">4 &gt;</text>
</a>
</g>
</g>
<!-- elementtaxagroups&#45;&gt;taxagrouptypes -->
<g id="edge5" class="edge">
<title>elementtaxagroups:w&#45;&gt;taxagrouptypes:e</title>
<path fill="none" stroke="black" d="M179.86,-307C166.8,-307 159.02,-307 141,-307"/>
<polygon fill="black" stroke="black" points="186.5,-307 194.5,-310.6 190.5,-307 194.5,-307 194.5,-307 194.5,-307 190.5,-307 194.5,-303.4 186.5,-307 186.5,-307"/>
<ellipse fill="none" stroke="black" cx="183.3" cy="-307" rx="3.2" ry="3.2"/>
</g>
<!-- elementtaxagroupportions -->
<g id="node4" class="node">
<title>elementtaxagroupportions</title>
<g id="a_node4"><a xlink:href="../../tables/elementtaxagroupportions.html" xlink:title="elementtaxagroupportions" target="_top">
<polygon fill="#ffffff" stroke="transparent" points="434.5,-262 434.5,-320 617.5,-320 617.5,-262 434.5,-262"/>
<polygon fill="#f5f5f5" stroke="transparent" points="435,-298 435,-320 618,-320 618,-298 435,-298"/>
<polygon fill="none" stroke="black" points="435,-298 435,-320 618,-320 618,-298 435,-298"/>
<text text-anchor="start" x="440" y="-307.2" font-family="Helvetica,sans-Serif" font-weight="bold" font-size="11.00">elementtaxagroupportions</text>
<text text-anchor="start" x="583" y="-306.2" font-family="Helvetica,sans-Serif" font-size="11.00">[table]</text>
<polygon fill="none" stroke="black" points="435,-280 435,-298 618,-298 618,-280 435,-280"/>
<text text-anchor="start" x="438" y="-286.2" font-family="Helvetica,sans-Serif" font-size="11.00">...</text>
<polygon fill="#ffffff" stroke="transparent" points="435,-262 435,-280 505,-280 505,-262 435,-262"/>
<polygon fill="none" stroke="black" points="435,-262 435,-280 505,-280 505,-262 435,-262"/>
<text text-anchor="start" x="438" y="-268.2" font-family="Helvetica,sans-Serif" font-size="11.00">&lt; 2</text>
<polygon fill="#ffffff" stroke="transparent" points="505,-262 505,-280 580,-280 580,-262 505,-262"/>
<polygon fill="none" stroke="black" points="505,-262 505,-280 580,-280 580,-262 505,-262"/>
<text text-anchor="start" x="532" y="-268.2" font-family="Helvetica,sans-Serif" font-size="11.00">411 rows</text>
<polygon fill="#ffffff" stroke="transparent" points="580,-262 580,-280 618,-280 618,-262 580,-262"/>
<polygon fill="none" stroke="black" points="580,-262 580,-280 618,-280 618,-262 580,-262"/>
<text text-anchor="start" x="608" y="-268.2" font-family="Helvetica,sans-Serif" font-size="11.00"> &#160;</text>
</a>
</g>
</g>
<!-- elementtaxagroupportions&#45;&gt;elementtaxagroups -->
<g id="edge3" class="edge">
<title>elementtaxagroupportions:w&#45;&gt;elementtaxagroups:e</title>
<path fill="none" stroke="black" d="M419.42,-290.62C387.89,-298.1 380.87,-329 341.5,-329"/>
<polygon fill="black" stroke="black" points="426.05,-289.88 434.4,-292.58 430.02,-289.44 434,-289 434,-289 434,-289 430.02,-289.44 433.6,-285.42 426.05,-289.88 426.05,-289.88"/>
<ellipse fill="none" stroke="black" cx="422.87" cy="-290.24" rx="3.2" ry="3.2"/>
</g>
<!-- elementtaxagroupsymmetries -->
<g id="node7" class="node">
<title>elementtaxagroupsymmetries</title>
<g id="a_node7"><a xlink:href="../../tables/elementtaxagroupsymmetries.html" xlink:title="elementtaxagroupsymmetries" target="_top">
<polygon fill="#ffffff" stroke="transparent" points="426,-341 426,-399 626,-399 626,-341 426,-341"/>
<polygon fill="#f5f5f5" stroke="transparent" points="426,-377 426,-399 626,-399 626,-377 426,-377"/>
<polygon fill="none" stroke="black" points="426,-377 426,-399 626,-399 626,-377 426,-377"/>
<text text-anchor="start" x="431" y="-386.2" font-family="Helvetica,sans-Serif" font-weight="bold" font-size="11.00">elementtaxagroupsymmetries</text>
<text text-anchor="start" x="591" y="-385.2" font-family="Helvetica,sans-Serif" font-size="11.00">[table]</text>
<polygon fill="none" stroke="black" points="426,-359 426,-377 626,-377 626,-359 426,-359"/>
<text text-anchor="start" x="429" y="-365.2" font-family="Helvetica,sans-Serif" font-size="11.00">...</text>
<polygon fill="#ffffff" stroke="transparent" points="426,-341 426,-359 505,-359 505,-341 426,-341"/>
<polygon fill="none" stroke="black" points="426,-341 426,-359 505,-359 505,-341 426,-341"/>
<text text-anchor="start" x="429" y="-347.2" font-family="Helvetica,sans-Serif" font-size="11.00">&lt; 2</text>
<polygon fill="#ffffff" stroke="transparent" points="505,-341 505,-359 584,-359 584,-341 505,-341"/>
<polygon fill="none" stroke="black" points="505,-341 505,-359 584,-359 584,-341 505,-341"/>
<text text-anchor="start" x="536" y="-347.2" font-family="Helvetica,sans-Serif" font-size="11.00">446 rows</text>
<polygon fill="#ffffff" stroke="transparent" points="584,-341 584,-359 626,-359 626,-341 584,-341"/>
<polygon fill="none" stroke="black" points="584,-341 584,-359 626,-359 626,-341 584,-341"/>
<text text-anchor="start" x="616" y="-347.2" font-family="Helvetica,sans-Serif" font-size="11.00"> &#160;</text>
</a>
</g>
</g>
<!-- elementtaxagroupsymmetries&#45;&gt;elementtaxagroups -->
<g id="edge6" class="edge">
<title>elementtaxagroupsymmetries:w&#45;&gt;elementtaxagroups:e</title>
<path fill="none" stroke="black" d="M410.58,-366.12C382.93,-358.33 377.02,-329 341.5,-329"/>
<polygon fill="black" stroke="black" points="417.07,-366.97 424.53,-371.57 421.03,-367.48 425,-368 425,-368 425,-368 421.03,-367.48 425.47,-364.43 417.07,-366.97 417.07,-366.97"/>
<ellipse fill="none" stroke="black" cx="413.89" cy="-366.55" rx="3.2" ry="3.2"/>
</g>
<!-- specimens -->
<g id="node8" class="node">
<title>specimens</title>
<g id="a_node8"><a xlink:href="../../tables/specimens.html" xlink:title="specimens" target="_top">
<polygon fill="#ffffff" stroke="transparent" points="215.5,-159 215.5,-217 319.5,-217 319.5,-159 215.5,-159"/>
<polygon fill="#f5f5f5" stroke="transparent" points="215.5,-195 215.5,-217 319.5,-217 319.5,-195 215.5,-195"/>
<polygon fill="none" stroke="black" points="215.5,-195 215.5,-217 319.5,-217 319.5,-195 215.5,-195"/>
<text text-anchor="start" x="220.5" y="-204.2" font-family="Helvetica,sans-Serif" font-weight="bold" font-size="11.00">specimens</text>
<text text-anchor="start" x="284.5" y="-203.2" font-family="Helvetica,sans-Serif" font-size="11.00">[table]</text>
<polygon fill="none" stroke="black" points="215.5,-177 215.5,-195 319.5,-195 319.5,-177 215.5,-177"/>
<text text-anchor="start" x="218.5" y="-183.2" font-family="Helvetica,sans-Serif" font-size="11.00">...</text>
<polygon fill="#ffffff" stroke="transparent" points="215.5,-159 215.5,-177 237.5,-177 237.5,-159 215.5,-159"/>
<polygon fill="none" stroke="black" points="215.5,-159 215.5,-177 237.5,-177 237.5,-159 215.5,-159"/>
<text text-anchor="start" x="218.5" y="-165.2" font-family="Helvetica,sans-Serif" font-size="11.00">&lt; 8</text>
<polygon fill="#ffffff" stroke="transparent" points="237.5,-159 237.5,-177 297.5,-177 297.5,-159 237.5,-159"/>
<polygon fill="none" stroke="black" points="237.5,-159 237.5,-177 297.5,-177 297.5,-159 237.5,-159"/>
<text text-anchor="start" x="240.5" y="-165.2" font-family="Helvetica,sans-Serif" font-size="11.00">3,453 rows</text>
<polygon fill="#ffffff" stroke="transparent" points="297.5,-159 297.5,-177 319.5,-177 319.5,-159 297.5,-159"/>
<polygon fill="none" stroke="black" points="297.5,-159 297.5,-177 319.5,-177 319.5,-159 297.5,-159"/>
<text text-anchor="start" x="300.5" y="-165.2" font-family="Helvetica,sans-Serif" font-size="11.00">4 &gt;</text>
</a>
</g>
</g>
<!-- specimens&#45;&gt;elementmaturities -->
<g id="edge8" class="edge">
<title>specimens:w&#45;&gt;elementmaturities:e</title>
<path fill="none" stroke="black" d="M200.15,-182.56C173.24,-167.25 187.71,-106 147,-106"/>
<polygon fill="black" stroke="black" points="206.72,-184.14 213.66,-189.5 210.61,-185.07 214.5,-186 214.5,-186 214.5,-186 210.61,-185.07 215.34,-182.5 206.72,-184.14 206.72,-184.14"/>
<ellipse fill="none" stroke="black" cx="203.61" cy="-183.39" rx="3.2" ry="3.2"/>
</g>
<!-- specimens&#45;&gt;elementtypes -->
<g id="edge7" class="edge">
<title>specimens:w&#45;&gt;elementtypes:e</title>
<path fill="none" stroke="black" d="M200.01,-186.06C175.86,-186.28 164.95,-187 135,-187"/>
<polygon fill="black" stroke="black" points="206.5,-186.03 214.52,-189.6 210.5,-186.02 214.5,-186 214.5,-186 214.5,-186 210.5,-186.02 214.48,-182.4 206.5,-186.03 206.5,-186.03"/>
<ellipse fill="none" stroke="black" cx="203.3" cy="-186.05" rx="3.2" ry="3.2"/>
</g>
<!-- variableelements -->
<g id="node9" class="node">
<title>variableelements</title>
<g id="a_node9"><a xlink:href="../../tables/variableelements.html" xlink:title="variableelements" target="_top">
<polygon fill="#ffffff" stroke="transparent" points="201,-80 201,-138 334,-138 334,-80 201,-80"/>
<polygon fill="#f5f5f5" stroke="transparent" points="201.5,-116 201.5,-138 334.5,-138 334.5,-116 201.5,-116"/>
<polygon fill="none" stroke="black" points="201.5,-116 201.5,-138 334.5,-138 334.5,-116 201.5,-116"/>
<text text-anchor="start" x="206.5" y="-125.2" font-family="Helvetica,sans-Serif" font-weight="bold" font-size="11.00">variableelements</text>
<text text-anchor="start" x="299.5" y="-124.2" font-family="Helvetica,sans-Serif" font-size="11.00">[table]</text>
<polygon fill="none" stroke="black" points="201.5,-98 201.5,-116 334.5,-116 334.5,-98 201.5,-98"/>
<text text-anchor="start" x="204.5" y="-104.2" font-family="Helvetica,sans-Serif" font-size="11.00">...</text>
<polygon fill="#ffffff" stroke="transparent" points="201.5,-80 201.5,-98 242.5,-98 242.5,-80 201.5,-80"/>
<polygon fill="none" stroke="black" points="201.5,-80 201.5,-98 242.5,-98 242.5,-80 201.5,-80"/>
<text text-anchor="start" x="204.5" y="-86.2" font-family="Helvetica,sans-Serif" font-size="11.00">&lt; 4</text>
<polygon fill="#ffffff" stroke="transparent" points="242.5,-80 242.5,-98 302.5,-98 302.5,-80 242.5,-80"/>
<polygon fill="none" stroke="black" points="242.5,-80 242.5,-98 302.5,-98 302.5,-80 242.5,-80"/>
<text text-anchor="start" x="254.5" y="-86.2" font-family="Helvetica,sans-Serif" font-size="11.00">986 rows</text>
<polygon fill="#ffffff" stroke="transparent" points="302.5,-80 302.5,-98 334.5,-98 334.5,-80 302.5,-80"/>
<polygon fill="none" stroke="black" points="302.5,-80 302.5,-98 334.5,-98 334.5,-80 302.5,-80"/>
<text text-anchor="start" x="315.5" y="-86.2" font-family="Helvetica,sans-Serif" font-size="11.00">1 &gt;</text>
</a>
</g>
</g>
<!-- variableelements&#45;&gt;elementmaturities -->
<g id="edge10" class="edge">
<title>variableelements:w&#45;&gt;elementmaturities:e</title>
<path fill="none" stroke="black" d="M185.85,-106.85C172.8,-106.57 165.02,-106 147,-106"/>
<polygon fill="black" stroke="black" points="192.5,-106.92 200.46,-110.6 196.5,-106.96 200.5,-107 200.5,-107 200.5,-107 196.5,-106.96 200.54,-103.4 192.5,-106.92 192.5,-106.92"/>
<ellipse fill="none" stroke="black" cx="189.3" cy="-106.89" rx="3.2" ry="3.2"/>
</g>
<!-- variableelements&#45;&gt;elementtypes -->
<g id="edge9" class="edge">
<title>variableelements:w&#45;&gt;elementtypes:e</title>
<path fill="none" stroke="black" d="M186.38,-110.44C160.02,-125.75 175.21,-187 135,-187"/>
<polygon fill="black" stroke="black" points="192.73,-108.89 201.35,-110.5 196.61,-107.95 200.5,-107 200.5,-107 200.5,-107 196.61,-107.95 199.65,-103.5 192.73,-108.89 192.73,-108.89"/>
<ellipse fill="none" stroke="black" cx="189.62" cy="-109.65" rx="3.2" ry="3.2"/>
</g>
</g>
</svg>
