<?xml version="1.0" encoding="UTF-8" standalone="no"?>
<!DOCTYPE svg PUBLIC "-//W3C//DTD SVG 1.1//EN"
 "http://www.w3.org/Graphics/SVG/1.1/DTD/svg11.dtd">
<!-- Generated by graphviz version 2.43.0 (0)
 -->
<!-- Title: oneDegreeRelationshipsDiagram Pages: 1 -->
<svg width="480pt" height="617pt"
 viewBox="0.00 0.00 480.00 617.00" xmlns="http://www.w3.org/2000/svg" xmlns:xlink="http://www.w3.org/1999/xlink">
<g id="graph0" class="graph" transform="scale(1 1) rotate(0) translate(4 613)">
<title>oneDegreeRelationshipsDiagram</title>
<polygon fill="#ffffff" stroke="transparent" points="-4,4 -4,-613 476,-613 476,4 -4,4"/>
<text text-anchor="middle" x="71.5" y="-7.2" font-family="Helvetica,sans-Serif" font-size="11.00">Generated by SchemaSpy</text>
<!-- elementtaxagroupmaturities -->
<g id="node1" class="node">
<title>elementtaxagroupmaturities</title>
<g id="a_node1"><a xlink:href="../../tables/elementtaxagroupmaturities.html" xlink:title="elementtaxagroupmaturities" target="_top">
<polygon fill="#ffffff" stroke="transparent" points="268,-503 268,-605 464,-605 464,-503 268,-503"/>
<polygon fill="#f5f5f5" stroke="transparent" points="268,-583 268,-605 464,-605 464,-583 268,-583"/>
<polygon fill="none" stroke="black" points="268,-583 268,-605 464,-605 464,-583 268,-583"/>
<text text-anchor="start" x="273" y="-592.2" font-family="Helvetica,sans-Serif" font-weight="bold" font-size="11.00">elementtaxagroupmaturities</text>
<text text-anchor="start" x="429" y="-591.2" font-family="Helvetica,sans-Serif" font-size="11.00">[table]</text>
<polygon fill="none" stroke="black" points="268,-561 268,-583 464,-583 464,-561 268,-561"/>
<image xlink:href="../../images/primaryKeys.png" width="11px" height="12px" preserveAspectRatio="xMinYMin meet" x="273" y="-578"/>
<text text-anchor="start" x="288" y="-569.2" font-family="Helvetica,sans-Serif" font-size="11.00">elementtaxagroupid</text>
<polygon fill="none" stroke="black" points="268,-539 268,-561 464,-561 464,-539 268,-539"/>
<image xlink:href="../../images/primaryKeys.png" width="11px" height="12px" preserveAspectRatio="xMinYMin meet" x="273" y="-556"/>
<text text-anchor="start" x="288" y="-547.2" font-family="Helvetica,sans-Serif" font-size="11.00">maturityid</text>
<polygon fill="none" stroke="black" points="268,-521 268,-539 464,-539 464,-521 268,-521"/>
<text text-anchor="start" x="271" y="-527.2" font-family="Helvetica,sans-Serif" font-size="11.00">...</text>
<polygon fill="#ffffff" stroke="transparent" points="268,-503 268,-521 348,-521 348,-503 268,-503"/>
<polygon fill="none" stroke="black" points="268,-503 268,-521 348,-521 348,-503 268,-503"/>
<text text-anchor="start" x="271" y="-509.2" font-family="Helvetica,sans-Serif" font-size="11.00">&lt; 2</text>
<polygon fill="#ffffff" stroke="transparent" points="348,-503 348,-521 422,-521 422,-503 348,-503"/>
<polygon fill="none" stroke="black" points="348,-503 348,-521 422,-521 422,-503 348,-503"/>
<text text-anchor="start" x="380" y="-509.2" font-family="Helvetica,sans-Serif" font-size="11.00">40 rows</text>
<polygon fill="#ffffff" stroke="transparent" points="422,-503 422,-521 464,-521 464,-503 422,-503"/>
<polygon fill="none" stroke="black" points="422,-503 422,-521 464,-521 464,-503 422,-503"/>
<text text-anchor="start" x="454" y="-509.2" font-family="Helvetica,sans-Serif" font-size="11.00"> &#160;</text>
</a>
</g>
</g>
<!-- elementmaturities -->
<g id="node2" class="node">
<title>elementmaturities</title>
<g id="a_node2"><a xlink:href="../../tables/elementmaturities.html" xlink:title="elementmaturities" target="_top">
<polygon fill="#ffffff" stroke="transparent" points="8,-242 8,-374 219,-374 219,-242 8,-242"/>
<polygon fill="#f5f5f5" stroke="transparent" points="10.5,-350 10.5,-372 217.5,-372 217.5,-350 10.5,-350"/>
<polygon fill="none" stroke="black" points="10.5,-350 10.5,-372 217.5,-372 217.5,-350 10.5,-350"/>
<text text-anchor="start" x="15.5" y="-359.2" font-family="Helvetica,sans-Serif" font-weight="bold" font-size="11.00">elementmaturities</text>
<text text-anchor="start" x="182.5" y="-358.2" font-family="Helvetica,sans-Serif" font-size="11.00">[table]</text>
<polygon fill="none" stroke="black" points="10.5,-328 10.5,-350 143.5,-350 143.5,-328 10.5,-328"/>
<image xlink:href="../../images/primaryKeys.png" width="11px" height="12px" preserveAspectRatio="xMinYMin meet" x="15.5" y="-345"/>
<text text-anchor="start" x="30.5" y="-336.2" font-family="Helvetica,sans-Serif" font-size="11.00">maturityid</text>
<polygon fill="none" stroke="black" points="143.5,-328 143.5,-350 217.5,-350 217.5,-328 143.5,-328"/>
<text text-anchor="start" x="146.5" y="-336.2" font-family="Helvetica,sans-Serif" font-size="11.00">serial[10]</text>
<polygon fill="#ffffff" stroke="transparent" points="10.5,-306 10.5,-328 143.5,-328 143.5,-306 10.5,-306"/>
<polygon fill="none" stroke="black" points="10.5,-306 10.5,-328 143.5,-328 143.5,-306 10.5,-306"/>
<text text-anchor="start" x="30.5" y="-314.2" font-family="Helvetica,sans-Serif" font-size="11.00">maturity</text>
<polygon fill="none" stroke="black" points="143.5,-306 143.5,-328 217.5,-328 217.5,-306 143.5,-306"/>
<text text-anchor="start" x="146.5" y="-314.2" font-family="Helvetica,sans-Serif" font-size="11.00">varchar[36]</text>
<polygon fill="none" stroke="black" points="10.5,-284 10.5,-306 143.5,-306 143.5,-284 10.5,-284"/>
<text text-anchor="start" x="30.5" y="-292.2" font-family="Helvetica,sans-Serif" font-size="11.00">recdatecreated</text>
<polygon fill="none" stroke="black" points="143.5,-284 143.5,-306 217.5,-306 217.5,-284 143.5,-284"/>
<text text-anchor="start" x="146.5" y="-292.2" font-family="Helvetica,sans-Serif" font-size="11.00">timestamp[22]</text>
<polygon fill="none" stroke="black" points="10.5,-262 10.5,-284 143.5,-284 143.5,-262 10.5,-262"/>
<text text-anchor="start" x="30.5" y="-270.2" font-family="Helvetica,sans-Serif" font-size="11.00">recdatemodified</text>
<polygon fill="none" stroke="black" points="143.5,-262 143.5,-284 217.5,-284 217.5,-262 143.5,-262"/>
<text text-anchor="start" x="146.5" y="-270.2" font-family="Helvetica,sans-Serif" font-size="11.00">timestamp[22]</text>
<polygon fill="#ffffff" stroke="transparent" points="10.5,-244 10.5,-262 65.5,-262 65.5,-244 10.5,-244"/>
<polygon fill="none" stroke="black" points="10.5,-244 10.5,-262 65.5,-262 65.5,-244 10.5,-244"/>
<text text-anchor="start" x="13.5" y="-250.2" font-family="Helvetica,sans-Serif" font-size="11.00">&lt; 0</text>
<polygon fill="#ffffff" stroke="transparent" points="65.5,-244 65.5,-262 143.5,-262 143.5,-244 65.5,-244"/>
<polygon fill="none" stroke="black" points="65.5,-244 65.5,-262 143.5,-262 143.5,-244 65.5,-244"/>
<text text-anchor="start" x="101.5" y="-250.2" font-family="Helvetica,sans-Serif" font-size="11.00">12 rows</text>
<polygon fill="#ffffff" stroke="transparent" points="143.5,-244 143.5,-262 217.5,-262 217.5,-244 143.5,-244"/>
<polygon fill="none" stroke="black" points="143.5,-244 143.5,-262 217.5,-262 217.5,-244 143.5,-244"/>
<text text-anchor="start" x="198.5" y="-250.2" font-family="Helvetica,sans-Serif" font-size="11.00">3 &gt;</text>
<polygon fill="none" stroke="black" stroke-width="2" points="9,-243 9,-373 218,-373 218,-243 9,-243"/>
</a>
</g>
</g>
<!-- elementtaxagroupmaturities&#45;&gt;elementmaturities -->
<g id="edge1" class="edge">
<title>elementtaxagroupmaturities:w&#45;&gt;elementmaturities:e</title>
<path fill="none" stroke="black" d="M252.46,-547.91C186.82,-526 309.09,-339 218.5,-339"/>
<polygon fill="black" stroke="black" points="259.08,-548.86 266.49,-553.56 263.04,-549.43 267,-550 267,-550 267,-550 263.04,-549.43 267.51,-546.44 259.08,-548.86 259.08,-548.86"/>
<ellipse fill="none" stroke="black" cx="255.91" cy="-548.41" rx="3.2" ry="3.2"/>
</g>
<!-- specimens -->
<g id="node3" class="node">
<title>specimens</title>
<g id="a_node3"><a xlink:href="../../tables/specimens.html" xlink:title="specimens" target="_top">
<polygon fill="#ffffff" stroke="transparent" points="304,-226 304,-482 428,-482 428,-226 304,-226"/>
<polygon fill="#f5f5f5" stroke="transparent" points="304,-460 304,-482 428,-482 428,-460 304,-460"/>
<polygon fill="none" stroke="black" points="304,-460 304,-482 428,-482 428,-460 304,-460"/>
<text text-anchor="start" x="309" y="-469.2" font-family="Helvetica,sans-Serif" font-weight="bold" font-size="11.00">specimens</text>
<text text-anchor="start" x="393" y="-468.2" font-family="Helvetica,sans-Serif" font-size="11.00">[table]</text>
<polygon fill="none" stroke="black" points="304,-438 304,-460 428,-460 428,-438 304,-438"/>
<image xlink:href="../../images/primaryKeys.png" width="11px" height="12px" preserveAspectRatio="xMinYMin meet" x="309" y="-455"/>
<text text-anchor="start" x="324" y="-446.2" font-family="Helvetica,sans-Serif" font-size="11.00">specimenid</text>
<polygon fill="none" stroke="black" points="304,-416 304,-438 428,-438 428,-416 304,-416"/>
<image xlink:href="../../images/foreignKeys.png" width="11px" height="12px" preserveAspectRatio="xMinYMin meet" x="309" y="-433"/>
<text text-anchor="start" x="324" y="-424.2" font-family="Helvetica,sans-Serif" font-size="11.00">dataid</text>
<polygon fill="none" stroke="black" points="304,-394 304,-416 428,-416 428,-394 304,-394"/>
<image xlink:href="../../images/foreignKeys.png" width="11px" height="12px" preserveAspectRatio="xMinYMin meet" x="309" y="-411"/>
<text text-anchor="start" x="324" y="-402.2" font-family="Helvetica,sans-Serif" font-size="11.00">elementtypeid</text>
<polygon fill="none" stroke="black" points="304,-372 304,-394 428,-394 428,-372 304,-372"/>
<image xlink:href="../../images/foreignKeys.png" width="11px" height="12px" preserveAspectRatio="xMinYMin meet" x="309" y="-389"/>
<text text-anchor="start" x="324" y="-380.2" font-family="Helvetica,sans-Serif" font-size="11.00">symmetryid</text>
<polygon fill="none" stroke="black" points="304,-350 304,-372 428,-372 428,-350 304,-350"/>
<image xlink:href="../../images/foreignKeys.png" width="11px" height="12px" preserveAspectRatio="xMinYMin meet" x="309" y="-367"/>
<text text-anchor="start" x="324" y="-358.2" font-family="Helvetica,sans-Serif" font-size="11.00">portionid</text>
<polygon fill="none" stroke="black" points="304,-328 304,-350 428,-350 428,-328 304,-328"/>
<image xlink:href="../../images/foreignKeys.png" width="11px" height="12px" preserveAspectRatio="xMinYMin meet" x="309" y="-345"/>
<text text-anchor="start" x="324" y="-336.2" font-family="Helvetica,sans-Serif" font-size="11.00">maturityid</text>
<polygon fill="none" stroke="black" points="304,-306 304,-328 428,-328 428,-306 304,-306"/>
<image xlink:href="../../images/foreignKeys.png" width="11px" height="12px" preserveAspectRatio="xMinYMin meet" x="309" y="-323"/>
<text text-anchor="start" x="324" y="-314.2" font-family="Helvetica,sans-Serif" font-size="11.00">sexid</text>
<polygon fill="none" stroke="black" points="304,-284 304,-306 428,-306 428,-284 304,-284"/>
<image xlink:href="../../images/foreignKeys.png" width="11px" height="12px" preserveAspectRatio="xMinYMin meet" x="309" y="-301"/>
<text text-anchor="start" x="324" y="-292.2" font-family="Helvetica,sans-Serif" font-size="11.00">domesticstatusid</text>
<polygon fill="none" stroke="black" points="304,-262 304,-284 428,-284 428,-262 304,-262"/>
<image xlink:href="../../images/foreignKeys.png" width="11px" height="12px" preserveAspectRatio="xMinYMin meet" x="309" y="-279"/>
<text text-anchor="start" x="324" y="-270.2" font-family="Helvetica,sans-Serif" font-size="11.00">repositoryid</text>
<polygon fill="none" stroke="black" points="304,-244 304,-262 428,-262 428,-244 304,-244"/>
<text text-anchor="start" x="307" y="-250.2" font-family="Helvetica,sans-Serif" font-size="11.00">...</text>
<polygon fill="#ffffff" stroke="transparent" points="304,-226 304,-244 336,-244 336,-226 304,-226"/>
<polygon fill="none" stroke="black" points="304,-226 304,-244 336,-244 336,-226 304,-226"/>
<text text-anchor="start" x="307" y="-232.2" font-family="Helvetica,sans-Serif" font-size="11.00">&lt; 8</text>
<polygon fill="#ffffff" stroke="transparent" points="336,-226 336,-244 401,-244 401,-226 336,-226"/>
<polygon fill="none" stroke="black" points="336,-226 336,-244 401,-244 401,-226 336,-226"/>
<text text-anchor="start" x="344" y="-232.2" font-family="Helvetica,sans-Serif" font-size="11.00">3,351 rows</text>
<polygon fill="#ffffff" stroke="transparent" points="401,-226 401,-244 428,-244 428,-226 401,-226"/>
<polygon fill="none" stroke="black" points="401,-226 401,-244 428,-244 428,-226 401,-226"/>
<text text-anchor="start" x="409" y="-232.2" font-family="Helvetica,sans-Serif" font-size="11.00">4 &gt;</text>
</a>
</g>
</g>
<!-- specimens&#45;&gt;elementmaturities -->
<g id="edge2" class="edge">
<title>specimens:w&#45;&gt;elementmaturities:e</title>
<path fill="none" stroke="black" d="M288.31,-339C262.14,-339 250.63,-339 218.5,-339"/>
<polygon fill="black" stroke="black" points="295,-339 303,-342.6 299,-339 303,-339 303,-339 303,-339 299,-339 303,-335.4 295,-339 295,-339"/>
<ellipse fill="none" stroke="black" cx="291.8" cy="-339" rx="3.2" ry="3.2"/>
</g>
<!-- variableelements -->
<g id="node4" class="node">
<title>variableelements</title>
<g id="a_node4"><a xlink:href="../../tables/variableelements.html" xlink:title="variableelements" target="_top">
<polygon fill="#ffffff" stroke="transparent" points="299.5,-37 299.5,-205 432.5,-205 432.5,-37 299.5,-37"/>
<polygon fill="#f5f5f5" stroke="transparent" points="300,-183 300,-205 433,-205 433,-183 300,-183"/>
<polygon fill="none" stroke="black" points="300,-183 300,-205 433,-205 433,-183 300,-183"/>
<text text-anchor="start" x="305" y="-192.2" font-family="Helvetica,sans-Serif" font-weight="bold" font-size="11.00">variableelements</text>
<text text-anchor="start" x="398" y="-191.2" font-family="Helvetica,sans-Serif" font-size="11.00">[table]</text>
<polygon fill="none" stroke="black" points="300,-161 300,-183 433,-183 433,-161 300,-161"/>
<image xlink:href="../../images/primaryKeys.png" width="11px" height="12px" preserveAspectRatio="xMinYMin meet" x="305" y="-178"/>
<text text-anchor="start" x="322" y="-169.2" font-family="Helvetica,sans-Serif" font-size="11.00">variableelementid</text>
<polygon fill="none" stroke="black" points="300,-139 300,-161 433,-161 433,-139 300,-139"/>
<image xlink:href="../../images/foreignKeys.png" width="11px" height="12px" preserveAspectRatio="xMinYMin meet" x="305" y="-156"/>
<text text-anchor="start" x="322" y="-147.2" font-family="Helvetica,sans-Serif" font-size="11.00">elementtypeid</text>
<polygon fill="none" stroke="black" points="300,-117 300,-139 433,-139 433,-117 300,-117"/>
<image xlink:href="../../images/foreignKeys.png" width="11px" height="12px" preserveAspectRatio="xMinYMin meet" x="305" y="-134"/>
<text text-anchor="start" x="322" y="-125.2" font-family="Helvetica,sans-Serif" font-size="11.00">symmetryid</text>
<polygon fill="none" stroke="black" points="300,-95 300,-117 433,-117 433,-95 300,-95"/>
<image xlink:href="../../images/foreignKeys.png" width="11px" height="12px" preserveAspectRatio="xMinYMin meet" x="305" y="-112"/>
<text text-anchor="start" x="322" y="-103.2" font-family="Helvetica,sans-Serif" font-size="11.00">portionid</text>
<polygon fill="none" stroke="black" points="300,-73 300,-95 433,-95 433,-73 300,-73"/>
<image xlink:href="../../images/foreignKeys.png" width="11px" height="12px" preserveAspectRatio="xMinYMin meet" x="305" y="-90"/>
<text text-anchor="start" x="322" y="-81.2" font-family="Helvetica,sans-Serif" font-size="11.00">maturityid</text>
<polygon fill="none" stroke="black" points="300,-55 300,-73 433,-73 433,-55 300,-55"/>
<text text-anchor="start" x="303" y="-61.2" font-family="Helvetica,sans-Serif" font-size="11.00">...</text>
<polygon fill="#ffffff" stroke="transparent" points="300,-37 300,-55 341,-55 341,-37 300,-37"/>
<polygon fill="none" stroke="black" points="300,-37 300,-55 341,-55 341,-37 300,-37"/>
<text text-anchor="start" x="303" y="-43.2" font-family="Helvetica,sans-Serif" font-size="11.00">&lt; 4</text>
<polygon fill="#ffffff" stroke="transparent" points="341,-37 341,-55 401,-55 401,-37 341,-37"/>
<polygon fill="none" stroke="black" points="341,-37 341,-55 401,-55 401,-37 341,-37"/>
<text text-anchor="start" x="353" y="-43.2" font-family="Helvetica,sans-Serif" font-size="11.00">967 rows</text>
<polygon fill="#ffffff" stroke="transparent" points="401,-37 401,-55 433,-55 433,-37 401,-37"/>
<polygon fill="none" stroke="black" points="401,-37 401,-55 433,-55 433,-37 401,-37"/>
<text text-anchor="start" x="414" y="-43.2" font-family="Helvetica,sans-Serif" font-size="11.00">1 &gt;</text>
</a>
</g>
</g>
<!-- variableelements&#45;&gt;elementmaturities -->
<g id="edge3" class="edge">
<title>variableelements:w&#45;&gt;elementmaturities:e</title>
<path fill="none" stroke="black" d="M285.46,-89.56C245.56,-126.85 272.7,-339 218.5,-339"/>
<polygon fill="black" stroke="black" points="291.6,-87.04 300.37,-87.33 295.3,-85.52 299,-84 299,-84 299,-84 295.3,-85.52 297.63,-80.67 291.6,-87.04 291.6,-87.04"/>
<ellipse fill="none" stroke="black" cx="288.64" cy="-88.26" rx="3.2" ry="3.2"/>
</g>
</g>
</svg>
