<?xml version="1.0" encoding="UTF-8" standalone="no"?>
<!DOCTYPE svg PUBLIC "-//W3C//DTD SVG 1.1//EN"
 "http://www.w3.org/Graphics/SVG/1.1/DTD/svg11.dtd">
<!-- Generated by graphviz version 2.43.0 (0)
 -->
<!-- Title: twoDegreesRelationshipsDiagram Pages: 1 -->
<svg width="564pt" height="1055pt"
 viewBox="0.00 0.00 564.00 1055.00" xmlns="http://www.w3.org/2000/svg" xmlns:xlink="http://www.w3.org/1999/xlink">
<g id="graph0" class="graph" transform="scale(1 1) rotate(0) translate(4 1051)">
<title>twoDegreesRelationshipsDiagram</title>
<polygon fill="#ffffff" stroke="transparent" points="-4,4 -4,-1051 560,-1051 560,4 -4,4"/>
<text text-anchor="middle" x="71.5" y="-7.2" font-family="Helvetica,sans-Serif" font-size="11.00">Generated by SchemaSpy</text>
<!-- dataprocessors -->
<g id="node1" class="node">
<title>dataprocessors</title>
<g id="a_node1"><a xlink:href="../../tables/dataprocessors.html" xlink:title="dataprocessors" target="_top">
<polygon fill="#ffffff" stroke="transparent" points="407.5,-985 407.5,-1043 533.5,-1043 533.5,-985 407.5,-985"/>
<polygon fill="#f5f5f5" stroke="transparent" points="407.5,-1021 407.5,-1043 533.5,-1043 533.5,-1021 407.5,-1021"/>
<polygon fill="none" stroke="black" points="407.5,-1021 407.5,-1043 533.5,-1043 533.5,-1021 407.5,-1021"/>
<text text-anchor="start" x="412.5" y="-1030.2" font-family="Helvetica,sans-Serif" font-weight="bold" font-size="11.00">dataprocessors</text>
<text text-anchor="start" x="498.5" y="-1029.2" font-family="Helvetica,sans-Serif" font-size="11.00">[table]</text>
<polygon fill="none" stroke="black" points="407.5,-1003 407.5,-1021 533.5,-1021 533.5,-1003 407.5,-1003"/>
<text text-anchor="start" x="410.5" y="-1009.2" font-family="Helvetica,sans-Serif" font-size="11.00">...</text>
<polygon fill="#ffffff" stroke="transparent" points="407.5,-985 407.5,-1003 441.5,-1003 441.5,-985 407.5,-985"/>
<polygon fill="none" stroke="black" points="407.5,-985 407.5,-1003 441.5,-1003 441.5,-985 407.5,-985"/>
<text text-anchor="start" x="410.5" y="-991.2" font-family="Helvetica,sans-Serif" font-size="11.00">&lt; 2</text>
<polygon fill="#ffffff" stroke="transparent" points="441.5,-985 441.5,-1003 513.5,-1003 513.5,-985 441.5,-985"/>
<polygon fill="none" stroke="black" points="441.5,-985 441.5,-1003 513.5,-1003 513.5,-985 441.5,-985"/>
<text text-anchor="start" x="450.5" y="-991.2" font-family="Helvetica,sans-Serif" font-size="11.00">60,649 rows</text>
<polygon fill="#ffffff" stroke="transparent" points="513.5,-985 513.5,-1003 533.5,-1003 533.5,-985 513.5,-985"/>
<polygon fill="none" stroke="black" points="513.5,-985 513.5,-1003 533.5,-1003 533.5,-985 513.5,-985"/>
<text text-anchor="start" x="523.5" y="-991.2" font-family="Helvetica,sans-Serif" font-size="11.00"> &#160;</text>
</a>
</g>
</g>
<!-- datasets -->
<g id="node2" class="node">
<title>datasets</title>
<g id="a_node2"><a xlink:href="../../tables/datasets.html" xlink:title="datasets" target="_top">
<polygon fill="#ffffff" stroke="transparent" points="224,-425 224,-571 344,-571 344,-425 224,-425"/>
<polygon fill="#f5f5f5" stroke="transparent" points="224,-549 224,-571 344,-571 344,-549 224,-549"/>
<polygon fill="none" stroke="black" points="224,-549 224,-571 344,-571 344,-549 224,-549"/>
<text text-anchor="start" x="229" y="-558.2" font-family="Helvetica,sans-Serif" font-weight="bold" font-size="11.00">datasets</text>
<text text-anchor="start" x="309" y="-557.2" font-family="Helvetica,sans-Serif" font-size="11.00">[table]</text>
<polygon fill="none" stroke="black" points="224,-527 224,-549 344,-549 344,-527 224,-527"/>
<image xlink:href="../../images/primaryKeys.png" width="11px" height="12px" preserveAspectRatio="xMinYMin meet" x="229" y="-544"/>
<text text-anchor="start" x="244" y="-535.2" font-family="Helvetica,sans-Serif" font-size="11.00">datasetid</text>
<polygon fill="#ffffff" stroke="transparent" points="224,-505 224,-527 344,-527 344,-505 224,-505"/>
<polygon fill="none" stroke="black" points="224,-505 224,-527 344,-527 344,-505 224,-505"/>
<image xlink:href="../../images/foreignKeys.png" width="11px" height="12px" preserveAspectRatio="xMinYMin meet" x="229" y="-522"/>
<text text-anchor="start" x="244" y="-513.2" font-family="Helvetica,sans-Serif" font-size="11.00">collectionunitid</text>
<polygon fill="#ffffff" stroke="transparent" points="224,-483 224,-505 344,-505 344,-483 224,-483"/>
<polygon fill="none" stroke="black" points="224,-483 224,-505 344,-505 344,-483 224,-483"/>
<image xlink:href="../../images/foreignKeys.png" width="11px" height="12px" preserveAspectRatio="xMinYMin meet" x="229" y="-500"/>
<text text-anchor="start" x="244" y="-491.2" font-family="Helvetica,sans-Serif" font-size="11.00">datasettypeid</text>
<polygon fill="none" stroke="black" points="224,-461 224,-483 344,-483 344,-461 224,-461"/>
<image xlink:href="../../images/foreignKeys.png" width="11px" height="12px" preserveAspectRatio="xMinYMin meet" x="229" y="-478"/>
<text text-anchor="start" x="244" y="-469.2" font-family="Helvetica,sans-Serif" font-size="11.00">embargoid</text>
<polygon fill="none" stroke="black" points="224,-443 224,-461 344,-461 344,-443 224,-443"/>
<text text-anchor="start" x="227" y="-449.2" font-family="Helvetica,sans-Serif" font-size="11.00">...</text>
<polygon fill="#ffffff" stroke="transparent" points="224,-425 224,-443 248,-443 248,-425 224,-425"/>
<polygon fill="none" stroke="black" points="224,-425 224,-443 248,-443 248,-425 224,-425"/>
<text text-anchor="start" x="227" y="-431.2" font-family="Helvetica,sans-Serif" font-size="11.00">&lt; 3</text>
<polygon fill="#ffffff" stroke="transparent" points="248,-425 248,-443 315,-443 315,-425 248,-425"/>
<polygon fill="none" stroke="black" points="248,-425 248,-443 315,-443 315,-425 248,-425"/>
<text text-anchor="start" x="252" y="-431.2" font-family="Helvetica,sans-Serif" font-size="11.00">48,328 rows</text>
<polygon fill="#ffffff" stroke="transparent" points="315,-425 315,-443 344,-443 344,-425 315,-425"/>
<polygon fill="none" stroke="black" points="315,-425 315,-443 344,-443 344,-425 315,-425"/>
<text text-anchor="start" x="319" y="-431.2" font-family="Helvetica,sans-Serif" font-size="11.00">13 &gt;</text>
</a>
</g>
</g>
<!-- dataprocessors&#45;&gt;datasets -->
<g id="edge1" class="edge">
<title>dataprocessors:w&#45;&gt;datasets:e</title>
<path fill="none" stroke="black" d="M393.35,-1005.85C388.68,-998.82 388.75,-986.75 385,-975 370.18,-928.55 393.76,-538 345,-538"/>
<polygon fill="black" stroke="black" points="399.25,-1008.61 404.98,-1015.26 402.88,-1010.31 406.5,-1012 406.5,-1012 406.5,-1012 402.88,-1010.31 408.02,-1008.74 399.25,-1008.61 399.25,-1008.61"/>
<ellipse fill="none" stroke="black" cx="396.35" cy="-1007.26" rx="3.2" ry="3.2"/>
</g>
<!-- collectionunits -->
<g id="node6" class="node">
<title>collectionunits</title>
<g id="a_node6"><a xlink:href="../../tables/collectionunits.html" xlink:title="collectionunits" target="_top">
<polygon fill="#ffffff" stroke="transparent" points="30.5,-546 30.5,-604 152.5,-604 152.5,-546 30.5,-546"/>
<polygon fill="#f5f5f5" stroke="transparent" points="30.5,-582 30.5,-604 152.5,-604 152.5,-582 30.5,-582"/>
<polygon fill="none" stroke="black" points="30.5,-582 30.5,-604 152.5,-604 152.5,-582 30.5,-582"/>
<text text-anchor="start" x="35.5" y="-591.2" font-family="Helvetica,sans-Serif" font-weight="bold" font-size="11.00">collectionunits</text>
<text text-anchor="start" x="117.5" y="-590.2" font-family="Helvetica,sans-Serif" font-size="11.00">[table]</text>
<polygon fill="none" stroke="black" points="30.5,-564 30.5,-582 152.5,-582 152.5,-564 30.5,-564"/>
<text text-anchor="start" x="33.5" y="-570.2" font-family="Helvetica,sans-Serif" font-size="11.00">...</text>
<polygon fill="#ffffff" stroke="transparent" points="30.5,-546 30.5,-564 58.5,-564 58.5,-546 30.5,-546"/>
<polygon fill="none" stroke="black" points="30.5,-546 30.5,-564 58.5,-564 58.5,-546 30.5,-546"/>
<text text-anchor="start" x="33.5" y="-552.2" font-family="Helvetica,sans-Serif" font-size="11.00">&lt; 4</text>
<polygon fill="#ffffff" stroke="transparent" points="58.5,-546 58.5,-564 127.5,-564 127.5,-546 58.5,-546"/>
<polygon fill="none" stroke="black" points="58.5,-546 58.5,-564 127.5,-564 127.5,-546 58.5,-546"/>
<text text-anchor="start" x="64.5" y="-552.2" font-family="Helvetica,sans-Serif" font-size="11.00">32,827 rows</text>
<polygon fill="#ffffff" stroke="transparent" points="127.5,-546 127.5,-564 152.5,-564 152.5,-546 127.5,-546"/>
<polygon fill="none" stroke="black" points="127.5,-546 127.5,-564 152.5,-564 152.5,-546 127.5,-546"/>
<text text-anchor="start" x="133.5" y="-552.2" font-family="Helvetica,sans-Serif" font-size="11.00">5 &gt;</text>
</a>
</g>
</g>
<!-- datasets&#45;&gt;collectionunits -->
<g id="edge5" class="edge">
<title>datasets:w&#45;&gt;collectionunits:e</title>
<path fill="none" stroke="black" d="M208.85,-519.06C184.98,-530.9 187.83,-573 153.5,-573"/>
<polygon fill="black" stroke="black" points="215.18,-517.69 223.76,-519.52 219.09,-516.85 223,-516 223,-516 223,-516 219.09,-516.85 222.24,-512.48 215.18,-517.69 215.18,-517.69"/>
<ellipse fill="none" stroke="black" cx="212.05" cy="-518.37" rx="3.2" ry="3.2"/>
</g>
<!-- datasettypes -->
<g id="node7" class="node">
<title>datasettypes</title>
<g id="a_node7"><a xlink:href="../../tables/datasettypes.html" xlink:title="datasettypes" target="_top">
<polygon fill="#ffffff" stroke="transparent" points="36,-467 36,-525 147,-525 147,-467 36,-467"/>
<polygon fill="#f5f5f5" stroke="transparent" points="36.5,-503 36.5,-525 147.5,-525 147.5,-503 36.5,-503"/>
<polygon fill="none" stroke="black" points="36.5,-503 36.5,-525 147.5,-525 147.5,-503 36.5,-503"/>
<text text-anchor="start" x="41.5" y="-512.2" font-family="Helvetica,sans-Serif" font-weight="bold" font-size="11.00">datasettypes</text>
<text text-anchor="start" x="112.5" y="-511.2" font-family="Helvetica,sans-Serif" font-size="11.00">[table]</text>
<polygon fill="none" stroke="black" points="36.5,-485 36.5,-503 147.5,-503 147.5,-485 36.5,-485"/>
<text text-anchor="start" x="39.5" y="-491.2" font-family="Helvetica,sans-Serif" font-size="11.00">...</text>
<polygon fill="#ffffff" stroke="transparent" points="36.5,-467 36.5,-485 64.5,-485 64.5,-467 36.5,-467"/>
<polygon fill="none" stroke="black" points="36.5,-467 36.5,-485 64.5,-485 64.5,-467 36.5,-467"/>
<text text-anchor="start" x="39.5" y="-473.2" font-family="Helvetica,sans-Serif" font-size="11.00"> &#160;</text>
<polygon fill="#ffffff" stroke="transparent" points="64.5,-467 64.5,-485 117.5,-485 117.5,-467 64.5,-467"/>
<polygon fill="none" stroke="black" points="64.5,-467 64.5,-485 117.5,-485 117.5,-467 64.5,-467"/>
<text text-anchor="start" x="75.5" y="-473.2" font-family="Helvetica,sans-Serif" font-size="11.00">41 rows</text>
<polygon fill="#ffffff" stroke="transparent" points="117.5,-467 117.5,-485 147.5,-485 147.5,-467 117.5,-467"/>
<polygon fill="none" stroke="black" points="117.5,-467 117.5,-485 147.5,-485 147.5,-467 117.5,-467"/>
<text text-anchor="start" x="128.5" y="-473.2" font-family="Helvetica,sans-Serif" font-size="11.00">6 &gt;</text>
</a>
</g>
</g>
<!-- datasets&#45;&gt;datasettypes -->
<g id="edge6" class="edge">
<title>datasets:w&#45;&gt;datasettypes:e</title>
<path fill="none" stroke="black" d="M208.49,-494C186.5,-494 176.18,-494 148.5,-494"/>
<polygon fill="black" stroke="black" points="215,-494 223,-497.6 219,-494 223,-494 223,-494 223,-494 219,-494 223,-490.4 215,-494 215,-494"/>
<ellipse fill="none" stroke="black" cx="211.8" cy="-494" rx="3.2" ry="3.2"/>
</g>
<!-- embargo -->
<g id="node8" class="node">
<title>embargo</title>
<g id="a_node8"><a xlink:href="../../tables/embargo.html" xlink:title="embargo" target="_top">
<polygon fill="#ffffff" stroke="transparent" points="8,-336 8,-446 175,-446 175,-336 8,-336"/>
<polygon fill="#f5f5f5" stroke="transparent" points="10.5,-422 10.5,-444 173.5,-444 173.5,-422 10.5,-422"/>
<polygon fill="none" stroke="black" points="10.5,-422 10.5,-444 173.5,-444 173.5,-422 10.5,-422"/>
<text text-anchor="start" x="15.5" y="-431.2" font-family="Helvetica,sans-Serif" font-weight="bold" font-size="11.00">embargo</text>
<text text-anchor="start" x="138.5" y="-430.2" font-family="Helvetica,sans-Serif" font-size="11.00">[table]</text>
<polygon fill="none" stroke="black" points="10.5,-400 10.5,-422 112.5,-422 112.5,-400 10.5,-400"/>
<image xlink:href="../../images/primaryKeys.png" width="11px" height="12px" preserveAspectRatio="xMinYMin meet" x="15.5" y="-417"/>
<text text-anchor="start" x="30.5" y="-408.2" font-family="Helvetica,sans-Serif" font-size="11.00">embargoid</text>
<polygon fill="none" stroke="black" points="112.5,-400 112.5,-422 173.5,-422 173.5,-400 112.5,-400"/>
<text text-anchor="start" x="115.5" y="-408.2" font-family="Helvetica,sans-Serif" font-size="11.00">serial[10]</text>
<polygon fill="none" stroke="black" points="10.5,-378 10.5,-400 112.5,-400 112.5,-378 10.5,-378"/>
<text text-anchor="start" x="30.5" y="-386.2" font-family="Helvetica,sans-Serif" font-size="11.00">embargodate</text>
<polygon fill="none" stroke="black" points="112.5,-378 112.5,-400 173.5,-400 173.5,-378 112.5,-378"/>
<text text-anchor="start" x="115.5" y="-386.2" font-family="Helvetica,sans-Serif" font-size="11.00">date[13]</text>
<polygon fill="none" stroke="black" points="10.5,-356 10.5,-378 112.5,-378 112.5,-356 10.5,-356"/>
<text text-anchor="start" x="30.5" y="-364.2" font-family="Helvetica,sans-Serif" font-size="11.00">embargopw</text>
<polygon fill="none" stroke="black" points="112.5,-356 112.5,-378 173.5,-378 173.5,-356 112.5,-356"/>
<text text-anchor="start" x="115.5" y="-364.2" font-family="Helvetica,sans-Serif" font-size="11.00">varchar[20]</text>
<polygon fill="#ffffff" stroke="transparent" points="10.5,-338 10.5,-356 52.5,-356 52.5,-338 10.5,-338"/>
<polygon fill="none" stroke="black" points="10.5,-338 10.5,-356 52.5,-356 52.5,-338 10.5,-338"/>
<text text-anchor="start" x="13.5" y="-344.2" font-family="Helvetica,sans-Serif" font-size="11.00">&lt; 0</text>
<polygon fill="#ffffff" stroke="transparent" points="52.5,-338 52.5,-356 112.5,-356 112.5,-338 52.5,-338"/>
<polygon fill="none" stroke="black" points="52.5,-338 52.5,-356 112.5,-356 112.5,-338 52.5,-338"/>
<text text-anchor="start" x="76.5" y="-344.2" font-family="Helvetica,sans-Serif" font-size="11.00">0 rows</text>
<polygon fill="#ffffff" stroke="transparent" points="112.5,-338 112.5,-356 173.5,-356 173.5,-338 112.5,-338"/>
<polygon fill="none" stroke="black" points="112.5,-338 112.5,-356 173.5,-356 173.5,-338 112.5,-338"/>
<text text-anchor="start" x="154.5" y="-344.2" font-family="Helvetica,sans-Serif" font-size="11.00">1 &gt;</text>
<polygon fill="none" stroke="black" stroke-width="2" points="9,-337 9,-445 174,-445 174,-337 9,-337"/>
</a>
</g>
</g>
<!-- datasets&#45;&gt;embargo -->
<g id="edge7" class="edge">
<title>datasets:w&#45;&gt;embargo:e</title>
<path fill="none" stroke="black" d="M209.05,-466.8C194.04,-452.05 202.91,-411 174.5,-411"/>
<polygon fill="black" stroke="black" points="215.5,-469.2 221.74,-475.37 219.25,-470.6 223,-472 223,-472 223,-472 219.25,-470.6 224.26,-468.63 215.5,-469.2 215.5,-469.2"/>
<ellipse fill="none" stroke="black" cx="212.51" cy="-468.09" rx="3.2" ry="3.2"/>
</g>
<!-- datasetdatabases -->
<g id="node3" class="node">
<title>datasetdatabases</title>
<g id="a_node3"><a xlink:href="../../tables/datasetdatabases.html" xlink:title="datasetdatabases" target="_top">
<polygon fill="#ffffff" stroke="transparent" points="402.5,-906 402.5,-964 538.5,-964 538.5,-906 402.5,-906"/>
<polygon fill="#f5f5f5" stroke="transparent" points="402.5,-942 402.5,-964 538.5,-964 538.5,-942 402.5,-942"/>
<polygon fill="none" stroke="black" points="402.5,-942 402.5,-964 538.5,-964 538.5,-942 402.5,-942"/>
<text text-anchor="start" x="407.5" y="-951.2" font-family="Helvetica,sans-Serif" font-weight="bold" font-size="11.00">datasetdatabases</text>
<text text-anchor="start" x="503.5" y="-950.2" font-family="Helvetica,sans-Serif" font-size="11.00">[table]</text>
<polygon fill="none" stroke="black" points="402.5,-924 402.5,-942 538.5,-942 538.5,-924 402.5,-924"/>
<text text-anchor="start" x="405.5" y="-930.2" font-family="Helvetica,sans-Serif" font-size="11.00">...</text>
<polygon fill="#ffffff" stroke="transparent" points="402.5,-906 402.5,-924 441.5,-924 441.5,-906 402.5,-906"/>
<polygon fill="none" stroke="black" points="402.5,-906 402.5,-924 441.5,-924 441.5,-906 402.5,-906"/>
<text text-anchor="start" x="405.5" y="-912.2" font-family="Helvetica,sans-Serif" font-size="11.00">&lt; 2</text>
<polygon fill="#ffffff" stroke="transparent" points="441.5,-906 441.5,-924 516.5,-924 516.5,-906 441.5,-906"/>
<polygon fill="none" stroke="black" points="441.5,-906 441.5,-924 516.5,-924 516.5,-906 441.5,-906"/>
<text text-anchor="start" x="453.5" y="-912.2" font-family="Helvetica,sans-Serif" font-size="11.00">47,689 rows</text>
<polygon fill="#ffffff" stroke="transparent" points="516.5,-906 516.5,-924 538.5,-924 538.5,-906 516.5,-906"/>
<polygon fill="none" stroke="black" points="516.5,-906 516.5,-924 538.5,-924 538.5,-906 516.5,-906"/>
<text text-anchor="start" x="528.5" y="-912.2" font-family="Helvetica,sans-Serif" font-size="11.00"> &#160;</text>
</a>
</g>
</g>
<!-- datasetdatabases&#45;&gt;datasets -->
<g id="edge2" class="edge">
<title>datasetdatabases:w&#45;&gt;datasets:e</title>
<path fill="none" stroke="black" d="M387.6,-928.83C326.69,-886.62 428.3,-538 345,-538"/>
<polygon fill="black" stroke="black" points="393.84,-930.7 400.47,-936.45 397.67,-931.85 401.5,-933 401.5,-933 401.5,-933 397.67,-931.85 402.53,-929.55 393.84,-930.7 393.84,-930.7"/>
<ellipse fill="none" stroke="black" cx="390.77" cy="-929.78" rx="3.2" ry="3.2"/>
</g>
<!-- datasetpis -->
<g id="node4" class="node">
<title>datasetpis</title>
<g id="a_node4"><a xlink:href="../../tables/datasetpis.html" xlink:title="datasetpis" target="_top">
<polygon fill="#ffffff" stroke="transparent" points="417,-827 417,-885 524,-885 524,-827 417,-827"/>
<polygon fill="#f5f5f5" stroke="transparent" points="417.5,-863 417.5,-885 524.5,-885 524.5,-863 417.5,-863"/>
<polygon fill="none" stroke="black" points="417.5,-863 417.5,-885 524.5,-885 524.5,-863 417.5,-863"/>
<text text-anchor="start" x="422.5" y="-872.2" font-family="Helvetica,sans-Serif" font-weight="bold" font-size="11.00">datasetpis</text>
<text text-anchor="start" x="489.5" y="-871.2" font-family="Helvetica,sans-Serif" font-size="11.00">[table]</text>
<polygon fill="none" stroke="black" points="417.5,-845 417.5,-863 524.5,-863 524.5,-845 417.5,-845"/>
<text text-anchor="start" x="420.5" y="-851.2" font-family="Helvetica,sans-Serif" font-size="11.00">...</text>
<polygon fill="#ffffff" stroke="transparent" points="417.5,-827 417.5,-845 439.5,-845 439.5,-827 417.5,-827"/>
<polygon fill="none" stroke="black" points="417.5,-827 417.5,-845 439.5,-845 439.5,-827 417.5,-827"/>
<text text-anchor="start" x="420.5" y="-833.2" font-family="Helvetica,sans-Serif" font-size="11.00">&lt; 2</text>
<polygon fill="#ffffff" stroke="transparent" points="439.5,-827 439.5,-845 511.5,-845 511.5,-827 439.5,-827"/>
<polygon fill="none" stroke="black" points="439.5,-827 439.5,-845 511.5,-845 511.5,-827 439.5,-827"/>
<text text-anchor="start" x="442.5" y="-833.2" font-family="Helvetica,sans-Serif" font-size="11.00">124,861 rows</text>
<polygon fill="#ffffff" stroke="transparent" points="511.5,-827 511.5,-845 524.5,-845 524.5,-827 511.5,-827"/>
<polygon fill="none" stroke="black" points="511.5,-827 511.5,-845 524.5,-845 524.5,-827 511.5,-827"/>
<text text-anchor="start" x="514.5" y="-833.2" font-family="Helvetica,sans-Serif" font-size="11.00"> &#160;</text>
</a>
</g>
</g>
<!-- datasetpis&#45;&gt;datasets -->
<g id="edge3" class="edge">
<title>datasetpis:w&#45;&gt;datasets:e</title>
<path fill="none" stroke="black" d="M402.53,-850.22C393.71,-844.07 391.38,-831.15 385,-817 359.24,-759.91 407.63,-538 345,-538"/>
<polygon fill="black" stroke="black" points="408.78,-851.91 415.56,-857.48 412.64,-852.96 416.5,-854 416.5,-854 416.5,-854 412.64,-852.96 417.44,-850.52 408.78,-851.91 408.78,-851.91"/>
<ellipse fill="none" stroke="black" cx="405.69" cy="-851.08" rx="3.2" ry="3.2"/>
</g>
<!-- datasetpublications -->
<g id="node5" class="node">
<title>datasetpublications</title>
<g id="a_node5"><a xlink:href="../../tables/datasetpublications.html" xlink:title="datasetpublications" target="_top">
<polygon fill="#ffffff" stroke="transparent" points="397,-748 397,-806 544,-806 544,-748 397,-748"/>
<polygon fill="#f5f5f5" stroke="transparent" points="397.5,-784 397.5,-806 544.5,-806 544.5,-784 397.5,-784"/>
<polygon fill="none" stroke="black" points="397.5,-784 397.5,-806 544.5,-806 544.5,-784 397.5,-784"/>
<text text-anchor="start" x="402.5" y="-793.2" font-family="Helvetica,sans-Serif" font-weight="bold" font-size="11.00">datasetpublications</text>
<text text-anchor="start" x="509.5" y="-792.2" font-family="Helvetica,sans-Serif" font-size="11.00">[table]</text>
<polygon fill="none" stroke="black" points="397.5,-766 397.5,-784 544.5,-784 544.5,-766 397.5,-766"/>
<text text-anchor="start" x="400.5" y="-772.2" font-family="Helvetica,sans-Serif" font-size="11.00">...</text>
<polygon fill="#ffffff" stroke="transparent" points="397.5,-748 397.5,-766 442.5,-766 442.5,-748 397.5,-748"/>
<polygon fill="none" stroke="black" points="397.5,-748 397.5,-766 442.5,-766 442.5,-748 397.5,-748"/>
<text text-anchor="start" x="400.5" y="-754.2" font-family="Helvetica,sans-Serif" font-size="11.00">&lt; 2</text>
<polygon fill="#ffffff" stroke="transparent" points="442.5,-748 442.5,-766 519.5,-766 519.5,-748 442.5,-748"/>
<polygon fill="none" stroke="black" points="442.5,-748 442.5,-766 519.5,-766 519.5,-748 442.5,-748"/>
<text text-anchor="start" x="456.5" y="-754.2" font-family="Helvetica,sans-Serif" font-size="11.00">58,986 rows</text>
<polygon fill="#ffffff" stroke="transparent" points="519.5,-748 519.5,-766 544.5,-766 544.5,-748 519.5,-748"/>
<polygon fill="none" stroke="black" points="519.5,-748 519.5,-766 544.5,-766 544.5,-748 519.5,-748"/>
<text text-anchor="start" x="534.5" y="-754.2" font-family="Helvetica,sans-Serif" font-size="11.00"> &#160;</text>
</a>
</g>
</g>
<!-- datasetpublications&#45;&gt;datasets -->
<g id="edge4" class="edge">
<title>datasetpublications:w&#45;&gt;datasets:e</title>
<path fill="none" stroke="black" d="M382.11,-773.23C304.67,-751.54 447.32,-538 345,-538"/>
<polygon fill="black" stroke="black" points="388.56,-774.02 396.06,-778.57 392.53,-774.51 396.5,-775 396.5,-775 396.5,-775 392.53,-774.51 396.94,-771.43 388.56,-774.02 388.56,-774.02"/>
<ellipse fill="none" stroke="black" cx="385.38" cy="-773.63" rx="3.2" ry="3.2"/>
</g>
<!-- datasetsubmissions -->
<g id="node9" class="node">
<title>datasetsubmissions</title>
<g id="a_node9"><a xlink:href="../../tables/datasetsubmissions.html" xlink:title="datasetsubmissions" target="_top">
<polygon fill="#ffffff" stroke="transparent" points="395.5,-669 395.5,-727 545.5,-727 545.5,-669 395.5,-669"/>
<polygon fill="#f5f5f5" stroke="transparent" points="395.5,-705 395.5,-727 545.5,-727 545.5,-705 395.5,-705"/>
<polygon fill="none" stroke="black" points="395.5,-705 395.5,-727 545.5,-727 545.5,-705 395.5,-705"/>
<text text-anchor="start" x="400.5" y="-714.2" font-family="Helvetica,sans-Serif" font-weight="bold" font-size="11.00">datasetsubmissions</text>
<text text-anchor="start" x="510.5" y="-713.2" font-family="Helvetica,sans-Serif" font-size="11.00">[table]</text>
<polygon fill="none" stroke="black" points="395.5,-687 395.5,-705 545.5,-705 545.5,-687 395.5,-687"/>
<text text-anchor="start" x="398.5" y="-693.2" font-family="Helvetica,sans-Serif" font-size="11.00">...</text>
<polygon fill="#ffffff" stroke="transparent" points="395.5,-669 395.5,-687 441.5,-687 441.5,-669 395.5,-669"/>
<polygon fill="none" stroke="black" points="395.5,-669 395.5,-687 441.5,-687 441.5,-669 395.5,-669"/>
<text text-anchor="start" x="398.5" y="-675.2" font-family="Helvetica,sans-Serif" font-size="11.00">&lt; 4</text>
<polygon fill="#ffffff" stroke="transparent" points="441.5,-669 441.5,-687 519.5,-687 519.5,-669 441.5,-669"/>
<polygon fill="none" stroke="black" points="441.5,-669 441.5,-687 519.5,-687 519.5,-669 441.5,-669"/>
<text text-anchor="start" x="456.5" y="-675.2" font-family="Helvetica,sans-Serif" font-size="11.00">57,403 rows</text>
<polygon fill="#ffffff" stroke="transparent" points="519.5,-669 519.5,-687 545.5,-687 545.5,-669 519.5,-669"/>
<polygon fill="none" stroke="black" points="519.5,-669 519.5,-687 545.5,-687 545.5,-669 519.5,-669"/>
<text text-anchor="start" x="535.5" y="-675.2" font-family="Helvetica,sans-Serif" font-size="11.00"> &#160;</text>
</a>
</g>
</g>
<!-- datasetsubmissions&#45;&gt;datasets -->
<g id="edge8" class="edge">
<title>datasetsubmissions:w&#45;&gt;datasets:e</title>
<path fill="none" stroke="black" d="M380.23,-693.26C335.13,-672.28 412.84,-538 345,-538"/>
<polygon fill="black" stroke="black" points="386.64,-694.49 393.82,-699.54 390.57,-695.25 394.5,-696 394.5,-696 394.5,-696 390.57,-695.25 395.18,-692.46 386.64,-694.49 386.64,-694.49"/>
<ellipse fill="none" stroke="black" cx="383.5" cy="-693.89" rx="3.2" ry="3.2"/>
</g>
<!-- datasettaxonnotes -->
<g id="node10" class="node">
<title>datasettaxonnotes</title>
<g id="a_node10"><a xlink:href="../../tables/datasettaxonnotes.html" xlink:title="datasettaxonnotes" target="_top">
<polygon fill="#ffffff" stroke="transparent" points="400,-590 400,-648 541,-648 541,-590 400,-590"/>
<polygon fill="#f5f5f5" stroke="transparent" points="400.5,-626 400.5,-648 541.5,-648 541.5,-626 400.5,-626"/>
<polygon fill="none" stroke="black" points="400.5,-626 400.5,-648 541.5,-648 541.5,-626 400.5,-626"/>
<text text-anchor="start" x="405.5" y="-635.2" font-family="Helvetica,sans-Serif" font-weight="bold" font-size="11.00">datasettaxonnotes</text>
<text text-anchor="start" x="506.5" y="-634.2" font-family="Helvetica,sans-Serif" font-size="11.00">[table]</text>
<polygon fill="none" stroke="black" points="400.5,-608 400.5,-626 541.5,-626 541.5,-608 400.5,-608"/>
<text text-anchor="start" x="403.5" y="-614.2" font-family="Helvetica,sans-Serif" font-size="11.00">...</text>
<polygon fill="#ffffff" stroke="transparent" points="400.5,-590 400.5,-608 445.5,-608 445.5,-590 400.5,-590"/>
<polygon fill="none" stroke="black" points="400.5,-590 400.5,-608 445.5,-608 445.5,-590 400.5,-590"/>
<text text-anchor="start" x="403.5" y="-596.2" font-family="Helvetica,sans-Serif" font-size="11.00">&lt; 3</text>
<polygon fill="#ffffff" stroke="transparent" points="445.5,-590 445.5,-608 516.5,-608 516.5,-590 445.5,-590"/>
<polygon fill="none" stroke="black" points="445.5,-590 445.5,-608 516.5,-608 516.5,-590 445.5,-590"/>
<text text-anchor="start" x="459.5" y="-596.2" font-family="Helvetica,sans-Serif" font-size="11.00">1,668 rows</text>
<polygon fill="#ffffff" stroke="transparent" points="516.5,-590 516.5,-608 541.5,-608 541.5,-590 516.5,-590"/>
<polygon fill="none" stroke="black" points="516.5,-590 516.5,-608 541.5,-608 541.5,-590 516.5,-590"/>
<text text-anchor="start" x="531.5" y="-596.2" font-family="Helvetica,sans-Serif" font-size="11.00"> &#160;</text>
</a>
</g>
</g>
<!-- datasettaxonnotes&#45;&gt;datasets -->
<g id="edge9" class="edge">
<title>datasettaxonnotes:w&#45;&gt;datasets:e</title>
<path fill="none" stroke="black" d="M385.45,-612.75C364.06,-596.34 381.66,-538 345,-538"/>
<polygon fill="black" stroke="black" points="391.84,-614.68 398.46,-620.45 395.67,-615.84 399.5,-617 399.5,-617 399.5,-617 395.67,-615.84 400.54,-613.55 391.84,-614.68 391.84,-614.68"/>
<ellipse fill="none" stroke="black" cx="388.78" cy="-613.76" rx="3.2" ry="3.2"/>
</g>
<!-- datasetvariables -->
<g id="node11" class="node">
<title>datasetvariables</title>
<g id="a_node11"><a xlink:href="../../tables/datasetvariables.html" xlink:title="datasetvariables" target="_top">
<polygon fill="#ffffff" stroke="transparent" points="405.5,-511 405.5,-569 535.5,-569 535.5,-511 405.5,-511"/>
<polygon fill="#f5f5f5" stroke="transparent" points="405.5,-547 405.5,-569 535.5,-569 535.5,-547 405.5,-547"/>
<polygon fill="none" stroke="black" points="405.5,-547 405.5,-569 535.5,-569 535.5,-547 405.5,-547"/>
<text text-anchor="start" x="410.5" y="-556.2" font-family="Helvetica,sans-Serif" font-weight="bold" font-size="11.00">datasetvariables</text>
<text text-anchor="start" x="500.5" y="-555.2" font-family="Helvetica,sans-Serif" font-size="11.00">[table]</text>
<polygon fill="none" stroke="black" points="405.5,-529 405.5,-547 535.5,-547 535.5,-529 405.5,-529"/>
<text text-anchor="start" x="408.5" y="-535.2" font-family="Helvetica,sans-Serif" font-size="11.00">...</text>
<polygon fill="#ffffff" stroke="transparent" points="405.5,-511 405.5,-529 455.5,-529 455.5,-511 405.5,-511"/>
<polygon fill="none" stroke="black" points="405.5,-511 405.5,-529 455.5,-529 455.5,-511 405.5,-511"/>
<text text-anchor="start" x="408.5" y="-517.2" font-family="Helvetica,sans-Serif" font-size="11.00">&lt; 2</text>
<polygon fill="#ffffff" stroke="transparent" points="455.5,-511 455.5,-529 508.5,-529 508.5,-511 455.5,-511"/>
<polygon fill="none" stroke="black" points="455.5,-511 455.5,-529 508.5,-529 508.5,-511 455.5,-511"/>
<text text-anchor="start" x="472.5" y="-517.2" font-family="Helvetica,sans-Serif" font-size="11.00">0 rows</text>
<polygon fill="#ffffff" stroke="transparent" points="508.5,-511 508.5,-529 535.5,-529 535.5,-511 508.5,-511"/>
<polygon fill="none" stroke="black" points="508.5,-511 508.5,-529 535.5,-529 535.5,-511 508.5,-511"/>
<text text-anchor="start" x="525.5" y="-517.2" font-family="Helvetica,sans-Serif" font-size="11.00"> &#160;</text>
</a>
</g>
</g>
<!-- datasetvariables&#45;&gt;datasets -->
<g id="edge10" class="edge">
<title>datasetvariables:w&#45;&gt;datasets:e</title>
<path fill="none" stroke="black" d="M390.04,-538C374.38,-538 365.87,-538 345,-538"/>
<polygon fill="black" stroke="black" points="396.5,-538 404.5,-541.6 400.5,-538 404.5,-538 404.5,-538 404.5,-538 400.5,-538 404.5,-534.4 396.5,-538 396.5,-538"/>
<ellipse fill="none" stroke="black" cx="393.3" cy="-538" rx="3.2" ry="3.2"/>
</g>
<!-- isoinstrumentation -->
<g id="node12" class="node">
<title>isoinstrumentation</title>
<g id="a_node12"><a xlink:href="../../tables/isoinstrumentation.html" xlink:title="isoinstrumentation" target="_top">
<polygon fill="#ffffff" stroke="transparent" points="398.5,-432 398.5,-490 542.5,-490 542.5,-432 398.5,-432"/>
<polygon fill="#f5f5f5" stroke="transparent" points="398.5,-468 398.5,-490 542.5,-490 542.5,-468 398.5,-468"/>
<polygon fill="none" stroke="black" points="398.5,-468 398.5,-490 542.5,-490 542.5,-468 398.5,-468"/>
<text text-anchor="start" x="403.5" y="-477.2" font-family="Helvetica,sans-Serif" font-weight="bold" font-size="11.00">isoinstrumentation</text>
<text text-anchor="start" x="507.5" y="-476.2" font-family="Helvetica,sans-Serif" font-size="11.00">[table]</text>
<polygon fill="none" stroke="black" points="398.5,-450 398.5,-468 542.5,-468 542.5,-450 398.5,-450"/>
<text text-anchor="start" x="401.5" y="-456.2" font-family="Helvetica,sans-Serif" font-size="11.00">...</text>
<polygon fill="#ffffff" stroke="transparent" points="398.5,-432 398.5,-450 449.5,-450 449.5,-432 398.5,-432"/>
<polygon fill="none" stroke="black" points="398.5,-432 398.5,-450 449.5,-450 449.5,-432 398.5,-432"/>
<text text-anchor="start" x="401.5" y="-438.2" font-family="Helvetica,sans-Serif" font-size="11.00">&lt; 4</text>
<polygon fill="#ffffff" stroke="transparent" points="449.5,-432 449.5,-450 514.5,-450 514.5,-432 449.5,-432"/>
<polygon fill="none" stroke="black" points="449.5,-432 449.5,-450 514.5,-450 514.5,-432 449.5,-432"/>
<text text-anchor="start" x="466.5" y="-438.2" font-family="Helvetica,sans-Serif" font-size="11.00">156 rows</text>
<polygon fill="#ffffff" stroke="transparent" points="514.5,-432 514.5,-450 542.5,-450 542.5,-432 514.5,-432"/>
<polygon fill="none" stroke="black" points="514.5,-432 514.5,-450 542.5,-450 542.5,-432 514.5,-432"/>
<text text-anchor="start" x="532.5" y="-438.2" font-family="Helvetica,sans-Serif" font-size="11.00"> &#160;</text>
</a>
</g>
</g>
<!-- isoinstrumentation&#45;&gt;datasets -->
<g id="edge11" class="edge">
<title>isoinstrumentation:w&#45;&gt;datasets:e</title>
<path fill="none" stroke="black" d="M383.69,-463.25C362.83,-479.66 381.23,-538 345,-538"/>
<polygon fill="black" stroke="black" points="389.85,-461.35 398.56,-462.44 393.68,-460.18 397.5,-459 397.5,-459 397.5,-459 393.68,-460.18 396.44,-455.56 389.85,-461.35 389.85,-461.35"/>
<ellipse fill="none" stroke="black" cx="386.79" cy="-462.29" rx="3.2" ry="3.2"/>
</g>
<!-- isosrmetadata -->
<g id="node13" class="node">
<title>isosrmetadata</title>
<g id="a_node13"><a xlink:href="../../tables/isosrmetadata.html" xlink:title="isosrmetadata" target="_top">
<polygon fill="#ffffff" stroke="transparent" points="411,-353 411,-411 530,-411 530,-353 411,-353"/>
<polygon fill="#f5f5f5" stroke="transparent" points="411.5,-389 411.5,-411 530.5,-411 530.5,-389 411.5,-389"/>
<polygon fill="none" stroke="black" points="411.5,-389 411.5,-411 530.5,-411 530.5,-389 411.5,-389"/>
<text text-anchor="start" x="416.5" y="-398.2" font-family="Helvetica,sans-Serif" font-weight="bold" font-size="11.00">isosrmetadata</text>
<text text-anchor="start" x="495.5" y="-397.2" font-family="Helvetica,sans-Serif" font-size="11.00">[table]</text>
<polygon fill="none" stroke="black" points="411.5,-371 411.5,-389 530.5,-389 530.5,-371 411.5,-371"/>
<text text-anchor="start" x="414.5" y="-377.2" font-family="Helvetica,sans-Serif" font-size="11.00">...</text>
<polygon fill="#ffffff" stroke="transparent" points="411.5,-353 411.5,-371 452.5,-371 452.5,-353 411.5,-353"/>
<polygon fill="none" stroke="black" points="411.5,-353 411.5,-371 452.5,-371 452.5,-353 411.5,-353"/>
<text text-anchor="start" x="414.5" y="-359.2" font-family="Helvetica,sans-Serif" font-size="11.00">&lt; 2</text>
<polygon fill="#ffffff" stroke="transparent" points="452.5,-353 452.5,-371 507.5,-371 507.5,-353 452.5,-353"/>
<polygon fill="none" stroke="black" points="452.5,-353 452.5,-371 507.5,-371 507.5,-353 452.5,-353"/>
<text text-anchor="start" x="465.5" y="-359.2" font-family="Helvetica,sans-Serif" font-size="11.00">14 rows</text>
<polygon fill="#ffffff" stroke="transparent" points="507.5,-353 507.5,-371 530.5,-371 530.5,-353 507.5,-353"/>
<polygon fill="none" stroke="black" points="507.5,-353 507.5,-371 530.5,-371 530.5,-353 507.5,-353"/>
<text text-anchor="start" x="520.5" y="-359.2" font-family="Helvetica,sans-Serif" font-size="11.00"> &#160;</text>
</a>
</g>
</g>
<!-- isosrmetadata&#45;&gt;datasets -->
<g id="edge12" class="edge">
<title>isosrmetadata:w&#45;&gt;datasets:e</title>
<path fill="none" stroke="black" d="M396.13,-382.48C346.43,-402.58 415.38,-538 345,-538"/>
<polygon fill="black" stroke="black" points="402.62,-381.36 411.11,-383.55 406.56,-380.68 410.5,-380 410.5,-380 410.5,-380 406.56,-380.68 409.89,-376.45 402.62,-381.36 402.62,-381.36"/>
<ellipse fill="none" stroke="black" cx="399.46" cy="-381.91" rx="3.2" ry="3.2"/>
</g>
<!-- isostandards -->
<g id="node14" class="node">
<title>isostandards</title>
<g id="a_node14"><a xlink:href="../../tables/isostandards.html" xlink:title="isostandards" target="_top">
<polygon fill="#ffffff" stroke="transparent" points="414,-274 414,-332 527,-332 527,-274 414,-274"/>
<polygon fill="#f5f5f5" stroke="transparent" points="414.5,-310 414.5,-332 527.5,-332 527.5,-310 414.5,-310"/>
<polygon fill="none" stroke="black" points="414.5,-310 414.5,-332 527.5,-332 527.5,-310 414.5,-310"/>
<text text-anchor="start" x="419.5" y="-319.2" font-family="Helvetica,sans-Serif" font-weight="bold" font-size="11.00">isostandards</text>
<text text-anchor="start" x="492.5" y="-318.2" font-family="Helvetica,sans-Serif" font-size="11.00">[table]</text>
<polygon fill="none" stroke="black" points="414.5,-292 414.5,-310 527.5,-310 527.5,-292 414.5,-292"/>
<text text-anchor="start" x="417.5" y="-298.2" font-family="Helvetica,sans-Serif" font-size="11.00">...</text>
<polygon fill="#ffffff" stroke="transparent" points="414.5,-274 414.5,-292 455.5,-292 455.5,-274 414.5,-274"/>
<polygon fill="none" stroke="black" points="414.5,-274 414.5,-292 455.5,-292 455.5,-274 414.5,-274"/>
<text text-anchor="start" x="417.5" y="-280.2" font-family="Helvetica,sans-Serif" font-size="11.00">&lt; 3</text>
<polygon fill="#ffffff" stroke="transparent" points="455.5,-274 455.5,-292 504.5,-292 504.5,-274 455.5,-274"/>
<polygon fill="none" stroke="black" points="455.5,-274 455.5,-292 504.5,-292 504.5,-274 455.5,-274"/>
<text text-anchor="start" x="468.5" y="-280.2" font-family="Helvetica,sans-Serif" font-size="11.00">0 rows</text>
<polygon fill="#ffffff" stroke="transparent" points="504.5,-274 504.5,-292 527.5,-292 527.5,-274 504.5,-274"/>
<polygon fill="none" stroke="black" points="504.5,-274 504.5,-292 527.5,-292 527.5,-274 504.5,-274"/>
<text text-anchor="start" x="517.5" y="-280.2" font-family="Helvetica,sans-Serif" font-size="11.00"> &#160;</text>
</a>
</g>
</g>
<!-- isostandards&#45;&gt;datasets -->
<g id="edge13" class="edge">
<title>isostandards:w&#45;&gt;datasets:e</title>
<path fill="none" stroke="black" d="M399.67,-305.55C391.61,-312.9 391.3,-328.06 385,-343 367.8,-383.76 389.24,-538 345,-538"/>
<polygon fill="black" stroke="black" points="405.9,-303.5 414.63,-304.42 409.7,-302.25 413.5,-301 413.5,-301 413.5,-301 409.7,-302.25 412.37,-297.58 405.9,-303.5 405.9,-303.5"/>
<ellipse fill="none" stroke="black" cx="402.86" cy="-304.5" rx="3.2" ry="3.2"/>
</g>
<!-- repositoryspecimens -->
<g id="node15" class="node">
<title>repositoryspecimens</title>
<g id="a_node15"><a xlink:href="../../tables/repositoryspecimens.html" xlink:title="repositoryspecimens" target="_top">
<polygon fill="#ffffff" stroke="transparent" points="393,-195 393,-253 548,-253 548,-195 393,-195"/>
<polygon fill="#f5f5f5" stroke="transparent" points="393.5,-231 393.5,-253 548.5,-253 548.5,-231 393.5,-231"/>
<polygon fill="none" stroke="black" points="393.5,-231 393.5,-253 548.5,-253 548.5,-231 393.5,-231"/>
<text text-anchor="start" x="398.5" y="-240.2" font-family="Helvetica,sans-Serif" font-weight="bold" font-size="11.00">repositoryspecimens</text>
<text text-anchor="start" x="513.5" y="-239.2" font-family="Helvetica,sans-Serif" font-size="11.00">[table]</text>
<polygon fill="none" stroke="black" points="393.5,-213 393.5,-231 548.5,-231 548.5,-213 393.5,-213"/>
<text text-anchor="start" x="396.5" y="-219.2" font-family="Helvetica,sans-Serif" font-size="11.00">...</text>
<polygon fill="#ffffff" stroke="transparent" points="393.5,-195 393.5,-213 445.5,-213 445.5,-195 393.5,-195"/>
<polygon fill="none" stroke="black" points="393.5,-195 393.5,-213 445.5,-213 445.5,-195 393.5,-195"/>
<text text-anchor="start" x="396.5" y="-201.2" font-family="Helvetica,sans-Serif" font-size="11.00">&lt; 2</text>
<polygon fill="#ffffff" stroke="transparent" points="445.5,-195 445.5,-213 520.5,-213 520.5,-195 445.5,-195"/>
<polygon fill="none" stroke="black" points="445.5,-195 445.5,-213 520.5,-213 520.5,-195 445.5,-195"/>
<text text-anchor="start" x="463.5" y="-201.2" font-family="Helvetica,sans-Serif" font-size="11.00">6,405 rows</text>
<polygon fill="#ffffff" stroke="transparent" points="520.5,-195 520.5,-213 548.5,-213 548.5,-195 520.5,-195"/>
<polygon fill="none" stroke="black" points="520.5,-195 520.5,-213 548.5,-213 548.5,-195 520.5,-195"/>
<text text-anchor="start" x="538.5" y="-201.2" font-family="Helvetica,sans-Serif" font-size="11.00"> &#160;</text>
</a>
</g>
</g>
<!-- repositoryspecimens&#45;&gt;datasets -->
<g id="edge14" class="edge">
<title>repositoryspecimens:w&#45;&gt;datasets:e</title>
<path fill="none" stroke="black" d="M379.01,-227.22C334.93,-268.31 410.6,-538 345,-538"/>
<polygon fill="black" stroke="black" points="385.04,-224.89 393.8,-225.36 388.77,-223.44 392.5,-222 392.5,-222 392.5,-222 388.77,-223.44 391.2,-218.64 385.04,-224.89 385.04,-224.89"/>
<ellipse fill="none" stroke="black" cx="382.05" cy="-226.04" rx="3.2" ry="3.2"/>
</g>
<!-- samples -->
<g id="node16" class="node">
<title>samples</title>
<g id="a_node16"><a xlink:href="../../tables/samples.html" xlink:title="samples" target="_top">
<polygon fill="#ffffff" stroke="transparent" points="412.5,-116 412.5,-174 528.5,-174 528.5,-116 412.5,-116"/>
<polygon fill="#f5f5f5" stroke="transparent" points="412.5,-152 412.5,-174 528.5,-174 528.5,-152 412.5,-152"/>
<polygon fill="none" stroke="black" points="412.5,-152 412.5,-174 528.5,-174 528.5,-152 412.5,-152"/>
<text text-anchor="start" x="417.5" y="-161.2" font-family="Helvetica,sans-Serif" font-weight="bold" font-size="11.00">samples</text>
<text text-anchor="start" x="493.5" y="-160.2" font-family="Helvetica,sans-Serif" font-size="11.00">[table]</text>
<polygon fill="none" stroke="black" points="412.5,-134 412.5,-152 528.5,-152 528.5,-134 412.5,-134"/>
<text text-anchor="start" x="415.5" y="-140.2" font-family="Helvetica,sans-Serif" font-size="11.00">...</text>
<polygon fill="#ffffff" stroke="transparent" points="412.5,-116 412.5,-134 434.5,-134 434.5,-116 412.5,-116"/>
<polygon fill="none" stroke="black" points="412.5,-116 412.5,-134 434.5,-134 434.5,-116 412.5,-116"/>
<text text-anchor="start" x="415.5" y="-122.2" font-family="Helvetica,sans-Serif" font-size="11.00">&lt; 3</text>
<polygon fill="#ffffff" stroke="transparent" points="434.5,-116 434.5,-134 506.5,-134 506.5,-116 434.5,-116"/>
<polygon fill="none" stroke="black" points="434.5,-116 434.5,-134 506.5,-134 506.5,-116 434.5,-116"/>
<text text-anchor="start" x="437.5" y="-122.2" font-family="Helvetica,sans-Serif" font-size="11.00">506,105 rows</text>
<polygon fill="#ffffff" stroke="transparent" points="506.5,-116 506.5,-134 528.5,-134 528.5,-116 506.5,-116"/>
<polygon fill="none" stroke="black" points="506.5,-116 506.5,-134 528.5,-134 528.5,-116 506.5,-116"/>
<text text-anchor="start" x="509.5" y="-122.2" font-family="Helvetica,sans-Serif" font-size="11.00">7 &gt;</text>
</a>
</g>
</g>
<!-- samples&#45;&gt;datasets -->
<g id="edge15" class="edge">
<title>samples:w&#45;&gt;datasets:e</title>
<path fill="none" stroke="black" d="M397.45,-147.17C335.26,-189.38 428.62,-538 345,-538"/>
<polygon fill="black" stroke="black" points="403.83,-145.28 412.52,-146.45 407.67,-144.14 411.5,-143 411.5,-143 411.5,-143 407.67,-144.14 410.48,-139.55 403.83,-145.28 403.83,-145.28"/>
<ellipse fill="none" stroke="black" cx="400.76" cy="-146.19" rx="3.2" ry="3.2"/>
</g>
<!-- synonymy -->
<g id="node17" class="node">
<title>synonymy</title>
<g id="a_node17"><a xlink:href="../../tables/synonymy.html" xlink:title="synonymy" target="_top">
<polygon fill="#ffffff" stroke="transparent" points="420,-37 420,-95 521,-95 521,-37 420,-37"/>
<polygon fill="#f5f5f5" stroke="transparent" points="420.5,-73 420.5,-95 521.5,-95 521.5,-73 420.5,-73"/>
<polygon fill="none" stroke="black" points="420.5,-73 420.5,-95 521.5,-95 521.5,-73 420.5,-73"/>
<text text-anchor="start" x="425.5" y="-82.2" font-family="Helvetica,sans-Serif" font-weight="bold" font-size="11.00">synonymy</text>
<text text-anchor="start" x="486.5" y="-81.2" font-family="Helvetica,sans-Serif" font-size="11.00">[table]</text>
<polygon fill="none" stroke="black" points="420.5,-55 420.5,-73 521.5,-73 521.5,-55 420.5,-55"/>
<text text-anchor="start" x="423.5" y="-61.2" font-family="Helvetica,sans-Serif" font-size="11.00">...</text>
<polygon fill="#ffffff" stroke="transparent" points="420.5,-37 420.5,-55 442.5,-55 442.5,-37 420.5,-37"/>
<polygon fill="none" stroke="black" points="420.5,-37 420.5,-55 442.5,-55 442.5,-37 420.5,-37"/>
<text text-anchor="start" x="423.5" y="-43.2" font-family="Helvetica,sans-Serif" font-size="11.00">&lt; 5</text>
<polygon fill="#ffffff" stroke="transparent" points="442.5,-37 442.5,-55 508.5,-55 508.5,-37 442.5,-37"/>
<polygon fill="none" stroke="black" points="442.5,-37 442.5,-55 508.5,-55 508.5,-37 442.5,-37"/>
<text text-anchor="start" x="445.5" y="-43.2" font-family="Helvetica,sans-Serif" font-size="11.00">37,992 rows</text>
<polygon fill="#ffffff" stroke="transparent" points="508.5,-37 508.5,-55 521.5,-55 521.5,-37 508.5,-37"/>
<polygon fill="none" stroke="black" points="508.5,-37 508.5,-55 521.5,-55 521.5,-37 508.5,-37"/>
<text text-anchor="start" x="511.5" y="-43.2" font-family="Helvetica,sans-Serif" font-size="11.00"> &#160;</text>
</a>
</g>
</g>
<!-- synonymy&#45;&gt;datasets -->
<g id="edge16" class="edge">
<title>synonymy:w&#45;&gt;datasets:e</title>
<path fill="none" stroke="black" d="M405.21,-67.42C394.26,-74 391.89,-89.24 385,-106 366.67,-150.59 393.21,-538 345,-538"/>
<polygon fill="black" stroke="black" points="411.72,-65.86 420.34,-67.5 415.61,-64.93 419.5,-64 419.5,-64 419.5,-64 415.61,-64.93 418.66,-60.5 411.72,-65.86 411.72,-65.86"/>
<ellipse fill="none" stroke="black" cx="408.61" cy="-66.61" rx="3.2" ry="3.2"/>
</g>
</g>
</svg>
