<?xml version="1.0" encoding="UTF-8" standalone="no"?>
<!DOCTYPE svg PUBLIC "-//W3C//DTD SVG 1.1//EN"
 "http://www.w3.org/Graphics/SVG/1.1/DTD/svg11.dtd">
<!-- Generated by graphviz version 2.43.0 (0)
 -->
<!-- Title: oneDegreeRelationshipsDiagram Pages: 1 -->
<svg width="360pt" height="223pt"
 viewBox="0.00 0.00 360.00 223.00" xmlns="http://www.w3.org/2000/svg" xmlns:xlink="http://www.w3.org/1999/xlink">
<g id="graph0" class="graph" transform="scale(1 1) rotate(0) translate(4 219)">
<title>oneDegreeRelationshipsDiagram</title>
<polygon fill="#ffffff" stroke="transparent" points="-4,4 -4,-219 356,-219 356,4 -4,4"/>
<text text-anchor="middle" x="71.5" y="-7.2" font-family="Helvetica,sans-Serif" font-size="11.00">Generated by SchemaSpy</text>
<!-- datasets -->
<g id="node1" class="node">
<title>datasets</title>
<g id="a_node1"><a xlink:href="../../tables/datasets.html" xlink:title="datasets" target="_top">
<polygon fill="#ffffff" stroke="transparent" points="224,-65 224,-211 344,-211 344,-65 224,-65"/>
<polygon fill="#f5f5f5" stroke="transparent" points="224,-189 224,-211 344,-211 344,-189 224,-189"/>
<polygon fill="none" stroke="black" points="224,-189 224,-211 344,-211 344,-189 224,-189"/>
<text text-anchor="start" x="229" y="-198.2" font-family="Helvetica,sans-Serif" font-weight="bold" font-size="11.00">datasets</text>
<text text-anchor="start" x="309" y="-197.2" font-family="Helvetica,sans-Serif" font-size="11.00">[table]</text>
<polygon fill="none" stroke="black" points="224,-167 224,-189 344,-189 344,-167 224,-167"/>
<image xlink:href="../../images/primaryKeys.png" width="11px" height="12px" preserveAspectRatio="xMinYMin meet" x="229" y="-184"/>
<text text-anchor="start" x="244" y="-175.2" font-family="Helvetica,sans-Serif" font-size="11.00">datasetid</text>
<polygon fill="#ffffff" stroke="transparent" points="224,-145 224,-167 344,-167 344,-145 224,-145"/>
<polygon fill="none" stroke="black" points="224,-145 224,-167 344,-167 344,-145 224,-145"/>
<image xlink:href="../../images/foreignKeys.png" width="11px" height="12px" preserveAspectRatio="xMinYMin meet" x="229" y="-162"/>
<text text-anchor="start" x="244" y="-153.2" font-family="Helvetica,sans-Serif" font-size="11.00">collectionunitid</text>
<polygon fill="#ffffff" stroke="transparent" points="224,-123 224,-145 344,-145 344,-123 224,-123"/>
<polygon fill="none" stroke="black" points="224,-123 224,-145 344,-145 344,-123 224,-123"/>
<image xlink:href="../../images/foreignKeys.png" width="11px" height="12px" preserveAspectRatio="xMinYMin meet" x="229" y="-140"/>
<text text-anchor="start" x="244" y="-131.2" font-family="Helvetica,sans-Serif" font-size="11.00">datasettypeid</text>
<polygon fill="none" stroke="black" points="224,-101 224,-123 344,-123 344,-101 224,-101"/>
<image xlink:href="../../images/foreignKeys.png" width="11px" height="12px" preserveAspectRatio="xMinYMin meet" x="229" y="-118"/>
<text text-anchor="start" x="244" y="-109.2" font-family="Helvetica,sans-Serif" font-size="11.00">embargoid</text>
<polygon fill="none" stroke="black" points="224,-83 224,-101 344,-101 344,-83 224,-83"/>
<text text-anchor="start" x="227" y="-89.2" font-family="Helvetica,sans-Serif" font-size="11.00">...</text>
<polygon fill="#ffffff" stroke="transparent" points="224,-65 224,-83 248,-83 248,-65 224,-65"/>
<polygon fill="none" stroke="black" points="224,-65 224,-83 248,-83 248,-65 224,-65"/>
<text text-anchor="start" x="227" y="-71.2" font-family="Helvetica,sans-Serif" font-size="11.00">&lt; 3</text>
<polygon fill="#ffffff" stroke="transparent" points="248,-65 248,-83 315,-83 315,-65 248,-65"/>
<polygon fill="none" stroke="black" points="248,-65 248,-83 315,-83 315,-65 248,-65"/>
<text text-anchor="start" x="252" y="-71.2" font-family="Helvetica,sans-Serif" font-size="11.00">48,328 rows</text>
<polygon fill="#ffffff" stroke="transparent" points="315,-65 315,-83 344,-83 344,-65 315,-65"/>
<polygon fill="none" stroke="black" points="315,-65 315,-83 344,-83 344,-65 315,-65"/>
<text text-anchor="start" x="319" y="-71.2" font-family="Helvetica,sans-Serif" font-size="11.00">13 &gt;</text>
</a>
</g>
</g>
<!-- embargo -->
<g id="node2" class="node">
<title>embargo</title>
<g id="a_node2"><a xlink:href="../../tables/embargo.html" xlink:title="embargo" target="_top">
<polygon fill="#ffffff" stroke="transparent" points="8,-37 8,-147 175,-147 175,-37 8,-37"/>
<polygon fill="#f5f5f5" stroke="transparent" points="10.5,-123 10.5,-145 173.5,-145 173.5,-123 10.5,-123"/>
<polygon fill="none" stroke="black" points="10.5,-123 10.5,-145 173.5,-145 173.5,-123 10.5,-123"/>
<text text-anchor="start" x="15.5" y="-132.2" font-family="Helvetica,sans-Serif" font-weight="bold" font-size="11.00">embargo</text>
<text text-anchor="start" x="138.5" y="-131.2" font-family="Helvetica,sans-Serif" font-size="11.00">[table]</text>
<polygon fill="none" stroke="black" points="10.5,-101 10.5,-123 112.5,-123 112.5,-101 10.5,-101"/>
<image xlink:href="../../images/primaryKeys.png" width="11px" height="12px" preserveAspectRatio="xMinYMin meet" x="15.5" y="-118"/>
<text text-anchor="start" x="30.5" y="-109.2" font-family="Helvetica,sans-Serif" font-size="11.00">embargoid</text>
<polygon fill="none" stroke="black" points="112.5,-101 112.5,-123 173.5,-123 173.5,-101 112.5,-101"/>
<text text-anchor="start" x="115.5" y="-109.2" font-family="Helvetica,sans-Serif" font-size="11.00">serial[10]</text>
<polygon fill="none" stroke="black" points="10.5,-79 10.5,-101 112.5,-101 112.5,-79 10.5,-79"/>
<text text-anchor="start" x="30.5" y="-87.2" font-family="Helvetica,sans-Serif" font-size="11.00">embargodate</text>
<polygon fill="none" stroke="black" points="112.5,-79 112.5,-101 173.5,-101 173.5,-79 112.5,-79"/>
<text text-anchor="start" x="115.5" y="-87.2" font-family="Helvetica,sans-Serif" font-size="11.00">date[13]</text>
<polygon fill="none" stroke="black" points="10.5,-57 10.5,-79 112.5,-79 112.5,-57 10.5,-57"/>
<text text-anchor="start" x="30.5" y="-65.2" font-family="Helvetica,sans-Serif" font-size="11.00">embargopw</text>
<polygon fill="none" stroke="black" points="112.5,-57 112.5,-79 173.5,-79 173.5,-57 112.5,-57"/>
<text text-anchor="start" x="115.5" y="-65.2" font-family="Helvetica,sans-Serif" font-size="11.00">varchar[20]</text>
<polygon fill="#ffffff" stroke="transparent" points="10.5,-39 10.5,-57 52.5,-57 52.5,-39 10.5,-39"/>
<polygon fill="none" stroke="black" points="10.5,-39 10.5,-57 52.5,-57 52.5,-39 10.5,-39"/>
<text text-anchor="start" x="13.5" y="-45.2" font-family="Helvetica,sans-Serif" font-size="11.00">&lt; 0</text>
<polygon fill="#ffffff" stroke="transparent" points="52.5,-39 52.5,-57 112.5,-57 112.5,-39 52.5,-39"/>
<polygon fill="none" stroke="black" points="52.5,-39 52.5,-57 112.5,-57 112.5,-39 52.5,-39"/>
<text text-anchor="start" x="76.5" y="-45.2" font-family="Helvetica,sans-Serif" font-size="11.00">0 rows</text>
<polygon fill="#ffffff" stroke="transparent" points="112.5,-39 112.5,-57 173.5,-57 173.5,-39 112.5,-39"/>
<polygon fill="none" stroke="black" points="112.5,-39 112.5,-57 173.5,-57 173.5,-39 112.5,-39"/>
<text text-anchor="start" x="154.5" y="-45.2" font-family="Helvetica,sans-Serif" font-size="11.00">1 &gt;</text>
<polygon fill="none" stroke="black" stroke-width="2" points="9,-38 9,-146 174,-146 174,-38 9,-38"/>
</a>
</g>
</g>
<!-- datasets&#45;&gt;embargo -->
<g id="edge1" class="edge">
<title>datasets:w&#45;&gt;embargo:e</title>
<path fill="none" stroke="black" d="M208.28,-112C197.29,-112 190.16,-112 174.5,-112"/>
<polygon fill="black" stroke="black" points="215,-112 223,-115.6 219,-112 223,-112 223,-112 223,-112 219,-112 223,-108.4 215,-112 215,-112"/>
<ellipse fill="none" stroke="black" cx="211.8" cy="-112" rx="3.2" ry="3.2"/>
</g>
</g>
</svg>
