<?xml version="1.0" encoding="UTF-8" standalone="no"?>
<!DOCTYPE svg PUBLIC "-//W3C//DTD SVG 1.1//EN"
 "http://www.w3.org/Graphics/SVG/1.1/DTD/svg11.dtd">
<!-- Generated by graphviz version 2.43.0 (0)
 -->
<!-- Title: oneDegreeRelationshipsDiagram Pages: 1 -->
<svg width="633pt" height="261pt"
 viewBox="0.00 0.00 633.00 261.00" xmlns="http://www.w3.org/2000/svg" xmlns:xlink="http://www.w3.org/1999/xlink">
<g id="graph0" class="graph" transform="scale(1 1) rotate(0) translate(4 257)">
<title>oneDegreeRelationshipsDiagram</title>
<polygon fill="#ffffff" stroke="transparent" points="-4,4 -4,-257 629,-257 629,4 -4,4"/>
<text text-anchor="middle" x="71.5" y="-7.2" font-family="Helvetica,sans-Serif" font-size="11.00">Generated by SchemaSpy</text>
<!-- events -->
<g id="node1" class="node">
<title>events</title>
<g id="a_node1"><a xlink:href="../../tables/events.html" xlink:title="events" target="_top">
<polygon fill="#ffffff" stroke="transparent" points="497,-147 497,-249 617,-249 617,-147 497,-147"/>
<polygon fill="#f5f5f5" stroke="transparent" points="497,-227 497,-249 617,-249 617,-227 497,-227"/>
<polygon fill="none" stroke="black" points="497,-227 497,-249 617,-249 617,-227 497,-227"/>
<text text-anchor="start" x="502" y="-236.2" font-family="Helvetica,sans-Serif" font-weight="bold" font-size="11.00">events</text>
<text text-anchor="start" x="582" y="-235.2" font-family="Helvetica,sans-Serif" font-size="11.00">[table]</text>
<polygon fill="none" stroke="black" points="497,-205 497,-227 617,-227 617,-205 497,-205"/>
<image xlink:href="../../images/primaryKeys.png" width="11px" height="12px" preserveAspectRatio="xMinYMin meet" x="502" y="-222"/>
<text text-anchor="start" x="517" y="-213.2" font-family="Helvetica,sans-Serif" font-size="11.00">eventid</text>
<polygon fill="none" stroke="black" points="497,-183 497,-205 617,-205 617,-183 497,-183"/>
<image xlink:href="../../images/foreignKeys.png" width="11px" height="12px" preserveAspectRatio="xMinYMin meet" x="502" y="-200"/>
<text text-anchor="start" x="517" y="-191.2" font-family="Helvetica,sans-Serif" font-size="11.00">eventtypeid</text>
<polygon fill="none" stroke="black" points="497,-165 497,-183 617,-183 617,-165 497,-165"/>
<text text-anchor="start" x="500" y="-171.2" font-family="Helvetica,sans-Serif" font-size="11.00">...</text>
<polygon fill="#ffffff" stroke="transparent" points="497,-147 497,-165 531,-165 531,-147 497,-147"/>
<polygon fill="none" stroke="black" points="497,-147 497,-165 531,-165 531,-147 497,-147"/>
<text text-anchor="start" x="500" y="-153.2" font-family="Helvetica,sans-Serif" font-size="11.00">&lt; 1</text>
<polygon fill="#ffffff" stroke="transparent" points="531,-147 531,-165 588,-165 588,-147 531,-147"/>
<polygon fill="none" stroke="black" points="531,-147 531,-165 588,-165 588,-147 531,-147"/>
<text text-anchor="start" x="540" y="-153.2" font-family="Helvetica,sans-Serif" font-size="11.00">371 rows</text>
<polygon fill="#ffffff" stroke="transparent" points="588,-147 588,-165 617,-165 617,-147 588,-147"/>
<polygon fill="none" stroke="black" points="588,-147 588,-165 617,-165 617,-147 588,-147"/>
<text text-anchor="start" x="598" y="-153.2" font-family="Helvetica,sans-Serif" font-size="11.00">3 &gt;</text>
</a>
</g>
</g>
<!-- eventtypes -->
<g id="node2" class="node">
<title>eventtypes</title>
<g id="a_node2"><a xlink:href="../../tables/eventtypes.html" xlink:title="eventtypes" target="_top">
<polygon fill="#ffffff" stroke="transparent" points="233,-75 233,-229 448,-229 448,-75 233,-75"/>
<polygon fill="#f5f5f5" stroke="transparent" points="235.5,-205 235.5,-227 446.5,-227 446.5,-205 235.5,-205"/>
<polygon fill="none" stroke="black" points="235.5,-205 235.5,-227 446.5,-227 446.5,-205 235.5,-205"/>
<text text-anchor="start" x="240.5" y="-214.2" font-family="Helvetica,sans-Serif" font-weight="bold" font-size="11.00">eventtypes</text>
<text text-anchor="start" x="411.5" y="-213.2" font-family="Helvetica,sans-Serif" font-size="11.00">[table]</text>
<polygon fill="none" stroke="black" points="235.5,-183 235.5,-205 372.5,-205 372.5,-183 235.5,-183"/>
<image xlink:href="../../images/primaryKeys.png" width="11px" height="12px" preserveAspectRatio="xMinYMin meet" x="240.5" y="-200"/>
<text text-anchor="start" x="255.5" y="-191.2" font-family="Helvetica,sans-Serif" font-size="11.00">eventtypeid</text>
<polygon fill="none" stroke="black" points="372.5,-183 372.5,-205 446.5,-205 446.5,-183 372.5,-183"/>
<text text-anchor="start" x="375.5" y="-191.2" font-family="Helvetica,sans-Serif" font-size="11.00">serial[10]</text>
<polygon fill="none" stroke="black" points="235.5,-161 235.5,-183 372.5,-183 372.5,-161 235.5,-161"/>
<text text-anchor="start" x="255.5" y="-169.2" font-family="Helvetica,sans-Serif" font-size="11.00">eventtype</text>
<polygon fill="none" stroke="black" points="372.5,-161 372.5,-183 446.5,-183 446.5,-161 372.5,-161"/>
<text text-anchor="start" x="375.5" y="-169.2" font-family="Helvetica,sans-Serif" font-size="11.00">varchar[40]</text>
<polygon fill="none" stroke="black" points="235.5,-139 235.5,-161 372.5,-161 372.5,-139 235.5,-139"/>
<text text-anchor="start" x="255.5" y="-147.2" font-family="Helvetica,sans-Serif" font-size="11.00">recdatecreated</text>
<polygon fill="none" stroke="black" points="372.5,-139 372.5,-161 446.5,-161 446.5,-139 372.5,-139"/>
<text text-anchor="start" x="375.5" y="-147.2" font-family="Helvetica,sans-Serif" font-size="11.00">timestamp[22]</text>
<polygon fill="none" stroke="black" points="235.5,-117 235.5,-139 372.5,-139 372.5,-117 235.5,-117"/>
<text text-anchor="start" x="255.5" y="-125.2" font-family="Helvetica,sans-Serif" font-size="11.00">recdatemodified</text>
<polygon fill="none" stroke="black" points="372.5,-117 372.5,-139 446.5,-139 446.5,-117 372.5,-117"/>
<text text-anchor="start" x="375.5" y="-125.2" font-family="Helvetica,sans-Serif" font-size="11.00">timestamp[22]</text>
<polygon fill="none" stroke="black" points="235.5,-95 235.5,-117 372.5,-117 372.5,-95 235.5,-95"/>
<image xlink:href="../../images/foreignKeys.png" width="11px" height="12px" preserveAspectRatio="xMinYMin meet" x="240.5" y="-112"/>
<text text-anchor="start" x="255.5" y="-103.2" font-family="Helvetica,sans-Serif" font-size="11.00">chroncontroltypeid</text>
<polygon fill="none" stroke="black" points="372.5,-95 372.5,-117 446.5,-117 446.5,-95 372.5,-95"/>
<text text-anchor="start" x="375.5" y="-103.2" font-family="Helvetica,sans-Serif" font-size="11.00">int4[10]</text>
<polygon fill="#ffffff" stroke="transparent" points="235.5,-77 235.5,-95 295.5,-95 295.5,-77 235.5,-77"/>
<polygon fill="none" stroke="black" points="235.5,-77 235.5,-95 295.5,-95 295.5,-77 235.5,-77"/>
<text text-anchor="start" x="238.5" y="-83.2" font-family="Helvetica,sans-Serif" font-size="11.00">&lt; 1</text>
<polygon fill="#ffffff" stroke="transparent" points="295.5,-77 295.5,-95 372.5,-95 372.5,-77 295.5,-77"/>
<polygon fill="none" stroke="black" points="295.5,-77 295.5,-95 372.5,-95 372.5,-77 295.5,-77"/>
<text text-anchor="start" x="336.5" y="-83.2" font-family="Helvetica,sans-Serif" font-size="11.00">9 rows</text>
<polygon fill="#ffffff" stroke="transparent" points="372.5,-77 372.5,-95 446.5,-95 446.5,-77 372.5,-77"/>
<polygon fill="none" stroke="black" points="372.5,-77 372.5,-95 446.5,-95 446.5,-77 372.5,-77"/>
<text text-anchor="start" x="427.5" y="-83.2" font-family="Helvetica,sans-Serif" font-size="11.00">1 &gt;</text>
<polygon fill="none" stroke="black" stroke-width="2" points="234,-76 234,-228 447,-228 447,-76 234,-76"/>
</a>
</g>
</g>
<!-- events&#45;&gt;eventtypes -->
<g id="edge1" class="edge">
<title>events:w&#45;&gt;eventtypes:e</title>
<path fill="none" stroke="black" d="M481.28,-194C470.29,-194 463.16,-194 447.5,-194"/>
<polygon fill="black" stroke="black" points="488,-194 496,-197.6 492,-194 496,-194 496,-194 496,-194 492,-194 496,-190.4 488,-194 488,-194"/>
<ellipse fill="none" stroke="black" cx="484.8" cy="-194" rx="3.2" ry="3.2"/>
</g>
<!-- chroncontroltypes -->
<g id="node3" class="node">
<title>chroncontroltypes</title>
<g id="a_node3"><a xlink:href="../../tables/chroncontroltypes.html" xlink:title="chroncontroltypes" target="_top">
<polygon fill="#ffffff" stroke="transparent" points="8,-37 8,-139 184,-139 184,-37 8,-37"/>
<polygon fill="#f5f5f5" stroke="transparent" points="8,-117 8,-139 184,-139 184,-117 8,-117"/>
<polygon fill="none" stroke="black" points="8,-117 8,-139 184,-139 184,-117 8,-117"/>
<text text-anchor="start" x="13" y="-126.2" font-family="Helvetica,sans-Serif" font-weight="bold" font-size="11.00">chroncontroltypes</text>
<text text-anchor="start" x="149" y="-125.2" font-family="Helvetica,sans-Serif" font-size="11.00">[table]</text>
<polygon fill="none" stroke="black" points="8,-95 8,-117 184,-117 184,-95 8,-95"/>
<image xlink:href="../../images/primaryKeys.png" width="11px" height="12px" preserveAspectRatio="xMinYMin meet" x="13" y="-112"/>
<text text-anchor="start" x="28" y="-103.2" font-family="Helvetica,sans-Serif" font-size="11.00">chroncontroltypeid</text>
<polygon fill="none" stroke="black" points="8,-73 8,-95 184,-95 184,-73 8,-73"/>
<image xlink:href="../../images/foreignKeys.png" width="11px" height="12px" preserveAspectRatio="xMinYMin meet" x="13" y="-90"/>
<text text-anchor="start" x="28" y="-81.2" font-family="Helvetica,sans-Serif" font-size="11.00">higherchroncontroltypeid</text>
<polygon fill="none" stroke="black" points="8,-55 8,-73 184,-73 184,-55 8,-55"/>
<text text-anchor="start" x="11" y="-61.2" font-family="Helvetica,sans-Serif" font-size="11.00">...</text>
<polygon fill="#ffffff" stroke="transparent" points="8,-37 8,-55 73,-55 73,-37 8,-37"/>
<polygon fill="none" stroke="black" points="8,-37 8,-55 73,-55 73,-37 8,-37"/>
<text text-anchor="start" x="11" y="-43.2" font-family="Helvetica,sans-Serif" font-size="11.00">&lt; 1</text>
<polygon fill="#ffffff" stroke="transparent" points="73,-37 73,-55 140,-55 140,-37 73,-37"/>
<polygon fill="none" stroke="black" points="73,-37 73,-55 140,-55 140,-37 73,-37"/>
<text text-anchor="start" x="98" y="-43.2" font-family="Helvetica,sans-Serif" font-size="11.00">99 rows</text>
<polygon fill="#ffffff" stroke="transparent" points="140,-37 140,-55 184,-55 184,-37 140,-37"/>
<polygon fill="none" stroke="black" points="140,-37 140,-55 184,-55 184,-37 140,-37"/>
<text text-anchor="start" x="165" y="-43.2" font-family="Helvetica,sans-Serif" font-size="11.00">3 &gt;</text>
</a>
</g>
</g>
<!-- eventtypes&#45;&gt;chroncontroltypes -->
<g id="edge2" class="edge">
<title>eventtypes:w&#45;&gt;chroncontroltypes:e</title>
<path fill="none" stroke="black" d="M219.84,-106C208.41,-106 201.16,-106 185,-106"/>
<polygon fill="black" stroke="black" points="226.5,-106 234.5,-109.6 230.5,-106 234.5,-106 234.5,-106 234.5,-106 230.5,-106 234.5,-102.4 226.5,-106 226.5,-106"/>
<ellipse fill="none" stroke="black" cx="223.3" cy="-106" rx="3.2" ry="3.2"/>
</g>
</g>
</svg>
