<?xml version="1.0" encoding="UTF-8" standalone="no"?>
<!DOCTYPE svg PUBLIC "-//W3C//DTD SVG 1.1//EN"
 "http://www.w3.org/Graphics/SVG/1.1/DTD/svg11.dtd">
<!-- Generated by graphviz version 2.43.0 (0)
 -->
<!-- Title: twoDegreesRelationshipsDiagram Pages: 1 -->
<svg width="734pt" height="1104pt"
 viewBox="0.00 0.00 734.00 1104.00" xmlns="http://www.w3.org/2000/svg" xmlns:xlink="http://www.w3.org/1999/xlink">
<g id="graph0" class="graph" transform="scale(1 1) rotate(0) translate(4 1100)">
<title>twoDegreesRelationshipsDiagram</title>
<polygon fill="#ffffff" stroke="transparent" points="-4,4 -4,-1100 730,-1100 730,4 -4,4"/>
<text text-anchor="middle" x="71.5" y="-7.2" font-family="Helvetica,sans-Serif" font-size="11.00">Generated by SchemaSpy</text>
<!-- calibrationcurves -->
<g id="node1" class="node">
<title>calibrationcurves</title>
<g id="a_node1"><a xlink:href="../../tables/calibrationcurves.html" xlink:title="calibrationcurves" target="_top">
<polygon fill="#ffffff" stroke="transparent" points="397,-723 397,-781 532,-781 532,-723 397,-723"/>
<polygon fill="#f5f5f5" stroke="transparent" points="397.5,-759 397.5,-781 532.5,-781 532.5,-759 397.5,-759"/>
<polygon fill="none" stroke="black" points="397.5,-759 397.5,-781 532.5,-781 532.5,-759 397.5,-759"/>
<text text-anchor="start" x="402.5" y="-768.2" font-family="Helvetica,sans-Serif" font-weight="bold" font-size="11.00">calibrationcurves</text>
<text text-anchor="start" x="497.5" y="-767.2" font-family="Helvetica,sans-Serif" font-size="11.00">[table]</text>
<polygon fill="none" stroke="black" points="397.5,-741 397.5,-759 532.5,-759 532.5,-741 397.5,-741"/>
<text text-anchor="start" x="400.5" y="-747.2" font-family="Helvetica,sans-Serif" font-size="11.00">...</text>
<polygon fill="#ffffff" stroke="transparent" points="397.5,-723 397.5,-741 442.5,-741 442.5,-723 397.5,-723"/>
<polygon fill="none" stroke="black" points="397.5,-723 397.5,-741 442.5,-741 442.5,-723 397.5,-723"/>
<text text-anchor="start" x="400.5" y="-729.2" font-family="Helvetica,sans-Serif" font-size="11.00">&lt; 1</text>
<polygon fill="#ffffff" stroke="transparent" points="442.5,-723 442.5,-741 498.5,-741 498.5,-723 442.5,-723"/>
<polygon fill="none" stroke="black" points="442.5,-723 442.5,-741 498.5,-741 498.5,-723 442.5,-723"/>
<text text-anchor="start" x="456.5" y="-729.2" font-family="Helvetica,sans-Serif" font-size="11.00">15 rows</text>
<polygon fill="#ffffff" stroke="transparent" points="498.5,-723 498.5,-741 532.5,-741 532.5,-723 498.5,-723"/>
<polygon fill="none" stroke="black" points="498.5,-723 498.5,-741 532.5,-741 532.5,-723 498.5,-723"/>
<text text-anchor="start" x="513.5" y="-729.2" font-family="Helvetica,sans-Serif" font-size="11.00">2 &gt;</text>
</a>
</g>
</g>
<!-- publications -->
<g id="node2" class="node">
<title>publications</title>
<g id="a_node2"><a xlink:href="../../tables/publications.html" xlink:title="publications" target="_top">
<polygon fill="#ffffff" stroke="transparent" points="189,-392 189,-494 312,-494 312,-392 189,-392"/>
<polygon fill="#f5f5f5" stroke="transparent" points="189.5,-472 189.5,-494 312.5,-494 312.5,-472 189.5,-472"/>
<polygon fill="none" stroke="black" points="189.5,-472 189.5,-494 312.5,-494 312.5,-472 189.5,-472"/>
<text text-anchor="start" x="194.5" y="-481.2" font-family="Helvetica,sans-Serif" font-weight="bold" font-size="11.00">publications</text>
<text text-anchor="start" x="277.5" y="-480.2" font-family="Helvetica,sans-Serif" font-size="11.00">[table]</text>
<polygon fill="none" stroke="black" points="189.5,-450 189.5,-472 312.5,-472 312.5,-450 189.5,-450"/>
<image xlink:href="../../images/primaryKeys.png" width="11px" height="12px" preserveAspectRatio="xMinYMin meet" x="194.5" y="-467"/>
<text text-anchor="start" x="209.5" y="-458.2" font-family="Helvetica,sans-Serif" font-size="11.00">publicationid</text>
<polygon fill="none" stroke="black" points="189.5,-428 189.5,-450 312.5,-450 312.5,-428 189.5,-428"/>
<image xlink:href="../../images/foreignKeys.png" width="11px" height="12px" preserveAspectRatio="xMinYMin meet" x="194.5" y="-445"/>
<text text-anchor="start" x="209.5" y="-436.2" font-family="Helvetica,sans-Serif" font-size="11.00">pubtypeid</text>
<polygon fill="none" stroke="black" points="189.5,-410 189.5,-428 312.5,-428 312.5,-410 189.5,-410"/>
<text text-anchor="start" x="192.5" y="-416.2" font-family="Helvetica,sans-Serif" font-size="11.00">...</text>
<polygon fill="#ffffff" stroke="transparent" points="189.5,-392 189.5,-410 214.5,-410 214.5,-392 189.5,-392"/>
<polygon fill="none" stroke="black" points="189.5,-392 189.5,-410 214.5,-410 214.5,-392 189.5,-392"/>
<text text-anchor="start" x="192.5" y="-398.2" font-family="Helvetica,sans-Serif" font-size="11.00">&lt; 1</text>
<polygon fill="#ffffff" stroke="transparent" points="214.5,-392 214.5,-410 282.5,-410 282.5,-392 214.5,-392"/>
<polygon fill="none" stroke="black" points="214.5,-392 214.5,-410 282.5,-410 282.5,-392 214.5,-392"/>
<text text-anchor="start" x="219.5" y="-398.2" font-family="Helvetica,sans-Serif" font-size="11.00">13,725 rows</text>
<polygon fill="#ffffff" stroke="transparent" points="282.5,-392 282.5,-410 312.5,-410 312.5,-392 282.5,-392"/>
<polygon fill="none" stroke="black" points="282.5,-392 282.5,-410 312.5,-410 312.5,-392 282.5,-392"/>
<text text-anchor="start" x="287.5" y="-398.2" font-family="Helvetica,sans-Serif" font-size="11.00">12 &gt;</text>
</a>
</g>
</g>
<!-- calibrationcurves&#45;&gt;publications -->
<g id="edge1" class="edge">
<title>calibrationcurves:w&#45;&gt;publications:e</title>
<path fill="none" stroke="black" d="M381.97,-747.8C368.19,-742.89 362.6,-730.13 353,-713 325.29,-663.55 370.18,-461 313.5,-461"/>
<polygon fill="black" stroke="black" points="388.59,-748.8 395.96,-753.56 392.55,-749.4 396.5,-750 396.5,-750 396.5,-750 392.55,-749.4 397.04,-746.44 388.59,-748.8 388.59,-748.8"/>
<ellipse fill="none" stroke="black" cx="385.43" cy="-748.32" rx="3.2" ry="3.2"/>
</g>
<!-- publicationtypes -->
<g id="node14" class="node">
<title>publicationtypes</title>
<g id="a_node14"><a xlink:href="../../tables/publicationtypes.html" xlink:title="publicationtypes" target="_top">
<polygon fill="#ffffff" stroke="transparent" points="8,-412 8,-470 140,-470 140,-412 8,-412"/>
<polygon fill="#f5f5f5" stroke="transparent" points="8,-448 8,-470 140,-470 140,-448 8,-448"/>
<polygon fill="none" stroke="black" points="8,-448 8,-470 140,-470 140,-448 8,-448"/>
<text text-anchor="start" x="13" y="-457.2" font-family="Helvetica,sans-Serif" font-weight="bold" font-size="11.00">publicationtypes</text>
<text text-anchor="start" x="105" y="-456.2" font-family="Helvetica,sans-Serif" font-size="11.00">[table]</text>
<polygon fill="none" stroke="black" points="8,-430 8,-448 140,-448 140,-430 8,-430"/>
<text text-anchor="start" x="11" y="-436.2" font-family="Helvetica,sans-Serif" font-size="11.00">...</text>
<polygon fill="#ffffff" stroke="transparent" points="8,-412 8,-430 47,-430 47,-412 8,-412"/>
<polygon fill="none" stroke="black" points="8,-412 8,-430 47,-430 47,-412 8,-412"/>
<text text-anchor="start" x="11" y="-418.2" font-family="Helvetica,sans-Serif" font-size="11.00"> &#160;</text>
<polygon fill="#ffffff" stroke="transparent" points="47,-412 47,-430 105,-430 105,-412 47,-412"/>
<polygon fill="none" stroke="black" points="47,-412 47,-430 105,-430 105,-412 47,-412"/>
<text text-anchor="start" x="63" y="-418.2" font-family="Helvetica,sans-Serif" font-size="11.00">13 rows</text>
<polygon fill="#ffffff" stroke="transparent" points="105,-412 105,-430 140,-430 140,-412 105,-412"/>
<polygon fill="none" stroke="black" points="105,-412 105,-430 140,-430 140,-412 105,-412"/>
<text text-anchor="start" x="121" y="-418.2" font-family="Helvetica,sans-Serif" font-size="11.00">1 &gt;</text>
</a>
</g>
</g>
<!-- publications&#45;&gt;publicationtypes -->
<g id="edge14" class="edge">
<title>publications:w&#45;&gt;publicationtypes:e</title>
<path fill="none" stroke="black" d="M174.09,-439C163.32,-439 156.34,-439 141,-439"/>
<polygon fill="black" stroke="black" points="180.5,-439 188.5,-442.6 184.5,-439 188.5,-439 188.5,-439 188.5,-439 184.5,-439 188.5,-435.4 180.5,-439 180.5,-439"/>
<ellipse fill="none" stroke="black" cx="177.3" cy="-439" rx="3.2" ry="3.2"/>
</g>
<!-- datasetpublications -->
<g id="node3" class="node">
<title>datasetpublications</title>
<g id="a_node3"><a xlink:href="../../tables/datasetpublications.html" xlink:title="datasetpublications" target="_top">
<polygon fill="#ffffff" stroke="transparent" points="391,-644 391,-702 538,-702 538,-644 391,-644"/>
<polygon fill="#f5f5f5" stroke="transparent" points="391.5,-680 391.5,-702 538.5,-702 538.5,-680 391.5,-680"/>
<polygon fill="none" stroke="black" points="391.5,-680 391.5,-702 538.5,-702 538.5,-680 391.5,-680"/>
<text text-anchor="start" x="396.5" y="-689.2" font-family="Helvetica,sans-Serif" font-weight="bold" font-size="11.00">datasetpublications</text>
<text text-anchor="start" x="503.5" y="-688.2" font-family="Helvetica,sans-Serif" font-size="11.00">[table]</text>
<polygon fill="none" stroke="black" points="391.5,-662 391.5,-680 538.5,-680 538.5,-662 391.5,-662"/>
<text text-anchor="start" x="394.5" y="-668.2" font-family="Helvetica,sans-Serif" font-size="11.00">...</text>
<polygon fill="#ffffff" stroke="transparent" points="391.5,-644 391.5,-662 436.5,-662 436.5,-644 391.5,-644"/>
<polygon fill="none" stroke="black" points="391.5,-644 391.5,-662 436.5,-662 436.5,-644 391.5,-644"/>
<text text-anchor="start" x="394.5" y="-650.2" font-family="Helvetica,sans-Serif" font-size="11.00">&lt; 2</text>
<polygon fill="#ffffff" stroke="transparent" points="436.5,-644 436.5,-662 513.5,-662 513.5,-644 436.5,-644"/>
<polygon fill="none" stroke="black" points="436.5,-644 436.5,-662 513.5,-662 513.5,-644 436.5,-644"/>
<text text-anchor="start" x="450.5" y="-650.2" font-family="Helvetica,sans-Serif" font-size="11.00">61,382 rows</text>
<polygon fill="#ffffff" stroke="transparent" points="513.5,-644 513.5,-662 538.5,-662 538.5,-644 513.5,-644"/>
<polygon fill="none" stroke="black" points="513.5,-644 513.5,-662 538.5,-662 538.5,-644 513.5,-644"/>
<text text-anchor="start" x="528.5" y="-650.2" font-family="Helvetica,sans-Serif" font-size="11.00"> &#160;</text>
</a>
</g>
</g>
<!-- datasetpublications&#45;&gt;publications -->
<g id="edge2" class="edge">
<title>datasetpublications:w&#45;&gt;publications:e</title>
<path fill="none" stroke="black" d="M376.37,-668.1C365.2,-662.48 361.55,-649.34 353,-634 314.62,-565.1 392.37,-461 313.5,-461"/>
<polygon fill="black" stroke="black" points="382.66,-669.39 389.78,-674.53 386.58,-670.19 390.5,-671 390.5,-671 390.5,-671 386.58,-670.19 391.22,-667.47 382.66,-669.39 382.66,-669.39"/>
<ellipse fill="none" stroke="black" cx="379.53" cy="-668.75" rx="3.2" ry="3.2"/>
</g>
<!-- eventchronology -->
<g id="node4" class="node">
<title>eventchronology</title>
<g id="a_node4"><a xlink:href="../../tables/eventchronology.html" xlink:title="eventchronology" target="_top">
<polygon fill="#ffffff" stroke="transparent" points="398,-1034 398,-1092 531,-1092 531,-1034 398,-1034"/>
<polygon fill="#f5f5f5" stroke="transparent" points="398.5,-1070 398.5,-1092 531.5,-1092 531.5,-1070 398.5,-1070"/>
<polygon fill="none" stroke="black" points="398.5,-1070 398.5,-1092 531.5,-1092 531.5,-1070 398.5,-1070"/>
<text text-anchor="start" x="403.5" y="-1079.2" font-family="Helvetica,sans-Serif" font-weight="bold" font-size="11.00">eventchronology</text>
<text text-anchor="start" x="496.5" y="-1078.2" font-family="Helvetica,sans-Serif" font-size="11.00">[table]</text>
<polygon fill="none" stroke="black" points="398.5,-1052 398.5,-1070 531.5,-1070 531.5,-1052 398.5,-1052"/>
<text text-anchor="start" x="401.5" y="-1058.2" font-family="Helvetica,sans-Serif" font-size="11.00">...</text>
<polygon fill="#ffffff" stroke="transparent" points="398.5,-1034 398.5,-1052 443.5,-1052 443.5,-1034 398.5,-1034"/>
<polygon fill="none" stroke="black" points="398.5,-1034 398.5,-1052 443.5,-1052 443.5,-1034 398.5,-1034"/>
<text text-anchor="start" x="401.5" y="-1040.2" font-family="Helvetica,sans-Serif" font-size="11.00">&lt; 3</text>
<polygon fill="#ffffff" stroke="transparent" points="443.5,-1034 443.5,-1052 506.5,-1052 506.5,-1034 443.5,-1034"/>
<polygon fill="none" stroke="black" points="443.5,-1034 443.5,-1052 506.5,-1052 506.5,-1034 443.5,-1034"/>
<text text-anchor="start" x="458.5" y="-1040.2" font-family="Helvetica,sans-Serif" font-size="11.00">276 rows</text>
<polygon fill="#ffffff" stroke="transparent" points="506.5,-1034 506.5,-1052 531.5,-1052 531.5,-1034 506.5,-1034"/>
<polygon fill="none" stroke="black" points="506.5,-1034 506.5,-1052 531.5,-1052 531.5,-1034 506.5,-1034"/>
<text text-anchor="start" x="521.5" y="-1040.2" font-family="Helvetica,sans-Serif" font-size="11.00"> &#160;</text>
</a>
</g>
</g>
<!-- events -->
<g id="node5" class="node">
<title>events</title>
<g id="a_node5"><a xlink:href="../../tables/events.html" xlink:title="events" target="_top">
<polygon fill="#ffffff" stroke="transparent" points="190.5,-913 190.5,-1015 310.5,-1015 310.5,-913 190.5,-913"/>
<polygon fill="#f5f5f5" stroke="transparent" points="190.5,-993 190.5,-1015 310.5,-1015 310.5,-993 190.5,-993"/>
<polygon fill="none" stroke="black" points="190.5,-993 190.5,-1015 310.5,-1015 310.5,-993 190.5,-993"/>
<text text-anchor="start" x="195.5" y="-1002.2" font-family="Helvetica,sans-Serif" font-weight="bold" font-size="11.00">events</text>
<text text-anchor="start" x="275.5" y="-1001.2" font-family="Helvetica,sans-Serif" font-size="11.00">[table]</text>
<polygon fill="none" stroke="black" points="190.5,-971 190.5,-993 310.5,-993 310.5,-971 190.5,-971"/>
<image xlink:href="../../images/primaryKeys.png" width="11px" height="12px" preserveAspectRatio="xMinYMin meet" x="195.5" y="-988"/>
<text text-anchor="start" x="210.5" y="-979.2" font-family="Helvetica,sans-Serif" font-size="11.00">eventid</text>
<polygon fill="none" stroke="black" points="190.5,-949 190.5,-971 310.5,-971 310.5,-949 190.5,-949"/>
<image xlink:href="../../images/foreignKeys.png" width="11px" height="12px" preserveAspectRatio="xMinYMin meet" x="195.5" y="-966"/>
<text text-anchor="start" x="210.5" y="-957.2" font-family="Helvetica,sans-Serif" font-size="11.00">eventtypeid</text>
<polygon fill="none" stroke="black" points="190.5,-931 190.5,-949 310.5,-949 310.5,-931 190.5,-931"/>
<text text-anchor="start" x="193.5" y="-937.2" font-family="Helvetica,sans-Serif" font-size="11.00">...</text>
<polygon fill="#ffffff" stroke="transparent" points="190.5,-913 190.5,-931 224.5,-931 224.5,-913 190.5,-913"/>
<polygon fill="none" stroke="black" points="190.5,-913 190.5,-931 224.5,-931 224.5,-913 190.5,-913"/>
<text text-anchor="start" x="193.5" y="-919.2" font-family="Helvetica,sans-Serif" font-size="11.00">&lt; 1</text>
<polygon fill="#ffffff" stroke="transparent" points="224.5,-913 224.5,-931 281.5,-931 281.5,-913 224.5,-913"/>
<polygon fill="none" stroke="black" points="224.5,-913 224.5,-931 281.5,-931 281.5,-913 224.5,-913"/>
<text text-anchor="start" x="233.5" y="-919.2" font-family="Helvetica,sans-Serif" font-size="11.00">371 rows</text>
<polygon fill="#ffffff" stroke="transparent" points="281.5,-913 281.5,-931 310.5,-931 310.5,-913 281.5,-913"/>
<polygon fill="none" stroke="black" points="281.5,-913 281.5,-931 310.5,-931 310.5,-913 281.5,-913"/>
<text text-anchor="start" x="291.5" y="-919.2" font-family="Helvetica,sans-Serif" font-size="11.00">3 &gt;</text>
</a>
</g>
</g>
<!-- eventchronology&#45;&gt;events -->
<g id="edge3" class="edge">
<title>eventchronology:w&#45;&gt;events:e</title>
<path fill="none" stroke="black" d="M383.1,-1058.05C370.81,-1051.93 367.51,-1037.32 353,-1024 333.67,-1006.26 337.74,-982 311.5,-982"/>
<polygon fill="black" stroke="black" points="389.66,-1059.39 396.78,-1064.53 393.58,-1060.2 397.5,-1061 397.5,-1061 397.5,-1061 393.58,-1060.2 398.22,-1057.47 389.66,-1059.39 389.66,-1059.39"/>
<ellipse fill="none" stroke="black" cx="386.53" cy="-1058.75" rx="3.2" ry="3.2"/>
</g>
<!-- eventtypes -->
<g id="node7" class="node">
<title>eventtypes</title>
<g id="a_node7"><a xlink:href="../../tables/eventtypes.html" xlink:title="eventtypes" target="_top">
<polygon fill="#ffffff" stroke="transparent" points="23,-933 23,-991 125,-991 125,-933 23,-933"/>
<polygon fill="#f5f5f5" stroke="transparent" points="23,-969 23,-991 125,-991 125,-969 23,-969"/>
<polygon fill="none" stroke="black" points="23,-969 23,-991 125,-991 125,-969 23,-969"/>
<text text-anchor="start" x="28" y="-978.2" font-family="Helvetica,sans-Serif" font-weight="bold" font-size="11.00">eventtypes</text>
<text text-anchor="start" x="90" y="-977.2" font-family="Helvetica,sans-Serif" font-size="11.00">[table]</text>
<polygon fill="none" stroke="black" points="23,-951 23,-969 125,-969 125,-951 23,-951"/>
<text text-anchor="start" x="26" y="-957.2" font-family="Helvetica,sans-Serif" font-size="11.00">...</text>
<polygon fill="#ffffff" stroke="transparent" points="23,-933 23,-951 54,-951 54,-933 23,-933"/>
<polygon fill="none" stroke="black" points="23,-933 23,-951 54,-951 54,-933 23,-933"/>
<text text-anchor="start" x="26" y="-939.2" font-family="Helvetica,sans-Serif" font-size="11.00">&lt; 1</text>
<polygon fill="#ffffff" stroke="transparent" points="54,-933 54,-951 98,-951 98,-933 54,-933"/>
<polygon fill="none" stroke="black" points="54,-933 54,-951 98,-951 98,-933 54,-933"/>
<text text-anchor="start" x="62" y="-939.2" font-family="Helvetica,sans-Serif" font-size="11.00">9 rows</text>
<polygon fill="#ffffff" stroke="transparent" points="98,-933 98,-951 125,-951 125,-933 98,-933"/>
<polygon fill="none" stroke="black" points="98,-933 98,-951 125,-951 125,-933 98,-933"/>
<text text-anchor="start" x="106" y="-939.2" font-family="Helvetica,sans-Serif" font-size="11.00">1 &gt;</text>
</a>
</g>
</g>
<!-- events&#45;&gt;eventtypes -->
<g id="edge6" class="edge">
<title>events:w&#45;&gt;eventtypes:e</title>
<path fill="none" stroke="black" d="M175.07,-960C157.71,-960 148.71,-960 126,-960"/>
<polygon fill="black" stroke="black" points="181.5,-960 189.5,-963.6 185.5,-960 189.5,-960 189.5,-960 189.5,-960 185.5,-960 189.5,-956.4 181.5,-960 181.5,-960"/>
<ellipse fill="none" stroke="black" cx="178.3" cy="-960" rx="3.2" ry="3.2"/>
</g>
<!-- eventpublications -->
<g id="node6" class="node">
<title>eventpublications</title>
<g id="a_node6"><a xlink:href="../../tables/eventpublications.html" xlink:title="eventpublications" target="_top">
<polygon fill="#ffffff" stroke="transparent" points="361,-802 361,-934 568,-934 568,-802 361,-802"/>
<polygon fill="#f5f5f5" stroke="transparent" points="363.5,-910 363.5,-932 566.5,-932 566.5,-910 363.5,-910"/>
<polygon fill="none" stroke="black" points="363.5,-910 363.5,-932 566.5,-932 566.5,-910 363.5,-910"/>
<text text-anchor="start" x="368.5" y="-919.2" font-family="Helvetica,sans-Serif" font-weight="bold" font-size="11.00">eventpublications</text>
<text text-anchor="start" x="531.5" y="-918.2" font-family="Helvetica,sans-Serif" font-size="11.00">[table]</text>
<polygon fill="none" stroke="black" points="363.5,-888 363.5,-910 492.5,-910 492.5,-888 363.5,-888"/>
<image xlink:href="../../images/primaryKeys.png" width="11px" height="12px" preserveAspectRatio="xMinYMin meet" x="368.5" y="-905"/>
<text text-anchor="start" x="383.5" y="-896.2" font-family="Helvetica,sans-Serif" font-size="11.00">eventid</text>
<polygon fill="none" stroke="black" points="492.5,-888 492.5,-910 566.5,-910 566.5,-888 492.5,-888"/>
<text text-anchor="start" x="495.5" y="-896.2" font-family="Helvetica,sans-Serif" font-size="11.00">int4[10]</text>
<polygon fill="none" stroke="black" points="363.5,-866 363.5,-888 492.5,-888 492.5,-866 363.5,-866"/>
<image xlink:href="../../images/primaryKeys.png" width="11px" height="12px" preserveAspectRatio="xMinYMin meet" x="368.5" y="-883"/>
<text text-anchor="start" x="383.5" y="-874.2" font-family="Helvetica,sans-Serif" font-size="11.00">publicationid</text>
<polygon fill="none" stroke="black" points="492.5,-866 492.5,-888 566.5,-888 566.5,-866 492.5,-866"/>
<text text-anchor="start" x="495.5" y="-874.2" font-family="Helvetica,sans-Serif" font-size="11.00">int4[10]</text>
<polygon fill="none" stroke="black" points="363.5,-844 363.5,-866 492.5,-866 492.5,-844 363.5,-844"/>
<text text-anchor="start" x="383.5" y="-852.2" font-family="Helvetica,sans-Serif" font-size="11.00">recdatecreated</text>
<polygon fill="none" stroke="black" points="492.5,-844 492.5,-866 566.5,-866 566.5,-844 492.5,-844"/>
<text text-anchor="start" x="495.5" y="-852.2" font-family="Helvetica,sans-Serif" font-size="11.00">timestamp[22]</text>
<polygon fill="none" stroke="black" points="363.5,-822 363.5,-844 492.5,-844 492.5,-822 363.5,-822"/>
<text text-anchor="start" x="383.5" y="-830.2" font-family="Helvetica,sans-Serif" font-size="11.00">recdatemodified</text>
<polygon fill="none" stroke="black" points="492.5,-822 492.5,-844 566.5,-844 566.5,-822 492.5,-822"/>
<text text-anchor="start" x="495.5" y="-830.2" font-family="Helvetica,sans-Serif" font-size="11.00">timestamp[22]</text>
<polygon fill="#ffffff" stroke="transparent" points="363.5,-804 363.5,-822 413.5,-822 413.5,-804 363.5,-804"/>
<polygon fill="none" stroke="black" points="363.5,-804 363.5,-822 413.5,-822 413.5,-804 363.5,-804"/>
<text text-anchor="start" x="366.5" y="-810.2" font-family="Helvetica,sans-Serif" font-size="11.00">&lt; 2</text>
<polygon fill="#ffffff" stroke="transparent" points="413.5,-804 413.5,-822 492.5,-822 492.5,-804 413.5,-804"/>
<polygon fill="none" stroke="black" points="413.5,-804 413.5,-822 492.5,-822 492.5,-804 413.5,-804"/>
<text text-anchor="start" x="444.5" y="-810.2" font-family="Helvetica,sans-Serif" font-size="11.00">378 rows</text>
<polygon fill="#ffffff" stroke="transparent" points="492.5,-804 492.5,-822 566.5,-822 566.5,-804 492.5,-804"/>
<polygon fill="none" stroke="black" points="492.5,-804 492.5,-822 566.5,-822 566.5,-804 492.5,-804"/>
<text text-anchor="start" x="547.5" y="-810.2" font-family="Helvetica,sans-Serif" font-size="11.00">0 &gt;</text>
<polygon fill="none" stroke="black" stroke-width="2" points="362,-803 362,-933 567,-933 567,-803 362,-803"/>
</a>
</g>
</g>
<!-- eventpublications&#45;&gt;publications -->
<g id="edge5" class="edge">
<title>eventpublications:w&#45;&gt;publications:e</title>
<path fill="none" stroke="black" d="M348.42,-872.88C284.7,-829.68 401.13,-461 313.5,-461"/>
<polygon fill="black" stroke="black" points="354.82,-874.76 361.49,-880.46 358.66,-875.88 362.5,-877 362.5,-877 362.5,-877 358.66,-875.88 363.51,-873.54 354.82,-874.76 354.82,-874.76"/>
<ellipse fill="none" stroke="black" cx="351.75" cy="-873.86" rx="3.2" ry="3.2"/>
</g>
<!-- eventpublications&#45;&gt;events -->
<g id="edge4" class="edge">
<title>eventpublications:w&#45;&gt;events:e</title>
<path fill="none" stroke="black" d="M348.48,-903.46C327.65,-920.7 348.71,-982 311.5,-982"/>
<polygon fill="black" stroke="black" points="354.88,-901.43 363.59,-902.43 358.69,-900.21 362.5,-899 362.5,-899 362.5,-899 358.69,-900.21 361.41,-895.57 354.88,-901.43 354.88,-901.43"/>
<ellipse fill="none" stroke="black" cx="351.83" cy="-902.4" rx="3.2" ry="3.2"/>
</g>
<!-- externalpublications -->
<g id="node8" class="node">
<title>externalpublications</title>
<g id="a_node8"><a xlink:href="../../tables/externalpublications.html" xlink:title="externalpublications" target="_top">
<polygon fill="#ffffff" stroke="transparent" points="389,-565 389,-623 540,-623 540,-565 389,-565"/>
<polygon fill="#f5f5f5" stroke="transparent" points="389.5,-601 389.5,-623 540.5,-623 540.5,-601 389.5,-601"/>
<polygon fill="none" stroke="black" points="389.5,-601 389.5,-623 540.5,-623 540.5,-601 389.5,-601"/>
<text text-anchor="start" x="394.5" y="-610.2" font-family="Helvetica,sans-Serif" font-weight="bold" font-size="11.00">externalpublications</text>
<text text-anchor="start" x="505.5" y="-609.2" font-family="Helvetica,sans-Serif" font-size="11.00">[table]</text>
<polygon fill="none" stroke="black" points="389.5,-583 389.5,-601 540.5,-601 540.5,-583 389.5,-583"/>
<text text-anchor="start" x="392.5" y="-589.2" font-family="Helvetica,sans-Serif" font-size="11.00">...</text>
<polygon fill="#ffffff" stroke="transparent" points="389.5,-565 389.5,-583 439.5,-583 439.5,-565 389.5,-565"/>
<polygon fill="none" stroke="black" points="389.5,-565 389.5,-583 439.5,-583 439.5,-565 389.5,-565"/>
<text text-anchor="start" x="392.5" y="-571.2" font-family="Helvetica,sans-Serif" font-size="11.00">&lt; 2</text>
<polygon fill="#ffffff" stroke="transparent" points="439.5,-565 439.5,-583 513.5,-583 513.5,-565 439.5,-565"/>
<polygon fill="none" stroke="black" points="439.5,-565 439.5,-583 513.5,-583 513.5,-565 439.5,-565"/>
<text text-anchor="start" x="456.5" y="-571.2" font-family="Helvetica,sans-Serif" font-size="11.00">1,317 rows</text>
<polygon fill="#ffffff" stroke="transparent" points="513.5,-565 513.5,-583 540.5,-583 540.5,-565 513.5,-565"/>
<polygon fill="none" stroke="black" points="513.5,-565 513.5,-583 540.5,-583 540.5,-565 513.5,-565"/>
<text text-anchor="start" x="530.5" y="-571.2" font-family="Helvetica,sans-Serif" font-size="11.00"> &#160;</text>
</a>
</g>
</g>
<!-- externalpublications&#45;&gt;publications -->
<g id="edge7" class="edge">
<title>externalpublications:w&#45;&gt;publications:e</title>
<path fill="none" stroke="black" d="M374.27,-588.25C364.21,-581.38 362.56,-566.12 353,-551 329.66,-514.07 357.18,-461 313.5,-461"/>
<polygon fill="black" stroke="black" points="380.76,-589.96 387.58,-595.48 384.63,-590.98 388.5,-592 388.5,-592 388.5,-592 384.63,-590.98 389.42,-588.52 380.76,-589.96 380.76,-589.96"/>
<ellipse fill="none" stroke="black" cx="377.67" cy="-589.14" rx="3.2" ry="3.2"/>
</g>
<!-- formtaxa -->
<g id="node9" class="node">
<title>formtaxa</title>
<g id="a_node9"><a xlink:href="../../tables/formtaxa.html" xlink:title="formtaxa" target="_top">
<polygon fill="#ffffff" stroke="transparent" points="622,-500 622,-558 713,-558 713,-500 622,-500"/>
<polygon fill="#f5f5f5" stroke="transparent" points="622.5,-536 622.5,-558 713.5,-558 713.5,-536 622.5,-536"/>
<polygon fill="none" stroke="black" points="622.5,-536 622.5,-558 713.5,-558 713.5,-536 622.5,-536"/>
<text text-anchor="start" x="627.5" y="-545.2" font-family="Helvetica,sans-Serif" font-weight="bold" font-size="11.00">formtaxa</text>
<text text-anchor="start" x="678.5" y="-544.2" font-family="Helvetica,sans-Serif" font-size="11.00">[table]</text>
<polygon fill="none" stroke="black" points="622.5,-518 622.5,-536 713.5,-536 713.5,-518 622.5,-518"/>
<text text-anchor="start" x="625.5" y="-524.2" font-family="Helvetica,sans-Serif" font-size="11.00">...</text>
<polygon fill="#ffffff" stroke="transparent" points="622.5,-500 622.5,-518 652.5,-518 652.5,-500 622.5,-500"/>
<polygon fill="none" stroke="black" points="622.5,-500 622.5,-518 652.5,-518 652.5,-500 622.5,-500"/>
<text text-anchor="start" x="625.5" y="-506.2" font-family="Helvetica,sans-Serif" font-size="11.00">&lt; 3</text>
<polygon fill="#ffffff" stroke="transparent" points="652.5,-500 652.5,-518 695.5,-518 695.5,-500 652.5,-500"/>
<polygon fill="none" stroke="black" points="652.5,-500 652.5,-518 695.5,-518 695.5,-500 652.5,-500"/>
<text text-anchor="start" x="659.5" y="-506.2" font-family="Helvetica,sans-Serif" font-size="11.00">3 rows</text>
<polygon fill="#ffffff" stroke="transparent" points="695.5,-500 695.5,-518 713.5,-518 713.5,-500 695.5,-500"/>
<polygon fill="none" stroke="black" points="695.5,-500 695.5,-518 713.5,-518 713.5,-500 695.5,-500"/>
<text text-anchor="start" x="703.5" y="-506.2" font-family="Helvetica,sans-Serif" font-size="11.00"> &#160;</text>
</a>
</g>
</g>
<!-- formtaxa&#45;&gt;publications -->
<g id="edge9" class="edge">
<title>formtaxa:w&#45;&gt;publications:e</title>
<path fill="none" stroke="black" d="M606.85,-527.31C498.24,-531.85 452.27,-584.71 353,-528 322.99,-510.85 348.07,-461 313.5,-461"/>
<polygon fill="black" stroke="black" points="613.5,-527.17 621.57,-530.6 617.5,-527.08 621.5,-527 621.5,-527 621.5,-527 617.5,-527.08 621.43,-523.4 613.5,-527.17 613.5,-527.17"/>
<ellipse fill="none" stroke="black" cx="610.3" cy="-527.23" rx="3.2" ry="3.2"/>
</g>
<!-- taxa -->
<g id="node10" class="node">
<title>taxa</title>
<g id="a_node10"><a xlink:href="../../tables/taxa.html" xlink:title="taxa" target="_top">
<polygon fill="#ffffff" stroke="transparent" points="406.5,-459 406.5,-517 522.5,-517 522.5,-459 406.5,-459"/>
<polygon fill="#f5f5f5" stroke="transparent" points="406.5,-495 406.5,-517 522.5,-517 522.5,-495 406.5,-495"/>
<polygon fill="none" stroke="black" points="406.5,-495 406.5,-517 522.5,-517 522.5,-495 406.5,-495"/>
<text text-anchor="start" x="411.5" y="-504.2" font-family="Helvetica,sans-Serif" font-weight="bold" font-size="11.00">taxa</text>
<text text-anchor="start" x="487.5" y="-503.2" font-family="Helvetica,sans-Serif" font-size="11.00">[table]</text>
<polygon fill="none" stroke="black" points="406.5,-477 406.5,-495 522.5,-495 522.5,-477 406.5,-477"/>
<text text-anchor="start" x="409.5" y="-483.2" font-family="Helvetica,sans-Serif" font-size="11.00">...</text>
<polygon fill="#ffffff" stroke="transparent" points="406.5,-459 406.5,-477 428.5,-477 428.5,-459 406.5,-459"/>
<polygon fill="none" stroke="black" points="406.5,-459 406.5,-477 428.5,-477 428.5,-459 406.5,-459"/>
<text text-anchor="start" x="409.5" y="-465.2" font-family="Helvetica,sans-Serif" font-size="11.00">&lt; 4</text>
<polygon fill="#ffffff" stroke="transparent" points="428.5,-459 428.5,-477 494.5,-477 494.5,-459 428.5,-459"/>
<polygon fill="none" stroke="black" points="428.5,-459 428.5,-477 494.5,-477 494.5,-459 428.5,-459"/>
<text text-anchor="start" x="431.5" y="-465.2" font-family="Helvetica,sans-Serif" font-size="11.00">47,314 rows</text>
<polygon fill="#ffffff" stroke="transparent" points="494.5,-459 494.5,-477 522.5,-477 522.5,-459 494.5,-459"/>
<polygon fill="none" stroke="black" points="494.5,-459 494.5,-477 522.5,-477 522.5,-459 494.5,-459"/>
<text text-anchor="start" x="497.5" y="-465.2" font-family="Helvetica,sans-Serif" font-size="11.00">17 &gt;</text>
</a>
</g>
</g>
<!-- formtaxa&#45;&gt;taxa -->
<g id="edge8" class="edge">
<title>formtaxa:w&#45;&gt;taxa:e</title>
<path fill="none" stroke="black" d="M607.01,-523.73C572.92,-512.31 565.37,-480.68 523.5,-486"/>
<polygon fill="black" stroke="black" points="613.7,-525.24 620.71,-530.51 617.6,-526.12 621.5,-527 621.5,-527 621.5,-527 617.6,-526.12 622.29,-523.49 613.7,-525.24 613.7,-525.24"/>
<ellipse fill="none" stroke="black" cx="610.57" cy="-524.54" rx="3.2" ry="3.2"/>
</g>
<!-- formtaxa&#45;&gt;taxa -->
<g id="edge10" class="edge">
<title>formtaxa:w&#45;&gt;taxa:e</title>
<path fill="none" stroke="black" d="M607.01,-527.65C572.92,-525.15 565.37,-492.21 523.5,-486"/>
<polygon fill="black" stroke="black" points="613.51,-527.36 621.66,-530.6 617.5,-527.18 621.5,-527 621.5,-527 621.5,-527 617.5,-527.18 621.34,-523.4 613.51,-527.36 613.51,-527.36"/>
<ellipse fill="none" stroke="black" cx="610.31" cy="-527.5" rx="3.2" ry="3.2"/>
</g>
<!-- taxa&#45;&gt;publications -->
<g id="edge20" class="edge">
<title>taxa:w&#45;&gt;publications:e</title>
<path fill="none" stroke="black" d="M391.12,-484.93C360.77,-480.14 350.58,-461 313.5,-461"/>
<polygon fill="black" stroke="black" points="397.52,-485.4 405.23,-489.59 401.51,-485.7 405.5,-486 405.5,-486 405.5,-486 401.51,-485.7 405.77,-482.41 397.52,-485.4 397.52,-485.4"/>
<ellipse fill="none" stroke="black" cx="394.33" cy="-485.17" rx="3.2" ry="3.2"/>
</g>
<!-- geochronpublications -->
<g id="node11" class="node">
<title>geochronpublications</title>
<g id="a_node11"><a xlink:href="../../tables/geochronpublications.html" xlink:title="geochronpublications" target="_top">
<polygon fill="#ffffff" stroke="transparent" points="385,-353 385,-411 544,-411 544,-353 385,-353"/>
<polygon fill="#f5f5f5" stroke="transparent" points="385.5,-389 385.5,-411 544.5,-411 544.5,-389 385.5,-389"/>
<polygon fill="none" stroke="black" points="385.5,-389 385.5,-411 544.5,-411 544.5,-389 385.5,-389"/>
<text text-anchor="start" x="390.5" y="-398.2" font-family="Helvetica,sans-Serif" font-weight="bold" font-size="11.00">geochronpublications</text>
<text text-anchor="start" x="509.5" y="-397.2" font-family="Helvetica,sans-Serif" font-size="11.00">[table]</text>
<polygon fill="none" stroke="black" points="385.5,-371 385.5,-389 544.5,-389 544.5,-371 385.5,-371"/>
<text text-anchor="start" x="388.5" y="-377.2" font-family="Helvetica,sans-Serif" font-size="11.00">...</text>
<polygon fill="#ffffff" stroke="transparent" points="385.5,-353 385.5,-371 436.5,-371 436.5,-353 385.5,-353"/>
<polygon fill="none" stroke="black" points="385.5,-353 385.5,-371 436.5,-371 436.5,-353 385.5,-353"/>
<text text-anchor="start" x="388.5" y="-359.2" font-family="Helvetica,sans-Serif" font-size="11.00">&lt; 2</text>
<polygon fill="#ffffff" stroke="transparent" points="436.5,-353 436.5,-371 516.5,-371 516.5,-353 436.5,-353"/>
<polygon fill="none" stroke="black" points="436.5,-353 436.5,-371 516.5,-371 516.5,-353 436.5,-353"/>
<text text-anchor="start" x="453.5" y="-359.2" font-family="Helvetica,sans-Serif" font-size="11.00">37,711 rows</text>
<polygon fill="#ffffff" stroke="transparent" points="516.5,-353 516.5,-371 544.5,-371 544.5,-353 516.5,-353"/>
<polygon fill="none" stroke="black" points="516.5,-353 516.5,-371 544.5,-371 544.5,-353 516.5,-353"/>
<text text-anchor="start" x="534.5" y="-359.2" font-family="Helvetica,sans-Serif" font-size="11.00"> &#160;</text>
</a>
</g>
</g>
<!-- geochronpublications&#45;&gt;publications -->
<g id="edge11" class="edge">
<title>geochronpublications:w&#45;&gt;publications:e</title>
<path fill="none" stroke="black" d="M370.43,-383.08C341.43,-397.87 355.76,-461 313.5,-461"/>
<polygon fill="black" stroke="black" points="376.68,-381.71 385.27,-383.52 380.59,-380.85 384.5,-380 384.5,-380 384.5,-380 380.59,-380.85 383.73,-376.48 376.68,-381.71 376.68,-381.71"/>
<ellipse fill="none" stroke="black" cx="373.56" cy="-382.39" rx="3.2" ry="3.2"/>
</g>
<!-- publicationauthors -->
<g id="node12" class="node">
<title>publicationauthors</title>
<g id="a_node12"><a xlink:href="../../tables/publicationauthors.html" xlink:title="publicationauthors" target="_top">
<polygon fill="#ffffff" stroke="transparent" points="392.5,-274 392.5,-332 536.5,-332 536.5,-274 392.5,-274"/>
<polygon fill="#f5f5f5" stroke="transparent" points="392.5,-310 392.5,-332 536.5,-332 536.5,-310 392.5,-310"/>
<polygon fill="none" stroke="black" points="392.5,-310 392.5,-332 536.5,-332 536.5,-310 392.5,-310"/>
<text text-anchor="start" x="397.5" y="-319.2" font-family="Helvetica,sans-Serif" font-weight="bold" font-size="11.00">publicationauthors</text>
<text text-anchor="start" x="501.5" y="-318.2" font-family="Helvetica,sans-Serif" font-size="11.00">[table]</text>
<polygon fill="none" stroke="black" points="392.5,-292 392.5,-310 536.5,-310 536.5,-292 392.5,-292"/>
<text text-anchor="start" x="395.5" y="-298.2" font-family="Helvetica,sans-Serif" font-size="11.00">...</text>
<polygon fill="#ffffff" stroke="transparent" points="392.5,-274 392.5,-292 435.5,-292 435.5,-274 392.5,-274"/>
<polygon fill="none" stroke="black" points="392.5,-274 392.5,-292 435.5,-292 435.5,-274 392.5,-274"/>
<text text-anchor="start" x="395.5" y="-280.2" font-family="Helvetica,sans-Serif" font-size="11.00">&lt; 2</text>
<polygon fill="#ffffff" stroke="transparent" points="435.5,-274 435.5,-292 512.5,-292 512.5,-274 435.5,-274"/>
<polygon fill="none" stroke="black" points="435.5,-274 435.5,-292 512.5,-292 512.5,-274 435.5,-274"/>
<text text-anchor="start" x="449.5" y="-280.2" font-family="Helvetica,sans-Serif" font-size="11.00">31,426 rows</text>
<polygon fill="#ffffff" stroke="transparent" points="512.5,-274 512.5,-292 536.5,-292 536.5,-274 512.5,-274"/>
<polygon fill="none" stroke="black" points="512.5,-274 512.5,-292 536.5,-292 536.5,-274 512.5,-274"/>
<text text-anchor="start" x="526.5" y="-280.2" font-family="Helvetica,sans-Serif" font-size="11.00"> &#160;</text>
</a>
</g>
</g>
<!-- publicationauthors&#45;&gt;publications -->
<g id="edge12" class="edge">
<title>publicationauthors:w&#45;&gt;publications:e</title>
<path fill="none" stroke="black" d="M377.33,-304.09C365.34,-310.55 362.84,-326.3 353,-343 324.92,-390.65 368.8,-461 313.5,-461"/>
<polygon fill="black" stroke="black" points="383.68,-302.7 392.27,-304.52 387.59,-301.85 391.5,-301 391.5,-301 391.5,-301 387.59,-301.85 390.73,-297.48 383.68,-302.7 383.68,-302.7"/>
<ellipse fill="none" stroke="black" cx="380.56" cy="-303.38" rx="3.2" ry="3.2"/>
</g>
<!-- publicationeditors -->
<g id="node13" class="node">
<title>publicationeditors</title>
<g id="a_node13"><a xlink:href="../../tables/publicationeditors.html" xlink:title="publicationeditors" target="_top">
<polygon fill="#ffffff" stroke="transparent" points="394.5,-195 394.5,-253 534.5,-253 534.5,-195 394.5,-195"/>
<polygon fill="#f5f5f5" stroke="transparent" points="394.5,-231 394.5,-253 534.5,-253 534.5,-231 394.5,-231"/>
<polygon fill="none" stroke="black" points="394.5,-231 394.5,-253 534.5,-253 534.5,-231 394.5,-231"/>
<text text-anchor="start" x="399.5" y="-240.2" font-family="Helvetica,sans-Serif" font-weight="bold" font-size="11.00">publicationeditors</text>
<text text-anchor="start" x="499.5" y="-239.2" font-family="Helvetica,sans-Serif" font-size="11.00">[table]</text>
<polygon fill="none" stroke="black" points="394.5,-213 394.5,-231 534.5,-231 534.5,-213 394.5,-213"/>
<text text-anchor="start" x="397.5" y="-219.2" font-family="Helvetica,sans-Serif" font-size="11.00">...</text>
<polygon fill="#ffffff" stroke="transparent" points="394.5,-195 394.5,-213 438.5,-213 438.5,-195 394.5,-195"/>
<polygon fill="none" stroke="black" points="394.5,-195 394.5,-213 438.5,-213 438.5,-195 394.5,-195"/>
<text text-anchor="start" x="397.5" y="-201.2" font-family="Helvetica,sans-Serif" font-size="11.00">&lt; 1</text>
<polygon fill="#ffffff" stroke="transparent" points="438.5,-195 438.5,-213 509.5,-213 509.5,-195 438.5,-195"/>
<polygon fill="none" stroke="black" points="438.5,-195 438.5,-213 509.5,-213 509.5,-195 438.5,-195"/>
<text text-anchor="start" x="452.5" y="-201.2" font-family="Helvetica,sans-Serif" font-size="11.00">1,517 rows</text>
<polygon fill="#ffffff" stroke="transparent" points="509.5,-195 509.5,-213 534.5,-213 534.5,-195 509.5,-195"/>
<polygon fill="none" stroke="black" points="509.5,-195 509.5,-213 534.5,-213 534.5,-195 509.5,-195"/>
<text text-anchor="start" x="524.5" y="-201.2" font-family="Helvetica,sans-Serif" font-size="11.00"> &#160;</text>
</a>
</g>
</g>
<!-- publicationeditors&#45;&gt;publications -->
<g id="edge13" class="edge">
<title>publicationeditors:w&#45;&gt;publications:e</title>
<path fill="none" stroke="black" d="M379.09,-224.75C365.93,-230.83 362.31,-246.23 353,-264 332.28,-303.55 358.15,-461 313.5,-461"/>
<polygon fill="black" stroke="black" points="385.64,-223.5 394.18,-225.54 389.57,-222.75 393.5,-222 393.5,-222 393.5,-222 389.57,-222.75 392.82,-218.46 385.64,-223.5 385.64,-223.5"/>
<ellipse fill="none" stroke="black" cx="382.5" cy="-224.1" rx="3.2" ry="3.2"/>
</g>
<!-- publicationtranslators -->
<g id="node15" class="node">
<title>publicationtranslators</title>
<g id="a_node15"><a xlink:href="../../tables/publicationtranslators.html" xlink:title="publicationtranslators" target="_top">
<polygon fill="#ffffff" stroke="transparent" points="384.5,-116 384.5,-174 544.5,-174 544.5,-116 384.5,-116"/>
<polygon fill="#f5f5f5" stroke="transparent" points="384.5,-152 384.5,-174 544.5,-174 544.5,-152 384.5,-152"/>
<polygon fill="none" stroke="black" points="384.5,-152 384.5,-174 544.5,-174 544.5,-152 384.5,-152"/>
<text text-anchor="start" x="389.5" y="-161.2" font-family="Helvetica,sans-Serif" font-weight="bold" font-size="11.00">publicationtranslators</text>
<text text-anchor="start" x="509.5" y="-160.2" font-family="Helvetica,sans-Serif" font-size="11.00">[table]</text>
<polygon fill="none" stroke="black" points="384.5,-134 384.5,-152 544.5,-152 544.5,-134 384.5,-134"/>
<text text-anchor="start" x="387.5" y="-140.2" font-family="Helvetica,sans-Serif" font-size="11.00">...</text>
<polygon fill="#ffffff" stroke="transparent" points="384.5,-116 384.5,-134 449.5,-134 449.5,-116 384.5,-116"/>
<polygon fill="none" stroke="black" points="384.5,-116 384.5,-134 449.5,-134 449.5,-116 384.5,-116"/>
<text text-anchor="start" x="387.5" y="-122.2" font-family="Helvetica,sans-Serif" font-size="11.00">&lt; 1</text>
<polygon fill="#ffffff" stroke="transparent" points="449.5,-116 449.5,-134 509.5,-134 509.5,-116 449.5,-116"/>
<polygon fill="none" stroke="black" points="449.5,-116 449.5,-134 509.5,-134 509.5,-116 449.5,-116"/>
<text text-anchor="start" x="473.5" y="-122.2" font-family="Helvetica,sans-Serif" font-size="11.00">4 rows</text>
<polygon fill="#ffffff" stroke="transparent" points="509.5,-116 509.5,-134 544.5,-134 544.5,-116 509.5,-116"/>
<polygon fill="none" stroke="black" points="509.5,-116 509.5,-134 544.5,-134 544.5,-116 509.5,-116"/>
<text text-anchor="start" x="534.5" y="-122.2" font-family="Helvetica,sans-Serif" font-size="11.00"> &#160;</text>
</a>
</g>
</g>
<!-- publicationtranslators&#45;&gt;publications -->
<g id="edge15" class="edge">
<title>publicationtranslators:w&#45;&gt;publications:e</title>
<path fill="none" stroke="black" d="M369.62,-146.99C360.39,-154.01 359.36,-169.3 353,-185 329.72,-242.42 375.46,-461 313.5,-461"/>
<polygon fill="black" stroke="black" points="375.81,-145.21 384.5,-146.46 379.66,-144.11 383.5,-143 383.5,-143 383.5,-143 379.66,-144.11 382.5,-139.54 375.81,-145.21 375.81,-145.21"/>
<ellipse fill="none" stroke="black" cx="372.74" cy="-146.1" rx="3.2" ry="3.2"/>
</g>
<!-- relativeagepublications -->
<g id="node16" class="node">
<title>relativeagepublications</title>
<g id="a_node16"><a xlink:href="../../tables/relativeagepublications.html" xlink:title="relativeagepublications" target="_top">
<polygon fill="#ffffff" stroke="transparent" points="381.5,-37 381.5,-95 547.5,-95 547.5,-37 381.5,-37"/>
<polygon fill="#f5f5f5" stroke="transparent" points="381.5,-73 381.5,-95 547.5,-95 547.5,-73 381.5,-73"/>
<polygon fill="none" stroke="black" points="381.5,-73 381.5,-95 547.5,-95 547.5,-73 381.5,-73"/>
<text text-anchor="start" x="386.5" y="-82.2" font-family="Helvetica,sans-Serif" font-weight="bold" font-size="11.00">relativeagepublications</text>
<text text-anchor="start" x="512.5" y="-81.2" font-family="Helvetica,sans-Serif" font-size="11.00">[table]</text>
<polygon fill="none" stroke="black" points="381.5,-55 381.5,-73 547.5,-73 547.5,-55 381.5,-55"/>
<text text-anchor="start" x="384.5" y="-61.2" font-family="Helvetica,sans-Serif" font-size="11.00">...</text>
<polygon fill="#ffffff" stroke="transparent" points="381.5,-37 381.5,-55 443.5,-55 443.5,-37 381.5,-37"/>
<polygon fill="none" stroke="black" points="381.5,-37 381.5,-55 443.5,-55 443.5,-37 381.5,-37"/>
<text text-anchor="start" x="384.5" y="-43.2" font-family="Helvetica,sans-Serif" font-size="11.00">&lt; 2</text>
<polygon fill="#ffffff" stroke="transparent" points="443.5,-37 443.5,-55 514.5,-55 514.5,-37 443.5,-37"/>
<polygon fill="none" stroke="black" points="443.5,-37 443.5,-55 514.5,-55 514.5,-37 443.5,-37"/>
<text text-anchor="start" x="466.5" y="-43.2" font-family="Helvetica,sans-Serif" font-size="11.00">115 rows</text>
<polygon fill="#ffffff" stroke="transparent" points="514.5,-37 514.5,-55 547.5,-55 547.5,-37 514.5,-37"/>
<polygon fill="none" stroke="black" points="514.5,-37 514.5,-55 547.5,-55 547.5,-37 514.5,-37"/>
<text text-anchor="start" x="537.5" y="-43.2" font-family="Helvetica,sans-Serif" font-size="11.00"> &#160;</text>
</a>
</g>
</g>
<!-- relativeagepublications&#45;&gt;publications -->
<g id="edge16" class="edge">
<title>relativeagepublications:w&#45;&gt;publications:e</title>
<path fill="none" stroke="black" d="M366.37,-68.19C303.85,-110.62 397.55,-461 313.5,-461"/>
<polygon fill="black" stroke="black" points="372.83,-66.27 381.52,-67.45 376.67,-65.14 380.5,-64 380.5,-64 380.5,-64 376.67,-65.14 379.48,-60.55 372.83,-66.27 372.83,-66.27"/>
<ellipse fill="none" stroke="black" cx="369.76" cy="-67.18" rx="3.2" ry="3.2"/>
</g>
<!-- synonymy -->
<g id="node17" class="node">
<title>synonymy</title>
<g id="a_node17"><a xlink:href="../../tables/synonymy.html" xlink:title="synonymy" target="_top">
<polygon fill="#ffffff" stroke="transparent" points="617,-421 617,-479 718,-479 718,-421 617,-421"/>
<polygon fill="#f5f5f5" stroke="transparent" points="617.5,-457 617.5,-479 718.5,-479 718.5,-457 617.5,-457"/>
<polygon fill="none" stroke="black" points="617.5,-457 617.5,-479 718.5,-479 718.5,-457 617.5,-457"/>
<text text-anchor="start" x="622.5" y="-466.2" font-family="Helvetica,sans-Serif" font-weight="bold" font-size="11.00">synonymy</text>
<text text-anchor="start" x="683.5" y="-465.2" font-family="Helvetica,sans-Serif" font-size="11.00">[table]</text>
<polygon fill="none" stroke="black" points="617.5,-439 617.5,-457 718.5,-457 718.5,-439 617.5,-439"/>
<text text-anchor="start" x="620.5" y="-445.2" font-family="Helvetica,sans-Serif" font-size="11.00">...</text>
<polygon fill="#ffffff" stroke="transparent" points="617.5,-421 617.5,-439 639.5,-439 639.5,-421 617.5,-421"/>
<polygon fill="none" stroke="black" points="617.5,-421 617.5,-439 639.5,-439 639.5,-421 617.5,-421"/>
<text text-anchor="start" x="620.5" y="-427.2" font-family="Helvetica,sans-Serif" font-size="11.00">&lt; 5</text>
<polygon fill="#ffffff" stroke="transparent" points="639.5,-421 639.5,-439 705.5,-439 705.5,-421 639.5,-421"/>
<polygon fill="none" stroke="black" points="639.5,-421 639.5,-439 705.5,-439 705.5,-421 639.5,-421"/>
<text text-anchor="start" x="642.5" y="-427.2" font-family="Helvetica,sans-Serif" font-size="11.00">38,985 rows</text>
<polygon fill="#ffffff" stroke="transparent" points="705.5,-421 705.5,-439 718.5,-439 718.5,-421 705.5,-421"/>
<polygon fill="none" stroke="black" points="705.5,-421 705.5,-439 718.5,-439 718.5,-421 705.5,-421"/>
<text text-anchor="start" x="708.5" y="-427.2" font-family="Helvetica,sans-Serif" font-size="11.00"> &#160;</text>
</a>
</g>
</g>
<!-- synonymy&#45;&gt;publications -->
<g id="edge17" class="edge">
<title>synonymy:w&#45;&gt;publications:e</title>
<path fill="none" stroke="black" d="M601.87,-447.91C496.6,-446.65 463.83,-432.32 353,-449 334.86,-451.73 331.85,-461 313.5,-461"/>
<polygon fill="black" stroke="black" points="608.5,-447.95 616.48,-451.6 612.5,-447.98 616.5,-448 616.5,-448 616.5,-448 612.5,-447.98 616.52,-444.4 608.5,-447.95 608.5,-447.95"/>
<ellipse fill="none" stroke="black" cx="605.3" cy="-447.93" rx="3.2" ry="3.2"/>
</g>
<!-- synonymy&#45;&gt;taxa -->
<g id="edge18" class="edge">
<title>synonymy:w&#45;&gt;taxa:e</title>
<path fill="none" stroke="black" d="M601.94,-447.62C570.35,-450.73 562.74,-480.73 523.5,-486"/>
<polygon fill="black" stroke="black" points="608.5,-447.79 616.41,-451.6 612.5,-447.9 616.5,-448 616.5,-448 616.5,-448 612.5,-447.9 616.59,-444.4 608.5,-447.79 608.5,-447.79"/>
<ellipse fill="none" stroke="black" cx="605.3" cy="-447.71" rx="3.2" ry="3.2"/>
</g>
<!-- synonymy&#45;&gt;taxa -->
<g id="edge19" class="edge">
<title>synonymy:w&#45;&gt;taxa:e</title>
<path fill="none" stroke="black" d="M602.36,-451.62C570.42,-463.29 562.92,-492.18 523.5,-486"/>
<polygon fill="black" stroke="black" points="608.75,-449.98 617.39,-451.49 612.62,-448.99 616.5,-448 616.5,-448 616.5,-448 612.62,-448.99 615.61,-444.51 608.75,-449.98 608.75,-449.98"/>
<ellipse fill="none" stroke="black" cx="605.65" cy="-450.77" rx="3.2" ry="3.2"/>
</g>
<!-- tephras -->
<g id="node18" class="node">
<title>tephras</title>
<g id="a_node18"><a xlink:href="../../tables/tephras.html" xlink:title="tephras" target="_top">
<polygon fill="#ffffff" stroke="transparent" points="421.5,-955 421.5,-1013 507.5,-1013 507.5,-955 421.5,-955"/>
<polygon fill="#f5f5f5" stroke="transparent" points="421.5,-991 421.5,-1013 507.5,-1013 507.5,-991 421.5,-991"/>
<polygon fill="none" stroke="black" points="421.5,-991 421.5,-1013 507.5,-1013 507.5,-991 421.5,-991"/>
<text text-anchor="start" x="426.5" y="-1000.2" font-family="Helvetica,sans-Serif" font-weight="bold" font-size="11.00">tephras</text>
<text text-anchor="start" x="472.5" y="-999.2" font-family="Helvetica,sans-Serif" font-size="11.00">[table]</text>
<polygon fill="none" stroke="black" points="421.5,-973 421.5,-991 507.5,-991 507.5,-973 421.5,-973"/>
<text text-anchor="start" x="424.5" y="-979.2" font-family="Helvetica,sans-Serif" font-size="11.00">...</text>
<polygon fill="#ffffff" stroke="transparent" points="421.5,-955 421.5,-973 443.5,-973 443.5,-955 421.5,-955"/>
<polygon fill="none" stroke="black" points="421.5,-955 421.5,-973 443.5,-973 443.5,-955 421.5,-955"/>
<text text-anchor="start" x="424.5" y="-961.2" font-family="Helvetica,sans-Serif" font-size="11.00">&lt; 2</text>
<polygon fill="#ffffff" stroke="transparent" points="443.5,-955 443.5,-973 494.5,-973 494.5,-955 443.5,-955"/>
<polygon fill="none" stroke="black" points="443.5,-955 443.5,-973 494.5,-973 494.5,-955 443.5,-955"/>
<text text-anchor="start" x="446.5" y="-961.2" font-family="Helvetica,sans-Serif" font-size="11.00">153 rows</text>
<polygon fill="#ffffff" stroke="transparent" points="494.5,-955 494.5,-973 507.5,-973 507.5,-955 494.5,-955"/>
<polygon fill="none" stroke="black" points="494.5,-955 494.5,-973 507.5,-973 507.5,-955 494.5,-955"/>
<text text-anchor="start" x="497.5" y="-961.2" font-family="Helvetica,sans-Serif" font-size="11.00"> &#160;</text>
</a>
</g>
</g>
<!-- tephras&#45;&gt;events -->
<g id="edge21" class="edge">
<title>tephras:w&#45;&gt;events:e</title>
<path fill="none" stroke="black" d="M405.81,-982C368.97,-982 354.65,-982 311.5,-982"/>
<polygon fill="black" stroke="black" points="412.5,-982 420.5,-985.6 416.5,-982 420.5,-982 420.5,-982 420.5,-982 416.5,-982 420.5,-978.4 412.5,-982 412.5,-982"/>
<ellipse fill="none" stroke="black" cx="409.3" cy="-982" rx="3.2" ry="3.2"/>
</g>
</g>
</svg>
