<?xml version="1.0" encoding="UTF-8" standalone="no"?>
<!DOCTYPE svg PUBLIC "-//W3C//DTD SVG 1.1//EN"
 "http://www.w3.org/Graphics/SVG/1.1/DTD/svg11.dtd">
<!-- Generated by graphviz version 2.43.0 (0)
 -->
<!-- Title: twoDegreesRelationshipsDiagramImplied Pages: 1 -->
<svg width="815pt" height="982pt"
 viewBox="0.00 0.00 815.00 982.00" xmlns="http://www.w3.org/2000/svg" xmlns:xlink="http://www.w3.org/1999/xlink">
<g id="graph0" class="graph" transform="scale(1 1) rotate(0) translate(4 978)">
<title>twoDegreesRelationshipsDiagramImplied</title>
<polygon fill="#ffffff" stroke="transparent" points="-4,4 -4,-978 811,-978 811,4 -4,4"/>
<text text-anchor="middle" x="71.5" y="-7.2" font-family="Helvetica,sans-Serif" font-size="11.00">Generated by SchemaSpy</text>
<!-- calibrationcurves -->
<g id="node1" class="node">
<title>calibrationcurves</title>
<g id="a_node1"><a xlink:href="../../tables/calibrationcurves.html" xlink:title="calibrationcurves" target="_top">
<polygon fill="#ffffff" stroke="transparent" points="376.5,-693 376.5,-751 511.5,-751 511.5,-693 376.5,-693"/>
<polygon fill="#f5f5f5" stroke="transparent" points="377,-729 377,-751 512,-751 512,-729 377,-729"/>
<polygon fill="none" stroke="black" points="377,-729 377,-751 512,-751 512,-729 377,-729"/>
<text text-anchor="start" x="382" y="-738.2" font-family="Helvetica,sans-Serif" font-weight="bold" font-size="11.00">calibrationcurves</text>
<text text-anchor="start" x="477" y="-737.2" font-family="Helvetica,sans-Serif" font-size="11.00">[table]</text>
<polygon fill="none" stroke="black" points="377,-711 377,-729 512,-729 512,-711 377,-711"/>
<text text-anchor="start" x="380" y="-717.2" font-family="Helvetica,sans-Serif" font-size="11.00">...</text>
<polygon fill="#ffffff" stroke="transparent" points="377,-693 377,-711 422,-711 422,-693 377,-693"/>
<polygon fill="none" stroke="black" points="377,-693 377,-711 422,-711 422,-693 377,-693"/>
<text text-anchor="start" x="380" y="-699.2" font-family="Helvetica,sans-Serif" font-size="11.00">&lt; 1</text>
<polygon fill="#ffffff" stroke="transparent" points="422,-693 422,-711 478,-711 478,-693 422,-693"/>
<polygon fill="none" stroke="black" points="422,-693 422,-711 478,-711 478,-693 422,-693"/>
<text text-anchor="start" x="436" y="-699.2" font-family="Helvetica,sans-Serif" font-size="11.00">15 rows</text>
<polygon fill="#ffffff" stroke="transparent" points="478,-693 478,-711 512,-711 512,-693 478,-693"/>
<polygon fill="none" stroke="black" points="478,-693 478,-711 512,-711 512,-693 478,-693"/>
<text text-anchor="start" x="493" y="-699.2" font-family="Helvetica,sans-Serif" font-size="11.00">2 &gt;</text>
</a>
</g>
</g>
<!-- publications -->
<g id="node2" class="node">
<title>publications</title>
<g id="a_node2"><a xlink:href="../../tables/publications.html" xlink:title="publications" target="_top">
<polygon fill="#ffffff" stroke="transparent" points="189,-442 189,-544 312,-544 312,-442 189,-442"/>
<polygon fill="#f5f5f5" stroke="transparent" points="189.5,-522 189.5,-544 312.5,-544 312.5,-522 189.5,-522"/>
<polygon fill="none" stroke="black" points="189.5,-522 189.5,-544 312.5,-544 312.5,-522 189.5,-522"/>
<text text-anchor="start" x="194.5" y="-531.2" font-family="Helvetica,sans-Serif" font-weight="bold" font-size="11.00">publications</text>
<text text-anchor="start" x="277.5" y="-530.2" font-family="Helvetica,sans-Serif" font-size="11.00">[table]</text>
<polygon fill="none" stroke="black" points="189.5,-500 189.5,-522 312.5,-522 312.5,-500 189.5,-500"/>
<image xlink:href="../../images/primaryKeys.png" width="11px" height="12px" preserveAspectRatio="xMinYMin meet" x="194.5" y="-517"/>
<text text-anchor="start" x="209.5" y="-508.2" font-family="Helvetica,sans-Serif" font-size="11.00">publicationid</text>
<polygon fill="none" stroke="black" points="189.5,-478 189.5,-500 312.5,-500 312.5,-478 189.5,-478"/>
<image xlink:href="../../images/foreignKeys.png" width="11px" height="12px" preserveAspectRatio="xMinYMin meet" x="194.5" y="-495"/>
<text text-anchor="start" x="209.5" y="-486.2" font-family="Helvetica,sans-Serif" font-size="11.00">pubtypeid</text>
<polygon fill="none" stroke="black" points="189.5,-460 189.5,-478 312.5,-478 312.5,-460 189.5,-460"/>
<text text-anchor="start" x="192.5" y="-466.2" font-family="Helvetica,sans-Serif" font-size="11.00">...</text>
<polygon fill="#ffffff" stroke="transparent" points="189.5,-442 189.5,-460 214.5,-460 214.5,-442 189.5,-442"/>
<polygon fill="none" stroke="black" points="189.5,-442 189.5,-460 214.5,-460 214.5,-442 189.5,-442"/>
<text text-anchor="start" x="192.5" y="-448.2" font-family="Helvetica,sans-Serif" font-size="11.00">&lt; 1</text>
<polygon fill="#ffffff" stroke="transparent" points="214.5,-442 214.5,-460 282.5,-460 282.5,-442 214.5,-442"/>
<polygon fill="none" stroke="black" points="214.5,-442 214.5,-460 282.5,-460 282.5,-442 214.5,-442"/>
<text text-anchor="start" x="219.5" y="-448.2" font-family="Helvetica,sans-Serif" font-size="11.00">13,725 rows</text>
<polygon fill="#ffffff" stroke="transparent" points="282.5,-442 282.5,-460 312.5,-460 312.5,-442 282.5,-442"/>
<polygon fill="none" stroke="black" points="282.5,-442 282.5,-460 312.5,-460 312.5,-442 282.5,-442"/>
<text text-anchor="start" x="287.5" y="-448.2" font-family="Helvetica,sans-Serif" font-size="11.00">13 &gt;</text>
</a>
</g>
</g>
<!-- calibrationcurves&#45;&gt;publications -->
<g id="edge1" class="edge">
<title>calibrationcurves:w&#45;&gt;publications:e</title>
<path fill="none" stroke="black" d="M361.64,-718.06C293.2,-696.99 404.96,-511 313.5,-511"/>
<polygon fill="black" stroke="black" points="368.07,-718.93 375.52,-723.57 372.04,-719.47 376,-720 376,-720 376,-720 372.04,-719.47 376.48,-716.43 368.07,-718.93 368.07,-718.93"/>
<ellipse fill="none" stroke="black" cx="364.9" cy="-718.5" rx="3.2" ry="3.2"/>
</g>
<!-- publicationtypes -->
<g id="node14" class="node">
<title>publicationtypes</title>
<g id="a_node14"><a xlink:href="../../tables/publicationtypes.html" xlink:title="publicationtypes" target="_top">
<polygon fill="#ffffff" stroke="transparent" points="8,-462 8,-520 140,-520 140,-462 8,-462"/>
<polygon fill="#f5f5f5" stroke="transparent" points="8,-498 8,-520 140,-520 140,-498 8,-498"/>
<polygon fill="none" stroke="black" points="8,-498 8,-520 140,-520 140,-498 8,-498"/>
<text text-anchor="start" x="13" y="-507.2" font-family="Helvetica,sans-Serif" font-weight="bold" font-size="11.00">publicationtypes</text>
<text text-anchor="start" x="105" y="-506.2" font-family="Helvetica,sans-Serif" font-size="11.00">[table]</text>
<polygon fill="none" stroke="black" points="8,-480 8,-498 140,-498 140,-480 8,-480"/>
<text text-anchor="start" x="11" y="-486.2" font-family="Helvetica,sans-Serif" font-size="11.00">...</text>
<polygon fill="#ffffff" stroke="transparent" points="8,-462 8,-480 47,-480 47,-462 8,-462"/>
<polygon fill="none" stroke="black" points="8,-462 8,-480 47,-480 47,-462 8,-462"/>
<text text-anchor="start" x="11" y="-468.2" font-family="Helvetica,sans-Serif" font-size="11.00"> &#160;</text>
<polygon fill="#ffffff" stroke="transparent" points="47,-462 47,-480 105,-480 105,-462 47,-462"/>
<polygon fill="none" stroke="black" points="47,-462 47,-480 105,-480 105,-462 47,-462"/>
<text text-anchor="start" x="63" y="-468.2" font-family="Helvetica,sans-Serif" font-size="11.00">13 rows</text>
<polygon fill="#ffffff" stroke="transparent" points="105,-462 105,-480 140,-480 140,-462 105,-462"/>
<polygon fill="none" stroke="black" points="105,-462 105,-480 140,-480 140,-462 105,-462"/>
<text text-anchor="start" x="121" y="-468.2" font-family="Helvetica,sans-Serif" font-size="11.00">1 &gt;</text>
</a>
</g>
</g>
<!-- publications&#45;&gt;publicationtypes -->
<g id="edge15" class="edge">
<title>publications:w&#45;&gt;publicationtypes:e</title>
<path fill="none" stroke="black" d="M174.09,-489C163.32,-489 156.34,-489 141,-489"/>
<polygon fill="black" stroke="black" points="180.5,-489 188.5,-492.6 184.5,-489 188.5,-489 188.5,-489 188.5,-489 184.5,-489 188.5,-485.4 180.5,-489 180.5,-489"/>
<ellipse fill="none" stroke="black" cx="177.3" cy="-489" rx="3.2" ry="3.2"/>
</g>
<!-- contactreferences -->
<g id="node3" class="node">
<title>contactreferences</title>
<g id="a_node3"><a xlink:href="../../tables/contactreferences.html" xlink:title="contactreferences" target="_top">
<polygon fill="#ffffff" stroke="transparent" points="618,-459 618,-517 757,-517 757,-459 618,-459"/>
<polygon fill="#f5f5f5" stroke="transparent" points="618.5,-495 618.5,-517 757.5,-517 757.5,-495 618.5,-495"/>
<polygon fill="none" stroke="black" points="618.5,-495 618.5,-517 757.5,-517 757.5,-495 618.5,-495"/>
<text text-anchor="start" x="623.5" y="-504.2" font-family="Helvetica,sans-Serif" font-weight="bold" font-size="11.00">contactreferences</text>
<text text-anchor="start" x="722.5" y="-503.2" font-family="Helvetica,sans-Serif" font-size="11.00">[table]</text>
<polygon fill="none" stroke="black" points="618.5,-477 618.5,-495 757.5,-495 757.5,-477 618.5,-477"/>
<text text-anchor="start" x="621.5" y="-483.2" font-family="Helvetica,sans-Serif" font-size="11.00">...</text>
<polygon fill="#ffffff" stroke="transparent" points="618.5,-459 618.5,-477 666.5,-477 666.5,-459 618.5,-459"/>
<polygon fill="none" stroke="black" points="618.5,-459 618.5,-477 666.5,-477 666.5,-459 618.5,-459"/>
<text text-anchor="start" x="621.5" y="-465.2" font-family="Helvetica,sans-Serif" font-size="11.00">&lt; 2</text>
<polygon fill="#ffffff" stroke="transparent" points="666.5,-459 666.5,-477 730.5,-477 730.5,-459 666.5,-459"/>
<polygon fill="none" stroke="black" points="666.5,-459 666.5,-477 730.5,-477 730.5,-459 666.5,-459"/>
<text text-anchor="start" x="682.5" y="-465.2" font-family="Helvetica,sans-Serif" font-size="11.00">662 rows</text>
<polygon fill="#ffffff" stroke="transparent" points="730.5,-459 730.5,-477 757.5,-477 757.5,-459 730.5,-459"/>
<polygon fill="none" stroke="black" points="730.5,-459 730.5,-477 757.5,-477 757.5,-459 730.5,-459"/>
<text text-anchor="start" x="747.5" y="-465.2" font-family="Helvetica,sans-Serif" font-size="11.00"> &#160;</text>
</a>
</g>
</g>
<!-- externaldatabases -->
<g id="node4" class="node">
<title>externaldatabases</title>
<g id="a_node4"><a xlink:href="../../tables/externaldatabases.html" xlink:title="externaldatabases" target="_top">
<polygon fill="#ffffff" stroke="transparent" points="374,-407 374,-487 514,-487 514,-407 374,-407"/>
<polygon fill="#f5f5f5" stroke="transparent" points="374,-465 374,-487 514,-487 514,-465 374,-465"/>
<polygon fill="none" stroke="black" points="374,-465 374,-487 514,-487 514,-465 374,-465"/>
<text text-anchor="start" x="379" y="-474.2" font-family="Helvetica,sans-Serif" font-weight="bold" font-size="11.00">externaldatabases</text>
<text text-anchor="start" x="479" y="-473.2" font-family="Helvetica,sans-Serif" font-size="11.00">[table]</text>
<polygon fill="none" stroke="black" points="374,-443 374,-465 514,-465 514,-443 374,-443"/>
<image xlink:href="../../images/primaryKeys.png" width="11px" height="12px" preserveAspectRatio="xMinYMin meet" x="379" y="-460"/>
<text text-anchor="start" x="398" y="-451.2" font-family="Helvetica,sans-Serif" font-size="11.00">extdatabaseid</text>
<polygon fill="none" stroke="black" points="374,-425 374,-443 514,-443 514,-425 374,-425"/>
<text text-anchor="start" x="377" y="-431.2" font-family="Helvetica,sans-Serif" font-size="11.00">...</text>
<polygon fill="#ffffff" stroke="transparent" points="374,-407 374,-425 420,-425 420,-407 374,-407"/>
<polygon fill="none" stroke="black" points="374,-407 374,-425 420,-425 420,-407 374,-407"/>
<text text-anchor="start" x="377" y="-413.2" font-family="Helvetica,sans-Serif" font-size="11.00"> &#160;</text>
<polygon fill="#ffffff" stroke="transparent" points="420,-407 420,-425 475,-425 475,-407 420,-407"/>
<polygon fill="none" stroke="black" points="420,-407 420,-425 475,-425 475,-407 420,-407"/>
<text text-anchor="start" x="439" y="-413.2" font-family="Helvetica,sans-Serif" font-size="11.00">9 rows</text>
<polygon fill="#ffffff" stroke="transparent" points="475,-407 475,-425 514,-425 514,-407 475,-407"/>
<polygon fill="none" stroke="black" points="475,-407 475,-425 514,-425 514,-407 475,-407"/>
<text text-anchor="start" x="495" y="-413.2" font-family="Helvetica,sans-Serif" font-size="11.00">3 &gt;</text>
</a>
</g>
</g>
<!-- contactreferences&#45;&gt;externaldatabases -->
<g id="edge2" class="edge">
<title>contactreferences:w&#45;&gt;externaldatabases:e</title>
<path fill="none" stroke="black" d="M602.73,-484.86C567.66,-479.16 557.32,-454 515,-454"/>
<polygon fill="black" stroke="black" points="609.52,-485.38 617.22,-489.59 613.51,-485.69 617.5,-486 617.5,-486 617.5,-486 613.51,-485.69 617.78,-482.41 609.52,-485.38 609.52,-485.38"/>
<ellipse fill="none" stroke="black" cx="606.33" cy="-485.14" rx="3.2" ry="3.2"/>
</g>
<!-- datasetpublications -->
<g id="node5" class="node">
<title>datasetpublications</title>
<g id="a_node5"><a xlink:href="../../tables/datasetpublications.html" xlink:title="datasetpublications" target="_top">
<polygon fill="#ffffff" stroke="transparent" points="370.5,-614 370.5,-672 517.5,-672 517.5,-614 370.5,-614"/>
<polygon fill="#f5f5f5" stroke="transparent" points="371,-650 371,-672 518,-672 518,-650 371,-650"/>
<polygon fill="none" stroke="black" points="371,-650 371,-672 518,-672 518,-650 371,-650"/>
<text text-anchor="start" x="376" y="-659.2" font-family="Helvetica,sans-Serif" font-weight="bold" font-size="11.00">datasetpublications</text>
<text text-anchor="start" x="483" y="-658.2" font-family="Helvetica,sans-Serif" font-size="11.00">[table]</text>
<polygon fill="none" stroke="black" points="371,-632 371,-650 518,-650 518,-632 371,-632"/>
<text text-anchor="start" x="374" y="-638.2" font-family="Helvetica,sans-Serif" font-size="11.00">...</text>
<polygon fill="#ffffff" stroke="transparent" points="371,-614 371,-632 416,-632 416,-614 371,-614"/>
<polygon fill="none" stroke="black" points="371,-614 371,-632 416,-632 416,-614 371,-614"/>
<text text-anchor="start" x="374" y="-620.2" font-family="Helvetica,sans-Serif" font-size="11.00">&lt; 2</text>
<polygon fill="#ffffff" stroke="transparent" points="416,-614 416,-632 493,-632 493,-614 416,-614"/>
<polygon fill="none" stroke="black" points="416,-614 416,-632 493,-632 493,-614 416,-614"/>
<text text-anchor="start" x="430" y="-620.2" font-family="Helvetica,sans-Serif" font-size="11.00">61,382 rows</text>
<polygon fill="#ffffff" stroke="transparent" points="493,-614 493,-632 518,-632 518,-614 493,-614"/>
<polygon fill="none" stroke="black" points="493,-614 493,-632 518,-632 518,-614 493,-614"/>
<text text-anchor="start" x="508" y="-620.2" font-family="Helvetica,sans-Serif" font-size="11.00"> &#160;</text>
</a>
</g>
</g>
<!-- datasetpublications&#45;&gt;publications -->
<g id="edge3" class="edge">
<title>datasetpublications:w&#45;&gt;publications:e</title>
<path fill="none" stroke="black" d="M355.56,-637.79C318.87,-617.77 370.59,-511 313.5,-511"/>
<polygon fill="black" stroke="black" points="362.19,-639.26 369.22,-644.51 366.1,-640.13 370,-641 370,-641 370,-641 366.1,-640.13 370.78,-637.49 362.19,-639.26 362.19,-639.26"/>
<ellipse fill="none" stroke="black" cx="359.07" cy="-638.57" rx="3.2" ry="3.2"/>
</g>
<!-- eventpublications -->
<g id="node6" class="node">
<title>eventpublications</title>
<g id="a_node6"><a xlink:href="../../tables/eventpublications.html" xlink:title="eventpublications" target="_top">
<polygon fill="#ffffff" stroke="transparent" points="375,-535 375,-593 513,-593 513,-535 375,-535"/>
<polygon fill="#f5f5f5" stroke="transparent" points="375,-571 375,-593 513,-593 513,-571 375,-571"/>
<polygon fill="none" stroke="black" points="375,-571 375,-593 513,-593 513,-571 375,-571"/>
<text text-anchor="start" x="380" y="-580.2" font-family="Helvetica,sans-Serif" font-weight="bold" font-size="11.00">eventpublications</text>
<text text-anchor="start" x="478" y="-579.2" font-family="Helvetica,sans-Serif" font-size="11.00">[table]</text>
<polygon fill="none" stroke="black" points="375,-553 375,-571 513,-571 513,-553 375,-553"/>
<text text-anchor="start" x="378" y="-559.2" font-family="Helvetica,sans-Serif" font-size="11.00">...</text>
<polygon fill="#ffffff" stroke="transparent" points="375,-535 375,-553 423,-553 423,-535 375,-535"/>
<polygon fill="none" stroke="black" points="375,-535 375,-553 423,-553 423,-535 375,-535"/>
<text text-anchor="start" x="378" y="-541.2" font-family="Helvetica,sans-Serif" font-size="11.00">&lt; 2</text>
<polygon fill="#ffffff" stroke="transparent" points="423,-535 423,-553 487,-553 487,-535 423,-535"/>
<polygon fill="none" stroke="black" points="423,-535 423,-553 487,-553 487,-535 423,-535"/>
<text text-anchor="start" x="439" y="-541.2" font-family="Helvetica,sans-Serif" font-size="11.00">378 rows</text>
<polygon fill="#ffffff" stroke="transparent" points="487,-535 487,-553 513,-553 513,-535 487,-535"/>
<polygon fill="none" stroke="black" points="487,-535 487,-553 513,-553 513,-535 487,-535"/>
<text text-anchor="start" x="503" y="-541.2" font-family="Helvetica,sans-Serif" font-size="11.00"> &#160;</text>
</a>
</g>
</g>
<!-- eventpublications&#45;&gt;publications -->
<g id="edge4" class="edge">
<title>eventpublications:w&#45;&gt;publications:e</title>
<path fill="none" stroke="black" d="M359.93,-558.33C340.85,-546.64 342.9,-511 313.5,-511"/>
<polygon fill="black" stroke="black" points="366.26,-559.98 373.09,-565.48 370.13,-560.99 374,-562 374,-562 374,-562 370.13,-560.99 374.91,-558.52 366.26,-559.98 366.26,-559.98"/>
<ellipse fill="none" stroke="black" cx="363.16" cy="-559.18" rx="3.2" ry="3.2"/>
</g>
<!-- externalpublications -->
<g id="node7" class="node">
<title>externalpublications</title>
<g id="a_node7"><a xlink:href="../../tables/externalpublications.html" xlink:title="externalpublications" target="_top">
<polygon fill="#ffffff" stroke="transparent" points="576,-538 576,-692 799,-692 799,-538 576,-538"/>
<polygon fill="#f5f5f5" stroke="transparent" points="578.5,-668 578.5,-690 797.5,-690 797.5,-668 578.5,-668"/>
<polygon fill="none" stroke="black" points="578.5,-668 578.5,-690 797.5,-690 797.5,-668 578.5,-668"/>
<text text-anchor="start" x="583.5" y="-677.2" font-family="Helvetica,sans-Serif" font-weight="bold" font-size="11.00">externalpublications</text>
<text text-anchor="start" x="762.5" y="-676.2" font-family="Helvetica,sans-Serif" font-size="11.00">[table]</text>
<polygon fill="none" stroke="black" points="578.5,-646 578.5,-668 723.5,-668 723.5,-646 578.5,-646"/>
<image xlink:href="../../images/primaryKeys.png" width="11px" height="12px" preserveAspectRatio="xMinYMin meet" x="583.5" y="-663"/>
<text text-anchor="start" x="598.5" y="-654.2" font-family="Helvetica,sans-Serif" font-size="11.00">publicationid</text>
<polygon fill="none" stroke="black" points="723.5,-646 723.5,-668 797.5,-668 797.5,-646 723.5,-646"/>
<text text-anchor="start" x="726.5" y="-654.2" font-family="Helvetica,sans-Serif" font-size="11.00">int4[10]</text>
<polygon fill="none" stroke="black" points="578.5,-624 578.5,-646 723.5,-646 723.5,-624 578.5,-624"/>
<image xlink:href="../../images/primaryKeys.png" width="11px" height="12px" preserveAspectRatio="xMinYMin meet" x="583.5" y="-641"/>
<text text-anchor="start" x="598.5" y="-632.2" font-family="Helvetica,sans-Serif" font-size="11.00">extdatabaseid</text>
<polygon fill="none" stroke="black" points="723.5,-624 723.5,-646 797.5,-646 797.5,-624 723.5,-624"/>
<text text-anchor="start" x="726.5" y="-632.2" font-family="Helvetica,sans-Serif" font-size="11.00">int4[10]</text>
<polygon fill="none" stroke="black" points="578.5,-602 578.5,-624 723.5,-624 723.5,-602 578.5,-602"/>
<text text-anchor="start" x="598.5" y="-610.2" font-family="Helvetica,sans-Serif" font-size="11.00">extpublicationid</text>
<polygon fill="none" stroke="black" points="723.5,-602 723.5,-624 797.5,-624 797.5,-602 723.5,-602"/>
<text text-anchor="start" x="726.5" y="-610.2" font-family="Helvetica,sans-Serif" font-size="11.00">int4[10]</text>
<polygon fill="none" stroke="black" points="578.5,-580 578.5,-602 723.5,-602 723.5,-580 578.5,-580"/>
<text text-anchor="start" x="598.5" y="-588.2" font-family="Helvetica,sans-Serif" font-size="11.00">recdatecreated</text>
<polygon fill="none" stroke="black" points="723.5,-580 723.5,-602 797.5,-602 797.5,-580 723.5,-580"/>
<text text-anchor="start" x="726.5" y="-588.2" font-family="Helvetica,sans-Serif" font-size="11.00">timestamp[22]</text>
<polygon fill="none" stroke="black" points="578.5,-558 578.5,-580 723.5,-580 723.5,-558 578.5,-558"/>
<text text-anchor="start" x="598.5" y="-566.2" font-family="Helvetica,sans-Serif" font-size="11.00">recdatemodified</text>
<polygon fill="none" stroke="black" points="723.5,-558 723.5,-580 797.5,-580 797.5,-558 723.5,-558"/>
<text text-anchor="start" x="726.5" y="-566.2" font-family="Helvetica,sans-Serif" font-size="11.00">timestamp[22]</text>
<polygon fill="#ffffff" stroke="transparent" points="578.5,-540 578.5,-558 631.5,-558 631.5,-540 578.5,-540"/>
<polygon fill="none" stroke="black" points="578.5,-540 578.5,-558 631.5,-558 631.5,-540 578.5,-540"/>
<text text-anchor="start" x="581.5" y="-546.2" font-family="Helvetica,sans-Serif" font-size="11.00">&lt; 2</text>
<polygon fill="#ffffff" stroke="transparent" points="631.5,-540 631.5,-558 723.5,-558 723.5,-540 631.5,-540"/>
<polygon fill="none" stroke="black" points="631.5,-540 631.5,-558 723.5,-558 723.5,-540 631.5,-540"/>
<text text-anchor="start" x="666.5" y="-546.2" font-family="Helvetica,sans-Serif" font-size="11.00">1,317 rows</text>
<polygon fill="#ffffff" stroke="transparent" points="723.5,-540 723.5,-558 797.5,-558 797.5,-540 723.5,-540"/>
<polygon fill="none" stroke="black" points="723.5,-540 723.5,-558 797.5,-558 797.5,-540 723.5,-540"/>
<text text-anchor="start" x="778.5" y="-546.2" font-family="Helvetica,sans-Serif" font-size="11.00">0 &gt;</text>
<polygon fill="none" stroke="black" stroke-width="2" points="577,-539 577,-691 798,-691 798,-539 577,-539"/>
</a>
</g>
</g>
<!-- externalpublications&#45;&gt;publications -->
<g id="edge6" class="edge">
<title>externalpublications:w&#45;&gt;publications:e</title>
<path fill="none" stroke="black" d="M562.92,-654.45C527.99,-639.15 578.89,-559.15 535,-525 496.07,-494.71 362.82,-511 313.5,-511"/>
<polygon fill="black" stroke="black" points="569.62,-655.62 576.88,-660.55 573.56,-656.31 577.5,-657 577.5,-657 577.5,-657 573.56,-656.31 578.12,-653.45 569.62,-655.62 569.62,-655.62"/>
<ellipse fill="none" stroke="black" cx="566.47" cy="-655.07" rx="3.2" ry="3.2"/>
</g>
<!-- externalpublications&#45;&gt;externaldatabases -->
<g id="edge5" class="edge">
<title>externalpublications:w&#45;&gt;externaldatabases:e</title>
<path fill="none" stroke="black" d="M562.98,-632.71C505.85,-611.76 594.45,-454 515,-454"/>
<polygon fill="black" stroke="black" points="569.6,-633.75 576.94,-638.56 573.55,-634.38 577.5,-635 577.5,-635 577.5,-635 573.55,-634.38 578.06,-631.44 569.6,-633.75 569.6,-633.75"/>
<ellipse fill="none" stroke="black" cx="566.44" cy="-633.26" rx="3.2" ry="3.2"/>
</g>
<!-- externaltaxa -->
<g id="node8" class="node">
<title>externaltaxa</title>
<g id="a_node8"><a xlink:href="../../tables/externaltaxa.html" xlink:title="externaltaxa" target="_top">
<polygon fill="#ffffff" stroke="transparent" points="633.5,-380 633.5,-438 741.5,-438 741.5,-380 633.5,-380"/>
<polygon fill="#f5f5f5" stroke="transparent" points="633.5,-416 633.5,-438 741.5,-438 741.5,-416 633.5,-416"/>
<polygon fill="none" stroke="black" points="633.5,-416 633.5,-438 741.5,-438 741.5,-416 633.5,-416"/>
<text text-anchor="start" x="638.5" y="-425.2" font-family="Helvetica,sans-Serif" font-weight="bold" font-size="11.00">externaltaxa</text>
<text text-anchor="start" x="706.5" y="-424.2" font-family="Helvetica,sans-Serif" font-size="11.00">[table]</text>
<polygon fill="none" stroke="black" points="633.5,-398 633.5,-416 741.5,-416 741.5,-398 633.5,-398"/>
<text text-anchor="start" x="636.5" y="-404.2" font-family="Helvetica,sans-Serif" font-size="11.00">...</text>
<polygon fill="#ffffff" stroke="transparent" points="633.5,-380 633.5,-398 658.5,-398 658.5,-380 633.5,-380"/>
<polygon fill="none" stroke="black" points="633.5,-380 633.5,-398 658.5,-398 658.5,-380 633.5,-380"/>
<text text-anchor="start" x="636.5" y="-386.2" font-family="Helvetica,sans-Serif" font-size="11.00">&lt; 2</text>
<polygon fill="#ffffff" stroke="transparent" points="658.5,-380 658.5,-398 726.5,-398 726.5,-380 658.5,-380"/>
<polygon fill="none" stroke="black" points="658.5,-380 658.5,-398 726.5,-398 726.5,-380 658.5,-380"/>
<text text-anchor="start" x="663.5" y="-386.2" font-family="Helvetica,sans-Serif" font-size="11.00">46,858 rows</text>
<polygon fill="#ffffff" stroke="transparent" points="726.5,-380 726.5,-398 741.5,-398 741.5,-380 726.5,-380"/>
<polygon fill="none" stroke="black" points="726.5,-380 726.5,-398 741.5,-398 741.5,-380 726.5,-380"/>
<text text-anchor="start" x="731.5" y="-386.2" font-family="Helvetica,sans-Serif" font-size="11.00"> &#160;</text>
</a>
</g>
</g>
<!-- externaltaxa&#45;&gt;externaldatabases -->
<g id="edge7" class="edge">
<title>externaltaxa:w&#45;&gt;externaldatabases:e</title>
<path fill="none" stroke="black" d="M617.95,-408.16C574.87,-415.4 565.97,-454 515,-454"/>
<polygon fill="black" stroke="black" points="624.53,-407.64 632.79,-410.59 628.51,-407.32 632.5,-407 632.5,-407 632.5,-407 628.51,-407.32 632.21,-403.41 624.53,-407.64 624.53,-407.64"/>
<ellipse fill="none" stroke="black" cx="621.34" cy="-407.89" rx="3.2" ry="3.2"/>
</g>
<!-- taxa -->
<g id="node9" class="node">
<title>taxa</title>
<g id="a_node9"><a xlink:href="../../tables/taxa.html" xlink:title="taxa" target="_top">
<polygon fill="#ffffff" stroke="transparent" points="386,-301 386,-359 502,-359 502,-301 386,-301"/>
<polygon fill="#f5f5f5" stroke="transparent" points="386,-337 386,-359 502,-359 502,-337 386,-337"/>
<polygon fill="none" stroke="black" points="386,-337 386,-359 502,-359 502,-337 386,-337"/>
<text text-anchor="start" x="391" y="-346.2" font-family="Helvetica,sans-Serif" font-weight="bold" font-size="11.00">taxa</text>
<text text-anchor="start" x="467" y="-345.2" font-family="Helvetica,sans-Serif" font-size="11.00">[table]</text>
<polygon fill="none" stroke="black" points="386,-319 386,-337 502,-337 502,-319 386,-319"/>
<text text-anchor="start" x="389" y="-325.2" font-family="Helvetica,sans-Serif" font-size="11.00">...</text>
<polygon fill="#ffffff" stroke="transparent" points="386,-301 386,-319 408,-319 408,-301 386,-301"/>
<polygon fill="none" stroke="black" points="386,-301 386,-319 408,-319 408,-301 386,-301"/>
<text text-anchor="start" x="389" y="-307.2" font-family="Helvetica,sans-Serif" font-size="11.00">&lt; 4</text>
<polygon fill="#ffffff" stroke="transparent" points="408,-301 408,-319 474,-319 474,-301 408,-301"/>
<polygon fill="none" stroke="black" points="408,-301 408,-319 474,-319 474,-301 408,-301"/>
<text text-anchor="start" x="411" y="-307.2" font-family="Helvetica,sans-Serif" font-size="11.00">47,314 rows</text>
<polygon fill="#ffffff" stroke="transparent" points="474,-301 474,-319 502,-319 502,-301 474,-301"/>
<polygon fill="none" stroke="black" points="474,-301 474,-319 502,-319 502,-301 474,-301"/>
<text text-anchor="start" x="477" y="-307.2" font-family="Helvetica,sans-Serif" font-size="11.00">17 &gt;</text>
</a>
</g>
</g>
<!-- externaltaxa&#45;&gt;taxa -->
<g id="edge8" class="edge">
<title>externaltaxa:w&#45;&gt;taxa:e</title>
<path fill="none" stroke="black" d="M618.05,-405.36C597.56,-400.15 591.64,-383.41 568,-369 538.84,-351.22 537.16,-328 503,-328"/>
<polygon fill="black" stroke="black" points="624.55,-406.1 632.1,-410.58 628.53,-406.55 632.5,-407 632.5,-407 632.5,-407 628.53,-406.55 632.9,-403.42 624.55,-406.1 624.55,-406.1"/>
<ellipse fill="none" stroke="black" cx="621.37" cy="-405.74" rx="3.2" ry="3.2"/>
</g>
<!-- taxa&#45;&gt;publications -->
<g id="edge22" class="edge">
<title>taxa:w&#45;&gt;publications:e</title>
<path fill="none" stroke="black" d="M370.39,-330.18C310.18,-350.83 395.19,-511 313.5,-511"/>
<polygon fill="black" stroke="black" points="377.09,-329.18 385.53,-331.56 381.04,-328.59 385,-328 385,-328 385,-328 381.04,-328.59 384.47,-324.44 377.09,-329.18 377.09,-329.18"/>
<ellipse fill="none" stroke="black" cx="373.92" cy="-329.65" rx="3.2" ry="3.2"/>
</g>
<!-- formtaxa -->
<g id="node10" class="node">
<title>formtaxa</title>
<g id="a_node10"><a xlink:href="../../tables/formtaxa.html" xlink:title="formtaxa" target="_top">
<polygon fill="#ffffff" stroke="transparent" points="642,-301 642,-359 733,-359 733,-301 642,-301"/>
<polygon fill="#f5f5f5" stroke="transparent" points="642.5,-337 642.5,-359 733.5,-359 733.5,-337 642.5,-337"/>
<polygon fill="none" stroke="black" points="642.5,-337 642.5,-359 733.5,-359 733.5,-337 642.5,-337"/>
<text text-anchor="start" x="647.5" y="-346.2" font-family="Helvetica,sans-Serif" font-weight="bold" font-size="11.00">formtaxa</text>
<text text-anchor="start" x="698.5" y="-345.2" font-family="Helvetica,sans-Serif" font-size="11.00">[table]</text>
<polygon fill="none" stroke="black" points="642.5,-319 642.5,-337 733.5,-337 733.5,-319 642.5,-319"/>
<text text-anchor="start" x="645.5" y="-325.2" font-family="Helvetica,sans-Serif" font-size="11.00">...</text>
<polygon fill="#ffffff" stroke="transparent" points="642.5,-301 642.5,-319 672.5,-319 672.5,-301 642.5,-301"/>
<polygon fill="none" stroke="black" points="642.5,-301 642.5,-319 672.5,-319 672.5,-301 642.5,-301"/>
<text text-anchor="start" x="645.5" y="-307.2" font-family="Helvetica,sans-Serif" font-size="11.00">&lt; 3</text>
<polygon fill="#ffffff" stroke="transparent" points="672.5,-301 672.5,-319 715.5,-319 715.5,-301 672.5,-301"/>
<polygon fill="none" stroke="black" points="672.5,-301 672.5,-319 715.5,-319 715.5,-301 672.5,-301"/>
<text text-anchor="start" x="679.5" y="-307.2" font-family="Helvetica,sans-Serif" font-size="11.00">3 rows</text>
<polygon fill="#ffffff" stroke="transparent" points="715.5,-301 715.5,-319 733.5,-319 733.5,-301 715.5,-301"/>
<polygon fill="none" stroke="black" points="715.5,-301 715.5,-319 733.5,-319 733.5,-301 715.5,-301"/>
<text text-anchor="start" x="723.5" y="-307.2" font-family="Helvetica,sans-Serif" font-size="11.00"> &#160;</text>
</a>
</g>
</g>
<!-- formtaxa&#45;&gt;publications -->
<g id="edge10" class="edge">
<title>formtaxa:w&#45;&gt;publications:e</title>
<path fill="none" stroke="black" d="M626.82,-328.89C588.89,-333.76 578.88,-357.45 535,-369 455.92,-389.82 415.88,-343.72 353,-396 311.44,-430.55 367.54,-511 313.5,-511"/>
<polygon fill="black" stroke="black" points="633.51,-328.48 641.72,-331.59 637.51,-328.24 641.5,-328 641.5,-328 641.5,-328 637.51,-328.24 641.28,-324.41 633.51,-328.48 633.51,-328.48"/>
<ellipse fill="none" stroke="black" cx="630.32" cy="-328.68" rx="3.2" ry="3.2"/>
</g>
<!-- formtaxa&#45;&gt;taxa -->
<g id="edge9" class="edge">
<title>formtaxa:w&#45;&gt;taxa:e</title>
<path fill="none" stroke="black" d="M626.91,-326.62C577.03,-322.04 559.39,-322.5 503,-328"/>
<polygon fill="black" stroke="black" points="633.54,-327.24 641.16,-331.58 637.52,-327.62 641.5,-328 641.5,-328 641.5,-328 637.52,-327.62 641.84,-324.42 633.54,-327.24 633.54,-327.24"/>
<ellipse fill="none" stroke="black" cx="630.35" cy="-326.94" rx="3.2" ry="3.2"/>
</g>
<!-- formtaxa&#45;&gt;taxa -->
<g id="edge11" class="edge">
<title>formtaxa:w&#45;&gt;taxa:e</title>
<path fill="none" stroke="black" d="M626.91,-329.62C577.03,-334.95 559.39,-334.41 503,-328"/>
<polygon fill="black" stroke="black" points="633.55,-328.88 641.9,-331.58 637.52,-328.44 641.5,-328 641.5,-328 641.5,-328 637.52,-328.44 641.1,-324.42 633.55,-328.88 633.55,-328.88"/>
<ellipse fill="none" stroke="black" cx="630.37" cy="-329.23" rx="3.2" ry="3.2"/>
</g>
<!-- geochronpublications -->
<g id="node11" class="node">
<title>geochronpublications</title>
<g id="a_node11"><a xlink:href="../../tables/geochronpublications.html" xlink:title="geochronpublications" target="_top">
<polygon fill="#ffffff" stroke="transparent" points="364.5,-195 364.5,-253 523.5,-253 523.5,-195 364.5,-195"/>
<polygon fill="#f5f5f5" stroke="transparent" points="365,-231 365,-253 524,-253 524,-231 365,-231"/>
<polygon fill="none" stroke="black" points="365,-231 365,-253 524,-253 524,-231 365,-231"/>
<text text-anchor="start" x="370" y="-240.2" font-family="Helvetica,sans-Serif" font-weight="bold" font-size="11.00">geochronpublications</text>
<text text-anchor="start" x="489" y="-239.2" font-family="Helvetica,sans-Serif" font-size="11.00">[table]</text>
<polygon fill="none" stroke="black" points="365,-213 365,-231 524,-231 524,-213 365,-213"/>
<text text-anchor="start" x="368" y="-219.2" font-family="Helvetica,sans-Serif" font-size="11.00">...</text>
<polygon fill="#ffffff" stroke="transparent" points="365,-195 365,-213 416,-213 416,-195 365,-195"/>
<polygon fill="none" stroke="black" points="365,-195 365,-213 416,-213 416,-195 365,-195"/>
<text text-anchor="start" x="368" y="-201.2" font-family="Helvetica,sans-Serif" font-size="11.00">&lt; 2</text>
<polygon fill="#ffffff" stroke="transparent" points="416,-195 416,-213 496,-213 496,-195 416,-195"/>
<polygon fill="none" stroke="black" points="416,-195 416,-213 496,-213 496,-195 416,-195"/>
<text text-anchor="start" x="433" y="-201.2" font-family="Helvetica,sans-Serif" font-size="11.00">37,711 rows</text>
<polygon fill="#ffffff" stroke="transparent" points="496,-195 496,-213 524,-213 524,-195 496,-195"/>
<polygon fill="none" stroke="black" points="496,-195 496,-213 524,-213 524,-195 496,-195"/>
<text text-anchor="start" x="514" y="-201.2" font-family="Helvetica,sans-Serif" font-size="11.00"> &#160;</text>
</a>
</g>
</g>
<!-- geochronpublications&#45;&gt;publications -->
<g id="edge12" class="edge">
<title>geochronpublications:w&#45;&gt;publications:e</title>
<path fill="none" stroke="black" d="M350.47,-227.77C311.2,-268.5 373.22,-511 313.5,-511"/>
<polygon fill="black" stroke="black" points="356.64,-225.14 365.41,-225.31 360.32,-223.57 364,-222 364,-222 364,-222 360.32,-223.57 362.59,-218.69 356.64,-225.14 356.64,-225.14"/>
<ellipse fill="none" stroke="black" cx="353.7" cy="-226.4" rx="3.2" ry="3.2"/>
</g>
<!-- publicationauthors -->
<g id="node12" class="node">
<title>publicationauthors</title>
<g id="a_node12"><a xlink:href="../../tables/publicationauthors.html" xlink:title="publicationauthors" target="_top">
<polygon fill="#ffffff" stroke="transparent" points="372,-116 372,-174 516,-174 516,-116 372,-116"/>
<polygon fill="#f5f5f5" stroke="transparent" points="372,-152 372,-174 516,-174 516,-152 372,-152"/>
<polygon fill="none" stroke="black" points="372,-152 372,-174 516,-174 516,-152 372,-152"/>
<text text-anchor="start" x="377" y="-161.2" font-family="Helvetica,sans-Serif" font-weight="bold" font-size="11.00">publicationauthors</text>
<text text-anchor="start" x="481" y="-160.2" font-family="Helvetica,sans-Serif" font-size="11.00">[table]</text>
<polygon fill="none" stroke="black" points="372,-134 372,-152 516,-152 516,-134 372,-134"/>
<text text-anchor="start" x="375" y="-140.2" font-family="Helvetica,sans-Serif" font-size="11.00">...</text>
<polygon fill="#ffffff" stroke="transparent" points="372,-116 372,-134 415,-134 415,-116 372,-116"/>
<polygon fill="none" stroke="black" points="372,-116 372,-134 415,-134 415,-116 372,-116"/>
<text text-anchor="start" x="375" y="-122.2" font-family="Helvetica,sans-Serif" font-size="11.00">&lt; 2</text>
<polygon fill="#ffffff" stroke="transparent" points="415,-116 415,-134 492,-134 492,-116 415,-116"/>
<polygon fill="none" stroke="black" points="415,-116 415,-134 492,-134 492,-116 415,-116"/>
<text text-anchor="start" x="429" y="-122.2" font-family="Helvetica,sans-Serif" font-size="11.00">31,426 rows</text>
<polygon fill="#ffffff" stroke="transparent" points="492,-116 492,-134 516,-134 516,-116 492,-116"/>
<polygon fill="none" stroke="black" points="492,-116 492,-134 516,-134 516,-116 492,-116"/>
<text text-anchor="start" x="506" y="-122.2" font-family="Helvetica,sans-Serif" font-size="11.00"> &#160;</text>
</a>
</g>
</g>
<!-- publicationauthors&#45;&gt;publications -->
<g id="edge13" class="edge">
<title>publicationauthors:w&#45;&gt;publications:e</title>
<path fill="none" stroke="black" d="M357.27,-147.39C301.36,-188.91 390.94,-511 313.5,-511"/>
<polygon fill="black" stroke="black" points="363.38,-145.44 372.1,-146.43 367.19,-144.22 371,-143 371,-143 371,-143 367.19,-144.22 369.9,-139.57 363.38,-145.44 363.38,-145.44"/>
<ellipse fill="none" stroke="black" cx="360.33" cy="-146.41" rx="3.2" ry="3.2"/>
</g>
<!-- publicationeditors -->
<g id="node13" class="node">
<title>publicationeditors</title>
<g id="a_node13"><a xlink:href="../../tables/publicationeditors.html" xlink:title="publicationeditors" target="_top">
<polygon fill="#ffffff" stroke="transparent" points="374,-37 374,-95 514,-95 514,-37 374,-37"/>
<polygon fill="#f5f5f5" stroke="transparent" points="374,-73 374,-95 514,-95 514,-73 374,-73"/>
<polygon fill="none" stroke="black" points="374,-73 374,-95 514,-95 514,-73 374,-73"/>
<text text-anchor="start" x="379" y="-82.2" font-family="Helvetica,sans-Serif" font-weight="bold" font-size="11.00">publicationeditors</text>
<text text-anchor="start" x="479" y="-81.2" font-family="Helvetica,sans-Serif" font-size="11.00">[table]</text>
<polygon fill="none" stroke="black" points="374,-55 374,-73 514,-73 514,-55 374,-55"/>
<text text-anchor="start" x="377" y="-61.2" font-family="Helvetica,sans-Serif" font-size="11.00">...</text>
<polygon fill="#ffffff" stroke="transparent" points="374,-37 374,-55 418,-55 418,-37 374,-37"/>
<polygon fill="none" stroke="black" points="374,-37 374,-55 418,-55 418,-37 374,-37"/>
<text text-anchor="start" x="377" y="-43.2" font-family="Helvetica,sans-Serif" font-size="11.00">&lt; 1</text>
<polygon fill="#ffffff" stroke="transparent" points="418,-37 418,-55 489,-55 489,-37 418,-37"/>
<polygon fill="none" stroke="black" points="418,-37 418,-55 489,-55 489,-37 418,-37"/>
<text text-anchor="start" x="432" y="-43.2" font-family="Helvetica,sans-Serif" font-size="11.00">1,517 rows</text>
<polygon fill="#ffffff" stroke="transparent" points="489,-37 489,-55 514,-55 514,-37 489,-37"/>
<polygon fill="none" stroke="black" points="489,-37 489,-55 514,-55 514,-37 489,-37"/>
<text text-anchor="start" x="504" y="-43.2" font-family="Helvetica,sans-Serif" font-size="11.00"> &#160;</text>
</a>
</g>
</g>
<!-- publicationeditors&#45;&gt;publications -->
<g id="edge14" class="edge">
<title>publicationeditors:w&#45;&gt;publications:e</title>
<path fill="none" stroke="black" d="M358.64,-67.86C287.48,-111.55 408.23,-511 313.5,-511"/>
<polygon fill="black" stroke="black" points="365.27,-66.08 373.94,-67.48 369.14,-65.04 373,-64 373,-64 373,-64 369.14,-65.04 372.06,-60.52 365.27,-66.08 365.27,-66.08"/>
<ellipse fill="none" stroke="black" cx="362.18" cy="-66.91" rx="3.2" ry="3.2"/>
</g>
<!-- publicationtranslators -->
<g id="node15" class="node">
<title>publicationtranslators</title>
<g id="a_node15"><a xlink:href="../../tables/publicationtranslators.html" xlink:title="publicationtranslators" target="_top">
<polygon fill="#ffffff" stroke="transparent" points="364,-912 364,-970 524,-970 524,-912 364,-912"/>
<polygon fill="#f5f5f5" stroke="transparent" points="364,-948 364,-970 524,-970 524,-948 364,-948"/>
<polygon fill="none" stroke="black" points="364,-948 364,-970 524,-970 524,-948 364,-948"/>
<text text-anchor="start" x="369" y="-957.2" font-family="Helvetica,sans-Serif" font-weight="bold" font-size="11.00">publicationtranslators</text>
<text text-anchor="start" x="489" y="-956.2" font-family="Helvetica,sans-Serif" font-size="11.00">[table]</text>
<polygon fill="none" stroke="black" points="364,-930 364,-948 524,-948 524,-930 364,-930"/>
<text text-anchor="start" x="367" y="-936.2" font-family="Helvetica,sans-Serif" font-size="11.00">...</text>
<polygon fill="#ffffff" stroke="transparent" points="364,-912 364,-930 429,-930 429,-912 364,-912"/>
<polygon fill="none" stroke="black" points="364,-912 364,-930 429,-930 429,-912 364,-912"/>
<text text-anchor="start" x="367" y="-918.2" font-family="Helvetica,sans-Serif" font-size="11.00">&lt; 1</text>
<polygon fill="#ffffff" stroke="transparent" points="429,-912 429,-930 489,-930 489,-912 429,-912"/>
<polygon fill="none" stroke="black" points="429,-912 429,-930 489,-930 489,-912 429,-912"/>
<text text-anchor="start" x="453" y="-918.2" font-family="Helvetica,sans-Serif" font-size="11.00">4 rows</text>
<polygon fill="#ffffff" stroke="transparent" points="489,-912 489,-930 524,-930 524,-912 489,-912"/>
<polygon fill="none" stroke="black" points="489,-912 489,-930 524,-930 524,-912 489,-912"/>
<text text-anchor="start" x="514" y="-918.2" font-family="Helvetica,sans-Serif" font-size="11.00"> &#160;</text>
</a>
</g>
</g>
<!-- publicationtranslators&#45;&gt;publications -->
<g id="edge16" class="edge">
<title>publicationtranslators:w&#45;&gt;publications:e</title>
<path fill="none" stroke="black" d="M348.93,-935.04C282.58,-891.89 403.82,-511 313.5,-511"/>
<polygon fill="black" stroke="black" points="355.3,-936.83 362.02,-942.47 359.15,-937.92 363,-939 363,-939 363,-939 359.15,-937.92 363.98,-935.53 355.3,-936.83 355.3,-936.83"/>
<ellipse fill="none" stroke="black" cx="352.22" cy="-935.96" rx="3.2" ry="3.2"/>
</g>
<!-- pubtsv -->
<g id="node16" class="node">
<title>pubtsv</title>
<g id="a_node16"><a xlink:href="../../tables/pubtsv.html" xlink:title="pubtsv" target="_top">
<polygon fill="#ffffff" stroke="transparent" points="404.5,-851 404.5,-891 483.5,-891 483.5,-851 404.5,-851"/>
<polygon fill="#f5f5f5" stroke="transparent" points="405,-869 405,-891 484,-891 484,-869 405,-869"/>
<polygon fill="none" stroke="black" points="405,-869 405,-891 484,-891 484,-869 405,-869"/>
<text text-anchor="start" x="410" y="-878.2" font-family="Helvetica,sans-Serif" font-weight="bold" font-size="11.00">pubtsv</text>
<text text-anchor="start" x="451" y="-877.2" font-family="Helvetica,sans-Serif" font-size="11.00">[view]</text>
<polygon fill="none" stroke="black" points="405,-851 405,-869 484,-869 484,-851 405,-851"/>
<text text-anchor="start" x="408" y="-857.2" font-family="Helvetica,sans-Serif" font-size="11.00">...</text>
</a>
</g>
</g>
<!-- pubtsv&#45;&gt;publications -->
<g id="edge17" class="edge">
<title>pubtsv:w&#45;&gt;publications:e</title>
<path fill="none" stroke="black" stroke-dasharray="5,2" d="M389.28,-859.78C374.28,-859.03 364.57,-855.7 353,-841 307.33,-782.96 387.36,-511 313.5,-511"/>
<polygon fill="black" stroke="black" points="396,-859.88 403.95,-863.6 400,-859.94 404,-860 404,-860 404,-860 400,-859.94 404.05,-856.4 396,-859.88 396,-859.88"/>
<ellipse fill="none" stroke="black" cx="392.8" cy="-859.83" rx="3.2" ry="3.2"/>
</g>
<!-- relativeagepublications -->
<g id="node17" class="node">
<title>relativeagepublications</title>
<g id="a_node17"><a xlink:href="../../tables/relativeagepublications.html" xlink:title="relativeagepublications" target="_top">
<polygon fill="#ffffff" stroke="transparent" points="361,-772 361,-830 527,-830 527,-772 361,-772"/>
<polygon fill="#f5f5f5" stroke="transparent" points="361,-808 361,-830 527,-830 527,-808 361,-808"/>
<polygon fill="none" stroke="black" points="361,-808 361,-830 527,-830 527,-808 361,-808"/>
<text text-anchor="start" x="366" y="-817.2" font-family="Helvetica,sans-Serif" font-weight="bold" font-size="11.00">relativeagepublications</text>
<text text-anchor="start" x="492" y="-816.2" font-family="Helvetica,sans-Serif" font-size="11.00">[table]</text>
<polygon fill="none" stroke="black" points="361,-790 361,-808 527,-808 527,-790 361,-790"/>
<text text-anchor="start" x="364" y="-796.2" font-family="Helvetica,sans-Serif" font-size="11.00">...</text>
<polygon fill="#ffffff" stroke="transparent" points="361,-772 361,-790 423,-790 423,-772 361,-772"/>
<polygon fill="none" stroke="black" points="361,-772 361,-790 423,-790 423,-772 361,-772"/>
<text text-anchor="start" x="364" y="-778.2" font-family="Helvetica,sans-Serif" font-size="11.00">&lt; 2</text>
<polygon fill="#ffffff" stroke="transparent" points="423,-772 423,-790 494,-790 494,-772 423,-772"/>
<polygon fill="none" stroke="black" points="423,-772 423,-790 494,-790 494,-772 423,-772"/>
<text text-anchor="start" x="446" y="-778.2" font-family="Helvetica,sans-Serif" font-size="11.00">115 rows</text>
<polygon fill="#ffffff" stroke="transparent" points="494,-772 494,-790 527,-790 527,-772 494,-772"/>
<polygon fill="none" stroke="black" points="494,-772 494,-790 527,-790 527,-772 494,-772"/>
<text text-anchor="start" x="517" y="-778.2" font-family="Helvetica,sans-Serif" font-size="11.00"> &#160;</text>
</a>
</g>
</g>
<!-- relativeagepublications&#45;&gt;publications -->
<g id="edge18" class="edge">
<title>relativeagepublications:w&#45;&gt;publications:e</title>
<path fill="none" stroke="black" d="M346.62,-793.25C308.1,-752.66 372.88,-511 313.5,-511"/>
<polygon fill="black" stroke="black" points="352.65,-795.84 358.58,-802.31 356.33,-797.42 360,-799 360,-799 360,-799 356.33,-797.42 361.42,-795.69 352.65,-795.84 352.65,-795.84"/>
<ellipse fill="none" stroke="black" cx="349.71" cy="-794.58" rx="3.2" ry="3.2"/>
</g>
<!-- synonymy -->
<g id="node18" class="node">
<title>synonymy</title>
<g id="a_node18"><a xlink:href="../../tables/synonymy.html" xlink:title="synonymy" target="_top">
<polygon fill="#ffffff" stroke="transparent" points="637,-222 637,-280 738,-280 738,-222 637,-222"/>
<polygon fill="#f5f5f5" stroke="transparent" points="637.5,-258 637.5,-280 738.5,-280 738.5,-258 637.5,-258"/>
<polygon fill="none" stroke="black" points="637.5,-258 637.5,-280 738.5,-280 738.5,-258 637.5,-258"/>
<text text-anchor="start" x="642.5" y="-267.2" font-family="Helvetica,sans-Serif" font-weight="bold" font-size="11.00">synonymy</text>
<text text-anchor="start" x="703.5" y="-266.2" font-family="Helvetica,sans-Serif" font-size="11.00">[table]</text>
<polygon fill="none" stroke="black" points="637.5,-240 637.5,-258 738.5,-258 738.5,-240 637.5,-240"/>
<text text-anchor="start" x="640.5" y="-246.2" font-family="Helvetica,sans-Serif" font-size="11.00">...</text>
<polygon fill="#ffffff" stroke="transparent" points="637.5,-222 637.5,-240 659.5,-240 659.5,-222 637.5,-222"/>
<polygon fill="none" stroke="black" points="637.5,-222 637.5,-240 659.5,-240 659.5,-222 637.5,-222"/>
<text text-anchor="start" x="640.5" y="-228.2" font-family="Helvetica,sans-Serif" font-size="11.00">&lt; 5</text>
<polygon fill="#ffffff" stroke="transparent" points="659.5,-222 659.5,-240 725.5,-240 725.5,-222 659.5,-222"/>
<polygon fill="none" stroke="black" points="659.5,-222 659.5,-240 725.5,-240 725.5,-222 659.5,-222"/>
<text text-anchor="start" x="662.5" y="-228.2" font-family="Helvetica,sans-Serif" font-size="11.00">38,985 rows</text>
<polygon fill="#ffffff" stroke="transparent" points="725.5,-222 725.5,-240 738.5,-240 738.5,-222 725.5,-222"/>
<polygon fill="none" stroke="black" points="725.5,-222 725.5,-240 738.5,-240 738.5,-222 725.5,-222"/>
<text text-anchor="start" x="728.5" y="-228.2" font-family="Helvetica,sans-Serif" font-size="11.00"> &#160;</text>
</a>
</g>
</g>
<!-- synonymy&#45;&gt;publications -->
<g id="edge19" class="edge">
<title>synonymy:w&#45;&gt;publications:e</title>
<path fill="none" stroke="black" d="M621.91,-250.97C564.08,-258.98 354.24,-288.8 353,-290 281.28,-359.37 413.28,-511 313.5,-511"/>
<polygon fill="black" stroke="black" points="628.57,-250.07 636.98,-252.57 632.54,-249.53 636.5,-249 636.5,-249 636.5,-249 632.54,-249.53 636.02,-245.43 628.57,-250.07 628.57,-250.07"/>
<ellipse fill="none" stroke="black" cx="625.4" cy="-250.5" rx="3.2" ry="3.2"/>
</g>
<!-- synonymy&#45;&gt;taxa -->
<g id="edge20" class="edge">
<title>synonymy:w&#45;&gt;taxa:e</title>
<path fill="none" stroke="black" d="M621.8,-250.58C585.88,-262.15 533.03,-322.77 503,-328"/>
<polygon fill="black" stroke="black" points="628.55,-249.85 636.88,-252.58 632.52,-249.43 636.5,-249 636.5,-249 636.5,-249 632.52,-249.43 636.12,-245.42 628.55,-249.85 628.55,-249.85"/>
<ellipse fill="none" stroke="black" cx="625.36" cy="-250.2" rx="3.2" ry="3.2"/>
</g>
<!-- synonymy&#45;&gt;taxa -->
<g id="edge21" class="edge">
<title>synonymy:w&#45;&gt;taxa:e</title>
<path fill="none" stroke="black" d="M622.76,-254.43C586.83,-273.87 533.3,-334.15 503,-328"/>
<polygon fill="black" stroke="black" points="629.06,-251.94 637.82,-252.35 632.78,-250.47 636.5,-249 636.5,-249 636.5,-249 632.78,-250.47 635.18,-245.65 629.06,-251.94 629.06,-251.94"/>
<ellipse fill="none" stroke="black" cx="626.08" cy="-253.12" rx="3.2" ry="3.2"/>
</g>
</g>
</svg>
