<?xml version="1.0" encoding="UTF-8" standalone="no"?>
<!DOCTYPE svg PUBLIC "-//W3C//DTD SVG 1.1//EN"
 "http://www.w3.org/Graphics/SVG/1.1/DTD/svg11.dtd">
<!-- Generated by graphviz version 2.43.0 (0)
 -->
<!-- Title: oneDegreeRelationshipsDiagram Pages: 1 -->
<svg width="411pt" height="340pt"
 viewBox="0.00 0.00 411.00 340.00" xmlns="http://www.w3.org/2000/svg" xmlns:xlink="http://www.w3.org/1999/xlink">
<g id="graph0" class="graph" transform="scale(1 1) rotate(0) translate(4 336)">
<title>oneDegreeRelationshipsDiagram</title>
<polygon fill="#ffffff" stroke="transparent" points="-4,4 -4,-336 407,-336 407,4 -4,4"/>
<text text-anchor="middle" x="71.5" y="-7.2" font-family="Helvetica,sans-Serif" font-size="11.00">Generated by SchemaSpy</text>
<!-- externaltaxa -->
<g id="node1" class="node">
<title>externaltaxa</title>
<g id="a_node1"><a xlink:href="../../tables/externaltaxa.html" xlink:title="externaltaxa" target="_top">
<polygon fill="#ffffff" stroke="transparent" points="197,-59 197,-235 395,-235 395,-59 197,-59"/>
<polygon fill="#f5f5f5" stroke="transparent" points="199,-211 199,-233 393,-233 393,-211 199,-211"/>
<polygon fill="none" stroke="black" points="199,-211 199,-233 393,-233 393,-211 199,-211"/>
<text text-anchor="start" x="204" y="-220.2" font-family="Helvetica,sans-Serif" font-weight="bold" font-size="11.00">externaltaxa</text>
<text text-anchor="start" x="358" y="-219.2" font-family="Helvetica,sans-Serif" font-size="11.00">[table]</text>
<polygon fill="none" stroke="black" points="199,-189 199,-211 319,-211 319,-189 199,-189"/>
<image xlink:href="../../images/primaryKeys.png" width="11px" height="12px" preserveAspectRatio="xMinYMin meet" x="204" y="-206"/>
<text text-anchor="start" x="219" y="-197.2" font-family="Helvetica,sans-Serif" font-size="11.00">taxonid</text>
<polygon fill="none" stroke="black" points="319,-189 319,-211 393,-211 393,-189 319,-189"/>
<text text-anchor="start" x="322" y="-197.2" font-family="Helvetica,sans-Serif" font-size="11.00">int4[10]</text>
<polygon fill="none" stroke="black" points="199,-167 199,-189 319,-189 319,-167 199,-167"/>
<image xlink:href="../../images/primaryKeys.png" width="11px" height="12px" preserveAspectRatio="xMinYMin meet" x="204" y="-184"/>
<text text-anchor="start" x="219" y="-175.2" font-family="Helvetica,sans-Serif" font-size="11.00">extdatabaseid</text>
<polygon fill="none" stroke="black" points="319,-167 319,-189 393,-189 393,-167 319,-167"/>
<text text-anchor="start" x="322" y="-175.2" font-family="Helvetica,sans-Serif" font-size="11.00">int4[10]</text>
<polygon fill="none" stroke="black" points="199,-145 199,-167 319,-167 319,-145 199,-145"/>
<image xlink:href="../../images/primaryKeys.png" width="11px" height="12px" preserveAspectRatio="xMinYMin meet" x="204" y="-162"/>
<text text-anchor="start" x="219" y="-153.2" font-family="Helvetica,sans-Serif" font-size="11.00">exttaxonid</text>
<polygon fill="none" stroke="black" points="319,-145 319,-167 393,-167 393,-145 319,-145"/>
<text text-anchor="start" x="322" y="-153.2" font-family="Helvetica,sans-Serif" font-size="11.00">varchar[64]</text>
<polygon fill="none" stroke="black" points="199,-123 199,-145 319,-145 319,-123 199,-123"/>
<text text-anchor="start" x="219" y="-131.2" font-family="Helvetica,sans-Serif" font-size="11.00">url</text>
<polygon fill="none" stroke="black" points="319,-123 319,-145 393,-145 393,-123 319,-123"/>
<text text-anchor="start" x="322" y="-131.2" font-family="Helvetica,sans-Serif" font-size="11.00">varchar[128]</text>
<polygon fill="none" stroke="black" points="199,-101 199,-123 319,-123 319,-101 199,-101"/>
<text text-anchor="start" x="219" y="-109.2" font-family="Helvetica,sans-Serif" font-size="11.00">recdatecreated</text>
<polygon fill="none" stroke="black" points="319,-101 319,-123 393,-123 393,-101 319,-101"/>
<text text-anchor="start" x="322" y="-109.2" font-family="Helvetica,sans-Serif" font-size="11.00">timestamp[22]</text>
<polygon fill="none" stroke="black" points="199,-79 199,-101 319,-101 319,-79 199,-79"/>
<text text-anchor="start" x="219" y="-87.2" font-family="Helvetica,sans-Serif" font-size="11.00">recdatemodified</text>
<polygon fill="none" stroke="black" points="319,-79 319,-101 393,-101 393,-79 319,-79"/>
<text text-anchor="start" x="322" y="-87.2" font-family="Helvetica,sans-Serif" font-size="11.00">timestamp[22]</text>
<polygon fill="#ffffff" stroke="transparent" points="199,-61 199,-79 237,-79 237,-61 199,-61"/>
<polygon fill="none" stroke="black" points="199,-61 199,-79 237,-79 237,-61 199,-61"/>
<text text-anchor="start" x="202" y="-67.2" font-family="Helvetica,sans-Serif" font-size="11.00">&lt; 2</text>
<polygon fill="#ffffff" stroke="transparent" points="237,-61 237,-79 319,-79 319,-61 237,-61"/>
<polygon fill="none" stroke="black" points="237,-61 237,-79 319,-79 319,-61 237,-61"/>
<text text-anchor="start" x="256" y="-67.2" font-family="Helvetica,sans-Serif" font-size="11.00">46,858 rows</text>
<polygon fill="#ffffff" stroke="transparent" points="319,-61 319,-79 393,-79 393,-61 319,-61"/>
<polygon fill="none" stroke="black" points="319,-61 319,-79 393,-79 393,-61 319,-61"/>
<text text-anchor="start" x="374" y="-67.2" font-family="Helvetica,sans-Serif" font-size="11.00">0 &gt;</text>
<polygon fill="none" stroke="black" stroke-width="2" points="198,-60 198,-234 394,-234 394,-60 198,-60"/>
</a>
</g>
</g>
<!-- externaldatabases -->
<g id="node2" class="node">
<title>externaldatabases</title>
<g id="a_node2"><a xlink:href="../../tables/externaldatabases.html" xlink:title="externaldatabases" target="_top">
<polygon fill="#ffffff" stroke="transparent" points="8,-37 8,-117 148,-117 148,-37 8,-37"/>
<polygon fill="#f5f5f5" stroke="transparent" points="8,-95 8,-117 148,-117 148,-95 8,-95"/>
<polygon fill="none" stroke="black" points="8,-95 8,-117 148,-117 148,-95 8,-95"/>
<text text-anchor="start" x="13" y="-104.2" font-family="Helvetica,sans-Serif" font-weight="bold" font-size="11.00">externaldatabases</text>
<text text-anchor="start" x="113" y="-103.2" font-family="Helvetica,sans-Serif" font-size="11.00">[table]</text>
<polygon fill="none" stroke="black" points="8,-73 8,-95 148,-95 148,-73 8,-73"/>
<image xlink:href="../../images/primaryKeys.png" width="11px" height="12px" preserveAspectRatio="xMinYMin meet" x="13" y="-90"/>
<text text-anchor="start" x="32" y="-81.2" font-family="Helvetica,sans-Serif" font-size="11.00">extdatabaseid</text>
<polygon fill="none" stroke="black" points="8,-55 8,-73 148,-73 148,-55 8,-55"/>
<text text-anchor="start" x="11" y="-61.2" font-family="Helvetica,sans-Serif" font-size="11.00">...</text>
<polygon fill="#ffffff" stroke="transparent" points="8,-37 8,-55 54,-55 54,-37 8,-37"/>
<polygon fill="none" stroke="black" points="8,-37 8,-55 54,-55 54,-37 8,-37"/>
<text text-anchor="start" x="11" y="-43.2" font-family="Helvetica,sans-Serif" font-size="11.00"> &#160;</text>
<polygon fill="#ffffff" stroke="transparent" points="54,-37 54,-55 109,-55 109,-37 54,-37"/>
<polygon fill="none" stroke="black" points="54,-37 54,-55 109,-55 109,-37 54,-37"/>
<text text-anchor="start" x="73" y="-43.2" font-family="Helvetica,sans-Serif" font-size="11.00">9 rows</text>
<polygon fill="#ffffff" stroke="transparent" points="109,-37 109,-55 148,-55 148,-37 109,-37"/>
<polygon fill="none" stroke="black" points="109,-37 109,-55 148,-55 148,-37 109,-37"/>
<text text-anchor="start" x="129" y="-43.2" font-family="Helvetica,sans-Serif" font-size="11.00">3 &gt;</text>
</a>
</g>
</g>
<!-- externaltaxa&#45;&gt;externaldatabases -->
<g id="edge1" class="edge">
<title>externaltaxa:w&#45;&gt;externaldatabases:e</title>
<path fill="none" stroke="black" d="M183.99,-173.72C161.01,-155.33 190.04,-84 149,-84"/>
<polygon fill="black" stroke="black" points="190.35,-175.66 196.95,-181.44 194.17,-176.83 198,-178 198,-178 198,-178 194.17,-176.83 199.05,-174.56 190.35,-175.66 190.35,-175.66"/>
<ellipse fill="none" stroke="black" cx="187.29" cy="-174.73" rx="3.2" ry="3.2"/>
</g>
<!-- taxa -->
<g id="node3" class="node">
<title>taxa</title>
<g id="a_node3"><a xlink:href="../../tables/taxa.html" xlink:title="taxa" target="_top">
<polygon fill="#ffffff" stroke="transparent" points="18,-138 18,-328 138,-328 138,-138 18,-138"/>
<polygon fill="#f5f5f5" stroke="transparent" points="18,-306 18,-328 138,-328 138,-306 18,-306"/>
<polygon fill="none" stroke="black" points="18,-306 18,-328 138,-328 138,-306 18,-306"/>
<text text-anchor="start" x="23" y="-315.2" font-family="Helvetica,sans-Serif" font-weight="bold" font-size="11.00">taxa</text>
<text text-anchor="start" x="103" y="-314.2" font-family="Helvetica,sans-Serif" font-size="11.00">[table]</text>
<polygon fill="none" stroke="black" points="18,-284 18,-306 138,-306 138,-284 18,-284"/>
<image xlink:href="../../images/primaryKeys.png" width="11px" height="12px" preserveAspectRatio="xMinYMin meet" x="23" y="-301"/>
<text text-anchor="start" x="38" y="-292.2" font-family="Helvetica,sans-Serif" font-size="11.00">taxonid</text>
<polygon fill="#ffffff" stroke="transparent" points="18,-262 18,-284 138,-284 138,-262 18,-262"/>
<polygon fill="none" stroke="black" points="18,-262 18,-284 138,-284 138,-262 18,-262"/>
<text text-anchor="start" x="38" y="-270.2" font-family="Helvetica,sans-Serif" font-size="11.00">taxonname</text>
<polygon fill="none" stroke="black" points="18,-240 18,-262 138,-262 138,-240 18,-240"/>
<image xlink:href="../../images/foreignKeys.png" width="11px" height="12px" preserveAspectRatio="xMinYMin meet" x="23" y="-257"/>
<text text-anchor="start" x="38" y="-248.2" font-family="Helvetica,sans-Serif" font-size="11.00">highertaxonid</text>
<polygon fill="#ffffff" stroke="transparent" points="18,-218 18,-240 138,-240 138,-218 18,-218"/>
<polygon fill="none" stroke="black" points="18,-218 18,-240 138,-240 138,-218 18,-218"/>
<image xlink:href="../../images/foreignKeys.png" width="11px" height="12px" preserveAspectRatio="xMinYMin meet" x="23" y="-235"/>
<text text-anchor="start" x="38" y="-226.2" font-family="Helvetica,sans-Serif" font-size="11.00">taxagroupid</text>
<polygon fill="none" stroke="black" points="18,-196 18,-218 138,-218 138,-196 18,-196"/>
<image xlink:href="../../images/foreignKeys.png" width="11px" height="12px" preserveAspectRatio="xMinYMin meet" x="23" y="-213"/>
<text text-anchor="start" x="38" y="-204.2" font-family="Helvetica,sans-Serif" font-size="11.00">publicationid</text>
<polygon fill="none" stroke="black" points="18,-174 18,-196 138,-196 138,-174 18,-174"/>
<image xlink:href="../../images/foreignKeys.png" width="11px" height="12px" preserveAspectRatio="xMinYMin meet" x="23" y="-191"/>
<text text-anchor="start" x="38" y="-182.2" font-family="Helvetica,sans-Serif" font-size="11.00">validatorid</text>
<polygon fill="none" stroke="black" points="18,-156 18,-174 138,-174 138,-156 18,-156"/>
<text text-anchor="start" x="21" y="-162.2" font-family="Helvetica,sans-Serif" font-size="11.00">...</text>
<polygon fill="#ffffff" stroke="transparent" points="18,-138 18,-156 42,-156 42,-138 18,-138"/>
<polygon fill="none" stroke="black" points="18,-138 18,-156 42,-156 42,-138 18,-138"/>
<text text-anchor="start" x="21" y="-144.2" font-family="Helvetica,sans-Serif" font-size="11.00">&lt; 4</text>
<polygon fill="#ffffff" stroke="transparent" points="42,-138 42,-156 109,-156 109,-138 42,-138"/>
<polygon fill="none" stroke="black" points="42,-138 42,-156 109,-156 109,-138 42,-138"/>
<text text-anchor="start" x="46" y="-144.2" font-family="Helvetica,sans-Serif" font-size="11.00">46,322 rows</text>
<polygon fill="#ffffff" stroke="transparent" points="109,-138 109,-156 138,-156 138,-138 109,-138"/>
<polygon fill="none" stroke="black" points="109,-138 109,-156 138,-156 138,-138 109,-138"/>
<text text-anchor="start" x="113" y="-144.2" font-family="Helvetica,sans-Serif" font-size="11.00">17 &gt;</text>
</a>
</g>
</g>
<!-- externaltaxa&#45;&gt;taxa -->
<g id="edge2" class="edge">
<title>externaltaxa:w&#45;&gt;taxa:e</title>
<path fill="none" stroke="black" d="M183.95,-203.61C156.53,-220.96 182.88,-295 139,-295"/>
<polygon fill="black" stroke="black" points="190.25,-201.99 198.9,-203.49 194.13,-200.99 198,-200 198,-200 198,-200 194.13,-200.99 197.1,-196.51 190.25,-201.99 190.25,-201.99"/>
<ellipse fill="none" stroke="black" cx="187.15" cy="-202.79" rx="3.2" ry="3.2"/>
</g>
</g>
</svg>
