<?xml version="1.0" encoding="UTF-8" standalone="no"?>
<!DOCTYPE svg PUBLIC "-//W3C//DTD SVG 1.1//EN"
 "http://www.w3.org/Graphics/SVG/1.1/DTD/svg11.dtd">
<!-- Generated by graphviz version 2.43.0 (0)
 -->
<!-- Title: twoDegreesRelationshipsDiagram Pages: 1 -->
<svg width="815pt" height="953pt"
 viewBox="0.00 0.00 815.00 953.00" xmlns="http://www.w3.org/2000/svg" xmlns:xlink="http://www.w3.org/1999/xlink">
<g id="graph0" class="graph" transform="scale(1 1) rotate(0) translate(4 949)">
<title>twoDegreesRelationshipsDiagram</title>
<polygon fill="#ffffff" stroke="transparent" points="-4,4 -4,-949 811,-949 811,4 -4,4"/>
<text text-anchor="middle" x="71.5" y="-7.2" font-family="Helvetica,sans-Serif" font-size="11.00">Generated by SchemaSpy</text>
<!-- calibrationcurves -->
<g id="node1" class="node">
<title>calibrationcurves</title>
<g id="a_node1"><a xlink:href="../../tables/calibrationcurves.html" xlink:title="calibrationcurves" target="_top">
<polygon fill="#ffffff" stroke="transparent" points="376.5,-723 376.5,-781 511.5,-781 511.5,-723 376.5,-723"/>
<polygon fill="#f5f5f5" stroke="transparent" points="377,-759 377,-781 512,-781 512,-759 377,-759"/>
<polygon fill="none" stroke="black" points="377,-759 377,-781 512,-781 512,-759 377,-759"/>
<text text-anchor="start" x="382" y="-768.2" font-family="Helvetica,sans-Serif" font-weight="bold" font-size="11.00">calibrationcurves</text>
<text text-anchor="start" x="477" y="-767.2" font-family="Helvetica,sans-Serif" font-size="11.00">[table]</text>
<polygon fill="none" stroke="black" points="377,-741 377,-759 512,-759 512,-741 377,-741"/>
<text text-anchor="start" x="380" y="-747.2" font-family="Helvetica,sans-Serif" font-size="11.00">...</text>
<polygon fill="#ffffff" stroke="transparent" points="377,-723 377,-741 422,-741 422,-723 377,-723"/>
<polygon fill="none" stroke="black" points="377,-723 377,-741 422,-741 422,-723 377,-723"/>
<text text-anchor="start" x="380" y="-729.2" font-family="Helvetica,sans-Serif" font-size="11.00">&lt; 1</text>
<polygon fill="#ffffff" stroke="transparent" points="422,-723 422,-741 478,-741 478,-723 422,-723"/>
<polygon fill="none" stroke="black" points="422,-723 422,-741 478,-741 478,-723 422,-723"/>
<text text-anchor="start" x="436" y="-729.2" font-family="Helvetica,sans-Serif" font-size="11.00">15 rows</text>
<polygon fill="#ffffff" stroke="transparent" points="478,-723 478,-741 512,-741 512,-723 478,-723"/>
<polygon fill="none" stroke="black" points="478,-723 478,-741 512,-741 512,-723 478,-723"/>
<text text-anchor="start" x="493" y="-729.2" font-family="Helvetica,sans-Serif" font-size="11.00">2 &gt;</text>
</a>
</g>
</g>
<!-- publications -->
<g id="node2" class="node">
<title>publications</title>
<g id="a_node2"><a xlink:href="../../tables/publications.html" xlink:title="publications" target="_top">
<polygon fill="#ffffff" stroke="transparent" points="189,-391 189,-493 312,-493 312,-391 189,-391"/>
<polygon fill="#f5f5f5" stroke="transparent" points="189.5,-471 189.5,-493 312.5,-493 312.5,-471 189.5,-471"/>
<polygon fill="none" stroke="black" points="189.5,-471 189.5,-493 312.5,-493 312.5,-471 189.5,-471"/>
<text text-anchor="start" x="194.5" y="-480.2" font-family="Helvetica,sans-Serif" font-weight="bold" font-size="11.00">publications</text>
<text text-anchor="start" x="277.5" y="-479.2" font-family="Helvetica,sans-Serif" font-size="11.00">[table]</text>
<polygon fill="none" stroke="black" points="189.5,-449 189.5,-471 312.5,-471 312.5,-449 189.5,-449"/>
<image xlink:href="../../images/primaryKeys.png" width="11px" height="12px" preserveAspectRatio="xMinYMin meet" x="194.5" y="-466"/>
<text text-anchor="start" x="209.5" y="-457.2" font-family="Helvetica,sans-Serif" font-size="11.00">publicationid</text>
<polygon fill="none" stroke="black" points="189.5,-427 189.5,-449 312.5,-449 312.5,-427 189.5,-427"/>
<image xlink:href="../../images/foreignKeys.png" width="11px" height="12px" preserveAspectRatio="xMinYMin meet" x="194.5" y="-444"/>
<text text-anchor="start" x="209.5" y="-435.2" font-family="Helvetica,sans-Serif" font-size="11.00">pubtypeid</text>
<polygon fill="none" stroke="black" points="189.5,-409 189.5,-427 312.5,-427 312.5,-409 189.5,-409"/>
<text text-anchor="start" x="192.5" y="-415.2" font-family="Helvetica,sans-Serif" font-size="11.00">...</text>
<polygon fill="#ffffff" stroke="transparent" points="189.5,-391 189.5,-409 214.5,-409 214.5,-391 189.5,-391"/>
<polygon fill="none" stroke="black" points="189.5,-391 189.5,-409 214.5,-409 214.5,-391 189.5,-391"/>
<text text-anchor="start" x="192.5" y="-397.2" font-family="Helvetica,sans-Serif" font-size="11.00">&lt; 1</text>
<polygon fill="#ffffff" stroke="transparent" points="214.5,-391 214.5,-409 282.5,-409 282.5,-391 214.5,-391"/>
<polygon fill="none" stroke="black" points="214.5,-391 214.5,-409 282.5,-409 282.5,-391 214.5,-391"/>
<text text-anchor="start" x="219.5" y="-397.2" font-family="Helvetica,sans-Serif" font-size="11.00">13,466 rows</text>
<polygon fill="#ffffff" stroke="transparent" points="282.5,-391 282.5,-409 312.5,-409 312.5,-391 282.5,-391"/>
<polygon fill="none" stroke="black" points="282.5,-391 282.5,-409 312.5,-409 312.5,-391 282.5,-391"/>
<text text-anchor="start" x="287.5" y="-397.2" font-family="Helvetica,sans-Serif" font-size="11.00">12 &gt;</text>
</a>
</g>
</g>
<!-- calibrationcurves&#45;&gt;publications -->
<g id="edge1" class="edge">
<title>calibrationcurves:w&#45;&gt;publications:e</title>
<path fill="none" stroke="black" d="M362.36,-744.47C320.54,-704.37 374.02,-460 313.5,-460"/>
<polygon fill="black" stroke="black" points="368.59,-746.99 374.65,-753.34 372.29,-748.5 376,-750 376,-750 376,-750 372.29,-748.5 377.35,-746.66 368.59,-746.99 368.59,-746.99"/>
<ellipse fill="none" stroke="black" cx="365.62" cy="-745.79" rx="3.2" ry="3.2"/>
</g>
<!-- publicationtypes -->
<g id="node14" class="node">
<title>publicationtypes</title>
<g id="a_node14"><a xlink:href="../../tables/publicationtypes.html" xlink:title="publicationtypes" target="_top">
<polygon fill="#ffffff" stroke="transparent" points="8,-411 8,-469 140,-469 140,-411 8,-411"/>
<polygon fill="#f5f5f5" stroke="transparent" points="8,-447 8,-469 140,-469 140,-447 8,-447"/>
<polygon fill="none" stroke="black" points="8,-447 8,-469 140,-469 140,-447 8,-447"/>
<text text-anchor="start" x="13" y="-456.2" font-family="Helvetica,sans-Serif" font-weight="bold" font-size="11.00">publicationtypes</text>
<text text-anchor="start" x="105" y="-455.2" font-family="Helvetica,sans-Serif" font-size="11.00">[table]</text>
<polygon fill="none" stroke="black" points="8,-429 8,-447 140,-447 140,-429 8,-429"/>
<text text-anchor="start" x="11" y="-435.2" font-family="Helvetica,sans-Serif" font-size="11.00">...</text>
<polygon fill="#ffffff" stroke="transparent" points="8,-411 8,-429 47,-429 47,-411 8,-411"/>
<polygon fill="none" stroke="black" points="8,-411 8,-429 47,-429 47,-411 8,-411"/>
<text text-anchor="start" x="11" y="-417.2" font-family="Helvetica,sans-Serif" font-size="11.00"> &#160;</text>
<polygon fill="#ffffff" stroke="transparent" points="47,-411 47,-429 105,-429 105,-411 47,-411"/>
<polygon fill="none" stroke="black" points="47,-411 47,-429 105,-429 105,-411 47,-411"/>
<text text-anchor="start" x="63" y="-417.2" font-family="Helvetica,sans-Serif" font-size="11.00">13 rows</text>
<polygon fill="#ffffff" stroke="transparent" points="105,-411 105,-429 140,-429 140,-411 105,-411"/>
<polygon fill="none" stroke="black" points="105,-411 105,-429 140,-429 140,-411 105,-411"/>
<text text-anchor="start" x="121" y="-417.2" font-family="Helvetica,sans-Serif" font-size="11.00">1 &gt;</text>
</a>
</g>
</g>
<!-- publications&#45;&gt;publicationtypes -->
<g id="edge15" class="edge">
<title>publications:w&#45;&gt;publicationtypes:e</title>
<path fill="none" stroke="black" d="M174.09,-438C163.32,-438 156.34,-438 141,-438"/>
<polygon fill="black" stroke="black" points="180.5,-438 188.5,-441.6 184.5,-438 188.5,-438 188.5,-438 188.5,-438 184.5,-438 188.5,-434.4 180.5,-438 180.5,-438"/>
<ellipse fill="none" stroke="black" cx="177.3" cy="-438" rx="3.2" ry="3.2"/>
</g>
<!-- contactreferences -->
<g id="node3" class="node">
<title>contactreferences</title>
<g id="a_node3"><a xlink:href="../../tables/contactreferences.html" xlink:title="contactreferences" target="_top">
<polygon fill="#ffffff" stroke="transparent" points="618,-708 618,-766 757,-766 757,-708 618,-708"/>
<polygon fill="#f5f5f5" stroke="transparent" points="618.5,-744 618.5,-766 757.5,-766 757.5,-744 618.5,-744"/>
<polygon fill="none" stroke="black" points="618.5,-744 618.5,-766 757.5,-766 757.5,-744 618.5,-744"/>
<text text-anchor="start" x="623.5" y="-753.2" font-family="Helvetica,sans-Serif" font-weight="bold" font-size="11.00">contactreferences</text>
<text text-anchor="start" x="722.5" y="-752.2" font-family="Helvetica,sans-Serif" font-size="11.00">[table]</text>
<polygon fill="none" stroke="black" points="618.5,-726 618.5,-744 757.5,-744 757.5,-726 618.5,-726"/>
<text text-anchor="start" x="621.5" y="-732.2" font-family="Helvetica,sans-Serif" font-size="11.00">...</text>
<polygon fill="#ffffff" stroke="transparent" points="618.5,-708 618.5,-726 666.5,-726 666.5,-708 618.5,-708"/>
<polygon fill="none" stroke="black" points="618.5,-708 618.5,-726 666.5,-726 666.5,-708 618.5,-708"/>
<text text-anchor="start" x="621.5" y="-714.2" font-family="Helvetica,sans-Serif" font-size="11.00">&lt; 2</text>
<polygon fill="#ffffff" stroke="transparent" points="666.5,-708 666.5,-726 730.5,-726 730.5,-708 666.5,-708"/>
<polygon fill="none" stroke="black" points="666.5,-708 666.5,-726 730.5,-726 730.5,-708 666.5,-708"/>
<text text-anchor="start" x="682.5" y="-714.2" font-family="Helvetica,sans-Serif" font-size="11.00">662 rows</text>
<polygon fill="#ffffff" stroke="transparent" points="730.5,-708 730.5,-726 757.5,-726 757.5,-708 730.5,-708"/>
<polygon fill="none" stroke="black" points="730.5,-708 730.5,-726 757.5,-726 757.5,-708 730.5,-708"/>
<text text-anchor="start" x="747.5" y="-714.2" font-family="Helvetica,sans-Serif" font-size="11.00"> &#160;</text>
</a>
</g>
</g>
<!-- externaldatabases -->
<g id="node4" class="node">
<title>externaldatabases</title>
<g id="a_node4"><a xlink:href="../../tables/externaldatabases.html" xlink:title="externaldatabases" target="_top">
<polygon fill="#ffffff" stroke="transparent" points="374,-802 374,-882 514,-882 514,-802 374,-802"/>
<polygon fill="#f5f5f5" stroke="transparent" points="374,-860 374,-882 514,-882 514,-860 374,-860"/>
<polygon fill="none" stroke="black" points="374,-860 374,-882 514,-882 514,-860 374,-860"/>
<text text-anchor="start" x="379" y="-869.2" font-family="Helvetica,sans-Serif" font-weight="bold" font-size="11.00">externaldatabases</text>
<text text-anchor="start" x="479" y="-868.2" font-family="Helvetica,sans-Serif" font-size="11.00">[table]</text>
<polygon fill="none" stroke="black" points="374,-838 374,-860 514,-860 514,-838 374,-838"/>
<image xlink:href="../../images/primaryKeys.png" width="11px" height="12px" preserveAspectRatio="xMinYMin meet" x="379" y="-855"/>
<text text-anchor="start" x="398" y="-846.2" font-family="Helvetica,sans-Serif" font-size="11.00">extdatabaseid</text>
<polygon fill="none" stroke="black" points="374,-820 374,-838 514,-838 514,-820 374,-820"/>
<text text-anchor="start" x="377" y="-826.2" font-family="Helvetica,sans-Serif" font-size="11.00">...</text>
<polygon fill="#ffffff" stroke="transparent" points="374,-802 374,-820 420,-820 420,-802 374,-802"/>
<polygon fill="none" stroke="black" points="374,-802 374,-820 420,-820 420,-802 374,-802"/>
<text text-anchor="start" x="377" y="-808.2" font-family="Helvetica,sans-Serif" font-size="11.00"> &#160;</text>
<polygon fill="#ffffff" stroke="transparent" points="420,-802 420,-820 475,-820 475,-802 420,-802"/>
<polygon fill="none" stroke="black" points="420,-802 420,-820 475,-820 475,-802 420,-802"/>
<text text-anchor="start" x="439" y="-808.2" font-family="Helvetica,sans-Serif" font-size="11.00">9 rows</text>
<polygon fill="#ffffff" stroke="transparent" points="475,-802 475,-820 514,-820 514,-802 475,-802"/>
<polygon fill="none" stroke="black" points="475,-802 475,-820 514,-820 514,-802 475,-802"/>
<text text-anchor="start" x="495" y="-808.2" font-family="Helvetica,sans-Serif" font-size="11.00">3 &gt;</text>
</a>
</g>
</g>
<!-- contactreferences&#45;&gt;externaldatabases -->
<g id="edge2" class="edge">
<title>contactreferences:w&#45;&gt;externaldatabases:e</title>
<path fill="none" stroke="black" d="M602.98,-737.41C587.48,-743.5 583.69,-760.19 568,-777 540.89,-806.05 554.73,-849 515,-849"/>
<polygon fill="black" stroke="black" points="609.61,-736.31 618.09,-738.55 613.55,-735.66 617.5,-735 617.5,-735 617.5,-735 613.55,-735.66 616.91,-731.45 609.61,-736.31 609.61,-736.31"/>
<ellipse fill="none" stroke="black" cx="606.45" cy="-736.84" rx="3.2" ry="3.2"/>
</g>
<!-- datasetpublications -->
<g id="node5" class="node">
<title>datasetpublications</title>
<g id="a_node5"><a xlink:href="../../tables/datasetpublications.html" xlink:title="datasetpublications" target="_top">
<polygon fill="#ffffff" stroke="transparent" points="370.5,-644 370.5,-702 517.5,-702 517.5,-644 370.5,-644"/>
<polygon fill="#f5f5f5" stroke="transparent" points="371,-680 371,-702 518,-702 518,-680 371,-680"/>
<polygon fill="none" stroke="black" points="371,-680 371,-702 518,-702 518,-680 371,-680"/>
<text text-anchor="start" x="376" y="-689.2" font-family="Helvetica,sans-Serif" font-weight="bold" font-size="11.00">datasetpublications</text>
<text text-anchor="start" x="483" y="-688.2" font-family="Helvetica,sans-Serif" font-size="11.00">[table]</text>
<polygon fill="none" stroke="black" points="371,-662 371,-680 518,-680 518,-662 371,-662"/>
<text text-anchor="start" x="374" y="-668.2" font-family="Helvetica,sans-Serif" font-size="11.00">...</text>
<polygon fill="#ffffff" stroke="transparent" points="371,-644 371,-662 416,-662 416,-644 371,-644"/>
<polygon fill="none" stroke="black" points="371,-644 371,-662 416,-662 416,-644 371,-644"/>
<text text-anchor="start" x="374" y="-650.2" font-family="Helvetica,sans-Serif" font-size="11.00">&lt; 2</text>
<polygon fill="#ffffff" stroke="transparent" points="416,-644 416,-662 493,-662 493,-644 416,-644"/>
<polygon fill="none" stroke="black" points="416,-644 416,-662 493,-662 493,-644 416,-644"/>
<text text-anchor="start" x="430" y="-650.2" font-family="Helvetica,sans-Serif" font-size="11.00">58,986 rows</text>
<polygon fill="#ffffff" stroke="transparent" points="493,-644 493,-662 518,-662 518,-644 493,-644"/>
<polygon fill="none" stroke="black" points="493,-644 493,-662 518,-662 518,-644 493,-644"/>
<text text-anchor="start" x="508" y="-650.2" font-family="Helvetica,sans-Serif" font-size="11.00"> &#160;</text>
</a>
</g>
</g>
<!-- datasetpublications&#45;&gt;publications -->
<g id="edge3" class="edge">
<title>datasetpublications:w&#45;&gt;publications:e</title>
<path fill="none" stroke="black" d="M355.68,-669.05C287.76,-647.77 405.08,-460 313.5,-460"/>
<polygon fill="black" stroke="black" points="362.07,-669.92 369.51,-674.57 366.04,-670.46 370,-671 370,-671 370,-671 366.04,-670.46 370.49,-667.43 362.07,-669.92 362.07,-669.92"/>
<ellipse fill="none" stroke="black" cx="358.9" cy="-669.49" rx="3.2" ry="3.2"/>
</g>
<!-- eventpublications -->
<g id="node6" class="node">
<title>eventpublications</title>
<g id="a_node6"><a xlink:href="../../tables/eventpublications.html" xlink:title="eventpublications" target="_top">
<polygon fill="#ffffff" stroke="transparent" points="375,-538 375,-596 513,-596 513,-538 375,-538"/>
<polygon fill="#f5f5f5" stroke="transparent" points="375,-574 375,-596 513,-596 513,-574 375,-574"/>
<polygon fill="none" stroke="black" points="375,-574 375,-596 513,-596 513,-574 375,-574"/>
<text text-anchor="start" x="380" y="-583.2" font-family="Helvetica,sans-Serif" font-weight="bold" font-size="11.00">eventpublications</text>
<text text-anchor="start" x="478" y="-582.2" font-family="Helvetica,sans-Serif" font-size="11.00">[table]</text>
<polygon fill="none" stroke="black" points="375,-556 375,-574 513,-574 513,-556 375,-556"/>
<text text-anchor="start" x="378" y="-562.2" font-family="Helvetica,sans-Serif" font-size="11.00">...</text>
<polygon fill="#ffffff" stroke="transparent" points="375,-538 375,-556 423,-556 423,-538 375,-538"/>
<polygon fill="none" stroke="black" points="375,-538 375,-556 423,-556 423,-538 375,-538"/>
<text text-anchor="start" x="378" y="-544.2" font-family="Helvetica,sans-Serif" font-size="11.00">&lt; 2</text>
<polygon fill="#ffffff" stroke="transparent" points="423,-538 423,-556 487,-556 487,-538 423,-538"/>
<polygon fill="none" stroke="black" points="423,-538 423,-556 487,-556 487,-538 423,-538"/>
<text text-anchor="start" x="439" y="-544.2" font-family="Helvetica,sans-Serif" font-size="11.00">378 rows</text>
<polygon fill="#ffffff" stroke="transparent" points="487,-538 487,-556 513,-556 513,-538 487,-538"/>
<polygon fill="none" stroke="black" points="487,-538 487,-556 513,-556 513,-538 487,-538"/>
<text text-anchor="start" x="503" y="-544.2" font-family="Helvetica,sans-Serif" font-size="11.00"> &#160;</text>
</a>
</g>
</g>
<!-- eventpublications&#45;&gt;publications -->
<g id="edge4" class="edge">
<title>eventpublications:w&#45;&gt;publications:e</title>
<path fill="none" stroke="black" d="M359.69,-561.51C329.26,-543.29 361.47,-460 313.5,-460"/>
<polygon fill="black" stroke="black" points="366.23,-563.1 373.15,-568.5 370.11,-564.05 374,-565 374,-565 374,-565 370.11,-564.05 374.85,-561.5 366.23,-563.1 366.23,-563.1"/>
<ellipse fill="none" stroke="black" cx="363.12" cy="-562.34" rx="3.2" ry="3.2"/>
</g>
<!-- externalpublications -->
<g id="node7" class="node">
<title>externalpublications</title>
<g id="a_node7"><a xlink:href="../../tables/externalpublications.html" xlink:title="externalpublications" target="_top">
<polygon fill="#ffffff" stroke="transparent" points="576,-787 576,-941 799,-941 799,-787 576,-787"/>
<polygon fill="#f5f5f5" stroke="transparent" points="578.5,-917 578.5,-939 797.5,-939 797.5,-917 578.5,-917"/>
<polygon fill="none" stroke="black" points="578.5,-917 578.5,-939 797.5,-939 797.5,-917 578.5,-917"/>
<text text-anchor="start" x="583.5" y="-926.2" font-family="Helvetica,sans-Serif" font-weight="bold" font-size="11.00">externalpublications</text>
<text text-anchor="start" x="762.5" y="-925.2" font-family="Helvetica,sans-Serif" font-size="11.00">[table]</text>
<polygon fill="none" stroke="black" points="578.5,-895 578.5,-917 723.5,-917 723.5,-895 578.5,-895"/>
<image xlink:href="../../images/primaryKeys.png" width="11px" height="12px" preserveAspectRatio="xMinYMin meet" x="583.5" y="-912"/>
<text text-anchor="start" x="598.5" y="-903.2" font-family="Helvetica,sans-Serif" font-size="11.00">publicationid</text>
<polygon fill="none" stroke="black" points="723.5,-895 723.5,-917 797.5,-917 797.5,-895 723.5,-895"/>
<text text-anchor="start" x="726.5" y="-903.2" font-family="Helvetica,sans-Serif" font-size="11.00">int4[10]</text>
<polygon fill="none" stroke="black" points="578.5,-873 578.5,-895 723.5,-895 723.5,-873 578.5,-873"/>
<image xlink:href="../../images/primaryKeys.png" width="11px" height="12px" preserveAspectRatio="xMinYMin meet" x="583.5" y="-890"/>
<text text-anchor="start" x="598.5" y="-881.2" font-family="Helvetica,sans-Serif" font-size="11.00">extdatabaseid</text>
<polygon fill="none" stroke="black" points="723.5,-873 723.5,-895 797.5,-895 797.5,-873 723.5,-873"/>
<text text-anchor="start" x="726.5" y="-881.2" font-family="Helvetica,sans-Serif" font-size="11.00">int4[10]</text>
<polygon fill="none" stroke="black" points="578.5,-851 578.5,-873 723.5,-873 723.5,-851 578.5,-851"/>
<text text-anchor="start" x="598.5" y="-859.2" font-family="Helvetica,sans-Serif" font-size="11.00">extpublicationid</text>
<polygon fill="none" stroke="black" points="723.5,-851 723.5,-873 797.5,-873 797.5,-851 723.5,-851"/>
<text text-anchor="start" x="726.5" y="-859.2" font-family="Helvetica,sans-Serif" font-size="11.00">int4[10]</text>
<polygon fill="none" stroke="black" points="578.5,-829 578.5,-851 723.5,-851 723.5,-829 578.5,-829"/>
<text text-anchor="start" x="598.5" y="-837.2" font-family="Helvetica,sans-Serif" font-size="11.00">recdatecreated</text>
<polygon fill="none" stroke="black" points="723.5,-829 723.5,-851 797.5,-851 797.5,-829 723.5,-829"/>
<text text-anchor="start" x="726.5" y="-837.2" font-family="Helvetica,sans-Serif" font-size="11.00">timestamp[22]</text>
<polygon fill="none" stroke="black" points="578.5,-807 578.5,-829 723.5,-829 723.5,-807 578.5,-807"/>
<text text-anchor="start" x="598.5" y="-815.2" font-family="Helvetica,sans-Serif" font-size="11.00">recdatemodified</text>
<polygon fill="none" stroke="black" points="723.5,-807 723.5,-829 797.5,-829 797.5,-807 723.5,-807"/>
<text text-anchor="start" x="726.5" y="-815.2" font-family="Helvetica,sans-Serif" font-size="11.00">timestamp[22]</text>
<polygon fill="#ffffff" stroke="transparent" points="578.5,-789 578.5,-807 631.5,-807 631.5,-789 578.5,-789"/>
<polygon fill="none" stroke="black" points="578.5,-789 578.5,-807 631.5,-807 631.5,-789 578.5,-789"/>
<text text-anchor="start" x="581.5" y="-795.2" font-family="Helvetica,sans-Serif" font-size="11.00">&lt; 2</text>
<polygon fill="#ffffff" stroke="transparent" points="631.5,-789 631.5,-807 723.5,-807 723.5,-789 631.5,-789"/>
<polygon fill="none" stroke="black" points="631.5,-789 631.5,-807 723.5,-807 723.5,-789 631.5,-789"/>
<text text-anchor="start" x="666.5" y="-795.2" font-family="Helvetica,sans-Serif" font-size="11.00">1,317 rows</text>
<polygon fill="#ffffff" stroke="transparent" points="723.5,-789 723.5,-807 797.5,-807 797.5,-789 723.5,-789"/>
<polygon fill="none" stroke="black" points="723.5,-789 723.5,-807 797.5,-807 797.5,-789 723.5,-789"/>
<text text-anchor="start" x="778.5" y="-795.2" font-family="Helvetica,sans-Serif" font-size="11.00">0 &gt;</text>
<polygon fill="none" stroke="black" stroke-width="2" points="577,-788 577,-940 798,-940 798,-788 577,-788"/>
</a>
</g>
</g>
<!-- externalpublications&#45;&gt;publications -->
<g id="edge6" class="edge">
<title>externalpublications:w&#45;&gt;publications:e</title>
<path fill="none" stroke="black" d="M562.91,-906.4C472.26,-911.31 421.26,-959.03 353,-893 283.56,-825.82 410.12,-460 313.5,-460"/>
<polygon fill="black" stroke="black" points="569.5,-906.22 577.6,-909.6 573.5,-906.11 577.5,-906 577.5,-906 577.5,-906 573.5,-906.11 577.4,-902.4 569.5,-906.22 569.5,-906.22"/>
<ellipse fill="none" stroke="black" cx="566.3" cy="-906.31" rx="3.2" ry="3.2"/>
</g>
<!-- externalpublications&#45;&gt;externaldatabases -->
<g id="edge5" class="edge">
<title>externalpublications:w&#45;&gt;externaldatabases:e</title>
<path fill="none" stroke="black" d="M563.15,-881.02C545.02,-872.55 541.12,-849 515,-849"/>
<polygon fill="black" stroke="black" points="569.67,-882.37 576.77,-887.52 573.58,-883.19 577.5,-884 577.5,-884 577.5,-884 573.58,-883.19 578.23,-880.48 569.67,-882.37 569.67,-882.37"/>
<ellipse fill="none" stroke="black" cx="566.53" cy="-881.72" rx="3.2" ry="3.2"/>
</g>
<!-- externaltaxa -->
<g id="node8" class="node">
<title>externaltaxa</title>
<g id="a_node8"><a xlink:href="../../tables/externaltaxa.html" xlink:title="externaltaxa" target="_top">
<polygon fill="#ffffff" stroke="transparent" points="633.5,-623 633.5,-681 741.5,-681 741.5,-623 633.5,-623"/>
<polygon fill="#f5f5f5" stroke="transparent" points="633.5,-659 633.5,-681 741.5,-681 741.5,-659 633.5,-659"/>
<polygon fill="none" stroke="black" points="633.5,-659 633.5,-681 741.5,-681 741.5,-659 633.5,-659"/>
<text text-anchor="start" x="638.5" y="-668.2" font-family="Helvetica,sans-Serif" font-weight="bold" font-size="11.00">externaltaxa</text>
<text text-anchor="start" x="706.5" y="-667.2" font-family="Helvetica,sans-Serif" font-size="11.00">[table]</text>
<polygon fill="none" stroke="black" points="633.5,-641 633.5,-659 741.5,-659 741.5,-641 633.5,-641"/>
<text text-anchor="start" x="636.5" y="-647.2" font-family="Helvetica,sans-Serif" font-size="11.00">...</text>
<polygon fill="#ffffff" stroke="transparent" points="633.5,-623 633.5,-641 658.5,-641 658.5,-623 633.5,-623"/>
<polygon fill="none" stroke="black" points="633.5,-623 633.5,-641 658.5,-641 658.5,-623 633.5,-623"/>
<text text-anchor="start" x="636.5" y="-629.2" font-family="Helvetica,sans-Serif" font-size="11.00">&lt; 2</text>
<polygon fill="#ffffff" stroke="transparent" points="658.5,-623 658.5,-641 726.5,-641 726.5,-623 658.5,-623"/>
<polygon fill="none" stroke="black" points="658.5,-623 658.5,-641 726.5,-641 726.5,-623 658.5,-623"/>
<text text-anchor="start" x="663.5" y="-629.2" font-family="Helvetica,sans-Serif" font-size="11.00">46,858 rows</text>
<polygon fill="#ffffff" stroke="transparent" points="726.5,-623 726.5,-641 741.5,-641 741.5,-623 726.5,-623"/>
<polygon fill="none" stroke="black" points="726.5,-623 726.5,-641 741.5,-641 741.5,-623 726.5,-623"/>
<text text-anchor="start" x="731.5" y="-629.2" font-family="Helvetica,sans-Serif" font-size="11.00"> &#160;</text>
</a>
</g>
</g>
<!-- externaltaxa&#45;&gt;externaldatabases -->
<g id="edge7" class="edge">
<title>externaltaxa:w&#45;&gt;externaldatabases:e</title>
<path fill="none" stroke="black" d="M617.98,-651.3C594.14,-656.08 585.95,-673.6 568,-698 525.85,-755.29 586.12,-849 515,-849"/>
<polygon fill="black" stroke="black" points="624.53,-650.72 632.82,-653.59 628.52,-650.36 632.5,-650 632.5,-650 632.5,-650 628.52,-650.36 632.18,-646.41 624.53,-650.72 624.53,-650.72"/>
<ellipse fill="none" stroke="black" cx="621.34" cy="-651" rx="3.2" ry="3.2"/>
</g>
<!-- taxa -->
<g id="node9" class="node">
<title>taxa</title>
<g id="a_node9"><a xlink:href="../../tables/taxa.html" xlink:title="taxa" target="_top">
<polygon fill="#ffffff" stroke="transparent" points="386,-459 386,-517 502,-517 502,-459 386,-459"/>
<polygon fill="#f5f5f5" stroke="transparent" points="386,-495 386,-517 502,-517 502,-495 386,-495"/>
<polygon fill="none" stroke="black" points="386,-495 386,-517 502,-517 502,-495 386,-495"/>
<text text-anchor="start" x="391" y="-504.2" font-family="Helvetica,sans-Serif" font-weight="bold" font-size="11.00">taxa</text>
<text text-anchor="start" x="467" y="-503.2" font-family="Helvetica,sans-Serif" font-size="11.00">[table]</text>
<polygon fill="none" stroke="black" points="386,-477 386,-495 502,-495 502,-477 386,-477"/>
<text text-anchor="start" x="389" y="-483.2" font-family="Helvetica,sans-Serif" font-size="11.00">...</text>
<polygon fill="#ffffff" stroke="transparent" points="386,-459 386,-477 408,-477 408,-459 386,-459"/>
<polygon fill="none" stroke="black" points="386,-459 386,-477 408,-477 408,-459 386,-459"/>
<text text-anchor="start" x="389" y="-465.2" font-family="Helvetica,sans-Serif" font-size="11.00">&lt; 4</text>
<polygon fill="#ffffff" stroke="transparent" points="408,-459 408,-477 474,-477 474,-459 408,-459"/>
<polygon fill="none" stroke="black" points="408,-459 408,-477 474,-477 474,-459 408,-459"/>
<text text-anchor="start" x="411" y="-465.2" font-family="Helvetica,sans-Serif" font-size="11.00">46,322 rows</text>
<polygon fill="#ffffff" stroke="transparent" points="474,-459 474,-477 502,-477 502,-459 474,-459"/>
<polygon fill="none" stroke="black" points="474,-459 474,-477 502,-477 502,-459 474,-459"/>
<text text-anchor="start" x="477" y="-465.2" font-family="Helvetica,sans-Serif" font-size="11.00">17 &gt;</text>
</a>
</g>
</g>
<!-- externaltaxa&#45;&gt;taxa -->
<g id="edge8" class="edge">
<title>externaltaxa:w&#45;&gt;taxa:e</title>
<path fill="none" stroke="black" d="M617.98,-648.91C564.49,-640.19 571.2,-580.93 535,-528 521.75,-508.63 526.47,-486 503,-486"/>
<polygon fill="black" stroke="black" points="624.52,-649.4 632.23,-653.59 628.51,-649.7 632.5,-650 632.5,-650 632.5,-650 628.51,-649.7 632.77,-646.41 624.52,-649.4 624.52,-649.4"/>
<ellipse fill="none" stroke="black" cx="621.33" cy="-649.16" rx="3.2" ry="3.2"/>
</g>
<!-- taxa&#45;&gt;publications -->
<g id="edge21" class="edge">
<title>taxa:w&#45;&gt;publications:e</title>
<path fill="none" stroke="black" d="M370.51,-484.13C349.11,-478.17 341.77,-460 313.5,-460"/>
<polygon fill="black" stroke="black" points="377.07,-484.98 384.54,-489.57 381.03,-485.49 385,-486 385,-486 385,-486 381.03,-485.49 385.46,-482.43 377.07,-484.98 377.07,-484.98"/>
<ellipse fill="none" stroke="black" cx="373.89" cy="-484.57" rx="3.2" ry="3.2"/>
</g>
<!-- formtaxa -->
<g id="node10" class="node">
<title>formtaxa</title>
<g id="a_node10"><a xlink:href="../../tables/formtaxa.html" xlink:title="formtaxa" target="_top">
<polygon fill="#ffffff" stroke="transparent" points="642,-513 642,-571 733,-571 733,-513 642,-513"/>
<polygon fill="#f5f5f5" stroke="transparent" points="642.5,-549 642.5,-571 733.5,-571 733.5,-549 642.5,-549"/>
<polygon fill="none" stroke="black" points="642.5,-549 642.5,-571 733.5,-571 733.5,-549 642.5,-549"/>
<text text-anchor="start" x="647.5" y="-558.2" font-family="Helvetica,sans-Serif" font-weight="bold" font-size="11.00">formtaxa</text>
<text text-anchor="start" x="698.5" y="-557.2" font-family="Helvetica,sans-Serif" font-size="11.00">[table]</text>
<polygon fill="none" stroke="black" points="642.5,-531 642.5,-549 733.5,-549 733.5,-531 642.5,-531"/>
<text text-anchor="start" x="645.5" y="-537.2" font-family="Helvetica,sans-Serif" font-size="11.00">...</text>
<polygon fill="#ffffff" stroke="transparent" points="642.5,-513 642.5,-531 672.5,-531 672.5,-513 642.5,-513"/>
<polygon fill="none" stroke="black" points="642.5,-513 642.5,-531 672.5,-531 672.5,-513 642.5,-513"/>
<text text-anchor="start" x="645.5" y="-519.2" font-family="Helvetica,sans-Serif" font-size="11.00">&lt; 3</text>
<polygon fill="#ffffff" stroke="transparent" points="672.5,-513 672.5,-531 715.5,-531 715.5,-513 672.5,-513"/>
<polygon fill="none" stroke="black" points="672.5,-513 672.5,-531 715.5,-531 715.5,-513 672.5,-513"/>
<text text-anchor="start" x="679.5" y="-519.2" font-family="Helvetica,sans-Serif" font-size="11.00">3 rows</text>
<polygon fill="#ffffff" stroke="transparent" points="715.5,-513 715.5,-531 733.5,-531 733.5,-513 715.5,-513"/>
<polygon fill="none" stroke="black" points="715.5,-513 715.5,-531 733.5,-531 733.5,-513 715.5,-513"/>
<text text-anchor="start" x="723.5" y="-519.2" font-family="Helvetica,sans-Serif" font-size="11.00"> &#160;</text>
</a>
</g>
</g>
<!-- formtaxa&#45;&gt;publications -->
<g id="edge10" class="edge">
<title>formtaxa:w&#45;&gt;publications:e</title>
<path fill="none" stroke="black" d="M626.97,-541.34C585.66,-549.53 583.59,-592.99 535,-607 496.14,-618.21 385.1,-631.61 353,-607 299.31,-565.84 381.15,-460 313.5,-460"/>
<polygon fill="black" stroke="black" points="633.53,-540.73 641.83,-543.58 637.52,-540.37 641.5,-540 641.5,-540 641.5,-540 637.52,-540.37 641.17,-536.42 633.53,-540.73 633.53,-540.73"/>
<ellipse fill="none" stroke="black" cx="630.35" cy="-541.03" rx="3.2" ry="3.2"/>
</g>
<!-- formtaxa&#45;&gt;taxa -->
<g id="edge9" class="edge">
<title>formtaxa:w&#45;&gt;taxa:e</title>
<path fill="none" stroke="black" d="M627.05,-537.77C574.07,-525.93 563.91,-480.47 503,-486"/>
<polygon fill="black" stroke="black" points="633.59,-538.78 640.95,-543.56 637.55,-539.39 641.5,-540 641.5,-540 641.5,-540 637.55,-539.39 642.05,-536.44 633.59,-538.78 633.59,-538.78"/>
<ellipse fill="none" stroke="black" cx="630.43" cy="-538.29" rx="3.2" ry="3.2"/>
</g>
<!-- formtaxa&#45;&gt;taxa -->
<g id="edge11" class="edge">
<title>formtaxa:w&#45;&gt;taxa:e</title>
<path fill="none" stroke="black" d="M627.05,-540.58C574.07,-538.85 563.91,-492.45 503,-486"/>
<polygon fill="black" stroke="black" points="633.51,-540.32 641.64,-543.6 637.5,-540.16 641.5,-540 641.5,-540 641.5,-540 637.5,-540.16 641.36,-536.4 633.51,-540.32 633.51,-540.32"/>
<ellipse fill="none" stroke="black" cx="630.31" cy="-540.45" rx="3.2" ry="3.2"/>
</g>
<!-- geochronpublications -->
<g id="node11" class="node">
<title>geochronpublications</title>
<g id="a_node11"><a xlink:href="../../tables/geochronpublications.html" xlink:title="geochronpublications" target="_top">
<polygon fill="#ffffff" stroke="transparent" points="364.5,-353 364.5,-411 523.5,-411 523.5,-353 364.5,-353"/>
<polygon fill="#f5f5f5" stroke="transparent" points="365,-389 365,-411 524,-411 524,-389 365,-389"/>
<polygon fill="none" stroke="black" points="365,-389 365,-411 524,-411 524,-389 365,-389"/>
<text text-anchor="start" x="370" y="-398.2" font-family="Helvetica,sans-Serif" font-weight="bold" font-size="11.00">geochronpublications</text>
<text text-anchor="start" x="489" y="-397.2" font-family="Helvetica,sans-Serif" font-size="11.00">[table]</text>
<polygon fill="none" stroke="black" points="365,-371 365,-389 524,-389 524,-371 365,-371"/>
<text text-anchor="start" x="368" y="-377.2" font-family="Helvetica,sans-Serif" font-size="11.00">...</text>
<polygon fill="#ffffff" stroke="transparent" points="365,-353 365,-371 416,-371 416,-353 365,-353"/>
<polygon fill="none" stroke="black" points="365,-353 365,-371 416,-371 416,-353 365,-353"/>
<text text-anchor="start" x="368" y="-359.2" font-family="Helvetica,sans-Serif" font-size="11.00">&lt; 2</text>
<polygon fill="#ffffff" stroke="transparent" points="416,-353 416,-371 496,-371 496,-353 416,-353"/>
<polygon fill="none" stroke="black" points="416,-353 416,-371 496,-371 496,-353 416,-353"/>
<text text-anchor="start" x="433" y="-359.2" font-family="Helvetica,sans-Serif" font-size="11.00">36,183 rows</text>
<polygon fill="#ffffff" stroke="transparent" points="496,-353 496,-371 524,-371 524,-353 496,-353"/>
<polygon fill="none" stroke="black" points="496,-353 496,-371 524,-371 524,-353 496,-353"/>
<text text-anchor="start" x="514" y="-359.2" font-family="Helvetica,sans-Serif" font-size="11.00"> &#160;</text>
</a>
</g>
</g>
<!-- geochronpublications&#45;&gt;publications -->
<g id="edge12" class="edge">
<title>geochronpublications:w&#45;&gt;publications:e</title>
<path fill="none" stroke="black" d="M350.05,-384.53C330.08,-401.45 349.47,-460 313.5,-460"/>
<polygon fill="black" stroke="black" points="356.39,-382.47 365.11,-383.42 360.2,-381.24 364,-380 364,-380 364,-380 360.2,-381.24 362.89,-376.58 356.39,-382.47 356.39,-382.47"/>
<ellipse fill="none" stroke="black" cx="353.35" cy="-383.46" rx="3.2" ry="3.2"/>
</g>
<!-- publicationauthors -->
<g id="node12" class="node">
<title>publicationauthors</title>
<g id="a_node12"><a xlink:href="../../tables/publicationauthors.html" xlink:title="publicationauthors" target="_top">
<polygon fill="#ffffff" stroke="transparent" points="372,-274 372,-332 516,-332 516,-274 372,-274"/>
<polygon fill="#f5f5f5" stroke="transparent" points="372,-310 372,-332 516,-332 516,-310 372,-310"/>
<polygon fill="none" stroke="black" points="372,-310 372,-332 516,-332 516,-310 372,-310"/>
<text text-anchor="start" x="377" y="-319.2" font-family="Helvetica,sans-Serif" font-weight="bold" font-size="11.00">publicationauthors</text>
<text text-anchor="start" x="481" y="-318.2" font-family="Helvetica,sans-Serif" font-size="11.00">[table]</text>
<polygon fill="none" stroke="black" points="372,-292 372,-310 516,-310 516,-292 372,-292"/>
<text text-anchor="start" x="375" y="-298.2" font-family="Helvetica,sans-Serif" font-size="11.00">...</text>
<polygon fill="#ffffff" stroke="transparent" points="372,-274 372,-292 415,-292 415,-274 372,-274"/>
<polygon fill="none" stroke="black" points="372,-274 372,-292 415,-292 415,-274 372,-274"/>
<text text-anchor="start" x="375" y="-280.2" font-family="Helvetica,sans-Serif" font-size="11.00">&lt; 2</text>
<polygon fill="#ffffff" stroke="transparent" points="415,-274 415,-292 492,-292 492,-274 415,-274"/>
<polygon fill="none" stroke="black" points="415,-274 415,-292 492,-292 492,-274 415,-274"/>
<text text-anchor="start" x="429" y="-280.2" font-family="Helvetica,sans-Serif" font-size="11.00">30,625 rows</text>
<polygon fill="#ffffff" stroke="transparent" points="492,-274 492,-292 516,-292 516,-274 492,-274"/>
<polygon fill="none" stroke="black" points="492,-274 492,-292 516,-292 516,-274 492,-274"/>
<text text-anchor="start" x="506" y="-280.2" font-family="Helvetica,sans-Serif" font-size="11.00"> &#160;</text>
</a>
</g>
</g>
<!-- publicationauthors&#45;&gt;publications -->
<g id="edge13" class="edge">
<title>publicationauthors:w&#45;&gt;publications:e</title>
<path fill="none" stroke="black" d="M356.6,-303.63C309.02,-324.3 382.92,-460 313.5,-460"/>
<polygon fill="black" stroke="black" points="363.13,-302.44 371.65,-304.54 367.06,-301.72 371,-301 371,-301 371,-301 367.06,-301.72 370.35,-297.46 363.13,-302.44 363.13,-302.44"/>
<ellipse fill="none" stroke="black" cx="359.98" cy="-303.01" rx="3.2" ry="3.2"/>
</g>
<!-- publicationeditors -->
<g id="node13" class="node">
<title>publicationeditors</title>
<g id="a_node13"><a xlink:href="../../tables/publicationeditors.html" xlink:title="publicationeditors" target="_top">
<polygon fill="#ffffff" stroke="transparent" points="374,-195 374,-253 514,-253 514,-195 374,-195"/>
<polygon fill="#f5f5f5" stroke="transparent" points="374,-231 374,-253 514,-253 514,-231 374,-231"/>
<polygon fill="none" stroke="black" points="374,-231 374,-253 514,-253 514,-231 374,-231"/>
<text text-anchor="start" x="379" y="-240.2" font-family="Helvetica,sans-Serif" font-weight="bold" font-size="11.00">publicationeditors</text>
<text text-anchor="start" x="479" y="-239.2" font-family="Helvetica,sans-Serif" font-size="11.00">[table]</text>
<polygon fill="none" stroke="black" points="374,-213 374,-231 514,-231 514,-213 374,-213"/>
<text text-anchor="start" x="377" y="-219.2" font-family="Helvetica,sans-Serif" font-size="11.00">...</text>
<polygon fill="#ffffff" stroke="transparent" points="374,-195 374,-213 418,-213 418,-195 374,-195"/>
<polygon fill="none" stroke="black" points="374,-195 374,-213 418,-213 418,-195 374,-195"/>
<text text-anchor="start" x="377" y="-201.2" font-family="Helvetica,sans-Serif" font-size="11.00">&lt; 1</text>
<polygon fill="#ffffff" stroke="transparent" points="418,-195 418,-213 489,-213 489,-195 418,-195"/>
<polygon fill="none" stroke="black" points="418,-195 418,-213 489,-213 489,-195 418,-195"/>
<text text-anchor="start" x="432" y="-201.2" font-family="Helvetica,sans-Serif" font-size="11.00">1,466 rows</text>
<polygon fill="#ffffff" stroke="transparent" points="489,-195 489,-213 514,-213 514,-195 489,-195"/>
<polygon fill="none" stroke="black" points="489,-195 489,-213 514,-213 514,-195 489,-195"/>
<text text-anchor="start" x="504" y="-201.2" font-family="Helvetica,sans-Serif" font-size="11.00"> &#160;</text>
</a>
</g>
</g>
<!-- publicationeditors&#45;&gt;publications -->
<g id="edge14" class="edge">
<title>publicationeditors:w&#45;&gt;publications:e</title>
<path fill="none" stroke="black" d="M359.81,-228.37C327.17,-266.21 362.69,-460 313.5,-460"/>
<polygon fill="black" stroke="black" points="365.8,-225.48 374.56,-225.24 369.4,-223.74 373,-222 373,-222 373,-222 369.4,-223.74 371.44,-218.76 365.8,-225.48 365.8,-225.48"/>
<ellipse fill="none" stroke="black" cx="362.91" cy="-226.87" rx="3.2" ry="3.2"/>
</g>
<!-- publicationtranslators -->
<g id="node15" class="node">
<title>publicationtranslators</title>
<g id="a_node15"><a xlink:href="../../tables/publicationtranslators.html" xlink:title="publicationtranslators" target="_top">
<polygon fill="#ffffff" stroke="transparent" points="364,-116 364,-174 524,-174 524,-116 364,-116"/>
<polygon fill="#f5f5f5" stroke="transparent" points="364,-152 364,-174 524,-174 524,-152 364,-152"/>
<polygon fill="none" stroke="black" points="364,-152 364,-174 524,-174 524,-152 364,-152"/>
<text text-anchor="start" x="369" y="-161.2" font-family="Helvetica,sans-Serif" font-weight="bold" font-size="11.00">publicationtranslators</text>
<text text-anchor="start" x="489" y="-160.2" font-family="Helvetica,sans-Serif" font-size="11.00">[table]</text>
<polygon fill="none" stroke="black" points="364,-134 364,-152 524,-152 524,-134 364,-134"/>
<text text-anchor="start" x="367" y="-140.2" font-family="Helvetica,sans-Serif" font-size="11.00">...</text>
<polygon fill="#ffffff" stroke="transparent" points="364,-116 364,-134 429,-134 429,-116 364,-116"/>
<polygon fill="none" stroke="black" points="364,-116 364,-134 429,-134 429,-116 364,-116"/>
<text text-anchor="start" x="367" y="-122.2" font-family="Helvetica,sans-Serif" font-size="11.00">&lt; 1</text>
<polygon fill="#ffffff" stroke="transparent" points="429,-116 429,-134 489,-134 489,-116 429,-116"/>
<polygon fill="none" stroke="black" points="429,-116 429,-134 489,-134 489,-116 429,-116"/>
<text text-anchor="start" x="453" y="-122.2" font-family="Helvetica,sans-Serif" font-size="11.00">4 rows</text>
<polygon fill="#ffffff" stroke="transparent" points="489,-116 489,-134 524,-134 524,-116 489,-116"/>
<polygon fill="none" stroke="black" points="489,-116 489,-134 524,-134 524,-116 489,-116"/>
<text text-anchor="start" x="514" y="-122.2" font-family="Helvetica,sans-Serif" font-size="11.00"> &#160;</text>
</a>
</g>
</g>
<!-- publicationtranslators&#45;&gt;publications -->
<g id="edge16" class="edge">
<title>publicationtranslators:w&#45;&gt;publications:e</title>
<path fill="none" stroke="black" d="M349.42,-148.24C304.93,-189.45 379.37,-460 313.5,-460"/>
<polygon fill="black" stroke="black" points="355.54,-145.88 364.3,-146.36 359.27,-144.44 363,-143 363,-143 363,-143 359.27,-144.44 361.7,-139.64 355.54,-145.88 355.54,-145.88"/>
<ellipse fill="none" stroke="black" cx="352.55" cy="-147.03" rx="3.2" ry="3.2"/>
</g>
<!-- relativeagepublications -->
<g id="node16" class="node">
<title>relativeagepublications</title>
<g id="a_node16"><a xlink:href="../../tables/relativeagepublications.html" xlink:title="relativeagepublications" target="_top">
<polygon fill="#ffffff" stroke="transparent" points="361,-37 361,-95 527,-95 527,-37 361,-37"/>
<polygon fill="#f5f5f5" stroke="transparent" points="361,-73 361,-95 527,-95 527,-73 361,-73"/>
<polygon fill="none" stroke="black" points="361,-73 361,-95 527,-95 527,-73 361,-73"/>
<text text-anchor="start" x="366" y="-82.2" font-family="Helvetica,sans-Serif" font-weight="bold" font-size="11.00">relativeagepublications</text>
<text text-anchor="start" x="492" y="-81.2" font-family="Helvetica,sans-Serif" font-size="11.00">[table]</text>
<polygon fill="none" stroke="black" points="361,-55 361,-73 527,-73 527,-55 361,-55"/>
<text text-anchor="start" x="364" y="-61.2" font-family="Helvetica,sans-Serif" font-size="11.00">...</text>
<polygon fill="#ffffff" stroke="transparent" points="361,-37 361,-55 423,-55 423,-37 361,-37"/>
<polygon fill="none" stroke="black" points="361,-37 361,-55 423,-55 423,-37 361,-37"/>
<text text-anchor="start" x="364" y="-43.2" font-family="Helvetica,sans-Serif" font-size="11.00">&lt; 2</text>
<polygon fill="#ffffff" stroke="transparent" points="423,-37 423,-55 494,-55 494,-37 423,-37"/>
<polygon fill="none" stroke="black" points="423,-37 423,-55 494,-55 494,-37 423,-37"/>
<text text-anchor="start" x="446" y="-43.2" font-family="Helvetica,sans-Serif" font-size="11.00">115 rows</text>
<polygon fill="#ffffff" stroke="transparent" points="494,-37 494,-55 527,-55 527,-37 494,-37"/>
<polygon fill="none" stroke="black" points="494,-37 494,-55 527,-55 527,-37 494,-37"/>
<text text-anchor="start" x="517" y="-43.2" font-family="Helvetica,sans-Serif" font-size="11.00"> &#160;</text>
</a>
</g>
</g>
<!-- relativeagepublications&#45;&gt;publications -->
<g id="edge17" class="edge">
<title>relativeagepublications:w&#45;&gt;publications:e</title>
<path fill="none" stroke="black" d="M345.85,-68.45C286.88,-111.95 396.57,-460 313.5,-460"/>
<polygon fill="black" stroke="black" points="352.37,-66.4 361.08,-67.43 356.18,-65.2 360,-64 360,-64 360,-64 356.18,-65.2 358.92,-60.57 352.37,-66.4 352.37,-66.4"/>
<ellipse fill="none" stroke="black" cx="349.32" cy="-67.36" rx="3.2" ry="3.2"/>
</g>
<!-- synonymy -->
<g id="node17" class="node">
<title>synonymy</title>
<g id="a_node17"><a xlink:href="../../tables/synonymy.html" xlink:title="synonymy" target="_top">
<polygon fill="#ffffff" stroke="transparent" points="637,-434 637,-492 738,-492 738,-434 637,-434"/>
<polygon fill="#f5f5f5" stroke="transparent" points="637.5,-470 637.5,-492 738.5,-492 738.5,-470 637.5,-470"/>
<polygon fill="none" stroke="black" points="637.5,-470 637.5,-492 738.5,-492 738.5,-470 637.5,-470"/>
<text text-anchor="start" x="642.5" y="-479.2" font-family="Helvetica,sans-Serif" font-weight="bold" font-size="11.00">synonymy</text>
<text text-anchor="start" x="703.5" y="-478.2" font-family="Helvetica,sans-Serif" font-size="11.00">[table]</text>
<polygon fill="none" stroke="black" points="637.5,-452 637.5,-470 738.5,-470 738.5,-452 637.5,-452"/>
<text text-anchor="start" x="640.5" y="-458.2" font-family="Helvetica,sans-Serif" font-size="11.00">...</text>
<polygon fill="#ffffff" stroke="transparent" points="637.5,-434 637.5,-452 659.5,-452 659.5,-434 637.5,-434"/>
<polygon fill="none" stroke="black" points="637.5,-434 637.5,-452 659.5,-452 659.5,-434 637.5,-434"/>
<text text-anchor="start" x="640.5" y="-440.2" font-family="Helvetica,sans-Serif" font-size="11.00">&lt; 5</text>
<polygon fill="#ffffff" stroke="transparent" points="659.5,-434 659.5,-452 725.5,-452 725.5,-434 659.5,-434"/>
<polygon fill="none" stroke="black" points="659.5,-434 659.5,-452 725.5,-452 725.5,-434 659.5,-434"/>
<text text-anchor="start" x="662.5" y="-440.2" font-family="Helvetica,sans-Serif" font-size="11.00">37,992 rows</text>
<polygon fill="#ffffff" stroke="transparent" points="725.5,-434 725.5,-452 738.5,-452 738.5,-434 725.5,-434"/>
<polygon fill="none" stroke="black" points="725.5,-434 725.5,-452 738.5,-452 738.5,-434 725.5,-434"/>
<text text-anchor="start" x="728.5" y="-440.2" font-family="Helvetica,sans-Serif" font-size="11.00"> &#160;</text>
</a>
</g>
</g>
<!-- synonymy&#45;&gt;publications -->
<g id="edge18" class="edge">
<title>synonymy:w&#45;&gt;publications:e</title>
<path fill="none" stroke="black" d="M621.85,-460.64C588.08,-458.91 575.03,-451.36 535,-449 454.25,-444.24 433.14,-438.05 353,-449 334.94,-451.47 331.72,-460 313.5,-460"/>
<polygon fill="black" stroke="black" points="628.5,-460.8 636.41,-464.6 632.5,-460.9 636.5,-461 636.5,-461 636.5,-461 632.5,-460.9 636.59,-457.4 628.5,-460.8 628.5,-460.8"/>
<ellipse fill="none" stroke="black" cx="625.3" cy="-460.73" rx="3.2" ry="3.2"/>
</g>
<!-- synonymy&#45;&gt;taxa -->
<g id="edge19" class="edge">
<title>synonymy:w&#45;&gt;taxa:e</title>
<path fill="none" stroke="black" d="M621.93,-460.11C573.59,-459.16 558.18,-480.52 503,-486"/>
<polygon fill="black" stroke="black" points="628.51,-460.51 636.28,-464.59 632.51,-460.76 636.5,-461 636.5,-461 636.5,-461 632.51,-460.76 636.72,-457.41 628.51,-460.51 628.51,-460.51"/>
<ellipse fill="none" stroke="black" cx="625.32" cy="-460.32" rx="3.2" ry="3.2"/>
</g>
<!-- synonymy&#45;&gt;taxa -->
<g id="edge20" class="edge">
<title>synonymy:w&#45;&gt;taxa:e</title>
<path fill="none" stroke="black" d="M622.24,-463.11C573.65,-471.97 558.3,-492.41 503,-486"/>
<polygon fill="black" stroke="black" points="628.59,-462.17 637.03,-464.56 632.54,-461.59 636.5,-461 636.5,-461 636.5,-461 632.54,-461.59 635.97,-457.44 628.59,-462.17 628.59,-462.17"/>
<ellipse fill="none" stroke="black" cx="625.42" cy="-462.64" rx="3.2" ry="3.2"/>
</g>
</g>
</svg>
