<?xml version="1.0" encoding="UTF-8" standalone="no"?>
<!DOCTYPE svg PUBLIC "-//W3C//DTD SVG 1.1//EN"
 "http://www.w3.org/Graphics/SVG/1.1/DTD/svg11.dtd">
<!-- Generated by graphviz version 2.43.0 (0)
 -->
<!-- Title: twoDegreesRelationshipsDiagram Pages: 1 -->
<svg width="603pt" height="447pt"
 viewBox="0.00 0.00 603.00 447.00" xmlns="http://www.w3.org/2000/svg" xmlns:xlink="http://www.w3.org/1999/xlink">
<g id="graph0" class="graph" transform="scale(1 1) rotate(0) translate(4 443)">
<title>twoDegreesRelationshipsDiagram</title>
<polygon fill="#ffffff" stroke="transparent" points="-4,4 -4,-443 599,-443 599,4 -4,4"/>
<text text-anchor="middle" x="71.5" y="-7.2" font-family="Helvetica,sans-Serif" font-size="11.00">Generated by SchemaSpy</text>
<!-- contactreferences -->
<g id="node1" class="node">
<title>contactreferences</title>
<g id="a_node1"><a xlink:href="../../tables/contactreferences.html" xlink:title="contactreferences" target="_top">
<polygon fill="#ffffff" stroke="transparent" points="273,-254 273,-356 412,-356 412,-254 273,-254"/>
<polygon fill="#f5f5f5" stroke="transparent" points="273.5,-334 273.5,-356 412.5,-356 412.5,-334 273.5,-334"/>
<polygon fill="none" stroke="black" points="273.5,-334 273.5,-356 412.5,-356 412.5,-334 273.5,-334"/>
<text text-anchor="start" x="278.5" y="-343.2" font-family="Helvetica,sans-Serif" font-weight="bold" font-size="11.00">contactreferences</text>
<text text-anchor="start" x="377.5" y="-342.2" font-family="Helvetica,sans-Serif" font-size="11.00">[table]</text>
<polygon fill="none" stroke="black" points="273.5,-312 273.5,-334 412.5,-334 412.5,-312 273.5,-312"/>
<image xlink:href="../../images/foreignKeys.png" width="11px" height="12px" preserveAspectRatio="xMinYMin meet" x="278.5" y="-329"/>
<text text-anchor="start" x="298.5" y="-320.2" font-family="Helvetica,sans-Serif" font-size="11.00">contactid</text>
<polygon fill="none" stroke="black" points="273.5,-290 273.5,-312 412.5,-312 412.5,-290 273.5,-290"/>
<image xlink:href="../../images/foreignKeys.png" width="11px" height="12px" preserveAspectRatio="xMinYMin meet" x="278.5" y="-307"/>
<text text-anchor="start" x="298.5" y="-298.2" font-family="Helvetica,sans-Serif" font-size="11.00">exdatabaseid</text>
<polygon fill="none" stroke="black" points="273.5,-272 273.5,-290 412.5,-290 412.5,-272 273.5,-272"/>
<text text-anchor="start" x="276.5" y="-278.2" font-family="Helvetica,sans-Serif" font-size="11.00">...</text>
<polygon fill="#ffffff" stroke="transparent" points="273.5,-254 273.5,-272 321.5,-272 321.5,-254 273.5,-254"/>
<polygon fill="none" stroke="black" points="273.5,-254 273.5,-272 321.5,-272 321.5,-254 273.5,-254"/>
<text text-anchor="start" x="276.5" y="-260.2" font-family="Helvetica,sans-Serif" font-size="11.00">&lt; 2</text>
<polygon fill="#ffffff" stroke="transparent" points="321.5,-254 321.5,-272 385.5,-272 385.5,-254 321.5,-254"/>
<polygon fill="none" stroke="black" points="321.5,-254 321.5,-272 385.5,-272 385.5,-254 321.5,-254"/>
<text text-anchor="start" x="337.5" y="-260.2" font-family="Helvetica,sans-Serif" font-size="11.00">662 rows</text>
<polygon fill="#ffffff" stroke="transparent" points="385.5,-254 385.5,-272 412.5,-272 412.5,-254 385.5,-254"/>
<polygon fill="none" stroke="black" points="385.5,-254 385.5,-272 412.5,-272 412.5,-254 385.5,-254"/>
<text text-anchor="start" x="402.5" y="-260.2" font-family="Helvetica,sans-Serif" font-size="11.00"> &#160;</text>
</a>
</g>
</g>
<!-- contacts -->
<g id="node2" class="node">
<title>contacts</title>
<g id="a_node2"><a xlink:href="../../tables/contacts.html" xlink:title="contacts" target="_top">
<polygon fill="#ffffff" stroke="transparent" points="55,-361 55,-419 171,-419 171,-361 55,-361"/>
<polygon fill="#f5f5f5" stroke="transparent" points="55,-397 55,-419 171,-419 171,-397 55,-397"/>
<polygon fill="none" stroke="black" points="55,-397 55,-419 171,-419 171,-397 55,-397"/>
<text text-anchor="start" x="60" y="-406.2" font-family="Helvetica,sans-Serif" font-weight="bold" font-size="11.00">contacts</text>
<text text-anchor="start" x="136" y="-405.2" font-family="Helvetica,sans-Serif" font-size="11.00">[table]</text>
<polygon fill="none" stroke="black" points="55,-379 55,-397 171,-397 171,-379 55,-379"/>
<text text-anchor="start" x="58" y="-385.2" font-family="Helvetica,sans-Serif" font-size="11.00">...</text>
<polygon fill="#ffffff" stroke="transparent" points="55,-361 55,-379 77,-379 77,-361 55,-361"/>
<polygon fill="none" stroke="black" points="55,-361 55,-379 77,-379 77,-361 55,-361"/>
<text text-anchor="start" x="58" y="-367.2" font-family="Helvetica,sans-Serif" font-size="11.00">&lt; 1</text>
<polygon fill="#ffffff" stroke="transparent" points="77,-361 77,-379 143,-379 143,-361 77,-361"/>
<polygon fill="none" stroke="black" points="77,-361 77,-379 143,-379 143,-361 77,-361"/>
<text text-anchor="start" x="80" y="-367.2" font-family="Helvetica,sans-Serif" font-size="11.00">13,549 rows</text>
<polygon fill="#ffffff" stroke="transparent" points="143,-361 143,-379 171,-379 171,-361 143,-361"/>
<polygon fill="none" stroke="black" points="143,-361 143,-379 171,-379 171,-361 143,-361"/>
<text text-anchor="start" x="146" y="-367.2" font-family="Helvetica,sans-Serif" font-size="11.00">17 &gt;</text>
</a>
</g>
</g>
<!-- contactreferences&#45;&gt;contacts -->
<g id="edge1" class="edge">
<title>contactreferences:w&#45;&gt;contacts:e</title>
<path fill="none" stroke="black" d="M258,-324.88C219.89,-335.53 219.79,-388 172,-388"/>
<polygon fill="black" stroke="black" points="264.57,-324.03 272.96,-326.57 268.53,-323.51 272.5,-323 272.5,-323 272.5,-323 268.53,-323.51 272.04,-319.43 264.57,-324.03 264.57,-324.03"/>
<ellipse fill="none" stroke="black" cx="261.39" cy="-324.44" rx="3.2" ry="3.2"/>
</g>
<!-- externaldatabases -->
<g id="node3" class="node">
<title>externaldatabases</title>
<g id="a_node3"><a xlink:href="../../tables/externaldatabases.html" xlink:title="externaldatabases" target="_top">
<polygon fill="#ffffff" stroke="transparent" points="8,-37 8,-213 218,-213 218,-37 8,-37"/>
<polygon fill="#f5f5f5" stroke="transparent" points="10,-189 10,-211 216,-211 216,-189 10,-189"/>
<polygon fill="none" stroke="black" points="10,-189 10,-211 216,-211 216,-189 10,-189"/>
<text text-anchor="start" x="15" y="-198.2" font-family="Helvetica,sans-Serif" font-weight="bold" font-size="11.00">externaldatabases</text>
<text text-anchor="start" x="181" y="-197.2" font-family="Helvetica,sans-Serif" font-size="11.00">[table]</text>
<polygon fill="none" stroke="black" points="10,-167 10,-189 142,-189 142,-167 10,-167"/>
<image xlink:href="../../images/primaryKeys.png" width="11px" height="12px" preserveAspectRatio="xMinYMin meet" x="15" y="-184"/>
<text text-anchor="start" x="30" y="-175.2" font-family="Helvetica,sans-Serif" font-size="11.00">extdatabaseid</text>
<polygon fill="none" stroke="black" points="142,-167 142,-189 216,-189 216,-167 142,-167"/>
<text text-anchor="start" x="145" y="-175.2" font-family="Helvetica,sans-Serif" font-size="11.00">serial[10]</text>
<polygon fill="none" stroke="black" points="10,-145 10,-167 142,-167 142,-145 10,-145"/>
<text text-anchor="start" x="30" y="-153.2" font-family="Helvetica,sans-Serif" font-size="11.00">extdatabasename</text>
<polygon fill="none" stroke="black" points="142,-145 142,-167 216,-167 216,-145 142,-145"/>
<text text-anchor="start" x="145" y="-153.2" font-family="Helvetica,sans-Serif" font-size="11.00">varchar[80]</text>
<polygon fill="none" stroke="black" points="10,-123 10,-145 142,-145 142,-123 10,-123"/>
<text text-anchor="start" x="30" y="-131.2" font-family="Helvetica,sans-Serif" font-size="11.00">url</text>
<polygon fill="none" stroke="black" points="142,-123 142,-145 216,-145 216,-123 142,-123"/>
<text text-anchor="start" x="145" y="-131.2" font-family="Helvetica,sans-Serif" font-size="11.00">varchar[128]</text>
<polygon fill="none" stroke="black" points="10,-101 10,-123 142,-123 142,-101 10,-101"/>
<text text-anchor="start" x="30" y="-109.2" font-family="Helvetica,sans-Serif" font-size="11.00">recdatecreated</text>
<polygon fill="none" stroke="black" points="142,-101 142,-123 216,-123 216,-101 142,-101"/>
<text text-anchor="start" x="145" y="-109.2" font-family="Helvetica,sans-Serif" font-size="11.00">timestamp[22]</text>
<polygon fill="none" stroke="black" points="10,-79 10,-101 142,-101 142,-79 10,-79"/>
<text text-anchor="start" x="30" y="-87.2" font-family="Helvetica,sans-Serif" font-size="11.00">recdatemodified</text>
<polygon fill="none" stroke="black" points="142,-79 142,-101 216,-101 216,-79 142,-79"/>
<text text-anchor="start" x="145" y="-87.2" font-family="Helvetica,sans-Serif" font-size="11.00">timestamp[22]</text>
<polygon fill="none" stroke="black" points="10,-57 10,-79 142,-79 142,-57 10,-57"/>
<text text-anchor="start" x="30" y="-65.2" font-family="Helvetica,sans-Serif" font-size="11.00">urlmask</text>
<polygon fill="none" stroke="black" points="142,-57 142,-79 216,-79 216,-57 142,-57"/>
<text text-anchor="start" x="145" y="-65.2" font-family="Helvetica,sans-Serif" font-size="11.00">varchar[128]</text>
<polygon fill="#ffffff" stroke="transparent" points="10,-39 10,-57 67,-57 67,-39 10,-39"/>
<polygon fill="none" stroke="black" points="10,-39 10,-57 67,-57 67,-39 10,-39"/>
<text text-anchor="start" x="13" y="-45.2" font-family="Helvetica,sans-Serif" font-size="11.00">&lt; 0</text>
<polygon fill="#ffffff" stroke="transparent" points="67,-39 67,-57 142,-57 142,-39 67,-39"/>
<polygon fill="none" stroke="black" points="67,-39 67,-57 142,-57 142,-39 67,-39"/>
<text text-anchor="start" x="106" y="-45.2" font-family="Helvetica,sans-Serif" font-size="11.00">9 rows</text>
<polygon fill="#ffffff" stroke="transparent" points="142,-39 142,-57 216,-57 216,-39 142,-39"/>
<polygon fill="none" stroke="black" points="142,-39 142,-57 216,-57 216,-39 142,-39"/>
<text text-anchor="start" x="197" y="-45.2" font-family="Helvetica,sans-Serif" font-size="11.00">3 &gt;</text>
<polygon fill="none" stroke="black" stroke-width="2" points="9,-38 9,-212 217,-212 217,-38 9,-38"/>
</a>
</g>
</g>
<!-- contactreferences&#45;&gt;externaldatabases -->
<g id="edge2" class="edge">
<title>contactreferences:w&#45;&gt;externaldatabases:e</title>
<path fill="none" stroke="black" d="M258.26,-297.71C223.93,-278.15 271.12,-178 217,-178"/>
<polygon fill="black" stroke="black" points="264.71,-299.2 271.69,-304.51 268.6,-300.1 272.5,-301 272.5,-301 272.5,-301 268.6,-300.1 273.31,-297.49 264.71,-299.2 264.71,-299.2"/>
<ellipse fill="none" stroke="black" cx="261.59" cy="-298.48" rx="3.2" ry="3.2"/>
</g>
<!-- externalpublications -->
<g id="node4" class="node">
<title>externalpublications</title>
<g id="a_node4"><a xlink:href="../../tables/externalpublications.html" xlink:title="externalpublications" target="_top">
<polygon fill="#ffffff" stroke="transparent" points="267,-131 267,-233 418,-233 418,-131 267,-131"/>
<polygon fill="#f5f5f5" stroke="transparent" points="267.5,-211 267.5,-233 418.5,-233 418.5,-211 267.5,-211"/>
<polygon fill="none" stroke="black" points="267.5,-211 267.5,-233 418.5,-233 418.5,-211 267.5,-211"/>
<text text-anchor="start" x="272.5" y="-220.2" font-family="Helvetica,sans-Serif" font-weight="bold" font-size="11.00">externalpublications</text>
<text text-anchor="start" x="383.5" y="-219.2" font-family="Helvetica,sans-Serif" font-size="11.00">[table]</text>
<polygon fill="none" stroke="black" points="267.5,-189 267.5,-211 418.5,-211 418.5,-189 267.5,-189"/>
<image xlink:href="../../images/primaryKeys.png" width="11px" height="12px" preserveAspectRatio="xMinYMin meet" x="272.5" y="-206"/>
<text text-anchor="start" x="290.5" y="-197.2" font-family="Helvetica,sans-Serif" font-size="11.00">publicationid</text>
<polygon fill="none" stroke="black" points="267.5,-167 267.5,-189 418.5,-189 418.5,-167 267.5,-167"/>
<image xlink:href="../../images/primaryKeys.png" width="11px" height="12px" preserveAspectRatio="xMinYMin meet" x="272.5" y="-184"/>
<text text-anchor="start" x="290.5" y="-175.2" font-family="Helvetica,sans-Serif" font-size="11.00">extdatabaseid</text>
<polygon fill="none" stroke="black" points="267.5,-149 267.5,-167 418.5,-167 418.5,-149 267.5,-149"/>
<text text-anchor="start" x="270.5" y="-155.2" font-family="Helvetica,sans-Serif" font-size="11.00">...</text>
<polygon fill="#ffffff" stroke="transparent" points="267.5,-131 267.5,-149 317.5,-149 317.5,-131 267.5,-131"/>
<polygon fill="none" stroke="black" points="267.5,-131 267.5,-149 317.5,-149 317.5,-131 267.5,-131"/>
<text text-anchor="start" x="270.5" y="-137.2" font-family="Helvetica,sans-Serif" font-size="11.00">&lt; 2</text>
<polygon fill="#ffffff" stroke="transparent" points="317.5,-131 317.5,-149 391.5,-149 391.5,-131 317.5,-131"/>
<polygon fill="none" stroke="black" points="317.5,-131 317.5,-149 391.5,-149 391.5,-131 317.5,-131"/>
<text text-anchor="start" x="334.5" y="-137.2" font-family="Helvetica,sans-Serif" font-size="11.00">1,317 rows</text>
<polygon fill="#ffffff" stroke="transparent" points="391.5,-131 391.5,-149 418.5,-149 418.5,-131 391.5,-131"/>
<polygon fill="none" stroke="black" points="391.5,-131 391.5,-149 418.5,-149 418.5,-131 391.5,-131"/>
<text text-anchor="start" x="408.5" y="-137.2" font-family="Helvetica,sans-Serif" font-size="11.00"> &#160;</text>
</a>
</g>
</g>
<!-- externalpublications&#45;&gt;externaldatabases -->
<g id="edge3" class="edge">
<title>externalpublications:w&#45;&gt;externaldatabases:e</title>
<path fill="none" stroke="black" d="M251.84,-178C240.41,-178 233.16,-178 217,-178"/>
<polygon fill="black" stroke="black" points="258.5,-178 266.5,-181.6 262.5,-178 266.5,-178 266.5,-178 266.5,-178 262.5,-178 266.5,-174.4 258.5,-178 258.5,-178"/>
<ellipse fill="none" stroke="black" cx="255.3" cy="-178" rx="3.2" ry="3.2"/>
</g>
<!-- publications -->
<g id="node5" class="node">
<title>publications</title>
<g id="a_node5"><a xlink:href="../../tables/publications.html" xlink:title="publications" target="_top">
<polygon fill="#ffffff" stroke="transparent" points="55,-266 55,-324 171,-324 171,-266 55,-266"/>
<polygon fill="#f5f5f5" stroke="transparent" points="55,-302 55,-324 171,-324 171,-302 55,-302"/>
<polygon fill="none" stroke="black" points="55,-302 55,-324 171,-324 171,-302 55,-302"/>
<text text-anchor="start" x="60" y="-311.2" font-family="Helvetica,sans-Serif" font-weight="bold" font-size="11.00">publications</text>
<text text-anchor="start" x="136" y="-310.2" font-family="Helvetica,sans-Serif" font-size="11.00">[table]</text>
<polygon fill="none" stroke="black" points="55,-284 55,-302 171,-302 171,-284 55,-284"/>
<text text-anchor="start" x="58" y="-290.2" font-family="Helvetica,sans-Serif" font-size="11.00">...</text>
<polygon fill="#ffffff" stroke="transparent" points="55,-266 55,-284 77,-284 77,-266 55,-266"/>
<polygon fill="none" stroke="black" points="55,-266 55,-284 77,-284 77,-266 55,-266"/>
<text text-anchor="start" x="58" y="-272.2" font-family="Helvetica,sans-Serif" font-size="11.00">&lt; 1</text>
<polygon fill="#ffffff" stroke="transparent" points="77,-266 77,-284 143,-284 143,-266 77,-266"/>
<polygon fill="none" stroke="black" points="77,-266 77,-284 143,-284 143,-266 77,-266"/>
<text text-anchor="start" x="80" y="-272.2" font-family="Helvetica,sans-Serif" font-size="11.00">13,725 rows</text>
<polygon fill="#ffffff" stroke="transparent" points="143,-266 143,-284 171,-284 171,-266 143,-266"/>
<polygon fill="none" stroke="black" points="143,-266 143,-284 171,-284 171,-266 143,-266"/>
<text text-anchor="start" x="146" y="-272.2" font-family="Helvetica,sans-Serif" font-size="11.00">12 &gt;</text>
</a>
</g>
</g>
<!-- externalpublications&#45;&gt;publications -->
<g id="edge4" class="edge">
<title>externalpublications:w&#45;&gt;publications:e</title>
<path fill="none" stroke="black" d="M252.22,-202.21C211.17,-216.29 225.52,-293 172,-293"/>
<polygon fill="black" stroke="black" points="258.59,-201.22 267.05,-203.56 262.55,-200.61 266.5,-200 266.5,-200 266.5,-200 262.55,-200.61 265.95,-196.44 258.59,-201.22 258.59,-201.22"/>
<ellipse fill="none" stroke="black" cx="255.43" cy="-201.71" rx="3.2" ry="3.2"/>
</g>
<!-- externaltaxa -->
<g id="node6" class="node">
<title>externaltaxa</title>
<g id="a_node6"><a xlink:href="../../tables/externaltaxa.html" xlink:title="externaltaxa" target="_top">
<polygon fill="#ffffff" stroke="transparent" points="467,-175 467,-299 587,-299 587,-175 467,-175"/>
<polygon fill="#f5f5f5" stroke="transparent" points="467,-277 467,-299 587,-299 587,-277 467,-277"/>
<polygon fill="none" stroke="black" points="467,-277 467,-299 587,-299 587,-277 467,-277"/>
<text text-anchor="start" x="472" y="-286.2" font-family="Helvetica,sans-Serif" font-weight="bold" font-size="11.00">externaltaxa</text>
<text text-anchor="start" x="552" y="-285.2" font-family="Helvetica,sans-Serif" font-size="11.00">[table]</text>
<polygon fill="none" stroke="black" points="467,-255 467,-277 587,-277 587,-255 467,-255"/>
<image xlink:href="../../images/primaryKeys.png" width="11px" height="12px" preserveAspectRatio="xMinYMin meet" x="472" y="-272"/>
<text text-anchor="start" x="487" y="-263.2" font-family="Helvetica,sans-Serif" font-size="11.00">taxonid</text>
<polygon fill="none" stroke="black" points="467,-233 467,-255 587,-255 587,-233 467,-233"/>
<image xlink:href="../../images/primaryKeys.png" width="11px" height="12px" preserveAspectRatio="xMinYMin meet" x="472" y="-250"/>
<text text-anchor="start" x="487" y="-241.2" font-family="Helvetica,sans-Serif" font-size="11.00">extdatabaseid</text>
<polygon fill="none" stroke="black" points="467,-211 467,-233 587,-233 587,-211 467,-211"/>
<image xlink:href="../../images/primaryKeys.png" width="11px" height="12px" preserveAspectRatio="xMinYMin meet" x="472" y="-228"/>
<text text-anchor="start" x="487" y="-219.2" font-family="Helvetica,sans-Serif" font-size="11.00">exttaxonid</text>
<polygon fill="none" stroke="black" points="467,-193 467,-211 587,-211 587,-193 467,-193"/>
<text text-anchor="start" x="470" y="-199.2" font-family="Helvetica,sans-Serif" font-size="11.00">...</text>
<polygon fill="#ffffff" stroke="transparent" points="467,-175 467,-193 498,-193 498,-175 467,-175"/>
<polygon fill="none" stroke="black" points="467,-175 467,-193 498,-193 498,-175 467,-175"/>
<text text-anchor="start" x="470" y="-181.2" font-family="Helvetica,sans-Serif" font-size="11.00">&lt; 2</text>
<polygon fill="#ffffff" stroke="transparent" points="498,-175 498,-193 569,-193 569,-175 498,-175"/>
<polygon fill="none" stroke="black" points="498,-175 498,-193 569,-193 569,-175 498,-175"/>
<text text-anchor="start" x="506" y="-181.2" font-family="Helvetica,sans-Serif" font-size="11.00">46,858 rows</text>
<polygon fill="#ffffff" stroke="transparent" points="569,-175 569,-193 587,-193 587,-175 569,-175"/>
<polygon fill="none" stroke="black" points="569,-175 569,-193 587,-193 587,-175 569,-175"/>
<text text-anchor="start" x="577" y="-181.2" font-family="Helvetica,sans-Serif" font-size="11.00"> &#160;</text>
</a>
</g>
</g>
<!-- externaltaxa&#45;&gt;externaldatabases -->
<g id="edge5" class="edge">
<title>externaltaxa:w&#45;&gt;externaldatabases:e</title>
<path fill="none" stroke="black" d="M451.5,-241.17C420.5,-225.65 467.87,-150.49 426,-120 366,-76.31 325.11,-86.25 259,-120 230.65,-134.47 248.83,-178 217,-178"/>
<polygon fill="black" stroke="black" points="458.15,-242.47 465.31,-247.53 462.07,-243.23 466,-244 466,-244 466,-244 462.07,-243.23 466.69,-240.47 458.15,-242.47 458.15,-242.47"/>
<ellipse fill="none" stroke="black" cx="455.01" cy="-241.86" rx="3.2" ry="3.2"/>
</g>
<!-- taxa -->
<g id="node7" class="node">
<title>taxa</title>
<g id="a_node7"><a xlink:href="../../tables/taxa.html" xlink:title="taxa" target="_top">
<polygon fill="#ffffff" stroke="transparent" points="284.5,-377 284.5,-435 400.5,-435 400.5,-377 284.5,-377"/>
<polygon fill="#f5f5f5" stroke="transparent" points="284.5,-413 284.5,-435 400.5,-435 400.5,-413 284.5,-413"/>
<polygon fill="none" stroke="black" points="284.5,-413 284.5,-435 400.5,-435 400.5,-413 284.5,-413"/>
<text text-anchor="start" x="289.5" y="-422.2" font-family="Helvetica,sans-Serif" font-weight="bold" font-size="11.00">taxa</text>
<text text-anchor="start" x="365.5" y="-421.2" font-family="Helvetica,sans-Serif" font-size="11.00">[table]</text>
<polygon fill="none" stroke="black" points="284.5,-395 284.5,-413 400.5,-413 400.5,-395 284.5,-395"/>
<text text-anchor="start" x="287.5" y="-401.2" font-family="Helvetica,sans-Serif" font-size="11.00">...</text>
<polygon fill="#ffffff" stroke="transparent" points="284.5,-377 284.5,-395 306.5,-395 306.5,-377 284.5,-377"/>
<polygon fill="none" stroke="black" points="284.5,-377 284.5,-395 306.5,-395 306.5,-377 284.5,-377"/>
<text text-anchor="start" x="287.5" y="-383.2" font-family="Helvetica,sans-Serif" font-size="11.00">&lt; 4</text>
<polygon fill="#ffffff" stroke="transparent" points="306.5,-377 306.5,-395 372.5,-395 372.5,-377 306.5,-377"/>
<polygon fill="none" stroke="black" points="306.5,-377 306.5,-395 372.5,-395 372.5,-377 306.5,-377"/>
<text text-anchor="start" x="309.5" y="-383.2" font-family="Helvetica,sans-Serif" font-size="11.00">47,314 rows</text>
<polygon fill="#ffffff" stroke="transparent" points="372.5,-377 372.5,-395 400.5,-395 400.5,-377 372.5,-377"/>
<polygon fill="none" stroke="black" points="372.5,-377 372.5,-395 400.5,-395 400.5,-377 372.5,-377"/>
<text text-anchor="start" x="375.5" y="-383.2" font-family="Helvetica,sans-Serif" font-size="11.00">17 &gt;</text>
</a>
</g>
</g>
<!-- externaltaxa&#45;&gt;taxa -->
<g id="edge6" class="edge">
<title>externaltaxa:w&#45;&gt;taxa:e</title>
<path fill="none" stroke="black" d="M451.71,-268.76C409.23,-288.21 463.52,-404 401.5,-404"/>
<polygon fill="black" stroke="black" points="458.14,-267.52 466.68,-269.53 462.07,-266.76 466,-266 466,-266 466,-266 462.07,-266.76 465.32,-262.47 458.14,-267.52 458.14,-267.52"/>
<ellipse fill="none" stroke="black" cx="455" cy="-268.12" rx="3.2" ry="3.2"/>
</g>
<!-- taxa&#45;&gt;contacts -->
<g id="edge8" class="edge">
<title>taxa:w&#45;&gt;contacts:e</title>
<path fill="none" stroke="black" d="M268.86,-403.5C230.61,-400.8 216.78,-388 172,-388"/>
<polygon fill="black" stroke="black" points="275.5,-403.73 283.38,-407.6 279.5,-403.86 283.5,-404 283.5,-404 283.5,-404 279.5,-403.86 283.62,-400.4 275.5,-403.73 275.5,-403.73"/>
<ellipse fill="none" stroke="black" cx="272.31" cy="-403.62" rx="3.2" ry="3.2"/>
</g>
<!-- taxa&#45;&gt;publications -->
<g id="edge7" class="edge">
<title>taxa:w&#45;&gt;publications:e</title>
<path fill="none" stroke="black" d="M269.14,-402.17C217.32,-387.73 236.6,-293 172,-293"/>
<polygon fill="black" stroke="black" points="275.56,-402.99 283.04,-407.57 279.53,-403.49 283.5,-404 283.5,-404 283.5,-404 279.53,-403.49 283.96,-400.43 275.56,-402.99 275.56,-402.99"/>
<ellipse fill="none" stroke="black" cx="272.39" cy="-402.58" rx="3.2" ry="3.2"/>
</g>
</g>
</svg>
