<?xml version="1.0" encoding="UTF-8" standalone="no"?>
<!DOCTYPE svg PUBLIC "-//W3C//DTD SVG 1.1//EN"
 "http://www.w3.org/Graphics/SVG/1.1/DTD/svg11.dtd">
<!-- Generated by graphviz version 2.43.0 (0)
 -->
<!-- Title: oneDegreeRelationshipsDiagramImplied Pages: 1 -->
<svg width="436pt" height="252pt"
 viewBox="0.00 0.00 436.00 252.00" xmlns="http://www.w3.org/2000/svg" xmlns:xlink="http://www.w3.org/1999/xlink">
<g id="graph0" class="graph" transform="scale(1 1) rotate(0) translate(4 248)">
<title>oneDegreeRelationshipsDiagramImplied</title>
<polygon fill="#ffffff" stroke="transparent" points="-4,4 -4,-248 432,-248 432,4 -4,4"/>
<text text-anchor="middle" x="71.5" y="-7.2" font-family="Helvetica,sans-Serif" font-size="11.00">Generated by SchemaSpy</text>
<!-- externalpublications -->
<g id="node1" class="node">
<title>externalpublications</title>
<g id="a_node1"><a xlink:href="../../tables/externalpublications.html" xlink:title="externalpublications" target="_top">
<polygon fill="#ffffff" stroke="transparent" points="197,-37 197,-191 420,-191 420,-37 197,-37"/>
<polygon fill="#f5f5f5" stroke="transparent" points="199.5,-167 199.5,-189 418.5,-189 418.5,-167 199.5,-167"/>
<polygon fill="none" stroke="black" points="199.5,-167 199.5,-189 418.5,-189 418.5,-167 199.5,-167"/>
<text text-anchor="start" x="204.5" y="-176.2" font-family="Helvetica,sans-Serif" font-weight="bold" font-size="11.00">externalpublications</text>
<text text-anchor="start" x="383.5" y="-175.2" font-family="Helvetica,sans-Serif" font-size="11.00">[table]</text>
<polygon fill="none" stroke="black" points="199.5,-145 199.5,-167 344.5,-167 344.5,-145 199.5,-145"/>
<image xlink:href="../../images/primaryKeys.png" width="11px" height="12px" preserveAspectRatio="xMinYMin meet" x="204.5" y="-162"/>
<text text-anchor="start" x="219.5" y="-153.2" font-family="Helvetica,sans-Serif" font-size="11.00">publicationid</text>
<polygon fill="none" stroke="black" points="344.5,-145 344.5,-167 418.5,-167 418.5,-145 344.5,-145"/>
<text text-anchor="start" x="347.5" y="-153.2" font-family="Helvetica,sans-Serif" font-size="11.00">int4[10]</text>
<polygon fill="none" stroke="black" points="199.5,-123 199.5,-145 344.5,-145 344.5,-123 199.5,-123"/>
<image xlink:href="../../images/primaryKeys.png" width="11px" height="12px" preserveAspectRatio="xMinYMin meet" x="204.5" y="-140"/>
<text text-anchor="start" x="219.5" y="-131.2" font-family="Helvetica,sans-Serif" font-size="11.00">extdatabaseid</text>
<polygon fill="none" stroke="black" points="344.5,-123 344.5,-145 418.5,-145 418.5,-123 344.5,-123"/>
<text text-anchor="start" x="347.5" y="-131.2" font-family="Helvetica,sans-Serif" font-size="11.00">int4[10]</text>
<polygon fill="none" stroke="black" points="199.5,-101 199.5,-123 344.5,-123 344.5,-101 199.5,-101"/>
<text text-anchor="start" x="219.5" y="-109.2" font-family="Helvetica,sans-Serif" font-size="11.00">extpublicationid</text>
<polygon fill="none" stroke="black" points="344.5,-101 344.5,-123 418.5,-123 418.5,-101 344.5,-101"/>
<text text-anchor="start" x="347.5" y="-109.2" font-family="Helvetica,sans-Serif" font-size="11.00">int4[10]</text>
<polygon fill="none" stroke="black" points="199.5,-79 199.5,-101 344.5,-101 344.5,-79 199.5,-79"/>
<text text-anchor="start" x="219.5" y="-87.2" font-family="Helvetica,sans-Serif" font-size="11.00">recdatecreated</text>
<polygon fill="none" stroke="black" points="344.5,-79 344.5,-101 418.5,-101 418.5,-79 344.5,-79"/>
<text text-anchor="start" x="347.5" y="-87.2" font-family="Helvetica,sans-Serif" font-size="11.00">timestamp[22]</text>
<polygon fill="none" stroke="black" points="199.5,-57 199.5,-79 344.5,-79 344.5,-57 199.5,-57"/>
<text text-anchor="start" x="219.5" y="-65.2" font-family="Helvetica,sans-Serif" font-size="11.00">recdatemodified</text>
<polygon fill="none" stroke="black" points="344.5,-57 344.5,-79 418.5,-79 418.5,-57 344.5,-57"/>
<text text-anchor="start" x="347.5" y="-65.2" font-family="Helvetica,sans-Serif" font-size="11.00">timestamp[22]</text>
<polygon fill="#ffffff" stroke="transparent" points="199.5,-39 199.5,-57 252.5,-57 252.5,-39 199.5,-39"/>
<polygon fill="none" stroke="black" points="199.5,-39 199.5,-57 252.5,-57 252.5,-39 199.5,-39"/>
<text text-anchor="start" x="202.5" y="-45.2" font-family="Helvetica,sans-Serif" font-size="11.00">&lt; 2</text>
<polygon fill="#ffffff" stroke="transparent" points="252.5,-39 252.5,-57 344.5,-57 344.5,-39 252.5,-39"/>
<polygon fill="none" stroke="black" points="252.5,-39 252.5,-57 344.5,-57 344.5,-39 252.5,-39"/>
<text text-anchor="start" x="287.5" y="-45.2" font-family="Helvetica,sans-Serif" font-size="11.00">1,317 rows</text>
<polygon fill="#ffffff" stroke="transparent" points="344.5,-39 344.5,-57 418.5,-57 418.5,-39 344.5,-39"/>
<polygon fill="none" stroke="black" points="344.5,-39 344.5,-57 418.5,-57 418.5,-39 344.5,-39"/>
<text text-anchor="start" x="399.5" y="-45.2" font-family="Helvetica,sans-Serif" font-size="11.00">0 &gt;</text>
<polygon fill="none" stroke="black" stroke-width="2" points="198,-38 198,-190 419,-190 419,-38 198,-38"/>
</a>
</g>
</g>
<!-- externaldatabases -->
<g id="node2" class="node">
<title>externaldatabases</title>
<g id="a_node2"><a xlink:href="../../tables/externaldatabases.html" xlink:title="externaldatabases" target="_top">
<polygon fill="#ffffff" stroke="transparent" points="8,-37 8,-117 148,-117 148,-37 8,-37"/>
<polygon fill="#f5f5f5" stroke="transparent" points="8,-95 8,-117 148,-117 148,-95 8,-95"/>
<polygon fill="none" stroke="black" points="8,-95 8,-117 148,-117 148,-95 8,-95"/>
<text text-anchor="start" x="13" y="-104.2" font-family="Helvetica,sans-Serif" font-weight="bold" font-size="11.00">externaldatabases</text>
<text text-anchor="start" x="113" y="-103.2" font-family="Helvetica,sans-Serif" font-size="11.00">[table]</text>
<polygon fill="none" stroke="black" points="8,-73 8,-95 148,-95 148,-73 8,-73"/>
<image xlink:href="../../images/primaryKeys.png" width="11px" height="12px" preserveAspectRatio="xMinYMin meet" x="13" y="-90"/>
<text text-anchor="start" x="32" y="-81.2" font-family="Helvetica,sans-Serif" font-size="11.00">extdatabaseid</text>
<polygon fill="none" stroke="black" points="8,-55 8,-73 148,-73 148,-55 8,-55"/>
<text text-anchor="start" x="11" y="-61.2" font-family="Helvetica,sans-Serif" font-size="11.00">...</text>
<polygon fill="#ffffff" stroke="transparent" points="8,-37 8,-55 54,-55 54,-37 8,-37"/>
<polygon fill="none" stroke="black" points="8,-37 8,-55 54,-55 54,-37 8,-37"/>
<text text-anchor="start" x="11" y="-43.2" font-family="Helvetica,sans-Serif" font-size="11.00"> &#160;</text>
<polygon fill="#ffffff" stroke="transparent" points="54,-37 54,-55 109,-55 109,-37 54,-37"/>
<polygon fill="none" stroke="black" points="54,-37 54,-55 109,-55 109,-37 54,-37"/>
<text text-anchor="start" x="73" y="-43.2" font-family="Helvetica,sans-Serif" font-size="11.00">9 rows</text>
<polygon fill="#ffffff" stroke="transparent" points="109,-37 109,-55 148,-55 148,-37 109,-37"/>
<polygon fill="none" stroke="black" points="109,-37 109,-55 148,-55 148,-37 109,-37"/>
<text text-anchor="start" x="129" y="-43.2" font-family="Helvetica,sans-Serif" font-size="11.00">3 &gt;</text>
</a>
</g>
</g>
<!-- externalpublications&#45;&gt;externaldatabases -->
<g id="edge1" class="edge">
<title>externalpublications:w&#45;&gt;externaldatabases:e</title>
<path fill="none" stroke="black" d="M184.59,-129.02C170.63,-116.38 174.16,-84 149,-84"/>
<polygon fill="black" stroke="black" points="190.97,-131.31 197.29,-137.39 194.73,-132.65 198.5,-134 198.5,-134 198.5,-134 194.73,-132.65 199.71,-130.61 190.97,-131.31 190.97,-131.31"/>
<ellipse fill="none" stroke="black" cx="187.95" cy="-130.23" rx="3.2" ry="3.2"/>
</g>
<!-- publications -->
<g id="node3" class="node">
<title>publications</title>
<g id="a_node3"><a xlink:href="../../tables/publications.html" xlink:title="publications" target="_top">
<polygon fill="#ffffff" stroke="transparent" points="16.5,-138 16.5,-240 139.5,-240 139.5,-138 16.5,-138"/>
<polygon fill="#f5f5f5" stroke="transparent" points="17,-218 17,-240 140,-240 140,-218 17,-218"/>
<polygon fill="none" stroke="black" points="17,-218 17,-240 140,-240 140,-218 17,-218"/>
<text text-anchor="start" x="22" y="-227.2" font-family="Helvetica,sans-Serif" font-weight="bold" font-size="11.00">publications</text>
<text text-anchor="start" x="105" y="-226.2" font-family="Helvetica,sans-Serif" font-size="11.00">[table]</text>
<polygon fill="none" stroke="black" points="17,-196 17,-218 140,-218 140,-196 17,-196"/>
<image xlink:href="../../images/primaryKeys.png" width="11px" height="12px" preserveAspectRatio="xMinYMin meet" x="22" y="-213"/>
<text text-anchor="start" x="37" y="-204.2" font-family="Helvetica,sans-Serif" font-size="11.00">publicationid</text>
<polygon fill="none" stroke="black" points="17,-174 17,-196 140,-196 140,-174 17,-174"/>
<image xlink:href="../../images/foreignKeys.png" width="11px" height="12px" preserveAspectRatio="xMinYMin meet" x="22" y="-191"/>
<text text-anchor="start" x="37" y="-182.2" font-family="Helvetica,sans-Serif" font-size="11.00">pubtypeid</text>
<polygon fill="none" stroke="black" points="17,-156 17,-174 140,-174 140,-156 17,-156"/>
<text text-anchor="start" x="20" y="-162.2" font-family="Helvetica,sans-Serif" font-size="11.00">...</text>
<polygon fill="#ffffff" stroke="transparent" points="17,-138 17,-156 42,-156 42,-138 17,-138"/>
<polygon fill="none" stroke="black" points="17,-138 17,-156 42,-156 42,-138 17,-138"/>
<text text-anchor="start" x="20" y="-144.2" font-family="Helvetica,sans-Serif" font-size="11.00">&lt; 1</text>
<polygon fill="#ffffff" stroke="transparent" points="42,-138 42,-156 110,-156 110,-138 42,-138"/>
<polygon fill="none" stroke="black" points="42,-138 42,-156 110,-156 110,-138 42,-138"/>
<text text-anchor="start" x="47" y="-144.2" font-family="Helvetica,sans-Serif" font-size="11.00">13,466 rows</text>
<polygon fill="#ffffff" stroke="transparent" points="110,-138 110,-156 140,-156 140,-138 110,-138"/>
<polygon fill="none" stroke="black" points="110,-138 110,-156 140,-156 140,-138 110,-138"/>
<text text-anchor="start" x="115" y="-144.2" font-family="Helvetica,sans-Serif" font-size="11.00">12 &gt;</text>
</a>
</g>
</g>
<!-- externalpublications&#45;&gt;publications -->
<g id="edge2" class="edge">
<title>externalpublications:w&#45;&gt;publications:e</title>
<path fill="none" stroke="black" d="M184.42,-160C166.73,-172.02 169.29,-207 141,-207"/>
<polygon fill="black" stroke="black" points="190.8,-158.19 199.48,-159.46 194.65,-157.09 198.5,-156 198.5,-156 198.5,-156 194.65,-157.09 197.52,-152.54 190.8,-158.19 190.8,-158.19"/>
<ellipse fill="none" stroke="black" cx="187.73" cy="-159.06" rx="3.2" ry="3.2"/>
</g>
</g>
</svg>
