<?xml version="1.0" encoding="UTF-8" standalone="no"?>
<!DOCTYPE svg PUBLIC "-//W3C//DTD SVG 1.1//EN"
 "http://www.w3.org/Graphics/SVG/1.1/DTD/svg11.dtd">
<!-- Generated by graphviz version 2.43.0 (0)
 -->
<!-- Title: oneDegreeRelationshipsDiagram Pages: 1 -->
<svg width="434pt" height="419pt"
 viewBox="0.00 0.00 434.00 419.00" xmlns="http://www.w3.org/2000/svg" xmlns:xlink="http://www.w3.org/1999/xlink">
<g id="graph0" class="graph" transform="scale(1 1) rotate(0) translate(4 415)">
<title>oneDegreeRelationshipsDiagram</title>
<polygon fill="#ffffff" stroke="transparent" points="-4,4 -4,-415 430,-415 430,4 -4,4"/>
<text text-anchor="middle" x="71.5" y="-7.2" font-family="Helvetica,sans-Serif" font-size="11.00">Generated by SchemaSpy</text>
<!-- contactreferences -->
<g id="node1" class="node">
<title>contactreferences</title>
<g id="a_node1"><a xlink:href="../../tables/contactreferences.html" xlink:title="contactreferences" target="_top">
<polygon fill="#ffffff" stroke="transparent" points="273,-305 273,-407 412,-407 412,-305 273,-305"/>
<polygon fill="#f5f5f5" stroke="transparent" points="273.5,-385 273.5,-407 412.5,-407 412.5,-385 273.5,-385"/>
<polygon fill="none" stroke="black" points="273.5,-385 273.5,-407 412.5,-407 412.5,-385 273.5,-385"/>
<text text-anchor="start" x="278.5" y="-394.2" font-family="Helvetica,sans-Serif" font-weight="bold" font-size="11.00">contactreferences</text>
<text text-anchor="start" x="377.5" y="-393.2" font-family="Helvetica,sans-Serif" font-size="11.00">[table]</text>
<polygon fill="none" stroke="black" points="273.5,-363 273.5,-385 412.5,-385 412.5,-363 273.5,-363"/>
<image xlink:href="../../images/foreignKeys.png" width="11px" height="12px" preserveAspectRatio="xMinYMin meet" x="278.5" y="-380"/>
<text text-anchor="start" x="298.5" y="-371.2" font-family="Helvetica,sans-Serif" font-size="11.00">contactid</text>
<polygon fill="none" stroke="black" points="273.5,-341 273.5,-363 412.5,-363 412.5,-341 273.5,-341"/>
<image xlink:href="../../images/foreignKeys.png" width="11px" height="12px" preserveAspectRatio="xMinYMin meet" x="278.5" y="-358"/>
<text text-anchor="start" x="298.5" y="-349.2" font-family="Helvetica,sans-Serif" font-size="11.00">exdatabaseid</text>
<polygon fill="none" stroke="black" points="273.5,-323 273.5,-341 412.5,-341 412.5,-323 273.5,-323"/>
<text text-anchor="start" x="276.5" y="-329.2" font-family="Helvetica,sans-Serif" font-size="11.00">...</text>
<polygon fill="#ffffff" stroke="transparent" points="273.5,-305 273.5,-323 321.5,-323 321.5,-305 273.5,-305"/>
<polygon fill="none" stroke="black" points="273.5,-305 273.5,-323 321.5,-323 321.5,-305 273.5,-305"/>
<text text-anchor="start" x="276.5" y="-311.2" font-family="Helvetica,sans-Serif" font-size="11.00">&lt; 2</text>
<polygon fill="#ffffff" stroke="transparent" points="321.5,-305 321.5,-323 385.5,-323 385.5,-305 321.5,-305"/>
<polygon fill="none" stroke="black" points="321.5,-305 321.5,-323 385.5,-323 385.5,-305 321.5,-305"/>
<text text-anchor="start" x="337.5" y="-311.2" font-family="Helvetica,sans-Serif" font-size="11.00">662 rows</text>
<polygon fill="#ffffff" stroke="transparent" points="385.5,-305 385.5,-323 412.5,-323 412.5,-305 385.5,-305"/>
<polygon fill="none" stroke="black" points="385.5,-305 385.5,-323 412.5,-323 412.5,-305 385.5,-305"/>
<text text-anchor="start" x="402.5" y="-311.2" font-family="Helvetica,sans-Serif" font-size="11.00"> &#160;</text>
</a>
</g>
</g>
<!-- externaldatabases -->
<g id="node2" class="node">
<title>externaldatabases</title>
<g id="a_node2"><a xlink:href="../../tables/externaldatabases.html" xlink:title="externaldatabases" target="_top">
<polygon fill="#ffffff" stroke="transparent" points="8,-88 8,-264 218,-264 218,-88 8,-88"/>
<polygon fill="#f5f5f5" stroke="transparent" points="10,-240 10,-262 216,-262 216,-240 10,-240"/>
<polygon fill="none" stroke="black" points="10,-240 10,-262 216,-262 216,-240 10,-240"/>
<text text-anchor="start" x="15" y="-249.2" font-family="Helvetica,sans-Serif" font-weight="bold" font-size="11.00">externaldatabases</text>
<text text-anchor="start" x="181" y="-248.2" font-family="Helvetica,sans-Serif" font-size="11.00">[table]</text>
<polygon fill="none" stroke="black" points="10,-218 10,-240 142,-240 142,-218 10,-218"/>
<image xlink:href="../../images/primaryKeys.png" width="11px" height="12px" preserveAspectRatio="xMinYMin meet" x="15" y="-235"/>
<text text-anchor="start" x="30" y="-226.2" font-family="Helvetica,sans-Serif" font-size="11.00">extdatabaseid</text>
<polygon fill="none" stroke="black" points="142,-218 142,-240 216,-240 216,-218 142,-218"/>
<text text-anchor="start" x="145" y="-226.2" font-family="Helvetica,sans-Serif" font-size="11.00">serial[10]</text>
<polygon fill="none" stroke="black" points="10,-196 10,-218 142,-218 142,-196 10,-196"/>
<text text-anchor="start" x="30" y="-204.2" font-family="Helvetica,sans-Serif" font-size="11.00">extdatabasename</text>
<polygon fill="none" stroke="black" points="142,-196 142,-218 216,-218 216,-196 142,-196"/>
<text text-anchor="start" x="145" y="-204.2" font-family="Helvetica,sans-Serif" font-size="11.00">varchar[80]</text>
<polygon fill="none" stroke="black" points="10,-174 10,-196 142,-196 142,-174 10,-174"/>
<text text-anchor="start" x="30" y="-182.2" font-family="Helvetica,sans-Serif" font-size="11.00">url</text>
<polygon fill="none" stroke="black" points="142,-174 142,-196 216,-196 216,-174 142,-174"/>
<text text-anchor="start" x="145" y="-182.2" font-family="Helvetica,sans-Serif" font-size="11.00">varchar[128]</text>
<polygon fill="none" stroke="black" points="10,-152 10,-174 142,-174 142,-152 10,-152"/>
<text text-anchor="start" x="30" y="-160.2" font-family="Helvetica,sans-Serif" font-size="11.00">recdatecreated</text>
<polygon fill="none" stroke="black" points="142,-152 142,-174 216,-174 216,-152 142,-152"/>
<text text-anchor="start" x="145" y="-160.2" font-family="Helvetica,sans-Serif" font-size="11.00">timestamp[22]</text>
<polygon fill="none" stroke="black" points="10,-130 10,-152 142,-152 142,-130 10,-130"/>
<text text-anchor="start" x="30" y="-138.2" font-family="Helvetica,sans-Serif" font-size="11.00">recdatemodified</text>
<polygon fill="none" stroke="black" points="142,-130 142,-152 216,-152 216,-130 142,-130"/>
<text text-anchor="start" x="145" y="-138.2" font-family="Helvetica,sans-Serif" font-size="11.00">timestamp[22]</text>
<polygon fill="none" stroke="black" points="10,-108 10,-130 142,-130 142,-108 10,-108"/>
<text text-anchor="start" x="30" y="-116.2" font-family="Helvetica,sans-Serif" font-size="11.00">urlmask</text>
<polygon fill="none" stroke="black" points="142,-108 142,-130 216,-130 216,-108 142,-108"/>
<text text-anchor="start" x="145" y="-116.2" font-family="Helvetica,sans-Serif" font-size="11.00">varchar[128]</text>
<polygon fill="#ffffff" stroke="transparent" points="10,-90 10,-108 67,-108 67,-90 10,-90"/>
<polygon fill="none" stroke="black" points="10,-90 10,-108 67,-108 67,-90 10,-90"/>
<text text-anchor="start" x="13" y="-96.2" font-family="Helvetica,sans-Serif" font-size="11.00">&lt; 0</text>
<polygon fill="#ffffff" stroke="transparent" points="67,-90 67,-108 142,-108 142,-90 67,-90"/>
<polygon fill="none" stroke="black" points="67,-90 67,-108 142,-108 142,-90 67,-90"/>
<text text-anchor="start" x="106" y="-96.2" font-family="Helvetica,sans-Serif" font-size="11.00">9 rows</text>
<polygon fill="#ffffff" stroke="transparent" points="142,-90 142,-108 216,-108 216,-90 142,-90"/>
<polygon fill="none" stroke="black" points="142,-90 142,-108 216,-108 216,-90 142,-90"/>
<text text-anchor="start" x="197" y="-96.2" font-family="Helvetica,sans-Serif" font-size="11.00">3 &gt;</text>
<polygon fill="none" stroke="black" stroke-width="2" points="9,-89 9,-263 217,-263 217,-89 9,-89"/>
</a>
</g>
</g>
<!-- contactreferences&#45;&gt;externaldatabases -->
<g id="edge1" class="edge">
<title>contactreferences:w&#45;&gt;externaldatabases:e</title>
<path fill="none" stroke="black" d="M258.26,-348.71C223.93,-329.15 271.12,-229 217,-229"/>
<polygon fill="black" stroke="black" points="264.71,-350.2 271.69,-355.51 268.6,-351.1 272.5,-352 272.5,-352 272.5,-352 268.6,-351.1 273.31,-348.49 264.71,-350.2 264.71,-350.2"/>
<ellipse fill="none" stroke="black" cx="261.59" cy="-349.48" rx="3.2" ry="3.2"/>
</g>
<!-- externalpublications -->
<g id="node3" class="node">
<title>externalpublications</title>
<g id="a_node3"><a xlink:href="../../tables/externalpublications.html" xlink:title="externalpublications" target="_top">
<polygon fill="#ffffff" stroke="transparent" points="267,-182 267,-284 418,-284 418,-182 267,-182"/>
<polygon fill="#f5f5f5" stroke="transparent" points="267.5,-262 267.5,-284 418.5,-284 418.5,-262 267.5,-262"/>
<polygon fill="none" stroke="black" points="267.5,-262 267.5,-284 418.5,-284 418.5,-262 267.5,-262"/>
<text text-anchor="start" x="272.5" y="-271.2" font-family="Helvetica,sans-Serif" font-weight="bold" font-size="11.00">externalpublications</text>
<text text-anchor="start" x="383.5" y="-270.2" font-family="Helvetica,sans-Serif" font-size="11.00">[table]</text>
<polygon fill="none" stroke="black" points="267.5,-240 267.5,-262 418.5,-262 418.5,-240 267.5,-240"/>
<image xlink:href="../../images/primaryKeys.png" width="11px" height="12px" preserveAspectRatio="xMinYMin meet" x="272.5" y="-257"/>
<text text-anchor="start" x="290.5" y="-248.2" font-family="Helvetica,sans-Serif" font-size="11.00">publicationid</text>
<polygon fill="none" stroke="black" points="267.5,-218 267.5,-240 418.5,-240 418.5,-218 267.5,-218"/>
<image xlink:href="../../images/primaryKeys.png" width="11px" height="12px" preserveAspectRatio="xMinYMin meet" x="272.5" y="-235"/>
<text text-anchor="start" x="290.5" y="-226.2" font-family="Helvetica,sans-Serif" font-size="11.00">extdatabaseid</text>
<polygon fill="none" stroke="black" points="267.5,-200 267.5,-218 418.5,-218 418.5,-200 267.5,-200"/>
<text text-anchor="start" x="270.5" y="-206.2" font-family="Helvetica,sans-Serif" font-size="11.00">...</text>
<polygon fill="#ffffff" stroke="transparent" points="267.5,-182 267.5,-200 317.5,-200 317.5,-182 267.5,-182"/>
<polygon fill="none" stroke="black" points="267.5,-182 267.5,-200 317.5,-200 317.5,-182 267.5,-182"/>
<text text-anchor="start" x="270.5" y="-188.2" font-family="Helvetica,sans-Serif" font-size="11.00">&lt; 2</text>
<polygon fill="#ffffff" stroke="transparent" points="317.5,-182 317.5,-200 391.5,-200 391.5,-182 317.5,-182"/>
<polygon fill="none" stroke="black" points="317.5,-182 317.5,-200 391.5,-200 391.5,-182 317.5,-182"/>
<text text-anchor="start" x="334.5" y="-188.2" font-family="Helvetica,sans-Serif" font-size="11.00">1,317 rows</text>
<polygon fill="#ffffff" stroke="transparent" points="391.5,-182 391.5,-200 418.5,-200 418.5,-182 391.5,-182"/>
<polygon fill="none" stroke="black" points="391.5,-182 391.5,-200 418.5,-200 418.5,-182 391.5,-182"/>
<text text-anchor="start" x="408.5" y="-188.2" font-family="Helvetica,sans-Serif" font-size="11.00"> &#160;</text>
</a>
</g>
</g>
<!-- externalpublications&#45;&gt;externaldatabases -->
<g id="edge2" class="edge">
<title>externalpublications:w&#45;&gt;externaldatabases:e</title>
<path fill="none" stroke="black" d="M251.84,-229C240.41,-229 233.16,-229 217,-229"/>
<polygon fill="black" stroke="black" points="258.5,-229 266.5,-232.6 262.5,-229 266.5,-229 266.5,-229 266.5,-229 262.5,-229 266.5,-225.4 258.5,-229 258.5,-229"/>
<ellipse fill="none" stroke="black" cx="255.3" cy="-229" rx="3.2" ry="3.2"/>
</g>
<!-- externaltaxa -->
<g id="node4" class="node">
<title>externaltaxa</title>
<g id="a_node4"><a xlink:href="../../tables/externaltaxa.html" xlink:title="externaltaxa" target="_top">
<polygon fill="#ffffff" stroke="transparent" points="282.5,-37 282.5,-161 402.5,-161 402.5,-37 282.5,-37"/>
<polygon fill="#f5f5f5" stroke="transparent" points="282.5,-139 282.5,-161 402.5,-161 402.5,-139 282.5,-139"/>
<polygon fill="none" stroke="black" points="282.5,-139 282.5,-161 402.5,-161 402.5,-139 282.5,-139"/>
<text text-anchor="start" x="287.5" y="-148.2" font-family="Helvetica,sans-Serif" font-weight="bold" font-size="11.00">externaltaxa</text>
<text text-anchor="start" x="367.5" y="-147.2" font-family="Helvetica,sans-Serif" font-size="11.00">[table]</text>
<polygon fill="none" stroke="black" points="282.5,-117 282.5,-139 402.5,-139 402.5,-117 282.5,-117"/>
<image xlink:href="../../images/primaryKeys.png" width="11px" height="12px" preserveAspectRatio="xMinYMin meet" x="287.5" y="-134"/>
<text text-anchor="start" x="302.5" y="-125.2" font-family="Helvetica,sans-Serif" font-size="11.00">taxonid</text>
<polygon fill="none" stroke="black" points="282.5,-95 282.5,-117 402.5,-117 402.5,-95 282.5,-95"/>
<image xlink:href="../../images/primaryKeys.png" width="11px" height="12px" preserveAspectRatio="xMinYMin meet" x="287.5" y="-112"/>
<text text-anchor="start" x="302.5" y="-103.2" font-family="Helvetica,sans-Serif" font-size="11.00">extdatabaseid</text>
<polygon fill="none" stroke="black" points="282.5,-73 282.5,-95 402.5,-95 402.5,-73 282.5,-73"/>
<image xlink:href="../../images/primaryKeys.png" width="11px" height="12px" preserveAspectRatio="xMinYMin meet" x="287.5" y="-90"/>
<text text-anchor="start" x="302.5" y="-81.2" font-family="Helvetica,sans-Serif" font-size="11.00">exttaxonid</text>
<polygon fill="none" stroke="black" points="282.5,-55 282.5,-73 402.5,-73 402.5,-55 282.5,-55"/>
<text text-anchor="start" x="285.5" y="-61.2" font-family="Helvetica,sans-Serif" font-size="11.00">...</text>
<polygon fill="#ffffff" stroke="transparent" points="282.5,-37 282.5,-55 313.5,-55 313.5,-37 282.5,-37"/>
<polygon fill="none" stroke="black" points="282.5,-37 282.5,-55 313.5,-55 313.5,-37 282.5,-37"/>
<text text-anchor="start" x="285.5" y="-43.2" font-family="Helvetica,sans-Serif" font-size="11.00">&lt; 2</text>
<polygon fill="#ffffff" stroke="transparent" points="313.5,-37 313.5,-55 384.5,-55 384.5,-37 313.5,-37"/>
<polygon fill="none" stroke="black" points="313.5,-37 313.5,-55 384.5,-55 384.5,-37 313.5,-37"/>
<text text-anchor="start" x="321.5" y="-43.2" font-family="Helvetica,sans-Serif" font-size="11.00">46,858 rows</text>
<polygon fill="#ffffff" stroke="transparent" points="384.5,-37 384.5,-55 402.5,-55 402.5,-37 384.5,-37"/>
<polygon fill="none" stroke="black" points="384.5,-37 384.5,-55 402.5,-55 402.5,-37 384.5,-37"/>
<text text-anchor="start" x="392.5" y="-43.2" font-family="Helvetica,sans-Serif" font-size="11.00"> &#160;</text>
</a>
</g>
</g>
<!-- externaltaxa&#45;&gt;externaldatabases -->
<g id="edge3" class="edge">
<title>externaltaxa:w&#45;&gt;externaldatabases:e</title>
<path fill="none" stroke="black" d="M267.12,-109.04C229.77,-127.98 272.94,-229 217,-229"/>
<polygon fill="black" stroke="black" points="273.67,-107.66 282.24,-109.52 277.59,-106.83 281.5,-106 281.5,-106 281.5,-106 277.59,-106.83 280.76,-102.48 273.67,-107.66 273.67,-107.66"/>
<ellipse fill="none" stroke="black" cx="270.54" cy="-108.32" rx="3.2" ry="3.2"/>
</g>
</g>
</svg>
