<?xml version="1.0" encoding="UTF-8" standalone="no"?>
<!DOCTYPE svg PUBLIC "-//W3C//DTD SVG 1.1//EN"
 "http://www.w3.org/Graphics/SVG/1.1/DTD/svg11.dtd">
<!-- Generated by graphviz version 2.43.0 (0)
 -->
<!-- Title: twoDegreesRelationshipsDiagram Pages: 1 -->
<svg width="796pt" height="714pt"
 viewBox="0.00 0.00 796.00 714.00" xmlns="http://www.w3.org/2000/svg" xmlns:xlink="http://www.w3.org/1999/xlink">
<g id="graph0" class="graph" transform="scale(1 1) rotate(0) translate(4 710)">
<title>twoDegreesRelationshipsDiagram</title>
<polygon fill="#ffffff" stroke="transparent" points="-4,4 -4,-710 792,-710 792,4 -4,4"/>
<text text-anchor="middle" x="71.5" y="-7.2" font-family="Helvetica,sans-Serif" font-size="11.00">Generated by SchemaSpy</text>
<!-- accumulationrates -->
<g id="node1" class="node">
<title>accumulationrates</title>
<g id="a_node1"><a xlink:href="../../tables/accumulationrates.html" xlink:title="accumulationrates" target="_top">
<polygon fill="#ffffff" stroke="transparent" points="439.5,-644 439.5,-702 580.5,-702 580.5,-644 439.5,-644"/>
<polygon fill="#f5f5f5" stroke="transparent" points="440,-680 440,-702 581,-702 581,-680 440,-680"/>
<polygon fill="none" stroke="black" points="440,-680 440,-702 581,-702 581,-680 440,-680"/>
<text text-anchor="start" x="445" y="-689.2" font-family="Helvetica,sans-Serif" font-weight="bold" font-size="11.00">accumulationrates</text>
<text text-anchor="start" x="546" y="-688.2" font-family="Helvetica,sans-Serif" font-size="11.00">[table]</text>
<polygon fill="none" stroke="black" points="440,-662 440,-680 581,-680 581,-662 440,-662"/>
<text text-anchor="start" x="443" y="-668.2" font-family="Helvetica,sans-Serif" font-size="11.00">...</text>
<polygon fill="#ffffff" stroke="transparent" points="440,-644 440,-662 485,-662 485,-644 440,-644"/>
<polygon fill="none" stroke="black" points="440,-644 440,-662 485,-662 485,-644 440,-644"/>
<text text-anchor="start" x="443" y="-650.2" font-family="Helvetica,sans-Serif" font-size="11.00">&lt; 3</text>
<polygon fill="#ffffff" stroke="transparent" points="485,-644 485,-662 556,-662 556,-644 485,-644"/>
<polygon fill="none" stroke="black" points="485,-644 485,-662 556,-662 556,-644 485,-644"/>
<text text-anchor="start" x="499" y="-650.2" font-family="Helvetica,sans-Serif" font-size="11.00">1,089 rows</text>
<polygon fill="#ffffff" stroke="transparent" points="556,-644 556,-662 581,-662 581,-644 556,-644"/>
<polygon fill="none" stroke="black" points="556,-644 556,-662 581,-662 581,-644 556,-644"/>
<text text-anchor="start" x="571" y="-650.2" font-family="Helvetica,sans-Serif" font-size="11.00"> &#160;</text>
</a>
</g>
</g>
<!-- analysisunits -->
<g id="node2" class="node">
<title>analysisunits</title>
<g id="a_node2"><a xlink:href="../../tables/analysisunits.html" xlink:title="analysisunits" target="_top">
<polygon fill="#ffffff" stroke="transparent" points="255,-290 255,-414 383,-414 383,-290 255,-290"/>
<polygon fill="#f5f5f5" stroke="transparent" points="255,-392 255,-414 383,-414 383,-392 255,-392"/>
<polygon fill="none" stroke="black" points="255,-392 255,-414 383,-414 383,-392 255,-392"/>
<text text-anchor="start" x="260" y="-401.2" font-family="Helvetica,sans-Serif" font-weight="bold" font-size="11.00">analysisunits</text>
<text text-anchor="start" x="348" y="-400.2" font-family="Helvetica,sans-Serif" font-size="11.00">[table]</text>
<polygon fill="none" stroke="black" points="255,-370 255,-392 383,-392 383,-370 255,-370"/>
<image xlink:href="../../images/primaryKeys.png" width="11px" height="12px" preserveAspectRatio="xMinYMin meet" x="260" y="-387"/>
<text text-anchor="start" x="275" y="-378.2" font-family="Helvetica,sans-Serif" font-size="11.00">analysisunitid</text>
<polygon fill="#ffffff" stroke="transparent" points="255,-348 255,-370 383,-370 383,-348 255,-348"/>
<polygon fill="none" stroke="black" points="255,-348 255,-370 383,-370 383,-348 255,-348"/>
<image xlink:href="../../images/foreignKeys.png" width="11px" height="12px" preserveAspectRatio="xMinYMin meet" x="260" y="-365"/>
<text text-anchor="start" x="275" y="-356.2" font-family="Helvetica,sans-Serif" font-size="11.00">collectionunitid</text>
<polygon fill="#ffffff" stroke="transparent" points="255,-326 255,-348 383,-348 383,-326 255,-326"/>
<polygon fill="none" stroke="black" points="255,-326 255,-348 383,-348 383,-326 255,-326"/>
<image xlink:href="../../images/foreignKeys.png" width="11px" height="12px" preserveAspectRatio="xMinYMin meet" x="260" y="-343"/>
<text text-anchor="start" x="275" y="-334.2" font-family="Helvetica,sans-Serif" font-size="11.00">faciesid</text>
<polygon fill="none" stroke="black" points="255,-308 255,-326 383,-326 383,-308 255,-308"/>
<text text-anchor="start" x="258" y="-314.2" font-family="Helvetica,sans-Serif" font-size="11.00">...</text>
<polygon fill="#ffffff" stroke="transparent" points="255,-290 255,-308 280,-308 280,-290 255,-290"/>
<polygon fill="none" stroke="black" points="255,-290 255,-308 280,-308 280,-290 255,-290"/>
<text text-anchor="start" x="258" y="-296.2" font-family="Helvetica,sans-Serif" font-size="11.00">&lt; 2</text>
<polygon fill="#ffffff" stroke="transparent" points="280,-290 280,-308 353,-308 353,-290 280,-290"/>
<polygon fill="none" stroke="black" points="280,-290 280,-308 353,-308 353,-290 280,-290"/>
<text text-anchor="start" x="284" y="-296.2" font-family="Helvetica,sans-Serif" font-size="11.00">486,580 rows</text>
<polygon fill="#ffffff" stroke="transparent" points="353,-290 353,-308 383,-308 383,-290 353,-290"/>
<polygon fill="none" stroke="black" points="353,-290 353,-308 383,-308 383,-290 353,-290"/>
<text text-anchor="start" x="358" y="-296.2" font-family="Helvetica,sans-Serif" font-size="11.00">10 &gt;</text>
</a>
</g>
</g>
<!-- accumulationrates&#45;&gt;analysisunits -->
<g id="edge1" class="edge">
<title>accumulationrates:w&#45;&gt;analysisunits:e</title>
<path fill="none" stroke="black" d="M425.56,-665.47C384.95,-625.37 444.21,-381 384,-381"/>
<polygon fill="black" stroke="black" points="431.6,-667.95 437.63,-674.33 435.3,-669.48 439,-671 439,-671 439,-671 435.3,-669.48 440.37,-667.67 431.6,-667.95 431.6,-667.95"/>
<ellipse fill="none" stroke="black" cx="428.64" cy="-666.73" rx="3.2" ry="3.2"/>
</g>
<!-- collectionunits -->
<g id="node5" class="node">
<title>collectionunits</title>
<g id="a_node5"><a xlink:href="../../tables/collectionunits.html" xlink:title="collectionunits" target="_top">
<polygon fill="#ffffff" stroke="transparent" points="46,-363 46,-421 168,-421 168,-363 46,-363"/>
<polygon fill="#f5f5f5" stroke="transparent" points="46,-399 46,-421 168,-421 168,-399 46,-399"/>
<polygon fill="none" stroke="black" points="46,-399 46,-421 168,-421 168,-399 46,-399"/>
<text text-anchor="start" x="51" y="-408.2" font-family="Helvetica,sans-Serif" font-weight="bold" font-size="11.00">collectionunits</text>
<text text-anchor="start" x="133" y="-407.2" font-family="Helvetica,sans-Serif" font-size="11.00">[table]</text>
<polygon fill="none" stroke="black" points="46,-381 46,-399 168,-399 168,-381 46,-381"/>
<text text-anchor="start" x="49" y="-387.2" font-family="Helvetica,sans-Serif" font-size="11.00">...</text>
<polygon fill="#ffffff" stroke="transparent" points="46,-363 46,-381 74,-381 74,-363 46,-363"/>
<polygon fill="none" stroke="black" points="46,-363 46,-381 74,-381 74,-363 46,-363"/>
<text text-anchor="start" x="49" y="-369.2" font-family="Helvetica,sans-Serif" font-size="11.00">&lt; 4</text>
<polygon fill="#ffffff" stroke="transparent" points="74,-363 74,-381 143,-381 143,-363 74,-363"/>
<polygon fill="none" stroke="black" points="74,-363 74,-381 143,-381 143,-363 74,-363"/>
<text text-anchor="start" x="80" y="-369.2" font-family="Helvetica,sans-Serif" font-size="11.00">33,980 rows</text>
<polygon fill="#ffffff" stroke="transparent" points="143,-363 143,-381 168,-381 168,-363 143,-363"/>
<polygon fill="none" stroke="black" points="143,-363 143,-381 168,-381 168,-363 143,-363"/>
<text text-anchor="start" x="149" y="-369.2" font-family="Helvetica,sans-Serif" font-size="11.00">5 &gt;</text>
</a>
</g>
</g>
<!-- analysisunits&#45;&gt;collectionunits -->
<g id="edge4" class="edge">
<title>analysisunits:w&#45;&gt;collectionunits:e</title>
<path fill="none" stroke="black" d="M239.32,-360.58C211.87,-366.9 203.71,-390 169,-390"/>
<polygon fill="black" stroke="black" points="246.05,-359.86 254.39,-362.58 250.02,-359.43 254,-359 254,-359 254,-359 250.02,-359.43 253.61,-355.42 246.05,-359.86 246.05,-359.86"/>
<ellipse fill="none" stroke="black" cx="242.86" cy="-360.2" rx="3.2" ry="3.2"/>
</g>
<!-- faciestypes -->
<g id="node6" class="node">
<title>faciestypes</title>
<g id="a_node6"><a xlink:href="../../tables/faciestypes.html" xlink:title="faciestypes" target="_top">
<polygon fill="#ffffff" stroke="transparent" points="8,-210 8,-342 206,-342 206,-210 8,-210"/>
<polygon fill="#f5f5f5" stroke="transparent" points="10,-318 10,-340 204,-340 204,-318 10,-318"/>
<polygon fill="none" stroke="black" points="10,-318 10,-340 204,-340 204,-318 10,-318"/>
<text text-anchor="start" x="15" y="-327.2" font-family="Helvetica,sans-Serif" font-weight="bold" font-size="11.00">faciestypes</text>
<text text-anchor="start" x="169" y="-326.2" font-family="Helvetica,sans-Serif" font-size="11.00">[table]</text>
<polygon fill="none" stroke="black" points="10,-296 10,-318 130,-318 130,-296 10,-296"/>
<image xlink:href="../../images/primaryKeys.png" width="11px" height="12px" preserveAspectRatio="xMinYMin meet" x="15" y="-313"/>
<text text-anchor="start" x="30" y="-304.2" font-family="Helvetica,sans-Serif" font-size="11.00">faciesid</text>
<polygon fill="none" stroke="black" points="130,-296 130,-318 204,-318 204,-296 130,-296"/>
<text text-anchor="start" x="133" y="-304.2" font-family="Helvetica,sans-Serif" font-size="11.00">serial[10]</text>
<polygon fill="none" stroke="black" points="10,-274 10,-296 130,-296 130,-274 10,-274"/>
<text text-anchor="start" x="30" y="-282.2" font-family="Helvetica,sans-Serif" font-size="11.00">facies</text>
<polygon fill="none" stroke="black" points="130,-274 130,-296 204,-296 204,-274 130,-274"/>
<text text-anchor="start" x="133" y="-282.2" font-family="Helvetica,sans-Serif" font-size="11.00">varchar[64]</text>
<polygon fill="none" stroke="black" points="10,-252 10,-274 130,-274 130,-252 10,-252"/>
<text text-anchor="start" x="30" y="-260.2" font-family="Helvetica,sans-Serif" font-size="11.00">recdatecreated</text>
<polygon fill="none" stroke="black" points="130,-252 130,-274 204,-274 204,-252 130,-252"/>
<text text-anchor="start" x="133" y="-260.2" font-family="Helvetica,sans-Serif" font-size="11.00">timestamp[22]</text>
<polygon fill="none" stroke="black" points="10,-230 10,-252 130,-252 130,-230 10,-230"/>
<text text-anchor="start" x="30" y="-238.2" font-family="Helvetica,sans-Serif" font-size="11.00">recdatemodified</text>
<polygon fill="none" stroke="black" points="130,-230 130,-252 204,-252 204,-230 130,-230"/>
<text text-anchor="start" x="133" y="-238.2" font-family="Helvetica,sans-Serif" font-size="11.00">timestamp[22]</text>
<polygon fill="#ffffff" stroke="transparent" points="10,-212 10,-230 55,-230 55,-212 10,-212"/>
<polygon fill="none" stroke="black" points="10,-212 10,-230 55,-230 55,-212 10,-212"/>
<text text-anchor="start" x="13" y="-218.2" font-family="Helvetica,sans-Serif" font-size="11.00">&lt; 0</text>
<polygon fill="#ffffff" stroke="transparent" points="55,-212 55,-230 130,-230 130,-212 55,-212"/>
<polygon fill="none" stroke="black" points="55,-212 55,-230 130,-230 130,-212 55,-212"/>
<text text-anchor="start" x="82" y="-218.2" font-family="Helvetica,sans-Serif" font-size="11.00">103 rows</text>
<polygon fill="#ffffff" stroke="transparent" points="130,-212 130,-230 204,-230 204,-212 130,-212"/>
<polygon fill="none" stroke="black" points="130,-212 130,-230 204,-230 204,-212 130,-212"/>
<text text-anchor="start" x="185" y="-218.2" font-family="Helvetica,sans-Serif" font-size="11.00">1 &gt;</text>
<polygon fill="none" stroke="black" stroke-width="2" points="9,-211 9,-341 205,-341 205,-211 9,-211"/>
</a>
</g>
</g>
<!-- analysisunits&#45;&gt;faciestypes -->
<g id="edge5" class="edge">
<title>analysisunits:w&#45;&gt;faciestypes:e</title>
<path fill="none" stroke="black" d="M239.88,-332.83C227.92,-324.59 224.55,-307 205,-307"/>
<polygon fill="black" stroke="black" points="246.33,-334.73 252.98,-340.45 250.16,-335.87 254,-337 254,-337 254,-337 250.16,-335.87 255.02,-333.55 246.33,-334.73 246.33,-334.73"/>
<ellipse fill="none" stroke="black" cx="243.26" cy="-333.83" rx="3.2" ry="3.2"/>
</g>
<!-- analysisunitaltdepths -->
<g id="node3" class="node">
<title>analysisunitaltdepths</title>
<g id="a_node3"><a xlink:href="../../tables/analysisunitaltdepths.html" xlink:title="analysisunitaltdepths" target="_top">
<polygon fill="#ffffff" stroke="transparent" points="432,-565 432,-623 588,-623 588,-565 432,-565"/>
<polygon fill="#f5f5f5" stroke="transparent" points="432,-601 432,-623 588,-623 588,-601 432,-601"/>
<polygon fill="none" stroke="black" points="432,-601 432,-623 588,-623 588,-601 432,-601"/>
<text text-anchor="start" x="437" y="-610.2" font-family="Helvetica,sans-Serif" font-weight="bold" font-size="11.00">analysisunitaltdepths</text>
<text text-anchor="start" x="553" y="-609.2" font-family="Helvetica,sans-Serif" font-size="11.00">[table]</text>
<polygon fill="none" stroke="black" points="432,-583 432,-601 588,-601 588,-583 432,-583"/>
<text text-anchor="start" x="435" y="-589.2" font-family="Helvetica,sans-Serif" font-size="11.00">...</text>
<polygon fill="#ffffff" stroke="transparent" points="432,-565 432,-583 484,-583 484,-565 432,-565"/>
<polygon fill="none" stroke="black" points="432,-565 432,-583 484,-583 484,-565 432,-565"/>
<text text-anchor="start" x="435" y="-571.2" font-family="Helvetica,sans-Serif" font-size="11.00">&lt; 2</text>
<polygon fill="#ffffff" stroke="transparent" points="484,-565 484,-583 559,-583 559,-565 484,-565"/>
<polygon fill="none" stroke="black" points="484,-565 484,-583 559,-583 559,-565 484,-565"/>
<text text-anchor="start" x="502" y="-571.2" font-family="Helvetica,sans-Serif" font-size="11.00">7,492 rows</text>
<polygon fill="#ffffff" stroke="transparent" points="559,-565 559,-583 588,-583 588,-565 559,-565"/>
<polygon fill="none" stroke="black" points="559,-565 559,-583 588,-583 588,-565 559,-565"/>
<text text-anchor="start" x="578" y="-571.2" font-family="Helvetica,sans-Serif" font-size="11.00"> &#160;</text>
</a>
</g>
</g>
<!-- analysisunitaltdepths&#45;&gt;analysisunits -->
<g id="edge2" class="edge">
<title>analysisunitaltdepths:w&#45;&gt;analysisunits:e</title>
<path fill="none" stroke="black" d="M416.5,-589.91C351.11,-568 474.45,-381 384,-381"/>
<polygon fill="black" stroke="black" points="423.08,-590.86 430.49,-595.56 427.04,-591.43 431,-592 431,-592 431,-592 427.04,-591.43 431.51,-588.44 423.08,-590.86 423.08,-590.86"/>
<ellipse fill="none" stroke="black" cx="419.91" cy="-590.4" rx="3.2" ry="3.2"/>
</g>
<!-- analysisunitlithostrat -->
<g id="node4" class="node">
<title>analysisunitlithostrat</title>
<g id="a_node4"><a xlink:href="../../tables/analysisunitlithostrat.html" xlink:title="analysisunitlithostrat" target="_top">
<polygon fill="#ffffff" stroke="transparent" points="432.5,-486 432.5,-544 587.5,-544 587.5,-486 432.5,-486"/>
<polygon fill="#f5f5f5" stroke="transparent" points="433,-522 433,-544 588,-544 588,-522 433,-522"/>
<polygon fill="none" stroke="black" points="433,-522 433,-544 588,-544 588,-522 433,-522"/>
<text text-anchor="start" x="438" y="-531.2" font-family="Helvetica,sans-Serif" font-weight="bold" font-size="11.00">analysisunitlithostrat</text>
<text text-anchor="start" x="553" y="-530.2" font-family="Helvetica,sans-Serif" font-size="11.00">[table]</text>
<polygon fill="none" stroke="black" points="433,-504 433,-522 588,-522 588,-504 433,-504"/>
<text text-anchor="start" x="436" y="-510.2" font-family="Helvetica,sans-Serif" font-size="11.00">...</text>
<polygon fill="#ffffff" stroke="transparent" points="433,-486 433,-504 495,-504 495,-486 433,-486"/>
<polygon fill="none" stroke="black" points="433,-486 433,-504 495,-504 495,-486 433,-486"/>
<text text-anchor="start" x="436" y="-492.2" font-family="Helvetica,sans-Serif" font-size="11.00">&lt; 2</text>
<polygon fill="#ffffff" stroke="transparent" points="495,-486 495,-504 554,-504 554,-486 495,-486"/>
<polygon fill="none" stroke="black" points="495,-486 495,-504 554,-504 554,-486 495,-486"/>
<text text-anchor="start" x="518" y="-492.2" font-family="Helvetica,sans-Serif" font-size="11.00">0 rows</text>
<polygon fill="#ffffff" stroke="transparent" points="554,-486 554,-504 588,-504 588,-486 554,-486"/>
<polygon fill="none" stroke="black" points="554,-486 554,-504 588,-504 588,-486 554,-486"/>
<text text-anchor="start" x="578" y="-492.2" font-family="Helvetica,sans-Serif" font-size="11.00"> &#160;</text>
</a>
</g>
</g>
<!-- analysisunitlithostrat&#45;&gt;analysisunits -->
<g id="edge3" class="edge">
<title>analysisunitlithostrat:w&#45;&gt;analysisunits:e</title>
<path fill="none" stroke="black" d="M417.89,-509.74C382.76,-489.41 440.57,-381 384,-381"/>
<polygon fill="black" stroke="black" points="424.21,-511.2 431.19,-516.51 428.1,-512.1 432,-513 432,-513 432,-513 428.1,-512.1 432.81,-509.49 424.21,-511.2 424.21,-511.2"/>
<ellipse fill="none" stroke="black" cx="421.09" cy="-510.48" rx="3.2" ry="3.2"/>
</g>
<!-- chroncontrols -->
<g id="node7" class="node">
<title>chroncontrols</title>
<g id="a_node7"><a xlink:href="../../tables/chroncontrols.html" xlink:title="chroncontrols" target="_top">
<polygon fill="#ffffff" stroke="transparent" points="450.5,-380 450.5,-438 569.5,-438 569.5,-380 450.5,-380"/>
<polygon fill="#f5f5f5" stroke="transparent" points="451,-416 451,-438 570,-438 570,-416 451,-416"/>
<polygon fill="none" stroke="black" points="451,-416 451,-438 570,-438 570,-416 451,-416"/>
<text text-anchor="start" x="456" y="-425.2" font-family="Helvetica,sans-Serif" font-weight="bold" font-size="11.00">chroncontrols</text>
<text text-anchor="start" x="535" y="-424.2" font-family="Helvetica,sans-Serif" font-size="11.00">[table]</text>
<polygon fill="none" stroke="black" points="451,-398 451,-416 570,-416 570,-398 451,-398"/>
<text text-anchor="start" x="454" y="-404.2" font-family="Helvetica,sans-Serif" font-size="11.00">...</text>
<polygon fill="#ffffff" stroke="transparent" points="451,-380 451,-398 474,-398 474,-380 451,-380"/>
<polygon fill="none" stroke="black" points="451,-380 451,-398 474,-398 474,-380 451,-380"/>
<text text-anchor="start" x="454" y="-386.2" font-family="Helvetica,sans-Serif" font-size="11.00">&lt; 4</text>
<polygon fill="#ffffff" stroke="transparent" points="474,-380 474,-398 547,-398 547,-380 474,-380"/>
<polygon fill="none" stroke="black" points="474,-380 474,-398 547,-398 547,-380 474,-380"/>
<text text-anchor="start" x="478" y="-386.2" font-family="Helvetica,sans-Serif" font-size="11.00">103,140 rows</text>
<polygon fill="#ffffff" stroke="transparent" points="547,-380 547,-398 570,-398 570,-380 547,-380"/>
<polygon fill="none" stroke="black" points="547,-380 547,-398 570,-398 570,-380 547,-380"/>
<text text-anchor="start" x="551" y="-386.2" font-family="Helvetica,sans-Serif" font-size="11.00">5 &gt;</text>
</a>
</g>
</g>
<!-- chroncontrols&#45;&gt;analysisunits -->
<g id="edge6" class="edge">
<title>chroncontrols:w&#45;&gt;analysisunits:e</title>
<path fill="none" stroke="black" d="M435.71,-404.87C416.55,-398.66 409.99,-381 384,-381"/>
<polygon fill="black" stroke="black" points="442.09,-405.82 449.47,-410.56 446.04,-406.41 450,-407 450,-407 450,-407 446.04,-406.41 450.53,-403.44 442.09,-405.82 442.09,-405.82"/>
<ellipse fill="none" stroke="black" cx="438.92" cy="-405.35" rx="3.2" ry="3.2"/>
</g>
<!-- depagents -->
<g id="node8" class="node">
<title>depagents</title>
<g id="a_node8"><a xlink:href="../../tables/depagents.html" xlink:title="depagents" target="_top">
<polygon fill="#ffffff" stroke="transparent" points="460.5,-274 460.5,-332 559.5,-332 559.5,-274 460.5,-274"/>
<polygon fill="#f5f5f5" stroke="transparent" points="461,-310 461,-332 560,-332 560,-310 461,-310"/>
<polygon fill="none" stroke="black" points="461,-310 461,-332 560,-332 560,-310 461,-310"/>
<text text-anchor="start" x="466" y="-319.2" font-family="Helvetica,sans-Serif" font-weight="bold" font-size="11.00">depagents</text>
<text text-anchor="start" x="525" y="-318.2" font-family="Helvetica,sans-Serif" font-size="11.00">[table]</text>
<polygon fill="none" stroke="black" points="461,-292 461,-310 560,-310 560,-292 461,-292"/>
<text text-anchor="start" x="464" y="-298.2" font-family="Helvetica,sans-Serif" font-size="11.00">...</text>
<polygon fill="#ffffff" stroke="transparent" points="461,-274 461,-292 485,-292 485,-274 461,-274"/>
<polygon fill="none" stroke="black" points="461,-274 461,-292 485,-292 485,-274 461,-274"/>
<text text-anchor="start" x="464" y="-280.2" font-family="Helvetica,sans-Serif" font-size="11.00">&lt; 2</text>
<polygon fill="#ffffff" stroke="transparent" points="485,-274 485,-292 546,-292 546,-274 485,-274"/>
<polygon fill="none" stroke="black" points="485,-274 485,-292 546,-292 546,-274 485,-274"/>
<text text-anchor="start" x="489" y="-280.2" font-family="Helvetica,sans-Serif" font-size="11.00">5,273 rows</text>
<polygon fill="#ffffff" stroke="transparent" points="546,-274 546,-292 560,-292 560,-274 546,-274"/>
<polygon fill="none" stroke="black" points="546,-274 546,-292 560,-292 560,-274 546,-274"/>
<text text-anchor="start" x="550" y="-280.2" font-family="Helvetica,sans-Serif" font-size="11.00"> &#160;</text>
</a>
</g>
</g>
<!-- depagents&#45;&gt;analysisunits -->
<g id="edge7" class="edge">
<title>depagents:w&#45;&gt;analysisunits:e</title>
<path fill="none" stroke="black" d="M445.86,-303.85C415.05,-318.1 427.49,-381 384,-381"/>
<polygon fill="black" stroke="black" points="452.16,-302.58 460.71,-304.53 456.08,-301.79 460,-301 460,-301 460,-301 456.08,-301.79 459.29,-297.47 452.16,-302.58 452.16,-302.58"/>
<ellipse fill="none" stroke="black" cx="449.02" cy="-303.21" rx="3.2" ry="3.2"/>
</g>
<!-- eventchronology -->
<g id="node9" class="node">
<title>eventchronology</title>
<g id="a_node9"><a xlink:href="../../tables/eventchronology.html" xlink:title="eventchronology" target="_top">
<polygon fill="#ffffff" stroke="transparent" points="642,-428 642,-486 775,-486 775,-428 642,-428"/>
<polygon fill="#f5f5f5" stroke="transparent" points="642.5,-464 642.5,-486 775.5,-486 775.5,-464 642.5,-464"/>
<polygon fill="none" stroke="black" points="642.5,-464 642.5,-486 775.5,-486 775.5,-464 642.5,-464"/>
<text text-anchor="start" x="647.5" y="-473.2" font-family="Helvetica,sans-Serif" font-weight="bold" font-size="11.00">eventchronology</text>
<text text-anchor="start" x="740.5" y="-472.2" font-family="Helvetica,sans-Serif" font-size="11.00">[table]</text>
<polygon fill="none" stroke="black" points="642.5,-446 642.5,-464 775.5,-464 775.5,-446 642.5,-446"/>
<text text-anchor="start" x="645.5" y="-452.2" font-family="Helvetica,sans-Serif" font-size="11.00">...</text>
<polygon fill="#ffffff" stroke="transparent" points="642.5,-428 642.5,-446 687.5,-446 687.5,-428 642.5,-428"/>
<polygon fill="none" stroke="black" points="642.5,-428 642.5,-446 687.5,-446 687.5,-428 642.5,-428"/>
<text text-anchor="start" x="645.5" y="-434.2" font-family="Helvetica,sans-Serif" font-size="11.00">&lt; 3</text>
<polygon fill="#ffffff" stroke="transparent" points="687.5,-428 687.5,-446 750.5,-446 750.5,-428 687.5,-428"/>
<polygon fill="none" stroke="black" points="687.5,-428 687.5,-446 750.5,-446 750.5,-428 687.5,-428"/>
<text text-anchor="start" x="702.5" y="-434.2" font-family="Helvetica,sans-Serif" font-size="11.00">276 rows</text>
<polygon fill="#ffffff" stroke="transparent" points="750.5,-428 750.5,-446 775.5,-446 775.5,-428 750.5,-428"/>
<polygon fill="none" stroke="black" points="750.5,-428 750.5,-446 775.5,-446 775.5,-428 750.5,-428"/>
<text text-anchor="start" x="765.5" y="-434.2" font-family="Helvetica,sans-Serif" font-size="11.00"> &#160;</text>
</a>
</g>
</g>
<!-- eventchronology&#45;&gt;analysisunits -->
<g id="edge8" class="edge">
<title>eventchronology:w&#45;&gt;analysisunits:e</title>
<path fill="none" stroke="black" d="M626.95,-455.33C540.79,-459.22 502.96,-495.62 424,-449 393.81,-431.17 419.06,-381 384,-381"/>
<polygon fill="black" stroke="black" points="633.5,-455.18 641.58,-458.6 637.5,-455.09 641.5,-455 641.5,-455 641.5,-455 637.5,-455.09 641.42,-451.4 633.5,-455.18 633.5,-455.18"/>
<ellipse fill="none" stroke="black" cx="630.3" cy="-455.25" rx="3.2" ry="3.2"/>
</g>
<!-- eventchronology&#45;&gt;chroncontrols -->
<g id="edge9" class="edge">
<title>eventchronology:w&#45;&gt;chroncontrols:e</title>
<path fill="none" stroke="black" d="M627.19,-452.14C604.22,-441.81 603.28,-407 571,-407"/>
<polygon fill="black" stroke="black" points="633.66,-453.43 640.79,-458.53 637.58,-454.22 641.5,-455 641.5,-455 641.5,-455 637.58,-454.22 642.21,-451.47 633.66,-453.43 633.66,-453.43"/>
<ellipse fill="none" stroke="black" cx="630.52" cy="-452.81" rx="3.2" ry="3.2"/>
</g>
<!-- leadmodels -->
<g id="node10" class="node">
<title>leadmodels</title>
<g id="a_node10"><a xlink:href="../../tables/leadmodels.html" xlink:title="leadmodels" target="_top">
<polygon fill="#ffffff" stroke="transparent" points="457.5,-195 457.5,-253 562.5,-253 562.5,-195 457.5,-195"/>
<polygon fill="#f5f5f5" stroke="transparent" points="458,-231 458,-253 563,-253 563,-231 458,-231"/>
<polygon fill="none" stroke="black" points="458,-231 458,-253 563,-253 563,-231 458,-231"/>
<text text-anchor="start" x="463" y="-240.2" font-family="Helvetica,sans-Serif" font-weight="bold" font-size="11.00">leadmodels</text>
<text text-anchor="start" x="528" y="-239.2" font-family="Helvetica,sans-Serif" font-size="11.00">[table]</text>
<polygon fill="none" stroke="black" points="458,-213 458,-231 563,-231 563,-213 458,-213"/>
<text text-anchor="start" x="461" y="-219.2" font-family="Helvetica,sans-Serif" font-size="11.00">...</text>
<polygon fill="#ffffff" stroke="transparent" points="458,-195 458,-213 495,-213 495,-195 458,-195"/>
<polygon fill="none" stroke="black" points="458,-195 458,-213 495,-213 495,-195 458,-195"/>
<text text-anchor="start" x="461" y="-201.2" font-family="Helvetica,sans-Serif" font-size="11.00">&lt; 2</text>
<polygon fill="#ffffff" stroke="transparent" points="495,-195 495,-213 542,-213 542,-195 495,-195"/>
<polygon fill="none" stroke="black" points="495,-195 495,-213 542,-213 542,-195 495,-195"/>
<text text-anchor="start" x="506" y="-201.2" font-family="Helvetica,sans-Serif" font-size="11.00">0 rows</text>
<polygon fill="#ffffff" stroke="transparent" points="542,-195 542,-213 563,-213 563,-195 542,-195"/>
<polygon fill="none" stroke="black" points="542,-195 542,-213 563,-213 563,-195 542,-195"/>
<text text-anchor="start" x="553" y="-201.2" font-family="Helvetica,sans-Serif" font-size="11.00"> &#160;</text>
</a>
</g>
</g>
<!-- leadmodels&#45;&gt;analysisunits -->
<g id="edge10" class="edge">
<title>leadmodels:w&#45;&gt;analysisunits:e</title>
<path fill="none" stroke="black" d="M442.53,-224.37C390.33,-244.15 456.14,-381 384,-381"/>
<polygon fill="black" stroke="black" points="449.11,-223.29 457.58,-225.55 453.05,-222.65 457,-222 457,-222 457,-222 453.05,-222.65 456.42,-218.45 449.11,-223.29 449.11,-223.29"/>
<ellipse fill="none" stroke="black" cx="445.95" cy="-223.81" rx="3.2" ry="3.2"/>
</g>
<!-- relativechronology -->
<g id="node11" class="node">
<title>relativechronology</title>
<g id="a_node11"><a xlink:href="../../tables/relativechronology.html" xlink:title="relativechronology" target="_top">
<polygon fill="#ffffff" stroke="transparent" points="637,-342 637,-400 780,-400 780,-342 637,-342"/>
<polygon fill="#f5f5f5" stroke="transparent" points="637.5,-378 637.5,-400 780.5,-400 780.5,-378 637.5,-378"/>
<polygon fill="none" stroke="black" points="637.5,-378 637.5,-400 780.5,-400 780.5,-378 637.5,-378"/>
<text text-anchor="start" x="642.5" y="-387.2" font-family="Helvetica,sans-Serif" font-weight="bold" font-size="11.00">relativechronology</text>
<text text-anchor="start" x="745.5" y="-386.2" font-family="Helvetica,sans-Serif" font-size="11.00">[table]</text>
<polygon fill="none" stroke="black" points="637.5,-360 637.5,-378 780.5,-378 780.5,-360 637.5,-360"/>
<text text-anchor="start" x="640.5" y="-366.2" font-family="Helvetica,sans-Serif" font-size="11.00">...</text>
<polygon fill="#ffffff" stroke="transparent" points="637.5,-342 637.5,-360 683.5,-360 683.5,-342 637.5,-342"/>
<polygon fill="none" stroke="black" points="637.5,-342 637.5,-360 683.5,-360 683.5,-342 637.5,-342"/>
<text text-anchor="start" x="640.5" y="-348.2" font-family="Helvetica,sans-Serif" font-size="11.00">&lt; 3</text>
<polygon fill="#ffffff" stroke="transparent" points="683.5,-342 683.5,-360 755.5,-360 755.5,-342 683.5,-342"/>
<polygon fill="none" stroke="black" points="683.5,-342 683.5,-360 755.5,-360 755.5,-342 683.5,-342"/>
<text text-anchor="start" x="698.5" y="-348.2" font-family="Helvetica,sans-Serif" font-size="11.00">4,630 rows</text>
<polygon fill="#ffffff" stroke="transparent" points="755.5,-342 755.5,-360 780.5,-360 780.5,-342 755.5,-342"/>
<polygon fill="none" stroke="black" points="755.5,-342 755.5,-360 780.5,-360 780.5,-342 755.5,-342"/>
<text text-anchor="start" x="770.5" y="-348.2" font-family="Helvetica,sans-Serif" font-size="11.00"> &#160;</text>
</a>
</g>
</g>
<!-- relativechronology&#45;&gt;analysisunits -->
<g id="edge11" class="edge">
<title>relativechronology:w&#45;&gt;analysisunits:e</title>
<path fill="none" stroke="black" d="M621.87,-368.9C539.22,-367.8 512.54,-357.84 424,-370 405.73,-372.51 402.44,-381 384,-381"/>
<polygon fill="black" stroke="black" points="628.5,-368.95 636.48,-372.6 632.5,-368.97 636.5,-369 636.5,-369 636.5,-369 632.5,-368.97 636.52,-365.4 628.5,-368.95 628.5,-368.95"/>
<ellipse fill="none" stroke="black" cx="625.3" cy="-368.93" rx="3.2" ry="3.2"/>
</g>
<!-- relativechronology&#45;&gt;chroncontrols -->
<g id="edge12" class="edge">
<title>relativechronology:w&#45;&gt;chroncontrols:e</title>
<path fill="none" stroke="black" d="M622.21,-371.86C602.45,-380.69 599,-407 571,-407"/>
<polygon fill="black" stroke="black" points="628.66,-370.57 637.21,-372.53 632.58,-369.78 636.5,-369 636.5,-369 636.5,-369 632.58,-369.78 635.79,-365.47 628.66,-370.57 628.66,-370.57"/>
<ellipse fill="none" stroke="black" cx="625.52" cy="-371.19" rx="3.2" ry="3.2"/>
</g>
<!-- samples -->
<g id="node12" class="node">
<title>samples</title>
<g id="a_node12"><a xlink:href="../../tables/samples.html" xlink:title="samples" target="_top">
<polygon fill="#ffffff" stroke="transparent" points="452,-116 452,-174 568,-174 568,-116 452,-116"/>
<polygon fill="#f5f5f5" stroke="transparent" points="452,-152 452,-174 568,-174 568,-152 452,-152"/>
<polygon fill="none" stroke="black" points="452,-152 452,-174 568,-174 568,-152 452,-152"/>
<text text-anchor="start" x="457" y="-161.2" font-family="Helvetica,sans-Serif" font-weight="bold" font-size="11.00">samples</text>
<text text-anchor="start" x="533" y="-160.2" font-family="Helvetica,sans-Serif" font-size="11.00">[table]</text>
<polygon fill="none" stroke="black" points="452,-134 452,-152 568,-152 568,-134 452,-134"/>
<text text-anchor="start" x="455" y="-140.2" font-family="Helvetica,sans-Serif" font-size="11.00">...</text>
<polygon fill="#ffffff" stroke="transparent" points="452,-116 452,-134 474,-134 474,-116 452,-116"/>
<polygon fill="none" stroke="black" points="452,-116 452,-134 474,-134 474,-116 452,-116"/>
<text text-anchor="start" x="455" y="-122.2" font-family="Helvetica,sans-Serif" font-size="11.00">&lt; 3</text>
<polygon fill="#ffffff" stroke="transparent" points="474,-116 474,-134 546,-134 546,-116 474,-116"/>
<polygon fill="none" stroke="black" points="474,-116 474,-134 546,-134 546,-116 474,-116"/>
<text text-anchor="start" x="477" y="-122.2" font-family="Helvetica,sans-Serif" font-size="11.00">541,654 rows</text>
<polygon fill="#ffffff" stroke="transparent" points="546,-116 546,-134 568,-134 568,-116 546,-116"/>
<polygon fill="none" stroke="black" points="546,-116 546,-134 568,-134 568,-116 546,-116"/>
<text text-anchor="start" x="549" y="-122.2" font-family="Helvetica,sans-Serif" font-size="11.00">7 &gt;</text>
</a>
</g>
</g>
<!-- samples&#45;&gt;analysisunits -->
<g id="edge13" class="edge">
<title>samples:w&#45;&gt;analysisunits:e</title>
<path fill="none" stroke="black" d="M437.06,-148.09C429.87,-155.65 429.88,-170.55 424,-185 407.25,-226.18 428.45,-381 384,-381"/>
<polygon fill="black" stroke="black" points="443.48,-145.74 452.23,-146.38 447.24,-144.37 451,-143 451,-143 451,-143 447.24,-144.37 449.77,-139.62 443.48,-145.74 443.48,-145.74"/>
<ellipse fill="none" stroke="black" cx="440.48" cy="-146.84" rx="3.2" ry="3.2"/>
</g>
<!-- tephras -->
<g id="node13" class="node">
<title>tephras</title>
<g id="a_node13"><a xlink:href="../../tables/tephras.html" xlink:title="tephras" target="_top">
<polygon fill="#ffffff" stroke="transparent" points="467,-37 467,-95 553,-95 553,-37 467,-37"/>
<polygon fill="#f5f5f5" stroke="transparent" points="467,-73 467,-95 553,-95 553,-73 467,-73"/>
<polygon fill="none" stroke="black" points="467,-73 467,-95 553,-95 553,-73 467,-73"/>
<text text-anchor="start" x="472" y="-82.2" font-family="Helvetica,sans-Serif" font-weight="bold" font-size="11.00">tephras</text>
<text text-anchor="start" x="518" y="-81.2" font-family="Helvetica,sans-Serif" font-size="11.00">[table]</text>
<polygon fill="none" stroke="black" points="467,-55 467,-73 553,-73 553,-55 467,-55"/>
<text text-anchor="start" x="470" y="-61.2" font-family="Helvetica,sans-Serif" font-size="11.00">...</text>
<polygon fill="#ffffff" stroke="transparent" points="467,-37 467,-55 489,-55 489,-37 467,-37"/>
<polygon fill="none" stroke="black" points="467,-37 467,-55 489,-55 489,-37 467,-37"/>
<text text-anchor="start" x="470" y="-43.2" font-family="Helvetica,sans-Serif" font-size="11.00">&lt; 2</text>
<polygon fill="#ffffff" stroke="transparent" points="489,-37 489,-55 540,-55 540,-37 489,-37"/>
<polygon fill="none" stroke="black" points="489,-37 489,-55 540,-55 540,-37 489,-37"/>
<text text-anchor="start" x="492" y="-43.2" font-family="Helvetica,sans-Serif" font-size="11.00">153 rows</text>
<polygon fill="#ffffff" stroke="transparent" points="540,-37 540,-55 553,-55 553,-37 540,-37"/>
<polygon fill="none" stroke="black" points="540,-37 540,-55 553,-55 553,-37 540,-37"/>
<text text-anchor="start" x="543" y="-43.2" font-family="Helvetica,sans-Serif" font-size="11.00"> &#160;</text>
</a>
</g>
</g>
<!-- tephras&#45;&gt;analysisunits -->
<g id="edge14" class="edge">
<title>tephras:w&#45;&gt;analysisunits:e</title>
<path fill="none" stroke="black" d="M451.6,-66.5C437.57,-72.3 433.25,-87.57 424,-106 396.31,-161.2 445.75,-381 384,-381"/>
<polygon fill="black" stroke="black" points="458.12,-65.37 466.62,-67.55 462.06,-64.69 466,-64 466,-64 466,-64 462.06,-64.69 465.38,-60.45 458.12,-65.37 458.12,-65.37"/>
<ellipse fill="none" stroke="black" cx="454.97" cy="-65.92" rx="3.2" ry="3.2"/>
</g>
</g>
</svg>
