<?xml version="1.0" encoding="UTF-8" standalone="no"?>
<!DOCTYPE svg PUBLIC "-//W3C//DTD SVG 1.1//EN"
 "http://www.w3.org/Graphics/SVG/1.1/DTD/svg11.dtd">
<!-- Generated by graphviz version 2.43.0 (0)
 -->
<!-- Title: twoDegreesRelationshipsDiagram Pages: 1 -->
<svg width="796pt" height="635pt"
 viewBox="0.00 0.00 796.00 635.00" xmlns="http://www.w3.org/2000/svg" xmlns:xlink="http://www.w3.org/1999/xlink">
<g id="graph0" class="graph" transform="scale(1 1) rotate(0) translate(4 631)">
<title>twoDegreesRelationshipsDiagram</title>
<polygon fill="#ffffff" stroke="transparent" points="-4,4 -4,-631 792,-631 792,4 -4,4"/>
<text text-anchor="middle" x="71.5" y="-7.2" font-family="Helvetica,sans-Serif" font-size="11.00">Generated by SchemaSpy</text>
<!-- accumulationrates -->
<g id="node1" class="node">
<title>accumulationrates</title>
<g id="a_node1"><a xlink:href="../../tables/accumulationrates.html" xlink:title="accumulationrates" target="_top">
<polygon fill="#ffffff" stroke="transparent" points="439.5,-565 439.5,-623 580.5,-623 580.5,-565 439.5,-565"/>
<polygon fill="#f5f5f5" stroke="transparent" points="440,-601 440,-623 581,-623 581,-601 440,-601"/>
<polygon fill="none" stroke="black" points="440,-601 440,-623 581,-623 581,-601 440,-601"/>
<text text-anchor="start" x="445" y="-610.2" font-family="Helvetica,sans-Serif" font-weight="bold" font-size="11.00">accumulationrates</text>
<text text-anchor="start" x="546" y="-609.2" font-family="Helvetica,sans-Serif" font-size="11.00">[table]</text>
<polygon fill="none" stroke="black" points="440,-583 440,-601 581,-601 581,-583 440,-583"/>
<text text-anchor="start" x="443" y="-589.2" font-family="Helvetica,sans-Serif" font-size="11.00">...</text>
<polygon fill="#ffffff" stroke="transparent" points="440,-565 440,-583 485,-583 485,-565 440,-565"/>
<polygon fill="none" stroke="black" points="440,-565 440,-583 485,-583 485,-565 440,-565"/>
<text text-anchor="start" x="443" y="-571.2" font-family="Helvetica,sans-Serif" font-size="11.00">&lt; 3</text>
<polygon fill="#ffffff" stroke="transparent" points="485,-565 485,-583 556,-583 556,-565 485,-565"/>
<polygon fill="none" stroke="black" points="485,-565 485,-583 556,-583 556,-565 485,-565"/>
<text text-anchor="start" x="499" y="-571.2" font-family="Helvetica,sans-Serif" font-size="11.00">1,089 rows</text>
<polygon fill="#ffffff" stroke="transparent" points="556,-565 556,-583 581,-583 581,-565 556,-565"/>
<polygon fill="none" stroke="black" points="556,-565 556,-583 581,-583 581,-565 556,-565"/>
<text text-anchor="start" x="571" y="-571.2" font-family="Helvetica,sans-Serif" font-size="11.00"> &#160;</text>
</a>
</g>
</g>
<!-- analysisunits -->
<g id="node2" class="node">
<title>analysisunits</title>
<g id="a_node2"><a xlink:href="../../tables/analysisunits.html" xlink:title="analysisunits" target="_top">
<polygon fill="#ffffff" stroke="transparent" points="255,-237 255,-361 383,-361 383,-237 255,-237"/>
<polygon fill="#f5f5f5" stroke="transparent" points="255,-339 255,-361 383,-361 383,-339 255,-339"/>
<polygon fill="none" stroke="black" points="255,-339 255,-361 383,-361 383,-339 255,-339"/>
<text text-anchor="start" x="260" y="-348.2" font-family="Helvetica,sans-Serif" font-weight="bold" font-size="11.00">analysisunits</text>
<text text-anchor="start" x="348" y="-347.2" font-family="Helvetica,sans-Serif" font-size="11.00">[table]</text>
<polygon fill="none" stroke="black" points="255,-317 255,-339 383,-339 383,-317 255,-317"/>
<image xlink:href="../../images/primaryKeys.png" width="11px" height="12px" preserveAspectRatio="xMinYMin meet" x="260" y="-334"/>
<text text-anchor="start" x="275" y="-325.2" font-family="Helvetica,sans-Serif" font-size="11.00">analysisunitid</text>
<polygon fill="#ffffff" stroke="transparent" points="255,-295 255,-317 383,-317 383,-295 255,-295"/>
<polygon fill="none" stroke="black" points="255,-295 255,-317 383,-317 383,-295 255,-295"/>
<image xlink:href="../../images/foreignKeys.png" width="11px" height="12px" preserveAspectRatio="xMinYMin meet" x="260" y="-312"/>
<text text-anchor="start" x="275" y="-303.2" font-family="Helvetica,sans-Serif" font-size="11.00">collectionunitid</text>
<polygon fill="#ffffff" stroke="transparent" points="255,-273 255,-295 383,-295 383,-273 255,-273"/>
<polygon fill="none" stroke="black" points="255,-273 255,-295 383,-295 383,-273 255,-273"/>
<image xlink:href="../../images/foreignKeys.png" width="11px" height="12px" preserveAspectRatio="xMinYMin meet" x="260" y="-290"/>
<text text-anchor="start" x="275" y="-281.2" font-family="Helvetica,sans-Serif" font-size="11.00">faciesid</text>
<polygon fill="none" stroke="black" points="255,-255 255,-273 383,-273 383,-255 255,-255"/>
<text text-anchor="start" x="258" y="-261.2" font-family="Helvetica,sans-Serif" font-size="11.00">...</text>
<polygon fill="#ffffff" stroke="transparent" points="255,-237 255,-255 283,-255 283,-237 255,-237"/>
<polygon fill="none" stroke="black" points="255,-237 255,-255 283,-255 283,-237 255,-237"/>
<text text-anchor="start" x="258" y="-243.2" font-family="Helvetica,sans-Serif" font-size="11.00">&lt; 2</text>
<polygon fill="#ffffff" stroke="transparent" points="283,-237 283,-255 358,-255 358,-237 283,-237"/>
<polygon fill="none" stroke="black" points="283,-237 283,-255 358,-255 358,-237 283,-237"/>
<text text-anchor="start" x="289" y="-243.2" font-family="Helvetica,sans-Serif" font-size="11.00">449,200 rows</text>
<polygon fill="#ffffff" stroke="transparent" points="358,-237 358,-255 383,-255 383,-237 358,-237"/>
<polygon fill="none" stroke="black" points="358,-237 358,-255 383,-255 383,-237 358,-237"/>
<text text-anchor="start" x="364" y="-243.2" font-family="Helvetica,sans-Serif" font-size="11.00">9 &gt;</text>
</a>
</g>
</g>
<!-- accumulationrates&#45;&gt;analysisunits -->
<g id="edge1" class="edge">
<title>accumulationrates:w&#45;&gt;analysisunits:e</title>
<path fill="none" stroke="black" d="M425.69,-585.99C389.72,-546.69 438.54,-328 384,-328"/>
<polygon fill="black" stroke="black" points="431.71,-588.71 437.52,-595.28 435.35,-590.35 439,-592 439,-592 439,-592 435.35,-590.35 440.48,-588.72 431.71,-588.71 431.71,-588.71"/>
<ellipse fill="none" stroke="black" cx="428.79" cy="-587.39" rx="3.2" ry="3.2"/>
</g>
<!-- collectionunits -->
<g id="node5" class="node">
<title>collectionunits</title>
<g id="a_node5"><a xlink:href="../../tables/collectionunits.html" xlink:title="collectionunits" target="_top">
<polygon fill="#ffffff" stroke="transparent" points="46,-310 46,-368 168,-368 168,-310 46,-310"/>
<polygon fill="#f5f5f5" stroke="transparent" points="46,-346 46,-368 168,-368 168,-346 46,-346"/>
<polygon fill="none" stroke="black" points="46,-346 46,-368 168,-368 168,-346 46,-346"/>
<text text-anchor="start" x="51" y="-355.2" font-family="Helvetica,sans-Serif" font-weight="bold" font-size="11.00">collectionunits</text>
<text text-anchor="start" x="133" y="-354.2" font-family="Helvetica,sans-Serif" font-size="11.00">[table]</text>
<polygon fill="none" stroke="black" points="46,-328 46,-346 168,-346 168,-328 46,-328"/>
<text text-anchor="start" x="49" y="-334.2" font-family="Helvetica,sans-Serif" font-size="11.00">...</text>
<polygon fill="#ffffff" stroke="transparent" points="46,-310 46,-328 74,-328 74,-310 46,-310"/>
<polygon fill="none" stroke="black" points="46,-310 46,-328 74,-328 74,-310 46,-310"/>
<text text-anchor="start" x="49" y="-316.2" font-family="Helvetica,sans-Serif" font-size="11.00">&lt; 4</text>
<polygon fill="#ffffff" stroke="transparent" points="74,-310 74,-328 143,-328 143,-310 74,-310"/>
<polygon fill="none" stroke="black" points="74,-310 74,-328 143,-328 143,-310 74,-310"/>
<text text-anchor="start" x="80" y="-316.2" font-family="Helvetica,sans-Serif" font-size="11.00">32,827 rows</text>
<polygon fill="#ffffff" stroke="transparent" points="143,-310 143,-328 168,-328 168,-310 143,-310"/>
<polygon fill="none" stroke="black" points="143,-310 143,-328 168,-328 168,-310 143,-310"/>
<text text-anchor="start" x="149" y="-316.2" font-family="Helvetica,sans-Serif" font-size="11.00">5 &gt;</text>
</a>
</g>
</g>
<!-- analysisunits&#45;&gt;collectionunits -->
<g id="edge4" class="edge">
<title>analysisunits:w&#45;&gt;collectionunits:e</title>
<path fill="none" stroke="black" d="M239.32,-307.58C211.87,-313.9 203.71,-337 169,-337"/>
<polygon fill="black" stroke="black" points="246.05,-306.86 254.39,-309.58 250.02,-306.43 254,-306 254,-306 254,-306 250.02,-306.43 253.61,-302.42 246.05,-306.86 246.05,-306.86"/>
<ellipse fill="none" stroke="black" cx="242.86" cy="-307.2" rx="3.2" ry="3.2"/>
</g>
<!-- faciestypes -->
<g id="node6" class="node">
<title>faciestypes</title>
<g id="a_node6"><a xlink:href="../../tables/faciestypes.html" xlink:title="faciestypes" target="_top">
<polygon fill="#ffffff" stroke="transparent" points="8,-157 8,-289 206,-289 206,-157 8,-157"/>
<polygon fill="#f5f5f5" stroke="transparent" points="10,-265 10,-287 204,-287 204,-265 10,-265"/>
<polygon fill="none" stroke="black" points="10,-265 10,-287 204,-287 204,-265 10,-265"/>
<text text-anchor="start" x="15" y="-274.2" font-family="Helvetica,sans-Serif" font-weight="bold" font-size="11.00">faciestypes</text>
<text text-anchor="start" x="169" y="-273.2" font-family="Helvetica,sans-Serif" font-size="11.00">[table]</text>
<polygon fill="none" stroke="black" points="10,-243 10,-265 130,-265 130,-243 10,-243"/>
<image xlink:href="../../images/primaryKeys.png" width="11px" height="12px" preserveAspectRatio="xMinYMin meet" x="15" y="-260"/>
<text text-anchor="start" x="30" y="-251.2" font-family="Helvetica,sans-Serif" font-size="11.00">faciesid</text>
<polygon fill="none" stroke="black" points="130,-243 130,-265 204,-265 204,-243 130,-243"/>
<text text-anchor="start" x="133" y="-251.2" font-family="Helvetica,sans-Serif" font-size="11.00">serial[10]</text>
<polygon fill="none" stroke="black" points="10,-221 10,-243 130,-243 130,-221 10,-221"/>
<text text-anchor="start" x="30" y="-229.2" font-family="Helvetica,sans-Serif" font-size="11.00">facies</text>
<polygon fill="none" stroke="black" points="130,-221 130,-243 204,-243 204,-221 130,-221"/>
<text text-anchor="start" x="133" y="-229.2" font-family="Helvetica,sans-Serif" font-size="11.00">varchar[64]</text>
<polygon fill="none" stroke="black" points="10,-199 10,-221 130,-221 130,-199 10,-199"/>
<text text-anchor="start" x="30" y="-207.2" font-family="Helvetica,sans-Serif" font-size="11.00">recdatecreated</text>
<polygon fill="none" stroke="black" points="130,-199 130,-221 204,-221 204,-199 130,-199"/>
<text text-anchor="start" x="133" y="-207.2" font-family="Helvetica,sans-Serif" font-size="11.00">timestamp[22]</text>
<polygon fill="none" stroke="black" points="10,-177 10,-199 130,-199 130,-177 10,-177"/>
<text text-anchor="start" x="30" y="-185.2" font-family="Helvetica,sans-Serif" font-size="11.00">recdatemodified</text>
<polygon fill="none" stroke="black" points="130,-177 130,-199 204,-199 204,-177 130,-177"/>
<text text-anchor="start" x="133" y="-185.2" font-family="Helvetica,sans-Serif" font-size="11.00">timestamp[22]</text>
<polygon fill="#ffffff" stroke="transparent" points="10,-159 10,-177 55,-177 55,-159 10,-159"/>
<polygon fill="none" stroke="black" points="10,-159 10,-177 55,-177 55,-159 10,-159"/>
<text text-anchor="start" x="13" y="-165.2" font-family="Helvetica,sans-Serif" font-size="11.00">&lt; 0</text>
<polygon fill="#ffffff" stroke="transparent" points="55,-159 55,-177 130,-177 130,-159 55,-159"/>
<polygon fill="none" stroke="black" points="55,-159 55,-177 130,-177 130,-159 55,-159"/>
<text text-anchor="start" x="82" y="-165.2" font-family="Helvetica,sans-Serif" font-size="11.00">103 rows</text>
<polygon fill="#ffffff" stroke="transparent" points="130,-159 130,-177 204,-177 204,-159 130,-159"/>
<polygon fill="none" stroke="black" points="130,-159 130,-177 204,-177 204,-159 130,-159"/>
<text text-anchor="start" x="185" y="-165.2" font-family="Helvetica,sans-Serif" font-size="11.00">1 &gt;</text>
<polygon fill="none" stroke="black" stroke-width="2" points="9,-158 9,-288 205,-288 205,-158 9,-158"/>
</a>
</g>
</g>
<!-- analysisunits&#45;&gt;faciestypes -->
<g id="edge5" class="edge">
<title>analysisunits:w&#45;&gt;faciestypes:e</title>
<path fill="none" stroke="black" d="M239.88,-279.83C227.92,-271.59 224.55,-254 205,-254"/>
<polygon fill="black" stroke="black" points="246.33,-281.73 252.98,-287.45 250.16,-282.87 254,-284 254,-284 254,-284 250.16,-282.87 255.02,-280.55 246.33,-281.73 246.33,-281.73"/>
<ellipse fill="none" stroke="black" cx="243.26" cy="-280.83" rx="3.2" ry="3.2"/>
</g>
<!-- analysisunitaltdepths -->
<g id="node3" class="node">
<title>analysisunitaltdepths</title>
<g id="a_node3"><a xlink:href="../../tables/analysisunitaltdepths.html" xlink:title="analysisunitaltdepths" target="_top">
<polygon fill="#ffffff" stroke="transparent" points="432,-486 432,-544 588,-544 588,-486 432,-486"/>
<polygon fill="#f5f5f5" stroke="transparent" points="432,-522 432,-544 588,-544 588,-522 432,-522"/>
<polygon fill="none" stroke="black" points="432,-522 432,-544 588,-544 588,-522 432,-522"/>
<text text-anchor="start" x="437" y="-531.2" font-family="Helvetica,sans-Serif" font-weight="bold" font-size="11.00">analysisunitaltdepths</text>
<text text-anchor="start" x="553" y="-530.2" font-family="Helvetica,sans-Serif" font-size="11.00">[table]</text>
<polygon fill="none" stroke="black" points="432,-504 432,-522 588,-522 588,-504 432,-504"/>
<text text-anchor="start" x="435" y="-510.2" font-family="Helvetica,sans-Serif" font-size="11.00">...</text>
<polygon fill="#ffffff" stroke="transparent" points="432,-486 432,-504 484,-504 484,-486 432,-486"/>
<polygon fill="none" stroke="black" points="432,-486 432,-504 484,-504 484,-486 432,-486"/>
<text text-anchor="start" x="435" y="-492.2" font-family="Helvetica,sans-Serif" font-size="11.00">&lt; 2</text>
<polygon fill="#ffffff" stroke="transparent" points="484,-486 484,-504 559,-504 559,-486 484,-486"/>
<polygon fill="none" stroke="black" points="484,-486 484,-504 559,-504 559,-486 484,-486"/>
<text text-anchor="start" x="502" y="-492.2" font-family="Helvetica,sans-Serif" font-size="11.00">7,395 rows</text>
<polygon fill="#ffffff" stroke="transparent" points="559,-486 559,-504 588,-504 588,-486 559,-486"/>
<polygon fill="none" stroke="black" points="559,-486 559,-504 588,-504 588,-486 559,-486"/>
<text text-anchor="start" x="578" y="-492.2" font-family="Helvetica,sans-Serif" font-size="11.00"> &#160;</text>
</a>
</g>
</g>
<!-- analysisunitaltdepths&#45;&gt;analysisunits -->
<g id="edge2" class="edge">
<title>analysisunitaltdepths:w&#45;&gt;analysisunits:e</title>
<path fill="none" stroke="black" d="M416.72,-510.66C361.54,-489.25 463.2,-328 384,-328"/>
<polygon fill="black" stroke="black" points="423.11,-511.71 430.42,-516.55 427.05,-512.35 431,-513 431,-513 431,-513 427.05,-512.35 431.58,-509.45 423.11,-511.71 423.11,-511.71"/>
<ellipse fill="none" stroke="black" cx="419.95" cy="-511.19" rx="3.2" ry="3.2"/>
</g>
<!-- analysisunitlithostrat -->
<g id="node4" class="node">
<title>analysisunitlithostrat</title>
<g id="a_node4"><a xlink:href="../../tables/analysisunitlithostrat.html" xlink:title="analysisunitlithostrat" target="_top">
<polygon fill="#ffffff" stroke="transparent" points="432.5,-407 432.5,-465 587.5,-465 587.5,-407 432.5,-407"/>
<polygon fill="#f5f5f5" stroke="transparent" points="433,-443 433,-465 588,-465 588,-443 433,-443"/>
<polygon fill="none" stroke="black" points="433,-443 433,-465 588,-465 588,-443 433,-443"/>
<text text-anchor="start" x="438" y="-452.2" font-family="Helvetica,sans-Serif" font-weight="bold" font-size="11.00">analysisunitlithostrat</text>
<text text-anchor="start" x="553" y="-451.2" font-family="Helvetica,sans-Serif" font-size="11.00">[table]</text>
<polygon fill="none" stroke="black" points="433,-425 433,-443 588,-443 588,-425 433,-425"/>
<text text-anchor="start" x="436" y="-431.2" font-family="Helvetica,sans-Serif" font-size="11.00">...</text>
<polygon fill="#ffffff" stroke="transparent" points="433,-407 433,-425 495,-425 495,-407 433,-407"/>
<polygon fill="none" stroke="black" points="433,-407 433,-425 495,-425 495,-407 433,-407"/>
<text text-anchor="start" x="436" y="-413.2" font-family="Helvetica,sans-Serif" font-size="11.00">&lt; 2</text>
<polygon fill="#ffffff" stroke="transparent" points="495,-407 495,-425 554,-425 554,-407 495,-407"/>
<polygon fill="none" stroke="black" points="495,-407 495,-425 554,-425 554,-407 495,-407"/>
<text text-anchor="start" x="518" y="-413.2" font-family="Helvetica,sans-Serif" font-size="11.00">0 rows</text>
<polygon fill="#ffffff" stroke="transparent" points="554,-407 554,-425 588,-425 588,-407 554,-407"/>
<polygon fill="none" stroke="black" points="554,-407 554,-425 588,-425 588,-407 554,-407"/>
<text text-anchor="start" x="578" y="-413.2" font-family="Helvetica,sans-Serif" font-size="11.00"> &#160;</text>
</a>
</g>
</g>
<!-- analysisunitlithostrat&#45;&gt;analysisunits -->
<g id="edge3" class="edge">
<title>analysisunitlithostrat:w&#45;&gt;analysisunits:e</title>
<path fill="none" stroke="black" d="M417.89,-429.97C391.8,-410.61 429.66,-328 384,-328"/>
<polygon fill="black" stroke="black" points="424.31,-431.81 431.01,-437.46 428.15,-432.9 432,-434 432,-434 432,-434 428.15,-432.9 432.99,-430.54 424.31,-431.81 424.31,-431.81"/>
<ellipse fill="none" stroke="black" cx="421.23" cy="-430.93" rx="3.2" ry="3.2"/>
</g>
<!-- chroncontrols -->
<g id="node7" class="node">
<title>chroncontrols</title>
<g id="a_node7"><a xlink:href="../../tables/chroncontrols.html" xlink:title="chroncontrols" target="_top">
<polygon fill="#ffffff" stroke="transparent" points="450.5,-301 450.5,-359 569.5,-359 569.5,-301 450.5,-301"/>
<polygon fill="#f5f5f5" stroke="transparent" points="451,-337 451,-359 570,-359 570,-337 451,-337"/>
<polygon fill="none" stroke="black" points="451,-337 451,-359 570,-359 570,-337 451,-337"/>
<text text-anchor="start" x="456" y="-346.2" font-family="Helvetica,sans-Serif" font-weight="bold" font-size="11.00">chroncontrols</text>
<text text-anchor="start" x="535" y="-345.2" font-family="Helvetica,sans-Serif" font-size="11.00">[table]</text>
<polygon fill="none" stroke="black" points="451,-319 451,-337 570,-337 570,-319 451,-319"/>
<text text-anchor="start" x="454" y="-325.2" font-family="Helvetica,sans-Serif" font-size="11.00">...</text>
<polygon fill="#ffffff" stroke="transparent" points="451,-301 451,-319 474,-319 474,-301 451,-301"/>
<polygon fill="none" stroke="black" points="451,-301 451,-319 474,-319 474,-301 451,-301"/>
<text text-anchor="start" x="454" y="-307.2" font-family="Helvetica,sans-Serif" font-size="11.00">&lt; 4</text>
<polygon fill="#ffffff" stroke="transparent" points="474,-301 474,-319 547,-319 547,-301 474,-301"/>
<polygon fill="none" stroke="black" points="474,-301 474,-319 547,-319 547,-301 474,-301"/>
<text text-anchor="start" x="478" y="-307.2" font-family="Helvetica,sans-Serif" font-size="11.00">100,724 rows</text>
<polygon fill="#ffffff" stroke="transparent" points="547,-301 547,-319 570,-319 570,-301 547,-301"/>
<polygon fill="none" stroke="black" points="547,-301 547,-319 570,-319 570,-301 547,-301"/>
<text text-anchor="start" x="551" y="-307.2" font-family="Helvetica,sans-Serif" font-size="11.00">5 &gt;</text>
</a>
</g>
</g>
<!-- chroncontrols&#45;&gt;analysisunits -->
<g id="edge6" class="edge">
<title>chroncontrols:w&#45;&gt;analysisunits:e</title>
<path fill="none" stroke="black" d="M435.53,-328C417.14,-328 407.83,-328 384,-328"/>
<polygon fill="black" stroke="black" points="442,-328 450,-331.6 446,-328 450,-328 450,-328 450,-328 446,-328 450,-324.4 442,-328 442,-328"/>
<ellipse fill="none" stroke="black" cx="438.8" cy="-328" rx="3.2" ry="3.2"/>
</g>
<!-- depagents -->
<g id="node8" class="node">
<title>depagents</title>
<g id="a_node8"><a xlink:href="../../tables/depagents.html" xlink:title="depagents" target="_top">
<polygon fill="#ffffff" stroke="transparent" points="460.5,-195 460.5,-253 559.5,-253 559.5,-195 460.5,-195"/>
<polygon fill="#f5f5f5" stroke="transparent" points="461,-231 461,-253 560,-253 560,-231 461,-231"/>
<polygon fill="none" stroke="black" points="461,-231 461,-253 560,-253 560,-231 461,-231"/>
<text text-anchor="start" x="466" y="-240.2" font-family="Helvetica,sans-Serif" font-weight="bold" font-size="11.00">depagents</text>
<text text-anchor="start" x="525" y="-239.2" font-family="Helvetica,sans-Serif" font-size="11.00">[table]</text>
<polygon fill="none" stroke="black" points="461,-213 461,-231 560,-231 560,-213 461,-213"/>
<text text-anchor="start" x="464" y="-219.2" font-family="Helvetica,sans-Serif" font-size="11.00">...</text>
<polygon fill="#ffffff" stroke="transparent" points="461,-195 461,-213 485,-213 485,-195 461,-195"/>
<polygon fill="none" stroke="black" points="461,-195 461,-213 485,-213 485,-195 461,-195"/>
<text text-anchor="start" x="464" y="-201.2" font-family="Helvetica,sans-Serif" font-size="11.00">&lt; 2</text>
<polygon fill="#ffffff" stroke="transparent" points="485,-195 485,-213 546,-213 546,-195 485,-195"/>
<polygon fill="none" stroke="black" points="485,-195 485,-213 546,-213 546,-195 485,-195"/>
<text text-anchor="start" x="489" y="-201.2" font-family="Helvetica,sans-Serif" font-size="11.00">5,273 rows</text>
<polygon fill="#ffffff" stroke="transparent" points="546,-195 546,-213 560,-213 560,-195 546,-195"/>
<polygon fill="none" stroke="black" points="546,-195 546,-213 560,-213 560,-195 546,-195"/>
<text text-anchor="start" x="550" y="-201.2" font-family="Helvetica,sans-Serif" font-size="11.00"> &#160;</text>
</a>
</g>
</g>
<!-- depagents&#45;&gt;analysisunits -->
<g id="edge7" class="edge">
<title>depagents:w&#45;&gt;analysisunits:e</title>
<path fill="none" stroke="black" d="M445.64,-224.84C408.9,-241.69 436.31,-328 384,-328"/>
<polygon fill="black" stroke="black" points="452.15,-223.55 460.7,-225.53 456.08,-222.77 460,-222 460,-222 460,-222 456.08,-222.77 459.3,-218.47 452.15,-223.55 452.15,-223.55"/>
<ellipse fill="none" stroke="black" cx="449.01" cy="-224.17" rx="3.2" ry="3.2"/>
</g>
<!-- eventchronology -->
<g id="node9" class="node">
<title>eventchronology</title>
<g id="a_node9"><a xlink:href="../../tables/eventchronology.html" xlink:title="eventchronology" target="_top">
<polygon fill="#ffffff" stroke="transparent" points="642,-349 642,-407 775,-407 775,-349 642,-349"/>
<polygon fill="#f5f5f5" stroke="transparent" points="642.5,-385 642.5,-407 775.5,-407 775.5,-385 642.5,-385"/>
<polygon fill="none" stroke="black" points="642.5,-385 642.5,-407 775.5,-407 775.5,-385 642.5,-385"/>
<text text-anchor="start" x="647.5" y="-394.2" font-family="Helvetica,sans-Serif" font-weight="bold" font-size="11.00">eventchronology</text>
<text text-anchor="start" x="740.5" y="-393.2" font-family="Helvetica,sans-Serif" font-size="11.00">[table]</text>
<polygon fill="none" stroke="black" points="642.5,-367 642.5,-385 775.5,-385 775.5,-367 642.5,-367"/>
<text text-anchor="start" x="645.5" y="-373.2" font-family="Helvetica,sans-Serif" font-size="11.00">...</text>
<polygon fill="#ffffff" stroke="transparent" points="642.5,-349 642.5,-367 687.5,-367 687.5,-349 642.5,-349"/>
<polygon fill="none" stroke="black" points="642.5,-349 642.5,-367 687.5,-367 687.5,-349 642.5,-349"/>
<text text-anchor="start" x="645.5" y="-355.2" font-family="Helvetica,sans-Serif" font-size="11.00">&lt; 3</text>
<polygon fill="#ffffff" stroke="transparent" points="687.5,-349 687.5,-367 750.5,-367 750.5,-349 687.5,-349"/>
<polygon fill="none" stroke="black" points="687.5,-349 687.5,-367 750.5,-367 750.5,-349 687.5,-349"/>
<text text-anchor="start" x="702.5" y="-355.2" font-family="Helvetica,sans-Serif" font-size="11.00">271 rows</text>
<polygon fill="#ffffff" stroke="transparent" points="750.5,-349 750.5,-367 775.5,-367 775.5,-349 750.5,-349"/>
<polygon fill="none" stroke="black" points="750.5,-349 750.5,-367 775.5,-367 775.5,-349 750.5,-349"/>
<text text-anchor="start" x="765.5" y="-355.2" font-family="Helvetica,sans-Serif" font-size="11.00"> &#160;</text>
</a>
</g>
</g>
<!-- eventchronology&#45;&gt;analysisunits -->
<g id="edge8" class="edge">
<title>eventchronology:w&#45;&gt;analysisunits:e</title>
<path fill="none" stroke="black" d="M626.98,-376.25C541.29,-379.25 507.78,-407.28 424,-370 400.45,-359.52 409.78,-328 384,-328"/>
<polygon fill="black" stroke="black" points="633.5,-376.14 641.56,-379.6 637.5,-376.07 641.5,-376 641.5,-376 641.5,-376 637.5,-376.07 641.44,-372.4 633.5,-376.14 633.5,-376.14"/>
<ellipse fill="none" stroke="black" cx="630.3" cy="-376.2" rx="3.2" ry="3.2"/>
</g>
<!-- eventchronology&#45;&gt;chroncontrols -->
<g id="edge9" class="edge">
<title>eventchronology:w&#45;&gt;chroncontrols:e</title>
<path fill="none" stroke="black" d="M627.19,-373.14C604.22,-362.81 603.28,-328 571,-328"/>
<polygon fill="black" stroke="black" points="633.66,-374.43 640.79,-379.53 637.58,-375.22 641.5,-376 641.5,-376 641.5,-376 637.58,-375.22 642.21,-372.47 633.66,-374.43 633.66,-374.43"/>
<ellipse fill="none" stroke="black" cx="630.52" cy="-373.81" rx="3.2" ry="3.2"/>
</g>
<!-- relativechronology -->
<g id="node10" class="node">
<title>relativechronology</title>
<g id="a_node10"><a xlink:href="../../tables/relativechronology.html" xlink:title="relativechronology" target="_top">
<polygon fill="#ffffff" stroke="transparent" points="637,-263 637,-321 780,-321 780,-263 637,-263"/>
<polygon fill="#f5f5f5" stroke="transparent" points="637.5,-299 637.5,-321 780.5,-321 780.5,-299 637.5,-299"/>
<polygon fill="none" stroke="black" points="637.5,-299 637.5,-321 780.5,-321 780.5,-299 637.5,-299"/>
<text text-anchor="start" x="642.5" y="-308.2" font-family="Helvetica,sans-Serif" font-weight="bold" font-size="11.00">relativechronology</text>
<text text-anchor="start" x="745.5" y="-307.2" font-family="Helvetica,sans-Serif" font-size="11.00">[table]</text>
<polygon fill="none" stroke="black" points="637.5,-281 637.5,-299 780.5,-299 780.5,-281 637.5,-281"/>
<text text-anchor="start" x="640.5" y="-287.2" font-family="Helvetica,sans-Serif" font-size="11.00">...</text>
<polygon fill="#ffffff" stroke="transparent" points="637.5,-263 637.5,-281 683.5,-281 683.5,-263 637.5,-263"/>
<polygon fill="none" stroke="black" points="637.5,-263 637.5,-281 683.5,-281 683.5,-263 637.5,-263"/>
<text text-anchor="start" x="640.5" y="-269.2" font-family="Helvetica,sans-Serif" font-size="11.00">&lt; 3</text>
<polygon fill="#ffffff" stroke="transparent" points="683.5,-263 683.5,-281 755.5,-281 755.5,-263 683.5,-263"/>
<polygon fill="none" stroke="black" points="683.5,-263 683.5,-281 755.5,-281 755.5,-263 683.5,-263"/>
<text text-anchor="start" x="698.5" y="-269.2" font-family="Helvetica,sans-Serif" font-size="11.00">4,625 rows</text>
<polygon fill="#ffffff" stroke="transparent" points="755.5,-263 755.5,-281 780.5,-281 780.5,-263 755.5,-263"/>
<polygon fill="none" stroke="black" points="755.5,-263 755.5,-281 780.5,-281 780.5,-263 755.5,-263"/>
<text text-anchor="start" x="770.5" y="-269.2" font-family="Helvetica,sans-Serif" font-size="11.00"> &#160;</text>
</a>
</g>
</g>
<!-- relativechronology&#45;&gt;analysisunits -->
<g id="edge10" class="edge">
<title>relativechronology:w&#45;&gt;analysisunits:e</title>
<path fill="none" stroke="black" d="M622.08,-289.73C538.71,-286.64 507.23,-258.18 424,-291 401.47,-299.88 408.22,-328 384,-328"/>
<polygon fill="black" stroke="black" points="628.5,-289.85 636.43,-293.6 632.5,-289.93 636.5,-290 636.5,-290 636.5,-290 632.5,-289.93 636.57,-286.4 628.5,-289.85 628.5,-289.85"/>
<ellipse fill="none" stroke="black" cx="625.3" cy="-289.79" rx="3.2" ry="3.2"/>
</g>
<!-- relativechronology&#45;&gt;chroncontrols -->
<g id="edge11" class="edge">
<title>relativechronology:w&#45;&gt;chroncontrols:e</title>
<path fill="none" stroke="black" d="M622.21,-292.86C602.45,-301.69 599,-328 571,-328"/>
<polygon fill="black" stroke="black" points="628.66,-291.57 637.21,-293.53 632.58,-290.78 636.5,-290 636.5,-290 636.5,-290 632.58,-290.78 635.79,-286.47 628.66,-291.57 628.66,-291.57"/>
<ellipse fill="none" stroke="black" cx="625.52" cy="-292.19" rx="3.2" ry="3.2"/>
</g>
<!-- samples -->
<g id="node11" class="node">
<title>samples</title>
<g id="a_node11"><a xlink:href="../../tables/samples.html" xlink:title="samples" target="_top">
<polygon fill="#ffffff" stroke="transparent" points="452,-116 452,-174 568,-174 568,-116 452,-116"/>
<polygon fill="#f5f5f5" stroke="transparent" points="452,-152 452,-174 568,-174 568,-152 452,-152"/>
<polygon fill="none" stroke="black" points="452,-152 452,-174 568,-174 568,-152 452,-152"/>
<text text-anchor="start" x="457" y="-161.2" font-family="Helvetica,sans-Serif" font-weight="bold" font-size="11.00">samples</text>
<text text-anchor="start" x="533" y="-160.2" font-family="Helvetica,sans-Serif" font-size="11.00">[table]</text>
<polygon fill="none" stroke="black" points="452,-134 452,-152 568,-152 568,-134 452,-134"/>
<text text-anchor="start" x="455" y="-140.2" font-family="Helvetica,sans-Serif" font-size="11.00">...</text>
<polygon fill="#ffffff" stroke="transparent" points="452,-116 452,-134 474,-134 474,-116 452,-116"/>
<polygon fill="none" stroke="black" points="452,-116 452,-134 474,-134 474,-116 452,-116"/>
<text text-anchor="start" x="455" y="-122.2" font-family="Helvetica,sans-Serif" font-size="11.00">&lt; 3</text>
<polygon fill="#ffffff" stroke="transparent" points="474,-116 474,-134 546,-134 546,-116 474,-116"/>
<polygon fill="none" stroke="black" points="474,-116 474,-134 546,-134 546,-116 474,-116"/>
<text text-anchor="start" x="477" y="-122.2" font-family="Helvetica,sans-Serif" font-size="11.00">506,105 rows</text>
<polygon fill="#ffffff" stroke="transparent" points="546,-116 546,-134 568,-134 568,-116 546,-116"/>
<polygon fill="none" stroke="black" points="546,-116 546,-134 568,-134 568,-116 546,-116"/>
<text text-anchor="start" x="549" y="-122.2" font-family="Helvetica,sans-Serif" font-size="11.00">7 &gt;</text>
</a>
</g>
</g>
<!-- samples&#45;&gt;analysisunits -->
<g id="edge12" class="edge">
<title>samples:w&#45;&gt;analysisunits:e</title>
<path fill="none" stroke="black" d="M436.42,-145.21C376.65,-166.08 465.81,-328 384,-328"/>
<polygon fill="black" stroke="black" points="443.09,-144.2 451.54,-146.56 447.05,-143.6 451,-143 451,-143 451,-143 447.05,-143.6 450.46,-139.44 443.09,-144.2 443.09,-144.2"/>
<ellipse fill="none" stroke="black" cx="439.93" cy="-144.68" rx="3.2" ry="3.2"/>
</g>
<!-- tephras -->
<g id="node12" class="node">
<title>tephras</title>
<g id="a_node12"><a xlink:href="../../tables/tephras.html" xlink:title="tephras" target="_top">
<polygon fill="#ffffff" stroke="transparent" points="467,-37 467,-95 553,-95 553,-37 467,-37"/>
<polygon fill="#f5f5f5" stroke="transparent" points="467,-73 467,-95 553,-95 553,-73 467,-73"/>
<polygon fill="none" stroke="black" points="467,-73 467,-95 553,-95 553,-73 467,-73"/>
<text text-anchor="start" x="472" y="-82.2" font-family="Helvetica,sans-Serif" font-weight="bold" font-size="11.00">tephras</text>
<text text-anchor="start" x="518" y="-81.2" font-family="Helvetica,sans-Serif" font-size="11.00">[table]</text>
<polygon fill="none" stroke="black" points="467,-55 467,-73 553,-73 553,-55 467,-55"/>
<text text-anchor="start" x="470" y="-61.2" font-family="Helvetica,sans-Serif" font-size="11.00">...</text>
<polygon fill="#ffffff" stroke="transparent" points="467,-37 467,-55 489,-55 489,-37 467,-37"/>
<polygon fill="none" stroke="black" points="467,-37 467,-55 489,-55 489,-37 467,-37"/>
<text text-anchor="start" x="470" y="-43.2" font-family="Helvetica,sans-Serif" font-size="11.00">&lt; 2</text>
<polygon fill="#ffffff" stroke="transparent" points="489,-37 489,-55 540,-55 540,-37 489,-37"/>
<polygon fill="none" stroke="black" points="489,-37 489,-55 540,-55 540,-37 489,-37"/>
<text text-anchor="start" x="492" y="-43.2" font-family="Helvetica,sans-Serif" font-size="11.00">148 rows</text>
<polygon fill="#ffffff" stroke="transparent" points="540,-37 540,-55 553,-55 553,-37 540,-37"/>
<polygon fill="none" stroke="black" points="540,-37 540,-55 553,-55 553,-37 540,-37"/>
<text text-anchor="start" x="543" y="-43.2" font-family="Helvetica,sans-Serif" font-size="11.00"> &#160;</text>
</a>
</g>
</g>
<!-- tephras&#45;&gt;analysisunits -->
<g id="edge13" class="edge">
<title>tephras:w&#45;&gt;analysisunits:e</title>
<path fill="none" stroke="black" d="M451.65,-66.53C437.7,-72.37 433.56,-87.72 424,-106 400.77,-150.42 434.13,-328 384,-328"/>
<polygon fill="black" stroke="black" points="458.12,-65.39 466.62,-67.55 462.06,-64.69 466,-64 466,-64 466,-64 462.06,-64.69 465.38,-60.45 458.12,-65.39 458.12,-65.39"/>
<ellipse fill="none" stroke="black" cx="454.97" cy="-65.94" rx="3.2" ry="3.2"/>
</g>
</g>
</svg>
