<?xml version="1.0" encoding="UTF-8" standalone="no"?>
<!DOCTYPE svg PUBLIC "-//W3C//DTD SVG 1.1//EN"
 "http://www.w3.org/Graphics/SVG/1.1/DTD/svg11.dtd">
<!-- Generated by graphviz version 2.43.0 (0)
 -->
<!-- Title: oneDegreeRelationshipsDiagram Pages: 1 -->
<svg width="596pt" height="310pt"
 viewBox="0.00 0.00 596.00 310.00" xmlns="http://www.w3.org/2000/svg" xmlns:xlink="http://www.w3.org/1999/xlink">
<g id="graph0" class="graph" transform="scale(1 1) rotate(0) translate(4 306)">
<title>oneDegreeRelationshipsDiagram</title>
<polygon fill="#ffffff" stroke="transparent" points="-4,4 -4,-306 592,-306 592,4 -4,4"/>
<text text-anchor="middle" x="71.5" y="-7.2" font-family="Helvetica,sans-Serif" font-size="11.00">Generated by SchemaSpy</text>
<!-- formtaxa -->
<g id="node1" class="node">
<title>formtaxa</title>
<g id="a_node1"><a xlink:href="../../tables/formtaxa.html" xlink:title="formtaxa" target="_top">
<polygon fill="#ffffff" stroke="transparent" points="349,-100 349,-298 580,-298 580,-100 349,-100"/>
<polygon fill="#f5f5f5" stroke="transparent" points="351.5,-274 351.5,-296 578.5,-296 578.5,-274 351.5,-274"/>
<polygon fill="none" stroke="black" points="351.5,-274 351.5,-296 578.5,-296 578.5,-274 351.5,-274"/>
<text text-anchor="start" x="356.5" y="-283.2" font-family="Helvetica,sans-Serif" font-weight="bold" font-size="11.00">formtaxa</text>
<text text-anchor="start" x="543.5" y="-282.2" font-family="Helvetica,sans-Serif" font-size="11.00">[table]</text>
<polygon fill="none" stroke="black" points="351.5,-252 351.5,-274 504.5,-274 504.5,-252 351.5,-252"/>
<image xlink:href="../../images/primaryKeys.png" width="11px" height="12px" preserveAspectRatio="xMinYMin meet" x="356.5" y="-269"/>
<text text-anchor="start" x="371.5" y="-260.2" font-family="Helvetica,sans-Serif" font-size="11.00">formtaxonid</text>
<polygon fill="none" stroke="black" points="504.5,-252 504.5,-274 578.5,-274 578.5,-252 504.5,-252"/>
<text text-anchor="start" x="507.5" y="-260.2" font-family="Helvetica,sans-Serif" font-size="11.00">serial[10]</text>
<polygon fill="none" stroke="black" points="351.5,-230 351.5,-252 504.5,-252 504.5,-230 351.5,-230"/>
<image xlink:href="../../images/foreignKeys.png" width="11px" height="12px" preserveAspectRatio="xMinYMin meet" x="356.5" y="-247"/>
<text text-anchor="start" x="371.5" y="-238.2" font-family="Helvetica,sans-Serif" font-size="11.00">taxonid</text>
<polygon fill="none" stroke="black" points="504.5,-230 504.5,-252 578.5,-252 578.5,-230 504.5,-230"/>
<text text-anchor="start" x="507.5" y="-238.2" font-family="Helvetica,sans-Serif" font-size="11.00">int4[10]</text>
<polygon fill="none" stroke="black" points="351.5,-208 351.5,-230 504.5,-230 504.5,-208 351.5,-208"/>
<image xlink:href="../../images/foreignKeys.png" width="11px" height="12px" preserveAspectRatio="xMinYMin meet" x="356.5" y="-225"/>
<text text-anchor="start" x="371.5" y="-216.2" font-family="Helvetica,sans-Serif" font-size="11.00">affinityid</text>
<polygon fill="none" stroke="black" points="504.5,-208 504.5,-230 578.5,-230 578.5,-208 504.5,-208"/>
<text text-anchor="start" x="507.5" y="-216.2" font-family="Helvetica,sans-Serif" font-size="11.00">int4[10]</text>
<polygon fill="none" stroke="black" points="351.5,-186 351.5,-208 504.5,-208 504.5,-186 351.5,-186"/>
<image xlink:href="../../images/foreignKeys.png" width="11px" height="12px" preserveAspectRatio="xMinYMin meet" x="356.5" y="-203"/>
<text text-anchor="start" x="371.5" y="-194.2" font-family="Helvetica,sans-Serif" font-size="11.00">publicationid</text>
<polygon fill="none" stroke="black" points="504.5,-186 504.5,-208 578.5,-208 578.5,-186 504.5,-186"/>
<text text-anchor="start" x="507.5" y="-194.2" font-family="Helvetica,sans-Serif" font-size="11.00">int4[10]</text>
<polygon fill="none" stroke="black" points="351.5,-164 351.5,-186 504.5,-186 504.5,-164 351.5,-164"/>
<text text-anchor="start" x="371.5" y="-172.2" font-family="Helvetica,sans-Serif" font-size="11.00">systematicdescription</text>
<polygon fill="none" stroke="black" points="504.5,-164 504.5,-186 578.5,-186 578.5,-164 504.5,-164"/>
<text text-anchor="start" x="507.5" y="-172.2" font-family="Helvetica,sans-Serif" font-size="11.00">bool[1]</text>
<polygon fill="none" stroke="black" points="351.5,-142 351.5,-164 504.5,-164 504.5,-142 351.5,-142"/>
<text text-anchor="start" x="371.5" y="-150.2" font-family="Helvetica,sans-Serif" font-size="11.00">recdatecreated</text>
<polygon fill="none" stroke="black" points="504.5,-142 504.5,-164 578.5,-164 578.5,-142 504.5,-142"/>
<text text-anchor="start" x="507.5" y="-150.2" font-family="Helvetica,sans-Serif" font-size="11.00">timestamp[22]</text>
<polygon fill="none" stroke="black" points="351.5,-120 351.5,-142 504.5,-142 504.5,-120 351.5,-120"/>
<text text-anchor="start" x="371.5" y="-128.2" font-family="Helvetica,sans-Serif" font-size="11.00">recdatemodified</text>
<polygon fill="none" stroke="black" points="504.5,-120 504.5,-142 578.5,-142 578.5,-120 504.5,-120"/>
<text text-anchor="start" x="507.5" y="-128.2" font-family="Helvetica,sans-Serif" font-size="11.00">timestamp[22]</text>
<polygon fill="#ffffff" stroke="transparent" points="351.5,-102 351.5,-120 419.5,-120 419.5,-102 351.5,-102"/>
<polygon fill="none" stroke="black" points="351.5,-102 351.5,-120 419.5,-120 419.5,-102 351.5,-102"/>
<text text-anchor="start" x="354.5" y="-108.2" font-family="Helvetica,sans-Serif" font-size="11.00">&lt; 3</text>
<polygon fill="#ffffff" stroke="transparent" points="419.5,-102 419.5,-120 504.5,-120 504.5,-102 419.5,-102"/>
<polygon fill="none" stroke="black" points="419.5,-102 419.5,-120 504.5,-120 504.5,-102 419.5,-102"/>
<text text-anchor="start" x="468.5" y="-108.2" font-family="Helvetica,sans-Serif" font-size="11.00">3 rows</text>
<polygon fill="#ffffff" stroke="transparent" points="504.5,-102 504.5,-120 578.5,-120 578.5,-102 504.5,-102"/>
<polygon fill="none" stroke="black" points="504.5,-102 504.5,-120 578.5,-120 578.5,-102 504.5,-102"/>
<text text-anchor="start" x="559.5" y="-108.2" font-family="Helvetica,sans-Serif" font-size="11.00">0 &gt;</text>
<polygon fill="none" stroke="black" stroke-width="2" points="350,-101 350,-297 579,-297 579,-101 350,-101"/>
</a>
</g>
</g>
<!-- taxa -->
<g id="node2" class="node">
<title>taxa</title>
<g id="a_node2"><a xlink:href="../../tables/taxa.html" xlink:title="taxa" target="_top">
<polygon fill="#ffffff" stroke="transparent" points="180,-84 180,-274 300,-274 300,-84 180,-84"/>
<polygon fill="#f5f5f5" stroke="transparent" points="180,-252 180,-274 300,-274 300,-252 180,-252"/>
<polygon fill="none" stroke="black" points="180,-252 180,-274 300,-274 300,-252 180,-252"/>
<text text-anchor="start" x="185" y="-261.2" font-family="Helvetica,sans-Serif" font-weight="bold" font-size="11.00">taxa</text>
<text text-anchor="start" x="265" y="-260.2" font-family="Helvetica,sans-Serif" font-size="11.00">[table]</text>
<polygon fill="none" stroke="black" points="180,-230 180,-252 300,-252 300,-230 180,-230"/>
<image xlink:href="../../images/primaryKeys.png" width="11px" height="12px" preserveAspectRatio="xMinYMin meet" x="185" y="-247"/>
<text text-anchor="start" x="200" y="-238.2" font-family="Helvetica,sans-Serif" font-size="11.00">taxonid</text>
<polygon fill="#ffffff" stroke="transparent" points="180,-208 180,-230 300,-230 300,-208 180,-208"/>
<polygon fill="none" stroke="black" points="180,-208 180,-230 300,-230 300,-208 180,-208"/>
<text text-anchor="start" x="200" y="-216.2" font-family="Helvetica,sans-Serif" font-size="11.00">taxonname</text>
<polygon fill="none" stroke="black" points="180,-186 180,-208 300,-208 300,-186 180,-186"/>
<image xlink:href="../../images/foreignKeys.png" width="11px" height="12px" preserveAspectRatio="xMinYMin meet" x="185" y="-203"/>
<text text-anchor="start" x="200" y="-194.2" font-family="Helvetica,sans-Serif" font-size="11.00">highertaxonid</text>
<polygon fill="#ffffff" stroke="transparent" points="180,-164 180,-186 300,-186 300,-164 180,-164"/>
<polygon fill="none" stroke="black" points="180,-164 180,-186 300,-186 300,-164 180,-164"/>
<image xlink:href="../../images/foreignKeys.png" width="11px" height="12px" preserveAspectRatio="xMinYMin meet" x="185" y="-181"/>
<text text-anchor="start" x="200" y="-172.2" font-family="Helvetica,sans-Serif" font-size="11.00">taxagroupid</text>
<polygon fill="none" stroke="black" points="180,-142 180,-164 300,-164 300,-142 180,-142"/>
<image xlink:href="../../images/foreignKeys.png" width="11px" height="12px" preserveAspectRatio="xMinYMin meet" x="185" y="-159"/>
<text text-anchor="start" x="200" y="-150.2" font-family="Helvetica,sans-Serif" font-size="11.00">publicationid</text>
<polygon fill="none" stroke="black" points="180,-120 180,-142 300,-142 300,-120 180,-120"/>
<image xlink:href="../../images/foreignKeys.png" width="11px" height="12px" preserveAspectRatio="xMinYMin meet" x="185" y="-137"/>
<text text-anchor="start" x="200" y="-128.2" font-family="Helvetica,sans-Serif" font-size="11.00">validatorid</text>
<polygon fill="none" stroke="black" points="180,-102 180,-120 300,-120 300,-102 180,-102"/>
<text text-anchor="start" x="183" y="-108.2" font-family="Helvetica,sans-Serif" font-size="11.00">...</text>
<polygon fill="#ffffff" stroke="transparent" points="180,-84 180,-102 204,-102 204,-84 180,-84"/>
<polygon fill="none" stroke="black" points="180,-84 180,-102 204,-102 204,-84 180,-84"/>
<text text-anchor="start" x="183" y="-90.2" font-family="Helvetica,sans-Serif" font-size="11.00">&lt; 4</text>
<polygon fill="#ffffff" stroke="transparent" points="204,-84 204,-102 271,-102 271,-84 204,-84"/>
<polygon fill="none" stroke="black" points="204,-84 204,-102 271,-102 271,-84 204,-84"/>
<text text-anchor="start" x="208" y="-90.2" font-family="Helvetica,sans-Serif" font-size="11.00">46,322 rows</text>
<polygon fill="#ffffff" stroke="transparent" points="271,-84 271,-102 300,-102 300,-84 271,-84"/>
<polygon fill="none" stroke="black" points="271,-84 271,-102 300,-102 300,-84 271,-84"/>
<text text-anchor="start" x="275" y="-90.2" font-family="Helvetica,sans-Serif" font-size="11.00">17 &gt;</text>
</a>
</g>
</g>
<!-- formtaxa&#45;&gt;taxa -->
<g id="edge1" class="edge">
<title>formtaxa:w&#45;&gt;taxa:e</title>
<path fill="none" stroke="black" d="M336.36,-222.25C324.44,-228.37 319.24,-241 301,-241"/>
<polygon fill="black" stroke="black" points="342.7,-220.79 351.31,-222.51 346.6,-219.9 350.5,-219 350.5,-219 350.5,-219 346.6,-219.9 349.69,-215.49 342.7,-220.79 342.7,-220.79"/>
<ellipse fill="none" stroke="black" cx="339.58" cy="-221.51" rx="3.2" ry="3.2"/>
</g>
<!-- formtaxa&#45;&gt;taxa -->
<g id="edge3" class="edge">
<title>formtaxa:w&#45;&gt;taxa:e</title>
<path fill="none" stroke="black" d="M335.84,-241C324.41,-241 317.16,-241 301,-241"/>
<polygon fill="black" stroke="black" points="342.5,-241 350.5,-244.6 346.5,-241 350.5,-241 350.5,-241 350.5,-241 346.5,-241 350.5,-237.4 342.5,-241 342.5,-241"/>
<ellipse fill="none" stroke="black" cx="339.3" cy="-241" rx="3.2" ry="3.2"/>
</g>
<!-- publications -->
<g id="node3" class="node">
<title>publications</title>
<g id="a_node3"><a xlink:href="../../tables/publications.html" xlink:title="publications" target="_top">
<polygon fill="#ffffff" stroke="transparent" points="8,-37 8,-139 131,-139 131,-37 8,-37"/>
<polygon fill="#f5f5f5" stroke="transparent" points="8.5,-117 8.5,-139 131.5,-139 131.5,-117 8.5,-117"/>
<polygon fill="none" stroke="black" points="8.5,-117 8.5,-139 131.5,-139 131.5,-117 8.5,-117"/>
<text text-anchor="start" x="13.5" y="-126.2" font-family="Helvetica,sans-Serif" font-weight="bold" font-size="11.00">publications</text>
<text text-anchor="start" x="96.5" y="-125.2" font-family="Helvetica,sans-Serif" font-size="11.00">[table]</text>
<polygon fill="none" stroke="black" points="8.5,-95 8.5,-117 131.5,-117 131.5,-95 8.5,-95"/>
<image xlink:href="../../images/primaryKeys.png" width="11px" height="12px" preserveAspectRatio="xMinYMin meet" x="13.5" y="-112"/>
<text text-anchor="start" x="28.5" y="-103.2" font-family="Helvetica,sans-Serif" font-size="11.00">publicationid</text>
<polygon fill="none" stroke="black" points="8.5,-73 8.5,-95 131.5,-95 131.5,-73 8.5,-73"/>
<image xlink:href="../../images/foreignKeys.png" width="11px" height="12px" preserveAspectRatio="xMinYMin meet" x="13.5" y="-90"/>
<text text-anchor="start" x="28.5" y="-81.2" font-family="Helvetica,sans-Serif" font-size="11.00">pubtypeid</text>
<polygon fill="none" stroke="black" points="8.5,-55 8.5,-73 131.5,-73 131.5,-55 8.5,-55"/>
<text text-anchor="start" x="11.5" y="-61.2" font-family="Helvetica,sans-Serif" font-size="11.00">...</text>
<polygon fill="#ffffff" stroke="transparent" points="8.5,-37 8.5,-55 33.5,-55 33.5,-37 8.5,-37"/>
<polygon fill="none" stroke="black" points="8.5,-37 8.5,-55 33.5,-55 33.5,-37 8.5,-37"/>
<text text-anchor="start" x="11.5" y="-43.2" font-family="Helvetica,sans-Serif" font-size="11.00">&lt; 1</text>
<polygon fill="#ffffff" stroke="transparent" points="33.5,-37 33.5,-55 101.5,-55 101.5,-37 33.5,-37"/>
<polygon fill="none" stroke="black" points="33.5,-37 33.5,-55 101.5,-55 101.5,-37 33.5,-37"/>
<text text-anchor="start" x="38.5" y="-43.2" font-family="Helvetica,sans-Serif" font-size="11.00">13,466 rows</text>
<polygon fill="#ffffff" stroke="transparent" points="101.5,-37 101.5,-55 131.5,-55 131.5,-37 101.5,-37"/>
<polygon fill="none" stroke="black" points="101.5,-37 101.5,-55 131.5,-55 131.5,-37 101.5,-37"/>
<text text-anchor="start" x="106.5" y="-43.2" font-family="Helvetica,sans-Serif" font-size="11.00">12 &gt;</text>
</a>
</g>
</g>
<!-- formtaxa&#45;&gt;publications -->
<g id="edge2" class="edge">
<title>formtaxa:w&#45;&gt;publications:e</title>
<path fill="none" stroke="black" d="M335.94,-194.19C304.61,-178.76 350.14,-104.02 308,-74 258.77,-38.93 228.98,-53.82 172,-74 150.7,-81.54 155.09,-106 132.5,-106"/>
<polygon fill="black" stroke="black" points="342.65,-195.48 349.82,-200.53 346.57,-196.24 350.5,-197 350.5,-197 350.5,-197 346.57,-196.24 351.18,-193.47 342.65,-195.48 342.65,-195.48"/>
<ellipse fill="none" stroke="black" cx="339.5" cy="-194.87" rx="3.2" ry="3.2"/>
</g>
<!-- taxa&#45;&gt;publications -->
<g id="edge4" class="edge">
<title>taxa:w&#45;&gt;publications:e</title>
<path fill="none" stroke="black" d="M165.18,-147.61C152.94,-135.26 155.69,-106 132.5,-106"/>
<polygon fill="black" stroke="black" points="171.55,-150.09 177.69,-156.35 175.27,-151.55 179,-153 179,-153 179,-153 175.27,-151.55 180.31,-149.65 171.55,-150.09 171.55,-150.09"/>
<ellipse fill="none" stroke="black" cx="168.57" cy="-148.93" rx="3.2" ry="3.2"/>
</g>
</g>
</svg>
