<?xml version="1.0" encoding="UTF-8" standalone="no"?>
<!DOCTYPE svg PUBLIC "-//W3C//DTD SVG 1.1//EN"
 "http://www.w3.org/Graphics/SVG/1.1/DTD/svg11.dtd">
<!-- Generated by graphviz version 2.43.0 (0)
 -->
<!-- Title: twoDegreesRelationshipsDiagram Pages: 1 -->
<svg width="911pt" height="420pt"
 viewBox="0.00 0.00 911.00 420.00" xmlns="http://www.w3.org/2000/svg" xmlns:xlink="http://www.w3.org/1999/xlink">
<g id="graph0" class="graph" transform="scale(1 1) rotate(0) translate(4 416)">
<title>twoDegreesRelationshipsDiagram</title>
<polygon fill="#ffffff" stroke="transparent" points="-4,4 -4,-416 907,-416 907,4 -4,4"/>
<text text-anchor="middle" x="71.5" y="-7.2" font-family="Helvetica,sans-Serif" font-size="11.00">Generated by SchemaSpy</text>
<!-- geochronology -->
<g id="node1" class="node">
<title>geochronology</title>
<g id="a_node1"><a xlink:href="../../tables/geochronology.html" xlink:title="geochronology" target="_top">
<polygon fill="#ffffff" stroke="transparent" points="375,-350 375,-408 499,-408 499,-350 375,-350"/>
<polygon fill="#f5f5f5" stroke="transparent" points="375,-386 375,-408 499,-408 499,-386 375,-386"/>
<polygon fill="none" stroke="black" points="375,-386 375,-408 499,-408 499,-386 375,-386"/>
<text text-anchor="start" x="380" y="-395.2" font-family="Helvetica,sans-Serif" font-weight="bold" font-size="11.00">geochronology</text>
<text text-anchor="start" x="464" y="-394.2" font-family="Helvetica,sans-Serif" font-size="11.00">[table]</text>
<polygon fill="none" stroke="black" points="375,-368 375,-386 499,-386 499,-368 375,-368"/>
<text text-anchor="start" x="378" y="-374.2" font-family="Helvetica,sans-Serif" font-size="11.00">...</text>
<polygon fill="#ffffff" stroke="transparent" points="375,-350 375,-368 404,-368 404,-350 375,-350"/>
<polygon fill="none" stroke="black" points="375,-350 375,-368 404,-368 404,-350 375,-350"/>
<text text-anchor="start" x="378" y="-356.2" font-family="Helvetica,sans-Serif" font-size="11.00">&lt; 3</text>
<polygon fill="#ffffff" stroke="transparent" points="404,-350 404,-368 473,-368 473,-350 404,-350"/>
<polygon fill="none" stroke="black" points="404,-350 404,-368 473,-368 473,-350 404,-350"/>
<text text-anchor="start" x="410" y="-356.2" font-family="Helvetica,sans-Serif" font-size="11.00">41,130 rows</text>
<polygon fill="#ffffff" stroke="transparent" points="473,-350 473,-368 499,-368 499,-350 473,-350"/>
<polygon fill="none" stroke="black" points="473,-350 473,-368 499,-368 499,-350 473,-350"/>
<text text-anchor="start" x="480" y="-356.2" font-family="Helvetica,sans-Serif" font-size="11.00">4 &gt;</text>
</a>
</g>
</g>
<!-- samples -->
<g id="node2" class="node">
<title>samples</title>
<g id="a_node2"><a xlink:href="../../tables/samples.html" xlink:title="samples" target="_top">
<polygon fill="#ffffff" stroke="transparent" points="173,-350 173,-408 289,-408 289,-350 173,-350"/>
<polygon fill="#f5f5f5" stroke="transparent" points="173,-386 173,-408 289,-408 289,-386 173,-386"/>
<polygon fill="none" stroke="black" points="173,-386 173,-408 289,-408 289,-386 173,-386"/>
<text text-anchor="start" x="178" y="-395.2" font-family="Helvetica,sans-Serif" font-weight="bold" font-size="11.00">samples</text>
<text text-anchor="start" x="254" y="-394.2" font-family="Helvetica,sans-Serif" font-size="11.00">[table]</text>
<polygon fill="none" stroke="black" points="173,-368 173,-386 289,-386 289,-368 173,-368"/>
<text text-anchor="start" x="176" y="-374.2" font-family="Helvetica,sans-Serif" font-size="11.00">...</text>
<polygon fill="#ffffff" stroke="transparent" points="173,-350 173,-368 195,-368 195,-350 173,-350"/>
<polygon fill="none" stroke="black" points="173,-350 173,-368 195,-368 195,-350 173,-350"/>
<text text-anchor="start" x="176" y="-356.2" font-family="Helvetica,sans-Serif" font-size="11.00">&lt; 3</text>
<polygon fill="#ffffff" stroke="transparent" points="195,-350 195,-368 267,-368 267,-350 195,-350"/>
<polygon fill="none" stroke="black" points="195,-350 195,-368 267,-368 267,-350 195,-350"/>
<text text-anchor="start" x="198" y="-356.2" font-family="Helvetica,sans-Serif" font-size="11.00">541,654 rows</text>
<polygon fill="#ffffff" stroke="transparent" points="267,-350 267,-368 289,-368 289,-350 267,-350"/>
<polygon fill="none" stroke="black" points="267,-350 267,-368 289,-368 289,-350 267,-350"/>
<text text-anchor="start" x="270" y="-356.2" font-family="Helvetica,sans-Serif" font-size="11.00">7 &gt;</text>
</a>
</g>
</g>
<!-- geochronology&#45;&gt;samples -->
<g id="edge1" class="edge">
<title>geochronology:w&#45;&gt;samples:e</title>
<path fill="none" stroke="black" d="M359.4,-377C333.38,-377 321.94,-377 290,-377"/>
<polygon fill="black" stroke="black" points="366,-377 374,-380.6 370,-377 374,-377 374,-377 374,-377 370,-377 374,-373.4 366,-377 366,-377"/>
<ellipse fill="none" stroke="black" cx="362.8" cy="-377" rx="3.2" ry="3.2"/>
</g>
<!-- taxa -->
<g id="node3" class="node">
<title>taxa</title>
<g id="a_node3"><a xlink:href="../../tables/taxa.html" xlink:title="taxa" target="_top">
<polygon fill="#ffffff" stroke="transparent" points="8,-324 8,-382 124,-382 124,-324 8,-324"/>
<polygon fill="#f5f5f5" stroke="transparent" points="8,-360 8,-382 124,-382 124,-360 8,-360"/>
<polygon fill="none" stroke="black" points="8,-360 8,-382 124,-382 124,-360 8,-360"/>
<text text-anchor="start" x="13" y="-369.2" font-family="Helvetica,sans-Serif" font-weight="bold" font-size="11.00">taxa</text>
<text text-anchor="start" x="89" y="-368.2" font-family="Helvetica,sans-Serif" font-size="11.00">[table]</text>
<polygon fill="none" stroke="black" points="8,-342 8,-360 124,-360 124,-342 8,-342"/>
<text text-anchor="start" x="11" y="-348.2" font-family="Helvetica,sans-Serif" font-size="11.00">...</text>
<polygon fill="#ffffff" stroke="transparent" points="8,-324 8,-342 30,-342 30,-324 8,-324"/>
<polygon fill="none" stroke="black" points="8,-324 8,-342 30,-342 30,-324 8,-324"/>
<text text-anchor="start" x="11" y="-330.2" font-family="Helvetica,sans-Serif" font-size="11.00">&lt; 4</text>
<polygon fill="#ffffff" stroke="transparent" points="30,-324 30,-342 96,-342 96,-324 30,-324"/>
<polygon fill="none" stroke="black" points="30,-324 30,-342 96,-342 96,-324 30,-324"/>
<text text-anchor="start" x="33" y="-330.2" font-family="Helvetica,sans-Serif" font-size="11.00">47,314 rows</text>
<polygon fill="#ffffff" stroke="transparent" points="96,-324 96,-342 124,-342 124,-324 96,-324"/>
<polygon fill="none" stroke="black" points="96,-324 96,-342 124,-342 124,-324 96,-324"/>
<text text-anchor="start" x="99" y="-330.2" font-family="Helvetica,sans-Serif" font-size="11.00">17 &gt;</text>
</a>
</g>
</g>
<!-- samples&#45;&gt;taxa -->
<g id="edge2" class="edge">
<title>samples:w&#45;&gt;taxa:e</title>
<path fill="none" stroke="black" d="M157.94,-372.94C146.96,-365.62 142.9,-351 125,-351"/>
<polygon fill="black" stroke="black" points="164.31,-374.78 171,-380.46 168.16,-375.89 172,-377 172,-377 172,-377 168.16,-375.89 173,-373.54 164.31,-374.78 164.31,-374.78"/>
<ellipse fill="none" stroke="black" cx="161.24" cy="-373.89" rx="3.2" ry="3.2"/>
</g>
<!-- specimendates -->
<g id="node4" class="node">
<title>specimendates</title>
<g id="a_node4"><a xlink:href="../../tables/specimendates.html" xlink:title="specimendates" target="_top">
<polygon fill="#ffffff" stroke="transparent" points="585,-104 585,-316 708,-316 708,-104 585,-104"/>
<polygon fill="#f5f5f5" stroke="transparent" points="585.5,-294 585.5,-316 708.5,-316 708.5,-294 585.5,-294"/>
<polygon fill="none" stroke="black" points="585.5,-294 585.5,-316 708.5,-316 708.5,-294 585.5,-294"/>
<text text-anchor="start" x="590.5" y="-303.2" font-family="Helvetica,sans-Serif" font-weight="bold" font-size="11.00">specimendates</text>
<text text-anchor="start" x="673.5" y="-302.2" font-family="Helvetica,sans-Serif" font-size="11.00">[table]</text>
<polygon fill="none" stroke="black" points="585.5,-272 585.5,-294 708.5,-294 708.5,-272 585.5,-272"/>
<image xlink:href="../../images/primaryKeys.png" width="11px" height="12px" preserveAspectRatio="xMinYMin meet" x="590.5" y="-289"/>
<text text-anchor="start" x="607.5" y="-280.2" font-family="Helvetica,sans-Serif" font-size="11.00">specimendateid</text>
<polygon fill="none" stroke="black" points="585.5,-250 585.5,-272 708.5,-272 708.5,-250 585.5,-250"/>
<image xlink:href="../../images/foreignKeys.png" width="11px" height="12px" preserveAspectRatio="xMinYMin meet" x="590.5" y="-267"/>
<text text-anchor="start" x="607.5" y="-258.2" font-family="Helvetica,sans-Serif" font-size="11.00">geochronid</text>
<polygon fill="#ffffff" stroke="transparent" points="585.5,-228 585.5,-250 708.5,-250 708.5,-228 585.5,-228"/>
<polygon fill="none" stroke="black" points="585.5,-228 585.5,-250 708.5,-250 708.5,-228 585.5,-228"/>
<image xlink:href="../../images/foreignKeys.png" width="11px" height="12px" preserveAspectRatio="xMinYMin meet" x="590.5" y="-245"/>
<text text-anchor="start" x="607.5" y="-236.2" font-family="Helvetica,sans-Serif" font-size="11.00">taxonid</text>
<polygon fill="none" stroke="black" points="585.5,-206 585.5,-228 708.5,-228 708.5,-206 585.5,-206"/>
<image xlink:href="../../images/foreignKeys.png" width="11px" height="12px" preserveAspectRatio="xMinYMin meet" x="590.5" y="-223"/>
<text text-anchor="start" x="607.5" y="-214.2" font-family="Helvetica,sans-Serif" font-size="11.00">fractionid</text>
<polygon fill="#ffffff" stroke="transparent" points="585.5,-184 585.5,-206 708.5,-206 708.5,-184 585.5,-184"/>
<polygon fill="none" stroke="black" points="585.5,-184 585.5,-206 708.5,-206 708.5,-184 585.5,-184"/>
<image xlink:href="../../images/foreignKeys.png" width="11px" height="12px" preserveAspectRatio="xMinYMin meet" x="590.5" y="-201"/>
<text text-anchor="start" x="607.5" y="-192.2" font-family="Helvetica,sans-Serif" font-size="11.00">sampleid</text>
<polygon fill="none" stroke="black" points="585.5,-162 585.5,-184 708.5,-184 708.5,-162 585.5,-162"/>
<image xlink:href="../../images/foreignKeys.png" width="11px" height="12px" preserveAspectRatio="xMinYMin meet" x="590.5" y="-179"/>
<text text-anchor="start" x="607.5" y="-170.2" font-family="Helvetica,sans-Serif" font-size="11.00">elementtypeid</text>
<polygon fill="none" stroke="black" points="585.5,-140 585.5,-162 708.5,-162 708.5,-140 585.5,-140"/>
<image xlink:href="../../images/foreignKeys.png" width="11px" height="12px" preserveAspectRatio="xMinYMin meet" x="590.5" y="-157"/>
<text text-anchor="start" x="607.5" y="-148.2" font-family="Helvetica,sans-Serif" font-size="11.00">specimenid</text>
<polygon fill="none" stroke="black" points="585.5,-122 585.5,-140 708.5,-140 708.5,-122 585.5,-122"/>
<text text-anchor="start" x="588.5" y="-128.2" font-family="Helvetica,sans-Serif" font-size="11.00">...</text>
<polygon fill="#ffffff" stroke="transparent" points="585.5,-104 585.5,-122 616.5,-122 616.5,-104 585.5,-104"/>
<polygon fill="none" stroke="black" points="585.5,-104 585.5,-122 616.5,-122 616.5,-104 585.5,-104"/>
<text text-anchor="start" x="588.5" y="-110.2" font-family="Helvetica,sans-Serif" font-size="11.00">&lt; 6</text>
<polygon fill="#ffffff" stroke="transparent" points="616.5,-104 616.5,-122 681.5,-122 681.5,-104 616.5,-104"/>
<polygon fill="none" stroke="black" points="616.5,-104 616.5,-122 681.5,-122 681.5,-104 616.5,-104"/>
<text text-anchor="start" x="624.5" y="-110.2" font-family="Helvetica,sans-Serif" font-size="11.00">2,662 rows</text>
<polygon fill="#ffffff" stroke="transparent" points="681.5,-104 681.5,-122 708.5,-122 708.5,-104 681.5,-104"/>
<polygon fill="none" stroke="black" points="681.5,-104 681.5,-122 708.5,-122 708.5,-104 681.5,-104"/>
<text text-anchor="start" x="689.5" y="-110.2" font-family="Helvetica,sans-Serif" font-size="11.00">1 &gt;</text>
</a>
</g>
</g>
<!-- specimendates&#45;&gt;geochronology -->
<g id="edge5" class="edge">
<title>specimendates:w&#45;&gt;geochronology:e</title>
<path fill="none" stroke="black" d="M570.12,-264.37C552.18,-275.37 563.36,-310.94 544,-336 527.66,-357.15 526.73,-377 500,-377"/>
<polygon fill="black" stroke="black" points="576.71,-262.83 585.32,-264.5 580.61,-261.91 584.5,-261 584.5,-261 584.5,-261 580.61,-261.91 583.68,-257.5 576.71,-262.83 576.71,-262.83"/>
<ellipse fill="none" stroke="black" cx="573.6" cy="-263.56" rx="3.2" ry="3.2"/>
</g>
<!-- specimendates&#45;&gt;samples -->
<g id="edge6" class="edge">
<title>specimendates:w&#45;&gt;samples:e</title>
<path fill="none" stroke="black" d="M570.69,-190.19C561.71,-182.11 560.37,-166.09 544,-160 499.43,-143.41 366.55,-129.57 330,-160 254.63,-222.75 388.07,-377 290,-377"/>
<polygon fill="black" stroke="black" points="576.94,-192.37 583.32,-198.4 580.72,-193.69 584.5,-195 584.5,-195 584.5,-195 580.72,-193.69 585.68,-191.6 576.94,-192.37 576.94,-192.37"/>
<ellipse fill="none" stroke="black" cx="573.92" cy="-191.32" rx="3.2" ry="3.2"/>
</g>
<!-- specimendates&#45;&gt;taxa -->
<g id="edge8" class="edge">
<title>specimendates:w&#45;&gt;taxa:e</title>
<path fill="none" stroke="black" d="M570.38,-243.32C555.04,-256.49 570.13,-296.23 544,-313 472.94,-358.61 248.22,-325.74 165,-340 146.83,-343.11 143.44,-351 125,-351"/>
<polygon fill="black" stroke="black" points="576.85,-241.34 585.55,-242.44 580.68,-240.17 584.5,-239 584.5,-239 584.5,-239 580.68,-240.17 583.45,-235.56 576.85,-241.34 576.85,-241.34"/>
<ellipse fill="none" stroke="black" cx="573.79" cy="-242.28" rx="3.2" ry="3.2"/>
</g>
<!-- elementtypes -->
<g id="node5" class="node">
<title>elementtypes</title>
<g id="a_node5"><a xlink:href="../../tables/elementtypes.html" xlink:title="elementtypes" target="_top">
<polygon fill="#ffffff" stroke="transparent" points="174,-65 174,-123 288,-123 288,-65 174,-65"/>
<polygon fill="#f5f5f5" stroke="transparent" points="174,-101 174,-123 288,-123 288,-101 174,-101"/>
<polygon fill="none" stroke="black" points="174,-101 174,-123 288,-123 288,-101 174,-101"/>
<text text-anchor="start" x="179" y="-110.2" font-family="Helvetica,sans-Serif" font-weight="bold" font-size="11.00">elementtypes</text>
<text text-anchor="start" x="253" y="-109.2" font-family="Helvetica,sans-Serif" font-size="11.00">[table]</text>
<polygon fill="none" stroke="black" points="174,-83 174,-101 288,-101 288,-83 174,-83"/>
<text text-anchor="start" x="177" y="-89.2" font-family="Helvetica,sans-Serif" font-size="11.00">...</text>
<polygon fill="#ffffff" stroke="transparent" points="174,-65 174,-83 201,-83 201,-65 174,-65"/>
<polygon fill="none" stroke="black" points="174,-65 174,-83 201,-83 201,-65 174,-65"/>
<text text-anchor="start" x="177" y="-71.2" font-family="Helvetica,sans-Serif" font-size="11.00"> &#160;</text>
<polygon fill="#ffffff" stroke="transparent" points="201,-65 201,-83 259,-83 259,-65 201,-65"/>
<polygon fill="none" stroke="black" points="201,-65 201,-83 259,-83 259,-65 201,-65"/>
<text text-anchor="start" x="211" y="-71.2" font-family="Helvetica,sans-Serif" font-size="11.00">939 rows</text>
<polygon fill="#ffffff" stroke="transparent" points="259,-65 259,-83 288,-83 288,-65 259,-65"/>
<polygon fill="none" stroke="black" points="259,-65 259,-83 288,-83 288,-65 259,-65"/>
<text text-anchor="start" x="269" y="-71.2" font-family="Helvetica,sans-Serif" font-size="11.00">5 &gt;</text>
</a>
</g>
</g>
<!-- specimendates&#45;&gt;elementtypes -->
<g id="edge3" class="edge">
<title>specimendates:w&#45;&gt;elementtypes:e</title>
<path fill="none" stroke="black" d="M570.69,-168.43C561.31,-160.37 560.36,-143.74 544,-136 457.13,-94.89 423.67,-126.48 330,-105 311.37,-100.73 308.12,-92 289,-92"/>
<polygon fill="black" stroke="black" points="576.9,-170.49 583.37,-176.42 580.7,-171.74 584.5,-173 584.5,-173 584.5,-173 580.7,-171.74 585.63,-169.58 576.9,-170.49 576.9,-170.49"/>
<ellipse fill="none" stroke="black" cx="573.87" cy="-169.48" rx="3.2" ry="3.2"/>
</g>
<!-- fractiondated -->
<g id="node6" class="node">
<title>fractiondated</title>
<g id="a_node6"><a xlink:href="../../tables/fractiondated.html" xlink:title="fractiondated" target="_top">
<polygon fill="#ffffff" stroke="transparent" points="338,-170 338,-302 536,-302 536,-170 338,-170"/>
<polygon fill="#f5f5f5" stroke="transparent" points="340,-278 340,-300 534,-300 534,-278 340,-278"/>
<polygon fill="none" stroke="black" points="340,-278 340,-300 534,-300 534,-278 340,-278"/>
<text text-anchor="start" x="345" y="-287.2" font-family="Helvetica,sans-Serif" font-weight="bold" font-size="11.00">fractiondated</text>
<text text-anchor="start" x="499" y="-286.2" font-family="Helvetica,sans-Serif" font-size="11.00">[table]</text>
<polygon fill="none" stroke="black" points="340,-256 340,-278 460,-278 460,-256 340,-256"/>
<image xlink:href="../../images/primaryKeys.png" width="11px" height="12px" preserveAspectRatio="xMinYMin meet" x="345" y="-273"/>
<text text-anchor="start" x="360" y="-264.2" font-family="Helvetica,sans-Serif" font-size="11.00">fractionid</text>
<polygon fill="none" stroke="black" points="460,-256 460,-278 534,-278 534,-256 460,-256"/>
<text text-anchor="start" x="463" y="-264.2" font-family="Helvetica,sans-Serif" font-size="11.00">serial[10]</text>
<polygon fill="none" stroke="black" points="340,-234 340,-256 460,-256 460,-234 340,-234"/>
<text text-anchor="start" x="360" y="-242.2" font-family="Helvetica,sans-Serif" font-size="11.00">fraction</text>
<polygon fill="none" stroke="black" points="460,-234 460,-256 534,-256 534,-234 460,-234"/>
<text text-anchor="start" x="463" y="-242.2" font-family="Helvetica,sans-Serif" font-size="11.00">varchar[80]</text>
<polygon fill="none" stroke="black" points="340,-212 340,-234 460,-234 460,-212 340,-212"/>
<text text-anchor="start" x="360" y="-220.2" font-family="Helvetica,sans-Serif" font-size="11.00">recdatecreated</text>
<polygon fill="none" stroke="black" points="460,-212 460,-234 534,-234 534,-212 460,-212"/>
<text text-anchor="start" x="463" y="-220.2" font-family="Helvetica,sans-Serif" font-size="11.00">timestamp[22]</text>
<polygon fill="none" stroke="black" points="340,-190 340,-212 460,-212 460,-190 340,-190"/>
<text text-anchor="start" x="360" y="-198.2" font-family="Helvetica,sans-Serif" font-size="11.00">recdatemodified</text>
<polygon fill="none" stroke="black" points="460,-190 460,-212 534,-212 534,-190 460,-190"/>
<text text-anchor="start" x="463" y="-198.2" font-family="Helvetica,sans-Serif" font-size="11.00">timestamp[22]</text>
<polygon fill="#ffffff" stroke="transparent" points="340,-172 340,-190 388,-190 388,-172 340,-172"/>
<polygon fill="none" stroke="black" points="340,-172 340,-190 388,-190 388,-172 340,-172"/>
<text text-anchor="start" x="343" y="-178.2" font-family="Helvetica,sans-Serif" font-size="11.00">&lt; 0</text>
<polygon fill="#ffffff" stroke="transparent" points="388,-172 388,-190 460,-190 460,-172 388,-172"/>
<polygon fill="none" stroke="black" points="388,-172 388,-190 460,-190 460,-172 388,-172"/>
<text text-anchor="start" x="418" y="-178.2" font-family="Helvetica,sans-Serif" font-size="11.00">29 rows</text>
<polygon fill="#ffffff" stroke="transparent" points="460,-172 460,-190 534,-190 534,-172 460,-172"/>
<polygon fill="none" stroke="black" points="460,-172 460,-190 534,-190 534,-172 460,-172"/>
<text text-anchor="start" x="515" y="-178.2" font-family="Helvetica,sans-Serif" font-size="11.00">1 &gt;</text>
<polygon fill="none" stroke="black" stroke-width="2" points="339,-171 339,-301 535,-301 535,-171 339,-171"/>
</a>
</g>
</g>
<!-- specimendates&#45;&gt;fractiondated -->
<g id="edge4" class="edge">
<title>specimendates:w&#45;&gt;fractiondated:e</title>
<path fill="none" stroke="black" d="M570.59,-221.98C556.63,-234.62 560.16,-267 535,-267"/>
<polygon fill="black" stroke="black" points="576.97,-219.69 585.71,-220.39 580.73,-218.35 584.5,-217 584.5,-217 584.5,-217 580.73,-218.35 583.29,-213.61 576.97,-219.69 576.97,-219.69"/>
<ellipse fill="none" stroke="black" cx="573.95" cy="-220.77" rx="3.2" ry="3.2"/>
</g>
<!-- specimens -->
<g id="node7" class="node">
<title>specimens</title>
<g id="a_node7"><a xlink:href="../../tables/specimens.html" xlink:title="specimens" target="_top">
<polygon fill="#ffffff" stroke="transparent" points="385,-37 385,-95 489,-95 489,-37 385,-37"/>
<polygon fill="#f5f5f5" stroke="transparent" points="385,-73 385,-95 489,-95 489,-73 385,-73"/>
<polygon fill="none" stroke="black" points="385,-73 385,-95 489,-95 489,-73 385,-73"/>
<text text-anchor="start" x="390" y="-82.2" font-family="Helvetica,sans-Serif" font-weight="bold" font-size="11.00">specimens</text>
<text text-anchor="start" x="454" y="-81.2" font-family="Helvetica,sans-Serif" font-size="11.00">[table]</text>
<polygon fill="none" stroke="black" points="385,-55 385,-73 489,-73 489,-55 385,-55"/>
<text text-anchor="start" x="388" y="-61.2" font-family="Helvetica,sans-Serif" font-size="11.00">...</text>
<polygon fill="#ffffff" stroke="transparent" points="385,-37 385,-55 407,-55 407,-37 385,-37"/>
<polygon fill="none" stroke="black" points="385,-37 385,-55 407,-55 407,-37 385,-37"/>
<text text-anchor="start" x="388" y="-43.2" font-family="Helvetica,sans-Serif" font-size="11.00">&lt; 8</text>
<polygon fill="#ffffff" stroke="transparent" points="407,-37 407,-55 467,-55 467,-37 407,-37"/>
<polygon fill="none" stroke="black" points="407,-37 407,-55 467,-55 467,-37 407,-37"/>
<text text-anchor="start" x="410" y="-43.2" font-family="Helvetica,sans-Serif" font-size="11.00">3,453 rows</text>
<polygon fill="#ffffff" stroke="transparent" points="467,-37 467,-55 489,-55 489,-37 467,-37"/>
<polygon fill="none" stroke="black" points="467,-37 467,-55 489,-55 489,-37 467,-37"/>
<text text-anchor="start" x="470" y="-43.2" font-family="Helvetica,sans-Serif" font-size="11.00">4 &gt;</text>
</a>
</g>
</g>
<!-- specimendates&#45;&gt;specimens -->
<g id="edge7" class="edge">
<title>specimendates:w&#45;&gt;specimens:e</title>
<path fill="none" stroke="black" d="M570.24,-147.16C559.34,-139.6 558.39,-122.38 544,-109 521.12,-87.72 521.24,-64 490,-64"/>
<polygon fill="black" stroke="black" points="576.78,-148.92 583.56,-154.48 580.64,-149.96 584.5,-151 584.5,-151 584.5,-151 580.64,-149.96 585.44,-147.52 576.78,-148.92 576.78,-148.92"/>
<ellipse fill="none" stroke="black" cx="573.69" cy="-148.09" rx="3.2" ry="3.2"/>
</g>
<!-- specimens&#45;&gt;elementtypes -->
<g id="edge10" class="edge">
<title>specimens:w&#45;&gt;elementtypes:e</title>
<path fill="none" stroke="black" d="M369.51,-65.13C337.75,-70.37 327.69,-92 289,-92"/>
<polygon fill="black" stroke="black" points="376.02,-64.62 384.28,-67.59 380.01,-64.31 384,-64 384,-64 384,-64 380.01,-64.31 383.72,-60.41 376.02,-64.62 376.02,-64.62"/>
<ellipse fill="none" stroke="black" cx="372.83" cy="-64.87" rx="3.2" ry="3.2"/>
</g>
<!-- specimendatescal -->
<g id="node8" class="node">
<title>specimendatescal</title>
<g id="a_node8"><a xlink:href="../../tables/specimendatescal.html" xlink:title="specimendatescal" target="_top">
<polygon fill="#ffffff" stroke="transparent" points="757,-256 757,-314 895,-314 895,-256 757,-256"/>
<polygon fill="#f5f5f5" stroke="transparent" points="757,-292 757,-314 895,-314 895,-292 757,-292"/>
<polygon fill="none" stroke="black" points="757,-292 757,-314 895,-314 895,-292 757,-292"/>
<text text-anchor="start" x="762" y="-301.2" font-family="Helvetica,sans-Serif" font-weight="bold" font-size="11.00">specimendatescal</text>
<text text-anchor="start" x="860" y="-300.2" font-family="Helvetica,sans-Serif" font-size="11.00">[table]</text>
<polygon fill="none" stroke="black" points="757,-274 757,-292 895,-292 895,-274 757,-274"/>
<text text-anchor="start" x="760" y="-280.2" font-family="Helvetica,sans-Serif" font-size="11.00">...</text>
<polygon fill="#ffffff" stroke="transparent" points="757,-256 757,-274 800,-274 800,-256 757,-256"/>
<polygon fill="none" stroke="black" points="757,-256 757,-274 800,-274 800,-256 757,-256"/>
<text text-anchor="start" x="760" y="-262.2" font-family="Helvetica,sans-Serif" font-size="11.00">&lt; 3</text>
<polygon fill="#ffffff" stroke="transparent" points="800,-256 800,-274 871,-274 871,-256 800,-256"/>
<polygon fill="none" stroke="black" points="800,-256 800,-274 871,-274 871,-256 800,-256"/>
<text text-anchor="start" x="814" y="-262.2" font-family="Helvetica,sans-Serif" font-size="11.00">2,605 rows</text>
<polygon fill="#ffffff" stroke="transparent" points="871,-256 871,-274 895,-274 895,-256 871,-256"/>
<polygon fill="none" stroke="black" points="871,-256 871,-274 895,-274 895,-256 871,-256"/>
<text text-anchor="start" x="885" y="-262.2" font-family="Helvetica,sans-Serif" font-size="11.00"> &#160;</text>
</a>
</g>
</g>
<!-- specimendatescal&#45;&gt;specimendates -->
<g id="edge9" class="edge">
<title>specimendatescal:w&#45;&gt;specimendates:e</title>
<path fill="none" stroke="black" d="M741.55,-283C731.2,-283 724.35,-283 709.5,-283"/>
<polygon fill="black" stroke="black" points="748,-283 756,-286.6 752,-283 756,-283 756,-283 756,-283 752,-283 756,-279.4 748,-283 748,-283"/>
<ellipse fill="none" stroke="black" cx="744.8" cy="-283" rx="3.2" ry="3.2"/>
</g>
</g>
</svg>
