<?xml version="1.0" encoding="UTF-8" standalone="no"?>
<!DOCTYPE svg PUBLIC "-//W3C//DTD SVG 1.1//EN"
 "http://www.w3.org/Graphics/SVG/1.1/DTD/svg11.dtd">
<!-- Generated by graphviz version 2.43.0 (0)
 -->
<!-- Title: twoDegreesRelationshipsDiagram Pages: 1 -->
<svg width="947pt" height="629pt"
 viewBox="0.00 0.00 947.00 629.00" xmlns="http://www.w3.org/2000/svg" xmlns:xlink="http://www.w3.org/1999/xlink">
<g id="graph0" class="graph" transform="scale(1 1) rotate(0) translate(4 625)">
<title>twoDegreesRelationshipsDiagram</title>
<polygon fill="#ffffff" stroke="transparent" points="-4,4 -4,-625 943,-625 943,4 -4,4"/>
<text text-anchor="middle" x="71.5" y="-7.2" font-family="Helvetica,sans-Serif" font-size="11.00">Generated by SchemaSpy</text>
<!-- chroncontrolranks -->
<g id="node1" class="node">
<title>chroncontrolranks</title>
<g id="a_node1"><a xlink:href="../../tables/chroncontrolranks.html" xlink:title="chroncontrolranks" target="_top">
<polygon fill="#ffffff" stroke="transparent" points="530,-559 530,-617 672,-617 672,-559 530,-559"/>
<polygon fill="#f5f5f5" stroke="transparent" points="530,-595 530,-617 672,-617 672,-595 530,-595"/>
<polygon fill="none" stroke="black" points="530,-595 530,-617 672,-617 672,-595 530,-595"/>
<text text-anchor="start" x="535" y="-604.2" font-family="Helvetica,sans-Serif" font-weight="bold" font-size="11.00">chroncontrolranks</text>
<text text-anchor="start" x="637" y="-603.2" font-family="Helvetica,sans-Serif" font-size="11.00">[table]</text>
<polygon fill="none" stroke="black" points="530,-577 530,-595 672,-595 672,-577 530,-577"/>
<text text-anchor="start" x="533" y="-583.2" font-family="Helvetica,sans-Serif" font-size="11.00">...</text>
<polygon fill="#ffffff" stroke="transparent" points="530,-559 530,-577 586,-577 586,-559 530,-559"/>
<polygon fill="none" stroke="black" points="530,-559 530,-577 586,-577 586,-559 530,-559"/>
<text text-anchor="start" x="533" y="-565.2" font-family="Helvetica,sans-Serif" font-size="11.00">&lt; 5</text>
<polygon fill="#ffffff" stroke="transparent" points="586,-559 586,-577 642,-577 642,-559 586,-559"/>
<polygon fill="none" stroke="black" points="586,-559 586,-577 642,-577 642,-559 586,-559"/>
<text text-anchor="start" x="606" y="-565.2" font-family="Helvetica,sans-Serif" font-size="11.00">0 rows</text>
<polygon fill="#ffffff" stroke="transparent" points="642,-559 642,-577 672,-577 672,-559 642,-559"/>
<polygon fill="none" stroke="black" points="642,-559 642,-577 672,-577 672,-559 642,-559"/>
<text text-anchor="start" x="662" y="-565.2" font-family="Helvetica,sans-Serif" font-size="11.00"> &#160;</text>
</a>
</g>
</g>
<!-- chroncontrols -->
<g id="node2" class="node">
<title>chroncontrols</title>
<g id="a_node2"><a xlink:href="../../tables/chroncontrols.html" xlink:title="chroncontrols" target="_top">
<polygon fill="#ffffff" stroke="transparent" points="339,-307 339,-541 476,-541 476,-307 339,-307"/>
<polygon fill="#f5f5f5" stroke="transparent" points="339.5,-519 339.5,-541 476.5,-541 476.5,-519 339.5,-519"/>
<polygon fill="none" stroke="black" points="339.5,-519 339.5,-541 476.5,-541 476.5,-519 339.5,-519"/>
<text text-anchor="start" x="344.5" y="-528.2" font-family="Helvetica,sans-Serif" font-weight="bold" font-size="11.00">chroncontrols</text>
<text text-anchor="start" x="441.5" y="-527.2" font-family="Helvetica,sans-Serif" font-size="11.00">[table]</text>
<polygon fill="none" stroke="black" points="339.5,-497 339.5,-519 476.5,-519 476.5,-497 339.5,-497"/>
<image xlink:href="../../images/primaryKeys.png" width="11px" height="12px" preserveAspectRatio="xMinYMin meet" x="344.5" y="-514"/>
<text text-anchor="start" x="359.5" y="-505.2" font-family="Helvetica,sans-Serif" font-size="11.00">chroncontrolid</text>
<polygon fill="none" stroke="black" points="339.5,-475 339.5,-497 476.5,-497 476.5,-475 339.5,-475"/>
<image xlink:href="../../images/foreignKeys.png" width="11px" height="12px" preserveAspectRatio="xMinYMin meet" x="344.5" y="-492"/>
<text text-anchor="start" x="359.5" y="-483.2" font-family="Helvetica,sans-Serif" font-size="11.00">chronologyid</text>
<polygon fill="none" stroke="black" points="339.5,-453 339.5,-475 476.5,-475 476.5,-453 339.5,-453"/>
<image xlink:href="../../images/foreignKeys.png" width="11px" height="12px" preserveAspectRatio="xMinYMin meet" x="344.5" y="-470"/>
<text text-anchor="start" x="359.5" y="-461.2" font-family="Helvetica,sans-Serif" font-size="11.00">chroncontroltypeid</text>
<polygon fill="#ffffff" stroke="transparent" points="339.5,-431 339.5,-453 476.5,-453 476.5,-431 339.5,-431"/>
<polygon fill="none" stroke="black" points="339.5,-431 339.5,-453 476.5,-453 476.5,-431 339.5,-431"/>
<text text-anchor="start" x="359.5" y="-439.2" font-family="Helvetica,sans-Serif" font-size="11.00">age</text>
<polygon fill="#ffffff" stroke="transparent" points="339.5,-409 339.5,-431 476.5,-431 476.5,-409 339.5,-409"/>
<polygon fill="none" stroke="black" points="339.5,-409 339.5,-431 476.5,-431 476.5,-409 339.5,-409"/>
<text text-anchor="start" x="359.5" y="-417.2" font-family="Helvetica,sans-Serif" font-size="11.00">agelimityounger</text>
<polygon fill="#ffffff" stroke="transparent" points="339.5,-387 339.5,-409 476.5,-409 476.5,-387 339.5,-387"/>
<polygon fill="none" stroke="black" points="339.5,-387 339.5,-409 476.5,-409 476.5,-387 339.5,-387"/>
<text text-anchor="start" x="359.5" y="-395.2" font-family="Helvetica,sans-Serif" font-size="11.00">agelimitolder</text>
<polygon fill="none" stroke="black" points="339.5,-365 339.5,-387 476.5,-387 476.5,-365 339.5,-365"/>
<image xlink:href="../../images/foreignKeys.png" width="11px" height="12px" preserveAspectRatio="xMinYMin meet" x="344.5" y="-382"/>
<text text-anchor="start" x="359.5" y="-373.2" font-family="Helvetica,sans-Serif" font-size="11.00">analysisunitid</text>
<polygon fill="none" stroke="black" points="339.5,-343 339.5,-365 476.5,-365 476.5,-343 339.5,-343"/>
<image xlink:href="../../images/foreignKeys.png" width="11px" height="12px" preserveAspectRatio="xMinYMin meet" x="344.5" y="-360"/>
<text text-anchor="start" x="359.5" y="-351.2" font-family="Helvetica,sans-Serif" font-size="11.00">agetypeid</text>
<polygon fill="none" stroke="black" points="339.5,-325 339.5,-343 476.5,-343 476.5,-325 339.5,-325"/>
<text text-anchor="start" x="342.5" y="-331.2" font-family="Helvetica,sans-Serif" font-size="11.00">...</text>
<polygon fill="#ffffff" stroke="transparent" points="339.5,-307 339.5,-325 371.5,-325 371.5,-307 339.5,-307"/>
<polygon fill="none" stroke="black" points="339.5,-307 339.5,-325 371.5,-325 371.5,-307 339.5,-307"/>
<text text-anchor="start" x="342.5" y="-313.2" font-family="Helvetica,sans-Serif" font-size="11.00">&lt; 4</text>
<polygon fill="#ffffff" stroke="transparent" points="371.5,-307 371.5,-325 448.5,-325 448.5,-307 371.5,-307"/>
<polygon fill="none" stroke="black" points="371.5,-307 371.5,-325 448.5,-325 448.5,-307 371.5,-307"/>
<text text-anchor="start" x="379.5" y="-313.2" font-family="Helvetica,sans-Serif" font-size="11.00">103,140 rows</text>
<polygon fill="#ffffff" stroke="transparent" points="448.5,-307 448.5,-325 476.5,-325 476.5,-307 448.5,-307"/>
<polygon fill="none" stroke="black" points="448.5,-307 448.5,-325 476.5,-325 476.5,-307 448.5,-307"/>
<text text-anchor="start" x="457.5" y="-313.2" font-family="Helvetica,sans-Serif" font-size="11.00">5 &gt;</text>
</a>
</g>
</g>
<!-- chroncontrolranks&#45;&gt;chroncontrols -->
<g id="edge1" class="edge">
<title>chroncontrolranks:w&#45;&gt;chroncontrols:e</title>
<path fill="none" stroke="black" d="M515.13,-581.58C495.06,-565.08 513.04,-508 477.5,-508"/>
<polygon fill="black" stroke="black" points="521.38,-583.57 527.91,-589.43 525.19,-584.79 529,-586 529,-586 529,-586 525.19,-584.79 530.09,-582.57 521.38,-583.57 521.38,-583.57"/>
<ellipse fill="none" stroke="black" cx="518.33" cy="-582.6" rx="3.2" ry="3.2"/>
</g>
<!-- agetypes -->
<g id="node3" class="node">
<title>agetypes</title>
<g id="a_node3"><a xlink:href="../../tables/agetypes.html" xlink:title="agetypes" target="_top">
<polygon fill="#ffffff" stroke="transparent" points="8,-327 8,-385 100,-385 100,-327 8,-327"/>
<polygon fill="#f5f5f5" stroke="transparent" points="8,-363 8,-385 100,-385 100,-363 8,-363"/>
<polygon fill="none" stroke="black" points="8,-363 8,-385 100,-385 100,-363 8,-363"/>
<text text-anchor="start" x="13" y="-372.2" font-family="Helvetica,sans-Serif" font-weight="bold" font-size="11.00">agetypes</text>
<text text-anchor="start" x="65" y="-371.2" font-family="Helvetica,sans-Serif" font-size="11.00">[table]</text>
<polygon fill="none" stroke="black" points="8,-345 8,-363 100,-363 100,-345 8,-345"/>
<text text-anchor="start" x="11" y="-351.2" font-family="Helvetica,sans-Serif" font-size="11.00">...</text>
<polygon fill="#ffffff" stroke="transparent" points="8,-327 8,-345 30,-345 30,-327 8,-327"/>
<polygon fill="none" stroke="black" points="8,-327 8,-345 30,-345 30,-327 8,-327"/>
<text text-anchor="start" x="11" y="-333.2" font-family="Helvetica,sans-Serif" font-size="11.00"> &#160;</text>
<polygon fill="#ffffff" stroke="transparent" points="30,-327 30,-345 73,-345 73,-327 30,-327"/>
<polygon fill="none" stroke="black" points="30,-327 30,-345 73,-345 73,-327 30,-327"/>
<text text-anchor="start" x="37" y="-333.2" font-family="Helvetica,sans-Serif" font-size="11.00">5 rows</text>
<polygon fill="#ffffff" stroke="transparent" points="73,-327 73,-345 100,-345 100,-327 73,-327"/>
<polygon fill="none" stroke="black" points="73,-327 73,-345 100,-345 100,-327 73,-327"/>
<text text-anchor="start" x="81" y="-333.2" font-family="Helvetica,sans-Serif" font-size="11.00">4 &gt;</text>
</a>
</g>
</g>
<!-- chroncontrols&#45;&gt;agetypes -->
<g id="edge2" class="edge">
<title>chroncontrols:w&#45;&gt;agetypes:e</title>
<path fill="none" stroke="black" d="M323.87,-354C230.24,-354 201.5,-354 101,-354"/>
<polygon fill="black" stroke="black" points="330.5,-354 338.5,-357.6 334.5,-354 338.5,-354 338.5,-354 338.5,-354 334.5,-354 338.5,-350.4 330.5,-354 330.5,-354"/>
<ellipse fill="none" stroke="black" cx="327.3" cy="-354" rx="3.2" ry="3.2"/>
</g>
<!-- analysisunits -->
<g id="node4" class="node">
<title>analysisunits</title>
<g id="a_node4"><a xlink:href="../../tables/analysisunits.html" xlink:title="analysisunits" target="_top">
<polygon fill="#ffffff" stroke="transparent" points="158.5,-242 158.5,-300 280.5,-300 280.5,-242 158.5,-242"/>
<polygon fill="#f5f5f5" stroke="transparent" points="158.5,-278 158.5,-300 280.5,-300 280.5,-278 158.5,-278"/>
<polygon fill="none" stroke="black" points="158.5,-278 158.5,-300 280.5,-300 280.5,-278 158.5,-278"/>
<text text-anchor="start" x="163.5" y="-287.2" font-family="Helvetica,sans-Serif" font-weight="bold" font-size="11.00">analysisunits</text>
<text text-anchor="start" x="245.5" y="-286.2" font-family="Helvetica,sans-Serif" font-size="11.00">[table]</text>
<polygon fill="none" stroke="black" points="158.5,-260 158.5,-278 280.5,-278 280.5,-260 158.5,-260"/>
<text text-anchor="start" x="161.5" y="-266.2" font-family="Helvetica,sans-Serif" font-size="11.00">...</text>
<polygon fill="#ffffff" stroke="transparent" points="158.5,-242 158.5,-260 180.5,-260 180.5,-242 158.5,-242"/>
<polygon fill="none" stroke="black" points="158.5,-242 158.5,-260 180.5,-260 180.5,-242 158.5,-242"/>
<text text-anchor="start" x="161.5" y="-248.2" font-family="Helvetica,sans-Serif" font-size="11.00">&lt; 2</text>
<polygon fill="#ffffff" stroke="transparent" points="180.5,-242 180.5,-260 252.5,-260 252.5,-242 180.5,-242"/>
<polygon fill="none" stroke="black" points="180.5,-242 180.5,-260 252.5,-260 252.5,-242 180.5,-242"/>
<text text-anchor="start" x="183.5" y="-248.2" font-family="Helvetica,sans-Serif" font-size="11.00">486,580 rows</text>
<polygon fill="#ffffff" stroke="transparent" points="252.5,-242 252.5,-260 280.5,-260 280.5,-242 252.5,-242"/>
<polygon fill="none" stroke="black" points="252.5,-242 252.5,-260 280.5,-260 280.5,-242 252.5,-242"/>
<text text-anchor="start" x="255.5" y="-248.2" font-family="Helvetica,sans-Serif" font-size="11.00">10 &gt;</text>
</a>
</g>
</g>
<!-- chroncontrols&#45;&gt;analysisunits -->
<g id="edge3" class="edge">
<title>chroncontrols:w&#45;&gt;analysisunits:e</title>
<path fill="none" stroke="black" d="M324.3,-372.44C294.47,-353.87 329.49,-269 281.5,-269"/>
<polygon fill="black" stroke="black" points="330.74,-374.05 337.62,-379.49 334.62,-375.03 338.5,-376 338.5,-376 338.5,-376 334.62,-375.03 339.38,-372.51 330.74,-374.05 330.74,-374.05"/>
<ellipse fill="none" stroke="black" cx="327.64" cy="-373.28" rx="3.2" ry="3.2"/>
</g>
<!-- chroncontroltypes -->
<g id="node5" class="node">
<title>chroncontroltypes</title>
<g id="a_node5"><a xlink:href="../../tables/chroncontroltypes.html" xlink:title="chroncontroltypes" target="_top">
<polygon fill="#ffffff" stroke="transparent" points="149,-380 149,-438 290,-438 290,-380 149,-380"/>
<polygon fill="#f5f5f5" stroke="transparent" points="149.5,-416 149.5,-438 290.5,-438 290.5,-416 149.5,-416"/>
<polygon fill="none" stroke="black" points="149.5,-416 149.5,-438 290.5,-438 290.5,-416 149.5,-416"/>
<text text-anchor="start" x="154.5" y="-425.2" font-family="Helvetica,sans-Serif" font-weight="bold" font-size="11.00">chroncontroltypes</text>
<text text-anchor="start" x="255.5" y="-424.2" font-family="Helvetica,sans-Serif" font-size="11.00">[table]</text>
<polygon fill="none" stroke="black" points="149.5,-398 149.5,-416 290.5,-416 290.5,-398 149.5,-398"/>
<text text-anchor="start" x="152.5" y="-404.2" font-family="Helvetica,sans-Serif" font-size="11.00">...</text>
<polygon fill="#ffffff" stroke="transparent" points="149.5,-380 149.5,-398 197.5,-398 197.5,-380 149.5,-380"/>
<polygon fill="none" stroke="black" points="149.5,-380 149.5,-398 197.5,-398 197.5,-380 149.5,-380"/>
<text text-anchor="start" x="152.5" y="-386.2" font-family="Helvetica,sans-Serif" font-size="11.00">&lt; 1</text>
<polygon fill="#ffffff" stroke="transparent" points="197.5,-380 197.5,-398 255.5,-398 255.5,-380 197.5,-380"/>
<polygon fill="none" stroke="black" points="197.5,-380 197.5,-398 255.5,-398 255.5,-380 197.5,-380"/>
<text text-anchor="start" x="213.5" y="-386.2" font-family="Helvetica,sans-Serif" font-size="11.00">99 rows</text>
<polygon fill="#ffffff" stroke="transparent" points="255.5,-380 255.5,-398 290.5,-398 290.5,-380 255.5,-380"/>
<polygon fill="none" stroke="black" points="255.5,-380 255.5,-398 290.5,-398 290.5,-380 255.5,-380"/>
<text text-anchor="start" x="271.5" y="-386.2" font-family="Helvetica,sans-Serif" font-size="11.00">3 &gt;</text>
</a>
</g>
</g>
<!-- chroncontrols&#45;&gt;chroncontroltypes -->
<g id="edge4" class="edge">
<title>chroncontrols:w&#45;&gt;chroncontroltypes:e</title>
<path fill="none" stroke="black" d="M324.78,-458.74C310.86,-444.63 318.18,-407 291.5,-407"/>
<polygon fill="black" stroke="black" points="331.03,-461.14 337.21,-467.36 334.77,-462.57 338.5,-464 338.5,-464 338.5,-464 334.77,-462.57 339.79,-460.64 331.03,-461.14 331.03,-461.14"/>
<ellipse fill="none" stroke="black" cx="328.04" cy="-459.99" rx="3.2" ry="3.2"/>
</g>
<!-- chronologies -->
<g id="node6" class="node">
<title>chronologies</title>
<g id="a_node6"><a xlink:href="../../tables/chronologies.html" xlink:title="chronologies" target="_top">
<polygon fill="#ffffff" stroke="transparent" points="162.5,-459 162.5,-517 276.5,-517 276.5,-459 162.5,-459"/>
<polygon fill="#f5f5f5" stroke="transparent" points="162.5,-495 162.5,-517 276.5,-517 276.5,-495 162.5,-495"/>
<polygon fill="none" stroke="black" points="162.5,-495 162.5,-517 276.5,-517 276.5,-495 162.5,-495"/>
<text text-anchor="start" x="167.5" y="-504.2" font-family="Helvetica,sans-Serif" font-weight="bold" font-size="11.00">chronologies</text>
<text text-anchor="start" x="241.5" y="-503.2" font-family="Helvetica,sans-Serif" font-size="11.00">[table]</text>
<polygon fill="none" stroke="black" points="162.5,-477 162.5,-495 276.5,-495 276.5,-477 162.5,-477"/>
<text text-anchor="start" x="165.5" y="-483.2" font-family="Helvetica,sans-Serif" font-size="11.00">...</text>
<polygon fill="#ffffff" stroke="transparent" points="162.5,-459 162.5,-477 186.5,-477 186.5,-459 162.5,-459"/>
<polygon fill="none" stroke="black" points="162.5,-459 162.5,-477 186.5,-477 186.5,-459 162.5,-459"/>
<text text-anchor="start" x="165.5" y="-465.2" font-family="Helvetica,sans-Serif" font-size="11.00">&lt; 3</text>
<polygon fill="#ffffff" stroke="transparent" points="186.5,-459 186.5,-477 253.5,-477 253.5,-459 186.5,-459"/>
<polygon fill="none" stroke="black" points="186.5,-459 186.5,-477 253.5,-477 253.5,-459 186.5,-459"/>
<text text-anchor="start" x="190.5" y="-465.2" font-family="Helvetica,sans-Serif" font-size="11.00">32,182 rows</text>
<polygon fill="#ffffff" stroke="transparent" points="253.5,-459 253.5,-477 276.5,-477 276.5,-459 253.5,-459"/>
<polygon fill="none" stroke="black" points="253.5,-459 253.5,-477 276.5,-477 276.5,-459 253.5,-459"/>
<text text-anchor="start" x="257.5" y="-465.2" font-family="Helvetica,sans-Serif" font-size="11.00">3 &gt;</text>
</a>
</g>
</g>
<!-- chroncontrols&#45;&gt;chronologies -->
<g id="edge5" class="edge">
<title>chroncontrols:w&#45;&gt;chronologies:e</title>
<path fill="none" stroke="black" d="M323.68,-486C307.62,-486 298.89,-486 277.5,-486"/>
<polygon fill="black" stroke="black" points="330.5,-486 338.5,-489.6 334.5,-486 338.5,-486 338.5,-486 338.5,-486 334.5,-486 338.5,-482.4 330.5,-486 330.5,-486"/>
<ellipse fill="none" stroke="black" cx="327.3" cy="-486" rx="3.2" ry="3.2"/>
</g>
<!-- chronologies&#45;&gt;agetypes -->
<g id="edge7" class="edge">
<title>chronologies:w&#45;&gt;agetypes:e</title>
<path fill="none" stroke="black" d="M147.39,-483.12C107.99,-463.82 159.86,-354 101,-354"/>
<polygon fill="black" stroke="black" points="153.66,-484.4 160.78,-489.53 157.58,-485.2 161.5,-486 161.5,-486 161.5,-486 157.58,-485.2 162.22,-482.47 153.66,-484.4 153.66,-484.4"/>
<ellipse fill="none" stroke="black" cx="150.53" cy="-483.76" rx="3.2" ry="3.2"/>
</g>
<!-- chroncontrolscal14c -->
<g id="node7" class="node">
<title>chroncontrolscal14c</title>
<g id="a_node7"><a xlink:href="../../tables/chroncontrolscal14c.html" xlink:title="chroncontrolscal14c" target="_top">
<polygon fill="#ffffff" stroke="transparent" points="525,-480 525,-538 677,-538 677,-480 525,-480"/>
<polygon fill="#f5f5f5" stroke="transparent" points="525,-516 525,-538 677,-538 677,-516 525,-516"/>
<polygon fill="none" stroke="black" points="525,-516 525,-538 677,-538 677,-516 525,-516"/>
<text text-anchor="start" x="530" y="-525.2" font-family="Helvetica,sans-Serif" font-weight="bold" font-size="11.00">chroncontrolscal14c</text>
<text text-anchor="start" x="642" y="-524.2" font-family="Helvetica,sans-Serif" font-size="11.00">[table]</text>
<polygon fill="none" stroke="black" points="525,-498 525,-516 677,-516 677,-498 525,-498"/>
<text text-anchor="start" x="528" y="-504.2" font-family="Helvetica,sans-Serif" font-size="11.00">...</text>
<polygon fill="#ffffff" stroke="transparent" points="525,-480 525,-498 575,-498 575,-480 525,-480"/>
<polygon fill="none" stroke="black" points="525,-480 525,-498 575,-498 575,-480 525,-480"/>
<text text-anchor="start" x="528" y="-486.2" font-family="Helvetica,sans-Serif" font-size="11.00">&lt; 3</text>
<polygon fill="#ffffff" stroke="transparent" points="575,-480 575,-498 649,-498 649,-480 575,-480"/>
<polygon fill="none" stroke="black" points="575,-480 575,-498 649,-498 649,-480 575,-480"/>
<text text-anchor="start" x="592" y="-486.2" font-family="Helvetica,sans-Serif" font-size="11.00">6,899 rows</text>
<polygon fill="#ffffff" stroke="transparent" points="649,-480 649,-498 677,-498 677,-480 649,-480"/>
<polygon fill="none" stroke="black" points="649,-480 649,-498 677,-498 677,-480 649,-480"/>
<text text-anchor="start" x="667" y="-486.2" font-family="Helvetica,sans-Serif" font-size="11.00"> &#160;</text>
</a>
</g>
</g>
<!-- chroncontrolscal14c&#45;&gt;chroncontrols -->
<g id="edge6" class="edge">
<title>chroncontrolscal14c:w&#45;&gt;chroncontrols:e</title>
<path fill="none" stroke="black" d="M513.43,-507.1C500.72,-507.35 494.13,-508 477.5,-508"/>
<polygon fill="black" stroke="black" points="523.16,-503.01 523.24,-511.01 521.64,-511.02 521.56,-503.02 523.16,-503.01"/>
<polyline fill="none" stroke="black" points="524,-507 520,-507.04 "/>
<ellipse fill="none" stroke="black" cx="516.8" cy="-507.07" rx="3.2" ry="3.2"/>
</g>
<!-- eventchronology -->
<g id="node8" class="node">
<title>eventchronology</title>
<g id="a_node8"><a xlink:href="../../tables/eventchronology.html" xlink:title="eventchronology" target="_top">
<polygon fill="#ffffff" stroke="transparent" points="534.5,-279 534.5,-337 667.5,-337 667.5,-279 534.5,-279"/>
<polygon fill="#f5f5f5" stroke="transparent" points="535,-315 535,-337 668,-337 668,-315 535,-315"/>
<polygon fill="none" stroke="black" points="535,-315 535,-337 668,-337 668,-315 535,-315"/>
<text text-anchor="start" x="540" y="-324.2" font-family="Helvetica,sans-Serif" font-weight="bold" font-size="11.00">eventchronology</text>
<text text-anchor="start" x="633" y="-323.2" font-family="Helvetica,sans-Serif" font-size="11.00">[table]</text>
<polygon fill="none" stroke="black" points="535,-297 535,-315 668,-315 668,-297 535,-297"/>
<text text-anchor="start" x="538" y="-303.2" font-family="Helvetica,sans-Serif" font-size="11.00">...</text>
<polygon fill="#ffffff" stroke="transparent" points="535,-279 535,-297 580,-297 580,-279 535,-279"/>
<polygon fill="none" stroke="black" points="535,-279 535,-297 580,-297 580,-279 535,-279"/>
<text text-anchor="start" x="538" y="-285.2" font-family="Helvetica,sans-Serif" font-size="11.00">&lt; 3</text>
<polygon fill="#ffffff" stroke="transparent" points="580,-279 580,-297 643,-297 643,-279 580,-279"/>
<polygon fill="none" stroke="black" points="580,-279 580,-297 643,-297 643,-279 580,-279"/>
<text text-anchor="start" x="595" y="-285.2" font-family="Helvetica,sans-Serif" font-size="11.00">276 rows</text>
<polygon fill="#ffffff" stroke="transparent" points="643,-279 643,-297 668,-297 668,-279 643,-279"/>
<polygon fill="none" stroke="black" points="643,-279 643,-297 668,-297 668,-279 643,-279"/>
<text text-anchor="start" x="658" y="-285.2" font-family="Helvetica,sans-Serif" font-size="11.00"> &#160;</text>
</a>
</g>
</g>
<!-- eventchronology&#45;&gt;chroncontrols -->
<g id="edge9" class="edge">
<title>eventchronology:w&#45;&gt;chroncontrols:e</title>
<path fill="none" stroke="black" d="M519.42,-308.13C455.69,-329.72 565.08,-508 477.5,-508"/>
<polygon fill="black" stroke="black" points="526.08,-307.16 534.52,-309.56 530.04,-306.58 534,-306 534,-306 534,-306 530.04,-306.58 533.48,-302.44 526.08,-307.16 526.08,-307.16"/>
<ellipse fill="none" stroke="black" cx="522.92" cy="-307.62" rx="3.2" ry="3.2"/>
</g>
<!-- eventchronology&#45;&gt;analysisunits -->
<g id="edge8" class="edge">
<title>eventchronology:w&#45;&gt;analysisunits:e</title>
<path fill="none" stroke="black" d="M519.67,-302.63C506.89,-295.51 503.66,-279.12 484,-273 398.04,-246.26 371.52,-269 281.5,-269"/>
<polygon fill="black" stroke="black" points="526.21,-304.17 533.18,-309.5 530.11,-305.08 534,-306 534,-306 534,-306 530.11,-305.08 534.82,-302.5 526.21,-304.17 526.21,-304.17"/>
<ellipse fill="none" stroke="black" cx="523.1" cy="-303.44" rx="3.2" ry="3.2"/>
</g>
<!-- geochroncontrols -->
<g id="node9" class="node">
<title>geochroncontrols</title>
<g id="a_node9"><a xlink:href="../../tables/geochroncontrols.html" xlink:title="geochroncontrols" target="_top">
<polygon fill="#ffffff" stroke="transparent" points="726,-336 726,-468 931,-468 931,-336 726,-336"/>
<polygon fill="#f5f5f5" stroke="transparent" points="728.5,-444 728.5,-466 929.5,-466 929.5,-444 728.5,-444"/>
<polygon fill="none" stroke="black" points="728.5,-444 728.5,-466 929.5,-466 929.5,-444 728.5,-444"/>
<text text-anchor="start" x="733.5" y="-453.2" font-family="Helvetica,sans-Serif" font-weight="bold" font-size="11.00">geochroncontrols</text>
<text text-anchor="start" x="894.5" y="-452.2" font-family="Helvetica,sans-Serif" font-size="11.00">[table]</text>
<polygon fill="none" stroke="black" points="728.5,-422 728.5,-444 855.5,-444 855.5,-422 728.5,-422"/>
<image xlink:href="../../images/primaryKeys.png" width="11px" height="12px" preserveAspectRatio="xMinYMin meet" x="733.5" y="-439"/>
<text text-anchor="start" x="748.5" y="-430.2" font-family="Helvetica,sans-Serif" font-size="11.00">chroncontrolid</text>
<polygon fill="none" stroke="black" points="855.5,-422 855.5,-444 929.5,-444 929.5,-422 855.5,-422"/>
<text text-anchor="start" x="858.5" y="-430.2" font-family="Helvetica,sans-Serif" font-size="11.00">int4[10]</text>
<polygon fill="none" stroke="black" points="728.5,-400 728.5,-422 855.5,-422 855.5,-400 728.5,-400"/>
<image xlink:href="../../images/primaryKeys.png" width="11px" height="12px" preserveAspectRatio="xMinYMin meet" x="733.5" y="-417"/>
<text text-anchor="start" x="748.5" y="-408.2" font-family="Helvetica,sans-Serif" font-size="11.00">geochronid</text>
<polygon fill="none" stroke="black" points="855.5,-400 855.5,-422 929.5,-422 929.5,-400 855.5,-400"/>
<text text-anchor="start" x="858.5" y="-408.2" font-family="Helvetica,sans-Serif" font-size="11.00">int4[10]</text>
<polygon fill="none" stroke="black" points="728.5,-378 728.5,-400 855.5,-400 855.5,-378 728.5,-378"/>
<text text-anchor="start" x="748.5" y="-386.2" font-family="Helvetica,sans-Serif" font-size="11.00">recdatecreated</text>
<polygon fill="none" stroke="black" points="855.5,-378 855.5,-400 929.5,-400 929.5,-378 855.5,-378"/>
<text text-anchor="start" x="858.5" y="-386.2" font-family="Helvetica,sans-Serif" font-size="11.00">timestamp[22]</text>
<polygon fill="none" stroke="black" points="728.5,-356 728.5,-378 855.5,-378 855.5,-356 728.5,-356"/>
<text text-anchor="start" x="748.5" y="-364.2" font-family="Helvetica,sans-Serif" font-size="11.00">recdatemodified</text>
<polygon fill="none" stroke="black" points="855.5,-356 855.5,-378 929.5,-378 929.5,-356 855.5,-356"/>
<text text-anchor="start" x="858.5" y="-364.2" font-family="Helvetica,sans-Serif" font-size="11.00">timestamp[22]</text>
<polygon fill="#ffffff" stroke="transparent" points="728.5,-338 728.5,-356 769.5,-356 769.5,-338 728.5,-338"/>
<polygon fill="none" stroke="black" points="728.5,-338 728.5,-356 769.5,-356 769.5,-338 728.5,-338"/>
<text text-anchor="start" x="731.5" y="-344.2" font-family="Helvetica,sans-Serif" font-size="11.00">&lt; 2</text>
<polygon fill="#ffffff" stroke="transparent" points="769.5,-338 769.5,-356 855.5,-356 855.5,-338 769.5,-338"/>
<polygon fill="none" stroke="black" points="769.5,-338 769.5,-356 855.5,-356 855.5,-338 769.5,-338"/>
<text text-anchor="start" x="792.5" y="-344.2" font-family="Helvetica,sans-Serif" font-size="11.00">43,605 rows</text>
<polygon fill="#ffffff" stroke="transparent" points="855.5,-338 855.5,-356 929.5,-356 929.5,-338 855.5,-338"/>
<polygon fill="none" stroke="black" points="855.5,-338 855.5,-356 929.5,-356 929.5,-338 855.5,-338"/>
<text text-anchor="start" x="910.5" y="-344.2" font-family="Helvetica,sans-Serif" font-size="11.00">0 &gt;</text>
<polygon fill="none" stroke="black" stroke-width="2" points="727,-337 727,-467 930,-467 930,-337 727,-337"/>
</a>
</g>
</g>
<!-- geochroncontrols&#45;&gt;chroncontrols -->
<g id="edge10" class="edge">
<title>geochroncontrols:w&#45;&gt;chroncontrols:e</title>
<path fill="none" stroke="black" d="M712.82,-434.11C665.19,-439.22 535.57,-460.57 517,-470 495.28,-481.03 501.86,-508 477.5,-508"/>
<polygon fill="black" stroke="black" points="719.52,-433.61 727.77,-436.59 723.51,-433.3 727.5,-433 727.5,-433 727.5,-433 723.51,-433.3 727.23,-429.41 719.52,-433.61 719.52,-433.61"/>
<ellipse fill="none" stroke="black" cx="716.33" cy="-433.85" rx="3.2" ry="3.2"/>
</g>
<!-- geochronology -->
<g id="node10" class="node">
<title>geochronology</title>
<g id="a_node10"><a xlink:href="../../tables/geochronology.html" xlink:title="geochronology" target="_top">
<polygon fill="#ffffff" stroke="transparent" points="539,-88 539,-256 663,-256 663,-88 539,-88"/>
<polygon fill="#f5f5f5" stroke="transparent" points="539,-234 539,-256 663,-256 663,-234 539,-234"/>
<polygon fill="none" stroke="black" points="539,-234 539,-256 663,-256 663,-234 539,-234"/>
<text text-anchor="start" x="544" y="-243.2" font-family="Helvetica,sans-Serif" font-weight="bold" font-size="11.00">geochronology</text>
<text text-anchor="start" x="628" y="-242.2" font-family="Helvetica,sans-Serif" font-size="11.00">[table]</text>
<polygon fill="none" stroke="black" points="539,-212 539,-234 663,-234 663,-212 539,-212"/>
<image xlink:href="../../images/primaryKeys.png" width="11px" height="12px" preserveAspectRatio="xMinYMin meet" x="544" y="-229"/>
<text text-anchor="start" x="561" y="-220.2" font-family="Helvetica,sans-Serif" font-size="11.00">geochronid</text>
<polygon fill="#ffffff" stroke="transparent" points="539,-190 539,-212 663,-212 663,-190 539,-190"/>
<polygon fill="none" stroke="black" points="539,-190 539,-212 663,-212 663,-190 539,-190"/>
<image xlink:href="../../images/foreignKeys.png" width="11px" height="12px" preserveAspectRatio="xMinYMin meet" x="544" y="-207"/>
<text text-anchor="start" x="561" y="-198.2" font-family="Helvetica,sans-Serif" font-size="11.00">sampleid</text>
<polygon fill="none" stroke="black" points="539,-168 539,-190 663,-190 663,-168 539,-168"/>
<image xlink:href="../../images/foreignKeys.png" width="11px" height="12px" preserveAspectRatio="xMinYMin meet" x="544" y="-185"/>
<text text-anchor="start" x="561" y="-176.2" font-family="Helvetica,sans-Serif" font-size="11.00">geochrontypeid</text>
<polygon fill="none" stroke="black" points="539,-146 539,-168 663,-168 663,-146 539,-146"/>
<image xlink:href="../../images/foreignKeys.png" width="11px" height="12px" preserveAspectRatio="xMinYMin meet" x="544" y="-163"/>
<text text-anchor="start" x="561" y="-154.2" font-family="Helvetica,sans-Serif" font-size="11.00">agetypeid</text>
<polygon fill="#ffffff" stroke="transparent" points="539,-124 539,-146 663,-146 663,-124 539,-124"/>
<polygon fill="none" stroke="black" points="539,-124 539,-146 663,-146 663,-124 539,-124"/>
<text text-anchor="start" x="561" y="-132.2" font-family="Helvetica,sans-Serif" font-size="11.00">age</text>
<polygon fill="none" stroke="black" points="539,-106 539,-124 663,-124 663,-106 539,-106"/>
<text text-anchor="start" x="542" y="-112.2" font-family="Helvetica,sans-Serif" font-size="11.00">...</text>
<polygon fill="#ffffff" stroke="transparent" points="539,-88 539,-106 568,-106 568,-88 539,-88"/>
<polygon fill="none" stroke="black" points="539,-88 539,-106 568,-106 568,-88 539,-88"/>
<text text-anchor="start" x="542" y="-94.2" font-family="Helvetica,sans-Serif" font-size="11.00">&lt; 3</text>
<polygon fill="#ffffff" stroke="transparent" points="568,-88 568,-106 637,-106 637,-88 568,-88"/>
<polygon fill="none" stroke="black" points="568,-88 568,-106 637,-106 637,-88 568,-88"/>
<text text-anchor="start" x="574" y="-94.2" font-family="Helvetica,sans-Serif" font-size="11.00">41,130 rows</text>
<polygon fill="#ffffff" stroke="transparent" points="637,-88 637,-106 663,-106 663,-88 637,-88"/>
<polygon fill="none" stroke="black" points="637,-88 637,-106 663,-106 663,-88 637,-88"/>
<text text-anchor="start" x="644" y="-94.2" font-family="Helvetica,sans-Serif" font-size="11.00">4 &gt;</text>
</a>
</g>
</g>
<!-- geochroncontrols&#45;&gt;geochronology -->
<g id="edge11" class="edge">
<title>geochroncontrols:w&#45;&gt;geochronology:e</title>
<path fill="none" stroke="black" d="M713.22,-408.89C652.63,-388.23 746.68,-223 664,-223"/>
<polygon fill="black" stroke="black" points="719.59,-409.83 726.97,-414.56 723.54,-410.41 727.5,-411 727.5,-411 727.5,-411 723.54,-410.41 728.03,-407.44 719.59,-409.83 719.59,-409.83"/>
<ellipse fill="none" stroke="black" cx="716.42" cy="-409.36" rx="3.2" ry="3.2"/>
</g>
<!-- geochronology&#45;&gt;agetypes -->
<g id="edge12" class="edge">
<title>geochronology:w&#45;&gt;agetypes:e</title>
<path fill="none" stroke="black" d="M523.78,-153.67C503,-141.53 514.69,-99.47 484,-84 423.28,-53.39 395.31,-61.91 331,-84 229.77,-118.78 202.58,-144.44 141,-232 108.17,-278.68 158.06,-354 101,-354"/>
<polygon fill="black" stroke="black" points="530.21,-155.18 537.18,-160.51 534.11,-156.09 538,-157 538,-157 538,-157 534.11,-156.09 538.82,-153.49 530.21,-155.18 530.21,-155.18"/>
<ellipse fill="none" stroke="black" cx="527.09" cy="-154.45" rx="3.2" ry="3.2"/>
</g>
<!-- geochrontypes -->
<g id="node11" class="node">
<title>geochrontypes</title>
<g id="a_node11"><a xlink:href="../../tables/geochrontypes.html" xlink:title="geochrontypes" target="_top">
<polygon fill="#ffffff" stroke="transparent" points="346,-95 346,-153 469,-153 469,-95 346,-95"/>
<polygon fill="#f5f5f5" stroke="transparent" points="346.5,-131 346.5,-153 469.5,-153 469.5,-131 346.5,-131"/>
<polygon fill="none" stroke="black" points="346.5,-131 346.5,-153 469.5,-153 469.5,-131 346.5,-131"/>
<text text-anchor="start" x="351.5" y="-140.2" font-family="Helvetica,sans-Serif" font-weight="bold" font-size="11.00">geochrontypes</text>
<text text-anchor="start" x="434.5" y="-139.2" font-family="Helvetica,sans-Serif" font-size="11.00">[table]</text>
<polygon fill="none" stroke="black" points="346.5,-113 346.5,-131 469.5,-131 469.5,-113 346.5,-113"/>
<text text-anchor="start" x="349.5" y="-119.2" font-family="Helvetica,sans-Serif" font-size="11.00">...</text>
<polygon fill="#ffffff" stroke="transparent" points="346.5,-95 346.5,-113 380.5,-113 380.5,-95 346.5,-95"/>
<polygon fill="none" stroke="black" points="346.5,-95 346.5,-113 380.5,-113 380.5,-95 346.5,-95"/>
<text text-anchor="start" x="349.5" y="-101.2" font-family="Helvetica,sans-Serif" font-size="11.00"> &#160;</text>
<polygon fill="#ffffff" stroke="transparent" points="380.5,-95 380.5,-113 436.5,-113 436.5,-95 380.5,-95"/>
<polygon fill="none" stroke="black" points="380.5,-95 380.5,-113 436.5,-113 436.5,-95 380.5,-95"/>
<text text-anchor="start" x="394.5" y="-101.2" font-family="Helvetica,sans-Serif" font-size="11.00">18 rows</text>
<polygon fill="#ffffff" stroke="transparent" points="436.5,-95 436.5,-113 469.5,-113 469.5,-95 436.5,-95"/>
<polygon fill="none" stroke="black" points="436.5,-95 436.5,-113 469.5,-113 469.5,-95 436.5,-95"/>
<text text-anchor="start" x="450.5" y="-101.2" font-family="Helvetica,sans-Serif" font-size="11.00">1 &gt;</text>
</a>
</g>
</g>
<!-- geochronology&#45;&gt;geochrontypes -->
<g id="edge13" class="edge">
<title>geochronology:w&#45;&gt;geochrontypes:e</title>
<path fill="none" stroke="black" d="M523.82,-175.77C500.87,-163.71 504.09,-122 470.5,-122"/>
<polygon fill="black" stroke="black" points="530.2,-177.22 537.2,-182.51 534.1,-178.11 538,-179 538,-179 538,-179 534.1,-178.11 538.8,-175.49 530.2,-177.22 530.2,-177.22"/>
<ellipse fill="none" stroke="black" cx="527.08" cy="-176.51" rx="3.2" ry="3.2"/>
</g>
<!-- samples -->
<g id="node12" class="node">
<title>samples</title>
<g id="a_node12"><a xlink:href="../../tables/samples.html" xlink:title="samples" target="_top">
<polygon fill="#ffffff" stroke="transparent" points="349.5,-174 349.5,-232 465.5,-232 465.5,-174 349.5,-174"/>
<polygon fill="#f5f5f5" stroke="transparent" points="349.5,-210 349.5,-232 465.5,-232 465.5,-210 349.5,-210"/>
<polygon fill="none" stroke="black" points="349.5,-210 349.5,-232 465.5,-232 465.5,-210 349.5,-210"/>
<text text-anchor="start" x="354.5" y="-219.2" font-family="Helvetica,sans-Serif" font-weight="bold" font-size="11.00">samples</text>
<text text-anchor="start" x="430.5" y="-218.2" font-family="Helvetica,sans-Serif" font-size="11.00">[table]</text>
<polygon fill="none" stroke="black" points="349.5,-192 349.5,-210 465.5,-210 465.5,-192 349.5,-192"/>
<text text-anchor="start" x="352.5" y="-198.2" font-family="Helvetica,sans-Serif" font-size="11.00">...</text>
<polygon fill="#ffffff" stroke="transparent" points="349.5,-174 349.5,-192 371.5,-192 371.5,-174 349.5,-174"/>
<polygon fill="none" stroke="black" points="349.5,-174 349.5,-192 371.5,-192 371.5,-174 349.5,-174"/>
<text text-anchor="start" x="352.5" y="-180.2" font-family="Helvetica,sans-Serif" font-size="11.00">&lt; 3</text>
<polygon fill="#ffffff" stroke="transparent" points="371.5,-174 371.5,-192 443.5,-192 443.5,-174 371.5,-174"/>
<polygon fill="none" stroke="black" points="371.5,-174 371.5,-192 443.5,-192 443.5,-174 371.5,-174"/>
<text text-anchor="start" x="374.5" y="-180.2" font-family="Helvetica,sans-Serif" font-size="11.00">541,654 rows</text>
<polygon fill="#ffffff" stroke="transparent" points="443.5,-174 443.5,-192 465.5,-192 465.5,-174 443.5,-174"/>
<polygon fill="none" stroke="black" points="443.5,-174 443.5,-192 465.5,-192 465.5,-174 443.5,-174"/>
<text text-anchor="start" x="446.5" y="-180.2" font-family="Helvetica,sans-Serif" font-size="11.00">7 &gt;</text>
</a>
</g>
</g>
<!-- geochronology&#45;&gt;samples -->
<g id="edge14" class="edge">
<title>geochronology:w&#45;&gt;samples:e</title>
<path fill="none" stroke="black" d="M523.48,-201C502.79,-201 492.82,-201 466.5,-201"/>
<polygon fill="black" stroke="black" points="530,-201 538,-204.6 534,-201 538,-201 538,-201 538,-201 534,-201 538,-197.4 530,-201 530,-201"/>
<ellipse fill="none" stroke="black" cx="526.8" cy="-201" rx="3.2" ry="3.2"/>
</g>
<!-- samples&#45;&gt;analysisunits -->
<g id="edge19" class="edge">
<title>samples:w&#45;&gt;analysisunits:e</title>
<path fill="none" stroke="black" d="M334.17,-204.47C309.83,-218.32 318.13,-269 281.5,-269"/>
<polygon fill="black" stroke="black" points="340.72,-202.88 349.35,-204.5 344.61,-201.94 348.5,-201 348.5,-201 348.5,-201 344.61,-201.94 347.65,-197.5 340.72,-202.88 340.72,-202.88"/>
<ellipse fill="none" stroke="black" cx="337.61" cy="-203.63" rx="3.2" ry="3.2"/>
</g>
<!-- geochronpublications -->
<g id="node13" class="node">
<title>geochronpublications</title>
<g id="a_node13"><a xlink:href="../../tables/geochronpublications.html" xlink:title="geochronpublications" target="_top">
<polygon fill="#ffffff" stroke="transparent" points="749,-216 749,-274 908,-274 908,-216 749,-216"/>
<polygon fill="#f5f5f5" stroke="transparent" points="749.5,-252 749.5,-274 908.5,-274 908.5,-252 749.5,-252"/>
<polygon fill="none" stroke="black" points="749.5,-252 749.5,-274 908.5,-274 908.5,-252 749.5,-252"/>
<text text-anchor="start" x="754.5" y="-261.2" font-family="Helvetica,sans-Serif" font-weight="bold" font-size="11.00">geochronpublications</text>
<text text-anchor="start" x="873.5" y="-260.2" font-family="Helvetica,sans-Serif" font-size="11.00">[table]</text>
<polygon fill="none" stroke="black" points="749.5,-234 749.5,-252 908.5,-252 908.5,-234 749.5,-234"/>
<text text-anchor="start" x="752.5" y="-240.2" font-family="Helvetica,sans-Serif" font-size="11.00">...</text>
<polygon fill="#ffffff" stroke="transparent" points="749.5,-216 749.5,-234 800.5,-234 800.5,-216 749.5,-216"/>
<polygon fill="none" stroke="black" points="749.5,-216 749.5,-234 800.5,-234 800.5,-216 749.5,-216"/>
<text text-anchor="start" x="752.5" y="-222.2" font-family="Helvetica,sans-Serif" font-size="11.00">&lt; 2</text>
<polygon fill="#ffffff" stroke="transparent" points="800.5,-216 800.5,-234 880.5,-234 880.5,-216 800.5,-216"/>
<polygon fill="none" stroke="black" points="800.5,-216 800.5,-234 880.5,-234 880.5,-216 800.5,-216"/>
<text text-anchor="start" x="817.5" y="-222.2" font-family="Helvetica,sans-Serif" font-size="11.00">37,711 rows</text>
<polygon fill="#ffffff" stroke="transparent" points="880.5,-216 880.5,-234 908.5,-234 908.5,-216 880.5,-216"/>
<polygon fill="none" stroke="black" points="880.5,-216 880.5,-234 908.5,-234 908.5,-216 880.5,-216"/>
<text text-anchor="start" x="898.5" y="-222.2" font-family="Helvetica,sans-Serif" font-size="11.00"> &#160;</text>
</a>
</g>
</g>
<!-- geochronpublications&#45;&gt;geochronology -->
<g id="edge15" class="edge">
<title>geochronpublications:w&#45;&gt;geochronology:e</title>
<path fill="none" stroke="black" d="M733.9,-241.92C707.23,-237.77 697.17,-223 664,-223"/>
<polygon fill="black" stroke="black" points="740.52,-242.41 748.24,-246.59 744.51,-242.71 748.5,-243 748.5,-243 748.5,-243 744.51,-242.71 748.76,-239.41 740.52,-242.41 740.52,-242.41"/>
<ellipse fill="none" stroke="black" cx="737.33" cy="-242.18" rx="3.2" ry="3.2"/>
</g>
<!-- radiocarbon -->
<g id="node14" class="node">
<title>radiocarbon</title>
<g id="a_node14"><a xlink:href="../../tables/radiocarbon.html" xlink:title="radiocarbon" target="_top">
<polygon fill="#ffffff" stroke="transparent" points="774.5,-137 774.5,-195 882.5,-195 882.5,-137 774.5,-137"/>
<polygon fill="#f5f5f5" stroke="transparent" points="774.5,-173 774.5,-195 882.5,-195 882.5,-173 774.5,-173"/>
<polygon fill="none" stroke="black" points="774.5,-173 774.5,-195 882.5,-195 882.5,-173 774.5,-173"/>
<text text-anchor="start" x="779.5" y="-182.2" font-family="Helvetica,sans-Serif" font-weight="bold" font-size="11.00">radiocarbon</text>
<text text-anchor="start" x="847.5" y="-181.2" font-family="Helvetica,sans-Serif" font-size="11.00">[table]</text>
<polygon fill="none" stroke="black" points="774.5,-155 774.5,-173 882.5,-173 882.5,-155 774.5,-155"/>
<text text-anchor="start" x="777.5" y="-161.2" font-family="Helvetica,sans-Serif" font-size="11.00">...</text>
<polygon fill="#ffffff" stroke="transparent" points="774.5,-137 774.5,-155 799.5,-155 799.5,-137 774.5,-137"/>
<polygon fill="none" stroke="black" points="774.5,-137 774.5,-155 799.5,-155 799.5,-137 774.5,-137"/>
<text text-anchor="start" x="777.5" y="-143.2" font-family="Helvetica,sans-Serif" font-size="11.00">&lt; 2</text>
<polygon fill="#ffffff" stroke="transparent" points="799.5,-137 799.5,-155 867.5,-155 867.5,-137 799.5,-137"/>
<polygon fill="none" stroke="black" points="799.5,-137 799.5,-155 867.5,-155 867.5,-137 799.5,-137"/>
<text text-anchor="start" x="804.5" y="-143.2" font-family="Helvetica,sans-Serif" font-size="11.00">32,234 rows</text>
<polygon fill="#ffffff" stroke="transparent" points="867.5,-137 867.5,-155 882.5,-155 882.5,-137 867.5,-137"/>
<polygon fill="none" stroke="black" points="867.5,-137 867.5,-155 882.5,-155 882.5,-137 867.5,-137"/>
<text text-anchor="start" x="872.5" y="-143.2" font-family="Helvetica,sans-Serif" font-size="11.00"> &#160;</text>
</a>
</g>
</g>
<!-- radiocarbon&#45;&gt;geochronology -->
<g id="edge16" class="edge">
<title>radiocarbon:w&#45;&gt;geochronology:e</title>
<path fill="none" stroke="black" d="M762.92,-164.79C718.1,-171.79 715.5,-223 664,-223"/>
<polygon fill="black" stroke="black" points="772.4,-160.07 773,-168.05 771.4,-168.17 770.81,-160.19 772.4,-160.07"/>
<polyline fill="none" stroke="black" points="773.5,-164 769.51,-164.3 "/>
<ellipse fill="none" stroke="black" cx="766.32" cy="-164.54" rx="3.2" ry="3.2"/>
</g>
<!-- relativechronology -->
<g id="node15" class="node">
<title>relativechronology</title>
<g id="a_node15"><a xlink:href="../../tables/relativechronology.html" xlink:title="relativechronology" target="_top">
<polygon fill="#ffffff" stroke="transparent" points="529.5,-367 529.5,-425 672.5,-425 672.5,-367 529.5,-367"/>
<polygon fill="#f5f5f5" stroke="transparent" points="530,-403 530,-425 673,-425 673,-403 530,-403"/>
<polygon fill="none" stroke="black" points="530,-403 530,-425 673,-425 673,-403 530,-403"/>
<text text-anchor="start" x="535" y="-412.2" font-family="Helvetica,sans-Serif" font-weight="bold" font-size="11.00">relativechronology</text>
<text text-anchor="start" x="638" y="-411.2" font-family="Helvetica,sans-Serif" font-size="11.00">[table]</text>
<polygon fill="none" stroke="black" points="530,-385 530,-403 673,-403 673,-385 530,-385"/>
<text text-anchor="start" x="533" y="-391.2" font-family="Helvetica,sans-Serif" font-size="11.00">...</text>
<polygon fill="#ffffff" stroke="transparent" points="530,-367 530,-385 576,-385 576,-367 530,-367"/>
<polygon fill="none" stroke="black" points="530,-367 530,-385 576,-385 576,-367 530,-367"/>
<text text-anchor="start" x="533" y="-373.2" font-family="Helvetica,sans-Serif" font-size="11.00">&lt; 3</text>
<polygon fill="#ffffff" stroke="transparent" points="576,-367 576,-385 648,-385 648,-367 576,-367"/>
<polygon fill="none" stroke="black" points="576,-367 576,-385 648,-385 648,-367 576,-367"/>
<text text-anchor="start" x="591" y="-373.2" font-family="Helvetica,sans-Serif" font-size="11.00">4,630 rows</text>
<polygon fill="#ffffff" stroke="transparent" points="648,-367 648,-385 673,-385 673,-367 648,-367"/>
<polygon fill="none" stroke="black" points="648,-367 648,-385 673,-385 673,-367 648,-367"/>
<text text-anchor="start" x="663" y="-373.2" font-family="Helvetica,sans-Serif" font-size="11.00"> &#160;</text>
</a>
</g>
</g>
<!-- relativechronology&#45;&gt;chroncontrols -->
<g id="edge18" class="edge">
<title>relativechronology:w&#45;&gt;chroncontrols:e</title>
<path fill="none" stroke="black" d="M514.99,-397.54C484.71,-416.78 527.23,-508 477.5,-508"/>
<polygon fill="black" stroke="black" points="521.24,-395.96 529.88,-397.49 525.12,-394.98 529,-394 529,-394 529,-394 525.12,-394.98 528.12,-390.51 521.24,-395.96 521.24,-395.96"/>
<ellipse fill="none" stroke="black" cx="518.14" cy="-396.74" rx="3.2" ry="3.2"/>
</g>
<!-- relativechronology&#45;&gt;analysisunits -->
<g id="edge17" class="edge">
<title>relativechronology:w&#45;&gt;analysisunits:e</title>
<path fill="none" stroke="black" d="M514.66,-390.81C490.66,-376.95 517.28,-321.62 484,-297 465.74,-283.49 304.21,-269 281.5,-269"/>
<polygon fill="black" stroke="black" points="521.19,-392.26 528.22,-397.51 525.1,-393.13 529,-394 529,-394 529,-394 525.1,-393.13 529.78,-390.49 521.19,-392.26 521.19,-392.26"/>
<ellipse fill="none" stroke="black" cx="518.07" cy="-391.57" rx="3.2" ry="3.2"/>
</g>
<!-- specimendates -->
<g id="node16" class="node">
<title>specimendates</title>
<g id="a_node16"><a xlink:href="../../tables/specimendates.html" xlink:title="specimendates" target="_top">
<polygon fill="#ffffff" stroke="transparent" points="767,-37 767,-95 890,-95 890,-37 767,-37"/>
<polygon fill="#f5f5f5" stroke="transparent" points="767.5,-73 767.5,-95 890.5,-95 890.5,-73 767.5,-73"/>
<polygon fill="none" stroke="black" points="767.5,-73 767.5,-95 890.5,-95 890.5,-73 767.5,-73"/>
<text text-anchor="start" x="772.5" y="-82.2" font-family="Helvetica,sans-Serif" font-weight="bold" font-size="11.00">specimendates</text>
<text text-anchor="start" x="855.5" y="-81.2" font-family="Helvetica,sans-Serif" font-size="11.00">[table]</text>
<polygon fill="none" stroke="black" points="767.5,-55 767.5,-73 890.5,-73 890.5,-55 767.5,-55"/>
<text text-anchor="start" x="770.5" y="-61.2" font-family="Helvetica,sans-Serif" font-size="11.00">...</text>
<polygon fill="#ffffff" stroke="transparent" points="767.5,-37 767.5,-55 798.5,-55 798.5,-37 767.5,-37"/>
<polygon fill="none" stroke="black" points="767.5,-37 767.5,-55 798.5,-55 798.5,-37 767.5,-37"/>
<text text-anchor="start" x="770.5" y="-43.2" font-family="Helvetica,sans-Serif" font-size="11.00">&lt; 6</text>
<polygon fill="#ffffff" stroke="transparent" points="798.5,-37 798.5,-55 863.5,-55 863.5,-37 798.5,-37"/>
<polygon fill="none" stroke="black" points="798.5,-37 798.5,-55 863.5,-55 863.5,-37 798.5,-37"/>
<text text-anchor="start" x="806.5" y="-43.2" font-family="Helvetica,sans-Serif" font-size="11.00">2,662 rows</text>
<polygon fill="#ffffff" stroke="transparent" points="863.5,-37 863.5,-55 890.5,-55 890.5,-37 863.5,-37"/>
<polygon fill="none" stroke="black" points="863.5,-37 863.5,-55 890.5,-55 890.5,-37 863.5,-37"/>
<text text-anchor="start" x="871.5" y="-43.2" font-family="Helvetica,sans-Serif" font-size="11.00">1 &gt;</text>
</a>
</g>
</g>
<!-- specimendates&#45;&gt;geochronology -->
<g id="edge20" class="edge">
<title>specimendates:w&#45;&gt;geochronology:e</title>
<path fill="none" stroke="black" d="M752.03,-65.9C690.26,-83.84 742.66,-223 664,-223"/>
<polygon fill="black" stroke="black" points="758.57,-65.04 766.97,-67.57 762.53,-64.52 766.5,-64 766.5,-64 766.5,-64 762.53,-64.52 766.03,-60.43 758.57,-65.04 758.57,-65.04"/>
<ellipse fill="none" stroke="black" cx="755.39" cy="-65.46" rx="3.2" ry="3.2"/>
</g>
<!-- specimendates&#45;&gt;samples -->
<g id="edge21" class="edge">
<title>specimendates:w&#45;&gt;samples:e</title>
<path fill="none" stroke="black" d="M751.9,-63.7C650.98,-59.61 602.7,-15.49 517,-78 469.26,-112.83 525.59,-201 466.5,-201"/>
<polygon fill="black" stroke="black" points="758.5,-63.84 766.43,-67.6 762.5,-63.92 766.5,-64 766.5,-64 766.5,-64 762.5,-63.92 766.57,-60.4 758.5,-63.84 758.5,-63.84"/>
<ellipse fill="none" stroke="black" cx="755.3" cy="-63.77" rx="3.2" ry="3.2"/>
</g>
</g>
</svg>
