<?xml version="1.0" encoding="UTF-8" standalone="no"?>
<!DOCTYPE svg PUBLIC "-//W3C//DTD SVG 1.1//EN"
 "http://www.w3.org/Graphics/SVG/1.1/DTD/svg11.dtd">
<!-- Generated by graphviz version 2.43.0 (0)
 -->
<!-- Title: oneDegreeRelationshipsDiagramImplied Pages: 1 -->
<svg width="426pt" height="340pt"
 viewBox="0.00 0.00 426.00 340.00" xmlns="http://www.w3.org/2000/svg" xmlns:xlink="http://www.w3.org/1999/xlink">
<g id="graph0" class="graph" transform="scale(1 1) rotate(0) translate(4 336)">
<title>oneDegreeRelationshipsDiagramImplied</title>
<polygon fill="#ffffff" stroke="transparent" points="-4,4 -4,-336 422,-336 422,4 -4,4"/>
<text text-anchor="middle" x="71.5" y="-7.2" font-family="Helvetica,sans-Serif" font-size="11.00">Generated by SchemaSpy</text>
<!-- geochronpublications -->
<g id="node1" class="node">
<title>geochronpublications</title>
<g id="a_node1"><a xlink:href="../../tables/geochronpublications.html" xlink:title="geochronpublications" target="_top">
<polygon fill="#ffffff" stroke="transparent" points="181,-114 181,-246 410,-246 410,-114 181,-114"/>
<polygon fill="#f5f5f5" stroke="transparent" points="183.5,-222 183.5,-244 408.5,-244 408.5,-222 183.5,-222"/>
<polygon fill="none" stroke="black" points="183.5,-222 183.5,-244 408.5,-244 408.5,-222 183.5,-222"/>
<text text-anchor="start" x="188.5" y="-231.2" font-family="Helvetica,sans-Serif" font-weight="bold" font-size="11.00">geochronpublications</text>
<text text-anchor="start" x="373.5" y="-230.2" font-family="Helvetica,sans-Serif" font-size="11.00">[table]</text>
<polygon fill="none" stroke="black" points="183.5,-200 183.5,-222 334.5,-222 334.5,-200 183.5,-200"/>
<image xlink:href="../../images/primaryKeys.png" width="11px" height="12px" preserveAspectRatio="xMinYMin meet" x="188.5" y="-217"/>
<text text-anchor="start" x="203.5" y="-208.2" font-family="Helvetica,sans-Serif" font-size="11.00">geochronid</text>
<polygon fill="none" stroke="black" points="334.5,-200 334.5,-222 408.5,-222 408.5,-200 334.5,-200"/>
<text text-anchor="start" x="337.5" y="-208.2" font-family="Helvetica,sans-Serif" font-size="11.00">int4[10]</text>
<polygon fill="none" stroke="black" points="183.5,-178 183.5,-200 334.5,-200 334.5,-178 183.5,-178"/>
<image xlink:href="../../images/primaryKeys.png" width="11px" height="12px" preserveAspectRatio="xMinYMin meet" x="188.5" y="-195"/>
<text text-anchor="start" x="203.5" y="-186.2" font-family="Helvetica,sans-Serif" font-size="11.00">publicationid</text>
<polygon fill="none" stroke="black" points="334.5,-178 334.5,-200 408.5,-200 408.5,-178 334.5,-178"/>
<text text-anchor="start" x="337.5" y="-186.2" font-family="Helvetica,sans-Serif" font-size="11.00">int4[10]</text>
<polygon fill="none" stroke="black" points="183.5,-156 183.5,-178 334.5,-178 334.5,-156 183.5,-156"/>
<text text-anchor="start" x="203.5" y="-164.2" font-family="Helvetica,sans-Serif" font-size="11.00">recdatecreated</text>
<polygon fill="none" stroke="black" points="334.5,-156 334.5,-178 408.5,-178 408.5,-156 334.5,-156"/>
<text text-anchor="start" x="337.5" y="-164.2" font-family="Helvetica,sans-Serif" font-size="11.00">timestamp[22]</text>
<polygon fill="none" stroke="black" points="183.5,-134 183.5,-156 334.5,-156 334.5,-134 183.5,-134"/>
<text text-anchor="start" x="203.5" y="-142.2" font-family="Helvetica,sans-Serif" font-size="11.00">recdatemodified</text>
<polygon fill="none" stroke="black" points="334.5,-134 334.5,-156 408.5,-156 408.5,-134 334.5,-134"/>
<text text-anchor="start" x="337.5" y="-142.2" font-family="Helvetica,sans-Serif" font-size="11.00">timestamp[22]</text>
<polygon fill="#ffffff" stroke="transparent" points="183.5,-116 183.5,-134 236.5,-134 236.5,-116 183.5,-116"/>
<polygon fill="none" stroke="black" points="183.5,-116 183.5,-134 236.5,-134 236.5,-116 183.5,-116"/>
<text text-anchor="start" x="186.5" y="-122.2" font-family="Helvetica,sans-Serif" font-size="11.00">&lt; 2</text>
<polygon fill="#ffffff" stroke="transparent" points="236.5,-116 236.5,-134 334.5,-134 334.5,-116 236.5,-116"/>
<polygon fill="none" stroke="black" points="236.5,-116 236.5,-134 334.5,-134 334.5,-116 236.5,-116"/>
<text text-anchor="start" x="271.5" y="-122.2" font-family="Helvetica,sans-Serif" font-size="11.00">36,183 rows</text>
<polygon fill="#ffffff" stroke="transparent" points="334.5,-116 334.5,-134 408.5,-134 408.5,-116 334.5,-116"/>
<polygon fill="none" stroke="black" points="334.5,-116 334.5,-134 408.5,-134 408.5,-116 334.5,-116"/>
<text text-anchor="start" x="389.5" y="-122.2" font-family="Helvetica,sans-Serif" font-size="11.00">0 &gt;</text>
<polygon fill="none" stroke="black" stroke-width="2" points="182,-115 182,-245 409,-245 409,-115 182,-115"/>
</a>
</g>
</g>
<!-- geochronology -->
<g id="node2" class="node">
<title>geochronology</title>
<g id="a_node2"><a xlink:href="../../tables/geochronology.html" xlink:title="geochronology" target="_top">
<polygon fill="#ffffff" stroke="transparent" points="8,-160 8,-328 132,-328 132,-160 8,-160"/>
<polygon fill="#f5f5f5" stroke="transparent" points="8,-306 8,-328 132,-328 132,-306 8,-306"/>
<polygon fill="none" stroke="black" points="8,-306 8,-328 132,-328 132,-306 8,-306"/>
<text text-anchor="start" x="13" y="-315.2" font-family="Helvetica,sans-Serif" font-weight="bold" font-size="11.00">geochronology</text>
<text text-anchor="start" x="97" y="-314.2" font-family="Helvetica,sans-Serif" font-size="11.00">[table]</text>
<polygon fill="none" stroke="black" points="8,-284 8,-306 132,-306 132,-284 8,-284"/>
<image xlink:href="../../images/primaryKeys.png" width="11px" height="12px" preserveAspectRatio="xMinYMin meet" x="13" y="-301"/>
<text text-anchor="start" x="30" y="-292.2" font-family="Helvetica,sans-Serif" font-size="11.00">geochronid</text>
<polygon fill="#ffffff" stroke="transparent" points="8,-262 8,-284 132,-284 132,-262 8,-262"/>
<polygon fill="none" stroke="black" points="8,-262 8,-284 132,-284 132,-262 8,-262"/>
<image xlink:href="../../images/foreignKeys.png" width="11px" height="12px" preserveAspectRatio="xMinYMin meet" x="13" y="-279"/>
<text text-anchor="start" x="30" y="-270.2" font-family="Helvetica,sans-Serif" font-size="11.00">sampleid</text>
<polygon fill="none" stroke="black" points="8,-240 8,-262 132,-262 132,-240 8,-240"/>
<image xlink:href="../../images/foreignKeys.png" width="11px" height="12px" preserveAspectRatio="xMinYMin meet" x="13" y="-257"/>
<text text-anchor="start" x="30" y="-248.2" font-family="Helvetica,sans-Serif" font-size="11.00">geochrontypeid</text>
<polygon fill="none" stroke="black" points="8,-218 8,-240 132,-240 132,-218 8,-218"/>
<image xlink:href="../../images/foreignKeys.png" width="11px" height="12px" preserveAspectRatio="xMinYMin meet" x="13" y="-235"/>
<text text-anchor="start" x="30" y="-226.2" font-family="Helvetica,sans-Serif" font-size="11.00">agetypeid</text>
<polygon fill="#ffffff" stroke="transparent" points="8,-196 8,-218 132,-218 132,-196 8,-196"/>
<polygon fill="none" stroke="black" points="8,-196 8,-218 132,-218 132,-196 8,-196"/>
<text text-anchor="start" x="30" y="-204.2" font-family="Helvetica,sans-Serif" font-size="11.00">age</text>
<polygon fill="none" stroke="black" points="8,-178 8,-196 132,-196 132,-178 8,-178"/>
<text text-anchor="start" x="11" y="-184.2" font-family="Helvetica,sans-Serif" font-size="11.00">...</text>
<polygon fill="#ffffff" stroke="transparent" points="8,-160 8,-178 37,-178 37,-160 8,-160"/>
<polygon fill="none" stroke="black" points="8,-160 8,-178 37,-178 37,-160 8,-160"/>
<text text-anchor="start" x="11" y="-166.2" font-family="Helvetica,sans-Serif" font-size="11.00">&lt; 3</text>
<polygon fill="#ffffff" stroke="transparent" points="37,-160 37,-178 106,-178 106,-160 37,-160"/>
<polygon fill="none" stroke="black" points="37,-160 37,-178 106,-178 106,-160 37,-160"/>
<text text-anchor="start" x="43" y="-166.2" font-family="Helvetica,sans-Serif" font-size="11.00">39,608 rows</text>
<polygon fill="#ffffff" stroke="transparent" points="106,-160 106,-178 132,-178 132,-160 106,-160"/>
<polygon fill="none" stroke="black" points="106,-160 106,-178 132,-178 132,-160 106,-160"/>
<text text-anchor="start" x="113" y="-166.2" font-family="Helvetica,sans-Serif" font-size="11.00">3 &gt;</text>
</a>
</g>
</g>
<!-- geochronpublications&#45;&gt;geochronology -->
<g id="edge1" class="edge">
<title>geochronpublications:w&#45;&gt;geochronology:e</title>
<path fill="none" stroke="black" d="M168.55,-215.52C148.03,-232.96 170.24,-295 133,-295"/>
<polygon fill="black" stroke="black" points="174.89,-213.46 183.61,-214.43 178.69,-212.23 182.5,-211 182.5,-211 182.5,-211 178.69,-212.23 181.39,-207.57 174.89,-213.46 174.89,-213.46"/>
<ellipse fill="none" stroke="black" cx="171.84" cy="-214.45" rx="3.2" ry="3.2"/>
</g>
<!-- publications -->
<g id="node3" class="node">
<title>publications</title>
<g id="a_node3"><a xlink:href="../../tables/publications.html" xlink:title="publications" target="_top">
<polygon fill="#ffffff" stroke="transparent" points="8.5,-37 8.5,-139 131.5,-139 131.5,-37 8.5,-37"/>
<polygon fill="#f5f5f5" stroke="transparent" points="9,-117 9,-139 132,-139 132,-117 9,-117"/>
<polygon fill="none" stroke="black" points="9,-117 9,-139 132,-139 132,-117 9,-117"/>
<text text-anchor="start" x="14" y="-126.2" font-family="Helvetica,sans-Serif" font-weight="bold" font-size="11.00">publications</text>
<text text-anchor="start" x="97" y="-125.2" font-family="Helvetica,sans-Serif" font-size="11.00">[table]</text>
<polygon fill="none" stroke="black" points="9,-95 9,-117 132,-117 132,-95 9,-95"/>
<image xlink:href="../../images/primaryKeys.png" width="11px" height="12px" preserveAspectRatio="xMinYMin meet" x="14" y="-112"/>
<text text-anchor="start" x="29" y="-103.2" font-family="Helvetica,sans-Serif" font-size="11.00">publicationid</text>
<polygon fill="none" stroke="black" points="9,-73 9,-95 132,-95 132,-73 9,-73"/>
<image xlink:href="../../images/foreignKeys.png" width="11px" height="12px" preserveAspectRatio="xMinYMin meet" x="14" y="-90"/>
<text text-anchor="start" x="29" y="-81.2" font-family="Helvetica,sans-Serif" font-size="11.00">pubtypeid</text>
<polygon fill="none" stroke="black" points="9,-55 9,-73 132,-73 132,-55 9,-55"/>
<text text-anchor="start" x="12" y="-61.2" font-family="Helvetica,sans-Serif" font-size="11.00">...</text>
<polygon fill="#ffffff" stroke="transparent" points="9,-37 9,-55 34,-55 34,-37 9,-37"/>
<polygon fill="none" stroke="black" points="9,-37 9,-55 34,-55 34,-37 9,-37"/>
<text text-anchor="start" x="12" y="-43.2" font-family="Helvetica,sans-Serif" font-size="11.00">&lt; 1</text>
<polygon fill="#ffffff" stroke="transparent" points="34,-37 34,-55 102,-55 102,-37 34,-37"/>
<polygon fill="none" stroke="black" points="34,-37 34,-55 102,-55 102,-37 34,-37"/>
<text text-anchor="start" x="39" y="-43.2" font-family="Helvetica,sans-Serif" font-size="11.00">13,466 rows</text>
<polygon fill="#ffffff" stroke="transparent" points="102,-37 102,-55 132,-55 132,-37 102,-37"/>
<polygon fill="none" stroke="black" points="102,-37 102,-55 132,-55 132,-37 102,-37"/>
<text text-anchor="start" x="107" y="-43.2" font-family="Helvetica,sans-Serif" font-size="11.00">12 &gt;</text>
</a>
</g>
</g>
<!-- geochronpublications&#45;&gt;publications -->
<g id="edge2" class="edge">
<title>geochronpublications:w&#45;&gt;publications:e</title>
<path fill="none" stroke="black" d="M168.65,-184.54C148.22,-167.3 169.91,-106 133,-106"/>
<polygon fill="black" stroke="black" points="174.89,-186.55 181.4,-192.43 178.69,-187.77 182.5,-189 182.5,-189 182.5,-189 178.69,-187.77 183.6,-185.57 174.89,-186.55 174.89,-186.55"/>
<ellipse fill="none" stroke="black" cx="171.84" cy="-185.57" rx="3.2" ry="3.2"/>
</g>
</g>
</svg>
