<?xml version="1.0" encoding="UTF-8" standalone="no"?>
<!DOCTYPE svg PUBLIC "-//W3C//DTD SVG 1.1//EN"
 "http://www.w3.org/Graphics/SVG/1.1/DTD/svg11.dtd">
<!-- Generated by graphviz version 2.43.0 (0)
 -->
<!-- Title: twoDegreesRelationshipsDiagram Pages: 1 -->
<svg width="603pt" height="371pt"
 viewBox="0.00 0.00 603.00 371.00" xmlns="http://www.w3.org/2000/svg" xmlns:xlink="http://www.w3.org/1999/xlink">
<g id="graph0" class="graph" transform="scale(1 1) rotate(0) translate(4 367)">
<title>twoDegreesRelationshipsDiagram</title>
<polygon fill="#ffffff" stroke="transparent" points="-4,4 -4,-367 599,-367 599,4 -4,4"/>
<text text-anchor="middle" x="71.5" y="-7.2" font-family="Helvetica,sans-Serif" font-size="11.00">Generated by SchemaSpy</text>
<!-- geochroncontrols -->
<g id="node1" class="node">
<title>geochroncontrols</title>
<g id="a_node1"><a xlink:href="../../tables/geochroncontrols.html" xlink:title="geochroncontrols" target="_top">
<polygon fill="#ffffff" stroke="transparent" points="438.5,-143 438.5,-201 576.5,-201 576.5,-143 438.5,-143"/>
<polygon fill="#f5f5f5" stroke="transparent" points="438.5,-179 438.5,-201 576.5,-201 576.5,-179 438.5,-179"/>
<polygon fill="none" stroke="black" points="438.5,-179 438.5,-201 576.5,-201 576.5,-179 438.5,-179"/>
<text text-anchor="start" x="443.5" y="-188.2" font-family="Helvetica,sans-Serif" font-weight="bold" font-size="11.00">geochroncontrols</text>
<text text-anchor="start" x="541.5" y="-187.2" font-family="Helvetica,sans-Serif" font-size="11.00">[table]</text>
<polygon fill="none" stroke="black" points="438.5,-161 438.5,-179 576.5,-179 576.5,-161 438.5,-161"/>
<text text-anchor="start" x="441.5" y="-167.2" font-family="Helvetica,sans-Serif" font-size="11.00">...</text>
<polygon fill="#ffffff" stroke="transparent" points="438.5,-143 438.5,-161 478.5,-161 478.5,-143 438.5,-143"/>
<polygon fill="none" stroke="black" points="438.5,-143 438.5,-161 478.5,-161 478.5,-143 438.5,-143"/>
<text text-anchor="start" x="441.5" y="-149.2" font-family="Helvetica,sans-Serif" font-size="11.00">&lt; 2</text>
<polygon fill="#ffffff" stroke="transparent" points="478.5,-143 478.5,-161 553.5,-161 553.5,-143 478.5,-143"/>
<polygon fill="none" stroke="black" points="478.5,-143 478.5,-161 553.5,-161 553.5,-143 478.5,-143"/>
<text text-anchor="start" x="490.5" y="-149.2" font-family="Helvetica,sans-Serif" font-size="11.00">43,605 rows</text>
<polygon fill="#ffffff" stroke="transparent" points="553.5,-143 553.5,-161 576.5,-161 576.5,-143 553.5,-143"/>
<polygon fill="none" stroke="black" points="553.5,-143 553.5,-161 576.5,-161 576.5,-143 553.5,-143"/>
<text text-anchor="start" x="566.5" y="-149.2" font-family="Helvetica,sans-Serif" font-size="11.00"> &#160;</text>
</a>
</g>
</g>
<!-- geochronology -->
<g id="node2" class="node">
<title>geochronology</title>
<g id="a_node2"><a xlink:href="../../tables/geochronology.html" xlink:title="geochronology" target="_top">
<polygon fill="#ffffff" stroke="transparent" points="255,-114 255,-282 379,-282 379,-114 255,-114"/>
<polygon fill="#f5f5f5" stroke="transparent" points="255,-260 255,-282 379,-282 379,-260 255,-260"/>
<polygon fill="none" stroke="black" points="255,-260 255,-282 379,-282 379,-260 255,-260"/>
<text text-anchor="start" x="260" y="-269.2" font-family="Helvetica,sans-Serif" font-weight="bold" font-size="11.00">geochronology</text>
<text text-anchor="start" x="344" y="-268.2" font-family="Helvetica,sans-Serif" font-size="11.00">[table]</text>
<polygon fill="none" stroke="black" points="255,-238 255,-260 379,-260 379,-238 255,-238"/>
<image xlink:href="../../images/primaryKeys.png" width="11px" height="12px" preserveAspectRatio="xMinYMin meet" x="260" y="-255"/>
<text text-anchor="start" x="277" y="-246.2" font-family="Helvetica,sans-Serif" font-size="11.00">geochronid</text>
<polygon fill="#ffffff" stroke="transparent" points="255,-216 255,-238 379,-238 379,-216 255,-216"/>
<polygon fill="none" stroke="black" points="255,-216 255,-238 379,-238 379,-216 255,-216"/>
<image xlink:href="../../images/foreignKeys.png" width="11px" height="12px" preserveAspectRatio="xMinYMin meet" x="260" y="-233"/>
<text text-anchor="start" x="277" y="-224.2" font-family="Helvetica,sans-Serif" font-size="11.00">sampleid</text>
<polygon fill="none" stroke="black" points="255,-194 255,-216 379,-216 379,-194 255,-194"/>
<image xlink:href="../../images/foreignKeys.png" width="11px" height="12px" preserveAspectRatio="xMinYMin meet" x="260" y="-211"/>
<text text-anchor="start" x="277" y="-202.2" font-family="Helvetica,sans-Serif" font-size="11.00">geochrontypeid</text>
<polygon fill="none" stroke="black" points="255,-172 255,-194 379,-194 379,-172 255,-172"/>
<image xlink:href="../../images/foreignKeys.png" width="11px" height="12px" preserveAspectRatio="xMinYMin meet" x="260" y="-189"/>
<text text-anchor="start" x="277" y="-180.2" font-family="Helvetica,sans-Serif" font-size="11.00">agetypeid</text>
<polygon fill="#ffffff" stroke="transparent" points="255,-150 255,-172 379,-172 379,-150 255,-150"/>
<polygon fill="none" stroke="black" points="255,-150 255,-172 379,-172 379,-150 255,-150"/>
<text text-anchor="start" x="277" y="-158.2" font-family="Helvetica,sans-Serif" font-size="11.00">age</text>
<polygon fill="none" stroke="black" points="255,-132 255,-150 379,-150 379,-132 255,-132"/>
<text text-anchor="start" x="258" y="-138.2" font-family="Helvetica,sans-Serif" font-size="11.00">...</text>
<polygon fill="#ffffff" stroke="transparent" points="255,-114 255,-132 284,-132 284,-114 255,-114"/>
<polygon fill="none" stroke="black" points="255,-114 255,-132 284,-132 284,-114 255,-114"/>
<text text-anchor="start" x="258" y="-120.2" font-family="Helvetica,sans-Serif" font-size="11.00">&lt; 3</text>
<polygon fill="#ffffff" stroke="transparent" points="284,-114 284,-132 353,-132 353,-114 284,-114"/>
<polygon fill="none" stroke="black" points="284,-114 284,-132 353,-132 353,-114 284,-114"/>
<text text-anchor="start" x="290" y="-120.2" font-family="Helvetica,sans-Serif" font-size="11.00">41,130 rows</text>
<polygon fill="#ffffff" stroke="transparent" points="353,-114 353,-132 379,-132 379,-114 353,-114"/>
<polygon fill="none" stroke="black" points="353,-114 353,-132 379,-132 379,-114 353,-114"/>
<text text-anchor="start" x="360" y="-120.2" font-family="Helvetica,sans-Serif" font-size="11.00">4 &gt;</text>
</a>
</g>
</g>
<!-- geochroncontrols&#45;&gt;geochronology -->
<g id="edge1" class="edge">
<title>geochroncontrols:w&#45;&gt;geochronology:e</title>
<path fill="none" stroke="black" d="M423.4,-174.03C400.74,-190.12 417.49,-249 380,-249"/>
<polygon fill="black" stroke="black" points="429.81,-172.2 438.49,-173.46 433.65,-171.1 437.5,-170 437.5,-170 437.5,-170 433.65,-171.1 436.51,-166.54 429.81,-172.2 429.81,-172.2"/>
<ellipse fill="none" stroke="black" cx="426.73" cy="-173.07" rx="3.2" ry="3.2"/>
</g>
<!-- agetypes -->
<g id="node3" class="node">
<title>agetypes</title>
<g id="a_node3"><a xlink:href="../../tables/agetypes.html" xlink:title="agetypes" target="_top">
<polygon fill="#ffffff" stroke="transparent" points="61,-37 61,-95 153,-95 153,-37 61,-37"/>
<polygon fill="#f5f5f5" stroke="transparent" points="61,-73 61,-95 153,-95 153,-73 61,-73"/>
<polygon fill="none" stroke="black" points="61,-73 61,-95 153,-95 153,-73 61,-73"/>
<text text-anchor="start" x="66" y="-82.2" font-family="Helvetica,sans-Serif" font-weight="bold" font-size="11.00">agetypes</text>
<text text-anchor="start" x="118" y="-81.2" font-family="Helvetica,sans-Serif" font-size="11.00">[table]</text>
<polygon fill="none" stroke="black" points="61,-55 61,-73 153,-73 153,-55 61,-55"/>
<text text-anchor="start" x="64" y="-61.2" font-family="Helvetica,sans-Serif" font-size="11.00">...</text>
<polygon fill="#ffffff" stroke="transparent" points="61,-37 61,-55 83,-55 83,-37 61,-37"/>
<polygon fill="none" stroke="black" points="61,-37 61,-55 83,-55 83,-37 61,-37"/>
<text text-anchor="start" x="64" y="-43.2" font-family="Helvetica,sans-Serif" font-size="11.00"> &#160;</text>
<polygon fill="#ffffff" stroke="transparent" points="83,-37 83,-55 126,-55 126,-37 83,-37"/>
<polygon fill="none" stroke="black" points="83,-37 83,-55 126,-55 126,-37 83,-37"/>
<text text-anchor="start" x="90" y="-43.2" font-family="Helvetica,sans-Serif" font-size="11.00">5 rows</text>
<polygon fill="#ffffff" stroke="transparent" points="126,-37 126,-55 153,-55 153,-37 126,-37"/>
<polygon fill="none" stroke="black" points="126,-37 126,-55 153,-55 153,-37 126,-37"/>
<text text-anchor="start" x="134" y="-43.2" font-family="Helvetica,sans-Serif" font-size="11.00">4 &gt;</text>
</a>
</g>
</g>
<!-- geochronology&#45;&gt;agetypes -->
<g id="edge2" class="edge">
<title>geochronology:w&#45;&gt;agetypes:e</title>
<path fill="none" stroke="black" d="M239.97,-179.69C221.53,-168.23 235.74,-129.66 214,-105 192.64,-80.77 186.3,-64 154,-64"/>
<polygon fill="black" stroke="black" points="246.21,-181.16 253.17,-186.5 250.11,-182.08 254,-183 254,-183 254,-183 250.11,-182.08 254.83,-179.5 246.21,-181.16 246.21,-181.16"/>
<ellipse fill="none" stroke="black" cx="243.1" cy="-180.43" rx="3.2" ry="3.2"/>
</g>
<!-- geochrontypes -->
<g id="node4" class="node">
<title>geochrontypes</title>
<g id="a_node4"><a xlink:href="../../tables/geochrontypes.html" xlink:title="geochrontypes" target="_top">
<polygon fill="#ffffff" stroke="transparent" points="8,-116 8,-248 206,-248 206,-116 8,-116"/>
<polygon fill="#f5f5f5" stroke="transparent" points="10,-224 10,-246 204,-246 204,-224 10,-224"/>
<polygon fill="none" stroke="black" points="10,-224 10,-246 204,-246 204,-224 10,-224"/>
<text text-anchor="start" x="15" y="-233.2" font-family="Helvetica,sans-Serif" font-weight="bold" font-size="11.00">geochrontypes</text>
<text text-anchor="start" x="169" y="-232.2" font-family="Helvetica,sans-Serif" font-size="11.00">[table]</text>
<polygon fill="none" stroke="black" points="10,-202 10,-224 130,-224 130,-202 10,-202"/>
<image xlink:href="../../images/primaryKeys.png" width="11px" height="12px" preserveAspectRatio="xMinYMin meet" x="15" y="-219"/>
<text text-anchor="start" x="30" y="-210.2" font-family="Helvetica,sans-Serif" font-size="11.00">geochrontypeid</text>
<polygon fill="none" stroke="black" points="130,-202 130,-224 204,-224 204,-202 130,-202"/>
<text text-anchor="start" x="133" y="-210.2" font-family="Helvetica,sans-Serif" font-size="11.00">serial[10]</text>
<polygon fill="none" stroke="black" points="10,-180 10,-202 130,-202 130,-180 10,-180"/>
<text text-anchor="start" x="30" y="-188.2" font-family="Helvetica,sans-Serif" font-size="11.00">geochrontype</text>
<polygon fill="none" stroke="black" points="130,-180 130,-202 204,-202 204,-180 130,-180"/>
<text text-anchor="start" x="133" y="-188.2" font-family="Helvetica,sans-Serif" font-size="11.00">varchar[64]</text>
<polygon fill="none" stroke="black" points="10,-158 10,-180 130,-180 130,-158 10,-158"/>
<text text-anchor="start" x="30" y="-166.2" font-family="Helvetica,sans-Serif" font-size="11.00">recdatecreated</text>
<polygon fill="none" stroke="black" points="130,-158 130,-180 204,-180 204,-158 130,-158"/>
<text text-anchor="start" x="133" y="-166.2" font-family="Helvetica,sans-Serif" font-size="11.00">timestamp[22]</text>
<polygon fill="none" stroke="black" points="10,-136 10,-158 130,-158 130,-136 10,-136"/>
<text text-anchor="start" x="30" y="-144.2" font-family="Helvetica,sans-Serif" font-size="11.00">recdatemodified</text>
<polygon fill="none" stroke="black" points="130,-136 130,-158 204,-158 204,-136 130,-136"/>
<text text-anchor="start" x="133" y="-144.2" font-family="Helvetica,sans-Serif" font-size="11.00">timestamp[22]</text>
<polygon fill="#ffffff" stroke="transparent" points="10,-118 10,-136 58,-136 58,-118 10,-118"/>
<polygon fill="none" stroke="black" points="10,-118 10,-136 58,-136 58,-118 10,-118"/>
<text text-anchor="start" x="13" y="-124.2" font-family="Helvetica,sans-Serif" font-size="11.00">&lt; 0</text>
<polygon fill="#ffffff" stroke="transparent" points="58,-118 58,-136 130,-136 130,-118 58,-118"/>
<polygon fill="none" stroke="black" points="58,-118 58,-136 130,-136 130,-118 58,-118"/>
<text text-anchor="start" x="88" y="-124.2" font-family="Helvetica,sans-Serif" font-size="11.00">18 rows</text>
<polygon fill="#ffffff" stroke="transparent" points="130,-118 130,-136 204,-136 204,-118 130,-118"/>
<polygon fill="none" stroke="black" points="130,-118 130,-136 204,-136 204,-118 130,-118"/>
<text text-anchor="start" x="185" y="-124.2" font-family="Helvetica,sans-Serif" font-size="11.00">1 &gt;</text>
<polygon fill="none" stroke="black" stroke-width="2" points="9,-117 9,-247 205,-247 205,-117 9,-117"/>
</a>
</g>
</g>
<!-- geochronology&#45;&gt;geochrontypes -->
<g id="edge3" class="edge">
<title>geochronology:w&#45;&gt;geochrontypes:e</title>
<path fill="none" stroke="black" d="M239.41,-206.39C228.13,-208.69 221.2,-213 205,-213"/>
<polygon fill="black" stroke="black" points="246.04,-205.76 254.34,-208.58 250.02,-205.38 254,-205 254,-205 254,-205 250.02,-205.38 253.66,-201.42 246.04,-205.76 246.04,-205.76"/>
<ellipse fill="none" stroke="black" cx="242.85" cy="-206.07" rx="3.2" ry="3.2"/>
</g>
<!-- samples -->
<g id="node5" class="node">
<title>samples</title>
<g id="a_node5"><a xlink:href="../../tables/samples.html" xlink:title="samples" target="_top">
<polygon fill="#ffffff" stroke="transparent" points="49,-283 49,-341 165,-341 165,-283 49,-283"/>
<polygon fill="#f5f5f5" stroke="transparent" points="49,-319 49,-341 165,-341 165,-319 49,-319"/>
<polygon fill="none" stroke="black" points="49,-319 49,-341 165,-341 165,-319 49,-319"/>
<text text-anchor="start" x="54" y="-328.2" font-family="Helvetica,sans-Serif" font-weight="bold" font-size="11.00">samples</text>
<text text-anchor="start" x="130" y="-327.2" font-family="Helvetica,sans-Serif" font-size="11.00">[table]</text>
<polygon fill="none" stroke="black" points="49,-301 49,-319 165,-319 165,-301 49,-301"/>
<text text-anchor="start" x="52" y="-307.2" font-family="Helvetica,sans-Serif" font-size="11.00">...</text>
<polygon fill="#ffffff" stroke="transparent" points="49,-283 49,-301 71,-301 71,-283 49,-283"/>
<polygon fill="none" stroke="black" points="49,-283 49,-301 71,-301 71,-283 49,-283"/>
<text text-anchor="start" x="52" y="-289.2" font-family="Helvetica,sans-Serif" font-size="11.00">&lt; 3</text>
<polygon fill="#ffffff" stroke="transparent" points="71,-283 71,-301 143,-301 143,-283 71,-283"/>
<polygon fill="none" stroke="black" points="71,-283 71,-301 143,-301 143,-283 71,-283"/>
<text text-anchor="start" x="74" y="-289.2" font-family="Helvetica,sans-Serif" font-size="11.00">541,654 rows</text>
<polygon fill="#ffffff" stroke="transparent" points="143,-283 143,-301 165,-301 165,-283 143,-283"/>
<polygon fill="none" stroke="black" points="143,-283 143,-301 165,-301 165,-283 143,-283"/>
<text text-anchor="start" x="146" y="-289.2" font-family="Helvetica,sans-Serif" font-size="11.00">7 &gt;</text>
</a>
</g>
</g>
<!-- geochronology&#45;&gt;samples -->
<g id="edge4" class="edge">
<title>geochronology:w&#45;&gt;samples:e</title>
<path fill="none" stroke="black" d="M239.73,-229.39C203.45,-243 214.3,-310 166,-310"/>
<polygon fill="black" stroke="black" points="246.11,-228.32 254.6,-230.55 250.06,-227.66 254,-227 254,-227 254,-227 250.06,-227.66 253.4,-223.45 246.11,-228.32 246.11,-228.32"/>
<ellipse fill="none" stroke="black" cx="242.95" cy="-228.85" rx="3.2" ry="3.2"/>
</g>
<!-- geochronpublications -->
<g id="node6" class="node">
<title>geochronpublications</title>
<g id="a_node6"><a xlink:href="../../tables/geochronpublications.html" xlink:title="geochronpublications" target="_top">
<polygon fill="#ffffff" stroke="transparent" points="428,-64 428,-122 587,-122 587,-64 428,-64"/>
<polygon fill="#f5f5f5" stroke="transparent" points="428.5,-100 428.5,-122 587.5,-122 587.5,-100 428.5,-100"/>
<polygon fill="none" stroke="black" points="428.5,-100 428.5,-122 587.5,-122 587.5,-100 428.5,-100"/>
<text text-anchor="start" x="433.5" y="-109.2" font-family="Helvetica,sans-Serif" font-weight="bold" font-size="11.00">geochronpublications</text>
<text text-anchor="start" x="552.5" y="-108.2" font-family="Helvetica,sans-Serif" font-size="11.00">[table]</text>
<polygon fill="none" stroke="black" points="428.5,-82 428.5,-100 587.5,-100 587.5,-82 428.5,-82"/>
<text text-anchor="start" x="431.5" y="-88.2" font-family="Helvetica,sans-Serif" font-size="11.00">...</text>
<polygon fill="#ffffff" stroke="transparent" points="428.5,-64 428.5,-82 479.5,-82 479.5,-64 428.5,-64"/>
<polygon fill="none" stroke="black" points="428.5,-64 428.5,-82 479.5,-82 479.5,-64 428.5,-64"/>
<text text-anchor="start" x="431.5" y="-70.2" font-family="Helvetica,sans-Serif" font-size="11.00">&lt; 2</text>
<polygon fill="#ffffff" stroke="transparent" points="479.5,-64 479.5,-82 559.5,-82 559.5,-64 479.5,-64"/>
<polygon fill="none" stroke="black" points="479.5,-64 479.5,-82 559.5,-82 559.5,-64 479.5,-64"/>
<text text-anchor="start" x="496.5" y="-70.2" font-family="Helvetica,sans-Serif" font-size="11.00">37,711 rows</text>
<polygon fill="#ffffff" stroke="transparent" points="559.5,-64 559.5,-82 587.5,-82 587.5,-64 559.5,-64"/>
<polygon fill="none" stroke="black" points="559.5,-64 559.5,-82 587.5,-82 587.5,-64 559.5,-64"/>
<text text-anchor="start" x="577.5" y="-70.2" font-family="Helvetica,sans-Serif" font-size="11.00"> &#160;</text>
</a>
</g>
</g>
<!-- geochronpublications&#45;&gt;geochronology -->
<g id="edge5" class="edge">
<title>geochronpublications:w&#45;&gt;geochronology:e</title>
<path fill="none" stroke="black" d="M413.31,-93.74C368.61,-114.72 447.6,-249 380,-249"/>
<polygon fill="black" stroke="black" points="419.65,-92.52 428.18,-94.53 423.57,-91.76 427.5,-91 427.5,-91 427.5,-91 423.57,-91.76 426.82,-87.47 419.65,-92.52 419.65,-92.52"/>
<ellipse fill="none" stroke="black" cx="416.5" cy="-93.12" rx="3.2" ry="3.2"/>
</g>
<!-- radiocarbon -->
<g id="node7" class="node">
<title>radiocarbon</title>
<g id="a_node7"><a xlink:href="../../tables/radiocarbon.html" xlink:title="radiocarbon" target="_top">
<polygon fill="#ffffff" stroke="transparent" points="453.5,-222 453.5,-280 561.5,-280 561.5,-222 453.5,-222"/>
<polygon fill="#f5f5f5" stroke="transparent" points="453.5,-258 453.5,-280 561.5,-280 561.5,-258 453.5,-258"/>
<polygon fill="none" stroke="black" points="453.5,-258 453.5,-280 561.5,-280 561.5,-258 453.5,-258"/>
<text text-anchor="start" x="458.5" y="-267.2" font-family="Helvetica,sans-Serif" font-weight="bold" font-size="11.00">radiocarbon</text>
<text text-anchor="start" x="526.5" y="-266.2" font-family="Helvetica,sans-Serif" font-size="11.00">[table]</text>
<polygon fill="none" stroke="black" points="453.5,-240 453.5,-258 561.5,-258 561.5,-240 453.5,-240"/>
<text text-anchor="start" x="456.5" y="-246.2" font-family="Helvetica,sans-Serif" font-size="11.00">...</text>
<polygon fill="#ffffff" stroke="transparent" points="453.5,-222 453.5,-240 478.5,-240 478.5,-222 453.5,-222"/>
<polygon fill="none" stroke="black" points="453.5,-222 453.5,-240 478.5,-240 478.5,-222 453.5,-222"/>
<text text-anchor="start" x="456.5" y="-228.2" font-family="Helvetica,sans-Serif" font-size="11.00">&lt; 2</text>
<polygon fill="#ffffff" stroke="transparent" points="478.5,-222 478.5,-240 546.5,-240 546.5,-222 478.5,-222"/>
<polygon fill="none" stroke="black" points="478.5,-222 478.5,-240 546.5,-240 546.5,-222 478.5,-222"/>
<text text-anchor="start" x="483.5" y="-228.2" font-family="Helvetica,sans-Serif" font-size="11.00">32,234 rows</text>
<polygon fill="#ffffff" stroke="transparent" points="546.5,-222 546.5,-240 561.5,-240 561.5,-222 546.5,-222"/>
<polygon fill="none" stroke="black" points="546.5,-222 546.5,-240 561.5,-240 561.5,-222 546.5,-222"/>
<text text-anchor="start" x="551.5" y="-228.2" font-family="Helvetica,sans-Serif" font-size="11.00"> &#160;</text>
</a>
</g>
</g>
<!-- radiocarbon&#45;&gt;geochronology -->
<g id="edge6" class="edge">
<title>radiocarbon:w&#45;&gt;geochronology:e</title>
<path fill="none" stroke="black" d="M442.09,-249C418.06,-249 408.45,-249 380,-249"/>
<polygon fill="black" stroke="black" points="451.7,-245 451.7,-253 450.1,-253 450.1,-245 451.7,-245"/>
<polyline fill="none" stroke="black" points="452.5,-249 448.5,-249 "/>
<ellipse fill="none" stroke="black" cx="445.3" cy="-249" rx="3.2" ry="3.2"/>
</g>
<!-- specimendates -->
<g id="node8" class="node">
<title>specimendates</title>
<g id="a_node8"><a xlink:href="../../tables/specimendates.html" xlink:title="specimendates" target="_top">
<polygon fill="#ffffff" stroke="transparent" points="446,-301 446,-359 569,-359 569,-301 446,-301"/>
<polygon fill="#f5f5f5" stroke="transparent" points="446.5,-337 446.5,-359 569.5,-359 569.5,-337 446.5,-337"/>
<polygon fill="none" stroke="black" points="446.5,-337 446.5,-359 569.5,-359 569.5,-337 446.5,-337"/>
<text text-anchor="start" x="451.5" y="-346.2" font-family="Helvetica,sans-Serif" font-weight="bold" font-size="11.00">specimendates</text>
<text text-anchor="start" x="534.5" y="-345.2" font-family="Helvetica,sans-Serif" font-size="11.00">[table]</text>
<polygon fill="none" stroke="black" points="446.5,-319 446.5,-337 569.5,-337 569.5,-319 446.5,-319"/>
<text text-anchor="start" x="449.5" y="-325.2" font-family="Helvetica,sans-Serif" font-size="11.00">...</text>
<polygon fill="#ffffff" stroke="transparent" points="446.5,-301 446.5,-319 477.5,-319 477.5,-301 446.5,-301"/>
<polygon fill="none" stroke="black" points="446.5,-301 446.5,-319 477.5,-319 477.5,-301 446.5,-301"/>
<text text-anchor="start" x="449.5" y="-307.2" font-family="Helvetica,sans-Serif" font-size="11.00">&lt; 6</text>
<polygon fill="#ffffff" stroke="transparent" points="477.5,-301 477.5,-319 542.5,-319 542.5,-301 477.5,-301"/>
<polygon fill="none" stroke="black" points="477.5,-301 477.5,-319 542.5,-319 542.5,-301 477.5,-301"/>
<text text-anchor="start" x="485.5" y="-307.2" font-family="Helvetica,sans-Serif" font-size="11.00">2,662 rows</text>
<polygon fill="#ffffff" stroke="transparent" points="542.5,-301 542.5,-319 569.5,-319 569.5,-301 542.5,-301"/>
<polygon fill="none" stroke="black" points="542.5,-301 542.5,-319 569.5,-319 569.5,-301 542.5,-301"/>
<text text-anchor="start" x="550.5" y="-307.2" font-family="Helvetica,sans-Serif" font-size="11.00">1 &gt;</text>
</a>
</g>
</g>
<!-- specimendates&#45;&gt;geochronology -->
<g id="edge7" class="edge">
<title>specimendates:w&#45;&gt;geochronology:e</title>
<path fill="none" stroke="black" d="M431.46,-324.61C405.21,-309.48 419.91,-249 380,-249"/>
<polygon fill="black" stroke="black" points="437.72,-326.12 444.65,-331.5 441.61,-327.06 445.5,-328 445.5,-328 445.5,-328 441.61,-327.06 446.35,-324.5 437.72,-326.12 437.72,-326.12"/>
<ellipse fill="none" stroke="black" cx="434.61" cy="-325.37" rx="3.2" ry="3.2"/>
</g>
<!-- specimendates&#45;&gt;samples -->
<g id="edge8" class="edge">
<title>specimendates:w&#45;&gt;samples:e</title>
<path fill="none" stroke="black" d="M430.99,-327.92C318.42,-326.59 285.5,-310 166,-310"/>
<polygon fill="black" stroke="black" points="437.5,-327.95 445.48,-331.6 441.5,-327.98 445.5,-328 445.5,-328 445.5,-328 441.5,-327.98 445.52,-324.4 437.5,-327.95 437.5,-327.95"/>
<ellipse fill="none" stroke="black" cx="434.3" cy="-327.93" rx="3.2" ry="3.2"/>
</g>
</g>
</svg>
