<?xml version="1.0" encoding="UTF-8" standalone="no"?>
<!DOCTYPE svg PUBLIC "-//W3C//DTD SVG 1.1//EN"
 "http://www.w3.org/Graphics/SVG/1.1/DTD/svg11.dtd">
<!-- Generated by graphviz version 2.43.0 (0)
 -->
<!-- Title: twoDegreesRelationshipsDiagram Pages: 1 -->
<svg width="603pt" height="369pt"
 viewBox="0.00 0.00 603.00 369.00" xmlns="http://www.w3.org/2000/svg" xmlns:xlink="http://www.w3.org/1999/xlink">
<g id="graph0" class="graph" transform="scale(1 1) rotate(0) translate(4 365)">
<title>twoDegreesRelationshipsDiagram</title>
<polygon fill="#ffffff" stroke="transparent" points="-4,4 -4,-365 599,-365 599,4 -4,4"/>
<text text-anchor="middle" x="71.5" y="-7.2" font-family="Helvetica,sans-Serif" font-size="11.00">Generated by SchemaSpy</text>
<!-- geochroncontrols -->
<g id="node1" class="node">
<title>geochroncontrols</title>
<g id="a_node1"><a xlink:href="../../tables/geochroncontrols.html" xlink:title="geochroncontrols" target="_top">
<polygon fill="#ffffff" stroke="transparent" points="438.5,-141 438.5,-199 576.5,-199 576.5,-141 438.5,-141"/>
<polygon fill="#f5f5f5" stroke="transparent" points="438.5,-177 438.5,-199 576.5,-199 576.5,-177 438.5,-177"/>
<polygon fill="none" stroke="black" points="438.5,-177 438.5,-199 576.5,-199 576.5,-177 438.5,-177"/>
<text text-anchor="start" x="443.5" y="-186.2" font-family="Helvetica,sans-Serif" font-weight="bold" font-size="11.00">geochroncontrols</text>
<text text-anchor="start" x="541.5" y="-185.2" font-family="Helvetica,sans-Serif" font-size="11.00">[table]</text>
<polygon fill="none" stroke="black" points="438.5,-159 438.5,-177 576.5,-177 576.5,-159 438.5,-159"/>
<text text-anchor="start" x="441.5" y="-165.2" font-family="Helvetica,sans-Serif" font-size="11.00">...</text>
<polygon fill="#ffffff" stroke="transparent" points="438.5,-141 438.5,-159 478.5,-159 478.5,-141 438.5,-141"/>
<polygon fill="none" stroke="black" points="438.5,-141 438.5,-159 478.5,-159 478.5,-141 438.5,-141"/>
<text text-anchor="start" x="441.5" y="-147.2" font-family="Helvetica,sans-Serif" font-size="11.00">&lt; 2</text>
<polygon fill="#ffffff" stroke="transparent" points="478.5,-141 478.5,-159 553.5,-159 553.5,-141 478.5,-141"/>
<polygon fill="none" stroke="black" points="478.5,-141 478.5,-159 553.5,-159 553.5,-141 478.5,-141"/>
<text text-anchor="start" x="490.5" y="-147.2" font-family="Helvetica,sans-Serif" font-size="11.00">42,293 rows</text>
<polygon fill="#ffffff" stroke="transparent" points="553.5,-141 553.5,-159 576.5,-159 576.5,-141 553.5,-141"/>
<polygon fill="none" stroke="black" points="553.5,-141 553.5,-159 576.5,-159 576.5,-141 553.5,-141"/>
<text text-anchor="start" x="566.5" y="-147.2" font-family="Helvetica,sans-Serif" font-size="11.00"> &#160;</text>
</a>
</g>
</g>
<!-- geochronology -->
<g id="node2" class="node">
<title>geochronology</title>
<g id="a_node2"><a xlink:href="../../tables/geochronology.html" xlink:title="geochronology" target="_top">
<polygon fill="#ffffff" stroke="transparent" points="255,-117 255,-285 379,-285 379,-117 255,-117"/>
<polygon fill="#f5f5f5" stroke="transparent" points="255,-263 255,-285 379,-285 379,-263 255,-263"/>
<polygon fill="none" stroke="black" points="255,-263 255,-285 379,-285 379,-263 255,-263"/>
<text text-anchor="start" x="260" y="-272.2" font-family="Helvetica,sans-Serif" font-weight="bold" font-size="11.00">geochronology</text>
<text text-anchor="start" x="344" y="-271.2" font-family="Helvetica,sans-Serif" font-size="11.00">[table]</text>
<polygon fill="none" stroke="black" points="255,-241 255,-263 379,-263 379,-241 255,-241"/>
<image xlink:href="../../images/primaryKeys.png" width="11px" height="12px" preserveAspectRatio="xMinYMin meet" x="260" y="-258"/>
<text text-anchor="start" x="277" y="-249.2" font-family="Helvetica,sans-Serif" font-size="11.00">geochronid</text>
<polygon fill="#ffffff" stroke="transparent" points="255,-219 255,-241 379,-241 379,-219 255,-219"/>
<polygon fill="none" stroke="black" points="255,-219 255,-241 379,-241 379,-219 255,-219"/>
<image xlink:href="../../images/foreignKeys.png" width="11px" height="12px" preserveAspectRatio="xMinYMin meet" x="260" y="-236"/>
<text text-anchor="start" x="277" y="-227.2" font-family="Helvetica,sans-Serif" font-size="11.00">sampleid</text>
<polygon fill="none" stroke="black" points="255,-197 255,-219 379,-219 379,-197 255,-197"/>
<image xlink:href="../../images/foreignKeys.png" width="11px" height="12px" preserveAspectRatio="xMinYMin meet" x="260" y="-214"/>
<text text-anchor="start" x="277" y="-205.2" font-family="Helvetica,sans-Serif" font-size="11.00">geochrontypeid</text>
<polygon fill="none" stroke="black" points="255,-175 255,-197 379,-197 379,-175 255,-175"/>
<image xlink:href="../../images/foreignKeys.png" width="11px" height="12px" preserveAspectRatio="xMinYMin meet" x="260" y="-192"/>
<text text-anchor="start" x="277" y="-183.2" font-family="Helvetica,sans-Serif" font-size="11.00">agetypeid</text>
<polygon fill="#ffffff" stroke="transparent" points="255,-153 255,-175 379,-175 379,-153 255,-153"/>
<polygon fill="none" stroke="black" points="255,-153 255,-175 379,-175 379,-153 255,-153"/>
<text text-anchor="start" x="277" y="-161.2" font-family="Helvetica,sans-Serif" font-size="11.00">age</text>
<polygon fill="none" stroke="black" points="255,-135 255,-153 379,-153 379,-135 255,-135"/>
<text text-anchor="start" x="258" y="-141.2" font-family="Helvetica,sans-Serif" font-size="11.00">...</text>
<polygon fill="#ffffff" stroke="transparent" points="255,-117 255,-135 284,-135 284,-117 255,-117"/>
<polygon fill="none" stroke="black" points="255,-117 255,-135 284,-135 284,-117 255,-117"/>
<text text-anchor="start" x="258" y="-123.2" font-family="Helvetica,sans-Serif" font-size="11.00">&lt; 3</text>
<polygon fill="#ffffff" stroke="transparent" points="284,-117 284,-135 353,-135 353,-117 284,-117"/>
<polygon fill="none" stroke="black" points="284,-117 284,-135 353,-135 353,-117 284,-117"/>
<text text-anchor="start" x="290" y="-123.2" font-family="Helvetica,sans-Serif" font-size="11.00">39,608 rows</text>
<polygon fill="#ffffff" stroke="transparent" points="353,-117 353,-135 379,-135 379,-117 353,-117"/>
<polygon fill="none" stroke="black" points="353,-117 353,-135 379,-135 379,-117 353,-117"/>
<text text-anchor="start" x="360" y="-123.2" font-family="Helvetica,sans-Serif" font-size="11.00">3 &gt;</text>
</a>
</g>
</g>
<!-- geochroncontrols&#45;&gt;geochronology -->
<g id="edge1" class="edge">
<title>geochroncontrols:w&#45;&gt;geochronology:e</title>
<path fill="none" stroke="black" d="M423.57,-171.83C399.46,-188.26 419.41,-252 380,-252"/>
<polygon fill="black" stroke="black" points="429.79,-170.12 438.45,-171.47 433.64,-169.06 437.5,-168 437.5,-168 437.5,-168 433.64,-169.06 436.55,-164.53 429.79,-170.12 429.79,-170.12"/>
<ellipse fill="none" stroke="black" cx="426.7" cy="-170.97" rx="3.2" ry="3.2"/>
</g>
<!-- agetypes -->
<g id="node3" class="node">
<title>agetypes</title>
<g id="a_node3"><a xlink:href="../../tables/agetypes.html" xlink:title="agetypes" target="_top">
<polygon fill="#ffffff" stroke="transparent" points="61,-37 61,-95 153,-95 153,-37 61,-37"/>
<polygon fill="#f5f5f5" stroke="transparent" points="61,-73 61,-95 153,-95 153,-73 61,-73"/>
<polygon fill="none" stroke="black" points="61,-73 61,-95 153,-95 153,-73 61,-73"/>
<text text-anchor="start" x="66" y="-82.2" font-family="Helvetica,sans-Serif" font-weight="bold" font-size="11.00">agetypes</text>
<text text-anchor="start" x="118" y="-81.2" font-family="Helvetica,sans-Serif" font-size="11.00">[table]</text>
<polygon fill="none" stroke="black" points="61,-55 61,-73 153,-73 153,-55 61,-55"/>
<text text-anchor="start" x="64" y="-61.2" font-family="Helvetica,sans-Serif" font-size="11.00">...</text>
<polygon fill="#ffffff" stroke="transparent" points="61,-37 61,-55 83,-55 83,-37 61,-37"/>
<polygon fill="none" stroke="black" points="61,-37 61,-55 83,-55 83,-37 61,-37"/>
<text text-anchor="start" x="64" y="-43.2" font-family="Helvetica,sans-Serif" font-size="11.00"> &#160;</text>
<polygon fill="#ffffff" stroke="transparent" points="83,-37 83,-55 126,-55 126,-37 83,-37"/>
<polygon fill="none" stroke="black" points="83,-37 83,-55 126,-55 126,-37 83,-37"/>
<text text-anchor="start" x="90" y="-43.2" font-family="Helvetica,sans-Serif" font-size="11.00">5 rows</text>
<polygon fill="#ffffff" stroke="transparent" points="126,-37 126,-55 153,-55 153,-37 126,-37"/>
<polygon fill="none" stroke="black" points="126,-37 126,-55 153,-55 153,-37 126,-37"/>
<text text-anchor="start" x="134" y="-43.2" font-family="Helvetica,sans-Serif" font-size="11.00">4 &gt;</text>
</a>
</g>
</g>
<!-- geochronology&#45;&gt;agetypes -->
<g id="edge2" class="edge">
<title>geochronology:w&#45;&gt;agetypes:e</title>
<path fill="none" stroke="black" d="M239.87,-182.72C220.69,-171.03 236.31,-130.7 214,-105 192.82,-80.61 186.3,-64 154,-64"/>
<polygon fill="black" stroke="black" points="246.21,-184.19 253.19,-189.51 250.1,-185.1 254,-186 254,-186 254,-186 250.1,-185.1 254.81,-182.49 246.21,-184.19 246.21,-184.19"/>
<ellipse fill="none" stroke="black" cx="243.09" cy="-183.47" rx="3.2" ry="3.2"/>
</g>
<!-- geochrontypes -->
<g id="node4" class="node">
<title>geochrontypes</title>
<g id="a_node4"><a xlink:href="../../tables/geochrontypes.html" xlink:title="geochrontypes" target="_top">
<polygon fill="#ffffff" stroke="transparent" points="8,-116 8,-248 206,-248 206,-116 8,-116"/>
<polygon fill="#f5f5f5" stroke="transparent" points="10,-224 10,-246 204,-246 204,-224 10,-224"/>
<polygon fill="none" stroke="black" points="10,-224 10,-246 204,-246 204,-224 10,-224"/>
<text text-anchor="start" x="15" y="-233.2" font-family="Helvetica,sans-Serif" font-weight="bold" font-size="11.00">geochrontypes</text>
<text text-anchor="start" x="169" y="-232.2" font-family="Helvetica,sans-Serif" font-size="11.00">[table]</text>
<polygon fill="none" stroke="black" points="10,-202 10,-224 130,-224 130,-202 10,-202"/>
<image xlink:href="../../images/primaryKeys.png" width="11px" height="12px" preserveAspectRatio="xMinYMin meet" x="15" y="-219"/>
<text text-anchor="start" x="30" y="-210.2" font-family="Helvetica,sans-Serif" font-size="11.00">geochrontypeid</text>
<polygon fill="none" stroke="black" points="130,-202 130,-224 204,-224 204,-202 130,-202"/>
<text text-anchor="start" x="133" y="-210.2" font-family="Helvetica,sans-Serif" font-size="11.00">serial[10]</text>
<polygon fill="none" stroke="black" points="10,-180 10,-202 130,-202 130,-180 10,-180"/>
<text text-anchor="start" x="30" y="-188.2" font-family="Helvetica,sans-Serif" font-size="11.00">geochrontype</text>
<polygon fill="none" stroke="black" points="130,-180 130,-202 204,-202 204,-180 130,-180"/>
<text text-anchor="start" x="133" y="-188.2" font-family="Helvetica,sans-Serif" font-size="11.00">varchar[64]</text>
<polygon fill="none" stroke="black" points="10,-158 10,-180 130,-180 130,-158 10,-158"/>
<text text-anchor="start" x="30" y="-166.2" font-family="Helvetica,sans-Serif" font-size="11.00">recdatecreated</text>
<polygon fill="none" stroke="black" points="130,-158 130,-180 204,-180 204,-158 130,-158"/>
<text text-anchor="start" x="133" y="-166.2" font-family="Helvetica,sans-Serif" font-size="11.00">timestamp[22]</text>
<polygon fill="none" stroke="black" points="10,-136 10,-158 130,-158 130,-136 10,-136"/>
<text text-anchor="start" x="30" y="-144.2" font-family="Helvetica,sans-Serif" font-size="11.00">recdatemodified</text>
<polygon fill="none" stroke="black" points="130,-136 130,-158 204,-158 204,-136 130,-136"/>
<text text-anchor="start" x="133" y="-144.2" font-family="Helvetica,sans-Serif" font-size="11.00">timestamp[22]</text>
<polygon fill="#ffffff" stroke="transparent" points="10,-118 10,-136 58,-136 58,-118 10,-118"/>
<polygon fill="none" stroke="black" points="10,-118 10,-136 58,-136 58,-118 10,-118"/>
<text text-anchor="start" x="13" y="-124.2" font-family="Helvetica,sans-Serif" font-size="11.00">&lt; 0</text>
<polygon fill="#ffffff" stroke="transparent" points="58,-118 58,-136 130,-136 130,-118 58,-118"/>
<polygon fill="none" stroke="black" points="58,-118 58,-136 130,-136 130,-118 58,-118"/>
<text text-anchor="start" x="88" y="-124.2" font-family="Helvetica,sans-Serif" font-size="11.00">18 rows</text>
<polygon fill="#ffffff" stroke="transparent" points="130,-118 130,-136 204,-136 204,-118 130,-118"/>
<polygon fill="none" stroke="black" points="130,-118 130,-136 204,-136 204,-118 130,-118"/>
<text text-anchor="start" x="185" y="-124.2" font-family="Helvetica,sans-Serif" font-size="11.00">1 &gt;</text>
<polygon fill="none" stroke="black" stroke-width="2" points="9,-117 9,-247 205,-247 205,-117 9,-117"/>
</a>
</g>
</g>
<!-- geochronology&#45;&gt;geochrontypes -->
<g id="edge3" class="edge">
<title>geochronology:w&#45;&gt;geochrontypes:e</title>
<path fill="none" stroke="black" d="M239.46,-208.87C228.16,-210.3 221.08,-213 205,-213"/>
<polygon fill="black" stroke="black" points="246.01,-208.48 254.22,-211.59 250.01,-208.24 254,-208 254,-208 254,-208 250.01,-208.24 253.78,-204.41 246.01,-208.48 246.01,-208.48"/>
<ellipse fill="none" stroke="black" cx="242.82" cy="-208.67" rx="3.2" ry="3.2"/>
</g>
<!-- samples -->
<g id="node5" class="node">
<title>samples</title>
<g id="a_node5"><a xlink:href="../../tables/samples.html" xlink:title="samples" target="_top">
<polygon fill="#ffffff" stroke="transparent" points="49,-283 49,-341 165,-341 165,-283 49,-283"/>
<polygon fill="#f5f5f5" stroke="transparent" points="49,-319 49,-341 165,-341 165,-319 49,-319"/>
<polygon fill="none" stroke="black" points="49,-319 49,-341 165,-341 165,-319 49,-319"/>
<text text-anchor="start" x="54" y="-328.2" font-family="Helvetica,sans-Serif" font-weight="bold" font-size="11.00">samples</text>
<text text-anchor="start" x="130" y="-327.2" font-family="Helvetica,sans-Serif" font-size="11.00">[table]</text>
<polygon fill="none" stroke="black" points="49,-301 49,-319 165,-319 165,-301 49,-301"/>
<text text-anchor="start" x="52" y="-307.2" font-family="Helvetica,sans-Serif" font-size="11.00">...</text>
<polygon fill="#ffffff" stroke="transparent" points="49,-283 49,-301 71,-301 71,-283 49,-283"/>
<polygon fill="none" stroke="black" points="49,-283 49,-301 71,-301 71,-283 49,-283"/>
<text text-anchor="start" x="52" y="-289.2" font-family="Helvetica,sans-Serif" font-size="11.00">&lt; 3</text>
<polygon fill="#ffffff" stroke="transparent" points="71,-283 71,-301 143,-301 143,-283 71,-283"/>
<polygon fill="none" stroke="black" points="71,-283 71,-301 143,-301 143,-283 71,-283"/>
<text text-anchor="start" x="74" y="-289.2" font-family="Helvetica,sans-Serif" font-size="11.00">506,105 rows</text>
<polygon fill="#ffffff" stroke="transparent" points="143,-283 143,-301 165,-301 165,-283 143,-283"/>
<polygon fill="none" stroke="black" points="143,-283 143,-301 165,-301 165,-283 143,-283"/>
<text text-anchor="start" x="146" y="-289.2" font-family="Helvetica,sans-Serif" font-size="11.00">7 &gt;</text>
</a>
</g>
</g>
<!-- geochronology&#45;&gt;samples -->
<g id="edge4" class="edge">
<title>geochronology:w&#45;&gt;samples:e</title>
<path fill="none" stroke="black" d="M239.47,-232.48C204.09,-245.99 213.28,-310 166,-310"/>
<polygon fill="black" stroke="black" points="246.11,-231.35 254.61,-233.55 250.06,-230.67 254,-230 254,-230 254,-230 250.06,-230.67 253.39,-226.45 246.11,-231.35 246.11,-231.35"/>
<ellipse fill="none" stroke="black" cx="242.96" cy="-231.89" rx="3.2" ry="3.2"/>
</g>
<!-- geochronpublications -->
<g id="node6" class="node">
<title>geochronpublications</title>
<g id="a_node6"><a xlink:href="../../tables/geochronpublications.html" xlink:title="geochronpublications" target="_top">
<polygon fill="#ffffff" stroke="transparent" points="428,-220 428,-278 587,-278 587,-220 428,-220"/>
<polygon fill="#f5f5f5" stroke="transparent" points="428.5,-256 428.5,-278 587.5,-278 587.5,-256 428.5,-256"/>
<polygon fill="none" stroke="black" points="428.5,-256 428.5,-278 587.5,-278 587.5,-256 428.5,-256"/>
<text text-anchor="start" x="433.5" y="-265.2" font-family="Helvetica,sans-Serif" font-weight="bold" font-size="11.00">geochronpublications</text>
<text text-anchor="start" x="552.5" y="-264.2" font-family="Helvetica,sans-Serif" font-size="11.00">[table]</text>
<polygon fill="none" stroke="black" points="428.5,-238 428.5,-256 587.5,-256 587.5,-238 428.5,-238"/>
<text text-anchor="start" x="431.5" y="-244.2" font-family="Helvetica,sans-Serif" font-size="11.00">...</text>
<polygon fill="#ffffff" stroke="transparent" points="428.5,-220 428.5,-238 479.5,-238 479.5,-220 428.5,-220"/>
<polygon fill="none" stroke="black" points="428.5,-220 428.5,-238 479.5,-238 479.5,-220 428.5,-220"/>
<text text-anchor="start" x="431.5" y="-226.2" font-family="Helvetica,sans-Serif" font-size="11.00">&lt; 2</text>
<polygon fill="#ffffff" stroke="transparent" points="479.5,-220 479.5,-238 559.5,-238 559.5,-220 479.5,-220"/>
<polygon fill="none" stroke="black" points="479.5,-220 479.5,-238 559.5,-238 559.5,-220 479.5,-220"/>
<text text-anchor="start" x="496.5" y="-226.2" font-family="Helvetica,sans-Serif" font-size="11.00">36,183 rows</text>
<polygon fill="#ffffff" stroke="transparent" points="559.5,-220 559.5,-238 587.5,-238 587.5,-220 559.5,-220"/>
<polygon fill="none" stroke="black" points="559.5,-220 559.5,-238 587.5,-238 587.5,-220 559.5,-220"/>
<text text-anchor="start" x="577.5" y="-226.2" font-family="Helvetica,sans-Serif" font-size="11.00"> &#160;</text>
</a>
</g>
</g>
<!-- geochronpublications&#45;&gt;geochronology -->
<g id="edge5" class="edge">
<title>geochronpublications:w&#45;&gt;geochronology:e</title>
<path fill="none" stroke="black" d="M413.05,-247.92C402.3,-249.36 395.42,-252 380,-252"/>
<polygon fill="black" stroke="black" points="419.52,-247.51 427.73,-250.59 423.51,-247.25 427.5,-247 427.5,-247 427.5,-247 423.51,-247.25 427.27,-243.41 419.52,-247.51 419.52,-247.51"/>
<ellipse fill="none" stroke="black" cx="416.32" cy="-247.71" rx="3.2" ry="3.2"/>
</g>
<!-- specimendates -->
<g id="node7" class="node">
<title>specimendates</title>
<g id="a_node7"><a xlink:href="../../tables/specimendates.html" xlink:title="specimendates" target="_top">
<polygon fill="#ffffff" stroke="transparent" points="446,-299 446,-357 569,-357 569,-299 446,-299"/>
<polygon fill="#f5f5f5" stroke="transparent" points="446.5,-335 446.5,-357 569.5,-357 569.5,-335 446.5,-335"/>
<polygon fill="none" stroke="black" points="446.5,-335 446.5,-357 569.5,-357 569.5,-335 446.5,-335"/>
<text text-anchor="start" x="451.5" y="-344.2" font-family="Helvetica,sans-Serif" font-weight="bold" font-size="11.00">specimendates</text>
<text text-anchor="start" x="534.5" y="-343.2" font-family="Helvetica,sans-Serif" font-size="11.00">[table]</text>
<polygon fill="none" stroke="black" points="446.5,-317 446.5,-335 569.5,-335 569.5,-317 446.5,-317"/>
<text text-anchor="start" x="449.5" y="-323.2" font-family="Helvetica,sans-Serif" font-size="11.00">...</text>
<polygon fill="#ffffff" stroke="transparent" points="446.5,-299 446.5,-317 477.5,-317 477.5,-299 446.5,-299"/>
<polygon fill="none" stroke="black" points="446.5,-299 446.5,-317 477.5,-317 477.5,-299 446.5,-299"/>
<text text-anchor="start" x="449.5" y="-305.2" font-family="Helvetica,sans-Serif" font-size="11.00">&lt; 6</text>
<polygon fill="#ffffff" stroke="transparent" points="477.5,-299 477.5,-317 542.5,-317 542.5,-299 477.5,-299"/>
<polygon fill="none" stroke="black" points="477.5,-299 477.5,-317 542.5,-317 542.5,-299 477.5,-299"/>
<text text-anchor="start" x="485.5" y="-305.2" font-family="Helvetica,sans-Serif" font-size="11.00">2,662 rows</text>
<polygon fill="#ffffff" stroke="transparent" points="542.5,-299 542.5,-317 569.5,-317 569.5,-299 542.5,-299"/>
<polygon fill="none" stroke="black" points="542.5,-299 542.5,-317 569.5,-317 569.5,-299 542.5,-299"/>
<text text-anchor="start" x="550.5" y="-305.2" font-family="Helvetica,sans-Serif" font-size="11.00">1 &gt;</text>
</a>
</g>
</g>
<!-- specimendates&#45;&gt;geochronology -->
<g id="edge6" class="edge">
<title>specimendates:w&#45;&gt;geochronology:e</title>
<path fill="none" stroke="black" d="M431.2,-322.43C406.34,-307.65 418.09,-252 380,-252"/>
<polygon fill="black" stroke="black" points="437.74,-324.06 444.63,-329.49 441.62,-325.03 445.5,-326 445.5,-326 445.5,-326 441.62,-325.03 446.37,-322.51 437.74,-324.06 437.74,-324.06"/>
<ellipse fill="none" stroke="black" cx="434.63" cy="-323.29" rx="3.2" ry="3.2"/>
</g>
<!-- specimendates&#45;&gt;samples -->
<g id="edge7" class="edge">
<title>specimendates:w&#45;&gt;samples:e</title>
<path fill="none" stroke="black" d="M430.99,-325.93C318.47,-324.74 285.44,-310 166,-310"/>
<polygon fill="black" stroke="black" points="437.5,-325.96 445.48,-329.6 441.5,-325.98 445.5,-326 445.5,-326 445.5,-326 441.5,-325.98 445.52,-322.4 437.5,-325.96 437.5,-325.96"/>
<ellipse fill="none" stroke="black" cx="434.3" cy="-325.94" rx="3.2" ry="3.2"/>
</g>
</g>
</svg>
