<?xml version="1.0" encoding="UTF-8" standalone="no"?>
<!DOCTYPE svg PUBLIC "-//W3C//DTD SVG 1.1//EN"
 "http://www.w3.org/Graphics/SVG/1.1/DTD/svg11.dtd">
<!-- Generated by graphviz version 2.43.0 (0)
 -->
<!-- Title: oneDegreeRelationshipsDiagramImplied Pages: 1 -->
<svg width="634pt" height="654pt"
 viewBox="0.00 0.00 634.00 654.00" xmlns="http://www.w3.org/2000/svg" xmlns:xlink="http://www.w3.org/1999/xlink">
<g id="graph0" class="graph" transform="scale(1 1) rotate(0) translate(4 650)">
<title>oneDegreeRelationshipsDiagramImplied</title>
<polygon fill="#ffffff" stroke="transparent" points="-4,4 -4,-650 630,-650 630,4 -4,4"/>
<text text-anchor="middle" x="71.5" y="-7.2" font-family="Helvetica,sans-Serif" font-size="11.00">Generated by SchemaSpy</text>
<!-- geochroncontrols -->
<g id="node1" class="node">
<title>geochroncontrols</title>
<g id="a_node1"><a xlink:href="../../tables/geochroncontrols.html" xlink:title="geochroncontrols" target="_top">
<polygon fill="#ffffff" stroke="transparent" points="469.5,-307 469.5,-409 607.5,-409 607.5,-307 469.5,-307"/>
<polygon fill="#f5f5f5" stroke="transparent" points="469.5,-387 469.5,-409 607.5,-409 607.5,-387 469.5,-387"/>
<polygon fill="none" stroke="black" points="469.5,-387 469.5,-409 607.5,-409 607.5,-387 469.5,-387"/>
<text text-anchor="start" x="474.5" y="-396.2" font-family="Helvetica,sans-Serif" font-weight="bold" font-size="11.00">geochroncontrols</text>
<text text-anchor="start" x="572.5" y="-395.2" font-family="Helvetica,sans-Serif" font-size="11.00">[table]</text>
<polygon fill="none" stroke="black" points="469.5,-365 469.5,-387 607.5,-387 607.5,-365 469.5,-365"/>
<image xlink:href="../../images/primaryKeys.png" width="11px" height="12px" preserveAspectRatio="xMinYMin meet" x="474.5" y="-382"/>
<text text-anchor="start" x="495.5" y="-373.2" font-family="Helvetica,sans-Serif" font-size="11.00">chroncontrolid</text>
<polygon fill="none" stroke="black" points="469.5,-343 469.5,-365 607.5,-365 607.5,-343 469.5,-343"/>
<image xlink:href="../../images/primaryKeys.png" width="11px" height="12px" preserveAspectRatio="xMinYMin meet" x="474.5" y="-360"/>
<text text-anchor="start" x="495.5" y="-351.2" font-family="Helvetica,sans-Serif" font-size="11.00">geochronid</text>
<polygon fill="none" stroke="black" points="469.5,-325 469.5,-343 607.5,-343 607.5,-325 469.5,-325"/>
<text text-anchor="start" x="472.5" y="-331.2" font-family="Helvetica,sans-Serif" font-size="11.00">...</text>
<polygon fill="#ffffff" stroke="transparent" points="469.5,-307 469.5,-325 509.5,-325 509.5,-307 469.5,-307"/>
<polygon fill="none" stroke="black" points="469.5,-307 469.5,-325 509.5,-325 509.5,-307 469.5,-307"/>
<text text-anchor="start" x="472.5" y="-313.2" font-family="Helvetica,sans-Serif" font-size="11.00">&lt; 2</text>
<polygon fill="#ffffff" stroke="transparent" points="509.5,-307 509.5,-325 584.5,-325 584.5,-307 509.5,-307"/>
<polygon fill="none" stroke="black" points="509.5,-307 509.5,-325 584.5,-325 584.5,-307 509.5,-307"/>
<text text-anchor="start" x="521.5" y="-313.2" font-family="Helvetica,sans-Serif" font-size="11.00">43,605 rows</text>
<polygon fill="#ffffff" stroke="transparent" points="584.5,-307 584.5,-325 607.5,-325 607.5,-307 584.5,-307"/>
<polygon fill="none" stroke="black" points="584.5,-307 584.5,-325 607.5,-325 607.5,-307 584.5,-307"/>
<text text-anchor="start" x="597.5" y="-313.2" font-family="Helvetica,sans-Serif" font-size="11.00"> &#160;</text>
</a>
</g>
</g>
<!-- geochronology -->
<g id="node2" class="node">
<title>geochronology</title>
<g id="a_node2"><a xlink:href="../../tables/geochronology.html" xlink:title="geochronology" target="_top">
<polygon fill="#ffffff" stroke="transparent" points="196,-37 196,-389 410,-389 410,-37 196,-37"/>
<polygon fill="#f5f5f5" stroke="transparent" points="198,-365 198,-387 408,-387 408,-365 198,-365"/>
<polygon fill="none" stroke="black" points="198,-365 198,-387 408,-387 408,-365 198,-365"/>
<text text-anchor="start" x="203" y="-374.2" font-family="Helvetica,sans-Serif" font-weight="bold" font-size="11.00">geochronology</text>
<text text-anchor="start" x="373" y="-373.2" font-family="Helvetica,sans-Serif" font-size="11.00">[table]</text>
<polygon fill="none" stroke="black" points="198,-343 198,-365 318,-365 318,-343 198,-343"/>
<image xlink:href="../../images/primaryKeys.png" width="11px" height="12px" preserveAspectRatio="xMinYMin meet" x="203" y="-360"/>
<text text-anchor="start" x="218" y="-351.2" font-family="Helvetica,sans-Serif" font-size="11.00">geochronid</text>
<polygon fill="none" stroke="black" points="318,-343 318,-365 408,-365 408,-343 318,-343"/>
<text text-anchor="start" x="321" y="-351.2" font-family="Helvetica,sans-Serif" font-size="11.00">serial[10]</text>
<polygon fill="#ffffff" stroke="transparent" points="198,-321 198,-343 318,-343 318,-321 198,-321"/>
<polygon fill="none" stroke="black" points="198,-321 198,-343 318,-343 318,-321 198,-321"/>
<image xlink:href="../../images/foreignKeys.png" width="11px" height="12px" preserveAspectRatio="xMinYMin meet" x="203" y="-338"/>
<text text-anchor="start" x="218" y="-329.2" font-family="Helvetica,sans-Serif" font-size="11.00">sampleid</text>
<polygon fill="none" stroke="black" points="318,-321 318,-343 408,-343 408,-321 318,-321"/>
<text text-anchor="start" x="321" y="-329.2" font-family="Helvetica,sans-Serif" font-size="11.00">int4[10]</text>
<polygon fill="none" stroke="black" points="198,-299 198,-321 318,-321 318,-299 198,-299"/>
<image xlink:href="../../images/foreignKeys.png" width="11px" height="12px" preserveAspectRatio="xMinYMin meet" x="203" y="-316"/>
<text text-anchor="start" x="218" y="-307.2" font-family="Helvetica,sans-Serif" font-size="11.00">geochrontypeid</text>
<polygon fill="none" stroke="black" points="318,-299 318,-321 408,-321 408,-299 318,-299"/>
<text text-anchor="start" x="321" y="-307.2" font-family="Helvetica,sans-Serif" font-size="11.00">int4[10]</text>
<polygon fill="none" stroke="black" points="198,-277 198,-299 318,-299 318,-277 198,-277"/>
<image xlink:href="../../images/foreignKeys.png" width="11px" height="12px" preserveAspectRatio="xMinYMin meet" x="203" y="-294"/>
<text text-anchor="start" x="218" y="-285.2" font-family="Helvetica,sans-Serif" font-size="11.00">agetypeid</text>
<polygon fill="none" stroke="black" points="318,-277 318,-299 408,-299 408,-277 318,-277"/>
<text text-anchor="start" x="321" y="-285.2" font-family="Helvetica,sans-Serif" font-size="11.00">int4[10]</text>
<polygon fill="#ffffff" stroke="transparent" points="198,-255 198,-277 318,-277 318,-255 198,-255"/>
<polygon fill="none" stroke="black" points="198,-255 198,-277 318,-277 318,-255 198,-255"/>
<text text-anchor="start" x="218" y="-263.2" font-family="Helvetica,sans-Serif" font-size="11.00">age</text>
<polygon fill="none" stroke="black" points="318,-255 318,-277 408,-277 408,-255 318,-255"/>
<text text-anchor="start" x="321" y="-263.2" font-family="Helvetica,sans-Serif" font-size="11.00">float8[17,17]</text>
<polygon fill="none" stroke="black" points="198,-233 198,-255 318,-255 318,-233 198,-233"/>
<text text-anchor="start" x="218" y="-241.2" font-family="Helvetica,sans-Serif" font-size="11.00">errorolder</text>
<polygon fill="none" stroke="black" points="318,-233 318,-255 408,-255 408,-233 318,-233"/>
<text text-anchor="start" x="321" y="-241.2" font-family="Helvetica,sans-Serif" font-size="11.00">float8[17,17]</text>
<polygon fill="none" stroke="black" points="198,-211 198,-233 318,-233 318,-211 198,-211"/>
<text text-anchor="start" x="218" y="-219.2" font-family="Helvetica,sans-Serif" font-size="11.00">erroryounger</text>
<polygon fill="none" stroke="black" points="318,-211 318,-233 408,-233 408,-211 318,-211"/>
<text text-anchor="start" x="321" y="-219.2" font-family="Helvetica,sans-Serif" font-size="11.00">float8[17,17]</text>
<polygon fill="none" stroke="black" points="198,-189 198,-211 318,-211 318,-189 198,-189"/>
<text text-anchor="start" x="218" y="-197.2" font-family="Helvetica,sans-Serif" font-size="11.00">infinite</text>
<polygon fill="none" stroke="black" points="318,-189 318,-211 408,-211 408,-189 318,-189"/>
<text text-anchor="start" x="321" y="-197.2" font-family="Helvetica,sans-Serif" font-size="11.00">bool[1]</text>
<polygon fill="none" stroke="black" points="198,-167 198,-189 318,-189 318,-167 198,-167"/>
<text text-anchor="start" x="218" y="-175.2" font-family="Helvetica,sans-Serif" font-size="11.00">delta13c</text>
<polygon fill="none" stroke="black" points="318,-167 318,-189 408,-189 408,-167 318,-167"/>
<text text-anchor="start" x="321" y="-175.2" font-family="Helvetica,sans-Serif" font-size="11.00">float8[17,17]</text>
<polygon fill="none" stroke="black" points="198,-145 198,-167 318,-167 318,-145 198,-145"/>
<text text-anchor="start" x="218" y="-153.2" font-family="Helvetica,sans-Serif" font-size="11.00">labnumber</text>
<polygon fill="none" stroke="black" points="318,-145 318,-167 408,-167 408,-145 318,-145"/>
<text text-anchor="start" x="321" y="-153.2" font-family="Helvetica,sans-Serif" font-size="11.00">varchar[40]</text>
<polygon fill="none" stroke="black" points="198,-123 198,-145 318,-145 318,-123 198,-123"/>
<text text-anchor="start" x="218" y="-131.2" font-family="Helvetica,sans-Serif" font-size="11.00">materialdated</text>
<polygon fill="none" stroke="black" points="318,-123 318,-145 408,-145 408,-123 318,-123"/>
<text text-anchor="start" x="321" y="-131.2" font-family="Helvetica,sans-Serif" font-size="11.00">varchar[255]</text>
<polygon fill="none" stroke="black" points="198,-101 198,-123 318,-123 318,-101 198,-101"/>
<text text-anchor="start" x="218" y="-109.2" font-family="Helvetica,sans-Serif" font-size="11.00">notes</text>
<polygon fill="none" stroke="black" points="318,-101 318,-123 408,-123 408,-101 318,-101"/>
<text text-anchor="start" x="321" y="-109.2" font-family="Helvetica,sans-Serif" font-size="11.00">text[2147483647]</text>
<polygon fill="none" stroke="black" points="198,-79 198,-101 318,-101 318,-79 198,-79"/>
<text text-anchor="start" x="218" y="-87.2" font-family="Helvetica,sans-Serif" font-size="11.00">recdatecreated</text>
<polygon fill="none" stroke="black" points="318,-79 318,-101 408,-101 408,-79 318,-79"/>
<text text-anchor="start" x="321" y="-87.2" font-family="Helvetica,sans-Serif" font-size="11.00">timestamp[22]</text>
<polygon fill="none" stroke="black" points="198,-57 198,-79 318,-79 318,-57 198,-57"/>
<text text-anchor="start" x="218" y="-65.2" font-family="Helvetica,sans-Serif" font-size="11.00">recdatemodified</text>
<polygon fill="none" stroke="black" points="318,-57 318,-79 408,-79 408,-57 318,-57"/>
<text text-anchor="start" x="321" y="-65.2" font-family="Helvetica,sans-Serif" font-size="11.00">timestamp[22]</text>
<polygon fill="#ffffff" stroke="transparent" points="198,-39 198,-57 236,-57 236,-39 198,-39"/>
<polygon fill="none" stroke="black" points="198,-39 198,-57 236,-57 236,-39 198,-39"/>
<text text-anchor="start" x="201" y="-45.2" font-family="Helvetica,sans-Serif" font-size="11.00">&lt; 3</text>
<polygon fill="#ffffff" stroke="transparent" points="236,-39 236,-57 318,-57 318,-39 236,-39"/>
<polygon fill="none" stroke="black" points="236,-39 236,-57 318,-57 318,-39 236,-39"/>
<text text-anchor="start" x="255" y="-45.2" font-family="Helvetica,sans-Serif" font-size="11.00">41,130 rows</text>
<polygon fill="#ffffff" stroke="transparent" points="318,-39 318,-57 408,-57 408,-39 318,-39"/>
<polygon fill="none" stroke="black" points="318,-39 318,-57 408,-57 408,-39 318,-39"/>
<text text-anchor="start" x="389" y="-45.2" font-family="Helvetica,sans-Serif" font-size="11.00">4 &gt;</text>
<polygon fill="none" stroke="black" stroke-width="2" points="197,-38 197,-388 409,-388 409,-38 197,-38"/>
</a>
</g>
</g>
<!-- geochroncontrols&#45;&gt;geochronology -->
<g id="edge1" class="edge">
<title>geochroncontrols:w&#45;&gt;geochronology:e</title>
<path fill="none" stroke="black" d="M454.04,-354C438.38,-354 429.87,-354 409,-354"/>
<polygon fill="black" stroke="black" points="460.5,-354 468.5,-357.6 464.5,-354 468.5,-354 468.5,-354 468.5,-354 464.5,-354 468.5,-350.4 460.5,-354 460.5,-354"/>
<ellipse fill="none" stroke="black" cx="457.3" cy="-354" rx="3.2" ry="3.2"/>
</g>
<!-- agetypes -->
<g id="node3" class="node">
<title>agetypes</title>
<g id="a_node3"><a xlink:href="../../tables/agetypes.html" xlink:title="agetypes" target="_top">
<polygon fill="#ffffff" stroke="transparent" points="17.5,-184 17.5,-264 137.5,-264 137.5,-184 17.5,-184"/>
<polygon fill="#f5f5f5" stroke="transparent" points="17.5,-242 17.5,-264 137.5,-264 137.5,-242 17.5,-242"/>
<polygon fill="none" stroke="black" points="17.5,-242 17.5,-264 137.5,-264 137.5,-242 17.5,-242"/>
<text text-anchor="start" x="22.5" y="-251.2" font-family="Helvetica,sans-Serif" font-weight="bold" font-size="11.00">agetypes</text>
<text text-anchor="start" x="102.5" y="-250.2" font-family="Helvetica,sans-Serif" font-size="11.00">[table]</text>
<polygon fill="none" stroke="black" points="17.5,-220 17.5,-242 137.5,-242 137.5,-220 17.5,-220"/>
<image xlink:href="../../images/primaryKeys.png" width="11px" height="12px" preserveAspectRatio="xMinYMin meet" x="22.5" y="-237"/>
<text text-anchor="start" x="37.5" y="-228.2" font-family="Helvetica,sans-Serif" font-size="11.00">agetypeid</text>
<polygon fill="none" stroke="black" points="17.5,-202 17.5,-220 137.5,-220 137.5,-202 17.5,-202"/>
<text text-anchor="start" x="20.5" y="-208.2" font-family="Helvetica,sans-Serif" font-size="11.00">...</text>
<polygon fill="#ffffff" stroke="transparent" points="17.5,-184 17.5,-202 53.5,-202 53.5,-184 17.5,-184"/>
<polygon fill="none" stroke="black" points="17.5,-184 17.5,-202 53.5,-202 53.5,-184 17.5,-184"/>
<text text-anchor="start" x="20.5" y="-190.2" font-family="Helvetica,sans-Serif" font-size="11.00"> &#160;</text>
<polygon fill="#ffffff" stroke="transparent" points="53.5,-184 53.5,-202 103.5,-202 103.5,-184 53.5,-184"/>
<polygon fill="none" stroke="black" points="53.5,-184 53.5,-202 103.5,-202 103.5,-184 53.5,-184"/>
<text text-anchor="start" x="67.5" y="-190.2" font-family="Helvetica,sans-Serif" font-size="11.00">5 rows</text>
<polygon fill="#ffffff" stroke="transparent" points="103.5,-184 103.5,-202 137.5,-202 137.5,-184 103.5,-184"/>
<polygon fill="none" stroke="black" points="103.5,-184 103.5,-202 137.5,-202 137.5,-184 103.5,-184"/>
<text text-anchor="start" x="118.5" y="-190.2" font-family="Helvetica,sans-Serif" font-size="11.00">4 &gt;</text>
</a>
</g>
</g>
<!-- geochronology&#45;&gt;agetypes -->
<g id="edge2" class="edge">
<title>geochronology:w&#45;&gt;agetypes:e</title>
<path fill="none" stroke="black" d="M183.02,-284.08C163.92,-271.2 168.99,-231 138.5,-231"/>
<polygon fill="black" stroke="black" points="189.3,-285.84 196.03,-291.47 193.15,-286.92 197,-288 197,-288 197,-288 193.15,-286.92 197.97,-284.53 189.3,-285.84 189.3,-285.84"/>
<ellipse fill="none" stroke="black" cx="186.22" cy="-284.98" rx="3.2" ry="3.2"/>
</g>
<!-- geochrontypes -->
<g id="node4" class="node">
<title>geochrontypes</title>
<g id="a_node4"><a xlink:href="../../tables/geochrontypes.html" xlink:title="geochrontypes" target="_top">
<polygon fill="#ffffff" stroke="transparent" points="16,-285 16,-365 139,-365 139,-285 16,-285"/>
<polygon fill="#f5f5f5" stroke="transparent" points="16.5,-343 16.5,-365 139.5,-365 139.5,-343 16.5,-343"/>
<polygon fill="none" stroke="black" points="16.5,-343 16.5,-365 139.5,-365 139.5,-343 16.5,-343"/>
<text text-anchor="start" x="21.5" y="-352.2" font-family="Helvetica,sans-Serif" font-weight="bold" font-size="11.00">geochrontypes</text>
<text text-anchor="start" x="104.5" y="-351.2" font-family="Helvetica,sans-Serif" font-size="11.00">[table]</text>
<polygon fill="none" stroke="black" points="16.5,-321 16.5,-343 139.5,-343 139.5,-321 16.5,-321"/>
<image xlink:href="../../images/primaryKeys.png" width="11px" height="12px" preserveAspectRatio="xMinYMin meet" x="21.5" y="-338"/>
<text text-anchor="start" x="38.5" y="-329.2" font-family="Helvetica,sans-Serif" font-size="11.00">geochrontypeid</text>
<polygon fill="none" stroke="black" points="16.5,-303 16.5,-321 139.5,-321 139.5,-303 16.5,-303"/>
<text text-anchor="start" x="19.5" y="-309.2" font-family="Helvetica,sans-Serif" font-size="11.00">...</text>
<polygon fill="#ffffff" stroke="transparent" points="16.5,-285 16.5,-303 50.5,-303 50.5,-285 16.5,-285"/>
<polygon fill="none" stroke="black" points="16.5,-285 16.5,-303 50.5,-303 50.5,-285 16.5,-285"/>
<text text-anchor="start" x="19.5" y="-291.2" font-family="Helvetica,sans-Serif" font-size="11.00"> &#160;</text>
<polygon fill="#ffffff" stroke="transparent" points="50.5,-285 50.5,-303 106.5,-303 106.5,-285 50.5,-285"/>
<polygon fill="none" stroke="black" points="50.5,-285 50.5,-303 106.5,-303 106.5,-285 50.5,-285"/>
<text text-anchor="start" x="64.5" y="-291.2" font-family="Helvetica,sans-Serif" font-size="11.00">18 rows</text>
<polygon fill="#ffffff" stroke="transparent" points="106.5,-285 106.5,-303 139.5,-303 139.5,-285 106.5,-285"/>
<polygon fill="none" stroke="black" points="106.5,-285 106.5,-303 139.5,-303 139.5,-285 106.5,-285"/>
<text text-anchor="start" x="120.5" y="-291.2" font-family="Helvetica,sans-Serif" font-size="11.00">1 &gt;</text>
</a>
</g>
</g>
<!-- geochronology&#45;&gt;geochrontypes -->
<g id="edge3" class="edge">
<title>geochronology:w&#45;&gt;geochrontypes:e</title>
<path fill="none" stroke="black" d="M182.74,-312.52C167.87,-318.3 161.76,-332 140.5,-332"/>
<polygon fill="black" stroke="black" points="189.12,-311.39 197.63,-313.54 193.06,-310.7 197,-310 197,-310 197,-310 193.06,-310.7 196.37,-306.46 189.12,-311.39 189.12,-311.39"/>
<ellipse fill="none" stroke="black" cx="185.97" cy="-311.95" rx="3.2" ry="3.2"/>
</g>
<!-- samples -->
<g id="node5" class="node">
<title>samples</title>
<g id="a_node5"><a xlink:href="../../tables/samples.html" xlink:title="samples" target="_top">
<polygon fill="#ffffff" stroke="transparent" points="8,-397 8,-543 147,-543 147,-397 8,-397"/>
<polygon fill="#f5f5f5" stroke="transparent" points="8.5,-521 8.5,-543 147.5,-543 147.5,-521 8.5,-521"/>
<polygon fill="none" stroke="black" points="8.5,-521 8.5,-543 147.5,-543 147.5,-521 8.5,-521"/>
<text text-anchor="start" x="13.5" y="-530.2" font-family="Helvetica,sans-Serif" font-weight="bold" font-size="11.00">samples</text>
<text text-anchor="start" x="112.5" y="-529.2" font-family="Helvetica,sans-Serif" font-size="11.00">[table]</text>
<polygon fill="none" stroke="black" points="8.5,-499 8.5,-521 147.5,-521 147.5,-499 8.5,-499"/>
<image xlink:href="../../images/primaryKeys.png" width="11px" height="12px" preserveAspectRatio="xMinYMin meet" x="13.5" y="-516"/>
<text text-anchor="start" x="28.5" y="-507.2" font-family="Helvetica,sans-Serif" font-size="11.00">sampleid</text>
<polygon fill="#ffffff" stroke="transparent" points="8.5,-477 8.5,-499 147.5,-499 147.5,-477 8.5,-477"/>
<polygon fill="none" stroke="black" points="8.5,-477 8.5,-499 147.5,-499 147.5,-477 8.5,-477"/>
<image xlink:href="../../images/foreignKeys.png" width="11px" height="12px" preserveAspectRatio="xMinYMin meet" x="13.5" y="-494"/>
<text text-anchor="start" x="28.5" y="-485.2" font-family="Helvetica,sans-Serif" font-size="11.00">analysisunitid</text>
<polygon fill="#ffffff" stroke="transparent" points="8.5,-455 8.5,-477 147.5,-477 147.5,-455 8.5,-455"/>
<polygon fill="none" stroke="black" points="8.5,-455 8.5,-477 147.5,-477 147.5,-455 8.5,-455"/>
<image xlink:href="../../images/foreignKeys.png" width="11px" height="12px" preserveAspectRatio="xMinYMin meet" x="13.5" y="-472"/>
<text text-anchor="start" x="28.5" y="-463.2" font-family="Helvetica,sans-Serif" font-size="11.00">datasetid</text>
<polygon fill="#ffffff" stroke="transparent" points="8.5,-433 8.5,-455 147.5,-455 147.5,-433 8.5,-433"/>
<polygon fill="none" stroke="black" points="8.5,-433 8.5,-455 147.5,-455 147.5,-433 8.5,-433"/>
<image xlink:href="../../images/foreignKeys.png" width="11px" height="12px" preserveAspectRatio="xMinYMin meet" x="13.5" y="-450"/>
<text text-anchor="start" x="28.5" y="-441.2" font-family="Helvetica,sans-Serif" font-size="11.00">taxonid</text>
<polygon fill="none" stroke="black" points="8.5,-415 8.5,-433 147.5,-433 147.5,-415 8.5,-415"/>
<text text-anchor="start" x="11.5" y="-421.2" font-family="Helvetica,sans-Serif" font-size="11.00">...</text>
<polygon fill="#ffffff" stroke="transparent" points="8.5,-397 8.5,-415 41.5,-415 41.5,-397 8.5,-397"/>
<polygon fill="none" stroke="black" points="8.5,-397 8.5,-415 41.5,-415 41.5,-397 8.5,-397"/>
<text text-anchor="start" x="11.5" y="-403.2" font-family="Helvetica,sans-Serif" font-size="11.00">&lt; 3</text>
<polygon fill="#ffffff" stroke="transparent" points="41.5,-397 41.5,-415 119.5,-415 119.5,-397 41.5,-397"/>
<polygon fill="none" stroke="black" points="41.5,-397 41.5,-415 119.5,-415 119.5,-397 41.5,-397"/>
<text text-anchor="start" x="50.5" y="-403.2" font-family="Helvetica,sans-Serif" font-size="11.00">541,654 rows</text>
<polygon fill="#ffffff" stroke="transparent" points="119.5,-397 119.5,-415 147.5,-415 147.5,-397 119.5,-397"/>
<polygon fill="none" stroke="black" points="119.5,-397 119.5,-415 147.5,-415 147.5,-397 119.5,-397"/>
<text text-anchor="start" x="128.5" y="-403.2" font-family="Helvetica,sans-Serif" font-size="11.00">7 &gt;</text>
</a>
</g>
</g>
<!-- geochronology&#45;&gt;samples -->
<g id="edge4" class="edge">
<title>geochronology:w&#45;&gt;samples:e</title>
<path fill="none" stroke="black" d="M182.5,-334.52C130.27,-356.15 224.73,-510 148.5,-510"/>
<polygon fill="black" stroke="black" points="189.12,-333.37 197.62,-335.55 193.06,-332.68 197,-332 197,-332 197,-332 193.06,-332.68 196.38,-328.45 189.12,-333.37 189.12,-333.37"/>
<ellipse fill="none" stroke="black" cx="185.96" cy="-333.91" rx="3.2" ry="3.2"/>
</g>
<!-- geochronpublications -->
<g id="node6" class="node">
<title>geochronpublications</title>
<g id="a_node6"><a xlink:href="../../tables/geochronpublications.html" xlink:title="geochronpublications" target="_top">
<polygon fill="#ffffff" stroke="transparent" points="459,-184 459,-286 618,-286 618,-184 459,-184"/>
<polygon fill="#f5f5f5" stroke="transparent" points="459.5,-264 459.5,-286 618.5,-286 618.5,-264 459.5,-264"/>
<polygon fill="none" stroke="black" points="459.5,-264 459.5,-286 618.5,-286 618.5,-264 459.5,-264"/>
<text text-anchor="start" x="464.5" y="-273.2" font-family="Helvetica,sans-Serif" font-weight="bold" font-size="11.00">geochronpublications</text>
<text text-anchor="start" x="583.5" y="-272.2" font-family="Helvetica,sans-Serif" font-size="11.00">[table]</text>
<polygon fill="none" stroke="black" points="459.5,-242 459.5,-264 618.5,-264 618.5,-242 459.5,-242"/>
<image xlink:href="../../images/primaryKeys.png" width="11px" height="12px" preserveAspectRatio="xMinYMin meet" x="464.5" y="-259"/>
<text text-anchor="start" x="483.5" y="-250.2" font-family="Helvetica,sans-Serif" font-size="11.00">geochronid</text>
<polygon fill="none" stroke="black" points="459.5,-220 459.5,-242 618.5,-242 618.5,-220 459.5,-220"/>
<image xlink:href="../../images/primaryKeys.png" width="11px" height="12px" preserveAspectRatio="xMinYMin meet" x="464.5" y="-237"/>
<text text-anchor="start" x="483.5" y="-228.2" font-family="Helvetica,sans-Serif" font-size="11.00">publicationid</text>
<polygon fill="none" stroke="black" points="459.5,-202 459.5,-220 618.5,-220 618.5,-202 459.5,-202"/>
<text text-anchor="start" x="462.5" y="-208.2" font-family="Helvetica,sans-Serif" font-size="11.00">...</text>
<polygon fill="#ffffff" stroke="transparent" points="459.5,-184 459.5,-202 510.5,-202 510.5,-184 459.5,-184"/>
<polygon fill="none" stroke="black" points="459.5,-184 459.5,-202 510.5,-202 510.5,-184 459.5,-184"/>
<text text-anchor="start" x="462.5" y="-190.2" font-family="Helvetica,sans-Serif" font-size="11.00">&lt; 2</text>
<polygon fill="#ffffff" stroke="transparent" points="510.5,-184 510.5,-202 590.5,-202 590.5,-184 510.5,-184"/>
<polygon fill="none" stroke="black" points="510.5,-184 510.5,-202 590.5,-202 590.5,-184 510.5,-184"/>
<text text-anchor="start" x="527.5" y="-190.2" font-family="Helvetica,sans-Serif" font-size="11.00">37,711 rows</text>
<polygon fill="#ffffff" stroke="transparent" points="590.5,-184 590.5,-202 618.5,-202 618.5,-184 590.5,-184"/>
<polygon fill="none" stroke="black" points="590.5,-184 590.5,-202 618.5,-202 618.5,-184 590.5,-184"/>
<text text-anchor="start" x="608.5" y="-190.2" font-family="Helvetica,sans-Serif" font-size="11.00"> &#160;</text>
</a>
</g>
</g>
<!-- geochronpublications&#45;&gt;geochronology -->
<g id="edge5" class="edge">
<title>geochronpublications:w&#45;&gt;geochronology:e</title>
<path fill="none" stroke="black" d="M444.4,-257.08C419.26,-275.98 452.94,-354 409,-354"/>
<polygon fill="black" stroke="black" points="450.82,-255.23 459.5,-256.46 454.66,-254.11 458.5,-253 458.5,-253 458.5,-253 454.66,-254.11 457.5,-249.54 450.82,-255.23 450.82,-255.23"/>
<ellipse fill="none" stroke="black" cx="447.74" cy="-256.12" rx="3.2" ry="3.2"/>
</g>
<!-- radiocarbon -->
<g id="node7" class="node">
<title>radiocarbon</title>
<g id="a_node7"><a xlink:href="../../tables/radiocarbon.html" xlink:title="radiocarbon" target="_top">
<polygon fill="#ffffff" stroke="transparent" points="462.5,-61 462.5,-163 614.5,-163 614.5,-61 462.5,-61"/>
<polygon fill="#f5f5f5" stroke="transparent" points="462.5,-141 462.5,-163 614.5,-163 614.5,-141 462.5,-141"/>
<polygon fill="none" stroke="black" points="462.5,-141 462.5,-163 614.5,-163 614.5,-141 462.5,-141"/>
<text text-anchor="start" x="467.5" y="-150.2" font-family="Helvetica,sans-Serif" font-weight="bold" font-size="11.00">radiocarbon</text>
<text text-anchor="start" x="579.5" y="-149.2" font-family="Helvetica,sans-Serif" font-size="11.00">[table]</text>
<polygon fill="none" stroke="black" points="462.5,-119 462.5,-141 614.5,-141 614.5,-119 462.5,-119"/>
<image xlink:href="../../images/primaryKeys.png" width="11px" height="12px" preserveAspectRatio="xMinYMin meet" x="467.5" y="-136"/>
<text text-anchor="start" x="482.5" y="-127.2" font-family="Helvetica,sans-Serif" font-size="11.00">geochronid</text>
<polygon fill="none" stroke="black" points="462.5,-97 462.5,-119 614.5,-119 614.5,-97 462.5,-97"/>
<image xlink:href="../../images/foreignKeys.png" width="11px" height="12px" preserveAspectRatio="xMinYMin meet" x="467.5" y="-114"/>
<text text-anchor="start" x="482.5" y="-105.2" font-family="Helvetica,sans-Serif" font-size="11.00">radiocarbonmethodid</text>
<polygon fill="none" stroke="black" points="462.5,-79 462.5,-97 614.5,-97 614.5,-79 462.5,-79"/>
<text text-anchor="start" x="465.5" y="-85.2" font-family="Helvetica,sans-Serif" font-size="11.00">...</text>
<polygon fill="#ffffff" stroke="transparent" points="462.5,-61 462.5,-79 509.5,-79 509.5,-61 462.5,-61"/>
<polygon fill="none" stroke="black" points="462.5,-61 462.5,-79 509.5,-79 509.5,-61 462.5,-61"/>
<text text-anchor="start" x="465.5" y="-67.2" font-family="Helvetica,sans-Serif" font-size="11.00">&lt; 2</text>
<polygon fill="#ffffff" stroke="transparent" points="509.5,-61 509.5,-79 588.5,-79 588.5,-61 509.5,-61"/>
<polygon fill="none" stroke="black" points="509.5,-61 509.5,-79 588.5,-79 588.5,-61 509.5,-61"/>
<text text-anchor="start" x="525.5" y="-67.2" font-family="Helvetica,sans-Serif" font-size="11.00">32,234 rows</text>
<polygon fill="#ffffff" stroke="transparent" points="588.5,-61 588.5,-79 614.5,-79 614.5,-61 588.5,-61"/>
<polygon fill="none" stroke="black" points="588.5,-61 588.5,-79 614.5,-79 614.5,-61 588.5,-61"/>
<text text-anchor="start" x="604.5" y="-67.2" font-family="Helvetica,sans-Serif" font-size="11.00"> &#160;</text>
</a>
</g>
</g>
<!-- radiocarbon&#45;&gt;geochronology -->
<g id="edge6" class="edge">
<title>radiocarbon:w&#45;&gt;geochronology:e</title>
<path fill="none" stroke="black" d="M450.65,-131C370.73,-147.16 507.26,-354 409,-354"/>
<polygon fill="black" stroke="black" points="460.34,-126.09 461.07,-134.06 459.48,-134.2 458.74,-126.24 460.34,-126.09"/>
<polyline fill="none" stroke="black" points="461.5,-130 457.52,-130.37 "/>
<ellipse fill="none" stroke="black" cx="454.33" cy="-130.66" rx="3.2" ry="3.2"/>
</g>
<!-- specimendates -->
<g id="node8" class="node">
<title>specimendates</title>
<g id="a_node8"><a xlink:href="../../tables/specimendates.html" xlink:title="specimendates" target="_top">
<polygon fill="#ffffff" stroke="transparent" points="477,-430 477,-642 600,-642 600,-430 477,-430"/>
<polygon fill="#f5f5f5" stroke="transparent" points="477.5,-620 477.5,-642 600.5,-642 600.5,-620 477.5,-620"/>
<polygon fill="none" stroke="black" points="477.5,-620 477.5,-642 600.5,-642 600.5,-620 477.5,-620"/>
<text text-anchor="start" x="482.5" y="-629.2" font-family="Helvetica,sans-Serif" font-weight="bold" font-size="11.00">specimendates</text>
<text text-anchor="start" x="565.5" y="-628.2" font-family="Helvetica,sans-Serif" font-size="11.00">[table]</text>
<polygon fill="none" stroke="black" points="477.5,-598 477.5,-620 600.5,-620 600.5,-598 477.5,-598"/>
<image xlink:href="../../images/primaryKeys.png" width="11px" height="12px" preserveAspectRatio="xMinYMin meet" x="482.5" y="-615"/>
<text text-anchor="start" x="499.5" y="-606.2" font-family="Helvetica,sans-Serif" font-size="11.00">specimendateid</text>
<polygon fill="none" stroke="black" points="477.5,-576 477.5,-598 600.5,-598 600.5,-576 477.5,-576"/>
<image xlink:href="../../images/foreignKeys.png" width="11px" height="12px" preserveAspectRatio="xMinYMin meet" x="482.5" y="-593"/>
<text text-anchor="start" x="499.5" y="-584.2" font-family="Helvetica,sans-Serif" font-size="11.00">geochronid</text>
<polygon fill="#ffffff" stroke="transparent" points="477.5,-554 477.5,-576 600.5,-576 600.5,-554 477.5,-554"/>
<polygon fill="none" stroke="black" points="477.5,-554 477.5,-576 600.5,-576 600.5,-554 477.5,-554"/>
<image xlink:href="../../images/foreignKeys.png" width="11px" height="12px" preserveAspectRatio="xMinYMin meet" x="482.5" y="-571"/>
<text text-anchor="start" x="499.5" y="-562.2" font-family="Helvetica,sans-Serif" font-size="11.00">taxonid</text>
<polygon fill="none" stroke="black" points="477.5,-532 477.5,-554 600.5,-554 600.5,-532 477.5,-532"/>
<image xlink:href="../../images/foreignKeys.png" width="11px" height="12px" preserveAspectRatio="xMinYMin meet" x="482.5" y="-549"/>
<text text-anchor="start" x="499.5" y="-540.2" font-family="Helvetica,sans-Serif" font-size="11.00">fractionid</text>
<polygon fill="#ffffff" stroke="transparent" points="477.5,-510 477.5,-532 600.5,-532 600.5,-510 477.5,-510"/>
<polygon fill="none" stroke="black" points="477.5,-510 477.5,-532 600.5,-532 600.5,-510 477.5,-510"/>
<image xlink:href="../../images/foreignKeys.png" width="11px" height="12px" preserveAspectRatio="xMinYMin meet" x="482.5" y="-527"/>
<text text-anchor="start" x="499.5" y="-518.2" font-family="Helvetica,sans-Serif" font-size="11.00">sampleid</text>
<polygon fill="none" stroke="black" points="477.5,-488 477.5,-510 600.5,-510 600.5,-488 477.5,-488"/>
<image xlink:href="../../images/foreignKeys.png" width="11px" height="12px" preserveAspectRatio="xMinYMin meet" x="482.5" y="-505"/>
<text text-anchor="start" x="499.5" y="-496.2" font-family="Helvetica,sans-Serif" font-size="11.00">elementtypeid</text>
<polygon fill="none" stroke="black" points="477.5,-466 477.5,-488 600.5,-488 600.5,-466 477.5,-466"/>
<image xlink:href="../../images/foreignKeys.png" width="11px" height="12px" preserveAspectRatio="xMinYMin meet" x="482.5" y="-483"/>
<text text-anchor="start" x="499.5" y="-474.2" font-family="Helvetica,sans-Serif" font-size="11.00">specimenid</text>
<polygon fill="none" stroke="black" points="477.5,-448 477.5,-466 600.5,-466 600.5,-448 477.5,-448"/>
<text text-anchor="start" x="480.5" y="-454.2" font-family="Helvetica,sans-Serif" font-size="11.00">...</text>
<polygon fill="#ffffff" stroke="transparent" points="477.5,-430 477.5,-448 508.5,-448 508.5,-430 477.5,-430"/>
<polygon fill="none" stroke="black" points="477.5,-430 477.5,-448 508.5,-448 508.5,-430 477.5,-430"/>
<text text-anchor="start" x="480.5" y="-436.2" font-family="Helvetica,sans-Serif" font-size="11.00">&lt; 6</text>
<polygon fill="#ffffff" stroke="transparent" points="508.5,-430 508.5,-448 573.5,-448 573.5,-430 508.5,-430"/>
<polygon fill="none" stroke="black" points="508.5,-430 508.5,-448 573.5,-448 573.5,-430 508.5,-430"/>
<text text-anchor="start" x="516.5" y="-436.2" font-family="Helvetica,sans-Serif" font-size="11.00">2,662 rows</text>
<polygon fill="#ffffff" stroke="transparent" points="573.5,-430 573.5,-448 600.5,-448 600.5,-430 573.5,-430"/>
<polygon fill="none" stroke="black" points="573.5,-430 573.5,-448 600.5,-448 600.5,-430 573.5,-430"/>
<text text-anchor="start" x="581.5" y="-436.2" font-family="Helvetica,sans-Serif" font-size="11.00">1 &gt;</text>
</a>
</g>
</g>
<!-- specimendates&#45;&gt;geochronology -->
<g id="edge7" class="edge">
<title>specimendates:w&#45;&gt;geochronology:e</title>
<path fill="none" stroke="black" d="M461.99,-585.26C383.07,-563.94 511.34,-354 409,-354"/>
<polygon fill="black" stroke="black" points="468.56,-586.05 476.07,-590.57 472.53,-586.52 476.5,-587 476.5,-587 476.5,-587 472.53,-586.52 476.93,-583.43 468.56,-586.05 468.56,-586.05"/>
<ellipse fill="none" stroke="black" cx="465.38" cy="-585.67" rx="3.2" ry="3.2"/>
</g>
<!-- specimendates&#45;&gt;samples -->
<g id="edge8" class="edge">
<title>specimendates:w&#45;&gt;samples:e</title>
<path fill="none" stroke="black" d="M461.92,-520.96C328.03,-520.26 289.37,-510 148.5,-510"/>
<polygon fill="black" stroke="black" points="468.5,-520.98 476.49,-524.6 472.5,-520.99 476.5,-521 476.5,-521 476.5,-521 472.5,-520.99 476.51,-517.4 468.5,-520.98 468.5,-520.98"/>
<ellipse fill="none" stroke="black" cx="465.3" cy="-520.97" rx="3.2" ry="3.2"/>
</g>
</g>
</svg>
