<?xml version="1.0" encoding="UTF-8" standalone="no"?>
<!DOCTYPE svg PUBLIC "-//W3C//DTD SVG 1.1//EN"
 "http://www.w3.org/Graphics/SVG/1.1/DTD/svg11.dtd">
<!-- Generated by graphviz version 2.43.0 (0)
 -->
<!-- Title: oneDegreeRelationshipsDiagram Pages: 1 -->
<svg width="415pt" height="472pt"
 viewBox="0.00 0.00 415.00 472.00" xmlns="http://www.w3.org/2000/svg" xmlns:xlink="http://www.w3.org/1999/xlink">
<g id="graph0" class="graph" transform="scale(1 1) rotate(0) translate(4 468)">
<title>oneDegreeRelationshipsDiagram</title>
<polygon fill="#ffffff" stroke="transparent" points="-4,4 -4,-468 411,-468 411,4 -4,4"/>
<text text-anchor="middle" x="71.5" y="-7.2" font-family="Helvetica,sans-Serif" font-size="11.00">Generated by SchemaSpy</text>
<!-- geochroncontrols -->
<g id="node1" class="node">
<title>geochroncontrols</title>
<g id="a_node1"><a xlink:href="../../tables/geochroncontrols.html" xlink:title="geochroncontrols" target="_top">
<polygon fill="#ffffff" stroke="transparent" points="194,-213 194,-345 399,-345 399,-213 194,-213"/>
<polygon fill="#f5f5f5" stroke="transparent" points="196.5,-321 196.5,-343 397.5,-343 397.5,-321 196.5,-321"/>
<polygon fill="none" stroke="black" points="196.5,-321 196.5,-343 397.5,-343 397.5,-321 196.5,-321"/>
<text text-anchor="start" x="201.5" y="-330.2" font-family="Helvetica,sans-Serif" font-weight="bold" font-size="11.00">geochroncontrols</text>
<text text-anchor="start" x="362.5" y="-329.2" font-family="Helvetica,sans-Serif" font-size="11.00">[table]</text>
<polygon fill="none" stroke="black" points="196.5,-299 196.5,-321 323.5,-321 323.5,-299 196.5,-299"/>
<image xlink:href="../../images/primaryKeys.png" width="11px" height="12px" preserveAspectRatio="xMinYMin meet" x="201.5" y="-316"/>
<text text-anchor="start" x="216.5" y="-307.2" font-family="Helvetica,sans-Serif" font-size="11.00">chroncontrolid</text>
<polygon fill="none" stroke="black" points="323.5,-299 323.5,-321 397.5,-321 397.5,-299 323.5,-299"/>
<text text-anchor="start" x="326.5" y="-307.2" font-family="Helvetica,sans-Serif" font-size="11.00">int4[10]</text>
<polygon fill="none" stroke="black" points="196.5,-277 196.5,-299 323.5,-299 323.5,-277 196.5,-277"/>
<image xlink:href="../../images/primaryKeys.png" width="11px" height="12px" preserveAspectRatio="xMinYMin meet" x="201.5" y="-294"/>
<text text-anchor="start" x="216.5" y="-285.2" font-family="Helvetica,sans-Serif" font-size="11.00">geochronid</text>
<polygon fill="none" stroke="black" points="323.5,-277 323.5,-299 397.5,-299 397.5,-277 323.5,-277"/>
<text text-anchor="start" x="326.5" y="-285.2" font-family="Helvetica,sans-Serif" font-size="11.00">int4[10]</text>
<polygon fill="none" stroke="black" points="196.5,-255 196.5,-277 323.5,-277 323.5,-255 196.5,-255"/>
<text text-anchor="start" x="216.5" y="-263.2" font-family="Helvetica,sans-Serif" font-size="11.00">recdatecreated</text>
<polygon fill="none" stroke="black" points="323.5,-255 323.5,-277 397.5,-277 397.5,-255 323.5,-255"/>
<text text-anchor="start" x="326.5" y="-263.2" font-family="Helvetica,sans-Serif" font-size="11.00">timestamp[22]</text>
<polygon fill="none" stroke="black" points="196.5,-233 196.5,-255 323.5,-255 323.5,-233 196.5,-233"/>
<text text-anchor="start" x="216.5" y="-241.2" font-family="Helvetica,sans-Serif" font-size="11.00">recdatemodified</text>
<polygon fill="none" stroke="black" points="323.5,-233 323.5,-255 397.5,-255 397.5,-233 323.5,-233"/>
<text text-anchor="start" x="326.5" y="-241.2" font-family="Helvetica,sans-Serif" font-size="11.00">timestamp[22]</text>
<polygon fill="#ffffff" stroke="transparent" points="196.5,-215 196.5,-233 237.5,-233 237.5,-215 196.5,-215"/>
<polygon fill="none" stroke="black" points="196.5,-215 196.5,-233 237.5,-233 237.5,-215 196.5,-215"/>
<text text-anchor="start" x="199.5" y="-221.2" font-family="Helvetica,sans-Serif" font-size="11.00">&lt; 2</text>
<polygon fill="#ffffff" stroke="transparent" points="237.5,-215 237.5,-233 323.5,-233 323.5,-215 237.5,-215"/>
<polygon fill="none" stroke="black" points="237.5,-215 237.5,-233 323.5,-233 323.5,-215 237.5,-215"/>
<text text-anchor="start" x="260.5" y="-221.2" font-family="Helvetica,sans-Serif" font-size="11.00">43,605 rows</text>
<polygon fill="#ffffff" stroke="transparent" points="323.5,-215 323.5,-233 397.5,-233 397.5,-215 323.5,-215"/>
<polygon fill="none" stroke="black" points="323.5,-215 323.5,-233 397.5,-233 397.5,-215 323.5,-215"/>
<text text-anchor="start" x="378.5" y="-221.2" font-family="Helvetica,sans-Serif" font-size="11.00">0 &gt;</text>
<polygon fill="none" stroke="black" stroke-width="2" points="195,-214 195,-344 398,-344 398,-214 195,-214"/>
</a>
</g>
</g>
<!-- chroncontrols -->
<g id="node2" class="node">
<title>chroncontrols</title>
<g id="a_node2"><a xlink:href="../../tables/chroncontrols.html" xlink:title="chroncontrols" target="_top">
<polygon fill="#ffffff" stroke="transparent" points="8,-226 8,-460 145,-460 145,-226 8,-226"/>
<polygon fill="#f5f5f5" stroke="transparent" points="8.5,-438 8.5,-460 145.5,-460 145.5,-438 8.5,-438"/>
<polygon fill="none" stroke="black" points="8.5,-438 8.5,-460 145.5,-460 145.5,-438 8.5,-438"/>
<text text-anchor="start" x="13.5" y="-447.2" font-family="Helvetica,sans-Serif" font-weight="bold" font-size="11.00">chroncontrols</text>
<text text-anchor="start" x="110.5" y="-446.2" font-family="Helvetica,sans-Serif" font-size="11.00">[table]</text>
<polygon fill="none" stroke="black" points="8.5,-416 8.5,-438 145.5,-438 145.5,-416 8.5,-416"/>
<image xlink:href="../../images/primaryKeys.png" width="11px" height="12px" preserveAspectRatio="xMinYMin meet" x="13.5" y="-433"/>
<text text-anchor="start" x="28.5" y="-424.2" font-family="Helvetica,sans-Serif" font-size="11.00">chroncontrolid</text>
<polygon fill="none" stroke="black" points="8.5,-394 8.5,-416 145.5,-416 145.5,-394 8.5,-394"/>
<image xlink:href="../../images/foreignKeys.png" width="11px" height="12px" preserveAspectRatio="xMinYMin meet" x="13.5" y="-411"/>
<text text-anchor="start" x="28.5" y="-402.2" font-family="Helvetica,sans-Serif" font-size="11.00">chronologyid</text>
<polygon fill="none" stroke="black" points="8.5,-372 8.5,-394 145.5,-394 145.5,-372 8.5,-372"/>
<image xlink:href="../../images/foreignKeys.png" width="11px" height="12px" preserveAspectRatio="xMinYMin meet" x="13.5" y="-389"/>
<text text-anchor="start" x="28.5" y="-380.2" font-family="Helvetica,sans-Serif" font-size="11.00">chroncontroltypeid</text>
<polygon fill="#ffffff" stroke="transparent" points="8.5,-350 8.5,-372 145.5,-372 145.5,-350 8.5,-350"/>
<polygon fill="none" stroke="black" points="8.5,-350 8.5,-372 145.5,-372 145.5,-350 8.5,-350"/>
<text text-anchor="start" x="28.5" y="-358.2" font-family="Helvetica,sans-Serif" font-size="11.00">age</text>
<polygon fill="#ffffff" stroke="transparent" points="8.5,-328 8.5,-350 145.5,-350 145.5,-328 8.5,-328"/>
<polygon fill="none" stroke="black" points="8.5,-328 8.5,-350 145.5,-350 145.5,-328 8.5,-328"/>
<text text-anchor="start" x="28.5" y="-336.2" font-family="Helvetica,sans-Serif" font-size="11.00">agelimityounger</text>
<polygon fill="#ffffff" stroke="transparent" points="8.5,-306 8.5,-328 145.5,-328 145.5,-306 8.5,-306"/>
<polygon fill="none" stroke="black" points="8.5,-306 8.5,-328 145.5,-328 145.5,-306 8.5,-306"/>
<text text-anchor="start" x="28.5" y="-314.2" font-family="Helvetica,sans-Serif" font-size="11.00">agelimitolder</text>
<polygon fill="none" stroke="black" points="8.5,-284 8.5,-306 145.5,-306 145.5,-284 8.5,-284"/>
<image xlink:href="../../images/foreignKeys.png" width="11px" height="12px" preserveAspectRatio="xMinYMin meet" x="13.5" y="-301"/>
<text text-anchor="start" x="28.5" y="-292.2" font-family="Helvetica,sans-Serif" font-size="11.00">analysisunitid</text>
<polygon fill="none" stroke="black" points="8.5,-262 8.5,-284 145.5,-284 145.5,-262 8.5,-262"/>
<image xlink:href="../../images/foreignKeys.png" width="11px" height="12px" preserveAspectRatio="xMinYMin meet" x="13.5" y="-279"/>
<text text-anchor="start" x="28.5" y="-270.2" font-family="Helvetica,sans-Serif" font-size="11.00">agetypeid</text>
<polygon fill="none" stroke="black" points="8.5,-244 8.5,-262 145.5,-262 145.5,-244 8.5,-244"/>
<text text-anchor="start" x="11.5" y="-250.2" font-family="Helvetica,sans-Serif" font-size="11.00">...</text>
<polygon fill="#ffffff" stroke="transparent" points="8.5,-226 8.5,-244 40.5,-244 40.5,-226 8.5,-226"/>
<polygon fill="none" stroke="black" points="8.5,-226 8.5,-244 40.5,-244 40.5,-226 8.5,-226"/>
<text text-anchor="start" x="11.5" y="-232.2" font-family="Helvetica,sans-Serif" font-size="11.00">&lt; 4</text>
<polygon fill="#ffffff" stroke="transparent" points="40.5,-226 40.5,-244 117.5,-244 117.5,-226 40.5,-226"/>
<polygon fill="none" stroke="black" points="40.5,-226 40.5,-244 117.5,-244 117.5,-226 40.5,-226"/>
<text text-anchor="start" x="48.5" y="-232.2" font-family="Helvetica,sans-Serif" font-size="11.00">103,140 rows</text>
<polygon fill="#ffffff" stroke="transparent" points="117.5,-226 117.5,-244 145.5,-244 145.5,-226 117.5,-226"/>
<polygon fill="none" stroke="black" points="117.5,-226 117.5,-244 145.5,-244 145.5,-226 117.5,-226"/>
<text text-anchor="start" x="126.5" y="-232.2" font-family="Helvetica,sans-Serif" font-size="11.00">5 &gt;</text>
</a>
</g>
</g>
<!-- geochroncontrols&#45;&gt;chroncontrols -->
<g id="edge1" class="edge">
<title>geochroncontrols:w&#45;&gt;chroncontrols:e</title>
<path fill="none" stroke="black" d="M181.39,-313.63C151.24,-333.38 196.93,-427 146.5,-427"/>
<polygon fill="black" stroke="black" points="187.75,-311.99 196.4,-313.49 191.63,-311 195.5,-310 195.5,-310 195.5,-310 191.63,-311 194.6,-306.51 187.75,-311.99 187.75,-311.99"/>
<ellipse fill="none" stroke="black" cx="184.65" cy="-312.79" rx="3.2" ry="3.2"/>
</g>
<!-- geochronology -->
<g id="node3" class="node">
<title>geochronology</title>
<g id="a_node3"><a xlink:href="../../tables/geochronology.html" xlink:title="geochronology" target="_top">
<polygon fill="#ffffff" stroke="transparent" points="14.5,-37 14.5,-205 138.5,-205 138.5,-37 14.5,-37"/>
<polygon fill="#f5f5f5" stroke="transparent" points="14.5,-183 14.5,-205 138.5,-205 138.5,-183 14.5,-183"/>
<polygon fill="none" stroke="black" points="14.5,-183 14.5,-205 138.5,-205 138.5,-183 14.5,-183"/>
<text text-anchor="start" x="19.5" y="-192.2" font-family="Helvetica,sans-Serif" font-weight="bold" font-size="11.00">geochronology</text>
<text text-anchor="start" x="103.5" y="-191.2" font-family="Helvetica,sans-Serif" font-size="11.00">[table]</text>
<polygon fill="none" stroke="black" points="14.5,-161 14.5,-183 138.5,-183 138.5,-161 14.5,-161"/>
<image xlink:href="../../images/primaryKeys.png" width="11px" height="12px" preserveAspectRatio="xMinYMin meet" x="19.5" y="-178"/>
<text text-anchor="start" x="36.5" y="-169.2" font-family="Helvetica,sans-Serif" font-size="11.00">geochronid</text>
<polygon fill="#ffffff" stroke="transparent" points="14.5,-139 14.5,-161 138.5,-161 138.5,-139 14.5,-139"/>
<polygon fill="none" stroke="black" points="14.5,-139 14.5,-161 138.5,-161 138.5,-139 14.5,-139"/>
<image xlink:href="../../images/foreignKeys.png" width="11px" height="12px" preserveAspectRatio="xMinYMin meet" x="19.5" y="-156"/>
<text text-anchor="start" x="36.5" y="-147.2" font-family="Helvetica,sans-Serif" font-size="11.00">sampleid</text>
<polygon fill="none" stroke="black" points="14.5,-117 14.5,-139 138.5,-139 138.5,-117 14.5,-117"/>
<image xlink:href="../../images/foreignKeys.png" width="11px" height="12px" preserveAspectRatio="xMinYMin meet" x="19.5" y="-134"/>
<text text-anchor="start" x="36.5" y="-125.2" font-family="Helvetica,sans-Serif" font-size="11.00">geochrontypeid</text>
<polygon fill="none" stroke="black" points="14.5,-95 14.5,-117 138.5,-117 138.5,-95 14.5,-95"/>
<image xlink:href="../../images/foreignKeys.png" width="11px" height="12px" preserveAspectRatio="xMinYMin meet" x="19.5" y="-112"/>
<text text-anchor="start" x="36.5" y="-103.2" font-family="Helvetica,sans-Serif" font-size="11.00">agetypeid</text>
<polygon fill="#ffffff" stroke="transparent" points="14.5,-73 14.5,-95 138.5,-95 138.5,-73 14.5,-73"/>
<polygon fill="none" stroke="black" points="14.5,-73 14.5,-95 138.5,-95 138.5,-73 14.5,-73"/>
<text text-anchor="start" x="36.5" y="-81.2" font-family="Helvetica,sans-Serif" font-size="11.00">age</text>
<polygon fill="none" stroke="black" points="14.5,-55 14.5,-73 138.5,-73 138.5,-55 14.5,-55"/>
<text text-anchor="start" x="17.5" y="-61.2" font-family="Helvetica,sans-Serif" font-size="11.00">...</text>
<polygon fill="#ffffff" stroke="transparent" points="14.5,-37 14.5,-55 43.5,-55 43.5,-37 14.5,-37"/>
<polygon fill="none" stroke="black" points="14.5,-37 14.5,-55 43.5,-55 43.5,-37 14.5,-37"/>
<text text-anchor="start" x="17.5" y="-43.2" font-family="Helvetica,sans-Serif" font-size="11.00">&lt; 3</text>
<polygon fill="#ffffff" stroke="transparent" points="43.5,-37 43.5,-55 112.5,-55 112.5,-37 43.5,-37"/>
<polygon fill="none" stroke="black" points="43.5,-37 43.5,-55 112.5,-55 112.5,-37 43.5,-37"/>
<text text-anchor="start" x="49.5" y="-43.2" font-family="Helvetica,sans-Serif" font-size="11.00">41,130 rows</text>
<polygon fill="#ffffff" stroke="transparent" points="112.5,-37 112.5,-55 138.5,-55 138.5,-37 112.5,-37"/>
<polygon fill="none" stroke="black" points="112.5,-37 112.5,-55 138.5,-55 138.5,-37 112.5,-37"/>
<text text-anchor="start" x="119.5" y="-43.2" font-family="Helvetica,sans-Serif" font-size="11.00">4 &gt;</text>
</a>
</g>
</g>
<!-- geochroncontrols&#45;&gt;geochronology -->
<g id="edge2" class="edge">
<title>geochroncontrols:w&#45;&gt;geochronology:e</title>
<path fill="none" stroke="black" d="M181.4,-284.65C148.94,-265.63 190.93,-172 139.5,-172"/>
<polygon fill="black" stroke="black" points="187.72,-286.15 194.67,-291.5 191.61,-287.08 195.5,-288 195.5,-288 195.5,-288 191.61,-287.08 196.33,-284.5 187.72,-286.15 187.72,-286.15"/>
<ellipse fill="none" stroke="black" cx="184.6" cy="-285.41" rx="3.2" ry="3.2"/>
</g>
</g>
</svg>
