<?xml version="1.0" encoding="UTF-8" standalone="no"?>
<!DOCTYPE svg PUBLIC "-//W3C//DTD SVG 1.1//EN"
 "http://www.w3.org/Graphics/SVG/1.1/DTD/svg11.dtd">
<!-- Generated by graphviz version 2.43.0 (0)
 -->
<!-- Title: oneDegreeRelationshipsDiagram Pages: 1 -->
<svg width="220pt" height="185pt"
 viewBox="0.00 0.00 220.00 185.00" xmlns="http://www.w3.org/2000/svg" xmlns:xlink="http://www.w3.org/1999/xlink">
<g id="graph0" class="graph" transform="scale(1 1) rotate(0) translate(4 181)">
<title>oneDegreeRelationshipsDiagram</title>
<polygon fill="#ffffff" stroke="transparent" points="-4,4 -4,-181 216,-181 216,4 -4,4"/>
<text text-anchor="middle" x="71.5" y="-7.2" font-family="Helvetica,sans-Serif" font-size="11.00">Generated by SchemaSpy</text>
<!-- geopoldepth -->
<g id="node1" class="node">
<title>geopoldepth</title>
<g id="a_node1"><a xlink:href="../../tables/geopoldepth.html" xlink:title="geopoldepth" target="_top">
<polygon fill="#ffffff" stroke="transparent" points="8,-37 8,-173 204,-173 204,-37 8,-37"/>
<polygon fill="#f5f5f5" stroke="transparent" points="10,-149 10,-171 202,-171 202,-149 10,-149"/>
<polygon fill="none" stroke="black" points="10,-149 10,-171 202,-171 202,-149 10,-149"/>
<text text-anchor="start" x="15" y="-158.2" font-family="Helvetica,sans-Serif" font-weight="bold" font-size="11.00">geopoldepth</text>
<text text-anchor="start" x="169" y="-157.2" font-family="Helvetica,sans-Serif" font-size="11.00">[view]</text>
<polygon fill="none" stroke="black" points="10,-127 10,-149 135,-149 135,-127 10,-127"/>
<image xlink:href="../../images/foreignKeys.png" width="11px" height="12px" preserveAspectRatio="xMinYMin meet" x="15" y="-144"/>
<text text-anchor="start" x="30" y="-135.2" font-family="Helvetica,sans-Serif" font-size="11.00">geopoliticalid</text>
<polygon fill="none" stroke="black" points="135,-127 135,-149 202,-149 202,-127 135,-127"/>
<text text-anchor="start" x="138" y="-135.2" font-family="Helvetica,sans-Serif" font-size="11.00">int4[10]</text>
<polygon fill="none" stroke="black" points="10,-105 10,-127 135,-127 135,-105 10,-105"/>
<text text-anchor="start" x="30" y="-113.2" font-family="Helvetica,sans-Serif" font-size="11.00">geopoliticalname</text>
<polygon fill="none" stroke="black" points="135,-105 135,-127 202,-127 202,-105 135,-105"/>
<text text-anchor="start" x="138" y="-113.2" font-family="Helvetica,sans-Serif" font-size="11.00">varchar[255]</text>
<polygon fill="none" stroke="black" points="10,-83 10,-105 135,-105 135,-83 10,-83"/>
<text text-anchor="start" x="30" y="-91.2" font-family="Helvetica,sans-Serif" font-size="11.00">geopoliticalunit</text>
<polygon fill="none" stroke="black" points="135,-83 135,-105 202,-105 202,-83 135,-83"/>
<text text-anchor="start" x="138" y="-91.2" font-family="Helvetica,sans-Serif" font-size="11.00">varchar[255]</text>
<polygon fill="none" stroke="black" points="10,-61 10,-83 135,-83 135,-61 10,-61"/>
<text text-anchor="start" x="30" y="-69.2" font-family="Helvetica,sans-Serif" font-size="11.00">rank</text>
<polygon fill="none" stroke="black" points="135,-61 135,-83 202,-83 202,-61 135,-61"/>
<text text-anchor="start" x="138" y="-69.2" font-family="Helvetica,sans-Serif" font-size="11.00">int4[10]</text>
<polygon fill="none" stroke="black" points="10,-39 10,-61 135,-61 135,-39 10,-39"/>
<text text-anchor="start" x="30" y="-47.2" font-family="Helvetica,sans-Serif" font-size="11.00">path</text>
<polygon fill="none" stroke="black" points="135,-39 135,-61 202,-61 202,-39 135,-39"/>
<text text-anchor="start" x="138" y="-47.2" font-family="Helvetica,sans-Serif" font-size="11.00">_int4[10]</text>
<polygon fill="none" stroke="black" stroke-width="2" points="9,-38 9,-172 203,-172 203,-38 9,-38"/>
</a>
</g>
</g>
</g>
</svg>
