<?xml version="1.0" encoding="UTF-8" standalone="no"?>
<!DOCTYPE svg PUBLIC "-//W3C//DTD SVG 1.1//EN"
 "http://www.w3.org/Graphics/SVG/1.1/DTD/svg11.dtd">
<!-- Generated by graphviz version 2.43.0 (0)
 -->
<!-- Title: twoDegreesRelationshipsDiagramImplied Pages: 1 -->
<svg width="411pt" height="343pt"
 viewBox="0.00 0.00 411.00 343.00" xmlns="http://www.w3.org/2000/svg" xmlns:xlink="http://www.w3.org/1999/xlink">
<g id="graph0" class="graph" transform="scale(1 1) rotate(0) translate(4 339)">
<title>twoDegreesRelationshipsDiagramImplied</title>
<polygon fill="#ffffff" stroke="transparent" points="-4,4 -4,-339 407,-339 407,4 -4,4"/>
<text text-anchor="middle" x="71.5" y="-7.2" font-family="Helvetica,sans-Serif" font-size="11.00">Generated by SchemaSpy</text>
<!-- geopaths -->
<g id="node1" class="node">
<title>geopaths</title>
<g id="a_node1"><a xlink:href="../../tables/geopaths.html" xlink:title="geopaths" target="_top">
<polygon fill="#ffffff" stroke="transparent" points="249.5,-273 249.5,-331 344.5,-331 344.5,-273 249.5,-273"/>
<polygon fill="#f5f5f5" stroke="transparent" points="250,-309 250,-331 345,-331 345,-309 250,-309"/>
<polygon fill="none" stroke="black" points="250,-309 250,-331 345,-331 345,-309 250,-309"/>
<text text-anchor="start" x="255" y="-318.2" font-family="Helvetica,sans-Serif" font-weight="bold" font-size="11.00">geopaths</text>
<text text-anchor="start" x="310" y="-317.2" font-family="Helvetica,sans-Serif" font-size="11.00">[table]</text>
<polygon fill="none" stroke="black" points="250,-291 250,-309 345,-309 345,-291 250,-291"/>
<text text-anchor="start" x="253" y="-297.2" font-family="Helvetica,sans-Serif" font-size="11.00">...</text>
<polygon fill="#ffffff" stroke="transparent" points="250,-273 250,-291 272,-291 272,-273 250,-273"/>
<polygon fill="none" stroke="black" points="250,-273 250,-291 272,-291 272,-273 250,-273"/>
<text text-anchor="start" x="253" y="-279.2" font-family="Helvetica,sans-Serif" font-size="11.00">&lt; 1</text>
<polygon fill="#ffffff" stroke="transparent" points="272,-273 272,-291 332,-291 332,-273 272,-273"/>
<polygon fill="none" stroke="black" points="272,-273 272,-291 332,-291 332,-273 272,-273"/>
<text text-anchor="start" x="275" y="-279.2" font-family="Helvetica,sans-Serif" font-size="11.00">9,997 rows</text>
<polygon fill="#ffffff" stroke="transparent" points="332,-273 332,-291 345,-291 345,-273 332,-273"/>
<polygon fill="none" stroke="black" points="332,-273 332,-291 345,-291 345,-273 332,-273"/>
<text text-anchor="start" x="335" y="-279.2" font-family="Helvetica,sans-Serif" font-size="11.00"> &#160;</text>
</a>
</g>
</g>
<!-- geopoliticalunits -->
<g id="node2" class="node">
<title>geopoliticalunits</title>
<g id="a_node2"><a xlink:href="../../tables/geopoliticalunits.html" xlink:title="geopoliticalunits" target="_top">
<polygon fill="#ffffff" stroke="transparent" points="8,-126 8,-250 150,-250 150,-126 8,-126"/>
<polygon fill="#f5f5f5" stroke="transparent" points="8,-228 8,-250 150,-250 150,-228 8,-228"/>
<polygon fill="none" stroke="black" points="8,-228 8,-250 150,-250 150,-228 8,-228"/>
<text text-anchor="start" x="13" y="-237.2" font-family="Helvetica,sans-Serif" font-weight="bold" font-size="11.00">geopoliticalunits</text>
<text text-anchor="start" x="115" y="-236.2" font-family="Helvetica,sans-Serif" font-size="11.00">[table]</text>
<polygon fill="none" stroke="black" points="8,-206 8,-228 150,-228 150,-206 8,-206"/>
<image xlink:href="../../images/primaryKeys.png" width="11px" height="12px" preserveAspectRatio="xMinYMin meet" x="13" y="-223"/>
<text text-anchor="start" x="28" y="-214.2" font-family="Helvetica,sans-Serif" font-size="11.00">geopoliticalid</text>
<polygon fill="#ffffff" stroke="transparent" points="8,-184 8,-206 150,-206 150,-184 8,-184"/>
<polygon fill="none" stroke="black" points="8,-184 8,-206 150,-206 150,-184 8,-184"/>
<text text-anchor="start" x="28" y="-192.2" font-family="Helvetica,sans-Serif" font-size="11.00">geopoliticalname</text>
<polygon fill="#ffffff" stroke="transparent" points="8,-162 8,-184 150,-184 150,-162 8,-162"/>
<polygon fill="none" stroke="black" points="8,-162 8,-184 150,-184 150,-162 8,-162"/>
<text text-anchor="start" x="28" y="-170.2" font-family="Helvetica,sans-Serif" font-size="11.00">rank</text>
<polygon fill="none" stroke="black" points="8,-144 8,-162 150,-162 150,-144 8,-144"/>
<text text-anchor="start" x="11" y="-150.2" font-family="Helvetica,sans-Serif" font-size="11.00">...</text>
<polygon fill="#ffffff" stroke="transparent" points="8,-126 8,-144 41,-144 41,-126 8,-126"/>
<polygon fill="none" stroke="black" points="8,-126 8,-144 41,-144 41,-126 8,-126"/>
<text text-anchor="start" x="11" y="-132.2" font-family="Helvetica,sans-Serif" font-size="11.00"> &#160;</text>
<polygon fill="#ffffff" stroke="transparent" points="41,-126 41,-144 117,-144 117,-126 41,-126"/>
<polygon fill="none" stroke="black" points="41,-126 41,-144 117,-144 117,-126 41,-126"/>
<text text-anchor="start" x="54" y="-132.2" font-family="Helvetica,sans-Serif" font-size="11.00">10,101 rows</text>
<polygon fill="#ffffff" stroke="transparent" points="117,-126 117,-144 150,-144 150,-126 117,-126"/>
<polygon fill="none" stroke="black" points="117,-126 117,-144 150,-144 150,-126 117,-126"/>
<text text-anchor="start" x="131" y="-132.2" font-family="Helvetica,sans-Serif" font-size="11.00">3 &gt;</text>
</a>
</g>
</g>
<!-- geopaths&#45;&gt;geopoliticalunits -->
<g id="edge1" class="edge">
<title>geopaths:w&#45;&gt;geopoliticalunits:e</title>
<path fill="none" stroke="black" d="M234.54,-298.36C216.22,-293.65 209.91,-279.3 191,-263 170.48,-245.31 178.09,-217 151,-217"/>
<polygon fill="black" stroke="black" points="241.05,-299.1 248.6,-303.58 245.03,-299.55 249,-300 249,-300 249,-300 245.03,-299.55 249.4,-296.42 241.05,-299.1 241.05,-299.1"/>
<ellipse fill="none" stroke="black" cx="237.87" cy="-298.74" rx="3.2" ry="3.2"/>
</g>
<!-- geopoldepth -->
<g id="node3" class="node">
<title>geopoldepth</title>
<g id="a_node3"><a xlink:href="../../tables/geopoldepth.html" xlink:title="geopoldepth" target="_top">
<polygon fill="#ffffff" stroke="transparent" points="199,-116 199,-252 395,-252 395,-116 199,-116"/>
<polygon fill="#f5f5f5" stroke="transparent" points="201,-228 201,-250 393,-250 393,-228 201,-228"/>
<polygon fill="none" stroke="black" points="201,-228 201,-250 393,-250 393,-228 201,-228"/>
<text text-anchor="start" x="206" y="-237.2" font-family="Helvetica,sans-Serif" font-weight="bold" font-size="11.00">geopoldepth</text>
<text text-anchor="start" x="360" y="-236.2" font-family="Helvetica,sans-Serif" font-size="11.00">[view]</text>
<polygon fill="none" stroke="black" points="201,-206 201,-228 326,-228 326,-206 201,-206"/>
<image xlink:href="../../images/foreignKeys.png" width="11px" height="12px" preserveAspectRatio="xMinYMin meet" x="206" y="-223"/>
<text text-anchor="start" x="221" y="-214.2" font-family="Helvetica,sans-Serif" font-size="11.00">geopoliticalid</text>
<polygon fill="none" stroke="black" points="326,-206 326,-228 393,-228 393,-206 326,-206"/>
<text text-anchor="start" x="329" y="-214.2" font-family="Helvetica,sans-Serif" font-size="11.00">int4[10]</text>
<polygon fill="none" stroke="black" points="201,-184 201,-206 326,-206 326,-184 201,-184"/>
<text text-anchor="start" x="221" y="-192.2" font-family="Helvetica,sans-Serif" font-size="11.00">geopoliticalname</text>
<polygon fill="none" stroke="black" points="326,-184 326,-206 393,-206 393,-184 326,-184"/>
<text text-anchor="start" x="329" y="-192.2" font-family="Helvetica,sans-Serif" font-size="11.00">varchar[255]</text>
<polygon fill="none" stroke="black" points="201,-162 201,-184 326,-184 326,-162 201,-162"/>
<text text-anchor="start" x="221" y="-170.2" font-family="Helvetica,sans-Serif" font-size="11.00">geopoliticalunit</text>
<polygon fill="none" stroke="black" points="326,-162 326,-184 393,-184 393,-162 326,-162"/>
<text text-anchor="start" x="329" y="-170.2" font-family="Helvetica,sans-Serif" font-size="11.00">varchar[255]</text>
<polygon fill="none" stroke="black" points="201,-140 201,-162 326,-162 326,-140 201,-140"/>
<text text-anchor="start" x="221" y="-148.2" font-family="Helvetica,sans-Serif" font-size="11.00">rank</text>
<polygon fill="none" stroke="black" points="326,-140 326,-162 393,-162 393,-140 326,-140"/>
<text text-anchor="start" x="329" y="-148.2" font-family="Helvetica,sans-Serif" font-size="11.00">int4[10]</text>
<polygon fill="none" stroke="black" points="201,-118 201,-140 326,-140 326,-118 201,-118"/>
<text text-anchor="start" x="221" y="-126.2" font-family="Helvetica,sans-Serif" font-size="11.00">path</text>
<polygon fill="none" stroke="black" points="326,-118 326,-140 393,-140 393,-118 326,-118"/>
<text text-anchor="start" x="329" y="-126.2" font-family="Helvetica,sans-Serif" font-size="11.00">_int4[10]</text>
<polygon fill="none" stroke="black" stroke-width="2" points="200,-117 200,-251 394,-251 394,-117 200,-117"/>
</a>
</g>
</g>
<!-- geopoldepth&#45;&gt;geopoliticalunits -->
<g id="edge2" class="edge">
<title>geopoldepth:w&#45;&gt;geopoliticalunits:e</title>
<path fill="none" stroke="black" stroke-dasharray="5,2" d="M185.49,-217C174.18,-217 166.99,-217 151,-217"/>
<polygon fill="black" stroke="black" points="192,-217 200,-220.6 196,-217 200,-217 200,-217 200,-217 196,-217 200,-213.4 192,-217 192,-217"/>
<ellipse fill="none" stroke="black" cx="188.8" cy="-217" rx="3.2" ry="3.2"/>
</g>
<!-- sitegeopolitical -->
<g id="node4" class="node">
<title>sitegeopolitical</title>
<g id="a_node4"><a xlink:href="../../tables/sitegeopolitical.html" xlink:title="sitegeopolitical" target="_top">
<polygon fill="#ffffff" stroke="transparent" points="235,-37 235,-95 359,-95 359,-37 235,-37"/>
<polygon fill="#f5f5f5" stroke="transparent" points="235,-73 235,-95 359,-95 359,-73 235,-73"/>
<polygon fill="none" stroke="black" points="235,-73 235,-95 359,-95 359,-73 235,-73"/>
<text text-anchor="start" x="240" y="-82.2" font-family="Helvetica,sans-Serif" font-weight="bold" font-size="11.00">sitegeopolitical</text>
<text text-anchor="start" x="324" y="-81.2" font-family="Helvetica,sans-Serif" font-size="11.00">[table]</text>
<polygon fill="none" stroke="black" points="235,-55 235,-73 359,-73 359,-55 235,-55"/>
<text text-anchor="start" x="238" y="-61.2" font-family="Helvetica,sans-Serif" font-size="11.00">...</text>
<polygon fill="#ffffff" stroke="transparent" points="235,-37 235,-55 268,-55 268,-37 235,-37"/>
<polygon fill="none" stroke="black" points="235,-37 235,-55 268,-55 268,-37 235,-37"/>
<text text-anchor="start" x="238" y="-43.2" font-family="Helvetica,sans-Serif" font-size="11.00">&lt; 2</text>
<polygon fill="#ffffff" stroke="transparent" points="268,-37 268,-55 340,-55 340,-37 268,-37"/>
<polygon fill="none" stroke="black" points="268,-37 268,-55 340,-55 340,-37 268,-37"/>
<text text-anchor="start" x="277" y="-43.2" font-family="Helvetica,sans-Serif" font-size="11.00">55,744 rows</text>
<polygon fill="#ffffff" stroke="transparent" points="340,-37 340,-55 359,-55 359,-37 340,-37"/>
<polygon fill="none" stroke="black" points="340,-37 340,-55 359,-55 359,-37 340,-37"/>
<text text-anchor="start" x="349" y="-43.2" font-family="Helvetica,sans-Serif" font-size="11.00"> &#160;</text>
</a>
</g>
</g>
<!-- sitegeopolitical&#45;&gt;geopoliticalunits -->
<g id="edge3" class="edge">
<title>sitegeopolitical:w&#45;&gt;geopoliticalunits:e</title>
<path fill="none" stroke="black" d="M219.65,-66.63C205.88,-72.69 202.29,-88.45 191,-106 162.64,-150.11 203.44,-217 151,-217"/>
<polygon fill="black" stroke="black" points="226.13,-65.44 234.65,-67.54 230.07,-64.72 234,-64 234,-64 234,-64 230.07,-64.72 233.35,-60.46 226.13,-65.44 226.13,-65.44"/>
<ellipse fill="none" stroke="black" cx="222.98" cy="-66.02" rx="3.2" ry="3.2"/>
</g>
</g>
</svg>
