<?xml version="1.0" encoding="UTF-8" standalone="no"?>
<!DOCTYPE svg PUBLIC "-//W3C//DTD SVG 1.1//EN"
 "http://www.w3.org/Graphics/SVG/1.1/DTD/svg11.dtd">
<!-- Generated by graphviz version 2.43.0 (0)
 -->
<!-- Title: twoDegreesRelationshipsDiagramImplied Pages: 1 -->
<svg width="349pt" height="280pt"
 viewBox="0.00 0.00 349.00 280.00" xmlns="http://www.w3.org/2000/svg" xmlns:xlink="http://www.w3.org/1999/xlink">
<g id="graph0" class="graph" transform="scale(1 1) rotate(0) translate(4 276)">
<title>twoDegreesRelationshipsDiagramImplied</title>
<polygon fill="#ffffff" stroke="transparent" points="-4,4 -4,-276 345,-276 345,4 -4,4"/>
<text text-anchor="middle" x="71.5" y="-7.2" font-family="Helvetica,sans-Serif" font-size="11.00">Generated by SchemaSpy</text>
<!-- geopaths -->
<g id="node1" class="node">
<title>geopaths</title>
<g id="a_node1"><a xlink:href="../../tables/geopaths.html" xlink:title="geopaths" target="_top">
<polygon fill="#ffffff" stroke="transparent" points="199,-180 199,-268 333,-268 333,-180 199,-180"/>
<polygon fill="#f5f5f5" stroke="transparent" points="201,-244 201,-266 331,-266 331,-244 201,-244"/>
<polygon fill="none" stroke="black" points="201,-244 201,-266 331,-266 331,-244 201,-244"/>
<text text-anchor="start" x="206" y="-253.2" font-family="Helvetica,sans-Serif" font-weight="bold" font-size="11.00">geopaths</text>
<text text-anchor="start" x="296" y="-252.2" font-family="Helvetica,sans-Serif" font-size="11.00">[table]</text>
<polygon fill="none" stroke="black" points="201,-222 201,-244 283,-244 283,-222 201,-222"/>
<image xlink:href="../../images/primaryKeys.png" width="11px" height="12px" preserveAspectRatio="xMinYMin meet" x="206" y="-239"/>
<text text-anchor="start" x="224" y="-230.2" font-family="Helvetica,sans-Serif" font-size="11.00">geoout</text>
<polygon fill="none" stroke="black" points="283,-222 283,-244 331,-244 331,-222 283,-222"/>
<text text-anchor="start" x="286" y="-230.2" font-family="Helvetica,sans-Serif" font-size="11.00">_int4[10]</text>
<polygon fill="none" stroke="black" points="201,-200 201,-222 283,-222 283,-200 201,-200"/>
<image xlink:href="../../images/primaryKeys.png" width="11px" height="12px" preserveAspectRatio="xMinYMin meet" x="206" y="-217"/>
<text text-anchor="start" x="224" y="-208.2" font-family="Helvetica,sans-Serif" font-size="11.00">geoin</text>
<polygon fill="none" stroke="black" points="283,-200 283,-222 331,-222 331,-200 283,-200"/>
<text text-anchor="start" x="286" y="-208.2" font-family="Helvetica,sans-Serif" font-size="11.00">int8[19]</text>
<polygon fill="#ffffff" stroke="transparent" points="201,-182 201,-200 223,-200 223,-182 201,-182"/>
<polygon fill="none" stroke="black" points="201,-182 201,-200 223,-200 223,-182 201,-182"/>
<text text-anchor="start" x="204" y="-188.2" font-family="Helvetica,sans-Serif" font-size="11.00">&lt; 1</text>
<polygon fill="#ffffff" stroke="transparent" points="223,-182 223,-200 283,-200 283,-182 223,-182"/>
<polygon fill="none" stroke="black" points="223,-182 223,-200 283,-200 283,-182 223,-182"/>
<text text-anchor="start" x="226" y="-188.2" font-family="Helvetica,sans-Serif" font-size="11.00">9,997 rows</text>
<polygon fill="#ffffff" stroke="transparent" points="283,-182 283,-200 331,-200 331,-182 283,-182"/>
<polygon fill="none" stroke="black" points="283,-182 283,-200 331,-200 331,-182 283,-182"/>
<text text-anchor="start" x="312" y="-188.2" font-family="Helvetica,sans-Serif" font-size="11.00">0 &gt;</text>
<polygon fill="none" stroke="black" stroke-width="2" points="200,-181 200,-267 332,-267 332,-181 200,-181"/>
</a>
</g>
</g>
<!-- geopoliticalunits -->
<g id="node2" class="node">
<title>geopoliticalunits</title>
<g id="a_node2"><a xlink:href="../../tables/geopoliticalunits.html" xlink:title="geopoliticalunits" target="_top">
<polygon fill="#ffffff" stroke="transparent" points="8,-37 8,-161 150,-161 150,-37 8,-37"/>
<polygon fill="#f5f5f5" stroke="transparent" points="8,-139 8,-161 150,-161 150,-139 8,-139"/>
<polygon fill="none" stroke="black" points="8,-139 8,-161 150,-161 150,-139 8,-139"/>
<text text-anchor="start" x="13" y="-148.2" font-family="Helvetica,sans-Serif" font-weight="bold" font-size="11.00">geopoliticalunits</text>
<text text-anchor="start" x="115" y="-147.2" font-family="Helvetica,sans-Serif" font-size="11.00">[table]</text>
<polygon fill="none" stroke="black" points="8,-117 8,-139 150,-139 150,-117 8,-117"/>
<image xlink:href="../../images/primaryKeys.png" width="11px" height="12px" preserveAspectRatio="xMinYMin meet" x="13" y="-134"/>
<text text-anchor="start" x="28" y="-125.2" font-family="Helvetica,sans-Serif" font-size="11.00">geopoliticalid</text>
<polygon fill="#ffffff" stroke="transparent" points="8,-95 8,-117 150,-117 150,-95 8,-95"/>
<polygon fill="none" stroke="black" points="8,-95 8,-117 150,-117 150,-95 8,-95"/>
<text text-anchor="start" x="28" y="-103.2" font-family="Helvetica,sans-Serif" font-size="11.00">geopoliticalname</text>
<polygon fill="#ffffff" stroke="transparent" points="8,-73 8,-95 150,-95 150,-73 8,-73"/>
<polygon fill="none" stroke="black" points="8,-73 8,-95 150,-95 150,-73 8,-73"/>
<text text-anchor="start" x="28" y="-81.2" font-family="Helvetica,sans-Serif" font-size="11.00">rank</text>
<polygon fill="none" stroke="black" points="8,-55 8,-73 150,-73 150,-55 8,-55"/>
<text text-anchor="start" x="11" y="-61.2" font-family="Helvetica,sans-Serif" font-size="11.00">...</text>
<polygon fill="#ffffff" stroke="transparent" points="8,-37 8,-55 41,-55 41,-37 8,-37"/>
<polygon fill="none" stroke="black" points="8,-37 8,-55 41,-55 41,-37 8,-37"/>
<text text-anchor="start" x="11" y="-43.2" font-family="Helvetica,sans-Serif" font-size="11.00"> &#160;</text>
<polygon fill="#ffffff" stroke="transparent" points="41,-37 41,-55 117,-55 117,-37 41,-37"/>
<polygon fill="none" stroke="black" points="41,-37 41,-55 117,-55 117,-37 41,-37"/>
<text text-anchor="start" x="54" y="-43.2" font-family="Helvetica,sans-Serif" font-size="11.00">10,097 rows</text>
<polygon fill="#ffffff" stroke="transparent" points="117,-37 117,-55 150,-55 150,-37 117,-37"/>
<polygon fill="none" stroke="black" points="117,-37 117,-55 150,-55 150,-37 117,-37"/>
<text text-anchor="start" x="131" y="-43.2" font-family="Helvetica,sans-Serif" font-size="11.00">3 &gt;</text>
</a>
</g>
</g>
<!-- geopaths&#45;&gt;geopoliticalunits -->
<g id="edge1" class="edge">
<title>geopaths:w&#45;&gt;geopoliticalunits:e</title>
<path fill="none" stroke="black" d="M186.2,-206.54C165.9,-189.3 187.81,-128 151,-128"/>
<polygon fill="black" stroke="black" points="192.39,-208.54 198.89,-214.43 196.19,-209.77 200,-211 200,-211 200,-211 196.19,-209.77 201.11,-207.57 192.39,-208.54 192.39,-208.54"/>
<ellipse fill="none" stroke="black" cx="189.34" cy="-207.55" rx="3.2" ry="3.2"/>
</g>
<!-- geopoldepth -->
<g id="node3" class="node">
<title>geopoldepth</title>
<g id="a_node3"><a xlink:href="../../tables/geopoldepth.html" xlink:title="geopoldepth" target="_top">
<polygon fill="#ffffff" stroke="transparent" points="211.5,-119 211.5,-159 320.5,-159 320.5,-119 211.5,-119"/>
<polygon fill="#f5f5f5" stroke="transparent" points="212,-137 212,-159 321,-159 321,-137 212,-137"/>
<polygon fill="none" stroke="black" points="212,-137 212,-159 321,-159 321,-137 212,-137"/>
<text text-anchor="start" x="217" y="-146.2" font-family="Helvetica,sans-Serif" font-weight="bold" font-size="11.00">geopoldepth</text>
<text text-anchor="start" x="288" y="-145.2" font-family="Helvetica,sans-Serif" font-size="11.00">[view]</text>
<polygon fill="none" stroke="black" points="212,-119 212,-137 321,-137 321,-119 212,-119"/>
<text text-anchor="start" x="215" y="-125.2" font-family="Helvetica,sans-Serif" font-size="11.00">...</text>
</a>
</g>
</g>
<!-- geopoldepth&#45;&gt;geopoliticalunits -->
<g id="edge2" class="edge">
<title>geopoldepth:w&#45;&gt;geopoliticalunits:e</title>
<path fill="none" stroke="black" stroke-dasharray="5,2" d="M196.42,-128C180.63,-128 172.04,-128 151,-128"/>
<polygon fill="black" stroke="black" points="203,-128 211,-131.6 207,-128 211,-128 211,-128 211,-128 207,-128 211,-124.4 203,-128 203,-128"/>
<ellipse fill="none" stroke="black" cx="199.8" cy="-128" rx="3.2" ry="3.2"/>
</g>
<!-- sitegeopolitical -->
<g id="node4" class="node">
<title>sitegeopolitical</title>
<g id="a_node4"><a xlink:href="../../tables/sitegeopolitical.html" xlink:title="sitegeopolitical" target="_top">
<polygon fill="#ffffff" stroke="transparent" points="204,-40 204,-98 328,-98 328,-40 204,-40"/>
<polygon fill="#f5f5f5" stroke="transparent" points="204,-76 204,-98 328,-98 328,-76 204,-76"/>
<polygon fill="none" stroke="black" points="204,-76 204,-98 328,-98 328,-76 204,-76"/>
<text text-anchor="start" x="209" y="-85.2" font-family="Helvetica,sans-Serif" font-weight="bold" font-size="11.00">sitegeopolitical</text>
<text text-anchor="start" x="293" y="-84.2" font-family="Helvetica,sans-Serif" font-size="11.00">[table]</text>
<polygon fill="none" stroke="black" points="204,-58 204,-76 328,-76 328,-58 204,-58"/>
<text text-anchor="start" x="207" y="-64.2" font-family="Helvetica,sans-Serif" font-size="11.00">...</text>
<polygon fill="#ffffff" stroke="transparent" points="204,-40 204,-58 237,-58 237,-40 204,-40"/>
<polygon fill="none" stroke="black" points="204,-40 204,-58 237,-58 237,-40 204,-40"/>
<text text-anchor="start" x="207" y="-46.2" font-family="Helvetica,sans-Serif" font-size="11.00">&lt; 2</text>
<polygon fill="#ffffff" stroke="transparent" points="237,-40 237,-58 309,-58 309,-40 237,-40"/>
<polygon fill="none" stroke="black" points="237,-40 237,-58 309,-58 309,-40 237,-40"/>
<text text-anchor="start" x="246" y="-46.2" font-family="Helvetica,sans-Serif" font-size="11.00">53,305 rows</text>
<polygon fill="#ffffff" stroke="transparent" points="309,-40 309,-58 328,-58 328,-40 309,-40"/>
<polygon fill="none" stroke="black" points="309,-40 309,-58 328,-58 328,-40 309,-40"/>
<text text-anchor="start" x="318" y="-46.2" font-family="Helvetica,sans-Serif" font-size="11.00"> &#160;</text>
</a>
</g>
</g>
<!-- sitegeopolitical&#45;&gt;geopoliticalunits -->
<g id="edge3" class="edge">
<title>sitegeopolitical:w&#45;&gt;geopoliticalunits:e</title>
<path fill="none" stroke="black" d="M188.94,-71.79C172.37,-86.17 180.5,-128 151,-128"/>
<polygon fill="black" stroke="black" points="195.43,-69.58 204.16,-70.41 199.21,-68.29 203,-67 203,-67 203,-67 199.21,-68.29 201.84,-63.59 195.43,-69.58 195.43,-69.58"/>
<ellipse fill="none" stroke="black" cx="192.4" cy="-70.61" rx="3.2" ry="3.2"/>
</g>
</g>
</svg>
