<?xml version="1.0" encoding="UTF-8" standalone="no"?>
<!DOCTYPE svg PUBLIC "-//W3C//DTD SVG 1.1//EN"
 "http://www.w3.org/Graphics/SVG/1.1/DTD/svg11.dtd">
<!-- Generated by graphviz version 2.43.0 (0)
 -->
<!-- Title: oneDegreeRelationshipsDiagram Pages: 1 -->
<svg width="417pt" height="330pt"
 viewBox="0.00 0.00 417.00 330.00" xmlns="http://www.w3.org/2000/svg" xmlns:xlink="http://www.w3.org/1999/xlink">
<g id="graph0" class="graph" transform="scale(1 1) rotate(0) translate(4 326)">
<title>oneDegreeRelationshipsDiagram</title>
<polygon fill="#ffffff" stroke="transparent" points="-4,4 -4,-326 413,-326 413,4 -4,4"/>
<text text-anchor="middle" x="71.5" y="-7.2" font-family="Helvetica,sans-Serif" font-size="11.00">Generated by SchemaSpy</text>
<!-- geopaths -->
<g id="node1" class="node">
<title>geopaths</title>
<g id="a_node1"><a xlink:href="../../tables/geopaths.html" xlink:title="geopaths" target="_top">
<polygon fill="#ffffff" stroke="transparent" points="291.5,-234 291.5,-318 386.5,-318 386.5,-234 291.5,-234"/>
<polygon fill="#f5f5f5" stroke="transparent" points="292,-296 292,-318 387,-318 387,-296 292,-296"/>
<polygon fill="none" stroke="black" points="292,-296 292,-318 387,-318 387,-296 292,-296"/>
<text text-anchor="start" x="297" y="-305.2" font-family="Helvetica,sans-Serif" font-weight="bold" font-size="11.00">geopaths</text>
<text text-anchor="start" x="352" y="-304.2" font-family="Helvetica,sans-Serif" font-size="11.00">[table]</text>
<polygon fill="none" stroke="black" points="292,-274 292,-296 387,-296 387,-274 292,-274"/>
<image xlink:href="../../images/primaryKeys.png" width="11px" height="12px" preserveAspectRatio="xMinYMin meet" x="297" y="-291"/>
<text text-anchor="start" x="321" y="-282.2" font-family="Helvetica,sans-Serif" font-size="11.00">geoout</text>
<polygon fill="none" stroke="black" points="292,-252 292,-274 387,-274 387,-252 292,-252"/>
<image xlink:href="../../images/primaryKeys.png" width="11px" height="12px" preserveAspectRatio="xMinYMin meet" x="297" y="-269"/>
<text text-anchor="start" x="321" y="-260.2" font-family="Helvetica,sans-Serif" font-size="11.00">geoin</text>
<polygon fill="#ffffff" stroke="transparent" points="292,-234 292,-252 314,-252 314,-234 292,-234"/>
<polygon fill="none" stroke="black" points="292,-234 292,-252 314,-252 314,-234 292,-234"/>
<text text-anchor="start" x="295" y="-240.2" font-family="Helvetica,sans-Serif" font-size="11.00">&lt; 1</text>
<polygon fill="#ffffff" stroke="transparent" points="314,-234 314,-252 374,-252 374,-234 314,-234"/>
<polygon fill="none" stroke="black" points="314,-234 314,-252 374,-252 374,-234 314,-234"/>
<text text-anchor="start" x="317" y="-240.2" font-family="Helvetica,sans-Serif" font-size="11.00">9,997 rows</text>
<polygon fill="#ffffff" stroke="transparent" points="374,-234 374,-252 387,-252 387,-234 374,-234"/>
<polygon fill="none" stroke="black" points="374,-234 374,-252 387,-252 387,-234 374,-234"/>
<text text-anchor="start" x="377" y="-240.2" font-family="Helvetica,sans-Serif" font-size="11.00"> &#160;</text>
</a>
</g>
</g>
<!-- geopoliticalunits -->
<g id="node2" class="node">
<title>geopoliticalunits</title>
<g id="a_node2"><a xlink:href="../../tables/geopoliticalunits.html" xlink:title="geopoliticalunits" target="_top">
<polygon fill="#ffffff" stroke="transparent" points="8,-37 8,-235 228,-235 228,-37 8,-37"/>
<polygon fill="#f5f5f5" stroke="transparent" points="10,-211 10,-233 226,-233 226,-211 10,-211"/>
<polygon fill="none" stroke="black" points="10,-211 10,-233 226,-233 226,-211 10,-211"/>
<text text-anchor="start" x="15" y="-220.2" font-family="Helvetica,sans-Serif" font-weight="bold" font-size="11.00">geopoliticalunits</text>
<text text-anchor="start" x="191" y="-219.2" font-family="Helvetica,sans-Serif" font-size="11.00">[table]</text>
<polygon fill="none" stroke="black" points="10,-189 10,-211 152,-211 152,-189 10,-189"/>
<image xlink:href="../../images/primaryKeys.png" width="11px" height="12px" preserveAspectRatio="xMinYMin meet" x="15" y="-206"/>
<text text-anchor="start" x="30" y="-197.2" font-family="Helvetica,sans-Serif" font-size="11.00">geopoliticalid</text>
<polygon fill="none" stroke="black" points="152,-189 152,-211 226,-211 226,-189 152,-189"/>
<text text-anchor="start" x="155" y="-197.2" font-family="Helvetica,sans-Serif" font-size="11.00">serial[10]</text>
<polygon fill="#ffffff" stroke="transparent" points="10,-167 10,-189 152,-189 152,-167 10,-167"/>
<polygon fill="none" stroke="black" points="10,-167 10,-189 152,-189 152,-167 10,-167"/>
<text text-anchor="start" x="30" y="-175.2" font-family="Helvetica,sans-Serif" font-size="11.00">geopoliticalname</text>
<polygon fill="none" stroke="black" points="152,-167 152,-189 226,-189 226,-167 152,-167"/>
<text text-anchor="start" x="155" y="-175.2" font-family="Helvetica,sans-Serif" font-size="11.00">varchar[255]</text>
<polygon fill="none" stroke="black" points="10,-145 10,-167 152,-167 152,-145 10,-145"/>
<text text-anchor="start" x="30" y="-153.2" font-family="Helvetica,sans-Serif" font-size="11.00">geopoliticalunit</text>
<polygon fill="none" stroke="black" points="152,-145 152,-167 226,-167 226,-145 152,-145"/>
<text text-anchor="start" x="155" y="-153.2" font-family="Helvetica,sans-Serif" font-size="11.00">varchar[255]</text>
<polygon fill="#ffffff" stroke="transparent" points="10,-123 10,-145 152,-145 152,-123 10,-123"/>
<polygon fill="none" stroke="black" points="10,-123 10,-145 152,-145 152,-123 10,-123"/>
<text text-anchor="start" x="30" y="-131.2" font-family="Helvetica,sans-Serif" font-size="11.00">rank</text>
<polygon fill="none" stroke="black" points="152,-123 152,-145 226,-145 226,-123 152,-123"/>
<text text-anchor="start" x="155" y="-131.2" font-family="Helvetica,sans-Serif" font-size="11.00">int4[10]</text>
<polygon fill="none" stroke="black" points="10,-101 10,-123 152,-123 152,-101 10,-101"/>
<text text-anchor="start" x="30" y="-109.2" font-family="Helvetica,sans-Serif" font-size="11.00">highergeopoliticalid</text>
<polygon fill="none" stroke="black" points="152,-101 152,-123 226,-123 226,-101 152,-101"/>
<text text-anchor="start" x="155" y="-109.2" font-family="Helvetica,sans-Serif" font-size="11.00">int4[10]</text>
<polygon fill="none" stroke="black" points="10,-79 10,-101 152,-101 152,-79 10,-79"/>
<text text-anchor="start" x="30" y="-87.2" font-family="Helvetica,sans-Serif" font-size="11.00">recdatecreated</text>
<polygon fill="none" stroke="black" points="152,-79 152,-101 226,-101 226,-79 152,-79"/>
<text text-anchor="start" x="155" y="-87.2" font-family="Helvetica,sans-Serif" font-size="11.00">timestamp[22]</text>
<polygon fill="none" stroke="black" points="10,-57 10,-79 152,-79 152,-57 10,-57"/>
<text text-anchor="start" x="30" y="-65.2" font-family="Helvetica,sans-Serif" font-size="11.00">recdatemodified</text>
<polygon fill="none" stroke="black" points="152,-57 152,-79 226,-79 226,-57 152,-57"/>
<text text-anchor="start" x="155" y="-65.2" font-family="Helvetica,sans-Serif" font-size="11.00">timestamp[22]</text>
<polygon fill="#ffffff" stroke="transparent" points="10,-39 10,-57 59,-57 59,-39 10,-39"/>
<polygon fill="none" stroke="black" points="10,-39 10,-57 59,-57 59,-39 10,-39"/>
<text text-anchor="start" x="13" y="-45.2" font-family="Helvetica,sans-Serif" font-size="11.00">&lt; 0</text>
<polygon fill="#ffffff" stroke="transparent" points="59,-39 59,-57 152,-57 152,-39 59,-39"/>
<polygon fill="none" stroke="black" points="59,-39 59,-57 152,-57 152,-39 59,-39"/>
<text text-anchor="start" x="89" y="-45.2" font-family="Helvetica,sans-Serif" font-size="11.00">10,097 rows</text>
<polygon fill="#ffffff" stroke="transparent" points="152,-39 152,-57 226,-57 226,-39 152,-39"/>
<polygon fill="none" stroke="black" points="152,-39 152,-57 226,-57 226,-39 152,-39"/>
<text text-anchor="start" x="207" y="-45.2" font-family="Helvetica,sans-Serif" font-size="11.00">2 &gt;</text>
<polygon fill="none" stroke="black" stroke-width="2" points="9,-38 9,-234 227,-234 227,-38 9,-38"/>
</a>
</g>
</g>
<!-- geopaths&#45;&gt;geopoliticalunits -->
<g id="edge1" class="edge">
<title>geopaths:w&#45;&gt;geopoliticalunits:e</title>
<path fill="none" stroke="black" d="M276.85,-259.43C254.5,-246.11 261.14,-200 227,-200"/>
<polygon fill="black" stroke="black" points="283.24,-261.04 290.12,-266.49 287.12,-262.02 291,-263 291,-263 291,-263 287.12,-262.02 291.88,-259.51 283.24,-261.04 283.24,-261.04"/>
<ellipse fill="none" stroke="black" cx="280.14" cy="-260.26" rx="3.2" ry="3.2"/>
</g>
<!-- sitegeopolitical -->
<g id="node3" class="node">
<title>sitegeopolitical</title>
<g id="a_node3"><a xlink:href="../../tables/sitegeopolitical.html" xlink:title="sitegeopolitical" target="_top">
<polygon fill="#ffffff" stroke="transparent" points="277,-89 277,-213 401,-213 401,-89 277,-89"/>
<polygon fill="#f5f5f5" stroke="transparent" points="277,-191 277,-213 401,-213 401,-191 277,-191"/>
<polygon fill="none" stroke="black" points="277,-191 277,-213 401,-213 401,-191 277,-191"/>
<text text-anchor="start" x="282" y="-200.2" font-family="Helvetica,sans-Serif" font-weight="bold" font-size="11.00">sitegeopolitical</text>
<text text-anchor="start" x="366" y="-199.2" font-family="Helvetica,sans-Serif" font-size="11.00">[table]</text>
<polygon fill="none" stroke="black" points="277,-169 277,-191 401,-191 401,-169 277,-169"/>
<image xlink:href="../../images/primaryKeys.png" width="11px" height="12px" preserveAspectRatio="xMinYMin meet" x="282" y="-186"/>
<text text-anchor="start" x="297" y="-177.2" font-family="Helvetica,sans-Serif" font-size="11.00">sitegeopoliticalid</text>
<polygon fill="#ffffff" stroke="transparent" points="277,-147 277,-169 401,-169 401,-147 277,-147"/>
<polygon fill="none" stroke="black" points="277,-147 277,-169 401,-169 401,-147 277,-147"/>
<image xlink:href="../../images/foreignKeys.png" width="11px" height="12px" preserveAspectRatio="xMinYMin meet" x="282" y="-164"/>
<text text-anchor="start" x="297" y="-155.2" font-family="Helvetica,sans-Serif" font-size="11.00">siteid</text>
<polygon fill="#ffffff" stroke="transparent" points="277,-125 277,-147 401,-147 401,-125 277,-125"/>
<polygon fill="none" stroke="black" points="277,-125 277,-147 401,-147 401,-125 277,-125"/>
<image xlink:href="../../images/foreignKeys.png" width="11px" height="12px" preserveAspectRatio="xMinYMin meet" x="282" y="-142"/>
<text text-anchor="start" x="297" y="-133.2" font-family="Helvetica,sans-Serif" font-size="11.00">geopoliticalid</text>
<polygon fill="none" stroke="black" points="277,-107 277,-125 401,-125 401,-107 277,-107"/>
<text text-anchor="start" x="280" y="-113.2" font-family="Helvetica,sans-Serif" font-size="11.00">...</text>
<polygon fill="#ffffff" stroke="transparent" points="277,-89 277,-107 310,-107 310,-89 277,-89"/>
<polygon fill="none" stroke="black" points="277,-89 277,-107 310,-107 310,-89 277,-89"/>
<text text-anchor="start" x="280" y="-95.2" font-family="Helvetica,sans-Serif" font-size="11.00">&lt; 2</text>
<polygon fill="#ffffff" stroke="transparent" points="310,-89 310,-107 382,-107 382,-89 310,-89"/>
<polygon fill="none" stroke="black" points="310,-89 310,-107 382,-107 382,-89 310,-89"/>
<text text-anchor="start" x="319" y="-95.2" font-family="Helvetica,sans-Serif" font-size="11.00">53,305 rows</text>
<polygon fill="#ffffff" stroke="transparent" points="382,-89 382,-107 401,-107 401,-89 382,-89"/>
<polygon fill="none" stroke="black" points="382,-89 382,-107 401,-107 401,-89 382,-89"/>
<text text-anchor="start" x="391" y="-95.2" font-family="Helvetica,sans-Serif" font-size="11.00"> &#160;</text>
</a>
</g>
</g>
<!-- sitegeopolitical&#45;&gt;geopoliticalunits -->
<g id="edge2" class="edge">
<title>sitegeopolitical:w&#45;&gt;geopoliticalunits:e</title>
<path fill="none" stroke="black" d="M262.12,-141.02C246.23,-156.11 256.67,-200 227,-200"/>
<polygon fill="black" stroke="black" points="268.48,-138.72 277.22,-139.39 272.24,-137.36 276,-136 276,-136 276,-136 272.24,-137.36 274.78,-132.61 268.48,-138.72 268.48,-138.72"/>
<ellipse fill="none" stroke="black" cx="265.47" cy="-139.81" rx="3.2" ry="3.2"/>
</g>
</g>
</svg>
