<?xml version="1.0" encoding="UTF-8" standalone="no"?>
<!DOCTYPE svg PUBLIC "-//W3C//DTD SVG 1.1//EN"
 "http://www.w3.org/Graphics/SVG/1.1/DTD/svg11.dtd">
<!-- Generated by graphviz version 2.43.0 (0)
 -->
<!-- Title: oneDegreeRelationshipsDiagramImplied Pages: 1 -->
<svg width="418pt" height="361pt"
 viewBox="0.00 0.00 418.00 361.00" xmlns="http://www.w3.org/2000/svg" xmlns:xlink="http://www.w3.org/1999/xlink">
<g id="graph0" class="graph" transform="scale(1 1) rotate(0) translate(4 357)">
<title>oneDegreeRelationshipsDiagramImplied</title>
<polygon fill="#ffffff" stroke="transparent" points="-4,4 -4,-357 414,-357 414,4 -4,4"/>
<text text-anchor="middle" x="71.5" y="-7.2" font-family="Helvetica,sans-Serif" font-size="11.00">Generated by SchemaSpy</text>
<!-- geopaths -->
<g id="node1" class="node">
<title>geopaths</title>
<g id="a_node1"><a xlink:href="../../tables/geopaths.html" xlink:title="geopaths" target="_top">
<polygon fill="#ffffff" stroke="transparent" points="292,-265 292,-349 387,-349 387,-265 292,-265"/>
<polygon fill="#f5f5f5" stroke="transparent" points="292.5,-327 292.5,-349 387.5,-349 387.5,-327 292.5,-327"/>
<polygon fill="none" stroke="black" points="292.5,-327 292.5,-349 387.5,-349 387.5,-327 292.5,-327"/>
<text text-anchor="start" x="297.5" y="-336.2" font-family="Helvetica,sans-Serif" font-weight="bold" font-size="11.00">geopaths</text>
<text text-anchor="start" x="352.5" y="-335.2" font-family="Helvetica,sans-Serif" font-size="11.00">[table]</text>
<polygon fill="none" stroke="black" points="292.5,-305 292.5,-327 387.5,-327 387.5,-305 292.5,-305"/>
<image xlink:href="../../images/primaryKeys.png" width="11px" height="12px" preserveAspectRatio="xMinYMin meet" x="297.5" y="-322"/>
<text text-anchor="start" x="321.5" y="-313.2" font-family="Helvetica,sans-Serif" font-size="11.00">geoout</text>
<polygon fill="none" stroke="black" points="292.5,-283 292.5,-305 387.5,-305 387.5,-283 292.5,-283"/>
<image xlink:href="../../images/primaryKeys.png" width="11px" height="12px" preserveAspectRatio="xMinYMin meet" x="297.5" y="-300"/>
<text text-anchor="start" x="321.5" y="-291.2" font-family="Helvetica,sans-Serif" font-size="11.00">geoin</text>
<polygon fill="#ffffff" stroke="transparent" points="292.5,-265 292.5,-283 314.5,-283 314.5,-265 292.5,-265"/>
<polygon fill="none" stroke="black" points="292.5,-265 292.5,-283 314.5,-283 314.5,-265 292.5,-265"/>
<text text-anchor="start" x="295.5" y="-271.2" font-family="Helvetica,sans-Serif" font-size="11.00">&lt; 1</text>
<polygon fill="#ffffff" stroke="transparent" points="314.5,-265 314.5,-283 374.5,-283 374.5,-265 314.5,-265"/>
<polygon fill="none" stroke="black" points="314.5,-265 314.5,-283 374.5,-283 374.5,-265 314.5,-265"/>
<text text-anchor="start" x="317.5" y="-271.2" font-family="Helvetica,sans-Serif" font-size="11.00">9,997 rows</text>
<polygon fill="#ffffff" stroke="transparent" points="374.5,-265 374.5,-283 387.5,-283 387.5,-265 374.5,-265"/>
<polygon fill="none" stroke="black" points="374.5,-265 374.5,-283 387.5,-283 387.5,-265 374.5,-265"/>
<text text-anchor="start" x="377.5" y="-271.2" font-family="Helvetica,sans-Serif" font-size="11.00"> &#160;</text>
</a>
</g>
</g>
<!-- geopoliticalunits -->
<g id="node2" class="node">
<title>geopoliticalunits</title>
<g id="a_node2"><a xlink:href="../../tables/geopoliticalunits.html" xlink:title="geopoliticalunits" target="_top">
<polygon fill="#ffffff" stroke="transparent" points="8,-48 8,-246 228,-246 228,-48 8,-48"/>
<polygon fill="#f5f5f5" stroke="transparent" points="10,-222 10,-244 226,-244 226,-222 10,-222"/>
<polygon fill="none" stroke="black" points="10,-222 10,-244 226,-244 226,-222 10,-222"/>
<text text-anchor="start" x="15" y="-231.2" font-family="Helvetica,sans-Serif" font-weight="bold" font-size="11.00">geopoliticalunits</text>
<text text-anchor="start" x="191" y="-230.2" font-family="Helvetica,sans-Serif" font-size="11.00">[table]</text>
<polygon fill="none" stroke="black" points="10,-200 10,-222 152,-222 152,-200 10,-200"/>
<image xlink:href="../../images/primaryKeys.png" width="11px" height="12px" preserveAspectRatio="xMinYMin meet" x="15" y="-217"/>
<text text-anchor="start" x="30" y="-208.2" font-family="Helvetica,sans-Serif" font-size="11.00">geopoliticalid</text>
<polygon fill="none" stroke="black" points="152,-200 152,-222 226,-222 226,-200 152,-200"/>
<text text-anchor="start" x="155" y="-208.2" font-family="Helvetica,sans-Serif" font-size="11.00">serial[10]</text>
<polygon fill="#ffffff" stroke="transparent" points="10,-178 10,-200 152,-200 152,-178 10,-178"/>
<polygon fill="none" stroke="black" points="10,-178 10,-200 152,-200 152,-178 10,-178"/>
<text text-anchor="start" x="30" y="-186.2" font-family="Helvetica,sans-Serif" font-size="11.00">geopoliticalname</text>
<polygon fill="none" stroke="black" points="152,-178 152,-200 226,-200 226,-178 152,-178"/>
<text text-anchor="start" x="155" y="-186.2" font-family="Helvetica,sans-Serif" font-size="11.00">varchar[255]</text>
<polygon fill="none" stroke="black" points="10,-156 10,-178 152,-178 152,-156 10,-156"/>
<text text-anchor="start" x="30" y="-164.2" font-family="Helvetica,sans-Serif" font-size="11.00">geopoliticalunit</text>
<polygon fill="none" stroke="black" points="152,-156 152,-178 226,-178 226,-156 152,-156"/>
<text text-anchor="start" x="155" y="-164.2" font-family="Helvetica,sans-Serif" font-size="11.00">varchar[255]</text>
<polygon fill="#ffffff" stroke="transparent" points="10,-134 10,-156 152,-156 152,-134 10,-134"/>
<polygon fill="none" stroke="black" points="10,-134 10,-156 152,-156 152,-134 10,-134"/>
<text text-anchor="start" x="30" y="-142.2" font-family="Helvetica,sans-Serif" font-size="11.00">rank</text>
<polygon fill="none" stroke="black" points="152,-134 152,-156 226,-156 226,-134 152,-134"/>
<text text-anchor="start" x="155" y="-142.2" font-family="Helvetica,sans-Serif" font-size="11.00">int4[10]</text>
<polygon fill="none" stroke="black" points="10,-112 10,-134 152,-134 152,-112 10,-112"/>
<text text-anchor="start" x="30" y="-120.2" font-family="Helvetica,sans-Serif" font-size="11.00">highergeopoliticalid</text>
<polygon fill="none" stroke="black" points="152,-112 152,-134 226,-134 226,-112 152,-112"/>
<text text-anchor="start" x="155" y="-120.2" font-family="Helvetica,sans-Serif" font-size="11.00">int4[10]</text>
<polygon fill="none" stroke="black" points="10,-90 10,-112 152,-112 152,-90 10,-90"/>
<text text-anchor="start" x="30" y="-98.2" font-family="Helvetica,sans-Serif" font-size="11.00">recdatecreated</text>
<polygon fill="none" stroke="black" points="152,-90 152,-112 226,-112 226,-90 152,-90"/>
<text text-anchor="start" x="155" y="-98.2" font-family="Helvetica,sans-Serif" font-size="11.00">timestamp[22]</text>
<polygon fill="none" stroke="black" points="10,-68 10,-90 152,-90 152,-68 10,-68"/>
<text text-anchor="start" x="30" y="-76.2" font-family="Helvetica,sans-Serif" font-size="11.00">recdatemodified</text>
<polygon fill="none" stroke="black" points="152,-68 152,-90 226,-90 226,-68 152,-68"/>
<text text-anchor="start" x="155" y="-76.2" font-family="Helvetica,sans-Serif" font-size="11.00">timestamp[22]</text>
<polygon fill="#ffffff" stroke="transparent" points="10,-50 10,-68 59,-68 59,-50 10,-50"/>
<polygon fill="none" stroke="black" points="10,-50 10,-68 59,-68 59,-50 10,-50"/>
<text text-anchor="start" x="13" y="-56.2" font-family="Helvetica,sans-Serif" font-size="11.00">&lt; 0</text>
<polygon fill="#ffffff" stroke="transparent" points="59,-50 59,-68 152,-68 152,-50 59,-50"/>
<polygon fill="none" stroke="black" points="59,-50 59,-68 152,-68 152,-50 59,-50"/>
<text text-anchor="start" x="89" y="-56.2" font-family="Helvetica,sans-Serif" font-size="11.00">10,101 rows</text>
<polygon fill="#ffffff" stroke="transparent" points="152,-50 152,-68 226,-68 226,-50 152,-50"/>
<polygon fill="none" stroke="black" points="152,-50 152,-68 226,-68 226,-50 152,-50"/>
<text text-anchor="start" x="207" y="-56.2" font-family="Helvetica,sans-Serif" font-size="11.00">3 &gt;</text>
<polygon fill="none" stroke="black" stroke-width="2" points="9,-49 9,-245 227,-245 227,-49 9,-49"/>
</a>
</g>
</g>
<!-- geopaths&#45;&gt;geopoliticalunits -->
<g id="edge1" class="edge">
<title>geopaths:w&#45;&gt;geopoliticalunits:e</title>
<path fill="none" stroke="black" d="M277.23,-290.43C250.83,-274.55 267.88,-211 227,-211"/>
<polygon fill="black" stroke="black" points="283.74,-292.06 290.63,-297.49 287.62,-293.03 291.5,-294 291.5,-294 291.5,-294 287.62,-293.03 292.37,-290.51 283.74,-292.06 283.74,-292.06"/>
<ellipse fill="none" stroke="black" cx="280.63" cy="-291.28" rx="3.2" ry="3.2"/>
</g>
<!-- geopoldepth -->
<g id="node3" class="node">
<title>geopoldepth</title>
<g id="a_node3"><a xlink:href="../../tables/geopoldepth.html" xlink:title="geopoldepth" target="_top">
<polygon fill="#ffffff" stroke="transparent" points="277,-182 277,-244 402,-244 402,-182 277,-182"/>
<polygon fill="#f5f5f5" stroke="transparent" points="277.5,-222 277.5,-244 402.5,-244 402.5,-222 277.5,-222"/>
<polygon fill="none" stroke="black" points="277.5,-222 277.5,-244 402.5,-244 402.5,-222 277.5,-222"/>
<text text-anchor="start" x="282.5" y="-231.2" font-family="Helvetica,sans-Serif" font-weight="bold" font-size="11.00">geopoldepth</text>
<text text-anchor="start" x="369.5" y="-230.2" font-family="Helvetica,sans-Serif" font-size="11.00">[view]</text>
<polygon fill="none" stroke="black" points="277.5,-200 277.5,-222 402.5,-222 402.5,-200 277.5,-200"/>
<image xlink:href="../../images/foreignKeys.png" width="11px" height="12px" preserveAspectRatio="xMinYMin meet" x="282.5" y="-217"/>
<text text-anchor="start" x="297.5" y="-208.2" font-family="Helvetica,sans-Serif" font-size="11.00">geopoliticalid</text>
<polygon fill="none" stroke="black" points="277.5,-182 277.5,-200 402.5,-200 402.5,-182 277.5,-182"/>
<text text-anchor="start" x="280.5" y="-188.2" font-family="Helvetica,sans-Serif" font-size="11.00">...</text>
</a>
</g>
</g>
<!-- geopoldepth&#45;&gt;geopoliticalunits -->
<g id="edge2" class="edge">
<title>geopoldepth:w&#45;&gt;geopoliticalunits:e</title>
<path fill="none" stroke="black" stroke-dasharray="5,2" d="M261.84,-211C250.41,-211 243.16,-211 227,-211"/>
<polygon fill="black" stroke="black" points="268.5,-211 276.5,-214.6 272.5,-211 276.5,-211 276.5,-211 276.5,-211 272.5,-211 276.5,-207.4 268.5,-211 268.5,-211"/>
<ellipse fill="none" stroke="black" cx="265.3" cy="-211" rx="3.2" ry="3.2"/>
</g>
<!-- sitegeopolitical -->
<g id="node4" class="node">
<title>sitegeopolitical</title>
<g id="a_node4"><a xlink:href="../../tables/sitegeopolitical.html" xlink:title="sitegeopolitical" target="_top">
<polygon fill="#ffffff" stroke="transparent" points="277.5,-37 277.5,-161 401.5,-161 401.5,-37 277.5,-37"/>
<polygon fill="#f5f5f5" stroke="transparent" points="277.5,-139 277.5,-161 401.5,-161 401.5,-139 277.5,-139"/>
<polygon fill="none" stroke="black" points="277.5,-139 277.5,-161 401.5,-161 401.5,-139 277.5,-139"/>
<text text-anchor="start" x="282.5" y="-148.2" font-family="Helvetica,sans-Serif" font-weight="bold" font-size="11.00">sitegeopolitical</text>
<text text-anchor="start" x="366.5" y="-147.2" font-family="Helvetica,sans-Serif" font-size="11.00">[table]</text>
<polygon fill="none" stroke="black" points="277.5,-117 277.5,-139 401.5,-139 401.5,-117 277.5,-117"/>
<image xlink:href="../../images/primaryKeys.png" width="11px" height="12px" preserveAspectRatio="xMinYMin meet" x="282.5" y="-134"/>
<text text-anchor="start" x="297.5" y="-125.2" font-family="Helvetica,sans-Serif" font-size="11.00">sitegeopoliticalid</text>
<polygon fill="#ffffff" stroke="transparent" points="277.5,-95 277.5,-117 401.5,-117 401.5,-95 277.5,-95"/>
<polygon fill="none" stroke="black" points="277.5,-95 277.5,-117 401.5,-117 401.5,-95 277.5,-95"/>
<image xlink:href="../../images/foreignKeys.png" width="11px" height="12px" preserveAspectRatio="xMinYMin meet" x="282.5" y="-112"/>
<text text-anchor="start" x="297.5" y="-103.2" font-family="Helvetica,sans-Serif" font-size="11.00">siteid</text>
<polygon fill="#ffffff" stroke="transparent" points="277.5,-73 277.5,-95 401.5,-95 401.5,-73 277.5,-73"/>
<polygon fill="none" stroke="black" points="277.5,-73 277.5,-95 401.5,-95 401.5,-73 277.5,-73"/>
<image xlink:href="../../images/foreignKeys.png" width="11px" height="12px" preserveAspectRatio="xMinYMin meet" x="282.5" y="-90"/>
<text text-anchor="start" x="297.5" y="-81.2" font-family="Helvetica,sans-Serif" font-size="11.00">geopoliticalid</text>
<polygon fill="none" stroke="black" points="277.5,-55 277.5,-73 401.5,-73 401.5,-55 277.5,-55"/>
<text text-anchor="start" x="280.5" y="-61.2" font-family="Helvetica,sans-Serif" font-size="11.00">...</text>
<polygon fill="#ffffff" stroke="transparent" points="277.5,-37 277.5,-55 310.5,-55 310.5,-37 277.5,-37"/>
<polygon fill="none" stroke="black" points="277.5,-37 277.5,-55 310.5,-55 310.5,-37 277.5,-37"/>
<text text-anchor="start" x="280.5" y="-43.2" font-family="Helvetica,sans-Serif" font-size="11.00">&lt; 2</text>
<polygon fill="#ffffff" stroke="transparent" points="310.5,-37 310.5,-55 382.5,-55 382.5,-37 310.5,-37"/>
<polygon fill="none" stroke="black" points="310.5,-37 310.5,-55 382.5,-55 382.5,-37 310.5,-37"/>
<text text-anchor="start" x="319.5" y="-43.2" font-family="Helvetica,sans-Serif" font-size="11.00">55,744 rows</text>
<polygon fill="#ffffff" stroke="transparent" points="382.5,-37 382.5,-55 401.5,-55 401.5,-37 382.5,-37"/>
<polygon fill="none" stroke="black" points="382.5,-37 382.5,-55 401.5,-55 401.5,-37 382.5,-37"/>
<text text-anchor="start" x="391.5" y="-43.2" font-family="Helvetica,sans-Serif" font-size="11.00"> &#160;</text>
</a>
</g>
</g>
<!-- sitegeopolitical&#45;&gt;geopoliticalunits -->
<g id="edge3" class="edge">
<title>sitegeopolitical:w&#45;&gt;geopoliticalunits:e</title>
<path fill="none" stroke="black" d="M262.29,-87.4C228.65,-107.59 281.66,-211 227,-211"/>
<polygon fill="black" stroke="black" points="268.72,-85.86 277.34,-87.5 272.61,-84.93 276.5,-84 276.5,-84 276.5,-84 272.61,-84.93 275.66,-80.5 268.72,-85.86 268.72,-85.86"/>
<ellipse fill="none" stroke="black" cx="265.61" cy="-86.6" rx="3.2" ry="3.2"/>
</g>
</g>
</svg>
