<?xml version="1.0" encoding="UTF-8" standalone="no"?>
<!DOCTYPE svg PUBLIC "-//W3C//DTD SVG 1.1//EN"
 "http://www.w3.org/Graphics/SVG/1.1/DTD/svg11.dtd">
<!-- Generated by graphviz version 2.43.0 (0)
 -->
<!-- Title: twoDegreesRelationshipsDiagramImplied Pages: 1 -->
<svg width="418pt" height="376pt"
 viewBox="0.00 0.00 418.00 376.00" xmlns="http://www.w3.org/2000/svg" xmlns:xlink="http://www.w3.org/1999/xlink">
<g id="graph0" class="graph" transform="scale(1 1) rotate(0) translate(4 372)">
<title>twoDegreesRelationshipsDiagramImplied</title>
<polygon fill="#ffffff" stroke="transparent" points="-4,4 -4,-372 414,-372 414,4 -4,4"/>
<text text-anchor="middle" x="71.5" y="-7.2" font-family="Helvetica,sans-Serif" font-size="11.00">Generated by SchemaSpy</text>
<!-- geopaths -->
<g id="node1" class="node">
<title>geopaths</title>
<g id="a_node1"><a xlink:href="../../tables/geopaths.html" xlink:title="geopaths" target="_top">
<polygon fill="#ffffff" stroke="transparent" points="292,-197 292,-281 387,-281 387,-197 292,-197"/>
<polygon fill="#f5f5f5" stroke="transparent" points="292.5,-259 292.5,-281 387.5,-281 387.5,-259 292.5,-259"/>
<polygon fill="none" stroke="black" points="292.5,-259 292.5,-281 387.5,-281 387.5,-259 292.5,-259"/>
<text text-anchor="start" x="297.5" y="-268.2" font-family="Helvetica,sans-Serif" font-weight="bold" font-size="11.00">geopaths</text>
<text text-anchor="start" x="352.5" y="-267.2" font-family="Helvetica,sans-Serif" font-size="11.00">[table]</text>
<polygon fill="none" stroke="black" points="292.5,-237 292.5,-259 387.5,-259 387.5,-237 292.5,-237"/>
<image xlink:href="../../images/primaryKeys.png" width="11px" height="12px" preserveAspectRatio="xMinYMin meet" x="297.5" y="-254"/>
<text text-anchor="start" x="321.5" y="-245.2" font-family="Helvetica,sans-Serif" font-size="11.00">geoout</text>
<polygon fill="none" stroke="black" points="292.5,-215 292.5,-237 387.5,-237 387.5,-215 292.5,-215"/>
<image xlink:href="../../images/primaryKeys.png" width="11px" height="12px" preserveAspectRatio="xMinYMin meet" x="297.5" y="-232"/>
<text text-anchor="start" x="321.5" y="-223.2" font-family="Helvetica,sans-Serif" font-size="11.00">geoin</text>
<polygon fill="#ffffff" stroke="transparent" points="292.5,-197 292.5,-215 314.5,-215 314.5,-197 292.5,-197"/>
<polygon fill="none" stroke="black" points="292.5,-197 292.5,-215 314.5,-215 314.5,-197 292.5,-197"/>
<text text-anchor="start" x="295.5" y="-203.2" font-family="Helvetica,sans-Serif" font-size="11.00">&lt; 1</text>
<polygon fill="#ffffff" stroke="transparent" points="314.5,-197 314.5,-215 374.5,-215 374.5,-197 314.5,-197"/>
<polygon fill="none" stroke="black" points="314.5,-197 314.5,-215 374.5,-215 374.5,-197 314.5,-197"/>
<text text-anchor="start" x="317.5" y="-203.2" font-family="Helvetica,sans-Serif" font-size="11.00">9,997 rows</text>
<polygon fill="#ffffff" stroke="transparent" points="374.5,-197 374.5,-215 387.5,-215 387.5,-197 374.5,-197"/>
<polygon fill="none" stroke="black" points="374.5,-197 374.5,-215 387.5,-215 387.5,-197 374.5,-197"/>
<text text-anchor="start" x="377.5" y="-203.2" font-family="Helvetica,sans-Serif" font-size="11.00"> &#160;</text>
</a>
</g>
</g>
<!-- geopoliticalunits -->
<g id="node2" class="node">
<title>geopoliticalunits</title>
<g id="a_node2"><a xlink:href="../../tables/geopoliticalunits.html" xlink:title="geopoliticalunits" target="_top">
<polygon fill="#ffffff" stroke="transparent" points="8,-116 8,-314 228,-314 228,-116 8,-116"/>
<polygon fill="#f5f5f5" stroke="transparent" points="10,-290 10,-312 226,-312 226,-290 10,-290"/>
<polygon fill="none" stroke="black" points="10,-290 10,-312 226,-312 226,-290 10,-290"/>
<text text-anchor="start" x="15" y="-299.2" font-family="Helvetica,sans-Serif" font-weight="bold" font-size="11.00">geopoliticalunits</text>
<text text-anchor="start" x="191" y="-298.2" font-family="Helvetica,sans-Serif" font-size="11.00">[table]</text>
<polygon fill="none" stroke="black" points="10,-268 10,-290 152,-290 152,-268 10,-268"/>
<image xlink:href="../../images/primaryKeys.png" width="11px" height="12px" preserveAspectRatio="xMinYMin meet" x="15" y="-285"/>
<text text-anchor="start" x="30" y="-276.2" font-family="Helvetica,sans-Serif" font-size="11.00">geopoliticalid</text>
<polygon fill="none" stroke="black" points="152,-268 152,-290 226,-290 226,-268 152,-268"/>
<text text-anchor="start" x="155" y="-276.2" font-family="Helvetica,sans-Serif" font-size="11.00">serial[10]</text>
<polygon fill="#ffffff" stroke="transparent" points="10,-246 10,-268 152,-268 152,-246 10,-246"/>
<polygon fill="none" stroke="black" points="10,-246 10,-268 152,-268 152,-246 10,-246"/>
<text text-anchor="start" x="30" y="-254.2" font-family="Helvetica,sans-Serif" font-size="11.00">geopoliticalname</text>
<polygon fill="none" stroke="black" points="152,-246 152,-268 226,-268 226,-246 152,-246"/>
<text text-anchor="start" x="155" y="-254.2" font-family="Helvetica,sans-Serif" font-size="11.00">varchar[255]</text>
<polygon fill="none" stroke="black" points="10,-224 10,-246 152,-246 152,-224 10,-224"/>
<text text-anchor="start" x="30" y="-232.2" font-family="Helvetica,sans-Serif" font-size="11.00">geopoliticalunit</text>
<polygon fill="none" stroke="black" points="152,-224 152,-246 226,-246 226,-224 152,-224"/>
<text text-anchor="start" x="155" y="-232.2" font-family="Helvetica,sans-Serif" font-size="11.00">varchar[255]</text>
<polygon fill="#ffffff" stroke="transparent" points="10,-202 10,-224 152,-224 152,-202 10,-202"/>
<polygon fill="none" stroke="black" points="10,-202 10,-224 152,-224 152,-202 10,-202"/>
<text text-anchor="start" x="30" y="-210.2" font-family="Helvetica,sans-Serif" font-size="11.00">rank</text>
<polygon fill="none" stroke="black" points="152,-202 152,-224 226,-224 226,-202 152,-202"/>
<text text-anchor="start" x="155" y="-210.2" font-family="Helvetica,sans-Serif" font-size="11.00">int4[10]</text>
<polygon fill="none" stroke="black" points="10,-180 10,-202 152,-202 152,-180 10,-180"/>
<text text-anchor="start" x="30" y="-188.2" font-family="Helvetica,sans-Serif" font-size="11.00">highergeopoliticalid</text>
<polygon fill="none" stroke="black" points="152,-180 152,-202 226,-202 226,-180 152,-180"/>
<text text-anchor="start" x="155" y="-188.2" font-family="Helvetica,sans-Serif" font-size="11.00">int4[10]</text>
<polygon fill="none" stroke="black" points="10,-158 10,-180 152,-180 152,-158 10,-158"/>
<text text-anchor="start" x="30" y="-166.2" font-family="Helvetica,sans-Serif" font-size="11.00">recdatecreated</text>
<polygon fill="none" stroke="black" points="152,-158 152,-180 226,-180 226,-158 152,-158"/>
<text text-anchor="start" x="155" y="-166.2" font-family="Helvetica,sans-Serif" font-size="11.00">timestamp[22]</text>
<polygon fill="none" stroke="black" points="10,-136 10,-158 152,-158 152,-136 10,-136"/>
<text text-anchor="start" x="30" y="-144.2" font-family="Helvetica,sans-Serif" font-size="11.00">recdatemodified</text>
<polygon fill="none" stroke="black" points="152,-136 152,-158 226,-158 226,-136 152,-136"/>
<text text-anchor="start" x="155" y="-144.2" font-family="Helvetica,sans-Serif" font-size="11.00">timestamp[22]</text>
<polygon fill="#ffffff" stroke="transparent" points="10,-118 10,-136 59,-136 59,-118 10,-118"/>
<polygon fill="none" stroke="black" points="10,-118 10,-136 59,-136 59,-118 10,-118"/>
<text text-anchor="start" x="13" y="-124.2" font-family="Helvetica,sans-Serif" font-size="11.00">&lt; 0</text>
<polygon fill="#ffffff" stroke="transparent" points="59,-118 59,-136 152,-136 152,-118 59,-118"/>
<polygon fill="none" stroke="black" points="59,-118 59,-136 152,-136 152,-118 59,-118"/>
<text text-anchor="start" x="89" y="-124.2" font-family="Helvetica,sans-Serif" font-size="11.00">10,097 rows</text>
<polygon fill="#ffffff" stroke="transparent" points="152,-118 152,-136 226,-136 226,-118 152,-118"/>
<polygon fill="none" stroke="black" points="152,-118 152,-136 226,-136 226,-118 152,-118"/>
<text text-anchor="start" x="207" y="-124.2" font-family="Helvetica,sans-Serif" font-size="11.00">3 &gt;</text>
<polygon fill="none" stroke="black" stroke-width="2" points="9,-117 9,-313 227,-313 227,-117 9,-117"/>
</a>
</g>
</g>
<!-- geopaths&#45;&gt;geopoliticalunits -->
<g id="edge1" class="edge">
<title>geopaths:w&#45;&gt;geopoliticalunits:e</title>
<path fill="none" stroke="black" d="M277.47,-229.32C256.27,-240.92 258.45,-279 227,-279"/>
<polygon fill="black" stroke="black" points="283.71,-227.84 292.33,-229.5 287.61,-226.92 291.5,-226 291.5,-226 291.5,-226 287.61,-226.92 290.67,-222.5 283.71,-227.84 283.71,-227.84"/>
<ellipse fill="none" stroke="black" cx="280.6" cy="-228.58" rx="3.2" ry="3.2"/>
</g>
<!-- geopoldepth -->
<g id="node3" class="node">
<title>geopoldepth</title>
<g id="a_node3"><a xlink:href="../../tables/geopoldepth.html" xlink:title="geopoldepth" target="_top">
<polygon fill="#ffffff" stroke="transparent" points="277,-302 277,-364 402,-364 402,-302 277,-302"/>
<polygon fill="#f5f5f5" stroke="transparent" points="277.5,-342 277.5,-364 402.5,-364 402.5,-342 277.5,-342"/>
<polygon fill="none" stroke="black" points="277.5,-342 277.5,-364 402.5,-364 402.5,-342 277.5,-342"/>
<text text-anchor="start" x="282.5" y="-351.2" font-family="Helvetica,sans-Serif" font-weight="bold" font-size="11.00">geopoldepth</text>
<text text-anchor="start" x="369.5" y="-350.2" font-family="Helvetica,sans-Serif" font-size="11.00">[view]</text>
<polygon fill="none" stroke="black" points="277.5,-320 277.5,-342 402.5,-342 402.5,-320 277.5,-320"/>
<image xlink:href="../../images/foreignKeys.png" width="11px" height="12px" preserveAspectRatio="xMinYMin meet" x="282.5" y="-337"/>
<text text-anchor="start" x="297.5" y="-328.2" font-family="Helvetica,sans-Serif" font-size="11.00">geopoliticalid</text>
<polygon fill="none" stroke="black" points="277.5,-302 277.5,-320 402.5,-320 402.5,-302 277.5,-302"/>
<text text-anchor="start" x="280.5" y="-308.2" font-family="Helvetica,sans-Serif" font-size="11.00">...</text>
</a>
</g>
</g>
<!-- geopoldepth&#45;&gt;geopoliticalunits -->
<g id="edge2" class="edge">
<title>geopoldepth:w&#45;&gt;geopoliticalunits:e</title>
<path fill="none" stroke="black" stroke-dasharray="5,2" d="M262.82,-326.2C248.34,-313.33 252.93,-279 227,-279"/>
<polygon fill="black" stroke="black" points="268.95,-328.35 275.31,-334.4 272.73,-329.68 276.5,-331 276.5,-331 276.5,-331 272.73,-329.68 277.69,-327.6 268.95,-328.35 268.95,-328.35"/>
<ellipse fill="none" stroke="black" cx="265.93" cy="-327.29" rx="3.2" ry="3.2"/>
</g>
<!-- sitegeopolitical -->
<g id="node4" class="node">
<title>sitegeopolitical</title>
<g id="a_node4"><a xlink:href="../../tables/sitegeopolitical.html" xlink:title="sitegeopolitical" target="_top">
<polygon fill="#ffffff" stroke="transparent" points="277.5,-50 277.5,-174 401.5,-174 401.5,-50 277.5,-50"/>
<polygon fill="#f5f5f5" stroke="transparent" points="277.5,-152 277.5,-174 401.5,-174 401.5,-152 277.5,-152"/>
<polygon fill="none" stroke="black" points="277.5,-152 277.5,-174 401.5,-174 401.5,-152 277.5,-152"/>
<text text-anchor="start" x="282.5" y="-161.2" font-family="Helvetica,sans-Serif" font-weight="bold" font-size="11.00">sitegeopolitical</text>
<text text-anchor="start" x="366.5" y="-160.2" font-family="Helvetica,sans-Serif" font-size="11.00">[table]</text>
<polygon fill="none" stroke="black" points="277.5,-130 277.5,-152 401.5,-152 401.5,-130 277.5,-130"/>
<image xlink:href="../../images/primaryKeys.png" width="11px" height="12px" preserveAspectRatio="xMinYMin meet" x="282.5" y="-147"/>
<text text-anchor="start" x="297.5" y="-138.2" font-family="Helvetica,sans-Serif" font-size="11.00">sitegeopoliticalid</text>
<polygon fill="#ffffff" stroke="transparent" points="277.5,-108 277.5,-130 401.5,-130 401.5,-108 277.5,-108"/>
<polygon fill="none" stroke="black" points="277.5,-108 277.5,-130 401.5,-130 401.5,-108 277.5,-108"/>
<image xlink:href="../../images/foreignKeys.png" width="11px" height="12px" preserveAspectRatio="xMinYMin meet" x="282.5" y="-125"/>
<text text-anchor="start" x="297.5" y="-116.2" font-family="Helvetica,sans-Serif" font-size="11.00">siteid</text>
<polygon fill="#ffffff" stroke="transparent" points="277.5,-86 277.5,-108 401.5,-108 401.5,-86 277.5,-86"/>
<polygon fill="none" stroke="black" points="277.5,-86 277.5,-108 401.5,-108 401.5,-86 277.5,-86"/>
<image xlink:href="../../images/foreignKeys.png" width="11px" height="12px" preserveAspectRatio="xMinYMin meet" x="282.5" y="-103"/>
<text text-anchor="start" x="297.5" y="-94.2" font-family="Helvetica,sans-Serif" font-size="11.00">geopoliticalid</text>
<polygon fill="none" stroke="black" points="277.5,-68 277.5,-86 401.5,-86 401.5,-68 277.5,-68"/>
<text text-anchor="start" x="280.5" y="-74.2" font-family="Helvetica,sans-Serif" font-size="11.00">...</text>
<polygon fill="#ffffff" stroke="transparent" points="277.5,-50 277.5,-68 310.5,-68 310.5,-50 277.5,-50"/>
<polygon fill="none" stroke="black" points="277.5,-50 277.5,-68 310.5,-68 310.5,-50 277.5,-50"/>
<text text-anchor="start" x="280.5" y="-56.2" font-family="Helvetica,sans-Serif" font-size="11.00">&lt; 2</text>
<polygon fill="#ffffff" stroke="transparent" points="310.5,-50 310.5,-68 382.5,-68 382.5,-50 310.5,-50"/>
<polygon fill="none" stroke="black" points="310.5,-50 310.5,-68 382.5,-68 382.5,-50 310.5,-50"/>
<text text-anchor="start" x="319.5" y="-56.2" font-family="Helvetica,sans-Serif" font-size="11.00">53,305 rows</text>
<polygon fill="#ffffff" stroke="transparent" points="382.5,-50 382.5,-68 401.5,-68 401.5,-50 382.5,-50"/>
<polygon fill="none" stroke="black" points="382.5,-50 382.5,-68 401.5,-68 401.5,-50 382.5,-50"/>
<text text-anchor="start" x="391.5" y="-56.2" font-family="Helvetica,sans-Serif" font-size="11.00"> &#160;</text>
</a>
</g>
</g>
<!-- sitegeopolitical&#45;&gt;geopoliticalunits -->
<g id="edge3" class="edge">
<title>sitegeopolitical:w&#45;&gt;geopoliticalunits:e</title>
<path fill="none" stroke="black" d="M262.01,-99.44C207.88,-121.03 305.1,-279 227,-279"/>
<polygon fill="black" stroke="black" points="268.61,-98.33 277.1,-100.55 272.56,-97.66 276.5,-97 276.5,-97 276.5,-97 272.56,-97.66 275.9,-93.45 268.61,-98.33 268.61,-98.33"/>
<ellipse fill="none" stroke="black" cx="265.45" cy="-98.86" rx="3.2" ry="3.2"/>
</g>
<!-- sites -->
<g id="node5" class="node">
<title>sites</title>
<g id="a_node5"><a xlink:href="../../tables/sites.html" xlink:title="sites" target="_top">
<polygon fill="#ffffff" stroke="transparent" points="67.5,-37 67.5,-95 168.5,-95 168.5,-37 67.5,-37"/>
<polygon fill="#f5f5f5" stroke="transparent" points="68,-73 68,-95 169,-95 169,-73 68,-73"/>
<polygon fill="none" stroke="black" points="68,-73 68,-95 169,-95 169,-73 68,-73"/>
<text text-anchor="start" x="73" y="-82.2" font-family="Helvetica,sans-Serif" font-weight="bold" font-size="11.00">sites</text>
<text text-anchor="start" x="134" y="-81.2" font-family="Helvetica,sans-Serif" font-size="11.00">[table]</text>
<polygon fill="none" stroke="black" points="68,-55 68,-73 169,-73 169,-55 68,-55"/>
<text text-anchor="start" x="71" y="-61.2" font-family="Helvetica,sans-Serif" font-size="11.00">...</text>
<polygon fill="#ffffff" stroke="transparent" points="68,-37 68,-55 81,-55 81,-37 68,-37"/>
<polygon fill="none" stroke="black" points="68,-37 68,-55 81,-55 81,-37 68,-37"/>
<text text-anchor="start" x="71" y="-43.2" font-family="Helvetica,sans-Serif" font-size="11.00"> &#160;</text>
<polygon fill="#ffffff" stroke="transparent" points="81,-37 81,-55 147,-55 147,-37 81,-37"/>
<polygon fill="none" stroke="black" points="81,-37 81,-55 147,-55 147,-37 81,-37"/>
<text text-anchor="start" x="84" y="-43.2" font-family="Helvetica,sans-Serif" font-size="11.00">21,776 rows</text>
<polygon fill="#ffffff" stroke="transparent" points="147,-37 147,-55 169,-55 169,-37 147,-37"/>
<polygon fill="none" stroke="black" points="147,-37 147,-55 169,-55 169,-37 147,-37"/>
<text text-anchor="start" x="150" y="-43.2" font-family="Helvetica,sans-Serif" font-size="11.00">4 &gt;</text>
</a>
</g>
</g>
<!-- sitegeopolitical&#45;&gt;sites -->
<g id="edge4" class="edge">
<title>sitegeopolitical:w&#45;&gt;sites:e</title>
<path fill="none" stroke="black" d="M262.06,-117.47C222.71,-108.59 217.97,-64 170,-64"/>
<polygon fill="black" stroke="black" points="268.54,-118.16 276.12,-122.58 272.52,-118.58 276.5,-119 276.5,-119 276.5,-119 272.52,-118.58 276.88,-115.42 268.54,-118.16 268.54,-118.16"/>
<ellipse fill="none" stroke="black" cx="265.36" cy="-117.82" rx="3.2" ry="3.2"/>
</g>
</g>
</svg>
