<?xml version="1.0" encoding="UTF-8" standalone="no"?>
<!DOCTYPE svg PUBLIC "-//W3C//DTD SVG 1.1//EN"
 "http://www.w3.org/Graphics/SVG/1.1/DTD/svg11.dtd">
<!-- Generated by graphviz version 2.43.0 (0)
 -->
<!-- Title: oneDegreeRelationshipsDiagramImplied Pages: 1 -->
<svg width="411pt" height="185pt"
 viewBox="0.00 0.00 411.00 185.00" xmlns="http://www.w3.org/2000/svg" xmlns:xlink="http://www.w3.org/1999/xlink">
<g id="graph0" class="graph" transform="scale(1 1) rotate(0) translate(4 181)">
<title>oneDegreeRelationshipsDiagramImplied</title>
<polygon fill="#ffffff" stroke="transparent" points="-4,4 -4,-181 407,-181 407,4 -4,4"/>
<text text-anchor="middle" x="71.5" y="-7.2" font-family="Helvetica,sans-Serif" font-size="11.00">Generated by SchemaSpy</text>
<!-- geopoldepth -->
<g id="node1" class="node">
<title>geopoldepth</title>
<g id="a_node1"><a xlink:href="../../tables/geopoldepth.html" xlink:title="geopoldepth" target="_top">
<polygon fill="#ffffff" stroke="transparent" points="199,-37 199,-173 395,-173 395,-37 199,-37"/>
<polygon fill="#f5f5f5" stroke="transparent" points="201,-149 201,-171 393,-171 393,-149 201,-149"/>
<polygon fill="none" stroke="black" points="201,-149 201,-171 393,-171 393,-149 201,-149"/>
<text text-anchor="start" x="206" y="-158.2" font-family="Helvetica,sans-Serif" font-weight="bold" font-size="11.00">geopoldepth</text>
<text text-anchor="start" x="360" y="-157.2" font-family="Helvetica,sans-Serif" font-size="11.00">[view]</text>
<polygon fill="none" stroke="black" points="201,-127 201,-149 326,-149 326,-127 201,-127"/>
<image xlink:href="../../images/foreignKeys.png" width="11px" height="12px" preserveAspectRatio="xMinYMin meet" x="206" y="-144"/>
<text text-anchor="start" x="221" y="-135.2" font-family="Helvetica,sans-Serif" font-size="11.00">geopoliticalid</text>
<polygon fill="none" stroke="black" points="326,-127 326,-149 393,-149 393,-127 326,-127"/>
<text text-anchor="start" x="329" y="-135.2" font-family="Helvetica,sans-Serif" font-size="11.00">int4[10]</text>
<polygon fill="none" stroke="black" points="201,-105 201,-127 326,-127 326,-105 201,-105"/>
<text text-anchor="start" x="221" y="-113.2" font-family="Helvetica,sans-Serif" font-size="11.00">geopoliticalname</text>
<polygon fill="none" stroke="black" points="326,-105 326,-127 393,-127 393,-105 326,-105"/>
<text text-anchor="start" x="329" y="-113.2" font-family="Helvetica,sans-Serif" font-size="11.00">varchar[255]</text>
<polygon fill="none" stroke="black" points="201,-83 201,-105 326,-105 326,-83 201,-83"/>
<text text-anchor="start" x="221" y="-91.2" font-family="Helvetica,sans-Serif" font-size="11.00">geopoliticalunit</text>
<polygon fill="none" stroke="black" points="326,-83 326,-105 393,-105 393,-83 326,-83"/>
<text text-anchor="start" x="329" y="-91.2" font-family="Helvetica,sans-Serif" font-size="11.00">varchar[255]</text>
<polygon fill="none" stroke="black" points="201,-61 201,-83 326,-83 326,-61 201,-61"/>
<text text-anchor="start" x="221" y="-69.2" font-family="Helvetica,sans-Serif" font-size="11.00">rank</text>
<polygon fill="none" stroke="black" points="326,-61 326,-83 393,-83 393,-61 326,-61"/>
<text text-anchor="start" x="329" y="-69.2" font-family="Helvetica,sans-Serif" font-size="11.00">int4[10]</text>
<polygon fill="none" stroke="black" points="201,-39 201,-61 326,-61 326,-39 201,-39"/>
<text text-anchor="start" x="221" y="-47.2" font-family="Helvetica,sans-Serif" font-size="11.00">path</text>
<polygon fill="none" stroke="black" points="326,-39 326,-61 393,-61 393,-39 326,-39"/>
<text text-anchor="start" x="329" y="-47.2" font-family="Helvetica,sans-Serif" font-size="11.00">_int4[10]</text>
<polygon fill="none" stroke="black" stroke-width="2" points="200,-38 200,-172 394,-172 394,-38 200,-38"/>
</a>
</g>
</g>
<!-- geopoliticalunits -->
<g id="node2" class="node">
<title>geopoliticalunits</title>
<g id="a_node2"><a xlink:href="../../tables/geopoliticalunits.html" xlink:title="geopoliticalunits" target="_top">
<polygon fill="#ffffff" stroke="transparent" points="8,-47 8,-171 150,-171 150,-47 8,-47"/>
<polygon fill="#f5f5f5" stroke="transparent" points="8,-149 8,-171 150,-171 150,-149 8,-149"/>
<polygon fill="none" stroke="black" points="8,-149 8,-171 150,-171 150,-149 8,-149"/>
<text text-anchor="start" x="13" y="-158.2" font-family="Helvetica,sans-Serif" font-weight="bold" font-size="11.00">geopoliticalunits</text>
<text text-anchor="start" x="115" y="-157.2" font-family="Helvetica,sans-Serif" font-size="11.00">[table]</text>
<polygon fill="none" stroke="black" points="8,-127 8,-149 150,-149 150,-127 8,-127"/>
<image xlink:href="../../images/primaryKeys.png" width="11px" height="12px" preserveAspectRatio="xMinYMin meet" x="13" y="-144"/>
<text text-anchor="start" x="28" y="-135.2" font-family="Helvetica,sans-Serif" font-size="11.00">geopoliticalid</text>
<polygon fill="#ffffff" stroke="transparent" points="8,-105 8,-127 150,-127 150,-105 8,-105"/>
<polygon fill="none" stroke="black" points="8,-105 8,-127 150,-127 150,-105 8,-105"/>
<text text-anchor="start" x="28" y="-113.2" font-family="Helvetica,sans-Serif" font-size="11.00">geopoliticalname</text>
<polygon fill="#ffffff" stroke="transparent" points="8,-83 8,-105 150,-105 150,-83 8,-83"/>
<polygon fill="none" stroke="black" points="8,-83 8,-105 150,-105 150,-83 8,-83"/>
<text text-anchor="start" x="28" y="-91.2" font-family="Helvetica,sans-Serif" font-size="11.00">rank</text>
<polygon fill="none" stroke="black" points="8,-65 8,-83 150,-83 150,-65 8,-65"/>
<text text-anchor="start" x="11" y="-71.2" font-family="Helvetica,sans-Serif" font-size="11.00">...</text>
<polygon fill="#ffffff" stroke="transparent" points="8,-47 8,-65 41,-65 41,-47 8,-47"/>
<polygon fill="none" stroke="black" points="8,-47 8,-65 41,-65 41,-47 8,-47"/>
<text text-anchor="start" x="11" y="-53.2" font-family="Helvetica,sans-Serif" font-size="11.00"> &#160;</text>
<polygon fill="#ffffff" stroke="transparent" points="41,-47 41,-65 117,-65 117,-47 41,-47"/>
<polygon fill="none" stroke="black" points="41,-47 41,-65 117,-65 117,-47 41,-47"/>
<text text-anchor="start" x="54" y="-53.2" font-family="Helvetica,sans-Serif" font-size="11.00">10,097 rows</text>
<polygon fill="#ffffff" stroke="transparent" points="117,-47 117,-65 150,-65 150,-47 117,-47"/>
<polygon fill="none" stroke="black" points="117,-47 117,-65 150,-65 150,-47 117,-47"/>
<text text-anchor="start" x="131" y="-53.2" font-family="Helvetica,sans-Serif" font-size="11.00">3 &gt;</text>
</a>
</g>
</g>
<!-- geopoldepth&#45;&gt;geopoliticalunits -->
<g id="edge1" class="edge">
<title>geopoldepth:w&#45;&gt;geopoliticalunits:e</title>
<path fill="none" stroke="black" stroke-dasharray="5,2" d="M185.49,-138C174.18,-138 166.99,-138 151,-138"/>
<polygon fill="black" stroke="black" points="192,-138 200,-141.6 196,-138 200,-138 200,-138 200,-138 196,-138 200,-134.4 192,-138 192,-138"/>
<ellipse fill="none" stroke="black" cx="188.8" cy="-138" rx="3.2" ry="3.2"/>
</g>
</g>
</svg>
