<?xml version="1.0" encoding="UTF-8" standalone="no"?>
<!DOCTYPE svg PUBLIC "-//W3C//DTD SVG 1.1//EN"
 "http://www.w3.org/Graphics/SVG/1.1/DTD/svg11.dtd">
<!-- Generated by graphviz version 2.43.0 (0)
 -->
<!-- Title: twoDegreesRelationshipsDiagram Pages: 1 -->
<svg width="349pt" height="239pt"
 viewBox="0.00 0.00 349.00 239.00" xmlns="http://www.w3.org/2000/svg" xmlns:xlink="http://www.w3.org/1999/xlink">
<g id="graph0" class="graph" transform="scale(1 1) rotate(0) translate(4 235)">
<title>twoDegreesRelationshipsDiagram</title>
<polygon fill="#ffffff" stroke="transparent" points="-4,4 -4,-235 345,-235 345,4 -4,4"/>
<text text-anchor="middle" x="71.5" y="-7.2" font-family="Helvetica,sans-Serif" font-size="11.00">Generated by SchemaSpy</text>
<!-- geopaths -->
<g id="node1" class="node">
<title>geopaths</title>
<g id="a_node1"><a xlink:href="../../tables/geopaths.html" xlink:title="geopaths" target="_top">
<polygon fill="#ffffff" stroke="transparent" points="199,-139 199,-227 333,-227 333,-139 199,-139"/>
<polygon fill="#f5f5f5" stroke="transparent" points="201,-203 201,-225 331,-225 331,-203 201,-203"/>
<polygon fill="none" stroke="black" points="201,-203 201,-225 331,-225 331,-203 201,-203"/>
<text text-anchor="start" x="206" y="-212.2" font-family="Helvetica,sans-Serif" font-weight="bold" font-size="11.00">geopaths</text>
<text text-anchor="start" x="296" y="-211.2" font-family="Helvetica,sans-Serif" font-size="11.00">[table]</text>
<polygon fill="none" stroke="black" points="201,-181 201,-203 283,-203 283,-181 201,-181"/>
<image xlink:href="../../images/primaryKeys.png" width="11px" height="12px" preserveAspectRatio="xMinYMin meet" x="206" y="-198"/>
<text text-anchor="start" x="224" y="-189.2" font-family="Helvetica,sans-Serif" font-size="11.00">geoout</text>
<polygon fill="none" stroke="black" points="283,-181 283,-203 331,-203 331,-181 283,-181"/>
<text text-anchor="start" x="286" y="-189.2" font-family="Helvetica,sans-Serif" font-size="11.00">_int4[10]</text>
<polygon fill="none" stroke="black" points="201,-159 201,-181 283,-181 283,-159 201,-159"/>
<image xlink:href="../../images/primaryKeys.png" width="11px" height="12px" preserveAspectRatio="xMinYMin meet" x="206" y="-176"/>
<text text-anchor="start" x="224" y="-167.2" font-family="Helvetica,sans-Serif" font-size="11.00">geoin</text>
<polygon fill="none" stroke="black" points="283,-159 283,-181 331,-181 331,-159 283,-159"/>
<text text-anchor="start" x="286" y="-167.2" font-family="Helvetica,sans-Serif" font-size="11.00">int8[19]</text>
<polygon fill="#ffffff" stroke="transparent" points="201,-141 201,-159 223,-159 223,-141 201,-141"/>
<polygon fill="none" stroke="black" points="201,-141 201,-159 223,-159 223,-141 201,-141"/>
<text text-anchor="start" x="204" y="-147.2" font-family="Helvetica,sans-Serif" font-size="11.00">&lt; 1</text>
<polygon fill="#ffffff" stroke="transparent" points="223,-141 223,-159 283,-159 283,-141 223,-141"/>
<polygon fill="none" stroke="black" points="223,-141 223,-159 283,-159 283,-141 223,-141"/>
<text text-anchor="start" x="226" y="-147.2" font-family="Helvetica,sans-Serif" font-size="11.00">9,997 rows</text>
<polygon fill="#ffffff" stroke="transparent" points="283,-141 283,-159 331,-159 331,-141 283,-141"/>
<polygon fill="none" stroke="black" points="283,-141 283,-159 331,-159 331,-141 283,-141"/>
<text text-anchor="start" x="312" y="-147.2" font-family="Helvetica,sans-Serif" font-size="11.00">0 &gt;</text>
<polygon fill="none" stroke="black" stroke-width="2" points="200,-140 200,-226 332,-226 332,-140 200,-140"/>
</a>
</g>
</g>
<!-- geopoliticalunits -->
<g id="node2" class="node">
<title>geopoliticalunits</title>
<g id="a_node2"><a xlink:href="../../tables/geopoliticalunits.html" xlink:title="geopoliticalunits" target="_top">
<polygon fill="#ffffff" stroke="transparent" points="8,-37 8,-161 150,-161 150,-37 8,-37"/>
<polygon fill="#f5f5f5" stroke="transparent" points="8,-139 8,-161 150,-161 150,-139 8,-139"/>
<polygon fill="none" stroke="black" points="8,-139 8,-161 150,-161 150,-139 8,-139"/>
<text text-anchor="start" x="13" y="-148.2" font-family="Helvetica,sans-Serif" font-weight="bold" font-size="11.00">geopoliticalunits</text>
<text text-anchor="start" x="115" y="-147.2" font-family="Helvetica,sans-Serif" font-size="11.00">[table]</text>
<polygon fill="none" stroke="black" points="8,-117 8,-139 150,-139 150,-117 8,-117"/>
<image xlink:href="../../images/primaryKeys.png" width="11px" height="12px" preserveAspectRatio="xMinYMin meet" x="13" y="-134"/>
<text text-anchor="start" x="28" y="-125.2" font-family="Helvetica,sans-Serif" font-size="11.00">geopoliticalid</text>
<polygon fill="#ffffff" stroke="transparent" points="8,-95 8,-117 150,-117 150,-95 8,-95"/>
<polygon fill="none" stroke="black" points="8,-95 8,-117 150,-117 150,-95 8,-95"/>
<text text-anchor="start" x="28" y="-103.2" font-family="Helvetica,sans-Serif" font-size="11.00">geopoliticalname</text>
<polygon fill="#ffffff" stroke="transparent" points="8,-73 8,-95 150,-95 150,-73 8,-73"/>
<polygon fill="none" stroke="black" points="8,-73 8,-95 150,-95 150,-73 8,-73"/>
<text text-anchor="start" x="28" y="-81.2" font-family="Helvetica,sans-Serif" font-size="11.00">rank</text>
<polygon fill="none" stroke="black" points="8,-55 8,-73 150,-73 150,-55 8,-55"/>
<text text-anchor="start" x="11" y="-61.2" font-family="Helvetica,sans-Serif" font-size="11.00">...</text>
<polygon fill="#ffffff" stroke="transparent" points="8,-37 8,-55 41,-55 41,-37 8,-37"/>
<polygon fill="none" stroke="black" points="8,-37 8,-55 41,-55 41,-37 8,-37"/>
<text text-anchor="start" x="11" y="-43.2" font-family="Helvetica,sans-Serif" font-size="11.00"> &#160;</text>
<polygon fill="#ffffff" stroke="transparent" points="41,-37 41,-55 117,-55 117,-37 41,-37"/>
<polygon fill="none" stroke="black" points="41,-37 41,-55 117,-55 117,-37 41,-37"/>
<text text-anchor="start" x="54" y="-43.2" font-family="Helvetica,sans-Serif" font-size="11.00">10,101 rows</text>
<polygon fill="#ffffff" stroke="transparent" points="117,-37 117,-55 150,-55 150,-37 117,-37"/>
<polygon fill="none" stroke="black" points="117,-37 117,-55 150,-55 150,-37 117,-37"/>
<text text-anchor="start" x="131" y="-43.2" font-family="Helvetica,sans-Serif" font-size="11.00">2 &gt;</text>
</a>
</g>
</g>
<!-- geopaths&#45;&gt;geopoliticalunits -->
<g id="edge1" class="edge">
<title>geopaths:w&#45;&gt;geopoliticalunits:e</title>
<path fill="none" stroke="black" d="M186.1,-165.18C173.2,-154.15 173.63,-128 151,-128"/>
<polygon fill="black" stroke="black" points="192.44,-167.38 198.82,-173.4 196.22,-168.69 200,-170 200,-170 200,-170 196.22,-168.69 201.18,-166.6 192.44,-167.38 192.44,-167.38"/>
<ellipse fill="none" stroke="black" cx="189.42" cy="-166.33" rx="3.2" ry="3.2"/>
</g>
<!-- sitegeopolitical -->
<g id="node3" class="node">
<title>sitegeopolitical</title>
<g id="a_node3"><a xlink:href="../../tables/sitegeopolitical.html" xlink:title="sitegeopolitical" target="_top">
<polygon fill="#ffffff" stroke="transparent" points="204,-60 204,-118 328,-118 328,-60 204,-60"/>
<polygon fill="#f5f5f5" stroke="transparent" points="204,-96 204,-118 328,-118 328,-96 204,-96"/>
<polygon fill="none" stroke="black" points="204,-96 204,-118 328,-118 328,-96 204,-96"/>
<text text-anchor="start" x="209" y="-105.2" font-family="Helvetica,sans-Serif" font-weight="bold" font-size="11.00">sitegeopolitical</text>
<text text-anchor="start" x="293" y="-104.2" font-family="Helvetica,sans-Serif" font-size="11.00">[table]</text>
<polygon fill="none" stroke="black" points="204,-78 204,-96 328,-96 328,-78 204,-78"/>
<text text-anchor="start" x="207" y="-84.2" font-family="Helvetica,sans-Serif" font-size="11.00">...</text>
<polygon fill="#ffffff" stroke="transparent" points="204,-60 204,-78 237,-78 237,-60 204,-60"/>
<polygon fill="none" stroke="black" points="204,-60 204,-78 237,-78 237,-60 204,-60"/>
<text text-anchor="start" x="207" y="-66.2" font-family="Helvetica,sans-Serif" font-size="11.00">&lt; 2</text>
<polygon fill="#ffffff" stroke="transparent" points="237,-60 237,-78 309,-78 309,-60 237,-60"/>
<polygon fill="none" stroke="black" points="237,-60 237,-78 309,-78 309,-60 237,-60"/>
<text text-anchor="start" x="246" y="-66.2" font-family="Helvetica,sans-Serif" font-size="11.00">55,744 rows</text>
<polygon fill="#ffffff" stroke="transparent" points="309,-60 309,-78 328,-78 328,-60 309,-60"/>
<polygon fill="none" stroke="black" points="309,-60 309,-78 328,-78 328,-60 309,-60"/>
<text text-anchor="start" x="318" y="-66.2" font-family="Helvetica,sans-Serif" font-size="11.00"> &#160;</text>
</a>
</g>
</g>
<!-- sitegeopolitical&#45;&gt;geopoliticalunits -->
<g id="edge2" class="edge">
<title>sitegeopolitical:w&#45;&gt;geopoliticalunits:e</title>
<path fill="none" stroke="black" d="M188.95,-91.39C174.86,-101.96 174.45,-128 151,-128"/>
<polygon fill="black" stroke="black" points="195.36,-89.38 204.07,-90.44 199.18,-88.19 203,-87 203,-87 203,-87 199.18,-88.19 201.93,-83.56 195.36,-89.38 195.36,-89.38"/>
<ellipse fill="none" stroke="black" cx="192.31" cy="-90.34" rx="3.2" ry="3.2"/>
</g>
</g>
</svg>
