<?xml version="1.0" encoding="UTF-8" standalone="no"?>
<!DOCTYPE svg PUBLIC "-//W3C//DTD SVG 1.1//EN"
 "http://www.w3.org/Graphics/SVG/1.1/DTD/svg11.dtd">
<!-- Generated by graphviz version 2.43.0 (0)
 -->
<!-- Title: oneDegreeRelationshipsDiagram Pages: 1 -->
<svg width="459pt" height="201pt"
 viewBox="0.00 0.00 459.00 201.00" xmlns="http://www.w3.org/2000/svg" xmlns:xlink="http://www.w3.org/1999/xlink">
<g id="graph0" class="graph" transform="scale(1 1) rotate(0) translate(4 197)">
<title>oneDegreeRelationshipsDiagram</title>
<polygon fill="#ffffff" stroke="transparent" points="-4,4 -4,-197 455,-197 455,4 -4,4"/>
<text text-anchor="middle" x="71.5" y="-7.2" font-family="Helvetica,sans-Serif" font-size="11.00">Generated by SchemaSpy</text>
<!-- isobiomarkerbandtypes -->
<g id="node1" class="node">
<title>isobiomarkerbandtypes</title>
<g id="a_node1"><a xlink:href="../../tables/isobiomarkerbandtypes.html" xlink:title="isobiomarkerbandtypes" target="_top">
<polygon fill="#ffffff" stroke="transparent" points="274,-87 274,-189 443,-189 443,-87 274,-87"/>
<polygon fill="#f5f5f5" stroke="transparent" points="274.5,-167 274.5,-189 443.5,-189 443.5,-167 274.5,-167"/>
<polygon fill="none" stroke="black" points="274.5,-167 274.5,-189 443.5,-189 443.5,-167 274.5,-167"/>
<text text-anchor="start" x="279.5" y="-176.2" font-family="Helvetica,sans-Serif" font-weight="bold" font-size="11.00">isobiomarkerbandtypes</text>
<text text-anchor="start" x="408.5" y="-175.2" font-family="Helvetica,sans-Serif" font-size="11.00">[table]</text>
<polygon fill="none" stroke="black" points="274.5,-145 274.5,-167 443.5,-167 443.5,-145 274.5,-145"/>
<image xlink:href="../../images/primaryKeys.png" width="11px" height="12px" preserveAspectRatio="xMinYMin meet" x="279.5" y="-162"/>
<text text-anchor="start" x="294.5" y="-153.2" font-family="Helvetica,sans-Serif" font-size="11.00">isobiomarkerbandtypeid</text>
<polygon fill="none" stroke="black" points="274.5,-123 274.5,-145 443.5,-145 443.5,-123 274.5,-123"/>
<image xlink:href="../../images/foreignKeys.png" width="11px" height="12px" preserveAspectRatio="xMinYMin meet" x="279.5" y="-140"/>
<text text-anchor="start" x="294.5" y="-131.2" font-family="Helvetica,sans-Serif" font-size="11.00">isobiomarkertypeid</text>
<polygon fill="none" stroke="black" points="274.5,-105 274.5,-123 443.5,-123 443.5,-105 274.5,-105"/>
<text text-anchor="start" x="277.5" y="-111.2" font-family="Helvetica,sans-Serif" font-size="11.00">...</text>
<polygon fill="#ffffff" stroke="transparent" points="274.5,-87 274.5,-105 343.5,-105 343.5,-87 274.5,-87"/>
<polygon fill="none" stroke="black" points="274.5,-87 274.5,-105 343.5,-105 343.5,-87 274.5,-87"/>
<text text-anchor="start" x="277.5" y="-93.2" font-family="Helvetica,sans-Serif" font-size="11.00">&lt; 1</text>
<polygon fill="#ffffff" stroke="transparent" points="343.5,-87 343.5,-105 406.5,-105 406.5,-87 343.5,-87"/>
<polygon fill="none" stroke="black" points="343.5,-87 343.5,-105 406.5,-105 406.5,-87 343.5,-87"/>
<text text-anchor="start" x="370.5" y="-93.2" font-family="Helvetica,sans-Serif" font-size="11.00">9 rows</text>
<polygon fill="#ffffff" stroke="transparent" points="406.5,-87 406.5,-105 443.5,-105 443.5,-87 406.5,-87"/>
<polygon fill="none" stroke="black" points="406.5,-87 406.5,-105 443.5,-105 443.5,-87 406.5,-87"/>
<text text-anchor="start" x="433.5" y="-93.2" font-family="Helvetica,sans-Serif" font-size="11.00"> &#160;</text>
</a>
</g>
</g>
<!-- isobiomarkertypes -->
<g id="node2" class="node">
<title>isobiomarkertypes</title>
<g id="a_node2"><a xlink:href="../../tables/isobiomarkertypes.html" xlink:title="isobiomarkertypes" target="_top">
<polygon fill="#ffffff" stroke="transparent" points="8,-37 8,-169 225,-169 225,-37 8,-37"/>
<polygon fill="#f5f5f5" stroke="transparent" points="10.5,-145 10.5,-167 223.5,-167 223.5,-145 10.5,-145"/>
<polygon fill="none" stroke="black" points="10.5,-145 10.5,-167 223.5,-167 223.5,-145 10.5,-145"/>
<text text-anchor="start" x="15.5" y="-154.2" font-family="Helvetica,sans-Serif" font-weight="bold" font-size="11.00">isobiomarkertypes</text>
<text text-anchor="start" x="188.5" y="-153.2" font-family="Helvetica,sans-Serif" font-size="11.00">[table]</text>
<polygon fill="none" stroke="black" points="10.5,-123 10.5,-145 149.5,-145 149.5,-123 10.5,-123"/>
<image xlink:href="../../images/primaryKeys.png" width="11px" height="12px" preserveAspectRatio="xMinYMin meet" x="15.5" y="-140"/>
<text text-anchor="start" x="30.5" y="-131.2" font-family="Helvetica,sans-Serif" font-size="11.00">isobiomarkertypeid</text>
<polygon fill="none" stroke="black" points="149.5,-123 149.5,-145 223.5,-145 223.5,-123 149.5,-123"/>
<text text-anchor="start" x="152.5" y="-131.2" font-family="Helvetica,sans-Serif" font-size="11.00">serial[10]</text>
<polygon fill="none" stroke="black" points="10.5,-101 10.5,-123 149.5,-123 149.5,-101 10.5,-101"/>
<text text-anchor="start" x="30.5" y="-109.2" font-family="Helvetica,sans-Serif" font-size="11.00">isobiomarkertype</text>
<polygon fill="none" stroke="black" points="149.5,-101 149.5,-123 223.5,-123 223.5,-101 149.5,-101"/>
<text text-anchor="start" x="152.5" y="-109.2" font-family="Helvetica,sans-Serif" font-size="11.00">varchar[50]</text>
<polygon fill="none" stroke="black" points="10.5,-79 10.5,-101 149.5,-101 149.5,-79 10.5,-79"/>
<text text-anchor="start" x="30.5" y="-87.2" font-family="Helvetica,sans-Serif" font-size="11.00">recdatecreated</text>
<polygon fill="none" stroke="black" points="149.5,-79 149.5,-101 223.5,-101 223.5,-79 149.5,-79"/>
<text text-anchor="start" x="152.5" y="-87.2" font-family="Helvetica,sans-Serif" font-size="11.00">timestamp[22]</text>
<polygon fill="none" stroke="black" points="10.5,-57 10.5,-79 149.5,-79 149.5,-57 10.5,-57"/>
<text text-anchor="start" x="30.5" y="-65.2" font-family="Helvetica,sans-Serif" font-size="11.00">recdatemodified</text>
<polygon fill="none" stroke="black" points="149.5,-57 149.5,-79 223.5,-79 223.5,-57 149.5,-57"/>
<text text-anchor="start" x="152.5" y="-65.2" font-family="Helvetica,sans-Serif" font-size="11.00">timestamp[22]</text>
<polygon fill="#ffffff" stroke="transparent" points="10.5,-39 10.5,-57 71.5,-57 71.5,-39 10.5,-39"/>
<polygon fill="none" stroke="black" points="10.5,-39 10.5,-57 71.5,-57 71.5,-39 10.5,-39"/>
<text text-anchor="start" x="13.5" y="-45.2" font-family="Helvetica,sans-Serif" font-size="11.00">&lt; 0</text>
<polygon fill="#ffffff" stroke="transparent" points="71.5,-39 71.5,-57 149.5,-57 149.5,-39 71.5,-39"/>
<polygon fill="none" stroke="black" points="71.5,-39 71.5,-57 149.5,-57 149.5,-39 71.5,-39"/>
<text text-anchor="start" x="113.5" y="-45.2" font-family="Helvetica,sans-Serif" font-size="11.00">4 rows</text>
<polygon fill="#ffffff" stroke="transparent" points="149.5,-39 149.5,-57 223.5,-57 223.5,-39 149.5,-39"/>
<polygon fill="none" stroke="black" points="149.5,-39 149.5,-57 223.5,-57 223.5,-39 149.5,-39"/>
<text text-anchor="start" x="204.5" y="-45.2" font-family="Helvetica,sans-Serif" font-size="11.00">1 &gt;</text>
<polygon fill="none" stroke="black" stroke-width="2" points="9,-38 9,-168 224,-168 224,-38 9,-38"/>
</a>
</g>
</g>
<!-- isobiomarkerbandtypes&#45;&gt;isobiomarkertypes -->
<g id="edge1" class="edge">
<title>isobiomarkerbandtypes:w&#45;&gt;isobiomarkertypes:e</title>
<path fill="none" stroke="black" d="M258.99,-134C247.68,-134 240.49,-134 224.5,-134"/>
<polygon fill="black" stroke="black" points="265.5,-134 273.5,-137.6 269.5,-134 273.5,-134 273.5,-134 273.5,-134 269.5,-134 273.5,-130.4 265.5,-134 265.5,-134"/>
<ellipse fill="none" stroke="black" cx="262.3" cy="-134" rx="3.2" ry="3.2"/>
</g>
</g>
</svg>
