<?xml version="1.0" encoding="UTF-8" standalone="no"?>
<!DOCTYPE svg PUBLIC "-//W3C//DTD SVG 1.1//EN"
 "http://www.w3.org/Graphics/SVG/1.1/DTD/svg11.dtd">
<!-- Generated by graphviz version 2.43.0 (0)
 -->
<!-- Title: oneDegreeRelationshipsDiagram Pages: 1 -->
<svg width="549pt" height="586pt"
 viewBox="0.00 0.00 549.00 586.00" xmlns="http://www.w3.org/2000/svg" xmlns:xlink="http://www.w3.org/1999/xlink">
<g id="graph0" class="graph" transform="scale(1 1) rotate(0) translate(4 582)">
<title>oneDegreeRelationshipsDiagram</title>
<polygon fill="#ffffff" stroke="transparent" points="-4,4 -4,-582 545,-582 545,4 -4,4"/>
<text text-anchor="middle" x="71.5" y="-7.2" font-family="Helvetica,sans-Serif" font-size="11.00">Generated by SchemaSpy</text>
<!-- isoinstrumentation -->
<g id="node1" class="node">
<title>isoinstrumentation</title>
<g id="a_node1"><a xlink:href="../../tables/isoinstrumentation.html" xlink:title="isoinstrumentation" target="_top">
<polygon fill="#ffffff" stroke="transparent" points="248,-83 248,-347 533,-347 533,-83 248,-83"/>
<polygon fill="#f5f5f5" stroke="transparent" points="250.5,-323 250.5,-345 531.5,-345 531.5,-323 250.5,-323"/>
<polygon fill="none" stroke="black" points="250.5,-323 250.5,-345 531.5,-345 531.5,-323 250.5,-323"/>
<text text-anchor="start" x="255.5" y="-332.2" font-family="Helvetica,sans-Serif" font-weight="bold" font-size="11.00">isoinstrumentation</text>
<text text-anchor="start" x="496.5" y="-331.2" font-family="Helvetica,sans-Serif" font-size="11.00">[table]</text>
<polygon fill="none" stroke="black" points="250.5,-301 250.5,-323 441.5,-323 441.5,-301 250.5,-301"/>
<image xlink:href="../../images/primaryKeys.png" width="11px" height="12px" preserveAspectRatio="xMinYMin meet" x="255.5" y="-318"/>
<text text-anchor="start" x="270.5" y="-309.2" font-family="Helvetica,sans-Serif" font-size="11.00">datasetid</text>
<polygon fill="none" stroke="black" points="441.5,-301 441.5,-323 531.5,-323 531.5,-301 441.5,-301"/>
<text text-anchor="start" x="444.5" y="-309.2" font-family="Helvetica,sans-Serif" font-size="11.00">int4[10]</text>
<polygon fill="none" stroke="black" points="250.5,-279 250.5,-301 441.5,-301 441.5,-279 250.5,-279"/>
<image xlink:href="../../images/primaryKeys.png" width="11px" height="12px" preserveAspectRatio="xMinYMin meet" x="255.5" y="-296"/>
<text text-anchor="start" x="270.5" y="-287.2" font-family="Helvetica,sans-Serif" font-size="11.00">variableid</text>
<polygon fill="none" stroke="black" points="441.5,-279 441.5,-301 531.5,-301 531.5,-279 441.5,-279"/>
<text text-anchor="start" x="444.5" y="-287.2" font-family="Helvetica,sans-Serif" font-size="11.00">int4[10]</text>
<polygon fill="none" stroke="black" points="250.5,-257 250.5,-279 441.5,-279 441.5,-257 250.5,-257"/>
<image xlink:href="../../images/foreignKeys.png" width="11px" height="12px" preserveAspectRatio="xMinYMin meet" x="255.5" y="-274"/>
<text text-anchor="start" x="270.5" y="-265.2" font-family="Helvetica,sans-Serif" font-size="11.00">isoinstrumentationtypeid</text>
<polygon fill="none" stroke="black" points="441.5,-257 441.5,-279 531.5,-279 531.5,-257 441.5,-257"/>
<text text-anchor="start" x="444.5" y="-265.2" font-family="Helvetica,sans-Serif" font-size="11.00">int4[10]</text>
<polygon fill="none" stroke="black" points="250.5,-235 250.5,-257 441.5,-257 441.5,-235 250.5,-235"/>
<image xlink:href="../../images/foreignKeys.png" width="11px" height="12px" preserveAspectRatio="xMinYMin meet" x="255.5" y="-252"/>
<text text-anchor="start" x="270.5" y="-243.2" font-family="Helvetica,sans-Serif" font-size="11.00">isosampleintrosystemtypeid</text>
<polygon fill="none" stroke="black" points="441.5,-235 441.5,-257 531.5,-257 531.5,-235 441.5,-235"/>
<text text-anchor="start" x="444.5" y="-243.2" font-family="Helvetica,sans-Serif" font-size="11.00">int4[10]</text>
<polygon fill="none" stroke="black" points="250.5,-213 250.5,-235 441.5,-235 441.5,-213 250.5,-213"/>
<text text-anchor="start" x="270.5" y="-221.2" font-family="Helvetica,sans-Serif" font-size="11.00">insterrorpercent</text>
<polygon fill="none" stroke="black" points="441.5,-213 441.5,-235 531.5,-235 531.5,-213 441.5,-213"/>
<text text-anchor="start" x="444.5" y="-221.2" font-family="Helvetica,sans-Serif" font-size="11.00">float8[17,17]</text>
<polygon fill="none" stroke="black" points="250.5,-191 250.5,-213 441.5,-213 441.5,-191 250.5,-191"/>
<text text-anchor="start" x="270.5" y="-199.2" font-family="Helvetica,sans-Serif" font-size="11.00">insterrorrunsd</text>
<polygon fill="none" stroke="black" points="441.5,-191 441.5,-213 531.5,-213 531.5,-191 441.5,-191"/>
<text text-anchor="start" x="444.5" y="-199.2" font-family="Helvetica,sans-Serif" font-size="11.00">float8[17,17]</text>
<polygon fill="none" stroke="black" points="250.5,-169 250.5,-191 441.5,-191 441.5,-169 250.5,-169"/>
<text text-anchor="start" x="270.5" y="-177.2" font-family="Helvetica,sans-Serif" font-size="11.00">insterrorlongtermpercent</text>
<polygon fill="none" stroke="black" points="441.5,-169 441.5,-191 531.5,-191 531.5,-169 441.5,-169"/>
<text text-anchor="start" x="444.5" y="-177.2" font-family="Helvetica,sans-Serif" font-size="11.00">float8[17,17]</text>
<polygon fill="none" stroke="black" points="250.5,-147 250.5,-169 441.5,-169 441.5,-147 250.5,-147"/>
<text text-anchor="start" x="270.5" y="-155.2" font-family="Helvetica,sans-Serif" font-size="11.00">notes</text>
<polygon fill="none" stroke="black" points="441.5,-147 441.5,-169 531.5,-169 531.5,-147 441.5,-147"/>
<text text-anchor="start" x="444.5" y="-155.2" font-family="Helvetica,sans-Serif" font-size="11.00">text[2147483647]</text>
<polygon fill="none" stroke="black" points="250.5,-125 250.5,-147 441.5,-147 441.5,-125 250.5,-125"/>
<text text-anchor="start" x="270.5" y="-133.2" font-family="Helvetica,sans-Serif" font-size="11.00">recdatecreated</text>
<polygon fill="none" stroke="black" points="441.5,-125 441.5,-147 531.5,-147 531.5,-125 441.5,-125"/>
<text text-anchor="start" x="444.5" y="-133.2" font-family="Helvetica,sans-Serif" font-size="11.00">timestamp[22]</text>
<polygon fill="none" stroke="black" points="250.5,-103 250.5,-125 441.5,-125 441.5,-103 250.5,-103"/>
<text text-anchor="start" x="270.5" y="-111.2" font-family="Helvetica,sans-Serif" font-size="11.00">recdatemodified</text>
<polygon fill="none" stroke="black" points="441.5,-103 441.5,-125 531.5,-125 531.5,-103 441.5,-103"/>
<text text-anchor="start" x="444.5" y="-111.2" font-family="Helvetica,sans-Serif" font-size="11.00">timestamp[22]</text>
<polygon fill="#ffffff" stroke="transparent" points="250.5,-85 250.5,-103 331.5,-103 331.5,-85 250.5,-85"/>
<polygon fill="none" stroke="black" points="250.5,-85 250.5,-103 331.5,-103 331.5,-85 250.5,-85"/>
<text text-anchor="start" x="253.5" y="-91.2" font-family="Helvetica,sans-Serif" font-size="11.00">&lt; 4</text>
<polygon fill="#ffffff" stroke="transparent" points="331.5,-85 331.5,-103 441.5,-103 441.5,-85 331.5,-85"/>
<polygon fill="none" stroke="black" points="331.5,-85 331.5,-103 441.5,-103 441.5,-85 331.5,-85"/>
<text text-anchor="start" x="393.5" y="-91.2" font-family="Helvetica,sans-Serif" font-size="11.00">156 rows</text>
<polygon fill="#ffffff" stroke="transparent" points="441.5,-85 441.5,-103 531.5,-103 531.5,-85 441.5,-85"/>
<polygon fill="none" stroke="black" points="441.5,-85 441.5,-103 531.5,-103 531.5,-85 441.5,-85"/>
<text text-anchor="start" x="512.5" y="-91.2" font-family="Helvetica,sans-Serif" font-size="11.00">0 &gt;</text>
<polygon fill="none" stroke="black" stroke-width="2" points="249,-84 249,-346 532,-346 532,-84 249,-84"/>
</a>
</g>
</g>
<!-- datasets -->
<g id="node2" class="node">
<title>datasets</title>
<g id="a_node2"><a xlink:href="../../tables/datasets.html" xlink:title="datasets" target="_top">
<polygon fill="#ffffff" stroke="transparent" points="43.5,-428 43.5,-574 163.5,-574 163.5,-428 43.5,-428"/>
<polygon fill="#f5f5f5" stroke="transparent" points="43.5,-552 43.5,-574 163.5,-574 163.5,-552 43.5,-552"/>
<polygon fill="none" stroke="black" points="43.5,-552 43.5,-574 163.5,-574 163.5,-552 43.5,-552"/>
<text text-anchor="start" x="48.5" y="-561.2" font-family="Helvetica,sans-Serif" font-weight="bold" font-size="11.00">datasets</text>
<text text-anchor="start" x="128.5" y="-560.2" font-family="Helvetica,sans-Serif" font-size="11.00">[table]</text>
<polygon fill="none" stroke="black" points="43.5,-530 43.5,-552 163.5,-552 163.5,-530 43.5,-530"/>
<image xlink:href="../../images/primaryKeys.png" width="11px" height="12px" preserveAspectRatio="xMinYMin meet" x="48.5" y="-547"/>
<text text-anchor="start" x="63.5" y="-538.2" font-family="Helvetica,sans-Serif" font-size="11.00">datasetid</text>
<polygon fill="#ffffff" stroke="transparent" points="43.5,-508 43.5,-530 163.5,-530 163.5,-508 43.5,-508"/>
<polygon fill="none" stroke="black" points="43.5,-508 43.5,-530 163.5,-530 163.5,-508 43.5,-508"/>
<image xlink:href="../../images/foreignKeys.png" width="11px" height="12px" preserveAspectRatio="xMinYMin meet" x="48.5" y="-525"/>
<text text-anchor="start" x="63.5" y="-516.2" font-family="Helvetica,sans-Serif" font-size="11.00">collectionunitid</text>
<polygon fill="#ffffff" stroke="transparent" points="43.5,-486 43.5,-508 163.5,-508 163.5,-486 43.5,-486"/>
<polygon fill="none" stroke="black" points="43.5,-486 43.5,-508 163.5,-508 163.5,-486 43.5,-486"/>
<image xlink:href="../../images/foreignKeys.png" width="11px" height="12px" preserveAspectRatio="xMinYMin meet" x="48.5" y="-503"/>
<text text-anchor="start" x="63.5" y="-494.2" font-family="Helvetica,sans-Serif" font-size="11.00">datasettypeid</text>
<polygon fill="none" stroke="black" points="43.5,-464 43.5,-486 163.5,-486 163.5,-464 43.5,-464"/>
<image xlink:href="../../images/foreignKeys.png" width="11px" height="12px" preserveAspectRatio="xMinYMin meet" x="48.5" y="-481"/>
<text text-anchor="start" x="63.5" y="-472.2" font-family="Helvetica,sans-Serif" font-size="11.00">embargoid</text>
<polygon fill="none" stroke="black" points="43.5,-446 43.5,-464 163.5,-464 163.5,-446 43.5,-446"/>
<text text-anchor="start" x="46.5" y="-452.2" font-family="Helvetica,sans-Serif" font-size="11.00">...</text>
<polygon fill="#ffffff" stroke="transparent" points="43.5,-428 43.5,-446 67.5,-446 67.5,-428 43.5,-428"/>
<polygon fill="none" stroke="black" points="43.5,-428 43.5,-446 67.5,-446 67.5,-428 43.5,-428"/>
<text text-anchor="start" x="46.5" y="-434.2" font-family="Helvetica,sans-Serif" font-size="11.00">&lt; 3</text>
<polygon fill="#ffffff" stroke="transparent" points="67.5,-428 67.5,-446 134.5,-446 134.5,-428 67.5,-428"/>
<polygon fill="none" stroke="black" points="67.5,-428 67.5,-446 134.5,-446 134.5,-428 67.5,-428"/>
<text text-anchor="start" x="71.5" y="-434.2" font-family="Helvetica,sans-Serif" font-size="11.00">48,328 rows</text>
<polygon fill="#ffffff" stroke="transparent" points="134.5,-428 134.5,-446 163.5,-446 163.5,-428 134.5,-428"/>
<polygon fill="none" stroke="black" points="134.5,-428 134.5,-446 163.5,-446 163.5,-428 134.5,-428"/>
<text text-anchor="start" x="138.5" y="-434.2" font-family="Helvetica,sans-Serif" font-size="11.00">13 &gt;</text>
</a>
</g>
</g>
<!-- isoinstrumentation&#45;&gt;datasets -->
<g id="edge1" class="edge">
<title>isoinstrumentation:w&#45;&gt;datasets:e</title>
<path fill="none" stroke="black" d="M236.16,-317.66C198.95,-352.92 213.69,-541 164.5,-541"/>
<polygon fill="black" stroke="black" points="242.14,-315.12 250.91,-315.31 245.82,-313.56 249.5,-312 249.5,-312 249.5,-312 245.82,-313.56 248.09,-308.69 242.14,-315.12 242.14,-315.12"/>
<ellipse fill="none" stroke="black" cx="239.19" cy="-316.37" rx="3.2" ry="3.2"/>
</g>
<!-- isoinstrumentationtypes -->
<g id="node3" class="node">
<title>isoinstrumentationtypes</title>
<g id="a_node3"><a xlink:href="../../tables/isoinstrumentationtypes.html" xlink:title="isoinstrumentationtypes" target="_top">
<polygon fill="#ffffff" stroke="transparent" points="16,-138 16,-218 191,-218 191,-138 16,-138"/>
<polygon fill="#f5f5f5" stroke="transparent" points="16.5,-196 16.5,-218 191.5,-218 191.5,-196 16.5,-196"/>
<polygon fill="none" stroke="black" points="16.5,-196 16.5,-218 191.5,-218 191.5,-196 16.5,-196"/>
<text text-anchor="start" x="21.5" y="-205.2" font-family="Helvetica,sans-Serif" font-weight="bold" font-size="11.00">isoinstrumentationtypes</text>
<text text-anchor="start" x="156.5" y="-204.2" font-family="Helvetica,sans-Serif" font-size="11.00">[table]</text>
<polygon fill="none" stroke="black" points="16.5,-174 16.5,-196 191.5,-196 191.5,-174 16.5,-174"/>
<image xlink:href="../../images/primaryKeys.png" width="11px" height="12px" preserveAspectRatio="xMinYMin meet" x="21.5" y="-191"/>
<text text-anchor="start" x="36.5" y="-182.2" font-family="Helvetica,sans-Serif" font-size="11.00">isoinstrumentationtypeid</text>
<polygon fill="none" stroke="black" points="16.5,-156 16.5,-174 191.5,-174 191.5,-156 16.5,-156"/>
<text text-anchor="start" x="19.5" y="-162.2" font-family="Helvetica,sans-Serif" font-size="11.00">...</text>
<polygon fill="#ffffff" stroke="transparent" points="16.5,-138 16.5,-156 79.5,-156 79.5,-138 16.5,-138"/>
<polygon fill="none" stroke="black" points="16.5,-138 16.5,-156 79.5,-156 79.5,-138 16.5,-138"/>
<text text-anchor="start" x="19.5" y="-144.2" font-family="Helvetica,sans-Serif" font-size="11.00"> &#160;</text>
<polygon fill="#ffffff" stroke="transparent" points="79.5,-138 79.5,-156 143.5,-156 143.5,-138 79.5,-138"/>
<polygon fill="none" stroke="black" points="79.5,-138 79.5,-156 143.5,-156 143.5,-138 79.5,-138"/>
<text text-anchor="start" x="107.5" y="-144.2" font-family="Helvetica,sans-Serif" font-size="11.00">4 rows</text>
<polygon fill="#ffffff" stroke="transparent" points="143.5,-138 143.5,-156 191.5,-156 191.5,-138 143.5,-138"/>
<polygon fill="none" stroke="black" points="143.5,-138 143.5,-156 191.5,-156 191.5,-138 143.5,-138"/>
<text text-anchor="start" x="172.5" y="-144.2" font-family="Helvetica,sans-Serif" font-size="11.00">1 &gt;</text>
</a>
</g>
</g>
<!-- isoinstrumentation&#45;&gt;isoinstrumentationtypes -->
<g id="edge2" class="edge">
<title>isoinstrumentation:w&#45;&gt;isoinstrumentationtypes:e</title>
<path fill="none" stroke="black" d="M235.4,-264C212.02,-247.42 231.31,-185 192.5,-185"/>
<polygon fill="black" stroke="black" points="241.8,-265.82 248.52,-271.46 245.65,-266.91 249.5,-268 249.5,-268 249.5,-268 245.65,-266.91 250.48,-264.54 241.8,-265.82 241.8,-265.82"/>
<ellipse fill="none" stroke="black" cx="238.73" cy="-264.94" rx="3.2" ry="3.2"/>
</g>
<!-- isosampleintrosystemtypes -->
<g id="node4" class="node">
<title>isosampleintrosystemtypes</title>
<g id="a_node4"><a xlink:href="../../tables/isosampleintrosystemtypes.html" xlink:title="isosampleintrosystemtypes" target="_top">
<polygon fill="#ffffff" stroke="transparent" points="8,-37 8,-117 199,-117 199,-37 8,-37"/>
<polygon fill="#f5f5f5" stroke="transparent" points="8.5,-95 8.5,-117 199.5,-117 199.5,-95 8.5,-95"/>
<polygon fill="none" stroke="black" points="8.5,-95 8.5,-117 199.5,-117 199.5,-95 8.5,-95"/>
<text text-anchor="start" x="13.5" y="-104.2" font-family="Helvetica,sans-Serif" font-weight="bold" font-size="11.00">isosampleintrosystemtypes</text>
<text text-anchor="start" x="164.5" y="-103.2" font-family="Helvetica,sans-Serif" font-size="11.00">[table]</text>
<polygon fill="none" stroke="black" points="8.5,-73 8.5,-95 199.5,-95 199.5,-73 8.5,-73"/>
<image xlink:href="../../images/primaryKeys.png" width="11px" height="12px" preserveAspectRatio="xMinYMin meet" x="13.5" y="-90"/>
<text text-anchor="start" x="28.5" y="-81.2" font-family="Helvetica,sans-Serif" font-size="11.00">isosampleintrosystemtypeid</text>
<polygon fill="none" stroke="black" points="8.5,-55 8.5,-73 199.5,-73 199.5,-55 8.5,-55"/>
<text text-anchor="start" x="11.5" y="-61.2" font-family="Helvetica,sans-Serif" font-size="11.00">...</text>
<polygon fill="#ffffff" stroke="transparent" points="8.5,-37 8.5,-55 79.5,-55 79.5,-37 8.5,-37"/>
<polygon fill="none" stroke="black" points="8.5,-37 8.5,-55 79.5,-55 79.5,-37 8.5,-37"/>
<text text-anchor="start" x="11.5" y="-43.2" font-family="Helvetica,sans-Serif" font-size="11.00"> &#160;</text>
<polygon fill="#ffffff" stroke="transparent" points="79.5,-37 79.5,-55 147.5,-55 147.5,-37 79.5,-37"/>
<polygon fill="none" stroke="black" points="79.5,-37 79.5,-55 147.5,-55 147.5,-37 79.5,-37"/>
<text text-anchor="start" x="111.5" y="-43.2" font-family="Helvetica,sans-Serif" font-size="11.00">4 rows</text>
<polygon fill="#ffffff" stroke="transparent" points="147.5,-37 147.5,-55 199.5,-55 199.5,-37 147.5,-37"/>
<polygon fill="none" stroke="black" points="147.5,-37 147.5,-55 199.5,-55 199.5,-37 147.5,-37"/>
<text text-anchor="start" x="180.5" y="-43.2" font-family="Helvetica,sans-Serif" font-size="11.00">1 &gt;</text>
</a>
</g>
</g>
<!-- isoinstrumentation&#45;&gt;isosampleintrosystemtypes -->
<g id="edge3" class="edge">
<title>isoinstrumentation:w&#45;&gt;isosampleintrosystemtypes:e</title>
<path fill="none" stroke="black" d="M235.23,-243.32C188.71,-222.26 269.99,-84 200.5,-84"/>
<polygon fill="black" stroke="black" points="241.64,-244.53 248.84,-249.54 245.57,-245.26 249.5,-246 249.5,-246 249.5,-246 245.57,-245.26 250.16,-242.46 241.64,-244.53 241.64,-244.53"/>
<ellipse fill="none" stroke="black" cx="238.49" cy="-243.94" rx="3.2" ry="3.2"/>
</g>
<!-- variables -->
<g id="node5" class="node">
<title>variables</title>
<g id="a_node5"><a xlink:href="../../tables/variables.html" xlink:title="variables" target="_top">
<polygon fill="#ffffff" stroke="transparent" points="38.5,-239 38.5,-407 168.5,-407 168.5,-239 38.5,-239"/>
<polygon fill="#f5f5f5" stroke="transparent" points="38.5,-385 38.5,-407 168.5,-407 168.5,-385 38.5,-385"/>
<polygon fill="none" stroke="black" points="38.5,-385 38.5,-407 168.5,-407 168.5,-385 38.5,-385"/>
<text text-anchor="start" x="43.5" y="-394.2" font-family="Helvetica,sans-Serif" font-weight="bold" font-size="11.00">variables</text>
<text text-anchor="start" x="133.5" y="-393.2" font-family="Helvetica,sans-Serif" font-size="11.00">[table]</text>
<polygon fill="none" stroke="black" points="38.5,-363 38.5,-385 168.5,-385 168.5,-363 38.5,-363"/>
<image xlink:href="../../images/primaryKeys.png" width="11px" height="12px" preserveAspectRatio="xMinYMin meet" x="43.5" y="-380"/>
<text text-anchor="start" x="58.5" y="-371.2" font-family="Helvetica,sans-Serif" font-size="11.00">variableid</text>
<polygon fill="#ffffff" stroke="transparent" points="38.5,-341 38.5,-363 168.5,-363 168.5,-341 38.5,-341"/>
<polygon fill="none" stroke="black" points="38.5,-341 38.5,-363 168.5,-363 168.5,-341 38.5,-341"/>
<image xlink:href="../../images/foreignKeys.png" width="11px" height="12px" preserveAspectRatio="xMinYMin meet" x="43.5" y="-358"/>
<text text-anchor="start" x="58.5" y="-349.2" font-family="Helvetica,sans-Serif" font-size="11.00">taxonid</text>
<polygon fill="#ffffff" stroke="transparent" points="38.5,-319 38.5,-341 168.5,-341 168.5,-319 38.5,-319"/>
<polygon fill="none" stroke="black" points="38.5,-319 38.5,-341 168.5,-341 168.5,-319 38.5,-319"/>
<image xlink:href="../../images/foreignKeys.png" width="11px" height="12px" preserveAspectRatio="xMinYMin meet" x="43.5" y="-336"/>
<text text-anchor="start" x="58.5" y="-327.2" font-family="Helvetica,sans-Serif" font-size="11.00">variableelementid</text>
<polygon fill="#ffffff" stroke="transparent" points="38.5,-297 38.5,-319 168.5,-319 168.5,-297 38.5,-297"/>
<polygon fill="none" stroke="black" points="38.5,-297 38.5,-319 168.5,-319 168.5,-297 38.5,-297"/>
<image xlink:href="../../images/foreignKeys.png" width="11px" height="12px" preserveAspectRatio="xMinYMin meet" x="43.5" y="-314"/>
<text text-anchor="start" x="58.5" y="-305.2" font-family="Helvetica,sans-Serif" font-size="11.00">variableunitsid</text>
<polygon fill="none" stroke="black" points="38.5,-275 38.5,-297 168.5,-297 168.5,-275 38.5,-275"/>
<image xlink:href="../../images/foreignKeys.png" width="11px" height="12px" preserveAspectRatio="xMinYMin meet" x="43.5" y="-292"/>
<text text-anchor="start" x="58.5" y="-283.2" font-family="Helvetica,sans-Serif" font-size="11.00">variablecontextid</text>
<polygon fill="none" stroke="black" points="38.5,-257 38.5,-275 168.5,-275 168.5,-257 38.5,-257"/>
<text text-anchor="start" x="41.5" y="-263.2" font-family="Helvetica,sans-Serif" font-size="11.00">...</text>
<polygon fill="#ffffff" stroke="transparent" points="38.5,-239 38.5,-257 70.5,-257 70.5,-239 38.5,-239"/>
<polygon fill="none" stroke="black" points="38.5,-239 38.5,-257 70.5,-257 70.5,-239 38.5,-239"/>
<text text-anchor="start" x="41.5" y="-245.2" font-family="Helvetica,sans-Serif" font-size="11.00">&lt; 4</text>
<polygon fill="#ffffff" stroke="transparent" points="70.5,-239 70.5,-257 141.5,-257 141.5,-239 70.5,-239"/>
<polygon fill="none" stroke="black" points="70.5,-239 70.5,-257 141.5,-257 141.5,-239 70.5,-239"/>
<text text-anchor="start" x="78.5" y="-245.2" font-family="Helvetica,sans-Serif" font-size="11.00">55,155 rows</text>
<polygon fill="#ffffff" stroke="transparent" points="141.5,-239 141.5,-257 168.5,-257 168.5,-239 141.5,-239"/>
<polygon fill="none" stroke="black" points="141.5,-239 141.5,-257 168.5,-257 168.5,-239 141.5,-239"/>
<text text-anchor="start" x="149.5" y="-245.2" font-family="Helvetica,sans-Serif" font-size="11.00">6 &gt;</text>
</a>
</g>
</g>
<!-- isoinstrumentation&#45;&gt;variables -->
<g id="edge4" class="edge">
<title>isoinstrumentation:w&#45;&gt;variables:e</title>
<path fill="none" stroke="black" d="M235.07,-292.79C202.11,-307.37 215.42,-374 169.5,-374"/>
<polygon fill="black" stroke="black" points="241.65,-291.52 250.18,-293.53 245.57,-290.76 249.5,-290 249.5,-290 249.5,-290 245.57,-290.76 248.82,-286.47 241.65,-291.52 241.65,-291.52"/>
<ellipse fill="none" stroke="black" cx="238.5" cy="-292.13" rx="3.2" ry="3.2"/>
</g>
</g>
</svg>
