<?xml version="1.0" encoding="UTF-8" standalone="no"?>
<!DOCTYPE svg PUBLIC "-//W3C//DTD SVG 1.1//EN"
 "http://www.w3.org/Graphics/SVG/1.1/DTD/svg11.dtd">
<!-- Generated by graphviz version 2.43.0 (0)
 -->
<!-- Title: oneDegreeRelationshipsDiagram Pages: 1 -->
<svg width="461pt" height="520pt"
 viewBox="0.00 0.00 461.00 520.00" xmlns="http://www.w3.org/2000/svg" xmlns:xlink="http://www.w3.org/1999/xlink">
<g id="graph0" class="graph" transform="scale(1 1) rotate(0) translate(4 516)">
<title>oneDegreeRelationshipsDiagram</title>
<polygon fill="#ffffff" stroke="transparent" points="-4,4 -4,-516 457,-516 457,4 -4,4"/>
<text text-anchor="middle" x="71.5" y="-7.2" font-family="Helvetica,sans-Serif" font-size="11.00">Generated by SchemaSpy</text>
<!-- isometadata -->
<g id="node1" class="node">
<title>isometadata</title>
<g id="a_node1"><a xlink:href="../../tables/isometadata.html" xlink:title="isometadata" target="_top">
<polygon fill="#ffffff" stroke="transparent" points="234,-39 234,-369 445,-369 445,-39 234,-39"/>
<polygon fill="#f5f5f5" stroke="transparent" points="236.5,-345 236.5,-367 443.5,-367 443.5,-345 236.5,-345"/>
<polygon fill="none" stroke="black" points="236.5,-345 236.5,-367 443.5,-367 443.5,-345 236.5,-345"/>
<text text-anchor="start" x="241.5" y="-354.2" font-family="Helvetica,sans-Serif" font-weight="bold" font-size="11.00">isometadata</text>
<text text-anchor="start" x="408.5" y="-353.2" font-family="Helvetica,sans-Serif" font-size="11.00">[table]</text>
<polygon fill="none" stroke="black" points="236.5,-323 236.5,-345 369.5,-345 369.5,-323 236.5,-323"/>
<image xlink:href="../../images/primaryKeys.png" width="11px" height="12px" preserveAspectRatio="xMinYMin meet" x="241.5" y="-340"/>
<text text-anchor="start" x="256.5" y="-331.2" font-family="Helvetica,sans-Serif" font-size="11.00">isometadataid</text>
<polygon fill="none" stroke="black" points="369.5,-323 369.5,-345 443.5,-345 443.5,-323 369.5,-323"/>
<text text-anchor="start" x="372.5" y="-331.2" font-family="Helvetica,sans-Serif" font-size="11.00">serial[10]</text>
<polygon fill="none" stroke="black" points="236.5,-301 236.5,-323 369.5,-323 369.5,-301 236.5,-301"/>
<image xlink:href="../../images/foreignKeys.png" width="11px" height="12px" preserveAspectRatio="xMinYMin meet" x="241.5" y="-318"/>
<text text-anchor="start" x="256.5" y="-309.2" font-family="Helvetica,sans-Serif" font-size="11.00">dataid</text>
<polygon fill="none" stroke="black" points="369.5,-301 369.5,-323 443.5,-323 443.5,-301 369.5,-301"/>
<text text-anchor="start" x="372.5" y="-309.2" font-family="Helvetica,sans-Serif" font-size="11.00">int4[10]</text>
<polygon fill="none" stroke="black" points="236.5,-279 236.5,-301 369.5,-301 369.5,-279 236.5,-279"/>
<image xlink:href="../../images/foreignKeys.png" width="11px" height="12px" preserveAspectRatio="xMinYMin meet" x="241.5" y="-296"/>
<text text-anchor="start" x="256.5" y="-287.2" font-family="Helvetica,sans-Serif" font-size="11.00">isomatanaltypeid</text>
<polygon fill="none" stroke="black" points="369.5,-279 369.5,-301 443.5,-301 443.5,-279 369.5,-279"/>
<text text-anchor="start" x="372.5" y="-287.2" font-family="Helvetica,sans-Serif" font-size="11.00">int4[10]</text>
<polygon fill="none" stroke="black" points="236.5,-257 236.5,-279 369.5,-279 369.5,-257 236.5,-257"/>
<image xlink:href="../../images/foreignKeys.png" width="11px" height="12px" preserveAspectRatio="xMinYMin meet" x="241.5" y="-274"/>
<text text-anchor="start" x="256.5" y="-265.2" font-family="Helvetica,sans-Serif" font-size="11.00">isosubstratetypeid</text>
<polygon fill="none" stroke="black" points="369.5,-257 369.5,-279 443.5,-279 443.5,-257 369.5,-257"/>
<text text-anchor="start" x="372.5" y="-265.2" font-family="Helvetica,sans-Serif" font-size="11.00">int4[10]</text>
<polygon fill="none" stroke="black" points="236.5,-235 236.5,-257 369.5,-257 369.5,-235 236.5,-235"/>
<image xlink:href="../../images/foreignKeys.png" width="11px" height="12px" preserveAspectRatio="xMinYMin meet" x="241.5" y="-252"/>
<text text-anchor="start" x="256.5" y="-243.2" font-family="Helvetica,sans-Serif" font-size="11.00">analystid</text>
<polygon fill="none" stroke="black" points="369.5,-235 369.5,-257 443.5,-257 443.5,-235 369.5,-235"/>
<text text-anchor="start" x="372.5" y="-243.2" font-family="Helvetica,sans-Serif" font-size="11.00">int4[10]</text>
<polygon fill="none" stroke="black" points="236.5,-213 236.5,-235 369.5,-235 369.5,-213 236.5,-213"/>
<text text-anchor="start" x="256.5" y="-221.2" font-family="Helvetica,sans-Serif" font-size="11.00">lab</text>
<polygon fill="none" stroke="black" points="369.5,-213 369.5,-235 443.5,-235 443.5,-213 369.5,-213"/>
<text text-anchor="start" x="372.5" y="-221.2" font-family="Helvetica,sans-Serif" font-size="11.00">varchar[255]</text>
<polygon fill="none" stroke="black" points="236.5,-191 236.5,-213 369.5,-213 369.5,-191 236.5,-191"/>
<text text-anchor="start" x="256.5" y="-199.2" font-family="Helvetica,sans-Serif" font-size="11.00">labnumber</text>
<polygon fill="none" stroke="black" points="369.5,-191 369.5,-213 443.5,-213 443.5,-191 369.5,-191"/>
<text text-anchor="start" x="372.5" y="-199.2" font-family="Helvetica,sans-Serif" font-size="11.00">varchar[64]</text>
<polygon fill="none" stroke="black" points="236.5,-169 236.5,-191 369.5,-191 369.5,-169 236.5,-169"/>
<text text-anchor="start" x="256.5" y="-177.2" font-family="Helvetica,sans-Serif" font-size="11.00">mass_mg</text>
<polygon fill="none" stroke="black" points="369.5,-169 369.5,-191 443.5,-191 443.5,-169 369.5,-169"/>
<text text-anchor="start" x="372.5" y="-177.2" font-family="Helvetica,sans-Serif" font-size="11.00">float8[17,17]</text>
<polygon fill="none" stroke="black" points="236.5,-147 236.5,-169 369.5,-169 369.5,-147 236.5,-147"/>
<text text-anchor="start" x="256.5" y="-155.2" font-family="Helvetica,sans-Serif" font-size="11.00">weightpercent</text>
<polygon fill="none" stroke="black" points="369.5,-147 369.5,-169 443.5,-169 443.5,-147 369.5,-147"/>
<text text-anchor="start" x="372.5" y="-155.2" font-family="Helvetica,sans-Serif" font-size="11.00">float8[17,17]</text>
<polygon fill="none" stroke="black" points="236.5,-125 236.5,-147 369.5,-147 369.5,-125 236.5,-125"/>
<text text-anchor="start" x="256.5" y="-133.2" font-family="Helvetica,sans-Serif" font-size="11.00">atomicpercent</text>
<polygon fill="none" stroke="black" points="369.5,-125 369.5,-147 443.5,-147 443.5,-125 369.5,-125"/>
<text text-anchor="start" x="372.5" y="-133.2" font-family="Helvetica,sans-Serif" font-size="11.00">float8[17,17]</text>
<polygon fill="none" stroke="black" points="236.5,-103 236.5,-125 369.5,-125 369.5,-103 236.5,-103"/>
<text text-anchor="start" x="256.5" y="-111.2" font-family="Helvetica,sans-Serif" font-size="11.00">reps</text>
<polygon fill="none" stroke="black" points="369.5,-103 369.5,-125 443.5,-125 443.5,-103 369.5,-103"/>
<text text-anchor="start" x="372.5" y="-111.2" font-family="Helvetica,sans-Serif" font-size="11.00">int4[10]</text>
<polygon fill="none" stroke="black" points="236.5,-81 236.5,-103 369.5,-103 369.5,-81 236.5,-81"/>
<text text-anchor="start" x="256.5" y="-89.2" font-family="Helvetica,sans-Serif" font-size="11.00">recdatecreated</text>
<polygon fill="none" stroke="black" points="369.5,-81 369.5,-103 443.5,-103 443.5,-81 369.5,-81"/>
<text text-anchor="start" x="372.5" y="-89.2" font-family="Helvetica,sans-Serif" font-size="11.00">timestamp[22]</text>
<polygon fill="none" stroke="black" points="236.5,-59 236.5,-81 369.5,-81 369.5,-59 236.5,-59"/>
<text text-anchor="start" x="256.5" y="-67.2" font-family="Helvetica,sans-Serif" font-size="11.00">recdatemodified</text>
<polygon fill="none" stroke="black" points="369.5,-59 369.5,-81 443.5,-81 443.5,-59 369.5,-59"/>
<text text-anchor="start" x="372.5" y="-67.2" font-family="Helvetica,sans-Serif" font-size="11.00">timestamp[22]</text>
<polygon fill="#ffffff" stroke="transparent" points="236.5,-41 236.5,-59 283.5,-59 283.5,-41 236.5,-41"/>
<polygon fill="none" stroke="black" points="236.5,-41 236.5,-59 283.5,-59 283.5,-41 236.5,-41"/>
<text text-anchor="start" x="239.5" y="-47.2" font-family="Helvetica,sans-Serif" font-size="11.00">&lt; 4</text>
<polygon fill="#ffffff" stroke="transparent" points="283.5,-41 283.5,-59 369.5,-59 369.5,-41 283.5,-41"/>
<polygon fill="none" stroke="black" points="283.5,-41 283.5,-59 369.5,-59 369.5,-41 283.5,-41"/>
<text text-anchor="start" x="312.5" y="-47.2" font-family="Helvetica,sans-Serif" font-size="11.00">4,893 rows</text>
<polygon fill="#ffffff" stroke="transparent" points="369.5,-41 369.5,-59 443.5,-59 443.5,-41 369.5,-41"/>
<polygon fill="none" stroke="black" points="369.5,-41 369.5,-59 443.5,-59 443.5,-41 369.5,-41"/>
<text text-anchor="start" x="424.5" y="-47.2" font-family="Helvetica,sans-Serif" font-size="11.00">0 &gt;</text>
<polygon fill="none" stroke="black" stroke-width="2" points="235,-40 235,-368 444,-368 444,-40 235,-40"/>
</a>
</g>
</g>
<!-- contacts -->
<g id="node2" class="node">
<title>contacts</title>
<g id="a_node2"><a xlink:href="../../tables/contacts.html" xlink:title="contacts" target="_top">
<polygon fill="#ffffff" stroke="transparent" points="36.5,-37 36.5,-161 156.5,-161 156.5,-37 36.5,-37"/>
<polygon fill="#f5f5f5" stroke="transparent" points="36.5,-139 36.5,-161 156.5,-161 156.5,-139 36.5,-139"/>
<polygon fill="none" stroke="black" points="36.5,-139 36.5,-161 156.5,-161 156.5,-139 36.5,-139"/>
<text text-anchor="start" x="41.5" y="-148.2" font-family="Helvetica,sans-Serif" font-weight="bold" font-size="11.00">contacts</text>
<text text-anchor="start" x="121.5" y="-147.2" font-family="Helvetica,sans-Serif" font-size="11.00">[table]</text>
<polygon fill="none" stroke="black" points="36.5,-117 36.5,-139 156.5,-139 156.5,-117 36.5,-117"/>
<image xlink:href="../../images/primaryKeys.png" width="11px" height="12px" preserveAspectRatio="xMinYMin meet" x="41.5" y="-134"/>
<text text-anchor="start" x="56.5" y="-125.2" font-family="Helvetica,sans-Serif" font-size="11.00">contactid</text>
<polygon fill="none" stroke="black" points="36.5,-95 36.5,-117 156.5,-117 156.5,-95 36.5,-95"/>
<image xlink:href="../../images/foreignKeys.png" width="11px" height="12px" preserveAspectRatio="xMinYMin meet" x="41.5" y="-112"/>
<text text-anchor="start" x="56.5" y="-103.2" font-family="Helvetica,sans-Serif" font-size="11.00">contactstatusid</text>
<polygon fill="#ffffff" stroke="transparent" points="36.5,-73 36.5,-95 156.5,-95 156.5,-73 36.5,-73"/>
<polygon fill="none" stroke="black" points="36.5,-73 36.5,-95 156.5,-95 156.5,-73 36.5,-73"/>
<text text-anchor="start" x="56.5" y="-81.2" font-family="Helvetica,sans-Serif" font-size="11.00">familyname</text>
<polygon fill="none" stroke="black" points="36.5,-55 36.5,-73 156.5,-73 156.5,-55 36.5,-55"/>
<text text-anchor="start" x="39.5" y="-61.2" font-family="Helvetica,sans-Serif" font-size="11.00">...</text>
<polygon fill="#ffffff" stroke="transparent" points="36.5,-37 36.5,-55 60.5,-55 60.5,-37 36.5,-37"/>
<polygon fill="none" stroke="black" points="36.5,-37 36.5,-55 60.5,-55 60.5,-37 36.5,-37"/>
<text text-anchor="start" x="39.5" y="-43.2" font-family="Helvetica,sans-Serif" font-size="11.00">&lt; 1</text>
<polygon fill="#ffffff" stroke="transparent" points="60.5,-37 60.5,-55 127.5,-55 127.5,-37 60.5,-37"/>
<polygon fill="none" stroke="black" points="60.5,-37 60.5,-55 127.5,-55 127.5,-37 60.5,-37"/>
<text text-anchor="start" x="64.5" y="-43.2" font-family="Helvetica,sans-Serif" font-size="11.00">13,247 rows</text>
<polygon fill="#ffffff" stroke="transparent" points="127.5,-37 127.5,-55 156.5,-55 156.5,-37 127.5,-37"/>
<polygon fill="none" stroke="black" points="127.5,-37 127.5,-55 156.5,-55 156.5,-37 127.5,-37"/>
<text text-anchor="start" x="131.5" y="-43.2" font-family="Helvetica,sans-Serif" font-size="11.00">17 &gt;</text>
</a>
</g>
</g>
<!-- isometadata&#45;&gt;contacts -->
<g id="edge1" class="edge">
<title>isometadata:w&#45;&gt;contacts:e</title>
<path fill="none" stroke="black" d="M221.07,-243.31C180.32,-225.75 214.72,-128 157.5,-128"/>
<polygon fill="black" stroke="black" points="227.64,-244.54 234.84,-249.54 231.57,-245.27 235.5,-246 235.5,-246 235.5,-246 231.57,-245.27 236.16,-242.46 227.64,-244.54 227.64,-244.54"/>
<ellipse fill="none" stroke="black" cx="224.49" cy="-243.95" rx="3.2" ry="3.2"/>
</g>
<!-- data -->
<g id="node3" class="node">
<title>data</title>
<g id="a_node3"><a xlink:href="../../tables/data.html" xlink:title="data" target="_top">
<polygon fill="#ffffff" stroke="transparent" points="31,-384 31,-508 162,-508 162,-384 31,-384"/>
<polygon fill="#f5f5f5" stroke="transparent" points="31.5,-486 31.5,-508 162.5,-508 162.5,-486 31.5,-486"/>
<polygon fill="none" stroke="black" points="31.5,-486 31.5,-508 162.5,-508 162.5,-486 31.5,-486"/>
<text text-anchor="start" x="36.5" y="-495.2" font-family="Helvetica,sans-Serif" font-weight="bold" font-size="11.00">data</text>
<text text-anchor="start" x="127.5" y="-494.2" font-family="Helvetica,sans-Serif" font-size="11.00">[table]</text>
<polygon fill="none" stroke="black" points="31.5,-464 31.5,-486 162.5,-486 162.5,-464 31.5,-464"/>
<image xlink:href="../../images/primaryKeys.png" width="11px" height="12px" preserveAspectRatio="xMinYMin meet" x="36.5" y="-481"/>
<text text-anchor="start" x="57.5" y="-472.2" font-family="Helvetica,sans-Serif" font-size="11.00">dataid</text>
<polygon fill="#ffffff" stroke="transparent" points="31.5,-442 31.5,-464 162.5,-464 162.5,-442 31.5,-442"/>
<polygon fill="none" stroke="black" points="31.5,-442 31.5,-464 162.5,-464 162.5,-442 31.5,-442"/>
<image xlink:href="../../images/foreignKeys.png" width="11px" height="12px" preserveAspectRatio="xMinYMin meet" x="36.5" y="-459"/>
<text text-anchor="start" x="57.5" y="-450.2" font-family="Helvetica,sans-Serif" font-size="11.00">sampleid</text>
<polygon fill="#ffffff" stroke="transparent" points="31.5,-420 31.5,-442 162.5,-442 162.5,-420 31.5,-420"/>
<polygon fill="none" stroke="black" points="31.5,-420 31.5,-442 162.5,-442 162.5,-420 31.5,-420"/>
<image xlink:href="../../images/foreignKeys.png" width="11px" height="12px" preserveAspectRatio="xMinYMin meet" x="36.5" y="-437"/>
<text text-anchor="start" x="57.5" y="-428.2" font-family="Helvetica,sans-Serif" font-size="11.00">variableid</text>
<polygon fill="none" stroke="black" points="31.5,-402 31.5,-420 162.5,-420 162.5,-402 31.5,-402"/>
<text text-anchor="start" x="34.5" y="-408.2" font-family="Helvetica,sans-Serif" font-size="11.00">...</text>
<polygon fill="#ffffff" stroke="transparent" points="31.5,-384 31.5,-402 53.5,-402 53.5,-384 31.5,-384"/>
<polygon fill="none" stroke="black" points="31.5,-384 31.5,-402 53.5,-402 53.5,-384 31.5,-384"/>
<text text-anchor="start" x="34.5" y="-390.2" font-family="Helvetica,sans-Serif" font-size="11.00">&lt; 2</text>
<polygon fill="#ffffff" stroke="transparent" points="53.5,-384 53.5,-402 140.5,-402 140.5,-384 53.5,-384"/>
<polygon fill="none" stroke="black" points="53.5,-384 53.5,-402 140.5,-402 140.5,-384 53.5,-384"/>
<text text-anchor="start" x="56.5" y="-390.2" font-family="Helvetica,sans-Serif" font-size="11.00">10,039,985 rows</text>
<polygon fill="#ffffff" stroke="transparent" points="140.5,-384 140.5,-402 162.5,-402 162.5,-384 140.5,-384"/>
<polygon fill="none" stroke="black" points="140.5,-384 140.5,-402 162.5,-402 162.5,-384 140.5,-384"/>
<text text-anchor="start" x="143.5" y="-390.2" font-family="Helvetica,sans-Serif" font-size="11.00">7 &gt;</text>
</a>
</g>
</g>
<!-- isometadata&#45;&gt;data -->
<g id="edge2" class="edge">
<title>isometadata:w&#45;&gt;data:e</title>
<path fill="none" stroke="black" d="M221.14,-314.3C167.63,-334.12 237.13,-475 163.5,-475"/>
<polygon fill="black" stroke="black" points="227.6,-313.27 236.07,-315.55 231.55,-312.63 235.5,-312 235.5,-312 235.5,-312 231.55,-312.63 234.93,-308.45 227.6,-313.27 227.6,-313.27"/>
<ellipse fill="none" stroke="black" cx="224.44" cy="-313.77" rx="3.2" ry="3.2"/>
</g>
<!-- isomaterialanalyzedtypes -->
<g id="node4" class="node">
<title>isomaterialanalyzedtypes</title>
<g id="a_node4"><a xlink:href="../../tables/isomaterialanalyzedtypes.html" xlink:title="isomaterialanalyzedtypes" target="_top">
<polygon fill="#ffffff" stroke="transparent" points="8,-283 8,-363 185,-363 185,-283 8,-283"/>
<polygon fill="#f5f5f5" stroke="transparent" points="8.5,-341 8.5,-363 185.5,-363 185.5,-341 8.5,-341"/>
<polygon fill="none" stroke="black" points="8.5,-341 8.5,-363 185.5,-363 185.5,-341 8.5,-341"/>
<text text-anchor="start" x="13.5" y="-350.2" font-family="Helvetica,sans-Serif" font-weight="bold" font-size="11.00">isomaterialanalyzedtypes</text>
<text text-anchor="start" x="150.5" y="-349.2" font-family="Helvetica,sans-Serif" font-size="11.00">[table]</text>
<polygon fill="none" stroke="black" points="8.5,-319 8.5,-341 185.5,-341 185.5,-319 8.5,-319"/>
<image xlink:href="../../images/primaryKeys.png" width="11px" height="12px" preserveAspectRatio="xMinYMin meet" x="13.5" y="-336"/>
<text text-anchor="start" x="29.5" y="-327.2" font-family="Helvetica,sans-Serif" font-size="11.00">isomatanaltypeid</text>
<polygon fill="none" stroke="black" points="8.5,-301 8.5,-319 185.5,-319 185.5,-301 8.5,-301"/>
<text text-anchor="start" x="11.5" y="-307.2" font-family="Helvetica,sans-Serif" font-size="11.00">...</text>
<polygon fill="#ffffff" stroke="transparent" points="8.5,-283 8.5,-301 69.5,-301 69.5,-283 8.5,-283"/>
<polygon fill="none" stroke="black" points="8.5,-283 8.5,-301 69.5,-301 69.5,-283 8.5,-283"/>
<text text-anchor="start" x="11.5" y="-289.2" font-family="Helvetica,sans-Serif" font-size="11.00"> &#160;</text>
<polygon fill="#ffffff" stroke="transparent" points="69.5,-283 69.5,-301 138.5,-301 138.5,-283 69.5,-283"/>
<polygon fill="none" stroke="black" points="69.5,-283 69.5,-301 138.5,-301 138.5,-283 69.5,-283"/>
<text text-anchor="start" x="96.5" y="-289.2" font-family="Helvetica,sans-Serif" font-size="11.00">12 rows</text>
<polygon fill="#ffffff" stroke="transparent" points="138.5,-283 138.5,-301 185.5,-301 185.5,-283 138.5,-283"/>
<polygon fill="none" stroke="black" points="138.5,-283 138.5,-301 185.5,-301 185.5,-283 138.5,-283"/>
<text text-anchor="start" x="166.5" y="-289.2" font-family="Helvetica,sans-Serif" font-size="11.00">2 &gt;</text>
</a>
</g>
</g>
<!-- isometadata&#45;&gt;isomaterialanalyzedtypes -->
<g id="edge3" class="edge">
<title>isometadata:w&#45;&gt;isomaterialanalyzedtypes:e</title>
<path fill="none" stroke="black" d="M221.76,-294.59C208.86,-305.1 208.68,-330 186.5,-330"/>
<polygon fill="black" stroke="black" points="227.91,-292.53 236.64,-293.41 231.71,-291.27 235.5,-290 235.5,-290 235.5,-290 231.71,-291.27 234.36,-286.59 227.91,-292.53 227.91,-292.53"/>
<ellipse fill="none" stroke="black" cx="224.88" cy="-293.55" rx="3.2" ry="3.2"/>
</g>
<!-- isosubstratetypes -->
<g id="node5" class="node">
<title>isosubstratetypes</title>
<g id="a_node5"><a xlink:href="../../tables/isosubstratetypes.html" xlink:title="isosubstratetypes" target="_top">
<polygon fill="#ffffff" stroke="transparent" points="27.5,-182 27.5,-262 165.5,-262 165.5,-182 27.5,-182"/>
<polygon fill="#f5f5f5" stroke="transparent" points="27.5,-240 27.5,-262 165.5,-262 165.5,-240 27.5,-240"/>
<polygon fill="none" stroke="black" points="27.5,-240 27.5,-262 165.5,-262 165.5,-240 27.5,-240"/>
<text text-anchor="start" x="32.5" y="-249.2" font-family="Helvetica,sans-Serif" font-weight="bold" font-size="11.00">isosubstratetypes</text>
<text text-anchor="start" x="130.5" y="-248.2" font-family="Helvetica,sans-Serif" font-size="11.00">[table]</text>
<polygon fill="none" stroke="black" points="27.5,-218 27.5,-240 165.5,-240 165.5,-218 27.5,-218"/>
<image xlink:href="../../images/primaryKeys.png" width="11px" height="12px" preserveAspectRatio="xMinYMin meet" x="32.5" y="-235"/>
<text text-anchor="start" x="50.5" y="-226.2" font-family="Helvetica,sans-Serif" font-size="11.00">isosubstratetypeid</text>
<polygon fill="none" stroke="black" points="27.5,-200 27.5,-218 165.5,-218 165.5,-200 27.5,-200"/>
<text text-anchor="start" x="30.5" y="-206.2" font-family="Helvetica,sans-Serif" font-size="11.00">...</text>
<polygon fill="#ffffff" stroke="transparent" points="27.5,-182 27.5,-200 69.5,-200 69.5,-182 27.5,-182"/>
<polygon fill="none" stroke="black" points="27.5,-182 27.5,-200 69.5,-200 69.5,-182 27.5,-182"/>
<text text-anchor="start" x="30.5" y="-188.2" font-family="Helvetica,sans-Serif" font-size="11.00"> &#160;</text>
<polygon fill="#ffffff" stroke="transparent" points="69.5,-182 69.5,-200 128.5,-200 128.5,-182 69.5,-182"/>
<polygon fill="none" stroke="black" points="69.5,-182 69.5,-200 128.5,-200 128.5,-182 69.5,-182"/>
<text text-anchor="start" x="86.5" y="-188.2" font-family="Helvetica,sans-Serif" font-size="11.00">11 rows</text>
<polygon fill="#ffffff" stroke="transparent" points="128.5,-182 128.5,-200 165.5,-200 165.5,-182 128.5,-182"/>
<polygon fill="none" stroke="black" points="128.5,-182 128.5,-200 165.5,-200 165.5,-182 128.5,-182"/>
<text text-anchor="start" x="146.5" y="-188.2" font-family="Helvetica,sans-Serif" font-size="11.00">2 &gt;</text>
</a>
</g>
</g>
<!-- isometadata&#45;&gt;isosubstratetypes -->
<g id="edge4" class="edge">
<title>isometadata:w&#45;&gt;isosubstratetypes:e</title>
<path fill="none" stroke="black" d="M221.1,-265.32C199.8,-256.51 196.08,-229 166.5,-229"/>
<polygon fill="black" stroke="black" points="227.64,-266.54 234.84,-271.54 231.57,-267.27 235.5,-268 235.5,-268 235.5,-268 231.57,-267.27 236.16,-264.46 227.64,-266.54 227.64,-266.54"/>
<ellipse fill="none" stroke="black" cx="224.49" cy="-265.95" rx="3.2" ry="3.2"/>
</g>
</g>
</svg>
