<?xml version="1.0" encoding="UTF-8" standalone="no"?>
<!DOCTYPE svg PUBLIC "-//W3C//DTD SVG 1.1//EN"
 "http://www.w3.org/Graphics/SVG/1.1/DTD/svg11.dtd">
<!-- Generated by graphviz version 2.43.0 (0)
 -->
<!-- Title: oneDegreeRelationshipsDiagram Pages: 1 -->
<svg width="477pt" height="340pt"
 viewBox="0.00 0.00 477.00 340.00" xmlns="http://www.w3.org/2000/svg" xmlns:xlink="http://www.w3.org/1999/xlink">
<g id="graph0" class="graph" transform="scale(1 1) rotate(0) translate(4 336)">
<title>oneDegreeRelationshipsDiagram</title>
<polygon fill="#ffffff" stroke="transparent" points="-4,4 -4,-336 473,-336 473,4 -4,4"/>
<text text-anchor="middle" x="71.5" y="-7.2" font-family="Helvetica,sans-Serif" font-size="11.00">Generated by SchemaSpy</text>
<!-- isomatanalsubstrate -->
<g id="node1" class="node">
<title>isomatanalsubstrate</title>
<g id="a_node1"><a xlink:href="../../tables/isomatanalsubstrate.html" xlink:title="isomatanalsubstrate" target="_top">
<polygon fill="#ffffff" stroke="transparent" points="310,-226 310,-328 461,-328 461,-226 310,-226"/>
<polygon fill="#f5f5f5" stroke="transparent" points="310.5,-306 310.5,-328 461.5,-328 461.5,-306 310.5,-306"/>
<polygon fill="none" stroke="black" points="310.5,-306 310.5,-328 461.5,-328 461.5,-306 310.5,-306"/>
<text text-anchor="start" x="315.5" y="-315.2" font-family="Helvetica,sans-Serif" font-weight="bold" font-size="11.00">isomatanalsubstrate</text>
<text text-anchor="start" x="426.5" y="-314.2" font-family="Helvetica,sans-Serif" font-size="11.00">[table]</text>
<polygon fill="none" stroke="black" points="310.5,-284 310.5,-306 461.5,-306 461.5,-284 310.5,-284"/>
<image xlink:href="../../images/primaryKeys.png" width="11px" height="12px" preserveAspectRatio="xMinYMin meet" x="315.5" y="-301"/>
<text text-anchor="start" x="333.5" y="-292.2" font-family="Helvetica,sans-Serif" font-size="11.00">isomatanaltypeid</text>
<polygon fill="none" stroke="black" points="310.5,-262 310.5,-284 461.5,-284 461.5,-262 310.5,-262"/>
<image xlink:href="../../images/primaryKeys.png" width="11px" height="12px" preserveAspectRatio="xMinYMin meet" x="315.5" y="-279"/>
<text text-anchor="start" x="333.5" y="-270.2" font-family="Helvetica,sans-Serif" font-size="11.00">isosubstratetypeid</text>
<polygon fill="none" stroke="black" points="310.5,-244 310.5,-262 461.5,-262 461.5,-244 310.5,-244"/>
<text text-anchor="start" x="313.5" y="-250.2" font-family="Helvetica,sans-Serif" font-size="11.00">...</text>
<polygon fill="#ffffff" stroke="transparent" points="310.5,-226 310.5,-244 367.5,-244 367.5,-226 310.5,-226"/>
<polygon fill="none" stroke="black" points="310.5,-226 310.5,-244 367.5,-244 367.5,-226 310.5,-226"/>
<text text-anchor="start" x="313.5" y="-232.2" font-family="Helvetica,sans-Serif" font-size="11.00">&lt; 2</text>
<polygon fill="#ffffff" stroke="transparent" points="367.5,-226 367.5,-244 430.5,-244 430.5,-226 367.5,-226"/>
<polygon fill="none" stroke="black" points="367.5,-226 367.5,-244 430.5,-244 430.5,-226 367.5,-226"/>
<text text-anchor="start" x="388.5" y="-232.2" font-family="Helvetica,sans-Serif" font-size="11.00">19 rows</text>
<polygon fill="#ffffff" stroke="transparent" points="430.5,-226 430.5,-244 461.5,-244 461.5,-226 430.5,-226"/>
<polygon fill="none" stroke="black" points="430.5,-226 430.5,-244 461.5,-244 461.5,-226 430.5,-226"/>
<text text-anchor="start" x="451.5" y="-232.2" font-family="Helvetica,sans-Serif" font-size="11.00"> &#160;</text>
</a>
</g>
</g>
<!-- isomaterialanalyzedtypes -->
<g id="node2" class="node">
<title>isomaterialanalyzedtypes</title>
<g id="a_node2"><a xlink:href="../../tables/isomaterialanalyzedtypes.html" xlink:title="isomaterialanalyzedtypes" target="_top">
<polygon fill="#ffffff" stroke="transparent" points="8,-114 8,-246 261,-246 261,-114 8,-114"/>
<polygon fill="#f5f5f5" stroke="transparent" points="10.5,-222 10.5,-244 259.5,-244 259.5,-222 10.5,-222"/>
<polygon fill="none" stroke="black" points="10.5,-222 10.5,-244 259.5,-244 259.5,-222 10.5,-222"/>
<text text-anchor="start" x="15.5" y="-231.2" font-family="Helvetica,sans-Serif" font-weight="bold" font-size="11.00">isomaterialanalyzedtypes</text>
<text text-anchor="start" x="224.5" y="-230.2" font-family="Helvetica,sans-Serif" font-size="11.00">[table]</text>
<polygon fill="none" stroke="black" points="10.5,-200 10.5,-222 185.5,-222 185.5,-200 10.5,-200"/>
<image xlink:href="../../images/primaryKeys.png" width="11px" height="12px" preserveAspectRatio="xMinYMin meet" x="15.5" y="-217"/>
<text text-anchor="start" x="30.5" y="-208.2" font-family="Helvetica,sans-Serif" font-size="11.00">isomatanaltypeid</text>
<polygon fill="none" stroke="black" points="185.5,-200 185.5,-222 259.5,-222 259.5,-200 185.5,-200"/>
<text text-anchor="start" x="188.5" y="-208.2" font-family="Helvetica,sans-Serif" font-size="11.00">serial[10]</text>
<polygon fill="none" stroke="black" points="10.5,-178 10.5,-200 185.5,-200 185.5,-178 10.5,-178"/>
<text text-anchor="start" x="30.5" y="-186.2" font-family="Helvetica,sans-Serif" font-size="11.00">isomaterialanalyzedtype</text>
<polygon fill="none" stroke="black" points="185.5,-178 185.5,-200 259.5,-200 259.5,-178 185.5,-178"/>
<text text-anchor="start" x="188.5" y="-186.2" font-family="Helvetica,sans-Serif" font-size="11.00">varchar[50]</text>
<polygon fill="none" stroke="black" points="10.5,-156 10.5,-178 185.5,-178 185.5,-156 10.5,-156"/>
<text text-anchor="start" x="30.5" y="-164.2" font-family="Helvetica,sans-Serif" font-size="11.00">recdatecreated</text>
<polygon fill="none" stroke="black" points="185.5,-156 185.5,-178 259.5,-178 259.5,-156 185.5,-156"/>
<text text-anchor="start" x="188.5" y="-164.2" font-family="Helvetica,sans-Serif" font-size="11.00">timestamp[22]</text>
<polygon fill="none" stroke="black" points="10.5,-134 10.5,-156 185.5,-156 185.5,-134 10.5,-134"/>
<text text-anchor="start" x="30.5" y="-142.2" font-family="Helvetica,sans-Serif" font-size="11.00">recdatemodified</text>
<polygon fill="none" stroke="black" points="185.5,-134 185.5,-156 259.5,-156 259.5,-134 185.5,-134"/>
<text text-anchor="start" x="188.5" y="-142.2" font-family="Helvetica,sans-Serif" font-size="11.00">timestamp[22]</text>
<polygon fill="#ffffff" stroke="transparent" points="10.5,-116 10.5,-134 86.5,-134 86.5,-116 10.5,-116"/>
<polygon fill="none" stroke="black" points="10.5,-116 10.5,-134 86.5,-134 86.5,-116 10.5,-116"/>
<text text-anchor="start" x="13.5" y="-122.2" font-family="Helvetica,sans-Serif" font-size="11.00">&lt; 0</text>
<polygon fill="#ffffff" stroke="transparent" points="86.5,-116 86.5,-134 185.5,-134 185.5,-116 86.5,-116"/>
<polygon fill="none" stroke="black" points="86.5,-116 86.5,-134 185.5,-134 185.5,-116 86.5,-116"/>
<text text-anchor="start" x="143.5" y="-122.2" font-family="Helvetica,sans-Serif" font-size="11.00">12 rows</text>
<polygon fill="#ffffff" stroke="transparent" points="185.5,-116 185.5,-134 259.5,-134 259.5,-116 185.5,-116"/>
<polygon fill="none" stroke="black" points="185.5,-116 185.5,-134 259.5,-134 259.5,-116 185.5,-116"/>
<text text-anchor="start" x="240.5" y="-122.2" font-family="Helvetica,sans-Serif" font-size="11.00">2 &gt;</text>
<polygon fill="none" stroke="black" stroke-width="2" points="9,-115 9,-245 260,-245 260,-115 9,-115"/>
</a>
</g>
</g>
<!-- isomatanalsubstrate&#45;&gt;isomaterialanalyzedtypes -->
<g id="edge1" class="edge">
<title>isomatanalsubstrate:w&#45;&gt;isomaterialanalyzedtypes:e</title>
<path fill="none" stroke="black" d="M295.6,-290.48C275.21,-273.04 297.64,-211 260.5,-211"/>
<polygon fill="black" stroke="black" points="301.89,-292.53 308.39,-298.42 305.7,-293.76 309.5,-295 309.5,-295 309.5,-295 305.7,-293.76 310.61,-291.58 301.89,-292.53 301.89,-292.53"/>
<ellipse fill="none" stroke="black" cx="298.85" cy="-291.54" rx="3.2" ry="3.2"/>
</g>
<!-- isometadata -->
<g id="node3" class="node">
<title>isometadata</title>
<g id="a_node3"><a xlink:href="../../tables/isometadata.html" xlink:title="isometadata" target="_top">
<polygon fill="#ffffff" stroke="transparent" points="319,-37 319,-205 452,-205 452,-37 319,-37"/>
<polygon fill="#f5f5f5" stroke="transparent" points="319.5,-183 319.5,-205 452.5,-205 452.5,-183 319.5,-183"/>
<polygon fill="none" stroke="black" points="319.5,-183 319.5,-205 452.5,-205 452.5,-183 319.5,-183"/>
<text text-anchor="start" x="324.5" y="-192.2" font-family="Helvetica,sans-Serif" font-weight="bold" font-size="11.00">isometadata</text>
<text text-anchor="start" x="417.5" y="-191.2" font-family="Helvetica,sans-Serif" font-size="11.00">[table]</text>
<polygon fill="none" stroke="black" points="319.5,-161 319.5,-183 452.5,-183 452.5,-161 319.5,-161"/>
<image xlink:href="../../images/primaryKeys.png" width="11px" height="12px" preserveAspectRatio="xMinYMin meet" x="324.5" y="-178"/>
<text text-anchor="start" x="339.5" y="-169.2" font-family="Helvetica,sans-Serif" font-size="11.00">isometadataid</text>
<polygon fill="none" stroke="black" points="319.5,-139 319.5,-161 452.5,-161 452.5,-139 319.5,-139"/>
<image xlink:href="../../images/foreignKeys.png" width="11px" height="12px" preserveAspectRatio="xMinYMin meet" x="324.5" y="-156"/>
<text text-anchor="start" x="339.5" y="-147.2" font-family="Helvetica,sans-Serif" font-size="11.00">dataid</text>
<polygon fill="none" stroke="black" points="319.5,-117 319.5,-139 452.5,-139 452.5,-117 319.5,-117"/>
<image xlink:href="../../images/foreignKeys.png" width="11px" height="12px" preserveAspectRatio="xMinYMin meet" x="324.5" y="-134"/>
<text text-anchor="start" x="339.5" y="-125.2" font-family="Helvetica,sans-Serif" font-size="11.00">isomatanaltypeid</text>
<polygon fill="none" stroke="black" points="319.5,-95 319.5,-117 452.5,-117 452.5,-95 319.5,-95"/>
<image xlink:href="../../images/foreignKeys.png" width="11px" height="12px" preserveAspectRatio="xMinYMin meet" x="324.5" y="-112"/>
<text text-anchor="start" x="339.5" y="-103.2" font-family="Helvetica,sans-Serif" font-size="11.00">isosubstratetypeid</text>
<polygon fill="none" stroke="black" points="319.5,-73 319.5,-95 452.5,-95 452.5,-73 319.5,-73"/>
<image xlink:href="../../images/foreignKeys.png" width="11px" height="12px" preserveAspectRatio="xMinYMin meet" x="324.5" y="-90"/>
<text text-anchor="start" x="339.5" y="-81.2" font-family="Helvetica,sans-Serif" font-size="11.00">analystid</text>
<polygon fill="none" stroke="black" points="319.5,-55 319.5,-73 452.5,-73 452.5,-55 319.5,-55"/>
<text text-anchor="start" x="322.5" y="-61.2" font-family="Helvetica,sans-Serif" font-size="11.00">...</text>
<polygon fill="#ffffff" stroke="transparent" points="319.5,-37 319.5,-55 360.5,-55 360.5,-37 319.5,-37"/>
<polygon fill="none" stroke="black" points="319.5,-37 319.5,-55 360.5,-55 360.5,-37 319.5,-37"/>
<text text-anchor="start" x="322.5" y="-43.2" font-family="Helvetica,sans-Serif" font-size="11.00">&lt; 4</text>
<polygon fill="#ffffff" stroke="transparent" points="360.5,-37 360.5,-55 429.5,-55 429.5,-37 360.5,-37"/>
<polygon fill="none" stroke="black" points="360.5,-37 360.5,-55 429.5,-55 429.5,-37 360.5,-37"/>
<text text-anchor="start" x="372.5" y="-43.2" font-family="Helvetica,sans-Serif" font-size="11.00">4,893 rows</text>
<polygon fill="#ffffff" stroke="transparent" points="429.5,-37 429.5,-55 452.5,-55 452.5,-37 429.5,-37"/>
<polygon fill="none" stroke="black" points="429.5,-37 429.5,-55 452.5,-55 452.5,-37 429.5,-37"/>
<text text-anchor="start" x="442.5" y="-43.2" font-family="Helvetica,sans-Serif" font-size="11.00"> &#160;</text>
</a>
</g>
</g>
<!-- isometadata&#45;&gt;isomaterialanalyzedtypes -->
<g id="edge2" class="edge">
<title>isometadata:w&#45;&gt;isomaterialanalyzedtypes:e</title>
<path fill="none" stroke="black" d="M304.61,-131.78C280.47,-148.02 299.7,-211 260.5,-211"/>
<polygon fill="black" stroke="black" points="310.78,-130.1 319.45,-131.47 314.64,-129.05 318.5,-128 318.5,-128 318.5,-128 314.64,-129.05 317.55,-124.53 310.78,-130.1 310.78,-130.1"/>
<ellipse fill="none" stroke="black" cx="307.69" cy="-130.94" rx="3.2" ry="3.2"/>
</g>
</g>
</svg>
