<?xml version="1.0" encoding="UTF-8" standalone="no"?>
<!DOCTYPE svg PUBLIC "-//W3C//DTD SVG 1.1//EN"
 "http://www.w3.org/Graphics/SVG/1.1/DTD/svg11.dtd">
<!-- Generated by graphviz version 2.43.0 (0)
 -->
<!-- Title: oneDegreeRelationshipsDiagram Pages: 1 -->
<svg width="473pt" height="230pt"
 viewBox="0.00 0.00 473.00 230.00" xmlns="http://www.w3.org/2000/svg" xmlns:xlink="http://www.w3.org/1999/xlink">
<g id="graph0" class="graph" transform="scale(1 1) rotate(0) translate(4 226)">
<title>oneDegreeRelationshipsDiagram</title>
<polygon fill="#ffffff" stroke="transparent" points="-4,4 -4,-226 469,-226 469,4 -4,4"/>
<text text-anchor="middle" x="71.5" y="-7.2" font-family="Helvetica,sans-Serif" font-size="11.00">Generated by SchemaSpy</text>
<!-- isomatanalsubstrate -->
<g id="node1" class="node">
<title>isomatanalsubstrate</title>
<g id="a_node1"><a xlink:href="../../tables/isomatanalsubstrate.html" xlink:title="isomatanalsubstrate" target="_top">
<polygon fill="#ffffff" stroke="transparent" points="234,-48 234,-180 457,-180 457,-48 234,-48"/>
<polygon fill="#f5f5f5" stroke="transparent" points="236.5,-156 236.5,-178 455.5,-178 455.5,-156 236.5,-156"/>
<polygon fill="none" stroke="black" points="236.5,-156 236.5,-178 455.5,-178 455.5,-156 236.5,-156"/>
<text text-anchor="start" x="241.5" y="-165.2" font-family="Helvetica,sans-Serif" font-weight="bold" font-size="11.00">isomatanalsubstrate</text>
<text text-anchor="start" x="420.5" y="-164.2" font-family="Helvetica,sans-Serif" font-size="11.00">[table]</text>
<polygon fill="none" stroke="black" points="236.5,-134 236.5,-156 381.5,-156 381.5,-134 236.5,-134"/>
<image xlink:href="../../images/primaryKeys.png" width="11px" height="12px" preserveAspectRatio="xMinYMin meet" x="241.5" y="-151"/>
<text text-anchor="start" x="256.5" y="-142.2" font-family="Helvetica,sans-Serif" font-size="11.00">isomatanaltypeid</text>
<polygon fill="none" stroke="black" points="381.5,-134 381.5,-156 455.5,-156 455.5,-134 381.5,-134"/>
<text text-anchor="start" x="384.5" y="-142.2" font-family="Helvetica,sans-Serif" font-size="11.00">int4[10]</text>
<polygon fill="none" stroke="black" points="236.5,-112 236.5,-134 381.5,-134 381.5,-112 236.5,-112"/>
<image xlink:href="../../images/primaryKeys.png" width="11px" height="12px" preserveAspectRatio="xMinYMin meet" x="241.5" y="-129"/>
<text text-anchor="start" x="256.5" y="-120.2" font-family="Helvetica,sans-Serif" font-size="11.00">isosubstratetypeid</text>
<polygon fill="none" stroke="black" points="381.5,-112 381.5,-134 455.5,-134 455.5,-112 381.5,-112"/>
<text text-anchor="start" x="384.5" y="-120.2" font-family="Helvetica,sans-Serif" font-size="11.00">int4[10]</text>
<polygon fill="none" stroke="black" points="236.5,-90 236.5,-112 381.5,-112 381.5,-90 236.5,-90"/>
<text text-anchor="start" x="256.5" y="-98.2" font-family="Helvetica,sans-Serif" font-size="11.00">recdatecreated</text>
<polygon fill="none" stroke="black" points="381.5,-90 381.5,-112 455.5,-112 455.5,-90 381.5,-90"/>
<text text-anchor="start" x="384.5" y="-98.2" font-family="Helvetica,sans-Serif" font-size="11.00">timestamp[22]</text>
<polygon fill="none" stroke="black" points="236.5,-68 236.5,-90 381.5,-90 381.5,-68 236.5,-68"/>
<text text-anchor="start" x="256.5" y="-76.2" font-family="Helvetica,sans-Serif" font-size="11.00">recdatemodified</text>
<polygon fill="none" stroke="black" points="381.5,-68 381.5,-90 455.5,-90 455.5,-68 381.5,-68"/>
<text text-anchor="start" x="384.5" y="-76.2" font-family="Helvetica,sans-Serif" font-size="11.00">timestamp[22]</text>
<polygon fill="#ffffff" stroke="transparent" points="236.5,-50 236.5,-68 297.5,-68 297.5,-50 236.5,-50"/>
<polygon fill="none" stroke="black" points="236.5,-50 236.5,-68 297.5,-68 297.5,-50 236.5,-50"/>
<text text-anchor="start" x="239.5" y="-56.2" font-family="Helvetica,sans-Serif" font-size="11.00">&lt; 2</text>
<polygon fill="#ffffff" stroke="transparent" points="297.5,-50 297.5,-68 381.5,-68 381.5,-50 297.5,-50"/>
<polygon fill="none" stroke="black" points="297.5,-50 297.5,-68 381.5,-68 381.5,-50 297.5,-50"/>
<text text-anchor="start" x="339.5" y="-56.2" font-family="Helvetica,sans-Serif" font-size="11.00">19 rows</text>
<polygon fill="#ffffff" stroke="transparent" points="381.5,-50 381.5,-68 455.5,-68 455.5,-50 381.5,-50"/>
<polygon fill="none" stroke="black" points="381.5,-50 381.5,-68 455.5,-68 455.5,-50 381.5,-50"/>
<text text-anchor="start" x="436.5" y="-56.2" font-family="Helvetica,sans-Serif" font-size="11.00">0 &gt;</text>
<polygon fill="none" stroke="black" stroke-width="2" points="235,-49 235,-179 456,-179 456,-49 235,-49"/>
</a>
</g>
</g>
<!-- isomaterialanalyzedtypes -->
<g id="node2" class="node">
<title>isomaterialanalyzedtypes</title>
<g id="a_node2"><a xlink:href="../../tables/isomaterialanalyzedtypes.html" xlink:title="isomaterialanalyzedtypes" target="_top">
<polygon fill="#ffffff" stroke="transparent" points="8,-138 8,-218 185,-218 185,-138 8,-138"/>
<polygon fill="#f5f5f5" stroke="transparent" points="8.5,-196 8.5,-218 185.5,-218 185.5,-196 8.5,-196"/>
<polygon fill="none" stroke="black" points="8.5,-196 8.5,-218 185.5,-218 185.5,-196 8.5,-196"/>
<text text-anchor="start" x="13.5" y="-205.2" font-family="Helvetica,sans-Serif" font-weight="bold" font-size="11.00">isomaterialanalyzedtypes</text>
<text text-anchor="start" x="150.5" y="-204.2" font-family="Helvetica,sans-Serif" font-size="11.00">[table]</text>
<polygon fill="none" stroke="black" points="8.5,-174 8.5,-196 185.5,-196 185.5,-174 8.5,-174"/>
<image xlink:href="../../images/primaryKeys.png" width="11px" height="12px" preserveAspectRatio="xMinYMin meet" x="13.5" y="-191"/>
<text text-anchor="start" x="29.5" y="-182.2" font-family="Helvetica,sans-Serif" font-size="11.00">isomatanaltypeid</text>
<polygon fill="none" stroke="black" points="8.5,-156 8.5,-174 185.5,-174 185.5,-156 8.5,-156"/>
<text text-anchor="start" x="11.5" y="-162.2" font-family="Helvetica,sans-Serif" font-size="11.00">...</text>
<polygon fill="#ffffff" stroke="transparent" points="8.5,-138 8.5,-156 69.5,-156 69.5,-138 8.5,-138"/>
<polygon fill="none" stroke="black" points="8.5,-138 8.5,-156 69.5,-156 69.5,-138 8.5,-138"/>
<text text-anchor="start" x="11.5" y="-144.2" font-family="Helvetica,sans-Serif" font-size="11.00"> &#160;</text>
<polygon fill="#ffffff" stroke="transparent" points="69.5,-138 69.5,-156 138.5,-156 138.5,-138 69.5,-138"/>
<polygon fill="none" stroke="black" points="69.5,-138 69.5,-156 138.5,-156 138.5,-138 69.5,-138"/>
<text text-anchor="start" x="96.5" y="-144.2" font-family="Helvetica,sans-Serif" font-size="11.00">12 rows</text>
<polygon fill="#ffffff" stroke="transparent" points="138.5,-138 138.5,-156 185.5,-156 185.5,-138 138.5,-138"/>
<polygon fill="none" stroke="black" points="138.5,-138 138.5,-156 185.5,-156 185.5,-138 138.5,-138"/>
<text text-anchor="start" x="166.5" y="-144.2" font-family="Helvetica,sans-Serif" font-size="11.00">2 &gt;</text>
</a>
</g>
</g>
<!-- isomatanalsubstrate&#45;&gt;isomaterialanalyzedtypes -->
<g id="edge1" class="edge">
<title>isomatanalsubstrate:w&#45;&gt;isomaterialanalyzedtypes:e</title>
<path fill="none" stroke="black" d="M221.76,-149.59C208.86,-160.1 208.68,-185 186.5,-185"/>
<polygon fill="black" stroke="black" points="227.91,-147.53 236.64,-148.41 231.71,-146.27 235.5,-145 235.5,-145 235.5,-145 231.71,-146.27 234.36,-141.59 227.91,-147.53 227.91,-147.53"/>
<ellipse fill="none" stroke="black" cx="224.88" cy="-148.55" rx="3.2" ry="3.2"/>
</g>
<!-- isosubstratetypes -->
<g id="node3" class="node">
<title>isosubstratetypes</title>
<g id="a_node3"><a xlink:href="../../tables/isosubstratetypes.html" xlink:title="isosubstratetypes" target="_top">
<polygon fill="#ffffff" stroke="transparent" points="27.5,-37 27.5,-117 165.5,-117 165.5,-37 27.5,-37"/>
<polygon fill="#f5f5f5" stroke="transparent" points="27.5,-95 27.5,-117 165.5,-117 165.5,-95 27.5,-95"/>
<polygon fill="none" stroke="black" points="27.5,-95 27.5,-117 165.5,-117 165.5,-95 27.5,-95"/>
<text text-anchor="start" x="32.5" y="-104.2" font-family="Helvetica,sans-Serif" font-weight="bold" font-size="11.00">isosubstratetypes</text>
<text text-anchor="start" x="130.5" y="-103.2" font-family="Helvetica,sans-Serif" font-size="11.00">[table]</text>
<polygon fill="none" stroke="black" points="27.5,-73 27.5,-95 165.5,-95 165.5,-73 27.5,-73"/>
<image xlink:href="../../images/primaryKeys.png" width="11px" height="12px" preserveAspectRatio="xMinYMin meet" x="32.5" y="-90"/>
<text text-anchor="start" x="50.5" y="-81.2" font-family="Helvetica,sans-Serif" font-size="11.00">isosubstratetypeid</text>
<polygon fill="none" stroke="black" points="27.5,-55 27.5,-73 165.5,-73 165.5,-55 27.5,-55"/>
<text text-anchor="start" x="30.5" y="-61.2" font-family="Helvetica,sans-Serif" font-size="11.00">...</text>
<polygon fill="#ffffff" stroke="transparent" points="27.5,-37 27.5,-55 69.5,-55 69.5,-37 27.5,-37"/>
<polygon fill="none" stroke="black" points="27.5,-37 27.5,-55 69.5,-55 69.5,-37 27.5,-37"/>
<text text-anchor="start" x="30.5" y="-43.2" font-family="Helvetica,sans-Serif" font-size="11.00"> &#160;</text>
<polygon fill="#ffffff" stroke="transparent" points="69.5,-37 69.5,-55 128.5,-55 128.5,-37 69.5,-37"/>
<polygon fill="none" stroke="black" points="69.5,-37 69.5,-55 128.5,-55 128.5,-37 69.5,-37"/>
<text text-anchor="start" x="86.5" y="-43.2" font-family="Helvetica,sans-Serif" font-size="11.00">11 rows</text>
<polygon fill="#ffffff" stroke="transparent" points="128.5,-37 128.5,-55 165.5,-55 165.5,-37 128.5,-37"/>
<polygon fill="none" stroke="black" points="128.5,-37 128.5,-55 165.5,-55 165.5,-37 128.5,-37"/>
<text text-anchor="start" x="146.5" y="-43.2" font-family="Helvetica,sans-Serif" font-size="11.00">2 &gt;</text>
</a>
</g>
</g>
<!-- isomatanalsubstrate&#45;&gt;isosubstratetypes -->
<g id="edge2" class="edge">
<title>isomatanalsubstrate:w&#45;&gt;isosubstratetypes:e</title>
<path fill="none" stroke="black" d="M221.1,-120.32C199.8,-111.51 196.08,-84 166.5,-84"/>
<polygon fill="black" stroke="black" points="227.64,-121.54 234.84,-126.54 231.57,-122.27 235.5,-123 235.5,-123 235.5,-123 231.57,-122.27 236.16,-119.46 227.64,-121.54 227.64,-121.54"/>
<ellipse fill="none" stroke="black" cx="224.49" cy="-120.95" rx="3.2" ry="3.2"/>
</g>
</g>
</svg>
