<?xml version="1.0" encoding="UTF-8" standalone="no"?>
<!DOCTYPE svg PUBLIC "-//W3C//DTD SVG 1.1//EN"
 "http://www.w3.org/Graphics/SVG/1.1/DTD/svg11.dtd">
<!-- Generated by graphviz version 2.43.0 (0)
 -->
<!-- Title: twoDegreesRelationshipsDiagram Pages: 1 -->
<svg width="493pt" height="282pt"
 viewBox="0.00 0.00 493.00 282.00" xmlns="http://www.w3.org/2000/svg" xmlns:xlink="http://www.w3.org/1999/xlink">
<g id="graph0" class="graph" transform="scale(1 1) rotate(0) translate(4 278)">
<title>twoDegreesRelationshipsDiagram</title>
<polygon fill="#ffffff" stroke="transparent" points="-4,4 -4,-278 489,-278 489,4 -4,4"/>
<text text-anchor="middle" x="71.5" y="-7.2" font-family="Helvetica,sans-Serif" font-size="11.00">Generated by SchemaSpy</text>
<!-- isosamplepretreatments -->
<g id="node1" class="node">
<title>isosamplepretreatments</title>
<g id="a_node1"><a xlink:href="../../tables/isosamplepretreatments.html" xlink:title="isosamplepretreatments" target="_top">
<polygon fill="#ffffff" stroke="transparent" points="306,-117 306,-241 477,-241 477,-117 306,-117"/>
<polygon fill="#f5f5f5" stroke="transparent" points="306.5,-219 306.5,-241 477.5,-241 477.5,-219 306.5,-219"/>
<polygon fill="none" stroke="black" points="306.5,-219 306.5,-241 477.5,-241 477.5,-219 306.5,-219"/>
<text text-anchor="start" x="311.5" y="-228.2" font-family="Helvetica,sans-Serif" font-weight="bold" font-size="11.00">isosamplepretreatments</text>
<text text-anchor="start" x="442.5" y="-227.2" font-family="Helvetica,sans-Serif" font-size="11.00">[table]</text>
<polygon fill="none" stroke="black" points="306.5,-197 306.5,-219 477.5,-219 477.5,-197 306.5,-197"/>
<image xlink:href="../../images/primaryKeys.png" width="11px" height="12px" preserveAspectRatio="xMinYMin meet" x="311.5" y="-214"/>
<text text-anchor="start" x="327.5" y="-205.2" font-family="Helvetica,sans-Serif" font-size="11.00">dataid</text>
<polygon fill="none" stroke="black" points="306.5,-175 306.5,-197 477.5,-197 477.5,-175 306.5,-175"/>
<image xlink:href="../../images/primaryKeys.png" width="11px" height="12px" preserveAspectRatio="xMinYMin meet" x="311.5" y="-192"/>
<text text-anchor="start" x="327.5" y="-183.2" font-family="Helvetica,sans-Serif" font-size="11.00">isopretreatmenttypeid</text>
<polygon fill="none" stroke="black" points="306.5,-153 306.5,-175 477.5,-175 477.5,-153 306.5,-153"/>
<image xlink:href="../../images/primaryKeys.png" width="11px" height="12px" preserveAspectRatio="xMinYMin meet" x="311.5" y="-170"/>
<text text-anchor="start" x="327.5" y="-161.2" font-family="Helvetica,sans-Serif" font-size="11.00">order</text>
<polygon fill="none" stroke="black" points="306.5,-135 306.5,-153 477.5,-153 477.5,-135 306.5,-135"/>
<text text-anchor="start" x="309.5" y="-141.2" font-family="Helvetica,sans-Serif" font-size="11.00">...</text>
<polygon fill="#ffffff" stroke="transparent" points="306.5,-117 306.5,-135 366.5,-135 366.5,-117 306.5,-117"/>
<polygon fill="none" stroke="black" points="306.5,-117 306.5,-135 366.5,-135 366.5,-117 306.5,-117"/>
<text text-anchor="start" x="309.5" y="-123.2" font-family="Helvetica,sans-Serif" font-size="11.00">&lt; 2</text>
<polygon fill="#ffffff" stroke="transparent" points="366.5,-117 366.5,-135 445.5,-135 445.5,-117 366.5,-117"/>
<polygon fill="none" stroke="black" points="366.5,-117 366.5,-135 445.5,-135 445.5,-117 366.5,-117"/>
<text text-anchor="start" x="388.5" y="-123.2" font-family="Helvetica,sans-Serif" font-size="11.00">1,035 rows</text>
<polygon fill="#ffffff" stroke="transparent" points="445.5,-117 445.5,-135 477.5,-135 477.5,-117 445.5,-117"/>
<polygon fill="none" stroke="black" points="445.5,-117 445.5,-135 477.5,-135 477.5,-117 445.5,-117"/>
<text text-anchor="start" x="467.5" y="-123.2" font-family="Helvetica,sans-Serif" font-size="11.00"> &#160;</text>
</a>
</g>
</g>
<!-- data -->
<g id="node2" class="node">
<title>data</title>
<g id="a_node2"><a xlink:href="../../tables/data.html" xlink:title="data" target="_top">
<polygon fill="#ffffff" stroke="transparent" points="67,-212 67,-270 198,-270 198,-212 67,-212"/>
<polygon fill="#f5f5f5" stroke="transparent" points="67.5,-248 67.5,-270 198.5,-270 198.5,-248 67.5,-248"/>
<polygon fill="none" stroke="black" points="67.5,-248 67.5,-270 198.5,-270 198.5,-248 67.5,-248"/>
<text text-anchor="start" x="72.5" y="-257.2" font-family="Helvetica,sans-Serif" font-weight="bold" font-size="11.00">data</text>
<text text-anchor="start" x="163.5" y="-256.2" font-family="Helvetica,sans-Serif" font-size="11.00">[table]</text>
<polygon fill="none" stroke="black" points="67.5,-230 67.5,-248 198.5,-248 198.5,-230 67.5,-230"/>
<text text-anchor="start" x="70.5" y="-236.2" font-family="Helvetica,sans-Serif" font-size="11.00">...</text>
<polygon fill="#ffffff" stroke="transparent" points="67.5,-212 67.5,-230 89.5,-230 89.5,-212 67.5,-212"/>
<polygon fill="none" stroke="black" points="67.5,-212 67.5,-230 89.5,-230 89.5,-212 67.5,-212"/>
<text text-anchor="start" x="70.5" y="-218.2" font-family="Helvetica,sans-Serif" font-size="11.00">&lt; 2</text>
<polygon fill="#ffffff" stroke="transparent" points="89.5,-212 89.5,-230 176.5,-230 176.5,-212 89.5,-212"/>
<polygon fill="none" stroke="black" points="89.5,-212 89.5,-230 176.5,-230 176.5,-212 89.5,-212"/>
<text text-anchor="start" x="92.5" y="-218.2" font-family="Helvetica,sans-Serif" font-size="11.00">10,527,055 rows</text>
<polygon fill="#ffffff" stroke="transparent" points="176.5,-212 176.5,-230 198.5,-230 198.5,-212 176.5,-212"/>
<polygon fill="none" stroke="black" points="176.5,-212 176.5,-230 198.5,-230 198.5,-212 176.5,-212"/>
<text text-anchor="start" x="179.5" y="-218.2" font-family="Helvetica,sans-Serif" font-size="11.00">8 &gt;</text>
</a>
</g>
</g>
<!-- isosamplepretreatments&#45;&gt;data -->
<g id="edge1" class="edge">
<title>isosamplepretreatments:w&#45;&gt;data:e</title>
<path fill="none" stroke="black" d="M290.77,-209.03C254.21,-214.41 243.22,-239 199.5,-239"/>
<polygon fill="black" stroke="black" points="297.52,-208.56 305.75,-211.59 301.51,-208.28 305.5,-208 305.5,-208 305.5,-208 301.51,-208.28 305.25,-204.41 297.52,-208.56 297.52,-208.56"/>
<ellipse fill="none" stroke="black" cx="294.33" cy="-208.78" rx="3.2" ry="3.2"/>
</g>
<!-- isopretreatmenttypes -->
<g id="node3" class="node">
<title>isopretreatmenttypes</title>
<g id="a_node3"><a xlink:href="../../tables/isopretreatmenttypes.html" xlink:title="isopretreatmenttypes" target="_top">
<polygon fill="#ffffff" stroke="transparent" points="8,-37 8,-191 257,-191 257,-37 8,-37"/>
<polygon fill="#f5f5f5" stroke="transparent" points="10.5,-167 10.5,-189 255.5,-189 255.5,-167 10.5,-167"/>
<polygon fill="none" stroke="black" points="10.5,-167 10.5,-189 255.5,-189 255.5,-167 10.5,-167"/>
<text text-anchor="start" x="15.5" y="-176.2" font-family="Helvetica,sans-Serif" font-weight="bold" font-size="11.00">isopretreatmenttypes</text>
<text text-anchor="start" x="220.5" y="-175.2" font-family="Helvetica,sans-Serif" font-size="11.00">[table]</text>
<polygon fill="none" stroke="black" points="10.5,-145 10.5,-167 181.5,-167 181.5,-145 10.5,-145"/>
<image xlink:href="../../images/primaryKeys.png" width="11px" height="12px" preserveAspectRatio="xMinYMin meet" x="15.5" y="-162"/>
<text text-anchor="start" x="30.5" y="-153.2" font-family="Helvetica,sans-Serif" font-size="11.00">isopretreatmenttypeid</text>
<polygon fill="none" stroke="black" points="181.5,-145 181.5,-167 255.5,-167 255.5,-145 181.5,-145"/>
<text text-anchor="start" x="184.5" y="-153.2" font-family="Helvetica,sans-Serif" font-size="11.00">serial[10]</text>
<polygon fill="none" stroke="black" points="10.5,-123 10.5,-145 181.5,-145 181.5,-123 10.5,-123"/>
<text text-anchor="start" x="30.5" y="-131.2" font-family="Helvetica,sans-Serif" font-size="11.00">isopretreatmenttype</text>
<polygon fill="none" stroke="black" points="181.5,-123 181.5,-145 255.5,-145 255.5,-123 181.5,-123"/>
<text text-anchor="start" x="184.5" y="-131.2" font-family="Helvetica,sans-Serif" font-size="11.00">varchar[50]</text>
<polygon fill="none" stroke="black" points="10.5,-101 10.5,-123 181.5,-123 181.5,-101 10.5,-101"/>
<text text-anchor="start" x="30.5" y="-109.2" font-family="Helvetica,sans-Serif" font-size="11.00">isopretreatmentqualifier</text>
<polygon fill="none" stroke="black" points="181.5,-101 181.5,-123 255.5,-123 255.5,-101 181.5,-101"/>
<text text-anchor="start" x="184.5" y="-109.2" font-family="Helvetica,sans-Serif" font-size="11.00">varchar[50]</text>
<polygon fill="none" stroke="black" points="10.5,-79 10.5,-101 181.5,-101 181.5,-79 10.5,-79"/>
<text text-anchor="start" x="30.5" y="-87.2" font-family="Helvetica,sans-Serif" font-size="11.00">recdatecreated</text>
<polygon fill="none" stroke="black" points="181.5,-79 181.5,-101 255.5,-101 255.5,-79 181.5,-79"/>
<text text-anchor="start" x="184.5" y="-87.2" font-family="Helvetica,sans-Serif" font-size="11.00">timestamp[22]</text>
<polygon fill="none" stroke="black" points="10.5,-57 10.5,-79 181.5,-79 181.5,-57 10.5,-57"/>
<text text-anchor="start" x="30.5" y="-65.2" font-family="Helvetica,sans-Serif" font-size="11.00">recdatemodified</text>
<polygon fill="none" stroke="black" points="181.5,-57 181.5,-79 255.5,-79 255.5,-57 181.5,-57"/>
<text text-anchor="start" x="184.5" y="-65.2" font-family="Helvetica,sans-Serif" font-size="11.00">timestamp[22]</text>
<polygon fill="#ffffff" stroke="transparent" points="10.5,-39 10.5,-57 84.5,-57 84.5,-39 10.5,-39"/>
<polygon fill="none" stroke="black" points="10.5,-39 10.5,-57 84.5,-57 84.5,-39 10.5,-39"/>
<text text-anchor="start" x="13.5" y="-45.2" font-family="Helvetica,sans-Serif" font-size="11.00">&lt; 0</text>
<polygon fill="#ffffff" stroke="transparent" points="84.5,-39 84.5,-57 181.5,-57 181.5,-39 84.5,-39"/>
<polygon fill="none" stroke="black" points="84.5,-39 84.5,-57 181.5,-57 181.5,-39 84.5,-39"/>
<text text-anchor="start" x="139.5" y="-45.2" font-family="Helvetica,sans-Serif" font-size="11.00">40 rows</text>
<polygon fill="#ffffff" stroke="transparent" points="181.5,-39 181.5,-57 255.5,-57 255.5,-39 181.5,-39"/>
<polygon fill="none" stroke="black" points="181.5,-39 181.5,-57 255.5,-57 255.5,-39 181.5,-39"/>
<text text-anchor="start" x="236.5" y="-45.2" font-family="Helvetica,sans-Serif" font-size="11.00">1 &gt;</text>
<polygon fill="none" stroke="black" stroke-width="2" points="9,-38 9,-190 256,-190 256,-38 9,-38"/>
</a>
</g>
</g>
<!-- isosamplepretreatments&#45;&gt;isopretreatmenttypes -->
<g id="edge2" class="edge">
<title>isosamplepretreatments:w&#45;&gt;isopretreatmenttypes:e</title>
<path fill="none" stroke="black" d="M291.38,-181.83C279.42,-173.59 276.05,-156 256.5,-156"/>
<polygon fill="black" stroke="black" points="297.83,-183.73 304.48,-189.45 301.66,-184.87 305.5,-186 305.5,-186 305.5,-186 301.66,-184.87 306.52,-182.55 297.83,-183.73 297.83,-183.73"/>
<ellipse fill="none" stroke="black" cx="294.76" cy="-182.83" rx="3.2" ry="3.2"/>
</g>
</g>
</svg>
