<?xml version="1.0" encoding="UTF-8" standalone="no"?>
<!DOCTYPE svg PUBLIC "-//W3C//DTD SVG 1.1//EN"
 "http://www.w3.org/Graphics/SVG/1.1/DTD/svg11.dtd">
<!-- Generated by graphviz version 2.43.0 (0)
 -->
<!-- Title: oneDegreeRelationshipsDiagram Pages: 1 -->
<svg width="493pt" height="223pt"
 viewBox="0.00 0.00 493.00 223.00" xmlns="http://www.w3.org/2000/svg" xmlns:xlink="http://www.w3.org/1999/xlink">
<g id="graph0" class="graph" transform="scale(1 1) rotate(0) translate(4 219)">
<title>oneDegreeRelationshipsDiagram</title>
<polygon fill="#ffffff" stroke="transparent" points="-4,4 -4,-219 489,-219 489,4 -4,4"/>
<text text-anchor="middle" x="71.5" y="-7.2" font-family="Helvetica,sans-Serif" font-size="11.00">Generated by SchemaSpy</text>
<!-- isosamplepretreatments -->
<g id="node1" class="node">
<title>isosamplepretreatments</title>
<g id="a_node1"><a xlink:href="../../tables/isosamplepretreatments.html" xlink:title="isosamplepretreatments" target="_top">
<polygon fill="#ffffff" stroke="transparent" points="306,-87 306,-211 477,-211 477,-87 306,-87"/>
<polygon fill="#f5f5f5" stroke="transparent" points="306.5,-189 306.5,-211 477.5,-211 477.5,-189 306.5,-189"/>
<polygon fill="none" stroke="black" points="306.5,-189 306.5,-211 477.5,-211 477.5,-189 306.5,-189"/>
<text text-anchor="start" x="311.5" y="-198.2" font-family="Helvetica,sans-Serif" font-weight="bold" font-size="11.00">isosamplepretreatments</text>
<text text-anchor="start" x="442.5" y="-197.2" font-family="Helvetica,sans-Serif" font-size="11.00">[table]</text>
<polygon fill="none" stroke="black" points="306.5,-167 306.5,-189 477.5,-189 477.5,-167 306.5,-167"/>
<image xlink:href="../../images/primaryKeys.png" width="11px" height="12px" preserveAspectRatio="xMinYMin meet" x="311.5" y="-184"/>
<text text-anchor="start" x="327.5" y="-175.2" font-family="Helvetica,sans-Serif" font-size="11.00">dataid</text>
<polygon fill="none" stroke="black" points="306.5,-145 306.5,-167 477.5,-167 477.5,-145 306.5,-145"/>
<image xlink:href="../../images/primaryKeys.png" width="11px" height="12px" preserveAspectRatio="xMinYMin meet" x="311.5" y="-162"/>
<text text-anchor="start" x="327.5" y="-153.2" font-family="Helvetica,sans-Serif" font-size="11.00">isopretreatmenttypeid</text>
<polygon fill="none" stroke="black" points="306.5,-123 306.5,-145 477.5,-145 477.5,-123 306.5,-123"/>
<image xlink:href="../../images/primaryKeys.png" width="11px" height="12px" preserveAspectRatio="xMinYMin meet" x="311.5" y="-140"/>
<text text-anchor="start" x="327.5" y="-131.2" font-family="Helvetica,sans-Serif" font-size="11.00">order</text>
<polygon fill="none" stroke="black" points="306.5,-105 306.5,-123 477.5,-123 477.5,-105 306.5,-105"/>
<text text-anchor="start" x="309.5" y="-111.2" font-family="Helvetica,sans-Serif" font-size="11.00">...</text>
<polygon fill="#ffffff" stroke="transparent" points="306.5,-87 306.5,-105 366.5,-105 366.5,-87 306.5,-87"/>
<polygon fill="none" stroke="black" points="306.5,-87 306.5,-105 366.5,-105 366.5,-87 306.5,-87"/>
<text text-anchor="start" x="309.5" y="-93.2" font-family="Helvetica,sans-Serif" font-size="11.00">&lt; 2</text>
<polygon fill="#ffffff" stroke="transparent" points="366.5,-87 366.5,-105 445.5,-105 445.5,-87 366.5,-87"/>
<polygon fill="none" stroke="black" points="366.5,-87 366.5,-105 445.5,-105 445.5,-87 366.5,-87"/>
<text text-anchor="start" x="388.5" y="-93.2" font-family="Helvetica,sans-Serif" font-size="11.00">1,035 rows</text>
<polygon fill="#ffffff" stroke="transparent" points="445.5,-87 445.5,-105 477.5,-105 477.5,-87 445.5,-87"/>
<polygon fill="none" stroke="black" points="445.5,-87 445.5,-105 477.5,-105 477.5,-87 445.5,-87"/>
<text text-anchor="start" x="467.5" y="-93.2" font-family="Helvetica,sans-Serif" font-size="11.00"> &#160;</text>
</a>
</g>
</g>
<!-- isopretreatmenttypes -->
<g id="node2" class="node">
<title>isopretreatmenttypes</title>
<g id="a_node2"><a xlink:href="../../tables/isopretreatmenttypes.html" xlink:title="isopretreatmenttypes" target="_top">
<polygon fill="#ffffff" stroke="transparent" points="8,-37 8,-191 257,-191 257,-37 8,-37"/>
<polygon fill="#f5f5f5" stroke="transparent" points="10.5,-167 10.5,-189 255.5,-189 255.5,-167 10.5,-167"/>
<polygon fill="none" stroke="black" points="10.5,-167 10.5,-189 255.5,-189 255.5,-167 10.5,-167"/>
<text text-anchor="start" x="15.5" y="-176.2" font-family="Helvetica,sans-Serif" font-weight="bold" font-size="11.00">isopretreatmenttypes</text>
<text text-anchor="start" x="220.5" y="-175.2" font-family="Helvetica,sans-Serif" font-size="11.00">[table]</text>
<polygon fill="none" stroke="black" points="10.5,-145 10.5,-167 181.5,-167 181.5,-145 10.5,-145"/>
<image xlink:href="../../images/primaryKeys.png" width="11px" height="12px" preserveAspectRatio="xMinYMin meet" x="15.5" y="-162"/>
<text text-anchor="start" x="30.5" y="-153.2" font-family="Helvetica,sans-Serif" font-size="11.00">isopretreatmenttypeid</text>
<polygon fill="none" stroke="black" points="181.5,-145 181.5,-167 255.5,-167 255.5,-145 181.5,-145"/>
<text text-anchor="start" x="184.5" y="-153.2" font-family="Helvetica,sans-Serif" font-size="11.00">serial[10]</text>
<polygon fill="none" stroke="black" points="10.5,-123 10.5,-145 181.5,-145 181.5,-123 10.5,-123"/>
<text text-anchor="start" x="30.5" y="-131.2" font-family="Helvetica,sans-Serif" font-size="11.00">isopretreatmenttype</text>
<polygon fill="none" stroke="black" points="181.5,-123 181.5,-145 255.5,-145 255.5,-123 181.5,-123"/>
<text text-anchor="start" x="184.5" y="-131.2" font-family="Helvetica,sans-Serif" font-size="11.00">varchar[50]</text>
<polygon fill="none" stroke="black" points="10.5,-101 10.5,-123 181.5,-123 181.5,-101 10.5,-101"/>
<text text-anchor="start" x="30.5" y="-109.2" font-family="Helvetica,sans-Serif" font-size="11.00">isopretreatmentqualifier</text>
<polygon fill="none" stroke="black" points="181.5,-101 181.5,-123 255.5,-123 255.5,-101 181.5,-101"/>
<text text-anchor="start" x="184.5" y="-109.2" font-family="Helvetica,sans-Serif" font-size="11.00">varchar[50]</text>
<polygon fill="none" stroke="black" points="10.5,-79 10.5,-101 181.5,-101 181.5,-79 10.5,-79"/>
<text text-anchor="start" x="30.5" y="-87.2" font-family="Helvetica,sans-Serif" font-size="11.00">recdatecreated</text>
<polygon fill="none" stroke="black" points="181.5,-79 181.5,-101 255.5,-101 255.5,-79 181.5,-79"/>
<text text-anchor="start" x="184.5" y="-87.2" font-family="Helvetica,sans-Serif" font-size="11.00">timestamp[22]</text>
<polygon fill="none" stroke="black" points="10.5,-57 10.5,-79 181.5,-79 181.5,-57 10.5,-57"/>
<text text-anchor="start" x="30.5" y="-65.2" font-family="Helvetica,sans-Serif" font-size="11.00">recdatemodified</text>
<polygon fill="none" stroke="black" points="181.5,-57 181.5,-79 255.5,-79 255.5,-57 181.5,-57"/>
<text text-anchor="start" x="184.5" y="-65.2" font-family="Helvetica,sans-Serif" font-size="11.00">timestamp[22]</text>
<polygon fill="#ffffff" stroke="transparent" points="10.5,-39 10.5,-57 84.5,-57 84.5,-39 10.5,-39"/>
<polygon fill="none" stroke="black" points="10.5,-39 10.5,-57 84.5,-57 84.5,-39 10.5,-39"/>
<text text-anchor="start" x="13.5" y="-45.2" font-family="Helvetica,sans-Serif" font-size="11.00">&lt; 0</text>
<polygon fill="#ffffff" stroke="transparent" points="84.5,-39 84.5,-57 181.5,-57 181.5,-39 84.5,-39"/>
<polygon fill="none" stroke="black" points="84.5,-39 84.5,-57 181.5,-57 181.5,-39 84.5,-39"/>
<text text-anchor="start" x="139.5" y="-45.2" font-family="Helvetica,sans-Serif" font-size="11.00">40 rows</text>
<polygon fill="#ffffff" stroke="transparent" points="181.5,-39 181.5,-57 255.5,-57 255.5,-39 181.5,-39"/>
<polygon fill="none" stroke="black" points="181.5,-39 181.5,-57 255.5,-57 255.5,-39 181.5,-39"/>
<text text-anchor="start" x="236.5" y="-45.2" font-family="Helvetica,sans-Serif" font-size="11.00">1 &gt;</text>
<polygon fill="none" stroke="black" stroke-width="2" points="9,-38 9,-190 256,-190 256,-38 9,-38"/>
</a>
</g>
</g>
<!-- isosamplepretreatments&#45;&gt;isopretreatmenttypes -->
<g id="edge1" class="edge">
<title>isosamplepretreatments:w&#45;&gt;isopretreatmenttypes:e</title>
<path fill="none" stroke="black" d="M290.99,-156C279.68,-156 272.49,-156 256.5,-156"/>
<polygon fill="black" stroke="black" points="297.5,-156 305.5,-159.6 301.5,-156 305.5,-156 305.5,-156 305.5,-156 301.5,-156 305.5,-152.4 297.5,-156 297.5,-156"/>
<ellipse fill="none" stroke="black" cx="294.3" cy="-156" rx="3.2" ry="3.2"/>
</g>
</g>
</svg>
