<?xml version="1.0" encoding="UTF-8" standalone="no"?>
<!DOCTYPE svg PUBLIC "-//W3C//DTD SVG 1.1//EN"
 "http://www.w3.org/Graphics/SVG/1.1/DTD/svg11.dtd">
<!-- Generated by graphviz version 2.43.0 (0)
 -->
<!-- Title: twoDegreesRelationshipsDiagram Pages: 1 -->
<svg width="435pt" height="440pt"
 viewBox="0.00 0.00 435.00 440.00" xmlns="http://www.w3.org/2000/svg" xmlns:xlink="http://www.w3.org/1999/xlink">
<g id="graph0" class="graph" transform="scale(1 1) rotate(0) translate(4 436)">
<title>twoDegreesRelationshipsDiagram</title>
<polygon fill="#ffffff" stroke="transparent" points="-4,4 -4,-436 431,-436 431,4 -4,4"/>
<text text-anchor="middle" x="71.5" y="-7.2" font-family="Helvetica,sans-Serif" font-size="11.00">Generated by SchemaSpy</text>
<!-- isomatanalsubstrate -->
<g id="node1" class="node">
<title>isomatanalsubstrate</title>
<g id="a_node1"><a xlink:href="../../tables/isomatanalsubstrate.html" xlink:title="isomatanalsubstrate" target="_top">
<polygon fill="#ffffff" stroke="transparent" points="268,-326 268,-428 419,-428 419,-326 268,-326"/>
<polygon fill="#f5f5f5" stroke="transparent" points="268.5,-406 268.5,-428 419.5,-428 419.5,-406 268.5,-406"/>
<polygon fill="none" stroke="black" points="268.5,-406 268.5,-428 419.5,-428 419.5,-406 268.5,-406"/>
<text text-anchor="start" x="273.5" y="-415.2" font-family="Helvetica,sans-Serif" font-weight="bold" font-size="11.00">isomatanalsubstrate</text>
<text text-anchor="start" x="384.5" y="-414.2" font-family="Helvetica,sans-Serif" font-size="11.00">[table]</text>
<polygon fill="none" stroke="black" points="268.5,-384 268.5,-406 419.5,-406 419.5,-384 268.5,-384"/>
<image xlink:href="../../images/primaryKeys.png" width="11px" height="12px" preserveAspectRatio="xMinYMin meet" x="273.5" y="-401"/>
<text text-anchor="start" x="291.5" y="-392.2" font-family="Helvetica,sans-Serif" font-size="11.00">isomatanaltypeid</text>
<polygon fill="none" stroke="black" points="268.5,-362 268.5,-384 419.5,-384 419.5,-362 268.5,-362"/>
<image xlink:href="../../images/primaryKeys.png" width="11px" height="12px" preserveAspectRatio="xMinYMin meet" x="273.5" y="-379"/>
<text text-anchor="start" x="291.5" y="-370.2" font-family="Helvetica,sans-Serif" font-size="11.00">isosubstratetypeid</text>
<polygon fill="none" stroke="black" points="268.5,-344 268.5,-362 419.5,-362 419.5,-344 268.5,-344"/>
<text text-anchor="start" x="271.5" y="-350.2" font-family="Helvetica,sans-Serif" font-size="11.00">...</text>
<polygon fill="#ffffff" stroke="transparent" points="268.5,-326 268.5,-344 325.5,-344 325.5,-326 268.5,-326"/>
<polygon fill="none" stroke="black" points="268.5,-326 268.5,-344 325.5,-344 325.5,-326 268.5,-326"/>
<text text-anchor="start" x="271.5" y="-332.2" font-family="Helvetica,sans-Serif" font-size="11.00">&lt; 2</text>
<polygon fill="#ffffff" stroke="transparent" points="325.5,-326 325.5,-344 388.5,-344 388.5,-326 325.5,-326"/>
<polygon fill="none" stroke="black" points="325.5,-326 325.5,-344 388.5,-344 388.5,-326 325.5,-326"/>
<text text-anchor="start" x="346.5" y="-332.2" font-family="Helvetica,sans-Serif" font-size="11.00">19 rows</text>
<polygon fill="#ffffff" stroke="transparent" points="388.5,-326 388.5,-344 419.5,-344 419.5,-326 388.5,-326"/>
<polygon fill="none" stroke="black" points="388.5,-326 388.5,-344 419.5,-344 419.5,-326 388.5,-326"/>
<text text-anchor="start" x="409.5" y="-332.2" font-family="Helvetica,sans-Serif" font-size="11.00"> &#160;</text>
</a>
</g>
</g>
<!-- isomaterialanalyzedtypes -->
<g id="node2" class="node">
<title>isomaterialanalyzedtypes</title>
<g id="a_node2"><a xlink:href="../../tables/isomaterialanalyzedtypes.html" xlink:title="isomaterialanalyzedtypes" target="_top">
<polygon fill="#ffffff" stroke="transparent" points="25,-355 25,-413 202,-413 202,-355 25,-355"/>
<polygon fill="#f5f5f5" stroke="transparent" points="25.5,-391 25.5,-413 202.5,-413 202.5,-391 25.5,-391"/>
<polygon fill="none" stroke="black" points="25.5,-391 25.5,-413 202.5,-413 202.5,-391 25.5,-391"/>
<text text-anchor="start" x="30.5" y="-400.2" font-family="Helvetica,sans-Serif" font-weight="bold" font-size="11.00">isomaterialanalyzedtypes</text>
<text text-anchor="start" x="167.5" y="-399.2" font-family="Helvetica,sans-Serif" font-size="11.00">[table]</text>
<polygon fill="none" stroke="black" points="25.5,-373 25.5,-391 202.5,-391 202.5,-373 25.5,-373"/>
<text text-anchor="start" x="28.5" y="-379.2" font-family="Helvetica,sans-Serif" font-size="11.00">...</text>
<polygon fill="#ffffff" stroke="transparent" points="25.5,-355 25.5,-373 86.5,-373 86.5,-355 25.5,-355"/>
<polygon fill="none" stroke="black" points="25.5,-355 25.5,-373 86.5,-373 86.5,-355 25.5,-355"/>
<text text-anchor="start" x="28.5" y="-361.2" font-family="Helvetica,sans-Serif" font-size="11.00"> &#160;</text>
<polygon fill="#ffffff" stroke="transparent" points="86.5,-355 86.5,-373 155.5,-373 155.5,-355 86.5,-355"/>
<polygon fill="none" stroke="black" points="86.5,-355 86.5,-373 155.5,-373 155.5,-355 86.5,-355"/>
<text text-anchor="start" x="113.5" y="-361.2" font-family="Helvetica,sans-Serif" font-size="11.00">12 rows</text>
<polygon fill="#ffffff" stroke="transparent" points="155.5,-355 155.5,-373 202.5,-373 202.5,-355 155.5,-355"/>
<polygon fill="none" stroke="black" points="155.5,-355 155.5,-373 202.5,-373 202.5,-355 155.5,-355"/>
<text text-anchor="start" x="183.5" y="-361.2" font-family="Helvetica,sans-Serif" font-size="11.00">2 &gt;</text>
</a>
</g>
</g>
<!-- isomatanalsubstrate&#45;&gt;isomaterialanalyzedtypes -->
<g id="edge1" class="edge">
<title>isomatanalsubstrate:w&#45;&gt;isomaterialanalyzedtypes:e</title>
<path fill="none" stroke="black" d="M253.05,-393.75C235.35,-390.5 226.97,-382 203.5,-382"/>
<polygon fill="black" stroke="black" points="259.53,-394.31 267.19,-398.59 263.51,-394.66 267.5,-395 267.5,-395 267.5,-395 263.51,-394.66 267.81,-391.41 259.53,-394.31 259.53,-394.31"/>
<ellipse fill="none" stroke="black" cx="256.34" cy="-394.04" rx="3.2" ry="3.2"/>
</g>
<!-- isosubstratetypes -->
<g id="node3" class="node">
<title>isosubstratetypes</title>
<g id="a_node3"><a xlink:href="../../tables/isosubstratetypes.html" xlink:title="isosubstratetypes" target="_top">
<polygon fill="#ffffff" stroke="transparent" points="8,-116 8,-248 219,-248 219,-116 8,-116"/>
<polygon fill="#f5f5f5" stroke="transparent" points="10.5,-224 10.5,-246 217.5,-246 217.5,-224 10.5,-224"/>
<polygon fill="none" stroke="black" points="10.5,-224 10.5,-246 217.5,-246 217.5,-224 10.5,-224"/>
<text text-anchor="start" x="15.5" y="-233.2" font-family="Helvetica,sans-Serif" font-weight="bold" font-size="11.00">isosubstratetypes</text>
<text text-anchor="start" x="182.5" y="-232.2" font-family="Helvetica,sans-Serif" font-size="11.00">[table]</text>
<polygon fill="none" stroke="black" points="10.5,-202 10.5,-224 143.5,-224 143.5,-202 10.5,-202"/>
<image xlink:href="../../images/primaryKeys.png" width="11px" height="12px" preserveAspectRatio="xMinYMin meet" x="15.5" y="-219"/>
<text text-anchor="start" x="30.5" y="-210.2" font-family="Helvetica,sans-Serif" font-size="11.00">isosubstratetypeid</text>
<polygon fill="none" stroke="black" points="143.5,-202 143.5,-224 217.5,-224 217.5,-202 143.5,-202"/>
<text text-anchor="start" x="146.5" y="-210.2" font-family="Helvetica,sans-Serif" font-size="11.00">serial[10]</text>
<polygon fill="none" stroke="black" points="10.5,-180 10.5,-202 143.5,-202 143.5,-180 10.5,-180"/>
<text text-anchor="start" x="30.5" y="-188.2" font-family="Helvetica,sans-Serif" font-size="11.00">isosubstratetype</text>
<polygon fill="none" stroke="black" points="143.5,-180 143.5,-202 217.5,-202 217.5,-180 143.5,-180"/>
<text text-anchor="start" x="146.5" y="-188.2" font-family="Helvetica,sans-Serif" font-size="11.00">varchar[50]</text>
<polygon fill="none" stroke="black" points="10.5,-158 10.5,-180 143.5,-180 143.5,-158 10.5,-158"/>
<text text-anchor="start" x="30.5" y="-166.2" font-family="Helvetica,sans-Serif" font-size="11.00">recdatecreated</text>
<polygon fill="none" stroke="black" points="143.5,-158 143.5,-180 217.5,-180 217.5,-158 143.5,-158"/>
<text text-anchor="start" x="146.5" y="-166.2" font-family="Helvetica,sans-Serif" font-size="11.00">timestamp[22]</text>
<polygon fill="none" stroke="black" points="10.5,-136 10.5,-158 143.5,-158 143.5,-136 10.5,-136"/>
<text text-anchor="start" x="30.5" y="-144.2" font-family="Helvetica,sans-Serif" font-size="11.00">recdatemodified</text>
<polygon fill="none" stroke="black" points="143.5,-136 143.5,-158 217.5,-158 217.5,-136 143.5,-136"/>
<text text-anchor="start" x="146.5" y="-144.2" font-family="Helvetica,sans-Serif" font-size="11.00">timestamp[22]</text>
<polygon fill="#ffffff" stroke="transparent" points="10.5,-118 10.5,-136 65.5,-136 65.5,-118 10.5,-118"/>
<polygon fill="none" stroke="black" points="10.5,-118 10.5,-136 65.5,-136 65.5,-118 10.5,-118"/>
<text text-anchor="start" x="13.5" y="-124.2" font-family="Helvetica,sans-Serif" font-size="11.00">&lt; 0</text>
<polygon fill="#ffffff" stroke="transparent" points="65.5,-118 65.5,-136 143.5,-136 143.5,-118 65.5,-118"/>
<polygon fill="none" stroke="black" points="65.5,-118 65.5,-136 143.5,-136 143.5,-118 65.5,-118"/>
<text text-anchor="start" x="101.5" y="-124.2" font-family="Helvetica,sans-Serif" font-size="11.00">11 rows</text>
<polygon fill="#ffffff" stroke="transparent" points="143.5,-118 143.5,-136 217.5,-136 217.5,-118 143.5,-118"/>
<polygon fill="none" stroke="black" points="143.5,-118 143.5,-136 217.5,-136 217.5,-118 143.5,-118"/>
<text text-anchor="start" x="198.5" y="-124.2" font-family="Helvetica,sans-Serif" font-size="11.00">2 &gt;</text>
<polygon fill="none" stroke="black" stroke-width="2" points="9,-117 9,-247 218,-247 218,-117 9,-117"/>
</a>
</g>
</g>
<!-- isomatanalsubstrate&#45;&gt;isosubstratetypes -->
<g id="edge2" class="edge">
<title>isomatanalsubstrate:w&#45;&gt;isosubstratetypes:e</title>
<path fill="none" stroke="black" d="M253.09,-370.22C207.65,-348.98 287.06,-213 218.5,-213"/>
<polygon fill="black" stroke="black" points="259.64,-371.49 266.82,-376.53 263.57,-372.24 267.5,-373 267.5,-373 267.5,-373 263.57,-372.24 268.18,-369.47 259.64,-371.49 259.64,-371.49"/>
<ellipse fill="none" stroke="black" cx="256.5" cy="-370.88" rx="3.2" ry="3.2"/>
</g>
<!-- isometadata -->
<g id="node4" class="node">
<title>isometadata</title>
<g id="a_node4"><a xlink:href="../../tables/isometadata.html" xlink:title="isometadata" target="_top">
<polygon fill="#ffffff" stroke="transparent" points="277,-137 277,-305 410,-305 410,-137 277,-137"/>
<polygon fill="#f5f5f5" stroke="transparent" points="277.5,-283 277.5,-305 410.5,-305 410.5,-283 277.5,-283"/>
<polygon fill="none" stroke="black" points="277.5,-283 277.5,-305 410.5,-305 410.5,-283 277.5,-283"/>
<text text-anchor="start" x="282.5" y="-292.2" font-family="Helvetica,sans-Serif" font-weight="bold" font-size="11.00">isometadata</text>
<text text-anchor="start" x="375.5" y="-291.2" font-family="Helvetica,sans-Serif" font-size="11.00">[table]</text>
<polygon fill="none" stroke="black" points="277.5,-261 277.5,-283 410.5,-283 410.5,-261 277.5,-261"/>
<image xlink:href="../../images/primaryKeys.png" width="11px" height="12px" preserveAspectRatio="xMinYMin meet" x="282.5" y="-278"/>
<text text-anchor="start" x="297.5" y="-269.2" font-family="Helvetica,sans-Serif" font-size="11.00">isometadataid</text>
<polygon fill="none" stroke="black" points="277.5,-239 277.5,-261 410.5,-261 410.5,-239 277.5,-239"/>
<image xlink:href="../../images/foreignKeys.png" width="11px" height="12px" preserveAspectRatio="xMinYMin meet" x="282.5" y="-256"/>
<text text-anchor="start" x="297.5" y="-247.2" font-family="Helvetica,sans-Serif" font-size="11.00">dataid</text>
<polygon fill="none" stroke="black" points="277.5,-217 277.5,-239 410.5,-239 410.5,-217 277.5,-217"/>
<image xlink:href="../../images/foreignKeys.png" width="11px" height="12px" preserveAspectRatio="xMinYMin meet" x="282.5" y="-234"/>
<text text-anchor="start" x="297.5" y="-225.2" font-family="Helvetica,sans-Serif" font-size="11.00">isomatanaltypeid</text>
<polygon fill="none" stroke="black" points="277.5,-195 277.5,-217 410.5,-217 410.5,-195 277.5,-195"/>
<image xlink:href="../../images/foreignKeys.png" width="11px" height="12px" preserveAspectRatio="xMinYMin meet" x="282.5" y="-212"/>
<text text-anchor="start" x="297.5" y="-203.2" font-family="Helvetica,sans-Serif" font-size="11.00">isosubstratetypeid</text>
<polygon fill="none" stroke="black" points="277.5,-173 277.5,-195 410.5,-195 410.5,-173 277.5,-173"/>
<image xlink:href="../../images/foreignKeys.png" width="11px" height="12px" preserveAspectRatio="xMinYMin meet" x="282.5" y="-190"/>
<text text-anchor="start" x="297.5" y="-181.2" font-family="Helvetica,sans-Serif" font-size="11.00">analystid</text>
<polygon fill="none" stroke="black" points="277.5,-155 277.5,-173 410.5,-173 410.5,-155 277.5,-155"/>
<text text-anchor="start" x="280.5" y="-161.2" font-family="Helvetica,sans-Serif" font-size="11.00">...</text>
<polygon fill="#ffffff" stroke="transparent" points="277.5,-137 277.5,-155 318.5,-155 318.5,-137 277.5,-137"/>
<polygon fill="none" stroke="black" points="277.5,-137 277.5,-155 318.5,-155 318.5,-137 277.5,-137"/>
<text text-anchor="start" x="280.5" y="-143.2" font-family="Helvetica,sans-Serif" font-size="11.00">&lt; 4</text>
<polygon fill="#ffffff" stroke="transparent" points="318.5,-137 318.5,-155 387.5,-155 387.5,-137 318.5,-137"/>
<polygon fill="none" stroke="black" points="318.5,-137 318.5,-155 387.5,-155 387.5,-137 318.5,-137"/>
<text text-anchor="start" x="330.5" y="-143.2" font-family="Helvetica,sans-Serif" font-size="11.00">4,893 rows</text>
<polygon fill="#ffffff" stroke="transparent" points="387.5,-137 387.5,-155 410.5,-155 410.5,-137 387.5,-137"/>
<polygon fill="none" stroke="black" points="387.5,-137 387.5,-155 410.5,-155 410.5,-137 387.5,-137"/>
<text text-anchor="start" x="400.5" y="-143.2" font-family="Helvetica,sans-Serif" font-size="11.00"> &#160;</text>
</a>
</g>
</g>
<!-- isometadata&#45;&gt;isomaterialanalyzedtypes -->
<g id="edge5" class="edge">
<title>isometadata:w&#45;&gt;isomaterialanalyzedtypes:e</title>
<path fill="none" stroke="black" d="M262.06,-230.42C211.56,-250.01 273.62,-382 203.5,-382"/>
<polygon fill="black" stroke="black" points="268.61,-229.32 277.09,-231.55 272.55,-228.66 276.5,-228 276.5,-228 276.5,-228 272.55,-228.66 275.91,-224.45 268.61,-229.32 268.61,-229.32"/>
<ellipse fill="none" stroke="black" cx="265.45" cy="-229.85" rx="3.2" ry="3.2"/>
</g>
<!-- isometadata&#45;&gt;isosubstratetypes -->
<g id="edge6" class="edge">
<title>isometadata:w&#45;&gt;isosubstratetypes:e</title>
<path fill="none" stroke="black" d="M261.9,-206.86C246.93,-208.73 238.79,-213 218.5,-213"/>
<polygon fill="black" stroke="black" points="268.51,-206.47 276.71,-209.59 272.51,-206.23 276.5,-206 276.5,-206 276.5,-206 272.51,-206.23 276.29,-202.41 268.51,-206.47 268.51,-206.47"/>
<ellipse fill="none" stroke="black" cx="265.32" cy="-206.66" rx="3.2" ry="3.2"/>
</g>
<!-- contacts -->
<g id="node5" class="node">
<title>contacts</title>
<g id="a_node5"><a xlink:href="../../tables/contacts.html" xlink:title="contacts" target="_top">
<polygon fill="#ffffff" stroke="transparent" points="55.5,-37 55.5,-95 171.5,-95 171.5,-37 55.5,-37"/>
<polygon fill="#f5f5f5" stroke="transparent" points="55.5,-73 55.5,-95 171.5,-95 171.5,-73 55.5,-73"/>
<polygon fill="none" stroke="black" points="55.5,-73 55.5,-95 171.5,-95 171.5,-73 55.5,-73"/>
<text text-anchor="start" x="60.5" y="-82.2" font-family="Helvetica,sans-Serif" font-weight="bold" font-size="11.00">contacts</text>
<text text-anchor="start" x="136.5" y="-81.2" font-family="Helvetica,sans-Serif" font-size="11.00">[table]</text>
<polygon fill="none" stroke="black" points="55.5,-55 55.5,-73 171.5,-73 171.5,-55 55.5,-55"/>
<text text-anchor="start" x="58.5" y="-61.2" font-family="Helvetica,sans-Serif" font-size="11.00">...</text>
<polygon fill="#ffffff" stroke="transparent" points="55.5,-37 55.5,-55 77.5,-55 77.5,-37 55.5,-37"/>
<polygon fill="none" stroke="black" points="55.5,-37 55.5,-55 77.5,-55 77.5,-37 55.5,-37"/>
<text text-anchor="start" x="58.5" y="-43.2" font-family="Helvetica,sans-Serif" font-size="11.00">&lt; 1</text>
<polygon fill="#ffffff" stroke="transparent" points="77.5,-37 77.5,-55 143.5,-55 143.5,-37 77.5,-37"/>
<polygon fill="none" stroke="black" points="77.5,-37 77.5,-55 143.5,-55 143.5,-37 77.5,-37"/>
<text text-anchor="start" x="80.5" y="-43.2" font-family="Helvetica,sans-Serif" font-size="11.00">13,247 rows</text>
<polygon fill="#ffffff" stroke="transparent" points="143.5,-37 143.5,-55 171.5,-55 171.5,-37 143.5,-37"/>
<polygon fill="none" stroke="black" points="143.5,-37 143.5,-55 171.5,-55 171.5,-37 143.5,-37"/>
<text text-anchor="start" x="146.5" y="-43.2" font-family="Helvetica,sans-Serif" font-size="11.00">17 &gt;</text>
</a>
</g>
</g>
<!-- isometadata&#45;&gt;contacts -->
<g id="edge3" class="edge">
<title>isometadata:w&#45;&gt;contacts:e</title>
<path fill="none" stroke="black" d="M262.05,-181.16C239.83,-170.36 250.97,-131.11 227,-105 206.5,-82.67 202.81,-64 172.5,-64"/>
<polygon fill="black" stroke="black" points="268.65,-182.46 275.81,-187.53 272.57,-183.23 276.5,-184 276.5,-184 276.5,-184 272.57,-183.23 277.19,-180.47 268.65,-182.46 268.65,-182.46"/>
<ellipse fill="none" stroke="black" cx="265.51" cy="-181.84" rx="3.2" ry="3.2"/>
</g>
<!-- data -->
<g id="node6" class="node">
<title>data</title>
<g id="a_node6"><a xlink:href="../../tables/data.html" xlink:title="data" target="_top">
<polygon fill="#ffffff" stroke="transparent" points="48,-269 48,-327 179,-327 179,-269 48,-269"/>
<polygon fill="#f5f5f5" stroke="transparent" points="48.5,-305 48.5,-327 179.5,-327 179.5,-305 48.5,-305"/>
<polygon fill="none" stroke="black" points="48.5,-305 48.5,-327 179.5,-327 179.5,-305 48.5,-305"/>
<text text-anchor="start" x="53.5" y="-314.2" font-family="Helvetica,sans-Serif" font-weight="bold" font-size="11.00">data</text>
<text text-anchor="start" x="144.5" y="-313.2" font-family="Helvetica,sans-Serif" font-size="11.00">[table]</text>
<polygon fill="none" stroke="black" points="48.5,-287 48.5,-305 179.5,-305 179.5,-287 48.5,-287"/>
<text text-anchor="start" x="51.5" y="-293.2" font-family="Helvetica,sans-Serif" font-size="11.00">...</text>
<polygon fill="#ffffff" stroke="transparent" points="48.5,-269 48.5,-287 70.5,-287 70.5,-269 48.5,-269"/>
<polygon fill="none" stroke="black" points="48.5,-269 48.5,-287 70.5,-287 70.5,-269 48.5,-269"/>
<text text-anchor="start" x="51.5" y="-275.2" font-family="Helvetica,sans-Serif" font-size="11.00">&lt; 2</text>
<polygon fill="#ffffff" stroke="transparent" points="70.5,-269 70.5,-287 157.5,-287 157.5,-269 70.5,-269"/>
<polygon fill="none" stroke="black" points="70.5,-269 70.5,-287 157.5,-287 157.5,-269 70.5,-269"/>
<text text-anchor="start" x="73.5" y="-275.2" font-family="Helvetica,sans-Serif" font-size="11.00">10,039,985 rows</text>
<polygon fill="#ffffff" stroke="transparent" points="157.5,-269 157.5,-287 179.5,-287 179.5,-269 157.5,-269"/>
<polygon fill="none" stroke="black" points="157.5,-269 157.5,-287 179.5,-287 179.5,-269 157.5,-269"/>
<text text-anchor="start" x="160.5" y="-275.2" font-family="Helvetica,sans-Serif" font-size="11.00">7 &gt;</text>
</a>
</g>
</g>
<!-- isometadata&#45;&gt;data -->
<g id="edge4" class="edge">
<title>isometadata:w&#45;&gt;data:e</title>
<path fill="none" stroke="black" d="M262.06,-251.64C228.29,-259.83 222.45,-296 180.5,-296"/>
<polygon fill="black" stroke="black" points="268.55,-250.9 276.91,-253.58 272.53,-250.45 276.5,-250 276.5,-250 276.5,-250 272.53,-250.45 276.09,-246.42 268.55,-250.9 268.55,-250.9"/>
<ellipse fill="none" stroke="black" cx="265.37" cy="-251.26" rx="3.2" ry="3.2"/>
</g>
</g>
</svg>
