<?xml version="1.0" encoding="UTF-8" standalone="no"?>
<!DOCTYPE svg PUBLIC "-//W3C//DTD SVG 1.1//EN"
 "http://www.w3.org/Graphics/SVG/1.1/DTD/svg11.dtd">
<!-- Generated by graphviz version 2.43.0 (0)
 -->
<!-- Title: oneDegreeRelationshipsDiagramImplied Pages: 1 -->
<svg width="414pt" height="485pt"
 viewBox="0.00 0.00 414.00 485.00" xmlns="http://www.w3.org/2000/svg" xmlns:xlink="http://www.w3.org/1999/xlink">
<g id="graph0" class="graph" transform="scale(1 1) rotate(0) translate(4 481)">
<title>oneDegreeRelationshipsDiagramImplied</title>
<polygon fill="#ffffff" stroke="transparent" points="-4,4 -4,-481 410,-481 410,4 -4,4"/>
<text text-anchor="middle" x="71.5" y="-7.2" font-family="Helvetica,sans-Serif" font-size="11.00">Generated by SchemaSpy</text>
<!-- isostandards -->
<g id="node1" class="node">
<title>isostandards</title>
<g id="a_node1"><a xlink:href="../../tables/isostandards.html" xlink:title="isostandards" target="_top">
<polygon fill="#ffffff" stroke="transparent" points="200,-154 200,-330 398,-330 398,-154 200,-154"/>
<polygon fill="#f5f5f5" stroke="transparent" points="202,-306 202,-328 396,-328 396,-306 202,-306"/>
<polygon fill="none" stroke="black" points="202,-306 202,-328 396,-328 396,-306 202,-306"/>
<text text-anchor="start" x="207" y="-315.2" font-family="Helvetica,sans-Serif" font-weight="bold" font-size="11.00">isostandards</text>
<text text-anchor="start" x="361" y="-314.2" font-family="Helvetica,sans-Serif" font-size="11.00">[table]</text>
<polygon fill="none" stroke="black" points="202,-284 202,-306 322,-306 322,-284 202,-284"/>
<image xlink:href="../../images/primaryKeys.png" width="11px" height="12px" preserveAspectRatio="xMinYMin meet" x="207" y="-301"/>
<text text-anchor="start" x="222" y="-292.2" font-family="Helvetica,sans-Serif" font-size="11.00">datasetid</text>
<polygon fill="none" stroke="black" points="322,-284 322,-306 396,-306 396,-284 322,-284"/>
<text text-anchor="start" x="325" y="-292.2" font-family="Helvetica,sans-Serif" font-size="11.00">int4[10]</text>
<polygon fill="none" stroke="black" points="202,-262 202,-284 322,-284 322,-262 202,-262"/>
<image xlink:href="../../images/primaryKeys.png" width="11px" height="12px" preserveAspectRatio="xMinYMin meet" x="207" y="-279"/>
<text text-anchor="start" x="222" y="-270.2" font-family="Helvetica,sans-Serif" font-size="11.00">variableid</text>
<polygon fill="none" stroke="black" points="322,-262 322,-284 396,-284 396,-262 322,-262"/>
<text text-anchor="start" x="325" y="-270.2" font-family="Helvetica,sans-Serif" font-size="11.00">int4[10]</text>
<polygon fill="none" stroke="black" points="202,-240 202,-262 322,-262 322,-240 202,-240"/>
<image xlink:href="../../images/primaryKeys.png" width="11px" height="12px" preserveAspectRatio="xMinYMin meet" x="207" y="-257"/>
<text text-anchor="start" x="222" y="-248.2" font-family="Helvetica,sans-Serif" font-size="11.00">isostandardid</text>
<polygon fill="none" stroke="black" points="322,-240 322,-262 396,-262 396,-240 322,-240"/>
<text text-anchor="start" x="325" y="-248.2" font-family="Helvetica,sans-Serif" font-size="11.00">int4[10]</text>
<polygon fill="none" stroke="black" points="202,-218 202,-240 322,-240 322,-218 202,-218"/>
<text text-anchor="start" x="222" y="-226.2" font-family="Helvetica,sans-Serif" font-size="11.00">value</text>
<polygon fill="none" stroke="black" points="322,-218 322,-240 396,-240 396,-218 322,-218"/>
<text text-anchor="start" x="325" y="-226.2" font-family="Helvetica,sans-Serif" font-size="11.00">float8[17,17]</text>
<polygon fill="none" stroke="black" points="202,-196 202,-218 322,-218 322,-196 202,-196"/>
<text text-anchor="start" x="222" y="-204.2" font-family="Helvetica,sans-Serif" font-size="11.00">recdatecreated</text>
<polygon fill="none" stroke="black" points="322,-196 322,-218 396,-218 396,-196 322,-196"/>
<text text-anchor="start" x="325" y="-204.2" font-family="Helvetica,sans-Serif" font-size="11.00">timestamp[22]</text>
<polygon fill="none" stroke="black" points="202,-174 202,-196 322,-196 322,-174 202,-174"/>
<text text-anchor="start" x="222" y="-182.2" font-family="Helvetica,sans-Serif" font-size="11.00">recdatemodified</text>
<polygon fill="none" stroke="black" points="322,-174 322,-196 396,-196 396,-174 322,-174"/>
<text text-anchor="start" x="325" y="-182.2" font-family="Helvetica,sans-Serif" font-size="11.00">timestamp[22]</text>
<polygon fill="#ffffff" stroke="transparent" points="202,-156 202,-174 253,-174 253,-156 202,-156"/>
<polygon fill="none" stroke="black" points="202,-156 202,-174 253,-174 253,-156 202,-156"/>
<text text-anchor="start" x="205" y="-162.2" font-family="Helvetica,sans-Serif" font-size="11.00">&lt; 3</text>
<polygon fill="#ffffff" stroke="transparent" points="253,-156 253,-174 322,-174 322,-156 253,-156"/>
<polygon fill="none" stroke="black" points="253,-156 253,-174 322,-174 322,-156 253,-156"/>
<text text-anchor="start" x="286" y="-162.2" font-family="Helvetica,sans-Serif" font-size="11.00">0 rows</text>
<polygon fill="#ffffff" stroke="transparent" points="322,-156 322,-174 396,-174 396,-156 322,-156"/>
<polygon fill="none" stroke="black" points="322,-156 322,-174 396,-174 396,-156 322,-156"/>
<text text-anchor="start" x="377" y="-162.2" font-family="Helvetica,sans-Serif" font-size="11.00">0 &gt;</text>
<polygon fill="none" stroke="black" stroke-width="2" points="201,-155 201,-329 397,-329 397,-155 201,-155"/>
</a>
</g>
</g>
<!-- datasets -->
<g id="node2" class="node">
<title>datasets</title>
<g id="a_node2"><a xlink:href="../../tables/datasets.html" xlink:title="datasets" target="_top">
<polygon fill="#ffffff" stroke="transparent" points="19.5,-327 19.5,-473 139.5,-473 139.5,-327 19.5,-327"/>
<polygon fill="#f5f5f5" stroke="transparent" points="19.5,-451 19.5,-473 139.5,-473 139.5,-451 19.5,-451"/>
<polygon fill="none" stroke="black" points="19.5,-451 19.5,-473 139.5,-473 139.5,-451 19.5,-451"/>
<text text-anchor="start" x="24.5" y="-460.2" font-family="Helvetica,sans-Serif" font-weight="bold" font-size="11.00">datasets</text>
<text text-anchor="start" x="104.5" y="-459.2" font-family="Helvetica,sans-Serif" font-size="11.00">[table]</text>
<polygon fill="none" stroke="black" points="19.5,-429 19.5,-451 139.5,-451 139.5,-429 19.5,-429"/>
<image xlink:href="../../images/primaryKeys.png" width="11px" height="12px" preserveAspectRatio="xMinYMin meet" x="24.5" y="-446"/>
<text text-anchor="start" x="39.5" y="-437.2" font-family="Helvetica,sans-Serif" font-size="11.00">datasetid</text>
<polygon fill="#ffffff" stroke="transparent" points="19.5,-407 19.5,-429 139.5,-429 139.5,-407 19.5,-407"/>
<polygon fill="none" stroke="black" points="19.5,-407 19.5,-429 139.5,-429 139.5,-407 19.5,-407"/>
<image xlink:href="../../images/foreignKeys.png" width="11px" height="12px" preserveAspectRatio="xMinYMin meet" x="24.5" y="-424"/>
<text text-anchor="start" x="39.5" y="-415.2" font-family="Helvetica,sans-Serif" font-size="11.00">collectionunitid</text>
<polygon fill="#ffffff" stroke="transparent" points="19.5,-385 19.5,-407 139.5,-407 139.5,-385 19.5,-385"/>
<polygon fill="none" stroke="black" points="19.5,-385 19.5,-407 139.5,-407 139.5,-385 19.5,-385"/>
<image xlink:href="../../images/foreignKeys.png" width="11px" height="12px" preserveAspectRatio="xMinYMin meet" x="24.5" y="-402"/>
<text text-anchor="start" x="39.5" y="-393.2" font-family="Helvetica,sans-Serif" font-size="11.00">datasettypeid</text>
<polygon fill="none" stroke="black" points="19.5,-363 19.5,-385 139.5,-385 139.5,-363 19.5,-363"/>
<image xlink:href="../../images/foreignKeys.png" width="11px" height="12px" preserveAspectRatio="xMinYMin meet" x="24.5" y="-380"/>
<text text-anchor="start" x="39.5" y="-371.2" font-family="Helvetica,sans-Serif" font-size="11.00">embargoid</text>
<polygon fill="none" stroke="black" points="19.5,-345 19.5,-363 139.5,-363 139.5,-345 19.5,-345"/>
<text text-anchor="start" x="22.5" y="-351.2" font-family="Helvetica,sans-Serif" font-size="11.00">...</text>
<polygon fill="#ffffff" stroke="transparent" points="19.5,-327 19.5,-345 43.5,-345 43.5,-327 19.5,-327"/>
<polygon fill="none" stroke="black" points="19.5,-327 19.5,-345 43.5,-345 43.5,-327 19.5,-327"/>
<text text-anchor="start" x="22.5" y="-333.2" font-family="Helvetica,sans-Serif" font-size="11.00">&lt; 3</text>
<polygon fill="#ffffff" stroke="transparent" points="43.5,-327 43.5,-345 110.5,-345 110.5,-327 43.5,-327"/>
<polygon fill="none" stroke="black" points="43.5,-327 43.5,-345 110.5,-345 110.5,-327 43.5,-327"/>
<text text-anchor="start" x="47.5" y="-333.2" font-family="Helvetica,sans-Serif" font-size="11.00">48,328 rows</text>
<polygon fill="#ffffff" stroke="transparent" points="110.5,-327 110.5,-345 139.5,-345 139.5,-327 110.5,-327"/>
<polygon fill="none" stroke="black" points="110.5,-327 110.5,-345 139.5,-345 139.5,-327 110.5,-327"/>
<text text-anchor="start" x="114.5" y="-333.2" font-family="Helvetica,sans-Serif" font-size="11.00">13 &gt;</text>
</a>
</g>
</g>
<!-- isostandards&#45;&gt;datasets -->
<g id="edge1" class="edge">
<title>isostandards:w&#45;&gt;datasets:e</title>
<path fill="none" stroke="black" d="M186.66,-297.77C143.16,-317.81 204.6,-440 140.5,-440"/>
<polygon fill="black" stroke="black" points="193.14,-296.52 201.68,-298.53 197.07,-295.76 201,-295 201,-295 201,-295 197.07,-295.76 200.32,-291.47 193.14,-296.52 193.14,-296.52"/>
<ellipse fill="none" stroke="black" cx="190" cy="-297.12" rx="3.2" ry="3.2"/>
</g>
<!-- isostandardtypes -->
<g id="node3" class="node">
<title>isostandardtypes</title>
<g id="a_node3"><a xlink:href="../../tables/isostandardtypes.html" xlink:title="isostandardtypes" target="_top">
<polygon fill="#ffffff" stroke="transparent" points="8,-37 8,-117 151,-117 151,-37 8,-37"/>
<polygon fill="#f5f5f5" stroke="transparent" points="8.5,-95 8.5,-117 151.5,-117 151.5,-95 8.5,-95"/>
<polygon fill="none" stroke="black" points="8.5,-95 8.5,-117 151.5,-117 151.5,-95 8.5,-95"/>
<text text-anchor="start" x="13.5" y="-104.2" font-family="Helvetica,sans-Serif" font-weight="bold" font-size="11.00">isostandardtypes</text>
<text text-anchor="start" x="116.5" y="-103.2" font-family="Helvetica,sans-Serif" font-size="11.00">[table]</text>
<polygon fill="none" stroke="black" points="8.5,-73 8.5,-95 151.5,-95 151.5,-73 8.5,-73"/>
<image xlink:href="../../images/primaryKeys.png" width="11px" height="12px" preserveAspectRatio="xMinYMin meet" x="13.5" y="-90"/>
<text text-anchor="start" x="28.5" y="-81.2" font-family="Helvetica,sans-Serif" font-size="11.00">isostandardtypeid</text>
<polygon fill="none" stroke="black" points="8.5,-55 8.5,-73 151.5,-73 151.5,-55 8.5,-55"/>
<text text-anchor="start" x="11.5" y="-61.2" font-family="Helvetica,sans-Serif" font-size="11.00">...</text>
<polygon fill="#ffffff" stroke="transparent" points="8.5,-37 8.5,-55 52.5,-55 52.5,-37 8.5,-37"/>
<polygon fill="none" stroke="black" points="8.5,-37 8.5,-55 52.5,-55 52.5,-37 8.5,-37"/>
<text text-anchor="start" x="11.5" y="-43.2" font-family="Helvetica,sans-Serif" font-size="11.00"> &#160;</text>
<polygon fill="#ffffff" stroke="transparent" points="52.5,-37 52.5,-55 113.5,-55 113.5,-37 52.5,-37"/>
<polygon fill="none" stroke="black" points="52.5,-37 52.5,-55 113.5,-55 113.5,-37 52.5,-37"/>
<text text-anchor="start" x="71.5" y="-43.2" font-family="Helvetica,sans-Serif" font-size="11.00">20 rows</text>
<polygon fill="#ffffff" stroke="transparent" points="113.5,-37 113.5,-55 151.5,-55 151.5,-37 113.5,-37"/>
<polygon fill="none" stroke="black" points="113.5,-37 113.5,-55 151.5,-55 151.5,-37 113.5,-37"/>
<text text-anchor="start" x="132.5" y="-43.2" font-family="Helvetica,sans-Serif" font-size="11.00">1 &gt;</text>
</a>
</g>
</g>
<!-- isostandards&#45;&gt;isostandardtypes -->
<g id="edge2" class="edge">
<title>isostandards:w&#45;&gt;isostandardtypes:e</title>
<path fill="none" stroke="black" d="M186.67,-248.38C138.45,-227.13 224.05,-84 152.5,-84"/>
<polygon fill="black" stroke="black" points="193.13,-249.56 200.35,-254.54 197.07,-250.28 201,-251 201,-251 201,-251 197.07,-250.28 201.65,-247.46 193.13,-249.56 193.13,-249.56"/>
<ellipse fill="none" stroke="black" cx="189.98" cy="-248.98" rx="3.2" ry="3.2"/>
</g>
<!-- variables -->
<g id="node4" class="node">
<title>variables</title>
<g id="a_node4"><a xlink:href="../../tables/variables.html" xlink:title="variables" target="_top">
<polygon fill="#ffffff" stroke="transparent" points="14.5,-138 14.5,-306 144.5,-306 144.5,-138 14.5,-138"/>
<polygon fill="#f5f5f5" stroke="transparent" points="14.5,-284 14.5,-306 144.5,-306 144.5,-284 14.5,-284"/>
<polygon fill="none" stroke="black" points="14.5,-284 14.5,-306 144.5,-306 144.5,-284 14.5,-284"/>
<text text-anchor="start" x="19.5" y="-293.2" font-family="Helvetica,sans-Serif" font-weight="bold" font-size="11.00">variables</text>
<text text-anchor="start" x="109.5" y="-292.2" font-family="Helvetica,sans-Serif" font-size="11.00">[table]</text>
<polygon fill="none" stroke="black" points="14.5,-262 14.5,-284 144.5,-284 144.5,-262 14.5,-262"/>
<image xlink:href="../../images/primaryKeys.png" width="11px" height="12px" preserveAspectRatio="xMinYMin meet" x="19.5" y="-279"/>
<text text-anchor="start" x="34.5" y="-270.2" font-family="Helvetica,sans-Serif" font-size="11.00">variableid</text>
<polygon fill="#ffffff" stroke="transparent" points="14.5,-240 14.5,-262 144.5,-262 144.5,-240 14.5,-240"/>
<polygon fill="none" stroke="black" points="14.5,-240 14.5,-262 144.5,-262 144.5,-240 14.5,-240"/>
<image xlink:href="../../images/foreignKeys.png" width="11px" height="12px" preserveAspectRatio="xMinYMin meet" x="19.5" y="-257"/>
<text text-anchor="start" x="34.5" y="-248.2" font-family="Helvetica,sans-Serif" font-size="11.00">taxonid</text>
<polygon fill="#ffffff" stroke="transparent" points="14.5,-218 14.5,-240 144.5,-240 144.5,-218 14.5,-218"/>
<polygon fill="none" stroke="black" points="14.5,-218 14.5,-240 144.5,-240 144.5,-218 14.5,-218"/>
<image xlink:href="../../images/foreignKeys.png" width="11px" height="12px" preserveAspectRatio="xMinYMin meet" x="19.5" y="-235"/>
<text text-anchor="start" x="34.5" y="-226.2" font-family="Helvetica,sans-Serif" font-size="11.00">variableelementid</text>
<polygon fill="#ffffff" stroke="transparent" points="14.5,-196 14.5,-218 144.5,-218 144.5,-196 14.5,-196"/>
<polygon fill="none" stroke="black" points="14.5,-196 14.5,-218 144.5,-218 144.5,-196 14.5,-196"/>
<image xlink:href="../../images/foreignKeys.png" width="11px" height="12px" preserveAspectRatio="xMinYMin meet" x="19.5" y="-213"/>
<text text-anchor="start" x="34.5" y="-204.2" font-family="Helvetica,sans-Serif" font-size="11.00">variableunitsid</text>
<polygon fill="none" stroke="black" points="14.5,-174 14.5,-196 144.5,-196 144.5,-174 14.5,-174"/>
<image xlink:href="../../images/foreignKeys.png" width="11px" height="12px" preserveAspectRatio="xMinYMin meet" x="19.5" y="-191"/>
<text text-anchor="start" x="34.5" y="-182.2" font-family="Helvetica,sans-Serif" font-size="11.00">variablecontextid</text>
<polygon fill="none" stroke="black" points="14.5,-156 14.5,-174 144.5,-174 144.5,-156 14.5,-156"/>
<text text-anchor="start" x="17.5" y="-162.2" font-family="Helvetica,sans-Serif" font-size="11.00">...</text>
<polygon fill="#ffffff" stroke="transparent" points="14.5,-138 14.5,-156 46.5,-156 46.5,-138 14.5,-138"/>
<polygon fill="none" stroke="black" points="14.5,-138 14.5,-156 46.5,-156 46.5,-138 14.5,-138"/>
<text text-anchor="start" x="17.5" y="-144.2" font-family="Helvetica,sans-Serif" font-size="11.00">&lt; 4</text>
<polygon fill="#ffffff" stroke="transparent" points="46.5,-138 46.5,-156 117.5,-156 117.5,-138 46.5,-138"/>
<polygon fill="none" stroke="black" points="46.5,-138 46.5,-156 117.5,-156 117.5,-138 46.5,-138"/>
<text text-anchor="start" x="54.5" y="-144.2" font-family="Helvetica,sans-Serif" font-size="11.00">55,155 rows</text>
<polygon fill="#ffffff" stroke="transparent" points="117.5,-138 117.5,-156 144.5,-156 144.5,-138 117.5,-138"/>
<polygon fill="none" stroke="black" points="117.5,-138 117.5,-156 144.5,-156 144.5,-138 117.5,-138"/>
<text text-anchor="start" x="125.5" y="-144.2" font-family="Helvetica,sans-Serif" font-size="11.00">6 &gt;</text>
</a>
</g>
</g>
<!-- isostandards&#45;&gt;variables -->
<g id="edge3" class="edge">
<title>isostandards:w&#45;&gt;variables:e</title>
<path fill="none" stroke="black" d="M186.23,-273C172.43,-273 164.39,-273 145.5,-273"/>
<polygon fill="black" stroke="black" points="193,-273 201,-276.6 197,-273 201,-273 201,-273 201,-273 197,-273 201,-269.4 193,-273 193,-273"/>
<ellipse fill="none" stroke="black" cx="189.8" cy="-273" rx="3.2" ry="3.2"/>
</g>
</g>
</svg>
