<?xml version="1.0" encoding="UTF-8" standalone="no"?>
<!DOCTYPE svg PUBLIC "-//W3C//DTD SVG 1.1//EN"
 "http://www.w3.org/Graphics/SVG/1.1/DTD/svg11.dtd">
<!-- Generated by graphviz version 2.43.0 (0)
 -->
<!-- Title: twoDegreesRelationshipsDiagram Pages: 1 -->
<svg width="838pt" height="726pt"
 viewBox="0.00 0.00 838.00 726.00" xmlns="http://www.w3.org/2000/svg" xmlns:xlink="http://www.w3.org/1999/xlink">
<g id="graph0" class="graph" transform="scale(1 1) rotate(0) translate(4 722)">
<title>twoDegreesRelationshipsDiagram</title>
<polygon fill="#ffffff" stroke="transparent" points="-4,4 -4,-722 834,-722 834,4 -4,4"/>
<text text-anchor="middle" x="71.5" y="-7.2" font-family="Helvetica,sans-Serif" font-size="11.00">Generated by SchemaSpy</text>
<!-- data -->
<g id="node1" class="node">
<title>data</title>
<g id="a_node1"><a xlink:href="../../tables/data.html" xlink:title="data" target="_top">
<polygon fill="#ffffff" stroke="transparent" points="193,-355 193,-479 324,-479 324,-355 193,-355"/>
<polygon fill="#f5f5f5" stroke="transparent" points="193.5,-457 193.5,-479 324.5,-479 324.5,-457 193.5,-457"/>
<polygon fill="none" stroke="black" points="193.5,-457 193.5,-479 324.5,-479 324.5,-457 193.5,-457"/>
<text text-anchor="start" x="198.5" y="-466.2" font-family="Helvetica,sans-Serif" font-weight="bold" font-size="11.00">data</text>
<text text-anchor="start" x="289.5" y="-465.2" font-family="Helvetica,sans-Serif" font-size="11.00">[table]</text>
<polygon fill="none" stroke="black" points="193.5,-435 193.5,-457 324.5,-457 324.5,-435 193.5,-435"/>
<image xlink:href="../../images/primaryKeys.png" width="11px" height="12px" preserveAspectRatio="xMinYMin meet" x="198.5" y="-452"/>
<text text-anchor="start" x="219.5" y="-443.2" font-family="Helvetica,sans-Serif" font-size="11.00">dataid</text>
<polygon fill="#ffffff" stroke="transparent" points="193.5,-413 193.5,-435 324.5,-435 324.5,-413 193.5,-413"/>
<polygon fill="none" stroke="black" points="193.5,-413 193.5,-435 324.5,-435 324.5,-413 193.5,-413"/>
<image xlink:href="../../images/foreignKeys.png" width="11px" height="12px" preserveAspectRatio="xMinYMin meet" x="198.5" y="-430"/>
<text text-anchor="start" x="219.5" y="-421.2" font-family="Helvetica,sans-Serif" font-size="11.00">sampleid</text>
<polygon fill="#ffffff" stroke="transparent" points="193.5,-391 193.5,-413 324.5,-413 324.5,-391 193.5,-391"/>
<polygon fill="none" stroke="black" points="193.5,-391 193.5,-413 324.5,-413 324.5,-391 193.5,-391"/>
<image xlink:href="../../images/foreignKeys.png" width="11px" height="12px" preserveAspectRatio="xMinYMin meet" x="198.5" y="-408"/>
<text text-anchor="start" x="219.5" y="-399.2" font-family="Helvetica,sans-Serif" font-size="11.00">variableid</text>
<polygon fill="none" stroke="black" points="193.5,-373 193.5,-391 324.5,-391 324.5,-373 193.5,-373"/>
<text text-anchor="start" x="196.5" y="-379.2" font-family="Helvetica,sans-Serif" font-size="11.00">...</text>
<polygon fill="#ffffff" stroke="transparent" points="193.5,-355 193.5,-373 215.5,-373 215.5,-355 193.5,-355"/>
<polygon fill="none" stroke="black" points="193.5,-355 193.5,-373 215.5,-373 215.5,-355 193.5,-355"/>
<text text-anchor="start" x="196.5" y="-361.2" font-family="Helvetica,sans-Serif" font-size="11.00">&lt; 2</text>
<polygon fill="#ffffff" stroke="transparent" points="215.5,-355 215.5,-373 302.5,-373 302.5,-355 215.5,-355"/>
<polygon fill="none" stroke="black" points="215.5,-355 215.5,-373 302.5,-373 302.5,-355 215.5,-355"/>
<text text-anchor="start" x="218.5" y="-361.2" font-family="Helvetica,sans-Serif" font-size="11.00">10,527,055 rows</text>
<polygon fill="#ffffff" stroke="transparent" points="302.5,-355 302.5,-373 324.5,-373 324.5,-355 302.5,-355"/>
<polygon fill="none" stroke="black" points="302.5,-355 302.5,-373 324.5,-373 324.5,-355 302.5,-355"/>
<text text-anchor="start" x="305.5" y="-361.2" font-family="Helvetica,sans-Serif" font-size="11.00">8 &gt;</text>
</a>
</g>
</g>
<!-- samples -->
<g id="node2" class="node">
<title>samples</title>
<g id="a_node2"><a xlink:href="../../tables/samples.html" xlink:title="samples" target="_top">
<polygon fill="#ffffff" stroke="transparent" points="8,-425 8,-483 124,-483 124,-425 8,-425"/>
<polygon fill="#f5f5f5" stroke="transparent" points="8,-461 8,-483 124,-483 124,-461 8,-461"/>
<polygon fill="none" stroke="black" points="8,-461 8,-483 124,-483 124,-461 8,-461"/>
<text text-anchor="start" x="13" y="-470.2" font-family="Helvetica,sans-Serif" font-weight="bold" font-size="11.00">samples</text>
<text text-anchor="start" x="89" y="-469.2" font-family="Helvetica,sans-Serif" font-size="11.00">[table]</text>
<polygon fill="none" stroke="black" points="8,-443 8,-461 124,-461 124,-443 8,-443"/>
<text text-anchor="start" x="11" y="-449.2" font-family="Helvetica,sans-Serif" font-size="11.00">...</text>
<polygon fill="#ffffff" stroke="transparent" points="8,-425 8,-443 30,-443 30,-425 8,-425"/>
<polygon fill="none" stroke="black" points="8,-425 8,-443 30,-443 30,-425 8,-425"/>
<text text-anchor="start" x="11" y="-431.2" font-family="Helvetica,sans-Serif" font-size="11.00">&lt; 3</text>
<polygon fill="#ffffff" stroke="transparent" points="30,-425 30,-443 102,-443 102,-425 30,-425"/>
<polygon fill="none" stroke="black" points="30,-425 30,-443 102,-443 102,-425 30,-425"/>
<text text-anchor="start" x="33" y="-431.2" font-family="Helvetica,sans-Serif" font-size="11.00">541,654 rows</text>
<polygon fill="#ffffff" stroke="transparent" points="102,-425 102,-443 124,-443 124,-425 102,-425"/>
<polygon fill="none" stroke="black" points="102,-425 102,-443 124,-443 124,-425 102,-425"/>
<text text-anchor="start" x="105" y="-431.2" font-family="Helvetica,sans-Serif" font-size="11.00">7 &gt;</text>
</a>
</g>
</g>
<!-- data&#45;&gt;samples -->
<g id="edge1" class="edge">
<title>data:w&#45;&gt;samples:e</title>
<path fill="none" stroke="black" d="M178.1,-426.2C158.26,-432.8 151.9,-452 125,-452"/>
<polygon fill="black" stroke="black" points="184.59,-425.21 193.04,-427.56 188.55,-424.6 192.5,-424 192.5,-424 192.5,-424 188.55,-424.6 191.96,-420.44 184.59,-425.21 184.59,-425.21"/>
<ellipse fill="none" stroke="black" cx="181.43" cy="-425.69" rx="3.2" ry="3.2"/>
</g>
<!-- variables -->
<g id="node3" class="node">
<title>variables</title>
<g id="a_node3"><a xlink:href="../../tables/variables.html" xlink:title="variables" target="_top">
<polygon fill="#ffffff" stroke="transparent" points="11,-346 11,-404 121,-404 121,-346 11,-346"/>
<polygon fill="#f5f5f5" stroke="transparent" points="11,-382 11,-404 121,-404 121,-382 11,-382"/>
<polygon fill="none" stroke="black" points="11,-382 11,-404 121,-404 121,-382 11,-382"/>
<text text-anchor="start" x="16" y="-391.2" font-family="Helvetica,sans-Serif" font-weight="bold" font-size="11.00">variables</text>
<text text-anchor="start" x="86" y="-390.2" font-family="Helvetica,sans-Serif" font-size="11.00">[table]</text>
<polygon fill="none" stroke="black" points="11,-364 11,-382 121,-382 121,-364 11,-364"/>
<text text-anchor="start" x="14" y="-370.2" font-family="Helvetica,sans-Serif" font-size="11.00">...</text>
<polygon fill="#ffffff" stroke="transparent" points="11,-346 11,-364 33,-364 33,-346 11,-346"/>
<polygon fill="none" stroke="black" points="11,-346 11,-364 33,-364 33,-346 11,-346"/>
<text text-anchor="start" x="14" y="-352.2" font-family="Helvetica,sans-Serif" font-size="11.00">&lt; 4</text>
<polygon fill="#ffffff" stroke="transparent" points="33,-346 33,-364 99,-364 99,-346 33,-346"/>
<polygon fill="none" stroke="black" points="33,-346 33,-364 99,-364 99,-346 33,-346"/>
<text text-anchor="start" x="36" y="-352.2" font-family="Helvetica,sans-Serif" font-size="11.00">57,421 rows</text>
<polygon fill="#ffffff" stroke="transparent" points="99,-346 99,-364 121,-364 121,-346 99,-346"/>
<polygon fill="none" stroke="black" points="99,-346 99,-364 121,-364 121,-346 99,-346"/>
<text text-anchor="start" x="102" y="-352.2" font-family="Helvetica,sans-Serif" font-size="11.00">6 &gt;</text>
</a>
</g>
</g>
<!-- data&#45;&gt;variables -->
<g id="edge2" class="edge">
<title>data:w&#45;&gt;variables:e</title>
<path fill="none" stroke="black" d="M178.06,-399.91C156.88,-393.26 150.32,-373 122,-373"/>
<polygon fill="black" stroke="black" points="184.58,-400.86 191.99,-405.56 188.54,-401.43 192.5,-402 192.5,-402 192.5,-402 188.54,-401.43 193.01,-398.44 184.58,-400.86 184.58,-400.86"/>
<ellipse fill="none" stroke="black" cx="181.42" cy="-400.4" rx="3.2" ry="3.2"/>
</g>
<!-- datataxonnotes -->
<g id="node4" class="node">
<title>datataxonnotes</title>
<g id="a_node4"><a xlink:href="../../tables/datataxonnotes.html" xlink:title="datataxonnotes" target="_top">
<polygon fill="#ffffff" stroke="transparent" points="453.5,-656 453.5,-714 579.5,-714 579.5,-656 453.5,-656"/>
<polygon fill="#f5f5f5" stroke="transparent" points="453.5,-692 453.5,-714 579.5,-714 579.5,-692 453.5,-692"/>
<polygon fill="none" stroke="black" points="453.5,-692 453.5,-714 579.5,-714 579.5,-692 453.5,-692"/>
<text text-anchor="start" x="458.5" y="-701.2" font-family="Helvetica,sans-Serif" font-weight="bold" font-size="11.00">datataxonnotes</text>
<text text-anchor="start" x="544.5" y="-700.2" font-family="Helvetica,sans-Serif" font-size="11.00">[table]</text>
<polygon fill="none" stroke="black" points="453.5,-674 453.5,-692 579.5,-692 579.5,-674 453.5,-674"/>
<text text-anchor="start" x="456.5" y="-680.2" font-family="Helvetica,sans-Serif" font-size="11.00">...</text>
<polygon fill="#ffffff" stroke="transparent" points="453.5,-656 453.5,-674 501.5,-674 501.5,-656 453.5,-656"/>
<polygon fill="none" stroke="black" points="453.5,-656 453.5,-674 501.5,-674 501.5,-656 453.5,-656"/>
<text text-anchor="start" x="456.5" y="-662.2" font-family="Helvetica,sans-Serif" font-size="11.00">&lt; 2</text>
<polygon fill="#ffffff" stroke="transparent" points="501.5,-656 501.5,-674 553.5,-674 553.5,-656 501.5,-656"/>
<polygon fill="none" stroke="black" points="501.5,-656 501.5,-674 553.5,-674 553.5,-656 501.5,-656"/>
<text text-anchor="start" x="517.5" y="-662.2" font-family="Helvetica,sans-Serif" font-size="11.00">0 rows</text>
<polygon fill="#ffffff" stroke="transparent" points="553.5,-656 553.5,-674 579.5,-674 579.5,-656 553.5,-656"/>
<polygon fill="none" stroke="black" points="553.5,-656 553.5,-674 579.5,-674 579.5,-656 553.5,-656"/>
<text text-anchor="start" x="569.5" y="-662.2" font-family="Helvetica,sans-Serif" font-size="11.00"> &#160;</text>
</a>
</g>
</g>
<!-- datataxonnotes&#45;&gt;data -->
<g id="edge3" class="edge">
<title>datataxonnotes:w&#45;&gt;data:e</title>
<path fill="none" stroke="black" d="M437.98,-682.22C414.37,-679.36 403.13,-668.46 385,-646 326.74,-573.85 418.24,-446 325.5,-446"/>
<polygon fill="black" stroke="black" points="444.51,-682.57 452.31,-686.59 448.51,-682.78 452.5,-683 452.5,-683 452.5,-683 448.51,-682.78 452.69,-679.41 444.51,-682.57 444.51,-682.57"/>
<ellipse fill="none" stroke="black" cx="441.32" cy="-682.4" rx="3.2" ry="3.2"/>
</g>
<!-- datauncertainties -->
<g id="node5" class="node">
<title>datauncertainties</title>
<g id="a_node5"><a xlink:href="../../tables/datauncertainties.html" xlink:title="datauncertainties" target="_top">
<polygon fill="#ffffff" stroke="transparent" points="449,-577 449,-635 584,-635 584,-577 449,-577"/>
<polygon fill="#f5f5f5" stroke="transparent" points="449.5,-613 449.5,-635 584.5,-635 584.5,-613 449.5,-613"/>
<polygon fill="none" stroke="black" points="449.5,-613 449.5,-635 584.5,-635 584.5,-613 449.5,-613"/>
<text text-anchor="start" x="454.5" y="-622.2" font-family="Helvetica,sans-Serif" font-weight="bold" font-size="11.00">datauncertainties</text>
<text text-anchor="start" x="549.5" y="-621.2" font-family="Helvetica,sans-Serif" font-size="11.00">[table]</text>
<polygon fill="none" stroke="black" points="449.5,-595 449.5,-613 584.5,-613 584.5,-595 449.5,-595"/>
<text text-anchor="start" x="452.5" y="-601.2" font-family="Helvetica,sans-Serif" font-size="11.00">...</text>
<polygon fill="#ffffff" stroke="transparent" points="449.5,-577 449.5,-595 501.5,-595 501.5,-577 449.5,-577"/>
<polygon fill="none" stroke="black" points="449.5,-577 449.5,-595 501.5,-595 501.5,-577 449.5,-577"/>
<text text-anchor="start" x="452.5" y="-583.2" font-family="Helvetica,sans-Serif" font-size="11.00">&lt; 3</text>
<polygon fill="#ffffff" stroke="transparent" points="501.5,-577 501.5,-595 555.5,-595 555.5,-577 501.5,-577"/>
<polygon fill="none" stroke="black" points="501.5,-577 501.5,-595 555.5,-595 555.5,-577 501.5,-577"/>
<text text-anchor="start" x="519.5" y="-583.2" font-family="Helvetica,sans-Serif" font-size="11.00">0 rows</text>
<polygon fill="#ffffff" stroke="transparent" points="555.5,-577 555.5,-595 584.5,-595 584.5,-577 555.5,-577"/>
<polygon fill="none" stroke="black" points="555.5,-577 555.5,-595 584.5,-595 584.5,-577 555.5,-577"/>
<text text-anchor="start" x="574.5" y="-583.2" font-family="Helvetica,sans-Serif" font-size="11.00"> &#160;</text>
</a>
</g>
</g>
<!-- datauncertainties&#45;&gt;data -->
<g id="edge4" class="edge">
<title>datauncertainties:w&#45;&gt;data:e</title>
<path fill="none" stroke="black" d="M433.9,-602.9C412.57,-599.29 403.53,-586.88 385,-567 344.15,-523.16 385.43,-446 325.5,-446"/>
<polygon fill="black" stroke="black" points="440.52,-603.4 448.23,-607.59 444.51,-603.7 448.5,-604 448.5,-604 448.5,-604 444.51,-603.7 448.77,-600.41 440.52,-603.4 440.52,-603.4"/>
<ellipse fill="none" stroke="black" cx="437.33" cy="-603.16" rx="3.2" ry="3.2"/>
</g>
<!-- isometadata -->
<g id="node6" class="node">
<title>isometadata</title>
<g id="a_node6"><a xlink:href="../../tables/isometadata.html" xlink:title="isometadata" target="_top">
<polygon fill="#ffffff" stroke="transparent" points="462.5,-498 462.5,-556 570.5,-556 570.5,-498 462.5,-498"/>
<polygon fill="#f5f5f5" stroke="transparent" points="462.5,-534 462.5,-556 570.5,-556 570.5,-534 462.5,-534"/>
<polygon fill="none" stroke="black" points="462.5,-534 462.5,-556 570.5,-556 570.5,-534 462.5,-534"/>
<text text-anchor="start" x="467.5" y="-543.2" font-family="Helvetica,sans-Serif" font-weight="bold" font-size="11.00">isometadata</text>
<text text-anchor="start" x="535.5" y="-542.2" font-family="Helvetica,sans-Serif" font-size="11.00">[table]</text>
<polygon fill="none" stroke="black" points="462.5,-516 462.5,-534 570.5,-534 570.5,-516 462.5,-516"/>
<text text-anchor="start" x="465.5" y="-522.2" font-family="Helvetica,sans-Serif" font-size="11.00">...</text>
<polygon fill="#ffffff" stroke="transparent" points="462.5,-498 462.5,-516 490.5,-516 490.5,-498 462.5,-498"/>
<polygon fill="none" stroke="black" points="462.5,-498 462.5,-516 490.5,-516 490.5,-498 462.5,-498"/>
<text text-anchor="start" x="465.5" y="-504.2" font-family="Helvetica,sans-Serif" font-size="11.00">&lt; 4</text>
<polygon fill="#ffffff" stroke="transparent" points="490.5,-498 490.5,-516 553.5,-516 553.5,-498 490.5,-498"/>
<polygon fill="none" stroke="black" points="490.5,-498 490.5,-516 553.5,-516 553.5,-498 490.5,-498"/>
<text text-anchor="start" x="496.5" y="-504.2" font-family="Helvetica,sans-Serif" font-size="11.00">4,893 rows</text>
<polygon fill="#ffffff" stroke="transparent" points="553.5,-498 553.5,-516 570.5,-516 570.5,-498 553.5,-498"/>
<polygon fill="none" stroke="black" points="553.5,-498 553.5,-516 570.5,-516 570.5,-498 553.5,-498"/>
<text text-anchor="start" x="560.5" y="-504.2" font-family="Helvetica,sans-Serif" font-size="11.00"> &#160;</text>
</a>
</g>
</g>
<!-- isometadata&#45;&gt;data -->
<g id="edge5" class="edge">
<title>isometadata:w&#45;&gt;data:e</title>
<path fill="none" stroke="black" d="M447.07,-523.79C421.05,-518.99 413.6,-500.76 385,-484 357.93,-468.13 356.88,-446 325.5,-446"/>
<polygon fill="black" stroke="black" points="453.53,-524.33 461.2,-528.59 457.51,-524.67 461.5,-525 461.5,-525 461.5,-525 457.51,-524.67 461.8,-521.41 453.53,-524.33 453.53,-524.33"/>
<ellipse fill="none" stroke="black" cx="450.34" cy="-524.06" rx="3.2" ry="3.2"/>
</g>
<!-- isosamplepretreatments -->
<g id="node7" class="node">
<title>isosamplepretreatments</title>
<g id="a_node7"><a xlink:href="../../tables/isosamplepretreatments.html" xlink:title="isosamplepretreatments" target="_top">
<polygon fill="#ffffff" stroke="transparent" points="393,-37 393,-213 640,-213 640,-37 393,-37"/>
<polygon fill="#f5f5f5" stroke="transparent" points="395.5,-189 395.5,-211 638.5,-211 638.5,-189 395.5,-189"/>
<polygon fill="none" stroke="black" points="395.5,-189 395.5,-211 638.5,-211 638.5,-189 395.5,-189"/>
<text text-anchor="start" x="400.5" y="-198.2" font-family="Helvetica,sans-Serif" font-weight="bold" font-size="11.00">isosamplepretreatments</text>
<text text-anchor="start" x="603.5" y="-197.2" font-family="Helvetica,sans-Serif" font-size="11.00">[table]</text>
<polygon fill="none" stroke="black" points="395.5,-167 395.5,-189 564.5,-189 564.5,-167 395.5,-167"/>
<image xlink:href="../../images/primaryKeys.png" width="11px" height="12px" preserveAspectRatio="xMinYMin meet" x="400.5" y="-184"/>
<text text-anchor="start" x="415.5" y="-175.2" font-family="Helvetica,sans-Serif" font-size="11.00">dataid</text>
<polygon fill="none" stroke="black" points="564.5,-167 564.5,-189 638.5,-189 638.5,-167 564.5,-167"/>
<text text-anchor="start" x="567.5" y="-175.2" font-family="Helvetica,sans-Serif" font-size="11.00">int4[10]</text>
<polygon fill="none" stroke="black" points="395.5,-145 395.5,-167 564.5,-167 564.5,-145 395.5,-145"/>
<image xlink:href="../../images/primaryKeys.png" width="11px" height="12px" preserveAspectRatio="xMinYMin meet" x="400.5" y="-162"/>
<text text-anchor="start" x="415.5" y="-153.2" font-family="Helvetica,sans-Serif" font-size="11.00">isopretreatmenttypeid</text>
<polygon fill="none" stroke="black" points="564.5,-145 564.5,-167 638.5,-167 638.5,-145 564.5,-145"/>
<text text-anchor="start" x="567.5" y="-153.2" font-family="Helvetica,sans-Serif" font-size="11.00">int4[10]</text>
<polygon fill="none" stroke="black" points="395.5,-123 395.5,-145 564.5,-145 564.5,-123 395.5,-123"/>
<image xlink:href="../../images/primaryKeys.png" width="11px" height="12px" preserveAspectRatio="xMinYMin meet" x="400.5" y="-140"/>
<text text-anchor="start" x="415.5" y="-131.2" font-family="Helvetica,sans-Serif" font-size="11.00">order</text>
<polygon fill="none" stroke="black" points="564.5,-123 564.5,-145 638.5,-145 638.5,-123 564.5,-123"/>
<text text-anchor="start" x="567.5" y="-131.2" font-family="Helvetica,sans-Serif" font-size="11.00">int4[10]</text>
<polygon fill="none" stroke="black" points="395.5,-101 395.5,-123 564.5,-123 564.5,-101 395.5,-101"/>
<text text-anchor="start" x="415.5" y="-109.2" font-family="Helvetica,sans-Serif" font-size="11.00">value</text>
<polygon fill="none" stroke="black" points="564.5,-101 564.5,-123 638.5,-123 638.5,-101 564.5,-101"/>
<text text-anchor="start" x="567.5" y="-109.2" font-family="Helvetica,sans-Serif" font-size="11.00">float8[17,17]</text>
<polygon fill="none" stroke="black" points="395.5,-79 395.5,-101 564.5,-101 564.5,-79 395.5,-79"/>
<text text-anchor="start" x="415.5" y="-87.2" font-family="Helvetica,sans-Serif" font-size="11.00">recdatecreated</text>
<polygon fill="none" stroke="black" points="564.5,-79 564.5,-101 638.5,-101 638.5,-79 564.5,-79"/>
<text text-anchor="start" x="567.5" y="-87.2" font-family="Helvetica,sans-Serif" font-size="11.00">timestamp[22]</text>
<polygon fill="none" stroke="black" points="395.5,-57 395.5,-79 564.5,-79 564.5,-57 395.5,-57"/>
<text text-anchor="start" x="415.5" y="-65.2" font-family="Helvetica,sans-Serif" font-size="11.00">recdatemodified</text>
<polygon fill="none" stroke="black" points="564.5,-57 564.5,-79 638.5,-79 638.5,-57 564.5,-57"/>
<text text-anchor="start" x="567.5" y="-65.2" font-family="Helvetica,sans-Serif" font-size="11.00">timestamp[22]</text>
<polygon fill="#ffffff" stroke="transparent" points="395.5,-39 395.5,-57 460.5,-57 460.5,-39 395.5,-39"/>
<polygon fill="none" stroke="black" points="395.5,-39 395.5,-57 460.5,-57 460.5,-39 395.5,-39"/>
<text text-anchor="start" x="398.5" y="-45.2" font-family="Helvetica,sans-Serif" font-size="11.00">&lt; 2</text>
<polygon fill="#ffffff" stroke="transparent" points="460.5,-39 460.5,-57 564.5,-57 564.5,-39 460.5,-39"/>
<polygon fill="none" stroke="black" points="460.5,-39 460.5,-57 564.5,-57 564.5,-39 460.5,-39"/>
<text text-anchor="start" x="507.5" y="-45.2" font-family="Helvetica,sans-Serif" font-size="11.00">1,035 rows</text>
<polygon fill="#ffffff" stroke="transparent" points="564.5,-39 564.5,-57 638.5,-57 638.5,-39 564.5,-39"/>
<polygon fill="none" stroke="black" points="564.5,-39 564.5,-57 638.5,-57 638.5,-39 564.5,-39"/>
<text text-anchor="start" x="619.5" y="-45.2" font-family="Helvetica,sans-Serif" font-size="11.00">0 &gt;</text>
<polygon fill="none" stroke="black" stroke-width="2" points="394,-38 394,-212 639,-212 639,-38 394,-38"/>
</a>
</g>
</g>
<!-- isosamplepretreatments&#45;&gt;data -->
<g id="edge6" class="edge">
<title>isosamplepretreatments:w&#45;&gt;data:e</title>
<path fill="none" stroke="black" d="M379.97,-179.51C286.48,-201.04 443.09,-446 325.5,-446"/>
<polygon fill="black" stroke="black" points="386.54,-178.83 394.87,-181.58 390.52,-178.41 394.5,-178 394.5,-178 394.5,-178 390.52,-178.41 394.13,-174.42 386.54,-178.83 386.54,-178.83"/>
<ellipse fill="none" stroke="black" cx="383.36" cy="-179.16" rx="3.2" ry="3.2"/>
</g>
<!-- isopretreatmenttypes -->
<g id="node8" class="node">
<title>isopretreatmenttypes</title>
<g id="a_node8"><a xlink:href="../../tables/isopretreatmenttypes.html" xlink:title="isopretreatmenttypes" target="_top">
<polygon fill="#ffffff" stroke="transparent" points="173,-109 173,-189 344,-189 344,-109 173,-109"/>
<polygon fill="#f5f5f5" stroke="transparent" points="173.5,-167 173.5,-189 344.5,-189 344.5,-167 173.5,-167"/>
<polygon fill="none" stroke="black" points="173.5,-167 173.5,-189 344.5,-189 344.5,-167 173.5,-167"/>
<text text-anchor="start" x="178.5" y="-176.2" font-family="Helvetica,sans-Serif" font-weight="bold" font-size="11.00">isopretreatmenttypes</text>
<text text-anchor="start" x="309.5" y="-175.2" font-family="Helvetica,sans-Serif" font-size="11.00">[table]</text>
<polygon fill="none" stroke="black" points="173.5,-145 173.5,-167 344.5,-167 344.5,-145 173.5,-145"/>
<image xlink:href="../../images/primaryKeys.png" width="11px" height="12px" preserveAspectRatio="xMinYMin meet" x="178.5" y="-162"/>
<text text-anchor="start" x="193.5" y="-153.2" font-family="Helvetica,sans-Serif" font-size="11.00">isopretreatmenttypeid</text>
<polygon fill="none" stroke="black" points="173.5,-127 173.5,-145 344.5,-145 344.5,-127 173.5,-127"/>
<text text-anchor="start" x="176.5" y="-133.2" font-family="Helvetica,sans-Serif" font-size="11.00">...</text>
<polygon fill="#ffffff" stroke="transparent" points="173.5,-109 173.5,-127 231.5,-127 231.5,-109 173.5,-109"/>
<polygon fill="none" stroke="black" points="173.5,-109 173.5,-127 231.5,-127 231.5,-109 173.5,-109"/>
<text text-anchor="start" x="176.5" y="-115.2" font-family="Helvetica,sans-Serif" font-size="11.00"> &#160;</text>
<polygon fill="#ffffff" stroke="transparent" points="231.5,-109 231.5,-127 299.5,-127 299.5,-109 231.5,-109"/>
<polygon fill="none" stroke="black" points="231.5,-109 231.5,-127 299.5,-127 299.5,-109 231.5,-109"/>
<text text-anchor="start" x="257.5" y="-115.2" font-family="Helvetica,sans-Serif" font-size="11.00">40 rows</text>
<polygon fill="#ffffff" stroke="transparent" points="299.5,-109 299.5,-127 344.5,-127 344.5,-109 299.5,-109"/>
<polygon fill="none" stroke="black" points="299.5,-109 299.5,-127 344.5,-127 344.5,-109 299.5,-109"/>
<text text-anchor="start" x="325.5" y="-115.2" font-family="Helvetica,sans-Serif" font-size="11.00">1 &gt;</text>
</a>
</g>
</g>
<!-- isosamplepretreatments&#45;&gt;isopretreatmenttypes -->
<g id="edge7" class="edge">
<title>isosamplepretreatments:w&#45;&gt;isopretreatmenttypes:e</title>
<path fill="none" stroke="black" d="M379.99,-156C368.68,-156 361.49,-156 345.5,-156"/>
<polygon fill="black" stroke="black" points="386.5,-156 394.5,-159.6 390.5,-156 394.5,-156 394.5,-156 394.5,-156 390.5,-156 394.5,-152.4 386.5,-156 386.5,-156"/>
<ellipse fill="none" stroke="black" cx="383.3" cy="-156" rx="3.2" ry="3.2"/>
</g>
<!-- isospecimendata -->
<g id="node9" class="node">
<title>isospecimendata</title>
<g id="a_node9"><a xlink:href="../../tables/isospecimendata.html" xlink:title="isospecimendata" target="_top">
<polygon fill="#ffffff" stroke="transparent" points="689,-419 689,-477 822,-477 822,-419 689,-419"/>
<polygon fill="#f5f5f5" stroke="transparent" points="689.5,-455 689.5,-477 822.5,-477 822.5,-455 689.5,-455"/>
<polygon fill="none" stroke="black" points="689.5,-455 689.5,-477 822.5,-477 822.5,-455 689.5,-455"/>
<text text-anchor="start" x="694.5" y="-464.2" font-family="Helvetica,sans-Serif" font-weight="bold" font-size="11.00">isospecimendata</text>
<text text-anchor="start" x="787.5" y="-463.2" font-family="Helvetica,sans-Serif" font-size="11.00">[table]</text>
<polygon fill="none" stroke="black" points="689.5,-437 689.5,-455 822.5,-455 822.5,-437 689.5,-437"/>
<text text-anchor="start" x="692.5" y="-443.2" font-family="Helvetica,sans-Serif" font-size="11.00">...</text>
<polygon fill="#ffffff" stroke="transparent" points="689.5,-419 689.5,-437 730.5,-437 730.5,-419 689.5,-419"/>
<polygon fill="none" stroke="black" points="689.5,-419 689.5,-437 730.5,-437 730.5,-419 689.5,-419"/>
<text text-anchor="start" x="692.5" y="-425.2" font-family="Helvetica,sans-Serif" font-size="11.00">&lt; 2</text>
<polygon fill="#ffffff" stroke="transparent" points="730.5,-419 730.5,-437 799.5,-437 799.5,-419 730.5,-419"/>
<polygon fill="none" stroke="black" points="730.5,-419 730.5,-437 799.5,-437 799.5,-419 730.5,-419"/>
<text text-anchor="start" x="742.5" y="-425.2" font-family="Helvetica,sans-Serif" font-size="11.00">5,193 rows</text>
<polygon fill="#ffffff" stroke="transparent" points="799.5,-419 799.5,-437 822.5,-437 822.5,-419 799.5,-419"/>
<polygon fill="none" stroke="black" points="799.5,-419 799.5,-437 822.5,-437 822.5,-419 799.5,-419"/>
<text text-anchor="start" x="812.5" y="-425.2" font-family="Helvetica,sans-Serif" font-size="11.00"> &#160;</text>
</a>
</g>
</g>
<!-- isospecimendata&#45;&gt;data -->
<g id="edge8" class="edge">
<title>isospecimendata:w&#45;&gt;data:e</title>
<path fill="none" stroke="black" d="M674.13,-448.92C666.07,-452.6 660.84,-458.7 648,-461 532.94,-481.62 501,-475.4 385,-461 357.94,-457.64 352.77,-446 325.5,-446"/>
<polygon fill="black" stroke="black" points="680.66,-447.59 689.22,-449.53 684.58,-446.8 688.5,-446 688.5,-446 688.5,-446 684.58,-446.8 687.78,-442.47 680.66,-447.59 680.66,-447.59"/>
<ellipse fill="none" stroke="black" cx="677.52" cy="-448.23" rx="3.2" ry="3.2"/>
</g>
<!-- specimens -->
<g id="node10" class="node">
<title>specimens</title>
<g id="a_node10"><a xlink:href="../../tables/specimens.html" xlink:title="specimens" target="_top">
<polygon fill="#ffffff" stroke="transparent" points="464.5,-392 464.5,-450 568.5,-450 568.5,-392 464.5,-392"/>
<polygon fill="#f5f5f5" stroke="transparent" points="464.5,-428 464.5,-450 568.5,-450 568.5,-428 464.5,-428"/>
<polygon fill="none" stroke="black" points="464.5,-428 464.5,-450 568.5,-450 568.5,-428 464.5,-428"/>
<text text-anchor="start" x="469.5" y="-437.2" font-family="Helvetica,sans-Serif" font-weight="bold" font-size="11.00">specimens</text>
<text text-anchor="start" x="533.5" y="-436.2" font-family="Helvetica,sans-Serif" font-size="11.00">[table]</text>
<polygon fill="none" stroke="black" points="464.5,-410 464.5,-428 568.5,-428 568.5,-410 464.5,-410"/>
<text text-anchor="start" x="467.5" y="-416.2" font-family="Helvetica,sans-Serif" font-size="11.00">...</text>
<polygon fill="#ffffff" stroke="transparent" points="464.5,-392 464.5,-410 486.5,-410 486.5,-392 464.5,-392"/>
<polygon fill="none" stroke="black" points="464.5,-392 464.5,-410 486.5,-410 486.5,-392 464.5,-392"/>
<text text-anchor="start" x="467.5" y="-398.2" font-family="Helvetica,sans-Serif" font-size="11.00">&lt; 8</text>
<polygon fill="#ffffff" stroke="transparent" points="486.5,-392 486.5,-410 546.5,-410 546.5,-392 486.5,-392"/>
<polygon fill="none" stroke="black" points="486.5,-392 486.5,-410 546.5,-410 546.5,-392 486.5,-392"/>
<text text-anchor="start" x="489.5" y="-398.2" font-family="Helvetica,sans-Serif" font-size="11.00">3,453 rows</text>
<polygon fill="#ffffff" stroke="transparent" points="546.5,-392 546.5,-410 568.5,-410 568.5,-392 546.5,-392"/>
<polygon fill="none" stroke="black" points="546.5,-392 546.5,-410 568.5,-410 568.5,-392 546.5,-392"/>
<text text-anchor="start" x="549.5" y="-398.2" font-family="Helvetica,sans-Serif" font-size="11.00">4 &gt;</text>
</a>
</g>
</g>
<!-- isospecimendata&#45;&gt;specimens -->
<g id="edge9" class="edge">
<title>isospecimendata:w&#45;&gt;specimens:e</title>
<path fill="none" stroke="black" d="M674.05,-445.31C631.85,-441.08 618.54,-419 569.5,-419"/>
<polygon fill="black" stroke="black" points="680.51,-445.62 688.33,-449.6 684.5,-445.81 688.5,-446 688.5,-446 688.5,-446 684.5,-445.81 688.67,-442.4 680.51,-445.62 680.51,-445.62"/>
<ellipse fill="none" stroke="black" cx="677.31" cy="-445.46" rx="3.2" ry="3.2"/>
</g>
<!-- specimens&#45;&gt;data -->
<g id="edge11" class="edge">
<title>specimens:w&#45;&gt;data:e</title>
<path fill="none" stroke="black" d="M449.06,-419.52C398.54,-423.25 382.87,-446 325.5,-446"/>
<polygon fill="black" stroke="black" points="455.51,-419.29 463.63,-422.6 459.5,-419.14 463.5,-419 463.5,-419 463.5,-419 459.5,-419.14 463.37,-415.4 455.51,-419.29 455.51,-419.29"/>
<ellipse fill="none" stroke="black" cx="452.31" cy="-419.4" rx="3.2" ry="3.2"/>
</g>
<!-- isostratdata -->
<g id="node11" class="node">
<title>isostratdata</title>
<g id="a_node11"><a xlink:href="../../tables/isostratdata.html" xlink:title="isostratdata" target="_top">
<polygon fill="#ffffff" stroke="transparent" points="463,-313 463,-371 570,-371 570,-313 463,-313"/>
<polygon fill="#f5f5f5" stroke="transparent" points="463.5,-349 463.5,-371 570.5,-371 570.5,-349 463.5,-349"/>
<polygon fill="none" stroke="black" points="463.5,-349 463.5,-371 570.5,-371 570.5,-349 463.5,-349"/>
<text text-anchor="start" x="468.5" y="-358.2" font-family="Helvetica,sans-Serif" font-weight="bold" font-size="11.00">isostratdata</text>
<text text-anchor="start" x="535.5" y="-357.2" font-family="Helvetica,sans-Serif" font-size="11.00">[table]</text>
<polygon fill="none" stroke="black" points="463.5,-331 463.5,-349 570.5,-349 570.5,-331 463.5,-331"/>
<text text-anchor="start" x="466.5" y="-337.2" font-family="Helvetica,sans-Serif" font-size="11.00">...</text>
<polygon fill="#ffffff" stroke="transparent" points="463.5,-313 463.5,-331 495.5,-331 495.5,-313 463.5,-313"/>
<polygon fill="none" stroke="black" points="463.5,-313 463.5,-331 495.5,-331 495.5,-313 463.5,-313"/>
<text text-anchor="start" x="466.5" y="-319.2" font-family="Helvetica,sans-Serif" font-size="11.00">&lt; 3</text>
<polygon fill="#ffffff" stroke="transparent" points="495.5,-313 495.5,-331 551.5,-331 551.5,-313 495.5,-313"/>
<polygon fill="none" stroke="black" points="495.5,-313 495.5,-331 551.5,-331 551.5,-313 495.5,-313"/>
<text text-anchor="start" x="503.5" y="-319.2" font-family="Helvetica,sans-Serif" font-size="11.00">634 rows</text>
<polygon fill="#ffffff" stroke="transparent" points="551.5,-313 551.5,-331 570.5,-331 570.5,-313 551.5,-313"/>
<polygon fill="none" stroke="black" points="551.5,-313 551.5,-331 570.5,-331 570.5,-313 551.5,-313"/>
<text text-anchor="start" x="560.5" y="-319.2" font-family="Helvetica,sans-Serif" font-size="11.00"> &#160;</text>
</a>
</g>
</g>
<!-- isostratdata&#45;&gt;data -->
<g id="edge10" class="edge">
<title>isostratdata:w&#45;&gt;data:e</title>
<path fill="none" stroke="black" d="M451.88,-340.5C421.66,-343.57 412.94,-360.35 385,-382 354.3,-405.79 364.34,-446 325.5,-446"/>
<polygon fill="black" stroke="black" points="461.51,-336.04 461.89,-344.03 460.29,-344.11 459.91,-336.12 461.51,-336.04"/>
<polyline fill="none" stroke="black" points="462.5,-340 458.5,-340.19 "/>
<ellipse fill="none" stroke="black" cx="455.31" cy="-340.34" rx="3.2" ry="3.2"/>
</g>
<!-- summarydatataphonomy -->
<g id="node12" class="node">
<title>summarydatataphonomy</title>
<g id="a_node12"><a xlink:href="../../tables/summarydatataphonomy.html" xlink:title="summarydatataphonomy" target="_top">
<polygon fill="#ffffff" stroke="transparent" points="429,-234 429,-292 604,-292 604,-234 429,-234"/>
<polygon fill="#f5f5f5" stroke="transparent" points="429.5,-270 429.5,-292 604.5,-292 604.5,-270 429.5,-270"/>
<polygon fill="none" stroke="black" points="429.5,-270 429.5,-292 604.5,-292 604.5,-270 429.5,-270"/>
<text text-anchor="start" x="434.5" y="-279.2" font-family="Helvetica,sans-Serif" font-weight="bold" font-size="11.00">summarydatataphonomy</text>
<text text-anchor="start" x="569.5" y="-278.2" font-family="Helvetica,sans-Serif" font-size="11.00">[table]</text>
<polygon fill="none" stroke="black" points="429.5,-252 429.5,-270 604.5,-270 604.5,-252 429.5,-252"/>
<text text-anchor="start" x="432.5" y="-258.2" font-family="Helvetica,sans-Serif" font-size="11.00">...</text>
<polygon fill="#ffffff" stroke="transparent" points="429.5,-234 429.5,-252 488.5,-252 488.5,-234 429.5,-234"/>
<polygon fill="none" stroke="black" points="429.5,-234 429.5,-252 488.5,-252 488.5,-234 429.5,-234"/>
<text text-anchor="start" x="432.5" y="-240.2" font-family="Helvetica,sans-Serif" font-size="11.00">&lt; 2</text>
<polygon fill="#ffffff" stroke="transparent" points="488.5,-234 488.5,-252 572.5,-252 572.5,-234 488.5,-234"/>
<polygon fill="none" stroke="black" points="488.5,-234 488.5,-252 572.5,-252 572.5,-234 488.5,-234"/>
<text text-anchor="start" x="509.5" y="-240.2" font-family="Helvetica,sans-Serif" font-size="11.00">43,202 rows</text>
<polygon fill="#ffffff" stroke="transparent" points="572.5,-234 572.5,-252 604.5,-252 604.5,-234 572.5,-234"/>
<polygon fill="none" stroke="black" points="572.5,-234 572.5,-252 604.5,-252 604.5,-234 572.5,-234"/>
<text text-anchor="start" x="594.5" y="-240.2" font-family="Helvetica,sans-Serif" font-size="11.00"> &#160;</text>
</a>
</g>
</g>
<!-- summarydatataphonomy&#45;&gt;data -->
<g id="edge12" class="edge">
<title>summarydatataphonomy:w&#45;&gt;data:e</title>
<path fill="none" stroke="black" d="M414.17,-262.71C343.47,-281.36 414.28,-446 325.5,-446"/>
<polygon fill="black" stroke="black" points="420.56,-261.95 428.93,-264.57 424.53,-261.47 428.5,-261 428.5,-261 428.5,-261 424.53,-261.47 428.07,-257.43 420.56,-261.95 420.56,-261.95"/>
<ellipse fill="none" stroke="black" cx="417.38" cy="-262.33" rx="3.2" ry="3.2"/>
</g>
</g>
</svg>
