<?xml version="1.0" encoding="UTF-8" standalone="no"?>
<!DOCTYPE svg PUBLIC "-//W3C//DTD SVG 1.1//EN"
 "http://www.w3.org/Graphics/SVG/1.1/DTD/svg11.dtd">
<!-- Generated by graphviz version 2.43.0 (0)
 -->
<!-- Title: twoDegreesRelationshipsDiagram Pages: 1 -->
<svg width="414pt" height="361pt"
 viewBox="0.00 0.00 414.00 361.00" xmlns="http://www.w3.org/2000/svg" xmlns:xlink="http://www.w3.org/1999/xlink">
<g id="graph0" class="graph" transform="scale(1 1) rotate(0) translate(4 357)">
<title>twoDegreesRelationshipsDiagram</title>
<polygon fill="#ffffff" stroke="transparent" points="-4,4 -4,-357 410,-357 410,4 -4,4"/>
<text text-anchor="middle" x="71.5" y="-7.2" font-family="Helvetica,sans-Serif" font-size="11.00">Generated by SchemaSpy</text>
<!-- isostandards -->
<g id="node1" class="node">
<title>isostandards</title>
<g id="a_node1"><a xlink:href="../../tables/isostandards.html" xlink:title="isostandards" target="_top">
<polygon fill="#ffffff" stroke="transparent" points="278,-170 278,-294 398,-294 398,-170 278,-170"/>
<polygon fill="#f5f5f5" stroke="transparent" points="278,-272 278,-294 398,-294 398,-272 278,-272"/>
<polygon fill="none" stroke="black" points="278,-272 278,-294 398,-294 398,-272 278,-272"/>
<text text-anchor="start" x="283" y="-281.2" font-family="Helvetica,sans-Serif" font-weight="bold" font-size="11.00">isostandards</text>
<text text-anchor="start" x="363" y="-280.2" font-family="Helvetica,sans-Serif" font-size="11.00">[table]</text>
<polygon fill="none" stroke="black" points="278,-250 278,-272 398,-272 398,-250 278,-250"/>
<image xlink:href="../../images/primaryKeys.png" width="11px" height="12px" preserveAspectRatio="xMinYMin meet" x="283" y="-267"/>
<text text-anchor="start" x="298" y="-258.2" font-family="Helvetica,sans-Serif" font-size="11.00">datasetid</text>
<polygon fill="none" stroke="black" points="278,-228 278,-250 398,-250 398,-228 278,-228"/>
<image xlink:href="../../images/primaryKeys.png" width="11px" height="12px" preserveAspectRatio="xMinYMin meet" x="283" y="-245"/>
<text text-anchor="start" x="298" y="-236.2" font-family="Helvetica,sans-Serif" font-size="11.00">variableid</text>
<polygon fill="none" stroke="black" points="278,-206 278,-228 398,-228 398,-206 278,-206"/>
<image xlink:href="../../images/primaryKeys.png" width="11px" height="12px" preserveAspectRatio="xMinYMin meet" x="283" y="-223"/>
<text text-anchor="start" x="298" y="-214.2" font-family="Helvetica,sans-Serif" font-size="11.00">isostandardid</text>
<polygon fill="none" stroke="black" points="278,-188 278,-206 398,-206 398,-188 278,-188"/>
<text text-anchor="start" x="281" y="-194.2" font-family="Helvetica,sans-Serif" font-size="11.00">...</text>
<polygon fill="#ffffff" stroke="transparent" points="278,-170 278,-188 323,-188 323,-170 278,-170"/>
<polygon fill="none" stroke="black" points="278,-170 278,-188 323,-188 323,-170 278,-170"/>
<text text-anchor="start" x="281" y="-176.2" font-family="Helvetica,sans-Serif" font-size="11.00">&lt; 3</text>
<polygon fill="#ffffff" stroke="transparent" points="323,-170 323,-188 373,-188 373,-170 323,-170"/>
<polygon fill="none" stroke="black" points="323,-170 323,-188 373,-188 373,-170 323,-170"/>
<text text-anchor="start" x="337" y="-176.2" font-family="Helvetica,sans-Serif" font-size="11.00">0 rows</text>
<polygon fill="#ffffff" stroke="transparent" points="373,-170 373,-188 398,-188 398,-170 373,-170"/>
<polygon fill="none" stroke="black" points="373,-170 373,-188 398,-188 398,-170 373,-170"/>
<text text-anchor="start" x="388" y="-176.2" font-family="Helvetica,sans-Serif" font-size="11.00"> &#160;</text>
</a>
</g>
</g>
<!-- datasets -->
<g id="node2" class="node">
<title>datasets</title>
<g id="a_node2"><a xlink:href="../../tables/datasets.html" xlink:title="datasets" target="_top">
<polygon fill="#ffffff" stroke="transparent" points="60.5,-291 60.5,-349 176.5,-349 176.5,-291 60.5,-291"/>
<polygon fill="#f5f5f5" stroke="transparent" points="60.5,-327 60.5,-349 176.5,-349 176.5,-327 60.5,-327"/>
<polygon fill="none" stroke="black" points="60.5,-327 60.5,-349 176.5,-349 176.5,-327 60.5,-327"/>
<text text-anchor="start" x="65.5" y="-336.2" font-family="Helvetica,sans-Serif" font-weight="bold" font-size="11.00">datasets</text>
<text text-anchor="start" x="141.5" y="-335.2" font-family="Helvetica,sans-Serif" font-size="11.00">[table]</text>
<polygon fill="none" stroke="black" points="60.5,-309 60.5,-327 176.5,-327 176.5,-309 60.5,-309"/>
<text text-anchor="start" x="63.5" y="-315.2" font-family="Helvetica,sans-Serif" font-size="11.00">...</text>
<polygon fill="#ffffff" stroke="transparent" points="60.5,-291 60.5,-309 82.5,-309 82.5,-291 60.5,-291"/>
<polygon fill="none" stroke="black" points="60.5,-291 60.5,-309 82.5,-309 82.5,-291 60.5,-291"/>
<text text-anchor="start" x="63.5" y="-297.2" font-family="Helvetica,sans-Serif" font-size="11.00">&lt; 3</text>
<polygon fill="#ffffff" stroke="transparent" points="82.5,-291 82.5,-309 148.5,-309 148.5,-291 82.5,-291"/>
<polygon fill="none" stroke="black" points="82.5,-291 82.5,-309 148.5,-309 148.5,-291 82.5,-291"/>
<text text-anchor="start" x="85.5" y="-297.2" font-family="Helvetica,sans-Serif" font-size="11.00">49,780 rows</text>
<polygon fill="#ffffff" stroke="transparent" points="148.5,-291 148.5,-309 176.5,-309 176.5,-291 148.5,-291"/>
<polygon fill="none" stroke="black" points="148.5,-291 148.5,-309 176.5,-309 176.5,-291 148.5,-291"/>
<text text-anchor="start" x="151.5" y="-297.2" font-family="Helvetica,sans-Serif" font-size="11.00">13 &gt;</text>
</a>
</g>
</g>
<!-- isostandards&#45;&gt;datasets -->
<g id="edge1" class="edge">
<title>isostandards:w&#45;&gt;datasets:e</title>
<path fill="none" stroke="black" d="M262.8,-265.1C236.21,-278.17 198.8,-318 177.5,-318"/>
<polygon fill="black" stroke="black" points="269.31,-263.22 278,-264.46 273.16,-262.11 277,-261 277,-261 277,-261 273.16,-262.11 276,-257.54 269.31,-263.22 269.31,-263.22"/>
<ellipse fill="none" stroke="black" cx="266.24" cy="-264.11" rx="3.2" ry="3.2"/>
</g>
<!-- isostandardtypes -->
<g id="node3" class="node">
<title>isostandardtypes</title>
<g id="a_node3"><a xlink:href="../../tables/isostandardtypes.html" xlink:title="isostandardtypes" target="_top">
<polygon fill="#ffffff" stroke="transparent" points="8,-37 8,-191 229,-191 229,-37 8,-37"/>
<polygon fill="#f5f5f5" stroke="transparent" points="10.5,-167 10.5,-189 227.5,-189 227.5,-167 10.5,-167"/>
<polygon fill="none" stroke="black" points="10.5,-167 10.5,-189 227.5,-189 227.5,-167 10.5,-167"/>
<text text-anchor="start" x="15.5" y="-176.2" font-family="Helvetica,sans-Serif" font-weight="bold" font-size="11.00">isostandardtypes</text>
<text text-anchor="start" x="192.5" y="-175.2" font-family="Helvetica,sans-Serif" font-size="11.00">[table]</text>
<polygon fill="none" stroke="black" points="10.5,-145 10.5,-167 153.5,-167 153.5,-145 10.5,-145"/>
<image xlink:href="../../images/primaryKeys.png" width="11px" height="12px" preserveAspectRatio="xMinYMin meet" x="15.5" y="-162"/>
<text text-anchor="start" x="30.5" y="-153.2" font-family="Helvetica,sans-Serif" font-size="11.00">isostandardtypeid</text>
<polygon fill="none" stroke="black" points="153.5,-145 153.5,-167 227.5,-167 227.5,-145 153.5,-145"/>
<text text-anchor="start" x="156.5" y="-153.2" font-family="Helvetica,sans-Serif" font-size="11.00">serial[10]</text>
<polygon fill="none" stroke="black" points="10.5,-123 10.5,-145 153.5,-145 153.5,-123 10.5,-123"/>
<text text-anchor="start" x="30.5" y="-131.2" font-family="Helvetica,sans-Serif" font-size="11.00">isostandardtype</text>
<polygon fill="none" stroke="black" points="153.5,-123 153.5,-145 227.5,-145 227.5,-123 153.5,-123"/>
<text text-anchor="start" x="156.5" y="-131.2" font-family="Helvetica,sans-Serif" font-size="11.00">varchar[128]</text>
<polygon fill="none" stroke="black" points="10.5,-101 10.5,-123 153.5,-123 153.5,-101 10.5,-101"/>
<text text-anchor="start" x="30.5" y="-109.2" font-family="Helvetica,sans-Serif" font-size="11.00">isostandardmaterial</text>
<polygon fill="none" stroke="black" points="153.5,-101 153.5,-123 227.5,-123 227.5,-101 153.5,-101"/>
<text text-anchor="start" x="156.5" y="-109.2" font-family="Helvetica,sans-Serif" font-size="11.00">varchar[128]</text>
<polygon fill="none" stroke="black" points="10.5,-79 10.5,-101 153.5,-101 153.5,-79 10.5,-79"/>
<text text-anchor="start" x="30.5" y="-87.2" font-family="Helvetica,sans-Serif" font-size="11.00">recdatecreated</text>
<polygon fill="none" stroke="black" points="153.5,-79 153.5,-101 227.5,-101 227.5,-79 153.5,-79"/>
<text text-anchor="start" x="156.5" y="-87.2" font-family="Helvetica,sans-Serif" font-size="11.00">timestamp[22]</text>
<polygon fill="none" stroke="black" points="10.5,-57 10.5,-79 153.5,-79 153.5,-57 10.5,-57"/>
<text text-anchor="start" x="30.5" y="-65.2" font-family="Helvetica,sans-Serif" font-size="11.00">recdatemodified</text>
<polygon fill="none" stroke="black" points="153.5,-57 153.5,-79 227.5,-79 227.5,-57 153.5,-57"/>
<text text-anchor="start" x="156.5" y="-65.2" font-family="Helvetica,sans-Serif" font-size="11.00">timestamp[22]</text>
<polygon fill="#ffffff" stroke="transparent" points="10.5,-39 10.5,-57 70.5,-57 70.5,-39 10.5,-39"/>
<polygon fill="none" stroke="black" points="10.5,-39 10.5,-57 70.5,-57 70.5,-39 10.5,-39"/>
<text text-anchor="start" x="13.5" y="-45.2" font-family="Helvetica,sans-Serif" font-size="11.00">&lt; 0</text>
<polygon fill="#ffffff" stroke="transparent" points="70.5,-39 70.5,-57 153.5,-57 153.5,-39 70.5,-39"/>
<polygon fill="none" stroke="black" points="70.5,-39 70.5,-57 153.5,-57 153.5,-39 70.5,-39"/>
<text text-anchor="start" x="111.5" y="-45.2" font-family="Helvetica,sans-Serif" font-size="11.00">20 rows</text>
<polygon fill="#ffffff" stroke="transparent" points="153.5,-39 153.5,-57 227.5,-57 227.5,-39 153.5,-39"/>
<polygon fill="none" stroke="black" points="153.5,-39 153.5,-57 227.5,-57 227.5,-39 153.5,-39"/>
<text text-anchor="start" x="208.5" y="-45.2" font-family="Helvetica,sans-Serif" font-size="11.00">1 &gt;</text>
<polygon fill="none" stroke="black" stroke-width="2" points="9,-38 9,-190 228,-190 228,-38 9,-38"/>
</a>
</g>
</g>
<!-- isostandards&#45;&gt;isostandardtypes -->
<g id="edge2" class="edge">
<title>isostandards:w&#45;&gt;isostandardtypes:e</title>
<path fill="none" stroke="black" d="M263.05,-211.8C248.04,-197.05 256.91,-156 228.5,-156"/>
<polygon fill="black" stroke="black" points="269.5,-214.2 275.74,-220.37 273.25,-215.6 277,-217 277,-217 277,-217 273.25,-215.6 278.26,-213.63 269.5,-214.2 269.5,-214.2"/>
<ellipse fill="none" stroke="black" cx="266.51" cy="-213.09" rx="3.2" ry="3.2"/>
</g>
<!-- variables -->
<g id="node4" class="node">
<title>variables</title>
<g id="a_node4"><a xlink:href="../../tables/variables.html" xlink:title="variables" target="_top">
<polygon fill="#ffffff" stroke="transparent" points="63.5,-212 63.5,-270 173.5,-270 173.5,-212 63.5,-212"/>
<polygon fill="#f5f5f5" stroke="transparent" points="63.5,-248 63.5,-270 173.5,-270 173.5,-248 63.5,-248"/>
<polygon fill="none" stroke="black" points="63.5,-248 63.5,-270 173.5,-270 173.5,-248 63.5,-248"/>
<text text-anchor="start" x="68.5" y="-257.2" font-family="Helvetica,sans-Serif" font-weight="bold" font-size="11.00">variables</text>
<text text-anchor="start" x="138.5" y="-256.2" font-family="Helvetica,sans-Serif" font-size="11.00">[table]</text>
<polygon fill="none" stroke="black" points="63.5,-230 63.5,-248 173.5,-248 173.5,-230 63.5,-230"/>
<text text-anchor="start" x="66.5" y="-236.2" font-family="Helvetica,sans-Serif" font-size="11.00">...</text>
<polygon fill="#ffffff" stroke="transparent" points="63.5,-212 63.5,-230 85.5,-230 85.5,-212 63.5,-212"/>
<polygon fill="none" stroke="black" points="63.5,-212 63.5,-230 85.5,-230 85.5,-212 63.5,-212"/>
<text text-anchor="start" x="66.5" y="-218.2" font-family="Helvetica,sans-Serif" font-size="11.00">&lt; 4</text>
<polygon fill="#ffffff" stroke="transparent" points="85.5,-212 85.5,-230 151.5,-230 151.5,-212 85.5,-212"/>
<polygon fill="none" stroke="black" points="85.5,-212 85.5,-230 151.5,-230 151.5,-212 85.5,-212"/>
<text text-anchor="start" x="88.5" y="-218.2" font-family="Helvetica,sans-Serif" font-size="11.00">57,421 rows</text>
<polygon fill="#ffffff" stroke="transparent" points="151.5,-212 151.5,-230 173.5,-230 173.5,-212 151.5,-212"/>
<polygon fill="none" stroke="black" points="151.5,-212 151.5,-230 173.5,-230 173.5,-212 151.5,-212"/>
<text text-anchor="start" x="154.5" y="-218.2" font-family="Helvetica,sans-Serif" font-size="11.00">6 &gt;</text>
</a>
</g>
</g>
<!-- isostandards&#45;&gt;variables -->
<g id="edge3" class="edge">
<title>isostandards:w&#45;&gt;variables:e</title>
<path fill="none" stroke="black" d="M262.28,-239C228.31,-239 214.72,-239 174.5,-239"/>
<polygon fill="black" stroke="black" points="269,-239 277,-242.6 273,-239 277,-239 277,-239 277,-239 273,-239 277,-235.4 269,-239 269,-239"/>
<ellipse fill="none" stroke="black" cx="265.8" cy="-239" rx="3.2" ry="3.2"/>
</g>
</g>
</svg>
