<?xml version="1.0" encoding="UTF-8" standalone="no"?>
<!DOCTYPE svg PUBLIC "-//W3C//DTD SVG 1.1//EN"
 "http://www.w3.org/Graphics/SVG/1.1/DTD/svg11.dtd">
<!-- Generated by graphviz version 2.43.0 (0)
 -->
<!-- Title: oneDegreeRelationshipsDiagram Pages: 1 -->
<svg width="428pt" height="223pt"
 viewBox="0.00 0.00 428.00 223.00" xmlns="http://www.w3.org/2000/svg" xmlns:xlink="http://www.w3.org/1999/xlink">
<g id="graph0" class="graph" transform="scale(1 1) rotate(0) translate(4 219)">
<title>oneDegreeRelationshipsDiagram</title>
<polygon fill="#ffffff" stroke="transparent" points="-4,4 -4,-219 424,-219 424,4 -4,4"/>
<text text-anchor="middle" x="71.5" y="-7.2" font-family="Helvetica,sans-Serif" font-size="11.00">Generated by SchemaSpy</text>
<!-- isovariablescaletypes -->
<g id="node1" class="node">
<title>isovariablescaletypes</title>
<g id="a_node1"><a xlink:href="../../tables/isovariablescaletypes.html" xlink:title="isovariablescaletypes" target="_top">
<polygon fill="#ffffff" stroke="transparent" points="255,-109 255,-211 412,-211 412,-109 255,-109"/>
<polygon fill="#f5f5f5" stroke="transparent" points="255.5,-189 255.5,-211 412.5,-211 412.5,-189 255.5,-189"/>
<polygon fill="none" stroke="black" points="255.5,-189 255.5,-211 412.5,-211 412.5,-189 255.5,-189"/>
<text text-anchor="start" x="260.5" y="-198.2" font-family="Helvetica,sans-Serif" font-weight="bold" font-size="11.00">isovariablescaletypes</text>
<text text-anchor="start" x="377.5" y="-197.2" font-family="Helvetica,sans-Serif" font-size="11.00">[table]</text>
<polygon fill="none" stroke="black" points="255.5,-167 255.5,-189 412.5,-189 412.5,-167 255.5,-167"/>
<image xlink:href="../../images/primaryKeys.png" width="11px" height="12px" preserveAspectRatio="xMinYMin meet" x="260.5" y="-184"/>
<text text-anchor="start" x="279.5" y="-175.2" font-family="Helvetica,sans-Serif" font-size="11.00">variableid</text>
<polygon fill="none" stroke="black" points="255.5,-145 255.5,-167 412.5,-167 412.5,-145 255.5,-145"/>
<image xlink:href="../../images/primaryKeys.png" width="11px" height="12px" preserveAspectRatio="xMinYMin meet" x="260.5" y="-162"/>
<text text-anchor="start" x="279.5" y="-153.2" font-family="Helvetica,sans-Serif" font-size="11.00">isoscaletypeid</text>
<polygon fill="none" stroke="black" points="255.5,-127 255.5,-145 412.5,-145 412.5,-127 255.5,-127"/>
<text text-anchor="start" x="258.5" y="-133.2" font-family="Helvetica,sans-Serif" font-size="11.00">...</text>
<polygon fill="#ffffff" stroke="transparent" points="255.5,-109 255.5,-127 315.5,-127 315.5,-109 255.5,-109"/>
<polygon fill="none" stroke="black" points="255.5,-109 255.5,-127 315.5,-127 315.5,-109 255.5,-109"/>
<text text-anchor="start" x="258.5" y="-115.2" font-family="Helvetica,sans-Serif" font-size="11.00">&lt; 2</text>
<polygon fill="#ffffff" stroke="transparent" points="315.5,-109 315.5,-127 379.5,-127 379.5,-109 315.5,-109"/>
<polygon fill="none" stroke="black" points="315.5,-109 315.5,-127 379.5,-127 379.5,-109 315.5,-109"/>
<text text-anchor="start" x="337.5" y="-115.2" font-family="Helvetica,sans-Serif" font-size="11.00">14 rows</text>
<polygon fill="#ffffff" stroke="transparent" points="379.5,-109 379.5,-127 412.5,-127 412.5,-109 379.5,-109"/>
<polygon fill="none" stroke="black" points="379.5,-109 379.5,-127 412.5,-127 412.5,-109 379.5,-109"/>
<text text-anchor="start" x="402.5" y="-115.2" font-family="Helvetica,sans-Serif" font-size="11.00"> &#160;</text>
</a>
</g>
</g>
<!-- isoscaletypes -->
<g id="node2" class="node">
<title>isoscaletypes</title>
<g id="a_node2"><a xlink:href="../../tables/isoscaletypes.html" xlink:title="isoscaletypes" target="_top">
<polygon fill="#ffffff" stroke="transparent" points="8,-37 8,-191 206,-191 206,-37 8,-37"/>
<polygon fill="#f5f5f5" stroke="transparent" points="10,-167 10,-189 204,-189 204,-167 10,-167"/>
<polygon fill="none" stroke="black" points="10,-167 10,-189 204,-189 204,-167 10,-167"/>
<text text-anchor="start" x="15" y="-176.2" font-family="Helvetica,sans-Serif" font-weight="bold" font-size="11.00">isoscaletypes</text>
<text text-anchor="start" x="169" y="-175.2" font-family="Helvetica,sans-Serif" font-size="11.00">[table]</text>
<polygon fill="none" stroke="black" points="10,-145 10,-167 130,-167 130,-145 10,-145"/>
<image xlink:href="../../images/primaryKeys.png" width="11px" height="12px" preserveAspectRatio="xMinYMin meet" x="15" y="-162"/>
<text text-anchor="start" x="30" y="-153.2" font-family="Helvetica,sans-Serif" font-size="11.00">isoscaletypeid</text>
<polygon fill="none" stroke="black" points="130,-145 130,-167 204,-167 204,-145 130,-145"/>
<text text-anchor="start" x="133" y="-153.2" font-family="Helvetica,sans-Serif" font-size="11.00">serial[10]</text>
<polygon fill="none" stroke="black" points="10,-123 10,-145 130,-145 130,-123 10,-123"/>
<text text-anchor="start" x="30" y="-131.2" font-family="Helvetica,sans-Serif" font-size="11.00">isoscaleacronym</text>
<polygon fill="none" stroke="black" points="130,-123 130,-145 204,-145 204,-123 130,-123"/>
<text text-anchor="start" x="133" y="-131.2" font-family="Helvetica,sans-Serif" font-size="11.00">varchar[24]</text>
<polygon fill="none" stroke="black" points="10,-101 10,-123 130,-123 130,-101 10,-101"/>
<text text-anchor="start" x="30" y="-109.2" font-family="Helvetica,sans-Serif" font-size="11.00">isoscalename</text>
<polygon fill="none" stroke="black" points="130,-101 130,-123 204,-123 204,-101 130,-101"/>
<text text-anchor="start" x="133" y="-109.2" font-family="Helvetica,sans-Serif" font-size="11.00">varchar[80]</text>
<polygon fill="none" stroke="black" points="10,-79 10,-101 130,-101 130,-79 10,-79"/>
<text text-anchor="start" x="30" y="-87.2" font-family="Helvetica,sans-Serif" font-size="11.00">recdatecreated</text>
<polygon fill="none" stroke="black" points="130,-79 130,-101 204,-101 204,-79 130,-79"/>
<text text-anchor="start" x="133" y="-87.2" font-family="Helvetica,sans-Serif" font-size="11.00">timestamp[22]</text>
<polygon fill="none" stroke="black" points="10,-57 10,-79 130,-79 130,-57 10,-57"/>
<text text-anchor="start" x="30" y="-65.2" font-family="Helvetica,sans-Serif" font-size="11.00">recdatemodified</text>
<polygon fill="none" stroke="black" points="130,-57 130,-79 204,-79 204,-57 130,-57"/>
<text text-anchor="start" x="133" y="-65.2" font-family="Helvetica,sans-Serif" font-size="11.00">timestamp[22]</text>
<polygon fill="#ffffff" stroke="transparent" points="10,-39 10,-57 61,-57 61,-39 10,-39"/>
<polygon fill="none" stroke="black" points="10,-39 10,-57 61,-57 61,-39 10,-39"/>
<text text-anchor="start" x="13" y="-45.2" font-family="Helvetica,sans-Serif" font-size="11.00">&lt; 0</text>
<polygon fill="#ffffff" stroke="transparent" points="61,-39 61,-57 130,-57 130,-39 61,-39"/>
<polygon fill="none" stroke="black" points="61,-39 61,-57 130,-57 130,-39 61,-39"/>
<text text-anchor="start" x="94" y="-45.2" font-family="Helvetica,sans-Serif" font-size="11.00">8 rows</text>
<polygon fill="#ffffff" stroke="transparent" points="130,-39 130,-57 204,-57 204,-39 130,-39"/>
<polygon fill="none" stroke="black" points="130,-39 130,-57 204,-57 204,-39 130,-39"/>
<text text-anchor="start" x="185" y="-45.2" font-family="Helvetica,sans-Serif" font-size="11.00">1 &gt;</text>
<polygon fill="none" stroke="black" stroke-width="2" points="9,-38 9,-190 205,-190 205,-38 9,-38"/>
</a>
</g>
</g>
<!-- isovariablescaletypes&#45;&gt;isoscaletypes -->
<g id="edge1" class="edge">
<title>isovariablescaletypes:w&#45;&gt;isoscaletypes:e</title>
<path fill="none" stroke="black" d="M239.84,-156C228.41,-156 221.16,-156 205,-156"/>
<polygon fill="black" stroke="black" points="246.5,-156 254.5,-159.6 250.5,-156 254.5,-156 254.5,-156 254.5,-156 250.5,-156 254.5,-152.4 246.5,-156 246.5,-156"/>
<ellipse fill="none" stroke="black" cx="243.3" cy="-156" rx="3.2" ry="3.2"/>
</g>
</g>
</svg>
