<?xml version="1.0" encoding="UTF-8" standalone="no"?>
<!DOCTYPE svg PUBLIC "-//W3C//DTD SVG 1.1//EN"
 "http://www.w3.org/Graphics/SVG/1.1/DTD/svg11.dtd">
<!-- Generated by graphviz version 2.43.0 (0)
 -->
<!-- Title: oneDegreeRelationshipsDiagram Pages: 1 -->
<svg width="435pt" height="340pt"
 viewBox="0.00 0.00 435.00 340.00" xmlns="http://www.w3.org/2000/svg" xmlns:xlink="http://www.w3.org/1999/xlink">
<g id="graph0" class="graph" transform="scale(1 1) rotate(0) translate(4 336)">
<title>oneDegreeRelationshipsDiagram</title>
<polygon fill="#ffffff" stroke="transparent" points="-4,4 -4,-336 431,-336 431,4 -4,4"/>
<text text-anchor="middle" x="71.5" y="-7.2" font-family="Helvetica,sans-Serif" font-size="11.00">Generated by SchemaSpy</text>
<!-- isomatanalsubstrate -->
<g id="node1" class="node">
<title>isomatanalsubstrate</title>
<g id="a_node1"><a xlink:href="../../tables/isomatanalsubstrate.html" xlink:title="isomatanalsubstrate" target="_top">
<polygon fill="#ffffff" stroke="transparent" points="268,-226 268,-328 419,-328 419,-226 268,-226"/>
<polygon fill="#f5f5f5" stroke="transparent" points="268.5,-306 268.5,-328 419.5,-328 419.5,-306 268.5,-306"/>
<polygon fill="none" stroke="black" points="268.5,-306 268.5,-328 419.5,-328 419.5,-306 268.5,-306"/>
<text text-anchor="start" x="273.5" y="-315.2" font-family="Helvetica,sans-Serif" font-weight="bold" font-size="11.00">isomatanalsubstrate</text>
<text text-anchor="start" x="384.5" y="-314.2" font-family="Helvetica,sans-Serif" font-size="11.00">[table]</text>
<polygon fill="none" stroke="black" points="268.5,-284 268.5,-306 419.5,-306 419.5,-284 268.5,-284"/>
<image xlink:href="../../images/primaryKeys.png" width="11px" height="12px" preserveAspectRatio="xMinYMin meet" x="273.5" y="-301"/>
<text text-anchor="start" x="291.5" y="-292.2" font-family="Helvetica,sans-Serif" font-size="11.00">isomatanaltypeid</text>
<polygon fill="none" stroke="black" points="268.5,-262 268.5,-284 419.5,-284 419.5,-262 268.5,-262"/>
<image xlink:href="../../images/primaryKeys.png" width="11px" height="12px" preserveAspectRatio="xMinYMin meet" x="273.5" y="-279"/>
<text text-anchor="start" x="291.5" y="-270.2" font-family="Helvetica,sans-Serif" font-size="11.00">isosubstratetypeid</text>
<polygon fill="none" stroke="black" points="268.5,-244 268.5,-262 419.5,-262 419.5,-244 268.5,-244"/>
<text text-anchor="start" x="271.5" y="-250.2" font-family="Helvetica,sans-Serif" font-size="11.00">...</text>
<polygon fill="#ffffff" stroke="transparent" points="268.5,-226 268.5,-244 325.5,-244 325.5,-226 268.5,-226"/>
<polygon fill="none" stroke="black" points="268.5,-226 268.5,-244 325.5,-244 325.5,-226 268.5,-226"/>
<text text-anchor="start" x="271.5" y="-232.2" font-family="Helvetica,sans-Serif" font-size="11.00">&lt; 2</text>
<polygon fill="#ffffff" stroke="transparent" points="325.5,-226 325.5,-244 388.5,-244 388.5,-226 325.5,-226"/>
<polygon fill="none" stroke="black" points="325.5,-226 325.5,-244 388.5,-244 388.5,-226 325.5,-226"/>
<text text-anchor="start" x="346.5" y="-232.2" font-family="Helvetica,sans-Serif" font-size="11.00">19 rows</text>
<polygon fill="#ffffff" stroke="transparent" points="388.5,-226 388.5,-244 419.5,-244 419.5,-226 388.5,-226"/>
<polygon fill="none" stroke="black" points="388.5,-226 388.5,-244 419.5,-244 419.5,-226 388.5,-226"/>
<text text-anchor="start" x="409.5" y="-232.2" font-family="Helvetica,sans-Serif" font-size="11.00"> &#160;</text>
</a>
</g>
</g>
<!-- isosubstratetypes -->
<g id="node2" class="node">
<title>isosubstratetypes</title>
<g id="a_node2"><a xlink:href="../../tables/isosubstratetypes.html" xlink:title="isosubstratetypes" target="_top">
<polygon fill="#ffffff" stroke="transparent" points="8,-92 8,-224 219,-224 219,-92 8,-92"/>
<polygon fill="#f5f5f5" stroke="transparent" points="10.5,-200 10.5,-222 217.5,-222 217.5,-200 10.5,-200"/>
<polygon fill="none" stroke="black" points="10.5,-200 10.5,-222 217.5,-222 217.5,-200 10.5,-200"/>
<text text-anchor="start" x="15.5" y="-209.2" font-family="Helvetica,sans-Serif" font-weight="bold" font-size="11.00">isosubstratetypes</text>
<text text-anchor="start" x="182.5" y="-208.2" font-family="Helvetica,sans-Serif" font-size="11.00">[table]</text>
<polygon fill="none" stroke="black" points="10.5,-178 10.5,-200 143.5,-200 143.5,-178 10.5,-178"/>
<image xlink:href="../../images/primaryKeys.png" width="11px" height="12px" preserveAspectRatio="xMinYMin meet" x="15.5" y="-195"/>
<text text-anchor="start" x="30.5" y="-186.2" font-family="Helvetica,sans-Serif" font-size="11.00">isosubstratetypeid</text>
<polygon fill="none" stroke="black" points="143.5,-178 143.5,-200 217.5,-200 217.5,-178 143.5,-178"/>
<text text-anchor="start" x="146.5" y="-186.2" font-family="Helvetica,sans-Serif" font-size="11.00">serial[10]</text>
<polygon fill="none" stroke="black" points="10.5,-156 10.5,-178 143.5,-178 143.5,-156 10.5,-156"/>
<text text-anchor="start" x="30.5" y="-164.2" font-family="Helvetica,sans-Serif" font-size="11.00">isosubstratetype</text>
<polygon fill="none" stroke="black" points="143.5,-156 143.5,-178 217.5,-178 217.5,-156 143.5,-156"/>
<text text-anchor="start" x="146.5" y="-164.2" font-family="Helvetica,sans-Serif" font-size="11.00">varchar[50]</text>
<polygon fill="none" stroke="black" points="10.5,-134 10.5,-156 143.5,-156 143.5,-134 10.5,-134"/>
<text text-anchor="start" x="30.5" y="-142.2" font-family="Helvetica,sans-Serif" font-size="11.00">recdatecreated</text>
<polygon fill="none" stroke="black" points="143.5,-134 143.5,-156 217.5,-156 217.5,-134 143.5,-134"/>
<text text-anchor="start" x="146.5" y="-142.2" font-family="Helvetica,sans-Serif" font-size="11.00">timestamp[22]</text>
<polygon fill="none" stroke="black" points="10.5,-112 10.5,-134 143.5,-134 143.5,-112 10.5,-112"/>
<text text-anchor="start" x="30.5" y="-120.2" font-family="Helvetica,sans-Serif" font-size="11.00">recdatemodified</text>
<polygon fill="none" stroke="black" points="143.5,-112 143.5,-134 217.5,-134 217.5,-112 143.5,-112"/>
<text text-anchor="start" x="146.5" y="-120.2" font-family="Helvetica,sans-Serif" font-size="11.00">timestamp[22]</text>
<polygon fill="#ffffff" stroke="transparent" points="10.5,-94 10.5,-112 65.5,-112 65.5,-94 10.5,-94"/>
<polygon fill="none" stroke="black" points="10.5,-94 10.5,-112 65.5,-112 65.5,-94 10.5,-94"/>
<text text-anchor="start" x="13.5" y="-100.2" font-family="Helvetica,sans-Serif" font-size="11.00">&lt; 0</text>
<polygon fill="#ffffff" stroke="transparent" points="65.5,-94 65.5,-112 143.5,-112 143.5,-94 65.5,-94"/>
<polygon fill="none" stroke="black" points="65.5,-94 65.5,-112 143.5,-112 143.5,-94 65.5,-94"/>
<text text-anchor="start" x="101.5" y="-100.2" font-family="Helvetica,sans-Serif" font-size="11.00">11 rows</text>
<polygon fill="#ffffff" stroke="transparent" points="143.5,-94 143.5,-112 217.5,-112 217.5,-94 143.5,-94"/>
<polygon fill="none" stroke="black" points="143.5,-94 143.5,-112 217.5,-112 217.5,-94 143.5,-94"/>
<text text-anchor="start" x="198.5" y="-100.2" font-family="Helvetica,sans-Serif" font-size="11.00">2 &gt;</text>
<polygon fill="none" stroke="black" stroke-width="2" points="9,-93 9,-223 218,-223 218,-93 9,-93"/>
</a>
</g>
</g>
<!-- isomatanalsubstrate&#45;&gt;isosubstratetypes -->
<g id="edge1" class="edge">
<title>isomatanalsubstrate:w&#45;&gt;isosubstratetypes:e</title>
<path fill="none" stroke="black" d="M253.6,-268.48C233.21,-251.04 255.64,-189 218.5,-189"/>
<polygon fill="black" stroke="black" points="259.89,-270.53 266.39,-276.42 263.7,-271.76 267.5,-273 267.5,-273 267.5,-273 263.7,-271.76 268.61,-269.58 259.89,-270.53 259.89,-270.53"/>
<ellipse fill="none" stroke="black" cx="256.85" cy="-269.54" rx="3.2" ry="3.2"/>
</g>
<!-- isometadata -->
<g id="node3" class="node">
<title>isometadata</title>
<g id="a_node3"><a xlink:href="../../tables/isometadata.html" xlink:title="isometadata" target="_top">
<polygon fill="#ffffff" stroke="transparent" points="277,-37 277,-205 410,-205 410,-37 277,-37"/>
<polygon fill="#f5f5f5" stroke="transparent" points="277.5,-183 277.5,-205 410.5,-205 410.5,-183 277.5,-183"/>
<polygon fill="none" stroke="black" points="277.5,-183 277.5,-205 410.5,-205 410.5,-183 277.5,-183"/>
<text text-anchor="start" x="282.5" y="-192.2" font-family="Helvetica,sans-Serif" font-weight="bold" font-size="11.00">isometadata</text>
<text text-anchor="start" x="375.5" y="-191.2" font-family="Helvetica,sans-Serif" font-size="11.00">[table]</text>
<polygon fill="none" stroke="black" points="277.5,-161 277.5,-183 410.5,-183 410.5,-161 277.5,-161"/>
<image xlink:href="../../images/primaryKeys.png" width="11px" height="12px" preserveAspectRatio="xMinYMin meet" x="282.5" y="-178"/>
<text text-anchor="start" x="297.5" y="-169.2" font-family="Helvetica,sans-Serif" font-size="11.00">isometadataid</text>
<polygon fill="none" stroke="black" points="277.5,-139 277.5,-161 410.5,-161 410.5,-139 277.5,-139"/>
<image xlink:href="../../images/foreignKeys.png" width="11px" height="12px" preserveAspectRatio="xMinYMin meet" x="282.5" y="-156"/>
<text text-anchor="start" x="297.5" y="-147.2" font-family="Helvetica,sans-Serif" font-size="11.00">dataid</text>
<polygon fill="none" stroke="black" points="277.5,-117 277.5,-139 410.5,-139 410.5,-117 277.5,-117"/>
<image xlink:href="../../images/foreignKeys.png" width="11px" height="12px" preserveAspectRatio="xMinYMin meet" x="282.5" y="-134"/>
<text text-anchor="start" x="297.5" y="-125.2" font-family="Helvetica,sans-Serif" font-size="11.00">isomatanaltypeid</text>
<polygon fill="none" stroke="black" points="277.5,-95 277.5,-117 410.5,-117 410.5,-95 277.5,-95"/>
<image xlink:href="../../images/foreignKeys.png" width="11px" height="12px" preserveAspectRatio="xMinYMin meet" x="282.5" y="-112"/>
<text text-anchor="start" x="297.5" y="-103.2" font-family="Helvetica,sans-Serif" font-size="11.00">isosubstratetypeid</text>
<polygon fill="none" stroke="black" points="277.5,-73 277.5,-95 410.5,-95 410.5,-73 277.5,-73"/>
<image xlink:href="../../images/foreignKeys.png" width="11px" height="12px" preserveAspectRatio="xMinYMin meet" x="282.5" y="-90"/>
<text text-anchor="start" x="297.5" y="-81.2" font-family="Helvetica,sans-Serif" font-size="11.00">analystid</text>
<polygon fill="none" stroke="black" points="277.5,-55 277.5,-73 410.5,-73 410.5,-55 277.5,-55"/>
<text text-anchor="start" x="280.5" y="-61.2" font-family="Helvetica,sans-Serif" font-size="11.00">...</text>
<polygon fill="#ffffff" stroke="transparent" points="277.5,-37 277.5,-55 318.5,-55 318.5,-37 277.5,-37"/>
<polygon fill="none" stroke="black" points="277.5,-37 277.5,-55 318.5,-55 318.5,-37 277.5,-37"/>
<text text-anchor="start" x="280.5" y="-43.2" font-family="Helvetica,sans-Serif" font-size="11.00">&lt; 4</text>
<polygon fill="#ffffff" stroke="transparent" points="318.5,-37 318.5,-55 387.5,-55 387.5,-37 318.5,-37"/>
<polygon fill="none" stroke="black" points="318.5,-37 318.5,-55 387.5,-55 387.5,-37 318.5,-37"/>
<text text-anchor="start" x="330.5" y="-43.2" font-family="Helvetica,sans-Serif" font-size="11.00">4,893 rows</text>
<polygon fill="#ffffff" stroke="transparent" points="387.5,-37 387.5,-55 410.5,-55 410.5,-37 387.5,-37"/>
<polygon fill="none" stroke="black" points="387.5,-37 387.5,-55 410.5,-55 410.5,-37 387.5,-37"/>
<text text-anchor="start" x="400.5" y="-43.2" font-family="Helvetica,sans-Serif" font-size="11.00"> &#160;</text>
</a>
</g>
</g>
<!-- isometadata&#45;&gt;isosubstratetypes -->
<g id="edge2" class="edge">
<title>isometadata:w&#45;&gt;isosubstratetypes:e</title>
<path fill="none" stroke="black" d="M262.61,-109.78C238.47,-126.02 257.7,-189 218.5,-189"/>
<polygon fill="black" stroke="black" points="268.78,-108.1 277.45,-109.47 272.64,-107.05 276.5,-106 276.5,-106 276.5,-106 272.64,-107.05 275.55,-102.53 268.78,-108.1 268.78,-108.1"/>
<ellipse fill="none" stroke="black" cx="265.69" cy="-108.94" rx="3.2" ry="3.2"/>
</g>
</g>
</svg>
