<?xml version="1.0" encoding="UTF-8" standalone="no"?>
<!DOCTYPE svg PUBLIC "-//W3C//DTD SVG 1.1//EN"
 "http://www.w3.org/Graphics/SVG/1.1/DTD/svg11.dtd">
<!-- Generated by graphviz version 2.43.0 (0)
 -->
<!-- Title: twoDegreesRelationshipsDiagram Pages: 1 -->
<svg width="612pt" height="576pt"
 viewBox="0.00 0.00 612.00 576.00" xmlns="http://www.w3.org/2000/svg" xmlns:xlink="http://www.w3.org/1999/xlink">
<g id="graph0" class="graph" transform="scale(1 1) rotate(0) translate(4 572)">
<title>twoDegreesRelationshipsDiagram</title>
<polygon fill="#ffffff" stroke="transparent" points="-4,4 -4,-572 608,-572 608,4 -4,4"/>
<text text-anchor="middle" x="71.5" y="-7.2" font-family="Helvetica,sans-Serif" font-size="11.00">Generated by SchemaSpy</text>
<!-- data -->
<g id="node1" class="node">
<title>data</title>
<g id="a_node1"><a xlink:href="../../tables/data.html" xlink:title="data" target="_top">
<polygon fill="#ffffff" stroke="transparent" points="417,-506 417,-564 548,-564 548,-506 417,-506"/>
<polygon fill="#f5f5f5" stroke="transparent" points="417.5,-542 417.5,-564 548.5,-564 548.5,-542 417.5,-542"/>
<polygon fill="none" stroke="black" points="417.5,-542 417.5,-564 548.5,-564 548.5,-542 417.5,-542"/>
<text text-anchor="start" x="422.5" y="-551.2" font-family="Helvetica,sans-Serif" font-weight="bold" font-size="11.00">data</text>
<text text-anchor="start" x="513.5" y="-550.2" font-family="Helvetica,sans-Serif" font-size="11.00">[table]</text>
<polygon fill="none" stroke="black" points="417.5,-524 417.5,-542 548.5,-542 548.5,-524 417.5,-524"/>
<text text-anchor="start" x="420.5" y="-530.2" font-family="Helvetica,sans-Serif" font-size="11.00">...</text>
<polygon fill="#ffffff" stroke="transparent" points="417.5,-506 417.5,-524 439.5,-524 439.5,-506 417.5,-506"/>
<polygon fill="none" stroke="black" points="417.5,-506 417.5,-524 439.5,-524 439.5,-506 417.5,-506"/>
<text text-anchor="start" x="420.5" y="-512.2" font-family="Helvetica,sans-Serif" font-size="11.00">&lt; 2</text>
<polygon fill="#ffffff" stroke="transparent" points="439.5,-506 439.5,-524 526.5,-524 526.5,-506 439.5,-506"/>
<polygon fill="none" stroke="black" points="439.5,-506 439.5,-524 526.5,-524 526.5,-506 439.5,-506"/>
<text text-anchor="start" x="442.5" y="-512.2" font-family="Helvetica,sans-Serif" font-size="11.00">10,039,985 rows</text>
<polygon fill="#ffffff" stroke="transparent" points="526.5,-506 526.5,-524 548.5,-524 548.5,-506 526.5,-506"/>
<polygon fill="none" stroke="black" points="526.5,-506 526.5,-524 548.5,-524 548.5,-506 526.5,-506"/>
<text text-anchor="start" x="529.5" y="-512.2" font-family="Helvetica,sans-Serif" font-size="11.00">7 &gt;</text>
</a>
</g>
</g>
<!-- variables -->
<g id="node2" class="node">
<title>variables</title>
<g id="a_node2"><a xlink:href="../../tables/variables.html" xlink:title="variables" target="_top">
<polygon fill="#ffffff" stroke="transparent" points="190,-203 190,-371 320,-371 320,-203 190,-203"/>
<polygon fill="#f5f5f5" stroke="transparent" points="190,-349 190,-371 320,-371 320,-349 190,-349"/>
<polygon fill="none" stroke="black" points="190,-349 190,-371 320,-371 320,-349 190,-349"/>
<text text-anchor="start" x="195" y="-358.2" font-family="Helvetica,sans-Serif" font-weight="bold" font-size="11.00">variables</text>
<text text-anchor="start" x="285" y="-357.2" font-family="Helvetica,sans-Serif" font-size="11.00">[table]</text>
<polygon fill="none" stroke="black" points="190,-327 190,-349 320,-349 320,-327 190,-327"/>
<image xlink:href="../../images/primaryKeys.png" width="11px" height="12px" preserveAspectRatio="xMinYMin meet" x="195" y="-344"/>
<text text-anchor="start" x="210" y="-335.2" font-family="Helvetica,sans-Serif" font-size="11.00">variableid</text>
<polygon fill="#ffffff" stroke="transparent" points="190,-305 190,-327 320,-327 320,-305 190,-305"/>
<polygon fill="none" stroke="black" points="190,-305 190,-327 320,-327 320,-305 190,-305"/>
<image xlink:href="../../images/foreignKeys.png" width="11px" height="12px" preserveAspectRatio="xMinYMin meet" x="195" y="-322"/>
<text text-anchor="start" x="210" y="-313.2" font-family="Helvetica,sans-Serif" font-size="11.00">taxonid</text>
<polygon fill="#ffffff" stroke="transparent" points="190,-283 190,-305 320,-305 320,-283 190,-283"/>
<polygon fill="none" stroke="black" points="190,-283 190,-305 320,-305 320,-283 190,-283"/>
<image xlink:href="../../images/foreignKeys.png" width="11px" height="12px" preserveAspectRatio="xMinYMin meet" x="195" y="-300"/>
<text text-anchor="start" x="210" y="-291.2" font-family="Helvetica,sans-Serif" font-size="11.00">variableelementid</text>
<polygon fill="#ffffff" stroke="transparent" points="190,-261 190,-283 320,-283 320,-261 190,-261"/>
<polygon fill="none" stroke="black" points="190,-261 190,-283 320,-283 320,-261 190,-261"/>
<image xlink:href="../../images/foreignKeys.png" width="11px" height="12px" preserveAspectRatio="xMinYMin meet" x="195" y="-278"/>
<text text-anchor="start" x="210" y="-269.2" font-family="Helvetica,sans-Serif" font-size="11.00">variableunitsid</text>
<polygon fill="none" stroke="black" points="190,-239 190,-261 320,-261 320,-239 190,-239"/>
<image xlink:href="../../images/foreignKeys.png" width="11px" height="12px" preserveAspectRatio="xMinYMin meet" x="195" y="-256"/>
<text text-anchor="start" x="210" y="-247.2" font-family="Helvetica,sans-Serif" font-size="11.00">variablecontextid</text>
<polygon fill="none" stroke="black" points="190,-221 190,-239 320,-239 320,-221 190,-221"/>
<text text-anchor="start" x="193" y="-227.2" font-family="Helvetica,sans-Serif" font-size="11.00">...</text>
<polygon fill="#ffffff" stroke="transparent" points="190,-203 190,-221 222,-221 222,-203 190,-203"/>
<polygon fill="none" stroke="black" points="190,-203 190,-221 222,-221 222,-203 190,-203"/>
<text text-anchor="start" x="193" y="-209.2" font-family="Helvetica,sans-Serif" font-size="11.00">&lt; 4</text>
<polygon fill="#ffffff" stroke="transparent" points="222,-203 222,-221 293,-221 293,-203 222,-203"/>
<polygon fill="none" stroke="black" points="222,-203 222,-221 293,-221 293,-203 222,-203"/>
<text text-anchor="start" x="230" y="-209.2" font-family="Helvetica,sans-Serif" font-size="11.00">55,155 rows</text>
<polygon fill="#ffffff" stroke="transparent" points="293,-203 293,-221 320,-221 320,-203 293,-203"/>
<polygon fill="none" stroke="black" points="293,-203 293,-221 320,-221 320,-203 293,-203"/>
<text text-anchor="start" x="301" y="-209.2" font-family="Helvetica,sans-Serif" font-size="11.00">6 &gt;</text>
</a>
</g>
</g>
<!-- data&#45;&gt;variables -->
<g id="edge1" class="edge">
<title>data:w&#45;&gt;variables:e</title>
<path fill="none" stroke="black" d="M402.1,-531.71C383.36,-527.92 374.97,-515.76 361,-496 319.18,-436.85 393.44,-338 321,-338"/>
<polygon fill="black" stroke="black" points="408.53,-532.29 416.18,-536.59 412.52,-532.64 416.5,-533 416.5,-533 416.5,-533 412.52,-532.64 416.82,-529.41 408.53,-532.29 408.53,-532.29"/>
<ellipse fill="none" stroke="black" cx="405.34" cy="-532" rx="3.2" ry="3.2"/>
</g>
<!-- taxa -->
<g id="node9" class="node">
<title>taxa</title>
<g id="a_node9"><a xlink:href="../../tables/taxa.html" xlink:title="taxa" target="_top">
<polygon fill="#ffffff" stroke="transparent" points="16.5,-374 16.5,-432 132.5,-432 132.5,-374 16.5,-374"/>
<polygon fill="#f5f5f5" stroke="transparent" points="16.5,-410 16.5,-432 132.5,-432 132.5,-410 16.5,-410"/>
<polygon fill="none" stroke="black" points="16.5,-410 16.5,-432 132.5,-432 132.5,-410 16.5,-410"/>
<text text-anchor="start" x="21.5" y="-419.2" font-family="Helvetica,sans-Serif" font-weight="bold" font-size="11.00">taxa</text>
<text text-anchor="start" x="97.5" y="-418.2" font-family="Helvetica,sans-Serif" font-size="11.00">[table]</text>
<polygon fill="none" stroke="black" points="16.5,-392 16.5,-410 132.5,-410 132.5,-392 16.5,-392"/>
<text text-anchor="start" x="19.5" y="-398.2" font-family="Helvetica,sans-Serif" font-size="11.00">...</text>
<polygon fill="#ffffff" stroke="transparent" points="16.5,-374 16.5,-392 38.5,-392 38.5,-374 16.5,-374"/>
<polygon fill="none" stroke="black" points="16.5,-374 16.5,-392 38.5,-392 38.5,-374 16.5,-374"/>
<text text-anchor="start" x="19.5" y="-380.2" font-family="Helvetica,sans-Serif" font-size="11.00">&lt; 4</text>
<polygon fill="#ffffff" stroke="transparent" points="38.5,-374 38.5,-392 104.5,-392 104.5,-374 38.5,-374"/>
<polygon fill="none" stroke="black" points="38.5,-374 38.5,-392 104.5,-392 104.5,-374 38.5,-374"/>
<text text-anchor="start" x="41.5" y="-380.2" font-family="Helvetica,sans-Serif" font-size="11.00">46,322 rows</text>
<polygon fill="#ffffff" stroke="transparent" points="104.5,-374 104.5,-392 132.5,-392 132.5,-374 104.5,-374"/>
<polygon fill="none" stroke="black" points="104.5,-374 104.5,-392 132.5,-392 132.5,-374 104.5,-374"/>
<text text-anchor="start" x="107.5" y="-380.2" font-family="Helvetica,sans-Serif" font-size="11.00">17 &gt;</text>
</a>
</g>
</g>
<!-- variables&#45;&gt;taxa -->
<g id="edge8" class="edge">
<title>variables:w&#45;&gt;taxa:e</title>
<path fill="none" stroke="black" d="M174.87,-320.1C151.7,-337.08 172.63,-401 133.5,-401"/>
<polygon fill="black" stroke="black" points="181.32,-318.23 190,-319.46 185.16,-317.11 189,-316 189,-316 189,-316 185.16,-317.11 188,-312.54 181.32,-318.23 181.32,-318.23"/>
<ellipse fill="none" stroke="black" cx="178.24" cy="-319.12" rx="3.2" ry="3.2"/>
</g>
<!-- variablecontexts -->
<g id="node10" class="node">
<title>variablecontexts</title>
<g id="a_node10"><a xlink:href="../../tables/variablecontexts.html" xlink:title="variablecontexts" target="_top">
<polygon fill="#ffffff" stroke="transparent" points="9,-137 9,-195 140,-195 140,-137 9,-137"/>
<polygon fill="#f5f5f5" stroke="transparent" points="9.5,-173 9.5,-195 140.5,-195 140.5,-173 9.5,-173"/>
<polygon fill="none" stroke="black" points="9.5,-173 9.5,-195 140.5,-195 140.5,-173 9.5,-173"/>
<text text-anchor="start" x="14.5" y="-182.2" font-family="Helvetica,sans-Serif" font-weight="bold" font-size="11.00">variablecontexts</text>
<text text-anchor="start" x="105.5" y="-181.2" font-family="Helvetica,sans-Serif" font-size="11.00">[table]</text>
<polygon fill="none" stroke="black" points="9.5,-155 9.5,-173 140.5,-173 140.5,-155 9.5,-155"/>
<text text-anchor="start" x="12.5" y="-161.2" font-family="Helvetica,sans-Serif" font-size="11.00">...</text>
<polygon fill="#ffffff" stroke="transparent" points="9.5,-137 9.5,-155 47.5,-155 47.5,-137 9.5,-137"/>
<polygon fill="none" stroke="black" points="9.5,-137 9.5,-155 47.5,-155 47.5,-137 9.5,-137"/>
<text text-anchor="start" x="12.5" y="-143.2" font-family="Helvetica,sans-Serif" font-size="11.00"> &#160;</text>
<polygon fill="#ffffff" stroke="transparent" points="47.5,-137 47.5,-155 105.5,-155 105.5,-137 47.5,-137"/>
<polygon fill="none" stroke="black" points="47.5,-137 47.5,-155 105.5,-155 105.5,-137 47.5,-137"/>
<text text-anchor="start" x="63.5" y="-143.2" font-family="Helvetica,sans-Serif" font-size="11.00">83 rows</text>
<polygon fill="#ffffff" stroke="transparent" points="105.5,-137 105.5,-155 140.5,-155 140.5,-137 105.5,-137"/>
<polygon fill="none" stroke="black" points="105.5,-137 105.5,-155 140.5,-155 140.5,-137 105.5,-137"/>
<text text-anchor="start" x="121.5" y="-143.2" font-family="Helvetica,sans-Serif" font-size="11.00">2 &gt;</text>
</a>
</g>
</g>
<!-- variables&#45;&gt;variablecontexts -->
<g id="edge9" class="edge">
<title>variables:w&#45;&gt;variablecontexts:e</title>
<path fill="none" stroke="black" d="M175.07,-245.38C154.89,-227.51 179.02,-164 141.5,-164"/>
<polygon fill="black" stroke="black" points="181.41,-247.48 187.87,-253.42 185.2,-248.74 189,-250 189,-250 189,-250 185.2,-248.74 190.13,-246.58 181.41,-247.48 181.41,-247.48"/>
<ellipse fill="none" stroke="black" cx="178.37" cy="-246.47" rx="3.2" ry="3.2"/>
</g>
<!-- variableelements -->
<g id="node11" class="node">
<title>variableelements</title>
<g id="a_node11"><a xlink:href="../../tables/variableelements.html" xlink:title="variableelements" target="_top">
<polygon fill="#ffffff" stroke="transparent" points="8,-295 8,-353 141,-353 141,-295 8,-295"/>
<polygon fill="#f5f5f5" stroke="transparent" points="8.5,-331 8.5,-353 141.5,-353 141.5,-331 8.5,-331"/>
<polygon fill="none" stroke="black" points="8.5,-331 8.5,-353 141.5,-353 141.5,-331 8.5,-331"/>
<text text-anchor="start" x="13.5" y="-340.2" font-family="Helvetica,sans-Serif" font-weight="bold" font-size="11.00">variableelements</text>
<text text-anchor="start" x="106.5" y="-339.2" font-family="Helvetica,sans-Serif" font-size="11.00">[table]</text>
<polygon fill="none" stroke="black" points="8.5,-313 8.5,-331 141.5,-331 141.5,-313 8.5,-313"/>
<text text-anchor="start" x="11.5" y="-319.2" font-family="Helvetica,sans-Serif" font-size="11.00">...</text>
<polygon fill="#ffffff" stroke="transparent" points="8.5,-295 8.5,-313 49.5,-313 49.5,-295 8.5,-295"/>
<polygon fill="none" stroke="black" points="8.5,-295 8.5,-313 49.5,-313 49.5,-295 8.5,-295"/>
<text text-anchor="start" x="11.5" y="-301.2" font-family="Helvetica,sans-Serif" font-size="11.00">&lt; 4</text>
<polygon fill="#ffffff" stroke="transparent" points="49.5,-295 49.5,-313 109.5,-313 109.5,-295 49.5,-295"/>
<polygon fill="none" stroke="black" points="49.5,-295 49.5,-313 109.5,-313 109.5,-295 49.5,-295"/>
<text text-anchor="start" x="61.5" y="-301.2" font-family="Helvetica,sans-Serif" font-size="11.00">967 rows</text>
<polygon fill="#ffffff" stroke="transparent" points="109.5,-295 109.5,-313 141.5,-313 141.5,-295 109.5,-295"/>
<polygon fill="none" stroke="black" points="109.5,-295 109.5,-313 141.5,-313 141.5,-295 109.5,-295"/>
<text text-anchor="start" x="122.5" y="-301.2" font-family="Helvetica,sans-Serif" font-size="11.00">1 &gt;</text>
</a>
</g>
</g>
<!-- variables&#45;&gt;variableelements -->
<g id="edge10" class="edge">
<title>variables:w&#45;&gt;variableelements:e</title>
<path fill="none" stroke="black" d="M174.95,-298.38C164.13,-306.25 160.59,-322 142.5,-322"/>
<polygon fill="black" stroke="black" points="181.36,-296.38 190.07,-297.44 185.18,-295.19 189,-294 189,-294 189,-294 185.18,-295.19 187.93,-290.56 181.36,-296.38 181.36,-296.38"/>
<ellipse fill="none" stroke="black" cx="178.31" cy="-297.33" rx="3.2" ry="3.2"/>
</g>
<!-- variableunits -->
<g id="node12" class="node">
<title>variableunits</title>
<g id="a_node12"><a xlink:href="../../tables/variableunits.html" xlink:title="variableunits" target="_top">
<polygon fill="#ffffff" stroke="transparent" points="18.5,-216 18.5,-274 130.5,-274 130.5,-216 18.5,-216"/>
<polygon fill="#f5f5f5" stroke="transparent" points="18.5,-252 18.5,-274 130.5,-274 130.5,-252 18.5,-252"/>
<polygon fill="none" stroke="black" points="18.5,-252 18.5,-274 130.5,-274 130.5,-252 18.5,-252"/>
<text text-anchor="start" x="23.5" y="-261.2" font-family="Helvetica,sans-Serif" font-weight="bold" font-size="11.00">variableunits</text>
<text text-anchor="start" x="95.5" y="-260.2" font-family="Helvetica,sans-Serif" font-size="11.00">[table]</text>
<polygon fill="none" stroke="black" points="18.5,-234 18.5,-252 130.5,-252 130.5,-234 18.5,-234"/>
<text text-anchor="start" x="21.5" y="-240.2" font-family="Helvetica,sans-Serif" font-size="11.00">...</text>
<polygon fill="#ffffff" stroke="transparent" points="18.5,-216 18.5,-234 44.5,-234 44.5,-216 18.5,-216"/>
<polygon fill="none" stroke="black" points="18.5,-216 18.5,-234 44.5,-234 44.5,-216 18.5,-216"/>
<text text-anchor="start" x="21.5" y="-222.2" font-family="Helvetica,sans-Serif" font-size="11.00"> &#160;</text>
<polygon fill="#ffffff" stroke="transparent" points="44.5,-216 44.5,-234 101.5,-234 101.5,-216 44.5,-216"/>
<polygon fill="none" stroke="black" points="44.5,-216 44.5,-234 101.5,-234 101.5,-216 44.5,-216"/>
<text text-anchor="start" x="53.5" y="-222.2" font-family="Helvetica,sans-Serif" font-size="11.00">209 rows</text>
<polygon fill="#ffffff" stroke="transparent" points="101.5,-216 101.5,-234 130.5,-234 130.5,-216 101.5,-216"/>
<polygon fill="none" stroke="black" points="101.5,-216 101.5,-234 130.5,-234 130.5,-216 101.5,-216"/>
<text text-anchor="start" x="111.5" y="-222.2" font-family="Helvetica,sans-Serif" font-size="11.00">4 &gt;</text>
</a>
</g>
</g>
<!-- variables&#45;&gt;variableunits -->
<g id="edge11" class="edge">
<title>variables:w&#45;&gt;variableunits:e</title>
<path fill="none" stroke="black" d="M174.59,-268.9C159.1,-261.42 154.31,-243 131.5,-243"/>
<polygon fill="black" stroke="black" points="181.18,-270.32 188.24,-275.52 185.09,-271.16 189,-272 189,-272 189,-272 185.09,-271.16 189.76,-268.48 181.18,-270.32 181.18,-270.32"/>
<ellipse fill="none" stroke="black" cx="178.05" cy="-269.64" rx="3.2" ry="3.2"/>
</g>
<!-- datasetvariables -->
<g id="node3" class="node">
<title>datasetvariables</title>
<g id="a_node3"><a xlink:href="../../tables/datasetvariables.html" xlink:title="datasetvariables" target="_top">
<polygon fill="#ffffff" stroke="transparent" points="417.5,-427 417.5,-485 547.5,-485 547.5,-427 417.5,-427"/>
<polygon fill="#f5f5f5" stroke="transparent" points="417.5,-463 417.5,-485 547.5,-485 547.5,-463 417.5,-463"/>
<polygon fill="none" stroke="black" points="417.5,-463 417.5,-485 547.5,-485 547.5,-463 417.5,-463"/>
<text text-anchor="start" x="422.5" y="-472.2" font-family="Helvetica,sans-Serif" font-weight="bold" font-size="11.00">datasetvariables</text>
<text text-anchor="start" x="512.5" y="-471.2" font-family="Helvetica,sans-Serif" font-size="11.00">[table]</text>
<polygon fill="none" stroke="black" points="417.5,-445 417.5,-463 547.5,-463 547.5,-445 417.5,-445"/>
<text text-anchor="start" x="420.5" y="-451.2" font-family="Helvetica,sans-Serif" font-size="11.00">...</text>
<polygon fill="#ffffff" stroke="transparent" points="417.5,-427 417.5,-445 467.5,-445 467.5,-427 417.5,-427"/>
<polygon fill="none" stroke="black" points="417.5,-427 417.5,-445 467.5,-445 467.5,-427 417.5,-427"/>
<text text-anchor="start" x="420.5" y="-433.2" font-family="Helvetica,sans-Serif" font-size="11.00">&lt; 2</text>
<polygon fill="#ffffff" stroke="transparent" points="467.5,-427 467.5,-445 520.5,-445 520.5,-427 467.5,-427"/>
<polygon fill="none" stroke="black" points="467.5,-427 467.5,-445 520.5,-445 520.5,-427 467.5,-427"/>
<text text-anchor="start" x="484.5" y="-433.2" font-family="Helvetica,sans-Serif" font-size="11.00">0 rows</text>
<polygon fill="#ffffff" stroke="transparent" points="520.5,-427 520.5,-445 547.5,-445 547.5,-427 520.5,-427"/>
<polygon fill="none" stroke="black" points="520.5,-427 520.5,-445 547.5,-445 547.5,-427 520.5,-427"/>
<text text-anchor="start" x="537.5" y="-433.2" font-family="Helvetica,sans-Serif" font-size="11.00"> &#160;</text>
</a>
</g>
</g>
<!-- datasetvariables&#45;&gt;variables -->
<g id="edge2" class="edge">
<title>datasetvariables:w&#45;&gt;variables:e</title>
<path fill="none" stroke="black" d="M402.06,-452.49C384.06,-448.18 376.99,-435.02 361,-417 334.88,-387.56 360.36,-338 321,-338"/>
<polygon fill="black" stroke="black" points="408.54,-453.17 416.12,-457.58 412.52,-453.58 416.5,-454 416.5,-454 416.5,-454 412.52,-453.58 416.88,-450.42 408.54,-453.17 408.54,-453.17"/>
<ellipse fill="none" stroke="black" cx="405.36" cy="-452.83" rx="3.2" ry="3.2"/>
</g>
<!-- isoinstrumentation -->
<g id="node4" class="node">
<title>isoinstrumentation</title>
<g id="a_node4"><a xlink:href="../../tables/isoinstrumentation.html" xlink:title="isoinstrumentation" target="_top">
<polygon fill="#ffffff" stroke="transparent" points="410.5,-348 410.5,-406 554.5,-406 554.5,-348 410.5,-348"/>
<polygon fill="#f5f5f5" stroke="transparent" points="410.5,-384 410.5,-406 554.5,-406 554.5,-384 410.5,-384"/>
<polygon fill="none" stroke="black" points="410.5,-384 410.5,-406 554.5,-406 554.5,-384 410.5,-384"/>
<text text-anchor="start" x="415.5" y="-393.2" font-family="Helvetica,sans-Serif" font-weight="bold" font-size="11.00">isoinstrumentation</text>
<text text-anchor="start" x="519.5" y="-392.2" font-family="Helvetica,sans-Serif" font-size="11.00">[table]</text>
<polygon fill="none" stroke="black" points="410.5,-366 410.5,-384 554.5,-384 554.5,-366 410.5,-366"/>
<text text-anchor="start" x="413.5" y="-372.2" font-family="Helvetica,sans-Serif" font-size="11.00">...</text>
<polygon fill="#ffffff" stroke="transparent" points="410.5,-348 410.5,-366 461.5,-366 461.5,-348 410.5,-348"/>
<polygon fill="none" stroke="black" points="410.5,-348 410.5,-366 461.5,-366 461.5,-348 410.5,-348"/>
<text text-anchor="start" x="413.5" y="-354.2" font-family="Helvetica,sans-Serif" font-size="11.00">&lt; 4</text>
<polygon fill="#ffffff" stroke="transparent" points="461.5,-348 461.5,-366 526.5,-366 526.5,-348 461.5,-348"/>
<polygon fill="none" stroke="black" points="461.5,-348 461.5,-366 526.5,-366 526.5,-348 461.5,-348"/>
<text text-anchor="start" x="478.5" y="-354.2" font-family="Helvetica,sans-Serif" font-size="11.00">156 rows</text>
<polygon fill="#ffffff" stroke="transparent" points="526.5,-348 526.5,-366 554.5,-366 554.5,-348 526.5,-348"/>
<polygon fill="none" stroke="black" points="526.5,-348 526.5,-366 554.5,-366 554.5,-348 526.5,-348"/>
<text text-anchor="start" x="544.5" y="-354.2" font-family="Helvetica,sans-Serif" font-size="11.00"> &#160;</text>
</a>
</g>
</g>
<!-- isoinstrumentation&#45;&gt;variables -->
<g id="edge3" class="edge">
<title>isoinstrumentation:w&#45;&gt;variables:e</title>
<path fill="none" stroke="black" d="M394.81,-373.31C365.38,-366.08 358.14,-338 321,-338"/>
<polygon fill="black" stroke="black" points="401.55,-374.09 409.09,-378.58 405.53,-374.54 409.5,-375 409.5,-375 409.5,-375 405.53,-374.54 409.91,-371.42 401.55,-374.09 401.55,-374.09"/>
<ellipse fill="none" stroke="black" cx="398.37" cy="-373.72" rx="3.2" ry="3.2"/>
</g>
<!-- isosrmetadata -->
<g id="node5" class="node">
<title>isosrmetadata</title>
<g id="a_node5"><a xlink:href="../../tables/isosrmetadata.html" xlink:title="isosrmetadata" target="_top">
<polygon fill="#ffffff" stroke="transparent" points="423,-269 423,-327 542,-327 542,-269 423,-269"/>
<polygon fill="#f5f5f5" stroke="transparent" points="423.5,-305 423.5,-327 542.5,-327 542.5,-305 423.5,-305"/>
<polygon fill="none" stroke="black" points="423.5,-305 423.5,-327 542.5,-327 542.5,-305 423.5,-305"/>
<text text-anchor="start" x="428.5" y="-314.2" font-family="Helvetica,sans-Serif" font-weight="bold" font-size="11.00">isosrmetadata</text>
<text text-anchor="start" x="507.5" y="-313.2" font-family="Helvetica,sans-Serif" font-size="11.00">[table]</text>
<polygon fill="none" stroke="black" points="423.5,-287 423.5,-305 542.5,-305 542.5,-287 423.5,-287"/>
<text text-anchor="start" x="426.5" y="-293.2" font-family="Helvetica,sans-Serif" font-size="11.00">...</text>
<polygon fill="#ffffff" stroke="transparent" points="423.5,-269 423.5,-287 464.5,-287 464.5,-269 423.5,-269"/>
<polygon fill="none" stroke="black" points="423.5,-269 423.5,-287 464.5,-287 464.5,-269 423.5,-269"/>
<text text-anchor="start" x="426.5" y="-275.2" font-family="Helvetica,sans-Serif" font-size="11.00">&lt; 2</text>
<polygon fill="#ffffff" stroke="transparent" points="464.5,-269 464.5,-287 519.5,-287 519.5,-269 464.5,-269"/>
<polygon fill="none" stroke="black" points="464.5,-269 464.5,-287 519.5,-287 519.5,-269 464.5,-269"/>
<text text-anchor="start" x="477.5" y="-275.2" font-family="Helvetica,sans-Serif" font-size="11.00">14 rows</text>
<polygon fill="#ffffff" stroke="transparent" points="519.5,-269 519.5,-287 542.5,-287 542.5,-269 519.5,-269"/>
<polygon fill="none" stroke="black" points="519.5,-269 519.5,-287 542.5,-287 542.5,-269 519.5,-269"/>
<text text-anchor="start" x="532.5" y="-275.2" font-family="Helvetica,sans-Serif" font-size="11.00"> &#160;</text>
</a>
</g>
</g>
<!-- isosrmetadata&#45;&gt;variables -->
<g id="edge4" class="edge">
<title>isosrmetadata:w&#45;&gt;variables:e</title>
<path fill="none" stroke="black" d="M407.98,-297.4C372.3,-304.69 364.48,-338 321,-338"/>
<polygon fill="black" stroke="black" points="414.54,-296.77 422.84,-299.58 418.52,-296.38 422.5,-296 422.5,-296 422.5,-296 418.52,-296.38 422.16,-292.42 414.54,-296.77 414.54,-296.77"/>
<ellipse fill="none" stroke="black" cx="411.35" cy="-297.07" rx="3.2" ry="3.2"/>
</g>
<!-- isostandards -->
<g id="node6" class="node">
<title>isostandards</title>
<g id="a_node6"><a xlink:href="../../tables/isostandards.html" xlink:title="isostandards" target="_top">
<polygon fill="#ffffff" stroke="transparent" points="426,-190 426,-248 539,-248 539,-190 426,-190"/>
<polygon fill="#f5f5f5" stroke="transparent" points="426.5,-226 426.5,-248 539.5,-248 539.5,-226 426.5,-226"/>
<polygon fill="none" stroke="black" points="426.5,-226 426.5,-248 539.5,-248 539.5,-226 426.5,-226"/>
<text text-anchor="start" x="431.5" y="-235.2" font-family="Helvetica,sans-Serif" font-weight="bold" font-size="11.00">isostandards</text>
<text text-anchor="start" x="504.5" y="-234.2" font-family="Helvetica,sans-Serif" font-size="11.00">[table]</text>
<polygon fill="none" stroke="black" points="426.5,-208 426.5,-226 539.5,-226 539.5,-208 426.5,-208"/>
<text text-anchor="start" x="429.5" y="-214.2" font-family="Helvetica,sans-Serif" font-size="11.00">...</text>
<polygon fill="#ffffff" stroke="transparent" points="426.5,-190 426.5,-208 467.5,-208 467.5,-190 426.5,-190"/>
<polygon fill="none" stroke="black" points="426.5,-190 426.5,-208 467.5,-208 467.5,-190 426.5,-190"/>
<text text-anchor="start" x="429.5" y="-196.2" font-family="Helvetica,sans-Serif" font-size="11.00">&lt; 3</text>
<polygon fill="#ffffff" stroke="transparent" points="467.5,-190 467.5,-208 516.5,-208 516.5,-190 467.5,-190"/>
<polygon fill="none" stroke="black" points="467.5,-190 467.5,-208 516.5,-208 516.5,-190 467.5,-190"/>
<text text-anchor="start" x="480.5" y="-196.2" font-family="Helvetica,sans-Serif" font-size="11.00">0 rows</text>
<polygon fill="#ffffff" stroke="transparent" points="516.5,-190 516.5,-208 539.5,-208 539.5,-190 516.5,-190"/>
<polygon fill="none" stroke="black" points="516.5,-190 516.5,-208 539.5,-208 539.5,-190 516.5,-190"/>
<text text-anchor="start" x="529.5" y="-196.2" font-family="Helvetica,sans-Serif" font-size="11.00"> &#160;</text>
</a>
</g>
</g>
<!-- isostandards&#45;&gt;variables -->
<g id="edge5" class="edge">
<title>isostandards:w&#45;&gt;variables:e</title>
<path fill="none" stroke="black" d="M410.95,-218.24C388.51,-222.53 380.18,-237.61 361,-259 334.72,-288.3 360.36,-338 321,-338"/>
<polygon fill="black" stroke="black" points="417.53,-217.68 425.81,-220.59 421.51,-217.34 425.5,-217 425.5,-217 425.5,-217 421.51,-217.34 425.19,-213.41 417.53,-217.68 417.53,-217.68"/>
<ellipse fill="none" stroke="black" cx="414.34" cy="-217.95" rx="3.2" ry="3.2"/>
</g>
<!-- isovariablescaletypes -->
<g id="node7" class="node">
<title>isovariablescaletypes</title>
<g id="a_node7"><a xlink:href="../../tables/isovariablescaletypes.html" xlink:title="isovariablescaletypes" target="_top">
<polygon fill="#ffffff" stroke="transparent" points="369,-37 369,-169 596,-169 596,-37 369,-37"/>
<polygon fill="#f5f5f5" stroke="transparent" points="371.5,-145 371.5,-167 594.5,-167 594.5,-145 371.5,-145"/>
<polygon fill="none" stroke="black" points="371.5,-145 371.5,-167 594.5,-167 594.5,-145 371.5,-145"/>
<text text-anchor="start" x="376.5" y="-154.2" font-family="Helvetica,sans-Serif" font-weight="bold" font-size="11.00">isovariablescaletypes</text>
<text text-anchor="start" x="559.5" y="-153.2" font-family="Helvetica,sans-Serif" font-size="11.00">[table]</text>
<polygon fill="none" stroke="black" points="371.5,-123 371.5,-145 520.5,-145 520.5,-123 371.5,-123"/>
<image xlink:href="../../images/primaryKeys.png" width="11px" height="12px" preserveAspectRatio="xMinYMin meet" x="376.5" y="-140"/>
<text text-anchor="start" x="391.5" y="-131.2" font-family="Helvetica,sans-Serif" font-size="11.00">variableid</text>
<polygon fill="none" stroke="black" points="520.5,-123 520.5,-145 594.5,-145 594.5,-123 520.5,-123"/>
<text text-anchor="start" x="523.5" y="-131.2" font-family="Helvetica,sans-Serif" font-size="11.00">int4[10]</text>
<polygon fill="none" stroke="black" points="371.5,-101 371.5,-123 520.5,-123 520.5,-101 371.5,-101"/>
<image xlink:href="../../images/primaryKeys.png" width="11px" height="12px" preserveAspectRatio="xMinYMin meet" x="376.5" y="-118"/>
<text text-anchor="start" x="391.5" y="-109.2" font-family="Helvetica,sans-Serif" font-size="11.00">isoscaletypeid</text>
<polygon fill="none" stroke="black" points="520.5,-101 520.5,-123 594.5,-123 594.5,-101 520.5,-101"/>
<text text-anchor="start" x="523.5" y="-109.2" font-family="Helvetica,sans-Serif" font-size="11.00">int4[10]</text>
<polygon fill="none" stroke="black" points="371.5,-79 371.5,-101 520.5,-101 520.5,-79 371.5,-79"/>
<text text-anchor="start" x="391.5" y="-87.2" font-family="Helvetica,sans-Serif" font-size="11.00">recdatecreated</text>
<polygon fill="none" stroke="black" points="520.5,-79 520.5,-101 594.5,-101 594.5,-79 520.5,-79"/>
<text text-anchor="start" x="523.5" y="-87.2" font-family="Helvetica,sans-Serif" font-size="11.00">timestamp[22]</text>
<polygon fill="none" stroke="black" points="371.5,-57 371.5,-79 520.5,-79 520.5,-57 371.5,-57"/>
<text text-anchor="start" x="391.5" y="-65.2" font-family="Helvetica,sans-Serif" font-size="11.00">recdatemodified</text>
<polygon fill="none" stroke="black" points="520.5,-57 520.5,-79 594.5,-79 594.5,-57 520.5,-57"/>
<text text-anchor="start" x="523.5" y="-65.2" font-family="Helvetica,sans-Serif" font-size="11.00">timestamp[22]</text>
<polygon fill="#ffffff" stroke="transparent" points="371.5,-39 371.5,-57 434.5,-57 434.5,-39 371.5,-39"/>
<polygon fill="none" stroke="black" points="371.5,-39 371.5,-57 434.5,-57 434.5,-39 371.5,-39"/>
<text text-anchor="start" x="374.5" y="-45.2" font-family="Helvetica,sans-Serif" font-size="11.00">&lt; 2</text>
<polygon fill="#ffffff" stroke="transparent" points="434.5,-39 434.5,-57 520.5,-57 520.5,-39 434.5,-39"/>
<polygon fill="none" stroke="black" points="434.5,-39 434.5,-57 520.5,-57 520.5,-39 434.5,-39"/>
<text text-anchor="start" x="478.5" y="-45.2" font-family="Helvetica,sans-Serif" font-size="11.00">14 rows</text>
<polygon fill="#ffffff" stroke="transparent" points="520.5,-39 520.5,-57 594.5,-57 594.5,-39 520.5,-39"/>
<polygon fill="none" stroke="black" points="520.5,-39 520.5,-57 594.5,-57 594.5,-39 520.5,-39"/>
<text text-anchor="start" x="575.5" y="-45.2" font-family="Helvetica,sans-Serif" font-size="11.00">0 &gt;</text>
<polygon fill="none" stroke="black" stroke-width="2" points="370,-38 370,-168 595,-168 595,-38 370,-38"/>
</a>
</g>
</g>
<!-- isovariablescaletypes&#45;&gt;variables -->
<g id="edge7" class="edge">
<title>isovariablescaletypes:w&#45;&gt;variables:e</title>
<path fill="none" stroke="black" d="M355.98,-136.15C292.96,-157.96 408.65,-338 321,-338"/>
<polygon fill="black" stroke="black" points="362.59,-135.17 371.03,-137.56 366.54,-134.59 370.5,-134 370.5,-134 370.5,-134 366.54,-134.59 369.97,-130.44 362.59,-135.17 362.59,-135.17"/>
<ellipse fill="none" stroke="black" cx="359.42" cy="-135.64" rx="3.2" ry="3.2"/>
</g>
<!-- isoscaletypes -->
<g id="node8" class="node">
<title>isoscaletypes</title>
<g id="a_node8"><a xlink:href="../../tables/isoscaletypes.html" xlink:title="isoscaletypes" target="_top">
<polygon fill="#ffffff" stroke="transparent" points="195,-65 195,-145 315,-145 315,-65 195,-65"/>
<polygon fill="#f5f5f5" stroke="transparent" points="195,-123 195,-145 315,-145 315,-123 195,-123"/>
<polygon fill="none" stroke="black" points="195,-123 195,-145 315,-145 315,-123 195,-123"/>
<text text-anchor="start" x="200" y="-132.2" font-family="Helvetica,sans-Serif" font-weight="bold" font-size="11.00">isoscaletypes</text>
<text text-anchor="start" x="280" y="-131.2" font-family="Helvetica,sans-Serif" font-size="11.00">[table]</text>
<polygon fill="none" stroke="black" points="195,-101 195,-123 315,-123 315,-101 195,-101"/>
<image xlink:href="../../images/primaryKeys.png" width="11px" height="12px" preserveAspectRatio="xMinYMin meet" x="200" y="-118"/>
<text text-anchor="start" x="215" y="-109.2" font-family="Helvetica,sans-Serif" font-size="11.00">isoscaletypeid</text>
<polygon fill="none" stroke="black" points="195,-83 195,-101 315,-101 315,-83 195,-83"/>
<text text-anchor="start" x="198" y="-89.2" font-family="Helvetica,sans-Serif" font-size="11.00">...</text>
<polygon fill="#ffffff" stroke="transparent" points="195,-65 195,-83 231,-83 231,-65 195,-65"/>
<polygon fill="none" stroke="black" points="195,-65 195,-83 231,-83 231,-65 195,-65"/>
<text text-anchor="start" x="198" y="-71.2" font-family="Helvetica,sans-Serif" font-size="11.00"> &#160;</text>
<polygon fill="#ffffff" stroke="transparent" points="231,-65 231,-83 281,-83 281,-65 231,-65"/>
<polygon fill="none" stroke="black" points="231,-65 231,-83 281,-83 281,-65 231,-65"/>
<text text-anchor="start" x="245" y="-71.2" font-family="Helvetica,sans-Serif" font-size="11.00">8 rows</text>
<polygon fill="#ffffff" stroke="transparent" points="281,-65 281,-83 315,-83 315,-65 281,-65"/>
<polygon fill="none" stroke="black" points="281,-65 281,-83 315,-83 315,-65 281,-65"/>
<text text-anchor="start" x="296" y="-71.2" font-family="Helvetica,sans-Serif" font-size="11.00">1 &gt;</text>
</a>
</g>
</g>
<!-- isovariablescaletypes&#45;&gt;isoscaletypes -->
<g id="edge6" class="edge">
<title>isovariablescaletypes:w&#45;&gt;isoscaletypes:e</title>
<path fill="none" stroke="black" d="M355.99,-112C342.44,-112 334.55,-112 316,-112"/>
<polygon fill="black" stroke="black" points="362.5,-112 370.5,-115.6 366.5,-112 370.5,-112 370.5,-112 370.5,-112 366.5,-112 370.5,-108.4 362.5,-112 362.5,-112"/>
<ellipse fill="none" stroke="black" cx="359.3" cy="-112" rx="3.2" ry="3.2"/>
</g>
</g>
</svg>
