<?xml version="1.0" encoding="UTF-8" standalone="no"?>
<!DOCTYPE svg PUBLIC "-//W3C//DTD SVG 1.1//EN"
 "http://www.w3.org/Graphics/SVG/1.1/DTD/svg11.dtd">
<!-- Generated by graphviz version 2.43.0 (0)
 -->
<!-- Title: twoDegreesRelationshipsDiagram Pages: 1 -->
<svg width="403pt" height="260pt"
 viewBox="0.00 0.00 403.00 260.00" xmlns="http://www.w3.org/2000/svg" xmlns:xlink="http://www.w3.org/1999/xlink">
<g id="graph0" class="graph" transform="scale(1 1) rotate(0) translate(4 256)">
<title>twoDegreesRelationshipsDiagram</title>
<polygon fill="#ffffff" stroke="transparent" points="-4,4 -4,-256 399,-256 399,4 -4,4"/>
<text text-anchor="middle" x="71.5" y="-7.2" font-family="Helvetica,sans-Serif" font-size="11.00">Generated by SchemaSpy</text>
<!-- samplekeywords -->
<g id="node1" class="node">
<title>samplekeywords</title>
<g id="a_node1"><a xlink:href="../../tables/samplekeywords.html" xlink:title="samplekeywords" target="_top">
<polygon fill="#ffffff" stroke="transparent" points="255,-117 255,-219 387,-219 387,-117 255,-117"/>
<polygon fill="#f5f5f5" stroke="transparent" points="255,-197 255,-219 387,-219 387,-197 255,-197"/>
<polygon fill="none" stroke="black" points="255,-197 255,-219 387,-219 387,-197 255,-197"/>
<text text-anchor="start" x="260" y="-206.2" font-family="Helvetica,sans-Serif" font-weight="bold" font-size="11.00">samplekeywords</text>
<text text-anchor="start" x="352" y="-205.2" font-family="Helvetica,sans-Serif" font-size="11.00">[table]</text>
<polygon fill="none" stroke="black" points="255,-175 255,-197 387,-197 387,-175 255,-175"/>
<image xlink:href="../../images/primaryKeys.png" width="11px" height="12px" preserveAspectRatio="xMinYMin meet" x="260" y="-192"/>
<text text-anchor="start" x="280" y="-183.2" font-family="Helvetica,sans-Serif" font-size="11.00">sampleid</text>
<polygon fill="none" stroke="black" points="255,-153 255,-175 387,-175 387,-153 255,-153"/>
<image xlink:href="../../images/primaryKeys.png" width="11px" height="12px" preserveAspectRatio="xMinYMin meet" x="260" y="-170"/>
<text text-anchor="start" x="280" y="-161.2" font-family="Helvetica,sans-Serif" font-size="11.00">keywordid</text>
<polygon fill="none" stroke="black" points="255,-135 255,-153 387,-153 387,-135 255,-135"/>
<text text-anchor="start" x="258" y="-141.2" font-family="Helvetica,sans-Serif" font-size="11.00">...</text>
<polygon fill="#ffffff" stroke="transparent" points="255,-117 255,-135 292,-135 292,-117 255,-117"/>
<polygon fill="none" stroke="black" points="255,-117 255,-135 292,-135 292,-117 255,-117"/>
<text text-anchor="start" x="258" y="-123.2" font-family="Helvetica,sans-Serif" font-size="11.00">&lt; 2</text>
<polygon fill="#ffffff" stroke="transparent" points="292,-117 292,-135 366,-135 366,-117 292,-117"/>
<polygon fill="none" stroke="black" points="292,-117 292,-135 366,-135 366,-117 292,-117"/>
<text text-anchor="start" x="303" y="-123.2" font-family="Helvetica,sans-Serif" font-size="11.00">18,202 rows</text>
<polygon fill="#ffffff" stroke="transparent" points="366,-117 366,-135 387,-135 387,-117 366,-117"/>
<polygon fill="none" stroke="black" points="366,-117 366,-135 387,-135 387,-117 366,-117"/>
<text text-anchor="start" x="377" y="-123.2" font-family="Helvetica,sans-Serif" font-size="11.00"> &#160;</text>
</a>
</g>
</g>
<!-- keywords -->
<g id="node2" class="node">
<title>keywords</title>
<g id="a_node2"><a xlink:href="../../tables/keywords.html" xlink:title="keywords" target="_top">
<polygon fill="#ffffff" stroke="transparent" points="8,-37 8,-169 206,-169 206,-37 8,-37"/>
<polygon fill="#f5f5f5" stroke="transparent" points="10,-145 10,-167 204,-167 204,-145 10,-145"/>
<polygon fill="none" stroke="black" points="10,-145 10,-167 204,-167 204,-145 10,-145"/>
<text text-anchor="start" x="15" y="-154.2" font-family="Helvetica,sans-Serif" font-weight="bold" font-size="11.00">keywords</text>
<text text-anchor="start" x="169" y="-153.2" font-family="Helvetica,sans-Serif" font-size="11.00">[table]</text>
<polygon fill="none" stroke="black" points="10,-123 10,-145 130,-145 130,-123 10,-123"/>
<image xlink:href="../../images/primaryKeys.png" width="11px" height="12px" preserveAspectRatio="xMinYMin meet" x="15" y="-140"/>
<text text-anchor="start" x="30" y="-131.2" font-family="Helvetica,sans-Serif" font-size="11.00">keywordid</text>
<polygon fill="none" stroke="black" points="130,-123 130,-145 204,-145 204,-123 130,-123"/>
<text text-anchor="start" x="133" y="-131.2" font-family="Helvetica,sans-Serif" font-size="11.00">serial[10]</text>
<polygon fill="none" stroke="black" points="10,-101 10,-123 130,-123 130,-101 10,-101"/>
<text text-anchor="start" x="30" y="-109.2" font-family="Helvetica,sans-Serif" font-size="11.00">keyword</text>
<polygon fill="none" stroke="black" points="130,-101 130,-123 204,-123 204,-101 130,-101"/>
<text text-anchor="start" x="133" y="-109.2" font-family="Helvetica,sans-Serif" font-size="11.00">varchar[64]</text>
<polygon fill="none" stroke="black" points="10,-79 10,-101 130,-101 130,-79 10,-79"/>
<text text-anchor="start" x="30" y="-87.2" font-family="Helvetica,sans-Serif" font-size="11.00">recdatecreated</text>
<polygon fill="none" stroke="black" points="130,-79 130,-101 204,-101 204,-79 130,-79"/>
<text text-anchor="start" x="133" y="-87.2" font-family="Helvetica,sans-Serif" font-size="11.00">timestamp[22]</text>
<polygon fill="none" stroke="black" points="10,-57 10,-79 130,-79 130,-57 10,-57"/>
<text text-anchor="start" x="30" y="-65.2" font-family="Helvetica,sans-Serif" font-size="11.00">recdatemodified</text>
<polygon fill="none" stroke="black" points="130,-57 130,-79 204,-79 204,-57 130,-57"/>
<text text-anchor="start" x="133" y="-65.2" font-family="Helvetica,sans-Serif" font-size="11.00">timestamp[22]</text>
<polygon fill="#ffffff" stroke="transparent" points="10,-39 10,-57 61,-57 61,-39 10,-39"/>
<polygon fill="none" stroke="black" points="10,-39 10,-57 61,-57 61,-39 10,-39"/>
<text text-anchor="start" x="13" y="-45.2" font-family="Helvetica,sans-Serif" font-size="11.00">&lt; 0</text>
<polygon fill="#ffffff" stroke="transparent" points="61,-39 61,-57 130,-57 130,-39 61,-39"/>
<polygon fill="none" stroke="black" points="61,-39 61,-57 130,-57 130,-39 61,-39"/>
<text text-anchor="start" x="94" y="-45.2" font-family="Helvetica,sans-Serif" font-size="11.00">5 rows</text>
<polygon fill="#ffffff" stroke="transparent" points="130,-39 130,-57 204,-57 204,-39 130,-39"/>
<polygon fill="none" stroke="black" points="130,-39 130,-57 204,-57 204,-39 130,-39"/>
<text text-anchor="start" x="185" y="-45.2" font-family="Helvetica,sans-Serif" font-size="11.00">1 &gt;</text>
<polygon fill="none" stroke="black" stroke-width="2" points="9,-38 9,-168 205,-168 205,-38 9,-38"/>
</a>
</g>
</g>
<!-- samplekeywords&#45;&gt;keywords -->
<g id="edge1" class="edge">
<title>samplekeywords:w&#45;&gt;keywords:e</title>
<path fill="none" stroke="black" d="M239.88,-159.83C227.92,-151.59 224.55,-134 205,-134"/>
<polygon fill="black" stroke="black" points="246.33,-161.73 252.98,-167.45 250.16,-162.87 254,-164 254,-164 254,-164 250.16,-162.87 255.02,-160.55 246.33,-161.73 246.33,-161.73"/>
<ellipse fill="none" stroke="black" cx="243.26" cy="-160.83" rx="3.2" ry="3.2"/>
</g>
<!-- samples -->
<g id="node3" class="node">
<title>samples</title>
<g id="a_node3"><a xlink:href="../../tables/samples.html" xlink:title="samples" target="_top">
<polygon fill="#ffffff" stroke="transparent" points="49,-190 49,-248 165,-248 165,-190 49,-190"/>
<polygon fill="#f5f5f5" stroke="transparent" points="49,-226 49,-248 165,-248 165,-226 49,-226"/>
<polygon fill="none" stroke="black" points="49,-226 49,-248 165,-248 165,-226 49,-226"/>
<text text-anchor="start" x="54" y="-235.2" font-family="Helvetica,sans-Serif" font-weight="bold" font-size="11.00">samples</text>
<text text-anchor="start" x="130" y="-234.2" font-family="Helvetica,sans-Serif" font-size="11.00">[table]</text>
<polygon fill="none" stroke="black" points="49,-208 49,-226 165,-226 165,-208 49,-208"/>
<text text-anchor="start" x="52" y="-214.2" font-family="Helvetica,sans-Serif" font-size="11.00">...</text>
<polygon fill="#ffffff" stroke="transparent" points="49,-190 49,-208 71,-208 71,-190 49,-190"/>
<polygon fill="none" stroke="black" points="49,-190 49,-208 71,-208 71,-190 49,-190"/>
<text text-anchor="start" x="52" y="-196.2" font-family="Helvetica,sans-Serif" font-size="11.00">&lt; 3</text>
<polygon fill="#ffffff" stroke="transparent" points="71,-190 71,-208 143,-208 143,-190 71,-190"/>
<polygon fill="none" stroke="black" points="71,-190 71,-208 143,-208 143,-190 71,-190"/>
<text text-anchor="start" x="74" y="-196.2" font-family="Helvetica,sans-Serif" font-size="11.00">541,654 rows</text>
<polygon fill="#ffffff" stroke="transparent" points="143,-190 143,-208 165,-208 165,-190 143,-190"/>
<polygon fill="none" stroke="black" points="143,-190 143,-208 165,-208 165,-190 143,-190"/>
<text text-anchor="start" x="146" y="-196.2" font-family="Helvetica,sans-Serif" font-size="11.00">7 &gt;</text>
</a>
</g>
</g>
<!-- samplekeywords&#45;&gt;samples -->
<g id="edge2" class="edge">
<title>samplekeywords:w&#45;&gt;samples:e</title>
<path fill="none" stroke="black" d="M239.62,-187.41C210.62,-193.48 202.12,-217 166,-217"/>
<polygon fill="black" stroke="black" points="246.04,-186.78 254.35,-189.58 250.02,-186.39 254,-186 254,-186 254,-186 250.02,-186.39 253.65,-182.42 246.04,-186.78 246.04,-186.78"/>
<ellipse fill="none" stroke="black" cx="242.85" cy="-187.1" rx="3.2" ry="3.2"/>
</g>
</g>
</svg>
