<?xml version="1.0" encoding="UTF-8" standalone="no"?>
<!DOCTYPE svg PUBLIC "-//W3C//DTD SVG 1.1//EN"
 "http://www.w3.org/Graphics/SVG/1.1/DTD/svg11.dtd">
<!-- Generated by graphviz version 2.43.0 (0)
 -->
<!-- Title: oneDegreeRelationshipsDiagram Pages: 1 -->
<svg width="452pt" height="245pt"
 viewBox="0.00 0.00 452.00 245.00" xmlns="http://www.w3.org/2000/svg" xmlns:xlink="http://www.w3.org/1999/xlink">
<g id="graph0" class="graph" transform="scale(1 1) rotate(0) translate(4 241)">
<title>oneDegreeRelationshipsDiagram</title>
<polygon fill="#ffffff" stroke="transparent" points="-4,4 -4,-241 448,-241 448,4 -4,4"/>
<text text-anchor="middle" x="71.5" y="-7.2" font-family="Helvetica,sans-Serif" font-size="11.00">Generated by SchemaSpy</text>
<!-- lakeparameters -->
<g id="node1" class="node">
<title>lakeparameters</title>
<g id="a_node1"><a xlink:href="../../tables/lakeparameters.html" xlink:title="lakeparameters" target="_top">
<polygon fill="#ffffff" stroke="transparent" points="311,-131 311,-233 436,-233 436,-131 311,-131"/>
<polygon fill="#f5f5f5" stroke="transparent" points="311.5,-211 311.5,-233 436.5,-233 436.5,-211 311.5,-211"/>
<polygon fill="none" stroke="black" points="311.5,-211 311.5,-233 436.5,-233 436.5,-211 311.5,-211"/>
<text text-anchor="start" x="316.5" y="-220.2" font-family="Helvetica,sans-Serif" font-weight="bold" font-size="11.00">lakeparameters</text>
<text text-anchor="start" x="401.5" y="-219.2" font-family="Helvetica,sans-Serif" font-size="11.00">[table]</text>
<polygon fill="none" stroke="black" points="311.5,-189 311.5,-211 436.5,-211 436.5,-189 311.5,-189"/>
<image xlink:href="../../images/primaryKeys.png" width="11px" height="12px" preserveAspectRatio="xMinYMin meet" x="316.5" y="-206"/>
<text text-anchor="start" x="333.5" y="-197.2" font-family="Helvetica,sans-Serif" font-size="11.00">siteid</text>
<polygon fill="none" stroke="black" points="311.5,-167 311.5,-189 436.5,-189 436.5,-167 311.5,-167"/>
<image xlink:href="../../images/primaryKeys.png" width="11px" height="12px" preserveAspectRatio="xMinYMin meet" x="316.5" y="-184"/>
<text text-anchor="start" x="333.5" y="-175.2" font-family="Helvetica,sans-Serif" font-size="11.00">lakeparameterid</text>
<polygon fill="none" stroke="black" points="311.5,-149 311.5,-167 436.5,-167 436.5,-149 311.5,-149"/>
<text text-anchor="start" x="314.5" y="-155.2" font-family="Helvetica,sans-Serif" font-size="11.00">...</text>
<polygon fill="#ffffff" stroke="transparent" points="311.5,-131 311.5,-149 345.5,-149 345.5,-131 311.5,-131"/>
<polygon fill="none" stroke="black" points="311.5,-131 311.5,-149 345.5,-149 345.5,-131 311.5,-131"/>
<text text-anchor="start" x="314.5" y="-137.2" font-family="Helvetica,sans-Serif" font-size="11.00">&lt; 2</text>
<polygon fill="#ffffff" stroke="transparent" points="345.5,-131 345.5,-149 417.5,-149 417.5,-131 345.5,-131"/>
<polygon fill="none" stroke="black" points="345.5,-131 345.5,-149 417.5,-149 417.5,-131 345.5,-131"/>
<text text-anchor="start" x="354.5" y="-137.2" font-family="Helvetica,sans-Serif" font-size="11.00">23,151 rows</text>
<polygon fill="#ffffff" stroke="transparent" points="417.5,-131 417.5,-149 436.5,-149 436.5,-131 417.5,-131"/>
<polygon fill="none" stroke="black" points="417.5,-131 417.5,-149 436.5,-149 436.5,-131 417.5,-131"/>
<text text-anchor="start" x="426.5" y="-137.2" font-family="Helvetica,sans-Serif" font-size="11.00"> &#160;</text>
</a>
</g>
</g>
<!-- lakeparametertypes -->
<g id="node2" class="node">
<title>lakeparametertypes</title>
<g id="a_node2"><a xlink:href="../../tables/lakeparametertypes.html" xlink:title="lakeparametertypes" target="_top">
<polygon fill="#ffffff" stroke="transparent" points="8,-37 8,-213 262,-213 262,-37 8,-37"/>
<polygon fill="#f5f5f5" stroke="transparent" points="10,-189 10,-211 260,-211 260,-189 10,-189"/>
<polygon fill="none" stroke="black" points="10,-189 10,-211 260,-211 260,-189 10,-189"/>
<text text-anchor="start" x="15" y="-198.2" font-family="Helvetica,sans-Serif" font-weight="bold" font-size="11.00">lakeparametertypes</text>
<text text-anchor="start" x="225" y="-197.2" font-family="Helvetica,sans-Serif" font-size="11.00">[table]</text>
<polygon fill="none" stroke="black" points="10,-167 10,-189 186,-189 186,-167 10,-167"/>
<image xlink:href="../../images/primaryKeys.png" width="11px" height="12px" preserveAspectRatio="xMinYMin meet" x="15" y="-184"/>
<text text-anchor="start" x="30" y="-175.2" font-family="Helvetica,sans-Serif" font-size="11.00">lakeparameterid</text>
<polygon fill="none" stroke="black" points="186,-167 186,-189 260,-189 260,-167 186,-167"/>
<text text-anchor="start" x="189" y="-175.2" font-family="Helvetica,sans-Serif" font-size="11.00">serial[10]</text>
<polygon fill="none" stroke="black" points="10,-145 10,-167 186,-167 186,-145 10,-145"/>
<text text-anchor="start" x="30" y="-153.2" font-family="Helvetica,sans-Serif" font-size="11.00">lakeparametercode</text>
<polygon fill="none" stroke="black" points="186,-145 186,-167 260,-167 260,-145 186,-145"/>
<text text-anchor="start" x="189" y="-153.2" font-family="Helvetica,sans-Serif" font-size="11.00">varchar[20]</text>
<polygon fill="none" stroke="black" points="10,-123 10,-145 186,-145 186,-123 10,-123"/>
<text text-anchor="start" x="30" y="-131.2" font-family="Helvetica,sans-Serif" font-size="11.00">lakeparametershortname</text>
<polygon fill="none" stroke="black" points="186,-123 186,-145 260,-145 260,-123 186,-123"/>
<text text-anchor="start" x="189" y="-131.2" font-family="Helvetica,sans-Serif" font-size="11.00">varchar[40]</text>
<polygon fill="none" stroke="black" points="10,-101 10,-123 186,-123 186,-101 10,-101"/>
<text text-anchor="start" x="30" y="-109.2" font-family="Helvetica,sans-Serif" font-size="11.00">lakeparameter</text>
<polygon fill="none" stroke="black" points="186,-101 186,-123 260,-123 260,-101 186,-101"/>
<text text-anchor="start" x="189" y="-109.2" font-family="Helvetica,sans-Serif" font-size="11.00">varchar[80]</text>
<polygon fill="none" stroke="black" points="10,-79 10,-101 186,-101 186,-79 10,-79"/>
<text text-anchor="start" x="30" y="-87.2" font-family="Helvetica,sans-Serif" font-size="11.00">recdatecreated</text>
<polygon fill="none" stroke="black" points="186,-79 186,-101 260,-101 260,-79 186,-79"/>
<text text-anchor="start" x="189" y="-87.2" font-family="Helvetica,sans-Serif" font-size="11.00">timestamp[22]</text>
<polygon fill="none" stroke="black" points="10,-57 10,-79 186,-79 186,-57 10,-57"/>
<text text-anchor="start" x="30" y="-65.2" font-family="Helvetica,sans-Serif" font-size="11.00">recdatemodified</text>
<polygon fill="none" stroke="black" points="186,-57 186,-79 260,-79 260,-57 186,-57"/>
<text text-anchor="start" x="189" y="-65.2" font-family="Helvetica,sans-Serif" font-size="11.00">timestamp[22]</text>
<polygon fill="#ffffff" stroke="transparent" points="10,-39 10,-57 86,-57 86,-39 10,-39"/>
<polygon fill="none" stroke="black" points="10,-39 10,-57 86,-57 86,-39 10,-39"/>
<text text-anchor="start" x="13" y="-45.2" font-family="Helvetica,sans-Serif" font-size="11.00">&lt; 0</text>
<polygon fill="#ffffff" stroke="transparent" points="86,-39 86,-57 186,-57 186,-39 86,-39"/>
<polygon fill="none" stroke="black" points="86,-39 86,-57 186,-57 186,-39 86,-39"/>
<text text-anchor="start" x="144" y="-45.2" font-family="Helvetica,sans-Serif" font-size="11.00">21 rows</text>
<polygon fill="#ffffff" stroke="transparent" points="186,-39 186,-57 260,-57 260,-39 186,-39"/>
<polygon fill="none" stroke="black" points="186,-39 186,-57 260,-57 260,-39 186,-39"/>
<text text-anchor="start" x="241" y="-45.2" font-family="Helvetica,sans-Serif" font-size="11.00">1 &gt;</text>
<polygon fill="none" stroke="black" stroke-width="2" points="9,-38 9,-212 261,-212 261,-38 9,-38"/>
</a>
</g>
</g>
<!-- lakeparameters&#45;&gt;lakeparametertypes -->
<g id="edge1" class="edge">
<title>lakeparameters:w&#45;&gt;lakeparametertypes:e</title>
<path fill="none" stroke="black" d="M295.84,-178C284.41,-178 277.16,-178 261,-178"/>
<polygon fill="black" stroke="black" points="302.5,-178 310.5,-181.6 306.5,-178 310.5,-178 310.5,-178 310.5,-178 306.5,-178 310.5,-174.4 302.5,-178 302.5,-178"/>
<ellipse fill="none" stroke="black" cx="299.3" cy="-178" rx="3.2" ry="3.2"/>
</g>
</g>
</svg>
