<?xml version="1.0" encoding="UTF-8" standalone="no"?>
<!DOCTYPE svg PUBLIC "-//W3C//DTD SVG 1.1//EN"
 "http://www.w3.org/Graphics/SVG/1.1/DTD/svg11.dtd">
<!-- Generated by graphviz version 2.43.0 (0)
 -->
<!-- Title: oneDegreeRelationshipsDiagram Pages: 1 -->
<svg width="448pt" height="274pt"
 viewBox="0.00 0.00 448.00 274.00" xmlns="http://www.w3.org/2000/svg" xmlns:xlink="http://www.w3.org/1999/xlink">
<g id="graph0" class="graph" transform="scale(1 1) rotate(0) translate(4 270)">
<title>oneDegreeRelationshipsDiagram</title>
<polygon fill="#ffffff" stroke="transparent" points="-4,4 -4,-270 444,-270 444,4 -4,4"/>
<text text-anchor="middle" x="71.5" y="-7.2" font-family="Helvetica,sans-Serif" font-size="11.00">Generated by SchemaSpy</text>
<!-- lakeparameters -->
<g id="node1" class="node">
<title>lakeparameters</title>
<g id="a_node1"><a xlink:href="../../tables/lakeparameters.html" xlink:title="lakeparameters" target="_top">
<polygon fill="#ffffff" stroke="transparent" points="233,-48 233,-202 432,-202 432,-48 233,-48"/>
<polygon fill="#f5f5f5" stroke="transparent" points="235.5,-178 235.5,-200 430.5,-200 430.5,-178 235.5,-178"/>
<polygon fill="none" stroke="black" points="235.5,-178 235.5,-200 430.5,-200 430.5,-178 235.5,-178"/>
<text text-anchor="start" x="240.5" y="-187.2" font-family="Helvetica,sans-Serif" font-weight="bold" font-size="11.00">lakeparameters</text>
<text text-anchor="start" x="395.5" y="-186.2" font-family="Helvetica,sans-Serif" font-size="11.00">[table]</text>
<polygon fill="none" stroke="black" points="235.5,-156 235.5,-178 356.5,-178 356.5,-156 235.5,-156"/>
<image xlink:href="../../images/primaryKeys.png" width="11px" height="12px" preserveAspectRatio="xMinYMin meet" x="240.5" y="-173"/>
<text text-anchor="start" x="255.5" y="-164.2" font-family="Helvetica,sans-Serif" font-size="11.00">siteid</text>
<polygon fill="none" stroke="black" points="356.5,-156 356.5,-178 430.5,-178 430.5,-156 356.5,-156"/>
<text text-anchor="start" x="359.5" y="-164.2" font-family="Helvetica,sans-Serif" font-size="11.00">int4[10]</text>
<polygon fill="none" stroke="black" points="235.5,-134 235.5,-156 356.5,-156 356.5,-134 235.5,-134"/>
<image xlink:href="../../images/primaryKeys.png" width="11px" height="12px" preserveAspectRatio="xMinYMin meet" x="240.5" y="-151"/>
<text text-anchor="start" x="255.5" y="-142.2" font-family="Helvetica,sans-Serif" font-size="11.00">lakeparameterid</text>
<polygon fill="none" stroke="black" points="356.5,-134 356.5,-156 430.5,-156 430.5,-134 356.5,-134"/>
<text text-anchor="start" x="359.5" y="-142.2" font-family="Helvetica,sans-Serif" font-size="11.00">int4[10]</text>
<polygon fill="none" stroke="black" points="235.5,-112 235.5,-134 356.5,-134 356.5,-112 235.5,-112"/>
<text text-anchor="start" x="255.5" y="-120.2" font-family="Helvetica,sans-Serif" font-size="11.00">value</text>
<polygon fill="none" stroke="black" points="356.5,-112 356.5,-134 430.5,-134 430.5,-112 356.5,-112"/>
<text text-anchor="start" x="359.5" y="-120.2" font-family="Helvetica,sans-Serif" font-size="11.00">float8[17,17]</text>
<polygon fill="none" stroke="black" points="235.5,-90 235.5,-112 356.5,-112 356.5,-90 235.5,-90"/>
<text text-anchor="start" x="255.5" y="-98.2" font-family="Helvetica,sans-Serif" font-size="11.00">recdatecreated</text>
<polygon fill="none" stroke="black" points="356.5,-90 356.5,-112 430.5,-112 430.5,-90 356.5,-90"/>
<text text-anchor="start" x="359.5" y="-98.2" font-family="Helvetica,sans-Serif" font-size="11.00">timestamp[22]</text>
<polygon fill="none" stroke="black" points="235.5,-68 235.5,-90 356.5,-90 356.5,-68 235.5,-68"/>
<text text-anchor="start" x="255.5" y="-76.2" font-family="Helvetica,sans-Serif" font-size="11.00">recdatemodified</text>
<polygon fill="none" stroke="black" points="356.5,-68 356.5,-90 430.5,-90 430.5,-68 356.5,-68"/>
<text text-anchor="start" x="359.5" y="-76.2" font-family="Helvetica,sans-Serif" font-size="11.00">timestamp[22]</text>
<polygon fill="#ffffff" stroke="transparent" points="235.5,-50 235.5,-68 273.5,-68 273.5,-50 235.5,-50"/>
<polygon fill="none" stroke="black" points="235.5,-50 235.5,-68 273.5,-68 273.5,-50 235.5,-50"/>
<text text-anchor="start" x="238.5" y="-56.2" font-family="Helvetica,sans-Serif" font-size="11.00">&lt; 2</text>
<polygon fill="#ffffff" stroke="transparent" points="273.5,-50 273.5,-68 356.5,-68 356.5,-50 273.5,-50"/>
<polygon fill="none" stroke="black" points="273.5,-50 273.5,-68 356.5,-68 356.5,-50 273.5,-50"/>
<text text-anchor="start" x="293.5" y="-56.2" font-family="Helvetica,sans-Serif" font-size="11.00">23,151 rows</text>
<polygon fill="#ffffff" stroke="transparent" points="356.5,-50 356.5,-68 430.5,-68 430.5,-50 356.5,-50"/>
<polygon fill="none" stroke="black" points="356.5,-50 356.5,-68 430.5,-68 430.5,-50 356.5,-50"/>
<text text-anchor="start" x="411.5" y="-56.2" font-family="Helvetica,sans-Serif" font-size="11.00">0 &gt;</text>
<polygon fill="none" stroke="black" stroke-width="2" points="234,-49 234,-201 431,-201 431,-49 234,-49"/>
</a>
</g>
</g>
<!-- lakeparametertypes -->
<g id="node2" class="node">
<title>lakeparametertypes</title>
<g id="a_node2"><a xlink:href="../../tables/lakeparametertypes.html" xlink:title="lakeparametertypes" target="_top">
<polygon fill="#ffffff" stroke="transparent" points="8,-37 8,-117 184,-117 184,-37 8,-37"/>
<polygon fill="#f5f5f5" stroke="transparent" points="8,-95 8,-117 184,-117 184,-95 8,-95"/>
<polygon fill="none" stroke="black" points="8,-95 8,-117 184,-117 184,-95 8,-95"/>
<text text-anchor="start" x="13" y="-104.2" font-family="Helvetica,sans-Serif" font-weight="bold" font-size="11.00">lakeparametertypes</text>
<text text-anchor="start" x="149" y="-103.2" font-family="Helvetica,sans-Serif" font-size="11.00">[table]</text>
<polygon fill="none" stroke="black" points="8,-73 8,-95 184,-95 184,-73 8,-73"/>
<image xlink:href="../../images/primaryKeys.png" width="11px" height="12px" preserveAspectRatio="xMinYMin meet" x="13" y="-90"/>
<text text-anchor="start" x="28" y="-81.2" font-family="Helvetica,sans-Serif" font-size="11.00">lakeparameterid</text>
<polygon fill="none" stroke="black" points="8,-55 8,-73 184,-73 184,-55 8,-55"/>
<text text-anchor="start" x="11" y="-61.2" font-family="Helvetica,sans-Serif" font-size="11.00">...</text>
<polygon fill="#ffffff" stroke="transparent" points="8,-37 8,-55 69,-55 69,-37 8,-37"/>
<polygon fill="none" stroke="black" points="8,-37 8,-55 69,-55 69,-37 8,-37"/>
<text text-anchor="start" x="11" y="-43.2" font-family="Helvetica,sans-Serif" font-size="11.00"> &#160;</text>
<polygon fill="#ffffff" stroke="transparent" points="69,-37 69,-55 138,-55 138,-37 69,-37"/>
<polygon fill="none" stroke="black" points="69,-37 69,-55 138,-55 138,-37 69,-37"/>
<text text-anchor="start" x="96" y="-43.2" font-family="Helvetica,sans-Serif" font-size="11.00">21 rows</text>
<polygon fill="#ffffff" stroke="transparent" points="138,-37 138,-55 184,-55 184,-37 138,-37"/>
<polygon fill="none" stroke="black" points="138,-37 138,-55 184,-55 184,-37 138,-37"/>
<text text-anchor="start" x="165" y="-43.2" font-family="Helvetica,sans-Serif" font-size="11.00">1 &gt;</text>
</a>
</g>
</g>
<!-- lakeparameters&#45;&gt;lakeparametertypes -->
<g id="edge1" class="edge">
<title>lakeparameters:w&#45;&gt;lakeparametertypes:e</title>
<path fill="none" stroke="black" d="M220.83,-140.21C204.94,-125.83 213.91,-84 185,-84"/>
<polygon fill="black" stroke="black" points="226.95,-142.36 233.31,-148.4 230.72,-143.68 234.5,-145 234.5,-145 234.5,-145 230.72,-143.68 235.69,-141.6 226.95,-142.36 226.95,-142.36"/>
<ellipse fill="none" stroke="black" cx="223.93" cy="-141.3" rx="3.2" ry="3.2"/>
</g>
<!-- sites -->
<g id="node3" class="node">
<title>sites</title>
<g id="a_node3"><a xlink:href="../../tables/sites.html" xlink:title="sites" target="_top">
<polygon fill="#ffffff" stroke="transparent" points="36,-138 36,-262 156,-262 156,-138 36,-138"/>
<polygon fill="#f5f5f5" stroke="transparent" points="36,-240 36,-262 156,-262 156,-240 36,-240"/>
<polygon fill="none" stroke="black" points="36,-240 36,-262 156,-262 156,-240 36,-240"/>
<text text-anchor="start" x="41" y="-249.2" font-family="Helvetica,sans-Serif" font-weight="bold" font-size="11.00">sites</text>
<text text-anchor="start" x="121" y="-248.2" font-family="Helvetica,sans-Serif" font-size="11.00">[table]</text>
<polygon fill="none" stroke="black" points="36,-218 36,-240 156,-240 156,-218 36,-218"/>
<image xlink:href="../../images/primaryKeys.png" width="11px" height="12px" preserveAspectRatio="xMinYMin meet" x="41" y="-235"/>
<text text-anchor="start" x="56" y="-226.2" font-family="Helvetica,sans-Serif" font-size="11.00">siteid</text>
<polygon fill="#ffffff" stroke="transparent" points="36,-196 36,-218 156,-218 156,-196 36,-196"/>
<polygon fill="none" stroke="black" points="36,-196 36,-218 156,-218 156,-196 36,-196"/>
<text text-anchor="start" x="56" y="-204.2" font-family="Helvetica,sans-Serif" font-size="11.00">sitename</text>
<polygon fill="#ffffff" stroke="transparent" points="36,-174 36,-196 156,-196 156,-174 36,-174"/>
<polygon fill="none" stroke="black" points="36,-174 36,-196 156,-196 156,-174 36,-174"/>
<text text-anchor="start" x="56" y="-182.2" font-family="Helvetica,sans-Serif" font-size="11.00">geog</text>
<polygon fill="none" stroke="black" points="36,-156 36,-174 156,-174 156,-156 36,-156"/>
<text text-anchor="start" x="39" y="-162.2" font-family="Helvetica,sans-Serif" font-size="11.00">...</text>
<polygon fill="#ffffff" stroke="transparent" points="36,-138 36,-156 58,-156 58,-138 36,-138"/>
<polygon fill="none" stroke="black" points="36,-138 36,-156 58,-156 58,-138 36,-138"/>
<text text-anchor="start" x="39" y="-144.2" font-family="Helvetica,sans-Serif" font-size="11.00"> &#160;</text>
<polygon fill="#ffffff" stroke="transparent" points="58,-138 58,-156 129,-156 129,-138 58,-138"/>
<polygon fill="none" stroke="black" points="58,-138 58,-156 129,-156 129,-138 58,-138"/>
<text text-anchor="start" x="66" y="-144.2" font-family="Helvetica,sans-Serif" font-size="11.00">22,697 rows</text>
<polygon fill="#ffffff" stroke="transparent" points="129,-138 129,-156 156,-156 156,-138 129,-138"/>
<polygon fill="none" stroke="black" points="129,-138 129,-156 156,-156 156,-138 129,-138"/>
<text text-anchor="start" x="137" y="-144.2" font-family="Helvetica,sans-Serif" font-size="11.00">4 &gt;</text>
</a>
</g>
</g>
<!-- lakeparameters&#45;&gt;sites -->
<g id="edge2" class="edge">
<title>lakeparameters:w&#45;&gt;sites:e</title>
<path fill="none" stroke="black" d="M220.31,-169.66C192.21,-181.53 195.6,-229 157,-229"/>
<polygon fill="black" stroke="black" points="226.64,-168.48 235.16,-170.54 230.57,-167.74 234.5,-167 234.5,-167 234.5,-167 230.57,-167.74 233.84,-163.46 226.64,-168.48 226.64,-168.48"/>
<ellipse fill="none" stroke="black" cx="223.49" cy="-169.07" rx="3.2" ry="3.2"/>
</g>
</g>
</svg>
