<?xml version="1.0" encoding="UTF-8" standalone="no"?>
<!DOCTYPE svg PUBLIC "-//W3C//DTD SVG 1.1//EN"
 "http://www.w3.org/Graphics/SVG/1.1/DTD/svg11.dtd">
<!-- Generated by graphviz version 2.43.0 (0)
 -->
<!-- Title: oneDegreeRelationshipsDiagram Pages: 1 -->
<svg width="438pt" height="274pt"
 viewBox="0.00 0.00 438.00 274.00" xmlns="http://www.w3.org/2000/svg" xmlns:xlink="http://www.w3.org/1999/xlink">
<g id="graph0" class="graph" transform="scale(1 1) rotate(0) translate(4 270)">
<title>oneDegreeRelationshipsDiagram</title>
<polygon fill="#ffffff" stroke="transparent" points="-4,4 -4,-270 434,-270 434,4 -4,4"/>
<text text-anchor="middle" x="71.5" y="-7.2" font-family="Helvetica,sans-Serif" font-size="11.00">Generated by SchemaSpy</text>
<!-- leadmodels -->
<g id="node1" class="node">
<title>leadmodels</title>
<g id="a_node1"><a xlink:href="../../tables/leadmodels.html" xlink:title="leadmodels" target="_top">
<polygon fill="#ffffff" stroke="transparent" points="185,-114 185,-224 422,-224 422,-114 185,-114"/>
<polygon fill="#f5f5f5" stroke="transparent" points="187.5,-200 187.5,-222 420.5,-222 420.5,-200 187.5,-200"/>
<polygon fill="none" stroke="black" points="187.5,-200 187.5,-222 420.5,-222 420.5,-200 187.5,-200"/>
<text text-anchor="start" x="192.5" y="-209.2" font-family="Helvetica,sans-Serif" font-weight="bold" font-size="11.00">leadmodels</text>
<text text-anchor="start" x="385.5" y="-208.2" font-family="Helvetica,sans-Serif" font-size="11.00">[table]</text>
<polygon fill="none" stroke="black" points="187.5,-178 187.5,-200 333.5,-200 333.5,-178 187.5,-178"/>
<image xlink:href="../../images/foreignKeys.png" width="11px" height="12px" preserveAspectRatio="xMinYMin meet" x="192.5" y="-195"/>
<text text-anchor="start" x="207.5" y="-186.2" font-family="Helvetica,sans-Serif" font-size="11.00">pbbasisid</text>
<polygon fill="none" stroke="black" points="333.5,-178 333.5,-200 420.5,-200 420.5,-178 333.5,-178"/>
<text text-anchor="start" x="336.5" y="-186.2" font-family="Helvetica,sans-Serif" font-size="11.00">int4[10]</text>
<polygon fill="none" stroke="black" points="187.5,-156 187.5,-178 333.5,-178 333.5,-156 187.5,-156"/>
<image xlink:href="../../images/foreignKeys.png" width="11px" height="12px" preserveAspectRatio="xMinYMin meet" x="192.5" y="-173"/>
<text text-anchor="start" x="207.5" y="-164.2" font-family="Helvetica,sans-Serif" font-size="11.00">analysisunitid</text>
<polygon fill="none" stroke="black" points="333.5,-156 333.5,-178 420.5,-178 420.5,-156 333.5,-156"/>
<text text-anchor="start" x="336.5" y="-164.2" font-family="Helvetica,sans-Serif" font-size="11.00">int4[10]</text>
<polygon fill="none" stroke="black" points="187.5,-134 187.5,-156 333.5,-156 333.5,-134 187.5,-134"/>
<text text-anchor="start" x="207.5" y="-142.2" font-family="Helvetica,sans-Serif" font-size="11.00">cumulativeinventory</text>
<polygon fill="none" stroke="black" points="333.5,-134 333.5,-156 420.5,-156 420.5,-134 333.5,-134"/>
<text text-anchor="start" x="336.5" y="-142.2" font-family="Helvetica,sans-Serif" font-size="11.00">numeric[131089]</text>
<polygon fill="#ffffff" stroke="transparent" points="187.5,-116 187.5,-134 251.5,-134 251.5,-116 187.5,-116"/>
<polygon fill="none" stroke="black" points="187.5,-116 187.5,-134 251.5,-134 251.5,-116 187.5,-116"/>
<text text-anchor="start" x="190.5" y="-122.2" font-family="Helvetica,sans-Serif" font-size="11.00">&lt; 2</text>
<polygon fill="#ffffff" stroke="transparent" points="251.5,-116 251.5,-134 333.5,-134 333.5,-116 251.5,-116"/>
<polygon fill="none" stroke="black" points="251.5,-116 251.5,-134 333.5,-134 333.5,-116 251.5,-116"/>
<text text-anchor="start" x="297.5" y="-122.2" font-family="Helvetica,sans-Serif" font-size="11.00">0 rows</text>
<polygon fill="#ffffff" stroke="transparent" points="333.5,-116 333.5,-134 420.5,-134 420.5,-116 333.5,-116"/>
<polygon fill="none" stroke="black" points="333.5,-116 333.5,-134 420.5,-134 420.5,-116 333.5,-116"/>
<text text-anchor="start" x="401.5" y="-122.2" font-family="Helvetica,sans-Serif" font-size="11.00">0 &gt;</text>
<polygon fill="none" stroke="black" stroke-width="2" points="186,-115 186,-223 421,-223 421,-115 186,-115"/>
</a>
</g>
</g>
<!-- analysisunits -->
<g id="node2" class="node">
<title>analysisunits</title>
<g id="a_node2"><a xlink:href="../../tables/analysisunits.html" xlink:title="analysisunits" target="_top">
<polygon fill="#ffffff" stroke="transparent" points="8,-37 8,-161 136,-161 136,-37 8,-37"/>
<polygon fill="#f5f5f5" stroke="transparent" points="8,-139 8,-161 136,-161 136,-139 8,-139"/>
<polygon fill="none" stroke="black" points="8,-139 8,-161 136,-161 136,-139 8,-139"/>
<text text-anchor="start" x="13" y="-148.2" font-family="Helvetica,sans-Serif" font-weight="bold" font-size="11.00">analysisunits</text>
<text text-anchor="start" x="101" y="-147.2" font-family="Helvetica,sans-Serif" font-size="11.00">[table]</text>
<polygon fill="none" stroke="black" points="8,-117 8,-139 136,-139 136,-117 8,-117"/>
<image xlink:href="../../images/primaryKeys.png" width="11px" height="12px" preserveAspectRatio="xMinYMin meet" x="13" y="-134"/>
<text text-anchor="start" x="28" y="-125.2" font-family="Helvetica,sans-Serif" font-size="11.00">analysisunitid</text>
<polygon fill="#ffffff" stroke="transparent" points="8,-95 8,-117 136,-117 136,-95 8,-95"/>
<polygon fill="none" stroke="black" points="8,-95 8,-117 136,-117 136,-95 8,-95"/>
<image xlink:href="../../images/foreignKeys.png" width="11px" height="12px" preserveAspectRatio="xMinYMin meet" x="13" y="-112"/>
<text text-anchor="start" x="28" y="-103.2" font-family="Helvetica,sans-Serif" font-size="11.00">collectionunitid</text>
<polygon fill="#ffffff" stroke="transparent" points="8,-73 8,-95 136,-95 136,-73 8,-73"/>
<polygon fill="none" stroke="black" points="8,-73 8,-95 136,-95 136,-73 8,-73"/>
<image xlink:href="../../images/foreignKeys.png" width="11px" height="12px" preserveAspectRatio="xMinYMin meet" x="13" y="-90"/>
<text text-anchor="start" x="28" y="-81.2" font-family="Helvetica,sans-Serif" font-size="11.00">faciesid</text>
<polygon fill="none" stroke="black" points="8,-55 8,-73 136,-73 136,-55 8,-55"/>
<text text-anchor="start" x="11" y="-61.2" font-family="Helvetica,sans-Serif" font-size="11.00">...</text>
<polygon fill="#ffffff" stroke="transparent" points="8,-37 8,-55 33,-55 33,-37 8,-37"/>
<polygon fill="none" stroke="black" points="8,-37 8,-55 33,-55 33,-37 8,-37"/>
<text text-anchor="start" x="11" y="-43.2" font-family="Helvetica,sans-Serif" font-size="11.00">&lt; 2</text>
<polygon fill="#ffffff" stroke="transparent" points="33,-37 33,-55 106,-55 106,-37 33,-37"/>
<polygon fill="none" stroke="black" points="33,-37 33,-55 106,-55 106,-37 33,-37"/>
<text text-anchor="start" x="37" y="-43.2" font-family="Helvetica,sans-Serif" font-size="11.00">486,580 rows</text>
<polygon fill="#ffffff" stroke="transparent" points="106,-37 106,-55 136,-55 136,-37 106,-37"/>
<polygon fill="none" stroke="black" points="106,-37 106,-55 136,-55 136,-37 106,-37"/>
<text text-anchor="start" x="111" y="-43.2" font-family="Helvetica,sans-Serif" font-size="11.00">10 &gt;</text>
</a>
</g>
</g>
<!-- leadmodels&#45;&gt;analysisunits -->
<g id="edge1" class="edge">
<title>leadmodels:w&#45;&gt;analysisunits:e</title>
<path fill="none" stroke="black" d="M172.74,-162.53C159.7,-152.28 159.1,-128 137,-128"/>
<polygon fill="black" stroke="black" points="178.89,-164.53 185.39,-170.42 182.7,-165.76 186.5,-167 186.5,-167 186.5,-167 182.7,-165.76 187.61,-163.58 178.89,-164.53 178.89,-164.53"/>
<ellipse fill="none" stroke="black" cx="175.85" cy="-163.54" rx="3.2" ry="3.2"/>
</g>
<!-- leadmodelbasis -->
<g id="node3" class="node">
<title>leadmodelbasis</title>
<g id="a_node3"><a xlink:href="../../tables/leadmodelbasis.html" xlink:title="leadmodelbasis" target="_top">
<polygon fill="#ffffff" stroke="transparent" points="9,-182 9,-262 135,-262 135,-182 9,-182"/>
<polygon fill="#f5f5f5" stroke="transparent" points="9,-240 9,-262 135,-262 135,-240 9,-240"/>
<polygon fill="none" stroke="black" points="9,-240 9,-262 135,-262 135,-240 9,-240"/>
<text text-anchor="start" x="14" y="-249.2" font-family="Helvetica,sans-Serif" font-weight="bold" font-size="11.00">leadmodelbasis</text>
<text text-anchor="start" x="100" y="-248.2" font-family="Helvetica,sans-Serif" font-size="11.00">[table]</text>
<polygon fill="none" stroke="black" points="9,-218 9,-240 135,-240 135,-218 9,-218"/>
<image xlink:href="../../images/primaryKeys.png" width="11px" height="12px" preserveAspectRatio="xMinYMin meet" x="14" y="-235"/>
<text text-anchor="start" x="35" y="-226.2" font-family="Helvetica,sans-Serif" font-size="11.00">pbbasisid</text>
<polygon fill="none" stroke="black" points="9,-200 9,-218 135,-218 135,-200 9,-200"/>
<text text-anchor="start" x="12" y="-206.2" font-family="Helvetica,sans-Serif" font-size="11.00">...</text>
<polygon fill="#ffffff" stroke="transparent" points="9,-182 9,-200 48,-200 48,-182 9,-182"/>
<polygon fill="none" stroke="black" points="9,-182 9,-200 48,-200 48,-182 9,-182"/>
<text text-anchor="start" x="12" y="-188.2" font-family="Helvetica,sans-Serif" font-size="11.00"> &#160;</text>
<polygon fill="#ffffff" stroke="transparent" points="48,-182 48,-200 100,-200 100,-182 48,-182"/>
<polygon fill="none" stroke="black" points="48,-182 48,-200 100,-200 100,-182 48,-182"/>
<text text-anchor="start" x="64" y="-188.2" font-family="Helvetica,sans-Serif" font-size="11.00">6 rows</text>
<polygon fill="#ffffff" stroke="transparent" points="100,-182 100,-200 135,-200 135,-182 100,-182"/>
<polygon fill="none" stroke="black" points="100,-182 100,-200 135,-200 135,-182 100,-182"/>
<text text-anchor="start" x="116" y="-188.2" font-family="Helvetica,sans-Serif" font-size="11.00">1 &gt;</text>
</a>
</g>
</g>
<!-- leadmodels&#45;&gt;leadmodelbasis -->
<g id="edge2" class="edge">
<title>leadmodels:w&#45;&gt;leadmodelbasis:e</title>
<path fill="none" stroke="black" d="M172.44,-193.59C159.15,-204.1 158.59,-229 136,-229"/>
<polygon fill="black" stroke="black" points="178.89,-191.48 187.62,-192.42 182.7,-190.24 186.5,-189 186.5,-189 186.5,-189 182.7,-190.24 185.38,-185.58 178.89,-191.48 178.89,-191.48"/>
<ellipse fill="none" stroke="black" cx="175.85" cy="-192.48" rx="3.2" ry="3.2"/>
</g>
</g>
</svg>
