<?xml version="1.0" encoding="UTF-8" standalone="no"?>
<!DOCTYPE svg PUBLIC "-//W3C//DTD SVG 1.1//EN"
 "http://www.w3.org/Graphics/SVG/1.1/DTD/svg11.dtd">
<!-- Generated by graphviz version 2.43.0 (0)
 -->
<!-- Title: twoDegreesRelationshipsDiagramImplied Pages: 1 -->
<svg width="711pt" height="612pt"
 viewBox="0.00 0.00 711.00 612.00" xmlns="http://www.w3.org/2000/svg" xmlns:xlink="http://www.w3.org/1999/xlink">
<g id="graph0" class="graph" transform="scale(1 1) rotate(0) translate(4 608)">
<title>twoDegreesRelationshipsDiagramImplied</title>
<polygon fill="#ffffff" stroke="transparent" points="-4,4 -4,-608 707,-608 707,4 -4,4"/>
<text text-anchor="middle" x="71.5" y="-7.2" font-family="Helvetica,sans-Serif" font-size="11.00">Generated by SchemaSpy</text>
<!-- analysisunits -->
<g id="node1" class="node">
<title>analysisunits</title>
<g id="a_node1"><a xlink:href="../../tables/analysisunits.html" xlink:title="analysisunits" target="_top">
<polygon fill="#ffffff" stroke="transparent" points="401,-542 401,-600 517,-600 517,-542 401,-542"/>
<polygon fill="#f5f5f5" stroke="transparent" points="401,-578 401,-600 517,-600 517,-578 401,-578"/>
<polygon fill="none" stroke="black" points="401,-578 401,-600 517,-600 517,-578 401,-578"/>
<text text-anchor="start" x="406" y="-587.2" font-family="Helvetica,sans-Serif" font-weight="bold" font-size="11.00">analysisunits</text>
<text text-anchor="start" x="482" y="-586.2" font-family="Helvetica,sans-Serif" font-size="11.00">[table]</text>
<polygon fill="none" stroke="black" points="401,-560 401,-578 517,-578 517,-560 401,-560"/>
<text text-anchor="start" x="404" y="-566.2" font-family="Helvetica,sans-Serif" font-size="11.00">...</text>
<polygon fill="#ffffff" stroke="transparent" points="401,-542 401,-560 423,-560 423,-542 401,-542"/>
<polygon fill="none" stroke="black" points="401,-542 401,-560 423,-560 423,-542 401,-542"/>
<text text-anchor="start" x="404" y="-548.2" font-family="Helvetica,sans-Serif" font-size="11.00">&lt; 2</text>
<polygon fill="#ffffff" stroke="transparent" points="423,-542 423,-560 495,-560 495,-542 423,-542"/>
<polygon fill="none" stroke="black" points="423,-542 423,-560 495,-560 495,-542 423,-542"/>
<text text-anchor="start" x="426" y="-548.2" font-family="Helvetica,sans-Serif" font-size="11.00">449,200 rows</text>
<polygon fill="#ffffff" stroke="transparent" points="495,-542 495,-560 517,-560 517,-542 495,-542"/>
<polygon fill="none" stroke="black" points="495,-542 495,-560 517,-560 517,-542 495,-542"/>
<text text-anchor="start" x="498" y="-548.2" font-family="Helvetica,sans-Serif" font-size="11.00">9 &gt;</text>
</a>
</g>
</g>
<!-- collectionunits -->
<g id="node2" class="node">
<title>collectionunits</title>
<g id="a_node2"><a xlink:href="../../tables/collectionunits.html" xlink:title="collectionunits" target="_top">
<polygon fill="#ffffff" stroke="transparent" points="181,-250 181,-418 303,-418 303,-250 181,-250"/>
<polygon fill="#f5f5f5" stroke="transparent" points="181,-396 181,-418 303,-418 303,-396 181,-396"/>
<polygon fill="none" stroke="black" points="181,-396 181,-418 303,-418 303,-396 181,-396"/>
<text text-anchor="start" x="186" y="-405.2" font-family="Helvetica,sans-Serif" font-weight="bold" font-size="11.00">collectionunits</text>
<text text-anchor="start" x="268" y="-404.2" font-family="Helvetica,sans-Serif" font-size="11.00">[table]</text>
<polygon fill="none" stroke="black" points="181,-374 181,-396 303,-396 303,-374 181,-374"/>
<image xlink:href="../../images/primaryKeys.png" width="11px" height="12px" preserveAspectRatio="xMinYMin meet" x="186" y="-391"/>
<text text-anchor="start" x="202" y="-382.2" font-family="Helvetica,sans-Serif" font-size="11.00">collectionunitid</text>
<polygon fill="#ffffff" stroke="transparent" points="181,-352 181,-374 303,-374 303,-352 181,-352"/>
<polygon fill="none" stroke="black" points="181,-352 181,-374 303,-374 303,-352 181,-352"/>
<image xlink:href="../../images/foreignKeys.png" width="11px" height="12px" preserveAspectRatio="xMinYMin meet" x="186" y="-369"/>
<text text-anchor="start" x="202" y="-360.2" font-family="Helvetica,sans-Serif" font-size="11.00">siteid</text>
<polygon fill="none" stroke="black" points="181,-330 181,-352 303,-352 303,-330 181,-330"/>
<image xlink:href="../../images/foreignKeys.png" width="11px" height="12px" preserveAspectRatio="xMinYMin meet" x="186" y="-347"/>
<text text-anchor="start" x="202" y="-338.2" font-family="Helvetica,sans-Serif" font-size="11.00">colltypeid</text>
<polygon fill="#ffffff" stroke="transparent" points="181,-308 181,-330 303,-330 303,-308 181,-308"/>
<polygon fill="none" stroke="black" points="181,-308 181,-330 303,-330 303,-308 181,-308"/>
<image xlink:href="../../images/foreignKeys.png" width="11px" height="12px" preserveAspectRatio="xMinYMin meet" x="186" y="-325"/>
<text text-anchor="start" x="202" y="-316.2" font-family="Helvetica,sans-Serif" font-size="11.00">depenvtid</text>
<polygon fill="none" stroke="black" points="181,-286 181,-308 303,-308 303,-286 181,-286"/>
<image xlink:href="../../images/foreignKeys.png" width="11px" height="12px" preserveAspectRatio="xMinYMin meet" x="186" y="-303"/>
<text text-anchor="start" x="202" y="-294.2" font-family="Helvetica,sans-Serif" font-size="11.00">substrateid</text>
<polygon fill="none" stroke="black" points="181,-268 181,-286 303,-286 303,-268 181,-268"/>
<text text-anchor="start" x="184" y="-274.2" font-family="Helvetica,sans-Serif" font-size="11.00">...</text>
<polygon fill="#ffffff" stroke="transparent" points="181,-250 181,-268 209,-268 209,-250 181,-250"/>
<polygon fill="none" stroke="black" points="181,-250 181,-268 209,-268 209,-250 181,-250"/>
<text text-anchor="start" x="184" y="-256.2" font-family="Helvetica,sans-Serif" font-size="11.00">&lt; 4</text>
<polygon fill="#ffffff" stroke="transparent" points="209,-250 209,-268 278,-268 278,-250 209,-250"/>
<polygon fill="none" stroke="black" points="209,-250 209,-268 278,-268 278,-250 209,-250"/>
<text text-anchor="start" x="215" y="-256.2" font-family="Helvetica,sans-Serif" font-size="11.00">32,827 rows</text>
<polygon fill="#ffffff" stroke="transparent" points="278,-250 278,-268 303,-268 303,-250 278,-250"/>
<polygon fill="none" stroke="black" points="278,-250 278,-268 303,-268 303,-250 278,-250"/>
<text text-anchor="start" x="284" y="-256.2" font-family="Helvetica,sans-Serif" font-size="11.00">6 &gt;</text>
</a>
</g>
</g>
<!-- analysisunits&#45;&gt;collectionunits -->
<g id="edge1" class="edge">
<title>analysisunits:w&#45;&gt;collectionunits:e</title>
<path fill="none" stroke="black" d="M385.52,-567.71C366.68,-563.91 358.28,-551.73 344,-532 304.31,-477.14 371.71,-385 304,-385"/>
<polygon fill="black" stroke="black" points="392.03,-568.29 399.68,-572.59 396.02,-568.65 400,-569 400,-569 400,-569 396.02,-568.65 400.32,-565.41 392.03,-568.29 392.03,-568.29"/>
<ellipse fill="none" stroke="black" cx="388.84" cy="-568.01" rx="3.2" ry="3.2"/>
</g>
<!-- collectiontypes -->
<g id="node4" class="node">
<title>collectiontypes</title>
<g id="a_node4"><a xlink:href="../../tables/collectiontypes.html" xlink:title="collectiontypes" target="_top">
<polygon fill="#ffffff" stroke="transparent" points="8,-343 8,-401 132,-401 132,-343 8,-343"/>
<polygon fill="#f5f5f5" stroke="transparent" points="8,-379 8,-401 132,-401 132,-379 8,-379"/>
<polygon fill="none" stroke="black" points="8,-379 8,-401 132,-401 132,-379 8,-379"/>
<text text-anchor="start" x="13" y="-388.2" font-family="Helvetica,sans-Serif" font-weight="bold" font-size="11.00">collectiontypes</text>
<text text-anchor="start" x="97" y="-387.2" font-family="Helvetica,sans-Serif" font-size="11.00">[table]</text>
<polygon fill="none" stroke="black" points="8,-361 8,-379 132,-379 132,-361 8,-361"/>
<text text-anchor="start" x="11" y="-367.2" font-family="Helvetica,sans-Serif" font-size="11.00">...</text>
<polygon fill="#ffffff" stroke="transparent" points="8,-343 8,-361 43,-361 43,-343 8,-343"/>
<polygon fill="none" stroke="black" points="8,-343 8,-361 43,-361 43,-343 8,-343"/>
<text text-anchor="start" x="11" y="-349.2" font-family="Helvetica,sans-Serif" font-size="11.00"> &#160;</text>
<polygon fill="#ffffff" stroke="transparent" points="43,-343 43,-361 99,-361 99,-343 43,-343"/>
<polygon fill="none" stroke="black" points="43,-343 43,-361 99,-361 99,-343 43,-343"/>
<text text-anchor="start" x="57" y="-349.2" font-family="Helvetica,sans-Serif" font-size="11.00">11 rows</text>
<polygon fill="#ffffff" stroke="transparent" points="99,-343 99,-361 132,-361 132,-343 99,-343"/>
<polygon fill="none" stroke="black" points="99,-343 99,-361 132,-361 132,-343 99,-343"/>
<text text-anchor="start" x="113" y="-349.2" font-family="Helvetica,sans-Serif" font-size="11.00">1 &gt;</text>
</a>
</g>
</g>
<!-- collectionunits&#45;&gt;collectiontypes -->
<g id="edge3" class="edge">
<title>collectionunits:w&#45;&gt;collectiontypes:e</title>
<path fill="none" stroke="black" d="M166.1,-345.28C154.91,-353.35 151.6,-370 133,-370"/>
<polygon fill="black" stroke="black" points="172.35,-343.35 181.06,-344.44 176.18,-342.18 180,-341 180,-341 180,-341 176.18,-342.18 178.94,-337.56 172.35,-343.35 172.35,-343.35"/>
<ellipse fill="none" stroke="black" cx="169.3" cy="-344.29" rx="3.2" ry="3.2"/>
</g>
<!-- depenvttypes -->
<g id="node5" class="node">
<title>depenvttypes</title>
<g id="a_node5"><a xlink:href="../../tables/depenvttypes.html" xlink:title="depenvttypes" target="_top">
<polygon fill="#ffffff" stroke="transparent" points="12.5,-264 12.5,-322 127.5,-322 127.5,-264 12.5,-264"/>
<polygon fill="#f5f5f5" stroke="transparent" points="13,-300 13,-322 128,-322 128,-300 13,-300"/>
<polygon fill="none" stroke="black" points="13,-300 13,-322 128,-322 128,-300 13,-300"/>
<text text-anchor="start" x="18" y="-309.2" font-family="Helvetica,sans-Serif" font-weight="bold" font-size="11.00">depenvttypes</text>
<text text-anchor="start" x="93" y="-308.2" font-family="Helvetica,sans-Serif" font-size="11.00">[table]</text>
<polygon fill="none" stroke="black" points="13,-282 13,-300 128,-300 128,-282 13,-282"/>
<text text-anchor="start" x="16" y="-288.2" font-family="Helvetica,sans-Serif" font-size="11.00">...</text>
<polygon fill="#ffffff" stroke="transparent" points="13,-264 13,-282 45,-282 45,-264 13,-264"/>
<polygon fill="none" stroke="black" points="13,-264 13,-282 45,-282 45,-264 13,-264"/>
<text text-anchor="start" x="16" y="-270.2" font-family="Helvetica,sans-Serif" font-size="11.00">&lt; 1</text>
<polygon fill="#ffffff" stroke="transparent" points="45,-264 45,-282 101,-282 101,-264 45,-264"/>
<polygon fill="none" stroke="black" points="45,-264 45,-282 101,-282 101,-264 45,-264"/>
<text text-anchor="start" x="53" y="-270.2" font-family="Helvetica,sans-Serif" font-size="11.00">222 rows</text>
<polygon fill="#ffffff" stroke="transparent" points="101,-264 101,-282 128,-282 128,-264 101,-264"/>
<polygon fill="none" stroke="black" points="101,-264 101,-282 128,-282 128,-264 101,-264"/>
<text text-anchor="start" x="109" y="-270.2" font-family="Helvetica,sans-Serif" font-size="11.00">2 &gt;</text>
</a>
</g>
</g>
<!-- collectionunits&#45;&gt;depenvttypes -->
<g id="edge4" class="edge">
<title>collectionunits:w&#45;&gt;depenvttypes:e</title>
<path fill="none" stroke="black" d="M165.9,-315.34C153.1,-307.75 149,-291 129,-291"/>
<polygon fill="black" stroke="black" points="172.26,-316.99 179.1,-322.48 176.13,-317.99 180,-319 180,-319 180,-319 176.13,-317.99 180.9,-315.52 172.26,-316.99 172.26,-316.99"/>
<ellipse fill="none" stroke="black" cx="169.16" cy="-316.19" rx="3.2" ry="3.2"/>
</g>
<!-- sites -->
<g id="node6" class="node">
<title>sites</title>
<g id="a_node6"><a xlink:href="../../tables/sites.html" xlink:title="sites" target="_top">
<polygon fill="#ffffff" stroke="transparent" points="19.5,-422 19.5,-480 120.5,-480 120.5,-422 19.5,-422"/>
<polygon fill="#f5f5f5" stroke="transparent" points="20,-458 20,-480 121,-480 121,-458 20,-458"/>
<polygon fill="none" stroke="black" points="20,-458 20,-480 121,-480 121,-458 20,-458"/>
<text text-anchor="start" x="25" y="-467.2" font-family="Helvetica,sans-Serif" font-weight="bold" font-size="11.00">sites</text>
<text text-anchor="start" x="86" y="-466.2" font-family="Helvetica,sans-Serif" font-size="11.00">[table]</text>
<polygon fill="none" stroke="black" points="20,-440 20,-458 121,-458 121,-440 20,-440"/>
<text text-anchor="start" x="23" y="-446.2" font-family="Helvetica,sans-Serif" font-size="11.00">...</text>
<polygon fill="#ffffff" stroke="transparent" points="20,-422 20,-440 33,-440 33,-422 20,-422"/>
<polygon fill="none" stroke="black" points="20,-422 20,-440 33,-440 33,-422 20,-422"/>
<text text-anchor="start" x="23" y="-428.2" font-family="Helvetica,sans-Serif" font-size="11.00"> &#160;</text>
<polygon fill="#ffffff" stroke="transparent" points="33,-422 33,-440 99,-440 99,-422 33,-422"/>
<polygon fill="none" stroke="black" points="33,-422 33,-440 99,-440 99,-422 33,-422"/>
<text text-anchor="start" x="36" y="-428.2" font-family="Helvetica,sans-Serif" font-size="11.00">21,776 rows</text>
<polygon fill="#ffffff" stroke="transparent" points="99,-422 99,-440 121,-440 121,-422 99,-422"/>
<polygon fill="none" stroke="black" points="99,-422 99,-440 121,-440 121,-422 99,-422"/>
<text text-anchor="start" x="102" y="-428.2" font-family="Helvetica,sans-Serif" font-size="11.00">4 &gt;</text>
</a>
</g>
</g>
<!-- collectionunits&#45;&gt;sites -->
<g id="edge5" class="edge">
<title>collectionunits:w&#45;&gt;sites:e</title>
<path fill="none" stroke="black" d="M165.83,-366.92C141.38,-383.74 162.16,-449 122,-449"/>
<polygon fill="black" stroke="black" points="172.29,-365.13 180.96,-366.47 176.14,-364.07 180,-363 180,-363 180,-363 176.14,-364.07 179.04,-359.53 172.29,-365.13 172.29,-365.13"/>
<ellipse fill="none" stroke="black" cx="169.21" cy="-365.99" rx="3.2" ry="3.2"/>
</g>
<!-- rocktypes -->
<g id="node7" class="node">
<title>rocktypes</title>
<g id="a_node7"><a xlink:href="../../tables/rocktypes.html" xlink:title="rocktypes" target="_top">
<polygon fill="#ffffff" stroke="transparent" points="22,-185 22,-243 118,-243 118,-185 22,-185"/>
<polygon fill="#f5f5f5" stroke="transparent" points="22,-221 22,-243 118,-243 118,-221 22,-221"/>
<polygon fill="none" stroke="black" points="22,-221 22,-243 118,-243 118,-221 22,-221"/>
<text text-anchor="start" x="27" y="-230.2" font-family="Helvetica,sans-Serif" font-weight="bold" font-size="11.00">rocktypes</text>
<text text-anchor="start" x="83" y="-229.2" font-family="Helvetica,sans-Serif" font-size="11.00">[table]</text>
<polygon fill="none" stroke="black" points="22,-203 22,-221 118,-221 118,-203 22,-203"/>
<text text-anchor="start" x="25" y="-209.2" font-family="Helvetica,sans-Serif" font-size="11.00">...</text>
<polygon fill="#ffffff" stroke="transparent" points="22,-185 22,-203 44,-203 44,-185 22,-185"/>
<polygon fill="none" stroke="black" points="22,-185 22,-203 44,-203 44,-185 22,-185"/>
<text text-anchor="start" x="25" y="-191.2" font-family="Helvetica,sans-Serif" font-size="11.00">&lt; 1</text>
<polygon fill="#ffffff" stroke="transparent" points="44,-185 44,-203 95,-203 95,-185 44,-185"/>
<polygon fill="none" stroke="black" points="44,-185 44,-203 95,-203 95,-185 44,-185"/>
<text text-anchor="start" x="47" y="-191.2" font-family="Helvetica,sans-Serif" font-size="11.00">206 rows</text>
<polygon fill="#ffffff" stroke="transparent" points="95,-185 95,-203 118,-203 118,-185 95,-185"/>
<polygon fill="none" stroke="black" points="95,-185 95,-203 118,-203 118,-185 95,-185"/>
<text text-anchor="start" x="99" y="-191.2" font-family="Helvetica,sans-Serif" font-size="11.00">2 &gt;</text>
</a>
</g>
</g>
<!-- collectionunits&#45;&gt;rocktypes -->
<g id="edge6" class="edge">
<title>collectionunits:w&#45;&gt;rocktypes:e</title>
<path fill="none" stroke="black" d="M165.94,-293.35C140.27,-277.08 159.69,-212 119,-212"/>
<polygon fill="black" stroke="black" points="172.26,-294.99 179.1,-300.48 176.13,-295.99 180,-297 180,-297 180,-297 176.13,-295.99 180.9,-293.52 172.26,-294.99 172.26,-294.99"/>
<ellipse fill="none" stroke="black" cx="169.16" cy="-294.18" rx="3.2" ry="3.2"/>
</g>
<!-- chronologies -->
<g id="node3" class="node">
<title>chronologies</title>
<g id="a_node3"><a xlink:href="../../tables/chronologies.html" xlink:title="chronologies" target="_top">
<polygon fill="#ffffff" stroke="transparent" points="402,-463 402,-521 516,-521 516,-463 402,-463"/>
<polygon fill="#f5f5f5" stroke="transparent" points="402,-499 402,-521 516,-521 516,-499 402,-499"/>
<polygon fill="none" stroke="black" points="402,-499 402,-521 516,-521 516,-499 402,-499"/>
<text text-anchor="start" x="407" y="-508.2" font-family="Helvetica,sans-Serif" font-weight="bold" font-size="11.00">chronologies</text>
<text text-anchor="start" x="481" y="-507.2" font-family="Helvetica,sans-Serif" font-size="11.00">[table]</text>
<polygon fill="none" stroke="black" points="402,-481 402,-499 516,-499 516,-481 402,-481"/>
<text text-anchor="start" x="405" y="-487.2" font-family="Helvetica,sans-Serif" font-size="11.00">...</text>
<polygon fill="#ffffff" stroke="transparent" points="402,-463 402,-481 426,-481 426,-463 402,-463"/>
<polygon fill="none" stroke="black" points="402,-463 402,-481 426,-481 426,-463 402,-463"/>
<text text-anchor="start" x="405" y="-469.2" font-family="Helvetica,sans-Serif" font-size="11.00">&lt; 3</text>
<polygon fill="#ffffff" stroke="transparent" points="426,-463 426,-481 493,-481 493,-463 426,-463"/>
<polygon fill="none" stroke="black" points="426,-463 426,-481 493,-481 493,-463 426,-463"/>
<text text-anchor="start" x="430" y="-469.2" font-family="Helvetica,sans-Serif" font-size="11.00">31,133 rows</text>
<polygon fill="#ffffff" stroke="transparent" points="493,-463 493,-481 516,-481 516,-463 493,-463"/>
<polygon fill="none" stroke="black" points="493,-463 493,-481 516,-481 516,-463 493,-463"/>
<text text-anchor="start" x="497" y="-469.2" font-family="Helvetica,sans-Serif" font-size="11.00">3 &gt;</text>
</a>
</g>
</g>
<!-- chronologies&#45;&gt;collectionunits -->
<g id="edge2" class="edge">
<title>chronologies:w&#45;&gt;collectionunits:e</title>
<path fill="none" stroke="black" d="M386.58,-488.52C368.12,-484.2 361.05,-470.82 344,-453 319.76,-427.67 339.06,-385 304,-385"/>
<polygon fill="black" stroke="black" points="393.04,-489.18 400.63,-493.58 397.02,-489.59 401,-490 401,-490 401,-490 397.02,-489.59 401.37,-486.42 393.04,-489.18 393.04,-489.18"/>
<ellipse fill="none" stroke="black" cx="389.86" cy="-488.86" rx="3.2" ry="3.2"/>
</g>
<!-- collectors -->
<g id="node8" class="node">
<title>collectors</title>
<g id="a_node8"><a xlink:href="../../tables/collectors.html" xlink:title="collectors" target="_top">
<polygon fill="#ffffff" stroke="transparent" points="408.5,-384 408.5,-442 509.5,-442 509.5,-384 408.5,-384"/>
<polygon fill="#f5f5f5" stroke="transparent" points="409,-420 409,-442 510,-442 510,-420 409,-420"/>
<polygon fill="none" stroke="black" points="409,-420 409,-442 510,-442 510,-420 409,-420"/>
<text text-anchor="start" x="414" y="-429.2" font-family="Helvetica,sans-Serif" font-weight="bold" font-size="11.00">collectors</text>
<text text-anchor="start" x="475" y="-428.2" font-family="Helvetica,sans-Serif" font-size="11.00">[table]</text>
<polygon fill="none" stroke="black" points="409,-402 409,-420 510,-420 510,-402 409,-402"/>
<text text-anchor="start" x="412" y="-408.2" font-family="Helvetica,sans-Serif" font-size="11.00">...</text>
<polygon fill="#ffffff" stroke="transparent" points="409,-384 409,-402 431,-402 431,-384 409,-384"/>
<polygon fill="none" stroke="black" points="409,-384 409,-402 431,-402 431,-384 409,-384"/>
<text text-anchor="start" x="412" y="-390.2" font-family="Helvetica,sans-Serif" font-size="11.00">&lt; 2</text>
<polygon fill="#ffffff" stroke="transparent" points="431,-384 431,-402 497,-402 497,-384 431,-384"/>
<polygon fill="none" stroke="black" points="431,-384 431,-402 497,-402 497,-384 431,-384"/>
<text text-anchor="start" x="434" y="-390.2" font-family="Helvetica,sans-Serif" font-size="11.00">46,892 rows</text>
<polygon fill="#ffffff" stroke="transparent" points="497,-384 497,-402 510,-402 510,-384 497,-384"/>
<polygon fill="none" stroke="black" points="497,-384 497,-402 510,-402 510,-384 497,-384"/>
<text text-anchor="start" x="500" y="-390.2" font-family="Helvetica,sans-Serif" font-size="11.00"> &#160;</text>
</a>
</g>
</g>
<!-- collectors&#45;&gt;collectionunits -->
<g id="edge7" class="edge">
<title>collectors:w&#45;&gt;collectionunits:e</title>
<path fill="none" stroke="black" d="M393.19,-410.07C357.88,-405.44 346.25,-385 304,-385"/>
<polygon fill="black" stroke="black" points="400.02,-410.5 407.78,-414.59 404.01,-410.75 408,-411 408,-411 408,-411 404.01,-410.75 408.22,-407.41 400.02,-410.5 400.02,-410.5"/>
<ellipse fill="none" stroke="black" cx="396.82" cy="-410.3" rx="3.2" ry="3.2"/>
</g>
<!-- datasets -->
<g id="node9" class="node">
<title>datasets</title>
<g id="a_node9"><a xlink:href="../../tables/datasets.html" xlink:title="datasets" target="_top">
<polygon fill="#ffffff" stroke="transparent" points="401,-278 401,-336 517,-336 517,-278 401,-278"/>
<polygon fill="#f5f5f5" stroke="transparent" points="401,-314 401,-336 517,-336 517,-314 401,-314"/>
<polygon fill="none" stroke="black" points="401,-314 401,-336 517,-336 517,-314 401,-314"/>
<text text-anchor="start" x="406" y="-323.2" font-family="Helvetica,sans-Serif" font-weight="bold" font-size="11.00">datasets</text>
<text text-anchor="start" x="482" y="-322.2" font-family="Helvetica,sans-Serif" font-size="11.00">[table]</text>
<polygon fill="none" stroke="black" points="401,-296 401,-314 517,-314 517,-296 401,-296"/>
<text text-anchor="start" x="404" y="-302.2" font-family="Helvetica,sans-Serif" font-size="11.00">...</text>
<polygon fill="#ffffff" stroke="transparent" points="401,-278 401,-296 423,-296 423,-278 401,-278"/>
<polygon fill="none" stroke="black" points="401,-278 401,-296 423,-296 423,-278 401,-278"/>
<text text-anchor="start" x="404" y="-284.2" font-family="Helvetica,sans-Serif" font-size="11.00">&lt; 3</text>
<polygon fill="#ffffff" stroke="transparent" points="423,-278 423,-296 489,-296 489,-278 423,-278"/>
<polygon fill="none" stroke="black" points="423,-278 423,-296 489,-296 489,-278 423,-278"/>
<text text-anchor="start" x="426" y="-284.2" font-family="Helvetica,sans-Serif" font-size="11.00">48,328 rows</text>
<polygon fill="#ffffff" stroke="transparent" points="489,-278 489,-296 517,-296 517,-278 489,-278"/>
<polygon fill="none" stroke="black" points="489,-278 489,-296 517,-296 517,-278 489,-278"/>
<text text-anchor="start" x="492" y="-284.2" font-family="Helvetica,sans-Serif" font-size="11.00">17 &gt;</text>
</a>
</g>
</g>
<!-- datasets&#45;&gt;collectionunits -->
<g id="edge8" class="edge">
<title>datasets:w&#45;&gt;collectionunits:e</title>
<path fill="none" stroke="black" d="M385.59,-307.21C367.41,-313.67 364.07,-333.17 344,-350 325.9,-365.18 327.62,-385 304,-385"/>
<polygon fill="black" stroke="black" points="392.09,-306.21 400.54,-308.56 396.05,-305.61 400,-305 400,-305 400,-305 396.05,-305.61 399.46,-301.44 392.09,-306.21 392.09,-306.21"/>
<ellipse fill="none" stroke="black" cx="388.93" cy="-306.69" rx="3.2" ry="3.2"/>
</g>
<!-- dslinks -->
<g id="node10" class="node">
<title>dslinks</title>
<g id="a_node10"><a xlink:href="../../tables/dslinks.html" xlink:title="dslinks" target="_top">
<polygon fill="#ffffff" stroke="transparent" points="615,-323 615,-363 695,-363 695,-323 615,-323"/>
<polygon fill="#f5f5f5" stroke="transparent" points="615,-341 615,-363 695,-363 695,-341 615,-341"/>
<polygon fill="none" stroke="black" points="615,-341 615,-363 695,-363 695,-341 615,-341"/>
<text text-anchor="start" x="620" y="-350.2" font-family="Helvetica,sans-Serif" font-weight="bold" font-size="11.00">dslinks</text>
<text text-anchor="start" x="662" y="-349.2" font-family="Helvetica,sans-Serif" font-size="11.00">[view]</text>
<polygon fill="none" stroke="black" points="615,-323 615,-341 695,-341 695,-323 615,-323"/>
<text text-anchor="start" x="618" y="-329.2" font-family="Helvetica,sans-Serif" font-size="11.00">...</text>
</a>
</g>
</g>
<!-- dslinks&#45;&gt;collectionunits -->
<g id="edge9" class="edge">
<title>dslinks:w&#45;&gt;collectionunits:e</title>
<path fill="none" stroke="black" stroke-dasharray="5,2" d="M599.75,-334.7C591.74,-338.12 586.54,-343.96 574,-347 473.97,-371.25 445.02,-354.3 344,-374 325.9,-377.53 322.44,-385 304,-385"/>
<polygon fill="black" stroke="black" points="606.14,-333.49 614.67,-335.54 610.07,-332.74 614,-332 614,-332 614,-332 610.07,-332.74 613.33,-328.46 606.14,-333.49 606.14,-333.49"/>
<ellipse fill="none" stroke="black" cx="603" cy="-334.08" rx="3.2" ry="3.2"/>
</g>
<!-- dslinks&#45;&gt;datasets -->
<g id="edge10" class="edge">
<title>dslinks:w&#45;&gt;datasets:e</title>
<path fill="none" stroke="black" stroke-dasharray="5,2" d="M599.39,-330.91C567.35,-325.86 556.95,-305 518,-305"/>
<polygon fill="black" stroke="black" points="606.02,-331.4 613.73,-335.59 610.01,-331.7 614,-332 614,-332 614,-332 610.01,-331.7 614.27,-328.41 606.02,-331.4 606.02,-331.4"/>
<ellipse fill="none" stroke="black" cx="602.83" cy="-331.17" rx="3.2" ry="3.2"/>
</g>
<!-- lithology -->
<g id="node11" class="node">
<title>lithology</title>
<g id="a_node11"><a xlink:href="../../tables/lithology.html" xlink:title="lithology" target="_top">
<polygon fill="#ffffff" stroke="transparent" points="352,-37 352,-257 566,-257 566,-37 352,-37"/>
<polygon fill="#f5f5f5" stroke="transparent" points="354,-233 354,-255 564,-255 564,-233 354,-233"/>
<polygon fill="none" stroke="black" points="354,-233 354,-255 564,-255 564,-233 354,-233"/>
<text text-anchor="start" x="359" y="-242.2" font-family="Helvetica,sans-Serif" font-weight="bold" font-size="11.00">lithology</text>
<text text-anchor="start" x="529" y="-241.2" font-family="Helvetica,sans-Serif" font-size="11.00">[table]</text>
<polygon fill="none" stroke="black" points="354,-211 354,-233 474,-233 474,-211 354,-211"/>
<image xlink:href="../../images/primaryKeys.png" width="11px" height="12px" preserveAspectRatio="xMinYMin meet" x="359" y="-228"/>
<text text-anchor="start" x="374" y="-219.2" font-family="Helvetica,sans-Serif" font-size="11.00">lithologyid</text>
<polygon fill="none" stroke="black" points="474,-211 474,-233 564,-233 564,-211 474,-211"/>
<text text-anchor="start" x="477" y="-219.2" font-family="Helvetica,sans-Serif" font-size="11.00">serial[10]</text>
<polygon fill="#ffffff" stroke="transparent" points="354,-189 354,-211 474,-211 474,-189 354,-189"/>
<polygon fill="none" stroke="black" points="354,-189 354,-211 474,-211 474,-189 354,-189"/>
<image xlink:href="../../images/foreignKeys.png" width="11px" height="12px" preserveAspectRatio="xMinYMin meet" x="359" y="-206"/>
<text text-anchor="start" x="374" y="-197.2" font-family="Helvetica,sans-Serif" font-size="11.00">collectionunitid</text>
<polygon fill="none" stroke="black" points="474,-189 474,-211 564,-211 564,-189 474,-189"/>
<text text-anchor="start" x="477" y="-197.2" font-family="Helvetica,sans-Serif" font-size="11.00">int4[10]</text>
<polygon fill="none" stroke="black" points="354,-167 354,-189 474,-189 474,-167 354,-167"/>
<text text-anchor="start" x="374" y="-175.2" font-family="Helvetica,sans-Serif" font-size="11.00">depthtop</text>
<polygon fill="none" stroke="black" points="474,-167 474,-189 564,-189 564,-167 474,-167"/>
<text text-anchor="start" x="477" y="-175.2" font-family="Helvetica,sans-Serif" font-size="11.00">float8[17,17]</text>
<polygon fill="none" stroke="black" points="354,-145 354,-167 474,-167 474,-145 354,-145"/>
<text text-anchor="start" x="374" y="-153.2" font-family="Helvetica,sans-Serif" font-size="11.00">depthbottom</text>
<polygon fill="none" stroke="black" points="474,-145 474,-167 564,-167 564,-145 474,-145"/>
<text text-anchor="start" x="477" y="-153.2" font-family="Helvetica,sans-Serif" font-size="11.00">float8[17,17]</text>
<polygon fill="none" stroke="black" points="354,-123 354,-145 474,-145 474,-123 354,-123"/>
<text text-anchor="start" x="374" y="-131.2" font-family="Helvetica,sans-Serif" font-size="11.00">lowerboundary</text>
<polygon fill="none" stroke="black" points="474,-123 474,-145 564,-145 564,-123 474,-123"/>
<text text-anchor="start" x="477" y="-131.2" font-family="Helvetica,sans-Serif" font-size="11.00">varchar[255]</text>
<polygon fill="none" stroke="black" points="354,-101 354,-123 474,-123 474,-101 354,-101"/>
<text text-anchor="start" x="374" y="-109.2" font-family="Helvetica,sans-Serif" font-size="11.00">description</text>
<polygon fill="none" stroke="black" points="474,-101 474,-123 564,-123 564,-101 474,-101"/>
<text text-anchor="start" x="477" y="-109.2" font-family="Helvetica,sans-Serif" font-size="11.00">text[2147483647]</text>
<polygon fill="none" stroke="black" points="354,-79 354,-101 474,-101 474,-79 354,-79"/>
<text text-anchor="start" x="374" y="-87.2" font-family="Helvetica,sans-Serif" font-size="11.00">recdatecreated</text>
<polygon fill="none" stroke="black" points="474,-79 474,-101 564,-101 564,-79 474,-79"/>
<text text-anchor="start" x="477" y="-87.2" font-family="Helvetica,sans-Serif" font-size="11.00">timestamp[22]</text>
<polygon fill="none" stroke="black" points="354,-57 354,-79 474,-79 474,-57 354,-57"/>
<text text-anchor="start" x="374" y="-65.2" font-family="Helvetica,sans-Serif" font-size="11.00">recdatemodified</text>
<polygon fill="none" stroke="black" points="474,-57 474,-79 564,-79 564,-57 474,-57"/>
<text text-anchor="start" x="477" y="-65.2" font-family="Helvetica,sans-Serif" font-size="11.00">timestamp[22]</text>
<polygon fill="#ffffff" stroke="transparent" points="354,-39 354,-57 392,-57 392,-39 354,-39"/>
<polygon fill="none" stroke="black" points="354,-39 354,-57 392,-57 392,-39 354,-39"/>
<text text-anchor="start" x="357" y="-45.2" font-family="Helvetica,sans-Serif" font-size="11.00">&lt; 1</text>
<polygon fill="#ffffff" stroke="transparent" points="392,-39 392,-57 474,-57 474,-39 392,-39"/>
<polygon fill="none" stroke="black" points="392,-39 392,-57 474,-57 474,-39 392,-39"/>
<text text-anchor="start" x="411" y="-45.2" font-family="Helvetica,sans-Serif" font-size="11.00">30,155 rows</text>
<polygon fill="#ffffff" stroke="transparent" points="474,-39 474,-57 564,-57 564,-39 474,-39"/>
<polygon fill="none" stroke="black" points="474,-39 474,-57 564,-57 564,-39 474,-39"/>
<text text-anchor="start" x="545" y="-45.2" font-family="Helvetica,sans-Serif" font-size="11.00">0 &gt;</text>
<polygon fill="none" stroke="black" stroke-width="2" points="353,-38 353,-256 565,-256 565,-38 353,-38"/>
</a>
</g>
</g>
<!-- lithology&#45;&gt;collectionunits -->
<g id="edge11" class="edge">
<title>lithology:w&#45;&gt;collectionunits:e</title>
<path fill="none" stroke="black" d="M338.66,-202.34C283.12,-223.75 383.41,-385 304,-385"/>
<polygon fill="black" stroke="black" points="345.1,-201.29 353.58,-203.55 349.05,-200.64 353,-200 353,-200 353,-200 349.05,-200.64 352.42,-196.45 345.1,-201.29 345.1,-201.29"/>
<ellipse fill="none" stroke="black" cx="341.95" cy="-201.8" rx="3.2" ry="3.2"/>
</g>
</g>
</svg>
