<?xml version="1.0" encoding="UTF-8" standalone="no"?>
<!DOCTYPE svg PUBLIC "-//W3C//DTD SVG 1.1//EN"
 "http://www.w3.org/Graphics/SVG/1.1/DTD/svg11.dtd">
<!-- Generated by graphviz version 2.43.0 (0)
 -->
<!-- Title: oneDegreeRelationshipsDiagram Pages: 1 -->
<svg width="399pt" height="223pt"
 viewBox="0.00 0.00 399.00 223.00" xmlns="http://www.w3.org/2000/svg" xmlns:xlink="http://www.w3.org/1999/xlink">
<g id="graph0" class="graph" transform="scale(1 1) rotate(0) translate(4 219)">
<title>oneDegreeRelationshipsDiagram</title>
<polygon fill="#ffffff" stroke="transparent" points="-4,4 -4,-219 395,-219 395,4 -4,4"/>
<text text-anchor="middle" x="71.5" y="-7.2" font-family="Helvetica,sans-Serif" font-size="11.00">Generated by SchemaSpy</text>
<!-- lithostrat -->
<g id="node1" class="node">
<title>lithostrat</title>
<g id="a_node1"><a xlink:href="../../tables/lithostrat.html" xlink:title="lithostrat" target="_top">
<polygon fill="#ffffff" stroke="transparent" points="255,-87 255,-211 383,-211 383,-87 255,-87"/>
<polygon fill="#f5f5f5" stroke="transparent" points="255,-189 255,-211 383,-211 383,-189 255,-189"/>
<polygon fill="none" stroke="black" points="255,-189 255,-211 383,-211 383,-189 255,-189"/>
<text text-anchor="start" x="260" y="-198.2" font-family="Helvetica,sans-Serif" font-weight="bold" font-size="11.00">lithostrat</text>
<text text-anchor="start" x="348" y="-197.2" font-family="Helvetica,sans-Serif" font-size="11.00">[table]</text>
<polygon fill="none" stroke="black" points="255,-167 255,-189 383,-189 383,-167 255,-167"/>
<image xlink:href="../../images/primaryKeys.png" width="11px" height="12px" preserveAspectRatio="xMinYMin meet" x="260" y="-184"/>
<text text-anchor="start" x="275" y="-175.2" font-family="Helvetica,sans-Serif" font-size="11.00">lithostratid</text>
<polygon fill="none" stroke="black" points="255,-145 255,-167 383,-167 383,-145 255,-145"/>
<image xlink:href="../../images/foreignKeys.png" width="11px" height="12px" preserveAspectRatio="xMinYMin meet" x="260" y="-162"/>
<text text-anchor="start" x="275" y="-153.2" font-family="Helvetica,sans-Serif" font-size="11.00">lithostratunitid</text>
<polygon fill="none" stroke="black" points="255,-123 255,-145 383,-145 383,-123 255,-123"/>
<image xlink:href="../../images/foreignKeys.png" width="11px" height="12px" preserveAspectRatio="xMinYMin meet" x="260" y="-140"/>
<text text-anchor="start" x="275" y="-131.2" font-family="Helvetica,sans-Serif" font-size="11.00">higherlithostratid</text>
<polygon fill="none" stroke="black" points="255,-105 255,-123 383,-123 383,-105 255,-105"/>
<text text-anchor="start" x="258" y="-111.2" font-family="Helvetica,sans-Serif" font-size="11.00">...</text>
<polygon fill="#ffffff" stroke="transparent" points="255,-87 255,-105 296,-105 296,-87 255,-87"/>
<polygon fill="none" stroke="black" points="255,-87 255,-105 296,-105 296,-87 255,-87"/>
<text text-anchor="start" x="258" y="-93.2" font-family="Helvetica,sans-Serif" font-size="11.00">&lt; 2</text>
<polygon fill="#ffffff" stroke="transparent" points="296,-87 296,-105 351,-105 351,-87 296,-87"/>
<polygon fill="none" stroke="black" points="296,-87 296,-105 351,-105 351,-87 296,-87"/>
<text text-anchor="start" x="309" y="-93.2" font-family="Helvetica,sans-Serif" font-size="11.00">16 rows</text>
<polygon fill="#ffffff" stroke="transparent" points="351,-87 351,-105 383,-105 383,-87 351,-87"/>
<polygon fill="none" stroke="black" points="351,-87 351,-105 383,-105 383,-87 351,-87"/>
<text text-anchor="start" x="364" y="-93.2" font-family="Helvetica,sans-Serif" font-size="11.00">2 &gt;</text>
</a>
</g>
</g>
<!-- lithostratunits -->
<g id="node2" class="node">
<title>lithostratunits</title>
<g id="a_node2"><a xlink:href="../../tables/lithostratunits.html" xlink:title="lithostratunits" target="_top">
<polygon fill="#ffffff" stroke="transparent" points="8,-37 8,-191 206,-191 206,-37 8,-37"/>
<polygon fill="#f5f5f5" stroke="transparent" points="10,-167 10,-189 204,-189 204,-167 10,-167"/>
<polygon fill="none" stroke="black" points="10,-167 10,-189 204,-189 204,-167 10,-167"/>
<text text-anchor="start" x="15" y="-176.2" font-family="Helvetica,sans-Serif" font-weight="bold" font-size="11.00">lithostratunits</text>
<text text-anchor="start" x="169" y="-175.2" font-family="Helvetica,sans-Serif" font-size="11.00">[table]</text>
<polygon fill="none" stroke="black" points="10,-145 10,-167 130,-167 130,-145 10,-145"/>
<image xlink:href="../../images/primaryKeys.png" width="11px" height="12px" preserveAspectRatio="xMinYMin meet" x="15" y="-162"/>
<text text-anchor="start" x="30" y="-153.2" font-family="Helvetica,sans-Serif" font-size="11.00">lithostratunitid</text>
<polygon fill="none" stroke="black" points="130,-145 130,-167 204,-167 204,-145 130,-145"/>
<text text-anchor="start" x="133" y="-153.2" font-family="Helvetica,sans-Serif" font-size="11.00">serial[10]</text>
<polygon fill="none" stroke="black" points="10,-123 10,-145 130,-145 130,-123 10,-123"/>
<text text-anchor="start" x="30" y="-131.2" font-family="Helvetica,sans-Serif" font-size="11.00">lithostratunit</text>
<polygon fill="none" stroke="black" points="130,-123 130,-145 204,-145 204,-123 130,-123"/>
<text text-anchor="start" x="133" y="-131.2" font-family="Helvetica,sans-Serif" font-size="11.00">varchar[24]</text>
<polygon fill="none" stroke="black" points="10,-101 10,-123 130,-123 130,-101 10,-101"/>
<text text-anchor="start" x="30" y="-109.2" font-family="Helvetica,sans-Serif" font-size="11.00">rank</text>
<polygon fill="none" stroke="black" points="130,-101 130,-123 204,-123 204,-101 130,-101"/>
<text text-anchor="start" x="133" y="-109.2" font-family="Helvetica,sans-Serif" font-size="11.00">int4[10]</text>
<polygon fill="none" stroke="black" points="10,-79 10,-101 130,-101 130,-79 10,-79"/>
<text text-anchor="start" x="30" y="-87.2" font-family="Helvetica,sans-Serif" font-size="11.00">recdatecreated</text>
<polygon fill="none" stroke="black" points="130,-79 130,-101 204,-101 204,-79 130,-79"/>
<text text-anchor="start" x="133" y="-87.2" font-family="Helvetica,sans-Serif" font-size="11.00">timestamp[22]</text>
<polygon fill="none" stroke="black" points="10,-57 10,-79 130,-79 130,-57 10,-57"/>
<text text-anchor="start" x="30" y="-65.2" font-family="Helvetica,sans-Serif" font-size="11.00">recdatemodified</text>
<polygon fill="none" stroke="black" points="130,-57 130,-79 204,-79 204,-57 130,-57"/>
<text text-anchor="start" x="133" y="-65.2" font-family="Helvetica,sans-Serif" font-size="11.00">timestamp[22]</text>
<polygon fill="#ffffff" stroke="transparent" points="10,-39 10,-57 61,-57 61,-39 10,-39"/>
<polygon fill="none" stroke="black" points="10,-39 10,-57 61,-57 61,-39 10,-39"/>
<text text-anchor="start" x="13" y="-45.2" font-family="Helvetica,sans-Serif" font-size="11.00">&lt; 0</text>
<polygon fill="#ffffff" stroke="transparent" points="61,-39 61,-57 130,-57 130,-39 61,-39"/>
<polygon fill="none" stroke="black" points="61,-39 61,-57 130,-57 130,-39 61,-39"/>
<text text-anchor="start" x="94" y="-45.2" font-family="Helvetica,sans-Serif" font-size="11.00">5 rows</text>
<polygon fill="#ffffff" stroke="transparent" points="130,-39 130,-57 204,-57 204,-39 130,-39"/>
<polygon fill="none" stroke="black" points="130,-39 130,-57 204,-57 204,-39 130,-39"/>
<text text-anchor="start" x="185" y="-45.2" font-family="Helvetica,sans-Serif" font-size="11.00">1 &gt;</text>
<polygon fill="none" stroke="black" stroke-width="2" points="9,-38 9,-190 205,-190 205,-38 9,-38"/>
</a>
</g>
</g>
<!-- lithostrat&#45;&gt;lithostratunits -->
<g id="edge1" class="edge">
<title>lithostrat:w&#45;&gt;lithostratunits:e</title>
<path fill="none" stroke="black" d="M239.49,-156C228.18,-156 220.99,-156 205,-156"/>
<polygon fill="black" stroke="black" points="246,-156 254,-159.6 250,-156 254,-156 254,-156 254,-156 250,-156 254,-152.4 246,-156 246,-156"/>
<ellipse fill="none" stroke="black" cx="242.8" cy="-156" rx="3.2" ry="3.2"/>
</g>
</g>
</svg>
