<?xml version="1.0" encoding="UTF-8" standalone="no"?>
<!DOCTYPE svg PUBLIC "-//W3C//DTD SVG 1.1//EN"
 "http://www.w3.org/Graphics/SVG/1.1/DTD/svg11.dtd">
<!-- Generated by graphviz version 2.43.0 (0)
 -->
<!-- Title: twoDegreesRelationshipsDiagram Pages: 1 -->
<svg width="603pt" height="322pt"
 viewBox="0.00 0.00 603.00 322.00" xmlns="http://www.w3.org/2000/svg" xmlns:xlink="http://www.w3.org/1999/xlink">
<g id="graph0" class="graph" transform="scale(1 1) rotate(0) translate(4 318)">
<title>twoDegreesRelationshipsDiagram</title>
<polygon fill="#ffffff" stroke="transparent" points="-4,4 -4,-318 599,-318 599,4 -4,4"/>
<text text-anchor="middle" x="71.5" y="-7.2" font-family="Helvetica,sans-Serif" font-size="11.00">Generated by SchemaSpy</text>
<!-- analysisunitlithostrat -->
<g id="node1" class="node">
<title>analysisunitlithostrat</title>
<g id="a_node1"><a xlink:href="../../tables/analysisunitlithostrat.html" xlink:title="analysisunitlithostrat" target="_top">
<polygon fill="#ffffff" stroke="transparent" points="432,-170 432,-272 587,-272 587,-170 432,-170"/>
<polygon fill="#f5f5f5" stroke="transparent" points="432.5,-250 432.5,-272 587.5,-272 587.5,-250 432.5,-250"/>
<polygon fill="none" stroke="black" points="432.5,-250 432.5,-272 587.5,-272 587.5,-250 432.5,-250"/>
<text text-anchor="start" x="437.5" y="-259.2" font-family="Helvetica,sans-Serif" font-weight="bold" font-size="11.00">analysisunitlithostrat</text>
<text text-anchor="start" x="552.5" y="-258.2" font-family="Helvetica,sans-Serif" font-size="11.00">[table]</text>
<polygon fill="none" stroke="black" points="432.5,-228 432.5,-250 587.5,-250 587.5,-228 432.5,-228"/>
<image xlink:href="../../images/primaryKeys.png" width="11px" height="12px" preserveAspectRatio="xMinYMin meet" x="437.5" y="-245"/>
<text text-anchor="start" x="454.5" y="-236.2" font-family="Helvetica,sans-Serif" font-size="11.00">analysisunitid</text>
<polygon fill="none" stroke="black" points="432.5,-206 432.5,-228 587.5,-228 587.5,-206 432.5,-206"/>
<image xlink:href="../../images/primaryKeys.png" width="11px" height="12px" preserveAspectRatio="xMinYMin meet" x="437.5" y="-223"/>
<text text-anchor="start" x="454.5" y="-214.2" font-family="Helvetica,sans-Serif" font-size="11.00">lithostratid</text>
<polygon fill="none" stroke="black" points="432.5,-188 432.5,-206 587.5,-206 587.5,-188 432.5,-188"/>
<text text-anchor="start" x="435.5" y="-194.2" font-family="Helvetica,sans-Serif" font-size="11.00">...</text>
<polygon fill="#ffffff" stroke="transparent" points="432.5,-170 432.5,-188 494.5,-188 494.5,-170 432.5,-170"/>
<polygon fill="none" stroke="black" points="432.5,-170 432.5,-188 494.5,-188 494.5,-170 432.5,-170"/>
<text text-anchor="start" x="435.5" y="-176.2" font-family="Helvetica,sans-Serif" font-size="11.00">&lt; 2</text>
<polygon fill="#ffffff" stroke="transparent" points="494.5,-170 494.5,-188 553.5,-188 553.5,-170 494.5,-170"/>
<polygon fill="none" stroke="black" points="494.5,-170 494.5,-188 553.5,-188 553.5,-170 494.5,-170"/>
<text text-anchor="start" x="517.5" y="-176.2" font-family="Helvetica,sans-Serif" font-size="11.00">0 rows</text>
<polygon fill="#ffffff" stroke="transparent" points="553.5,-170 553.5,-188 587.5,-188 587.5,-170 553.5,-170"/>
<polygon fill="none" stroke="black" points="553.5,-170 553.5,-188 587.5,-188 587.5,-170 553.5,-170"/>
<text text-anchor="start" x="577.5" y="-176.2" font-family="Helvetica,sans-Serif" font-size="11.00"> &#160;</text>
</a>
</g>
</g>
<!-- analysisunits -->
<g id="node2" class="node">
<title>analysisunits</title>
<g id="a_node2"><a xlink:href="../../tables/analysisunits.html" xlink:title="analysisunits" target="_top">
<polygon fill="#ffffff" stroke="transparent" points="222,-252 222,-310 338,-310 338,-252 222,-252"/>
<polygon fill="#f5f5f5" stroke="transparent" points="222,-288 222,-310 338,-310 338,-288 222,-288"/>
<polygon fill="none" stroke="black" points="222,-288 222,-310 338,-310 338,-288 222,-288"/>
<text text-anchor="start" x="227" y="-297.2" font-family="Helvetica,sans-Serif" font-weight="bold" font-size="11.00">analysisunits</text>
<text text-anchor="start" x="303" y="-296.2" font-family="Helvetica,sans-Serif" font-size="11.00">[table]</text>
<polygon fill="none" stroke="black" points="222,-270 222,-288 338,-288 338,-270 222,-270"/>
<text text-anchor="start" x="225" y="-276.2" font-family="Helvetica,sans-Serif" font-size="11.00">...</text>
<polygon fill="#ffffff" stroke="transparent" points="222,-252 222,-270 244,-270 244,-252 222,-252"/>
<polygon fill="none" stroke="black" points="222,-252 222,-270 244,-270 244,-252 222,-252"/>
<text text-anchor="start" x="225" y="-258.2" font-family="Helvetica,sans-Serif" font-size="11.00">&lt; 2</text>
<polygon fill="#ffffff" stroke="transparent" points="244,-252 244,-270 316,-270 316,-252 244,-252"/>
<polygon fill="none" stroke="black" points="244,-252 244,-270 316,-270 316,-252 244,-252"/>
<text text-anchor="start" x="247" y="-258.2" font-family="Helvetica,sans-Serif" font-size="11.00">449,200 rows</text>
<polygon fill="#ffffff" stroke="transparent" points="316,-252 316,-270 338,-270 338,-252 316,-252"/>
<polygon fill="none" stroke="black" points="316,-252 316,-270 338,-270 338,-252 316,-252"/>
<text text-anchor="start" x="319" y="-258.2" font-family="Helvetica,sans-Serif" font-size="11.00">9 &gt;</text>
</a>
</g>
</g>
<!-- analysisunitlithostrat&#45;&gt;analysisunits -->
<g id="edge1" class="edge">
<title>analysisunitlithostrat:w&#45;&gt;analysisunits:e</title>
<path fill="none" stroke="black" d="M416.92,-240.62C385.39,-248.1 378.37,-279 339,-279"/>
<polygon fill="black" stroke="black" points="423.55,-239.88 431.9,-242.58 427.52,-239.44 431.5,-239 431.5,-239 431.5,-239 427.52,-239.44 431.1,-235.42 423.55,-239.88 423.55,-239.88"/>
<ellipse fill="none" stroke="black" cx="420.37" cy="-240.24" rx="3.2" ry="3.2"/>
</g>
<!-- lithostrat -->
<g id="node3" class="node">
<title>lithostrat</title>
<g id="a_node3"><a xlink:href="../../tables/lithostrat.html" xlink:title="lithostrat" target="_top">
<polygon fill="#ffffff" stroke="transparent" points="177,-37 177,-213 383,-213 383,-37 177,-37"/>
<polygon fill="#f5f5f5" stroke="transparent" points="179,-189 179,-211 381,-211 381,-189 179,-189"/>
<polygon fill="none" stroke="black" points="179,-189 179,-211 381,-211 381,-189 179,-189"/>
<text text-anchor="start" x="184" y="-198.2" font-family="Helvetica,sans-Serif" font-weight="bold" font-size="11.00">lithostrat</text>
<text text-anchor="start" x="346" y="-197.2" font-family="Helvetica,sans-Serif" font-size="11.00">[table]</text>
<polygon fill="none" stroke="black" points="179,-167 179,-189 307,-189 307,-167 179,-167"/>
<image xlink:href="../../images/primaryKeys.png" width="11px" height="12px" preserveAspectRatio="xMinYMin meet" x="184" y="-184"/>
<text text-anchor="start" x="199" y="-175.2" font-family="Helvetica,sans-Serif" font-size="11.00">lithostratid</text>
<polygon fill="none" stroke="black" points="307,-167 307,-189 381,-189 381,-167 307,-167"/>
<text text-anchor="start" x="310" y="-175.2" font-family="Helvetica,sans-Serif" font-size="11.00">serial[10]</text>
<polygon fill="none" stroke="black" points="179,-145 179,-167 307,-167 307,-145 179,-145"/>
<image xlink:href="../../images/foreignKeys.png" width="11px" height="12px" preserveAspectRatio="xMinYMin meet" x="184" y="-162"/>
<text text-anchor="start" x="199" y="-153.2" font-family="Helvetica,sans-Serif" font-size="11.00">lithostratunitid</text>
<polygon fill="none" stroke="black" points="307,-145 307,-167 381,-167 381,-145 307,-145"/>
<text text-anchor="start" x="310" y="-153.2" font-family="Helvetica,sans-Serif" font-size="11.00">int4[10]</text>
<polygon fill="none" stroke="black" points="179,-123 179,-145 307,-145 307,-123 179,-123"/>
<text text-anchor="start" x="199" y="-131.2" font-family="Helvetica,sans-Serif" font-size="11.00">lithostratname</text>
<polygon fill="none" stroke="black" points="307,-123 307,-145 381,-145 381,-123 307,-123"/>
<text text-anchor="start" x="310" y="-131.2" font-family="Helvetica,sans-Serif" font-size="11.00">varchar[64]</text>
<polygon fill="none" stroke="black" points="179,-101 179,-123 307,-123 307,-101 179,-101"/>
<image xlink:href="../../images/foreignKeys.png" width="11px" height="12px" preserveAspectRatio="xMinYMin meet" x="184" y="-118"/>
<text text-anchor="start" x="199" y="-109.2" font-family="Helvetica,sans-Serif" font-size="11.00">higherlithostratid</text>
<polygon fill="none" stroke="black" points="307,-101 307,-123 381,-123 381,-101 307,-101"/>
<text text-anchor="start" x="310" y="-109.2" font-family="Helvetica,sans-Serif" font-size="11.00">int4[10]</text>
<polygon fill="none" stroke="black" points="179,-79 179,-101 307,-101 307,-79 179,-79"/>
<text text-anchor="start" x="199" y="-87.2" font-family="Helvetica,sans-Serif" font-size="11.00">recdatecreated</text>
<polygon fill="none" stroke="black" points="307,-79 307,-101 381,-101 381,-79 307,-79"/>
<text text-anchor="start" x="310" y="-87.2" font-family="Helvetica,sans-Serif" font-size="11.00">timestamp[22]</text>
<polygon fill="none" stroke="black" points="179,-57 179,-79 307,-79 307,-57 179,-57"/>
<text text-anchor="start" x="199" y="-65.2" font-family="Helvetica,sans-Serif" font-size="11.00">recdatemodified</text>
<polygon fill="none" stroke="black" points="307,-57 307,-79 381,-79 381,-57 307,-57"/>
<text text-anchor="start" x="310" y="-65.2" font-family="Helvetica,sans-Serif" font-size="11.00">timestamp[22]</text>
<polygon fill="#ffffff" stroke="transparent" points="179,-39 179,-57 231,-57 231,-39 179,-39"/>
<polygon fill="none" stroke="black" points="179,-39 179,-57 231,-57 231,-39 179,-39"/>
<text text-anchor="start" x="182" y="-45.2" font-family="Helvetica,sans-Serif" font-size="11.00">&lt; 2</text>
<polygon fill="#ffffff" stroke="transparent" points="231,-39 231,-57 307,-57 307,-39 231,-39"/>
<polygon fill="none" stroke="black" points="231,-39 231,-57 307,-57 307,-39 231,-39"/>
<text text-anchor="start" x="265" y="-45.2" font-family="Helvetica,sans-Serif" font-size="11.00">16 rows</text>
<polygon fill="#ffffff" stroke="transparent" points="307,-39 307,-57 381,-57 381,-39 307,-39"/>
<polygon fill="none" stroke="black" points="307,-39 307,-57 381,-57 381,-39 307,-39"/>
<text text-anchor="start" x="362" y="-45.2" font-family="Helvetica,sans-Serif" font-size="11.00">2 &gt;</text>
<polygon fill="none" stroke="black" stroke-width="2" points="178,-38 178,-212 382,-212 382,-38 178,-38"/>
</a>
</g>
</g>
<!-- analysisunitlithostrat&#45;&gt;lithostrat -->
<g id="edge2" class="edge">
<title>analysisunitlithostrat:w&#45;&gt;lithostrat:e</title>
<path fill="none" stroke="black" d="M417.74,-212.53C404.7,-202.28 404.1,-178 382,-178"/>
<polygon fill="black" stroke="black" points="423.89,-214.53 430.39,-220.42 427.7,-215.76 431.5,-217 431.5,-217 431.5,-217 427.7,-215.76 432.61,-213.58 423.89,-214.53 423.89,-214.53"/>
<ellipse fill="none" stroke="black" cx="420.85" cy="-213.54" rx="3.2" ry="3.2"/>
</g>
<!-- lithostrat&#45;&gt;lithostrat -->
<g id="edge3" class="edge">
<title>lithostrat:w&#45;&gt;lithostrat:e</title>
<path fill="none" stroke="black" d="M167.6,-121.02C126.94,-159.46 138.03,-230 280,-230 434,-230 434,-213 381,-178"/>
<polygon fill="black" stroke="black" points="172.73,-116.96 181.23,-114.82 175.86,-114.48 179,-112 179,-112 179,-112 175.86,-114.48 176.77,-109.18 172.73,-116.96 172.73,-116.96"/>
<ellipse fill="none" stroke="black" cx="170.22" cy="-118.95" rx="3.2" ry="3.2"/>
</g>
<!-- lithostratunits -->
<g id="node4" class="node">
<title>lithostratunits</title>
<g id="a_node4"><a xlink:href="../../tables/lithostratunits.html" xlink:title="lithostratunits" target="_top">
<polygon fill="#ffffff" stroke="transparent" points="8,-109 8,-189 128,-189 128,-109 8,-109"/>
<polygon fill="#f5f5f5" stroke="transparent" points="8,-167 8,-189 128,-189 128,-167 8,-167"/>
<polygon fill="none" stroke="black" points="8,-167 8,-189 128,-189 128,-167 8,-167"/>
<text text-anchor="start" x="13" y="-176.2" font-family="Helvetica,sans-Serif" font-weight="bold" font-size="11.00">lithostratunits</text>
<text text-anchor="start" x="93" y="-175.2" font-family="Helvetica,sans-Serif" font-size="11.00">[table]</text>
<polygon fill="none" stroke="black" points="8,-145 8,-167 128,-167 128,-145 8,-145"/>
<image xlink:href="../../images/primaryKeys.png" width="11px" height="12px" preserveAspectRatio="xMinYMin meet" x="13" y="-162"/>
<text text-anchor="start" x="28" y="-153.2" font-family="Helvetica,sans-Serif" font-size="11.00">lithostratunitid</text>
<polygon fill="none" stroke="black" points="8,-127 8,-145 128,-145 128,-127 8,-127"/>
<text text-anchor="start" x="11" y="-133.2" font-family="Helvetica,sans-Serif" font-size="11.00">...</text>
<polygon fill="#ffffff" stroke="transparent" points="8,-109 8,-127 44,-127 44,-109 8,-109"/>
<polygon fill="none" stroke="black" points="8,-109 8,-127 44,-127 44,-109 8,-109"/>
<text text-anchor="start" x="11" y="-115.2" font-family="Helvetica,sans-Serif" font-size="11.00"> &#160;</text>
<polygon fill="#ffffff" stroke="transparent" points="44,-109 44,-127 94,-127 94,-109 44,-109"/>
<polygon fill="none" stroke="black" points="44,-109 44,-127 94,-127 94,-109 44,-109"/>
<text text-anchor="start" x="58" y="-115.2" font-family="Helvetica,sans-Serif" font-size="11.00">5 rows</text>
<polygon fill="#ffffff" stroke="transparent" points="94,-109 94,-127 128,-127 128,-109 94,-109"/>
<polygon fill="none" stroke="black" points="94,-109 94,-127 128,-127 128,-109 94,-109"/>
<text text-anchor="start" x="109" y="-115.2" font-family="Helvetica,sans-Serif" font-size="11.00">1 &gt;</text>
</a>
</g>
</g>
<!-- lithostrat&#45;&gt;lithostratunits -->
<g id="edge4" class="edge">
<title>lithostrat:w&#45;&gt;lithostratunits:e</title>
<path fill="none" stroke="black" d="M163.49,-156C152.18,-156 144.99,-156 129,-156"/>
<polygon fill="black" stroke="black" points="170,-156 178,-159.6 174,-156 178,-156 178,-156 178,-156 174,-156 178,-152.4 170,-156 170,-156"/>
<ellipse fill="none" stroke="black" cx="166.8" cy="-156" rx="3.2" ry="3.2"/>
</g>
</g>
</svg>
