<?xml version="1.0" encoding="UTF-8" standalone="no"?>
<!DOCTYPE svg PUBLIC "-//W3C//DTD SVG 1.1//EN"
 "http://www.w3.org/Graphics/SVG/1.1/DTD/svg11.dtd">
<!-- Generated by graphviz version 2.43.0 (0)
 -->
<!-- Title: oneDegreeRelationshipsDiagramImplied Pages: 1 -->
<svg width="395pt" height="201pt"
 viewBox="0.00 0.00 395.00 201.00" xmlns="http://www.w3.org/2000/svg" xmlns:xlink="http://www.w3.org/1999/xlink">
<g id="graph0" class="graph" transform="scale(1 1) rotate(0) translate(4 197)">
<title>oneDegreeRelationshipsDiagramImplied</title>
<polygon fill="#ffffff" stroke="transparent" points="-4,4 -4,-197 391,-197 391,4 -4,4"/>
<text text-anchor="middle" x="71.5" y="-7.2" font-family="Helvetica,sans-Serif" font-size="11.00">Generated by SchemaSpy</text>
<!-- publications -->
<g id="node1" class="node">
<title>publications</title>
<g id="a_node1"><a xlink:href="../../tables/publications.html" xlink:title="publications" target="_top">
<polygon fill="#ffffff" stroke="transparent" points="256,-87 256,-189 379,-189 379,-87 256,-87"/>
<polygon fill="#f5f5f5" stroke="transparent" points="256.5,-167 256.5,-189 379.5,-189 379.5,-167 256.5,-167"/>
<polygon fill="none" stroke="black" points="256.5,-167 256.5,-189 379.5,-189 379.5,-167 256.5,-167"/>
<text text-anchor="start" x="261.5" y="-176.2" font-family="Helvetica,sans-Serif" font-weight="bold" font-size="11.00">publications</text>
<text text-anchor="start" x="344.5" y="-175.2" font-family="Helvetica,sans-Serif" font-size="11.00">[table]</text>
<polygon fill="none" stroke="black" points="256.5,-145 256.5,-167 379.5,-167 379.5,-145 256.5,-145"/>
<image xlink:href="../../images/primaryKeys.png" width="11px" height="12px" preserveAspectRatio="xMinYMin meet" x="261.5" y="-162"/>
<text text-anchor="start" x="276.5" y="-153.2" font-family="Helvetica,sans-Serif" font-size="11.00">publicationid</text>
<polygon fill="none" stroke="black" points="256.5,-123 256.5,-145 379.5,-145 379.5,-123 256.5,-123"/>
<image xlink:href="../../images/foreignKeys.png" width="11px" height="12px" preserveAspectRatio="xMinYMin meet" x="261.5" y="-140"/>
<text text-anchor="start" x="276.5" y="-131.2" font-family="Helvetica,sans-Serif" font-size="11.00">pubtypeid</text>
<polygon fill="none" stroke="black" points="256.5,-105 256.5,-123 379.5,-123 379.5,-105 256.5,-105"/>
<text text-anchor="start" x="259.5" y="-111.2" font-family="Helvetica,sans-Serif" font-size="11.00">...</text>
<polygon fill="#ffffff" stroke="transparent" points="256.5,-87 256.5,-105 281.5,-105 281.5,-87 256.5,-87"/>
<polygon fill="none" stroke="black" points="256.5,-87 256.5,-105 281.5,-105 281.5,-87 256.5,-87"/>
<text text-anchor="start" x="259.5" y="-93.2" font-family="Helvetica,sans-Serif" font-size="11.00">&lt; 1</text>
<polygon fill="#ffffff" stroke="transparent" points="281.5,-87 281.5,-105 349.5,-105 349.5,-87 281.5,-87"/>
<polygon fill="none" stroke="black" points="281.5,-87 281.5,-105 349.5,-105 349.5,-87 281.5,-87"/>
<text text-anchor="start" x="286.5" y="-93.2" font-family="Helvetica,sans-Serif" font-size="11.00">13,725 rows</text>
<polygon fill="#ffffff" stroke="transparent" points="349.5,-87 349.5,-105 379.5,-105 379.5,-87 349.5,-87"/>
<polygon fill="none" stroke="black" points="349.5,-87 349.5,-105 379.5,-105 379.5,-87 349.5,-87"/>
<text text-anchor="start" x="354.5" y="-93.2" font-family="Helvetica,sans-Serif" font-size="11.00">12 &gt;</text>
</a>
</g>
</g>
<!-- publicationtypes -->
<g id="node2" class="node">
<title>publicationtypes</title>
<g id="a_node2"><a xlink:href="../../tables/publicationtypes.html" xlink:title="publicationtypes" target="_top">
<polygon fill="#ffffff" stroke="transparent" points="8,-37 8,-169 207,-169 207,-37 8,-37"/>
<polygon fill="#f5f5f5" stroke="transparent" points="10.5,-145 10.5,-167 205.5,-167 205.5,-145 10.5,-145"/>
<polygon fill="none" stroke="black" points="10.5,-145 10.5,-167 205.5,-167 205.5,-145 10.5,-145"/>
<text text-anchor="start" x="15.5" y="-154.2" font-family="Helvetica,sans-Serif" font-weight="bold" font-size="11.00">publicationtypes</text>
<text text-anchor="start" x="170.5" y="-153.2" font-family="Helvetica,sans-Serif" font-size="11.00">[table]</text>
<polygon fill="none" stroke="black" points="10.5,-123 10.5,-145 131.5,-145 131.5,-123 10.5,-123"/>
<image xlink:href="../../images/primaryKeys.png" width="11px" height="12px" preserveAspectRatio="xMinYMin meet" x="15.5" y="-140"/>
<text text-anchor="start" x="30.5" y="-131.2" font-family="Helvetica,sans-Serif" font-size="11.00">pubtypeid</text>
<polygon fill="none" stroke="black" points="131.5,-123 131.5,-145 205.5,-145 205.5,-123 131.5,-123"/>
<text text-anchor="start" x="134.5" y="-131.2" font-family="Helvetica,sans-Serif" font-size="11.00">serial[10]</text>
<polygon fill="none" stroke="black" points="10.5,-101 10.5,-123 131.5,-123 131.5,-101 10.5,-101"/>
<text text-anchor="start" x="30.5" y="-109.2" font-family="Helvetica,sans-Serif" font-size="11.00">pubtype</text>
<polygon fill="none" stroke="black" points="131.5,-101 131.5,-123 205.5,-123 205.5,-101 131.5,-101"/>
<text text-anchor="start" x="134.5" y="-109.2" font-family="Helvetica,sans-Serif" font-size="11.00">varchar[24]</text>
<polygon fill="none" stroke="black" points="10.5,-79 10.5,-101 131.5,-101 131.5,-79 10.5,-79"/>
<text text-anchor="start" x="30.5" y="-87.2" font-family="Helvetica,sans-Serif" font-size="11.00">recdatecreated</text>
<polygon fill="none" stroke="black" points="131.5,-79 131.5,-101 205.5,-101 205.5,-79 131.5,-79"/>
<text text-anchor="start" x="134.5" y="-87.2" font-family="Helvetica,sans-Serif" font-size="11.00">timestamp[22]</text>
<polygon fill="none" stroke="black" points="10.5,-57 10.5,-79 131.5,-79 131.5,-57 10.5,-57"/>
<text text-anchor="start" x="30.5" y="-65.2" font-family="Helvetica,sans-Serif" font-size="11.00">recdatemodified</text>
<polygon fill="none" stroke="black" points="131.5,-57 131.5,-79 205.5,-79 205.5,-57 131.5,-57"/>
<text text-anchor="start" x="134.5" y="-65.2" font-family="Helvetica,sans-Serif" font-size="11.00">timestamp[22]</text>
<polygon fill="#ffffff" stroke="transparent" points="10.5,-39 10.5,-57 59.5,-57 59.5,-39 10.5,-39"/>
<polygon fill="none" stroke="black" points="10.5,-39 10.5,-57 59.5,-57 59.5,-39 10.5,-39"/>
<text text-anchor="start" x="13.5" y="-45.2" font-family="Helvetica,sans-Serif" font-size="11.00">&lt; 0</text>
<polygon fill="#ffffff" stroke="transparent" points="59.5,-39 59.5,-57 131.5,-57 131.5,-39 59.5,-39"/>
<polygon fill="none" stroke="black" points="59.5,-39 59.5,-57 131.5,-57 131.5,-39 59.5,-39"/>
<text text-anchor="start" x="89.5" y="-45.2" font-family="Helvetica,sans-Serif" font-size="11.00">13 rows</text>
<polygon fill="#ffffff" stroke="transparent" points="131.5,-39 131.5,-57 205.5,-57 205.5,-39 131.5,-39"/>
<polygon fill="none" stroke="black" points="131.5,-39 131.5,-57 205.5,-57 205.5,-39 131.5,-39"/>
<text text-anchor="start" x="186.5" y="-45.2" font-family="Helvetica,sans-Serif" font-size="11.00">1 &gt;</text>
<polygon fill="none" stroke="black" stroke-width="2" points="9,-38 9,-168 206,-168 206,-38 9,-38"/>
</a>
</g>
</g>
<!-- publications&#45;&gt;publicationtypes -->
<g id="edge1" class="edge">
<title>publications:w&#45;&gt;publicationtypes:e</title>
<path fill="none" stroke="black" d="M240.99,-134C229.68,-134 222.49,-134 206.5,-134"/>
<polygon fill="black" stroke="black" points="247.5,-134 255.5,-137.6 251.5,-134 255.5,-134 255.5,-134 255.5,-134 251.5,-134 255.5,-130.4 247.5,-134 247.5,-134"/>
<ellipse fill="none" stroke="black" cx="244.3" cy="-134" rx="3.2" ry="3.2"/>
</g>
</g>
</svg>
