<?xml version="1.0" encoding="UTF-8" standalone="no"?>
<!DOCTYPE svg PUBLIC "-//W3C//DTD SVG 1.1//EN"
 "http://www.w3.org/Graphics/SVG/1.1/DTD/svg11.dtd">
<!-- Generated by graphviz version 2.43.0 (0)
 -->
<!-- Title: twoDegreesRelationshipsDiagram Pages: 1 -->
<svg width="760pt" height="872pt"
 viewBox="0.00 0.00 760.00 872.00" xmlns="http://www.w3.org/2000/svg" xmlns:xlink="http://www.w3.org/1999/xlink">
<g id="graph0" class="graph" transform="scale(1 1) rotate(0) translate(4 868)">
<title>twoDegreesRelationshipsDiagram</title>
<polygon fill="#ffffff" stroke="transparent" points="-4,4 -4,-868 756,-868 756,4 -4,4"/>
<text text-anchor="middle" x="71.5" y="-7.2" font-family="Helvetica,sans-Serif" font-size="11.00">Generated by SchemaSpy</text>
<!-- calibrationcurves -->
<g id="node1" class="node">
<title>calibrationcurves</title>
<g id="a_node1"><a xlink:href="../../tables/calibrationcurves.html" xlink:title="calibrationcurves" target="_top">
<polygon fill="#ffffff" stroke="transparent" points="443.5,-802 443.5,-860 578.5,-860 578.5,-802 443.5,-802"/>
<polygon fill="#f5f5f5" stroke="transparent" points="444,-838 444,-860 579,-860 579,-838 444,-838"/>
<polygon fill="none" stroke="black" points="444,-838 444,-860 579,-860 579,-838 444,-838"/>
<text text-anchor="start" x="449" y="-847.2" font-family="Helvetica,sans-Serif" font-weight="bold" font-size="11.00">calibrationcurves</text>
<text text-anchor="start" x="544" y="-846.2" font-family="Helvetica,sans-Serif" font-size="11.00">[table]</text>
<polygon fill="none" stroke="black" points="444,-820 444,-838 579,-838 579,-820 444,-820"/>
<text text-anchor="start" x="447" y="-826.2" font-family="Helvetica,sans-Serif" font-size="11.00">...</text>
<polygon fill="#ffffff" stroke="transparent" points="444,-802 444,-820 489,-820 489,-802 444,-802"/>
<polygon fill="none" stroke="black" points="444,-802 444,-820 489,-820 489,-802 444,-802"/>
<text text-anchor="start" x="447" y="-808.2" font-family="Helvetica,sans-Serif" font-size="11.00">&lt; 1</text>
<polygon fill="#ffffff" stroke="transparent" points="489,-802 489,-820 545,-820 545,-802 489,-802"/>
<polygon fill="none" stroke="black" points="489,-802 489,-820 545,-820 545,-802 489,-802"/>
<text text-anchor="start" x="503" y="-808.2" font-family="Helvetica,sans-Serif" font-size="11.00">15 rows</text>
<polygon fill="#ffffff" stroke="transparent" points="545,-802 545,-820 579,-820 579,-802 545,-802"/>
<polygon fill="none" stroke="black" points="545,-802 545,-820 579,-820 579,-802 545,-802"/>
<text text-anchor="start" x="560" y="-808.2" font-family="Helvetica,sans-Serif" font-size="11.00">2 &gt;</text>
</a>
</g>
</g>
<!-- publications -->
<g id="node2" class="node">
<title>publications</title>
<g id="a_node2"><a xlink:href="../../tables/publications.html" xlink:title="publications" target="_top">
<polygon fill="#ffffff" stroke="transparent" points="256,-391 256,-493 379,-493 379,-391 256,-391"/>
<polygon fill="#f5f5f5" stroke="transparent" points="256.5,-471 256.5,-493 379.5,-493 379.5,-471 256.5,-471"/>
<polygon fill="none" stroke="black" points="256.5,-471 256.5,-493 379.5,-493 379.5,-471 256.5,-471"/>
<text text-anchor="start" x="261.5" y="-480.2" font-family="Helvetica,sans-Serif" font-weight="bold" font-size="11.00">publications</text>
<text text-anchor="start" x="344.5" y="-479.2" font-family="Helvetica,sans-Serif" font-size="11.00">[table]</text>
<polygon fill="none" stroke="black" points="256.5,-449 256.5,-471 379.5,-471 379.5,-449 256.5,-449"/>
<image xlink:href="../../images/primaryKeys.png" width="11px" height="12px" preserveAspectRatio="xMinYMin meet" x="261.5" y="-466"/>
<text text-anchor="start" x="276.5" y="-457.2" font-family="Helvetica,sans-Serif" font-size="11.00">publicationid</text>
<polygon fill="none" stroke="black" points="256.5,-427 256.5,-449 379.5,-449 379.5,-427 256.5,-427"/>
<image xlink:href="../../images/foreignKeys.png" width="11px" height="12px" preserveAspectRatio="xMinYMin meet" x="261.5" y="-444"/>
<text text-anchor="start" x="276.5" y="-435.2" font-family="Helvetica,sans-Serif" font-size="11.00">pubtypeid</text>
<polygon fill="none" stroke="black" points="256.5,-409 256.5,-427 379.5,-427 379.5,-409 256.5,-409"/>
<text text-anchor="start" x="259.5" y="-415.2" font-family="Helvetica,sans-Serif" font-size="11.00">...</text>
<polygon fill="#ffffff" stroke="transparent" points="256.5,-391 256.5,-409 281.5,-409 281.5,-391 256.5,-391"/>
<polygon fill="none" stroke="black" points="256.5,-391 256.5,-409 281.5,-409 281.5,-391 256.5,-391"/>
<text text-anchor="start" x="259.5" y="-397.2" font-family="Helvetica,sans-Serif" font-size="11.00">&lt; 1</text>
<polygon fill="#ffffff" stroke="transparent" points="281.5,-391 281.5,-409 349.5,-409 349.5,-391 281.5,-391"/>
<polygon fill="none" stroke="black" points="281.5,-391 281.5,-409 349.5,-409 349.5,-391 281.5,-391"/>
<text text-anchor="start" x="286.5" y="-397.2" font-family="Helvetica,sans-Serif" font-size="11.00">13,466 rows</text>
<polygon fill="#ffffff" stroke="transparent" points="349.5,-391 349.5,-409 379.5,-409 379.5,-391 349.5,-391"/>
<polygon fill="none" stroke="black" points="349.5,-391 349.5,-409 379.5,-409 379.5,-391 349.5,-391"/>
<text text-anchor="start" x="354.5" y="-397.2" font-family="Helvetica,sans-Serif" font-size="11.00">12 &gt;</text>
</a>
</g>
</g>
<!-- calibrationcurves&#45;&gt;publications -->
<g id="edge1" class="edge">
<title>calibrationcurves:w&#45;&gt;publications:e</title>
<path fill="none" stroke="black" d="M429.15,-824.6C372.44,-782.97 458.31,-460 380.5,-460"/>
<polygon fill="black" stroke="black" points="435.38,-826.58 441.91,-832.43 439.19,-827.79 443,-829 443,-829 443,-829 439.19,-827.79 444.09,-825.57 435.38,-826.58 435.38,-826.58"/>
<ellipse fill="none" stroke="black" cx="432.33" cy="-825.61" rx="3.2" ry="3.2"/>
</g>
<!-- publicationtypes -->
<g id="node11" class="node">
<title>publicationtypes</title>
<g id="a_node11"><a xlink:href="../../tables/publicationtypes.html" xlink:title="publicationtypes" target="_top">
<polygon fill="#ffffff" stroke="transparent" points="8,-341 8,-473 207,-473 207,-341 8,-341"/>
<polygon fill="#f5f5f5" stroke="transparent" points="10.5,-449 10.5,-471 205.5,-471 205.5,-449 10.5,-449"/>
<polygon fill="none" stroke="black" points="10.5,-449 10.5,-471 205.5,-471 205.5,-449 10.5,-449"/>
<text text-anchor="start" x="15.5" y="-458.2" font-family="Helvetica,sans-Serif" font-weight="bold" font-size="11.00">publicationtypes</text>
<text text-anchor="start" x="170.5" y="-457.2" font-family="Helvetica,sans-Serif" font-size="11.00">[table]</text>
<polygon fill="none" stroke="black" points="10.5,-427 10.5,-449 131.5,-449 131.5,-427 10.5,-427"/>
<image xlink:href="../../images/primaryKeys.png" width="11px" height="12px" preserveAspectRatio="xMinYMin meet" x="15.5" y="-444"/>
<text text-anchor="start" x="30.5" y="-435.2" font-family="Helvetica,sans-Serif" font-size="11.00">pubtypeid</text>
<polygon fill="none" stroke="black" points="131.5,-427 131.5,-449 205.5,-449 205.5,-427 131.5,-427"/>
<text text-anchor="start" x="134.5" y="-435.2" font-family="Helvetica,sans-Serif" font-size="11.00">serial[10]</text>
<polygon fill="none" stroke="black" points="10.5,-405 10.5,-427 131.5,-427 131.5,-405 10.5,-405"/>
<text text-anchor="start" x="30.5" y="-413.2" font-family="Helvetica,sans-Serif" font-size="11.00">pubtype</text>
<polygon fill="none" stroke="black" points="131.5,-405 131.5,-427 205.5,-427 205.5,-405 131.5,-405"/>
<text text-anchor="start" x="134.5" y="-413.2" font-family="Helvetica,sans-Serif" font-size="11.00">varchar[24]</text>
<polygon fill="none" stroke="black" points="10.5,-383 10.5,-405 131.5,-405 131.5,-383 10.5,-383"/>
<text text-anchor="start" x="30.5" y="-391.2" font-family="Helvetica,sans-Serif" font-size="11.00">recdatecreated</text>
<polygon fill="none" stroke="black" points="131.5,-383 131.5,-405 205.5,-405 205.5,-383 131.5,-383"/>
<text text-anchor="start" x="134.5" y="-391.2" font-family="Helvetica,sans-Serif" font-size="11.00">timestamp[22]</text>
<polygon fill="none" stroke="black" points="10.5,-361 10.5,-383 131.5,-383 131.5,-361 10.5,-361"/>
<text text-anchor="start" x="30.5" y="-369.2" font-family="Helvetica,sans-Serif" font-size="11.00">recdatemodified</text>
<polygon fill="none" stroke="black" points="131.5,-361 131.5,-383 205.5,-383 205.5,-361 131.5,-361"/>
<text text-anchor="start" x="134.5" y="-369.2" font-family="Helvetica,sans-Serif" font-size="11.00">timestamp[22]</text>
<polygon fill="#ffffff" stroke="transparent" points="10.5,-343 10.5,-361 59.5,-361 59.5,-343 10.5,-343"/>
<polygon fill="none" stroke="black" points="10.5,-343 10.5,-361 59.5,-361 59.5,-343 10.5,-343"/>
<text text-anchor="start" x="13.5" y="-349.2" font-family="Helvetica,sans-Serif" font-size="11.00">&lt; 0</text>
<polygon fill="#ffffff" stroke="transparent" points="59.5,-343 59.5,-361 131.5,-361 131.5,-343 59.5,-343"/>
<polygon fill="none" stroke="black" points="59.5,-343 59.5,-361 131.5,-361 131.5,-343 59.5,-343"/>
<text text-anchor="start" x="89.5" y="-349.2" font-family="Helvetica,sans-Serif" font-size="11.00">13 rows</text>
<polygon fill="#ffffff" stroke="transparent" points="131.5,-343 131.5,-361 205.5,-361 205.5,-343 131.5,-343"/>
<polygon fill="none" stroke="black" points="131.5,-343 131.5,-361 205.5,-361 205.5,-343 131.5,-343"/>
<text text-anchor="start" x="186.5" y="-349.2" font-family="Helvetica,sans-Serif" font-size="11.00">1 &gt;</text>
<polygon fill="none" stroke="black" stroke-width="2" points="9,-342 9,-472 206,-472 206,-342 9,-342"/>
</a>
</g>
</g>
<!-- publications&#45;&gt;publicationtypes -->
<g id="edge11" class="edge">
<title>publications:w&#45;&gt;publicationtypes:e</title>
<path fill="none" stroke="black" d="M240.99,-438C229.68,-438 222.49,-438 206.5,-438"/>
<polygon fill="black" stroke="black" points="247.5,-438 255.5,-441.6 251.5,-438 255.5,-438 255.5,-438 255.5,-438 251.5,-438 255.5,-434.4 247.5,-438 247.5,-438"/>
<ellipse fill="none" stroke="black" cx="244.3" cy="-438" rx="3.2" ry="3.2"/>
</g>
<!-- datasetpublications -->
<g id="node3" class="node">
<title>datasetpublications</title>
<g id="a_node3"><a xlink:href="../../tables/datasetpublications.html" xlink:title="datasetpublications" target="_top">
<polygon fill="#ffffff" stroke="transparent" points="437.5,-723 437.5,-781 584.5,-781 584.5,-723 437.5,-723"/>
<polygon fill="#f5f5f5" stroke="transparent" points="438,-759 438,-781 585,-781 585,-759 438,-759"/>
<polygon fill="none" stroke="black" points="438,-759 438,-781 585,-781 585,-759 438,-759"/>
<text text-anchor="start" x="443" y="-768.2" font-family="Helvetica,sans-Serif" font-weight="bold" font-size="11.00">datasetpublications</text>
<text text-anchor="start" x="550" y="-767.2" font-family="Helvetica,sans-Serif" font-size="11.00">[table]</text>
<polygon fill="none" stroke="black" points="438,-741 438,-759 585,-759 585,-741 438,-741"/>
<text text-anchor="start" x="441" y="-747.2" font-family="Helvetica,sans-Serif" font-size="11.00">...</text>
<polygon fill="#ffffff" stroke="transparent" points="438,-723 438,-741 483,-741 483,-723 438,-723"/>
<polygon fill="none" stroke="black" points="438,-723 438,-741 483,-741 483,-723 438,-723"/>
<text text-anchor="start" x="441" y="-729.2" font-family="Helvetica,sans-Serif" font-size="11.00">&lt; 2</text>
<polygon fill="#ffffff" stroke="transparent" points="483,-723 483,-741 560,-741 560,-723 483,-723"/>
<polygon fill="none" stroke="black" points="483,-723 483,-741 560,-741 560,-723 483,-723"/>
<text text-anchor="start" x="497" y="-729.2" font-family="Helvetica,sans-Serif" font-size="11.00">58,986 rows</text>
<polygon fill="#ffffff" stroke="transparent" points="560,-723 560,-741 585,-741 585,-723 560,-723"/>
<polygon fill="none" stroke="black" points="560,-723 560,-741 585,-741 585,-723 560,-723"/>
<text text-anchor="start" x="575" y="-729.2" font-family="Helvetica,sans-Serif" font-size="11.00"> &#160;</text>
</a>
</g>
</g>
<!-- datasetpublications&#45;&gt;publications -->
<g id="edge2" class="edge">
<title>datasetpublications:w&#45;&gt;publications:e</title>
<path fill="none" stroke="black" d="M423.52,-744.47C382.67,-704.37 440.77,-460 380.5,-460"/>
<polygon fill="black" stroke="black" points="429.6,-746.96 435.63,-753.33 433.3,-748.48 437,-750 437,-750 437,-750 433.3,-748.48 438.37,-746.67 429.6,-746.96 429.6,-746.96"/>
<ellipse fill="none" stroke="black" cx="426.64" cy="-745.75" rx="3.2" ry="3.2"/>
</g>
<!-- eventpublications -->
<g id="node4" class="node">
<title>eventpublications</title>
<g id="a_node4"><a xlink:href="../../tables/eventpublications.html" xlink:title="eventpublications" target="_top">
<polygon fill="#ffffff" stroke="transparent" points="442,-644 442,-702 580,-702 580,-644 442,-644"/>
<polygon fill="#f5f5f5" stroke="transparent" points="442,-680 442,-702 580,-702 580,-680 442,-680"/>
<polygon fill="none" stroke="black" points="442,-680 442,-702 580,-702 580,-680 442,-680"/>
<text text-anchor="start" x="447" y="-689.2" font-family="Helvetica,sans-Serif" font-weight="bold" font-size="11.00">eventpublications</text>
<text text-anchor="start" x="545" y="-688.2" font-family="Helvetica,sans-Serif" font-size="11.00">[table]</text>
<polygon fill="none" stroke="black" points="442,-662 442,-680 580,-680 580,-662 442,-662"/>
<text text-anchor="start" x="445" y="-668.2" font-family="Helvetica,sans-Serif" font-size="11.00">...</text>
<polygon fill="#ffffff" stroke="transparent" points="442,-644 442,-662 490,-662 490,-644 442,-644"/>
<polygon fill="none" stroke="black" points="442,-644 442,-662 490,-662 490,-644 442,-644"/>
<text text-anchor="start" x="445" y="-650.2" font-family="Helvetica,sans-Serif" font-size="11.00">&lt; 2</text>
<polygon fill="#ffffff" stroke="transparent" points="490,-644 490,-662 554,-662 554,-644 490,-644"/>
<polygon fill="none" stroke="black" points="490,-644 490,-662 554,-662 554,-644 490,-644"/>
<text text-anchor="start" x="506" y="-650.2" font-family="Helvetica,sans-Serif" font-size="11.00">378 rows</text>
<polygon fill="#ffffff" stroke="transparent" points="554,-644 554,-662 580,-662 580,-644 554,-644"/>
<polygon fill="none" stroke="black" points="554,-644 554,-662 580,-662 580,-644 554,-644"/>
<text text-anchor="start" x="570" y="-650.2" font-family="Helvetica,sans-Serif" font-size="11.00"> &#160;</text>
</a>
</g>
</g>
<!-- eventpublications&#45;&gt;publications -->
<g id="edge3" class="edge">
<title>eventpublications:w&#45;&gt;publications:e</title>
<path fill="none" stroke="black" d="M426.57,-669.05C357.95,-647.77 472.53,-460 380.5,-460"/>
<polygon fill="black" stroke="black" points="433.07,-669.93 440.52,-674.57 437.04,-670.46 441,-671 441,-671 441,-671 437.04,-670.46 441.48,-667.43 433.07,-669.93 433.07,-669.93"/>
<ellipse fill="none" stroke="black" cx="429.9" cy="-669.5" rx="3.2" ry="3.2"/>
</g>
<!-- externalpublications -->
<g id="node5" class="node">
<title>externalpublications</title>
<g id="a_node5"><a xlink:href="../../tables/externalpublications.html" xlink:title="externalpublications" target="_top">
<polygon fill="#ffffff" stroke="transparent" points="435.5,-565 435.5,-623 586.5,-623 586.5,-565 435.5,-565"/>
<polygon fill="#f5f5f5" stroke="transparent" points="436,-601 436,-623 587,-623 587,-601 436,-601"/>
<polygon fill="none" stroke="black" points="436,-601 436,-623 587,-623 587,-601 436,-601"/>
<text text-anchor="start" x="441" y="-610.2" font-family="Helvetica,sans-Serif" font-weight="bold" font-size="11.00">externalpublications</text>
<text text-anchor="start" x="552" y="-609.2" font-family="Helvetica,sans-Serif" font-size="11.00">[table]</text>
<polygon fill="none" stroke="black" points="436,-583 436,-601 587,-601 587,-583 436,-583"/>
<text text-anchor="start" x="439" y="-589.2" font-family="Helvetica,sans-Serif" font-size="11.00">...</text>
<polygon fill="#ffffff" stroke="transparent" points="436,-565 436,-583 486,-583 486,-565 436,-565"/>
<polygon fill="none" stroke="black" points="436,-565 436,-583 486,-583 486,-565 436,-565"/>
<text text-anchor="start" x="439" y="-571.2" font-family="Helvetica,sans-Serif" font-size="11.00">&lt; 2</text>
<polygon fill="#ffffff" stroke="transparent" points="486,-565 486,-583 560,-583 560,-565 486,-565"/>
<polygon fill="none" stroke="black" points="486,-565 486,-583 560,-583 560,-565 486,-565"/>
<text text-anchor="start" x="503" y="-571.2" font-family="Helvetica,sans-Serif" font-size="11.00">1,317 rows</text>
<polygon fill="#ffffff" stroke="transparent" points="560,-565 560,-583 587,-583 587,-565 560,-565"/>
<polygon fill="none" stroke="black" points="560,-565 560,-583 587,-583 587,-565 560,-565"/>
<text text-anchor="start" x="577" y="-571.2" font-family="Helvetica,sans-Serif" font-size="11.00"> &#160;</text>
</a>
</g>
</g>
<!-- externalpublications&#45;&gt;publications -->
<g id="edge4" class="edge">
<title>externalpublications:w&#45;&gt;publications:e</title>
<path fill="none" stroke="black" d="M420.51,-588.74C383.92,-568.41 438.02,-460 380.5,-460"/>
<polygon fill="black" stroke="black" points="427.2,-590.24 434.21,-595.51 431.1,-591.12 435,-592 435,-592 435,-592 431.1,-591.12 435.79,-588.49 427.2,-590.24 427.2,-590.24"/>
<ellipse fill="none" stroke="black" cx="424.07" cy="-589.54" rx="3.2" ry="3.2"/>
</g>
<!-- formtaxa -->
<g id="node6" class="node">
<title>formtaxa</title>
<g id="a_node6"><a xlink:href="../../tables/formtaxa.html" xlink:title="formtaxa" target="_top">
<polygon fill="#ffffff" stroke="transparent" points="648,-500 648,-558 739,-558 739,-500 648,-500"/>
<polygon fill="#f5f5f5" stroke="transparent" points="648.5,-536 648.5,-558 739.5,-558 739.5,-536 648.5,-536"/>
<polygon fill="none" stroke="black" points="648.5,-536 648.5,-558 739.5,-558 739.5,-536 648.5,-536"/>
<text text-anchor="start" x="653.5" y="-545.2" font-family="Helvetica,sans-Serif" font-weight="bold" font-size="11.00">formtaxa</text>
<text text-anchor="start" x="704.5" y="-544.2" font-family="Helvetica,sans-Serif" font-size="11.00">[table]</text>
<polygon fill="none" stroke="black" points="648.5,-518 648.5,-536 739.5,-536 739.5,-518 648.5,-518"/>
<text text-anchor="start" x="651.5" y="-524.2" font-family="Helvetica,sans-Serif" font-size="11.00">...</text>
<polygon fill="#ffffff" stroke="transparent" points="648.5,-500 648.5,-518 678.5,-518 678.5,-500 648.5,-500"/>
<polygon fill="none" stroke="black" points="648.5,-500 648.5,-518 678.5,-518 678.5,-500 648.5,-500"/>
<text text-anchor="start" x="651.5" y="-506.2" font-family="Helvetica,sans-Serif" font-size="11.00">&lt; 3</text>
<polygon fill="#ffffff" stroke="transparent" points="678.5,-500 678.5,-518 721.5,-518 721.5,-500 678.5,-500"/>
<polygon fill="none" stroke="black" points="678.5,-500 678.5,-518 721.5,-518 721.5,-500 678.5,-500"/>
<text text-anchor="start" x="685.5" y="-506.2" font-family="Helvetica,sans-Serif" font-size="11.00">3 rows</text>
<polygon fill="#ffffff" stroke="transparent" points="721.5,-500 721.5,-518 739.5,-518 739.5,-500 721.5,-500"/>
<polygon fill="none" stroke="black" points="721.5,-500 721.5,-518 739.5,-518 739.5,-500 721.5,-500"/>
<text text-anchor="start" x="729.5" y="-506.2" font-family="Helvetica,sans-Serif" font-size="11.00"> &#160;</text>
</a>
</g>
</g>
<!-- formtaxa&#45;&gt;publications -->
<g id="edge6" class="edge">
<title>formtaxa:w&#45;&gt;publications:e</title>
<path fill="none" stroke="black" d="M632.84,-527.36C542.41,-531.87 503.27,-575.93 420,-528 389.71,-510.56 415.45,-460 380.5,-460"/>
<polygon fill="black" stroke="black" points="639.5,-527.2 647.59,-530.6 643.5,-527.1 647.5,-527 647.5,-527 647.5,-527 643.5,-527.1 647.41,-523.4 639.5,-527.2 639.5,-527.2"/>
<ellipse fill="none" stroke="black" cx="636.3" cy="-527.28" rx="3.2" ry="3.2"/>
</g>
<!-- taxa -->
<g id="node7" class="node">
<title>taxa</title>
<g id="a_node7"><a xlink:href="../../tables/taxa.html" xlink:title="taxa" target="_top">
<polygon fill="#ffffff" stroke="transparent" points="453,-459 453,-517 569,-517 569,-459 453,-459"/>
<polygon fill="#f5f5f5" stroke="transparent" points="453,-495 453,-517 569,-517 569,-495 453,-495"/>
<polygon fill="none" stroke="black" points="453,-495 453,-517 569,-517 569,-495 453,-495"/>
<text text-anchor="start" x="458" y="-504.2" font-family="Helvetica,sans-Serif" font-weight="bold" font-size="11.00">taxa</text>
<text text-anchor="start" x="534" y="-503.2" font-family="Helvetica,sans-Serif" font-size="11.00">[table]</text>
<polygon fill="none" stroke="black" points="453,-477 453,-495 569,-495 569,-477 453,-477"/>
<text text-anchor="start" x="456" y="-483.2" font-family="Helvetica,sans-Serif" font-size="11.00">...</text>
<polygon fill="#ffffff" stroke="transparent" points="453,-459 453,-477 475,-477 475,-459 453,-459"/>
<polygon fill="none" stroke="black" points="453,-459 453,-477 475,-477 475,-459 453,-459"/>
<text text-anchor="start" x="456" y="-465.2" font-family="Helvetica,sans-Serif" font-size="11.00">&lt; 4</text>
<polygon fill="#ffffff" stroke="transparent" points="475,-459 475,-477 541,-477 541,-459 475,-459"/>
<polygon fill="none" stroke="black" points="475,-459 475,-477 541,-477 541,-459 475,-459"/>
<text text-anchor="start" x="478" y="-465.2" font-family="Helvetica,sans-Serif" font-size="11.00">46,322 rows</text>
<polygon fill="#ffffff" stroke="transparent" points="541,-459 541,-477 569,-477 569,-459 541,-459"/>
<polygon fill="none" stroke="black" points="541,-459 541,-477 569,-477 569,-459 541,-459"/>
<text text-anchor="start" x="544" y="-465.2" font-family="Helvetica,sans-Serif" font-size="11.00">17 &gt;</text>
</a>
</g>
</g>
<!-- formtaxa&#45;&gt;taxa -->
<g id="edge5" class="edge">
<title>formtaxa:w&#45;&gt;taxa:e</title>
<path fill="none" stroke="black" d="M633.53,-522.79C607.91,-510.67 603.64,-480.82 570,-486"/>
<polygon fill="black" stroke="black" points="639.84,-524.69 646.46,-530.45 643.67,-525.85 647.5,-527 647.5,-527 647.5,-527 643.67,-525.85 648.54,-523.55 639.84,-524.69 639.84,-524.69"/>
<ellipse fill="none" stroke="black" cx="636.78" cy="-523.77" rx="3.2" ry="3.2"/>
</g>
<!-- formtaxa&#45;&gt;taxa -->
<g id="edge7" class="edge">
<title>formtaxa:w&#45;&gt;taxa:e</title>
<path fill="none" stroke="black" d="M632.84,-527.27C607.84,-522.86 603.34,-491.99 570,-486"/>
<polygon fill="black" stroke="black" points="639.5,-527.15 647.57,-530.6 643.5,-527.07 647.5,-527 647.5,-527 647.5,-527 643.5,-527.07 647.43,-523.4 639.5,-527.15 639.5,-527.15"/>
<ellipse fill="none" stroke="black" cx="636.3" cy="-527.21" rx="3.2" ry="3.2"/>
</g>
<!-- taxa&#45;&gt;publications -->
<g id="edge17" class="edge">
<title>taxa:w&#45;&gt;publications:e</title>
<path fill="none" stroke="black" d="M437.51,-484.13C416.11,-478.17 408.77,-460 380.5,-460"/>
<polygon fill="black" stroke="black" points="444.07,-484.98 451.54,-489.57 448.03,-485.49 452,-486 452,-486 452,-486 448.03,-485.49 452.46,-482.43 444.07,-484.98 444.07,-484.98"/>
<ellipse fill="none" stroke="black" cx="440.89" cy="-484.57" rx="3.2" ry="3.2"/>
</g>
<!-- geochronpublications -->
<g id="node8" class="node">
<title>geochronpublications</title>
<g id="a_node8"><a xlink:href="../../tables/geochronpublications.html" xlink:title="geochronpublications" target="_top">
<polygon fill="#ffffff" stroke="transparent" points="431.5,-353 431.5,-411 590.5,-411 590.5,-353 431.5,-353"/>
<polygon fill="#f5f5f5" stroke="transparent" points="432,-389 432,-411 591,-411 591,-389 432,-389"/>
<polygon fill="none" stroke="black" points="432,-389 432,-411 591,-411 591,-389 432,-389"/>
<text text-anchor="start" x="437" y="-398.2" font-family="Helvetica,sans-Serif" font-weight="bold" font-size="11.00">geochronpublications</text>
<text text-anchor="start" x="556" y="-397.2" font-family="Helvetica,sans-Serif" font-size="11.00">[table]</text>
<polygon fill="none" stroke="black" points="432,-371 432,-389 591,-389 591,-371 432,-371"/>
<text text-anchor="start" x="435" y="-377.2" font-family="Helvetica,sans-Serif" font-size="11.00">...</text>
<polygon fill="#ffffff" stroke="transparent" points="432,-353 432,-371 483,-371 483,-353 432,-353"/>
<polygon fill="none" stroke="black" points="432,-353 432,-371 483,-371 483,-353 432,-353"/>
<text text-anchor="start" x="435" y="-359.2" font-family="Helvetica,sans-Serif" font-size="11.00">&lt; 2</text>
<polygon fill="#ffffff" stroke="transparent" points="483,-353 483,-371 563,-371 563,-353 483,-353"/>
<polygon fill="none" stroke="black" points="483,-353 483,-371 563,-371 563,-353 483,-353"/>
<text text-anchor="start" x="500" y="-359.2" font-family="Helvetica,sans-Serif" font-size="11.00">36,183 rows</text>
<polygon fill="#ffffff" stroke="transparent" points="563,-353 563,-371 591,-371 591,-353 563,-353"/>
<polygon fill="none" stroke="black" points="563,-353 563,-371 591,-371 591,-353 563,-353"/>
<text text-anchor="start" x="581" y="-359.2" font-family="Helvetica,sans-Serif" font-size="11.00"> &#160;</text>
</a>
</g>
</g>
<!-- geochronpublications&#45;&gt;publications -->
<g id="edge8" class="edge">
<title>geochronpublications:w&#45;&gt;publications:e</title>
<path fill="none" stroke="black" d="M417.05,-384.53C397.08,-401.45 416.47,-460 380.5,-460"/>
<polygon fill="black" stroke="black" points="423.39,-382.47 432.11,-383.42 427.2,-381.24 431,-380 431,-380 431,-380 427.2,-381.24 429.89,-376.58 423.39,-382.47 423.39,-382.47"/>
<ellipse fill="none" stroke="black" cx="420.35" cy="-383.46" rx="3.2" ry="3.2"/>
</g>
<!-- publicationauthors -->
<g id="node9" class="node">
<title>publicationauthors</title>
<g id="a_node9"><a xlink:href="../../tables/publicationauthors.html" xlink:title="publicationauthors" target="_top">
<polygon fill="#ffffff" stroke="transparent" points="439,-274 439,-332 583,-332 583,-274 439,-274"/>
<polygon fill="#f5f5f5" stroke="transparent" points="439,-310 439,-332 583,-332 583,-310 439,-310"/>
<polygon fill="none" stroke="black" points="439,-310 439,-332 583,-332 583,-310 439,-310"/>
<text text-anchor="start" x="444" y="-319.2" font-family="Helvetica,sans-Serif" font-weight="bold" font-size="11.00">publicationauthors</text>
<text text-anchor="start" x="548" y="-318.2" font-family="Helvetica,sans-Serif" font-size="11.00">[table]</text>
<polygon fill="none" stroke="black" points="439,-292 439,-310 583,-310 583,-292 439,-292"/>
<text text-anchor="start" x="442" y="-298.2" font-family="Helvetica,sans-Serif" font-size="11.00">...</text>
<polygon fill="#ffffff" stroke="transparent" points="439,-274 439,-292 482,-292 482,-274 439,-274"/>
<polygon fill="none" stroke="black" points="439,-274 439,-292 482,-292 482,-274 439,-274"/>
<text text-anchor="start" x="442" y="-280.2" font-family="Helvetica,sans-Serif" font-size="11.00">&lt; 2</text>
<polygon fill="#ffffff" stroke="transparent" points="482,-274 482,-292 559,-292 559,-274 482,-274"/>
<polygon fill="none" stroke="black" points="482,-274 482,-292 559,-292 559,-274 482,-274"/>
<text text-anchor="start" x="496" y="-280.2" font-family="Helvetica,sans-Serif" font-size="11.00">30,625 rows</text>
<polygon fill="#ffffff" stroke="transparent" points="559,-274 559,-292 583,-292 583,-274 559,-274"/>
<polygon fill="none" stroke="black" points="559,-274 559,-292 583,-292 583,-274 559,-274"/>
<text text-anchor="start" x="573" y="-280.2" font-family="Helvetica,sans-Serif" font-size="11.00"> &#160;</text>
</a>
</g>
</g>
<!-- publicationauthors&#45;&gt;publications -->
<g id="edge9" class="edge">
<title>publicationauthors:w&#45;&gt;publications:e</title>
<path fill="none" stroke="black" d="M423.6,-303.63C376.02,-324.3 449.92,-460 380.5,-460"/>
<polygon fill="black" stroke="black" points="430.13,-302.44 438.65,-304.54 434.06,-301.72 438,-301 438,-301 438,-301 434.06,-301.72 437.35,-297.46 430.13,-302.44 430.13,-302.44"/>
<ellipse fill="none" stroke="black" cx="426.98" cy="-303.01" rx="3.2" ry="3.2"/>
</g>
<!-- publicationeditors -->
<g id="node10" class="node">
<title>publicationeditors</title>
<g id="a_node10"><a xlink:href="../../tables/publicationeditors.html" xlink:title="publicationeditors" target="_top">
<polygon fill="#ffffff" stroke="transparent" points="441,-195 441,-253 581,-253 581,-195 441,-195"/>
<polygon fill="#f5f5f5" stroke="transparent" points="441,-231 441,-253 581,-253 581,-231 441,-231"/>
<polygon fill="none" stroke="black" points="441,-231 441,-253 581,-253 581,-231 441,-231"/>
<text text-anchor="start" x="446" y="-240.2" font-family="Helvetica,sans-Serif" font-weight="bold" font-size="11.00">publicationeditors</text>
<text text-anchor="start" x="546" y="-239.2" font-family="Helvetica,sans-Serif" font-size="11.00">[table]</text>
<polygon fill="none" stroke="black" points="441,-213 441,-231 581,-231 581,-213 441,-213"/>
<text text-anchor="start" x="444" y="-219.2" font-family="Helvetica,sans-Serif" font-size="11.00">...</text>
<polygon fill="#ffffff" stroke="transparent" points="441,-195 441,-213 485,-213 485,-195 441,-195"/>
<polygon fill="none" stroke="black" points="441,-195 441,-213 485,-213 485,-195 441,-195"/>
<text text-anchor="start" x="444" y="-201.2" font-family="Helvetica,sans-Serif" font-size="11.00">&lt; 1</text>
<polygon fill="#ffffff" stroke="transparent" points="485,-195 485,-213 556,-213 556,-195 485,-195"/>
<polygon fill="none" stroke="black" points="485,-195 485,-213 556,-213 556,-195 485,-195"/>
<text text-anchor="start" x="499" y="-201.2" font-family="Helvetica,sans-Serif" font-size="11.00">1,466 rows</text>
<polygon fill="#ffffff" stroke="transparent" points="556,-195 556,-213 581,-213 581,-195 556,-195"/>
<polygon fill="none" stroke="black" points="556,-195 556,-213 581,-213 581,-195 556,-195"/>
<text text-anchor="start" x="571" y="-201.2" font-family="Helvetica,sans-Serif" font-size="11.00"> &#160;</text>
</a>
</g>
</g>
<!-- publicationeditors&#45;&gt;publications -->
<g id="edge10" class="edge">
<title>publicationeditors:w&#45;&gt;publications:e</title>
<path fill="none" stroke="black" d="M426.81,-228.37C394.17,-266.21 429.69,-460 380.5,-460"/>
<polygon fill="black" stroke="black" points="432.8,-225.48 441.56,-225.24 436.4,-223.74 440,-222 440,-222 440,-222 436.4,-223.74 438.44,-218.76 432.8,-225.48 432.8,-225.48"/>
<ellipse fill="none" stroke="black" cx="429.91" cy="-226.87" rx="3.2" ry="3.2"/>
</g>
<!-- publicationtranslators -->
<g id="node12" class="node">
<title>publicationtranslators</title>
<g id="a_node12"><a xlink:href="../../tables/publicationtranslators.html" xlink:title="publicationtranslators" target="_top">
<polygon fill="#ffffff" stroke="transparent" points="431,-116 431,-174 591,-174 591,-116 431,-116"/>
<polygon fill="#f5f5f5" stroke="transparent" points="431,-152 431,-174 591,-174 591,-152 431,-152"/>
<polygon fill="none" stroke="black" points="431,-152 431,-174 591,-174 591,-152 431,-152"/>
<text text-anchor="start" x="436" y="-161.2" font-family="Helvetica,sans-Serif" font-weight="bold" font-size="11.00">publicationtranslators</text>
<text text-anchor="start" x="556" y="-160.2" font-family="Helvetica,sans-Serif" font-size="11.00">[table]</text>
<polygon fill="none" stroke="black" points="431,-134 431,-152 591,-152 591,-134 431,-134"/>
<text text-anchor="start" x="434" y="-140.2" font-family="Helvetica,sans-Serif" font-size="11.00">...</text>
<polygon fill="#ffffff" stroke="transparent" points="431,-116 431,-134 496,-134 496,-116 431,-116"/>
<polygon fill="none" stroke="black" points="431,-116 431,-134 496,-134 496,-116 431,-116"/>
<text text-anchor="start" x="434" y="-122.2" font-family="Helvetica,sans-Serif" font-size="11.00">&lt; 1</text>
<polygon fill="#ffffff" stroke="transparent" points="496,-116 496,-134 556,-134 556,-116 496,-116"/>
<polygon fill="none" stroke="black" points="496,-116 496,-134 556,-134 556,-116 496,-116"/>
<text text-anchor="start" x="520" y="-122.2" font-family="Helvetica,sans-Serif" font-size="11.00">4 rows</text>
<polygon fill="#ffffff" stroke="transparent" points="556,-116 556,-134 591,-134 591,-116 556,-116"/>
<polygon fill="none" stroke="black" points="556,-116 556,-134 591,-134 591,-116 556,-116"/>
<text text-anchor="start" x="581" y="-122.2" font-family="Helvetica,sans-Serif" font-size="11.00"> &#160;</text>
</a>
</g>
</g>
<!-- publicationtranslators&#45;&gt;publications -->
<g id="edge12" class="edge">
<title>publicationtranslators:w&#45;&gt;publications:e</title>
<path fill="none" stroke="black" d="M416.42,-148.24C371.93,-189.45 446.37,-460 380.5,-460"/>
<polygon fill="black" stroke="black" points="422.54,-145.88 431.3,-146.36 426.27,-144.44 430,-143 430,-143 430,-143 426.27,-144.44 428.7,-139.64 422.54,-145.88 422.54,-145.88"/>
<ellipse fill="none" stroke="black" cx="419.55" cy="-147.03" rx="3.2" ry="3.2"/>
</g>
<!-- relativeagepublications -->
<g id="node13" class="node">
<title>relativeagepublications</title>
<g id="a_node13"><a xlink:href="../../tables/relativeagepublications.html" xlink:title="relativeagepublications" target="_top">
<polygon fill="#ffffff" stroke="transparent" points="428,-37 428,-95 594,-95 594,-37 428,-37"/>
<polygon fill="#f5f5f5" stroke="transparent" points="428,-73 428,-95 594,-95 594,-73 428,-73"/>
<polygon fill="none" stroke="black" points="428,-73 428,-95 594,-95 594,-73 428,-73"/>
<text text-anchor="start" x="433" y="-82.2" font-family="Helvetica,sans-Serif" font-weight="bold" font-size="11.00">relativeagepublications</text>
<text text-anchor="start" x="559" y="-81.2" font-family="Helvetica,sans-Serif" font-size="11.00">[table]</text>
<polygon fill="none" stroke="black" points="428,-55 428,-73 594,-73 594,-55 428,-55"/>
<text text-anchor="start" x="431" y="-61.2" font-family="Helvetica,sans-Serif" font-size="11.00">...</text>
<polygon fill="#ffffff" stroke="transparent" points="428,-37 428,-55 490,-55 490,-37 428,-37"/>
<polygon fill="none" stroke="black" points="428,-37 428,-55 490,-55 490,-37 428,-37"/>
<text text-anchor="start" x="431" y="-43.2" font-family="Helvetica,sans-Serif" font-size="11.00">&lt; 2</text>
<polygon fill="#ffffff" stroke="transparent" points="490,-37 490,-55 561,-55 561,-37 490,-37"/>
<polygon fill="none" stroke="black" points="490,-37 490,-55 561,-55 561,-37 490,-37"/>
<text text-anchor="start" x="513" y="-43.2" font-family="Helvetica,sans-Serif" font-size="11.00">115 rows</text>
<polygon fill="#ffffff" stroke="transparent" points="561,-37 561,-55 594,-55 594,-37 561,-37"/>
<polygon fill="none" stroke="black" points="561,-37 561,-55 594,-55 594,-37 561,-37"/>
<text text-anchor="start" x="584" y="-43.2" font-family="Helvetica,sans-Serif" font-size="11.00"> &#160;</text>
</a>
</g>
</g>
<!-- relativeagepublications&#45;&gt;publications -->
<g id="edge13" class="edge">
<title>relativeagepublications:w&#45;&gt;publications:e</title>
<path fill="none" stroke="black" d="M412.85,-68.45C353.88,-111.95 463.57,-460 380.5,-460"/>
<polygon fill="black" stroke="black" points="419.37,-66.4 428.08,-67.43 423.18,-65.2 427,-64 427,-64 427,-64 423.18,-65.2 425.92,-60.57 419.37,-66.4 419.37,-66.4"/>
<ellipse fill="none" stroke="black" cx="416.32" cy="-67.36" rx="3.2" ry="3.2"/>
</g>
<!-- synonymy -->
<g id="node14" class="node">
<title>synonymy</title>
<g id="a_node14"><a xlink:href="../../tables/synonymy.html" xlink:title="synonymy" target="_top">
<polygon fill="#ffffff" stroke="transparent" points="643,-421 643,-479 744,-479 744,-421 643,-421"/>
<polygon fill="#f5f5f5" stroke="transparent" points="643.5,-457 643.5,-479 744.5,-479 744.5,-457 643.5,-457"/>
<polygon fill="none" stroke="black" points="643.5,-457 643.5,-479 744.5,-479 744.5,-457 643.5,-457"/>
<text text-anchor="start" x="648.5" y="-466.2" font-family="Helvetica,sans-Serif" font-weight="bold" font-size="11.00">synonymy</text>
<text text-anchor="start" x="709.5" y="-465.2" font-family="Helvetica,sans-Serif" font-size="11.00">[table]</text>
<polygon fill="none" stroke="black" points="643.5,-439 643.5,-457 744.5,-457 744.5,-439 643.5,-439"/>
<text text-anchor="start" x="646.5" y="-445.2" font-family="Helvetica,sans-Serif" font-size="11.00">...</text>
<polygon fill="#ffffff" stroke="transparent" points="643.5,-421 643.5,-439 665.5,-439 665.5,-421 643.5,-421"/>
<polygon fill="none" stroke="black" points="643.5,-421 643.5,-439 665.5,-439 665.5,-421 643.5,-421"/>
<text text-anchor="start" x="646.5" y="-427.2" font-family="Helvetica,sans-Serif" font-size="11.00">&lt; 5</text>
<polygon fill="#ffffff" stroke="transparent" points="665.5,-421 665.5,-439 731.5,-439 731.5,-421 665.5,-421"/>
<polygon fill="none" stroke="black" points="665.5,-421 665.5,-439 731.5,-439 731.5,-421 665.5,-421"/>
<text text-anchor="start" x="668.5" y="-427.2" font-family="Helvetica,sans-Serif" font-size="11.00">37,992 rows</text>
<polygon fill="#ffffff" stroke="transparent" points="731.5,-421 731.5,-439 744.5,-439 744.5,-421 731.5,-421"/>
<polygon fill="none" stroke="black" points="731.5,-421 731.5,-439 744.5,-439 744.5,-421 731.5,-421"/>
<text text-anchor="start" x="734.5" y="-427.2" font-family="Helvetica,sans-Serif" font-size="11.00"> &#160;</text>
</a>
</g>
</g>
<!-- synonymy&#45;&gt;publications -->
<g id="edge14" class="edge">
<title>synonymy:w&#45;&gt;publications:e</title>
<path fill="none" stroke="black" d="M627.98,-447.91C540.82,-446.79 512.98,-436.08 420,-449 401.95,-451.51 398.72,-460 380.5,-460"/>
<polygon fill="black" stroke="black" points="634.5,-447.95 642.48,-451.6 638.5,-447.97 642.5,-448 642.5,-448 642.5,-448 638.5,-447.97 642.52,-444.4 634.5,-447.95 634.5,-447.95"/>
<ellipse fill="none" stroke="black" cx="631.3" cy="-447.93" rx="3.2" ry="3.2"/>
</g>
<!-- synonymy&#45;&gt;taxa -->
<g id="edge15" class="edge">
<title>synonymy:w&#45;&gt;taxa:e</title>
<path fill="none" stroke="black" d="M627.85,-448.12C605.31,-453.09 600.7,-480.94 570,-486"/>
<polygon fill="black" stroke="black" points="634.5,-448.07 642.53,-451.6 638.5,-448.03 642.5,-448 642.5,-448 642.5,-448 638.5,-448.03 642.47,-444.4 634.5,-448.07 634.5,-448.07"/>
<ellipse fill="none" stroke="black" cx="631.3" cy="-448.09" rx="3.2" ry="3.2"/>
</g>
<!-- synonymy&#45;&gt;taxa -->
<g id="edge16" class="edge">
<title>synonymy:w&#45;&gt;taxa:e</title>
<path fill="none" stroke="black" d="M628.8,-452.75C605.43,-465.04 601.12,-491.99 570,-486"/>
<polygon fill="black" stroke="black" points="634.94,-450.62 643.68,-451.4 638.72,-449.31 642.5,-448 642.5,-448 642.5,-448 638.72,-449.31 641.32,-444.6 634.94,-450.62 634.94,-450.62"/>
<ellipse fill="none" stroke="black" cx="631.92" cy="-451.67" rx="3.2" ry="3.2"/>
</g>
</g>
</svg>
