<?xml version="1.0" encoding="UTF-8" standalone="no"?>
<!DOCTYPE svg PUBLIC "-//W3C//DTD SVG 1.1//EN"
 "http://www.w3.org/Graphics/SVG/1.1/DTD/svg11.dtd">
<!-- Generated by graphviz version 2.43.0 (0)
 -->
<!-- Title: oneDegreeRelationshipsDiagramImplied Pages: 1 -->
<svg width="429pt" height="269pt"
 viewBox="0.00 0.00 429.00 269.00" xmlns="http://www.w3.org/2000/svg" xmlns:xlink="http://www.w3.org/1999/xlink">
<g id="graph0" class="graph" transform="scale(1 1) rotate(0) translate(4 265)">
<title>oneDegreeRelationshipsDiagramImplied</title>
<polygon fill="#ffffff" stroke="transparent" points="-4,4 -4,-265 425,-265 425,4 -4,4"/>
<text text-anchor="middle" x="71.5" y="-7.2" font-family="Helvetica,sans-Serif" font-size="11.00">Generated by SchemaSpy</text>
<!-- publicationtranslators -->
<g id="node1" class="node">
<title>publicationtranslators</title>
<g id="a_node1"><a xlink:href="../../tables/publicationtranslators.html" xlink:title="publicationtranslators" target="_top">
<polygon fill="#ffffff" stroke="transparent" points="180,-37 180,-257 413,-257 413,-37 180,-37"/>
<polygon fill="#f5f5f5" stroke="transparent" points="182.5,-233 182.5,-255 411.5,-255 411.5,-233 182.5,-233"/>
<polygon fill="none" stroke="black" points="182.5,-233 182.5,-255 411.5,-255 411.5,-233 182.5,-233"/>
<text text-anchor="start" x="187.5" y="-242.2" font-family="Helvetica,sans-Serif" font-weight="bold" font-size="11.00">publicationtranslators</text>
<text text-anchor="start" x="376.5" y="-241.2" font-family="Helvetica,sans-Serif" font-size="11.00">[table]</text>
<polygon fill="none" stroke="black" points="182.5,-211 182.5,-233 337.5,-233 337.5,-211 182.5,-211"/>
<image xlink:href="../../images/primaryKeys.png" width="11px" height="12px" preserveAspectRatio="xMinYMin meet" x="187.5" y="-228"/>
<text text-anchor="start" x="202.5" y="-219.2" font-family="Helvetica,sans-Serif" font-size="11.00">translatorid</text>
<polygon fill="none" stroke="black" points="337.5,-211 337.5,-233 411.5,-233 411.5,-211 337.5,-211"/>
<text text-anchor="start" x="340.5" y="-219.2" font-family="Helvetica,sans-Serif" font-size="11.00">serial[10]</text>
<polygon fill="none" stroke="black" points="182.5,-189 182.5,-211 337.5,-211 337.5,-189 182.5,-189"/>
<image xlink:href="../../images/foreignKeys.png" width="11px" height="12px" preserveAspectRatio="xMinYMin meet" x="187.5" y="-206"/>
<text text-anchor="start" x="202.5" y="-197.2" font-family="Helvetica,sans-Serif" font-size="11.00">publicationid</text>
<polygon fill="none" stroke="black" points="337.5,-189 337.5,-211 411.5,-211 411.5,-189 337.5,-189"/>
<text text-anchor="start" x="340.5" y="-197.2" font-family="Helvetica,sans-Serif" font-size="11.00">int4[10]</text>
<polygon fill="none" stroke="black" points="182.5,-167 182.5,-189 337.5,-189 337.5,-167 182.5,-167"/>
<text text-anchor="start" x="202.5" y="-175.2" font-family="Helvetica,sans-Serif" font-size="11.00">translatororder</text>
<polygon fill="none" stroke="black" points="337.5,-167 337.5,-189 411.5,-189 411.5,-167 337.5,-167"/>
<text text-anchor="start" x="340.5" y="-175.2" font-family="Helvetica,sans-Serif" font-size="11.00">int4[10]</text>
<polygon fill="none" stroke="black" points="182.5,-145 182.5,-167 337.5,-167 337.5,-145 182.5,-145"/>
<text text-anchor="start" x="202.5" y="-153.2" font-family="Helvetica,sans-Serif" font-size="11.00">familyname</text>
<polygon fill="none" stroke="black" points="337.5,-145 337.5,-167 411.5,-167 411.5,-145 337.5,-145"/>
<text text-anchor="start" x="340.5" y="-153.2" font-family="Helvetica,sans-Serif" font-size="11.00">varchar[64]</text>
<polygon fill="none" stroke="black" points="182.5,-123 182.5,-145 337.5,-145 337.5,-123 182.5,-123"/>
<text text-anchor="start" x="202.5" y="-131.2" font-family="Helvetica,sans-Serif" font-size="11.00">initials</text>
<polygon fill="none" stroke="black" points="337.5,-123 337.5,-145 411.5,-145 411.5,-123 337.5,-123"/>
<text text-anchor="start" x="340.5" y="-131.2" font-family="Helvetica,sans-Serif" font-size="11.00">varchar[8]</text>
<polygon fill="none" stroke="black" points="182.5,-101 182.5,-123 337.5,-123 337.5,-101 182.5,-101"/>
<text text-anchor="start" x="202.5" y="-109.2" font-family="Helvetica,sans-Serif" font-size="11.00">suffix</text>
<polygon fill="none" stroke="black" points="337.5,-101 337.5,-123 411.5,-123 411.5,-101 337.5,-101"/>
<text text-anchor="start" x="340.5" y="-109.2" font-family="Helvetica,sans-Serif" font-size="11.00">varchar[8]</text>
<polygon fill="none" stroke="black" points="182.5,-79 182.5,-101 337.5,-101 337.5,-79 182.5,-79"/>
<text text-anchor="start" x="202.5" y="-87.2" font-family="Helvetica,sans-Serif" font-size="11.00">recdatecreated</text>
<polygon fill="none" stroke="black" points="337.5,-79 337.5,-101 411.5,-101 411.5,-79 337.5,-79"/>
<text text-anchor="start" x="340.5" y="-87.2" font-family="Helvetica,sans-Serif" font-size="11.00">timestamp[22]</text>
<polygon fill="none" stroke="black" points="182.5,-57 182.5,-79 337.5,-79 337.5,-57 182.5,-57"/>
<text text-anchor="start" x="202.5" y="-65.2" font-family="Helvetica,sans-Serif" font-size="11.00">recdatemodified</text>
<polygon fill="none" stroke="black" points="337.5,-57 337.5,-79 411.5,-79 411.5,-57 337.5,-57"/>
<text text-anchor="start" x="340.5" y="-65.2" font-family="Helvetica,sans-Serif" font-size="11.00">timestamp[22]</text>
<polygon fill="#ffffff" stroke="transparent" points="182.5,-39 182.5,-57 251.5,-57 251.5,-39 182.5,-39"/>
<polygon fill="none" stroke="black" points="182.5,-39 182.5,-57 251.5,-57 251.5,-39 182.5,-39"/>
<text text-anchor="start" x="185.5" y="-45.2" font-family="Helvetica,sans-Serif" font-size="11.00">&lt; 1</text>
<polygon fill="#ffffff" stroke="transparent" points="251.5,-39 251.5,-57 337.5,-57 337.5,-39 251.5,-39"/>
<polygon fill="none" stroke="black" points="251.5,-39 251.5,-57 337.5,-57 337.5,-39 251.5,-39"/>
<text text-anchor="start" x="301.5" y="-45.2" font-family="Helvetica,sans-Serif" font-size="11.00">4 rows</text>
<polygon fill="#ffffff" stroke="transparent" points="337.5,-39 337.5,-57 411.5,-57 411.5,-39 337.5,-39"/>
<polygon fill="none" stroke="black" points="337.5,-39 337.5,-57 411.5,-57 411.5,-39 337.5,-39"/>
<text text-anchor="start" x="392.5" y="-45.2" font-family="Helvetica,sans-Serif" font-size="11.00">0 &gt;</text>
<polygon fill="none" stroke="black" stroke-width="2" points="181,-38 181,-256 412,-256 412,-38 181,-38"/>
</a>
</g>
</g>
<!-- publications -->
<g id="node2" class="node">
<title>publications</title>
<g id="a_node2"><a xlink:href="../../tables/publications.html" xlink:title="publications" target="_top">
<polygon fill="#ffffff" stroke="transparent" points="8,-131 8,-233 131,-233 131,-131 8,-131"/>
<polygon fill="#f5f5f5" stroke="transparent" points="8.5,-211 8.5,-233 131.5,-233 131.5,-211 8.5,-211"/>
<polygon fill="none" stroke="black" points="8.5,-211 8.5,-233 131.5,-233 131.5,-211 8.5,-211"/>
<text text-anchor="start" x="13.5" y="-220.2" font-family="Helvetica,sans-Serif" font-weight="bold" font-size="11.00">publications</text>
<text text-anchor="start" x="96.5" y="-219.2" font-family="Helvetica,sans-Serif" font-size="11.00">[table]</text>
<polygon fill="none" stroke="black" points="8.5,-189 8.5,-211 131.5,-211 131.5,-189 8.5,-189"/>
<image xlink:href="../../images/primaryKeys.png" width="11px" height="12px" preserveAspectRatio="xMinYMin meet" x="13.5" y="-206"/>
<text text-anchor="start" x="28.5" y="-197.2" font-family="Helvetica,sans-Serif" font-size="11.00">publicationid</text>
<polygon fill="none" stroke="black" points="8.5,-167 8.5,-189 131.5,-189 131.5,-167 8.5,-167"/>
<image xlink:href="../../images/foreignKeys.png" width="11px" height="12px" preserveAspectRatio="xMinYMin meet" x="13.5" y="-184"/>
<text text-anchor="start" x="28.5" y="-175.2" font-family="Helvetica,sans-Serif" font-size="11.00">pubtypeid</text>
<polygon fill="none" stroke="black" points="8.5,-149 8.5,-167 131.5,-167 131.5,-149 8.5,-149"/>
<text text-anchor="start" x="11.5" y="-155.2" font-family="Helvetica,sans-Serif" font-size="11.00">...</text>
<polygon fill="#ffffff" stroke="transparent" points="8.5,-131 8.5,-149 33.5,-149 33.5,-131 8.5,-131"/>
<polygon fill="none" stroke="black" points="8.5,-131 8.5,-149 33.5,-149 33.5,-131 8.5,-131"/>
<text text-anchor="start" x="11.5" y="-137.2" font-family="Helvetica,sans-Serif" font-size="11.00">&lt; 1</text>
<polygon fill="#ffffff" stroke="transparent" points="33.5,-131 33.5,-149 101.5,-149 101.5,-131 33.5,-131"/>
<polygon fill="none" stroke="black" points="33.5,-131 33.5,-149 101.5,-149 101.5,-131 33.5,-131"/>
<text text-anchor="start" x="38.5" y="-137.2" font-family="Helvetica,sans-Serif" font-size="11.00">13,466 rows</text>
<polygon fill="#ffffff" stroke="transparent" points="101.5,-131 101.5,-149 131.5,-149 131.5,-131 101.5,-131"/>
<polygon fill="none" stroke="black" points="101.5,-131 101.5,-149 131.5,-149 131.5,-131 101.5,-131"/>
<text text-anchor="start" x="106.5" y="-137.2" font-family="Helvetica,sans-Serif" font-size="11.00">12 &gt;</text>
</a>
</g>
</g>
<!-- publicationtranslators&#45;&gt;publications -->
<g id="edge1" class="edge">
<title>publicationtranslators:w&#45;&gt;publications:e</title>
<path fill="none" stroke="black" d="M166.99,-200C155.68,-200 148.49,-200 132.5,-200"/>
<polygon fill="black" stroke="black" points="173.5,-200 181.5,-203.6 177.5,-200 181.5,-200 181.5,-200 181.5,-200 177.5,-200 181.5,-196.4 173.5,-200 173.5,-200"/>
<ellipse fill="none" stroke="black" cx="170.3" cy="-200" rx="3.2" ry="3.2"/>
</g>
</g>
</svg>
