<?xml version="1.0" encoding="UTF-8" standalone="no"?>
<!DOCTYPE svg PUBLIC "-//W3C//DTD SVG 1.1//EN"
 "http://www.w3.org/Graphics/SVG/1.1/DTD/svg11.dtd">
<!-- Generated by graphviz version 2.43.0 (0)
 -->
<!-- Title: twoDegreesRelationshipsDiagramImplied Pages: 1 -->
<svg width="736pt" height="1095pt"
 viewBox="0.00 0.00 736.00 1095.00" xmlns="http://www.w3.org/2000/svg" xmlns:xlink="http://www.w3.org/1999/xlink">
<g id="graph0" class="graph" transform="scale(1 1) rotate(0) translate(4 1091)">
<title>twoDegreesRelationshipsDiagramImplied</title>
<polygon fill="#ffffff" stroke="transparent" points="-4,4 -4,-1091 732,-1091 732,4 -4,4"/>
<text text-anchor="middle" x="71.5" y="-7.2" font-family="Helvetica,sans-Serif" font-size="11.00">Generated by SchemaSpy</text>
<!-- calibrationcurves -->
<g id="node1" class="node">
<title>calibrationcurves</title>
<g id="a_node1"><a xlink:href="../../tables/calibrationcurves.html" xlink:title="calibrationcurves" target="_top">
<polygon fill="#ffffff" stroke="transparent" points="398,-1025 398,-1083 533,-1083 533,-1025 398,-1025"/>
<polygon fill="#f5f5f5" stroke="transparent" points="398.5,-1061 398.5,-1083 533.5,-1083 533.5,-1061 398.5,-1061"/>
<polygon fill="none" stroke="black" points="398.5,-1061 398.5,-1083 533.5,-1083 533.5,-1061 398.5,-1061"/>
<text text-anchor="start" x="403.5" y="-1070.2" font-family="Helvetica,sans-Serif" font-weight="bold" font-size="11.00">calibrationcurves</text>
<text text-anchor="start" x="498.5" y="-1069.2" font-family="Helvetica,sans-Serif" font-size="11.00">[table]</text>
<polygon fill="none" stroke="black" points="398.5,-1043 398.5,-1061 533.5,-1061 533.5,-1043 398.5,-1043"/>
<text text-anchor="start" x="401.5" y="-1049.2" font-family="Helvetica,sans-Serif" font-size="11.00">...</text>
<polygon fill="#ffffff" stroke="transparent" points="398.5,-1025 398.5,-1043 443.5,-1043 443.5,-1025 398.5,-1025"/>
<polygon fill="none" stroke="black" points="398.5,-1025 398.5,-1043 443.5,-1043 443.5,-1025 398.5,-1025"/>
<text text-anchor="start" x="401.5" y="-1031.2" font-family="Helvetica,sans-Serif" font-size="11.00">&lt; 1</text>
<polygon fill="#ffffff" stroke="transparent" points="443.5,-1025 443.5,-1043 499.5,-1043 499.5,-1025 443.5,-1025"/>
<polygon fill="none" stroke="black" points="443.5,-1025 443.5,-1043 499.5,-1043 499.5,-1025 443.5,-1025"/>
<text text-anchor="start" x="457.5" y="-1031.2" font-family="Helvetica,sans-Serif" font-size="11.00">15 rows</text>
<polygon fill="#ffffff" stroke="transparent" points="499.5,-1025 499.5,-1043 533.5,-1043 533.5,-1025 499.5,-1025"/>
<polygon fill="none" stroke="black" points="499.5,-1025 499.5,-1043 533.5,-1043 533.5,-1025 499.5,-1025"/>
<text text-anchor="start" x="514.5" y="-1031.2" font-family="Helvetica,sans-Serif" font-size="11.00">2 &gt;</text>
</a>
</g>
</g>
<!-- publications -->
<g id="node2" class="node">
<title>publications</title>
<g id="a_node2"><a xlink:href="../../tables/publications.html" xlink:title="publications" target="_top">
<polygon fill="#ffffff" stroke="transparent" points="189,-589 189,-691 312,-691 312,-589 189,-589"/>
<polygon fill="#f5f5f5" stroke="transparent" points="189.5,-669 189.5,-691 312.5,-691 312.5,-669 189.5,-669"/>
<polygon fill="none" stroke="black" points="189.5,-669 189.5,-691 312.5,-691 312.5,-669 189.5,-669"/>
<text text-anchor="start" x="194.5" y="-678.2" font-family="Helvetica,sans-Serif" font-weight="bold" font-size="11.00">publications</text>
<text text-anchor="start" x="277.5" y="-677.2" font-family="Helvetica,sans-Serif" font-size="11.00">[table]</text>
<polygon fill="none" stroke="black" points="189.5,-647 189.5,-669 312.5,-669 312.5,-647 189.5,-647"/>
<image xlink:href="../../images/primaryKeys.png" width="11px" height="12px" preserveAspectRatio="xMinYMin meet" x="194.5" y="-664"/>
<text text-anchor="start" x="209.5" y="-655.2" font-family="Helvetica,sans-Serif" font-size="11.00">publicationid</text>
<polygon fill="none" stroke="black" points="189.5,-625 189.5,-647 312.5,-647 312.5,-625 189.5,-625"/>
<image xlink:href="../../images/foreignKeys.png" width="11px" height="12px" preserveAspectRatio="xMinYMin meet" x="194.5" y="-642"/>
<text text-anchor="start" x="209.5" y="-633.2" font-family="Helvetica,sans-Serif" font-size="11.00">pubtypeid</text>
<polygon fill="none" stroke="black" points="189.5,-607 189.5,-625 312.5,-625 312.5,-607 189.5,-607"/>
<text text-anchor="start" x="192.5" y="-613.2" font-family="Helvetica,sans-Serif" font-size="11.00">...</text>
<polygon fill="#ffffff" stroke="transparent" points="189.5,-589 189.5,-607 214.5,-607 214.5,-589 189.5,-589"/>
<polygon fill="none" stroke="black" points="189.5,-589 189.5,-607 214.5,-607 214.5,-589 189.5,-589"/>
<text text-anchor="start" x="192.5" y="-595.2" font-family="Helvetica,sans-Serif" font-size="11.00">&lt; 1</text>
<polygon fill="#ffffff" stroke="transparent" points="214.5,-589 214.5,-607 282.5,-607 282.5,-589 214.5,-589"/>
<polygon fill="none" stroke="black" points="214.5,-589 214.5,-607 282.5,-607 282.5,-589 214.5,-589"/>
<text text-anchor="start" x="219.5" y="-595.2" font-family="Helvetica,sans-Serif" font-size="11.00">13,725 rows</text>
<polygon fill="#ffffff" stroke="transparent" points="282.5,-589 282.5,-607 312.5,-607 312.5,-589 282.5,-589"/>
<polygon fill="none" stroke="black" points="282.5,-589 282.5,-607 312.5,-607 312.5,-589 282.5,-589"/>
<text text-anchor="start" x="287.5" y="-595.2" font-family="Helvetica,sans-Serif" font-size="11.00">13 &gt;</text>
</a>
</g>
</g>
<!-- calibrationcurves&#45;&gt;publications -->
<g id="edge1" class="edge">
<title>calibrationcurves:w&#45;&gt;publications:e</title>
<path fill="none" stroke="black" d="M383.11,-1050C368.63,-1045.32 362.52,-1032.7 353,-1015 315.18,-944.71 393.32,-658 313.5,-658"/>
<polygon fill="black" stroke="black" points="389.58,-1050.9 397.01,-1055.57 393.54,-1051.45 397.5,-1052 397.5,-1052 397.5,-1052 393.54,-1051.45 397.99,-1048.43 389.58,-1050.9 389.58,-1050.9"/>
<ellipse fill="none" stroke="black" cx="386.41" cy="-1050.46" rx="3.2" ry="3.2"/>
</g>
<!-- publicationtypes -->
<g id="node11" class="node">
<title>publicationtypes</title>
<g id="a_node11"><a xlink:href="../../tables/publicationtypes.html" xlink:title="publicationtypes" target="_top">
<polygon fill="#ffffff" stroke="transparent" points="8,-609 8,-667 140,-667 140,-609 8,-609"/>
<polygon fill="#f5f5f5" stroke="transparent" points="8,-645 8,-667 140,-667 140,-645 8,-645"/>
<polygon fill="none" stroke="black" points="8,-645 8,-667 140,-667 140,-645 8,-645"/>
<text text-anchor="start" x="13" y="-654.2" font-family="Helvetica,sans-Serif" font-weight="bold" font-size="11.00">publicationtypes</text>
<text text-anchor="start" x="105" y="-653.2" font-family="Helvetica,sans-Serif" font-size="11.00">[table]</text>
<polygon fill="none" stroke="black" points="8,-627 8,-645 140,-645 140,-627 8,-627"/>
<text text-anchor="start" x="11" y="-633.2" font-family="Helvetica,sans-Serif" font-size="11.00">...</text>
<polygon fill="#ffffff" stroke="transparent" points="8,-609 8,-627 47,-627 47,-609 8,-609"/>
<polygon fill="none" stroke="black" points="8,-609 8,-627 47,-627 47,-609 8,-609"/>
<text text-anchor="start" x="11" y="-615.2" font-family="Helvetica,sans-Serif" font-size="11.00"> &#160;</text>
<polygon fill="#ffffff" stroke="transparent" points="47,-609 47,-627 105,-627 105,-609 47,-609"/>
<polygon fill="none" stroke="black" points="47,-609 47,-627 105,-627 105,-609 47,-609"/>
<text text-anchor="start" x="63" y="-615.2" font-family="Helvetica,sans-Serif" font-size="11.00">13 rows</text>
<polygon fill="#ffffff" stroke="transparent" points="105,-609 105,-627 140,-627 140,-609 105,-609"/>
<polygon fill="none" stroke="black" points="105,-609 105,-627 140,-627 140,-609 105,-609"/>
<text text-anchor="start" x="121" y="-615.2" font-family="Helvetica,sans-Serif" font-size="11.00">1 &gt;</text>
</a>
</g>
</g>
<!-- publications&#45;&gt;publicationtypes -->
<g id="edge11" class="edge">
<title>publications:w&#45;&gt;publicationtypes:e</title>
<path fill="none" stroke="black" d="M174.09,-636C163.32,-636 156.34,-636 141,-636"/>
<polygon fill="black" stroke="black" points="180.5,-636 188.5,-639.6 184.5,-636 188.5,-636 188.5,-636 188.5,-636 184.5,-636 188.5,-632.4 180.5,-636 180.5,-636"/>
<ellipse fill="none" stroke="black" cx="177.3" cy="-636" rx="3.2" ry="3.2"/>
</g>
<!-- datasetpublications -->
<g id="node3" class="node">
<title>datasetpublications</title>
<g id="a_node3"><a xlink:href="../../tables/datasetpublications.html" xlink:title="datasetpublications" target="_top">
<polygon fill="#ffffff" stroke="transparent" points="392,-946 392,-1004 539,-1004 539,-946 392,-946"/>
<polygon fill="#f5f5f5" stroke="transparent" points="392.5,-982 392.5,-1004 539.5,-1004 539.5,-982 392.5,-982"/>
<polygon fill="none" stroke="black" points="392.5,-982 392.5,-1004 539.5,-1004 539.5,-982 392.5,-982"/>
<text text-anchor="start" x="397.5" y="-991.2" font-family="Helvetica,sans-Serif" font-weight="bold" font-size="11.00">datasetpublications</text>
<text text-anchor="start" x="504.5" y="-990.2" font-family="Helvetica,sans-Serif" font-size="11.00">[table]</text>
<polygon fill="none" stroke="black" points="392.5,-964 392.5,-982 539.5,-982 539.5,-964 392.5,-964"/>
<text text-anchor="start" x="395.5" y="-970.2" font-family="Helvetica,sans-Serif" font-size="11.00">...</text>
<polygon fill="#ffffff" stroke="transparent" points="392.5,-946 392.5,-964 437.5,-964 437.5,-946 392.5,-946"/>
<polygon fill="none" stroke="black" points="392.5,-946 392.5,-964 437.5,-964 437.5,-946 392.5,-946"/>
<text text-anchor="start" x="395.5" y="-952.2" font-family="Helvetica,sans-Serif" font-size="11.00">&lt; 2</text>
<polygon fill="#ffffff" stroke="transparent" points="437.5,-946 437.5,-964 514.5,-964 514.5,-946 437.5,-946"/>
<polygon fill="none" stroke="black" points="437.5,-946 437.5,-964 514.5,-964 514.5,-946 437.5,-946"/>
<text text-anchor="start" x="451.5" y="-952.2" font-family="Helvetica,sans-Serif" font-size="11.00">61,382 rows</text>
<polygon fill="#ffffff" stroke="transparent" points="514.5,-946 514.5,-964 539.5,-964 539.5,-946 514.5,-946"/>
<polygon fill="none" stroke="black" points="514.5,-946 514.5,-964 539.5,-964 539.5,-946 514.5,-946"/>
<text text-anchor="start" x="529.5" y="-952.2" font-family="Helvetica,sans-Serif" font-size="11.00"> &#160;</text>
</a>
</g>
</g>
<!-- datasetpublications&#45;&gt;publications -->
<g id="edge2" class="edge">
<title>datasetpublications:w&#45;&gt;publications:e</title>
<path fill="none" stroke="black" d="M376.99,-970.19C365.36,-964.73 361.11,-951.84 353,-936 324.56,-880.46 375.9,-658 313.5,-658"/>
<polygon fill="black" stroke="black" points="383.65,-971.48 390.82,-976.53 387.57,-972.24 391.5,-973 391.5,-973 391.5,-973 387.57,-972.24 392.18,-969.47 383.65,-971.48 383.65,-971.48"/>
<ellipse fill="none" stroke="black" cx="380.5" cy="-970.87" rx="3.2" ry="3.2"/>
</g>
<!-- eventpublications -->
<g id="node4" class="node">
<title>eventpublications</title>
<g id="a_node4"><a xlink:href="../../tables/eventpublications.html" xlink:title="eventpublications" target="_top">
<polygon fill="#ffffff" stroke="transparent" points="396.5,-867 396.5,-925 534.5,-925 534.5,-867 396.5,-867"/>
<polygon fill="#f5f5f5" stroke="transparent" points="396.5,-903 396.5,-925 534.5,-925 534.5,-903 396.5,-903"/>
<polygon fill="none" stroke="black" points="396.5,-903 396.5,-925 534.5,-925 534.5,-903 396.5,-903"/>
<text text-anchor="start" x="401.5" y="-912.2" font-family="Helvetica,sans-Serif" font-weight="bold" font-size="11.00">eventpublications</text>
<text text-anchor="start" x="499.5" y="-911.2" font-family="Helvetica,sans-Serif" font-size="11.00">[table]</text>
<polygon fill="none" stroke="black" points="396.5,-885 396.5,-903 534.5,-903 534.5,-885 396.5,-885"/>
<text text-anchor="start" x="399.5" y="-891.2" font-family="Helvetica,sans-Serif" font-size="11.00">...</text>
<polygon fill="#ffffff" stroke="transparent" points="396.5,-867 396.5,-885 444.5,-885 444.5,-867 396.5,-867"/>
<polygon fill="none" stroke="black" points="396.5,-867 396.5,-885 444.5,-885 444.5,-867 396.5,-867"/>
<text text-anchor="start" x="399.5" y="-873.2" font-family="Helvetica,sans-Serif" font-size="11.00">&lt; 2</text>
<polygon fill="#ffffff" stroke="transparent" points="444.5,-867 444.5,-885 508.5,-885 508.5,-867 444.5,-867"/>
<polygon fill="none" stroke="black" points="444.5,-867 444.5,-885 508.5,-885 508.5,-867 444.5,-867"/>
<text text-anchor="start" x="460.5" y="-873.2" font-family="Helvetica,sans-Serif" font-size="11.00">378 rows</text>
<polygon fill="#ffffff" stroke="transparent" points="508.5,-867 508.5,-885 534.5,-885 534.5,-867 508.5,-867"/>
<polygon fill="none" stroke="black" points="508.5,-867 508.5,-885 534.5,-885 534.5,-867 508.5,-867"/>
<text text-anchor="start" x="524.5" y="-873.2" font-family="Helvetica,sans-Serif" font-size="11.00"> &#160;</text>
</a>
</g>
</g>
<!-- eventpublications&#45;&gt;publications -->
<g id="edge3" class="edge">
<title>eventpublications:w&#45;&gt;publications:e</title>
<path fill="none" stroke="black" d="M381.26,-891.74C367.84,-886.73 362.71,-873.76 353,-857 330.39,-817.99 358.58,-658 313.5,-658"/>
<polygon fill="black" stroke="black" points="387.6,-892.75 394.94,-897.56 391.55,-893.37 395.5,-894 395.5,-894 395.5,-894 391.55,-893.37 396.06,-890.44 387.6,-892.75 387.6,-892.75"/>
<ellipse fill="none" stroke="black" cx="384.44" cy="-892.25" rx="3.2" ry="3.2"/>
</g>
<!-- externalpublications -->
<g id="node5" class="node">
<title>externalpublications</title>
<g id="a_node5"><a xlink:href="../../tables/externalpublications.html" xlink:title="externalpublications" target="_top">
<polygon fill="#ffffff" stroke="transparent" points="390,-788 390,-846 541,-846 541,-788 390,-788"/>
<polygon fill="#f5f5f5" stroke="transparent" points="390.5,-824 390.5,-846 541.5,-846 541.5,-824 390.5,-824"/>
<polygon fill="none" stroke="black" points="390.5,-824 390.5,-846 541.5,-846 541.5,-824 390.5,-824"/>
<text text-anchor="start" x="395.5" y="-833.2" font-family="Helvetica,sans-Serif" font-weight="bold" font-size="11.00">externalpublications</text>
<text text-anchor="start" x="506.5" y="-832.2" font-family="Helvetica,sans-Serif" font-size="11.00">[table]</text>
<polygon fill="none" stroke="black" points="390.5,-806 390.5,-824 541.5,-824 541.5,-806 390.5,-806"/>
<text text-anchor="start" x="393.5" y="-812.2" font-family="Helvetica,sans-Serif" font-size="11.00">...</text>
<polygon fill="#ffffff" stroke="transparent" points="390.5,-788 390.5,-806 440.5,-806 440.5,-788 390.5,-788"/>
<polygon fill="none" stroke="black" points="390.5,-788 390.5,-806 440.5,-806 440.5,-788 390.5,-788"/>
<text text-anchor="start" x="393.5" y="-794.2" font-family="Helvetica,sans-Serif" font-size="11.00">&lt; 2</text>
<polygon fill="#ffffff" stroke="transparent" points="440.5,-788 440.5,-806 514.5,-806 514.5,-788 440.5,-788"/>
<polygon fill="none" stroke="black" points="440.5,-788 440.5,-806 514.5,-806 514.5,-788 440.5,-788"/>
<text text-anchor="start" x="457.5" y="-794.2" font-family="Helvetica,sans-Serif" font-size="11.00">1,317 rows</text>
<polygon fill="#ffffff" stroke="transparent" points="514.5,-788 514.5,-806 541.5,-806 541.5,-788 514.5,-788"/>
<polygon fill="none" stroke="black" points="514.5,-788 514.5,-806 541.5,-806 541.5,-788 514.5,-788"/>
<text text-anchor="start" x="531.5" y="-794.2" font-family="Helvetica,sans-Serif" font-size="11.00"> &#160;</text>
</a>
</g>
</g>
<!-- externalpublications&#45;&gt;publications -->
<g id="edge4" class="edge">
<title>externalpublications:w&#45;&gt;publications:e</title>
<path fill="none" stroke="black" d="M375.03,-812.66C322.58,-793.13 385.42,-658 313.5,-658"/>
<polygon fill="black" stroke="black" points="381.6,-813.72 388.93,-818.55 385.55,-814.36 389.5,-815 389.5,-815 389.5,-815 385.55,-814.36 390.07,-811.45 381.6,-813.72 381.6,-813.72"/>
<ellipse fill="none" stroke="black" cx="378.44" cy="-813.21" rx="3.2" ry="3.2"/>
</g>
<!-- formtaxa -->
<g id="node6" class="node">
<title>formtaxa</title>
<g id="a_node6"><a xlink:href="../../tables/formtaxa.html" xlink:title="formtaxa" target="_top">
<polygon fill="#ffffff" stroke="transparent" points="624,-723 624,-781 715,-781 715,-723 624,-723"/>
<polygon fill="#f5f5f5" stroke="transparent" points="624.5,-759 624.5,-781 715.5,-781 715.5,-759 624.5,-759"/>
<polygon fill="none" stroke="black" points="624.5,-759 624.5,-781 715.5,-781 715.5,-759 624.5,-759"/>
<text text-anchor="start" x="629.5" y="-768.2" font-family="Helvetica,sans-Serif" font-weight="bold" font-size="11.00">formtaxa</text>
<text text-anchor="start" x="680.5" y="-767.2" font-family="Helvetica,sans-Serif" font-size="11.00">[table]</text>
<polygon fill="none" stroke="black" points="624.5,-741 624.5,-759 715.5,-759 715.5,-741 624.5,-741"/>
<text text-anchor="start" x="627.5" y="-747.2" font-family="Helvetica,sans-Serif" font-size="11.00">...</text>
<polygon fill="#ffffff" stroke="transparent" points="624.5,-723 624.5,-741 654.5,-741 654.5,-723 624.5,-723"/>
<polygon fill="none" stroke="black" points="624.5,-723 624.5,-741 654.5,-741 654.5,-723 624.5,-723"/>
<text text-anchor="start" x="627.5" y="-729.2" font-family="Helvetica,sans-Serif" font-size="11.00">&lt; 3</text>
<polygon fill="#ffffff" stroke="transparent" points="654.5,-723 654.5,-741 697.5,-741 697.5,-723 654.5,-723"/>
<polygon fill="none" stroke="black" points="654.5,-723 654.5,-741 697.5,-741 697.5,-723 654.5,-723"/>
<text text-anchor="start" x="661.5" y="-729.2" font-family="Helvetica,sans-Serif" font-size="11.00">3 rows</text>
<polygon fill="#ffffff" stroke="transparent" points="697.5,-723 697.5,-741 715.5,-741 715.5,-723 697.5,-723"/>
<polygon fill="none" stroke="black" points="697.5,-723 697.5,-741 715.5,-741 715.5,-723 697.5,-723"/>
<text text-anchor="start" x="705.5" y="-729.2" font-family="Helvetica,sans-Serif" font-size="11.00"> &#160;</text>
</a>
</g>
</g>
<!-- formtaxa&#45;&gt;publications -->
<g id="edge6" class="edge">
<title>formtaxa:w&#45;&gt;publications:e</title>
<path fill="none" stroke="black" d="M608.98,-750.5C540.8,-754.59 399.51,-781.78 353,-751 315.55,-726.22 358.41,-658 313.5,-658"/>
<polygon fill="black" stroke="black" points="615.5,-750.27 623.62,-753.6 619.5,-750.14 623.5,-750 623.5,-750 623.5,-750 619.5,-750.14 623.38,-746.4 615.5,-750.27 615.5,-750.27"/>
<ellipse fill="none" stroke="black" cx="612.31" cy="-750.38" rx="3.2" ry="3.2"/>
</g>
<!-- taxa -->
<g id="node7" class="node">
<title>taxa</title>
<g id="a_node7"><a xlink:href="../../tables/taxa.html" xlink:title="taxa" target="_top">
<polygon fill="#ffffff" stroke="transparent" points="407.5,-682 407.5,-740 523.5,-740 523.5,-682 407.5,-682"/>
<polygon fill="#f5f5f5" stroke="transparent" points="407.5,-718 407.5,-740 523.5,-740 523.5,-718 407.5,-718"/>
<polygon fill="none" stroke="black" points="407.5,-718 407.5,-740 523.5,-740 523.5,-718 407.5,-718"/>
<text text-anchor="start" x="412.5" y="-727.2" font-family="Helvetica,sans-Serif" font-weight="bold" font-size="11.00">taxa</text>
<text text-anchor="start" x="488.5" y="-726.2" font-family="Helvetica,sans-Serif" font-size="11.00">[table]</text>
<polygon fill="none" stroke="black" points="407.5,-700 407.5,-718 523.5,-718 523.5,-700 407.5,-700"/>
<text text-anchor="start" x="410.5" y="-706.2" font-family="Helvetica,sans-Serif" font-size="11.00">...</text>
<polygon fill="#ffffff" stroke="transparent" points="407.5,-682 407.5,-700 429.5,-700 429.5,-682 407.5,-682"/>
<polygon fill="none" stroke="black" points="407.5,-682 407.5,-700 429.5,-700 429.5,-682 407.5,-682"/>
<text text-anchor="start" x="410.5" y="-688.2" font-family="Helvetica,sans-Serif" font-size="11.00">&lt; 4</text>
<polygon fill="#ffffff" stroke="transparent" points="429.5,-682 429.5,-700 495.5,-700 495.5,-682 429.5,-682"/>
<polygon fill="none" stroke="black" points="429.5,-682 429.5,-700 495.5,-700 495.5,-682 429.5,-682"/>
<text text-anchor="start" x="432.5" y="-688.2" font-family="Helvetica,sans-Serif" font-size="11.00">47,314 rows</text>
<polygon fill="#ffffff" stroke="transparent" points="495.5,-682 495.5,-700 523.5,-700 523.5,-682 495.5,-682"/>
<polygon fill="none" stroke="black" points="495.5,-682 495.5,-700 523.5,-700 523.5,-682 495.5,-682"/>
<text text-anchor="start" x="498.5" y="-688.2" font-family="Helvetica,sans-Serif" font-size="11.00">17 &gt;</text>
</a>
</g>
</g>
<!-- formtaxa&#45;&gt;taxa -->
<g id="edge5" class="edge">
<title>formtaxa:w&#45;&gt;taxa:e</title>
<path fill="none" stroke="black" d="M609.33,-746.88C574.53,-735.59 566.92,-703.66 524.5,-709"/>
<polygon fill="black" stroke="black" points="615.69,-748.28 622.73,-753.52 619.59,-749.14 623.5,-750 623.5,-750 623.5,-750 619.59,-749.14 624.27,-746.48 615.69,-748.28 615.69,-748.28"/>
<ellipse fill="none" stroke="black" cx="612.56" cy="-747.59" rx="3.2" ry="3.2"/>
</g>
<!-- formtaxa&#45;&gt;taxa -->
<g id="edge7" class="edge">
<title>formtaxa:w&#45;&gt;taxa:e</title>
<path fill="none" stroke="black" d="M608.88,-750.65C574.46,-748.15 566.73,-715.21 524.5,-709"/>
<polygon fill="black" stroke="black" points="615.51,-750.36 623.66,-753.6 619.5,-750.18 623.5,-750 623.5,-750 623.5,-750 619.5,-750.18 623.34,-746.4 615.51,-750.36 615.51,-750.36"/>
<ellipse fill="none" stroke="black" cx="612.31" cy="-750.5" rx="3.2" ry="3.2"/>
</g>
<!-- taxa&#45;&gt;publications -->
<g id="edge18" class="edge">
<title>taxa:w&#45;&gt;publications:e</title>
<path fill="none" stroke="black" d="M392.2,-707.18C359.03,-698.1 355.3,-658 313.5,-658"/>
<polygon fill="black" stroke="black" points="398.56,-707.99 406.05,-712.57 402.53,-708.5 406.5,-709 406.5,-709 406.5,-709 402.53,-708.5 406.95,-705.43 398.56,-707.99 398.56,-707.99"/>
<ellipse fill="none" stroke="black" cx="395.39" cy="-707.59" rx="3.2" ry="3.2"/>
</g>
<!-- geochronpublications -->
<g id="node8" class="node">
<title>geochronpublications</title>
<g id="a_node8"><a xlink:href="../../tables/geochronpublications.html" xlink:title="geochronpublications" target="_top">
<polygon fill="#ffffff" stroke="transparent" points="386,-576 386,-634 545,-634 545,-576 386,-576"/>
<polygon fill="#f5f5f5" stroke="transparent" points="386.5,-612 386.5,-634 545.5,-634 545.5,-612 386.5,-612"/>
<polygon fill="none" stroke="black" points="386.5,-612 386.5,-634 545.5,-634 545.5,-612 386.5,-612"/>
<text text-anchor="start" x="391.5" y="-621.2" font-family="Helvetica,sans-Serif" font-weight="bold" font-size="11.00">geochronpublications</text>
<text text-anchor="start" x="510.5" y="-620.2" font-family="Helvetica,sans-Serif" font-size="11.00">[table]</text>
<polygon fill="none" stroke="black" points="386.5,-594 386.5,-612 545.5,-612 545.5,-594 386.5,-594"/>
<text text-anchor="start" x="389.5" y="-600.2" font-family="Helvetica,sans-Serif" font-size="11.00">...</text>
<polygon fill="#ffffff" stroke="transparent" points="386.5,-576 386.5,-594 437.5,-594 437.5,-576 386.5,-576"/>
<polygon fill="none" stroke="black" points="386.5,-576 386.5,-594 437.5,-594 437.5,-576 386.5,-576"/>
<text text-anchor="start" x="389.5" y="-582.2" font-family="Helvetica,sans-Serif" font-size="11.00">&lt; 2</text>
<polygon fill="#ffffff" stroke="transparent" points="437.5,-576 437.5,-594 517.5,-594 517.5,-576 437.5,-576"/>
<polygon fill="none" stroke="black" points="437.5,-576 437.5,-594 517.5,-594 517.5,-576 437.5,-576"/>
<text text-anchor="start" x="454.5" y="-582.2" font-family="Helvetica,sans-Serif" font-size="11.00">37,711 rows</text>
<polygon fill="#ffffff" stroke="transparent" points="517.5,-576 517.5,-594 545.5,-594 545.5,-576 517.5,-576"/>
<polygon fill="none" stroke="black" points="517.5,-576 517.5,-594 545.5,-594 545.5,-576 517.5,-576"/>
<text text-anchor="start" x="535.5" y="-582.2" font-family="Helvetica,sans-Serif" font-size="11.00"> &#160;</text>
</a>
</g>
</g>
<!-- geochronpublications&#45;&gt;publications -->
<g id="edge8" class="edge">
<title>geochronpublications:w&#45;&gt;publications:e</title>
<path fill="none" stroke="black" d="M371.14,-605.96C346.67,-617.38 348.11,-658 313.5,-658"/>
<polygon fill="black" stroke="black" points="377.66,-604.61 386.23,-606.53 381.58,-603.81 385.5,-603 385.5,-603 385.5,-603 381.58,-603.81 384.77,-599.47 377.66,-604.61 377.66,-604.61"/>
<ellipse fill="none" stroke="black" cx="374.53" cy="-605.26" rx="3.2" ry="3.2"/>
</g>
<!-- publicationauthors -->
<g id="node9" class="node">
<title>publicationauthors</title>
<g id="a_node9"><a xlink:href="../../tables/publicationauthors.html" xlink:title="publicationauthors" target="_top">
<polygon fill="#ffffff" stroke="transparent" points="393.5,-497 393.5,-555 537.5,-555 537.5,-497 393.5,-497"/>
<polygon fill="#f5f5f5" stroke="transparent" points="393.5,-533 393.5,-555 537.5,-555 537.5,-533 393.5,-533"/>
<polygon fill="none" stroke="black" points="393.5,-533 393.5,-555 537.5,-555 537.5,-533 393.5,-533"/>
<text text-anchor="start" x="398.5" y="-542.2" font-family="Helvetica,sans-Serif" font-weight="bold" font-size="11.00">publicationauthors</text>
<text text-anchor="start" x="502.5" y="-541.2" font-family="Helvetica,sans-Serif" font-size="11.00">[table]</text>
<polygon fill="none" stroke="black" points="393.5,-515 393.5,-533 537.5,-533 537.5,-515 393.5,-515"/>
<text text-anchor="start" x="396.5" y="-521.2" font-family="Helvetica,sans-Serif" font-size="11.00">...</text>
<polygon fill="#ffffff" stroke="transparent" points="393.5,-497 393.5,-515 436.5,-515 436.5,-497 393.5,-497"/>
<polygon fill="none" stroke="black" points="393.5,-497 393.5,-515 436.5,-515 436.5,-497 393.5,-497"/>
<text text-anchor="start" x="396.5" y="-503.2" font-family="Helvetica,sans-Serif" font-size="11.00">&lt; 2</text>
<polygon fill="#ffffff" stroke="transparent" points="436.5,-497 436.5,-515 513.5,-515 513.5,-497 436.5,-497"/>
<polygon fill="none" stroke="black" points="436.5,-497 436.5,-515 513.5,-515 513.5,-497 436.5,-497"/>
<text text-anchor="start" x="450.5" y="-503.2" font-family="Helvetica,sans-Serif" font-size="11.00">31,426 rows</text>
<polygon fill="#ffffff" stroke="transparent" points="513.5,-497 513.5,-515 537.5,-515 537.5,-497 513.5,-497"/>
<polygon fill="none" stroke="black" points="513.5,-497 513.5,-515 537.5,-515 537.5,-497 513.5,-497"/>
<text text-anchor="start" x="527.5" y="-503.2" font-family="Helvetica,sans-Serif" font-size="11.00"> &#160;</text>
</a>
</g>
</g>
<!-- publicationauthors&#45;&gt;publications -->
<g id="edge9" class="edge">
<title>publicationauthors:w&#45;&gt;publications:e</title>
<path fill="none" stroke="black" d="M378.22,-527.14C366.17,-533.69 363.75,-549.59 353,-566 328.61,-603.22 358,-658 313.5,-658"/>
<polygon fill="black" stroke="black" points="384.69,-525.72 393.27,-527.52 388.59,-524.86 392.5,-524 392.5,-524 392.5,-524 388.59,-524.86 391.73,-520.48 384.69,-525.72 384.69,-525.72"/>
<ellipse fill="none" stroke="black" cx="381.56" cy="-526.4" rx="3.2" ry="3.2"/>
</g>
<!-- publicationeditors -->
<g id="node10" class="node">
<title>publicationeditors</title>
<g id="a_node10"><a xlink:href="../../tables/publicationeditors.html" xlink:title="publicationeditors" target="_top">
<polygon fill="#ffffff" stroke="transparent" points="361,-256 361,-476 570,-476 570,-256 361,-256"/>
<polygon fill="#f5f5f5" stroke="transparent" points="363.5,-452 363.5,-474 568.5,-474 568.5,-452 363.5,-452"/>
<polygon fill="none" stroke="black" points="363.5,-452 363.5,-474 568.5,-474 568.5,-452 363.5,-452"/>
<text text-anchor="start" x="368.5" y="-461.2" font-family="Helvetica,sans-Serif" font-weight="bold" font-size="11.00">publicationeditors</text>
<text text-anchor="start" x="533.5" y="-460.2" font-family="Helvetica,sans-Serif" font-size="11.00">[table]</text>
<polygon fill="none" stroke="black" points="363.5,-430 363.5,-452 494.5,-452 494.5,-430 363.5,-430"/>
<image xlink:href="../../images/primaryKeys.png" width="11px" height="12px" preserveAspectRatio="xMinYMin meet" x="368.5" y="-447"/>
<text text-anchor="start" x="383.5" y="-438.2" font-family="Helvetica,sans-Serif" font-size="11.00">editorid</text>
<polygon fill="none" stroke="black" points="494.5,-430 494.5,-452 568.5,-452 568.5,-430 494.5,-430"/>
<text text-anchor="start" x="497.5" y="-438.2" font-family="Helvetica,sans-Serif" font-size="11.00">serial[10]</text>
<polygon fill="#ffffff" stroke="transparent" points="363.5,-408 363.5,-430 494.5,-430 494.5,-408 363.5,-408"/>
<polygon fill="none" stroke="black" points="363.5,-408 363.5,-430 494.5,-430 494.5,-408 363.5,-408"/>
<image xlink:href="../../images/foreignKeys.png" width="11px" height="12px" preserveAspectRatio="xMinYMin meet" x="368.5" y="-425"/>
<text text-anchor="start" x="383.5" y="-416.2" font-family="Helvetica,sans-Serif" font-size="11.00">publicationid</text>
<polygon fill="none" stroke="black" points="494.5,-408 494.5,-430 568.5,-430 568.5,-408 494.5,-408"/>
<text text-anchor="start" x="497.5" y="-416.2" font-family="Helvetica,sans-Serif" font-size="11.00">int4[10]</text>
<polygon fill="none" stroke="black" points="363.5,-386 363.5,-408 494.5,-408 494.5,-386 363.5,-386"/>
<text text-anchor="start" x="383.5" y="-394.2" font-family="Helvetica,sans-Serif" font-size="11.00">editororder</text>
<polygon fill="none" stroke="black" points="494.5,-386 494.5,-408 568.5,-408 568.5,-386 494.5,-386"/>
<text text-anchor="start" x="497.5" y="-394.2" font-family="Helvetica,sans-Serif" font-size="11.00">int4[10]</text>
<polygon fill="none" stroke="black" points="363.5,-364 363.5,-386 494.5,-386 494.5,-364 363.5,-364"/>
<text text-anchor="start" x="383.5" y="-372.2" font-family="Helvetica,sans-Serif" font-size="11.00">familyname</text>
<polygon fill="none" stroke="black" points="494.5,-364 494.5,-386 568.5,-386 568.5,-364 494.5,-364"/>
<text text-anchor="start" x="497.5" y="-372.2" font-family="Helvetica,sans-Serif" font-size="11.00">varchar[64]</text>
<polygon fill="none" stroke="black" points="363.5,-342 363.5,-364 494.5,-364 494.5,-342 363.5,-342"/>
<text text-anchor="start" x="383.5" y="-350.2" font-family="Helvetica,sans-Serif" font-size="11.00">initials</text>
<polygon fill="none" stroke="black" points="494.5,-342 494.5,-364 568.5,-364 568.5,-342 494.5,-342"/>
<text text-anchor="start" x="497.5" y="-350.2" font-family="Helvetica,sans-Serif" font-size="11.00">varchar[8]</text>
<polygon fill="none" stroke="black" points="363.5,-320 363.5,-342 494.5,-342 494.5,-320 363.5,-320"/>
<text text-anchor="start" x="383.5" y="-328.2" font-family="Helvetica,sans-Serif" font-size="11.00">suffix</text>
<polygon fill="none" stroke="black" points="494.5,-320 494.5,-342 568.5,-342 568.5,-320 494.5,-320"/>
<text text-anchor="start" x="497.5" y="-328.2" font-family="Helvetica,sans-Serif" font-size="11.00">varchar[8]</text>
<polygon fill="none" stroke="black" points="363.5,-298 363.5,-320 494.5,-320 494.5,-298 363.5,-298"/>
<text text-anchor="start" x="383.5" y="-306.2" font-family="Helvetica,sans-Serif" font-size="11.00">recdatecreated</text>
<polygon fill="none" stroke="black" points="494.5,-298 494.5,-320 568.5,-320 568.5,-298 494.5,-298"/>
<text text-anchor="start" x="497.5" y="-306.2" font-family="Helvetica,sans-Serif" font-size="11.00">timestamp[22]</text>
<polygon fill="none" stroke="black" points="363.5,-276 363.5,-298 494.5,-298 494.5,-276 363.5,-276"/>
<text text-anchor="start" x="383.5" y="-284.2" font-family="Helvetica,sans-Serif" font-size="11.00">recdatemodified</text>
<polygon fill="none" stroke="black" points="494.5,-276 494.5,-298 568.5,-298 568.5,-276 494.5,-276"/>
<text text-anchor="start" x="497.5" y="-284.2" font-family="Helvetica,sans-Serif" font-size="11.00">timestamp[22]</text>
<polygon fill="#ffffff" stroke="transparent" points="363.5,-258 363.5,-276 409.5,-276 409.5,-258 363.5,-258"/>
<polygon fill="none" stroke="black" points="363.5,-258 363.5,-276 409.5,-276 409.5,-258 363.5,-258"/>
<text text-anchor="start" x="366.5" y="-264.2" font-family="Helvetica,sans-Serif" font-size="11.00">&lt; 1</text>
<polygon fill="#ffffff" stroke="transparent" points="409.5,-258 409.5,-276 494.5,-276 494.5,-258 409.5,-258"/>
<polygon fill="none" stroke="black" points="409.5,-258 409.5,-276 494.5,-276 494.5,-258 409.5,-258"/>
<text text-anchor="start" x="437.5" y="-264.2" font-family="Helvetica,sans-Serif" font-size="11.00">1,517 rows</text>
<polygon fill="#ffffff" stroke="transparent" points="494.5,-258 494.5,-276 568.5,-276 568.5,-258 494.5,-258"/>
<polygon fill="none" stroke="black" points="494.5,-258 494.5,-276 568.5,-276 568.5,-258 494.5,-258"/>
<text text-anchor="start" x="549.5" y="-264.2" font-family="Helvetica,sans-Serif" font-size="11.00">0 &gt;</text>
<polygon fill="none" stroke="black" stroke-width="2" points="362,-257 362,-475 569,-475 569,-257 362,-257"/>
</a>
</g>
</g>
<!-- publicationeditors&#45;&gt;publications -->
<g id="edge10" class="edge">
<title>publicationeditors:w&#45;&gt;publications:e</title>
<path fill="none" stroke="black" d="M348.05,-420.79C270.4,-442.66 416.43,-658 313.5,-658"/>
<polygon fill="black" stroke="black" points="354.56,-419.98 362.94,-422.57 358.53,-419.49 362.5,-419 362.5,-419 362.5,-419 358.53,-419.49 362.06,-415.43 354.56,-419.98 354.56,-419.98"/>
<ellipse fill="none" stroke="black" cx="351.38" cy="-420.37" rx="3.2" ry="3.2"/>
</g>
<!-- publicationtranslators -->
<g id="node12" class="node">
<title>publicationtranslators</title>
<g id="a_node12"><a xlink:href="../../tables/publicationtranslators.html" xlink:title="publicationtranslators" target="_top">
<polygon fill="#ffffff" stroke="transparent" points="385.5,-177 385.5,-235 545.5,-235 545.5,-177 385.5,-177"/>
<polygon fill="#f5f5f5" stroke="transparent" points="385.5,-213 385.5,-235 545.5,-235 545.5,-213 385.5,-213"/>
<polygon fill="none" stroke="black" points="385.5,-213 385.5,-235 545.5,-235 545.5,-213 385.5,-213"/>
<text text-anchor="start" x="390.5" y="-222.2" font-family="Helvetica,sans-Serif" font-weight="bold" font-size="11.00">publicationtranslators</text>
<text text-anchor="start" x="510.5" y="-221.2" font-family="Helvetica,sans-Serif" font-size="11.00">[table]</text>
<polygon fill="none" stroke="black" points="385.5,-195 385.5,-213 545.5,-213 545.5,-195 385.5,-195"/>
<text text-anchor="start" x="388.5" y="-201.2" font-family="Helvetica,sans-Serif" font-size="11.00">...</text>
<polygon fill="#ffffff" stroke="transparent" points="385.5,-177 385.5,-195 450.5,-195 450.5,-177 385.5,-177"/>
<polygon fill="none" stroke="black" points="385.5,-177 385.5,-195 450.5,-195 450.5,-177 385.5,-177"/>
<text text-anchor="start" x="388.5" y="-183.2" font-family="Helvetica,sans-Serif" font-size="11.00">&lt; 1</text>
<polygon fill="#ffffff" stroke="transparent" points="450.5,-177 450.5,-195 510.5,-195 510.5,-177 450.5,-177"/>
<polygon fill="none" stroke="black" points="450.5,-177 450.5,-195 510.5,-195 510.5,-177 450.5,-177"/>
<text text-anchor="start" x="474.5" y="-183.2" font-family="Helvetica,sans-Serif" font-size="11.00">4 rows</text>
<polygon fill="#ffffff" stroke="transparent" points="510.5,-177 510.5,-195 545.5,-195 545.5,-177 510.5,-177"/>
<polygon fill="none" stroke="black" points="510.5,-177 510.5,-195 545.5,-195 545.5,-177 510.5,-177"/>
<text text-anchor="start" x="535.5" y="-183.2" font-family="Helvetica,sans-Serif" font-size="11.00"> &#160;</text>
</a>
</g>
</g>
<!-- publicationtranslators&#45;&gt;publications -->
<g id="edge12" class="edge">
<title>publicationtranslators:w&#45;&gt;publications:e</title>
<path fill="none" stroke="black" d="M370.3,-207.93C360.69,-214.86 359.19,-230.02 353,-246 336.39,-288.88 359.49,-658 313.5,-658"/>
<polygon fill="black" stroke="black" points="376.79,-206.14 385.46,-207.47 380.65,-205.07 384.5,-204 384.5,-204 384.5,-204 380.65,-205.07 383.54,-200.53 376.79,-206.14 376.79,-206.14"/>
<ellipse fill="none" stroke="black" cx="373.71" cy="-206.99" rx="3.2" ry="3.2"/>
</g>
<!-- pubtsv -->
<g id="node13" class="node">
<title>pubtsv</title>
<g id="a_node13"><a xlink:href="../../tables/pubtsv.html" xlink:title="pubtsv" target="_top">
<polygon fill="#ffffff" stroke="transparent" points="426,-116 426,-156 505,-156 505,-116 426,-116"/>
<polygon fill="#f5f5f5" stroke="transparent" points="426.5,-134 426.5,-156 505.5,-156 505.5,-134 426.5,-134"/>
<polygon fill="none" stroke="black" points="426.5,-134 426.5,-156 505.5,-156 505.5,-134 426.5,-134"/>
<text text-anchor="start" x="431.5" y="-143.2" font-family="Helvetica,sans-Serif" font-weight="bold" font-size="11.00">pubtsv</text>
<text text-anchor="start" x="472.5" y="-142.2" font-family="Helvetica,sans-Serif" font-size="11.00">[view]</text>
<polygon fill="none" stroke="black" points="426.5,-116 426.5,-134 505.5,-134 505.5,-116 426.5,-116"/>
<text text-anchor="start" x="429.5" y="-122.2" font-family="Helvetica,sans-Serif" font-size="11.00">...</text>
</a>
</g>
</g>
<!-- pubtsv&#45;&gt;publications -->
<g id="edge13" class="edge">
<title>pubtsv:w&#45;&gt;publications:e</title>
<path fill="none" stroke="black" stroke-dasharray="5,2" d="M411.01,-125.65C383.85,-128.37 370.08,-139.94 353,-167 323.79,-213.28 368.23,-658 313.5,-658"/>
<polygon fill="black" stroke="black" points="417.51,-125.36 425.66,-128.6 421.5,-125.18 425.5,-125 425.5,-125 425.5,-125 421.5,-125.18 425.34,-121.4 417.51,-125.36 417.51,-125.36"/>
<ellipse fill="none" stroke="black" cx="414.31" cy="-125.5" rx="3.2" ry="3.2"/>
</g>
<!-- relativeagepublications -->
<g id="node14" class="node">
<title>relativeagepublications</title>
<g id="a_node14"><a xlink:href="../../tables/relativeagepublications.html" xlink:title="relativeagepublications" target="_top">
<polygon fill="#ffffff" stroke="transparent" points="382.5,-37 382.5,-95 548.5,-95 548.5,-37 382.5,-37"/>
<polygon fill="#f5f5f5" stroke="transparent" points="382.5,-73 382.5,-95 548.5,-95 548.5,-73 382.5,-73"/>
<polygon fill="none" stroke="black" points="382.5,-73 382.5,-95 548.5,-95 548.5,-73 382.5,-73"/>
<text text-anchor="start" x="387.5" y="-82.2" font-family="Helvetica,sans-Serif" font-weight="bold" font-size="11.00">relativeagepublications</text>
<text text-anchor="start" x="513.5" y="-81.2" font-family="Helvetica,sans-Serif" font-size="11.00">[table]</text>
<polygon fill="none" stroke="black" points="382.5,-55 382.5,-73 548.5,-73 548.5,-55 382.5,-55"/>
<text text-anchor="start" x="385.5" y="-61.2" font-family="Helvetica,sans-Serif" font-size="11.00">...</text>
<polygon fill="#ffffff" stroke="transparent" points="382.5,-37 382.5,-55 444.5,-55 444.5,-37 382.5,-37"/>
<polygon fill="none" stroke="black" points="382.5,-37 382.5,-55 444.5,-55 444.5,-37 382.5,-37"/>
<text text-anchor="start" x="385.5" y="-43.2" font-family="Helvetica,sans-Serif" font-size="11.00">&lt; 2</text>
<polygon fill="#ffffff" stroke="transparent" points="444.5,-37 444.5,-55 515.5,-55 515.5,-37 444.5,-37"/>
<polygon fill="none" stroke="black" points="444.5,-37 444.5,-55 515.5,-55 515.5,-37 444.5,-37"/>
<text text-anchor="start" x="467.5" y="-43.2" font-family="Helvetica,sans-Serif" font-size="11.00">115 rows</text>
<polygon fill="#ffffff" stroke="transparent" points="515.5,-37 515.5,-55 548.5,-55 548.5,-37 515.5,-37"/>
<polygon fill="none" stroke="black" points="515.5,-37 515.5,-55 548.5,-55 548.5,-37 515.5,-37"/>
<text text-anchor="start" x="538.5" y="-43.2" font-family="Helvetica,sans-Serif" font-size="11.00"> &#160;</text>
</a>
</g>
</g>
<!-- relativeagepublications&#45;&gt;publications -->
<g id="edge14" class="edge">
<title>relativeagepublications:w&#45;&gt;publications:e</title>
<path fill="none" stroke="black" d="M367.71,-68.23C359.07,-75.36 358.37,-90.51 353,-106 332.85,-164.1 374.99,-658 313.5,-658"/>
<polygon fill="black" stroke="black" points="373.85,-66.35 382.56,-67.44 377.68,-65.17 381.5,-64 381.5,-64 381.5,-64 377.68,-65.17 380.44,-60.56 373.85,-66.35 373.85,-66.35"/>
<ellipse fill="none" stroke="black" cx="370.79" cy="-67.28" rx="3.2" ry="3.2"/>
</g>
<!-- synonymy -->
<g id="node15" class="node">
<title>synonymy</title>
<g id="a_node15"><a xlink:href="../../tables/synonymy.html" xlink:title="synonymy" target="_top">
<polygon fill="#ffffff" stroke="transparent" points="619,-644 619,-702 720,-702 720,-644 619,-644"/>
<polygon fill="#f5f5f5" stroke="transparent" points="619.5,-680 619.5,-702 720.5,-702 720.5,-680 619.5,-680"/>
<polygon fill="none" stroke="black" points="619.5,-680 619.5,-702 720.5,-702 720.5,-680 619.5,-680"/>
<text text-anchor="start" x="624.5" y="-689.2" font-family="Helvetica,sans-Serif" font-weight="bold" font-size="11.00">synonymy</text>
<text text-anchor="start" x="685.5" y="-688.2" font-family="Helvetica,sans-Serif" font-size="11.00">[table]</text>
<polygon fill="none" stroke="black" points="619.5,-662 619.5,-680 720.5,-680 720.5,-662 619.5,-662"/>
<text text-anchor="start" x="622.5" y="-668.2" font-family="Helvetica,sans-Serif" font-size="11.00">...</text>
<polygon fill="#ffffff" stroke="transparent" points="619.5,-644 619.5,-662 641.5,-662 641.5,-644 619.5,-644"/>
<polygon fill="none" stroke="black" points="619.5,-644 619.5,-662 641.5,-662 641.5,-644 619.5,-644"/>
<text text-anchor="start" x="622.5" y="-650.2" font-family="Helvetica,sans-Serif" font-size="11.00">&lt; 5</text>
<polygon fill="#ffffff" stroke="transparent" points="641.5,-644 641.5,-662 707.5,-662 707.5,-644 641.5,-644"/>
<polygon fill="none" stroke="black" points="641.5,-644 641.5,-662 707.5,-662 707.5,-644 641.5,-644"/>
<text text-anchor="start" x="644.5" y="-650.2" font-family="Helvetica,sans-Serif" font-size="11.00">38,985 rows</text>
<polygon fill="#ffffff" stroke="transparent" points="707.5,-644 707.5,-662 720.5,-662 720.5,-644 707.5,-644"/>
<polygon fill="none" stroke="black" points="707.5,-644 707.5,-662 720.5,-662 720.5,-644 707.5,-644"/>
<text text-anchor="start" x="710.5" y="-650.2" font-family="Helvetica,sans-Serif" font-size="11.00"> &#160;</text>
</a>
</g>
</g>
<!-- synonymy&#45;&gt;publications -->
<g id="edge15" class="edge">
<title>synonymy:w&#45;&gt;publications:e</title>
<path fill="none" stroke="black" d="M603.81,-670.95C480.18,-670.05 444.14,-658 313.5,-658"/>
<polygon fill="black" stroke="black" points="610.5,-670.97 618.49,-674.6 614.5,-670.99 618.5,-671 618.5,-671 618.5,-671 614.5,-670.99 618.51,-667.4 610.5,-670.97 610.5,-670.97"/>
<ellipse fill="none" stroke="black" cx="607.3" cy="-670.96" rx="3.2" ry="3.2"/>
</g>
<!-- synonymy&#45;&gt;taxa -->
<g id="edge16" class="edge">
<title>synonymy:w&#45;&gt;taxa:e</title>
<path fill="none" stroke="black" d="M603.8,-670.62C571.9,-673.73 564.11,-703.73 524.5,-709"/>
<polygon fill="black" stroke="black" points="610.5,-670.79 618.41,-674.6 614.5,-670.9 618.5,-671 618.5,-671 618.5,-671 614.5,-670.9 618.59,-667.4 610.5,-670.79 610.5,-670.79"/>
<ellipse fill="none" stroke="black" cx="607.3" cy="-670.71" rx="3.2" ry="3.2"/>
</g>
<!-- synonymy&#45;&gt;taxa -->
<g id="edge17" class="edge">
<title>synonymy:w&#45;&gt;taxa:e</title>
<path fill="none" stroke="black" d="M604.22,-674.62C571.96,-686.29 564.28,-715.18 524.5,-709"/>
<polygon fill="black" stroke="black" points="610.74,-672.96 619.38,-674.49 614.62,-671.98 618.5,-671 618.5,-671 618.5,-671 614.62,-671.98 617.62,-667.51 610.74,-672.96 610.74,-672.96"/>
<ellipse fill="none" stroke="black" cx="607.64" cy="-673.75" rx="3.2" ry="3.2"/>
</g>
</g>
</svg>
