<?xml version="1.0" encoding="UTF-8" standalone="no"?>
<!DOCTYPE svg PUBLIC "-//W3C//DTD SVG 1.1//EN"
 "http://www.w3.org/Graphics/SVG/1.1/DTD/svg11.dtd">
<!-- Generated by graphviz version 2.43.0 (0)
 -->
<!-- Title: twoDegreesRelationshipsDiagramImplied Pages: 1 -->
<svg width="760pt" height="933pt"
 viewBox="0.00 0.00 760.00 933.00" xmlns="http://www.w3.org/2000/svg" xmlns:xlink="http://www.w3.org/1999/xlink">
<g id="graph0" class="graph" transform="scale(1 1) rotate(0) translate(4 929)">
<title>twoDegreesRelationshipsDiagramImplied</title>
<polygon fill="#ffffff" stroke="transparent" points="-4,4 -4,-929 756,-929 756,4 -4,4"/>
<text text-anchor="middle" x="71.5" y="-7.2" font-family="Helvetica,sans-Serif" font-size="11.00">Generated by SchemaSpy</text>
<!-- calibrationcurves -->
<g id="node1" class="node">
<title>calibrationcurves</title>
<g id="a_node1"><a xlink:href="../../tables/calibrationcurves.html" xlink:title="calibrationcurves" target="_top">
<polygon fill="#ffffff" stroke="transparent" points="443.5,-863 443.5,-921 578.5,-921 578.5,-863 443.5,-863"/>
<polygon fill="#f5f5f5" stroke="transparent" points="444,-899 444,-921 579,-921 579,-899 444,-899"/>
<polygon fill="none" stroke="black" points="444,-899 444,-921 579,-921 579,-899 444,-899"/>
<text text-anchor="start" x="449" y="-908.2" font-family="Helvetica,sans-Serif" font-weight="bold" font-size="11.00">calibrationcurves</text>
<text text-anchor="start" x="544" y="-907.2" font-family="Helvetica,sans-Serif" font-size="11.00">[table]</text>
<polygon fill="none" stroke="black" points="444,-881 444,-899 579,-899 579,-881 444,-881"/>
<text text-anchor="start" x="447" y="-887.2" font-family="Helvetica,sans-Serif" font-size="11.00">...</text>
<polygon fill="#ffffff" stroke="transparent" points="444,-863 444,-881 489,-881 489,-863 444,-863"/>
<polygon fill="none" stroke="black" points="444,-863 444,-881 489,-881 489,-863 444,-863"/>
<text text-anchor="start" x="447" y="-869.2" font-family="Helvetica,sans-Serif" font-size="11.00">&lt; 1</text>
<polygon fill="#ffffff" stroke="transparent" points="489,-863 489,-881 545,-881 545,-863 489,-863"/>
<polygon fill="none" stroke="black" points="489,-863 489,-881 545,-881 545,-863 489,-863"/>
<text text-anchor="start" x="503" y="-869.2" font-family="Helvetica,sans-Serif" font-size="11.00">15 rows</text>
<polygon fill="#ffffff" stroke="transparent" points="545,-863 545,-881 579,-881 579,-863 545,-863"/>
<polygon fill="none" stroke="black" points="545,-863 545,-881 579,-881 579,-863 545,-863"/>
<text text-anchor="start" x="560" y="-869.2" font-family="Helvetica,sans-Serif" font-size="11.00">2 &gt;</text>
</a>
</g>
</g>
<!-- publications -->
<g id="node2" class="node">
<title>publications</title>
<g id="a_node2"><a xlink:href="../../tables/publications.html" xlink:title="publications" target="_top">
<polygon fill="#ffffff" stroke="transparent" points="256,-427 256,-529 379,-529 379,-427 256,-427"/>
<polygon fill="#f5f5f5" stroke="transparent" points="256.5,-507 256.5,-529 379.5,-529 379.5,-507 256.5,-507"/>
<polygon fill="none" stroke="black" points="256.5,-507 256.5,-529 379.5,-529 379.5,-507 256.5,-507"/>
<text text-anchor="start" x="261.5" y="-516.2" font-family="Helvetica,sans-Serif" font-weight="bold" font-size="11.00">publications</text>
<text text-anchor="start" x="344.5" y="-515.2" font-family="Helvetica,sans-Serif" font-size="11.00">[table]</text>
<polygon fill="none" stroke="black" points="256.5,-485 256.5,-507 379.5,-507 379.5,-485 256.5,-485"/>
<image xlink:href="../../images/primaryKeys.png" width="11px" height="12px" preserveAspectRatio="xMinYMin meet" x="261.5" y="-502"/>
<text text-anchor="start" x="276.5" y="-493.2" font-family="Helvetica,sans-Serif" font-size="11.00">publicationid</text>
<polygon fill="none" stroke="black" points="256.5,-463 256.5,-485 379.5,-485 379.5,-463 256.5,-463"/>
<image xlink:href="../../images/foreignKeys.png" width="11px" height="12px" preserveAspectRatio="xMinYMin meet" x="261.5" y="-480"/>
<text text-anchor="start" x="276.5" y="-471.2" font-family="Helvetica,sans-Serif" font-size="11.00">pubtypeid</text>
<polygon fill="none" stroke="black" points="256.5,-445 256.5,-463 379.5,-463 379.5,-445 256.5,-445"/>
<text text-anchor="start" x="259.5" y="-451.2" font-family="Helvetica,sans-Serif" font-size="11.00">...</text>
<polygon fill="#ffffff" stroke="transparent" points="256.5,-427 256.5,-445 281.5,-445 281.5,-427 256.5,-427"/>
<polygon fill="none" stroke="black" points="256.5,-427 256.5,-445 281.5,-445 281.5,-427 256.5,-427"/>
<text text-anchor="start" x="259.5" y="-433.2" font-family="Helvetica,sans-Serif" font-size="11.00">&lt; 1</text>
<polygon fill="#ffffff" stroke="transparent" points="281.5,-427 281.5,-445 349.5,-445 349.5,-427 281.5,-427"/>
<polygon fill="none" stroke="black" points="281.5,-427 281.5,-445 349.5,-445 349.5,-427 281.5,-427"/>
<text text-anchor="start" x="286.5" y="-433.2" font-family="Helvetica,sans-Serif" font-size="11.00">13,466 rows</text>
<polygon fill="#ffffff" stroke="transparent" points="349.5,-427 349.5,-445 379.5,-445 379.5,-427 349.5,-427"/>
<polygon fill="none" stroke="black" points="349.5,-427 349.5,-445 379.5,-445 379.5,-427 349.5,-427"/>
<text text-anchor="start" x="354.5" y="-433.2" font-family="Helvetica,sans-Serif" font-size="11.00">13 &gt;</text>
</a>
</g>
</g>
<!-- calibrationcurves&#45;&gt;publications -->
<g id="edge1" class="edge">
<title>calibrationcurves:w&#45;&gt;publications:e</title>
<path fill="none" stroke="black" d="M429.04,-885.84C367.51,-843.73 463.78,-496 380.5,-496"/>
<polygon fill="black" stroke="black" points="435.33,-887.72 441.97,-893.45 439.17,-888.86 443,-890 443,-890 443,-890 439.17,-888.86 444.03,-886.55 435.33,-887.72 435.33,-887.72"/>
<ellipse fill="none" stroke="black" cx="432.27" cy="-886.8" rx="3.2" ry="3.2"/>
</g>
<!-- publicationtypes -->
<g id="node11" class="node">
<title>publicationtypes</title>
<g id="a_node11"><a xlink:href="../../tables/publicationtypes.html" xlink:title="publicationtypes" target="_top">
<polygon fill="#ffffff" stroke="transparent" points="8,-377 8,-509 207,-509 207,-377 8,-377"/>
<polygon fill="#f5f5f5" stroke="transparent" points="10.5,-485 10.5,-507 205.5,-507 205.5,-485 10.5,-485"/>
<polygon fill="none" stroke="black" points="10.5,-485 10.5,-507 205.5,-507 205.5,-485 10.5,-485"/>
<text text-anchor="start" x="15.5" y="-494.2" font-family="Helvetica,sans-Serif" font-weight="bold" font-size="11.00">publicationtypes</text>
<text text-anchor="start" x="170.5" y="-493.2" font-family="Helvetica,sans-Serif" font-size="11.00">[table]</text>
<polygon fill="none" stroke="black" points="10.5,-463 10.5,-485 131.5,-485 131.5,-463 10.5,-463"/>
<image xlink:href="../../images/primaryKeys.png" width="11px" height="12px" preserveAspectRatio="xMinYMin meet" x="15.5" y="-480"/>
<text text-anchor="start" x="30.5" y="-471.2" font-family="Helvetica,sans-Serif" font-size="11.00">pubtypeid</text>
<polygon fill="none" stroke="black" points="131.5,-463 131.5,-485 205.5,-485 205.5,-463 131.5,-463"/>
<text text-anchor="start" x="134.5" y="-471.2" font-family="Helvetica,sans-Serif" font-size="11.00">serial[10]</text>
<polygon fill="none" stroke="black" points="10.5,-441 10.5,-463 131.5,-463 131.5,-441 10.5,-441"/>
<text text-anchor="start" x="30.5" y="-449.2" font-family="Helvetica,sans-Serif" font-size="11.00">pubtype</text>
<polygon fill="none" stroke="black" points="131.5,-441 131.5,-463 205.5,-463 205.5,-441 131.5,-441"/>
<text text-anchor="start" x="134.5" y="-449.2" font-family="Helvetica,sans-Serif" font-size="11.00">varchar[24]</text>
<polygon fill="none" stroke="black" points="10.5,-419 10.5,-441 131.5,-441 131.5,-419 10.5,-419"/>
<text text-anchor="start" x="30.5" y="-427.2" font-family="Helvetica,sans-Serif" font-size="11.00">recdatecreated</text>
<polygon fill="none" stroke="black" points="131.5,-419 131.5,-441 205.5,-441 205.5,-419 131.5,-419"/>
<text text-anchor="start" x="134.5" y="-427.2" font-family="Helvetica,sans-Serif" font-size="11.00">timestamp[22]</text>
<polygon fill="none" stroke="black" points="10.5,-397 10.5,-419 131.5,-419 131.5,-397 10.5,-397"/>
<text text-anchor="start" x="30.5" y="-405.2" font-family="Helvetica,sans-Serif" font-size="11.00">recdatemodified</text>
<polygon fill="none" stroke="black" points="131.5,-397 131.5,-419 205.5,-419 205.5,-397 131.5,-397"/>
<text text-anchor="start" x="134.5" y="-405.2" font-family="Helvetica,sans-Serif" font-size="11.00">timestamp[22]</text>
<polygon fill="#ffffff" stroke="transparent" points="10.5,-379 10.5,-397 59.5,-397 59.5,-379 10.5,-379"/>
<polygon fill="none" stroke="black" points="10.5,-379 10.5,-397 59.5,-397 59.5,-379 10.5,-379"/>
<text text-anchor="start" x="13.5" y="-385.2" font-family="Helvetica,sans-Serif" font-size="11.00">&lt; 0</text>
<polygon fill="#ffffff" stroke="transparent" points="59.5,-379 59.5,-397 131.5,-397 131.5,-379 59.5,-379"/>
<polygon fill="none" stroke="black" points="59.5,-379 59.5,-397 131.5,-397 131.5,-379 59.5,-379"/>
<text text-anchor="start" x="89.5" y="-385.2" font-family="Helvetica,sans-Serif" font-size="11.00">13 rows</text>
<polygon fill="#ffffff" stroke="transparent" points="131.5,-379 131.5,-397 205.5,-397 205.5,-379 131.5,-379"/>
<polygon fill="none" stroke="black" points="131.5,-379 131.5,-397 205.5,-397 205.5,-379 131.5,-379"/>
<text text-anchor="start" x="186.5" y="-385.2" font-family="Helvetica,sans-Serif" font-size="11.00">1 &gt;</text>
<polygon fill="none" stroke="black" stroke-width="2" points="9,-378 9,-508 206,-508 206,-378 9,-378"/>
</a>
</g>
</g>
<!-- publications&#45;&gt;publicationtypes -->
<g id="edge11" class="edge">
<title>publications:w&#45;&gt;publicationtypes:e</title>
<path fill="none" stroke="black" d="M240.99,-474C229.68,-474 222.49,-474 206.5,-474"/>
<polygon fill="black" stroke="black" points="247.5,-474 255.5,-477.6 251.5,-474 255.5,-474 255.5,-474 255.5,-474 251.5,-474 255.5,-470.4 247.5,-474 247.5,-474"/>
<ellipse fill="none" stroke="black" cx="244.3" cy="-474" rx="3.2" ry="3.2"/>
</g>
<!-- datasetpublications -->
<g id="node3" class="node">
<title>datasetpublications</title>
<g id="a_node3"><a xlink:href="../../tables/datasetpublications.html" xlink:title="datasetpublications" target="_top">
<polygon fill="#ffffff" stroke="transparent" points="437.5,-784 437.5,-842 584.5,-842 584.5,-784 437.5,-784"/>
<polygon fill="#f5f5f5" stroke="transparent" points="438,-820 438,-842 585,-842 585,-820 438,-820"/>
<polygon fill="none" stroke="black" points="438,-820 438,-842 585,-842 585,-820 438,-820"/>
<text text-anchor="start" x="443" y="-829.2" font-family="Helvetica,sans-Serif" font-weight="bold" font-size="11.00">datasetpublications</text>
<text text-anchor="start" x="550" y="-828.2" font-family="Helvetica,sans-Serif" font-size="11.00">[table]</text>
<polygon fill="none" stroke="black" points="438,-802 438,-820 585,-820 585,-802 438,-802"/>
<text text-anchor="start" x="441" y="-808.2" font-family="Helvetica,sans-Serif" font-size="11.00">...</text>
<polygon fill="#ffffff" stroke="transparent" points="438,-784 438,-802 483,-802 483,-784 438,-784"/>
<polygon fill="none" stroke="black" points="438,-784 438,-802 483,-802 483,-784 438,-784"/>
<text text-anchor="start" x="441" y="-790.2" font-family="Helvetica,sans-Serif" font-size="11.00">&lt; 2</text>
<polygon fill="#ffffff" stroke="transparent" points="483,-784 483,-802 560,-802 560,-784 483,-784"/>
<polygon fill="none" stroke="black" points="483,-784 483,-802 560,-802 560,-784 483,-784"/>
<text text-anchor="start" x="497" y="-790.2" font-family="Helvetica,sans-Serif" font-size="11.00">58,986 rows</text>
<polygon fill="#ffffff" stroke="transparent" points="560,-784 560,-802 585,-802 585,-784 560,-784"/>
<polygon fill="none" stroke="black" points="560,-784 560,-802 585,-802 585,-784 560,-784"/>
<text text-anchor="start" x="575" y="-790.2" font-family="Helvetica,sans-Serif" font-size="11.00"> &#160;</text>
</a>
</g>
</g>
<!-- datasetpublications&#45;&gt;publications -->
<g id="edge2" class="edge">
<title>datasetpublications:w&#45;&gt;publications:e</title>
<path fill="none" stroke="black" d="M423.34,-805.8C378.03,-764.84 446.2,-496 380.5,-496"/>
<polygon fill="black" stroke="black" points="429.52,-808.15 435.72,-814.36 433.26,-809.58 437,-811 437,-811 437,-811 433.26,-809.58 438.28,-807.64 429.52,-808.15 429.52,-808.15"/>
<ellipse fill="none" stroke="black" cx="426.53" cy="-807.01" rx="3.2" ry="3.2"/>
</g>
<!-- eventpublications -->
<g id="node4" class="node">
<title>eventpublications</title>
<g id="a_node4"><a xlink:href="../../tables/eventpublications.html" xlink:title="eventpublications" target="_top">
<polygon fill="#ffffff" stroke="transparent" points="442,-705 442,-763 580,-763 580,-705 442,-705"/>
<polygon fill="#f5f5f5" stroke="transparent" points="442,-741 442,-763 580,-763 580,-741 442,-741"/>
<polygon fill="none" stroke="black" points="442,-741 442,-763 580,-763 580,-741 442,-741"/>
<text text-anchor="start" x="447" y="-750.2" font-family="Helvetica,sans-Serif" font-weight="bold" font-size="11.00">eventpublications</text>
<text text-anchor="start" x="545" y="-749.2" font-family="Helvetica,sans-Serif" font-size="11.00">[table]</text>
<polygon fill="none" stroke="black" points="442,-723 442,-741 580,-741 580,-723 442,-723"/>
<text text-anchor="start" x="445" y="-729.2" font-family="Helvetica,sans-Serif" font-size="11.00">...</text>
<polygon fill="#ffffff" stroke="transparent" points="442,-705 442,-723 490,-723 490,-705 442,-705"/>
<polygon fill="none" stroke="black" points="442,-705 442,-723 490,-723 490,-705 442,-705"/>
<text text-anchor="start" x="445" y="-711.2" font-family="Helvetica,sans-Serif" font-size="11.00">&lt; 2</text>
<polygon fill="#ffffff" stroke="transparent" points="490,-705 490,-723 554,-723 554,-705 490,-705"/>
<polygon fill="none" stroke="black" points="490,-705 490,-723 554,-723 554,-705 490,-705"/>
<text text-anchor="start" x="506" y="-711.2" font-family="Helvetica,sans-Serif" font-size="11.00">378 rows</text>
<polygon fill="#ffffff" stroke="transparent" points="554,-705 554,-723 580,-723 580,-705 554,-705"/>
<polygon fill="none" stroke="black" points="554,-705 554,-723 580,-723 580,-705 554,-705"/>
<text text-anchor="start" x="570" y="-711.2" font-family="Helvetica,sans-Serif" font-size="11.00"> &#160;</text>
</a>
</g>
</g>
<!-- eventpublications&#45;&gt;publications -->
<g id="edge3" class="edge">
<title>eventpublications:w&#45;&gt;publications:e</title>
<path fill="none" stroke="black" d="M427.86,-725.69C395.22,-688.16 429.35,-496 380.5,-496"/>
<polygon fill="black" stroke="black" points="433.79,-728.53 439.44,-735.24 437.39,-730.27 441,-732 441,-732 441,-732 437.39,-730.27 442.56,-728.76 433.79,-728.53 433.79,-728.53"/>
<ellipse fill="none" stroke="black" cx="430.91" cy="-727.15" rx="3.2" ry="3.2"/>
</g>
<!-- externalpublications -->
<g id="node5" class="node">
<title>externalpublications</title>
<g id="a_node5"><a xlink:href="../../tables/externalpublications.html" xlink:title="externalpublications" target="_top">
<polygon fill="#ffffff" stroke="transparent" points="435.5,-626 435.5,-684 586.5,-684 586.5,-626 435.5,-626"/>
<polygon fill="#f5f5f5" stroke="transparent" points="436,-662 436,-684 587,-684 587,-662 436,-662"/>
<polygon fill="none" stroke="black" points="436,-662 436,-684 587,-684 587,-662 436,-662"/>
<text text-anchor="start" x="441" y="-671.2" font-family="Helvetica,sans-Serif" font-weight="bold" font-size="11.00">externalpublications</text>
<text text-anchor="start" x="552" y="-670.2" font-family="Helvetica,sans-Serif" font-size="11.00">[table]</text>
<polygon fill="none" stroke="black" points="436,-644 436,-662 587,-662 587,-644 436,-644"/>
<text text-anchor="start" x="439" y="-650.2" font-family="Helvetica,sans-Serif" font-size="11.00">...</text>
<polygon fill="#ffffff" stroke="transparent" points="436,-626 436,-644 486,-644 486,-626 436,-626"/>
<polygon fill="none" stroke="black" points="436,-626 436,-644 486,-644 486,-626 436,-626"/>
<text text-anchor="start" x="439" y="-632.2" font-family="Helvetica,sans-Serif" font-size="11.00">&lt; 2</text>
<polygon fill="#ffffff" stroke="transparent" points="486,-626 486,-644 560,-644 560,-626 486,-626"/>
<polygon fill="none" stroke="black" points="486,-626 486,-644 560,-644 560,-626 486,-626"/>
<text text-anchor="start" x="503" y="-632.2" font-family="Helvetica,sans-Serif" font-size="11.00">1,317 rows</text>
<polygon fill="#ffffff" stroke="transparent" points="560,-626 560,-644 587,-644 587,-626 560,-626"/>
<polygon fill="none" stroke="black" points="560,-626 560,-644 587,-644 587,-626 560,-626"/>
<text text-anchor="start" x="577" y="-632.2" font-family="Helvetica,sans-Serif" font-size="11.00"> &#160;</text>
</a>
</g>
</g>
<!-- externalpublications&#45;&gt;publications -->
<g id="edge4" class="edge">
<title>externalpublications:w&#45;&gt;publications:e</title>
<path fill="none" stroke="black" d="M420.59,-650.27C374.68,-629.43 448.59,-496 380.5,-496"/>
<polygon fill="black" stroke="black" points="427.14,-651.51 434.33,-656.54 431.07,-652.26 435,-653 435,-653 435,-653 431.07,-652.26 435.67,-649.46 427.14,-651.51 427.14,-651.51"/>
<ellipse fill="none" stroke="black" cx="424" cy="-650.92" rx="3.2" ry="3.2"/>
</g>
<!-- formtaxa -->
<g id="node6" class="node">
<title>formtaxa</title>
<g id="a_node6"><a xlink:href="../../tables/formtaxa.html" xlink:title="formtaxa" target="_top">
<polygon fill="#ffffff" stroke="transparent" points="648,-561 648,-619 739,-619 739,-561 648,-561"/>
<polygon fill="#f5f5f5" stroke="transparent" points="648.5,-597 648.5,-619 739.5,-619 739.5,-597 648.5,-597"/>
<polygon fill="none" stroke="black" points="648.5,-597 648.5,-619 739.5,-619 739.5,-597 648.5,-597"/>
<text text-anchor="start" x="653.5" y="-606.2" font-family="Helvetica,sans-Serif" font-weight="bold" font-size="11.00">formtaxa</text>
<text text-anchor="start" x="704.5" y="-605.2" font-family="Helvetica,sans-Serif" font-size="11.00">[table]</text>
<polygon fill="none" stroke="black" points="648.5,-579 648.5,-597 739.5,-597 739.5,-579 648.5,-579"/>
<text text-anchor="start" x="651.5" y="-585.2" font-family="Helvetica,sans-Serif" font-size="11.00">...</text>
<polygon fill="#ffffff" stroke="transparent" points="648.5,-561 648.5,-579 678.5,-579 678.5,-561 648.5,-561"/>
<polygon fill="none" stroke="black" points="648.5,-561 648.5,-579 678.5,-579 678.5,-561 648.5,-561"/>
<text text-anchor="start" x="651.5" y="-567.2" font-family="Helvetica,sans-Serif" font-size="11.00">&lt; 3</text>
<polygon fill="#ffffff" stroke="transparent" points="678.5,-561 678.5,-579 721.5,-579 721.5,-561 678.5,-561"/>
<polygon fill="none" stroke="black" points="678.5,-561 678.5,-579 721.5,-579 721.5,-561 678.5,-561"/>
<text text-anchor="start" x="685.5" y="-567.2" font-family="Helvetica,sans-Serif" font-size="11.00">3 rows</text>
<polygon fill="#ffffff" stroke="transparent" points="721.5,-561 721.5,-579 739.5,-579 739.5,-561 721.5,-561"/>
<polygon fill="none" stroke="black" points="721.5,-561 721.5,-579 739.5,-579 739.5,-561 721.5,-561"/>
<text text-anchor="start" x="729.5" y="-567.2" font-family="Helvetica,sans-Serif" font-size="11.00"> &#160;</text>
</a>
</g>
</g>
<!-- formtaxa&#45;&gt;publications -->
<g id="edge6" class="edge">
<title>formtaxa:w&#45;&gt;publications:e</title>
<path fill="none" stroke="black" d="M633.1,-588.39C542.18,-593.28 500.2,-642.07 420,-589 382.55,-564.22 425.41,-496 380.5,-496"/>
<polygon fill="black" stroke="black" points="639.5,-588.21 647.6,-591.6 643.5,-588.11 647.5,-588 647.5,-588 647.5,-588 643.5,-588.11 647.4,-584.4 639.5,-588.21 639.5,-588.21"/>
<ellipse fill="none" stroke="black" cx="636.3" cy="-588.3" rx="3.2" ry="3.2"/>
</g>
<!-- taxa -->
<g id="node7" class="node">
<title>taxa</title>
<g id="a_node7"><a xlink:href="../../tables/taxa.html" xlink:title="taxa" target="_top">
<polygon fill="#ffffff" stroke="transparent" points="453,-520 453,-578 569,-578 569,-520 453,-520"/>
<polygon fill="#f5f5f5" stroke="transparent" points="453,-556 453,-578 569,-578 569,-556 453,-556"/>
<polygon fill="none" stroke="black" points="453,-556 453,-578 569,-578 569,-556 453,-556"/>
<text text-anchor="start" x="458" y="-565.2" font-family="Helvetica,sans-Serif" font-weight="bold" font-size="11.00">taxa</text>
<text text-anchor="start" x="534" y="-564.2" font-family="Helvetica,sans-Serif" font-size="11.00">[table]</text>
<polygon fill="none" stroke="black" points="453,-538 453,-556 569,-556 569,-538 453,-538"/>
<text text-anchor="start" x="456" y="-544.2" font-family="Helvetica,sans-Serif" font-size="11.00">...</text>
<polygon fill="#ffffff" stroke="transparent" points="453,-520 453,-538 475,-538 475,-520 453,-520"/>
<polygon fill="none" stroke="black" points="453,-520 453,-538 475,-538 475,-520 453,-520"/>
<text text-anchor="start" x="456" y="-526.2" font-family="Helvetica,sans-Serif" font-size="11.00">&lt; 4</text>
<polygon fill="#ffffff" stroke="transparent" points="475,-520 475,-538 541,-538 541,-520 475,-520"/>
<polygon fill="none" stroke="black" points="475,-520 475,-538 541,-538 541,-520 475,-520"/>
<text text-anchor="start" x="478" y="-526.2" font-family="Helvetica,sans-Serif" font-size="11.00">46,322 rows</text>
<polygon fill="#ffffff" stroke="transparent" points="541,-520 541,-538 569,-538 569,-520 541,-520"/>
<polygon fill="none" stroke="black" points="541,-520 541,-538 569,-538 569,-520 541,-520"/>
<text text-anchor="start" x="544" y="-526.2" font-family="Helvetica,sans-Serif" font-size="11.00">17 &gt;</text>
</a>
</g>
</g>
<!-- formtaxa&#45;&gt;taxa -->
<g id="edge5" class="edge">
<title>formtaxa:w&#45;&gt;taxa:e</title>
<path fill="none" stroke="black" d="M633.53,-583.79C607.91,-571.67 603.64,-541.82 570,-547"/>
<polygon fill="black" stroke="black" points="639.84,-585.69 646.46,-591.45 643.67,-586.85 647.5,-588 647.5,-588 647.5,-588 643.67,-586.85 648.54,-584.55 639.84,-585.69 639.84,-585.69"/>
<ellipse fill="none" stroke="black" cx="636.78" cy="-584.77" rx="3.2" ry="3.2"/>
</g>
<!-- formtaxa&#45;&gt;taxa -->
<g id="edge7" class="edge">
<title>formtaxa:w&#45;&gt;taxa:e</title>
<path fill="none" stroke="black" d="M632.84,-588.27C607.84,-583.86 603.34,-552.99 570,-547"/>
<polygon fill="black" stroke="black" points="639.5,-588.15 647.57,-591.6 643.5,-588.07 647.5,-588 647.5,-588 647.5,-588 643.5,-588.07 647.43,-584.4 639.5,-588.15 639.5,-588.15"/>
<ellipse fill="none" stroke="black" cx="636.3" cy="-588.21" rx="3.2" ry="3.2"/>
</g>
<!-- taxa&#45;&gt;publications -->
<g id="edge18" class="edge">
<title>taxa:w&#45;&gt;publications:e</title>
<path fill="none" stroke="black" d="M437.66,-544.11C413.91,-533.32 413.89,-496 380.5,-496"/>
<polygon fill="black" stroke="black" points="444.16,-545.42 451.29,-550.53 448.08,-546.21 452,-547 452,-547 452,-547 448.08,-546.21 452.71,-543.47 444.16,-545.42 444.16,-545.42"/>
<ellipse fill="none" stroke="black" cx="441.02" cy="-544.79" rx="3.2" ry="3.2"/>
</g>
<!-- geochronpublications -->
<g id="node8" class="node">
<title>geochronpublications</title>
<g id="a_node8"><a xlink:href="../../tables/geochronpublications.html" xlink:title="geochronpublications" target="_top">
<polygon fill="#ffffff" stroke="transparent" points="431.5,-414 431.5,-472 590.5,-472 590.5,-414 431.5,-414"/>
<polygon fill="#f5f5f5" stroke="transparent" points="432,-450 432,-472 591,-472 591,-450 432,-450"/>
<polygon fill="none" stroke="black" points="432,-450 432,-472 591,-472 591,-450 432,-450"/>
<text text-anchor="start" x="437" y="-459.2" font-family="Helvetica,sans-Serif" font-weight="bold" font-size="11.00">geochronpublications</text>
<text text-anchor="start" x="556" y="-458.2" font-family="Helvetica,sans-Serif" font-size="11.00">[table]</text>
<polygon fill="none" stroke="black" points="432,-432 432,-450 591,-450 591,-432 432,-432"/>
<text text-anchor="start" x="435" y="-438.2" font-family="Helvetica,sans-Serif" font-size="11.00">...</text>
<polygon fill="#ffffff" stroke="transparent" points="432,-414 432,-432 483,-432 483,-414 432,-414"/>
<polygon fill="none" stroke="black" points="432,-414 432,-432 483,-432 483,-414 432,-414"/>
<text text-anchor="start" x="435" y="-420.2" font-family="Helvetica,sans-Serif" font-size="11.00">&lt; 2</text>
<polygon fill="#ffffff" stroke="transparent" points="483,-414 483,-432 563,-432 563,-414 483,-414"/>
<polygon fill="none" stroke="black" points="483,-414 483,-432 563,-432 563,-414 483,-414"/>
<text text-anchor="start" x="500" y="-420.2" font-family="Helvetica,sans-Serif" font-size="11.00">36,183 rows</text>
<polygon fill="#ffffff" stroke="transparent" points="563,-414 563,-432 591,-432 591,-414 563,-414"/>
<polygon fill="none" stroke="black" points="563,-414 563,-432 591,-432 591,-414 563,-414"/>
<text text-anchor="start" x="581" y="-420.2" font-family="Helvetica,sans-Serif" font-size="11.00"> &#160;</text>
</a>
</g>
</g>
<!-- geochronpublications&#45;&gt;publications -->
<g id="edge8" class="edge">
<title>geochronpublications:w&#45;&gt;publications:e</title>
<path fill="none" stroke="black" d="M417.29,-445.69C401.93,-458.99 407.72,-496 380.5,-496"/>
<polygon fill="black" stroke="black" points="423.43,-443.59 432.17,-444.41 427.22,-442.29 431,-441 431,-441 431,-441 427.22,-442.29 429.83,-437.59 423.43,-443.59 423.43,-443.59"/>
<ellipse fill="none" stroke="black" cx="420.4" cy="-444.63" rx="3.2" ry="3.2"/>
</g>
<!-- publicationauthors -->
<g id="node9" class="node">
<title>publicationauthors</title>
<g id="a_node9"><a xlink:href="../../tables/publicationauthors.html" xlink:title="publicationauthors" target="_top">
<polygon fill="#ffffff" stroke="transparent" points="439,-335 439,-393 583,-393 583,-335 439,-335"/>
<polygon fill="#f5f5f5" stroke="transparent" points="439,-371 439,-393 583,-393 583,-371 439,-371"/>
<polygon fill="none" stroke="black" points="439,-371 439,-393 583,-393 583,-371 439,-371"/>
<text text-anchor="start" x="444" y="-380.2" font-family="Helvetica,sans-Serif" font-weight="bold" font-size="11.00">publicationauthors</text>
<text text-anchor="start" x="548" y="-379.2" font-family="Helvetica,sans-Serif" font-size="11.00">[table]</text>
<polygon fill="none" stroke="black" points="439,-353 439,-371 583,-371 583,-353 439,-353"/>
<text text-anchor="start" x="442" y="-359.2" font-family="Helvetica,sans-Serif" font-size="11.00">...</text>
<polygon fill="#ffffff" stroke="transparent" points="439,-335 439,-353 482,-353 482,-335 439,-335"/>
<polygon fill="none" stroke="black" points="439,-335 439,-353 482,-353 482,-335 439,-335"/>
<text text-anchor="start" x="442" y="-341.2" font-family="Helvetica,sans-Serif" font-size="11.00">&lt; 2</text>
<polygon fill="#ffffff" stroke="transparent" points="482,-335 482,-353 559,-353 559,-335 482,-335"/>
<polygon fill="none" stroke="black" points="482,-335 482,-353 559,-353 559,-335 482,-335"/>
<text text-anchor="start" x="496" y="-341.2" font-family="Helvetica,sans-Serif" font-size="11.00">30,625 rows</text>
<polygon fill="#ffffff" stroke="transparent" points="559,-335 559,-353 583,-353 583,-335 559,-335"/>
<polygon fill="none" stroke="black" points="559,-335 559,-353 583,-353 583,-335 559,-335"/>
<text text-anchor="start" x="573" y="-341.2" font-family="Helvetica,sans-Serif" font-size="11.00"> &#160;</text>
</a>
</g>
</g>
<!-- publicationauthors&#45;&gt;publications -->
<g id="edge9" class="edge">
<title>publicationauthors:w&#45;&gt;publications:e</title>
<path fill="none" stroke="black" d="M423.9,-364.92C384.81,-384.52 439.61,-496 380.5,-496"/>
<polygon fill="black" stroke="black" points="430.17,-363.62 438.73,-365.53 434.08,-362.81 438,-362 438,-362 438,-362 434.08,-362.81 437.27,-358.47 430.17,-363.62 430.17,-363.62"/>
<ellipse fill="none" stroke="black" cx="427.03" cy="-364.27" rx="3.2" ry="3.2"/>
</g>
<!-- publicationeditors -->
<g id="node10" class="node">
<title>publicationeditors</title>
<g id="a_node10"><a xlink:href="../../tables/publicationeditors.html" xlink:title="publicationeditors" target="_top">
<polygon fill="#ffffff" stroke="transparent" points="441,-256 441,-314 581,-314 581,-256 441,-256"/>
<polygon fill="#f5f5f5" stroke="transparent" points="441,-292 441,-314 581,-314 581,-292 441,-292"/>
<polygon fill="none" stroke="black" points="441,-292 441,-314 581,-314 581,-292 441,-292"/>
<text text-anchor="start" x="446" y="-301.2" font-family="Helvetica,sans-Serif" font-weight="bold" font-size="11.00">publicationeditors</text>
<text text-anchor="start" x="546" y="-300.2" font-family="Helvetica,sans-Serif" font-size="11.00">[table]</text>
<polygon fill="none" stroke="black" points="441,-274 441,-292 581,-292 581,-274 441,-274"/>
<text text-anchor="start" x="444" y="-280.2" font-family="Helvetica,sans-Serif" font-size="11.00">...</text>
<polygon fill="#ffffff" stroke="transparent" points="441,-256 441,-274 485,-274 485,-256 441,-256"/>
<polygon fill="none" stroke="black" points="441,-256 441,-274 485,-274 485,-256 441,-256"/>
<text text-anchor="start" x="444" y="-262.2" font-family="Helvetica,sans-Serif" font-size="11.00">&lt; 1</text>
<polygon fill="#ffffff" stroke="transparent" points="485,-256 485,-274 556,-274 556,-256 485,-256"/>
<polygon fill="none" stroke="black" points="485,-256 485,-274 556,-274 556,-256 485,-256"/>
<text text-anchor="start" x="499" y="-262.2" font-family="Helvetica,sans-Serif" font-size="11.00">1,466 rows</text>
<polygon fill="#ffffff" stroke="transparent" points="556,-256 556,-274 581,-274 581,-256 556,-256"/>
<polygon fill="none" stroke="black" points="556,-256 556,-274 581,-274 581,-256 556,-256"/>
<text text-anchor="start" x="571" y="-262.2" font-family="Helvetica,sans-Serif" font-size="11.00"> &#160;</text>
</a>
</g>
</g>
<!-- publicationeditors&#45;&gt;publications -->
<g id="edge10" class="edge">
<title>publicationeditors:w&#45;&gt;publications:e</title>
<path fill="none" stroke="black" d="M425.48,-284.97C356.48,-306.45 473.22,-496 380.5,-496"/>
<polygon fill="black" stroke="black" points="432.07,-284.08 440.48,-286.57 436.04,-283.54 440,-283 440,-283 440,-283 436.04,-283.54 439.52,-279.43 432.07,-284.08 432.07,-284.08"/>
<ellipse fill="none" stroke="black" cx="428.9" cy="-284.51" rx="3.2" ry="3.2"/>
</g>
<!-- publicationtranslators -->
<g id="node12" class="node">
<title>publicationtranslators</title>
<g id="a_node12"><a xlink:href="../../tables/publicationtranslators.html" xlink:title="publicationtranslators" target="_top">
<polygon fill="#ffffff" stroke="transparent" points="431,-177 431,-235 591,-235 591,-177 431,-177"/>
<polygon fill="#f5f5f5" stroke="transparent" points="431,-213 431,-235 591,-235 591,-213 431,-213"/>
<polygon fill="none" stroke="black" points="431,-213 431,-235 591,-235 591,-213 431,-213"/>
<text text-anchor="start" x="436" y="-222.2" font-family="Helvetica,sans-Serif" font-weight="bold" font-size="11.00">publicationtranslators</text>
<text text-anchor="start" x="556" y="-221.2" font-family="Helvetica,sans-Serif" font-size="11.00">[table]</text>
<polygon fill="none" stroke="black" points="431,-195 431,-213 591,-213 591,-195 431,-195"/>
<text text-anchor="start" x="434" y="-201.2" font-family="Helvetica,sans-Serif" font-size="11.00">...</text>
<polygon fill="#ffffff" stroke="transparent" points="431,-177 431,-195 496,-195 496,-177 431,-177"/>
<polygon fill="none" stroke="black" points="431,-177 431,-195 496,-195 496,-177 431,-177"/>
<text text-anchor="start" x="434" y="-183.2" font-family="Helvetica,sans-Serif" font-size="11.00">&lt; 1</text>
<polygon fill="#ffffff" stroke="transparent" points="496,-177 496,-195 556,-195 556,-177 496,-177"/>
<polygon fill="none" stroke="black" points="496,-177 496,-195 556,-195 556,-177 496,-177"/>
<text text-anchor="start" x="520" y="-183.2" font-family="Helvetica,sans-Serif" font-size="11.00">4 rows</text>
<polygon fill="#ffffff" stroke="transparent" points="556,-177 556,-195 591,-195 591,-177 556,-177"/>
<polygon fill="none" stroke="black" points="556,-177 556,-195 591,-195 591,-177 556,-177"/>
<text text-anchor="start" x="581" y="-183.2" font-family="Helvetica,sans-Serif" font-size="11.00"> &#160;</text>
</a>
</g>
</g>
<!-- publicationtranslators&#45;&gt;publications -->
<g id="edge12" class="edge">
<title>publicationtranslators:w&#45;&gt;publications:e</title>
<path fill="none" stroke="black" d="M416.63,-209.57C376.66,-249.94 440.92,-496 380.5,-496"/>
<polygon fill="black" stroke="black" points="422.62,-207.08 431.38,-207.32 426.31,-205.54 430,-204 430,-204 430,-204 426.31,-205.54 428.62,-200.68 422.62,-207.08 422.62,-207.08"/>
<ellipse fill="none" stroke="black" cx="419.66" cy="-208.31" rx="3.2" ry="3.2"/>
</g>
<!-- pubtsv -->
<g id="node13" class="node">
<title>pubtsv</title>
<g id="a_node13"><a xlink:href="../../tables/pubtsv.html" xlink:title="pubtsv" target="_top">
<polygon fill="#ffffff" stroke="transparent" points="471.5,-116 471.5,-156 550.5,-156 550.5,-116 471.5,-116"/>
<polygon fill="#f5f5f5" stroke="transparent" points="472,-134 472,-156 551,-156 551,-134 472,-134"/>
<polygon fill="none" stroke="black" points="472,-134 472,-156 551,-156 551,-134 472,-134"/>
<text text-anchor="start" x="477" y="-143.2" font-family="Helvetica,sans-Serif" font-weight="bold" font-size="11.00">pubtsv</text>
<text text-anchor="start" x="518" y="-142.2" font-family="Helvetica,sans-Serif" font-size="11.00">[view]</text>
<polygon fill="none" stroke="black" points="472,-116 472,-134 551,-134 551,-116 472,-116"/>
<text text-anchor="start" x="475" y="-122.2" font-family="Helvetica,sans-Serif" font-size="11.00">...</text>
</a>
</g>
</g>
<!-- pubtsv&#45;&gt;publications -->
<g id="edge13" class="edge">
<title>pubtsv:w&#45;&gt;publications:e</title>
<path fill="none" stroke="black" stroke-dasharray="5,2" d="M456.6,-126.67C438.58,-131.42 431.45,-146.07 420,-167 384.65,-231.6 454.14,-496 380.5,-496"/>
<polygon fill="black" stroke="black" points="463.05,-125.92 471.41,-128.58 467.03,-125.46 471,-125 471,-125 471,-125 467.03,-125.46 470.59,-121.42 463.05,-125.92 463.05,-125.92"/>
<ellipse fill="none" stroke="black" cx="459.87" cy="-126.29" rx="3.2" ry="3.2"/>
</g>
<!-- relativeagepublications -->
<g id="node14" class="node">
<title>relativeagepublications</title>
<g id="a_node14"><a xlink:href="../../tables/relativeagepublications.html" xlink:title="relativeagepublications" target="_top">
<polygon fill="#ffffff" stroke="transparent" points="428,-37 428,-95 594,-95 594,-37 428,-37"/>
<polygon fill="#f5f5f5" stroke="transparent" points="428,-73 428,-95 594,-95 594,-73 428,-73"/>
<polygon fill="none" stroke="black" points="428,-73 428,-95 594,-95 594,-73 428,-73"/>
<text text-anchor="start" x="433" y="-82.2" font-family="Helvetica,sans-Serif" font-weight="bold" font-size="11.00">relativeagepublications</text>
<text text-anchor="start" x="559" y="-81.2" font-family="Helvetica,sans-Serif" font-size="11.00">[table]</text>
<polygon fill="none" stroke="black" points="428,-55 428,-73 594,-73 594,-55 428,-55"/>
<text text-anchor="start" x="431" y="-61.2" font-family="Helvetica,sans-Serif" font-size="11.00">...</text>
<polygon fill="#ffffff" stroke="transparent" points="428,-37 428,-55 490,-55 490,-37 428,-37"/>
<polygon fill="none" stroke="black" points="428,-37 428,-55 490,-55 490,-37 428,-37"/>
<text text-anchor="start" x="431" y="-43.2" font-family="Helvetica,sans-Serif" font-size="11.00">&lt; 2</text>
<polygon fill="#ffffff" stroke="transparent" points="490,-37 490,-55 561,-55 561,-37 490,-37"/>
<polygon fill="none" stroke="black" points="490,-37 490,-55 561,-55 561,-37 490,-37"/>
<text text-anchor="start" x="513" y="-43.2" font-family="Helvetica,sans-Serif" font-size="11.00">115 rows</text>
<polygon fill="#ffffff" stroke="transparent" points="561,-37 561,-55 594,-55 594,-37 561,-37"/>
<polygon fill="none" stroke="black" points="561,-37 561,-55 594,-55 594,-37 561,-37"/>
<text text-anchor="start" x="584" y="-43.2" font-family="Helvetica,sans-Serif" font-size="11.00"> &#160;</text>
</a>
</g>
</g>
<!-- relativeagepublications&#45;&gt;publications -->
<g id="edge14" class="edge">
<title>relativeagepublications:w&#45;&gt;publications:e</title>
<path fill="none" stroke="black" d="M412.85,-68C346.27,-111.55 471.59,-496 380.5,-496"/>
<polygon fill="black" stroke="black" points="419.3,-66.18 427.98,-67.46 423.15,-65.09 427,-64 427,-64 427,-64 423.15,-65.09 426.02,-60.54 419.3,-66.18 419.3,-66.18"/>
<ellipse fill="none" stroke="black" cx="416.22" cy="-67.05" rx="3.2" ry="3.2"/>
</g>
<!-- synonymy -->
<g id="node15" class="node">
<title>synonymy</title>
<g id="a_node15"><a xlink:href="../../tables/synonymy.html" xlink:title="synonymy" target="_top">
<polygon fill="#ffffff" stroke="transparent" points="643,-482 643,-540 744,-540 744,-482 643,-482"/>
<polygon fill="#f5f5f5" stroke="transparent" points="643.5,-518 643.5,-540 744.5,-540 744.5,-518 643.5,-518"/>
<polygon fill="none" stroke="black" points="643.5,-518 643.5,-540 744.5,-540 744.5,-518 643.5,-518"/>
<text text-anchor="start" x="648.5" y="-527.2" font-family="Helvetica,sans-Serif" font-weight="bold" font-size="11.00">synonymy</text>
<text text-anchor="start" x="709.5" y="-526.2" font-family="Helvetica,sans-Serif" font-size="11.00">[table]</text>
<polygon fill="none" stroke="black" points="643.5,-500 643.5,-518 744.5,-518 744.5,-500 643.5,-500"/>
<text text-anchor="start" x="646.5" y="-506.2" font-family="Helvetica,sans-Serif" font-size="11.00">...</text>
<polygon fill="#ffffff" stroke="transparent" points="643.5,-482 643.5,-500 665.5,-500 665.5,-482 643.5,-482"/>
<polygon fill="none" stroke="black" points="643.5,-482 643.5,-500 665.5,-500 665.5,-482 643.5,-482"/>
<text text-anchor="start" x="646.5" y="-488.2" font-family="Helvetica,sans-Serif" font-size="11.00">&lt; 5</text>
<polygon fill="#ffffff" stroke="transparent" points="665.5,-482 665.5,-500 731.5,-500 731.5,-482 665.5,-482"/>
<polygon fill="none" stroke="black" points="665.5,-482 665.5,-500 731.5,-500 731.5,-482 665.5,-482"/>
<text text-anchor="start" x="668.5" y="-488.2" font-family="Helvetica,sans-Serif" font-size="11.00">37,992 rows</text>
<polygon fill="#ffffff" stroke="transparent" points="731.5,-482 731.5,-500 744.5,-500 744.5,-482 731.5,-482"/>
<polygon fill="none" stroke="black" points="731.5,-482 731.5,-500 744.5,-500 744.5,-482 731.5,-482"/>
<text text-anchor="start" x="734.5" y="-488.2" font-family="Helvetica,sans-Serif" font-size="11.00"> &#160;</text>
</a>
</g>
</g>
<!-- synonymy&#45;&gt;publications -->
<g id="edge15" class="edge">
<title>synonymy:w&#45;&gt;publications:e</title>
<path fill="none" stroke="black" d="M627.94,-508.93C523.27,-507.91 492.08,-496 380.5,-496"/>
<polygon fill="black" stroke="black" points="634.5,-508.96 642.48,-512.6 638.5,-508.98 642.5,-509 642.5,-509 642.5,-509 638.5,-508.98 642.52,-505.4 634.5,-508.96 634.5,-508.96"/>
<ellipse fill="none" stroke="black" cx="631.3" cy="-508.95" rx="3.2" ry="3.2"/>
</g>
<!-- synonymy&#45;&gt;taxa -->
<g id="edge16" class="edge">
<title>synonymy:w&#45;&gt;taxa:e</title>
<path fill="none" stroke="black" d="M627.85,-509.12C605.31,-514.09 600.7,-541.94 570,-547"/>
<polygon fill="black" stroke="black" points="634.5,-509.07 642.53,-512.6 638.5,-509.03 642.5,-509 642.5,-509 642.5,-509 638.5,-509.03 642.47,-505.4 634.5,-509.07 634.5,-509.07"/>
<ellipse fill="none" stroke="black" cx="631.3" cy="-509.09" rx="3.2" ry="3.2"/>
</g>
<!-- synonymy&#45;&gt;taxa -->
<g id="edge17" class="edge">
<title>synonymy:w&#45;&gt;taxa:e</title>
<path fill="none" stroke="black" d="M628.8,-513.75C605.43,-526.04 601.12,-552.99 570,-547"/>
<polygon fill="black" stroke="black" points="634.94,-511.62 643.68,-512.4 638.72,-510.31 642.5,-509 642.5,-509 642.5,-509 638.72,-510.31 641.32,-505.6 634.94,-511.62 634.94,-511.62"/>
<ellipse fill="none" stroke="black" cx="631.92" cy="-512.67" rx="3.2" ry="3.2"/>
</g>
</g>
</svg>
