<?xml version="1.0" encoding="UTF-8" standalone="no"?>
<!DOCTYPE svg PUBLIC "-//W3C//DTD SVG 1.1//EN"
 "http://www.w3.org/Graphics/SVG/1.1/DTD/svg11.dtd">
<!-- Generated by graphviz version 2.43.0 (0)
 -->
<!-- Title: twoDegreesRelationshipsDiagram Pages: 1 -->
<svg width="760pt" height="1034pt"
 viewBox="0.00 0.00 760.00 1034.00" xmlns="http://www.w3.org/2000/svg" xmlns:xlink="http://www.w3.org/1999/xlink">
<g id="graph0" class="graph" transform="scale(1 1) rotate(0) translate(4 1030)">
<title>twoDegreesRelationshipsDiagram</title>
<polygon fill="#ffffff" stroke="transparent" points="-4,4 -4,-1030 756,-1030 756,4 -4,4"/>
<text text-anchor="middle" x="71.5" y="-7.2" font-family="Helvetica,sans-Serif" font-size="11.00">Generated by SchemaSpy</text>
<!-- calibrationcurves -->
<g id="node1" class="node">
<title>calibrationcurves</title>
<g id="a_node1"><a xlink:href="../../tables/calibrationcurves.html" xlink:title="calibrationcurves" target="_top">
<polygon fill="#ffffff" stroke="transparent" points="410,-964 410,-1022 545,-1022 545,-964 410,-964"/>
<polygon fill="#f5f5f5" stroke="transparent" points="410.5,-1000 410.5,-1022 545.5,-1022 545.5,-1000 410.5,-1000"/>
<polygon fill="none" stroke="black" points="410.5,-1000 410.5,-1022 545.5,-1022 545.5,-1000 410.5,-1000"/>
<text text-anchor="start" x="415.5" y="-1009.2" font-family="Helvetica,sans-Serif" font-weight="bold" font-size="11.00">calibrationcurves</text>
<text text-anchor="start" x="510.5" y="-1008.2" font-family="Helvetica,sans-Serif" font-size="11.00">[table]</text>
<polygon fill="none" stroke="black" points="410.5,-982 410.5,-1000 545.5,-1000 545.5,-982 410.5,-982"/>
<text text-anchor="start" x="413.5" y="-988.2" font-family="Helvetica,sans-Serif" font-size="11.00">...</text>
<polygon fill="#ffffff" stroke="transparent" points="410.5,-964 410.5,-982 455.5,-982 455.5,-964 410.5,-964"/>
<polygon fill="none" stroke="black" points="410.5,-964 410.5,-982 455.5,-982 455.5,-964 410.5,-964"/>
<text text-anchor="start" x="413.5" y="-970.2" font-family="Helvetica,sans-Serif" font-size="11.00">&lt; 1</text>
<polygon fill="#ffffff" stroke="transparent" points="455.5,-964 455.5,-982 511.5,-982 511.5,-964 455.5,-964"/>
<polygon fill="none" stroke="black" points="455.5,-964 455.5,-982 511.5,-982 511.5,-964 455.5,-964"/>
<text text-anchor="start" x="469.5" y="-970.2" font-family="Helvetica,sans-Serif" font-size="11.00">15 rows</text>
<polygon fill="#ffffff" stroke="transparent" points="511.5,-964 511.5,-982 545.5,-982 545.5,-964 511.5,-964"/>
<polygon fill="none" stroke="black" points="511.5,-964 511.5,-982 545.5,-982 545.5,-964 511.5,-964"/>
<text text-anchor="start" x="526.5" y="-970.2" font-family="Helvetica,sans-Serif" font-size="11.00">2 &gt;</text>
</a>
</g>
</g>
<!-- publications -->
<g id="node2" class="node">
<title>publications</title>
<g id="a_node2"><a xlink:href="../../tables/publications.html" xlink:title="publications" target="_top">
<polygon fill="#ffffff" stroke="transparent" points="189,-553 189,-655 312,-655 312,-553 189,-553"/>
<polygon fill="#f5f5f5" stroke="transparent" points="189.5,-633 189.5,-655 312.5,-655 312.5,-633 189.5,-633"/>
<polygon fill="none" stroke="black" points="189.5,-633 189.5,-655 312.5,-655 312.5,-633 189.5,-633"/>
<text text-anchor="start" x="194.5" y="-642.2" font-family="Helvetica,sans-Serif" font-weight="bold" font-size="11.00">publications</text>
<text text-anchor="start" x="277.5" y="-641.2" font-family="Helvetica,sans-Serif" font-size="11.00">[table]</text>
<polygon fill="none" stroke="black" points="189.5,-611 189.5,-633 312.5,-633 312.5,-611 189.5,-611"/>
<image xlink:href="../../images/primaryKeys.png" width="11px" height="12px" preserveAspectRatio="xMinYMin meet" x="194.5" y="-628"/>
<text text-anchor="start" x="209.5" y="-619.2" font-family="Helvetica,sans-Serif" font-size="11.00">publicationid</text>
<polygon fill="none" stroke="black" points="189.5,-589 189.5,-611 312.5,-611 312.5,-589 189.5,-589"/>
<image xlink:href="../../images/foreignKeys.png" width="11px" height="12px" preserveAspectRatio="xMinYMin meet" x="194.5" y="-606"/>
<text text-anchor="start" x="209.5" y="-597.2" font-family="Helvetica,sans-Serif" font-size="11.00">pubtypeid</text>
<polygon fill="none" stroke="black" points="189.5,-571 189.5,-589 312.5,-589 312.5,-571 189.5,-571"/>
<text text-anchor="start" x="192.5" y="-577.2" font-family="Helvetica,sans-Serif" font-size="11.00">...</text>
<polygon fill="#ffffff" stroke="transparent" points="189.5,-553 189.5,-571 214.5,-571 214.5,-553 189.5,-553"/>
<polygon fill="none" stroke="black" points="189.5,-553 189.5,-571 214.5,-571 214.5,-553 189.5,-553"/>
<text text-anchor="start" x="192.5" y="-559.2" font-family="Helvetica,sans-Serif" font-size="11.00">&lt; 1</text>
<polygon fill="#ffffff" stroke="transparent" points="214.5,-553 214.5,-571 282.5,-571 282.5,-553 214.5,-553"/>
<polygon fill="none" stroke="black" points="214.5,-553 214.5,-571 282.5,-571 282.5,-553 214.5,-553"/>
<text text-anchor="start" x="219.5" y="-559.2" font-family="Helvetica,sans-Serif" font-size="11.00">13,466 rows</text>
<polygon fill="#ffffff" stroke="transparent" points="282.5,-553 282.5,-571 312.5,-571 312.5,-553 282.5,-553"/>
<polygon fill="none" stroke="black" points="282.5,-553 282.5,-571 312.5,-571 312.5,-553 282.5,-553"/>
<text text-anchor="start" x="287.5" y="-559.2" font-family="Helvetica,sans-Serif" font-size="11.00">12 &gt;</text>
</a>
</g>
</g>
<!-- calibrationcurves&#45;&gt;publications -->
<g id="edge1" class="edge">
<title>calibrationcurves:w&#45;&gt;publications:e</title>
<path fill="none" stroke="black" d="M395.05,-989.87C375.48,-986.42 365.97,-974.93 353,-954 313.87,-890.84 387.8,-622 313.5,-622"/>
<polygon fill="black" stroke="black" points="401.52,-990.38 409.22,-994.59 405.51,-990.69 409.5,-991 409.5,-991 409.5,-991 405.51,-990.69 409.78,-987.41 401.52,-990.38 401.52,-990.38"/>
<ellipse fill="none" stroke="black" cx="398.33" cy="-990.13" rx="3.2" ry="3.2"/>
</g>
<!-- publicationtypes -->
<g id="node11" class="node">
<title>publicationtypes</title>
<g id="a_node11"><a xlink:href="../../tables/publicationtypes.html" xlink:title="publicationtypes" target="_top">
<polygon fill="#ffffff" stroke="transparent" points="8,-573 8,-631 140,-631 140,-573 8,-573"/>
<polygon fill="#f5f5f5" stroke="transparent" points="8,-609 8,-631 140,-631 140,-609 8,-609"/>
<polygon fill="none" stroke="black" points="8,-609 8,-631 140,-631 140,-609 8,-609"/>
<text text-anchor="start" x="13" y="-618.2" font-family="Helvetica,sans-Serif" font-weight="bold" font-size="11.00">publicationtypes</text>
<text text-anchor="start" x="105" y="-617.2" font-family="Helvetica,sans-Serif" font-size="11.00">[table]</text>
<polygon fill="none" stroke="black" points="8,-591 8,-609 140,-609 140,-591 8,-591"/>
<text text-anchor="start" x="11" y="-597.2" font-family="Helvetica,sans-Serif" font-size="11.00">...</text>
<polygon fill="#ffffff" stroke="transparent" points="8,-573 8,-591 47,-591 47,-573 8,-573"/>
<polygon fill="none" stroke="black" points="8,-573 8,-591 47,-591 47,-573 8,-573"/>
<text text-anchor="start" x="11" y="-579.2" font-family="Helvetica,sans-Serif" font-size="11.00"> &#160;</text>
<polygon fill="#ffffff" stroke="transparent" points="47,-573 47,-591 105,-591 105,-573 47,-573"/>
<polygon fill="none" stroke="black" points="47,-573 47,-591 105,-591 105,-573 47,-573"/>
<text text-anchor="start" x="63" y="-579.2" font-family="Helvetica,sans-Serif" font-size="11.00">13 rows</text>
<polygon fill="#ffffff" stroke="transparent" points="105,-573 105,-591 140,-591 140,-573 105,-573"/>
<polygon fill="none" stroke="black" points="105,-573 105,-591 140,-591 140,-573 105,-573"/>
<text text-anchor="start" x="121" y="-579.2" font-family="Helvetica,sans-Serif" font-size="11.00">1 &gt;</text>
</a>
</g>
</g>
<!-- publications&#45;&gt;publicationtypes -->
<g id="edge11" class="edge">
<title>publications:w&#45;&gt;publicationtypes:e</title>
<path fill="none" stroke="black" d="M174.09,-600C163.32,-600 156.34,-600 141,-600"/>
<polygon fill="black" stroke="black" points="180.5,-600 188.5,-603.6 184.5,-600 188.5,-600 188.5,-600 188.5,-600 184.5,-600 188.5,-596.4 180.5,-600 180.5,-600"/>
<ellipse fill="none" stroke="black" cx="177.3" cy="-600" rx="3.2" ry="3.2"/>
</g>
<!-- datasetpublications -->
<g id="node3" class="node">
<title>datasetpublications</title>
<g id="a_node3"><a xlink:href="../../tables/datasetpublications.html" xlink:title="datasetpublications" target="_top">
<polygon fill="#ffffff" stroke="transparent" points="404,-885 404,-943 551,-943 551,-885 404,-885"/>
<polygon fill="#f5f5f5" stroke="transparent" points="404.5,-921 404.5,-943 551.5,-943 551.5,-921 404.5,-921"/>
<polygon fill="none" stroke="black" points="404.5,-921 404.5,-943 551.5,-943 551.5,-921 404.5,-921"/>
<text text-anchor="start" x="409.5" y="-930.2" font-family="Helvetica,sans-Serif" font-weight="bold" font-size="11.00">datasetpublications</text>
<text text-anchor="start" x="516.5" y="-929.2" font-family="Helvetica,sans-Serif" font-size="11.00">[table]</text>
<polygon fill="none" stroke="black" points="404.5,-903 404.5,-921 551.5,-921 551.5,-903 404.5,-903"/>
<text text-anchor="start" x="407.5" y="-909.2" font-family="Helvetica,sans-Serif" font-size="11.00">...</text>
<polygon fill="#ffffff" stroke="transparent" points="404.5,-885 404.5,-903 449.5,-903 449.5,-885 404.5,-885"/>
<polygon fill="none" stroke="black" points="404.5,-885 404.5,-903 449.5,-903 449.5,-885 404.5,-885"/>
<text text-anchor="start" x="407.5" y="-891.2" font-family="Helvetica,sans-Serif" font-size="11.00">&lt; 2</text>
<polygon fill="#ffffff" stroke="transparent" points="449.5,-885 449.5,-903 526.5,-903 526.5,-885 449.5,-885"/>
<polygon fill="none" stroke="black" points="449.5,-885 449.5,-903 526.5,-903 526.5,-885 449.5,-885"/>
<text text-anchor="start" x="463.5" y="-891.2" font-family="Helvetica,sans-Serif" font-size="11.00">58,986 rows</text>
<polygon fill="#ffffff" stroke="transparent" points="526.5,-885 526.5,-903 551.5,-903 551.5,-885 526.5,-885"/>
<polygon fill="none" stroke="black" points="526.5,-885 526.5,-903 551.5,-903 551.5,-885 526.5,-885"/>
<text text-anchor="start" x="541.5" y="-891.2" font-family="Helvetica,sans-Serif" font-size="11.00"> &#160;</text>
</a>
</g>
</g>
<!-- datasetpublications&#45;&gt;publications -->
<g id="edge2" class="edge">
<title>datasetpublications:w&#45;&gt;publications:e</title>
<path fill="none" stroke="black" d="M388.76,-910.38C372.08,-906.19 364.53,-893.94 353,-875 323.42,-826.39 370.4,-622 313.5,-622"/>
<polygon fill="black" stroke="black" points="395.55,-911.13 403.11,-915.58 399.52,-911.56 403.5,-912 403.5,-912 403.5,-912 399.52,-911.56 403.89,-908.42 395.55,-911.13 395.55,-911.13"/>
<ellipse fill="none" stroke="black" cx="392.37" cy="-910.78" rx="3.2" ry="3.2"/>
</g>
<!-- eventpublications -->
<g id="node4" class="node">
<title>eventpublications</title>
<g id="a_node4"><a xlink:href="../../tables/eventpublications.html" xlink:title="eventpublications" target="_top">
<polygon fill="#ffffff" stroke="transparent" points="408.5,-806 408.5,-864 546.5,-864 546.5,-806 408.5,-806"/>
<polygon fill="#f5f5f5" stroke="transparent" points="408.5,-842 408.5,-864 546.5,-864 546.5,-842 408.5,-842"/>
<polygon fill="none" stroke="black" points="408.5,-842 408.5,-864 546.5,-864 546.5,-842 408.5,-842"/>
<text text-anchor="start" x="413.5" y="-851.2" font-family="Helvetica,sans-Serif" font-weight="bold" font-size="11.00">eventpublications</text>
<text text-anchor="start" x="511.5" y="-850.2" font-family="Helvetica,sans-Serif" font-size="11.00">[table]</text>
<polygon fill="none" stroke="black" points="408.5,-824 408.5,-842 546.5,-842 546.5,-824 408.5,-824"/>
<text text-anchor="start" x="411.5" y="-830.2" font-family="Helvetica,sans-Serif" font-size="11.00">...</text>
<polygon fill="#ffffff" stroke="transparent" points="408.5,-806 408.5,-824 456.5,-824 456.5,-806 408.5,-806"/>
<polygon fill="none" stroke="black" points="408.5,-806 408.5,-824 456.5,-824 456.5,-806 408.5,-806"/>
<text text-anchor="start" x="411.5" y="-812.2" font-family="Helvetica,sans-Serif" font-size="11.00">&lt; 2</text>
<polygon fill="#ffffff" stroke="transparent" points="456.5,-806 456.5,-824 520.5,-824 520.5,-806 456.5,-806"/>
<polygon fill="none" stroke="black" points="456.5,-806 456.5,-824 520.5,-824 520.5,-806 456.5,-806"/>
<text text-anchor="start" x="472.5" y="-812.2" font-family="Helvetica,sans-Serif" font-size="11.00">378 rows</text>
<polygon fill="#ffffff" stroke="transparent" points="520.5,-806 520.5,-824 546.5,-824 546.5,-806 520.5,-806"/>
<polygon fill="none" stroke="black" points="520.5,-806 520.5,-824 546.5,-824 546.5,-806 520.5,-806"/>
<text text-anchor="start" x="536.5" y="-812.2" font-family="Helvetica,sans-Serif" font-size="11.00"> &#160;</text>
</a>
</g>
</g>
<!-- eventpublications&#45;&gt;publications -->
<g id="edge3" class="edge">
<title>eventpublications:w&#45;&gt;publications:e</title>
<path fill="none" stroke="black" d="M393.01,-831.66C374.68,-827.79 366.41,-815.65 353,-796 308.3,-730.5 392.8,-622 313.5,-622"/>
<polygon fill="black" stroke="black" points="399.53,-832.26 407.17,-836.58 403.52,-832.63 407.5,-833 407.5,-833 407.5,-833 403.52,-832.63 407.83,-829.42 399.53,-832.26 399.53,-832.26"/>
<ellipse fill="none" stroke="black" cx="396.35" cy="-831.97" rx="3.2" ry="3.2"/>
</g>
<!-- externalpublications -->
<g id="node5" class="node">
<title>externalpublications</title>
<g id="a_node5"><a xlink:href="../../tables/externalpublications.html" xlink:title="externalpublications" target="_top">
<polygon fill="#ffffff" stroke="transparent" points="402,-727 402,-785 553,-785 553,-727 402,-727"/>
<polygon fill="#f5f5f5" stroke="transparent" points="402.5,-763 402.5,-785 553.5,-785 553.5,-763 402.5,-763"/>
<polygon fill="none" stroke="black" points="402.5,-763 402.5,-785 553.5,-785 553.5,-763 402.5,-763"/>
<text text-anchor="start" x="407.5" y="-772.2" font-family="Helvetica,sans-Serif" font-weight="bold" font-size="11.00">externalpublications</text>
<text text-anchor="start" x="518.5" y="-771.2" font-family="Helvetica,sans-Serif" font-size="11.00">[table]</text>
<polygon fill="none" stroke="black" points="402.5,-745 402.5,-763 553.5,-763 553.5,-745 402.5,-745"/>
<text text-anchor="start" x="405.5" y="-751.2" font-family="Helvetica,sans-Serif" font-size="11.00">...</text>
<polygon fill="#ffffff" stroke="transparent" points="402.5,-727 402.5,-745 452.5,-745 452.5,-727 402.5,-727"/>
<polygon fill="none" stroke="black" points="402.5,-727 402.5,-745 452.5,-745 452.5,-727 402.5,-727"/>
<text text-anchor="start" x="405.5" y="-733.2" font-family="Helvetica,sans-Serif" font-size="11.00">&lt; 2</text>
<polygon fill="#ffffff" stroke="transparent" points="452.5,-727 452.5,-745 526.5,-745 526.5,-727 452.5,-727"/>
<polygon fill="none" stroke="black" points="452.5,-727 452.5,-745 526.5,-745 526.5,-727 452.5,-727"/>
<text text-anchor="start" x="469.5" y="-733.2" font-family="Helvetica,sans-Serif" font-size="11.00">1,317 rows</text>
<polygon fill="#ffffff" stroke="transparent" points="526.5,-727 526.5,-745 553.5,-745 553.5,-727 526.5,-727"/>
<polygon fill="none" stroke="black" points="526.5,-727 526.5,-745 553.5,-745 553.5,-727 526.5,-727"/>
<text text-anchor="start" x="543.5" y="-733.2" font-family="Helvetica,sans-Serif" font-size="11.00"> &#160;</text>
</a>
</g>
</g>
<!-- externalpublications&#45;&gt;publications -->
<g id="edge4" class="edge">
<title>externalpublications:w&#45;&gt;publications:e</title>
<path fill="none" stroke="black" d="M387.05,-751.85C371.33,-746.37 366.42,-731.05 353,-713 326.7,-677.62 357.59,-622 313.5,-622"/>
<polygon fill="black" stroke="black" points="393.59,-752.82 400.97,-757.56 397.54,-753.41 401.5,-754 401.5,-754 401.5,-754 397.54,-753.41 402.03,-750.44 393.59,-752.82 393.59,-752.82"/>
<ellipse fill="none" stroke="black" cx="390.42" cy="-752.35" rx="3.2" ry="3.2"/>
</g>
<!-- formtaxa -->
<g id="node6" class="node">
<title>formtaxa</title>
<g id="a_node6"><a xlink:href="../../tables/formtaxa.html" xlink:title="formtaxa" target="_top">
<polygon fill="#ffffff" stroke="transparent" points="648,-662 648,-720 739,-720 739,-662 648,-662"/>
<polygon fill="#f5f5f5" stroke="transparent" points="648.5,-698 648.5,-720 739.5,-720 739.5,-698 648.5,-698"/>
<polygon fill="none" stroke="black" points="648.5,-698 648.5,-720 739.5,-720 739.5,-698 648.5,-698"/>
<text text-anchor="start" x="653.5" y="-707.2" font-family="Helvetica,sans-Serif" font-weight="bold" font-size="11.00">formtaxa</text>
<text text-anchor="start" x="704.5" y="-706.2" font-family="Helvetica,sans-Serif" font-size="11.00">[table]</text>
<polygon fill="none" stroke="black" points="648.5,-680 648.5,-698 739.5,-698 739.5,-680 648.5,-680"/>
<text text-anchor="start" x="651.5" y="-686.2" font-family="Helvetica,sans-Serif" font-size="11.00">...</text>
<polygon fill="#ffffff" stroke="transparent" points="648.5,-662 648.5,-680 678.5,-680 678.5,-662 648.5,-662"/>
<polygon fill="none" stroke="black" points="648.5,-662 648.5,-680 678.5,-680 678.5,-662 648.5,-662"/>
<text text-anchor="start" x="651.5" y="-668.2" font-family="Helvetica,sans-Serif" font-size="11.00">&lt; 3</text>
<polygon fill="#ffffff" stroke="transparent" points="678.5,-662 678.5,-680 721.5,-680 721.5,-662 678.5,-662"/>
<polygon fill="none" stroke="black" points="678.5,-662 678.5,-680 721.5,-680 721.5,-662 678.5,-662"/>
<text text-anchor="start" x="685.5" y="-668.2" font-family="Helvetica,sans-Serif" font-size="11.00">3 rows</text>
<polygon fill="#ffffff" stroke="transparent" points="721.5,-662 721.5,-680 739.5,-680 739.5,-662 721.5,-662"/>
<polygon fill="none" stroke="black" points="721.5,-662 721.5,-680 739.5,-680 739.5,-662 721.5,-662"/>
<text text-anchor="start" x="729.5" y="-668.2" font-family="Helvetica,sans-Serif" font-size="11.00"> &#160;</text>
</a>
</g>
</g>
<!-- formtaxa&#45;&gt;publications -->
<g id="edge6" class="edge">
<title>formtaxa:w&#45;&gt;publications:e</title>
<path fill="none" stroke="black" d="M632.65,-689.44C559.03,-693.29 405.84,-720.42 353,-690 322.71,-672.56 348.45,-622 313.5,-622"/>
<polygon fill="black" stroke="black" points="639.5,-689.24 647.61,-692.6 643.5,-689.12 647.5,-689 647.5,-689 647.5,-689 643.5,-689.12 647.39,-685.4 639.5,-689.24 639.5,-689.24"/>
<ellipse fill="none" stroke="black" cx="636.3" cy="-689.33" rx="3.2" ry="3.2"/>
</g>
<!-- taxa -->
<g id="node7" class="node">
<title>taxa</title>
<g id="a_node7"><a xlink:href="../../tables/taxa.html" xlink:title="taxa" target="_top">
<polygon fill="#ffffff" stroke="transparent" points="419.5,-621 419.5,-679 535.5,-679 535.5,-621 419.5,-621"/>
<polygon fill="#f5f5f5" stroke="transparent" points="419.5,-657 419.5,-679 535.5,-679 535.5,-657 419.5,-657"/>
<polygon fill="none" stroke="black" points="419.5,-657 419.5,-679 535.5,-679 535.5,-657 419.5,-657"/>
<text text-anchor="start" x="424.5" y="-666.2" font-family="Helvetica,sans-Serif" font-weight="bold" font-size="11.00">taxa</text>
<text text-anchor="start" x="500.5" y="-665.2" font-family="Helvetica,sans-Serif" font-size="11.00">[table]</text>
<polygon fill="none" stroke="black" points="419.5,-639 419.5,-657 535.5,-657 535.5,-639 419.5,-639"/>
<text text-anchor="start" x="422.5" y="-645.2" font-family="Helvetica,sans-Serif" font-size="11.00">...</text>
<polygon fill="#ffffff" stroke="transparent" points="419.5,-621 419.5,-639 441.5,-639 441.5,-621 419.5,-621"/>
<polygon fill="none" stroke="black" points="419.5,-621 419.5,-639 441.5,-639 441.5,-621 419.5,-621"/>
<text text-anchor="start" x="422.5" y="-627.2" font-family="Helvetica,sans-Serif" font-size="11.00">&lt; 4</text>
<polygon fill="#ffffff" stroke="transparent" points="441.5,-621 441.5,-639 507.5,-639 507.5,-621 441.5,-621"/>
<polygon fill="none" stroke="black" points="441.5,-621 441.5,-639 507.5,-639 507.5,-621 441.5,-621"/>
<text text-anchor="start" x="444.5" y="-627.2" font-family="Helvetica,sans-Serif" font-size="11.00">46,322 rows</text>
<polygon fill="#ffffff" stroke="transparent" points="507.5,-621 507.5,-639 535.5,-639 535.5,-621 507.5,-621"/>
<polygon fill="none" stroke="black" points="507.5,-621 507.5,-639 535.5,-639 535.5,-621 507.5,-621"/>
<text text-anchor="start" x="510.5" y="-627.2" font-family="Helvetica,sans-Serif" font-size="11.00">17 &gt;</text>
</a>
</g>
</g>
<!-- formtaxa&#45;&gt;taxa -->
<g id="edge5" class="edge">
<title>formtaxa:w&#45;&gt;taxa:e</title>
<path fill="none" stroke="black" d="M633.34,-686.32C593.33,-675.44 583.96,-642.59 536.5,-648"/>
<polygon fill="black" stroke="black" points="639.64,-687.51 646.83,-692.54 643.57,-688.26 647.5,-689 647.5,-689 647.5,-689 643.57,-688.26 648.17,-685.46 639.64,-687.51 639.64,-687.51"/>
<ellipse fill="none" stroke="black" cx="636.5" cy="-686.91" rx="3.2" ry="3.2"/>
</g>
<!-- formtaxa&#45;&gt;taxa -->
<g id="edge7" class="edge">
<title>formtaxa:w&#45;&gt;taxa:e</title>
<path fill="none" stroke="black" d="M633.08,-689.74C593.29,-688.17 583.85,-654.3 536.5,-648"/>
<polygon fill="black" stroke="black" points="639.51,-689.41 647.69,-692.6 643.51,-689.21 647.5,-689 647.5,-689 647.5,-689 643.51,-689.21 647.31,-685.4 639.51,-689.41 639.51,-689.41"/>
<ellipse fill="none" stroke="black" cx="636.31" cy="-689.58" rx="3.2" ry="3.2"/>
</g>
<!-- taxa&#45;&gt;publications -->
<g id="edge17" class="edge">
<title>taxa:w&#45;&gt;publications:e</title>
<path fill="none" stroke="black" d="M404.03,-647.13C368.02,-642.62 356.32,-622 313.5,-622"/>
<polygon fill="black" stroke="black" points="410.51,-647.52 418.29,-651.59 414.51,-647.76 418.5,-648 418.5,-648 418.5,-648 414.51,-647.76 418.71,-644.41 410.51,-647.52 410.51,-647.52"/>
<ellipse fill="none" stroke="black" cx="407.32" cy="-647.33" rx="3.2" ry="3.2"/>
</g>
<!-- geochronpublications -->
<g id="node8" class="node">
<title>geochronpublications</title>
<g id="a_node8"><a xlink:href="../../tables/geochronpublications.html" xlink:title="geochronpublications" target="_top">
<polygon fill="#ffffff" stroke="transparent" points="398,-515 398,-573 557,-573 557,-515 398,-515"/>
<polygon fill="#f5f5f5" stroke="transparent" points="398.5,-551 398.5,-573 557.5,-573 557.5,-551 398.5,-551"/>
<polygon fill="none" stroke="black" points="398.5,-551 398.5,-573 557.5,-573 557.5,-551 398.5,-551"/>
<text text-anchor="start" x="403.5" y="-560.2" font-family="Helvetica,sans-Serif" font-weight="bold" font-size="11.00">geochronpublications</text>
<text text-anchor="start" x="522.5" y="-559.2" font-family="Helvetica,sans-Serif" font-size="11.00">[table]</text>
<polygon fill="none" stroke="black" points="398.5,-533 398.5,-551 557.5,-551 557.5,-533 398.5,-533"/>
<text text-anchor="start" x="401.5" y="-539.2" font-family="Helvetica,sans-Serif" font-size="11.00">...</text>
<polygon fill="#ffffff" stroke="transparent" points="398.5,-515 398.5,-533 449.5,-533 449.5,-515 398.5,-515"/>
<polygon fill="none" stroke="black" points="398.5,-515 398.5,-533 449.5,-533 449.5,-515 398.5,-515"/>
<text text-anchor="start" x="401.5" y="-521.2" font-family="Helvetica,sans-Serif" font-size="11.00">&lt; 2</text>
<polygon fill="#ffffff" stroke="transparent" points="449.5,-515 449.5,-533 529.5,-533 529.5,-515 449.5,-515"/>
<polygon fill="none" stroke="black" points="449.5,-515 449.5,-533 529.5,-533 529.5,-515 449.5,-515"/>
<text text-anchor="start" x="466.5" y="-521.2" font-family="Helvetica,sans-Serif" font-size="11.00">36,183 rows</text>
<polygon fill="#ffffff" stroke="transparent" points="529.5,-515 529.5,-533 557.5,-533 557.5,-515 529.5,-515"/>
<polygon fill="none" stroke="black" points="529.5,-515 529.5,-533 557.5,-533 557.5,-515 529.5,-515"/>
<text text-anchor="start" x="547.5" y="-521.2" font-family="Helvetica,sans-Serif" font-size="11.00"> &#160;</text>
</a>
</g>
</g>
<!-- geochronpublications&#45;&gt;publications -->
<g id="edge8" class="edge">
<title>geochronpublications:w&#45;&gt;publications:e</title>
<path fill="none" stroke="black" d="M384.01,-548.01C361.01,-566.62 334.95,-622 313.5,-622"/>
<polygon fill="black" stroke="black" points="390.19,-545.26 398.97,-545.29 393.85,-543.63 397.5,-542 397.5,-542 397.5,-542 393.85,-543.63 396.03,-538.71 390.19,-545.26 390.19,-545.26"/>
<ellipse fill="none" stroke="black" cx="387.27" cy="-546.56" rx="3.2" ry="3.2"/>
</g>
<!-- publicationauthors -->
<g id="node9" class="node">
<title>publicationauthors</title>
<g id="a_node9"><a xlink:href="../../tables/publicationauthors.html" xlink:title="publicationauthors" target="_top">
<polygon fill="#ffffff" stroke="transparent" points="405.5,-436 405.5,-494 549.5,-494 549.5,-436 405.5,-436"/>
<polygon fill="#f5f5f5" stroke="transparent" points="405.5,-472 405.5,-494 549.5,-494 549.5,-472 405.5,-472"/>
<polygon fill="none" stroke="black" points="405.5,-472 405.5,-494 549.5,-494 549.5,-472 405.5,-472"/>
<text text-anchor="start" x="410.5" y="-481.2" font-family="Helvetica,sans-Serif" font-weight="bold" font-size="11.00">publicationauthors</text>
<text text-anchor="start" x="514.5" y="-480.2" font-family="Helvetica,sans-Serif" font-size="11.00">[table]</text>
<polygon fill="none" stroke="black" points="405.5,-454 405.5,-472 549.5,-472 549.5,-454 405.5,-454"/>
<text text-anchor="start" x="408.5" y="-460.2" font-family="Helvetica,sans-Serif" font-size="11.00">...</text>
<polygon fill="#ffffff" stroke="transparent" points="405.5,-436 405.5,-454 448.5,-454 448.5,-436 405.5,-436"/>
<polygon fill="none" stroke="black" points="405.5,-436 405.5,-454 448.5,-454 448.5,-436 405.5,-436"/>
<text text-anchor="start" x="408.5" y="-442.2" font-family="Helvetica,sans-Serif" font-size="11.00">&lt; 2</text>
<polygon fill="#ffffff" stroke="transparent" points="448.5,-436 448.5,-454 525.5,-454 525.5,-436 448.5,-436"/>
<polygon fill="none" stroke="black" points="448.5,-436 448.5,-454 525.5,-454 525.5,-436 448.5,-436"/>
<text text-anchor="start" x="462.5" y="-442.2" font-family="Helvetica,sans-Serif" font-size="11.00">30,625 rows</text>
<polygon fill="#ffffff" stroke="transparent" points="525.5,-436 525.5,-454 549.5,-454 549.5,-436 525.5,-436"/>
<polygon fill="none" stroke="black" points="525.5,-436 525.5,-454 549.5,-454 549.5,-436 525.5,-436"/>
<text text-anchor="start" x="539.5" y="-442.2" font-family="Helvetica,sans-Serif" font-size="11.00"> &#160;</text>
</a>
</g>
</g>
<!-- publicationauthors&#45;&gt;publications -->
<g id="edge9" class="edge">
<title>publicationauthors:w&#45;&gt;publications:e</title>
<path fill="none" stroke="black" d="M389.72,-464.95C372.51,-470.17 366.54,-485.47 353,-505 321.73,-550.11 368.38,-622 313.5,-622"/>
<polygon fill="black" stroke="black" points="396.57,-464.04 404.97,-466.57 400.53,-463.52 404.5,-463 404.5,-463 404.5,-463 400.53,-463.52 404.03,-459.43 396.57,-464.04 396.57,-464.04"/>
<ellipse fill="none" stroke="black" cx="393.4" cy="-464.46" rx="3.2" ry="3.2"/>
</g>
<!-- publicationeditors -->
<g id="node10" class="node">
<title>publicationeditors</title>
<g id="a_node10"><a xlink:href="../../tables/publicationeditors.html" xlink:title="publicationeditors" target="_top">
<polygon fill="#ffffff" stroke="transparent" points="407.5,-357 407.5,-415 547.5,-415 547.5,-357 407.5,-357"/>
<polygon fill="#f5f5f5" stroke="transparent" points="407.5,-393 407.5,-415 547.5,-415 547.5,-393 407.5,-393"/>
<polygon fill="none" stroke="black" points="407.5,-393 407.5,-415 547.5,-415 547.5,-393 407.5,-393"/>
<text text-anchor="start" x="412.5" y="-402.2" font-family="Helvetica,sans-Serif" font-weight="bold" font-size="11.00">publicationeditors</text>
<text text-anchor="start" x="512.5" y="-401.2" font-family="Helvetica,sans-Serif" font-size="11.00">[table]</text>
<polygon fill="none" stroke="black" points="407.5,-375 407.5,-393 547.5,-393 547.5,-375 407.5,-375"/>
<text text-anchor="start" x="410.5" y="-381.2" font-family="Helvetica,sans-Serif" font-size="11.00">...</text>
<polygon fill="#ffffff" stroke="transparent" points="407.5,-357 407.5,-375 451.5,-375 451.5,-357 407.5,-357"/>
<polygon fill="none" stroke="black" points="407.5,-357 407.5,-375 451.5,-375 451.5,-357 407.5,-357"/>
<text text-anchor="start" x="410.5" y="-363.2" font-family="Helvetica,sans-Serif" font-size="11.00">&lt; 1</text>
<polygon fill="#ffffff" stroke="transparent" points="451.5,-357 451.5,-375 522.5,-375 522.5,-357 451.5,-357"/>
<polygon fill="none" stroke="black" points="451.5,-357 451.5,-375 522.5,-375 522.5,-357 451.5,-357"/>
<text text-anchor="start" x="465.5" y="-363.2" font-family="Helvetica,sans-Serif" font-size="11.00">1,466 rows</text>
<polygon fill="#ffffff" stroke="transparent" points="522.5,-357 522.5,-375 547.5,-375 547.5,-357 522.5,-357"/>
<polygon fill="none" stroke="black" points="522.5,-357 522.5,-375 547.5,-375 547.5,-357 522.5,-357"/>
<text text-anchor="start" x="537.5" y="-363.2" font-family="Helvetica,sans-Serif" font-size="11.00"> &#160;</text>
</a>
</g>
</g>
<!-- publicationeditors&#45;&gt;publications -->
<g id="edge10" class="edge">
<title>publicationeditors:w&#45;&gt;publications:e</title>
<path fill="none" stroke="black" d="M391.96,-385.6C373.26,-390.29 365.94,-404.99 353,-426 306.4,-501.66 402.36,-622 313.5,-622"/>
<polygon fill="black" stroke="black" points="398.55,-384.88 406.89,-387.58 402.52,-384.44 406.5,-384 406.5,-384 406.5,-384 402.52,-384.44 406.11,-380.42 398.55,-384.88 398.55,-384.88"/>
<ellipse fill="none" stroke="black" cx="395.37" cy="-385.23" rx="3.2" ry="3.2"/>
</g>
<!-- publicationtranslators -->
<g id="node12" class="node">
<title>publicationtranslators</title>
<g id="a_node12"><a xlink:href="../../tables/publicationtranslators.html" xlink:title="publicationtranslators" target="_top">
<polygon fill="#ffffff" stroke="transparent" points="361,-116 361,-336 594,-336 594,-116 361,-116"/>
<polygon fill="#f5f5f5" stroke="transparent" points="363.5,-312 363.5,-334 592.5,-334 592.5,-312 363.5,-312"/>
<polygon fill="none" stroke="black" points="363.5,-312 363.5,-334 592.5,-334 592.5,-312 363.5,-312"/>
<text text-anchor="start" x="368.5" y="-321.2" font-family="Helvetica,sans-Serif" font-weight="bold" font-size="11.00">publicationtranslators</text>
<text text-anchor="start" x="557.5" y="-320.2" font-family="Helvetica,sans-Serif" font-size="11.00">[table]</text>
<polygon fill="none" stroke="black" points="363.5,-290 363.5,-312 518.5,-312 518.5,-290 363.5,-290"/>
<image xlink:href="../../images/primaryKeys.png" width="11px" height="12px" preserveAspectRatio="xMinYMin meet" x="368.5" y="-307"/>
<text text-anchor="start" x="383.5" y="-298.2" font-family="Helvetica,sans-Serif" font-size="11.00">translatorid</text>
<polygon fill="none" stroke="black" points="518.5,-290 518.5,-312 592.5,-312 592.5,-290 518.5,-290"/>
<text text-anchor="start" x="521.5" y="-298.2" font-family="Helvetica,sans-Serif" font-size="11.00">serial[10]</text>
<polygon fill="none" stroke="black" points="363.5,-268 363.5,-290 518.5,-290 518.5,-268 363.5,-268"/>
<image xlink:href="../../images/foreignKeys.png" width="11px" height="12px" preserveAspectRatio="xMinYMin meet" x="368.5" y="-285"/>
<text text-anchor="start" x="383.5" y="-276.2" font-family="Helvetica,sans-Serif" font-size="11.00">publicationid</text>
<polygon fill="none" stroke="black" points="518.5,-268 518.5,-290 592.5,-290 592.5,-268 518.5,-268"/>
<text text-anchor="start" x="521.5" y="-276.2" font-family="Helvetica,sans-Serif" font-size="11.00">int4[10]</text>
<polygon fill="none" stroke="black" points="363.5,-246 363.5,-268 518.5,-268 518.5,-246 363.5,-246"/>
<text text-anchor="start" x="383.5" y="-254.2" font-family="Helvetica,sans-Serif" font-size="11.00">translatororder</text>
<polygon fill="none" stroke="black" points="518.5,-246 518.5,-268 592.5,-268 592.5,-246 518.5,-246"/>
<text text-anchor="start" x="521.5" y="-254.2" font-family="Helvetica,sans-Serif" font-size="11.00">int4[10]</text>
<polygon fill="none" stroke="black" points="363.5,-224 363.5,-246 518.5,-246 518.5,-224 363.5,-224"/>
<text text-anchor="start" x="383.5" y="-232.2" font-family="Helvetica,sans-Serif" font-size="11.00">familyname</text>
<polygon fill="none" stroke="black" points="518.5,-224 518.5,-246 592.5,-246 592.5,-224 518.5,-224"/>
<text text-anchor="start" x="521.5" y="-232.2" font-family="Helvetica,sans-Serif" font-size="11.00">varchar[64]</text>
<polygon fill="none" stroke="black" points="363.5,-202 363.5,-224 518.5,-224 518.5,-202 363.5,-202"/>
<text text-anchor="start" x="383.5" y="-210.2" font-family="Helvetica,sans-Serif" font-size="11.00">initials</text>
<polygon fill="none" stroke="black" points="518.5,-202 518.5,-224 592.5,-224 592.5,-202 518.5,-202"/>
<text text-anchor="start" x="521.5" y="-210.2" font-family="Helvetica,sans-Serif" font-size="11.00">varchar[8]</text>
<polygon fill="none" stroke="black" points="363.5,-180 363.5,-202 518.5,-202 518.5,-180 363.5,-180"/>
<text text-anchor="start" x="383.5" y="-188.2" font-family="Helvetica,sans-Serif" font-size="11.00">suffix</text>
<polygon fill="none" stroke="black" points="518.5,-180 518.5,-202 592.5,-202 592.5,-180 518.5,-180"/>
<text text-anchor="start" x="521.5" y="-188.2" font-family="Helvetica,sans-Serif" font-size="11.00">varchar[8]</text>
<polygon fill="none" stroke="black" points="363.5,-158 363.5,-180 518.5,-180 518.5,-158 363.5,-158"/>
<text text-anchor="start" x="383.5" y="-166.2" font-family="Helvetica,sans-Serif" font-size="11.00">recdatecreated</text>
<polygon fill="none" stroke="black" points="518.5,-158 518.5,-180 592.5,-180 592.5,-158 518.5,-158"/>
<text text-anchor="start" x="521.5" y="-166.2" font-family="Helvetica,sans-Serif" font-size="11.00">timestamp[22]</text>
<polygon fill="none" stroke="black" points="363.5,-136 363.5,-158 518.5,-158 518.5,-136 363.5,-136"/>
<text text-anchor="start" x="383.5" y="-144.2" font-family="Helvetica,sans-Serif" font-size="11.00">recdatemodified</text>
<polygon fill="none" stroke="black" points="518.5,-136 518.5,-158 592.5,-158 592.5,-136 518.5,-136"/>
<text text-anchor="start" x="521.5" y="-144.2" font-family="Helvetica,sans-Serif" font-size="11.00">timestamp[22]</text>
<polygon fill="#ffffff" stroke="transparent" points="363.5,-118 363.5,-136 432.5,-136 432.5,-118 363.5,-118"/>
<polygon fill="none" stroke="black" points="363.5,-118 363.5,-136 432.5,-136 432.5,-118 363.5,-118"/>
<text text-anchor="start" x="366.5" y="-124.2" font-family="Helvetica,sans-Serif" font-size="11.00">&lt; 1</text>
<polygon fill="#ffffff" stroke="transparent" points="432.5,-118 432.5,-136 518.5,-136 518.5,-118 432.5,-118"/>
<polygon fill="none" stroke="black" points="432.5,-118 432.5,-136 518.5,-136 518.5,-118 432.5,-118"/>
<text text-anchor="start" x="482.5" y="-124.2" font-family="Helvetica,sans-Serif" font-size="11.00">4 rows</text>
<polygon fill="#ffffff" stroke="transparent" points="518.5,-118 518.5,-136 592.5,-136 592.5,-118 518.5,-118"/>
<polygon fill="none" stroke="black" points="518.5,-118 518.5,-136 592.5,-136 592.5,-118 518.5,-118"/>
<text text-anchor="start" x="573.5" y="-124.2" font-family="Helvetica,sans-Serif" font-size="11.00">0 &gt;</text>
<polygon fill="none" stroke="black" stroke-width="2" points="362,-117 362,-335 593,-335 593,-117 362,-117"/>
</a>
</g>
</g>
<!-- publicationtranslators&#45;&gt;publications -->
<g id="edge12" class="edge">
<title>publicationtranslators:w&#45;&gt;publications:e</title>
<path fill="none" stroke="black" d="M348.83,-283.85C299.37,-325.54 385.08,-622 313.5,-622"/>
<polygon fill="black" stroke="black" points="354.96,-281.67 363.7,-282.39 358.73,-280.34 362.5,-279 362.5,-279 362.5,-279 358.73,-280.34 361.3,-275.61 354.96,-281.67 354.96,-281.67"/>
<ellipse fill="none" stroke="black" cx="351.94" cy="-282.74" rx="3.2" ry="3.2"/>
</g>
<!-- relativeagepublications -->
<g id="node13" class="node">
<title>relativeagepublications</title>
<g id="a_node13"><a xlink:href="../../tables/relativeagepublications.html" xlink:title="relativeagepublications" target="_top">
<polygon fill="#ffffff" stroke="transparent" points="394.5,-37 394.5,-95 560.5,-95 560.5,-37 394.5,-37"/>
<polygon fill="#f5f5f5" stroke="transparent" points="394.5,-73 394.5,-95 560.5,-95 560.5,-73 394.5,-73"/>
<polygon fill="none" stroke="black" points="394.5,-73 394.5,-95 560.5,-95 560.5,-73 394.5,-73"/>
<text text-anchor="start" x="399.5" y="-82.2" font-family="Helvetica,sans-Serif" font-weight="bold" font-size="11.00">relativeagepublications</text>
<text text-anchor="start" x="525.5" y="-81.2" font-family="Helvetica,sans-Serif" font-size="11.00">[table]</text>
<polygon fill="none" stroke="black" points="394.5,-55 394.5,-73 560.5,-73 560.5,-55 394.5,-55"/>
<text text-anchor="start" x="397.5" y="-61.2" font-family="Helvetica,sans-Serif" font-size="11.00">...</text>
<polygon fill="#ffffff" stroke="transparent" points="394.5,-37 394.5,-55 456.5,-55 456.5,-37 394.5,-37"/>
<polygon fill="none" stroke="black" points="394.5,-37 394.5,-55 456.5,-55 456.5,-37 394.5,-37"/>
<text text-anchor="start" x="397.5" y="-43.2" font-family="Helvetica,sans-Serif" font-size="11.00">&lt; 2</text>
<polygon fill="#ffffff" stroke="transparent" points="456.5,-37 456.5,-55 527.5,-55 527.5,-37 456.5,-37"/>
<polygon fill="none" stroke="black" points="456.5,-37 456.5,-55 527.5,-55 527.5,-37 456.5,-37"/>
<text text-anchor="start" x="479.5" y="-43.2" font-family="Helvetica,sans-Serif" font-size="11.00">115 rows</text>
<polygon fill="#ffffff" stroke="transparent" points="527.5,-37 527.5,-55 560.5,-55 560.5,-37 527.5,-37"/>
<polygon fill="none" stroke="black" points="527.5,-37 527.5,-55 560.5,-55 560.5,-37 527.5,-37"/>
<text text-anchor="start" x="550.5" y="-43.2" font-family="Helvetica,sans-Serif" font-size="11.00"> &#160;</text>
</a>
</g>
</g>
<!-- relativeagepublications&#45;&gt;publications -->
<g id="edge13" class="edge">
<title>relativeagepublications:w&#45;&gt;publications:e</title>
<path fill="none" stroke="black" d="M378.93,-66.67C365.44,-72.58 361.21,-87.7 353,-106 329.46,-158.46 371,-622 313.5,-622"/>
<polygon fill="black" stroke="black" points="385.63,-65.44 394.15,-67.54 389.57,-64.72 393.5,-64 393.5,-64 393.5,-64 389.57,-64.72 392.85,-60.46 385.63,-65.44 385.63,-65.44"/>
<ellipse fill="none" stroke="black" cx="382.48" cy="-66.02" rx="3.2" ry="3.2"/>
</g>
<!-- synonymy -->
<g id="node14" class="node">
<title>synonymy</title>
<g id="a_node14"><a xlink:href="../../tables/synonymy.html" xlink:title="synonymy" target="_top">
<polygon fill="#ffffff" stroke="transparent" points="643,-583 643,-641 744,-641 744,-583 643,-583"/>
<polygon fill="#f5f5f5" stroke="transparent" points="643.5,-619 643.5,-641 744.5,-641 744.5,-619 643.5,-619"/>
<polygon fill="none" stroke="black" points="643.5,-619 643.5,-641 744.5,-641 744.5,-619 643.5,-619"/>
<text text-anchor="start" x="648.5" y="-628.2" font-family="Helvetica,sans-Serif" font-weight="bold" font-size="11.00">synonymy</text>
<text text-anchor="start" x="709.5" y="-627.2" font-family="Helvetica,sans-Serif" font-size="11.00">[table]</text>
<polygon fill="none" stroke="black" points="643.5,-601 643.5,-619 744.5,-619 744.5,-601 643.5,-601"/>
<text text-anchor="start" x="646.5" y="-607.2" font-family="Helvetica,sans-Serif" font-size="11.00">...</text>
<polygon fill="#ffffff" stroke="transparent" points="643.5,-583 643.5,-601 665.5,-601 665.5,-583 643.5,-583"/>
<polygon fill="none" stroke="black" points="643.5,-583 643.5,-601 665.5,-601 665.5,-583 643.5,-583"/>
<text text-anchor="start" x="646.5" y="-589.2" font-family="Helvetica,sans-Serif" font-size="11.00">&lt; 5</text>
<polygon fill="#ffffff" stroke="transparent" points="665.5,-583 665.5,-601 731.5,-601 731.5,-583 665.5,-583"/>
<polygon fill="none" stroke="black" points="665.5,-583 665.5,-601 731.5,-601 731.5,-583 665.5,-583"/>
<text text-anchor="start" x="668.5" y="-589.2" font-family="Helvetica,sans-Serif" font-size="11.00">37,992 rows</text>
<polygon fill="#ffffff" stroke="transparent" points="731.5,-583 731.5,-601 744.5,-601 744.5,-583 731.5,-583"/>
<polygon fill="none" stroke="black" points="731.5,-583 731.5,-601 744.5,-601 744.5,-583 731.5,-583"/>
<text text-anchor="start" x="734.5" y="-589.2" font-family="Helvetica,sans-Serif" font-size="11.00"> &#160;</text>
</a>
</g>
</g>
<!-- synonymy&#45;&gt;publications -->
<g id="edge14" class="edge">
<title>synonymy:w&#45;&gt;publications:e</title>
<path fill="none" stroke="black" d="M627.85,-609.93C511.08,-608.75 475.47,-594.05 353,-611 334.95,-613.5 331.72,-622 313.5,-622"/>
<polygon fill="black" stroke="black" points="634.5,-609.96 642.48,-613.6 638.5,-609.98 642.5,-610 642.5,-610 642.5,-610 638.5,-609.98 642.52,-606.4 634.5,-609.96 634.5,-609.96"/>
<ellipse fill="none" stroke="black" cx="631.3" cy="-609.94" rx="3.2" ry="3.2"/>
</g>
<!-- synonymy&#45;&gt;taxa -->
<g id="edge15" class="edge">
<title>synonymy:w&#45;&gt;taxa:e</title>
<path fill="none" stroke="black" d="M628.03,-609.48C590.72,-611.66 581.27,-642.63 536.5,-648"/>
<polygon fill="black" stroke="black" points="634.51,-609.71 642.37,-613.6 638.5,-609.86 642.5,-610 642.5,-610 642.5,-610 638.5,-609.86 642.63,-606.4 634.51,-609.71 634.51,-609.71"/>
<ellipse fill="none" stroke="black" cx="631.31" cy="-609.6" rx="3.2" ry="3.2"/>
</g>
<!-- synonymy&#45;&gt;taxa -->
<g id="edge16" class="edge">
<title>synonymy:w&#45;&gt;taxa:e</title>
<path fill="none" stroke="black" d="M628.03,-613.16C590.72,-624.52 581.27,-654.26 536.5,-648"/>
<polygon fill="black" stroke="black" points="634.68,-611.71 643.27,-613.52 638.59,-610.85 642.5,-610 642.5,-610 642.5,-610 638.59,-610.85 641.73,-606.48 634.68,-611.71 634.68,-611.71"/>
<ellipse fill="none" stroke="black" cx="631.56" cy="-612.39" rx="3.2" ry="3.2"/>
</g>
</g>
</svg>
