<?xml version="1.0" encoding="UTF-8" standalone="no"?>
<!DOCTYPE svg PUBLIC "-//W3C//DTD SVG 1.1//EN"
 "http://www.w3.org/Graphics/SVG/1.1/DTD/svg11.dtd">
<!-- Generated by graphviz version 2.43.0 (0)
 -->
<!-- Title: twoDegreesRelationshipsDiagram Pages: 1 -->
<svg width="736pt" height="1034pt"
 viewBox="0.00 0.00 736.00 1034.00" xmlns="http://www.w3.org/2000/svg" xmlns:xlink="http://www.w3.org/1999/xlink">
<g id="graph0" class="graph" transform="scale(1 1) rotate(0) translate(4 1030)">
<title>twoDegreesRelationshipsDiagram</title>
<polygon fill="#ffffff" stroke="transparent" points="-4,4 -4,-1030 732,-1030 732,4 -4,4"/>
<text text-anchor="middle" x="71.5" y="-7.2" font-family="Helvetica,sans-Serif" font-size="11.00">Generated by SchemaSpy</text>
<!-- calibrationcurves -->
<g id="node1" class="node">
<title>calibrationcurves</title>
<g id="a_node1"><a xlink:href="../../tables/calibrationcurves.html" xlink:title="calibrationcurves" target="_top">
<polygon fill="#ffffff" stroke="transparent" points="398,-964 398,-1022 533,-1022 533,-964 398,-964"/>
<polygon fill="#f5f5f5" stroke="transparent" points="398.5,-1000 398.5,-1022 533.5,-1022 533.5,-1000 398.5,-1000"/>
<polygon fill="none" stroke="black" points="398.5,-1000 398.5,-1022 533.5,-1022 533.5,-1000 398.5,-1000"/>
<text text-anchor="start" x="403.5" y="-1009.2" font-family="Helvetica,sans-Serif" font-weight="bold" font-size="11.00">calibrationcurves</text>
<text text-anchor="start" x="498.5" y="-1008.2" font-family="Helvetica,sans-Serif" font-size="11.00">[table]</text>
<polygon fill="none" stroke="black" points="398.5,-982 398.5,-1000 533.5,-1000 533.5,-982 398.5,-982"/>
<text text-anchor="start" x="401.5" y="-988.2" font-family="Helvetica,sans-Serif" font-size="11.00">...</text>
<polygon fill="#ffffff" stroke="transparent" points="398.5,-964 398.5,-982 443.5,-982 443.5,-964 398.5,-964"/>
<polygon fill="none" stroke="black" points="398.5,-964 398.5,-982 443.5,-982 443.5,-964 398.5,-964"/>
<text text-anchor="start" x="401.5" y="-970.2" font-family="Helvetica,sans-Serif" font-size="11.00">&lt; 1</text>
<polygon fill="#ffffff" stroke="transparent" points="443.5,-964 443.5,-982 499.5,-982 499.5,-964 443.5,-964"/>
<polygon fill="none" stroke="black" points="443.5,-964 443.5,-982 499.5,-982 499.5,-964 443.5,-964"/>
<text text-anchor="start" x="457.5" y="-970.2" font-family="Helvetica,sans-Serif" font-size="11.00">15 rows</text>
<polygon fill="#ffffff" stroke="transparent" points="499.5,-964 499.5,-982 533.5,-982 533.5,-964 499.5,-964"/>
<polygon fill="none" stroke="black" points="499.5,-964 499.5,-982 533.5,-982 533.5,-964 499.5,-964"/>
<text text-anchor="start" x="514.5" y="-970.2" font-family="Helvetica,sans-Serif" font-size="11.00">2 &gt;</text>
</a>
</g>
</g>
<!-- publications -->
<g id="node2" class="node">
<title>publications</title>
<g id="a_node2"><a xlink:href="../../tables/publications.html" xlink:title="publications" target="_top">
<polygon fill="#ffffff" stroke="transparent" points="189,-553 189,-655 312,-655 312,-553 189,-553"/>
<polygon fill="#f5f5f5" stroke="transparent" points="189.5,-633 189.5,-655 312.5,-655 312.5,-633 189.5,-633"/>
<polygon fill="none" stroke="black" points="189.5,-633 189.5,-655 312.5,-655 312.5,-633 189.5,-633"/>
<text text-anchor="start" x="194.5" y="-642.2" font-family="Helvetica,sans-Serif" font-weight="bold" font-size="11.00">publications</text>
<text text-anchor="start" x="277.5" y="-641.2" font-family="Helvetica,sans-Serif" font-size="11.00">[table]</text>
<polygon fill="none" stroke="black" points="189.5,-611 189.5,-633 312.5,-633 312.5,-611 189.5,-611"/>
<image xlink:href="../../images/primaryKeys.png" width="11px" height="12px" preserveAspectRatio="xMinYMin meet" x="194.5" y="-628"/>
<text text-anchor="start" x="209.5" y="-619.2" font-family="Helvetica,sans-Serif" font-size="11.00">publicationid</text>
<polygon fill="none" stroke="black" points="189.5,-589 189.5,-611 312.5,-611 312.5,-589 189.5,-589"/>
<image xlink:href="../../images/foreignKeys.png" width="11px" height="12px" preserveAspectRatio="xMinYMin meet" x="194.5" y="-606"/>
<text text-anchor="start" x="209.5" y="-597.2" font-family="Helvetica,sans-Serif" font-size="11.00">pubtypeid</text>
<polygon fill="none" stroke="black" points="189.5,-571 189.5,-589 312.5,-589 312.5,-571 189.5,-571"/>
<text text-anchor="start" x="192.5" y="-577.2" font-family="Helvetica,sans-Serif" font-size="11.00">...</text>
<polygon fill="#ffffff" stroke="transparent" points="189.5,-553 189.5,-571 214.5,-571 214.5,-553 189.5,-553"/>
<polygon fill="none" stroke="black" points="189.5,-553 189.5,-571 214.5,-571 214.5,-553 189.5,-553"/>
<text text-anchor="start" x="192.5" y="-559.2" font-family="Helvetica,sans-Serif" font-size="11.00">&lt; 1</text>
<polygon fill="#ffffff" stroke="transparent" points="214.5,-553 214.5,-571 282.5,-571 282.5,-553 214.5,-553"/>
<polygon fill="none" stroke="black" points="214.5,-553 214.5,-571 282.5,-571 282.5,-553 214.5,-553"/>
<text text-anchor="start" x="219.5" y="-559.2" font-family="Helvetica,sans-Serif" font-size="11.00">13,725 rows</text>
<polygon fill="#ffffff" stroke="transparent" points="282.5,-553 282.5,-571 312.5,-571 312.5,-553 282.5,-553"/>
<polygon fill="none" stroke="black" points="282.5,-553 282.5,-571 312.5,-571 312.5,-553 282.5,-553"/>
<text text-anchor="start" x="287.5" y="-559.2" font-family="Helvetica,sans-Serif" font-size="11.00">12 &gt;</text>
</a>
</g>
</g>
<!-- calibrationcurves&#45;&gt;publications -->
<g id="edge1" class="edge">
<title>calibrationcurves:w&#45;&gt;publications:e</title>
<path fill="none" stroke="black" d="M383.12,-989C368.66,-984.31 362.59,-971.66 353,-954 317.52,-888.72 387.8,-622 313.5,-622"/>
<polygon fill="black" stroke="black" points="389.58,-989.9 397,-994.57 393.54,-990.45 397.5,-991 397.5,-991 397.5,-991 393.54,-990.45 398,-987.43 389.58,-989.9 389.58,-989.9"/>
<ellipse fill="none" stroke="black" cx="386.41" cy="-989.46" rx="3.2" ry="3.2"/>
</g>
<!-- publicationtypes -->
<g id="node11" class="node">
<title>publicationtypes</title>
<g id="a_node11"><a xlink:href="../../tables/publicationtypes.html" xlink:title="publicationtypes" target="_top">
<polygon fill="#ffffff" stroke="transparent" points="8,-573 8,-631 140,-631 140,-573 8,-573"/>
<polygon fill="#f5f5f5" stroke="transparent" points="8,-609 8,-631 140,-631 140,-609 8,-609"/>
<polygon fill="none" stroke="black" points="8,-609 8,-631 140,-631 140,-609 8,-609"/>
<text text-anchor="start" x="13" y="-618.2" font-family="Helvetica,sans-Serif" font-weight="bold" font-size="11.00">publicationtypes</text>
<text text-anchor="start" x="105" y="-617.2" font-family="Helvetica,sans-Serif" font-size="11.00">[table]</text>
<polygon fill="none" stroke="black" points="8,-591 8,-609 140,-609 140,-591 8,-591"/>
<text text-anchor="start" x="11" y="-597.2" font-family="Helvetica,sans-Serif" font-size="11.00">...</text>
<polygon fill="#ffffff" stroke="transparent" points="8,-573 8,-591 47,-591 47,-573 8,-573"/>
<polygon fill="none" stroke="black" points="8,-573 8,-591 47,-591 47,-573 8,-573"/>
<text text-anchor="start" x="11" y="-579.2" font-family="Helvetica,sans-Serif" font-size="11.00"> &#160;</text>
<polygon fill="#ffffff" stroke="transparent" points="47,-573 47,-591 105,-591 105,-573 47,-573"/>
<polygon fill="none" stroke="black" points="47,-573 47,-591 105,-591 105,-573 47,-573"/>
<text text-anchor="start" x="63" y="-579.2" font-family="Helvetica,sans-Serif" font-size="11.00">13 rows</text>
<polygon fill="#ffffff" stroke="transparent" points="105,-573 105,-591 140,-591 140,-573 105,-573"/>
<polygon fill="none" stroke="black" points="105,-573 105,-591 140,-591 140,-573 105,-573"/>
<text text-anchor="start" x="121" y="-579.2" font-family="Helvetica,sans-Serif" font-size="11.00">1 &gt;</text>
</a>
</g>
</g>
<!-- publications&#45;&gt;publicationtypes -->
<g id="edge11" class="edge">
<title>publications:w&#45;&gt;publicationtypes:e</title>
<path fill="none" stroke="black" d="M174.09,-600C163.32,-600 156.34,-600 141,-600"/>
<polygon fill="black" stroke="black" points="180.5,-600 188.5,-603.6 184.5,-600 188.5,-600 188.5,-600 188.5,-600 184.5,-600 188.5,-596.4 180.5,-600 180.5,-600"/>
<ellipse fill="none" stroke="black" cx="177.3" cy="-600" rx="3.2" ry="3.2"/>
</g>
<!-- datasetpublications -->
<g id="node3" class="node">
<title>datasetpublications</title>
<g id="a_node3"><a xlink:href="../../tables/datasetpublications.html" xlink:title="datasetpublications" target="_top">
<polygon fill="#ffffff" stroke="transparent" points="392,-885 392,-943 539,-943 539,-885 392,-885"/>
<polygon fill="#f5f5f5" stroke="transparent" points="392.5,-921 392.5,-943 539.5,-943 539.5,-921 392.5,-921"/>
<polygon fill="none" stroke="black" points="392.5,-921 392.5,-943 539.5,-943 539.5,-921 392.5,-921"/>
<text text-anchor="start" x="397.5" y="-930.2" font-family="Helvetica,sans-Serif" font-weight="bold" font-size="11.00">datasetpublications</text>
<text text-anchor="start" x="504.5" y="-929.2" font-family="Helvetica,sans-Serif" font-size="11.00">[table]</text>
<polygon fill="none" stroke="black" points="392.5,-903 392.5,-921 539.5,-921 539.5,-903 392.5,-903"/>
<text text-anchor="start" x="395.5" y="-909.2" font-family="Helvetica,sans-Serif" font-size="11.00">...</text>
<polygon fill="#ffffff" stroke="transparent" points="392.5,-885 392.5,-903 437.5,-903 437.5,-885 392.5,-885"/>
<polygon fill="none" stroke="black" points="392.5,-885 392.5,-903 437.5,-903 437.5,-885 392.5,-885"/>
<text text-anchor="start" x="395.5" y="-891.2" font-family="Helvetica,sans-Serif" font-size="11.00">&lt; 2</text>
<polygon fill="#ffffff" stroke="transparent" points="437.5,-885 437.5,-903 514.5,-903 514.5,-885 437.5,-885"/>
<polygon fill="none" stroke="black" points="437.5,-885 437.5,-903 514.5,-903 514.5,-885 437.5,-885"/>
<text text-anchor="start" x="451.5" y="-891.2" font-family="Helvetica,sans-Serif" font-size="11.00">61,382 rows</text>
<polygon fill="#ffffff" stroke="transparent" points="514.5,-885 514.5,-903 539.5,-903 539.5,-885 514.5,-885"/>
<polygon fill="none" stroke="black" points="514.5,-885 514.5,-903 539.5,-903 539.5,-885 514.5,-885"/>
<text text-anchor="start" x="529.5" y="-891.2" font-family="Helvetica,sans-Serif" font-size="11.00"> &#160;</text>
</a>
</g>
</g>
<!-- datasetpublications&#45;&gt;publications -->
<g id="edge2" class="edge">
<title>datasetpublications:w&#45;&gt;publications:e</title>
<path fill="none" stroke="black" d="M377.01,-909.18C365.42,-903.71 361.22,-890.79 353,-875 326.72,-824.53 370.4,-622 313.5,-622"/>
<polygon fill="black" stroke="black" points="383.65,-910.47 390.81,-915.53 387.57,-911.24 391.5,-912 391.5,-912 391.5,-912 387.57,-911.24 392.19,-908.47 383.65,-910.47 383.65,-910.47"/>
<ellipse fill="none" stroke="black" cx="380.51" cy="-909.86" rx="3.2" ry="3.2"/>
</g>
<!-- eventpublications -->
<g id="node4" class="node">
<title>eventpublications</title>
<g id="a_node4"><a xlink:href="../../tables/eventpublications.html" xlink:title="eventpublications" target="_top">
<polygon fill="#ffffff" stroke="transparent" points="396.5,-806 396.5,-864 534.5,-864 534.5,-806 396.5,-806"/>
<polygon fill="#f5f5f5" stroke="transparent" points="396.5,-842 396.5,-864 534.5,-864 534.5,-842 396.5,-842"/>
<polygon fill="none" stroke="black" points="396.5,-842 396.5,-864 534.5,-864 534.5,-842 396.5,-842"/>
<text text-anchor="start" x="401.5" y="-851.2" font-family="Helvetica,sans-Serif" font-weight="bold" font-size="11.00">eventpublications</text>
<text text-anchor="start" x="499.5" y="-850.2" font-family="Helvetica,sans-Serif" font-size="11.00">[table]</text>
<polygon fill="none" stroke="black" points="396.5,-824 396.5,-842 534.5,-842 534.5,-824 396.5,-824"/>
<text text-anchor="start" x="399.5" y="-830.2" font-family="Helvetica,sans-Serif" font-size="11.00">...</text>
<polygon fill="#ffffff" stroke="transparent" points="396.5,-806 396.5,-824 444.5,-824 444.5,-806 396.5,-806"/>
<polygon fill="none" stroke="black" points="396.5,-806 396.5,-824 444.5,-824 444.5,-806 396.5,-806"/>
<text text-anchor="start" x="399.5" y="-812.2" font-family="Helvetica,sans-Serif" font-size="11.00">&lt; 2</text>
<polygon fill="#ffffff" stroke="transparent" points="444.5,-806 444.5,-824 508.5,-824 508.5,-806 444.5,-806"/>
<polygon fill="none" stroke="black" points="444.5,-806 444.5,-824 508.5,-824 508.5,-806 444.5,-806"/>
<text text-anchor="start" x="460.5" y="-812.2" font-family="Helvetica,sans-Serif" font-size="11.00">378 rows</text>
<polygon fill="#ffffff" stroke="transparent" points="508.5,-806 508.5,-824 534.5,-824 534.5,-806 508.5,-806"/>
<polygon fill="none" stroke="black" points="508.5,-806 508.5,-824 534.5,-824 534.5,-806 508.5,-806"/>
<text text-anchor="start" x="524.5" y="-812.2" font-family="Helvetica,sans-Serif" font-size="11.00"> &#160;</text>
</a>
</g>
</g>
<!-- eventpublications&#45;&gt;publications -->
<g id="edge3" class="edge">
<title>eventpublications:w&#45;&gt;publications:e</title>
<path fill="none" stroke="black" d="M380.89,-830.57C367.84,-825.4 362.84,-812.46 353,-796 312.31,-727.94 392.8,-622 313.5,-622"/>
<polygon fill="black" stroke="black" points="387.61,-831.69 394.91,-836.55 391.55,-832.34 395.5,-833 395.5,-833 395.5,-833 391.55,-832.34 396.09,-829.45 387.61,-831.69 387.61,-831.69"/>
<ellipse fill="none" stroke="black" cx="384.45" cy="-831.16" rx="3.2" ry="3.2"/>
</g>
<!-- externalpublications -->
<g id="node5" class="node">
<title>externalpublications</title>
<g id="a_node5"><a xlink:href="../../tables/externalpublications.html" xlink:title="externalpublications" target="_top">
<polygon fill="#ffffff" stroke="transparent" points="390,-727 390,-785 541,-785 541,-727 390,-727"/>
<polygon fill="#f5f5f5" stroke="transparent" points="390.5,-763 390.5,-785 541.5,-785 541.5,-763 390.5,-763"/>
<polygon fill="none" stroke="black" points="390.5,-763 390.5,-785 541.5,-785 541.5,-763 390.5,-763"/>
<text text-anchor="start" x="395.5" y="-772.2" font-family="Helvetica,sans-Serif" font-weight="bold" font-size="11.00">externalpublications</text>
<text text-anchor="start" x="506.5" y="-771.2" font-family="Helvetica,sans-Serif" font-size="11.00">[table]</text>
<polygon fill="none" stroke="black" points="390.5,-745 390.5,-763 541.5,-763 541.5,-745 390.5,-745"/>
<text text-anchor="start" x="393.5" y="-751.2" font-family="Helvetica,sans-Serif" font-size="11.00">...</text>
<polygon fill="#ffffff" stroke="transparent" points="390.5,-727 390.5,-745 440.5,-745 440.5,-727 390.5,-727"/>
<polygon fill="none" stroke="black" points="390.5,-727 390.5,-745 440.5,-745 440.5,-727 390.5,-727"/>
<text text-anchor="start" x="393.5" y="-733.2" font-family="Helvetica,sans-Serif" font-size="11.00">&lt; 2</text>
<polygon fill="#ffffff" stroke="transparent" points="440.5,-727 440.5,-745 514.5,-745 514.5,-727 440.5,-727"/>
<polygon fill="none" stroke="black" points="440.5,-727 440.5,-745 514.5,-745 514.5,-727 440.5,-727"/>
<text text-anchor="start" x="457.5" y="-733.2" font-family="Helvetica,sans-Serif" font-size="11.00">1,317 rows</text>
<polygon fill="#ffffff" stroke="transparent" points="514.5,-727 514.5,-745 541.5,-745 541.5,-727 514.5,-727"/>
<polygon fill="none" stroke="black" points="514.5,-727 514.5,-745 541.5,-745 541.5,-727 514.5,-727"/>
<text text-anchor="start" x="531.5" y="-733.2" font-family="Helvetica,sans-Serif" font-size="11.00"> &#160;</text>
</a>
</g>
</g>
<!-- externalpublications&#45;&gt;publications -->
<g id="edge4" class="edge">
<title>externalpublications:w&#45;&gt;publications:e</title>
<path fill="none" stroke="black" d="M375.35,-750.49C364.73,-743.77 362.85,-728.42 353,-713 329.26,-675.84 357.59,-622 313.5,-622"/>
<polygon fill="black" stroke="black" points="381.74,-752.07 388.63,-757.49 385.62,-753.04 389.5,-754 389.5,-754 389.5,-754 385.62,-753.04 390.37,-750.51 381.74,-752.07 381.74,-752.07"/>
<ellipse fill="none" stroke="black" cx="378.63" cy="-751.3" rx="3.2" ry="3.2"/>
</g>
<!-- formtaxa -->
<g id="node6" class="node">
<title>formtaxa</title>
<g id="a_node6"><a xlink:href="../../tables/formtaxa.html" xlink:title="formtaxa" target="_top">
<polygon fill="#ffffff" stroke="transparent" points="624,-662 624,-720 715,-720 715,-662 624,-662"/>
<polygon fill="#f5f5f5" stroke="transparent" points="624.5,-698 624.5,-720 715.5,-720 715.5,-698 624.5,-698"/>
<polygon fill="none" stroke="black" points="624.5,-698 624.5,-720 715.5,-720 715.5,-698 624.5,-698"/>
<text text-anchor="start" x="629.5" y="-707.2" font-family="Helvetica,sans-Serif" font-weight="bold" font-size="11.00">formtaxa</text>
<text text-anchor="start" x="680.5" y="-706.2" font-family="Helvetica,sans-Serif" font-size="11.00">[table]</text>
<polygon fill="none" stroke="black" points="624.5,-680 624.5,-698 715.5,-698 715.5,-680 624.5,-680"/>
<text text-anchor="start" x="627.5" y="-686.2" font-family="Helvetica,sans-Serif" font-size="11.00">...</text>
<polygon fill="#ffffff" stroke="transparent" points="624.5,-662 624.5,-680 654.5,-680 654.5,-662 624.5,-662"/>
<polygon fill="none" stroke="black" points="624.5,-662 624.5,-680 654.5,-680 654.5,-662 624.5,-662"/>
<text text-anchor="start" x="627.5" y="-668.2" font-family="Helvetica,sans-Serif" font-size="11.00">&lt; 3</text>
<polygon fill="#ffffff" stroke="transparent" points="654.5,-662 654.5,-680 697.5,-680 697.5,-662 654.5,-662"/>
<polygon fill="none" stroke="black" points="654.5,-662 654.5,-680 697.5,-680 697.5,-662 654.5,-662"/>
<text text-anchor="start" x="661.5" y="-668.2" font-family="Helvetica,sans-Serif" font-size="11.00">3 rows</text>
<polygon fill="#ffffff" stroke="transparent" points="697.5,-662 697.5,-680 715.5,-680 715.5,-662 697.5,-662"/>
<polygon fill="none" stroke="black" points="697.5,-662 697.5,-680 715.5,-680 715.5,-662 697.5,-662"/>
<text text-anchor="start" x="705.5" y="-668.2" font-family="Helvetica,sans-Serif" font-size="11.00"> &#160;</text>
</a>
</g>
</g>
<!-- formtaxa&#45;&gt;publications -->
<g id="edge6" class="edge">
<title>formtaxa:w&#45;&gt;publications:e</title>
<path fill="none" stroke="black" d="M609.07,-689.3C499.4,-693.8 452.92,-747.51 353,-690 322.71,-672.56 348.45,-622 313.5,-622"/>
<polygon fill="black" stroke="black" points="615.5,-689.16 623.57,-692.6 619.5,-689.08 623.5,-689 623.5,-689 623.5,-689 619.5,-689.08 623.43,-685.4 615.5,-689.16 615.5,-689.16"/>
<ellipse fill="none" stroke="black" cx="612.3" cy="-689.23" rx="3.2" ry="3.2"/>
</g>
<!-- taxa -->
<g id="node7" class="node">
<title>taxa</title>
<g id="a_node7"><a xlink:href="../../tables/taxa.html" xlink:title="taxa" target="_top">
<polygon fill="#ffffff" stroke="transparent" points="407.5,-621 407.5,-679 523.5,-679 523.5,-621 407.5,-621"/>
<polygon fill="#f5f5f5" stroke="transparent" points="407.5,-657 407.5,-679 523.5,-679 523.5,-657 407.5,-657"/>
<polygon fill="none" stroke="black" points="407.5,-657 407.5,-679 523.5,-679 523.5,-657 407.5,-657"/>
<text text-anchor="start" x="412.5" y="-666.2" font-family="Helvetica,sans-Serif" font-weight="bold" font-size="11.00">taxa</text>
<text text-anchor="start" x="488.5" y="-665.2" font-family="Helvetica,sans-Serif" font-size="11.00">[table]</text>
<polygon fill="none" stroke="black" points="407.5,-639 407.5,-657 523.5,-657 523.5,-639 407.5,-639"/>
<text text-anchor="start" x="410.5" y="-645.2" font-family="Helvetica,sans-Serif" font-size="11.00">...</text>
<polygon fill="#ffffff" stroke="transparent" points="407.5,-621 407.5,-639 429.5,-639 429.5,-621 407.5,-621"/>
<polygon fill="none" stroke="black" points="407.5,-621 407.5,-639 429.5,-639 429.5,-621 407.5,-621"/>
<text text-anchor="start" x="410.5" y="-627.2" font-family="Helvetica,sans-Serif" font-size="11.00">&lt; 4</text>
<polygon fill="#ffffff" stroke="transparent" points="429.5,-621 429.5,-639 495.5,-639 495.5,-621 429.5,-621"/>
<polygon fill="none" stroke="black" points="429.5,-621 429.5,-639 495.5,-639 495.5,-621 429.5,-621"/>
<text text-anchor="start" x="432.5" y="-627.2" font-family="Helvetica,sans-Serif" font-size="11.00">47,314 rows</text>
<polygon fill="#ffffff" stroke="transparent" points="495.5,-621 495.5,-639 523.5,-639 523.5,-621 495.5,-621"/>
<polygon fill="none" stroke="black" points="495.5,-621 495.5,-639 523.5,-639 523.5,-621 495.5,-621"/>
<text text-anchor="start" x="498.5" y="-627.2" font-family="Helvetica,sans-Serif" font-size="11.00">17 &gt;</text>
</a>
</g>
</g>
<!-- formtaxa&#45;&gt;taxa -->
<g id="edge5" class="edge">
<title>formtaxa:w&#45;&gt;taxa:e</title>
<path fill="none" stroke="black" d="M609.33,-685.88C574.53,-674.59 566.92,-642.66 524.5,-648"/>
<polygon fill="black" stroke="black" points="615.69,-687.28 622.73,-692.52 619.59,-688.14 623.5,-689 623.5,-689 623.5,-689 619.59,-688.14 624.27,-685.48 615.69,-687.28 615.69,-687.28"/>
<ellipse fill="none" stroke="black" cx="612.56" cy="-686.59" rx="3.2" ry="3.2"/>
</g>
<!-- formtaxa&#45;&gt;taxa -->
<g id="edge7" class="edge">
<title>formtaxa:w&#45;&gt;taxa:e</title>
<path fill="none" stroke="black" d="M608.88,-689.65C574.46,-687.15 566.73,-654.21 524.5,-648"/>
<polygon fill="black" stroke="black" points="615.51,-689.36 623.66,-692.6 619.5,-689.18 623.5,-689 623.5,-689 623.5,-689 619.5,-689.18 623.34,-685.4 615.51,-689.36 615.51,-689.36"/>
<ellipse fill="none" stroke="black" cx="612.31" cy="-689.5" rx="3.2" ry="3.2"/>
</g>
<!-- taxa&#45;&gt;publications -->
<g id="edge17" class="edge">
<title>taxa:w&#45;&gt;publications:e</title>
<path fill="none" stroke="black" d="M391.94,-646.88C361.23,-641.91 351.05,-622 313.5,-622"/>
<polygon fill="black" stroke="black" points="398.52,-647.39 406.22,-651.59 402.51,-647.69 406.5,-648 406.5,-648 406.5,-648 402.51,-647.69 406.78,-644.41 398.52,-647.39 398.52,-647.39"/>
<ellipse fill="none" stroke="black" cx="395.33" cy="-647.14" rx="3.2" ry="3.2"/>
</g>
<!-- geochronpublications -->
<g id="node8" class="node">
<title>geochronpublications</title>
<g id="a_node8"><a xlink:href="../../tables/geochronpublications.html" xlink:title="geochronpublications" target="_top">
<polygon fill="#ffffff" stroke="transparent" points="386,-515 386,-573 545,-573 545,-515 386,-515"/>
<polygon fill="#f5f5f5" stroke="transparent" points="386.5,-551 386.5,-573 545.5,-573 545.5,-551 386.5,-551"/>
<polygon fill="none" stroke="black" points="386.5,-551 386.5,-573 545.5,-573 545.5,-551 386.5,-551"/>
<text text-anchor="start" x="391.5" y="-560.2" font-family="Helvetica,sans-Serif" font-weight="bold" font-size="11.00">geochronpublications</text>
<text text-anchor="start" x="510.5" y="-559.2" font-family="Helvetica,sans-Serif" font-size="11.00">[table]</text>
<polygon fill="none" stroke="black" points="386.5,-533 386.5,-551 545.5,-551 545.5,-533 386.5,-533"/>
<text text-anchor="start" x="389.5" y="-539.2" font-family="Helvetica,sans-Serif" font-size="11.00">...</text>
<polygon fill="#ffffff" stroke="transparent" points="386.5,-515 386.5,-533 437.5,-533 437.5,-515 386.5,-515"/>
<polygon fill="none" stroke="black" points="386.5,-515 386.5,-533 437.5,-533 437.5,-515 386.5,-515"/>
<text text-anchor="start" x="389.5" y="-521.2" font-family="Helvetica,sans-Serif" font-size="11.00">&lt; 2</text>
<polygon fill="#ffffff" stroke="transparent" points="437.5,-515 437.5,-533 517.5,-533 517.5,-515 437.5,-515"/>
<polygon fill="none" stroke="black" points="437.5,-515 437.5,-533 517.5,-533 517.5,-515 437.5,-515"/>
<text text-anchor="start" x="454.5" y="-521.2" font-family="Helvetica,sans-Serif" font-size="11.00">37,711 rows</text>
<polygon fill="#ffffff" stroke="transparent" points="517.5,-515 517.5,-533 545.5,-533 545.5,-515 517.5,-515"/>
<polygon fill="none" stroke="black" points="517.5,-515 517.5,-533 545.5,-533 545.5,-515 517.5,-515"/>
<text text-anchor="start" x="535.5" y="-521.2" font-family="Helvetica,sans-Serif" font-size="11.00"> &#160;</text>
</a>
</g>
</g>
<!-- geochronpublications&#45;&gt;publications -->
<g id="edge8" class="edge">
<title>geochronpublications:w&#45;&gt;publications:e</title>
<path fill="none" stroke="black" d="M371.4,-545.04C342.23,-559.65 355.73,-622 313.5,-622"/>
<polygon fill="black" stroke="black" points="377.68,-543.69 386.26,-545.52 381.59,-542.84 385.5,-542 385.5,-542 385.5,-542 381.59,-542.84 384.74,-538.48 377.68,-543.69 377.68,-543.69"/>
<ellipse fill="none" stroke="black" cx="374.55" cy="-544.36" rx="3.2" ry="3.2"/>
</g>
<!-- publicationauthors -->
<g id="node9" class="node">
<title>publicationauthors</title>
<g id="a_node9"><a xlink:href="../../tables/publicationauthors.html" xlink:title="publicationauthors" target="_top">
<polygon fill="#ffffff" stroke="transparent" points="393.5,-436 393.5,-494 537.5,-494 537.5,-436 393.5,-436"/>
<polygon fill="#f5f5f5" stroke="transparent" points="393.5,-472 393.5,-494 537.5,-494 537.5,-472 393.5,-472"/>
<polygon fill="none" stroke="black" points="393.5,-472 393.5,-494 537.5,-494 537.5,-472 393.5,-472"/>
<text text-anchor="start" x="398.5" y="-481.2" font-family="Helvetica,sans-Serif" font-weight="bold" font-size="11.00">publicationauthors</text>
<text text-anchor="start" x="502.5" y="-480.2" font-family="Helvetica,sans-Serif" font-size="11.00">[table]</text>
<polygon fill="none" stroke="black" points="393.5,-454 393.5,-472 537.5,-472 537.5,-454 393.5,-454"/>
<text text-anchor="start" x="396.5" y="-460.2" font-family="Helvetica,sans-Serif" font-size="11.00">...</text>
<polygon fill="#ffffff" stroke="transparent" points="393.5,-436 393.5,-454 436.5,-454 436.5,-436 393.5,-436"/>
<polygon fill="none" stroke="black" points="393.5,-436 393.5,-454 436.5,-454 436.5,-436 393.5,-436"/>
<text text-anchor="start" x="396.5" y="-442.2" font-family="Helvetica,sans-Serif" font-size="11.00">&lt; 2</text>
<polygon fill="#ffffff" stroke="transparent" points="436.5,-436 436.5,-454 513.5,-454 513.5,-436 436.5,-436"/>
<polygon fill="none" stroke="black" points="436.5,-436 436.5,-454 513.5,-454 513.5,-436 436.5,-436"/>
<text text-anchor="start" x="450.5" y="-442.2" font-family="Helvetica,sans-Serif" font-size="11.00">31,426 rows</text>
<polygon fill="#ffffff" stroke="transparent" points="513.5,-436 513.5,-454 537.5,-454 537.5,-436 513.5,-436"/>
<polygon fill="none" stroke="black" points="513.5,-436 513.5,-454 537.5,-454 537.5,-436 513.5,-436"/>
<text text-anchor="start" x="527.5" y="-442.2" font-family="Helvetica,sans-Serif" font-size="11.00"> &#160;</text>
</a>
</g>
</g>
<!-- publicationauthors&#45;&gt;publications -->
<g id="edge9" class="edge">
<title>publicationauthors:w&#45;&gt;publications:e</title>
<path fill="none" stroke="black" d="M378.11,-466.07C365.86,-472.49 363.09,-488.17 353,-505 324.77,-552.07 368.38,-622 313.5,-622"/>
<polygon fill="black" stroke="black" points="384.68,-464.67 393.25,-466.52 388.59,-463.83 392.5,-463 392.5,-463 392.5,-463 388.59,-463.83 391.75,-459.48 384.68,-464.67 384.68,-464.67"/>
<ellipse fill="none" stroke="black" cx="381.55" cy="-465.33" rx="3.2" ry="3.2"/>
</g>
<!-- publicationeditors -->
<g id="node10" class="node">
<title>publicationeditors</title>
<g id="a_node10"><a xlink:href="../../tables/publicationeditors.html" xlink:title="publicationeditors" target="_top">
<polygon fill="#ffffff" stroke="transparent" points="361,-195 361,-415 570,-415 570,-195 361,-195"/>
<polygon fill="#f5f5f5" stroke="transparent" points="363.5,-391 363.5,-413 568.5,-413 568.5,-391 363.5,-391"/>
<polygon fill="none" stroke="black" points="363.5,-391 363.5,-413 568.5,-413 568.5,-391 363.5,-391"/>
<text text-anchor="start" x="368.5" y="-400.2" font-family="Helvetica,sans-Serif" font-weight="bold" font-size="11.00">publicationeditors</text>
<text text-anchor="start" x="533.5" y="-399.2" font-family="Helvetica,sans-Serif" font-size="11.00">[table]</text>
<polygon fill="none" stroke="black" points="363.5,-369 363.5,-391 494.5,-391 494.5,-369 363.5,-369"/>
<image xlink:href="../../images/primaryKeys.png" width="11px" height="12px" preserveAspectRatio="xMinYMin meet" x="368.5" y="-386"/>
<text text-anchor="start" x="383.5" y="-377.2" font-family="Helvetica,sans-Serif" font-size="11.00">editorid</text>
<polygon fill="none" stroke="black" points="494.5,-369 494.5,-391 568.5,-391 568.5,-369 494.5,-369"/>
<text text-anchor="start" x="497.5" y="-377.2" font-family="Helvetica,sans-Serif" font-size="11.00">serial[10]</text>
<polygon fill="#ffffff" stroke="transparent" points="363.5,-347 363.5,-369 494.5,-369 494.5,-347 363.5,-347"/>
<polygon fill="none" stroke="black" points="363.5,-347 363.5,-369 494.5,-369 494.5,-347 363.5,-347"/>
<image xlink:href="../../images/foreignKeys.png" width="11px" height="12px" preserveAspectRatio="xMinYMin meet" x="368.5" y="-364"/>
<text text-anchor="start" x="383.5" y="-355.2" font-family="Helvetica,sans-Serif" font-size="11.00">publicationid</text>
<polygon fill="none" stroke="black" points="494.5,-347 494.5,-369 568.5,-369 568.5,-347 494.5,-347"/>
<text text-anchor="start" x="497.5" y="-355.2" font-family="Helvetica,sans-Serif" font-size="11.00">int4[10]</text>
<polygon fill="none" stroke="black" points="363.5,-325 363.5,-347 494.5,-347 494.5,-325 363.5,-325"/>
<text text-anchor="start" x="383.5" y="-333.2" font-family="Helvetica,sans-Serif" font-size="11.00">editororder</text>
<polygon fill="none" stroke="black" points="494.5,-325 494.5,-347 568.5,-347 568.5,-325 494.5,-325"/>
<text text-anchor="start" x="497.5" y="-333.2" font-family="Helvetica,sans-Serif" font-size="11.00">int4[10]</text>
<polygon fill="none" stroke="black" points="363.5,-303 363.5,-325 494.5,-325 494.5,-303 363.5,-303"/>
<text text-anchor="start" x="383.5" y="-311.2" font-family="Helvetica,sans-Serif" font-size="11.00">familyname</text>
<polygon fill="none" stroke="black" points="494.5,-303 494.5,-325 568.5,-325 568.5,-303 494.5,-303"/>
<text text-anchor="start" x="497.5" y="-311.2" font-family="Helvetica,sans-Serif" font-size="11.00">varchar[64]</text>
<polygon fill="none" stroke="black" points="363.5,-281 363.5,-303 494.5,-303 494.5,-281 363.5,-281"/>
<text text-anchor="start" x="383.5" y="-289.2" font-family="Helvetica,sans-Serif" font-size="11.00">initials</text>
<polygon fill="none" stroke="black" points="494.5,-281 494.5,-303 568.5,-303 568.5,-281 494.5,-281"/>
<text text-anchor="start" x="497.5" y="-289.2" font-family="Helvetica,sans-Serif" font-size="11.00">varchar[8]</text>
<polygon fill="none" stroke="black" points="363.5,-259 363.5,-281 494.5,-281 494.5,-259 363.5,-259"/>
<text text-anchor="start" x="383.5" y="-267.2" font-family="Helvetica,sans-Serif" font-size="11.00">suffix</text>
<polygon fill="none" stroke="black" points="494.5,-259 494.5,-281 568.5,-281 568.5,-259 494.5,-259"/>
<text text-anchor="start" x="497.5" y="-267.2" font-family="Helvetica,sans-Serif" font-size="11.00">varchar[8]</text>
<polygon fill="none" stroke="black" points="363.5,-237 363.5,-259 494.5,-259 494.5,-237 363.5,-237"/>
<text text-anchor="start" x="383.5" y="-245.2" font-family="Helvetica,sans-Serif" font-size="11.00">recdatecreated</text>
<polygon fill="none" stroke="black" points="494.5,-237 494.5,-259 568.5,-259 568.5,-237 494.5,-237"/>
<text text-anchor="start" x="497.5" y="-245.2" font-family="Helvetica,sans-Serif" font-size="11.00">timestamp[22]</text>
<polygon fill="none" stroke="black" points="363.5,-215 363.5,-237 494.5,-237 494.5,-215 363.5,-215"/>
<text text-anchor="start" x="383.5" y="-223.2" font-family="Helvetica,sans-Serif" font-size="11.00">recdatemodified</text>
<polygon fill="none" stroke="black" points="494.5,-215 494.5,-237 568.5,-237 568.5,-215 494.5,-215"/>
<text text-anchor="start" x="497.5" y="-223.2" font-family="Helvetica,sans-Serif" font-size="11.00">timestamp[22]</text>
<polygon fill="#ffffff" stroke="transparent" points="363.5,-197 363.5,-215 409.5,-215 409.5,-197 363.5,-197"/>
<polygon fill="none" stroke="black" points="363.5,-197 363.5,-215 409.5,-215 409.5,-197 363.5,-197"/>
<text text-anchor="start" x="366.5" y="-203.2" font-family="Helvetica,sans-Serif" font-size="11.00">&lt; 1</text>
<polygon fill="#ffffff" stroke="transparent" points="409.5,-197 409.5,-215 494.5,-215 494.5,-197 409.5,-197"/>
<polygon fill="none" stroke="black" points="409.5,-197 409.5,-215 494.5,-215 494.5,-197 409.5,-197"/>
<text text-anchor="start" x="437.5" y="-203.2" font-family="Helvetica,sans-Serif" font-size="11.00">1,517 rows</text>
<polygon fill="#ffffff" stroke="transparent" points="494.5,-197 494.5,-215 568.5,-215 568.5,-197 494.5,-197"/>
<polygon fill="none" stroke="black" points="494.5,-197 494.5,-215 568.5,-215 568.5,-197 494.5,-197"/>
<text text-anchor="start" x="549.5" y="-203.2" font-family="Helvetica,sans-Serif" font-size="11.00">0 &gt;</text>
<polygon fill="none" stroke="black" stroke-width="2" points="362,-196 362,-414 569,-414 569,-196 362,-196"/>
</a>
</g>
</g>
<!-- publicationeditors&#45;&gt;publications -->
<g id="edge10" class="edge">
<title>publicationeditors:w&#45;&gt;publications:e</title>
<path fill="none" stroke="black" d="M349.38,-364.01C314.42,-403.31 367.81,-622 313.5,-622"/>
<polygon fill="black" stroke="black" points="355.23,-361.33 364,-361.27 358.86,-359.67 362.5,-358 362.5,-358 362.5,-358 358.86,-359.67 361,-354.73 355.23,-361.33 355.23,-361.33"/>
<ellipse fill="none" stroke="black" cx="352.32" cy="-362.66" rx="3.2" ry="3.2"/>
</g>
<!-- publicationtranslators -->
<g id="node12" class="node">
<title>publicationtranslators</title>
<g id="a_node12"><a xlink:href="../../tables/publicationtranslators.html" xlink:title="publicationtranslators" target="_top">
<polygon fill="#ffffff" stroke="transparent" points="385.5,-116 385.5,-174 545.5,-174 545.5,-116 385.5,-116"/>
<polygon fill="#f5f5f5" stroke="transparent" points="385.5,-152 385.5,-174 545.5,-174 545.5,-152 385.5,-152"/>
<polygon fill="none" stroke="black" points="385.5,-152 385.5,-174 545.5,-174 545.5,-152 385.5,-152"/>
<text text-anchor="start" x="390.5" y="-161.2" font-family="Helvetica,sans-Serif" font-weight="bold" font-size="11.00">publicationtranslators</text>
<text text-anchor="start" x="510.5" y="-160.2" font-family="Helvetica,sans-Serif" font-size="11.00">[table]</text>
<polygon fill="none" stroke="black" points="385.5,-134 385.5,-152 545.5,-152 545.5,-134 385.5,-134"/>
<text text-anchor="start" x="388.5" y="-140.2" font-family="Helvetica,sans-Serif" font-size="11.00">...</text>
<polygon fill="#ffffff" stroke="transparent" points="385.5,-116 385.5,-134 450.5,-134 450.5,-116 385.5,-116"/>
<polygon fill="none" stroke="black" points="385.5,-116 385.5,-134 450.5,-134 450.5,-116 385.5,-116"/>
<text text-anchor="start" x="388.5" y="-122.2" font-family="Helvetica,sans-Serif" font-size="11.00">&lt; 1</text>
<polygon fill="#ffffff" stroke="transparent" points="450.5,-116 450.5,-134 510.5,-134 510.5,-116 450.5,-116"/>
<polygon fill="none" stroke="black" points="450.5,-116 450.5,-134 510.5,-134 510.5,-116 450.5,-116"/>
<text text-anchor="start" x="474.5" y="-122.2" font-family="Helvetica,sans-Serif" font-size="11.00">4 rows</text>
<polygon fill="#ffffff" stroke="transparent" points="510.5,-116 510.5,-134 545.5,-134 545.5,-116 510.5,-116"/>
<polygon fill="none" stroke="black" points="510.5,-116 510.5,-134 545.5,-134 545.5,-116 510.5,-116"/>
<text text-anchor="start" x="535.5" y="-122.2" font-family="Helvetica,sans-Serif" font-size="11.00"> &#160;</text>
</a>
</g>
</g>
<!-- publicationtranslators&#45;&gt;publications -->
<g id="edge12" class="edge">
<title>publicationtranslators:w&#45;&gt;publications:e</title>
<path fill="none" stroke="black" d="M370.29,-146.93C360.67,-153.85 359.15,-169 353,-185 335.51,-230.51 362.25,-622 313.5,-622"/>
<polygon fill="black" stroke="black" points="376.79,-145.13 385.46,-146.47 380.64,-144.07 384.5,-143 384.5,-143 384.5,-143 380.64,-144.07 383.54,-139.53 376.79,-145.13 376.79,-145.13"/>
<ellipse fill="none" stroke="black" cx="373.71" cy="-145.98" rx="3.2" ry="3.2"/>
</g>
<!-- relativeagepublications -->
<g id="node13" class="node">
<title>relativeagepublications</title>
<g id="a_node13"><a xlink:href="../../tables/relativeagepublications.html" xlink:title="relativeagepublications" target="_top">
<polygon fill="#ffffff" stroke="transparent" points="382.5,-37 382.5,-95 548.5,-95 548.5,-37 382.5,-37"/>
<polygon fill="#f5f5f5" stroke="transparent" points="382.5,-73 382.5,-95 548.5,-95 548.5,-73 382.5,-73"/>
<polygon fill="none" stroke="black" points="382.5,-73 382.5,-95 548.5,-95 548.5,-73 382.5,-73"/>
<text text-anchor="start" x="387.5" y="-82.2" font-family="Helvetica,sans-Serif" font-weight="bold" font-size="11.00">relativeagepublications</text>
<text text-anchor="start" x="513.5" y="-81.2" font-family="Helvetica,sans-Serif" font-size="11.00">[table]</text>
<polygon fill="none" stroke="black" points="382.5,-55 382.5,-73 548.5,-73 548.5,-55 382.5,-55"/>
<text text-anchor="start" x="385.5" y="-61.2" font-family="Helvetica,sans-Serif" font-size="11.00">...</text>
<polygon fill="#ffffff" stroke="transparent" points="382.5,-37 382.5,-55 444.5,-55 444.5,-37 382.5,-37"/>
<polygon fill="none" stroke="black" points="382.5,-37 382.5,-55 444.5,-55 444.5,-37 382.5,-37"/>
<text text-anchor="start" x="385.5" y="-43.2" font-family="Helvetica,sans-Serif" font-size="11.00">&lt; 2</text>
<polygon fill="#ffffff" stroke="transparent" points="444.5,-37 444.5,-55 515.5,-55 515.5,-37 444.5,-37"/>
<polygon fill="none" stroke="black" points="444.5,-37 444.5,-55 515.5,-55 515.5,-37 444.5,-37"/>
<text text-anchor="start" x="467.5" y="-43.2" font-family="Helvetica,sans-Serif" font-size="11.00">115 rows</text>
<polygon fill="#ffffff" stroke="transparent" points="515.5,-37 515.5,-55 548.5,-55 548.5,-37 515.5,-37"/>
<polygon fill="none" stroke="black" points="515.5,-37 515.5,-55 548.5,-55 548.5,-37 515.5,-37"/>
<text text-anchor="start" x="538.5" y="-43.2" font-family="Helvetica,sans-Serif" font-size="11.00"> &#160;</text>
</a>
</g>
</g>
<!-- relativeagepublications&#45;&gt;publications -->
<g id="edge13" class="edge">
<title>relativeagepublications:w&#45;&gt;publications:e</title>
<path fill="none" stroke="black" d="M367.72,-68.23C359.09,-75.37 358.41,-90.53 353,-106 334.02,-160.28 371,-622 313.5,-622"/>
<polygon fill="black" stroke="black" points="373.85,-66.35 382.56,-67.44 377.68,-65.17 381.5,-64 381.5,-64 381.5,-64 377.68,-65.17 380.44,-60.56 373.85,-66.35 373.85,-66.35"/>
<ellipse fill="none" stroke="black" cx="370.79" cy="-67.29" rx="3.2" ry="3.2"/>
</g>
<!-- synonymy -->
<g id="node14" class="node">
<title>synonymy</title>
<g id="a_node14"><a xlink:href="../../tables/synonymy.html" xlink:title="synonymy" target="_top">
<polygon fill="#ffffff" stroke="transparent" points="619,-583 619,-641 720,-641 720,-583 619,-583"/>
<polygon fill="#f5f5f5" stroke="transparent" points="619.5,-619 619.5,-641 720.5,-641 720.5,-619 619.5,-619"/>
<polygon fill="none" stroke="black" points="619.5,-619 619.5,-641 720.5,-641 720.5,-619 619.5,-619"/>
<text text-anchor="start" x="624.5" y="-628.2" font-family="Helvetica,sans-Serif" font-weight="bold" font-size="11.00">synonymy</text>
<text text-anchor="start" x="685.5" y="-627.2" font-family="Helvetica,sans-Serif" font-size="11.00">[table]</text>
<polygon fill="none" stroke="black" points="619.5,-601 619.5,-619 720.5,-619 720.5,-601 619.5,-601"/>
<text text-anchor="start" x="622.5" y="-607.2" font-family="Helvetica,sans-Serif" font-size="11.00">...</text>
<polygon fill="#ffffff" stroke="transparent" points="619.5,-583 619.5,-601 641.5,-601 641.5,-583 619.5,-583"/>
<polygon fill="none" stroke="black" points="619.5,-583 619.5,-601 641.5,-601 641.5,-583 619.5,-583"/>
<text text-anchor="start" x="622.5" y="-589.2" font-family="Helvetica,sans-Serif" font-size="11.00">&lt; 5</text>
<polygon fill="#ffffff" stroke="transparent" points="641.5,-583 641.5,-601 707.5,-601 707.5,-583 641.5,-583"/>
<polygon fill="none" stroke="black" points="641.5,-583 641.5,-601 707.5,-601 707.5,-583 641.5,-583"/>
<text text-anchor="start" x="644.5" y="-589.2" font-family="Helvetica,sans-Serif" font-size="11.00">38,985 rows</text>
<polygon fill="#ffffff" stroke="transparent" points="707.5,-583 707.5,-601 720.5,-601 720.5,-583 707.5,-583"/>
<polygon fill="none" stroke="black" points="707.5,-583 707.5,-601 720.5,-601 720.5,-583 707.5,-583"/>
<text text-anchor="start" x="710.5" y="-589.2" font-family="Helvetica,sans-Serif" font-size="11.00"> &#160;</text>
</a>
</g>
</g>
<!-- synonymy&#45;&gt;publications -->
<g id="edge14" class="edge">
<title>synonymy:w&#45;&gt;publications:e</title>
<path fill="none" stroke="black" d="M604.08,-609.92C497.78,-608.78 464.98,-595.48 353,-611 334.95,-613.5 331.72,-622 313.5,-622"/>
<polygon fill="black" stroke="black" points="610.5,-609.96 618.48,-613.6 614.5,-609.98 618.5,-610 618.5,-610 618.5,-610 614.5,-609.98 618.52,-606.4 610.5,-609.96 610.5,-609.96"/>
<ellipse fill="none" stroke="black" cx="607.3" cy="-609.94" rx="3.2" ry="3.2"/>
</g>
<!-- synonymy&#45;&gt;taxa -->
<g id="edge15" class="edge">
<title>synonymy:w&#45;&gt;taxa:e</title>
<path fill="none" stroke="black" d="M603.8,-609.62C571.9,-612.73 564.11,-642.73 524.5,-648"/>
<polygon fill="black" stroke="black" points="610.5,-609.79 618.41,-613.6 614.5,-609.9 618.5,-610 618.5,-610 618.5,-610 614.5,-609.9 618.59,-606.4 610.5,-609.79 610.5,-609.79"/>
<ellipse fill="none" stroke="black" cx="607.3" cy="-609.71" rx="3.2" ry="3.2"/>
</g>
<!-- synonymy&#45;&gt;taxa -->
<g id="edge16" class="edge">
<title>synonymy:w&#45;&gt;taxa:e</title>
<path fill="none" stroke="black" d="M604.22,-613.62C571.96,-625.29 564.28,-654.18 524.5,-648"/>
<polygon fill="black" stroke="black" points="610.74,-611.96 619.38,-613.49 614.62,-610.98 618.5,-610 618.5,-610 618.5,-610 614.62,-610.98 617.62,-606.51 610.74,-611.96 610.74,-611.96"/>
<ellipse fill="none" stroke="black" cx="607.64" cy="-612.75" rx="3.2" ry="3.2"/>
</g>
</g>
</svg>
