<?xml version="1.0" encoding="UTF-8" standalone="no"?>
<!DOCTYPE svg PUBLIC "-//W3C//DTD SVG 1.1//EN"
 "http://www.w3.org/Graphics/SVG/1.1/DTD/svg11.dtd">
<!-- Generated by graphviz version 2.43.0 (0)
 -->
<!-- Title: twoDegreesRelationshipsDiagramImplied Pages: 1 -->
<svg width="741pt" height="963pt"
 viewBox="0.00 0.00 741.00 963.00" xmlns="http://www.w3.org/2000/svg" xmlns:xlink="http://www.w3.org/1999/xlink">
<g id="graph0" class="graph" transform="scale(1 1) rotate(0) translate(4 959)">
<title>twoDegreesRelationshipsDiagramImplied</title>
<polygon fill="#ffffff" stroke="transparent" points="-4,4 -4,-959 737,-959 737,4 -4,4"/>
<text text-anchor="middle" x="71.5" y="-7.2" font-family="Helvetica,sans-Serif" font-size="11.00">Generated by SchemaSpy</text>
<!-- calibrationcurves -->
<g id="node1" class="node">
<title>calibrationcurves</title>
<g id="a_node1"><a xlink:href="../../tables/calibrationcurves.html" xlink:title="calibrationcurves" target="_top">
<polygon fill="#ffffff" stroke="transparent" points="400.5,-893 400.5,-951 535.5,-951 535.5,-893 400.5,-893"/>
<polygon fill="#f5f5f5" stroke="transparent" points="401,-929 401,-951 536,-951 536,-929 401,-929"/>
<polygon fill="none" stroke="black" points="401,-929 401,-951 536,-951 536,-929 401,-929"/>
<text text-anchor="start" x="406" y="-938.2" font-family="Helvetica,sans-Serif" font-weight="bold" font-size="11.00">calibrationcurves</text>
<text text-anchor="start" x="501" y="-937.2" font-family="Helvetica,sans-Serif" font-size="11.00">[table]</text>
<polygon fill="none" stroke="black" points="401,-911 401,-929 536,-929 536,-911 401,-911"/>
<text text-anchor="start" x="404" y="-917.2" font-family="Helvetica,sans-Serif" font-size="11.00">...</text>
<polygon fill="#ffffff" stroke="transparent" points="401,-893 401,-911 446,-911 446,-893 401,-893"/>
<polygon fill="none" stroke="black" points="401,-893 401,-911 446,-911 446,-893 401,-893"/>
<text text-anchor="start" x="404" y="-899.2" font-family="Helvetica,sans-Serif" font-size="11.00">&lt; 1</text>
<polygon fill="#ffffff" stroke="transparent" points="446,-893 446,-911 502,-911 502,-893 446,-893"/>
<polygon fill="none" stroke="black" points="446,-893 446,-911 502,-911 502,-893 446,-893"/>
<text text-anchor="start" x="460" y="-899.2" font-family="Helvetica,sans-Serif" font-size="11.00">15 rows</text>
<polygon fill="#ffffff" stroke="transparent" points="502,-893 502,-911 536,-911 536,-893 502,-893"/>
<polygon fill="none" stroke="black" points="502,-893 502,-911 536,-911 536,-893 502,-893"/>
<text text-anchor="start" x="517" y="-899.2" font-family="Helvetica,sans-Serif" font-size="11.00">2 &gt;</text>
</a>
</g>
</g>
<!-- publications -->
<g id="node2" class="node">
<title>publications</title>
<g id="a_node2"><a xlink:href="../../tables/publications.html" xlink:title="publications" target="_top">
<polygon fill="#ffffff" stroke="transparent" points="189,-457 189,-559 312,-559 312,-457 189,-457"/>
<polygon fill="#f5f5f5" stroke="transparent" points="189.5,-537 189.5,-559 312.5,-559 312.5,-537 189.5,-537"/>
<polygon fill="none" stroke="black" points="189.5,-537 189.5,-559 312.5,-559 312.5,-537 189.5,-537"/>
<text text-anchor="start" x="194.5" y="-546.2" font-family="Helvetica,sans-Serif" font-weight="bold" font-size="11.00">publications</text>
<text text-anchor="start" x="277.5" y="-545.2" font-family="Helvetica,sans-Serif" font-size="11.00">[table]</text>
<polygon fill="none" stroke="black" points="189.5,-515 189.5,-537 312.5,-537 312.5,-515 189.5,-515"/>
<image xlink:href="../../images/primaryKeys.png" width="11px" height="12px" preserveAspectRatio="xMinYMin meet" x="194.5" y="-532"/>
<text text-anchor="start" x="209.5" y="-523.2" font-family="Helvetica,sans-Serif" font-size="11.00">publicationid</text>
<polygon fill="none" stroke="black" points="189.5,-493 189.5,-515 312.5,-515 312.5,-493 189.5,-493"/>
<image xlink:href="../../images/foreignKeys.png" width="11px" height="12px" preserveAspectRatio="xMinYMin meet" x="194.5" y="-510"/>
<text text-anchor="start" x="209.5" y="-501.2" font-family="Helvetica,sans-Serif" font-size="11.00">pubtypeid</text>
<polygon fill="none" stroke="black" points="189.5,-475 189.5,-493 312.5,-493 312.5,-475 189.5,-475"/>
<text text-anchor="start" x="192.5" y="-481.2" font-family="Helvetica,sans-Serif" font-size="11.00">...</text>
<polygon fill="#ffffff" stroke="transparent" points="189.5,-457 189.5,-475 214.5,-475 214.5,-457 189.5,-457"/>
<polygon fill="none" stroke="black" points="189.5,-457 189.5,-475 214.5,-475 214.5,-457 189.5,-457"/>
<text text-anchor="start" x="192.5" y="-463.2" font-family="Helvetica,sans-Serif" font-size="11.00">&lt; 1</text>
<polygon fill="#ffffff" stroke="transparent" points="214.5,-457 214.5,-475 282.5,-475 282.5,-457 214.5,-457"/>
<polygon fill="none" stroke="black" points="214.5,-457 214.5,-475 282.5,-475 282.5,-457 214.5,-457"/>
<text text-anchor="start" x="219.5" y="-463.2" font-family="Helvetica,sans-Serif" font-size="11.00">13,466 rows</text>
<polygon fill="#ffffff" stroke="transparent" points="282.5,-457 282.5,-475 312.5,-475 312.5,-457 282.5,-457"/>
<polygon fill="none" stroke="black" points="282.5,-457 282.5,-475 312.5,-475 312.5,-457 282.5,-457"/>
<text text-anchor="start" x="287.5" y="-463.2" font-family="Helvetica,sans-Serif" font-size="11.00">13 &gt;</text>
</a>
</g>
</g>
<!-- calibrationcurves&#45;&gt;publications -->
<g id="edge1" class="edge">
<title>calibrationcurves:w&#45;&gt;publications:e</title>
<path fill="none" stroke="black" d="M385.49,-918.2C370.01,-913.77 363.19,-901.34 353,-883 314.24,-813.22 393.32,-526 313.5,-526"/>
<polygon fill="black" stroke="black" points="392.06,-919.02 399.56,-923.57 396.03,-919.51 400,-920 400,-920 400,-920 396.03,-919.51 400.44,-916.43 392.06,-919.02 392.06,-919.02"/>
<ellipse fill="none" stroke="black" cx="388.88" cy="-918.62" rx="3.2" ry="3.2"/>
</g>
<!-- publicationtypes -->
<g id="node11" class="node">
<title>publicationtypes</title>
<g id="a_node11"><a xlink:href="../../tables/publicationtypes.html" xlink:title="publicationtypes" target="_top">
<polygon fill="#ffffff" stroke="transparent" points="8,-477 8,-535 140,-535 140,-477 8,-477"/>
<polygon fill="#f5f5f5" stroke="transparent" points="8,-513 8,-535 140,-535 140,-513 8,-513"/>
<polygon fill="none" stroke="black" points="8,-513 8,-535 140,-535 140,-513 8,-513"/>
<text text-anchor="start" x="13" y="-522.2" font-family="Helvetica,sans-Serif" font-weight="bold" font-size="11.00">publicationtypes</text>
<text text-anchor="start" x="105" y="-521.2" font-family="Helvetica,sans-Serif" font-size="11.00">[table]</text>
<polygon fill="none" stroke="black" points="8,-495 8,-513 140,-513 140,-495 8,-495"/>
<text text-anchor="start" x="11" y="-501.2" font-family="Helvetica,sans-Serif" font-size="11.00">...</text>
<polygon fill="#ffffff" stroke="transparent" points="8,-477 8,-495 47,-495 47,-477 8,-477"/>
<polygon fill="none" stroke="black" points="8,-477 8,-495 47,-495 47,-477 8,-477"/>
<text text-anchor="start" x="11" y="-483.2" font-family="Helvetica,sans-Serif" font-size="11.00"> &#160;</text>
<polygon fill="#ffffff" stroke="transparent" points="47,-477 47,-495 105,-495 105,-477 47,-477"/>
<polygon fill="none" stroke="black" points="47,-477 47,-495 105,-495 105,-477 47,-477"/>
<text text-anchor="start" x="63" y="-483.2" font-family="Helvetica,sans-Serif" font-size="11.00">13 rows</text>
<polygon fill="#ffffff" stroke="transparent" points="105,-477 105,-495 140,-495 140,-477 105,-477"/>
<polygon fill="none" stroke="black" points="105,-477 105,-495 140,-495 140,-477 105,-477"/>
<text text-anchor="start" x="121" y="-483.2" font-family="Helvetica,sans-Serif" font-size="11.00">1 &gt;</text>
</a>
</g>
</g>
<!-- publications&#45;&gt;publicationtypes -->
<g id="edge11" class="edge">
<title>publications:w&#45;&gt;publicationtypes:e</title>
<path fill="none" stroke="black" d="M174.09,-504C163.32,-504 156.34,-504 141,-504"/>
<polygon fill="black" stroke="black" points="180.5,-504 188.5,-507.6 184.5,-504 188.5,-504 188.5,-504 188.5,-504 184.5,-504 188.5,-500.4 180.5,-504 180.5,-504"/>
<ellipse fill="none" stroke="black" cx="177.3" cy="-504" rx="3.2" ry="3.2"/>
</g>
<!-- datasetpublications -->
<g id="node3" class="node">
<title>datasetpublications</title>
<g id="a_node3"><a xlink:href="../../tables/datasetpublications.html" xlink:title="datasetpublications" target="_top">
<polygon fill="#ffffff" stroke="transparent" points="394.5,-814 394.5,-872 541.5,-872 541.5,-814 394.5,-814"/>
<polygon fill="#f5f5f5" stroke="transparent" points="395,-850 395,-872 542,-872 542,-850 395,-850"/>
<polygon fill="none" stroke="black" points="395,-850 395,-872 542,-872 542,-850 395,-850"/>
<text text-anchor="start" x="400" y="-859.2" font-family="Helvetica,sans-Serif" font-weight="bold" font-size="11.00">datasetpublications</text>
<text text-anchor="start" x="507" y="-858.2" font-family="Helvetica,sans-Serif" font-size="11.00">[table]</text>
<polygon fill="none" stroke="black" points="395,-832 395,-850 542,-850 542,-832 395,-832"/>
<text text-anchor="start" x="398" y="-838.2" font-family="Helvetica,sans-Serif" font-size="11.00">...</text>
<polygon fill="#ffffff" stroke="transparent" points="395,-814 395,-832 440,-832 440,-814 395,-814"/>
<polygon fill="none" stroke="black" points="395,-814 395,-832 440,-832 440,-814 395,-814"/>
<text text-anchor="start" x="398" y="-820.2" font-family="Helvetica,sans-Serif" font-size="11.00">&lt; 2</text>
<polygon fill="#ffffff" stroke="transparent" points="440,-814 440,-832 517,-832 517,-814 440,-814"/>
<polygon fill="none" stroke="black" points="440,-814 440,-832 517,-832 517,-814 440,-814"/>
<text text-anchor="start" x="454" y="-820.2" font-family="Helvetica,sans-Serif" font-size="11.00">58,986 rows</text>
<polygon fill="#ffffff" stroke="transparent" points="517,-814 517,-832 542,-832 542,-814 517,-814"/>
<polygon fill="none" stroke="black" points="517,-814 517,-832 542,-832 542,-814 517,-814"/>
<text text-anchor="start" x="532" y="-820.2" font-family="Helvetica,sans-Serif" font-size="11.00"> &#160;</text>
</a>
</g>
</g>
<!-- datasetpublications&#45;&gt;publications -->
<g id="edge2" class="edge">
<title>datasetpublications:w&#45;&gt;publications:e</title>
<path fill="none" stroke="black" d="M379.64,-838.59C366.78,-833.47 361.83,-820.59 353,-804 323.69,-748.91 375.9,-526 313.5,-526"/>
<polygon fill="black" stroke="black" points="386.11,-839.68 393.4,-844.55 390.06,-840.34 394,-841 394,-841 394,-841 390.06,-840.34 394.6,-837.45 386.11,-839.68 386.11,-839.68"/>
<ellipse fill="none" stroke="black" cx="382.95" cy="-839.15" rx="3.2" ry="3.2"/>
</g>
<!-- eventpublications -->
<g id="node4" class="node">
<title>eventpublications</title>
<g id="a_node4"><a xlink:href="../../tables/eventpublications.html" xlink:title="eventpublications" target="_top">
<polygon fill="#ffffff" stroke="transparent" points="399,-735 399,-793 537,-793 537,-735 399,-735"/>
<polygon fill="#f5f5f5" stroke="transparent" points="399,-771 399,-793 537,-793 537,-771 399,-771"/>
<polygon fill="none" stroke="black" points="399,-771 399,-793 537,-793 537,-771 399,-771"/>
<text text-anchor="start" x="404" y="-780.2" font-family="Helvetica,sans-Serif" font-weight="bold" font-size="11.00">eventpublications</text>
<text text-anchor="start" x="502" y="-779.2" font-family="Helvetica,sans-Serif" font-size="11.00">[table]</text>
<polygon fill="none" stroke="black" points="399,-753 399,-771 537,-771 537,-753 399,-753"/>
<text text-anchor="start" x="402" y="-759.2" font-family="Helvetica,sans-Serif" font-size="11.00">...</text>
<polygon fill="#ffffff" stroke="transparent" points="399,-735 399,-753 447,-753 447,-735 399,-735"/>
<polygon fill="none" stroke="black" points="399,-735 399,-753 447,-753 447,-735 399,-735"/>
<text text-anchor="start" x="402" y="-741.2" font-family="Helvetica,sans-Serif" font-size="11.00">&lt; 2</text>
<polygon fill="#ffffff" stroke="transparent" points="447,-735 447,-753 511,-753 511,-735 447,-735"/>
<polygon fill="none" stroke="black" points="447,-735 447,-753 511,-753 511,-735 447,-735"/>
<text text-anchor="start" x="463" y="-741.2" font-family="Helvetica,sans-Serif" font-size="11.00">378 rows</text>
<polygon fill="#ffffff" stroke="transparent" points="511,-735 511,-753 537,-753 537,-735 511,-735"/>
<polygon fill="none" stroke="black" points="511,-735 511,-753 537,-753 537,-735 511,-735"/>
<text text-anchor="start" x="527" y="-741.2" font-family="Helvetica,sans-Serif" font-size="11.00"> &#160;</text>
</a>
</g>
</g>
<!-- eventpublications&#45;&gt;publications -->
<g id="edge3" class="edge">
<title>eventpublications:w&#45;&gt;publications:e</title>
<path fill="none" stroke="black" d="M383.6,-759.95C369.21,-755.18 363.39,-742.36 353,-725 329.85,-686.31 358.58,-526 313.5,-526"/>
<polygon fill="black" stroke="black" points="390.08,-760.87 397.49,-765.56 394.04,-761.44 398,-762 398,-762 398,-762 394.04,-761.44 398.51,-758.44 390.08,-760.87 390.08,-760.87"/>
<ellipse fill="none" stroke="black" cx="386.91" cy="-760.42" rx="3.2" ry="3.2"/>
</g>
<!-- externalpublications -->
<g id="node5" class="node">
<title>externalpublications</title>
<g id="a_node5"><a xlink:href="../../tables/externalpublications.html" xlink:title="externalpublications" target="_top">
<polygon fill="#ffffff" stroke="transparent" points="392.5,-656 392.5,-714 543.5,-714 543.5,-656 392.5,-656"/>
<polygon fill="#f5f5f5" stroke="transparent" points="393,-692 393,-714 544,-714 544,-692 393,-692"/>
<polygon fill="none" stroke="black" points="393,-692 393,-714 544,-714 544,-692 393,-692"/>
<text text-anchor="start" x="398" y="-701.2" font-family="Helvetica,sans-Serif" font-weight="bold" font-size="11.00">externalpublications</text>
<text text-anchor="start" x="509" y="-700.2" font-family="Helvetica,sans-Serif" font-size="11.00">[table]</text>
<polygon fill="none" stroke="black" points="393,-674 393,-692 544,-692 544,-674 393,-674"/>
<text text-anchor="start" x="396" y="-680.2" font-family="Helvetica,sans-Serif" font-size="11.00">...</text>
<polygon fill="#ffffff" stroke="transparent" points="393,-656 393,-674 443,-674 443,-656 393,-656"/>
<polygon fill="none" stroke="black" points="393,-656 393,-674 443,-674 443,-656 393,-656"/>
<text text-anchor="start" x="396" y="-662.2" font-family="Helvetica,sans-Serif" font-size="11.00">&lt; 2</text>
<polygon fill="#ffffff" stroke="transparent" points="443,-656 443,-674 517,-674 517,-656 443,-656"/>
<polygon fill="none" stroke="black" points="443,-656 443,-674 517,-674 517,-656 443,-656"/>
<text text-anchor="start" x="460" y="-662.2" font-family="Helvetica,sans-Serif" font-size="11.00">1,317 rows</text>
<polygon fill="#ffffff" stroke="transparent" points="517,-656 517,-674 544,-674 544,-656 517,-656"/>
<polygon fill="none" stroke="black" points="517,-656 517,-674 544,-674 544,-656 517,-656"/>
<text text-anchor="start" x="534" y="-662.2" font-family="Helvetica,sans-Serif" font-size="11.00"> &#160;</text>
</a>
</g>
</g>
<!-- externalpublications&#45;&gt;publications -->
<g id="edge4" class="edge">
<title>externalpublications:w&#45;&gt;publications:e</title>
<path fill="none" stroke="black" d="M377.85,-680.01C365.79,-673.75 362.97,-658.47 353,-642 324.8,-595.41 367.96,-526 313.5,-526"/>
<polygon fill="black" stroke="black" points="384.17,-681.35 391.26,-686.52 388.09,-682.17 392,-683 392,-683 392,-683 388.09,-682.17 392.74,-679.48 384.17,-681.35 384.17,-681.35"/>
<ellipse fill="none" stroke="black" cx="381.04" cy="-680.69" rx="3.2" ry="3.2"/>
</g>
<!-- formtaxa -->
<g id="node6" class="node">
<title>formtaxa</title>
<g id="a_node6"><a xlink:href="../../tables/formtaxa.html" xlink:title="formtaxa" target="_top">
<polygon fill="#ffffff" stroke="transparent" points="629,-591 629,-649 720,-649 720,-591 629,-591"/>
<polygon fill="#f5f5f5" stroke="transparent" points="629.5,-627 629.5,-649 720.5,-649 720.5,-627 629.5,-627"/>
<polygon fill="none" stroke="black" points="629.5,-627 629.5,-649 720.5,-649 720.5,-627 629.5,-627"/>
<text text-anchor="start" x="634.5" y="-636.2" font-family="Helvetica,sans-Serif" font-weight="bold" font-size="11.00">formtaxa</text>
<text text-anchor="start" x="685.5" y="-635.2" font-family="Helvetica,sans-Serif" font-size="11.00">[table]</text>
<polygon fill="none" stroke="black" points="629.5,-609 629.5,-627 720.5,-627 720.5,-609 629.5,-609"/>
<text text-anchor="start" x="632.5" y="-615.2" font-family="Helvetica,sans-Serif" font-size="11.00">...</text>
<polygon fill="#ffffff" stroke="transparent" points="629.5,-591 629.5,-609 659.5,-609 659.5,-591 629.5,-591"/>
<polygon fill="none" stroke="black" points="629.5,-591 629.5,-609 659.5,-609 659.5,-591 629.5,-591"/>
<text text-anchor="start" x="632.5" y="-597.2" font-family="Helvetica,sans-Serif" font-size="11.00">&lt; 3</text>
<polygon fill="#ffffff" stroke="transparent" points="659.5,-591 659.5,-609 702.5,-609 702.5,-591 659.5,-591"/>
<polygon fill="none" stroke="black" points="659.5,-591 659.5,-609 702.5,-609 702.5,-591 659.5,-591"/>
<text text-anchor="start" x="666.5" y="-597.2" font-family="Helvetica,sans-Serif" font-size="11.00">3 rows</text>
<polygon fill="#ffffff" stroke="transparent" points="702.5,-591 702.5,-609 720.5,-609 720.5,-591 702.5,-591"/>
<polygon fill="none" stroke="black" points="702.5,-591 702.5,-609 720.5,-609 720.5,-591 702.5,-591"/>
<text text-anchor="start" x="710.5" y="-597.2" font-family="Helvetica,sans-Serif" font-size="11.00"> &#160;</text>
</a>
</g>
</g>
<!-- formtaxa&#45;&gt;publications -->
<g id="edge6" class="edge">
<title>formtaxa:w&#45;&gt;publications:e</title>
<path fill="none" stroke="black" d="M613.71,-618.51C544.27,-622.67 400.37,-650.34 353,-619 315.55,-594.22 358.41,-526 313.5,-526"/>
<polygon fill="black" stroke="black" points="620.5,-618.27 628.62,-621.6 624.5,-618.14 628.5,-618 628.5,-618 628.5,-618 624.5,-618.14 628.38,-614.4 620.5,-618.27 620.5,-618.27"/>
<ellipse fill="none" stroke="black" cx="617.31" cy="-618.38" rx="3.2" ry="3.2"/>
</g>
<!-- taxa -->
<g id="node7" class="node">
<title>taxa</title>
<g id="a_node7"><a xlink:href="../../tables/taxa.html" xlink:title="taxa" target="_top">
<polygon fill="#ffffff" stroke="transparent" points="410,-550 410,-608 526,-608 526,-550 410,-550"/>
<polygon fill="#f5f5f5" stroke="transparent" points="410,-586 410,-608 526,-608 526,-586 410,-586"/>
<polygon fill="none" stroke="black" points="410,-586 410,-608 526,-608 526,-586 410,-586"/>
<text text-anchor="start" x="415" y="-595.2" font-family="Helvetica,sans-Serif" font-weight="bold" font-size="11.00">taxa</text>
<text text-anchor="start" x="491" y="-594.2" font-family="Helvetica,sans-Serif" font-size="11.00">[table]</text>
<polygon fill="none" stroke="black" points="410,-568 410,-586 526,-586 526,-568 410,-568"/>
<text text-anchor="start" x="413" y="-574.2" font-family="Helvetica,sans-Serif" font-size="11.00">...</text>
<polygon fill="#ffffff" stroke="transparent" points="410,-550 410,-568 432,-568 432,-550 410,-550"/>
<polygon fill="none" stroke="black" points="410,-550 410,-568 432,-568 432,-550 410,-550"/>
<text text-anchor="start" x="413" y="-556.2" font-family="Helvetica,sans-Serif" font-size="11.00">&lt; 4</text>
<polygon fill="#ffffff" stroke="transparent" points="432,-550 432,-568 498,-568 498,-550 432,-550"/>
<polygon fill="none" stroke="black" points="432,-550 432,-568 498,-568 498,-550 432,-550"/>
<text text-anchor="start" x="435" y="-556.2" font-family="Helvetica,sans-Serif" font-size="11.00">46,322 rows</text>
<polygon fill="#ffffff" stroke="transparent" points="498,-550 498,-568 526,-568 526,-550 498,-550"/>
<polygon fill="none" stroke="black" points="498,-550 498,-568 526,-568 526,-550 498,-550"/>
<text text-anchor="start" x="501" y="-556.2" font-family="Helvetica,sans-Serif" font-size="11.00">17 &gt;</text>
</a>
</g>
</g>
<!-- formtaxa&#45;&gt;taxa -->
<g id="edge5" class="edge">
<title>formtaxa:w&#45;&gt;taxa:e</title>
<path fill="none" stroke="black" d="M614.02,-614.88C578.4,-603.59 570.33,-571.66 527,-577"/>
<polygon fill="black" stroke="black" points="620.68,-616.32 627.74,-621.52 624.59,-617.16 628.5,-618 628.5,-618 628.5,-618 624.59,-617.16 629.26,-614.48 620.68,-616.32 620.68,-616.32"/>
<ellipse fill="none" stroke="black" cx="617.55" cy="-615.64" rx="3.2" ry="3.2"/>
</g>
<!-- formtaxa&#45;&gt;taxa -->
<g id="edge7" class="edge">
<title>formtaxa:w&#45;&gt;taxa:e</title>
<path fill="none" stroke="black" d="M614.02,-618.68C578.4,-616.44 570.33,-583.23 527,-577"/>
<polygon fill="black" stroke="black" points="620.51,-618.38 628.67,-621.6 624.5,-618.19 628.5,-618 628.5,-618 628.5,-618 624.5,-618.19 628.33,-614.4 620.51,-618.38 620.51,-618.38"/>
<ellipse fill="none" stroke="black" cx="617.31" cy="-618.53" rx="3.2" ry="3.2"/>
</g>
<!-- taxa&#45;&gt;publications -->
<g id="edge18" class="edge">
<title>taxa:w&#45;&gt;publications:e</title>
<path fill="none" stroke="black" d="M394.39,-575.18C360.42,-566.1 356.17,-526 313.5,-526"/>
<polygon fill="black" stroke="black" points="401.06,-576.01 408.56,-580.57 405.03,-576.51 409,-577 409,-577 409,-577 405.03,-576.51 409.44,-573.43 401.06,-576.01 401.06,-576.01"/>
<ellipse fill="none" stroke="black" cx="397.89" cy="-575.62" rx="3.2" ry="3.2"/>
</g>
<!-- geochronpublications -->
<g id="node8" class="node">
<title>geochronpublications</title>
<g id="a_node8"><a xlink:href="../../tables/geochronpublications.html" xlink:title="geochronpublications" target="_top">
<polygon fill="#ffffff" stroke="transparent" points="388.5,-444 388.5,-502 547.5,-502 547.5,-444 388.5,-444"/>
<polygon fill="#f5f5f5" stroke="transparent" points="389,-480 389,-502 548,-502 548,-480 389,-480"/>
<polygon fill="none" stroke="black" points="389,-480 389,-502 548,-502 548,-480 389,-480"/>
<text text-anchor="start" x="394" y="-489.2" font-family="Helvetica,sans-Serif" font-weight="bold" font-size="11.00">geochronpublications</text>
<text text-anchor="start" x="513" y="-488.2" font-family="Helvetica,sans-Serif" font-size="11.00">[table]</text>
<polygon fill="none" stroke="black" points="389,-462 389,-480 548,-480 548,-462 389,-462"/>
<text text-anchor="start" x="392" y="-468.2" font-family="Helvetica,sans-Serif" font-size="11.00">...</text>
<polygon fill="#ffffff" stroke="transparent" points="389,-444 389,-462 440,-462 440,-444 389,-444"/>
<polygon fill="none" stroke="black" points="389,-444 389,-462 440,-462 440,-444 389,-444"/>
<text text-anchor="start" x="392" y="-450.2" font-family="Helvetica,sans-Serif" font-size="11.00">&lt; 2</text>
<polygon fill="#ffffff" stroke="transparent" points="440,-444 440,-462 520,-462 520,-444 440,-444"/>
<polygon fill="none" stroke="black" points="440,-444 440,-462 520,-462 520,-444 440,-444"/>
<text text-anchor="start" x="457" y="-450.2" font-family="Helvetica,sans-Serif" font-size="11.00">36,183 rows</text>
<polygon fill="#ffffff" stroke="transparent" points="520,-444 520,-462 548,-462 548,-444 520,-444"/>
<polygon fill="none" stroke="black" points="520,-444 520,-462 548,-462 548,-444 520,-444"/>
<text text-anchor="start" x="538" y="-450.2" font-family="Helvetica,sans-Serif" font-size="11.00"> &#160;</text>
</a>
</g>
</g>
<!-- geochronpublications&#45;&gt;publications -->
<g id="edge8" class="edge">
<title>geochronpublications:w&#45;&gt;publications:e</title>
<path fill="none" stroke="black" d="M373.62,-473.8C348.06,-485.01 349.03,-526 313.5,-526"/>
<polygon fill="black" stroke="black" points="380.15,-472.53 388.69,-474.53 384.07,-471.77 388,-471 388,-471 388,-471 384.07,-471.77 387.31,-467.47 380.15,-472.53 380.15,-472.53"/>
<ellipse fill="none" stroke="black" cx="377.01" cy="-473.14" rx="3.2" ry="3.2"/>
</g>
<!-- publicationauthors -->
<g id="node9" class="node">
<title>publicationauthors</title>
<g id="a_node9"><a xlink:href="../../tables/publicationauthors.html" xlink:title="publicationauthors" target="_top">
<polygon fill="#ffffff" stroke="transparent" points="396,-365 396,-423 540,-423 540,-365 396,-365"/>
<polygon fill="#f5f5f5" stroke="transparent" points="396,-401 396,-423 540,-423 540,-401 396,-401"/>
<polygon fill="none" stroke="black" points="396,-401 396,-423 540,-423 540,-401 396,-401"/>
<text text-anchor="start" x="401" y="-410.2" font-family="Helvetica,sans-Serif" font-weight="bold" font-size="11.00">publicationauthors</text>
<text text-anchor="start" x="505" y="-409.2" font-family="Helvetica,sans-Serif" font-size="11.00">[table]</text>
<polygon fill="none" stroke="black" points="396,-383 396,-401 540,-401 540,-383 396,-383"/>
<text text-anchor="start" x="399" y="-389.2" font-family="Helvetica,sans-Serif" font-size="11.00">...</text>
<polygon fill="#ffffff" stroke="transparent" points="396,-365 396,-383 439,-383 439,-365 396,-365"/>
<polygon fill="none" stroke="black" points="396,-365 396,-383 439,-383 439,-365 396,-365"/>
<text text-anchor="start" x="399" y="-371.2" font-family="Helvetica,sans-Serif" font-size="11.00">&lt; 2</text>
<polygon fill="#ffffff" stroke="transparent" points="439,-365 439,-383 516,-383 516,-365 439,-365"/>
<polygon fill="none" stroke="black" points="439,-365 439,-383 516,-383 516,-365 439,-365"/>
<text text-anchor="start" x="453" y="-371.2" font-family="Helvetica,sans-Serif" font-size="11.00">30,625 rows</text>
<polygon fill="#ffffff" stroke="transparent" points="516,-365 516,-383 540,-383 540,-365 516,-365"/>
<polygon fill="none" stroke="black" points="516,-365 516,-383 540,-383 540,-365 516,-365"/>
<text text-anchor="start" x="530" y="-371.2" font-family="Helvetica,sans-Serif" font-size="11.00"> &#160;</text>
</a>
</g>
</g>
<!-- publicationauthors&#45;&gt;publications -->
<g id="edge9" class="edge">
<title>publicationauthors:w&#45;&gt;publications:e</title>
<path fill="none" stroke="black" d="M380.54,-394.89C367.52,-401.22 364.45,-417.1 353,-434 328.04,-470.84 358,-526 313.5,-526"/>
<polygon fill="black" stroke="black" points="387.15,-393.57 395.71,-395.53 391.08,-392.78 395,-392 395,-392 395,-392 391.08,-392.78 394.29,-388.47 387.15,-393.57 387.15,-393.57"/>
<ellipse fill="none" stroke="black" cx="384.02" cy="-394.19" rx="3.2" ry="3.2"/>
</g>
<!-- publicationeditors -->
<g id="node10" class="node">
<title>publicationeditors</title>
<g id="a_node10"><a xlink:href="../../tables/publicationeditors.html" xlink:title="publicationeditors" target="_top">
<polygon fill="#ffffff" stroke="transparent" points="398,-286 398,-344 538,-344 538,-286 398,-286"/>
<polygon fill="#f5f5f5" stroke="transparent" points="398,-322 398,-344 538,-344 538,-322 398,-322"/>
<polygon fill="none" stroke="black" points="398,-322 398,-344 538,-344 538,-322 398,-322"/>
<text text-anchor="start" x="403" y="-331.2" font-family="Helvetica,sans-Serif" font-weight="bold" font-size="11.00">publicationeditors</text>
<text text-anchor="start" x="503" y="-330.2" font-family="Helvetica,sans-Serif" font-size="11.00">[table]</text>
<polygon fill="none" stroke="black" points="398,-304 398,-322 538,-322 538,-304 398,-304"/>
<text text-anchor="start" x="401" y="-310.2" font-family="Helvetica,sans-Serif" font-size="11.00">...</text>
<polygon fill="#ffffff" stroke="transparent" points="398,-286 398,-304 442,-304 442,-286 398,-286"/>
<polygon fill="none" stroke="black" points="398,-286 398,-304 442,-304 442,-286 398,-286"/>
<text text-anchor="start" x="401" y="-292.2" font-family="Helvetica,sans-Serif" font-size="11.00">&lt; 1</text>
<polygon fill="#ffffff" stroke="transparent" points="442,-286 442,-304 513,-304 513,-286 442,-286"/>
<polygon fill="none" stroke="black" points="442,-286 442,-304 513,-304 513,-286 442,-286"/>
<text text-anchor="start" x="456" y="-292.2" font-family="Helvetica,sans-Serif" font-size="11.00">1,466 rows</text>
<polygon fill="#ffffff" stroke="transparent" points="513,-286 513,-304 538,-304 538,-286 513,-286"/>
<polygon fill="none" stroke="black" points="513,-286 513,-304 538,-304 538,-286 513,-286"/>
<text text-anchor="start" x="528" y="-292.2" font-family="Helvetica,sans-Serif" font-size="11.00"> &#160;</text>
</a>
</g>
</g>
<!-- publicationeditors&#45;&gt;publications -->
<g id="edge10" class="edge">
<title>publicationeditors:w&#45;&gt;publications:e</title>
<path fill="none" stroke="black" d="M382.71,-315.34C368.02,-321.03 363.56,-336.46 353,-355 314.39,-422.77 391.5,-526 313.5,-526"/>
<polygon fill="black" stroke="black" points="389.11,-314.29 397.58,-316.55 393.05,-313.65 397,-313 397,-313 397,-313 393.05,-313.65 396.42,-309.45 389.11,-314.29 389.11,-314.29"/>
<ellipse fill="none" stroke="black" cx="385.95" cy="-314.81" rx="3.2" ry="3.2"/>
</g>
<!-- publicationtranslators -->
<g id="node12" class="node">
<title>publicationtranslators</title>
<g id="a_node12"><a xlink:href="../../tables/publicationtranslators.html" xlink:title="publicationtranslators" target="_top">
<polygon fill="#ffffff" stroke="transparent" points="388,-207 388,-265 548,-265 548,-207 388,-207"/>
<polygon fill="#f5f5f5" stroke="transparent" points="388,-243 388,-265 548,-265 548,-243 388,-243"/>
<polygon fill="none" stroke="black" points="388,-243 388,-265 548,-265 548,-243 388,-243"/>
<text text-anchor="start" x="393" y="-252.2" font-family="Helvetica,sans-Serif" font-weight="bold" font-size="11.00">publicationtranslators</text>
<text text-anchor="start" x="513" y="-251.2" font-family="Helvetica,sans-Serif" font-size="11.00">[table]</text>
<polygon fill="none" stroke="black" points="388,-225 388,-243 548,-243 548,-225 388,-225"/>
<text text-anchor="start" x="391" y="-231.2" font-family="Helvetica,sans-Serif" font-size="11.00">...</text>
<polygon fill="#ffffff" stroke="transparent" points="388,-207 388,-225 453,-225 453,-207 388,-207"/>
<polygon fill="none" stroke="black" points="388,-207 388,-225 453,-225 453,-207 388,-207"/>
<text text-anchor="start" x="391" y="-213.2" font-family="Helvetica,sans-Serif" font-size="11.00">&lt; 1</text>
<polygon fill="#ffffff" stroke="transparent" points="453,-207 453,-225 513,-225 513,-207 453,-207"/>
<polygon fill="none" stroke="black" points="453,-207 453,-225 513,-225 513,-207 453,-207"/>
<text text-anchor="start" x="477" y="-213.2" font-family="Helvetica,sans-Serif" font-size="11.00">4 rows</text>
<polygon fill="#ffffff" stroke="transparent" points="513,-207 513,-225 548,-225 548,-207 513,-207"/>
<polygon fill="none" stroke="black" points="513,-207 513,-225 548,-225 548,-207 513,-207"/>
<text text-anchor="start" x="538" y="-213.2" font-family="Helvetica,sans-Serif" font-size="11.00"> &#160;</text>
</a>
</g>
</g>
<!-- publicationtranslators&#45;&gt;publications -->
<g id="edge12" class="edge">
<title>publicationtranslators:w&#45;&gt;publications:e</title>
<path fill="none" stroke="black" d="M372.93,-237.48C362.28,-244.15 360.32,-259.54 353,-276 330.14,-327.39 369.74,-526 313.5,-526"/>
<polygon fill="black" stroke="black" points="379.23,-235.92 387.86,-237.49 383.12,-234.96 387,-234 387,-234 387,-234 383.12,-234.96 386.14,-230.51 379.23,-235.92 379.23,-235.92"/>
<ellipse fill="none" stroke="black" cx="376.13" cy="-236.69" rx="3.2" ry="3.2"/>
</g>
<!-- pubtsv -->
<g id="node13" class="node">
<title>pubtsv</title>
<g id="a_node13"><a xlink:href="../../tables/pubtsv.html" xlink:title="pubtsv" target="_top">
<polygon fill="#ffffff" stroke="transparent" points="361,-116 361,-186 575,-186 575,-116 361,-116"/>
<polygon fill="#f5f5f5" stroke="transparent" points="363,-162 363,-184 573,-184 573,-162 363,-162"/>
<polygon fill="none" stroke="black" points="363,-162 363,-184 573,-184 573,-162 363,-162"/>
<text text-anchor="start" x="368" y="-171.2" font-family="Helvetica,sans-Serif" font-weight="bold" font-size="11.00">pubtsv</text>
<text text-anchor="start" x="540" y="-170.2" font-family="Helvetica,sans-Serif" font-size="11.00">[view]</text>
<polygon fill="none" stroke="black" points="363,-140 363,-162 463,-162 463,-140 363,-140"/>
<image xlink:href="../../images/foreignKeys.png" width="11px" height="12px" preserveAspectRatio="xMinYMin meet" x="368" y="-157"/>
<text text-anchor="start" x="383" y="-148.2" font-family="Helvetica,sans-Serif" font-size="11.00">publicationid</text>
<polygon fill="none" stroke="black" points="463,-140 463,-162 573,-162 573,-140 463,-140"/>
<text text-anchor="start" x="466" y="-148.2" font-family="Helvetica,sans-Serif" font-size="11.00">int4[10]</text>
<polygon fill="none" stroke="black" points="363,-118 363,-140 463,-140 463,-118 363,-118"/>
<text text-anchor="start" x="383" y="-126.2" font-family="Helvetica,sans-Serif" font-size="11.00">pubtsv</text>
<polygon fill="none" stroke="black" points="463,-118 463,-140 573,-140 573,-118 463,-118"/>
<text text-anchor="start" x="466" y="-126.2" font-family="Helvetica,sans-Serif" font-size="11.00">tsvector[2147483647]</text>
<polygon fill="none" stroke="black" stroke-width="2" points="362,-117 362,-185 574,-185 574,-117 362,-117"/>
</a>
</g>
</g>
<!-- pubtsv&#45;&gt;publications -->
<g id="edge13" class="edge">
<title>pubtsv:w&#45;&gt;publications:e</title>
<path fill="none" stroke="black" stroke-dasharray="5,2" d="M348.18,-155.47C292.54,-197.78 392.11,-526 313.5,-526"/>
<polygon fill="black" stroke="black" points="354.39,-153.46 363.11,-154.43 358.19,-152.23 362,-151 362,-151 362,-151 358.19,-152.23 360.89,-147.57 354.39,-153.46 354.39,-153.46"/>
<ellipse fill="none" stroke="black" cx="351.34" cy="-154.45" rx="3.2" ry="3.2"/>
</g>
<!-- relativeagepublications -->
<g id="node14" class="node">
<title>relativeagepublications</title>
<g id="a_node14"><a xlink:href="../../tables/relativeagepublications.html" xlink:title="relativeagepublications" target="_top">
<polygon fill="#ffffff" stroke="transparent" points="385,-37 385,-95 551,-95 551,-37 385,-37"/>
<polygon fill="#f5f5f5" stroke="transparent" points="385,-73 385,-95 551,-95 551,-73 385,-73"/>
<polygon fill="none" stroke="black" points="385,-73 385,-95 551,-95 551,-73 385,-73"/>
<text text-anchor="start" x="390" y="-82.2" font-family="Helvetica,sans-Serif" font-weight="bold" font-size="11.00">relativeagepublications</text>
<text text-anchor="start" x="516" y="-81.2" font-family="Helvetica,sans-Serif" font-size="11.00">[table]</text>
<polygon fill="none" stroke="black" points="385,-55 385,-73 551,-73 551,-55 385,-55"/>
<text text-anchor="start" x="388" y="-61.2" font-family="Helvetica,sans-Serif" font-size="11.00">...</text>
<polygon fill="#ffffff" stroke="transparent" points="385,-37 385,-55 447,-55 447,-37 385,-37"/>
<polygon fill="none" stroke="black" points="385,-37 385,-55 447,-55 447,-37 385,-37"/>
<text text-anchor="start" x="388" y="-43.2" font-family="Helvetica,sans-Serif" font-size="11.00">&lt; 2</text>
<polygon fill="#ffffff" stroke="transparent" points="447,-37 447,-55 518,-55 518,-37 447,-37"/>
<polygon fill="none" stroke="black" points="447,-37 447,-55 518,-55 518,-37 447,-37"/>
<text text-anchor="start" x="470" y="-43.2" font-family="Helvetica,sans-Serif" font-size="11.00">115 rows</text>
<polygon fill="#ffffff" stroke="transparent" points="518,-37 518,-55 551,-55 551,-37 518,-37"/>
<polygon fill="none" stroke="black" points="518,-37 518,-55 551,-55 551,-37 518,-37"/>
<text text-anchor="start" x="541" y="-43.2" font-family="Helvetica,sans-Serif" font-size="11.00"> &#160;</text>
</a>
</g>
</g>
<!-- relativeagepublications&#45;&gt;publications -->
<g id="edge14" class="edge">
<title>relativeagepublications:w&#45;&gt;publications:e</title>
<path fill="none" stroke="black" d="M369.92,-67.95C360.44,-74.89 359.08,-90.08 353,-106 336.28,-149.79 360.37,-526 313.5,-526"/>
<polygon fill="black" stroke="black" points="376.3,-66.16 384.97,-67.47 380.15,-65.08 384,-64 384,-64 384,-64 380.15,-65.08 383.03,-60.53 376.3,-66.16 376.3,-66.16"/>
<ellipse fill="none" stroke="black" cx="373.22" cy="-67.02" rx="3.2" ry="3.2"/>
</g>
<!-- synonymy -->
<g id="node15" class="node">
<title>synonymy</title>
<g id="a_node15"><a xlink:href="../../tables/synonymy.html" xlink:title="synonymy" target="_top">
<polygon fill="#ffffff" stroke="transparent" points="624,-512 624,-570 725,-570 725,-512 624,-512"/>
<polygon fill="#f5f5f5" stroke="transparent" points="624.5,-548 624.5,-570 725.5,-570 725.5,-548 624.5,-548"/>
<polygon fill="none" stroke="black" points="624.5,-548 624.5,-570 725.5,-570 725.5,-548 624.5,-548"/>
<text text-anchor="start" x="629.5" y="-557.2" font-family="Helvetica,sans-Serif" font-weight="bold" font-size="11.00">synonymy</text>
<text text-anchor="start" x="690.5" y="-556.2" font-family="Helvetica,sans-Serif" font-size="11.00">[table]</text>
<polygon fill="none" stroke="black" points="624.5,-530 624.5,-548 725.5,-548 725.5,-530 624.5,-530"/>
<text text-anchor="start" x="627.5" y="-536.2" font-family="Helvetica,sans-Serif" font-size="11.00">...</text>
<polygon fill="#ffffff" stroke="transparent" points="624.5,-512 624.5,-530 646.5,-530 646.5,-512 624.5,-512"/>
<polygon fill="none" stroke="black" points="624.5,-512 624.5,-530 646.5,-530 646.5,-512 624.5,-512"/>
<text text-anchor="start" x="627.5" y="-518.2" font-family="Helvetica,sans-Serif" font-size="11.00">&lt; 5</text>
<polygon fill="#ffffff" stroke="transparent" points="646.5,-512 646.5,-530 712.5,-530 712.5,-512 646.5,-512"/>
<polygon fill="none" stroke="black" points="646.5,-512 646.5,-530 712.5,-530 712.5,-512 646.5,-512"/>
<text text-anchor="start" x="649.5" y="-518.2" font-family="Helvetica,sans-Serif" font-size="11.00">37,992 rows</text>
<polygon fill="#ffffff" stroke="transparent" points="712.5,-512 712.5,-530 725.5,-530 725.5,-512 712.5,-512"/>
<polygon fill="none" stroke="black" points="712.5,-512 712.5,-530 725.5,-530 725.5,-512 712.5,-512"/>
<text text-anchor="start" x="715.5" y="-518.2" font-family="Helvetica,sans-Serif" font-size="11.00"> &#160;</text>
</a>
</g>
</g>
<!-- synonymy&#45;&gt;publications -->
<g id="edge15" class="edge">
<title>synonymy:w&#45;&gt;publications:e</title>
<path fill="none" stroke="black" d="M608.95,-538.95C482.99,-538.08 446.42,-526 313.5,-526"/>
<polygon fill="black" stroke="black" points="615.5,-538.97 623.49,-542.6 619.5,-538.99 623.5,-539 623.5,-539 623.5,-539 619.5,-538.99 623.51,-535.4 615.5,-538.97 615.5,-538.97"/>
<ellipse fill="none" stroke="black" cx="612.3" cy="-538.96" rx="3.2" ry="3.2"/>
</g>
<!-- synonymy&#45;&gt;taxa -->
<g id="edge16" class="edge">
<title>synonymy:w&#45;&gt;taxa:e</title>
<path fill="none" stroke="black" d="M608.88,-538.58C575.82,-541.47 567.69,-571.7 527,-577"/>
<polygon fill="black" stroke="black" points="615.5,-538.77 623.4,-542.6 619.5,-538.89 623.5,-539 623.5,-539 623.5,-539 619.5,-538.89 623.6,-535.4 615.5,-538.77 615.5,-538.77"/>
<ellipse fill="none" stroke="black" cx="612.3" cy="-538.68" rx="3.2" ry="3.2"/>
</g>
<!-- synonymy&#45;&gt;taxa -->
<g id="edge17" class="edge">
<title>synonymy:w&#45;&gt;taxa:e</title>
<path fill="none" stroke="black" d="M609.32,-542.46C575.89,-554.03 567.87,-583.21 527,-577"/>
<polygon fill="black" stroke="black" points="615.73,-540.9 624.35,-542.5 619.61,-539.95 623.5,-539 623.5,-539 623.5,-539 619.61,-539.95 622.65,-535.5 615.73,-540.9 615.73,-540.9"/>
<ellipse fill="none" stroke="black" cx="612.62" cy="-541.66" rx="3.2" ry="3.2"/>
</g>
</g>
</svg>
