<?xml version="1.0" encoding="UTF-8" standalone="no"?>
<!DOCTYPE svg PUBLIC "-//W3C//DTD SVG 1.1//EN"
 "http://www.w3.org/Graphics/SVG/1.1/DTD/svg11.dtd">
<!-- Generated by graphviz version 2.43.0 (0)
 -->
<!-- Title: oneDegreeRelationshipsDiagram Pages: 1 -->
<svg width="238pt" height="119pt"
 viewBox="0.00 0.00 238.00 119.00" xmlns="http://www.w3.org/2000/svg" xmlns:xlink="http://www.w3.org/1999/xlink">
<g id="graph0" class="graph" transform="scale(1 1) rotate(0) translate(4 115)">
<title>oneDegreeRelationshipsDiagram</title>
<polygon fill="#ffffff" stroke="transparent" points="-4,4 -4,-115 234,-115 234,4 -4,4"/>
<text text-anchor="middle" x="71.5" y="-7.2" font-family="Helvetica,sans-Serif" font-size="11.00">Generated by SchemaSpy</text>
<!-- pubtsv -->
<g id="node1" class="node">
<title>pubtsv</title>
<g id="a_node1"><a xlink:href="../../tables/pubtsv.html" xlink:title="pubtsv" target="_top">
<polygon fill="#ffffff" stroke="transparent" points="8,-37 8,-107 222,-107 222,-37 8,-37"/>
<polygon fill="#f5f5f5" stroke="transparent" points="10,-83 10,-105 220,-105 220,-83 10,-83"/>
<polygon fill="none" stroke="black" points="10,-83 10,-105 220,-105 220,-83 10,-83"/>
<text text-anchor="start" x="15" y="-92.2" font-family="Helvetica,sans-Serif" font-weight="bold" font-size="11.00">pubtsv</text>
<text text-anchor="start" x="187" y="-91.2" font-family="Helvetica,sans-Serif" font-size="11.00">[view]</text>
<polygon fill="none" stroke="black" points="10,-61 10,-83 110,-83 110,-61 10,-61"/>
<image xlink:href="../../images/foreignKeys.png" width="11px" height="12px" preserveAspectRatio="xMinYMin meet" x="15" y="-78"/>
<text text-anchor="start" x="30" y="-69.2" font-family="Helvetica,sans-Serif" font-size="11.00">publicationid</text>
<polygon fill="none" stroke="black" points="110,-61 110,-83 220,-83 220,-61 110,-61"/>
<text text-anchor="start" x="113" y="-69.2" font-family="Helvetica,sans-Serif" font-size="11.00">int4[10]</text>
<polygon fill="none" stroke="black" points="10,-39 10,-61 110,-61 110,-39 10,-39"/>
<text text-anchor="start" x="30" y="-47.2" font-family="Helvetica,sans-Serif" font-size="11.00">pubtsv</text>
<polygon fill="none" stroke="black" points="110,-39 110,-61 220,-61 220,-39 110,-39"/>
<text text-anchor="start" x="113" y="-47.2" font-family="Helvetica,sans-Serif" font-size="11.00">tsvector[2147483647]</text>
<polygon fill="none" stroke="black" stroke-width="2" points="9,-38 9,-106 221,-106 221,-38 9,-38"/>
</a>
</g>
</g>
</g>
</svg>
