<?xml version="1.0" encoding="UTF-8" standalone="no"?>
<!DOCTYPE svg PUBLIC "-//W3C//DTD SVG 1.1//EN"
 "http://www.w3.org/Graphics/SVG/1.1/DTD/svg11.dtd">
<!-- Generated by graphviz version 2.43.0 (0)
 -->
<!-- Title: twoDegreesRelationshipsDiagram Pages: 1 -->
<svg width="629pt" height="595pt"
 viewBox="0.00 0.00 629.00 595.00" xmlns="http://www.w3.org/2000/svg" xmlns:xlink="http://www.w3.org/1999/xlink">
<g id="graph0" class="graph" transform="scale(1 1) rotate(0) translate(4 591)">
<title>twoDegreesRelationshipsDiagram</title>
<polygon fill="#ffffff" stroke="transparent" points="-4,4 -4,-591 625,-591 625,4 -4,4"/>
<text text-anchor="middle" x="71.5" y="-7.2" font-family="Helvetica,sans-Serif" font-size="11.00">Generated by SchemaSpy</text>
<!-- geochroncontrols -->
<g id="node1" class="node">
<title>geochroncontrols</title>
<g id="a_node1"><a xlink:href="../../tables/geochroncontrols.html" xlink:title="geochroncontrols" target="_top">
<polygon fill="#ffffff" stroke="transparent" points="429,-446 429,-504 567,-504 567,-446 429,-446"/>
<polygon fill="#f5f5f5" stroke="transparent" points="429,-482 429,-504 567,-504 567,-482 429,-482"/>
<polygon fill="none" stroke="black" points="429,-482 429,-504 567,-504 567,-482 429,-482"/>
<text text-anchor="start" x="434" y="-491.2" font-family="Helvetica,sans-Serif" font-weight="bold" font-size="11.00">geochroncontrols</text>
<text text-anchor="start" x="532" y="-490.2" font-family="Helvetica,sans-Serif" font-size="11.00">[table]</text>
<polygon fill="none" stroke="black" points="429,-464 429,-482 567,-482 567,-464 429,-464"/>
<text text-anchor="start" x="432" y="-470.2" font-family="Helvetica,sans-Serif" font-size="11.00">...</text>
<polygon fill="#ffffff" stroke="transparent" points="429,-446 429,-464 469,-464 469,-446 429,-446"/>
<polygon fill="none" stroke="black" points="429,-446 429,-464 469,-464 469,-446 429,-446"/>
<text text-anchor="start" x="432" y="-452.2" font-family="Helvetica,sans-Serif" font-size="11.00">&lt; 2</text>
<polygon fill="#ffffff" stroke="transparent" points="469,-446 469,-464 544,-464 544,-446 469,-446"/>
<polygon fill="none" stroke="black" points="469,-446 469,-464 544,-464 544,-446 469,-446"/>
<text text-anchor="start" x="481" y="-452.2" font-family="Helvetica,sans-Serif" font-size="11.00">43,605 rows</text>
<polygon fill="#ffffff" stroke="transparent" points="544,-446 544,-464 567,-464 567,-446 544,-446"/>
<polygon fill="none" stroke="black" points="544,-446 544,-464 567,-464 567,-446 544,-446"/>
<text text-anchor="start" x="557" y="-452.2" font-family="Helvetica,sans-Serif" font-size="11.00"> &#160;</text>
</a>
</g>
</g>
<!-- geochronology -->
<g id="node2" class="node">
<title>geochronology</title>
<g id="a_node2"><a xlink:href="../../tables/geochronology.html" xlink:title="geochronology" target="_top">
<polygon fill="#ffffff" stroke="transparent" points="195,-340 195,-508 319,-508 319,-340 195,-340"/>
<polygon fill="#f5f5f5" stroke="transparent" points="195,-486 195,-508 319,-508 319,-486 195,-486"/>
<polygon fill="none" stroke="black" points="195,-486 195,-508 319,-508 319,-486 195,-486"/>
<text text-anchor="start" x="200" y="-495.2" font-family="Helvetica,sans-Serif" font-weight="bold" font-size="11.00">geochronology</text>
<text text-anchor="start" x="284" y="-494.2" font-family="Helvetica,sans-Serif" font-size="11.00">[table]</text>
<polygon fill="none" stroke="black" points="195,-464 195,-486 319,-486 319,-464 195,-464"/>
<image xlink:href="../../images/primaryKeys.png" width="11px" height="12px" preserveAspectRatio="xMinYMin meet" x="200" y="-481"/>
<text text-anchor="start" x="217" y="-472.2" font-family="Helvetica,sans-Serif" font-size="11.00">geochronid</text>
<polygon fill="#ffffff" stroke="transparent" points="195,-442 195,-464 319,-464 319,-442 195,-442"/>
<polygon fill="none" stroke="black" points="195,-442 195,-464 319,-464 319,-442 195,-442"/>
<image xlink:href="../../images/foreignKeys.png" width="11px" height="12px" preserveAspectRatio="xMinYMin meet" x="200" y="-459"/>
<text text-anchor="start" x="217" y="-450.2" font-family="Helvetica,sans-Serif" font-size="11.00">sampleid</text>
<polygon fill="none" stroke="black" points="195,-420 195,-442 319,-442 319,-420 195,-420"/>
<image xlink:href="../../images/foreignKeys.png" width="11px" height="12px" preserveAspectRatio="xMinYMin meet" x="200" y="-437"/>
<text text-anchor="start" x="217" y="-428.2" font-family="Helvetica,sans-Serif" font-size="11.00">geochrontypeid</text>
<polygon fill="none" stroke="black" points="195,-398 195,-420 319,-420 319,-398 195,-398"/>
<image xlink:href="../../images/foreignKeys.png" width="11px" height="12px" preserveAspectRatio="xMinYMin meet" x="200" y="-415"/>
<text text-anchor="start" x="217" y="-406.2" font-family="Helvetica,sans-Serif" font-size="11.00">agetypeid</text>
<polygon fill="#ffffff" stroke="transparent" points="195,-376 195,-398 319,-398 319,-376 195,-376"/>
<polygon fill="none" stroke="black" points="195,-376 195,-398 319,-398 319,-376 195,-376"/>
<text text-anchor="start" x="217" y="-384.2" font-family="Helvetica,sans-Serif" font-size="11.00">age</text>
<polygon fill="none" stroke="black" points="195,-358 195,-376 319,-376 319,-358 195,-358"/>
<text text-anchor="start" x="198" y="-364.2" font-family="Helvetica,sans-Serif" font-size="11.00">...</text>
<polygon fill="#ffffff" stroke="transparent" points="195,-340 195,-358 224,-358 224,-340 195,-340"/>
<polygon fill="none" stroke="black" points="195,-340 195,-358 224,-358 224,-340 195,-340"/>
<text text-anchor="start" x="198" y="-346.2" font-family="Helvetica,sans-Serif" font-size="11.00">&lt; 3</text>
<polygon fill="#ffffff" stroke="transparent" points="224,-340 224,-358 293,-358 293,-340 224,-340"/>
<polygon fill="none" stroke="black" points="224,-340 224,-358 293,-358 293,-340 224,-340"/>
<text text-anchor="start" x="230" y="-346.2" font-family="Helvetica,sans-Serif" font-size="11.00">41,130 rows</text>
<polygon fill="#ffffff" stroke="transparent" points="293,-340 293,-358 319,-358 319,-340 293,-340"/>
<polygon fill="none" stroke="black" points="293,-340 293,-358 319,-358 319,-340 293,-340"/>
<text text-anchor="start" x="300" y="-346.2" font-family="Helvetica,sans-Serif" font-size="11.00">4 &gt;</text>
</a>
</g>
</g>
<!-- geochroncontrols&#45;&gt;geochronology -->
<g id="edge1" class="edge">
<title>geochroncontrols:w&#45;&gt;geochronology:e</title>
<path fill="none" stroke="black" d="M413.45,-473.07C376.94,-473.41 362.76,-475 320,-475"/>
<polygon fill="black" stroke="black" points="420,-473.04 428.02,-476.6 424,-473.02 428,-473 428,-473 428,-473 424,-473.02 427.98,-469.4 420,-473.04 420,-473.04"/>
<ellipse fill="none" stroke="black" cx="416.8" cy="-473.05" rx="3.2" ry="3.2"/>
</g>
<!-- agetypes -->
<g id="node3" class="node">
<title>agetypes</title>
<g id="a_node3"><a xlink:href="../../tables/agetypes.html" xlink:title="agetypes" target="_top">
<polygon fill="#ffffff" stroke="transparent" points="23.5,-333 23.5,-391 115.5,-391 115.5,-333 23.5,-333"/>
<polygon fill="#f5f5f5" stroke="transparent" points="23.5,-369 23.5,-391 115.5,-391 115.5,-369 23.5,-369"/>
<polygon fill="none" stroke="black" points="23.5,-369 23.5,-391 115.5,-391 115.5,-369 23.5,-369"/>
<text text-anchor="start" x="28.5" y="-378.2" font-family="Helvetica,sans-Serif" font-weight="bold" font-size="11.00">agetypes</text>
<text text-anchor="start" x="80.5" y="-377.2" font-family="Helvetica,sans-Serif" font-size="11.00">[table]</text>
<polygon fill="none" stroke="black" points="23.5,-351 23.5,-369 115.5,-369 115.5,-351 23.5,-351"/>
<text text-anchor="start" x="26.5" y="-357.2" font-family="Helvetica,sans-Serif" font-size="11.00">...</text>
<polygon fill="#ffffff" stroke="transparent" points="23.5,-333 23.5,-351 45.5,-351 45.5,-333 23.5,-333"/>
<polygon fill="none" stroke="black" points="23.5,-333 23.5,-351 45.5,-351 45.5,-333 23.5,-333"/>
<text text-anchor="start" x="26.5" y="-339.2" font-family="Helvetica,sans-Serif" font-size="11.00"> &#160;</text>
<polygon fill="#ffffff" stroke="transparent" points="45.5,-333 45.5,-351 88.5,-351 88.5,-333 45.5,-333"/>
<polygon fill="none" stroke="black" points="45.5,-333 45.5,-351 88.5,-351 88.5,-333 45.5,-333"/>
<text text-anchor="start" x="52.5" y="-339.2" font-family="Helvetica,sans-Serif" font-size="11.00">5 rows</text>
<polygon fill="#ffffff" stroke="transparent" points="88.5,-333 88.5,-351 115.5,-351 115.5,-333 88.5,-333"/>
<polygon fill="none" stroke="black" points="88.5,-333 88.5,-351 115.5,-351 115.5,-333 88.5,-333"/>
<text text-anchor="start" x="96.5" y="-339.2" font-family="Helvetica,sans-Serif" font-size="11.00">4 &gt;</text>
</a>
</g>
</g>
<!-- geochronology&#45;&gt;agetypes -->
<g id="edge2" class="edge">
<title>geochronology:w&#45;&gt;agetypes:e</title>
<path fill="none" stroke="black" d="M179.57,-406.5C153.51,-396.52 151.68,-360 116.5,-360"/>
<polygon fill="black" stroke="black" points="186.12,-407.64 193.39,-412.55 190.06,-408.32 194,-409 194,-409 194,-409 190.06,-408.32 194.61,-405.45 186.12,-407.64 186.12,-407.64"/>
<ellipse fill="none" stroke="black" cx="182.96" cy="-407.09" rx="3.2" ry="3.2"/>
</g>
<!-- geochrontypes -->
<g id="node4" class="node">
<title>geochrontypes</title>
<g id="a_node4"><a xlink:href="../../tables/geochrontypes.html" xlink:title="geochrontypes" target="_top">
<polygon fill="#ffffff" stroke="transparent" points="8,-412 8,-470 131,-470 131,-412 8,-412"/>
<polygon fill="#f5f5f5" stroke="transparent" points="8.5,-448 8.5,-470 131.5,-470 131.5,-448 8.5,-448"/>
<polygon fill="none" stroke="black" points="8.5,-448 8.5,-470 131.5,-470 131.5,-448 8.5,-448"/>
<text text-anchor="start" x="13.5" y="-457.2" font-family="Helvetica,sans-Serif" font-weight="bold" font-size="11.00">geochrontypes</text>
<text text-anchor="start" x="96.5" y="-456.2" font-family="Helvetica,sans-Serif" font-size="11.00">[table]</text>
<polygon fill="none" stroke="black" points="8.5,-430 8.5,-448 131.5,-448 131.5,-430 8.5,-430"/>
<text text-anchor="start" x="11.5" y="-436.2" font-family="Helvetica,sans-Serif" font-size="11.00">...</text>
<polygon fill="#ffffff" stroke="transparent" points="8.5,-412 8.5,-430 42.5,-430 42.5,-412 8.5,-412"/>
<polygon fill="none" stroke="black" points="8.5,-412 8.5,-430 42.5,-430 42.5,-412 8.5,-412"/>
<text text-anchor="start" x="11.5" y="-418.2" font-family="Helvetica,sans-Serif" font-size="11.00"> &#160;</text>
<polygon fill="#ffffff" stroke="transparent" points="42.5,-412 42.5,-430 98.5,-430 98.5,-412 42.5,-412"/>
<polygon fill="none" stroke="black" points="42.5,-412 42.5,-430 98.5,-430 98.5,-412 42.5,-412"/>
<text text-anchor="start" x="56.5" y="-418.2" font-family="Helvetica,sans-Serif" font-size="11.00">18 rows</text>
<polygon fill="#ffffff" stroke="transparent" points="98.5,-412 98.5,-430 131.5,-430 131.5,-412 98.5,-412"/>
<polygon fill="none" stroke="black" points="98.5,-412 98.5,-430 131.5,-430 131.5,-412 98.5,-412"/>
<text text-anchor="start" x="112.5" y="-418.2" font-family="Helvetica,sans-Serif" font-size="11.00">1 &gt;</text>
</a>
</g>
</g>
<!-- geochronology&#45;&gt;geochrontypes -->
<g id="edge3" class="edge">
<title>geochronology:w&#45;&gt;geochrontypes:e</title>
<path fill="none" stroke="black" d="M179.47,-431.86C162.97,-433.92 154.46,-439 132.5,-439"/>
<polygon fill="black" stroke="black" points="186.01,-431.47 194.21,-434.59 190.01,-431.24 194,-431 194,-431 194,-431 190.01,-431.24 193.79,-427.41 186.01,-431.47 186.01,-431.47"/>
<ellipse fill="none" stroke="black" cx="182.82" cy="-431.66" rx="3.2" ry="3.2"/>
</g>
<!-- samples -->
<g id="node5" class="node">
<title>samples</title>
<g id="a_node5"><a xlink:href="../../tables/samples.html" xlink:title="samples" target="_top">
<polygon fill="#ffffff" stroke="transparent" points="11.5,-507 11.5,-565 127.5,-565 127.5,-507 11.5,-507"/>
<polygon fill="#f5f5f5" stroke="transparent" points="11.5,-543 11.5,-565 127.5,-565 127.5,-543 11.5,-543"/>
<polygon fill="none" stroke="black" points="11.5,-543 11.5,-565 127.5,-565 127.5,-543 11.5,-543"/>
<text text-anchor="start" x="16.5" y="-552.2" font-family="Helvetica,sans-Serif" font-weight="bold" font-size="11.00">samples</text>
<text text-anchor="start" x="92.5" y="-551.2" font-family="Helvetica,sans-Serif" font-size="11.00">[table]</text>
<polygon fill="none" stroke="black" points="11.5,-525 11.5,-543 127.5,-543 127.5,-525 11.5,-525"/>
<text text-anchor="start" x="14.5" y="-531.2" font-family="Helvetica,sans-Serif" font-size="11.00">...</text>
<polygon fill="#ffffff" stroke="transparent" points="11.5,-507 11.5,-525 33.5,-525 33.5,-507 11.5,-507"/>
<polygon fill="none" stroke="black" points="11.5,-507 11.5,-525 33.5,-525 33.5,-507 11.5,-507"/>
<text text-anchor="start" x="14.5" y="-513.2" font-family="Helvetica,sans-Serif" font-size="11.00">&lt; 3</text>
<polygon fill="#ffffff" stroke="transparent" points="33.5,-507 33.5,-525 105.5,-525 105.5,-507 33.5,-507"/>
<polygon fill="none" stroke="black" points="33.5,-507 33.5,-525 105.5,-525 105.5,-507 33.5,-507"/>
<text text-anchor="start" x="36.5" y="-513.2" font-family="Helvetica,sans-Serif" font-size="11.00">541,654 rows</text>
<polygon fill="#ffffff" stroke="transparent" points="105.5,-507 105.5,-525 127.5,-525 127.5,-507 105.5,-507"/>
<polygon fill="none" stroke="black" points="105.5,-507 105.5,-525 127.5,-525 127.5,-507 105.5,-507"/>
<text text-anchor="start" x="108.5" y="-513.2" font-family="Helvetica,sans-Serif" font-size="11.00">7 &gt;</text>
</a>
</g>
</g>
<!-- geochronology&#45;&gt;samples -->
<g id="edge4" class="edge">
<title>geochronology:w&#45;&gt;samples:e</title>
<path fill="none" stroke="black" d="M179.79,-456.48C153.33,-471.98 169.01,-534 128.5,-534"/>
<polygon fill="black" stroke="black" points="186.23,-454.9 194.86,-456.5 190.11,-453.95 194,-453 194,-453 194,-453 190.11,-453.95 193.14,-449.5 186.23,-454.9 186.23,-454.9"/>
<ellipse fill="none" stroke="black" cx="183.12" cy="-455.66" rx="3.2" ry="3.2"/>
</g>
<!-- geochronpublications -->
<g id="node6" class="node">
<title>geochronpublications</title>
<g id="a_node6"><a xlink:href="../../tables/geochronpublications.html" xlink:title="geochronpublications" target="_top">
<polygon fill="#ffffff" stroke="transparent" points="418.5,-367 418.5,-425 577.5,-425 577.5,-367 418.5,-367"/>
<polygon fill="#f5f5f5" stroke="transparent" points="419,-403 419,-425 578,-425 578,-403 419,-403"/>
<polygon fill="none" stroke="black" points="419,-403 419,-425 578,-425 578,-403 419,-403"/>
<text text-anchor="start" x="424" y="-412.2" font-family="Helvetica,sans-Serif" font-weight="bold" font-size="11.00">geochronpublications</text>
<text text-anchor="start" x="543" y="-411.2" font-family="Helvetica,sans-Serif" font-size="11.00">[table]</text>
<polygon fill="none" stroke="black" points="419,-385 419,-403 578,-403 578,-385 419,-385"/>
<text text-anchor="start" x="422" y="-391.2" font-family="Helvetica,sans-Serif" font-size="11.00">...</text>
<polygon fill="#ffffff" stroke="transparent" points="419,-367 419,-385 470,-385 470,-367 419,-367"/>
<polygon fill="none" stroke="black" points="419,-367 419,-385 470,-385 470,-367 419,-367"/>
<text text-anchor="start" x="422" y="-373.2" font-family="Helvetica,sans-Serif" font-size="11.00">&lt; 2</text>
<polygon fill="#ffffff" stroke="transparent" points="470,-367 470,-385 550,-385 550,-367 470,-367"/>
<polygon fill="none" stroke="black" points="470,-367 470,-385 550,-385 550,-367 470,-367"/>
<text text-anchor="start" x="487" y="-373.2" font-family="Helvetica,sans-Serif" font-size="11.00">37,711 rows</text>
<polygon fill="#ffffff" stroke="transparent" points="550,-367 550,-385 578,-385 578,-367 550,-367"/>
<polygon fill="none" stroke="black" points="550,-367 550,-385 578,-385 578,-367 550,-367"/>
<text text-anchor="start" x="568" y="-373.2" font-family="Helvetica,sans-Serif" font-size="11.00"> &#160;</text>
</a>
</g>
</g>
<!-- geochronpublications&#45;&gt;geochronology -->
<g id="edge5" class="edge">
<title>geochronpublications:w&#45;&gt;geochronology:e</title>
<path fill="none" stroke="black" d="M403.62,-396.08C363.71,-408.76 371.1,-475 320,-475"/>
<polygon fill="black" stroke="black" points="410.08,-395.15 418.52,-397.56 414.04,-394.57 418,-394 418,-394 418,-394 414.04,-394.57 417.48,-390.44 410.08,-395.15 410.08,-395.15"/>
<ellipse fill="none" stroke="black" cx="406.92" cy="-395.61" rx="3.2" ry="3.2"/>
</g>
<!-- radiocarbon -->
<g id="node7" class="node">
<title>radiocarbon</title>
<g id="a_node7"><a xlink:href="../../tables/radiocarbon.html" xlink:title="radiocarbon" target="_top">
<polygon fill="#ffffff" stroke="transparent" points="383,-37 383,-345 613,-345 613,-37 383,-37"/>
<polygon fill="#f5f5f5" stroke="transparent" points="385,-321 385,-343 611,-343 611,-321 385,-321"/>
<polygon fill="none" stroke="black" points="385,-321 385,-343 611,-343 611,-321 385,-321"/>
<text text-anchor="start" x="390" y="-330.2" font-family="Helvetica,sans-Serif" font-weight="bold" font-size="11.00">radiocarbon</text>
<text text-anchor="start" x="576" y="-329.2" font-family="Helvetica,sans-Serif" font-size="11.00">[table]</text>
<polygon fill="none" stroke="black" points="385,-299 385,-321 537,-321 537,-299 385,-299"/>
<image xlink:href="../../images/primaryKeys.png" width="11px" height="12px" preserveAspectRatio="xMinYMin meet" x="390" y="-316"/>
<text text-anchor="start" x="405" y="-307.2" font-family="Helvetica,sans-Serif" font-size="11.00">geochronid</text>
<polygon fill="none" stroke="black" points="537,-299 537,-321 611,-321 611,-299 537,-299"/>
<text text-anchor="start" x="540" y="-307.2" font-family="Helvetica,sans-Serif" font-size="11.00">int4[10]</text>
<polygon fill="none" stroke="black" points="385,-277 385,-299 537,-299 537,-277 385,-277"/>
<image xlink:href="../../images/foreignKeys.png" width="11px" height="12px" preserveAspectRatio="xMinYMin meet" x="390" y="-294"/>
<text text-anchor="start" x="405" y="-285.2" font-family="Helvetica,sans-Serif" font-size="11.00">radiocarbonmethodid</text>
<polygon fill="none" stroke="black" points="537,-277 537,-299 611,-299 611,-277 537,-277"/>
<text text-anchor="start" x="540" y="-285.2" font-family="Helvetica,sans-Serif" font-size="11.00">int4[10]</text>
<polygon fill="none" stroke="black" points="385,-255 385,-277 537,-277 537,-255 385,-255"/>
<text text-anchor="start" x="405" y="-263.2" font-family="Helvetica,sans-Serif" font-size="11.00">percentc</text>
<polygon fill="none" stroke="black" points="537,-255 537,-277 611,-277 611,-255 537,-255"/>
<text text-anchor="start" x="540" y="-263.2" font-family="Helvetica,sans-Serif" font-size="11.00">float8[17,17]</text>
<polygon fill="none" stroke="black" points="385,-233 385,-255 537,-255 537,-233 385,-233"/>
<text text-anchor="start" x="405" y="-241.2" font-family="Helvetica,sans-Serif" font-size="11.00">percentn</text>
<polygon fill="none" stroke="black" points="537,-233 537,-255 611,-255 611,-233 537,-233"/>
<text text-anchor="start" x="540" y="-241.2" font-family="Helvetica,sans-Serif" font-size="11.00">float8[17,17]</text>
<polygon fill="none" stroke="black" points="385,-211 385,-233 537,-233 537,-211 385,-211"/>
<text text-anchor="start" x="405" y="-219.2" font-family="Helvetica,sans-Serif" font-size="11.00">delta13c</text>
<polygon fill="none" stroke="black" points="537,-211 537,-233 611,-233 611,-211 537,-211"/>
<text text-anchor="start" x="540" y="-219.2" font-family="Helvetica,sans-Serif" font-size="11.00">float8[17,17]</text>
<polygon fill="none" stroke="black" points="385,-189 385,-211 537,-211 537,-189 385,-189"/>
<text text-anchor="start" x="405" y="-197.2" font-family="Helvetica,sans-Serif" font-size="11.00">delta15n</text>
<polygon fill="none" stroke="black" points="537,-189 537,-211 611,-211 611,-189 537,-189"/>
<text text-anchor="start" x="540" y="-197.2" font-family="Helvetica,sans-Serif" font-size="11.00">float8[17,17]</text>
<polygon fill="none" stroke="black" points="385,-167 385,-189 537,-189 537,-167 385,-167"/>
<text text-anchor="start" x="405" y="-175.2" font-family="Helvetica,sans-Serif" font-size="11.00">percentcollagen</text>
<polygon fill="none" stroke="black" points="537,-167 537,-189 611,-189 611,-167 537,-167"/>
<text text-anchor="start" x="540" y="-175.2" font-family="Helvetica,sans-Serif" font-size="11.00">float8[17,17]</text>
<polygon fill="none" stroke="black" points="385,-145 385,-167 537,-167 537,-145 385,-145"/>
<text text-anchor="start" x="405" y="-153.2" font-family="Helvetica,sans-Serif" font-size="11.00">reservoir</text>
<polygon fill="none" stroke="black" points="537,-145 537,-167 611,-167 611,-145 537,-145"/>
<text text-anchor="start" x="540" y="-153.2" font-family="Helvetica,sans-Serif" font-size="11.00">float8[17,17]</text>
<polygon fill="none" stroke="black" points="385,-123 385,-145 537,-145 537,-123 385,-123"/>
<text text-anchor="start" x="405" y="-131.2" font-family="Helvetica,sans-Serif" font-size="11.00">recdatecreated</text>
<polygon fill="none" stroke="black" points="537,-123 537,-145 611,-145 611,-123 537,-123"/>
<text text-anchor="start" x="540" y="-131.2" font-family="Helvetica,sans-Serif" font-size="11.00">timestamp[22]</text>
<polygon fill="none" stroke="black" points="385,-101 385,-123 537,-123 537,-101 385,-101"/>
<text text-anchor="start" x="405" y="-109.2" font-family="Helvetica,sans-Serif" font-size="11.00">recdatemodified</text>
<polygon fill="none" stroke="black" points="537,-101 537,-123 611,-123 611,-101 537,-101"/>
<text text-anchor="start" x="540" y="-109.2" font-family="Helvetica,sans-Serif" font-size="11.00">timestamp[22]</text>
<polygon fill="none" stroke="black" points="385,-79 385,-101 537,-101 537,-79 385,-79"/>
<text text-anchor="start" x="405" y="-87.2" font-family="Helvetica,sans-Serif" font-size="11.00">masscmg</text>
<polygon fill="none" stroke="black" points="537,-79 537,-101 611,-101 611,-79 537,-79"/>
<text text-anchor="start" x="540" y="-87.2" font-family="Helvetica,sans-Serif" font-size="11.00">float8[17,17]</text>
<polygon fill="none" stroke="black" points="385,-57 385,-79 537,-79 537,-57 385,-57"/>
<text text-anchor="start" x="405" y="-65.2" font-family="Helvetica,sans-Serif" font-size="11.00">cnratio</text>
<polygon fill="none" stroke="black" points="537,-57 537,-79 611,-79 611,-57 537,-57"/>
<text text-anchor="start" x="540" y="-65.2" font-family="Helvetica,sans-Serif" font-size="11.00">float8[17,17]</text>
<polygon fill="#ffffff" stroke="transparent" points="385,-39 385,-57 439,-57 439,-39 385,-39"/>
<polygon fill="none" stroke="black" points="385,-39 385,-57 439,-57 439,-39 385,-39"/>
<text text-anchor="start" x="388" y="-45.2" font-family="Helvetica,sans-Serif" font-size="11.00">&lt; 2</text>
<polygon fill="#ffffff" stroke="transparent" points="439,-39 439,-57 537,-57 537,-39 439,-39"/>
<polygon fill="none" stroke="black" points="439,-39 439,-57 537,-57 537,-39 439,-39"/>
<text text-anchor="start" x="474" y="-45.2" font-family="Helvetica,sans-Serif" font-size="11.00">32,234 rows</text>
<polygon fill="#ffffff" stroke="transparent" points="537,-39 537,-57 611,-57 611,-39 537,-39"/>
<polygon fill="none" stroke="black" points="537,-39 537,-57 611,-57 611,-39 537,-39"/>
<text text-anchor="start" x="592" y="-45.2" font-family="Helvetica,sans-Serif" font-size="11.00">0 &gt;</text>
<polygon fill="none" stroke="black" stroke-width="2" points="384,-38 384,-344 612,-344 612,-38 384,-38"/>
</a>
</g>
</g>
<!-- radiocarbon&#45;&gt;geochronology -->
<g id="edge6" class="edge">
<title>radiocarbon:w&#45;&gt;geochronology:e</title>
<path fill="none" stroke="black" d="M373.3,-311.23C314.38,-326.33 394.66,-475 320,-475"/>
<polygon fill="black" stroke="black" points="382.75,-306.12 383.66,-314.07 382.07,-314.25 381.16,-306.3 382.75,-306.12"/>
<polyline fill="none" stroke="black" points="384,-310 380.03,-310.46 "/>
<ellipse fill="none" stroke="black" cx="376.85" cy="-310.82" rx="3.2" ry="3.2"/>
</g>
<!-- radiocarbonmethods -->
<g id="node8" class="node">
<title>radiocarbonmethods</title>
<g id="a_node8"><a xlink:href="../../tables/radiocarbonmethods.html" xlink:title="radiocarbonmethods" target="_top">
<polygon fill="#ffffff" stroke="transparent" points="180,-239 180,-319 334,-319 334,-239 180,-239"/>
<polygon fill="#f5f5f5" stroke="transparent" points="180,-297 180,-319 334,-319 334,-297 180,-297"/>
<polygon fill="none" stroke="black" points="180,-297 180,-319 334,-319 334,-297 180,-297"/>
<text text-anchor="start" x="185" y="-306.2" font-family="Helvetica,sans-Serif" font-weight="bold" font-size="11.00">radiocarbonmethods</text>
<text text-anchor="start" x="299" y="-305.2" font-family="Helvetica,sans-Serif" font-size="11.00">[table]</text>
<polygon fill="none" stroke="black" points="180,-275 180,-297 334,-297 334,-275 180,-275"/>
<image xlink:href="../../images/primaryKeys.png" width="11px" height="12px" preserveAspectRatio="xMinYMin meet" x="185" y="-292"/>
<text text-anchor="start" x="201" y="-283.2" font-family="Helvetica,sans-Serif" font-size="11.00">radiocarbonmethodid</text>
<polygon fill="none" stroke="black" points="180,-257 180,-275 334,-275 334,-257 180,-257"/>
<text text-anchor="start" x="183" y="-263.2" font-family="Helvetica,sans-Serif" font-size="11.00">...</text>
<polygon fill="#ffffff" stroke="transparent" points="180,-239 180,-257 233,-257 233,-239 180,-239"/>
<polygon fill="none" stroke="black" points="180,-239 180,-257 233,-257 233,-239 180,-239"/>
<text text-anchor="start" x="183" y="-245.2" font-family="Helvetica,sans-Serif" font-size="11.00"> &#160;</text>
<polygon fill="#ffffff" stroke="transparent" points="233,-239 233,-257 292,-257 292,-239 233,-239"/>
<polygon fill="none" stroke="black" points="233,-239 233,-257 292,-257 292,-239 233,-239"/>
<text text-anchor="start" x="256" y="-245.2" font-family="Helvetica,sans-Serif" font-size="11.00">5 rows</text>
<polygon fill="#ffffff" stroke="transparent" points="292,-239 292,-257 334,-257 334,-239 292,-239"/>
<polygon fill="none" stroke="black" points="292,-239 292,-257 334,-257 334,-239 292,-239"/>
<text text-anchor="start" x="315" y="-245.2" font-family="Helvetica,sans-Serif" font-size="11.00">1 &gt;</text>
</a>
</g>
</g>
<!-- radiocarbon&#45;&gt;radiocarbonmethods -->
<g id="edge7" class="edge">
<title>radiocarbon:w&#45;&gt;radiocarbonmethods:e</title>
<path fill="none" stroke="black" d="M369.49,-287.65C358.17,-287.08 351.01,-286 335,-286"/>
<polygon fill="black" stroke="black" points="376,-287.81 383.91,-291.6 380,-287.9 384,-288 384,-288 384,-288 380,-287.9 384.09,-284.4 376,-287.81 376,-287.81"/>
<ellipse fill="none" stroke="black" cx="372.8" cy="-287.73" rx="3.2" ry="3.2"/>
</g>
<!-- specimendates -->
<g id="node9" class="node">
<title>specimendates</title>
<g id="a_node9"><a xlink:href="../../tables/specimendates.html" xlink:title="specimendates" target="_top">
<polygon fill="#ffffff" stroke="transparent" points="436.5,-525 436.5,-583 559.5,-583 559.5,-525 436.5,-525"/>
<polygon fill="#f5f5f5" stroke="transparent" points="437,-561 437,-583 560,-583 560,-561 437,-561"/>
<polygon fill="none" stroke="black" points="437,-561 437,-583 560,-583 560,-561 437,-561"/>
<text text-anchor="start" x="442" y="-570.2" font-family="Helvetica,sans-Serif" font-weight="bold" font-size="11.00">specimendates</text>
<text text-anchor="start" x="525" y="-569.2" font-family="Helvetica,sans-Serif" font-size="11.00">[table]</text>
<polygon fill="none" stroke="black" points="437,-543 437,-561 560,-561 560,-543 437,-543"/>
<text text-anchor="start" x="440" y="-549.2" font-family="Helvetica,sans-Serif" font-size="11.00">...</text>
<polygon fill="#ffffff" stroke="transparent" points="437,-525 437,-543 468,-543 468,-525 437,-525"/>
<polygon fill="none" stroke="black" points="437,-525 437,-543 468,-543 468,-525 437,-525"/>
<text text-anchor="start" x="440" y="-531.2" font-family="Helvetica,sans-Serif" font-size="11.00">&lt; 6</text>
<polygon fill="#ffffff" stroke="transparent" points="468,-525 468,-543 533,-543 533,-525 468,-525"/>
<polygon fill="none" stroke="black" points="468,-525 468,-543 533,-543 533,-525 468,-525"/>
<text text-anchor="start" x="476" y="-531.2" font-family="Helvetica,sans-Serif" font-size="11.00">2,662 rows</text>
<polygon fill="#ffffff" stroke="transparent" points="533,-525 533,-543 560,-543 560,-525 533,-525"/>
<polygon fill="none" stroke="black" points="533,-525 533,-543 560,-543 560,-525 533,-525"/>
<text text-anchor="start" x="541" y="-531.2" font-family="Helvetica,sans-Serif" font-size="11.00">1 &gt;</text>
</a>
</g>
</g>
<!-- specimendates&#45;&gt;geochronology -->
<g id="edge8" class="edge">
<title>specimendates:w&#45;&gt;geochronology:e</title>
<path fill="none" stroke="black" d="M421.67,-550.31C402.55,-545.22 396.76,-529.48 375,-515 349.83,-498.26 350.23,-475 320,-475"/>
<polygon fill="black" stroke="black" points="428.05,-551.07 435.58,-555.58 432.03,-551.53 436,-552 436,-552 436,-552 432.03,-551.53 436.42,-548.42 428.05,-551.07 428.05,-551.07"/>
<ellipse fill="none" stroke="black" cx="424.88" cy="-550.69" rx="3.2" ry="3.2"/>
</g>
<!-- specimendates&#45;&gt;samples -->
<g id="edge9" class="edge">
<title>specimendates:w&#45;&gt;samples:e</title>
<path fill="none" stroke="black" d="M421.55,-551.93C296.53,-550.72 260.45,-534 128.5,-534"/>
<polygon fill="black" stroke="black" points="428,-551.96 435.98,-555.6 432,-551.98 436,-552 436,-552 436,-552 432,-551.98 436.02,-548.4 428,-551.96 428,-551.96"/>
<ellipse fill="none" stroke="black" cx="424.8" cy="-551.95" rx="3.2" ry="3.2"/>
</g>
</g>
</svg>
