<?xml version="1.0" encoding="UTF-8" standalone="no"?>
<!DOCTYPE svg PUBLIC "-//W3C//DTD SVG 1.1//EN"
 "http://www.w3.org/Graphics/SVG/1.1/DTD/svg11.dtd">
<!-- Generated by graphviz version 2.43.0 (0)
 -->
<!-- Title: oneDegreeRelationshipsDiagram Pages: 1 -->
<svg width="457pt" height="439pt"
 viewBox="0.00 0.00 457.00 439.00" xmlns="http://www.w3.org/2000/svg" xmlns:xlink="http://www.w3.org/1999/xlink">
<g id="graph0" class="graph" transform="scale(1 1) rotate(0) translate(4 435)">
<title>oneDegreeRelationshipsDiagram</title>
<polygon fill="#ffffff" stroke="transparent" points="-4,4 -4,-435 453,-435 453,4 -4,4"/>
<text text-anchor="middle" x="71.5" y="-7.2" font-family="Helvetica,sans-Serif" font-size="11.00">Generated by SchemaSpy</text>
<!-- radiocarbon -->
<g id="node1" class="node">
<title>radiocarbon</title>
<g id="a_node1"><a xlink:href="../../tables/radiocarbon.html" xlink:title="radiocarbon" target="_top">
<polygon fill="#ffffff" stroke="transparent" points="211,-37 211,-345 441,-345 441,-37 211,-37"/>
<polygon fill="#f5f5f5" stroke="transparent" points="213,-321 213,-343 439,-343 439,-321 213,-321"/>
<polygon fill="none" stroke="black" points="213,-321 213,-343 439,-343 439,-321 213,-321"/>
<text text-anchor="start" x="218" y="-330.2" font-family="Helvetica,sans-Serif" font-weight="bold" font-size="11.00">radiocarbon</text>
<text text-anchor="start" x="404" y="-329.2" font-family="Helvetica,sans-Serif" font-size="11.00">[table]</text>
<polygon fill="none" stroke="black" points="213,-299 213,-321 365,-321 365,-299 213,-299"/>
<image xlink:href="../../images/primaryKeys.png" width="11px" height="12px" preserveAspectRatio="xMinYMin meet" x="218" y="-316"/>
<text text-anchor="start" x="233" y="-307.2" font-family="Helvetica,sans-Serif" font-size="11.00">geochronid</text>
<polygon fill="none" stroke="black" points="365,-299 365,-321 439,-321 439,-299 365,-299"/>
<text text-anchor="start" x="368" y="-307.2" font-family="Helvetica,sans-Serif" font-size="11.00">int4[10]</text>
<polygon fill="none" stroke="black" points="213,-277 213,-299 365,-299 365,-277 213,-277"/>
<image xlink:href="../../images/foreignKeys.png" width="11px" height="12px" preserveAspectRatio="xMinYMin meet" x="218" y="-294"/>
<text text-anchor="start" x="233" y="-285.2" font-family="Helvetica,sans-Serif" font-size="11.00">radiocarbonmethodid</text>
<polygon fill="none" stroke="black" points="365,-277 365,-299 439,-299 439,-277 365,-277"/>
<text text-anchor="start" x="368" y="-285.2" font-family="Helvetica,sans-Serif" font-size="11.00">int4[10]</text>
<polygon fill="none" stroke="black" points="213,-255 213,-277 365,-277 365,-255 213,-255"/>
<text text-anchor="start" x="233" y="-263.2" font-family="Helvetica,sans-Serif" font-size="11.00">percentc</text>
<polygon fill="none" stroke="black" points="365,-255 365,-277 439,-277 439,-255 365,-255"/>
<text text-anchor="start" x="368" y="-263.2" font-family="Helvetica,sans-Serif" font-size="11.00">float8[17,17]</text>
<polygon fill="none" stroke="black" points="213,-233 213,-255 365,-255 365,-233 213,-233"/>
<text text-anchor="start" x="233" y="-241.2" font-family="Helvetica,sans-Serif" font-size="11.00">percentn</text>
<polygon fill="none" stroke="black" points="365,-233 365,-255 439,-255 439,-233 365,-233"/>
<text text-anchor="start" x="368" y="-241.2" font-family="Helvetica,sans-Serif" font-size="11.00">float8[17,17]</text>
<polygon fill="none" stroke="black" points="213,-211 213,-233 365,-233 365,-211 213,-211"/>
<text text-anchor="start" x="233" y="-219.2" font-family="Helvetica,sans-Serif" font-size="11.00">delta13c</text>
<polygon fill="none" stroke="black" points="365,-211 365,-233 439,-233 439,-211 365,-211"/>
<text text-anchor="start" x="368" y="-219.2" font-family="Helvetica,sans-Serif" font-size="11.00">float8[17,17]</text>
<polygon fill="none" stroke="black" points="213,-189 213,-211 365,-211 365,-189 213,-189"/>
<text text-anchor="start" x="233" y="-197.2" font-family="Helvetica,sans-Serif" font-size="11.00">delta15n</text>
<polygon fill="none" stroke="black" points="365,-189 365,-211 439,-211 439,-189 365,-189"/>
<text text-anchor="start" x="368" y="-197.2" font-family="Helvetica,sans-Serif" font-size="11.00">float8[17,17]</text>
<polygon fill="none" stroke="black" points="213,-167 213,-189 365,-189 365,-167 213,-167"/>
<text text-anchor="start" x="233" y="-175.2" font-family="Helvetica,sans-Serif" font-size="11.00">percentcollagen</text>
<polygon fill="none" stroke="black" points="365,-167 365,-189 439,-189 439,-167 365,-167"/>
<text text-anchor="start" x="368" y="-175.2" font-family="Helvetica,sans-Serif" font-size="11.00">float8[17,17]</text>
<polygon fill="none" stroke="black" points="213,-145 213,-167 365,-167 365,-145 213,-145"/>
<text text-anchor="start" x="233" y="-153.2" font-family="Helvetica,sans-Serif" font-size="11.00">reservoir</text>
<polygon fill="none" stroke="black" points="365,-145 365,-167 439,-167 439,-145 365,-145"/>
<text text-anchor="start" x="368" y="-153.2" font-family="Helvetica,sans-Serif" font-size="11.00">float8[17,17]</text>
<polygon fill="none" stroke="black" points="213,-123 213,-145 365,-145 365,-123 213,-123"/>
<text text-anchor="start" x="233" y="-131.2" font-family="Helvetica,sans-Serif" font-size="11.00">recdatecreated</text>
<polygon fill="none" stroke="black" points="365,-123 365,-145 439,-145 439,-123 365,-123"/>
<text text-anchor="start" x="368" y="-131.2" font-family="Helvetica,sans-Serif" font-size="11.00">timestamp[22]</text>
<polygon fill="none" stroke="black" points="213,-101 213,-123 365,-123 365,-101 213,-101"/>
<text text-anchor="start" x="233" y="-109.2" font-family="Helvetica,sans-Serif" font-size="11.00">recdatemodified</text>
<polygon fill="none" stroke="black" points="365,-101 365,-123 439,-123 439,-101 365,-101"/>
<text text-anchor="start" x="368" y="-109.2" font-family="Helvetica,sans-Serif" font-size="11.00">timestamp[22]</text>
<polygon fill="none" stroke="black" points="213,-79 213,-101 365,-101 365,-79 213,-79"/>
<text text-anchor="start" x="233" y="-87.2" font-family="Helvetica,sans-Serif" font-size="11.00">masscmg</text>
<polygon fill="none" stroke="black" points="365,-79 365,-101 439,-101 439,-79 365,-79"/>
<text text-anchor="start" x="368" y="-87.2" font-family="Helvetica,sans-Serif" font-size="11.00">float8[17,17]</text>
<polygon fill="none" stroke="black" points="213,-57 213,-79 365,-79 365,-57 213,-57"/>
<text text-anchor="start" x="233" y="-65.2" font-family="Helvetica,sans-Serif" font-size="11.00">cnratio</text>
<polygon fill="none" stroke="black" points="365,-57 365,-79 439,-79 439,-57 365,-57"/>
<text text-anchor="start" x="368" y="-65.2" font-family="Helvetica,sans-Serif" font-size="11.00">float8[17,17]</text>
<polygon fill="#ffffff" stroke="transparent" points="213,-39 213,-57 267,-57 267,-39 213,-39"/>
<polygon fill="none" stroke="black" points="213,-39 213,-57 267,-57 267,-39 213,-39"/>
<text text-anchor="start" x="216" y="-45.2" font-family="Helvetica,sans-Serif" font-size="11.00">&lt; 2</text>
<polygon fill="#ffffff" stroke="transparent" points="267,-39 267,-57 365,-57 365,-39 267,-39"/>
<polygon fill="none" stroke="black" points="267,-39 267,-57 365,-57 365,-39 267,-39"/>
<text text-anchor="start" x="302" y="-45.2" font-family="Helvetica,sans-Serif" font-size="11.00">32,234 rows</text>
<polygon fill="#ffffff" stroke="transparent" points="365,-39 365,-57 439,-57 439,-39 365,-39"/>
<polygon fill="none" stroke="black" points="365,-39 365,-57 439,-57 439,-39 365,-39"/>
<text text-anchor="start" x="420" y="-45.2" font-family="Helvetica,sans-Serif" font-size="11.00">0 &gt;</text>
<polygon fill="none" stroke="black" stroke-width="2" points="212,-38 212,-344 440,-344 440,-38 212,-38"/>
</a>
</g>
</g>
<!-- geochronology -->
<g id="node2" class="node">
<title>geochronology</title>
<g id="a_node2"><a xlink:href="../../tables/geochronology.html" xlink:title="geochronology" target="_top">
<polygon fill="#ffffff" stroke="transparent" points="23,-259 23,-427 147,-427 147,-259 23,-259"/>
<polygon fill="#f5f5f5" stroke="transparent" points="23,-405 23,-427 147,-427 147,-405 23,-405"/>
<polygon fill="none" stroke="black" points="23,-405 23,-427 147,-427 147,-405 23,-405"/>
<text text-anchor="start" x="28" y="-414.2" font-family="Helvetica,sans-Serif" font-weight="bold" font-size="11.00">geochronology</text>
<text text-anchor="start" x="112" y="-413.2" font-family="Helvetica,sans-Serif" font-size="11.00">[table]</text>
<polygon fill="none" stroke="black" points="23,-383 23,-405 147,-405 147,-383 23,-383"/>
<image xlink:href="../../images/primaryKeys.png" width="11px" height="12px" preserveAspectRatio="xMinYMin meet" x="28" y="-400"/>
<text text-anchor="start" x="45" y="-391.2" font-family="Helvetica,sans-Serif" font-size="11.00">geochronid</text>
<polygon fill="#ffffff" stroke="transparent" points="23,-361 23,-383 147,-383 147,-361 23,-361"/>
<polygon fill="none" stroke="black" points="23,-361 23,-383 147,-383 147,-361 23,-361"/>
<image xlink:href="../../images/foreignKeys.png" width="11px" height="12px" preserveAspectRatio="xMinYMin meet" x="28" y="-378"/>
<text text-anchor="start" x="45" y="-369.2" font-family="Helvetica,sans-Serif" font-size="11.00">sampleid</text>
<polygon fill="none" stroke="black" points="23,-339 23,-361 147,-361 147,-339 23,-339"/>
<image xlink:href="../../images/foreignKeys.png" width="11px" height="12px" preserveAspectRatio="xMinYMin meet" x="28" y="-356"/>
<text text-anchor="start" x="45" y="-347.2" font-family="Helvetica,sans-Serif" font-size="11.00">geochrontypeid</text>
<polygon fill="none" stroke="black" points="23,-317 23,-339 147,-339 147,-317 23,-317"/>
<image xlink:href="../../images/foreignKeys.png" width="11px" height="12px" preserveAspectRatio="xMinYMin meet" x="28" y="-334"/>
<text text-anchor="start" x="45" y="-325.2" font-family="Helvetica,sans-Serif" font-size="11.00">agetypeid</text>
<polygon fill="#ffffff" stroke="transparent" points="23,-295 23,-317 147,-317 147,-295 23,-295"/>
<polygon fill="none" stroke="black" points="23,-295 23,-317 147,-317 147,-295 23,-295"/>
<text text-anchor="start" x="45" y="-303.2" font-family="Helvetica,sans-Serif" font-size="11.00">age</text>
<polygon fill="none" stroke="black" points="23,-277 23,-295 147,-295 147,-277 23,-277"/>
<text text-anchor="start" x="26" y="-283.2" font-family="Helvetica,sans-Serif" font-size="11.00">...</text>
<polygon fill="#ffffff" stroke="transparent" points="23,-259 23,-277 52,-277 52,-259 23,-259"/>
<polygon fill="none" stroke="black" points="23,-259 23,-277 52,-277 52,-259 23,-259"/>
<text text-anchor="start" x="26" y="-265.2" font-family="Helvetica,sans-Serif" font-size="11.00">&lt; 3</text>
<polygon fill="#ffffff" stroke="transparent" points="52,-259 52,-277 121,-277 121,-259 52,-259"/>
<polygon fill="none" stroke="black" points="52,-259 52,-277 121,-277 121,-259 52,-259"/>
<text text-anchor="start" x="58" y="-265.2" font-family="Helvetica,sans-Serif" font-size="11.00">41,130 rows</text>
<polygon fill="#ffffff" stroke="transparent" points="121,-259 121,-277 147,-277 147,-259 121,-259"/>
<polygon fill="none" stroke="black" points="121,-259 121,-277 147,-277 147,-259 121,-259"/>
<text text-anchor="start" x="128" y="-265.2" font-family="Helvetica,sans-Serif" font-size="11.00">4 &gt;</text>
</a>
</g>
</g>
<!-- radiocarbon&#45;&gt;geochronology -->
<g id="edge1" class="edge">
<title>radiocarbon:w&#45;&gt;geochronology:e</title>
<path fill="none" stroke="black" d="M201.5,-311.75C169.63,-323.82 190.9,-394 148,-394"/>
<polygon fill="black" stroke="black" points="210.55,-306.19 211.87,-314.08 210.29,-314.34 208.97,-306.45 210.55,-306.19"/>
<polyline fill="none" stroke="black" points="212,-310 208.05,-310.66 "/>
<ellipse fill="none" stroke="black" cx="204.9" cy="-311.19" rx="3.2" ry="3.2"/>
</g>
<!-- radiocarbonmethods -->
<g id="node3" class="node">
<title>radiocarbonmethods</title>
<g id="a_node3"><a xlink:href="../../tables/radiocarbonmethods.html" xlink:title="radiocarbonmethods" target="_top">
<polygon fill="#ffffff" stroke="transparent" points="8,-158 8,-238 162,-238 162,-158 8,-158"/>
<polygon fill="#f5f5f5" stroke="transparent" points="8,-216 8,-238 162,-238 162,-216 8,-216"/>
<polygon fill="none" stroke="black" points="8,-216 8,-238 162,-238 162,-216 8,-216"/>
<text text-anchor="start" x="13" y="-225.2" font-family="Helvetica,sans-Serif" font-weight="bold" font-size="11.00">radiocarbonmethods</text>
<text text-anchor="start" x="127" y="-224.2" font-family="Helvetica,sans-Serif" font-size="11.00">[table]</text>
<polygon fill="none" stroke="black" points="8,-194 8,-216 162,-216 162,-194 8,-194"/>
<image xlink:href="../../images/primaryKeys.png" width="11px" height="12px" preserveAspectRatio="xMinYMin meet" x="13" y="-211"/>
<text text-anchor="start" x="29" y="-202.2" font-family="Helvetica,sans-Serif" font-size="11.00">radiocarbonmethodid</text>
<polygon fill="none" stroke="black" points="8,-176 8,-194 162,-194 162,-176 8,-176"/>
<text text-anchor="start" x="11" y="-182.2" font-family="Helvetica,sans-Serif" font-size="11.00">...</text>
<polygon fill="#ffffff" stroke="transparent" points="8,-158 8,-176 61,-176 61,-158 8,-158"/>
<polygon fill="none" stroke="black" points="8,-158 8,-176 61,-176 61,-158 8,-158"/>
<text text-anchor="start" x="11" y="-164.2" font-family="Helvetica,sans-Serif" font-size="11.00"> &#160;</text>
<polygon fill="#ffffff" stroke="transparent" points="61,-158 61,-176 120,-176 120,-158 61,-158"/>
<polygon fill="none" stroke="black" points="61,-158 61,-176 120,-176 120,-158 61,-158"/>
<text text-anchor="start" x="84" y="-164.2" font-family="Helvetica,sans-Serif" font-size="11.00">5 rows</text>
<polygon fill="#ffffff" stroke="transparent" points="120,-158 120,-176 162,-176 162,-158 120,-158"/>
<polygon fill="none" stroke="black" points="120,-158 120,-176 162,-176 162,-158 120,-158"/>
<text text-anchor="start" x="143" y="-164.2" font-family="Helvetica,sans-Serif" font-size="11.00">1 &gt;</text>
</a>
</g>
</g>
<!-- radiocarbon&#45;&gt;radiocarbonmethods -->
<g id="edge2" class="edge">
<title>radiocarbon:w&#45;&gt;radiocarbonmethods:e</title>
<path fill="none" stroke="black" d="M198.2,-283.54C177.9,-266.3 199.81,-205 163,-205"/>
<polygon fill="black" stroke="black" points="204.39,-285.54 210.89,-291.43 208.19,-286.77 212,-288 212,-288 212,-288 208.19,-286.77 213.11,-284.57 204.39,-285.54 204.39,-285.54"/>
<ellipse fill="none" stroke="black" cx="201.34" cy="-284.55" rx="3.2" ry="3.2"/>
</g>
</g>
</svg>
