<?xml version="1.0" encoding="UTF-8" standalone="no"?>
<!DOCTYPE svg PUBLIC "-//W3C//DTD SVG 1.1//EN"
 "http://www.w3.org/Graphics/SVG/1.1/DTD/svg11.dtd">
<!-- Generated by graphviz version 2.43.0 (0)
 -->
<!-- Title: oneDegreeRelationshipsDiagram Pages: 1 -->
<svg width="457pt" height="357pt"
 viewBox="0.00 0.00 457.00 357.00" xmlns="http://www.w3.org/2000/svg" xmlns:xlink="http://www.w3.org/1999/xlink">
<g id="graph0" class="graph" transform="scale(1 1) rotate(0) translate(4 353)">
<title>oneDegreeRelationshipsDiagram</title>
<polygon fill="#ffffff" stroke="transparent" points="-4,4 -4,-353 453,-353 453,4 -4,4"/>
<text text-anchor="middle" x="71.5" y="-7.2" font-family="Helvetica,sans-Serif" font-size="11.00">Generated by SchemaSpy</text>
<!-- radiocarbon -->
<g id="node1" class="node">
<title>radiocarbon</title>
<g id="a_node1"><a xlink:href="../../tables/radiocarbon.html" xlink:title="radiocarbon" target="_top">
<polygon fill="#ffffff" stroke="transparent" points="211,-37 211,-345 441,-345 441,-37 211,-37"/>
<polygon fill="#f5f5f5" stroke="transparent" points="213,-321 213,-343 439,-343 439,-321 213,-321"/>
<polygon fill="none" stroke="black" points="213,-321 213,-343 439,-343 439,-321 213,-321"/>
<text text-anchor="start" x="218" y="-330.2" font-family="Helvetica,sans-Serif" font-weight="bold" font-size="11.00">radiocarbon</text>
<text text-anchor="start" x="404" y="-329.2" font-family="Helvetica,sans-Serif" font-size="11.00">[table]</text>
<polygon fill="none" stroke="black" points="213,-299 213,-321 365,-321 365,-299 213,-299"/>
<image xlink:href="../../images/primaryKeys.png" width="11px" height="12px" preserveAspectRatio="xMinYMin meet" x="218" y="-316"/>
<text text-anchor="start" x="233" y="-307.2" font-family="Helvetica,sans-Serif" font-size="11.00">geochronid</text>
<polygon fill="none" stroke="black" points="365,-299 365,-321 439,-321 439,-299 365,-299"/>
<text text-anchor="start" x="368" y="-307.2" font-family="Helvetica,sans-Serif" font-size="11.00">int4[10]</text>
<polygon fill="none" stroke="black" points="213,-277 213,-299 365,-299 365,-277 213,-277"/>
<image xlink:href="../../images/foreignKeys.png" width="11px" height="12px" preserveAspectRatio="xMinYMin meet" x="218" y="-294"/>
<text text-anchor="start" x="233" y="-285.2" font-family="Helvetica,sans-Serif" font-size="11.00">radiocarbonmethodid</text>
<polygon fill="none" stroke="black" points="365,-277 365,-299 439,-299 439,-277 365,-277"/>
<text text-anchor="start" x="368" y="-285.2" font-family="Helvetica,sans-Serif" font-size="11.00">int4[10]</text>
<polygon fill="none" stroke="black" points="213,-255 213,-277 365,-277 365,-255 213,-255"/>
<text text-anchor="start" x="233" y="-263.2" font-family="Helvetica,sans-Serif" font-size="11.00">percentc</text>
<polygon fill="none" stroke="black" points="365,-255 365,-277 439,-277 439,-255 365,-255"/>
<text text-anchor="start" x="368" y="-263.2" font-family="Helvetica,sans-Serif" font-size="11.00">float8[17,17]</text>
<polygon fill="none" stroke="black" points="213,-233 213,-255 365,-255 365,-233 213,-233"/>
<text text-anchor="start" x="233" y="-241.2" font-family="Helvetica,sans-Serif" font-size="11.00">percentn</text>
<polygon fill="none" stroke="black" points="365,-233 365,-255 439,-255 439,-233 365,-233"/>
<text text-anchor="start" x="368" y="-241.2" font-family="Helvetica,sans-Serif" font-size="11.00">float8[17,17]</text>
<polygon fill="none" stroke="black" points="213,-211 213,-233 365,-233 365,-211 213,-211"/>
<text text-anchor="start" x="233" y="-219.2" font-family="Helvetica,sans-Serif" font-size="11.00">delta13c</text>
<polygon fill="none" stroke="black" points="365,-211 365,-233 439,-233 439,-211 365,-211"/>
<text text-anchor="start" x="368" y="-219.2" font-family="Helvetica,sans-Serif" font-size="11.00">float8[17,17]</text>
<polygon fill="none" stroke="black" points="213,-189 213,-211 365,-211 365,-189 213,-189"/>
<text text-anchor="start" x="233" y="-197.2" font-family="Helvetica,sans-Serif" font-size="11.00">delta15n</text>
<polygon fill="none" stroke="black" points="365,-189 365,-211 439,-211 439,-189 365,-189"/>
<text text-anchor="start" x="368" y="-197.2" font-family="Helvetica,sans-Serif" font-size="11.00">float8[17,17]</text>
<polygon fill="none" stroke="black" points="213,-167 213,-189 365,-189 365,-167 213,-167"/>
<text text-anchor="start" x="233" y="-175.2" font-family="Helvetica,sans-Serif" font-size="11.00">percentcollagen</text>
<polygon fill="none" stroke="black" points="365,-167 365,-189 439,-189 439,-167 365,-167"/>
<text text-anchor="start" x="368" y="-175.2" font-family="Helvetica,sans-Serif" font-size="11.00">float8[17,17]</text>
<polygon fill="none" stroke="black" points="213,-145 213,-167 365,-167 365,-145 213,-145"/>
<text text-anchor="start" x="233" y="-153.2" font-family="Helvetica,sans-Serif" font-size="11.00">reservoir</text>
<polygon fill="none" stroke="black" points="365,-145 365,-167 439,-167 439,-145 365,-145"/>
<text text-anchor="start" x="368" y="-153.2" font-family="Helvetica,sans-Serif" font-size="11.00">float8[17,17]</text>
<polygon fill="none" stroke="black" points="213,-123 213,-145 365,-145 365,-123 213,-123"/>
<text text-anchor="start" x="233" y="-131.2" font-family="Helvetica,sans-Serif" font-size="11.00">recdatecreated</text>
<polygon fill="none" stroke="black" points="365,-123 365,-145 439,-145 439,-123 365,-123"/>
<text text-anchor="start" x="368" y="-131.2" font-family="Helvetica,sans-Serif" font-size="11.00">timestamp[22]</text>
<polygon fill="none" stroke="black" points="213,-101 213,-123 365,-123 365,-101 213,-101"/>
<text text-anchor="start" x="233" y="-109.2" font-family="Helvetica,sans-Serif" font-size="11.00">recdatemodified</text>
<polygon fill="none" stroke="black" points="365,-101 365,-123 439,-123 439,-101 365,-101"/>
<text text-anchor="start" x="368" y="-109.2" font-family="Helvetica,sans-Serif" font-size="11.00">timestamp[22]</text>
<polygon fill="none" stroke="black" points="213,-79 213,-101 365,-101 365,-79 213,-79"/>
<text text-anchor="start" x="233" y="-87.2" font-family="Helvetica,sans-Serif" font-size="11.00">masscmg</text>
<polygon fill="none" stroke="black" points="365,-79 365,-101 439,-101 439,-79 365,-79"/>
<text text-anchor="start" x="368" y="-87.2" font-family="Helvetica,sans-Serif" font-size="11.00">float8[17,17]</text>
<polygon fill="none" stroke="black" points="213,-57 213,-79 365,-79 365,-57 213,-57"/>
<text text-anchor="start" x="233" y="-65.2" font-family="Helvetica,sans-Serif" font-size="11.00">cnratio</text>
<polygon fill="none" stroke="black" points="365,-57 365,-79 439,-79 439,-57 365,-57"/>
<text text-anchor="start" x="368" y="-65.2" font-family="Helvetica,sans-Serif" font-size="11.00">float8[17,17]</text>
<polygon fill="#ffffff" stroke="transparent" points="213,-39 213,-57 267,-57 267,-39 213,-39"/>
<polygon fill="none" stroke="black" points="213,-39 213,-57 267,-57 267,-39 213,-39"/>
<text text-anchor="start" x="216" y="-45.2" font-family="Helvetica,sans-Serif" font-size="11.00">&lt; 1</text>
<polygon fill="#ffffff" stroke="transparent" points="267,-39 267,-57 365,-57 365,-39 267,-39"/>
<polygon fill="none" stroke="black" points="267,-39 267,-57 365,-57 365,-39 267,-39"/>
<text text-anchor="start" x="302" y="-45.2" font-family="Helvetica,sans-Serif" font-size="11.00">31,854 rows</text>
<polygon fill="#ffffff" stroke="transparent" points="365,-39 365,-57 439,-57 439,-39 365,-39"/>
<polygon fill="none" stroke="black" points="365,-39 365,-57 439,-57 439,-39 365,-39"/>
<text text-anchor="start" x="420" y="-45.2" font-family="Helvetica,sans-Serif" font-size="11.00">0 &gt;</text>
<polygon fill="none" stroke="black" stroke-width="2" points="212,-38 212,-344 440,-344 440,-38 212,-38"/>
</a>
</g>
</g>
<!-- radiocarbonmethods -->
<g id="node2" class="node">
<title>radiocarbonmethods</title>
<g id="a_node2"><a xlink:href="../../tables/radiocarbonmethods.html" xlink:title="radiocarbonmethods" target="_top">
<polygon fill="#ffffff" stroke="transparent" points="8,-241 8,-321 162,-321 162,-241 8,-241"/>
<polygon fill="#f5f5f5" stroke="transparent" points="8,-299 8,-321 162,-321 162,-299 8,-299"/>
<polygon fill="none" stroke="black" points="8,-299 8,-321 162,-321 162,-299 8,-299"/>
<text text-anchor="start" x="13" y="-308.2" font-family="Helvetica,sans-Serif" font-weight="bold" font-size="11.00">radiocarbonmethods</text>
<text text-anchor="start" x="127" y="-307.2" font-family="Helvetica,sans-Serif" font-size="11.00">[table]</text>
<polygon fill="none" stroke="black" points="8,-277 8,-299 162,-299 162,-277 8,-277"/>
<image xlink:href="../../images/primaryKeys.png" width="11px" height="12px" preserveAspectRatio="xMinYMin meet" x="13" y="-294"/>
<text text-anchor="start" x="29" y="-285.2" font-family="Helvetica,sans-Serif" font-size="11.00">radiocarbonmethodid</text>
<polygon fill="none" stroke="black" points="8,-259 8,-277 162,-277 162,-259 8,-259"/>
<text text-anchor="start" x="11" y="-265.2" font-family="Helvetica,sans-Serif" font-size="11.00">...</text>
<polygon fill="#ffffff" stroke="transparent" points="8,-241 8,-259 61,-259 61,-241 8,-241"/>
<polygon fill="none" stroke="black" points="8,-241 8,-259 61,-259 61,-241 8,-241"/>
<text text-anchor="start" x="11" y="-247.2" font-family="Helvetica,sans-Serif" font-size="11.00"> &#160;</text>
<polygon fill="#ffffff" stroke="transparent" points="61,-241 61,-259 120,-259 120,-241 61,-241"/>
<polygon fill="none" stroke="black" points="61,-241 61,-259 120,-259 120,-241 61,-241"/>
<text text-anchor="start" x="84" y="-247.2" font-family="Helvetica,sans-Serif" font-size="11.00">5 rows</text>
<polygon fill="#ffffff" stroke="transparent" points="120,-241 120,-259 162,-259 162,-241 120,-241"/>
<polygon fill="none" stroke="black" points="120,-241 120,-259 162,-259 162,-241 120,-241"/>
<text text-anchor="start" x="143" y="-247.2" font-family="Helvetica,sans-Serif" font-size="11.00">1 &gt;</text>
</a>
</g>
</g>
<!-- radiocarbon&#45;&gt;radiocarbonmethods -->
<g id="edge1" class="edge">
<title>radiocarbon:w&#45;&gt;radiocarbonmethods:e</title>
<path fill="none" stroke="black" d="M197.49,-288C186.18,-288 178.99,-288 163,-288"/>
<polygon fill="black" stroke="black" points="204,-288 212,-291.6 208,-288 212,-288 212,-288 212,-288 208,-288 212,-284.4 204,-288 204,-288"/>
<ellipse fill="none" stroke="black" cx="200.8" cy="-288" rx="3.2" ry="3.2"/>
</g>
</g>
</svg>
