<?xml version="1.0" encoding="UTF-8" standalone="no"?>
<!DOCTYPE svg PUBLIC "-//W3C//DTD SVG 1.1//EN"
 "http://www.w3.org/Graphics/SVG/1.1/DTD/svg11.dtd">
<!-- Generated by graphviz version 2.43.0 (0)
 -->
<!-- Title: twoDegreesRelationshipsDiagram Pages: 1 -->
<svg width="626pt" height="291pt"
 viewBox="0.00 0.00 626.00 291.00" xmlns="http://www.w3.org/2000/svg" xmlns:xlink="http://www.w3.org/1999/xlink">
<g id="graph0" class="graph" transform="scale(1 1) rotate(0) translate(4 287)">
<title>twoDegreesRelationshipsDiagram</title>
<polygon fill="#ffffff" stroke="transparent" points="-4,4 -4,-287 622,-287 622,4 -4,4"/>
<text text-anchor="middle" x="71.5" y="-7.2" font-family="Helvetica,sans-Serif" font-size="11.00">Generated by SchemaSpy</text>
<!-- relativeagepublications -->
<g id="node1" class="node">
<title>relativeagepublications</title>
<g id="a_node1"><a xlink:href="../../tables/relativeagepublications.html" xlink:title="relativeagepublications" target="_top">
<polygon fill="#ffffff" stroke="transparent" points="444,-221 444,-279 610,-279 610,-221 444,-221"/>
<polygon fill="#f5f5f5" stroke="transparent" points="444,-257 444,-279 610,-279 610,-257 444,-257"/>
<polygon fill="none" stroke="black" points="444,-257 444,-279 610,-279 610,-257 444,-257"/>
<text text-anchor="start" x="449" y="-266.2" font-family="Helvetica,sans-Serif" font-weight="bold" font-size="11.00">relativeagepublications</text>
<text text-anchor="start" x="575" y="-265.2" font-family="Helvetica,sans-Serif" font-size="11.00">[table]</text>
<polygon fill="none" stroke="black" points="444,-239 444,-257 610,-257 610,-239 444,-239"/>
<text text-anchor="start" x="447" y="-245.2" font-family="Helvetica,sans-Serif" font-size="11.00">...</text>
<polygon fill="#ffffff" stroke="transparent" points="444,-221 444,-239 506,-239 506,-221 444,-221"/>
<polygon fill="none" stroke="black" points="444,-221 444,-239 506,-239 506,-221 444,-221"/>
<text text-anchor="start" x="447" y="-227.2" font-family="Helvetica,sans-Serif" font-size="11.00">&lt; 2</text>
<polygon fill="#ffffff" stroke="transparent" points="506,-221 506,-239 577,-239 577,-221 506,-221"/>
<polygon fill="none" stroke="black" points="506,-221 506,-239 577,-239 577,-221 506,-221"/>
<text text-anchor="start" x="529" y="-227.2" font-family="Helvetica,sans-Serif" font-size="11.00">115 rows</text>
<polygon fill="#ffffff" stroke="transparent" points="577,-221 577,-239 610,-239 610,-221 577,-221"/>
<polygon fill="none" stroke="black" points="577,-221 577,-239 610,-239 610,-221 577,-221"/>
<text text-anchor="start" x="600" y="-227.2" font-family="Helvetica,sans-Serif" font-size="11.00"> &#160;</text>
</a>
</g>
</g>
<!-- relativeages -->
<g id="node2" class="node">
<title>relativeages</title>
<g id="a_node2"><a xlink:href="../../tables/relativeages.html" xlink:title="relativeages" target="_top">
<polygon fill="#ffffff" stroke="transparent" points="265,-117 265,-241 395,-241 395,-117 265,-117"/>
<polygon fill="#f5f5f5" stroke="transparent" points="265,-219 265,-241 395,-241 395,-219 265,-219"/>
<polygon fill="none" stroke="black" points="265,-219 265,-241 395,-241 395,-219 265,-219"/>
<text text-anchor="start" x="270" y="-228.2" font-family="Helvetica,sans-Serif" font-weight="bold" font-size="11.00">relativeages</text>
<text text-anchor="start" x="360" y="-227.2" font-family="Helvetica,sans-Serif" font-size="11.00">[table]</text>
<polygon fill="none" stroke="black" points="265,-197 265,-219 395,-219 395,-197 265,-197"/>
<image xlink:href="../../images/primaryKeys.png" width="11px" height="12px" preserveAspectRatio="xMinYMin meet" x="270" y="-214"/>
<text text-anchor="start" x="285" y="-205.2" font-family="Helvetica,sans-Serif" font-size="11.00">relativeageid</text>
<polygon fill="none" stroke="black" points="265,-175 265,-197 395,-197 395,-175 265,-175"/>
<image xlink:href="../../images/foreignKeys.png" width="11px" height="12px" preserveAspectRatio="xMinYMin meet" x="270" y="-192"/>
<text text-anchor="start" x="285" y="-183.2" font-family="Helvetica,sans-Serif" font-size="11.00">relativeageunitid</text>
<polygon fill="#ffffff" stroke="transparent" points="265,-153 265,-175 395,-175 395,-153 265,-153"/>
<polygon fill="none" stroke="black" points="265,-153 265,-175 395,-175 395,-153 265,-153"/>
<image xlink:href="../../images/foreignKeys.png" width="11px" height="12px" preserveAspectRatio="xMinYMin meet" x="270" y="-170"/>
<text text-anchor="start" x="285" y="-161.2" font-family="Helvetica,sans-Serif" font-size="11.00">relativeagescaleid</text>
<polygon fill="none" stroke="black" points="265,-135 265,-153 395,-153 395,-135 265,-135"/>
<text text-anchor="start" x="268" y="-141.2" font-family="Helvetica,sans-Serif" font-size="11.00">...</text>
<polygon fill="#ffffff" stroke="transparent" points="265,-117 265,-135 304,-135 304,-117 265,-117"/>
<polygon fill="none" stroke="black" points="265,-117 265,-135 304,-135 304,-117 265,-117"/>
<text text-anchor="start" x="268" y="-123.2" font-family="Helvetica,sans-Serif" font-size="11.00">&lt; 2</text>
<polygon fill="#ffffff" stroke="transparent" points="304,-117 304,-135 364,-135 364,-117 304,-117"/>
<polygon fill="none" stroke="black" points="304,-117 304,-135 364,-135 364,-117 304,-117"/>
<text text-anchor="start" x="316" y="-123.2" font-family="Helvetica,sans-Serif" font-size="11.00">642 rows</text>
<polygon fill="#ffffff" stroke="transparent" points="364,-117 364,-135 395,-135 395,-117 364,-117"/>
<polygon fill="none" stroke="black" points="364,-117 364,-135 395,-135 395,-117 364,-117"/>
<text text-anchor="start" x="376" y="-123.2" font-family="Helvetica,sans-Serif" font-size="11.00">2 &gt;</text>
</a>
</g>
</g>
<!-- relativeagepublications&#45;&gt;relativeages -->
<g id="edge1" class="edge">
<title>relativeagepublications:w&#45;&gt;relativeages:e</title>
<path fill="none" stroke="black" d="M429.33,-243.1C417.32,-232.41 417.43,-208 396,-208"/>
<polygon fill="black" stroke="black" points="435.47,-245.3 441.78,-251.39 439.23,-246.65 443,-248 443,-248 443,-248 439.23,-246.65 444.22,-244.61 435.47,-245.3 435.47,-245.3"/>
<ellipse fill="none" stroke="black" cx="432.46" cy="-244.22" rx="3.2" ry="3.2"/>
</g>
<!-- relativeagescales -->
<g id="node3" class="node">
<title>relativeagescales</title>
<g id="a_node3"><a xlink:href="../../tables/relativeagescales.html" xlink:title="relativeagescales" target="_top">
<polygon fill="#ffffff" stroke="transparent" points="8,-37 8,-169 216,-169 216,-37 8,-37"/>
<polygon fill="#f5f5f5" stroke="transparent" points="10,-145 10,-167 214,-167 214,-145 10,-145"/>
<polygon fill="none" stroke="black" points="10,-145 10,-167 214,-167 214,-145 10,-145"/>
<text text-anchor="start" x="15" y="-154.2" font-family="Helvetica,sans-Serif" font-weight="bold" font-size="11.00">relativeagescales</text>
<text text-anchor="start" x="179" y="-153.2" font-family="Helvetica,sans-Serif" font-size="11.00">[table]</text>
<polygon fill="none" stroke="black" points="10,-123 10,-145 140,-145 140,-123 10,-123"/>
<image xlink:href="../../images/primaryKeys.png" width="11px" height="12px" preserveAspectRatio="xMinYMin meet" x="15" y="-140"/>
<text text-anchor="start" x="30" y="-131.2" font-family="Helvetica,sans-Serif" font-size="11.00">relativeagescaleid</text>
<polygon fill="none" stroke="black" points="140,-123 140,-145 214,-145 214,-123 140,-123"/>
<text text-anchor="start" x="143" y="-131.2" font-family="Helvetica,sans-Serif" font-size="11.00">serial[10]</text>
<polygon fill="none" stroke="black" points="10,-101 10,-123 140,-123 140,-101 10,-101"/>
<text text-anchor="start" x="30" y="-109.2" font-family="Helvetica,sans-Serif" font-size="11.00">relativeagescale</text>
<polygon fill="none" stroke="black" points="140,-101 140,-123 214,-123 214,-101 140,-101"/>
<text text-anchor="start" x="143" y="-109.2" font-family="Helvetica,sans-Serif" font-size="11.00">varchar[64]</text>
<polygon fill="none" stroke="black" points="10,-79 10,-101 140,-101 140,-79 10,-79"/>
<text text-anchor="start" x="30" y="-87.2" font-family="Helvetica,sans-Serif" font-size="11.00">recdatecreated</text>
<polygon fill="none" stroke="black" points="140,-79 140,-101 214,-101 214,-79 140,-79"/>
<text text-anchor="start" x="143" y="-87.2" font-family="Helvetica,sans-Serif" font-size="11.00">timestamp[22]</text>
<polygon fill="none" stroke="black" points="10,-57 10,-79 140,-79 140,-57 10,-57"/>
<text text-anchor="start" x="30" y="-65.2" font-family="Helvetica,sans-Serif" font-size="11.00">recdatemodified</text>
<polygon fill="none" stroke="black" points="140,-57 140,-79 214,-79 214,-57 140,-57"/>
<text text-anchor="start" x="143" y="-65.2" font-family="Helvetica,sans-Serif" font-size="11.00">timestamp[22]</text>
<polygon fill="#ffffff" stroke="transparent" points="10,-39 10,-57 66,-57 66,-39 10,-39"/>
<polygon fill="none" stroke="black" points="10,-39 10,-57 66,-57 66,-39 10,-39"/>
<text text-anchor="start" x="13" y="-45.2" font-family="Helvetica,sans-Serif" font-size="11.00">&lt; 0</text>
<polygon fill="#ffffff" stroke="transparent" points="66,-39 66,-57 140,-57 140,-39 66,-39"/>
<polygon fill="none" stroke="black" points="66,-39 66,-57 140,-57 140,-39 66,-39"/>
<text text-anchor="start" x="104" y="-45.2" font-family="Helvetica,sans-Serif" font-size="11.00">9 rows</text>
<polygon fill="#ffffff" stroke="transparent" points="140,-39 140,-57 214,-57 214,-39 140,-39"/>
<polygon fill="none" stroke="black" points="140,-39 140,-57 214,-57 214,-39 140,-39"/>
<text text-anchor="start" x="195" y="-45.2" font-family="Helvetica,sans-Serif" font-size="11.00">1 &gt;</text>
<polygon fill="none" stroke="black" stroke-width="2" points="9,-38 9,-168 215,-168 215,-38 9,-38"/>
</a>
</g>
</g>
<!-- relativeages&#45;&gt;relativeagescales -->
<g id="edge2" class="edge">
<title>relativeages:w&#45;&gt;relativeagescales:e</title>
<path fill="none" stroke="black" d="M249.88,-159.83C237.92,-151.59 234.55,-134 215,-134"/>
<polygon fill="black" stroke="black" points="256.33,-161.73 262.98,-167.45 260.16,-162.87 264,-164 264,-164 264,-164 260.16,-162.87 265.02,-160.55 256.33,-161.73 256.33,-161.73"/>
<ellipse fill="none" stroke="black" cx="253.26" cy="-160.83" rx="3.2" ry="3.2"/>
</g>
<!-- relativeageunits -->
<g id="node4" class="node">
<title>relativeageunits</title>
<g id="a_node4"><a xlink:href="../../tables/relativeageunits.html" xlink:title="relativeageunits" target="_top">
<polygon fill="#ffffff" stroke="transparent" points="48,-190 48,-248 176,-248 176,-190 48,-190"/>
<polygon fill="#f5f5f5" stroke="transparent" points="48,-226 48,-248 176,-248 176,-226 48,-226"/>
<polygon fill="none" stroke="black" points="48,-226 48,-248 176,-248 176,-226 48,-226"/>
<text text-anchor="start" x="53" y="-235.2" font-family="Helvetica,sans-Serif" font-weight="bold" font-size="11.00">relativeageunits</text>
<text text-anchor="start" x="141" y="-234.2" font-family="Helvetica,sans-Serif" font-size="11.00">[table]</text>
<polygon fill="none" stroke="black" points="48,-208 48,-226 176,-226 176,-208 48,-208"/>
<text text-anchor="start" x="51" y="-214.2" font-family="Helvetica,sans-Serif" font-size="11.00">...</text>
<polygon fill="#ffffff" stroke="transparent" points="48,-190 48,-208 85,-208 85,-190 48,-190"/>
<polygon fill="none" stroke="black" points="48,-190 48,-208 85,-208 85,-190 48,-190"/>
<text text-anchor="start" x="51" y="-196.2" font-family="Helvetica,sans-Serif" font-size="11.00"> &#160;</text>
<polygon fill="#ffffff" stroke="transparent" points="85,-190 85,-208 142,-208 142,-190 85,-190"/>
<polygon fill="none" stroke="black" points="85,-190 85,-208 142,-208 142,-190 85,-190"/>
<text text-anchor="start" x="100" y="-196.2" font-family="Helvetica,sans-Serif" font-size="11.00">12 rows</text>
<polygon fill="#ffffff" stroke="transparent" points="142,-190 142,-208 176,-208 176,-190 142,-190"/>
<polygon fill="none" stroke="black" points="142,-190 142,-208 176,-208 176,-190 142,-190"/>
<text text-anchor="start" x="157" y="-196.2" font-family="Helvetica,sans-Serif" font-size="11.00">1 &gt;</text>
</a>
</g>
</g>
<!-- relativeages&#45;&gt;relativeageunits -->
<g id="edge3" class="edge">
<title>relativeages:w&#45;&gt;relativeageunits:e</title>
<path fill="none" stroke="black" d="M249.39,-187.5C221.01,-193.69 212.6,-217 177,-217"/>
<polygon fill="black" stroke="black" points="256.04,-186.81 264.37,-189.58 260.02,-186.41 264,-186 264,-186 264,-186 260.02,-186.41 263.63,-182.42 256.04,-186.81 256.04,-186.81"/>
<ellipse fill="none" stroke="black" cx="252.86" cy="-187.14" rx="3.2" ry="3.2"/>
</g>
<!-- relativechronology -->
<g id="node5" class="node">
<title>relativechronology</title>
<g id="a_node5"><a xlink:href="../../tables/relativechronology.html" xlink:title="relativechronology" target="_top">
<polygon fill="#ffffff" stroke="transparent" points="455.5,-142 455.5,-200 598.5,-200 598.5,-142 455.5,-142"/>
<polygon fill="#f5f5f5" stroke="transparent" points="456,-178 456,-200 599,-200 599,-178 456,-178"/>
<polygon fill="none" stroke="black" points="456,-178 456,-200 599,-200 599,-178 456,-178"/>
<text text-anchor="start" x="461" y="-187.2" font-family="Helvetica,sans-Serif" font-weight="bold" font-size="11.00">relativechronology</text>
<text text-anchor="start" x="564" y="-186.2" font-family="Helvetica,sans-Serif" font-size="11.00">[table]</text>
<polygon fill="none" stroke="black" points="456,-160 456,-178 599,-178 599,-160 456,-160"/>
<text text-anchor="start" x="459" y="-166.2" font-family="Helvetica,sans-Serif" font-size="11.00">...</text>
<polygon fill="#ffffff" stroke="transparent" points="456,-142 456,-160 502,-160 502,-142 456,-142"/>
<polygon fill="none" stroke="black" points="456,-142 456,-160 502,-160 502,-142 456,-142"/>
<text text-anchor="start" x="459" y="-148.2" font-family="Helvetica,sans-Serif" font-size="11.00">&lt; 3</text>
<polygon fill="#ffffff" stroke="transparent" points="502,-142 502,-160 574,-160 574,-142 502,-142"/>
<polygon fill="none" stroke="black" points="502,-142 502,-160 574,-160 574,-142 502,-142"/>
<text text-anchor="start" x="517" y="-148.2" font-family="Helvetica,sans-Serif" font-size="11.00">4,630 rows</text>
<polygon fill="#ffffff" stroke="transparent" points="574,-142 574,-160 599,-160 599,-142 574,-142"/>
<polygon fill="none" stroke="black" points="574,-142 574,-160 599,-160 599,-142 574,-142"/>
<text text-anchor="start" x="589" y="-148.2" font-family="Helvetica,sans-Serif" font-size="11.00"> &#160;</text>
</a>
</g>
</g>
<!-- relativechronology&#45;&gt;relativeages -->
<g id="edge4" class="edge">
<title>relativechronology:w&#45;&gt;relativeages:e</title>
<path fill="none" stroke="black" d="M440.58,-172.6C423.78,-182.25 421.54,-208 396,-208"/>
<polygon fill="black" stroke="black" points="447.24,-170.94 455.87,-172.49 451.12,-169.97 455,-169 455,-169 455,-169 451.12,-169.97 454.13,-165.51 447.24,-170.94 447.24,-170.94"/>
<ellipse fill="none" stroke="black" cx="444.13" cy="-171.71" rx="3.2" ry="3.2"/>
</g>
</g>
</svg>
