<?xml version="1.0" encoding="UTF-8" standalone="no"?>
<!DOCTYPE svg PUBLIC "-//W3C//DTD SVG 1.1//EN"
 "http://www.w3.org/Graphics/SVG/1.1/DTD/svg11.dtd">
<!-- Generated by graphviz version 2.43.0 (0)
 -->
<!-- Title: twoDegreesRelationshipsDiagram Pages: 1 -->
<svg width="647pt" height="561pt"
 viewBox="0.00 0.00 647.00 561.00" xmlns="http://www.w3.org/2000/svg" xmlns:xlink="http://www.w3.org/1999/xlink">
<g id="graph0" class="graph" transform="scale(1 1) rotate(0) translate(4 557)">
<title>twoDegreesRelationshipsDiagram</title>
<polygon fill="#ffffff" stroke="transparent" points="-4,4 -4,-557 643,-557 643,4 -4,4"/>
<text text-anchor="middle" x="71.5" y="-7.2" font-family="Helvetica,sans-Serif" font-size="11.00">Generated by SchemaSpy</text>
<!-- chroncontrols -->
<g id="node1" class="node">
<title>chroncontrols</title>
<g id="a_node1"><a xlink:href="../../tables/chroncontrols.html" xlink:title="chroncontrols" target="_top">
<polygon fill="#ffffff" stroke="transparent" points="244.5,-423 244.5,-481 363.5,-481 363.5,-423 244.5,-423"/>
<polygon fill="#f5f5f5" stroke="transparent" points="245,-459 245,-481 364,-481 364,-459 245,-459"/>
<polygon fill="none" stroke="black" points="245,-459 245,-481 364,-481 364,-459 245,-459"/>
<text text-anchor="start" x="250" y="-468.2" font-family="Helvetica,sans-Serif" font-weight="bold" font-size="11.00">chroncontrols</text>
<text text-anchor="start" x="329" y="-467.2" font-family="Helvetica,sans-Serif" font-size="11.00">[table]</text>
<polygon fill="none" stroke="black" points="245,-441 245,-459 364,-459 364,-441 245,-441"/>
<text text-anchor="start" x="248" y="-447.2" font-family="Helvetica,sans-Serif" font-size="11.00">...</text>
<polygon fill="#ffffff" stroke="transparent" points="245,-423 245,-441 268,-441 268,-423 245,-423"/>
<polygon fill="none" stroke="black" points="245,-423 245,-441 268,-441 268,-423 245,-423"/>
<text text-anchor="start" x="248" y="-429.2" font-family="Helvetica,sans-Serif" font-size="11.00">&lt; 4</text>
<polygon fill="#ffffff" stroke="transparent" points="268,-423 268,-441 341,-441 341,-423 268,-423"/>
<polygon fill="none" stroke="black" points="268,-423 268,-441 341,-441 341,-423 268,-423"/>
<text text-anchor="start" x="272" y="-429.2" font-family="Helvetica,sans-Serif" font-size="11.00">100,724 rows</text>
<polygon fill="#ffffff" stroke="transparent" points="341,-423 341,-441 364,-441 364,-423 341,-423"/>
<polygon fill="none" stroke="black" points="341,-423 341,-441 364,-441 364,-423 341,-423"/>
<text text-anchor="start" x="345" y="-429.2" font-family="Helvetica,sans-Serif" font-size="11.00">5 &gt;</text>
</a>
</g>
</g>
<!-- analysisunits -->
<g id="node2" class="node">
<title>analysisunits</title>
<g id="a_node2"><a xlink:href="../../tables/analysisunits.html" xlink:title="analysisunits" target="_top">
<polygon fill="#ffffff" stroke="transparent" points="17.5,-450 17.5,-508 133.5,-508 133.5,-450 17.5,-450"/>
<polygon fill="#f5f5f5" stroke="transparent" points="17.5,-486 17.5,-508 133.5,-508 133.5,-486 17.5,-486"/>
<polygon fill="none" stroke="black" points="17.5,-486 17.5,-508 133.5,-508 133.5,-486 17.5,-486"/>
<text text-anchor="start" x="22.5" y="-495.2" font-family="Helvetica,sans-Serif" font-weight="bold" font-size="11.00">analysisunits</text>
<text text-anchor="start" x="98.5" y="-494.2" font-family="Helvetica,sans-Serif" font-size="11.00">[table]</text>
<polygon fill="none" stroke="black" points="17.5,-468 17.5,-486 133.5,-486 133.5,-468 17.5,-468"/>
<text text-anchor="start" x="20.5" y="-474.2" font-family="Helvetica,sans-Serif" font-size="11.00">...</text>
<polygon fill="#ffffff" stroke="transparent" points="17.5,-450 17.5,-468 39.5,-468 39.5,-450 17.5,-450"/>
<polygon fill="none" stroke="black" points="17.5,-450 17.5,-468 39.5,-468 39.5,-450 17.5,-450"/>
<text text-anchor="start" x="20.5" y="-456.2" font-family="Helvetica,sans-Serif" font-size="11.00">&lt; 2</text>
<polygon fill="#ffffff" stroke="transparent" points="39.5,-450 39.5,-468 111.5,-468 111.5,-450 39.5,-450"/>
<polygon fill="none" stroke="black" points="39.5,-450 39.5,-468 111.5,-468 111.5,-450 39.5,-450"/>
<text text-anchor="start" x="42.5" y="-456.2" font-family="Helvetica,sans-Serif" font-size="11.00">449,200 rows</text>
<polygon fill="#ffffff" stroke="transparent" points="111.5,-450 111.5,-468 133.5,-468 133.5,-450 111.5,-450"/>
<polygon fill="none" stroke="black" points="111.5,-450 111.5,-468 133.5,-468 133.5,-450 111.5,-450"/>
<text text-anchor="start" x="114.5" y="-456.2" font-family="Helvetica,sans-Serif" font-size="11.00">9 &gt;</text>
</a>
</g>
</g>
<!-- chroncontrols&#45;&gt;analysisunits -->
<g id="edge1" class="edge">
<title>chroncontrols:w&#45;&gt;analysisunits:e</title>
<path fill="none" stroke="black" d="M229.41,-450.84C191.47,-455.39 179.34,-477 134.5,-477"/>
<polygon fill="black" stroke="black" points="236.01,-450.46 244.21,-453.59 240.01,-450.23 244,-450 244,-450 244,-450 240.01,-450.23 243.79,-446.41 236.01,-450.46 236.01,-450.46"/>
<ellipse fill="none" stroke="black" cx="232.82" cy="-450.64" rx="3.2" ry="3.2"/>
</g>
<!-- relativeagepublications -->
<g id="node3" class="node">
<title>relativeagepublications</title>
<g id="a_node3"><a xlink:href="../../tables/relativeagepublications.html" xlink:title="relativeagepublications" target="_top">
<polygon fill="#ffffff" stroke="transparent" points="465,-148 465,-250 631,-250 631,-148 465,-148"/>
<polygon fill="#f5f5f5" stroke="transparent" points="465,-228 465,-250 631,-250 631,-228 465,-228"/>
<polygon fill="none" stroke="black" points="465,-228 465,-250 631,-250 631,-228 465,-228"/>
<text text-anchor="start" x="470" y="-237.2" font-family="Helvetica,sans-Serif" font-weight="bold" font-size="11.00">relativeagepublications</text>
<text text-anchor="start" x="596" y="-236.2" font-family="Helvetica,sans-Serif" font-size="11.00">[table]</text>
<polygon fill="none" stroke="black" points="465,-206 465,-228 631,-228 631,-206 465,-206"/>
<image xlink:href="../../images/primaryKeys.png" width="11px" height="12px" preserveAspectRatio="xMinYMin meet" x="470" y="-223"/>
<text text-anchor="start" x="487" y="-214.2" font-family="Helvetica,sans-Serif" font-size="11.00">relativeageid</text>
<polygon fill="none" stroke="black" points="465,-184 465,-206 631,-206 631,-184 465,-184"/>
<image xlink:href="../../images/primaryKeys.png" width="11px" height="12px" preserveAspectRatio="xMinYMin meet" x="470" y="-201"/>
<text text-anchor="start" x="487" y="-192.2" font-family="Helvetica,sans-Serif" font-size="11.00">publicationid</text>
<polygon fill="none" stroke="black" points="465,-166 465,-184 631,-184 631,-166 465,-166"/>
<text text-anchor="start" x="468" y="-172.2" font-family="Helvetica,sans-Serif" font-size="11.00">...</text>
<polygon fill="#ffffff" stroke="transparent" points="465,-148 465,-166 527,-166 527,-148 465,-148"/>
<polygon fill="none" stroke="black" points="465,-148 465,-166 527,-166 527,-148 465,-148"/>
<text text-anchor="start" x="468" y="-154.2" font-family="Helvetica,sans-Serif" font-size="11.00">&lt; 2</text>
<polygon fill="#ffffff" stroke="transparent" points="527,-148 527,-166 598,-166 598,-148 527,-148"/>
<polygon fill="none" stroke="black" points="527,-148 527,-166 598,-166 598,-148 527,-148"/>
<text text-anchor="start" x="550" y="-154.2" font-family="Helvetica,sans-Serif" font-size="11.00">115 rows</text>
<polygon fill="#ffffff" stroke="transparent" points="598,-148 598,-166 631,-166 631,-148 598,-148"/>
<polygon fill="none" stroke="black" points="598,-148 598,-166 631,-166 631,-148 598,-148"/>
<text text-anchor="start" x="621" y="-154.2" font-family="Helvetica,sans-Serif" font-size="11.00"> &#160;</text>
</a>
</g>
</g>
<!-- publications -->
<g id="node4" class="node">
<title>publications</title>
<g id="a_node4"><a xlink:href="../../tables/publications.html" xlink:title="publications" target="_top">
<polygon fill="#ffffff" stroke="transparent" points="246,-37 246,-95 362,-95 362,-37 246,-37"/>
<polygon fill="#f5f5f5" stroke="transparent" points="246,-73 246,-95 362,-95 362,-73 246,-73"/>
<polygon fill="none" stroke="black" points="246,-73 246,-95 362,-95 362,-73 246,-73"/>
<text text-anchor="start" x="251" y="-82.2" font-family="Helvetica,sans-Serif" font-weight="bold" font-size="11.00">publications</text>
<text text-anchor="start" x="327" y="-81.2" font-family="Helvetica,sans-Serif" font-size="11.00">[table]</text>
<polygon fill="none" stroke="black" points="246,-55 246,-73 362,-73 362,-55 246,-55"/>
<text text-anchor="start" x="249" y="-61.2" font-family="Helvetica,sans-Serif" font-size="11.00">...</text>
<polygon fill="#ffffff" stroke="transparent" points="246,-37 246,-55 268,-55 268,-37 246,-37"/>
<polygon fill="none" stroke="black" points="246,-37 246,-55 268,-55 268,-37 246,-37"/>
<text text-anchor="start" x="249" y="-43.2" font-family="Helvetica,sans-Serif" font-size="11.00">&lt; 1</text>
<polygon fill="#ffffff" stroke="transparent" points="268,-37 268,-55 334,-55 334,-37 268,-37"/>
<polygon fill="none" stroke="black" points="268,-37 268,-55 334,-55 334,-37 268,-37"/>
<text text-anchor="start" x="271" y="-43.2" font-family="Helvetica,sans-Serif" font-size="11.00">13,466 rows</text>
<polygon fill="#ffffff" stroke="transparent" points="334,-37 334,-55 362,-55 362,-37 334,-37"/>
<polygon fill="none" stroke="black" points="334,-37 334,-55 362,-55 362,-37 334,-37"/>
<text text-anchor="start" x="337" y="-43.2" font-family="Helvetica,sans-Serif" font-size="11.00">12 &gt;</text>
</a>
</g>
</g>
<!-- relativeagepublications&#45;&gt;publications -->
<g id="edge2" class="edge">
<title>relativeagepublications:w&#45;&gt;publications:e</title>
<path fill="none" stroke="black" d="M449.65,-191.87C428.02,-179.57 448.19,-133.8 424,-105 402.99,-79.99 395.67,-64 363,-64"/>
<polygon fill="black" stroke="black" points="456.18,-193.3 463.23,-198.52 460.09,-194.15 464,-195 464,-195 464,-195 460.09,-194.15 464.77,-191.48 456.18,-193.3 456.18,-193.3"/>
<ellipse fill="none" stroke="black" cx="453.06" cy="-192.61" rx="3.2" ry="3.2"/>
</g>
<!-- relativeages -->
<g id="node5" class="node">
<title>relativeages</title>
<g id="a_node5"><a xlink:href="../../tables/relativeages.html" xlink:title="relativeages" target="_top">
<polygon fill="#ffffff" stroke="transparent" points="192,-116 192,-402 416,-402 416,-116 192,-116"/>
<polygon fill="#f5f5f5" stroke="transparent" points="194,-378 194,-400 414,-400 414,-378 194,-378"/>
<polygon fill="none" stroke="black" points="194,-378 194,-400 414,-400 414,-378 194,-378"/>
<text text-anchor="start" x="199" y="-387.2" font-family="Helvetica,sans-Serif" font-weight="bold" font-size="11.00">relativeages</text>
<text text-anchor="start" x="379" y="-386.2" font-family="Helvetica,sans-Serif" font-size="11.00">[table]</text>
<polygon fill="none" stroke="black" points="194,-356 194,-378 324,-378 324,-356 194,-356"/>
<image xlink:href="../../images/primaryKeys.png" width="11px" height="12px" preserveAspectRatio="xMinYMin meet" x="199" y="-373"/>
<text text-anchor="start" x="214" y="-364.2" font-family="Helvetica,sans-Serif" font-size="11.00">relativeageid</text>
<polygon fill="none" stroke="black" points="324,-356 324,-378 414,-378 414,-356 324,-356"/>
<text text-anchor="start" x="327" y="-364.2" font-family="Helvetica,sans-Serif" font-size="11.00">serial[10]</text>
<polygon fill="none" stroke="black" points="194,-334 194,-356 324,-356 324,-334 194,-334"/>
<image xlink:href="../../images/foreignKeys.png" width="11px" height="12px" preserveAspectRatio="xMinYMin meet" x="199" y="-351"/>
<text text-anchor="start" x="214" y="-342.2" font-family="Helvetica,sans-Serif" font-size="11.00">relativeageunitid</text>
<polygon fill="none" stroke="black" points="324,-334 324,-356 414,-356 414,-334 324,-334"/>
<text text-anchor="start" x="327" y="-342.2" font-family="Helvetica,sans-Serif" font-size="11.00">int4[10]</text>
<polygon fill="#ffffff" stroke="transparent" points="194,-312 194,-334 324,-334 324,-312 194,-312"/>
<polygon fill="none" stroke="black" points="194,-312 194,-334 324,-334 324,-312 194,-312"/>
<image xlink:href="../../images/foreignKeys.png" width="11px" height="12px" preserveAspectRatio="xMinYMin meet" x="199" y="-329"/>
<text text-anchor="start" x="214" y="-320.2" font-family="Helvetica,sans-Serif" font-size="11.00">relativeagescaleid</text>
<polygon fill="none" stroke="black" points="324,-312 324,-334 414,-334 414,-312 324,-312"/>
<text text-anchor="start" x="327" y="-320.2" font-family="Helvetica,sans-Serif" font-size="11.00">int4[10]</text>
<polygon fill="none" stroke="black" points="194,-290 194,-312 324,-312 324,-290 194,-290"/>
<text text-anchor="start" x="214" y="-298.2" font-family="Helvetica,sans-Serif" font-size="11.00">relativeage</text>
<polygon fill="none" stroke="black" points="324,-290 324,-312 414,-312 414,-290 324,-290"/>
<text text-anchor="start" x="327" y="-298.2" font-family="Helvetica,sans-Serif" font-size="11.00">varchar[64]</text>
<polygon fill="none" stroke="black" points="194,-268 194,-290 324,-290 324,-268 194,-268"/>
<text text-anchor="start" x="214" y="-276.2" font-family="Helvetica,sans-Serif" font-size="11.00">c14ageyounger</text>
<polygon fill="none" stroke="black" points="324,-268 324,-290 414,-290 414,-268 324,-268"/>
<text text-anchor="start" x="327" y="-276.2" font-family="Helvetica,sans-Serif" font-size="11.00">float8[17,17]</text>
<polygon fill="none" stroke="black" points="194,-246 194,-268 324,-268 324,-246 194,-246"/>
<text text-anchor="start" x="214" y="-254.2" font-family="Helvetica,sans-Serif" font-size="11.00">c14ageolder</text>
<polygon fill="none" stroke="black" points="324,-246 324,-268 414,-268 414,-246 324,-246"/>
<text text-anchor="start" x="327" y="-254.2" font-family="Helvetica,sans-Serif" font-size="11.00">float8[17,17]</text>
<polygon fill="none" stroke="black" points="194,-224 194,-246 324,-246 324,-224 194,-224"/>
<text text-anchor="start" x="214" y="-232.2" font-family="Helvetica,sans-Serif" font-size="11.00">calageyounger</text>
<polygon fill="none" stroke="black" points="324,-224 324,-246 414,-246 414,-224 324,-224"/>
<text text-anchor="start" x="327" y="-232.2" font-family="Helvetica,sans-Serif" font-size="11.00">float8[17,17]</text>
<polygon fill="none" stroke="black" points="194,-202 194,-224 324,-224 324,-202 194,-202"/>
<text text-anchor="start" x="214" y="-210.2" font-family="Helvetica,sans-Serif" font-size="11.00">calageolder</text>
<polygon fill="none" stroke="black" points="324,-202 324,-224 414,-224 414,-202 324,-202"/>
<text text-anchor="start" x="327" y="-210.2" font-family="Helvetica,sans-Serif" font-size="11.00">float8[17,17]</text>
<polygon fill="none" stroke="black" points="194,-180 194,-202 324,-202 324,-180 194,-180"/>
<text text-anchor="start" x="214" y="-188.2" font-family="Helvetica,sans-Serif" font-size="11.00">notes</text>
<polygon fill="none" stroke="black" points="324,-180 324,-202 414,-202 414,-180 324,-180"/>
<text text-anchor="start" x="327" y="-188.2" font-family="Helvetica,sans-Serif" font-size="11.00">text[2147483647]</text>
<polygon fill="none" stroke="black" points="194,-158 194,-180 324,-180 324,-158 194,-158"/>
<text text-anchor="start" x="214" y="-166.2" font-family="Helvetica,sans-Serif" font-size="11.00">recdatecreated</text>
<polygon fill="none" stroke="black" points="324,-158 324,-180 414,-180 414,-158 324,-158"/>
<text text-anchor="start" x="327" y="-166.2" font-family="Helvetica,sans-Serif" font-size="11.00">timestamp[22]</text>
<polygon fill="none" stroke="black" points="194,-136 194,-158 324,-158 324,-136 194,-136"/>
<text text-anchor="start" x="214" y="-144.2" font-family="Helvetica,sans-Serif" font-size="11.00">recdatemodified</text>
<polygon fill="none" stroke="black" points="324,-136 324,-158 414,-158 414,-136 324,-136"/>
<text text-anchor="start" x="327" y="-144.2" font-family="Helvetica,sans-Serif" font-size="11.00">timestamp[22]</text>
<polygon fill="#ffffff" stroke="transparent" points="194,-118 194,-136 244,-136 244,-118 194,-118"/>
<polygon fill="none" stroke="black" points="194,-118 194,-136 244,-136 244,-118 194,-118"/>
<text text-anchor="start" x="197" y="-124.2" font-family="Helvetica,sans-Serif" font-size="11.00">&lt; 2</text>
<polygon fill="#ffffff" stroke="transparent" points="244,-118 244,-136 324,-136 324,-118 244,-118"/>
<polygon fill="none" stroke="black" points="244,-118 244,-136 324,-136 324,-118 244,-118"/>
<text text-anchor="start" x="276" y="-124.2" font-family="Helvetica,sans-Serif" font-size="11.00">642 rows</text>
<polygon fill="#ffffff" stroke="transparent" points="324,-118 324,-136 414,-136 414,-118 324,-118"/>
<polygon fill="none" stroke="black" points="324,-118 324,-136 414,-136 414,-118 324,-118"/>
<text text-anchor="start" x="395" y="-124.2" font-family="Helvetica,sans-Serif" font-size="11.00">2 &gt;</text>
<polygon fill="none" stroke="black" stroke-width="2" points="193,-117 193,-401 415,-401 415,-117 193,-117"/>
</a>
</g>
</g>
<!-- relativeagepublications&#45;&gt;relativeages -->
<g id="edge3" class="edge">
<title>relativeagepublications:w&#45;&gt;relativeages:e</title>
<path fill="none" stroke="black" d="M449.82,-219.86C407.75,-240.6 479.38,-367 415,-367"/>
<polygon fill="black" stroke="black" points="456.16,-218.58 464.71,-220.53 460.08,-217.79 464,-217 464,-217 464,-217 460.08,-217.79 463.29,-213.47 456.16,-218.58 456.16,-218.58"/>
<ellipse fill="none" stroke="black" cx="453.02" cy="-219.22" rx="3.2" ry="3.2"/>
</g>
<!-- relativeagescales -->
<g id="node6" class="node">
<title>relativeagescales</title>
<g id="a_node6"><a xlink:href="../../tables/relativeagescales.html" xlink:title="relativeagescales" target="_top">
<polygon fill="#ffffff" stroke="transparent" points="8,-222 8,-302 143,-302 143,-222 8,-222"/>
<polygon fill="#f5f5f5" stroke="transparent" points="8.5,-280 8.5,-302 143.5,-302 143.5,-280 8.5,-280"/>
<polygon fill="none" stroke="black" points="8.5,-280 8.5,-302 143.5,-302 143.5,-280 8.5,-280"/>
<text text-anchor="start" x="13.5" y="-289.2" font-family="Helvetica,sans-Serif" font-weight="bold" font-size="11.00">relativeagescales</text>
<text text-anchor="start" x="108.5" y="-288.2" font-family="Helvetica,sans-Serif" font-size="11.00">[table]</text>
<polygon fill="none" stroke="black" points="8.5,-258 8.5,-280 143.5,-280 143.5,-258 8.5,-258"/>
<image xlink:href="../../images/primaryKeys.png" width="11px" height="12px" preserveAspectRatio="xMinYMin meet" x="13.5" y="-275"/>
<text text-anchor="start" x="31.5" y="-266.2" font-family="Helvetica,sans-Serif" font-size="11.00">relativeagescaleid</text>
<polygon fill="none" stroke="black" points="8.5,-240 8.5,-258 143.5,-258 143.5,-240 8.5,-240"/>
<text text-anchor="start" x="11.5" y="-246.2" font-family="Helvetica,sans-Serif" font-size="11.00">...</text>
<polygon fill="#ffffff" stroke="transparent" points="8.5,-222 8.5,-240 51.5,-240 51.5,-222 8.5,-222"/>
<polygon fill="none" stroke="black" points="8.5,-222 8.5,-240 51.5,-240 51.5,-222 8.5,-222"/>
<text text-anchor="start" x="11.5" y="-228.2" font-family="Helvetica,sans-Serif" font-size="11.00"> &#160;</text>
<polygon fill="#ffffff" stroke="transparent" points="51.5,-222 51.5,-240 105.5,-240 105.5,-222 51.5,-222"/>
<polygon fill="none" stroke="black" points="51.5,-222 51.5,-240 105.5,-240 105.5,-222 51.5,-222"/>
<text text-anchor="start" x="69.5" y="-228.2" font-family="Helvetica,sans-Serif" font-size="11.00">9 rows</text>
<polygon fill="#ffffff" stroke="transparent" points="105.5,-222 105.5,-240 143.5,-240 143.5,-222 105.5,-222"/>
<polygon fill="none" stroke="black" points="105.5,-222 105.5,-240 143.5,-240 143.5,-222 105.5,-222"/>
<text text-anchor="start" x="124.5" y="-228.2" font-family="Helvetica,sans-Serif" font-size="11.00">1 &gt;</text>
</a>
</g>
</g>
<!-- relativeages&#45;&gt;relativeagescales -->
<g id="edge4" class="edge">
<title>relativeages:w&#45;&gt;relativeagescales:e</title>
<path fill="none" stroke="black" d="M179.31,-318.02C165.05,-304.65 170.71,-269 144.5,-269"/>
<polygon fill="black" stroke="black" points="185.48,-320.26 191.77,-326.38 189.24,-321.63 193,-323 193,-323 193,-323 189.24,-321.63 194.23,-319.62 185.48,-320.26 185.48,-320.26"/>
<ellipse fill="none" stroke="black" cx="182.48" cy="-319.17" rx="3.2" ry="3.2"/>
</g>
<!-- relativeageunits -->
<g id="node7" class="node">
<title>relativeageunits</title>
<g id="a_node7"><a xlink:href="../../tables/relativeageunits.html" xlink:title="relativeageunits" target="_top">
<polygon fill="#ffffff" stroke="transparent" points="11.5,-323 11.5,-403 139.5,-403 139.5,-323 11.5,-323"/>
<polygon fill="#f5f5f5" stroke="transparent" points="11.5,-381 11.5,-403 139.5,-403 139.5,-381 11.5,-381"/>
<polygon fill="none" stroke="black" points="11.5,-381 11.5,-403 139.5,-403 139.5,-381 11.5,-381"/>
<text text-anchor="start" x="16.5" y="-390.2" font-family="Helvetica,sans-Serif" font-weight="bold" font-size="11.00">relativeageunits</text>
<text text-anchor="start" x="104.5" y="-389.2" font-family="Helvetica,sans-Serif" font-size="11.00">[table]</text>
<polygon fill="none" stroke="black" points="11.5,-359 11.5,-381 139.5,-381 139.5,-359 11.5,-359"/>
<image xlink:href="../../images/primaryKeys.png" width="11px" height="12px" preserveAspectRatio="xMinYMin meet" x="16.5" y="-376"/>
<text text-anchor="start" x="33.5" y="-367.2" font-family="Helvetica,sans-Serif" font-size="11.00">relativeageunitid</text>
<polygon fill="none" stroke="black" points="11.5,-341 11.5,-359 139.5,-359 139.5,-341 11.5,-341"/>
<text text-anchor="start" x="14.5" y="-347.2" font-family="Helvetica,sans-Serif" font-size="11.00">...</text>
<polygon fill="#ffffff" stroke="transparent" points="11.5,-323 11.5,-341 48.5,-341 48.5,-323 11.5,-323"/>
<polygon fill="none" stroke="black" points="11.5,-323 11.5,-341 48.5,-341 48.5,-323 11.5,-323"/>
<text text-anchor="start" x="14.5" y="-329.2" font-family="Helvetica,sans-Serif" font-size="11.00"> &#160;</text>
<polygon fill="#ffffff" stroke="transparent" points="48.5,-323 48.5,-341 105.5,-341 105.5,-323 48.5,-323"/>
<polygon fill="none" stroke="black" points="48.5,-323 48.5,-341 105.5,-341 105.5,-323 48.5,-323"/>
<text text-anchor="start" x="63.5" y="-329.2" font-family="Helvetica,sans-Serif" font-size="11.00">12 rows</text>
<polygon fill="#ffffff" stroke="transparent" points="105.5,-323 105.5,-341 139.5,-341 139.5,-323 105.5,-323"/>
<polygon fill="none" stroke="black" points="105.5,-323 105.5,-341 139.5,-341 139.5,-323 105.5,-323"/>
<text text-anchor="start" x="120.5" y="-329.2" font-family="Helvetica,sans-Serif" font-size="11.00">1 &gt;</text>
</a>
</g>
</g>
<!-- relativeages&#45;&gt;relativeageunits -->
<g id="edge5" class="edge">
<title>relativeages:w&#45;&gt;relativeageunits:e</title>
<path fill="none" stroke="black" d="M178.71,-348.27C165.5,-355.04 160.49,-370 140.5,-370"/>
<polygon fill="black" stroke="black" points="185.2,-346.78 193.8,-348.51 189.1,-345.89 193,-345 193,-345 193,-345 189.1,-345.89 192.2,-341.49 185.2,-346.78 185.2,-346.78"/>
<ellipse fill="none" stroke="black" cx="182.08" cy="-347.5" rx="3.2" ry="3.2"/>
</g>
<!-- relativechronology -->
<g id="node8" class="node">
<title>relativechronology</title>
<g id="a_node8"><a xlink:href="../../tables/relativechronology.html" xlink:title="relativechronology" target="_top">
<polygon fill="#ffffff" stroke="transparent" points="476.5,-403 476.5,-549 619.5,-549 619.5,-403 476.5,-403"/>
<polygon fill="#f5f5f5" stroke="transparent" points="477,-527 477,-549 620,-549 620,-527 477,-527"/>
<polygon fill="none" stroke="black" points="477,-527 477,-549 620,-549 620,-527 477,-527"/>
<text text-anchor="start" x="482" y="-536.2" font-family="Helvetica,sans-Serif" font-weight="bold" font-size="11.00">relativechronology</text>
<text text-anchor="start" x="585" y="-535.2" font-family="Helvetica,sans-Serif" font-size="11.00">[table]</text>
<polygon fill="none" stroke="black" points="477,-505 477,-527 620,-527 620,-505 477,-505"/>
<image xlink:href="../../images/primaryKeys.png" width="11px" height="12px" preserveAspectRatio="xMinYMin meet" x="482" y="-522"/>
<text text-anchor="start" x="502" y="-513.2" font-family="Helvetica,sans-Serif" font-size="11.00">relativechronid</text>
<polygon fill="#ffffff" stroke="transparent" points="477,-483 477,-505 620,-505 620,-483 477,-483"/>
<polygon fill="none" stroke="black" points="477,-483 477,-505 620,-505 620,-483 477,-483"/>
<image xlink:href="../../images/foreignKeys.png" width="11px" height="12px" preserveAspectRatio="xMinYMin meet" x="482" y="-500"/>
<text text-anchor="start" x="502" y="-491.2" font-family="Helvetica,sans-Serif" font-size="11.00">analysisunitid</text>
<polygon fill="#ffffff" stroke="transparent" points="477,-461 477,-483 620,-483 620,-461 477,-461"/>
<polygon fill="none" stroke="black" points="477,-461 477,-483 620,-483 620,-461 477,-461"/>
<image xlink:href="../../images/foreignKeys.png" width="11px" height="12px" preserveAspectRatio="xMinYMin meet" x="482" y="-478"/>
<text text-anchor="start" x="502" y="-469.2" font-family="Helvetica,sans-Serif" font-size="11.00">relativeageid</text>
<polygon fill="none" stroke="black" points="477,-439 477,-461 620,-461 620,-439 477,-439"/>
<image xlink:href="../../images/foreignKeys.png" width="11px" height="12px" preserveAspectRatio="xMinYMin meet" x="482" y="-456"/>
<text text-anchor="start" x="502" y="-447.2" font-family="Helvetica,sans-Serif" font-size="11.00">chroncontrolid</text>
<polygon fill="none" stroke="black" points="477,-421 477,-439 620,-439 620,-421 477,-421"/>
<text text-anchor="start" x="480" y="-427.2" font-family="Helvetica,sans-Serif" font-size="11.00">...</text>
<polygon fill="#ffffff" stroke="transparent" points="477,-403 477,-421 523,-421 523,-403 477,-403"/>
<polygon fill="none" stroke="black" points="477,-403 477,-421 523,-421 523,-403 477,-403"/>
<text text-anchor="start" x="480" y="-409.2" font-family="Helvetica,sans-Serif" font-size="11.00">&lt; 3</text>
<polygon fill="#ffffff" stroke="transparent" points="523,-403 523,-421 595,-421 595,-403 523,-403"/>
<polygon fill="none" stroke="black" points="523,-403 523,-421 595,-421 595,-403 523,-403"/>
<text text-anchor="start" x="538" y="-409.2" font-family="Helvetica,sans-Serif" font-size="11.00">4,625 rows</text>
<polygon fill="#ffffff" stroke="transparent" points="595,-403 595,-421 620,-421 620,-403 595,-403"/>
<polygon fill="none" stroke="black" points="595,-403 595,-421 620,-421 620,-403 595,-403"/>
<text text-anchor="start" x="610" y="-409.2" font-family="Helvetica,sans-Serif" font-size="11.00"> &#160;</text>
</a>
</g>
</g>
<!-- relativechronology&#45;&gt;chroncontrols -->
<g id="edge7" class="edge">
<title>relativechronology:w&#45;&gt;chroncontrols:e</title>
<path fill="none" stroke="black" d="M461.54,-450C423.65,-450 409.13,-450 365,-450"/>
<polygon fill="black" stroke="black" points="468,-450 476,-453.6 472,-450 476,-450 476,-450 476,-450 472,-450 476,-446.4 468,-450 468,-450"/>
<ellipse fill="none" stroke="black" cx="464.8" cy="-450" rx="3.2" ry="3.2"/>
</g>
<!-- relativechronology&#45;&gt;analysisunits -->
<g id="edge6" class="edge">
<title>relativechronology:w&#45;&gt;analysisunits:e</title>
<path fill="none" stroke="black" d="M461.58,-494.07C343.5,-495.28 307.43,-510.72 184,-492 161.27,-488.55 157.49,-477 134.5,-477"/>
<polygon fill="black" stroke="black" points="468,-494.04 476.02,-497.6 472,-494.02 476,-494 476,-494 476,-494 472,-494.02 475.98,-490.4 468,-494.04 468,-494.04"/>
<ellipse fill="none" stroke="black" cx="464.8" cy="-494.06" rx="3.2" ry="3.2"/>
</g>
<!-- relativechronology&#45;&gt;relativeages -->
<g id="edge8" class="edge">
<title>relativechronology:w&#45;&gt;relativeages:e</title>
<path fill="none" stroke="black" d="M461.65,-468.51C431.09,-450.29 463.07,-367 415,-367"/>
<polygon fill="black" stroke="black" points="468.23,-470.11 475.15,-475.5 472.11,-471.05 476,-472 476,-472 476,-472 472.11,-471.05 476.85,-468.5 468.23,-470.11 468.23,-470.11"/>
<ellipse fill="none" stroke="black" cx="465.12" cy="-469.35" rx="3.2" ry="3.2"/>
</g>
</g>
</svg>
