<?xml version="1.0" encoding="UTF-8" standalone="no"?>
<!DOCTYPE svg PUBLIC "-//W3C//DTD SVG 1.1//EN"
 "http://www.w3.org/Graphics/SVG/1.1/DTD/svg11.dtd">
<!-- Generated by graphviz version 2.43.0 (0)
 -->
<!-- Title: oneDegreeRelationshipsDiagram Pages: 1 -->
<svg width="406pt" height="201pt"
 viewBox="0.00 0.00 406.00 201.00" xmlns="http://www.w3.org/2000/svg" xmlns:xlink="http://www.w3.org/1999/xlink">
<g id="graph0" class="graph" transform="scale(1 1) rotate(0) translate(4 197)">
<title>oneDegreeRelationshipsDiagram</title>
<polygon fill="#ffffff" stroke="transparent" points="-4,4 -4,-197 402,-197 402,4 -4,4"/>
<text text-anchor="middle" x="71.5" y="-7.2" font-family="Helvetica,sans-Serif" font-size="11.00">Generated by SchemaSpy</text>
<!-- relativeages -->
<g id="node1" class="node">
<title>relativeages</title>
<g id="a_node1"><a xlink:href="../../tables/relativeages.html" xlink:title="relativeages" target="_top">
<polygon fill="#ffffff" stroke="transparent" points="260,-65 260,-189 390,-189 390,-65 260,-65"/>
<polygon fill="#f5f5f5" stroke="transparent" points="260,-167 260,-189 390,-189 390,-167 260,-167"/>
<polygon fill="none" stroke="black" points="260,-167 260,-189 390,-189 390,-167 260,-167"/>
<text text-anchor="start" x="265" y="-176.2" font-family="Helvetica,sans-Serif" font-weight="bold" font-size="11.00">relativeages</text>
<text text-anchor="start" x="355" y="-175.2" font-family="Helvetica,sans-Serif" font-size="11.00">[table]</text>
<polygon fill="none" stroke="black" points="260,-145 260,-167 390,-167 390,-145 260,-145"/>
<image xlink:href="../../images/primaryKeys.png" width="11px" height="12px" preserveAspectRatio="xMinYMin meet" x="265" y="-162"/>
<text text-anchor="start" x="280" y="-153.2" font-family="Helvetica,sans-Serif" font-size="11.00">relativeageid</text>
<polygon fill="none" stroke="black" points="260,-123 260,-145 390,-145 390,-123 260,-123"/>
<image xlink:href="../../images/foreignKeys.png" width="11px" height="12px" preserveAspectRatio="xMinYMin meet" x="265" y="-140"/>
<text text-anchor="start" x="280" y="-131.2" font-family="Helvetica,sans-Serif" font-size="11.00">relativeageunitid</text>
<polygon fill="#ffffff" stroke="transparent" points="260,-101 260,-123 390,-123 390,-101 260,-101"/>
<polygon fill="none" stroke="black" points="260,-101 260,-123 390,-123 390,-101 260,-101"/>
<image xlink:href="../../images/foreignKeys.png" width="11px" height="12px" preserveAspectRatio="xMinYMin meet" x="265" y="-118"/>
<text text-anchor="start" x="280" y="-109.2" font-family="Helvetica,sans-Serif" font-size="11.00">relativeagescaleid</text>
<polygon fill="none" stroke="black" points="260,-83 260,-101 390,-101 390,-83 260,-83"/>
<text text-anchor="start" x="263" y="-89.2" font-family="Helvetica,sans-Serif" font-size="11.00">...</text>
<polygon fill="#ffffff" stroke="transparent" points="260,-65 260,-83 299,-83 299,-65 260,-65"/>
<polygon fill="none" stroke="black" points="260,-65 260,-83 299,-83 299,-65 260,-65"/>
<text text-anchor="start" x="263" y="-71.2" font-family="Helvetica,sans-Serif" font-size="11.00">&lt; 2</text>
<polygon fill="#ffffff" stroke="transparent" points="299,-65 299,-83 359,-83 359,-65 299,-65"/>
<polygon fill="none" stroke="black" points="299,-65 299,-83 359,-83 359,-65 299,-65"/>
<text text-anchor="start" x="311" y="-71.2" font-family="Helvetica,sans-Serif" font-size="11.00">642 rows</text>
<polygon fill="#ffffff" stroke="transparent" points="359,-65 359,-83 390,-83 390,-65 359,-65"/>
<polygon fill="none" stroke="black" points="359,-65 359,-83 390,-83 390,-65 359,-65"/>
<text text-anchor="start" x="371" y="-71.2" font-family="Helvetica,sans-Serif" font-size="11.00">2 &gt;</text>
</a>
</g>
</g>
<!-- relativeageunits -->
<g id="node2" class="node">
<title>relativeageunits</title>
<g id="a_node2"><a xlink:href="../../tables/relativeageunits.html" xlink:title="relativeageunits" target="_top">
<polygon fill="#ffffff" stroke="transparent" points="8,-37 8,-169 211,-169 211,-37 8,-37"/>
<polygon fill="#f5f5f5" stroke="transparent" points="10.5,-145 10.5,-167 209.5,-167 209.5,-145 10.5,-145"/>
<polygon fill="none" stroke="black" points="10.5,-145 10.5,-167 209.5,-167 209.5,-145 10.5,-145"/>
<text text-anchor="start" x="15.5" y="-154.2" font-family="Helvetica,sans-Serif" font-weight="bold" font-size="11.00">relativeageunits</text>
<text text-anchor="start" x="174.5" y="-153.2" font-family="Helvetica,sans-Serif" font-size="11.00">[table]</text>
<polygon fill="none" stroke="black" points="10.5,-123 10.5,-145 135.5,-145 135.5,-123 10.5,-123"/>
<image xlink:href="../../images/primaryKeys.png" width="11px" height="12px" preserveAspectRatio="xMinYMin meet" x="15.5" y="-140"/>
<text text-anchor="start" x="30.5" y="-131.2" font-family="Helvetica,sans-Serif" font-size="11.00">relativeageunitid</text>
<polygon fill="none" stroke="black" points="135.5,-123 135.5,-145 209.5,-145 209.5,-123 135.5,-123"/>
<text text-anchor="start" x="138.5" y="-131.2" font-family="Helvetica,sans-Serif" font-size="11.00">serial[10]</text>
<polygon fill="none" stroke="black" points="10.5,-101 10.5,-123 135.5,-123 135.5,-101 10.5,-101"/>
<text text-anchor="start" x="30.5" y="-109.2" font-family="Helvetica,sans-Serif" font-size="11.00">relativeageunit</text>
<polygon fill="none" stroke="black" points="135.5,-101 135.5,-123 209.5,-123 209.5,-101 135.5,-101"/>
<text text-anchor="start" x="138.5" y="-109.2" font-family="Helvetica,sans-Serif" font-size="11.00">varchar[64]</text>
<polygon fill="none" stroke="black" points="10.5,-79 10.5,-101 135.5,-101 135.5,-79 10.5,-79"/>
<text text-anchor="start" x="30.5" y="-87.2" font-family="Helvetica,sans-Serif" font-size="11.00">recdatecreated</text>
<polygon fill="none" stroke="black" points="135.5,-79 135.5,-101 209.5,-101 209.5,-79 135.5,-79"/>
<text text-anchor="start" x="138.5" y="-87.2" font-family="Helvetica,sans-Serif" font-size="11.00">timestamp[22]</text>
<polygon fill="none" stroke="black" points="10.5,-57 10.5,-79 135.5,-79 135.5,-57 10.5,-57"/>
<text text-anchor="start" x="30.5" y="-65.2" font-family="Helvetica,sans-Serif" font-size="11.00">recdatemodified</text>
<polygon fill="none" stroke="black" points="135.5,-57 135.5,-79 209.5,-79 209.5,-57 135.5,-57"/>
<text text-anchor="start" x="138.5" y="-65.2" font-family="Helvetica,sans-Serif" font-size="11.00">timestamp[22]</text>
<polygon fill="#ffffff" stroke="transparent" points="10.5,-39 10.5,-57 61.5,-57 61.5,-39 10.5,-39"/>
<polygon fill="none" stroke="black" points="10.5,-39 10.5,-57 61.5,-57 61.5,-39 10.5,-39"/>
<text text-anchor="start" x="13.5" y="-45.2" font-family="Helvetica,sans-Serif" font-size="11.00">&lt; 0</text>
<polygon fill="#ffffff" stroke="transparent" points="61.5,-39 61.5,-57 135.5,-57 135.5,-39 61.5,-39"/>
<polygon fill="none" stroke="black" points="61.5,-39 61.5,-57 135.5,-57 135.5,-39 61.5,-39"/>
<text text-anchor="start" x="93.5" y="-45.2" font-family="Helvetica,sans-Serif" font-size="11.00">12 rows</text>
<polygon fill="#ffffff" stroke="transparent" points="135.5,-39 135.5,-57 209.5,-57 209.5,-39 135.5,-39"/>
<polygon fill="none" stroke="black" points="135.5,-39 135.5,-57 209.5,-57 209.5,-39 135.5,-39"/>
<text text-anchor="start" x="190.5" y="-45.2" font-family="Helvetica,sans-Serif" font-size="11.00">1 &gt;</text>
<polygon fill="none" stroke="black" stroke-width="2" points="9,-38 9,-168 210,-168 210,-38 9,-38"/>
</a>
</g>
</g>
<!-- relativeages&#45;&gt;relativeageunits -->
<g id="edge1" class="edge">
<title>relativeages:w&#45;&gt;relativeageunits:e</title>
<path fill="none" stroke="black" d="M244.28,-134C233.29,-134 226.16,-134 210.5,-134"/>
<polygon fill="black" stroke="black" points="251,-134 259,-137.6 255,-134 259,-134 259,-134 259,-134 255,-134 259,-130.4 251,-134 251,-134"/>
<ellipse fill="none" stroke="black" cx="247.8" cy="-134" rx="3.2" ry="3.2"/>
</g>
</g>
</svg>
