<?xml version="1.0" encoding="UTF-8" standalone="no"?>
<!DOCTYPE svg PUBLIC "-//W3C//DTD SVG 1.1//EN"
 "http://www.w3.org/Graphics/SVG/1.1/DTD/svg11.dtd">
<!-- Generated by graphviz version 2.43.0 (0)
 -->
<!-- Title: twoDegreesRelationshipsDiagram Pages: 1 -->
<svg width="677pt" height="857pt"
 viewBox="0.00 0.00 677.00 857.00" xmlns="http://www.w3.org/2000/svg" xmlns:xlink="http://www.w3.org/1999/xlink">
<g id="graph0" class="graph" transform="scale(1 1) rotate(0) translate(4 853)">
<title>twoDegreesRelationshipsDiagram</title>
<polygon fill="#ffffff" stroke="transparent" points="-4,4 -4,-853 673,-853 673,4 -4,4"/>
<text text-anchor="middle" x="71.5" y="-7.2" font-family="Helvetica,sans-Serif" font-size="11.00">Generated by SchemaSpy</text>
<!-- isospecimendata -->
<g id="node1" class="node">
<title>isospecimendata</title>
<g id="a_node1"><a xlink:href="../../tables/isospecimendata.html" xlink:title="isospecimendata" target="_top">
<polygon fill="#ffffff" stroke="transparent" points="517.5,-787 517.5,-845 650.5,-845 650.5,-787 517.5,-787"/>
<polygon fill="#f5f5f5" stroke="transparent" points="518,-823 518,-845 651,-845 651,-823 518,-823"/>
<polygon fill="none" stroke="black" points="518,-823 518,-845 651,-845 651,-823 518,-823"/>
<text text-anchor="start" x="523" y="-832.2" font-family="Helvetica,sans-Serif" font-weight="bold" font-size="11.00">isospecimendata</text>
<text text-anchor="start" x="616" y="-831.2" font-family="Helvetica,sans-Serif" font-size="11.00">[table]</text>
<polygon fill="none" stroke="black" points="518,-805 518,-823 651,-823 651,-805 518,-805"/>
<text text-anchor="start" x="521" y="-811.2" font-family="Helvetica,sans-Serif" font-size="11.00">...</text>
<polygon fill="#ffffff" stroke="transparent" points="518,-787 518,-805 559,-805 559,-787 518,-787"/>
<polygon fill="none" stroke="black" points="518,-787 518,-805 559,-805 559,-787 518,-787"/>
<text text-anchor="start" x="521" y="-793.2" font-family="Helvetica,sans-Serif" font-size="11.00">&lt; 2</text>
<polygon fill="#ffffff" stroke="transparent" points="559,-787 559,-805 628,-805 628,-787 559,-787"/>
<polygon fill="none" stroke="black" points="559,-787 559,-805 628,-805 628,-787 559,-787"/>
<text text-anchor="start" x="571" y="-793.2" font-family="Helvetica,sans-Serif" font-size="11.00">5,193 rows</text>
<polygon fill="#ffffff" stroke="transparent" points="628,-787 628,-805 651,-805 651,-787 628,-787"/>
<polygon fill="none" stroke="black" points="628,-787 628,-805 651,-805 651,-787 628,-787"/>
<text text-anchor="start" x="641" y="-793.2" font-family="Helvetica,sans-Serif" font-size="11.00"> &#160;</text>
</a>
</g>
</g>
<!-- data -->
<g id="node2" class="node">
<title>data</title>
<g id="a_node2"><a xlink:href="../../tables/data.html" xlink:title="data" target="_top">
<polygon fill="#ffffff" stroke="transparent" points="65.5,-787 65.5,-845 196.5,-845 196.5,-787 65.5,-787"/>
<polygon fill="#f5f5f5" stroke="transparent" points="66,-823 66,-845 197,-845 197,-823 66,-823"/>
<polygon fill="none" stroke="black" points="66,-823 66,-845 197,-845 197,-823 66,-823"/>
<text text-anchor="start" x="71" y="-832.2" font-family="Helvetica,sans-Serif" font-weight="bold" font-size="11.00">data</text>
<text text-anchor="start" x="162" y="-831.2" font-family="Helvetica,sans-Serif" font-size="11.00">[table]</text>
<polygon fill="none" stroke="black" points="66,-805 66,-823 197,-823 197,-805 66,-805"/>
<text text-anchor="start" x="69" y="-811.2" font-family="Helvetica,sans-Serif" font-size="11.00">...</text>
<polygon fill="#ffffff" stroke="transparent" points="66,-787 66,-805 88,-805 88,-787 66,-787"/>
<polygon fill="none" stroke="black" points="66,-787 66,-805 88,-805 88,-787 66,-787"/>
<text text-anchor="start" x="69" y="-793.2" font-family="Helvetica,sans-Serif" font-size="11.00">&lt; 2</text>
<polygon fill="#ffffff" stroke="transparent" points="88,-787 88,-805 175,-805 175,-787 88,-787"/>
<polygon fill="none" stroke="black" points="88,-787 88,-805 175,-805 175,-787 88,-787"/>
<text text-anchor="start" x="91" y="-793.2" font-family="Helvetica,sans-Serif" font-size="11.00">10,527,055 rows</text>
<polygon fill="#ffffff" stroke="transparent" points="175,-787 175,-805 197,-805 197,-787 175,-787"/>
<polygon fill="none" stroke="black" points="175,-787 175,-805 197,-805 197,-787 175,-787"/>
<text text-anchor="start" x="178" y="-793.2" font-family="Helvetica,sans-Serif" font-size="11.00">8 &gt;</text>
</a>
</g>
</g>
<!-- isospecimendata&#45;&gt;data -->
<g id="edge1" class="edge">
<title>isospecimendata:w&#45;&gt;data:e</title>
<path fill="none" stroke="black" d="M502.43,-814C372.6,-814 334.79,-814 198,-814"/>
<polygon fill="black" stroke="black" points="509,-814 517,-817.6 513,-814 517,-814 517,-814 517,-814 513,-814 517,-810.4 509,-814 509,-814"/>
<ellipse fill="none" stroke="black" cx="505.8" cy="-814" rx="3.2" ry="3.2"/>
</g>
<!-- specimens -->
<g id="node3" class="node">
<title>specimens</title>
<g id="a_node3"><a xlink:href="../../tables/specimens.html" xlink:title="specimens" target="_top">
<polygon fill="#ffffff" stroke="transparent" points="318.5,-437 318.5,-693 442.5,-693 442.5,-437 318.5,-437"/>
<polygon fill="#f5f5f5" stroke="transparent" points="318.5,-671 318.5,-693 442.5,-693 442.5,-671 318.5,-671"/>
<polygon fill="none" stroke="black" points="318.5,-671 318.5,-693 442.5,-693 442.5,-671 318.5,-671"/>
<text text-anchor="start" x="323.5" y="-680.2" font-family="Helvetica,sans-Serif" font-weight="bold" font-size="11.00">specimens</text>
<text text-anchor="start" x="407.5" y="-679.2" font-family="Helvetica,sans-Serif" font-size="11.00">[table]</text>
<polygon fill="none" stroke="black" points="318.5,-649 318.5,-671 442.5,-671 442.5,-649 318.5,-649"/>
<image xlink:href="../../images/primaryKeys.png" width="11px" height="12px" preserveAspectRatio="xMinYMin meet" x="323.5" y="-666"/>
<text text-anchor="start" x="338.5" y="-657.2" font-family="Helvetica,sans-Serif" font-size="11.00">specimenid</text>
<polygon fill="none" stroke="black" points="318.5,-627 318.5,-649 442.5,-649 442.5,-627 318.5,-627"/>
<image xlink:href="../../images/foreignKeys.png" width="11px" height="12px" preserveAspectRatio="xMinYMin meet" x="323.5" y="-644"/>
<text text-anchor="start" x="338.5" y="-635.2" font-family="Helvetica,sans-Serif" font-size="11.00">dataid</text>
<polygon fill="none" stroke="black" points="318.5,-605 318.5,-627 442.5,-627 442.5,-605 318.5,-605"/>
<image xlink:href="../../images/foreignKeys.png" width="11px" height="12px" preserveAspectRatio="xMinYMin meet" x="323.5" y="-622"/>
<text text-anchor="start" x="338.5" y="-613.2" font-family="Helvetica,sans-Serif" font-size="11.00">elementtypeid</text>
<polygon fill="none" stroke="black" points="318.5,-583 318.5,-605 442.5,-605 442.5,-583 318.5,-583"/>
<image xlink:href="../../images/foreignKeys.png" width="11px" height="12px" preserveAspectRatio="xMinYMin meet" x="323.5" y="-600"/>
<text text-anchor="start" x="338.5" y="-591.2" font-family="Helvetica,sans-Serif" font-size="11.00">symmetryid</text>
<polygon fill="none" stroke="black" points="318.5,-561 318.5,-583 442.5,-583 442.5,-561 318.5,-561"/>
<image xlink:href="../../images/foreignKeys.png" width="11px" height="12px" preserveAspectRatio="xMinYMin meet" x="323.5" y="-578"/>
<text text-anchor="start" x="338.5" y="-569.2" font-family="Helvetica,sans-Serif" font-size="11.00">portionid</text>
<polygon fill="none" stroke="black" points="318.5,-539 318.5,-561 442.5,-561 442.5,-539 318.5,-539"/>
<image xlink:href="../../images/foreignKeys.png" width="11px" height="12px" preserveAspectRatio="xMinYMin meet" x="323.5" y="-556"/>
<text text-anchor="start" x="338.5" y="-547.2" font-family="Helvetica,sans-Serif" font-size="11.00">maturityid</text>
<polygon fill="none" stroke="black" points="318.5,-517 318.5,-539 442.5,-539 442.5,-517 318.5,-517"/>
<image xlink:href="../../images/foreignKeys.png" width="11px" height="12px" preserveAspectRatio="xMinYMin meet" x="323.5" y="-534"/>
<text text-anchor="start" x="338.5" y="-525.2" font-family="Helvetica,sans-Serif" font-size="11.00">sexid</text>
<polygon fill="none" stroke="black" points="318.5,-495 318.5,-517 442.5,-517 442.5,-495 318.5,-495"/>
<image xlink:href="../../images/foreignKeys.png" width="11px" height="12px" preserveAspectRatio="xMinYMin meet" x="323.5" y="-512"/>
<text text-anchor="start" x="338.5" y="-503.2" font-family="Helvetica,sans-Serif" font-size="11.00">domesticstatusid</text>
<polygon fill="none" stroke="black" points="318.5,-473 318.5,-495 442.5,-495 442.5,-473 318.5,-473"/>
<image xlink:href="../../images/foreignKeys.png" width="11px" height="12px" preserveAspectRatio="xMinYMin meet" x="323.5" y="-490"/>
<text text-anchor="start" x="338.5" y="-481.2" font-family="Helvetica,sans-Serif" font-size="11.00">repositoryid</text>
<polygon fill="none" stroke="black" points="318.5,-455 318.5,-473 442.5,-473 442.5,-455 318.5,-455"/>
<text text-anchor="start" x="321.5" y="-461.2" font-family="Helvetica,sans-Serif" font-size="11.00">...</text>
<polygon fill="#ffffff" stroke="transparent" points="318.5,-437 318.5,-455 350.5,-455 350.5,-437 318.5,-437"/>
<polygon fill="none" stroke="black" points="318.5,-437 318.5,-455 350.5,-455 350.5,-437 318.5,-437"/>
<text text-anchor="start" x="321.5" y="-443.2" font-family="Helvetica,sans-Serif" font-size="11.00">&lt; 8</text>
<polygon fill="#ffffff" stroke="transparent" points="350.5,-437 350.5,-455 415.5,-455 415.5,-437 350.5,-437"/>
<polygon fill="none" stroke="black" points="350.5,-437 350.5,-455 415.5,-455 415.5,-437 350.5,-437"/>
<text text-anchor="start" x="358.5" y="-443.2" font-family="Helvetica,sans-Serif" font-size="11.00">3,453 rows</text>
<polygon fill="#ffffff" stroke="transparent" points="415.5,-437 415.5,-455 442.5,-455 442.5,-437 415.5,-437"/>
<polygon fill="none" stroke="black" points="415.5,-437 415.5,-455 442.5,-455 442.5,-437 415.5,-437"/>
<text text-anchor="start" x="423.5" y="-443.2" font-family="Helvetica,sans-Serif" font-size="11.00">4 &gt;</text>
</a>
</g>
</g>
<!-- isospecimendata&#45;&gt;specimens -->
<g id="edge2" class="edge">
<title>isospecimendata:w&#45;&gt;specimens:e</title>
<path fill="none" stroke="black" d="M502.53,-811.58C451.92,-791.99 513.71,-660 443.5,-660"/>
<polygon fill="black" stroke="black" points="509.11,-812.68 516.41,-817.55 513.05,-813.34 517,-814 517,-814 517,-814 513.05,-813.34 517.59,-810.45 509.11,-812.68 509.11,-812.68"/>
<ellipse fill="none" stroke="black" cx="505.95" cy="-812.15" rx="3.2" ry="3.2"/>
</g>
<!-- specimens&#45;&gt;data -->
<g id="edge8" class="edge">
<title>specimens:w&#45;&gt;data:e</title>
<path fill="none" stroke="black" d="M303.17,-639.8C259.45,-652.63 301.87,-730.92 262,-777 240.5,-801.85 230.86,-814 198,-814"/>
<polygon fill="black" stroke="black" points="309.56,-639 317.95,-641.57 313.53,-638.5 317.5,-638 317.5,-638 317.5,-638 313.53,-638.5 317.05,-634.43 309.56,-639 309.56,-639"/>
<ellipse fill="none" stroke="black" cx="306.39" cy="-639.4" rx="3.2" ry="3.2"/>
</g>
<!-- repositoryinstitutions -->
<g id="node6" class="node">
<title>repositoryinstitutions</title>
<g id="a_node6"><a xlink:href="../../tables/repositoryinstitutions.html" xlink:title="repositoryinstitutions" target="_top">
<polygon fill="#ffffff" stroke="transparent" points="8,-116 8,-292 254,-292 254,-116 8,-116"/>
<polygon fill="#f5f5f5" stroke="transparent" points="10,-268 10,-290 252,-290 252,-268 10,-268"/>
<polygon fill="none" stroke="black" points="10,-268 10,-290 252,-290 252,-268 10,-268"/>
<text text-anchor="start" x="15" y="-277.2" font-family="Helvetica,sans-Serif" font-weight="bold" font-size="11.00">repositoryinstitutions</text>
<text text-anchor="start" x="217" y="-276.2" font-family="Helvetica,sans-Serif" font-size="11.00">[table]</text>
<polygon fill="none" stroke="black" points="10,-246 10,-268 162,-268 162,-246 10,-246"/>
<image xlink:href="../../images/primaryKeys.png" width="11px" height="12px" preserveAspectRatio="xMinYMin meet" x="15" y="-263"/>
<text text-anchor="start" x="30" y="-254.2" font-family="Helvetica,sans-Serif" font-size="11.00">repositoryid</text>
<polygon fill="none" stroke="black" points="162,-246 162,-268 252,-268 252,-246 162,-246"/>
<text text-anchor="start" x="165" y="-254.2" font-family="Helvetica,sans-Serif" font-size="11.00">serial[10]</text>
<polygon fill="none" stroke="black" points="10,-224 10,-246 162,-246 162,-224 10,-224"/>
<text text-anchor="start" x="30" y="-232.2" font-family="Helvetica,sans-Serif" font-size="11.00">acronym</text>
<polygon fill="none" stroke="black" points="162,-224 162,-246 252,-246 252,-224 162,-224"/>
<text text-anchor="start" x="165" y="-232.2" font-family="Helvetica,sans-Serif" font-size="11.00">varchar[64]</text>
<polygon fill="none" stroke="black" points="10,-202 10,-224 162,-224 162,-202 10,-202"/>
<text text-anchor="start" x="30" y="-210.2" font-family="Helvetica,sans-Serif" font-size="11.00">repository</text>
<polygon fill="none" stroke="black" points="162,-202 162,-224 252,-224 252,-202 162,-202"/>
<text text-anchor="start" x="165" y="-210.2" font-family="Helvetica,sans-Serif" font-size="11.00">varchar[128]</text>
<polygon fill="none" stroke="black" points="10,-180 10,-202 162,-202 162,-180 10,-180"/>
<text text-anchor="start" x="30" y="-188.2" font-family="Helvetica,sans-Serif" font-size="11.00">notes</text>
<polygon fill="none" stroke="black" points="162,-180 162,-202 252,-202 252,-180 162,-180"/>
<text text-anchor="start" x="165" y="-188.2" font-family="Helvetica,sans-Serif" font-size="11.00">text[2147483647]</text>
<polygon fill="none" stroke="black" points="10,-158 10,-180 162,-180 162,-158 10,-158"/>
<text text-anchor="start" x="30" y="-166.2" font-family="Helvetica,sans-Serif" font-size="11.00">recdatecreated</text>
<polygon fill="none" stroke="black" points="162,-158 162,-180 252,-180 252,-158 162,-158"/>
<text text-anchor="start" x="165" y="-166.2" font-family="Helvetica,sans-Serif" font-size="11.00">timestamp[22]</text>
<polygon fill="none" stroke="black" points="10,-136 10,-158 162,-158 162,-136 10,-136"/>
<text text-anchor="start" x="30" y="-144.2" font-family="Helvetica,sans-Serif" font-size="11.00">recdatemodified</text>
<polygon fill="none" stroke="black" points="162,-136 162,-158 252,-158 252,-136 162,-136"/>
<text text-anchor="start" x="165" y="-144.2" font-family="Helvetica,sans-Serif" font-size="11.00">timestamp[22]</text>
<polygon fill="#ffffff" stroke="transparent" points="10,-118 10,-136 71,-136 71,-118 10,-118"/>
<polygon fill="none" stroke="black" points="10,-118 10,-136 71,-136 71,-118 10,-118"/>
<text text-anchor="start" x="13" y="-124.2" font-family="Helvetica,sans-Serif" font-size="11.00">&lt; 0</text>
<polygon fill="#ffffff" stroke="transparent" points="71,-118 71,-136 162,-136 162,-118 71,-118"/>
<polygon fill="none" stroke="black" points="71,-118 71,-136 162,-136 162,-118 71,-118"/>
<text text-anchor="start" x="114" y="-124.2" font-family="Helvetica,sans-Serif" font-size="11.00">392 rows</text>
<polygon fill="#ffffff" stroke="transparent" points="162,-118 162,-136 252,-136 252,-118 162,-118"/>
<polygon fill="none" stroke="black" points="162,-118 162,-136 252,-136 252,-118 162,-118"/>
<text text-anchor="start" x="233" y="-124.2" font-family="Helvetica,sans-Serif" font-size="11.00">2 &gt;</text>
<polygon fill="none" stroke="black" stroke-width="2" points="9,-117 9,-291 253,-291 253,-117 9,-117"/>
</a>
</g>
</g>
<!-- specimens&#45;&gt;repositoryinstitutions -->
<g id="edge13" class="edge">
<title>specimens:w&#45;&gt;repositoryinstitutions:e</title>
<path fill="none" stroke="black" d="M302.92,-482.17C227.24,-460.69 352.35,-257 253,-257"/>
<polygon fill="black" stroke="black" points="309.56,-483.01 317.05,-487.57 313.53,-483.5 317.5,-484 317.5,-484 317.5,-484 313.53,-483.5 317.95,-480.43 309.56,-483.01 309.56,-483.01"/>
<ellipse fill="none" stroke="black" cx="306.39" cy="-482.61" rx="3.2" ry="3.2"/>
</g>
<!-- elementtypes -->
<g id="node8" class="node">
<title>elementtypes</title>
<g id="a_node8"><a xlink:href="../../tables/elementtypes.html" xlink:title="elementtypes" target="_top">
<polygon fill="#ffffff" stroke="transparent" points="74,-708 74,-766 188,-766 188,-708 74,-708"/>
<polygon fill="#f5f5f5" stroke="transparent" points="74,-744 74,-766 188,-766 188,-744 74,-744"/>
<polygon fill="none" stroke="black" points="74,-744 74,-766 188,-766 188,-744 74,-744"/>
<text text-anchor="start" x="79" y="-753.2" font-family="Helvetica,sans-Serif" font-weight="bold" font-size="11.00">elementtypes</text>
<text text-anchor="start" x="153" y="-752.2" font-family="Helvetica,sans-Serif" font-size="11.00">[table]</text>
<polygon fill="none" stroke="black" points="74,-726 74,-744 188,-744 188,-726 74,-726"/>
<text text-anchor="start" x="77" y="-732.2" font-family="Helvetica,sans-Serif" font-size="11.00">...</text>
<polygon fill="#ffffff" stroke="transparent" points="74,-708 74,-726 101,-726 101,-708 74,-708"/>
<polygon fill="none" stroke="black" points="74,-708 74,-726 101,-726 101,-708 74,-708"/>
<text text-anchor="start" x="77" y="-714.2" font-family="Helvetica,sans-Serif" font-size="11.00"> &#160;</text>
<polygon fill="#ffffff" stroke="transparent" points="101,-708 101,-726 159,-726 159,-708 101,-708"/>
<polygon fill="none" stroke="black" points="101,-708 101,-726 159,-726 159,-708 101,-708"/>
<text text-anchor="start" x="111" y="-714.2" font-family="Helvetica,sans-Serif" font-size="11.00">939 rows</text>
<polygon fill="#ffffff" stroke="transparent" points="159,-708 159,-726 188,-726 188,-708 159,-708"/>
<polygon fill="none" stroke="black" points="159,-708 159,-726 188,-726 188,-708 159,-708"/>
<text text-anchor="start" x="169" y="-714.2" font-family="Helvetica,sans-Serif" font-size="11.00">5 &gt;</text>
</a>
</g>
</g>
<!-- specimens&#45;&gt;elementtypes -->
<g id="edge10" class="edge">
<title>specimens:w&#45;&gt;elementtypes:e</title>
<path fill="none" stroke="black" d="M303.15,-618.62C278.25,-629.63 290.63,-672.77 262,-698 234.71,-722.05 225.37,-735 189,-735"/>
<polygon fill="black" stroke="black" points="309.63,-617.44 318.15,-619.54 313.57,-616.72 317.5,-616 317.5,-616 317.5,-616 313.57,-616.72 316.85,-612.46 309.63,-617.44 309.63,-617.44"/>
<ellipse fill="none" stroke="black" cx="306.48" cy="-618.01" rx="3.2" ry="3.2"/>
</g>
<!-- specimendomesticstatustypes -->
<g id="node10" class="node">
<title>specimendomesticstatustypes</title>
<g id="a_node10"><a xlink:href="../../tables/specimendomesticstatustypes.html" xlink:title="specimendomesticstatustypes" target="_top">
<polygon fill="#ffffff" stroke="transparent" points="29,-313 29,-371 233,-371 233,-313 29,-313"/>
<polygon fill="#f5f5f5" stroke="transparent" points="29,-349 29,-371 233,-371 233,-349 29,-349"/>
<polygon fill="none" stroke="black" points="29,-349 29,-371 233,-371 233,-349 29,-349"/>
<text text-anchor="start" x="34" y="-358.2" font-family="Helvetica,sans-Serif" font-weight="bold" font-size="11.00">specimendomesticstatustypes</text>
<text text-anchor="start" x="198" y="-357.2" font-family="Helvetica,sans-Serif" font-size="11.00">[table]</text>
<polygon fill="none" stroke="black" points="29,-331 29,-349 233,-349 233,-331 29,-331"/>
<text text-anchor="start" x="32" y="-337.2" font-family="Helvetica,sans-Serif" font-size="11.00">...</text>
<polygon fill="#ffffff" stroke="transparent" points="29,-313 29,-331 107,-331 107,-313 29,-313"/>
<polygon fill="none" stroke="black" points="29,-313 29,-331 107,-331 107,-313 29,-313"/>
<text text-anchor="start" x="32" y="-319.2" font-family="Helvetica,sans-Serif" font-size="11.00"> &#160;</text>
<polygon fill="#ffffff" stroke="transparent" points="107,-313 107,-331 178,-331 178,-313 107,-313"/>
<polygon fill="none" stroke="black" points="107,-313 107,-331 178,-331 178,-313 107,-313"/>
<text text-anchor="start" x="142" y="-319.2" font-family="Helvetica,sans-Serif" font-size="11.00">4 rows</text>
<polygon fill="#ffffff" stroke="transparent" points="178,-313 178,-331 233,-331 233,-313 178,-313"/>
<polygon fill="none" stroke="black" points="178,-313 178,-331 233,-331 233,-313 178,-313"/>
<text text-anchor="start" x="214" y="-319.2" font-family="Helvetica,sans-Serif" font-size="11.00">1 &gt;</text>
</a>
</g>
</g>
<!-- specimens&#45;&gt;specimendomesticstatustypes -->
<g id="edge9" class="edge">
<title>specimens:w&#45;&gt;specimendomesticstatustypes:e</title>
<path fill="none" stroke="black" d="M303.12,-503.9C245.04,-484.69 311.1,-340 234,-340"/>
<polygon fill="black" stroke="black" points="309.58,-504.84 316.98,-509.56 313.54,-505.42 317.5,-506 317.5,-506 317.5,-506 313.54,-505.42 318.02,-502.44 309.58,-504.84 309.58,-504.84"/>
<ellipse fill="none" stroke="black" cx="306.42" cy="-504.38" rx="3.2" ry="3.2"/>
</g>
<!-- elementmaturities -->
<g id="node11" class="node">
<title>elementmaturities</title>
<g id="a_node11"><a xlink:href="../../tables/elementmaturities.html" xlink:title="elementmaturities" target="_top">
<polygon fill="#ffffff" stroke="transparent" points="62,-471 62,-529 200,-529 200,-471 62,-471"/>
<polygon fill="#f5f5f5" stroke="transparent" points="62,-507 62,-529 200,-529 200,-507 62,-507"/>
<polygon fill="none" stroke="black" points="62,-507 62,-529 200,-529 200,-507 62,-507"/>
<text text-anchor="start" x="67" y="-516.2" font-family="Helvetica,sans-Serif" font-weight="bold" font-size="11.00">elementmaturities</text>
<text text-anchor="start" x="165" y="-515.2" font-family="Helvetica,sans-Serif" font-size="11.00">[table]</text>
<polygon fill="none" stroke="black" points="62,-489 62,-507 200,-507 200,-489 62,-489"/>
<text text-anchor="start" x="65" y="-495.2" font-family="Helvetica,sans-Serif" font-size="11.00">...</text>
<polygon fill="#ffffff" stroke="transparent" points="62,-471 62,-489 104,-489 104,-471 62,-471"/>
<polygon fill="none" stroke="black" points="62,-471 62,-489 104,-489 104,-471 62,-471"/>
<text text-anchor="start" x="65" y="-477.2" font-family="Helvetica,sans-Serif" font-size="11.00"> &#160;</text>
<polygon fill="#ffffff" stroke="transparent" points="104,-471 104,-489 163,-489 163,-471 104,-471"/>
<polygon fill="none" stroke="black" points="104,-471 104,-489 163,-489 163,-471 104,-471"/>
<text text-anchor="start" x="121" y="-477.2" font-family="Helvetica,sans-Serif" font-size="11.00">12 rows</text>
<polygon fill="#ffffff" stroke="transparent" points="163,-471 163,-489 200,-489 200,-471 163,-471"/>
<polygon fill="none" stroke="black" points="163,-471 163,-489 200,-489 200,-471 163,-471"/>
<text text-anchor="start" x="181" y="-477.2" font-family="Helvetica,sans-Serif" font-size="11.00">3 &gt;</text>
</a>
</g>
</g>
<!-- specimens&#45;&gt;elementmaturities -->
<g id="edge11" class="edge">
<title>specimens:w&#45;&gt;elementmaturities:e</title>
<path fill="none" stroke="black" d="M302.88,-548.71C259.75,-540.71 252.39,-498 201,-498"/>
<polygon fill="black" stroke="black" points="309.53,-549.3 317.18,-553.59 313.52,-549.65 317.5,-550 317.5,-550 317.5,-550 313.52,-549.65 317.82,-546.41 309.53,-549.3 309.53,-549.3"/>
<ellipse fill="none" stroke="black" cx="306.34" cy="-549.02" rx="3.2" ry="3.2"/>
</g>
<!-- elementportions -->
<g id="node12" class="node">
<title>elementportions</title>
<g id="a_node12"><a xlink:href="../../tables/elementportions.html" xlink:title="elementportions" target="_top">
<polygon fill="#ffffff" stroke="transparent" points="66,-550 66,-608 196,-608 196,-550 66,-550"/>
<polygon fill="#f5f5f5" stroke="transparent" points="66,-586 66,-608 196,-608 196,-586 66,-586"/>
<polygon fill="none" stroke="black" points="66,-586 66,-608 196,-608 196,-586 66,-586"/>
<text text-anchor="start" x="71" y="-595.2" font-family="Helvetica,sans-Serif" font-weight="bold" font-size="11.00">elementportions</text>
<text text-anchor="start" x="161" y="-594.2" font-family="Helvetica,sans-Serif" font-size="11.00">[table]</text>
<polygon fill="none" stroke="black" points="66,-568 66,-586 196,-586 196,-568 66,-568"/>
<text text-anchor="start" x="69" y="-574.2" font-family="Helvetica,sans-Serif" font-size="11.00">...</text>
<polygon fill="#ffffff" stroke="transparent" points="66,-550 66,-568 104,-568 104,-550 66,-550"/>
<polygon fill="none" stroke="black" points="66,-550 66,-568 104,-568 104,-550 66,-550"/>
<text text-anchor="start" x="69" y="-556.2" font-family="Helvetica,sans-Serif" font-size="11.00"> &#160;</text>
<polygon fill="#ffffff" stroke="transparent" points="104,-550 104,-568 161,-568 161,-550 104,-550"/>
<polygon fill="none" stroke="black" points="104,-550 104,-568 161,-568 161,-550 104,-550"/>
<text text-anchor="start" x="119" y="-556.2" font-family="Helvetica,sans-Serif" font-size="11.00">54 rows</text>
<polygon fill="#ffffff" stroke="transparent" points="161,-550 161,-568 196,-568 196,-550 161,-550"/>
<polygon fill="none" stroke="black" points="161,-550 161,-568 196,-568 196,-550 161,-550"/>
<text text-anchor="start" x="177" y="-556.2" font-family="Helvetica,sans-Serif" font-size="11.00">3 &gt;</text>
</a>
</g>
</g>
<!-- specimens&#45;&gt;elementportions -->
<g id="edge12" class="edge">
<title>specimens:w&#45;&gt;elementportions:e</title>
<path fill="none" stroke="black" d="M302.87,-572.13C260.92,-572.93 245.37,-577 197,-577"/>
<polygon fill="black" stroke="black" points="309.5,-572.07 317.53,-575.6 313.5,-572.04 317.5,-572 317.5,-572 317.5,-572 313.5,-572.04 317.47,-568.4 309.5,-572.07 309.5,-572.07"/>
<ellipse fill="none" stroke="black" cx="306.3" cy="-572.1" rx="3.2" ry="3.2"/>
</g>
<!-- specimensextypes -->
<g id="node13" class="node">
<title>specimensextypes</title>
<g id="a_node13"><a xlink:href="../../tables/specimensextypes.html" xlink:title="specimensextypes" target="_top">
<polygon fill="#ffffff" stroke="transparent" points="60.5,-392 60.5,-450 201.5,-450 201.5,-392 60.5,-392"/>
<polygon fill="#f5f5f5" stroke="transparent" points="61,-428 61,-450 202,-450 202,-428 61,-428"/>
<polygon fill="none" stroke="black" points="61,-428 61,-450 202,-450 202,-428 61,-428"/>
<text text-anchor="start" x="66" y="-437.2" font-family="Helvetica,sans-Serif" font-weight="bold" font-size="11.00">specimensextypes</text>
<text text-anchor="start" x="167" y="-436.2" font-family="Helvetica,sans-Serif" font-size="11.00">[table]</text>
<polygon fill="none" stroke="black" points="61,-410 61,-428 202,-428 202,-410 61,-410"/>
<text text-anchor="start" x="64" y="-416.2" font-family="Helvetica,sans-Serif" font-size="11.00">...</text>
<polygon fill="#ffffff" stroke="transparent" points="61,-392 61,-410 107,-410 107,-392 61,-392"/>
<polygon fill="none" stroke="black" points="61,-392 61,-410 107,-410 107,-392 61,-392"/>
<text text-anchor="start" x="64" y="-398.2" font-family="Helvetica,sans-Serif" font-size="11.00"> &#160;</text>
<polygon fill="#ffffff" stroke="transparent" points="107,-392 107,-410 163,-410 163,-392 107,-392"/>
<polygon fill="none" stroke="black" points="107,-392 107,-410 163,-410 163,-392 107,-392"/>
<text text-anchor="start" x="127" y="-398.2" font-family="Helvetica,sans-Serif" font-size="11.00">3 rows</text>
<polygon fill="#ffffff" stroke="transparent" points="163,-392 163,-410 202,-410 202,-392 163,-392"/>
<polygon fill="none" stroke="black" points="163,-392 163,-410 202,-410 202,-392 163,-392"/>
<text text-anchor="start" x="183" y="-398.2" font-family="Helvetica,sans-Serif" font-size="11.00">1 &gt;</text>
</a>
</g>
</g>
<!-- specimens&#45;&gt;specimensextypes -->
<g id="edge14" class="edge">
<title>specimens:w&#45;&gt;specimensextypes:e</title>
<path fill="none" stroke="black" d="M303.21,-525.44C281.2,-516.01 286.38,-482.57 262,-460 238.57,-438.31 234.93,-419 203,-419"/>
<polygon fill="black" stroke="black" points="309.63,-526.59 316.87,-531.54 313.56,-527.3 317.5,-528 317.5,-528 317.5,-528 313.56,-527.3 318.13,-524.46 309.63,-526.59 309.63,-526.59"/>
<ellipse fill="none" stroke="black" cx="306.48" cy="-526.03" rx="3.2" ry="3.2"/>
</g>
<!-- elementsymmetries -->
<g id="node14" class="node">
<title>elementsymmetries</title>
<g id="a_node14"><a xlink:href="../../tables/elementsymmetries.html" xlink:title="elementsymmetries" target="_top">
<polygon fill="#ffffff" stroke="transparent" points="57.5,-629 57.5,-687 204.5,-687 204.5,-629 57.5,-629"/>
<polygon fill="#f5f5f5" stroke="transparent" points="58,-665 58,-687 205,-687 205,-665 58,-665"/>
<polygon fill="none" stroke="black" points="58,-665 58,-687 205,-687 205,-665 58,-665"/>
<text text-anchor="start" x="63" y="-674.2" font-family="Helvetica,sans-Serif" font-weight="bold" font-size="11.00">elementsymmetries</text>
<text text-anchor="start" x="170" y="-673.2" font-family="Helvetica,sans-Serif" font-size="11.00">[table]</text>
<polygon fill="none" stroke="black" points="58,-647 58,-665 205,-665 205,-647 58,-647"/>
<text text-anchor="start" x="61" y="-653.2" font-family="Helvetica,sans-Serif" font-size="11.00">...</text>
<polygon fill="#ffffff" stroke="transparent" points="58,-629 58,-647 107,-647 107,-629 58,-629"/>
<polygon fill="none" stroke="black" points="58,-629 58,-647 107,-647 107,-629 58,-629"/>
<text text-anchor="start" x="61" y="-635.2" font-family="Helvetica,sans-Serif" font-size="11.00"> &#160;</text>
<polygon fill="#ffffff" stroke="transparent" points="107,-629 107,-647 164,-647 164,-629 107,-629"/>
<polygon fill="none" stroke="black" points="107,-629 107,-647 164,-647 164,-629 107,-629"/>
<text text-anchor="start" x="128" y="-635.2" font-family="Helvetica,sans-Serif" font-size="11.00">8 rows</text>
<polygon fill="#ffffff" stroke="transparent" points="164,-629 164,-647 205,-647 205,-629 164,-629"/>
<polygon fill="none" stroke="black" points="164,-629 164,-647 205,-647 205,-629 164,-629"/>
<text text-anchor="start" x="186" y="-635.2" font-family="Helvetica,sans-Serif" font-size="11.00">3 &gt;</text>
</a>
</g>
</g>
<!-- specimens&#45;&gt;elementsymmetries -->
<g id="edge15" class="edge">
<title>specimens:w&#45;&gt;elementsymmetries:e</title>
<path fill="none" stroke="black" d="M303,-595.53C260.64,-605.08 257.39,-656 206,-656"/>
<polygon fill="black" stroke="black" points="309.54,-594.84 317.88,-597.58 313.52,-594.42 317.5,-594 317.5,-594 317.5,-594 313.52,-594.42 317.12,-590.42 309.54,-594.84 309.54,-594.84"/>
<ellipse fill="none" stroke="black" cx="306.36" cy="-595.18" rx="3.2" ry="3.2"/>
</g>
<!-- repositoryspecimens -->
<g id="node4" class="node">
<title>repositoryspecimens</title>
<g id="a_node4"><a xlink:href="../../tables/repositoryspecimens.html" xlink:title="repositoryspecimens" target="_top">
<polygon fill="#ffffff" stroke="transparent" points="303,-102 303,-204 458,-204 458,-102 303,-102"/>
<polygon fill="#f5f5f5" stroke="transparent" points="303.5,-182 303.5,-204 458.5,-204 458.5,-182 303.5,-182"/>
<polygon fill="none" stroke="black" points="303.5,-182 303.5,-204 458.5,-204 458.5,-182 303.5,-182"/>
<text text-anchor="start" x="308.5" y="-191.2" font-family="Helvetica,sans-Serif" font-weight="bold" font-size="11.00">repositoryspecimens</text>
<text text-anchor="start" x="423.5" y="-190.2" font-family="Helvetica,sans-Serif" font-size="11.00">[table]</text>
<polygon fill="none" stroke="black" points="303.5,-160 303.5,-182 458.5,-182 458.5,-160 303.5,-160"/>
<image xlink:href="../../images/primaryKeys.png" width="11px" height="12px" preserveAspectRatio="xMinYMin meet" x="308.5" y="-177"/>
<text text-anchor="start" x="328.5" y="-168.2" font-family="Helvetica,sans-Serif" font-size="11.00">datasetid</text>
<polygon fill="none" stroke="black" points="303.5,-138 303.5,-160 458.5,-160 458.5,-138 303.5,-138"/>
<image xlink:href="../../images/primaryKeys.png" width="11px" height="12px" preserveAspectRatio="xMinYMin meet" x="308.5" y="-155"/>
<text text-anchor="start" x="328.5" y="-146.2" font-family="Helvetica,sans-Serif" font-size="11.00">repositoryid</text>
<polygon fill="none" stroke="black" points="303.5,-120 303.5,-138 458.5,-138 458.5,-120 303.5,-120"/>
<text text-anchor="start" x="306.5" y="-126.2" font-family="Helvetica,sans-Serif" font-size="11.00">...</text>
<polygon fill="#ffffff" stroke="transparent" points="303.5,-102 303.5,-120 355.5,-120 355.5,-102 303.5,-102"/>
<polygon fill="none" stroke="black" points="303.5,-102 303.5,-120 355.5,-120 355.5,-102 303.5,-102"/>
<text text-anchor="start" x="306.5" y="-108.2" font-family="Helvetica,sans-Serif" font-size="11.00">&lt; 2</text>
<polygon fill="#ffffff" stroke="transparent" points="355.5,-102 355.5,-120 430.5,-120 430.5,-102 355.5,-102"/>
<polygon fill="none" stroke="black" points="355.5,-102 355.5,-120 430.5,-120 430.5,-102 355.5,-102"/>
<text text-anchor="start" x="373.5" y="-108.2" font-family="Helvetica,sans-Serif" font-size="11.00">6,564 rows</text>
<polygon fill="#ffffff" stroke="transparent" points="430.5,-102 430.5,-120 458.5,-120 458.5,-102 430.5,-102"/>
<polygon fill="none" stroke="black" points="430.5,-102 430.5,-120 458.5,-120 458.5,-102 430.5,-102"/>
<text text-anchor="start" x="448.5" y="-108.2" font-family="Helvetica,sans-Serif" font-size="11.00"> &#160;</text>
</a>
</g>
</g>
<!-- datasets -->
<g id="node5" class="node">
<title>datasets</title>
<g id="a_node5"><a xlink:href="../../tables/datasets.html" xlink:title="datasets" target="_top">
<polygon fill="#ffffff" stroke="transparent" points="73,-37 73,-95 189,-95 189,-37 73,-37"/>
<polygon fill="#f5f5f5" stroke="transparent" points="73,-73 73,-95 189,-95 189,-73 73,-73"/>
<polygon fill="none" stroke="black" points="73,-73 73,-95 189,-95 189,-73 73,-73"/>
<text text-anchor="start" x="78" y="-82.2" font-family="Helvetica,sans-Serif" font-weight="bold" font-size="11.00">datasets</text>
<text text-anchor="start" x="154" y="-81.2" font-family="Helvetica,sans-Serif" font-size="11.00">[table]</text>
<polygon fill="none" stroke="black" points="73,-55 73,-73 189,-73 189,-55 73,-55"/>
<text text-anchor="start" x="76" y="-61.2" font-family="Helvetica,sans-Serif" font-size="11.00">...</text>
<polygon fill="#ffffff" stroke="transparent" points="73,-37 73,-55 95,-55 95,-37 73,-37"/>
<polygon fill="none" stroke="black" points="73,-37 73,-55 95,-55 95,-37 73,-37"/>
<text text-anchor="start" x="76" y="-43.2" font-family="Helvetica,sans-Serif" font-size="11.00">&lt; 3</text>
<polygon fill="#ffffff" stroke="transparent" points="95,-37 95,-55 161,-55 161,-37 95,-37"/>
<polygon fill="none" stroke="black" points="95,-37 95,-55 161,-55 161,-37 95,-37"/>
<text text-anchor="start" x="98" y="-43.2" font-family="Helvetica,sans-Serif" font-size="11.00">49,780 rows</text>
<polygon fill="#ffffff" stroke="transparent" points="161,-37 161,-55 189,-55 189,-37 161,-37"/>
<polygon fill="none" stroke="black" points="161,-37 161,-55 189,-55 189,-37 161,-37"/>
<text text-anchor="start" x="164" y="-43.2" font-family="Helvetica,sans-Serif" font-size="11.00">13 &gt;</text>
</a>
</g>
</g>
<!-- repositoryspecimens&#45;&gt;datasets -->
<g id="edge3" class="edge">
<title>repositoryspecimens:w&#45;&gt;datasets:e</title>
<path fill="none" stroke="black" d="M288.53,-167.27C273.38,-156.47 282.29,-124.63 262,-105 235.54,-79.39 226.82,-64 190,-64"/>
<polygon fill="black" stroke="black" points="294.77,-168.94 301.57,-174.48 298.64,-169.97 302.5,-171 302.5,-171 302.5,-171 298.64,-169.97 303.43,-167.52 294.77,-168.94 294.77,-168.94"/>
<ellipse fill="none" stroke="black" cx="291.68" cy="-168.11" rx="3.2" ry="3.2"/>
</g>
<!-- repositoryspecimens&#45;&gt;repositoryinstitutions -->
<g id="edge4" class="edge">
<title>repositoryspecimens:w&#45;&gt;repositoryinstitutions:e</title>
<path fill="none" stroke="black" d="M288.43,-152.84C261.01,-172.08 299.82,-257 253,-257"/>
<polygon fill="black" stroke="black" points="294.78,-151.11 303.45,-152.47 298.64,-150.05 302.5,-149 302.5,-149 302.5,-149 298.64,-150.05 301.55,-145.53 294.78,-151.11 294.78,-151.11"/>
<ellipse fill="none" stroke="black" cx="291.7" cy="-151.95" rx="3.2" ry="3.2"/>
</g>
<!-- specimendates -->
<g id="node7" class="node">
<title>specimendates</title>
<g id="a_node7"><a xlink:href="../../tables/specimendates.html" xlink:title="specimendates" target="_top">
<polygon fill="#ffffff" stroke="transparent" points="522.5,-708 522.5,-766 645.5,-766 645.5,-708 522.5,-708"/>
<polygon fill="#f5f5f5" stroke="transparent" points="523,-744 523,-766 646,-766 646,-744 523,-744"/>
<polygon fill="none" stroke="black" points="523,-744 523,-766 646,-766 646,-744 523,-744"/>
<text text-anchor="start" x="528" y="-753.2" font-family="Helvetica,sans-Serif" font-weight="bold" font-size="11.00">specimendates</text>
<text text-anchor="start" x="611" y="-752.2" font-family="Helvetica,sans-Serif" font-size="11.00">[table]</text>
<polygon fill="none" stroke="black" points="523,-726 523,-744 646,-744 646,-726 523,-726"/>
<text text-anchor="start" x="526" y="-732.2" font-family="Helvetica,sans-Serif" font-size="11.00">...</text>
<polygon fill="#ffffff" stroke="transparent" points="523,-708 523,-726 554,-726 554,-708 523,-708"/>
<polygon fill="none" stroke="black" points="523,-708 523,-726 554,-726 554,-708 523,-708"/>
<text text-anchor="start" x="526" y="-714.2" font-family="Helvetica,sans-Serif" font-size="11.00">&lt; 6</text>
<polygon fill="#ffffff" stroke="transparent" points="554,-708 554,-726 619,-726 619,-708 554,-708"/>
<polygon fill="none" stroke="black" points="554,-708 554,-726 619,-726 619,-708 554,-708"/>
<text text-anchor="start" x="562" y="-714.2" font-family="Helvetica,sans-Serif" font-size="11.00">2,662 rows</text>
<polygon fill="#ffffff" stroke="transparent" points="619,-708 619,-726 646,-726 646,-708 619,-708"/>
<polygon fill="none" stroke="black" points="619,-708 619,-726 646,-726 646,-708 619,-708"/>
<text text-anchor="start" x="627" y="-714.2" font-family="Helvetica,sans-Serif" font-size="11.00">1 &gt;</text>
</a>
</g>
</g>
<!-- specimendates&#45;&gt;specimens -->
<g id="edge6" class="edge">
<title>specimendates:w&#45;&gt;specimens:e</title>
<path fill="none" stroke="black" d="M507.55,-732.15C477.06,-718.45 486.1,-660 443.5,-660"/>
<polygon fill="black" stroke="black" points="514.15,-733.45 521.3,-738.53 518.08,-734.23 522,-735 522,-735 522,-735 518.08,-734.23 522.7,-731.47 514.15,-733.45 514.15,-733.45"/>
<ellipse fill="none" stroke="black" cx="511.01" cy="-732.83" rx="3.2" ry="3.2"/>
</g>
<!-- specimendates&#45;&gt;elementtypes -->
<g id="edge5" class="edge">
<title>specimendates:w&#45;&gt;elementtypes:e</title>
<path fill="none" stroke="black" d="M507.2,-735C371.34,-735 331.94,-735 189,-735"/>
<polygon fill="black" stroke="black" points="514,-735 522,-738.6 518,-735 522,-735 522,-735 522,-735 518,-735 522,-731.4 514,-735 514,-735"/>
<ellipse fill="none" stroke="black" cx="510.8" cy="-735" rx="3.2" ry="3.2"/>
</g>
<!-- specimengenbank -->
<g id="node9" class="node">
<title>specimengenbank</title>
<g id="a_node9"><a xlink:href="../../tables/specimengenbank.html" xlink:title="specimengenbank" target="_top">
<polygon fill="#ffffff" stroke="transparent" points="514,-629 514,-687 654,-687 654,-629 514,-629"/>
<polygon fill="#f5f5f5" stroke="transparent" points="514,-665 514,-687 654,-687 654,-665 514,-665"/>
<polygon fill="none" stroke="black" points="514,-665 514,-687 654,-687 654,-665 514,-665"/>
<text text-anchor="start" x="519" y="-674.2" font-family="Helvetica,sans-Serif" font-weight="bold" font-size="11.00">specimengenbank</text>
<text text-anchor="start" x="619" y="-673.2" font-family="Helvetica,sans-Serif" font-size="11.00">[table]</text>
<polygon fill="none" stroke="black" points="514,-647 514,-665 654,-665 654,-647 514,-647"/>
<text text-anchor="start" x="517" y="-653.2" font-family="Helvetica,sans-Serif" font-size="11.00">...</text>
<polygon fill="#ffffff" stroke="transparent" points="514,-629 514,-647 569,-647 569,-629 514,-629"/>
<polygon fill="none" stroke="black" points="514,-629 514,-647 569,-647 569,-629 514,-629"/>
<text text-anchor="start" x="517" y="-635.2" font-family="Helvetica,sans-Serif" font-size="11.00">&lt; 1</text>
<polygon fill="#ffffff" stroke="transparent" points="569,-629 569,-647 624,-647 624,-629 569,-629"/>
<polygon fill="none" stroke="black" points="569,-629 569,-647 624,-647 624,-629 569,-629"/>
<text text-anchor="start" x="588" y="-635.2" font-family="Helvetica,sans-Serif" font-size="11.00">3 rows</text>
<polygon fill="#ffffff" stroke="transparent" points="624,-629 624,-647 654,-647 654,-629 624,-629"/>
<polygon fill="none" stroke="black" points="624,-629 624,-647 654,-647 654,-629 624,-629"/>
<text text-anchor="start" x="644" y="-635.2" font-family="Helvetica,sans-Serif" font-size="11.00"> &#160;</text>
</a>
</g>
</g>
<!-- specimengenbank&#45;&gt;specimens -->
<g id="edge7" class="edge">
<title>specimengenbank:w&#45;&gt;specimens:e</title>
<path fill="none" stroke="black" d="M498.59,-656.33C478.66,-657.28 469,-660 443.5,-660"/>
<polygon fill="black" stroke="black" points="505,-656.18 513.08,-659.6 509,-656.09 513,-656 513,-656 513,-656 509,-656.09 512.92,-652.4 505,-656.18 505,-656.18"/>
<ellipse fill="none" stroke="black" cx="501.8" cy="-656.25" rx="3.2" ry="3.2"/>
</g>
<!-- specimentaphonomy -->
<g id="node15" class="node">
<title>specimentaphonomy</title>
<g id="a_node15"><a xlink:href="../../tables/specimentaphonomy.html" xlink:title="specimentaphonomy" target="_top">
<polygon fill="#ffffff" stroke="transparent" points="507,-550 507,-608 661,-608 661,-550 507,-550"/>
<polygon fill="#f5f5f5" stroke="transparent" points="507,-586 507,-608 661,-608 661,-586 507,-586"/>
<polygon fill="none" stroke="black" points="507,-586 507,-608 661,-608 661,-586 507,-586"/>
<text text-anchor="start" x="512" y="-595.2" font-family="Helvetica,sans-Serif" font-weight="bold" font-size="11.00">specimentaphonomy</text>
<text text-anchor="start" x="626" y="-594.2" font-family="Helvetica,sans-Serif" font-size="11.00">[table]</text>
<polygon fill="none" stroke="black" points="507,-568 507,-586 661,-586 661,-568 507,-568"/>
<text text-anchor="start" x="510" y="-574.2" font-family="Helvetica,sans-Serif" font-size="11.00">...</text>
<polygon fill="#ffffff" stroke="transparent" points="507,-550 507,-568 563,-568 563,-550 507,-550"/>
<polygon fill="none" stroke="black" points="507,-550 507,-568 563,-568 563,-550 507,-550"/>
<text text-anchor="start" x="510" y="-556.2" font-family="Helvetica,sans-Serif" font-size="11.00">&lt; 2</text>
<polygon fill="#ffffff" stroke="transparent" points="563,-550 563,-568 631,-568 631,-550 563,-550"/>
<polygon fill="none" stroke="black" points="563,-550 563,-568 631,-568 631,-550 563,-550"/>
<text text-anchor="start" x="583" y="-556.2" font-family="Helvetica,sans-Serif" font-size="11.00">452 rows</text>
<polygon fill="#ffffff" stroke="transparent" points="631,-550 631,-568 661,-568 661,-550 631,-550"/>
<polygon fill="none" stroke="black" points="631,-550 631,-568 661,-568 661,-550 631,-550"/>
<text text-anchor="start" x="651" y="-556.2" font-family="Helvetica,sans-Serif" font-size="11.00"> &#160;</text>
</a>
</g>
</g>
<!-- specimentaphonomy&#45;&gt;specimens -->
<g id="edge16" class="edge">
<title>specimentaphonomy:w&#45;&gt;specimens:e</title>
<path fill="none" stroke="black" d="M491.95,-580.57C466.1,-596.45 483.91,-660 443.5,-660"/>
<polygon fill="black" stroke="black" points="498.25,-578.97 506.89,-580.49 502.12,-577.98 506,-577 506,-577 506,-577 502.12,-577.98 505.11,-573.51 498.25,-578.97 498.25,-578.97"/>
<ellipse fill="none" stroke="black" cx="495.14" cy="-579.76" rx="3.2" ry="3.2"/>
</g>
</g>
</svg>
