<?xml version="1.0" encoding="UTF-8" standalone="no"?>
<!DOCTYPE svg PUBLIC "-//W3C//DTD SVG 1.1//EN"
 "http://www.w3.org/Graphics/SVG/1.1/DTD/svg11.dtd">
<!-- Generated by graphviz version 2.43.0 (0)
 -->
<!-- Title: oneDegreeRelationshipsDiagram Pages: 1 -->
<svg width="474pt" height="428pt"
 viewBox="0.00 0.00 474.00 428.00" xmlns="http://www.w3.org/2000/svg" xmlns:xlink="http://www.w3.org/1999/xlink">
<g id="graph0" class="graph" transform="scale(1 1) rotate(0) translate(4 424)">
<title>oneDegreeRelationshipsDiagram</title>
<polygon fill="#ffffff" stroke="transparent" points="-4,4 -4,-424 470,-424 470,4 -4,4"/>
<text text-anchor="middle" x="71.5" y="-7.2" font-family="Helvetica,sans-Serif" font-size="11.00">Generated by SchemaSpy</text>
<!-- repositoryspecimens -->
<g id="node1" class="node">
<title>repositoryspecimens</title>
<g id="a_node1"><a xlink:href="../../tables/repositoryspecimens.html" xlink:title="repositoryspecimens" target="_top">
<polygon fill="#ffffff" stroke="transparent" points="303,-314 303,-416 458,-416 458,-314 303,-314"/>
<polygon fill="#f5f5f5" stroke="transparent" points="303.5,-394 303.5,-416 458.5,-416 458.5,-394 303.5,-394"/>
<polygon fill="none" stroke="black" points="303.5,-394 303.5,-416 458.5,-416 458.5,-394 303.5,-394"/>
<text text-anchor="start" x="308.5" y="-403.2" font-family="Helvetica,sans-Serif" font-weight="bold" font-size="11.00">repositoryspecimens</text>
<text text-anchor="start" x="423.5" y="-402.2" font-family="Helvetica,sans-Serif" font-size="11.00">[table]</text>
<polygon fill="none" stroke="black" points="303.5,-372 303.5,-394 458.5,-394 458.5,-372 303.5,-372"/>
<image xlink:href="../../images/primaryKeys.png" width="11px" height="12px" preserveAspectRatio="xMinYMin meet" x="308.5" y="-389"/>
<text text-anchor="start" x="328.5" y="-380.2" font-family="Helvetica,sans-Serif" font-size="11.00">datasetid</text>
<polygon fill="none" stroke="black" points="303.5,-350 303.5,-372 458.5,-372 458.5,-350 303.5,-350"/>
<image xlink:href="../../images/primaryKeys.png" width="11px" height="12px" preserveAspectRatio="xMinYMin meet" x="308.5" y="-367"/>
<text text-anchor="start" x="328.5" y="-358.2" font-family="Helvetica,sans-Serif" font-size="11.00">repositoryid</text>
<polygon fill="none" stroke="black" points="303.5,-332 303.5,-350 458.5,-350 458.5,-332 303.5,-332"/>
<text text-anchor="start" x="306.5" y="-338.2" font-family="Helvetica,sans-Serif" font-size="11.00">...</text>
<polygon fill="#ffffff" stroke="transparent" points="303.5,-314 303.5,-332 355.5,-332 355.5,-314 303.5,-314"/>
<polygon fill="none" stroke="black" points="303.5,-314 303.5,-332 355.5,-332 355.5,-314 303.5,-314"/>
<text text-anchor="start" x="306.5" y="-320.2" font-family="Helvetica,sans-Serif" font-size="11.00">&lt; 2</text>
<polygon fill="#ffffff" stroke="transparent" points="355.5,-314 355.5,-332 430.5,-332 430.5,-314 355.5,-314"/>
<polygon fill="none" stroke="black" points="355.5,-314 355.5,-332 430.5,-332 430.5,-314 355.5,-314"/>
<text text-anchor="start" x="373.5" y="-320.2" font-family="Helvetica,sans-Serif" font-size="11.00">6,564 rows</text>
<polygon fill="#ffffff" stroke="transparent" points="430.5,-314 430.5,-332 458.5,-332 458.5,-314 430.5,-314"/>
<polygon fill="none" stroke="black" points="430.5,-314 430.5,-332 458.5,-332 458.5,-314 430.5,-314"/>
<text text-anchor="start" x="448.5" y="-320.2" font-family="Helvetica,sans-Serif" font-size="11.00"> &#160;</text>
</a>
</g>
</g>
<!-- repositoryinstitutions -->
<g id="node2" class="node">
<title>repositoryinstitutions</title>
<g id="a_node2"><a xlink:href="../../tables/repositoryinstitutions.html" xlink:title="repositoryinstitutions" target="_top">
<polygon fill="#ffffff" stroke="transparent" points="8,-81 8,-257 254,-257 254,-81 8,-81"/>
<polygon fill="#f5f5f5" stroke="transparent" points="10,-233 10,-255 252,-255 252,-233 10,-233"/>
<polygon fill="none" stroke="black" points="10,-233 10,-255 252,-255 252,-233 10,-233"/>
<text text-anchor="start" x="15" y="-242.2" font-family="Helvetica,sans-Serif" font-weight="bold" font-size="11.00">repositoryinstitutions</text>
<text text-anchor="start" x="217" y="-241.2" font-family="Helvetica,sans-Serif" font-size="11.00">[table]</text>
<polygon fill="none" stroke="black" points="10,-211 10,-233 162,-233 162,-211 10,-211"/>
<image xlink:href="../../images/primaryKeys.png" width="11px" height="12px" preserveAspectRatio="xMinYMin meet" x="15" y="-228"/>
<text text-anchor="start" x="30" y="-219.2" font-family="Helvetica,sans-Serif" font-size="11.00">repositoryid</text>
<polygon fill="none" stroke="black" points="162,-211 162,-233 252,-233 252,-211 162,-211"/>
<text text-anchor="start" x="165" y="-219.2" font-family="Helvetica,sans-Serif" font-size="11.00">serial[10]</text>
<polygon fill="none" stroke="black" points="10,-189 10,-211 162,-211 162,-189 10,-189"/>
<text text-anchor="start" x="30" y="-197.2" font-family="Helvetica,sans-Serif" font-size="11.00">acronym</text>
<polygon fill="none" stroke="black" points="162,-189 162,-211 252,-211 252,-189 162,-189"/>
<text text-anchor="start" x="165" y="-197.2" font-family="Helvetica,sans-Serif" font-size="11.00">varchar[64]</text>
<polygon fill="none" stroke="black" points="10,-167 10,-189 162,-189 162,-167 10,-167"/>
<text text-anchor="start" x="30" y="-175.2" font-family="Helvetica,sans-Serif" font-size="11.00">repository</text>
<polygon fill="none" stroke="black" points="162,-167 162,-189 252,-189 252,-167 162,-167"/>
<text text-anchor="start" x="165" y="-175.2" font-family="Helvetica,sans-Serif" font-size="11.00">varchar[128]</text>
<polygon fill="none" stroke="black" points="10,-145 10,-167 162,-167 162,-145 10,-145"/>
<text text-anchor="start" x="30" y="-153.2" font-family="Helvetica,sans-Serif" font-size="11.00">notes</text>
<polygon fill="none" stroke="black" points="162,-145 162,-167 252,-167 252,-145 162,-145"/>
<text text-anchor="start" x="165" y="-153.2" font-family="Helvetica,sans-Serif" font-size="11.00">text[2147483647]</text>
<polygon fill="none" stroke="black" points="10,-123 10,-145 162,-145 162,-123 10,-123"/>
<text text-anchor="start" x="30" y="-131.2" font-family="Helvetica,sans-Serif" font-size="11.00">recdatecreated</text>
<polygon fill="none" stroke="black" points="162,-123 162,-145 252,-145 252,-123 162,-123"/>
<text text-anchor="start" x="165" y="-131.2" font-family="Helvetica,sans-Serif" font-size="11.00">timestamp[22]</text>
<polygon fill="none" stroke="black" points="10,-101 10,-123 162,-123 162,-101 10,-101"/>
<text text-anchor="start" x="30" y="-109.2" font-family="Helvetica,sans-Serif" font-size="11.00">recdatemodified</text>
<polygon fill="none" stroke="black" points="162,-101 162,-123 252,-123 252,-101 162,-101"/>
<text text-anchor="start" x="165" y="-109.2" font-family="Helvetica,sans-Serif" font-size="11.00">timestamp[22]</text>
<polygon fill="#ffffff" stroke="transparent" points="10,-83 10,-101 71,-101 71,-83 10,-83"/>
<polygon fill="none" stroke="black" points="10,-83 10,-101 71,-101 71,-83 10,-83"/>
<text text-anchor="start" x="13" y="-89.2" font-family="Helvetica,sans-Serif" font-size="11.00">&lt; 0</text>
<polygon fill="#ffffff" stroke="transparent" points="71,-83 71,-101 162,-101 162,-83 71,-83"/>
<polygon fill="none" stroke="black" points="71,-83 71,-101 162,-101 162,-83 71,-83"/>
<text text-anchor="start" x="114" y="-89.2" font-family="Helvetica,sans-Serif" font-size="11.00">392 rows</text>
<polygon fill="#ffffff" stroke="transparent" points="162,-83 162,-101 252,-101 252,-83 162,-83"/>
<polygon fill="none" stroke="black" points="162,-83 162,-101 252,-101 252,-83 162,-83"/>
<text text-anchor="start" x="233" y="-89.2" font-family="Helvetica,sans-Serif" font-size="11.00">2 &gt;</text>
<polygon fill="none" stroke="black" stroke-width="2" points="9,-82 9,-256 253,-256 253,-82 9,-82"/>
</a>
</g>
</g>
<!-- repositoryspecimens&#45;&gt;repositoryinstitutions -->
<g id="edge1" class="edge">
<title>repositoryspecimens:w&#45;&gt;repositoryinstitutions:e</title>
<path fill="none" stroke="black" d="M288.18,-357.84C250.41,-337.15 312.69,-222 253,-222"/>
<polygon fill="black" stroke="black" points="294.69,-359.27 301.72,-364.52 298.59,-360.14 302.5,-361 302.5,-361 302.5,-361 298.59,-360.14 303.28,-357.48 294.69,-359.27 294.69,-359.27"/>
<ellipse fill="none" stroke="black" cx="291.56" cy="-358.58" rx="3.2" ry="3.2"/>
</g>
<!-- specimens -->
<g id="node3" class="node">
<title>specimens</title>
<g id="a_node3"><a xlink:href="../../tables/specimens.html" xlink:title="specimens" target="_top">
<polygon fill="#ffffff" stroke="transparent" points="318.5,-37 318.5,-293 442.5,-293 442.5,-37 318.5,-37"/>
<polygon fill="#f5f5f5" stroke="transparent" points="318.5,-271 318.5,-293 442.5,-293 442.5,-271 318.5,-271"/>
<polygon fill="none" stroke="black" points="318.5,-271 318.5,-293 442.5,-293 442.5,-271 318.5,-271"/>
<text text-anchor="start" x="323.5" y="-280.2" font-family="Helvetica,sans-Serif" font-weight="bold" font-size="11.00">specimens</text>
<text text-anchor="start" x="407.5" y="-279.2" font-family="Helvetica,sans-Serif" font-size="11.00">[table]</text>
<polygon fill="none" stroke="black" points="318.5,-249 318.5,-271 442.5,-271 442.5,-249 318.5,-249"/>
<image xlink:href="../../images/primaryKeys.png" width="11px" height="12px" preserveAspectRatio="xMinYMin meet" x="323.5" y="-266"/>
<text text-anchor="start" x="338.5" y="-257.2" font-family="Helvetica,sans-Serif" font-size="11.00">specimenid</text>
<polygon fill="none" stroke="black" points="318.5,-227 318.5,-249 442.5,-249 442.5,-227 318.5,-227"/>
<image xlink:href="../../images/foreignKeys.png" width="11px" height="12px" preserveAspectRatio="xMinYMin meet" x="323.5" y="-244"/>
<text text-anchor="start" x="338.5" y="-235.2" font-family="Helvetica,sans-Serif" font-size="11.00">dataid</text>
<polygon fill="none" stroke="black" points="318.5,-205 318.5,-227 442.5,-227 442.5,-205 318.5,-205"/>
<image xlink:href="../../images/foreignKeys.png" width="11px" height="12px" preserveAspectRatio="xMinYMin meet" x="323.5" y="-222"/>
<text text-anchor="start" x="338.5" y="-213.2" font-family="Helvetica,sans-Serif" font-size="11.00">elementtypeid</text>
<polygon fill="none" stroke="black" points="318.5,-183 318.5,-205 442.5,-205 442.5,-183 318.5,-183"/>
<image xlink:href="../../images/foreignKeys.png" width="11px" height="12px" preserveAspectRatio="xMinYMin meet" x="323.5" y="-200"/>
<text text-anchor="start" x="338.5" y="-191.2" font-family="Helvetica,sans-Serif" font-size="11.00">symmetryid</text>
<polygon fill="none" stroke="black" points="318.5,-161 318.5,-183 442.5,-183 442.5,-161 318.5,-161"/>
<image xlink:href="../../images/foreignKeys.png" width="11px" height="12px" preserveAspectRatio="xMinYMin meet" x="323.5" y="-178"/>
<text text-anchor="start" x="338.5" y="-169.2" font-family="Helvetica,sans-Serif" font-size="11.00">portionid</text>
<polygon fill="none" stroke="black" points="318.5,-139 318.5,-161 442.5,-161 442.5,-139 318.5,-139"/>
<image xlink:href="../../images/foreignKeys.png" width="11px" height="12px" preserveAspectRatio="xMinYMin meet" x="323.5" y="-156"/>
<text text-anchor="start" x="338.5" y="-147.2" font-family="Helvetica,sans-Serif" font-size="11.00">maturityid</text>
<polygon fill="none" stroke="black" points="318.5,-117 318.5,-139 442.5,-139 442.5,-117 318.5,-117"/>
<image xlink:href="../../images/foreignKeys.png" width="11px" height="12px" preserveAspectRatio="xMinYMin meet" x="323.5" y="-134"/>
<text text-anchor="start" x="338.5" y="-125.2" font-family="Helvetica,sans-Serif" font-size="11.00">sexid</text>
<polygon fill="none" stroke="black" points="318.5,-95 318.5,-117 442.5,-117 442.5,-95 318.5,-95"/>
<image xlink:href="../../images/foreignKeys.png" width="11px" height="12px" preserveAspectRatio="xMinYMin meet" x="323.5" y="-112"/>
<text text-anchor="start" x="338.5" y="-103.2" font-family="Helvetica,sans-Serif" font-size="11.00">domesticstatusid</text>
<polygon fill="none" stroke="black" points="318.5,-73 318.5,-95 442.5,-95 442.5,-73 318.5,-73"/>
<image xlink:href="../../images/foreignKeys.png" width="11px" height="12px" preserveAspectRatio="xMinYMin meet" x="323.5" y="-90"/>
<text text-anchor="start" x="338.5" y="-81.2" font-family="Helvetica,sans-Serif" font-size="11.00">repositoryid</text>
<polygon fill="none" stroke="black" points="318.5,-55 318.5,-73 442.5,-73 442.5,-55 318.5,-55"/>
<text text-anchor="start" x="321.5" y="-61.2" font-family="Helvetica,sans-Serif" font-size="11.00">...</text>
<polygon fill="#ffffff" stroke="transparent" points="318.5,-37 318.5,-55 350.5,-55 350.5,-37 318.5,-37"/>
<polygon fill="none" stroke="black" points="318.5,-37 318.5,-55 350.5,-55 350.5,-37 318.5,-37"/>
<text text-anchor="start" x="321.5" y="-43.2" font-family="Helvetica,sans-Serif" font-size="11.00">&lt; 8</text>
<polygon fill="#ffffff" stroke="transparent" points="350.5,-37 350.5,-55 415.5,-55 415.5,-37 350.5,-37"/>
<polygon fill="none" stroke="black" points="350.5,-37 350.5,-55 415.5,-55 415.5,-37 350.5,-37"/>
<text text-anchor="start" x="358.5" y="-43.2" font-family="Helvetica,sans-Serif" font-size="11.00">3,453 rows</text>
<polygon fill="#ffffff" stroke="transparent" points="415.5,-37 415.5,-55 442.5,-55 442.5,-37 415.5,-37"/>
<polygon fill="none" stroke="black" points="415.5,-37 415.5,-55 442.5,-55 442.5,-37 415.5,-37"/>
<text text-anchor="start" x="423.5" y="-43.2" font-family="Helvetica,sans-Serif" font-size="11.00">4 &gt;</text>
</a>
</g>
</g>
<!-- specimens&#45;&gt;repositoryinstitutions -->
<g id="edge2" class="edge">
<title>specimens:w&#45;&gt;repositoryinstitutions:e</title>
<path fill="none" stroke="black" d="M303.21,-86.76C260.73,-106.21 315.02,-222 253,-222"/>
<polygon fill="black" stroke="black" points="309.64,-85.52 318.18,-87.53 313.57,-84.76 317.5,-84 317.5,-84 317.5,-84 313.57,-84.76 316.82,-80.47 309.64,-85.52 309.64,-85.52"/>
<ellipse fill="none" stroke="black" cx="306.5" cy="-86.12" rx="3.2" ry="3.2"/>
</g>
</g>
</svg>
