<?xml version="1.0" encoding="UTF-8" standalone="no"?>
<!DOCTYPE svg PUBLIC "-//W3C//DTD SVG 1.1//EN"
 "http://www.w3.org/Graphics/SVG/1.1/DTD/svg11.dtd">
<!-- Generated by graphviz version 2.43.0 (0)
 -->
<!-- Title: twoDegreesRelationshipsDiagram Pages: 1 -->
<svg width="642pt" height="1230pt"
 viewBox="0.00 0.00 642.00 1230.00" xmlns="http://www.w3.org/2000/svg" xmlns:xlink="http://www.w3.org/1999/xlink">
<g id="graph0" class="graph" transform="scale(1 1) rotate(0) translate(4 1226)">
<title>twoDegreesRelationshipsDiagram</title>
<polygon fill="#ffffff" stroke="transparent" points="-4,4 -4,-1226 638,-1226 638,4 -4,4"/>
<text text-anchor="middle" x="71.5" y="-7.2" font-family="Helvetica,sans-Serif" font-size="11.00">Generated by SchemaSpy</text>
<!-- dataprocessors -->
<g id="node1" class="node">
<title>dataprocessors</title>
<g id="a_node1"><a xlink:href="../../tables/dataprocessors.html" xlink:title="dataprocessors" target="_top">
<polygon fill="#ffffff" stroke="transparent" points="443,-1160 443,-1218 569,-1218 569,-1160 443,-1160"/>
<polygon fill="#f5f5f5" stroke="transparent" points="443,-1196 443,-1218 569,-1218 569,-1196 443,-1196"/>
<polygon fill="none" stroke="black" points="443,-1196 443,-1218 569,-1218 569,-1196 443,-1196"/>
<text text-anchor="start" x="448" y="-1205.2" font-family="Helvetica,sans-Serif" font-weight="bold" font-size="11.00">dataprocessors</text>
<text text-anchor="start" x="534" y="-1204.2" font-family="Helvetica,sans-Serif" font-size="11.00">[table]</text>
<polygon fill="none" stroke="black" points="443,-1178 443,-1196 569,-1196 569,-1178 443,-1178"/>
<text text-anchor="start" x="446" y="-1184.2" font-family="Helvetica,sans-Serif" font-size="11.00">...</text>
<polygon fill="#ffffff" stroke="transparent" points="443,-1160 443,-1178 477,-1178 477,-1160 443,-1160"/>
<polygon fill="none" stroke="black" points="443,-1160 443,-1178 477,-1178 477,-1160 443,-1160"/>
<text text-anchor="start" x="446" y="-1166.2" font-family="Helvetica,sans-Serif" font-size="11.00">&lt; 2</text>
<polygon fill="#ffffff" stroke="transparent" points="477,-1160 477,-1178 549,-1178 549,-1160 477,-1160"/>
<polygon fill="none" stroke="black" points="477,-1160 477,-1178 549,-1178 549,-1160 477,-1160"/>
<text text-anchor="start" x="486" y="-1166.2" font-family="Helvetica,sans-Serif" font-size="11.00">62,049 rows</text>
<polygon fill="#ffffff" stroke="transparent" points="549,-1160 549,-1178 569,-1178 569,-1160 549,-1160"/>
<polygon fill="none" stroke="black" points="549,-1160 549,-1178 569,-1178 569,-1160 549,-1160"/>
<text text-anchor="start" x="559" y="-1166.2" font-family="Helvetica,sans-Serif" font-size="11.00"> &#160;</text>
</a>
</g>
</g>
<!-- datasets -->
<g id="node2" class="node">
<title>datasets</title>
<g id="a_node2"><a xlink:href="../../tables/datasets.html" xlink:title="datasets" target="_top">
<polygon fill="#ffffff" stroke="transparent" points="198,-600 198,-746 318,-746 318,-600 198,-600"/>
<polygon fill="#f5f5f5" stroke="transparent" points="198,-724 198,-746 318,-746 318,-724 198,-724"/>
<polygon fill="none" stroke="black" points="198,-724 198,-746 318,-746 318,-724 198,-724"/>
<text text-anchor="start" x="203" y="-733.2" font-family="Helvetica,sans-Serif" font-weight="bold" font-size="11.00">datasets</text>
<text text-anchor="start" x="283" y="-732.2" font-family="Helvetica,sans-Serif" font-size="11.00">[table]</text>
<polygon fill="none" stroke="black" points="198,-702 198,-724 318,-724 318,-702 198,-702"/>
<image xlink:href="../../images/primaryKeys.png" width="11px" height="12px" preserveAspectRatio="xMinYMin meet" x="203" y="-719"/>
<text text-anchor="start" x="218" y="-710.2" font-family="Helvetica,sans-Serif" font-size="11.00">datasetid</text>
<polygon fill="#ffffff" stroke="transparent" points="198,-680 198,-702 318,-702 318,-680 198,-680"/>
<polygon fill="none" stroke="black" points="198,-680 198,-702 318,-702 318,-680 198,-680"/>
<image xlink:href="../../images/foreignKeys.png" width="11px" height="12px" preserveAspectRatio="xMinYMin meet" x="203" y="-697"/>
<text text-anchor="start" x="218" y="-688.2" font-family="Helvetica,sans-Serif" font-size="11.00">collectionunitid</text>
<polygon fill="#ffffff" stroke="transparent" points="198,-658 198,-680 318,-680 318,-658 198,-658"/>
<polygon fill="none" stroke="black" points="198,-658 198,-680 318,-680 318,-658 198,-658"/>
<image xlink:href="../../images/foreignKeys.png" width="11px" height="12px" preserveAspectRatio="xMinYMin meet" x="203" y="-675"/>
<text text-anchor="start" x="218" y="-666.2" font-family="Helvetica,sans-Serif" font-size="11.00">datasettypeid</text>
<polygon fill="none" stroke="black" points="198,-636 198,-658 318,-658 318,-636 198,-636"/>
<image xlink:href="../../images/foreignKeys.png" width="11px" height="12px" preserveAspectRatio="xMinYMin meet" x="203" y="-653"/>
<text text-anchor="start" x="218" y="-644.2" font-family="Helvetica,sans-Serif" font-size="11.00">embargoid</text>
<polygon fill="none" stroke="black" points="198,-618 198,-636 318,-636 318,-618 198,-618"/>
<text text-anchor="start" x="201" y="-624.2" font-family="Helvetica,sans-Serif" font-size="11.00">...</text>
<polygon fill="#ffffff" stroke="transparent" points="198,-600 198,-618 222,-618 222,-600 198,-600"/>
<polygon fill="none" stroke="black" points="198,-600 198,-618 222,-618 222,-600 198,-600"/>
<text text-anchor="start" x="201" y="-606.2" font-family="Helvetica,sans-Serif" font-size="11.00">&lt; 3</text>
<polygon fill="#ffffff" stroke="transparent" points="222,-600 222,-618 289,-618 289,-600 222,-600"/>
<polygon fill="none" stroke="black" points="222,-600 222,-618 289,-618 289,-600 222,-600"/>
<text text-anchor="start" x="226" y="-606.2" font-family="Helvetica,sans-Serif" font-size="11.00">49,780 rows</text>
<polygon fill="#ffffff" stroke="transparent" points="289,-600 289,-618 318,-618 318,-600 289,-600"/>
<polygon fill="none" stroke="black" points="289,-600 289,-618 318,-618 318,-600 289,-600"/>
<text text-anchor="start" x="293" y="-606.2" font-family="Helvetica,sans-Serif" font-size="11.00">13 &gt;</text>
</a>
</g>
</g>
<!-- dataprocessors&#45;&gt;datasets -->
<g id="edge1" class="edge">
<title>dataprocessors:w&#45;&gt;datasets:e</title>
<path fill="none" stroke="black" d="M427.33,-1186.18C404.78,-1183.34 393.29,-1172.82 378,-1150 323.45,-1068.6 416.99,-713 319,-713"/>
<polygon fill="black" stroke="black" points="434.01,-1186.55 441.8,-1190.59 438.01,-1186.78 442,-1187 442,-1187 442,-1187 438.01,-1186.78 442.2,-1183.41 434.01,-1186.55 434.01,-1186.55"/>
<ellipse fill="none" stroke="black" cx="430.82" cy="-1186.38" rx="3.2" ry="3.2"/>
</g>
<!-- collectionunits -->
<g id="node6" class="node">
<title>collectionunits</title>
<g id="a_node6"><a xlink:href="../../tables/collectionunits.html" xlink:title="collectionunits" target="_top">
<polygon fill="#ffffff" stroke="transparent" points="8,-721 8,-779 130,-779 130,-721 8,-721"/>
<polygon fill="#f5f5f5" stroke="transparent" points="8,-757 8,-779 130,-779 130,-757 8,-757"/>
<polygon fill="none" stroke="black" points="8,-757 8,-779 130,-779 130,-757 8,-757"/>
<text text-anchor="start" x="13" y="-766.2" font-family="Helvetica,sans-Serif" font-weight="bold" font-size="11.00">collectionunits</text>
<text text-anchor="start" x="95" y="-765.2" font-family="Helvetica,sans-Serif" font-size="11.00">[table]</text>
<polygon fill="none" stroke="black" points="8,-739 8,-757 130,-757 130,-739 8,-739"/>
<text text-anchor="start" x="11" y="-745.2" font-family="Helvetica,sans-Serif" font-size="11.00">...</text>
<polygon fill="#ffffff" stroke="transparent" points="8,-721 8,-739 36,-739 36,-721 8,-721"/>
<polygon fill="none" stroke="black" points="8,-721 8,-739 36,-739 36,-721 8,-721"/>
<text text-anchor="start" x="11" y="-727.2" font-family="Helvetica,sans-Serif" font-size="11.00">&lt; 4</text>
<polygon fill="#ffffff" stroke="transparent" points="36,-721 36,-739 105,-739 105,-721 36,-721"/>
<polygon fill="none" stroke="black" points="36,-721 36,-739 105,-739 105,-721 36,-721"/>
<text text-anchor="start" x="42" y="-727.2" font-family="Helvetica,sans-Serif" font-size="11.00">33,980 rows</text>
<polygon fill="#ffffff" stroke="transparent" points="105,-721 105,-739 130,-739 130,-721 105,-721"/>
<polygon fill="none" stroke="black" points="105,-721 105,-739 130,-739 130,-721 105,-721"/>
<text text-anchor="start" x="111" y="-727.2" font-family="Helvetica,sans-Serif" font-size="11.00">5 &gt;</text>
</a>
</g>
</g>
<!-- datasets&#45;&gt;collectionunits -->
<g id="edge5" class="edge">
<title>datasets:w&#45;&gt;collectionunits:e</title>
<path fill="none" stroke="black" d="M182.73,-694.39C160.55,-706.67 164.01,-748 131,-748"/>
<polygon fill="black" stroke="black" points="189.22,-692.85 197.83,-694.5 193.11,-691.93 197,-691 197,-691 197,-691 193.11,-691.93 196.17,-687.5 189.22,-692.85 189.22,-692.85"/>
<ellipse fill="none" stroke="black" cx="186.1" cy="-693.59" rx="3.2" ry="3.2"/>
</g>
<!-- datasettypes -->
<g id="node7" class="node">
<title>datasettypes</title>
<g id="a_node7"><a xlink:href="../../tables/datasettypes.html" xlink:title="datasettypes" target="_top">
<polygon fill="#ffffff" stroke="transparent" points="13.5,-642 13.5,-700 124.5,-700 124.5,-642 13.5,-642"/>
<polygon fill="#f5f5f5" stroke="transparent" points="14,-678 14,-700 125,-700 125,-678 14,-678"/>
<polygon fill="none" stroke="black" points="14,-678 14,-700 125,-700 125,-678 14,-678"/>
<text text-anchor="start" x="19" y="-687.2" font-family="Helvetica,sans-Serif" font-weight="bold" font-size="11.00">datasettypes</text>
<text text-anchor="start" x="90" y="-686.2" font-family="Helvetica,sans-Serif" font-size="11.00">[table]</text>
<polygon fill="none" stroke="black" points="14,-660 14,-678 125,-678 125,-660 14,-660"/>
<text text-anchor="start" x="17" y="-666.2" font-family="Helvetica,sans-Serif" font-size="11.00">...</text>
<polygon fill="#ffffff" stroke="transparent" points="14,-642 14,-660 42,-660 42,-642 14,-642"/>
<polygon fill="none" stroke="black" points="14,-642 14,-660 42,-660 42,-642 14,-642"/>
<text text-anchor="start" x="17" y="-648.2" font-family="Helvetica,sans-Serif" font-size="11.00"> &#160;</text>
<polygon fill="#ffffff" stroke="transparent" points="42,-642 42,-660 95,-660 95,-642 42,-642"/>
<polygon fill="none" stroke="black" points="42,-642 42,-660 95,-660 95,-642 42,-642"/>
<text text-anchor="start" x="53" y="-648.2" font-family="Helvetica,sans-Serif" font-size="11.00">42 rows</text>
<polygon fill="#ffffff" stroke="transparent" points="95,-642 95,-660 125,-660 125,-642 95,-642"/>
<polygon fill="none" stroke="black" points="95,-642 95,-660 125,-660 125,-642 95,-642"/>
<text text-anchor="start" x="106" y="-648.2" font-family="Helvetica,sans-Serif" font-size="11.00">6 &gt;</text>
</a>
</g>
</g>
<!-- datasets&#45;&gt;datasettypes -->
<g id="edge6" class="edge">
<title>datasets:w&#45;&gt;datasettypes:e</title>
<path fill="none" stroke="black" d="M182.59,-669C162.03,-669 152.13,-669 126,-669"/>
<polygon fill="black" stroke="black" points="189,-669 197,-672.6 193,-669 197,-669 197,-669 197,-669 193,-669 197,-665.4 189,-669 189,-669"/>
<ellipse fill="none" stroke="black" cx="185.8" cy="-669" rx="3.2" ry="3.2"/>
</g>
<!-- embargo -->
<g id="node8" class="node">
<title>embargo</title>
<g id="a_node8"><a xlink:href="../../tables/embargo.html" xlink:title="embargo" target="_top">
<polygon fill="#ffffff" stroke="transparent" points="23.5,-563 23.5,-621 114.5,-621 114.5,-563 23.5,-563"/>
<polygon fill="#f5f5f5" stroke="transparent" points="24,-599 24,-621 115,-621 115,-599 24,-599"/>
<polygon fill="none" stroke="black" points="24,-599 24,-621 115,-621 115,-599 24,-599"/>
<text text-anchor="start" x="29" y="-608.2" font-family="Helvetica,sans-Serif" font-weight="bold" font-size="11.00">embargo</text>
<text text-anchor="start" x="80" y="-607.2" font-family="Helvetica,sans-Serif" font-size="11.00">[table]</text>
<polygon fill="none" stroke="black" points="24,-581 24,-599 115,-599 115,-581 24,-581"/>
<text text-anchor="start" x="27" y="-587.2" font-family="Helvetica,sans-Serif" font-size="11.00">...</text>
<polygon fill="#ffffff" stroke="transparent" points="24,-563 24,-581 45,-581 45,-563 24,-563"/>
<polygon fill="none" stroke="black" points="24,-563 24,-581 45,-581 45,-563 24,-563"/>
<text text-anchor="start" x="27" y="-569.2" font-family="Helvetica,sans-Serif" font-size="11.00"> &#160;</text>
<polygon fill="#ffffff" stroke="transparent" points="45,-563 45,-581 88,-581 88,-563 45,-563"/>
<polygon fill="none" stroke="black" points="45,-563 45,-581 88,-581 88,-563 45,-563"/>
<text text-anchor="start" x="52" y="-569.2" font-family="Helvetica,sans-Serif" font-size="11.00">0 rows</text>
<polygon fill="#ffffff" stroke="transparent" points="88,-563 88,-581 115,-581 115,-563 88,-563"/>
<polygon fill="none" stroke="black" points="88,-563 88,-581 115,-581 115,-563 88,-563"/>
<text text-anchor="start" x="96" y="-569.2" font-family="Helvetica,sans-Serif" font-size="11.00">1 &gt;</text>
</a>
</g>
</g>
<!-- datasets&#45;&gt;embargo -->
<g id="edge7" class="edge">
<title>datasets:w&#45;&gt;embargo:e</title>
<path fill="none" stroke="black" d="M182.69,-644.55C153.94,-633.64 154.52,-590 116,-590"/>
<polygon fill="black" stroke="black" points="189.11,-645.65 196.39,-650.55 193.06,-646.33 197,-647 197,-647 197,-647 193.06,-646.33 197.61,-643.45 189.11,-645.65 189.11,-645.65"/>
<ellipse fill="none" stroke="black" cx="185.96" cy="-645.11" rx="3.2" ry="3.2"/>
</g>
<!-- datasetdatabases -->
<g id="node3" class="node">
<title>datasetdatabases</title>
<g id="a_node3"><a xlink:href="../../tables/datasetdatabases.html" xlink:title="datasetdatabases" target="_top">
<polygon fill="#ffffff" stroke="transparent" points="438,-1081 438,-1139 574,-1139 574,-1081 438,-1081"/>
<polygon fill="#f5f5f5" stroke="transparent" points="438,-1117 438,-1139 574,-1139 574,-1117 438,-1117"/>
<polygon fill="none" stroke="black" points="438,-1117 438,-1139 574,-1139 574,-1117 438,-1117"/>
<text text-anchor="start" x="443" y="-1126.2" font-family="Helvetica,sans-Serif" font-weight="bold" font-size="11.00">datasetdatabases</text>
<text text-anchor="start" x="539" y="-1125.2" font-family="Helvetica,sans-Serif" font-size="11.00">[table]</text>
<polygon fill="none" stroke="black" points="438,-1099 438,-1117 574,-1117 574,-1099 438,-1099"/>
<text text-anchor="start" x="441" y="-1105.2" font-family="Helvetica,sans-Serif" font-size="11.00">...</text>
<polygon fill="#ffffff" stroke="transparent" points="438,-1081 438,-1099 477,-1099 477,-1081 438,-1081"/>
<polygon fill="none" stroke="black" points="438,-1081 438,-1099 477,-1099 477,-1081 438,-1081"/>
<text text-anchor="start" x="441" y="-1087.2" font-family="Helvetica,sans-Serif" font-size="11.00">&lt; 2</text>
<polygon fill="#ffffff" stroke="transparent" points="477,-1081 477,-1099 552,-1099 552,-1081 477,-1081"/>
<polygon fill="none" stroke="black" points="477,-1081 477,-1099 552,-1099 552,-1081 477,-1081"/>
<text text-anchor="start" x="489" y="-1087.2" font-family="Helvetica,sans-Serif" font-size="11.00">49,139 rows</text>
<polygon fill="#ffffff" stroke="transparent" points="552,-1081 552,-1099 574,-1099 574,-1081 552,-1081"/>
<polygon fill="none" stroke="black" points="552,-1081 552,-1099 574,-1099 574,-1081 552,-1081"/>
<text text-anchor="start" x="564" y="-1087.2" font-family="Helvetica,sans-Serif" font-size="11.00"> &#160;</text>
</a>
</g>
</g>
<!-- datasetdatabases&#45;&gt;datasets -->
<g id="edge2" class="edge">
<title>datasetdatabases:w&#45;&gt;datasets:e</title>
<path fill="none" stroke="black" d="M422.39,-1106.94C402.02,-1103.6 392.13,-1092.24 378,-1071 333.34,-1003.87 399.63,-713 319,-713"/>
<polygon fill="black" stroke="black" points="429.02,-1107.42 436.74,-1111.59 433.01,-1107.71 437,-1108 437,-1108 437,-1108 433.01,-1107.71 437.26,-1104.41 429.02,-1107.42 429.02,-1107.42"/>
<ellipse fill="none" stroke="black" cx="425.83" cy="-1107.19" rx="3.2" ry="3.2"/>
</g>
<!-- datasetpis -->
<g id="node4" class="node">
<title>datasetpis</title>
<g id="a_node4"><a xlink:href="../../tables/datasetpis.html" xlink:title="datasetpis" target="_top">
<polygon fill="#ffffff" stroke="transparent" points="452.5,-1002 452.5,-1060 559.5,-1060 559.5,-1002 452.5,-1002"/>
<polygon fill="#f5f5f5" stroke="transparent" points="453,-1038 453,-1060 560,-1060 560,-1038 453,-1038"/>
<polygon fill="none" stroke="black" points="453,-1038 453,-1060 560,-1060 560,-1038 453,-1038"/>
<text text-anchor="start" x="458" y="-1047.2" font-family="Helvetica,sans-Serif" font-weight="bold" font-size="11.00">datasetpis</text>
<text text-anchor="start" x="525" y="-1046.2" font-family="Helvetica,sans-Serif" font-size="11.00">[table]</text>
<polygon fill="none" stroke="black" points="453,-1020 453,-1038 560,-1038 560,-1020 453,-1020"/>
<text text-anchor="start" x="456" y="-1026.2" font-family="Helvetica,sans-Serif" font-size="11.00">...</text>
<polygon fill="#ffffff" stroke="transparent" points="453,-1002 453,-1020 475,-1020 475,-1002 453,-1002"/>
<polygon fill="none" stroke="black" points="453,-1002 453,-1020 475,-1020 475,-1002 453,-1002"/>
<text text-anchor="start" x="456" y="-1008.2" font-family="Helvetica,sans-Serif" font-size="11.00">&lt; 2</text>
<polygon fill="#ffffff" stroke="transparent" points="475,-1002 475,-1020 547,-1020 547,-1002 475,-1002"/>
<polygon fill="none" stroke="black" points="475,-1002 475,-1020 547,-1020 547,-1002 475,-1002"/>
<text text-anchor="start" x="478" y="-1008.2" font-family="Helvetica,sans-Serif" font-size="11.00">127,427 rows</text>
<polygon fill="#ffffff" stroke="transparent" points="547,-1002 547,-1020 560,-1020 560,-1002 547,-1002"/>
<polygon fill="none" stroke="black" points="547,-1002 547,-1020 560,-1020 560,-1002 547,-1002"/>
<text text-anchor="start" x="550" y="-1008.2" font-family="Helvetica,sans-Serif" font-size="11.00"> &#160;</text>
</a>
</g>
</g>
<!-- datasetpis&#45;&gt;datasets -->
<g id="edge3" class="edge">
<title>datasetpis:w&#45;&gt;datasets:e</title>
<path fill="none" stroke="black" d="M437.35,-1028.46C410.8,-1026.27 397.23,-1016.89 378,-992 300.52,-891.7 445.74,-713 319,-713"/>
<polygon fill="black" stroke="black" points="444.01,-1028.71 451.87,-1032.6 448,-1028.85 452,-1029 452,-1029 452,-1029 448,-1028.85 452.13,-1025.4 444.01,-1028.71 444.01,-1028.71"/>
<ellipse fill="none" stroke="black" cx="440.81" cy="-1028.59" rx="3.2" ry="3.2"/>
</g>
<!-- datasetpublications -->
<g id="node5" class="node">
<title>datasetpublications</title>
<g id="a_node5"><a xlink:href="../../tables/datasetpublications.html" xlink:title="datasetpublications" target="_top">
<polygon fill="#ffffff" stroke="transparent" points="432.5,-923 432.5,-981 579.5,-981 579.5,-923 432.5,-923"/>
<polygon fill="#f5f5f5" stroke="transparent" points="433,-959 433,-981 580,-981 580,-959 433,-959"/>
<polygon fill="none" stroke="black" points="433,-959 433,-981 580,-981 580,-959 433,-959"/>
<text text-anchor="start" x="438" y="-968.2" font-family="Helvetica,sans-Serif" font-weight="bold" font-size="11.00">datasetpublications</text>
<text text-anchor="start" x="545" y="-967.2" font-family="Helvetica,sans-Serif" font-size="11.00">[table]</text>
<polygon fill="none" stroke="black" points="433,-941 433,-959 580,-959 580,-941 433,-941"/>
<text text-anchor="start" x="436" y="-947.2" font-family="Helvetica,sans-Serif" font-size="11.00">...</text>
<polygon fill="#ffffff" stroke="transparent" points="433,-923 433,-941 478,-941 478,-923 433,-923"/>
<polygon fill="none" stroke="black" points="433,-923 433,-941 478,-941 478,-923 433,-923"/>
<text text-anchor="start" x="436" y="-929.2" font-family="Helvetica,sans-Serif" font-size="11.00">&lt; 2</text>
<polygon fill="#ffffff" stroke="transparent" points="478,-923 478,-941 555,-941 555,-923 478,-923"/>
<polygon fill="none" stroke="black" points="478,-923 478,-941 555,-941 555,-923 478,-923"/>
<text text-anchor="start" x="492" y="-929.2" font-family="Helvetica,sans-Serif" font-size="11.00">61,382 rows</text>
<polygon fill="#ffffff" stroke="transparent" points="555,-923 555,-941 580,-941 580,-923 555,-923"/>
<polygon fill="none" stroke="black" points="555,-923 555,-941 580,-941 580,-923 555,-923"/>
<text text-anchor="start" x="570" y="-929.2" font-family="Helvetica,sans-Serif" font-size="11.00"> &#160;</text>
</a>
</g>
</g>
<!-- datasetpublications&#45;&gt;datasets -->
<g id="edge4" class="edge">
<title>datasetpublications:w&#45;&gt;datasets:e</title>
<path fill="none" stroke="black" d="M417.42,-948.54C399.58,-944.48 391.83,-932.03 378,-913 323.51,-838.03 411.68,-713 319,-713"/>
<polygon fill="black" stroke="black" points="424.04,-949.2 431.64,-953.58 428.02,-949.6 432,-950 432,-950 432,-950 428.02,-949.6 432.36,-946.42 424.04,-949.2 424.04,-949.2"/>
<ellipse fill="none" stroke="black" cx="420.86" cy="-948.89" rx="3.2" ry="3.2"/>
</g>
<!-- datasetsubmissions -->
<g id="node9" class="node">
<title>datasetsubmissions</title>
<g id="a_node9"><a xlink:href="../../tables/datasetsubmissions.html" xlink:title="datasetsubmissions" target="_top">
<polygon fill="#ffffff" stroke="transparent" points="431,-844 431,-902 581,-902 581,-844 431,-844"/>
<polygon fill="#f5f5f5" stroke="transparent" points="431,-880 431,-902 581,-902 581,-880 431,-880"/>
<polygon fill="none" stroke="black" points="431,-880 431,-902 581,-902 581,-880 431,-880"/>
<text text-anchor="start" x="436" y="-889.2" font-family="Helvetica,sans-Serif" font-weight="bold" font-size="11.00">datasetsubmissions</text>
<text text-anchor="start" x="546" y="-888.2" font-family="Helvetica,sans-Serif" font-size="11.00">[table]</text>
<polygon fill="none" stroke="black" points="431,-862 431,-880 581,-880 581,-862 431,-862"/>
<text text-anchor="start" x="434" y="-868.2" font-family="Helvetica,sans-Serif" font-size="11.00">...</text>
<polygon fill="#ffffff" stroke="transparent" points="431,-844 431,-862 477,-862 477,-844 431,-844"/>
<polygon fill="none" stroke="black" points="431,-844 431,-862 477,-862 477,-844 431,-844"/>
<text text-anchor="start" x="434" y="-850.2" font-family="Helvetica,sans-Serif" font-size="11.00">&lt; 4</text>
<polygon fill="#ffffff" stroke="transparent" points="477,-844 477,-862 555,-862 555,-844 477,-844"/>
<polygon fill="none" stroke="black" points="477,-844 477,-862 555,-862 555,-844 477,-844"/>
<text text-anchor="start" x="492" y="-850.2" font-family="Helvetica,sans-Serif" font-size="11.00">58,836 rows</text>
<polygon fill="#ffffff" stroke="transparent" points="555,-844 555,-862 581,-862 581,-844 555,-844"/>
<polygon fill="none" stroke="black" points="555,-844 555,-862 581,-862 581,-844 555,-844"/>
<text text-anchor="start" x="571" y="-850.2" font-family="Helvetica,sans-Serif" font-size="11.00"> &#160;</text>
</a>
</g>
</g>
<!-- datasetsubmissions&#45;&gt;datasets -->
<g id="edge8" class="edge">
<title>datasetsubmissions:w&#45;&gt;datasets:e</title>
<path fill="none" stroke="black" d="M415.27,-869.17C398.95,-864.5 392.61,-851.24 378,-834 339.32,-788.36 378.83,-713 319,-713"/>
<polygon fill="black" stroke="black" points="422.06,-870.02 429.56,-874.57 426.03,-870.51 430,-871 430,-871 430,-871 426.03,-870.51 430.44,-867.43 422.06,-870.02 422.06,-870.02"/>
<ellipse fill="none" stroke="black" cx="418.88" cy="-869.62" rx="3.2" ry="3.2"/>
</g>
<!-- datasettaxonnotes -->
<g id="node10" class="node">
<title>datasettaxonnotes</title>
<g id="a_node10"><a xlink:href="../../tables/datasettaxonnotes.html" xlink:title="datasettaxonnotes" target="_top">
<polygon fill="#ffffff" stroke="transparent" points="435.5,-765 435.5,-823 576.5,-823 576.5,-765 435.5,-765"/>
<polygon fill="#f5f5f5" stroke="transparent" points="436,-801 436,-823 577,-823 577,-801 436,-801"/>
<polygon fill="none" stroke="black" points="436,-801 436,-823 577,-823 577,-801 436,-801"/>
<text text-anchor="start" x="441" y="-810.2" font-family="Helvetica,sans-Serif" font-weight="bold" font-size="11.00">datasettaxonnotes</text>
<text text-anchor="start" x="542" y="-809.2" font-family="Helvetica,sans-Serif" font-size="11.00">[table]</text>
<polygon fill="none" stroke="black" points="436,-783 436,-801 577,-801 577,-783 436,-783"/>
<text text-anchor="start" x="439" y="-789.2" font-family="Helvetica,sans-Serif" font-size="11.00">...</text>
<polygon fill="#ffffff" stroke="transparent" points="436,-765 436,-783 481,-783 481,-765 436,-765"/>
<polygon fill="none" stroke="black" points="436,-765 436,-783 481,-783 481,-765 436,-765"/>
<text text-anchor="start" x="439" y="-771.2" font-family="Helvetica,sans-Serif" font-size="11.00">&lt; 3</text>
<polygon fill="#ffffff" stroke="transparent" points="481,-765 481,-783 552,-783 552,-765 481,-765"/>
<polygon fill="none" stroke="black" points="481,-765 481,-783 552,-783 552,-765 481,-765"/>
<text text-anchor="start" x="495" y="-771.2" font-family="Helvetica,sans-Serif" font-size="11.00">1,674 rows</text>
<polygon fill="#ffffff" stroke="transparent" points="552,-765 552,-783 577,-783 577,-765 552,-765"/>
<polygon fill="none" stroke="black" points="552,-765 552,-783 577,-783 577,-765 552,-765"/>
<text text-anchor="start" x="567" y="-771.2" font-family="Helvetica,sans-Serif" font-size="11.00"> &#160;</text>
</a>
</g>
</g>
<!-- datasettaxonnotes&#45;&gt;datasets -->
<g id="edge9" class="edge">
<title>datasettaxonnotes:w&#45;&gt;datasets:e</title>
<path fill="none" stroke="black" d="M420.66,-790.04C403.3,-784.6 398.29,-768.8 378,-755 351.38,-736.9 351.19,-713 319,-713"/>
<polygon fill="black" stroke="black" points="427.07,-790.92 434.51,-795.57 431.04,-791.46 435,-792 435,-792 435,-792 431.04,-791.46 435.49,-788.43 427.07,-790.92 427.07,-790.92"/>
<ellipse fill="none" stroke="black" cx="423.9" cy="-790.48" rx="3.2" ry="3.2"/>
</g>
<!-- datasetvariables -->
<g id="node11" class="node">
<title>datasetvariables</title>
<g id="a_node11"><a xlink:href="../../tables/datasetvariables.html" xlink:title="datasetvariables" target="_top">
<polygon fill="#ffffff" stroke="transparent" points="441,-686 441,-744 571,-744 571,-686 441,-686"/>
<polygon fill="#f5f5f5" stroke="transparent" points="441,-722 441,-744 571,-744 571,-722 441,-722"/>
<polygon fill="none" stroke="black" points="441,-722 441,-744 571,-744 571,-722 441,-722"/>
<text text-anchor="start" x="446" y="-731.2" font-family="Helvetica,sans-Serif" font-weight="bold" font-size="11.00">datasetvariables</text>
<text text-anchor="start" x="536" y="-730.2" font-family="Helvetica,sans-Serif" font-size="11.00">[table]</text>
<polygon fill="none" stroke="black" points="441,-704 441,-722 571,-722 571,-704 441,-704"/>
<text text-anchor="start" x="444" y="-710.2" font-family="Helvetica,sans-Serif" font-size="11.00">...</text>
<polygon fill="#ffffff" stroke="transparent" points="441,-686 441,-704 491,-704 491,-686 441,-686"/>
<polygon fill="none" stroke="black" points="441,-686 441,-704 491,-704 491,-686 441,-686"/>
<text text-anchor="start" x="444" y="-692.2" font-family="Helvetica,sans-Serif" font-size="11.00">&lt; 2</text>
<polygon fill="#ffffff" stroke="transparent" points="491,-686 491,-704 544,-704 544,-686 491,-686"/>
<polygon fill="none" stroke="black" points="491,-686 491,-704 544,-704 544,-686 491,-686"/>
<text text-anchor="start" x="508" y="-692.2" font-family="Helvetica,sans-Serif" font-size="11.00">0 rows</text>
<polygon fill="#ffffff" stroke="transparent" points="544,-686 544,-704 571,-704 571,-686 544,-686"/>
<polygon fill="none" stroke="black" points="544,-686 544,-704 571,-704 571,-686 544,-686"/>
<text text-anchor="start" x="561" y="-692.2" font-family="Helvetica,sans-Serif" font-size="11.00"> &#160;</text>
</a>
</g>
</g>
<!-- datasetvariables&#45;&gt;datasets -->
<g id="edge10" class="edge">
<title>datasetvariables:w&#45;&gt;datasets:e</title>
<path fill="none" stroke="black" d="M425.6,-713C383.28,-713 367.63,-713 319,-713"/>
<polygon fill="black" stroke="black" points="432,-713 440,-716.6 436,-713 440,-713 440,-713 440,-713 436,-713 440,-709.4 432,-713 432,-713"/>
<ellipse fill="none" stroke="black" cx="428.8" cy="-713" rx="3.2" ry="3.2"/>
</g>
<!-- isoinstrumentation -->
<g id="node12" class="node">
<title>isoinstrumentation</title>
<g id="a_node12"><a xlink:href="../../tables/isoinstrumentation.html" xlink:title="isoinstrumentation" target="_top">
<polygon fill="#ffffff" stroke="transparent" points="434,-607 434,-665 578,-665 578,-607 434,-607"/>
<polygon fill="#f5f5f5" stroke="transparent" points="434,-643 434,-665 578,-665 578,-643 434,-643"/>
<polygon fill="none" stroke="black" points="434,-643 434,-665 578,-665 578,-643 434,-643"/>
<text text-anchor="start" x="439" y="-652.2" font-family="Helvetica,sans-Serif" font-weight="bold" font-size="11.00">isoinstrumentation</text>
<text text-anchor="start" x="543" y="-651.2" font-family="Helvetica,sans-Serif" font-size="11.00">[table]</text>
<polygon fill="none" stroke="black" points="434,-625 434,-643 578,-643 578,-625 434,-625"/>
<text text-anchor="start" x="437" y="-631.2" font-family="Helvetica,sans-Serif" font-size="11.00">...</text>
<polygon fill="#ffffff" stroke="transparent" points="434,-607 434,-625 485,-625 485,-607 434,-607"/>
<polygon fill="none" stroke="black" points="434,-607 434,-625 485,-625 485,-607 434,-607"/>
<text text-anchor="start" x="437" y="-613.2" font-family="Helvetica,sans-Serif" font-size="11.00">&lt; 4</text>
<polygon fill="#ffffff" stroke="transparent" points="485,-607 485,-625 550,-625 550,-607 485,-607"/>
<polygon fill="none" stroke="black" points="485,-607 485,-625 550,-625 550,-607 485,-607"/>
<text text-anchor="start" x="502" y="-613.2" font-family="Helvetica,sans-Serif" font-size="11.00">156 rows</text>
<polygon fill="#ffffff" stroke="transparent" points="550,-607 550,-625 578,-625 578,-607 550,-607"/>
<polygon fill="none" stroke="black" points="550,-607 550,-625 578,-625 578,-607 550,-607"/>
<text text-anchor="start" x="568" y="-613.2" font-family="Helvetica,sans-Serif" font-size="11.00"> &#160;</text>
</a>
</g>
</g>
<!-- isoinstrumentation&#45;&gt;datasets -->
<g id="edge11" class="edge">
<title>isoinstrumentation:w&#45;&gt;datasets:e</title>
<path fill="none" stroke="black" d="M418.59,-635.65C372.43,-646.99 375.35,-713 319,-713"/>
<polygon fill="black" stroke="black" points="425.05,-634.91 433.41,-637.58 429.03,-634.46 433,-634 433,-634 433,-634 429.03,-634.46 432.59,-630.42 425.05,-634.91 425.05,-634.91"/>
<ellipse fill="none" stroke="black" cx="421.87" cy="-635.27" rx="3.2" ry="3.2"/>
</g>
<!-- isosrmetadata -->
<g id="node13" class="node">
<title>isosrmetadata</title>
<g id="a_node13"><a xlink:href="../../tables/isosrmetadata.html" xlink:title="isosrmetadata" target="_top">
<polygon fill="#ffffff" stroke="transparent" points="446.5,-528 446.5,-586 565.5,-586 565.5,-528 446.5,-528"/>
<polygon fill="#f5f5f5" stroke="transparent" points="447,-564 447,-586 566,-586 566,-564 447,-564"/>
<polygon fill="none" stroke="black" points="447,-564 447,-586 566,-586 566,-564 447,-564"/>
<text text-anchor="start" x="452" y="-573.2" font-family="Helvetica,sans-Serif" font-weight="bold" font-size="11.00">isosrmetadata</text>
<text text-anchor="start" x="531" y="-572.2" font-family="Helvetica,sans-Serif" font-size="11.00">[table]</text>
<polygon fill="none" stroke="black" points="447,-546 447,-564 566,-564 566,-546 447,-546"/>
<text text-anchor="start" x="450" y="-552.2" font-family="Helvetica,sans-Serif" font-size="11.00">...</text>
<polygon fill="#ffffff" stroke="transparent" points="447,-528 447,-546 488,-546 488,-528 447,-528"/>
<polygon fill="none" stroke="black" points="447,-528 447,-546 488,-546 488,-528 447,-528"/>
<text text-anchor="start" x="450" y="-534.2" font-family="Helvetica,sans-Serif" font-size="11.00">&lt; 2</text>
<polygon fill="#ffffff" stroke="transparent" points="488,-528 488,-546 543,-546 543,-528 488,-528"/>
<polygon fill="none" stroke="black" points="488,-528 488,-546 543,-546 543,-528 488,-528"/>
<text text-anchor="start" x="501" y="-534.2" font-family="Helvetica,sans-Serif" font-size="11.00">14 rows</text>
<polygon fill="#ffffff" stroke="transparent" points="543,-528 543,-546 566,-546 566,-528 543,-528"/>
<polygon fill="none" stroke="black" points="543,-528 543,-546 566,-546 566,-528 543,-528"/>
<text text-anchor="start" x="556" y="-534.2" font-family="Helvetica,sans-Serif" font-size="11.00"> &#160;</text>
</a>
</g>
</g>
<!-- isosrmetadata&#45;&gt;datasets -->
<g id="edge12" class="edge">
<title>isosrmetadata:w&#45;&gt;datasets:e</title>
<path fill="none" stroke="black" d="M431.5,-556.08C407.55,-560.07 398.39,-574.85 378,-597 338.83,-639.56 376.84,-713 319,-713"/>
<polygon fill="black" stroke="black" points="438.02,-555.6 446.27,-558.59 442.01,-555.3 446,-555 446,-555 446,-555 442.01,-555.3 445.73,-551.41 438.02,-555.6 438.02,-555.6"/>
<ellipse fill="none" stroke="black" cx="434.83" cy="-555.84" rx="3.2" ry="3.2"/>
</g>
<!-- isostandards -->
<g id="node14" class="node">
<title>isostandards</title>
<g id="a_node14"><a xlink:href="../../tables/isostandards.html" xlink:title="isostandards" target="_top">
<polygon fill="#ffffff" stroke="transparent" points="449.5,-449 449.5,-507 562.5,-507 562.5,-449 449.5,-449"/>
<polygon fill="#f5f5f5" stroke="transparent" points="450,-485 450,-507 563,-507 563,-485 450,-485"/>
<polygon fill="none" stroke="black" points="450,-485 450,-507 563,-507 563,-485 450,-485"/>
<text text-anchor="start" x="455" y="-494.2" font-family="Helvetica,sans-Serif" font-weight="bold" font-size="11.00">isostandards</text>
<text text-anchor="start" x="528" y="-493.2" font-family="Helvetica,sans-Serif" font-size="11.00">[table]</text>
<polygon fill="none" stroke="black" points="450,-467 450,-485 563,-485 563,-467 450,-467"/>
<text text-anchor="start" x="453" y="-473.2" font-family="Helvetica,sans-Serif" font-size="11.00">...</text>
<polygon fill="#ffffff" stroke="transparent" points="450,-449 450,-467 491,-467 491,-449 450,-449"/>
<polygon fill="none" stroke="black" points="450,-449 450,-467 491,-467 491,-449 450,-449"/>
<text text-anchor="start" x="453" y="-455.2" font-family="Helvetica,sans-Serif" font-size="11.00">&lt; 3</text>
<polygon fill="#ffffff" stroke="transparent" points="491,-449 491,-467 540,-467 540,-449 491,-449"/>
<polygon fill="none" stroke="black" points="491,-449 491,-467 540,-467 540,-449 491,-449"/>
<text text-anchor="start" x="504" y="-455.2" font-family="Helvetica,sans-Serif" font-size="11.00">0 rows</text>
<polygon fill="#ffffff" stroke="transparent" points="540,-449 540,-467 563,-467 563,-449 540,-449"/>
<polygon fill="none" stroke="black" points="540,-449 540,-467 563,-467 563,-449 540,-449"/>
<text text-anchor="start" x="553" y="-455.2" font-family="Helvetica,sans-Serif" font-size="11.00"> &#160;</text>
</a>
</g>
</g>
<!-- isostandards&#45;&gt;datasets -->
<g id="edge13" class="edge">
<title>isostandards:w&#45;&gt;datasets:e</title>
<path fill="none" stroke="black" d="M434.56,-476.83C408.72,-480.13 397.36,-493.32 378,-518 322.11,-589.24 409.55,-713 319,-713"/>
<polygon fill="black" stroke="black" points="441.01,-476.46 449.21,-479.59 445.01,-476.23 449,-476 449,-476 449,-476 445.01,-476.23 448.79,-472.41 441.01,-476.46 441.01,-476.46"/>
<ellipse fill="none" stroke="black" cx="437.82" cy="-476.64" rx="3.2" ry="3.2"/>
</g>
<!-- repositoryspecimens -->
<g id="node15" class="node">
<title>repositoryspecimens</title>
<g id="a_node15"><a xlink:href="../../tables/repositoryspecimens.html" xlink:title="repositoryspecimens" target="_top">
<polygon fill="#ffffff" stroke="transparent" points="386,-116 386,-270 626,-270 626,-116 386,-116"/>
<polygon fill="#f5f5f5" stroke="transparent" points="388,-246 388,-268 624,-268 624,-246 388,-246"/>
<polygon fill="none" stroke="black" points="388,-246 388,-268 624,-268 624,-246 388,-246"/>
<text text-anchor="start" x="393" y="-255.2" font-family="Helvetica,sans-Serif" font-weight="bold" font-size="11.00">repositoryspecimens</text>
<text text-anchor="start" x="589" y="-254.2" font-family="Helvetica,sans-Serif" font-size="11.00">[table]</text>
<polygon fill="none" stroke="black" points="388,-224 388,-246 534,-246 534,-224 388,-224"/>
<image xlink:href="../../images/primaryKeys.png" width="11px" height="12px" preserveAspectRatio="xMinYMin meet" x="393" y="-241"/>
<text text-anchor="start" x="408" y="-232.2" font-family="Helvetica,sans-Serif" font-size="11.00">datasetid</text>
<polygon fill="none" stroke="black" points="534,-224 534,-246 624,-246 624,-224 534,-224"/>
<text text-anchor="start" x="537" y="-232.2" font-family="Helvetica,sans-Serif" font-size="11.00">int4[10]</text>
<polygon fill="none" stroke="black" points="388,-202 388,-224 534,-224 534,-202 388,-202"/>
<image xlink:href="../../images/primaryKeys.png" width="11px" height="12px" preserveAspectRatio="xMinYMin meet" x="393" y="-219"/>
<text text-anchor="start" x="408" y="-210.2" font-family="Helvetica,sans-Serif" font-size="11.00">repositoryid</text>
<polygon fill="none" stroke="black" points="534,-202 534,-224 624,-224 624,-202 534,-202"/>
<text text-anchor="start" x="537" y="-210.2" font-family="Helvetica,sans-Serif" font-size="11.00">int4[10]</text>
<polygon fill="none" stroke="black" points="388,-180 388,-202 534,-202 534,-180 388,-180"/>
<text text-anchor="start" x="408" y="-188.2" font-family="Helvetica,sans-Serif" font-size="11.00">notes</text>
<polygon fill="none" stroke="black" points="534,-180 534,-202 624,-202 624,-180 534,-180"/>
<text text-anchor="start" x="537" y="-188.2" font-family="Helvetica,sans-Serif" font-size="11.00">text[2147483647]</text>
<polygon fill="none" stroke="black" points="388,-158 388,-180 534,-180 534,-158 388,-158"/>
<text text-anchor="start" x="408" y="-166.2" font-family="Helvetica,sans-Serif" font-size="11.00">recdatecreated</text>
<polygon fill="none" stroke="black" points="534,-158 534,-180 624,-180 624,-158 534,-158"/>
<text text-anchor="start" x="537" y="-166.2" font-family="Helvetica,sans-Serif" font-size="11.00">timestamp[22]</text>
<polygon fill="none" stroke="black" points="388,-136 388,-158 534,-158 534,-136 388,-136"/>
<text text-anchor="start" x="408" y="-144.2" font-family="Helvetica,sans-Serif" font-size="11.00">recdatemodified</text>
<polygon fill="none" stroke="black" points="534,-136 534,-158 624,-158 624,-136 534,-136"/>
<text text-anchor="start" x="537" y="-144.2" font-family="Helvetica,sans-Serif" font-size="11.00">timestamp[22]</text>
<polygon fill="#ffffff" stroke="transparent" points="388,-118 388,-136 442,-136 442,-118 388,-118"/>
<polygon fill="none" stroke="black" points="388,-118 388,-136 442,-136 442,-118 388,-118"/>
<text text-anchor="start" x="391" y="-124.2" font-family="Helvetica,sans-Serif" font-size="11.00">&lt; 2</text>
<polygon fill="#ffffff" stroke="transparent" points="442,-118 442,-136 534,-136 534,-118 442,-118"/>
<polygon fill="none" stroke="black" points="442,-118 442,-136 534,-136 534,-118 442,-118"/>
<text text-anchor="start" x="477" y="-124.2" font-family="Helvetica,sans-Serif" font-size="11.00">6,564 rows</text>
<polygon fill="#ffffff" stroke="transparent" points="534,-118 534,-136 624,-136 624,-118 534,-118"/>
<polygon fill="none" stroke="black" points="534,-118 534,-136 624,-136 624,-118 534,-118"/>
<text text-anchor="start" x="605" y="-124.2" font-family="Helvetica,sans-Serif" font-size="11.00">0 &gt;</text>
<polygon fill="none" stroke="black" stroke-width="2" points="387,-117 387,-269 625,-269 625,-117 387,-117"/>
</a>
</g>
</g>
<!-- repositoryspecimens&#45;&gt;datasets -->
<g id="edge14" class="edge">
<title>repositoryspecimens:w&#45;&gt;datasets:e</title>
<path fill="none" stroke="black" d="M372.55,-238.57C293.94,-282.31 420.84,-713 319,-713"/>
<polygon fill="black" stroke="black" points="379.23,-236.92 387.86,-238.49 383.12,-235.96 387,-235 387,-235 387,-235 383.12,-235.96 386.14,-231.51 379.23,-236.92 379.23,-236.92"/>
<ellipse fill="none" stroke="black" cx="376.13" cy="-237.69" rx="3.2" ry="3.2"/>
</g>
<!-- repositoryinstitutions -->
<g id="node16" class="node">
<title>repositoryinstitutions</title>
<g id="a_node16"><a xlink:href="../../tables/repositoryinstitutions.html" xlink:title="repositoryinstitutions" target="_top">
<polygon fill="#ffffff" stroke="transparent" points="179,-92 179,-172 337,-172 337,-92 179,-92"/>
<polygon fill="#f5f5f5" stroke="transparent" points="179,-150 179,-172 337,-172 337,-150 179,-150"/>
<polygon fill="none" stroke="black" points="179,-150 179,-172 337,-172 337,-150 179,-150"/>
<text text-anchor="start" x="184" y="-159.2" font-family="Helvetica,sans-Serif" font-weight="bold" font-size="11.00">repositoryinstitutions</text>
<text text-anchor="start" x="302" y="-158.2" font-family="Helvetica,sans-Serif" font-size="11.00">[table]</text>
<polygon fill="none" stroke="black" points="179,-128 179,-150 337,-150 337,-128 179,-128"/>
<image xlink:href="../../images/primaryKeys.png" width="11px" height="12px" preserveAspectRatio="xMinYMin meet" x="184" y="-145"/>
<text text-anchor="start" x="202" y="-136.2" font-family="Helvetica,sans-Serif" font-size="11.00">repositoryid</text>
<polygon fill="none" stroke="black" points="179,-110 179,-128 337,-128 337,-110 179,-110"/>
<text text-anchor="start" x="182" y="-116.2" font-family="Helvetica,sans-Serif" font-size="11.00">...</text>
<polygon fill="#ffffff" stroke="transparent" points="179,-92 179,-110 228,-110 228,-92 179,-92"/>
<polygon fill="none" stroke="black" points="179,-92 179,-110 228,-110 228,-92 179,-92"/>
<text text-anchor="start" x="182" y="-98.2" font-family="Helvetica,sans-Serif" font-size="11.00"> &#160;</text>
<polygon fill="#ffffff" stroke="transparent" points="228,-92 228,-110 297,-110 297,-92 228,-92"/>
<polygon fill="none" stroke="black" points="228,-92 228,-110 297,-110 297,-92 228,-92"/>
<text text-anchor="start" x="249" y="-98.2" font-family="Helvetica,sans-Serif" font-size="11.00">392 rows</text>
<polygon fill="#ffffff" stroke="transparent" points="297,-92 297,-110 337,-110 337,-92 297,-92"/>
<polygon fill="none" stroke="black" points="297,-92 297,-110 337,-110 337,-92 297,-92"/>
<text text-anchor="start" x="318" y="-98.2" font-family="Helvetica,sans-Serif" font-size="11.00">2 &gt;</text>
</a>
</g>
</g>
<!-- repositoryspecimens&#45;&gt;repositoryinstitutions -->
<g id="edge15" class="edge">
<title>repositoryspecimens:w&#45;&gt;repositoryinstitutions:e</title>
<path fill="none" stroke="black" d="M373.31,-208.37C355.05,-192.17 371.44,-139 338,-139"/>
<polygon fill="black" stroke="black" points="379.42,-210.44 385.85,-216.41 383.21,-211.72 387,-213 387,-213 387,-213 383.21,-211.72 388.15,-209.59 379.42,-210.44 379.42,-210.44"/>
<ellipse fill="none" stroke="black" cx="376.39" cy="-209.41" rx="3.2" ry="3.2"/>
</g>
<!-- samples -->
<g id="node17" class="node">
<title>samples</title>
<g id="a_node17"><a xlink:href="../../tables/samples.html" xlink:title="samples" target="_top">
<polygon fill="#ffffff" stroke="transparent" points="448,-370 448,-428 564,-428 564,-370 448,-370"/>
<polygon fill="#f5f5f5" stroke="transparent" points="448,-406 448,-428 564,-428 564,-406 448,-406"/>
<polygon fill="none" stroke="black" points="448,-406 448,-428 564,-428 564,-406 448,-406"/>
<text text-anchor="start" x="453" y="-415.2" font-family="Helvetica,sans-Serif" font-weight="bold" font-size="11.00">samples</text>
<text text-anchor="start" x="529" y="-414.2" font-family="Helvetica,sans-Serif" font-size="11.00">[table]</text>
<polygon fill="none" stroke="black" points="448,-388 448,-406 564,-406 564,-388 448,-388"/>
<text text-anchor="start" x="451" y="-394.2" font-family="Helvetica,sans-Serif" font-size="11.00">...</text>
<polygon fill="#ffffff" stroke="transparent" points="448,-370 448,-388 470,-388 470,-370 448,-370"/>
<polygon fill="none" stroke="black" points="448,-370 448,-388 470,-388 470,-370 448,-370"/>
<text text-anchor="start" x="451" y="-376.2" font-family="Helvetica,sans-Serif" font-size="11.00">&lt; 3</text>
<polygon fill="#ffffff" stroke="transparent" points="470,-370 470,-388 542,-388 542,-370 470,-370"/>
<polygon fill="none" stroke="black" points="470,-370 470,-388 542,-388 542,-370 470,-370"/>
<text text-anchor="start" x="473" y="-376.2" font-family="Helvetica,sans-Serif" font-size="11.00">541,654 rows</text>
<polygon fill="#ffffff" stroke="transparent" points="542,-370 542,-388 564,-388 564,-370 542,-370"/>
<polygon fill="none" stroke="black" points="542,-370 542,-388 564,-388 564,-370 542,-370"/>
<text text-anchor="start" x="545" y="-376.2" font-family="Helvetica,sans-Serif" font-size="11.00">7 &gt;</text>
</a>
</g>
</g>
<!-- samples&#45;&gt;datasets -->
<g id="edge16" class="edge">
<title>samples:w&#45;&gt;datasets:e</title>
<path fill="none" stroke="black" d="M432.47,-397.85C407.26,-401.15 395.71,-414.08 378,-439 305.82,-540.53 443.57,-713 319,-713"/>
<polygon fill="black" stroke="black" points="439.01,-397.47 447.21,-400.59 443.01,-397.23 447,-397 447,-397 447,-397 443.01,-397.23 446.79,-393.41 439.01,-397.47 439.01,-397.47"/>
<ellipse fill="none" stroke="black" cx="435.82" cy="-397.66" rx="3.2" ry="3.2"/>
</g>
<!-- specimens -->
<g id="node18" class="node">
<title>specimens</title>
<g id="a_node18"><a xlink:href="../../tables/specimens.html" xlink:title="specimens" target="_top">
<polygon fill="#ffffff" stroke="transparent" points="454,-37 454,-95 558,-95 558,-37 454,-37"/>
<polygon fill="#f5f5f5" stroke="transparent" points="454,-73 454,-95 558,-95 558,-73 454,-73"/>
<polygon fill="none" stroke="black" points="454,-73 454,-95 558,-95 558,-73 454,-73"/>
<text text-anchor="start" x="459" y="-82.2" font-family="Helvetica,sans-Serif" font-weight="bold" font-size="11.00">specimens</text>
<text text-anchor="start" x="523" y="-81.2" font-family="Helvetica,sans-Serif" font-size="11.00">[table]</text>
<polygon fill="none" stroke="black" points="454,-55 454,-73 558,-73 558,-55 454,-55"/>
<text text-anchor="start" x="457" y="-61.2" font-family="Helvetica,sans-Serif" font-size="11.00">...</text>
<polygon fill="#ffffff" stroke="transparent" points="454,-37 454,-55 476,-55 476,-37 454,-37"/>
<polygon fill="none" stroke="black" points="454,-37 454,-55 476,-55 476,-37 454,-37"/>
<text text-anchor="start" x="457" y="-43.2" font-family="Helvetica,sans-Serif" font-size="11.00">&lt; 8</text>
<polygon fill="#ffffff" stroke="transparent" points="476,-37 476,-55 536,-55 536,-37 476,-37"/>
<polygon fill="none" stroke="black" points="476,-37 476,-55 536,-55 536,-37 476,-37"/>
<text text-anchor="start" x="479" y="-43.2" font-family="Helvetica,sans-Serif" font-size="11.00">3,453 rows</text>
<polygon fill="#ffffff" stroke="transparent" points="536,-37 536,-55 558,-55 558,-37 536,-37"/>
<polygon fill="none" stroke="black" points="536,-37 536,-55 558,-55 558,-37 536,-37"/>
<text text-anchor="start" x="539" y="-43.2" font-family="Helvetica,sans-Serif" font-size="11.00">4 &gt;</text>
</a>
</g>
</g>
<!-- specimens&#45;&gt;repositoryinstitutions -->
<g id="edge17" class="edge">
<title>specimens:w&#45;&gt;repositoryinstitutions:e</title>
<path fill="none" stroke="black" d="M438.38,-65.17C412.83,-69.67 404.78,-86.59 378,-105 358.77,-118.22 361.33,-139 338,-139"/>
<polygon fill="black" stroke="black" points="445.03,-64.64 453.29,-67.59 449.01,-64.32 453,-64 453,-64 453,-64 449.01,-64.32 452.71,-60.41 445.03,-64.64 445.03,-64.64"/>
<ellipse fill="none" stroke="black" cx="441.84" cy="-64.89" rx="3.2" ry="3.2"/>
</g>
<!-- synonymy -->
<g id="node19" class="node">
<title>synonymy</title>
<g id="a_node19"><a xlink:href="../../tables/synonymy.html" xlink:title="synonymy" target="_top">
<polygon fill="#ffffff" stroke="transparent" points="455.5,-291 455.5,-349 556.5,-349 556.5,-291 455.5,-291"/>
<polygon fill="#f5f5f5" stroke="transparent" points="456,-327 456,-349 557,-349 557,-327 456,-327"/>
<polygon fill="none" stroke="black" points="456,-327 456,-349 557,-349 557,-327 456,-327"/>
<text text-anchor="start" x="461" y="-336.2" font-family="Helvetica,sans-Serif" font-weight="bold" font-size="11.00">synonymy</text>
<text text-anchor="start" x="522" y="-335.2" font-family="Helvetica,sans-Serif" font-size="11.00">[table]</text>
<polygon fill="none" stroke="black" points="456,-309 456,-327 557,-327 557,-309 456,-309"/>
<text text-anchor="start" x="459" y="-315.2" font-family="Helvetica,sans-Serif" font-size="11.00">...</text>
<polygon fill="#ffffff" stroke="transparent" points="456,-291 456,-309 478,-309 478,-291 456,-291"/>
<polygon fill="none" stroke="black" points="456,-291 456,-309 478,-309 478,-291 456,-291"/>
<text text-anchor="start" x="459" y="-297.2" font-family="Helvetica,sans-Serif" font-size="11.00">&lt; 5</text>
<polygon fill="#ffffff" stroke="transparent" points="478,-291 478,-309 544,-309 544,-291 478,-291"/>
<polygon fill="none" stroke="black" points="478,-291 478,-309 544,-309 544,-291 478,-291"/>
<text text-anchor="start" x="481" y="-297.2" font-family="Helvetica,sans-Serif" font-size="11.00">38,985 rows</text>
<polygon fill="#ffffff" stroke="transparent" points="544,-291 544,-309 557,-309 557,-291 544,-291"/>
<polygon fill="none" stroke="black" points="544,-291 544,-309 557,-309 557,-291 544,-291"/>
<text text-anchor="start" x="547" y="-297.2" font-family="Helvetica,sans-Serif" font-size="11.00"> &#160;</text>
</a>
</g>
</g>
<!-- synonymy&#45;&gt;datasets -->
<g id="edge18" class="edge">
<title>synonymy:w&#45;&gt;datasets:e</title>
<path fill="none" stroke="black" d="M440.25,-318.6C411.67,-321.2 397.51,-332.58 378,-360 331.88,-424.8 398.53,-713 319,-713"/>
<polygon fill="black" stroke="black" points="447.01,-318.33 455.15,-321.6 451,-318.16 455,-318 455,-318 455,-318 451,-318.16 454.85,-314.4 447.01,-318.33 447.01,-318.33"/>
<ellipse fill="none" stroke="black" cx="443.81" cy="-318.46" rx="3.2" ry="3.2"/>
</g>
</g>
</svg>
