<?xml version="1.0" encoding="UTF-8" standalone="no"?>
<!DOCTYPE svg PUBLIC "-//W3C//DTD SVG 1.1//EN"
 "http://www.w3.org/Graphics/SVG/1.1/DTD/svg11.dtd">
<!-- Generated by graphviz version 2.43.0 (0)
 -->
<!-- Title: oneDegreeRelationshipsDiagramImplied Pages: 1 -->
<svg width="471pt" height="296pt"
 viewBox="0.00 0.00 471.00 296.00" xmlns="http://www.w3.org/2000/svg" xmlns:xlink="http://www.w3.org/1999/xlink">
<g id="graph0" class="graph" transform="scale(1 1) rotate(0) translate(4 292)">
<title>oneDegreeRelationshipsDiagramImplied</title>
<polygon fill="#ffffff" stroke="transparent" points="-4,4 -4,-292 467,-292 467,4 -4,4"/>
<text text-anchor="middle" x="71.5" y="-7.2" font-family="Helvetica,sans-Serif" font-size="11.00">Generated by SchemaSpy</text>
<!-- repositoryspecimens -->
<g id="node1" class="node">
<title>repositoryspecimens</title>
<g id="a_node1"><a xlink:href="../../tables/repositoryspecimens.html" xlink:title="repositoryspecimens" target="_top">
<polygon fill="#ffffff" stroke="transparent" points="215,-59 215,-213 455,-213 455,-59 215,-59"/>
<polygon fill="#f5f5f5" stroke="transparent" points="217,-189 217,-211 453,-211 453,-189 217,-189"/>
<polygon fill="none" stroke="black" points="217,-189 217,-211 453,-211 453,-189 217,-189"/>
<text text-anchor="start" x="222" y="-198.2" font-family="Helvetica,sans-Serif" font-weight="bold" font-size="11.00">repositoryspecimens</text>
<text text-anchor="start" x="418" y="-197.2" font-family="Helvetica,sans-Serif" font-size="11.00">[table]</text>
<polygon fill="none" stroke="black" points="217,-167 217,-189 363,-189 363,-167 217,-167"/>
<image xlink:href="../../images/primaryKeys.png" width="11px" height="12px" preserveAspectRatio="xMinYMin meet" x="222" y="-184"/>
<text text-anchor="start" x="237" y="-175.2" font-family="Helvetica,sans-Serif" font-size="11.00">datasetid</text>
<polygon fill="none" stroke="black" points="363,-167 363,-189 453,-189 453,-167 363,-167"/>
<text text-anchor="start" x="366" y="-175.2" font-family="Helvetica,sans-Serif" font-size="11.00">int4[10]</text>
<polygon fill="none" stroke="black" points="217,-145 217,-167 363,-167 363,-145 217,-145"/>
<image xlink:href="../../images/primaryKeys.png" width="11px" height="12px" preserveAspectRatio="xMinYMin meet" x="222" y="-162"/>
<text text-anchor="start" x="237" y="-153.2" font-family="Helvetica,sans-Serif" font-size="11.00">repositoryid</text>
<polygon fill="none" stroke="black" points="363,-145 363,-167 453,-167 453,-145 363,-145"/>
<text text-anchor="start" x="366" y="-153.2" font-family="Helvetica,sans-Serif" font-size="11.00">int4[10]</text>
<polygon fill="none" stroke="black" points="217,-123 217,-145 363,-145 363,-123 217,-123"/>
<text text-anchor="start" x="237" y="-131.2" font-family="Helvetica,sans-Serif" font-size="11.00">notes</text>
<polygon fill="none" stroke="black" points="363,-123 363,-145 453,-145 453,-123 363,-123"/>
<text text-anchor="start" x="366" y="-131.2" font-family="Helvetica,sans-Serif" font-size="11.00">text[2147483647]</text>
<polygon fill="none" stroke="black" points="217,-101 217,-123 363,-123 363,-101 217,-101"/>
<text text-anchor="start" x="237" y="-109.2" font-family="Helvetica,sans-Serif" font-size="11.00">recdatecreated</text>
<polygon fill="none" stroke="black" points="363,-101 363,-123 453,-123 453,-101 363,-101"/>
<text text-anchor="start" x="366" y="-109.2" font-family="Helvetica,sans-Serif" font-size="11.00">timestamp[22]</text>
<polygon fill="none" stroke="black" points="217,-79 217,-101 363,-101 363,-79 217,-79"/>
<text text-anchor="start" x="237" y="-87.2" font-family="Helvetica,sans-Serif" font-size="11.00">recdatemodified</text>
<polygon fill="none" stroke="black" points="363,-79 363,-101 453,-101 453,-79 363,-79"/>
<text text-anchor="start" x="366" y="-87.2" font-family="Helvetica,sans-Serif" font-size="11.00">timestamp[22]</text>
<polygon fill="#ffffff" stroke="transparent" points="217,-61 217,-79 271,-79 271,-61 217,-61"/>
<polygon fill="none" stroke="black" points="217,-61 217,-79 271,-79 271,-61 217,-61"/>
<text text-anchor="start" x="220" y="-67.2" font-family="Helvetica,sans-Serif" font-size="11.00">&lt; 2</text>
<polygon fill="#ffffff" stroke="transparent" points="271,-61 271,-79 363,-79 363,-61 271,-61"/>
<polygon fill="none" stroke="black" points="271,-61 271,-79 363,-79 363,-61 271,-61"/>
<text text-anchor="start" x="306" y="-67.2" font-family="Helvetica,sans-Serif" font-size="11.00">6,564 rows</text>
<polygon fill="#ffffff" stroke="transparent" points="363,-61 363,-79 453,-79 453,-61 363,-61"/>
<polygon fill="none" stroke="black" points="363,-61 363,-79 453,-79 453,-61 363,-61"/>
<text text-anchor="start" x="434" y="-67.2" font-family="Helvetica,sans-Serif" font-size="11.00">0 &gt;</text>
<polygon fill="none" stroke="black" stroke-width="2" points="216,-60 216,-212 454,-212 454,-60 216,-60"/>
</a>
</g>
</g>
<!-- datasets -->
<g id="node2" class="node">
<title>datasets</title>
<g id="a_node2"><a xlink:href="../../tables/datasets.html" xlink:title="datasets" target="_top">
<polygon fill="#ffffff" stroke="transparent" points="27,-138 27,-284 147,-284 147,-138 27,-138"/>
<polygon fill="#f5f5f5" stroke="transparent" points="27,-262 27,-284 147,-284 147,-262 27,-262"/>
<polygon fill="none" stroke="black" points="27,-262 27,-284 147,-284 147,-262 27,-262"/>
<text text-anchor="start" x="32" y="-271.2" font-family="Helvetica,sans-Serif" font-weight="bold" font-size="11.00">datasets</text>
<text text-anchor="start" x="112" y="-270.2" font-family="Helvetica,sans-Serif" font-size="11.00">[table]</text>
<polygon fill="none" stroke="black" points="27,-240 27,-262 147,-262 147,-240 27,-240"/>
<image xlink:href="../../images/primaryKeys.png" width="11px" height="12px" preserveAspectRatio="xMinYMin meet" x="32" y="-257"/>
<text text-anchor="start" x="47" y="-248.2" font-family="Helvetica,sans-Serif" font-size="11.00">datasetid</text>
<polygon fill="#ffffff" stroke="transparent" points="27,-218 27,-240 147,-240 147,-218 27,-218"/>
<polygon fill="none" stroke="black" points="27,-218 27,-240 147,-240 147,-218 27,-218"/>
<image xlink:href="../../images/foreignKeys.png" width="11px" height="12px" preserveAspectRatio="xMinYMin meet" x="32" y="-235"/>
<text text-anchor="start" x="47" y="-226.2" font-family="Helvetica,sans-Serif" font-size="11.00">collectionunitid</text>
<polygon fill="#ffffff" stroke="transparent" points="27,-196 27,-218 147,-218 147,-196 27,-196"/>
<polygon fill="none" stroke="black" points="27,-196 27,-218 147,-218 147,-196 27,-196"/>
<image xlink:href="../../images/foreignKeys.png" width="11px" height="12px" preserveAspectRatio="xMinYMin meet" x="32" y="-213"/>
<text text-anchor="start" x="47" y="-204.2" font-family="Helvetica,sans-Serif" font-size="11.00">datasettypeid</text>
<polygon fill="none" stroke="black" points="27,-174 27,-196 147,-196 147,-174 27,-174"/>
<image xlink:href="../../images/foreignKeys.png" width="11px" height="12px" preserveAspectRatio="xMinYMin meet" x="32" y="-191"/>
<text text-anchor="start" x="47" y="-182.2" font-family="Helvetica,sans-Serif" font-size="11.00">embargoid</text>
<polygon fill="none" stroke="black" points="27,-156 27,-174 147,-174 147,-156 27,-156"/>
<text text-anchor="start" x="30" y="-162.2" font-family="Helvetica,sans-Serif" font-size="11.00">...</text>
<polygon fill="#ffffff" stroke="transparent" points="27,-138 27,-156 51,-156 51,-138 27,-138"/>
<polygon fill="none" stroke="black" points="27,-138 27,-156 51,-156 51,-138 27,-138"/>
<text text-anchor="start" x="30" y="-144.2" font-family="Helvetica,sans-Serif" font-size="11.00">&lt; 3</text>
<polygon fill="#ffffff" stroke="transparent" points="51,-138 51,-156 118,-156 118,-138 51,-138"/>
<polygon fill="none" stroke="black" points="51,-138 51,-156 118,-156 118,-138 51,-138"/>
<text text-anchor="start" x="55" y="-144.2" font-family="Helvetica,sans-Serif" font-size="11.00">49,780 rows</text>
<polygon fill="#ffffff" stroke="transparent" points="118,-138 118,-156 147,-156 147,-138 118,-138"/>
<polygon fill="none" stroke="black" points="118,-138 118,-156 147,-156 147,-138 118,-138"/>
<text text-anchor="start" x="122" y="-144.2" font-family="Helvetica,sans-Serif" font-size="11.00">13 &gt;</text>
</a>
</g>
</g>
<!-- repositoryspecimens&#45;&gt;datasets -->
<g id="edge1" class="edge">
<title>repositoryspecimens:w&#45;&gt;datasets:e</title>
<path fill="none" stroke="black" d="M201.82,-181.33C175.91,-195.61 186.62,-251 148,-251"/>
<polygon fill="black" stroke="black" points="208.21,-179.83 216.82,-181.5 212.11,-178.91 216,-178 216,-178 216,-178 212.11,-178.91 215.18,-174.5 208.21,-179.83 208.21,-179.83"/>
<ellipse fill="none" stroke="black" cx="205.1" cy="-180.56" rx="3.2" ry="3.2"/>
</g>
<!-- repositoryinstitutions -->
<g id="node3" class="node">
<title>repositoryinstitutions</title>
<g id="a_node3"><a xlink:href="../../tables/repositoryinstitutions.html" xlink:title="repositoryinstitutions" target="_top">
<polygon fill="#ffffff" stroke="transparent" points="8,-37 8,-117 166,-117 166,-37 8,-37"/>
<polygon fill="#f5f5f5" stroke="transparent" points="8,-95 8,-117 166,-117 166,-95 8,-95"/>
<polygon fill="none" stroke="black" points="8,-95 8,-117 166,-117 166,-95 8,-95"/>
<text text-anchor="start" x="13" y="-104.2" font-family="Helvetica,sans-Serif" font-weight="bold" font-size="11.00">repositoryinstitutions</text>
<text text-anchor="start" x="131" y="-103.2" font-family="Helvetica,sans-Serif" font-size="11.00">[table]</text>
<polygon fill="none" stroke="black" points="8,-73 8,-95 166,-95 166,-73 8,-73"/>
<image xlink:href="../../images/primaryKeys.png" width="11px" height="12px" preserveAspectRatio="xMinYMin meet" x="13" y="-90"/>
<text text-anchor="start" x="31" y="-81.2" font-family="Helvetica,sans-Serif" font-size="11.00">repositoryid</text>
<polygon fill="none" stroke="black" points="8,-55 8,-73 166,-73 166,-55 8,-55"/>
<text text-anchor="start" x="11" y="-61.2" font-family="Helvetica,sans-Serif" font-size="11.00">...</text>
<polygon fill="#ffffff" stroke="transparent" points="8,-37 8,-55 57,-55 57,-37 8,-37"/>
<polygon fill="none" stroke="black" points="8,-37 8,-55 57,-55 57,-37 8,-37"/>
<text text-anchor="start" x="11" y="-43.2" font-family="Helvetica,sans-Serif" font-size="11.00"> &#160;</text>
<polygon fill="#ffffff" stroke="transparent" points="57,-37 57,-55 126,-55 126,-37 57,-37"/>
<polygon fill="none" stroke="black" points="57,-37 57,-55 126,-55 126,-37 57,-37"/>
<text text-anchor="start" x="78" y="-43.2" font-family="Helvetica,sans-Serif" font-size="11.00">392 rows</text>
<polygon fill="#ffffff" stroke="transparent" points="126,-37 126,-55 166,-55 166,-37 126,-37"/>
<polygon fill="none" stroke="black" points="126,-37 126,-55 166,-55 166,-37 126,-37"/>
<text text-anchor="start" x="147" y="-43.2" font-family="Helvetica,sans-Serif" font-size="11.00">2 &gt;</text>
</a>
</g>
</g>
<!-- repositoryspecimens&#45;&gt;repositoryinstitutions -->
<g id="edge2" class="edge">
<title>repositoryspecimens:w&#45;&gt;repositoryinstitutions:e</title>
<path fill="none" stroke="black" d="M202.26,-151.28C184.53,-135.26 199.66,-84 167,-84"/>
<polygon fill="black" stroke="black" points="208.43,-153.4 214.83,-159.4 212.22,-154.7 216,-156 216,-156 216,-156 212.22,-154.7 217.17,-152.6 208.43,-153.4 208.43,-153.4"/>
<ellipse fill="none" stroke="black" cx="205.41" cy="-152.36" rx="3.2" ry="3.2"/>
</g>
</g>
</svg>
