<?xml version="1.0" encoding="UTF-8" standalone="no"?>
<!DOCTYPE svg PUBLIC "-//W3C//DTD SVG 1.1//EN"
 "http://www.w3.org/Graphics/SVG/1.1/DTD/svg11.dtd">
<!-- Generated by graphviz version 2.43.0 (0)
 -->
<!-- Title: twoDegreesRelationshipsDiagramImplied Pages: 1 -->
<svg width="731pt" height="600pt"
 viewBox="0.00 0.00 730.51 600.00" xmlns="http://www.w3.org/2000/svg" xmlns:xlink="http://www.w3.org/1999/xlink">
<g id="graph0" class="graph" transform="scale(1 1) rotate(0) translate(4 596)">
<title>twoDegreesRelationshipsDiagramImplied</title>
<polygon fill="#ffffff" stroke="transparent" points="-4,4 -4,-596 726.51,-596 726.51,4 -4,4"/>
<text text-anchor="middle" x="71.5" y="-7.2" font-family="Helvetica,sans-Serif" font-size="11.00">Generated by SchemaSpy</text>
<!-- analysisunits -->
<g id="node1" class="node">
<title>analysisunits</title>
<g id="a_node1"><a xlink:href="../../tables/analysisunits.html" xlink:title="analysisunits" target="_top">
<polygon fill="#ffffff" stroke="transparent" points="469.51,-530 469.51,-588 585.51,-588 585.51,-530 469.51,-530"/>
<polygon fill="#f5f5f5" stroke="transparent" points="469.51,-566 469.51,-588 585.51,-588 585.51,-566 469.51,-566"/>
<polygon fill="none" stroke="black" points="469.51,-566 469.51,-588 585.51,-588 585.51,-566 469.51,-566"/>
<text text-anchor="start" x="474.51" y="-575.2" font-family="Helvetica,sans-Serif" font-weight="bold" font-size="11.00">analysisunits</text>
<text text-anchor="start" x="550.51" y="-574.2" font-family="Helvetica,sans-Serif" font-size="11.00">[table]</text>
<polygon fill="none" stroke="black" points="469.51,-548 469.51,-566 585.51,-566 585.51,-548 469.51,-548"/>
<text text-anchor="start" x="472.51" y="-554.2" font-family="Helvetica,sans-Serif" font-size="11.00">...</text>
<polygon fill="#ffffff" stroke="transparent" points="469.51,-530 469.51,-548 491.51,-548 491.51,-530 469.51,-530"/>
<polygon fill="none" stroke="black" points="469.51,-530 469.51,-548 491.51,-548 491.51,-530 469.51,-530"/>
<text text-anchor="start" x="472.51" y="-536.2" font-family="Helvetica,sans-Serif" font-size="11.00">&lt; 2</text>
<polygon fill="#ffffff" stroke="transparent" points="491.51,-530 491.51,-548 563.51,-548 563.51,-530 491.51,-530"/>
<polygon fill="none" stroke="black" points="491.51,-530 491.51,-548 563.51,-548 563.51,-530 491.51,-530"/>
<text text-anchor="start" x="494.51" y="-536.2" font-family="Helvetica,sans-Serif" font-size="11.00">449,200 rows</text>
<polygon fill="#ffffff" stroke="transparent" points="563.51,-530 563.51,-548 585.51,-548 585.51,-530 563.51,-530"/>
<polygon fill="none" stroke="black" points="563.51,-530 563.51,-548 585.51,-548 585.51,-530 563.51,-530"/>
<text text-anchor="start" x="566.51" y="-536.2" font-family="Helvetica,sans-Serif" font-size="11.00">9 &gt;</text>
</a>
</g>
</g>
<!-- collectionunits -->
<g id="node2" class="node">
<title>collectionunits</title>
<g id="a_node2"><a xlink:href="../../tables/collectionunits.html" xlink:title="collectionunits" target="_top">
<polygon fill="#ffffff" stroke="transparent" points="298.51,-238 298.51,-406 420.51,-406 420.51,-238 298.51,-238"/>
<polygon fill="#f5f5f5" stroke="transparent" points="298.51,-384 298.51,-406 420.51,-406 420.51,-384 298.51,-384"/>
<polygon fill="none" stroke="black" points="298.51,-384 298.51,-406 420.51,-406 420.51,-384 298.51,-384"/>
<text text-anchor="start" x="303.51" y="-393.2" font-family="Helvetica,sans-Serif" font-weight="bold" font-size="11.00">collectionunits</text>
<text text-anchor="start" x="385.51" y="-392.2" font-family="Helvetica,sans-Serif" font-size="11.00">[table]</text>
<polygon fill="none" stroke="black" points="298.51,-362 298.51,-384 420.51,-384 420.51,-362 298.51,-362"/>
<image xlink:href="../../images/primaryKeys.png" width="11px" height="12px" preserveAspectRatio="xMinYMin meet" x="303.511" y="-379"/>
<text text-anchor="start" x="319.51" y="-370.2" font-family="Helvetica,sans-Serif" font-size="11.00">collectionunitid</text>
<polygon fill="#ffffff" stroke="transparent" points="298.51,-340 298.51,-362 420.51,-362 420.51,-340 298.51,-340"/>
<polygon fill="none" stroke="black" points="298.51,-340 298.51,-362 420.51,-362 420.51,-340 298.51,-340"/>
<image xlink:href="../../images/foreignKeys.png" width="11px" height="12px" preserveAspectRatio="xMinYMin meet" x="303.511" y="-357"/>
<text text-anchor="start" x="319.51" y="-348.2" font-family="Helvetica,sans-Serif" font-size="11.00">siteid</text>
<polygon fill="none" stroke="black" points="298.51,-318 298.51,-340 420.51,-340 420.51,-318 298.51,-318"/>
<image xlink:href="../../images/foreignKeys.png" width="11px" height="12px" preserveAspectRatio="xMinYMin meet" x="303.511" y="-335"/>
<text text-anchor="start" x="319.51" y="-326.2" font-family="Helvetica,sans-Serif" font-size="11.00">colltypeid</text>
<polygon fill="#ffffff" stroke="transparent" points="298.51,-296 298.51,-318 420.51,-318 420.51,-296 298.51,-296"/>
<polygon fill="none" stroke="black" points="298.51,-296 298.51,-318 420.51,-318 420.51,-296 298.51,-296"/>
<image xlink:href="../../images/foreignKeys.png" width="11px" height="12px" preserveAspectRatio="xMinYMin meet" x="303.511" y="-313"/>
<text text-anchor="start" x="319.51" y="-304.2" font-family="Helvetica,sans-Serif" font-size="11.00">depenvtid</text>
<polygon fill="none" stroke="black" points="298.51,-274 298.51,-296 420.51,-296 420.51,-274 298.51,-274"/>
<image xlink:href="../../images/foreignKeys.png" width="11px" height="12px" preserveAspectRatio="xMinYMin meet" x="303.511" y="-291"/>
<text text-anchor="start" x="319.51" y="-282.2" font-family="Helvetica,sans-Serif" font-size="11.00">substrateid</text>
<polygon fill="none" stroke="black" points="298.51,-256 298.51,-274 420.51,-274 420.51,-256 298.51,-256"/>
<text text-anchor="start" x="301.51" y="-262.2" font-family="Helvetica,sans-Serif" font-size="11.00">...</text>
<polygon fill="#ffffff" stroke="transparent" points="298.51,-238 298.51,-256 326.51,-256 326.51,-238 298.51,-238"/>
<polygon fill="none" stroke="black" points="298.51,-238 298.51,-256 326.51,-256 326.51,-238 298.51,-238"/>
<text text-anchor="start" x="301.51" y="-244.2" font-family="Helvetica,sans-Serif" font-size="11.00">&lt; 4</text>
<polygon fill="#ffffff" stroke="transparent" points="326.51,-238 326.51,-256 395.51,-256 395.51,-238 326.51,-238"/>
<polygon fill="none" stroke="black" points="326.51,-238 326.51,-256 395.51,-256 395.51,-238 326.51,-238"/>
<text text-anchor="start" x="332.51" y="-244.2" font-family="Helvetica,sans-Serif" font-size="11.00">32,827 rows</text>
<polygon fill="#ffffff" stroke="transparent" points="395.51,-238 395.51,-256 420.51,-256 420.51,-238 395.51,-238"/>
<polygon fill="none" stroke="black" points="395.51,-238 395.51,-256 420.51,-256 420.51,-238 395.51,-238"/>
<text text-anchor="start" x="401.51" y="-244.2" font-family="Helvetica,sans-Serif" font-size="11.00">6 &gt;</text>
</a>
</g>
</g>
<!-- analysisunits&#45;&gt;collectionunits -->
<g id="edge1" class="edge">
<title>analysisunits:w&#45;&gt;collectionunits:e</title>
<path fill="none" stroke="black" d="M453.96,-554.54C399.8,-532.7 500.14,-373 421.51,-373"/>
<polygon fill="black" stroke="black" points="460.62,-555.67 467.91,-560.55 464.57,-556.33 468.51,-557 468.51,-557 468.51,-557 464.57,-556.33 469.11,-553.45 460.62,-555.67 460.62,-555.67"/>
<ellipse fill="none" stroke="black" cx="457.47" cy="-555.13" rx="3.2" ry="3.2"/>
</g>
<!-- collectiontypes -->
<g id="node4" class="node">
<title>collectiontypes</title>
<g id="a_node4"><a xlink:href="../../tables/collectiontypes.html" xlink:title="collectiontypes" target="_top">
<polygon fill="#ffffff" stroke="transparent" points="78.01,-331 78.01,-389 202.01,-389 202.01,-331 78.01,-331"/>
<polygon fill="#f5f5f5" stroke="transparent" points="78.01,-367 78.01,-389 202.01,-389 202.01,-367 78.01,-367"/>
<polygon fill="none" stroke="black" points="78.01,-367 78.01,-389 202.01,-389 202.01,-367 78.01,-367"/>
<text text-anchor="start" x="83.01" y="-376.2" font-family="Helvetica,sans-Serif" font-weight="bold" font-size="11.00">collectiontypes</text>
<text text-anchor="start" x="167.01" y="-375.2" font-family="Helvetica,sans-Serif" font-size="11.00">[table]</text>
<polygon fill="none" stroke="black" points="78.01,-349 78.01,-367 202.01,-367 202.01,-349 78.01,-349"/>
<text text-anchor="start" x="81.01" y="-355.2" font-family="Helvetica,sans-Serif" font-size="11.00">...</text>
<polygon fill="#ffffff" stroke="transparent" points="78.01,-331 78.01,-349 113.01,-349 113.01,-331 78.01,-331"/>
<polygon fill="none" stroke="black" points="78.01,-331 78.01,-349 113.01,-349 113.01,-331 78.01,-331"/>
<text text-anchor="start" x="81.01" y="-337.2" font-family="Helvetica,sans-Serif" font-size="11.00"> &#160;</text>
<polygon fill="#ffffff" stroke="transparent" points="113.01,-331 113.01,-349 169.01,-349 169.01,-331 113.01,-331"/>
<polygon fill="none" stroke="black" points="113.01,-331 113.01,-349 169.01,-349 169.01,-331 113.01,-331"/>
<text text-anchor="start" x="127.01" y="-337.2" font-family="Helvetica,sans-Serif" font-size="11.00">11 rows</text>
<polygon fill="#ffffff" stroke="transparent" points="169.01,-331 169.01,-349 202.01,-349 202.01,-331 169.01,-331"/>
<polygon fill="none" stroke="black" points="169.01,-331 169.01,-349 202.01,-349 202.01,-331 169.01,-331"/>
<text text-anchor="start" x="183.01" y="-337.2" font-family="Helvetica,sans-Serif" font-size="11.00">1 &gt;</text>
</a>
</g>
</g>
<!-- collectionunits&#45;&gt;collectiontypes -->
<g id="edge3" class="edge">
<title>collectionunits:w&#45;&gt;collectiontypes:e</title>
<path fill="none" stroke="black" d="M283.06,-330.17C251.42,-335.6 241.62,-358 203.01,-358"/>
<polygon fill="black" stroke="black" points="289.54,-329.65 297.8,-332.59 293.52,-329.32 297.51,-329 297.51,-329 297.51,-329 293.52,-329.32 297.22,-325.41 289.54,-329.65 289.54,-329.65"/>
<ellipse fill="none" stroke="black" cx="286.35" cy="-329.91" rx="3.2" ry="3.2"/>
</g>
<!-- depenvttypes -->
<g id="node5" class="node">
<title>depenvttypes</title>
<g id="a_node5"><a xlink:href="../../tables/depenvttypes.html" xlink:title="depenvttypes" target="_top">
<polygon fill="#ffffff" stroke="transparent" points="82.51,-252 82.51,-310 197.51,-310 197.51,-252 82.51,-252"/>
<polygon fill="#f5f5f5" stroke="transparent" points="83.01,-288 83.01,-310 198.01,-310 198.01,-288 83.01,-288"/>
<polygon fill="none" stroke="black" points="83.01,-288 83.01,-310 198.01,-310 198.01,-288 83.01,-288"/>
<text text-anchor="start" x="88.01" y="-297.2" font-family="Helvetica,sans-Serif" font-weight="bold" font-size="11.00">depenvttypes</text>
<text text-anchor="start" x="163.01" y="-296.2" font-family="Helvetica,sans-Serif" font-size="11.00">[table]</text>
<polygon fill="none" stroke="black" points="83.01,-270 83.01,-288 198.01,-288 198.01,-270 83.01,-270"/>
<text text-anchor="start" x="86.01" y="-276.2" font-family="Helvetica,sans-Serif" font-size="11.00">...</text>
<polygon fill="#ffffff" stroke="transparent" points="83.01,-252 83.01,-270 115.01,-270 115.01,-252 83.01,-252"/>
<polygon fill="none" stroke="black" points="83.01,-252 83.01,-270 115.01,-270 115.01,-252 83.01,-252"/>
<text text-anchor="start" x="86.01" y="-258.2" font-family="Helvetica,sans-Serif" font-size="11.00">&lt; 1</text>
<polygon fill="#ffffff" stroke="transparent" points="115.01,-252 115.01,-270 171.01,-270 171.01,-252 115.01,-252"/>
<polygon fill="none" stroke="black" points="115.01,-252 115.01,-270 171.01,-270 171.01,-252 115.01,-252"/>
<text text-anchor="start" x="123.01" y="-258.2" font-family="Helvetica,sans-Serif" font-size="11.00">222 rows</text>
<polygon fill="#ffffff" stroke="transparent" points="171.01,-252 171.01,-270 198.01,-270 198.01,-252 171.01,-252"/>
<polygon fill="none" stroke="black" points="171.01,-252 171.01,-270 198.01,-270 198.01,-252 171.01,-252"/>
<text text-anchor="start" x="179.01" y="-258.2" font-family="Helvetica,sans-Serif" font-size="11.00">2 &gt;</text>
</a>
</g>
</g>
<!-- collectionunits&#45;&gt;depenvttypes -->
<g id="edge4" class="edge">
<title>collectionunits:w&#45;&gt;depenvttypes:e</title>
<path fill="none" stroke="black" d="M282.95,-305.94C249.72,-300.82 239.19,-279 199.01,-279"/>
<polygon fill="black" stroke="black" points="289.53,-306.42 297.25,-310.59 293.52,-306.71 297.51,-307 297.51,-307 297.51,-307 293.52,-306.71 297.77,-303.41 289.53,-306.42 289.53,-306.42"/>
<ellipse fill="none" stroke="black" cx="286.34" cy="-306.18" rx="3.2" ry="3.2"/>
</g>
<!-- sites -->
<g id="node6" class="node">
<title>sites</title>
<g id="a_node6"><a xlink:href="../../tables/sites.html" xlink:title="sites" target="_top">
<polygon fill="#ffffff" stroke="transparent" points="89.51,-410 89.51,-468 190.51,-468 190.51,-410 89.51,-410"/>
<polygon fill="#f5f5f5" stroke="transparent" points="90.01,-446 90.01,-468 191.01,-468 191.01,-446 90.01,-446"/>
<polygon fill="none" stroke="black" points="90.01,-446 90.01,-468 191.01,-468 191.01,-446 90.01,-446"/>
<text text-anchor="start" x="95.01" y="-455.2" font-family="Helvetica,sans-Serif" font-weight="bold" font-size="11.00">sites</text>
<text text-anchor="start" x="156.01" y="-454.2" font-family="Helvetica,sans-Serif" font-size="11.00">[table]</text>
<polygon fill="none" stroke="black" points="90.01,-428 90.01,-446 191.01,-446 191.01,-428 90.01,-428"/>
<text text-anchor="start" x="93.01" y="-434.2" font-family="Helvetica,sans-Serif" font-size="11.00">...</text>
<polygon fill="#ffffff" stroke="transparent" points="90.01,-410 90.01,-428 103.01,-428 103.01,-410 90.01,-410"/>
<polygon fill="none" stroke="black" points="90.01,-410 90.01,-428 103.01,-428 103.01,-410 90.01,-410"/>
<text text-anchor="start" x="93.01" y="-416.2" font-family="Helvetica,sans-Serif" font-size="11.00"> &#160;</text>
<polygon fill="#ffffff" stroke="transparent" points="103.01,-410 103.01,-428 169.01,-428 169.01,-410 103.01,-410"/>
<polygon fill="none" stroke="black" points="103.01,-410 103.01,-428 169.01,-428 169.01,-410 103.01,-410"/>
<text text-anchor="start" x="106.01" y="-416.2" font-family="Helvetica,sans-Serif" font-size="11.00">21,776 rows</text>
<polygon fill="#ffffff" stroke="transparent" points="169.01,-410 169.01,-428 191.01,-428 191.01,-410 169.01,-410"/>
<polygon fill="none" stroke="black" points="169.01,-410 169.01,-428 191.01,-428 191.01,-410 169.01,-410"/>
<text text-anchor="start" x="172.01" y="-416.2" font-family="Helvetica,sans-Serif" font-size="11.00">4 &gt;</text>
</a>
</g>
</g>
<!-- collectionunits&#45;&gt;sites -->
<g id="edge5" class="edge">
<title>collectionunits:w&#45;&gt;sites:e</title>
<path fill="none" stroke="black" d="M283.41,-355.25C272.16,-364.34 274.14,-385.99 257.51,-400 231.94,-421.54 225.45,-437 192.01,-437"/>
<polygon fill="black" stroke="black" points="289.85,-353.31 298.55,-354.45 293.68,-352.15 297.51,-351 297.51,-351 297.51,-351 293.68,-352.15 296.47,-347.55 289.85,-353.31 289.85,-353.31"/>
<ellipse fill="none" stroke="black" cx="286.79" cy="-354.23" rx="3.2" ry="3.2"/>
</g>
<!-- rocktypes -->
<g id="node7" class="node">
<title>rocktypes</title>
<g id="a_node7"><a xlink:href="../../tables/rocktypes.html" xlink:title="rocktypes" target="_top">
<polygon fill="#ffffff" stroke="transparent" points="30.51,-37 30.51,-213 249.51,-213 249.51,-37 30.51,-37"/>
<polygon fill="#f5f5f5" stroke="transparent" points="33.01,-189 33.01,-211 248.01,-211 248.01,-189 33.01,-189"/>
<polygon fill="none" stroke="black" points="33.01,-189 33.01,-211 248.01,-211 248.01,-189 33.01,-189"/>
<text text-anchor="start" x="38.01" y="-198.2" font-family="Helvetica,sans-Serif" font-weight="bold" font-size="11.00">rocktypes</text>
<text text-anchor="start" x="213.01" y="-197.2" font-family="Helvetica,sans-Serif" font-size="11.00">[table]</text>
<polygon fill="none" stroke="black" points="33.01,-167 33.01,-189 158.01,-189 158.01,-167 33.01,-167"/>
<image xlink:href="../../images/primaryKeys.png" width="11px" height="12px" preserveAspectRatio="xMinYMin meet" x="38.0106" y="-184"/>
<text text-anchor="start" x="53.01" y="-175.2" font-family="Helvetica,sans-Serif" font-size="11.00">rocktypeid</text>
<polygon fill="none" stroke="black" points="158.01,-167 158.01,-189 248.01,-189 248.01,-167 158.01,-167"/>
<text text-anchor="start" x="161.01" y="-175.2" font-family="Helvetica,sans-Serif" font-size="11.00">serial[10]</text>
<polygon fill="none" stroke="black" points="33.01,-145 33.01,-167 158.01,-167 158.01,-145 33.01,-145"/>
<text text-anchor="start" x="53.01" y="-153.2" font-family="Helvetica,sans-Serif" font-size="11.00">rocktype</text>
<polygon fill="none" stroke="black" points="158.01,-145 158.01,-167 248.01,-167 248.01,-145 158.01,-145"/>
<text text-anchor="start" x="161.01" y="-153.2" font-family="Helvetica,sans-Serif" font-size="11.00">varchar[64]</text>
<polygon fill="none" stroke="black" points="33.01,-123 33.01,-145 158.01,-145 158.01,-123 33.01,-123"/>
<image xlink:href="../../images/foreignKeys.png" width="11px" height="12px" preserveAspectRatio="xMinYMin meet" x="38.0106" y="-140"/>
<text text-anchor="start" x="53.01" y="-131.2" font-family="Helvetica,sans-Serif" font-size="11.00">higherrocktypeid</text>
<polygon fill="none" stroke="black" points="158.01,-123 158.01,-145 248.01,-145 248.01,-123 158.01,-123"/>
<text text-anchor="start" x="161.01" y="-131.2" font-family="Helvetica,sans-Serif" font-size="11.00">int4[10]</text>
<polygon fill="none" stroke="black" points="33.01,-101 33.01,-123 158.01,-123 158.01,-101 33.01,-101"/>
<text text-anchor="start" x="53.01" y="-109.2" font-family="Helvetica,sans-Serif" font-size="11.00">description</text>
<polygon fill="none" stroke="black" points="158.01,-101 158.01,-123 248.01,-123 248.01,-101 158.01,-101"/>
<text text-anchor="start" x="161.01" y="-109.2" font-family="Helvetica,sans-Serif" font-size="11.00">text[2147483647]</text>
<polygon fill="none" stroke="black" points="33.01,-79 33.01,-101 158.01,-101 158.01,-79 33.01,-79"/>
<text text-anchor="start" x="53.01" y="-87.2" font-family="Helvetica,sans-Serif" font-size="11.00">recdatecreated</text>
<polygon fill="none" stroke="black" points="158.01,-79 158.01,-101 248.01,-101 248.01,-79 158.01,-79"/>
<text text-anchor="start" x="161.01" y="-87.2" font-family="Helvetica,sans-Serif" font-size="11.00">timestamp[22]</text>
<polygon fill="none" stroke="black" points="33.01,-57 33.01,-79 158.01,-79 158.01,-57 33.01,-57"/>
<text text-anchor="start" x="53.01" y="-65.2" font-family="Helvetica,sans-Serif" font-size="11.00">recdatemodified</text>
<polygon fill="none" stroke="black" points="158.01,-57 158.01,-79 248.01,-79 248.01,-57 158.01,-57"/>
<text text-anchor="start" x="161.01" y="-65.2" font-family="Helvetica,sans-Serif" font-size="11.00">timestamp[22]</text>
<polygon fill="#ffffff" stroke="transparent" points="33.01,-39 33.01,-57 81.01,-57 81.01,-39 33.01,-39"/>
<polygon fill="none" stroke="black" points="33.01,-39 33.01,-57 81.01,-57 81.01,-39 33.01,-39"/>
<text text-anchor="start" x="36.01" y="-45.2" font-family="Helvetica,sans-Serif" font-size="11.00">&lt; 1</text>
<polygon fill="#ffffff" stroke="transparent" points="81.01,-39 81.01,-57 158.01,-57 158.01,-39 81.01,-39"/>
<polygon fill="none" stroke="black" points="81.01,-39 81.01,-57 158.01,-57 158.01,-39 81.01,-39"/>
<text text-anchor="start" x="110.01" y="-45.2" font-family="Helvetica,sans-Serif" font-size="11.00">206 rows</text>
<polygon fill="#ffffff" stroke="transparent" points="158.01,-39 158.01,-57 248.01,-57 248.01,-39 158.01,-39"/>
<polygon fill="none" stroke="black" points="158.01,-39 158.01,-57 248.01,-57 248.01,-39 158.01,-39"/>
<text text-anchor="start" x="229.01" y="-45.2" font-family="Helvetica,sans-Serif" font-size="11.00">2 &gt;</text>
<polygon fill="none" stroke="black" stroke-width="2" points="31.51,-38 31.51,-212 248.51,-212 248.51,-38 31.51,-38"/>
</a>
</g>
</g>
<!-- collectionunits&#45;&gt;rocktypes -->
<g id="edge6" class="edge">
<title>collectionunits:w&#45;&gt;rocktypes:e</title>
<path fill="none" stroke="black" d="M283.62,-281.19C256.58,-262.13 295.31,-178 249.01,-178"/>
<polygon fill="black" stroke="black" points="289.8,-282.89 296.56,-288.47 293.65,-283.94 297.51,-285 297.51,-285 297.51,-285 293.65,-283.94 298.46,-281.53 289.8,-282.89 289.8,-282.89"/>
<ellipse fill="none" stroke="black" cx="286.71" cy="-282.04" rx="3.2" ry="3.2"/>
</g>
<!-- chronologies -->
<g id="node3" class="node">
<title>chronologies</title>
<g id="a_node3"><a xlink:href="../../tables/chronologies.html" xlink:title="chronologies" target="_top">
<polygon fill="#ffffff" stroke="transparent" points="470.51,-451 470.51,-509 584.51,-509 584.51,-451 470.51,-451"/>
<polygon fill="#f5f5f5" stroke="transparent" points="470.51,-487 470.51,-509 584.51,-509 584.51,-487 470.51,-487"/>
<polygon fill="none" stroke="black" points="470.51,-487 470.51,-509 584.51,-509 584.51,-487 470.51,-487"/>
<text text-anchor="start" x="475.51" y="-496.2" font-family="Helvetica,sans-Serif" font-weight="bold" font-size="11.00">chronologies</text>
<text text-anchor="start" x="549.51" y="-495.2" font-family="Helvetica,sans-Serif" font-size="11.00">[table]</text>
<polygon fill="none" stroke="black" points="470.51,-469 470.51,-487 584.51,-487 584.51,-469 470.51,-469"/>
<text text-anchor="start" x="473.51" y="-475.2" font-family="Helvetica,sans-Serif" font-size="11.00">...</text>
<polygon fill="#ffffff" stroke="transparent" points="470.51,-451 470.51,-469 494.51,-469 494.51,-451 470.51,-451"/>
<polygon fill="none" stroke="black" points="470.51,-451 470.51,-469 494.51,-469 494.51,-451 470.51,-451"/>
<text text-anchor="start" x="473.51" y="-457.2" font-family="Helvetica,sans-Serif" font-size="11.00">&lt; 3</text>
<polygon fill="#ffffff" stroke="transparent" points="494.51,-451 494.51,-469 561.51,-469 561.51,-451 494.51,-451"/>
<polygon fill="none" stroke="black" points="494.51,-451 494.51,-469 561.51,-469 561.51,-451 494.51,-451"/>
<text text-anchor="start" x="498.51" y="-457.2" font-family="Helvetica,sans-Serif" font-size="11.00">31,133 rows</text>
<polygon fill="#ffffff" stroke="transparent" points="561.51,-451 561.51,-469 584.51,-469 584.51,-451 561.51,-451"/>
<polygon fill="none" stroke="black" points="561.51,-451 561.51,-469 584.51,-469 584.51,-451 561.51,-451"/>
<text text-anchor="start" x="565.51" y="-457.2" font-family="Helvetica,sans-Serif" font-size="11.00">3 &gt;</text>
</a>
</g>
</g>
<!-- chronologies&#45;&gt;collectionunits -->
<g id="edge2" class="edge">
<title>chronologies:w&#45;&gt;collectionunits:e</title>
<path fill="none" stroke="black" d="M455.49,-474.01C429.55,-454.83 466.81,-373 421.51,-373"/>
<polygon fill="black" stroke="black" points="461.82,-475.81 468.53,-481.46 465.66,-476.91 469.51,-478 469.51,-478 469.51,-478 465.66,-476.91 470.5,-474.54 461.82,-475.81 461.82,-475.81"/>
<ellipse fill="none" stroke="black" cx="458.74" cy="-474.93" rx="3.2" ry="3.2"/>
</g>
<!-- rocktypes&#45;&gt;rocktypes -->
<g id="edge12" class="edge">
<title>rocktypes:w&#45;&gt;rocktypes:e</title>
<path fill="none" stroke="black" d="M21.29,-142.64C-20.5,-178.16 -8.83,-230 140.51,-230 302.51,-230 302.51,-213 248.01,-178"/>
<polygon fill="black" stroke="black" points="26.57,-138.75 35.15,-136.9 29.79,-136.37 33.01,-134 33.01,-134 33.01,-134 29.79,-136.37 30.88,-131.1 26.57,-138.75 26.57,-138.75"/>
<ellipse fill="none" stroke="black" cx="23.99" cy="-140.64" rx="3.2" ry="3.2"/>
</g>
<!-- collectors -->
<g id="node8" class="node">
<title>collectors</title>
<g id="a_node8"><a xlink:href="../../tables/collectors.html" xlink:title="collectors" target="_top">
<polygon fill="#ffffff" stroke="transparent" points="477.01,-372 477.01,-430 578.01,-430 578.01,-372 477.01,-372"/>
<polygon fill="#f5f5f5" stroke="transparent" points="477.51,-408 477.51,-430 578.51,-430 578.51,-408 477.51,-408"/>
<polygon fill="none" stroke="black" points="477.51,-408 477.51,-430 578.51,-430 578.51,-408 477.51,-408"/>
<text text-anchor="start" x="482.51" y="-417.2" font-family="Helvetica,sans-Serif" font-weight="bold" font-size="11.00">collectors</text>
<text text-anchor="start" x="543.51" y="-416.2" font-family="Helvetica,sans-Serif" font-size="11.00">[table]</text>
<polygon fill="none" stroke="black" points="477.51,-390 477.51,-408 578.51,-408 578.51,-390 477.51,-390"/>
<text text-anchor="start" x="480.51" y="-396.2" font-family="Helvetica,sans-Serif" font-size="11.00">...</text>
<polygon fill="#ffffff" stroke="transparent" points="477.51,-372 477.51,-390 499.51,-390 499.51,-372 477.51,-372"/>
<polygon fill="none" stroke="black" points="477.51,-372 477.51,-390 499.51,-390 499.51,-372 477.51,-372"/>
<text text-anchor="start" x="480.51" y="-378.2" font-family="Helvetica,sans-Serif" font-size="11.00">&lt; 2</text>
<polygon fill="#ffffff" stroke="transparent" points="499.51,-372 499.51,-390 565.51,-390 565.51,-372 499.51,-372"/>
<polygon fill="none" stroke="black" points="499.51,-372 499.51,-390 565.51,-390 565.51,-372 499.51,-372"/>
<text text-anchor="start" x="502.51" y="-378.2" font-family="Helvetica,sans-Serif" font-size="11.00">46,892 rows</text>
<polygon fill="#ffffff" stroke="transparent" points="565.51,-372 565.51,-390 578.51,-390 578.51,-372 565.51,-372"/>
<polygon fill="none" stroke="black" points="565.51,-372 565.51,-390 578.51,-390 578.51,-372 565.51,-372"/>
<text text-anchor="start" x="568.51" y="-378.2" font-family="Helvetica,sans-Serif" font-size="11.00"> &#160;</text>
</a>
</g>
</g>
<!-- collectors&#45;&gt;collectionunits -->
<g id="edge7" class="edge">
<title>collectors:w&#45;&gt;collectionunits:e</title>
<path fill="none" stroke="black" d="M462.4,-396.02C447.92,-389.19 442.85,-373 421.51,-373"/>
<polygon fill="black" stroke="black" points="468.68,-397.35 475.77,-402.52 472.6,-398.17 476.51,-399 476.51,-399 476.51,-399 472.6,-398.17 477.25,-395.48 468.68,-397.35 468.68,-397.35"/>
<ellipse fill="none" stroke="black" cx="465.55" cy="-396.68" rx="3.2" ry="3.2"/>
</g>
<!-- datasets -->
<g id="node9" class="node">
<title>datasets</title>
<g id="a_node9"><a xlink:href="../../tables/datasets.html" xlink:title="datasets" target="_top">
<polygon fill="#ffffff" stroke="transparent" points="469.51,-266 469.51,-324 585.51,-324 585.51,-266 469.51,-266"/>
<polygon fill="#f5f5f5" stroke="transparent" points="469.51,-302 469.51,-324 585.51,-324 585.51,-302 469.51,-302"/>
<polygon fill="none" stroke="black" points="469.51,-302 469.51,-324 585.51,-324 585.51,-302 469.51,-302"/>
<text text-anchor="start" x="474.51" y="-311.2" font-family="Helvetica,sans-Serif" font-weight="bold" font-size="11.00">datasets</text>
<text text-anchor="start" x="550.51" y="-310.2" font-family="Helvetica,sans-Serif" font-size="11.00">[table]</text>
<polygon fill="none" stroke="black" points="469.51,-284 469.51,-302 585.51,-302 585.51,-284 469.51,-284"/>
<text text-anchor="start" x="472.51" y="-290.2" font-family="Helvetica,sans-Serif" font-size="11.00">...</text>
<polygon fill="#ffffff" stroke="transparent" points="469.51,-266 469.51,-284 491.51,-284 491.51,-266 469.51,-266"/>
<polygon fill="none" stroke="black" points="469.51,-266 469.51,-284 491.51,-284 491.51,-266 469.51,-266"/>
<text text-anchor="start" x="472.51" y="-272.2" font-family="Helvetica,sans-Serif" font-size="11.00">&lt; 3</text>
<polygon fill="#ffffff" stroke="transparent" points="491.51,-266 491.51,-284 557.51,-284 557.51,-266 491.51,-266"/>
<polygon fill="none" stroke="black" points="491.51,-266 491.51,-284 557.51,-284 557.51,-266 491.51,-266"/>
<text text-anchor="start" x="494.51" y="-272.2" font-family="Helvetica,sans-Serif" font-size="11.00">48,328 rows</text>
<polygon fill="#ffffff" stroke="transparent" points="557.51,-266 557.51,-284 585.51,-284 585.51,-266 557.51,-266"/>
<polygon fill="none" stroke="black" points="557.51,-266 557.51,-284 585.51,-284 585.51,-266 557.51,-266"/>
<text text-anchor="start" x="560.51" y="-272.2" font-family="Helvetica,sans-Serif" font-size="11.00">17 &gt;</text>
</a>
</g>
</g>
<!-- datasets&#45;&gt;collectionunits -->
<g id="edge8" class="edge">
<title>datasets:w&#45;&gt;collectionunits:e</title>
<path fill="none" stroke="black" d="M454.72,-297.76C436.11,-314.99 456.63,-373 421.51,-373"/>
<polygon fill="black" stroke="black" points="460.95,-295.61 469.69,-296.4 464.73,-294.31 468.51,-293 468.51,-293 468.51,-293 464.73,-294.31 467.34,-289.6 460.95,-295.61 460.95,-295.61"/>
<ellipse fill="none" stroke="black" cx="457.92" cy="-296.66" rx="3.2" ry="3.2"/>
</g>
<!-- dslinks -->
<g id="node10" class="node">
<title>dslinks</title>
<g id="a_node10"><a xlink:href="../../tables/dslinks.html" xlink:title="dslinks" target="_top">
<polygon fill="#ffffff" stroke="transparent" points="634.51,-311 634.51,-351 714.51,-351 714.51,-311 634.51,-311"/>
<polygon fill="#f5f5f5" stroke="transparent" points="634.51,-329 634.51,-351 714.51,-351 714.51,-329 634.51,-329"/>
<polygon fill="none" stroke="black" points="634.51,-329 634.51,-351 714.51,-351 714.51,-329 634.51,-329"/>
<text text-anchor="start" x="639.51" y="-338.2" font-family="Helvetica,sans-Serif" font-weight="bold" font-size="11.00">dslinks</text>
<text text-anchor="start" x="681.51" y="-337.2" font-family="Helvetica,sans-Serif" font-size="11.00">[view]</text>
<polygon fill="none" stroke="black" points="634.51,-311 634.51,-329 714.51,-329 714.51,-311 634.51,-311"/>
<text text-anchor="start" x="637.51" y="-317.2" font-family="Helvetica,sans-Serif" font-size="11.00">...</text>
</a>
</g>
</g>
<!-- dslinks&#45;&gt;collectionunits -->
<g id="edge9" class="edge">
<title>dslinks:w&#45;&gt;collectionunits:e</title>
<path fill="none" stroke="black" stroke-dasharray="5,2" d="M619.22,-322.53C611.16,-325.78 605.91,-331.43 593.51,-335 535.97,-351.56 519.75,-348.05 461.51,-362 443.58,-366.29 439.95,-373 421.51,-373"/>
<polygon fill="black" stroke="black" points="625.63,-321.4 634.14,-323.54 629.57,-320.7 633.51,-320 633.51,-320 633.51,-320 629.57,-320.7 632.88,-316.46 625.63,-321.4 625.63,-321.4"/>
<ellipse fill="none" stroke="black" cx="622.48" cy="-321.95" rx="3.2" ry="3.2"/>
</g>
<!-- dslinks&#45;&gt;datasets -->
<g id="edge10" class="edge">
<title>dslinks:w&#45;&gt;datasets:e</title>
<path fill="none" stroke="black" stroke-dasharray="5,2" d="M619.39,-315.78C608.43,-308.19 604.58,-293 586.51,-293"/>
<polygon fill="black" stroke="black" points="625.85,-317.71 632.48,-323.45 629.68,-318.85 633.51,-320 633.51,-320 633.51,-320 629.68,-318.85 634.54,-316.55 625.85,-317.71 625.85,-317.71"/>
<ellipse fill="none" stroke="black" cx="622.78" cy="-316.79" rx="3.2" ry="3.2"/>
</g>
<!-- lithology -->
<g id="node11" class="node">
<title>lithology</title>
<g id="a_node11"><a xlink:href="../../tables/lithology.html" xlink:title="lithology" target="_top">
<polygon fill="#ffffff" stroke="transparent" points="477.01,-187 477.01,-245 578.01,-245 578.01,-187 477.01,-187"/>
<polygon fill="#f5f5f5" stroke="transparent" points="477.51,-223 477.51,-245 578.51,-245 578.51,-223 477.51,-223"/>
<polygon fill="none" stroke="black" points="477.51,-223 477.51,-245 578.51,-245 578.51,-223 477.51,-223"/>
<text text-anchor="start" x="482.51" y="-232.2" font-family="Helvetica,sans-Serif" font-weight="bold" font-size="11.00">lithology</text>
<text text-anchor="start" x="543.51" y="-231.2" font-family="Helvetica,sans-Serif" font-size="11.00">[table]</text>
<polygon fill="none" stroke="black" points="477.51,-205 477.51,-223 578.51,-223 578.51,-205 477.51,-205"/>
<text text-anchor="start" x="480.51" y="-211.2" font-family="Helvetica,sans-Serif" font-size="11.00">...</text>
<polygon fill="#ffffff" stroke="transparent" points="477.51,-187 477.51,-205 499.51,-205 499.51,-187 477.51,-187"/>
<polygon fill="none" stroke="black" points="477.51,-187 477.51,-205 499.51,-205 499.51,-187 477.51,-187"/>
<text text-anchor="start" x="480.51" y="-193.2" font-family="Helvetica,sans-Serif" font-size="11.00">&lt; 1</text>
<polygon fill="#ffffff" stroke="transparent" points="499.51,-187 499.51,-205 565.51,-205 565.51,-187 499.51,-187"/>
<polygon fill="none" stroke="black" points="499.51,-187 499.51,-205 565.51,-205 565.51,-187 499.51,-187"/>
<text text-anchor="start" x="502.51" y="-193.2" font-family="Helvetica,sans-Serif" font-size="11.00">30,155 rows</text>
<polygon fill="#ffffff" stroke="transparent" points="565.51,-187 565.51,-205 578.51,-205 578.51,-187 565.51,-187"/>
<polygon fill="none" stroke="black" points="565.51,-187 565.51,-205 578.51,-205 578.51,-187 565.51,-187"/>
<text text-anchor="start" x="568.51" y="-193.2" font-family="Helvetica,sans-Serif" font-size="11.00"> &#160;</text>
</a>
</g>
</g>
<!-- lithology&#45;&gt;collectionunits -->
<g id="edge11" class="edge">
<title>lithology:w&#45;&gt;collectionunits:e</title>
<path fill="none" stroke="black" d="M462.22,-216.63C415.16,-237.3 490.59,-373 421.51,-373"/>
<polygon fill="black" stroke="black" points="468.64,-215.45 477.16,-217.54 472.58,-214.72 476.51,-214 476.51,-214 476.51,-214 472.58,-214.72 475.86,-210.46 468.64,-215.45 468.64,-215.45"/>
<ellipse fill="none" stroke="black" cx="465.5" cy="-216.03" rx="3.2" ry="3.2"/>
</g>
</g>
</svg>
