<?xml version="1.0" encoding="UTF-8" standalone="no"?>
<!DOCTYPE svg PUBLIC "-//W3C//DTD SVG 1.1//EN"
 "http://www.w3.org/Graphics/SVG/1.1/DTD/svg11.dtd">
<!-- Generated by graphviz version 2.43.0 (0)
 -->
<!-- Title: oneDegreeRelationshipsDiagramImplied Pages: 1 -->
<svg width="437pt" height="311pt"
 viewBox="0.00 0.00 436.51 311.00" xmlns="http://www.w3.org/2000/svg" xmlns:xlink="http://www.w3.org/1999/xlink">
<g id="graph0" class="graph" transform="scale(1 1) rotate(0) translate(4 307)">
<title>oneDegreeRelationshipsDiagramImplied</title>
<polygon fill="#ffffff" stroke="transparent" points="-4,4 -4,-307 432.51,-307 432.51,4 -4,4"/>
<text text-anchor="middle" x="71.5" y="-7.2" font-family="Helvetica,sans-Serif" font-size="11.00">Generated by SchemaSpy</text>
<!-- collectionunits -->
<g id="node1" class="node">
<title>collectionunits</title>
<g id="a_node1"><a xlink:href="../../tables/collectionunits.html" xlink:title="collectionunits" target="_top">
<polygon fill="#ffffff" stroke="transparent" points="298.51,-131 298.51,-299 420.51,-299 420.51,-131 298.51,-131"/>
<polygon fill="#f5f5f5" stroke="transparent" points="298.51,-277 298.51,-299 420.51,-299 420.51,-277 298.51,-277"/>
<polygon fill="none" stroke="black" points="298.51,-277 298.51,-299 420.51,-299 420.51,-277 298.51,-277"/>
<text text-anchor="start" x="303.51" y="-286.2" font-family="Helvetica,sans-Serif" font-weight="bold" font-size="11.00">collectionunits</text>
<text text-anchor="start" x="385.51" y="-285.2" font-family="Helvetica,sans-Serif" font-size="11.00">[table]</text>
<polygon fill="none" stroke="black" points="298.51,-255 298.51,-277 420.51,-277 420.51,-255 298.51,-255"/>
<image xlink:href="../../images/primaryKeys.png" width="11px" height="12px" preserveAspectRatio="xMinYMin meet" x="303.511" y="-272"/>
<text text-anchor="start" x="319.51" y="-263.2" font-family="Helvetica,sans-Serif" font-size="11.00">collectionunitid</text>
<polygon fill="#ffffff" stroke="transparent" points="298.51,-233 298.51,-255 420.51,-255 420.51,-233 298.51,-233"/>
<polygon fill="none" stroke="black" points="298.51,-233 298.51,-255 420.51,-255 420.51,-233 298.51,-233"/>
<image xlink:href="../../images/foreignKeys.png" width="11px" height="12px" preserveAspectRatio="xMinYMin meet" x="303.511" y="-250"/>
<text text-anchor="start" x="319.51" y="-241.2" font-family="Helvetica,sans-Serif" font-size="11.00">siteid</text>
<polygon fill="none" stroke="black" points="298.51,-211 298.51,-233 420.51,-233 420.51,-211 298.51,-211"/>
<image xlink:href="../../images/foreignKeys.png" width="11px" height="12px" preserveAspectRatio="xMinYMin meet" x="303.511" y="-228"/>
<text text-anchor="start" x="319.51" y="-219.2" font-family="Helvetica,sans-Serif" font-size="11.00">colltypeid</text>
<polygon fill="#ffffff" stroke="transparent" points="298.51,-189 298.51,-211 420.51,-211 420.51,-189 298.51,-189"/>
<polygon fill="none" stroke="black" points="298.51,-189 298.51,-211 420.51,-211 420.51,-189 298.51,-189"/>
<image xlink:href="../../images/foreignKeys.png" width="11px" height="12px" preserveAspectRatio="xMinYMin meet" x="303.511" y="-206"/>
<text text-anchor="start" x="319.51" y="-197.2" font-family="Helvetica,sans-Serif" font-size="11.00">depenvtid</text>
<polygon fill="none" stroke="black" points="298.51,-167 298.51,-189 420.51,-189 420.51,-167 298.51,-167"/>
<image xlink:href="../../images/foreignKeys.png" width="11px" height="12px" preserveAspectRatio="xMinYMin meet" x="303.511" y="-184"/>
<text text-anchor="start" x="319.51" y="-175.2" font-family="Helvetica,sans-Serif" font-size="11.00">substrateid</text>
<polygon fill="none" stroke="black" points="298.51,-149 298.51,-167 420.51,-167 420.51,-149 298.51,-149"/>
<text text-anchor="start" x="301.51" y="-155.2" font-family="Helvetica,sans-Serif" font-size="11.00">...</text>
<polygon fill="#ffffff" stroke="transparent" points="298.51,-131 298.51,-149 326.51,-149 326.51,-131 298.51,-131"/>
<polygon fill="none" stroke="black" points="298.51,-131 298.51,-149 326.51,-149 326.51,-131 298.51,-131"/>
<text text-anchor="start" x="301.51" y="-137.2" font-family="Helvetica,sans-Serif" font-size="11.00">&lt; 4</text>
<polygon fill="#ffffff" stroke="transparent" points="326.51,-131 326.51,-149 395.51,-149 395.51,-131 326.51,-131"/>
<polygon fill="none" stroke="black" points="326.51,-131 326.51,-149 395.51,-149 395.51,-131 326.51,-131"/>
<text text-anchor="start" x="332.51" y="-137.2" font-family="Helvetica,sans-Serif" font-size="11.00">33,980 rows</text>
<polygon fill="#ffffff" stroke="transparent" points="395.51,-131 395.51,-149 420.51,-149 420.51,-131 395.51,-131"/>
<polygon fill="none" stroke="black" points="395.51,-131 395.51,-149 420.51,-149 420.51,-131 395.51,-131"/>
<text text-anchor="start" x="401.51" y="-137.2" font-family="Helvetica,sans-Serif" font-size="11.00">5 &gt;</text>
</a>
</g>
</g>
<!-- rocktypes -->
<g id="node2" class="node">
<title>rocktypes</title>
<g id="a_node2"><a xlink:href="../../tables/rocktypes.html" xlink:title="rocktypes" target="_top">
<polygon fill="#ffffff" stroke="transparent" points="30.51,-37 30.51,-213 249.51,-213 249.51,-37 30.51,-37"/>
<polygon fill="#f5f5f5" stroke="transparent" points="33.01,-189 33.01,-211 248.01,-211 248.01,-189 33.01,-189"/>
<polygon fill="none" stroke="black" points="33.01,-189 33.01,-211 248.01,-211 248.01,-189 33.01,-189"/>
<text text-anchor="start" x="38.01" y="-198.2" font-family="Helvetica,sans-Serif" font-weight="bold" font-size="11.00">rocktypes</text>
<text text-anchor="start" x="213.01" y="-197.2" font-family="Helvetica,sans-Serif" font-size="11.00">[table]</text>
<polygon fill="none" stroke="black" points="33.01,-167 33.01,-189 158.01,-189 158.01,-167 33.01,-167"/>
<image xlink:href="../../images/primaryKeys.png" width="11px" height="12px" preserveAspectRatio="xMinYMin meet" x="38.0106" y="-184"/>
<text text-anchor="start" x="53.01" y="-175.2" font-family="Helvetica,sans-Serif" font-size="11.00">rocktypeid</text>
<polygon fill="none" stroke="black" points="158.01,-167 158.01,-189 248.01,-189 248.01,-167 158.01,-167"/>
<text text-anchor="start" x="161.01" y="-175.2" font-family="Helvetica,sans-Serif" font-size="11.00">serial[10]</text>
<polygon fill="none" stroke="black" points="33.01,-145 33.01,-167 158.01,-167 158.01,-145 33.01,-145"/>
<text text-anchor="start" x="53.01" y="-153.2" font-family="Helvetica,sans-Serif" font-size="11.00">rocktype</text>
<polygon fill="none" stroke="black" points="158.01,-145 158.01,-167 248.01,-167 248.01,-145 158.01,-145"/>
<text text-anchor="start" x="161.01" y="-153.2" font-family="Helvetica,sans-Serif" font-size="11.00">varchar[64]</text>
<polygon fill="none" stroke="black" points="33.01,-123 33.01,-145 158.01,-145 158.01,-123 33.01,-123"/>
<image xlink:href="../../images/foreignKeys.png" width="11px" height="12px" preserveAspectRatio="xMinYMin meet" x="38.0106" y="-140"/>
<text text-anchor="start" x="53.01" y="-131.2" font-family="Helvetica,sans-Serif" font-size="11.00">higherrocktypeid</text>
<polygon fill="none" stroke="black" points="158.01,-123 158.01,-145 248.01,-145 248.01,-123 158.01,-123"/>
<text text-anchor="start" x="161.01" y="-131.2" font-family="Helvetica,sans-Serif" font-size="11.00">int4[10]</text>
<polygon fill="none" stroke="black" points="33.01,-101 33.01,-123 158.01,-123 158.01,-101 33.01,-101"/>
<text text-anchor="start" x="53.01" y="-109.2" font-family="Helvetica,sans-Serif" font-size="11.00">description</text>
<polygon fill="none" stroke="black" points="158.01,-101 158.01,-123 248.01,-123 248.01,-101 158.01,-101"/>
<text text-anchor="start" x="161.01" y="-109.2" font-family="Helvetica,sans-Serif" font-size="11.00">text[2147483647]</text>
<polygon fill="none" stroke="black" points="33.01,-79 33.01,-101 158.01,-101 158.01,-79 33.01,-79"/>
<text text-anchor="start" x="53.01" y="-87.2" font-family="Helvetica,sans-Serif" font-size="11.00">recdatecreated</text>
<polygon fill="none" stroke="black" points="158.01,-79 158.01,-101 248.01,-101 248.01,-79 158.01,-79"/>
<text text-anchor="start" x="161.01" y="-87.2" font-family="Helvetica,sans-Serif" font-size="11.00">timestamp[22]</text>
<polygon fill="none" stroke="black" points="33.01,-57 33.01,-79 158.01,-79 158.01,-57 33.01,-57"/>
<text text-anchor="start" x="53.01" y="-65.2" font-family="Helvetica,sans-Serif" font-size="11.00">recdatemodified</text>
<polygon fill="none" stroke="black" points="158.01,-57 158.01,-79 248.01,-79 248.01,-57 158.01,-57"/>
<text text-anchor="start" x="161.01" y="-65.2" font-family="Helvetica,sans-Serif" font-size="11.00">timestamp[22]</text>
<polygon fill="#ffffff" stroke="transparent" points="33.01,-39 33.01,-57 81.01,-57 81.01,-39 33.01,-39"/>
<polygon fill="none" stroke="black" points="33.01,-39 33.01,-57 81.01,-57 81.01,-39 33.01,-39"/>
<text text-anchor="start" x="36.01" y="-45.2" font-family="Helvetica,sans-Serif" font-size="11.00">&lt; 1</text>
<polygon fill="#ffffff" stroke="transparent" points="81.01,-39 81.01,-57 158.01,-57 158.01,-39 81.01,-39"/>
<polygon fill="none" stroke="black" points="81.01,-39 81.01,-57 158.01,-57 158.01,-39 81.01,-39"/>
<text text-anchor="start" x="110.01" y="-45.2" font-family="Helvetica,sans-Serif" font-size="11.00">206 rows</text>
<polygon fill="#ffffff" stroke="transparent" points="158.01,-39 158.01,-57 248.01,-57 248.01,-39 158.01,-39"/>
<polygon fill="none" stroke="black" points="158.01,-39 158.01,-57 248.01,-57 248.01,-39 158.01,-39"/>
<text text-anchor="start" x="229.01" y="-45.2" font-family="Helvetica,sans-Serif" font-size="11.00">2 &gt;</text>
<polygon fill="none" stroke="black" stroke-width="2" points="31.51,-38 31.51,-212 248.51,-212 248.51,-38 31.51,-38"/>
</a>
</g>
</g>
<!-- collectionunits&#45;&gt;rocktypes -->
<g id="edge1" class="edge">
<title>collectionunits:w&#45;&gt;rocktypes:e</title>
<path fill="none" stroke="black" d="M282.79,-178C271.8,-178 264.67,-178 249.01,-178"/>
<polygon fill="black" stroke="black" points="289.51,-178 297.51,-181.6 293.51,-178 297.51,-178 297.51,-178 297.51,-178 293.51,-178 297.51,-174.4 289.51,-178 289.51,-178"/>
<ellipse fill="none" stroke="black" cx="286.31" cy="-178" rx="3.2" ry="3.2"/>
</g>
<!-- rocktypes&#45;&gt;rocktypes -->
<g id="edge2" class="edge">
<title>rocktypes:w&#45;&gt;rocktypes:e</title>
<path fill="none" stroke="black" d="M21.29,-142.64C-20.5,-178.16 -8.83,-230 140.51,-230 302.51,-230 302.51,-213 248.01,-178"/>
<polygon fill="black" stroke="black" points="26.57,-138.75 35.15,-136.9 29.79,-136.37 33.01,-134 33.01,-134 33.01,-134 29.79,-136.37 30.88,-131.1 26.57,-138.75 26.57,-138.75"/>
<ellipse fill="none" stroke="black" cx="23.99" cy="-140.64" rx="3.2" ry="3.2"/>
</g>
</g>
</svg>
