<?xml version="1.0" encoding="UTF-8" standalone="no"?>
<!DOCTYPE svg PUBLIC "-//W3C//DTD SVG 1.1//EN"
 "http://www.w3.org/Graphics/SVG/1.1/DTD/svg11.dtd">
<!-- Generated by graphviz version 2.43.0 (0)
 -->
<!-- Title: twoDegreesRelationshipsDiagramImplied Pages: 1 -->
<svg width="737pt" height="600pt"
 viewBox="0.00 0.00 736.51 600.00" xmlns="http://www.w3.org/2000/svg" xmlns:xlink="http://www.w3.org/1999/xlink">
<g id="graph0" class="graph" transform="scale(1 1) rotate(0) translate(4 596)">
<title>twoDegreesRelationshipsDiagramImplied</title>
<polygon fill="#ffffff" stroke="transparent" points="-4,4 -4,-596 732.51,-596 732.51,4 -4,4"/>
<text text-anchor="middle" x="71.5" y="-7.2" font-family="Helvetica,sans-Serif" font-size="11.00">Generated by SchemaSpy</text>
<!-- analysisunits -->
<g id="node1" class="node">
<title>analysisunits</title>
<g id="a_node1"><a xlink:href="../../tables/analysisunits.html" xlink:title="analysisunits" target="_top">
<polygon fill="#ffffff" stroke="transparent" points="469.51,-530 469.51,-588 591.51,-588 591.51,-530 469.51,-530"/>
<polygon fill="#f5f5f5" stroke="transparent" points="469.51,-566 469.51,-588 591.51,-588 591.51,-566 469.51,-566"/>
<polygon fill="none" stroke="black" points="469.51,-566 469.51,-588 591.51,-588 591.51,-566 469.51,-566"/>
<text text-anchor="start" x="474.51" y="-575.2" font-family="Helvetica,sans-Serif" font-weight="bold" font-size="11.00">analysisunits</text>
<text text-anchor="start" x="556.51" y="-574.2" font-family="Helvetica,sans-Serif" font-size="11.00">[table]</text>
<polygon fill="none" stroke="black" points="469.51,-548 469.51,-566 591.51,-566 591.51,-548 469.51,-548"/>
<text text-anchor="start" x="472.51" y="-554.2" font-family="Helvetica,sans-Serif" font-size="11.00">...</text>
<polygon fill="#ffffff" stroke="transparent" points="469.51,-530 469.51,-548 491.51,-548 491.51,-530 469.51,-530"/>
<polygon fill="none" stroke="black" points="469.51,-530 469.51,-548 491.51,-548 491.51,-530 469.51,-530"/>
<text text-anchor="start" x="472.51" y="-536.2" font-family="Helvetica,sans-Serif" font-size="11.00">&lt; 2</text>
<polygon fill="#ffffff" stroke="transparent" points="491.51,-530 491.51,-548 563.51,-548 563.51,-530 491.51,-530"/>
<polygon fill="none" stroke="black" points="491.51,-530 491.51,-548 563.51,-548 563.51,-530 491.51,-530"/>
<text text-anchor="start" x="494.51" y="-536.2" font-family="Helvetica,sans-Serif" font-size="11.00">486,580 rows</text>
<polygon fill="#ffffff" stroke="transparent" points="563.51,-530 563.51,-548 591.51,-548 591.51,-530 563.51,-530"/>
<polygon fill="none" stroke="black" points="563.51,-530 563.51,-548 591.51,-548 591.51,-530 563.51,-530"/>
<text text-anchor="start" x="566.51" y="-536.2" font-family="Helvetica,sans-Serif" font-size="11.00">10 &gt;</text>
</a>
</g>
</g>
<!-- collectionunits -->
<g id="node2" class="node">
<title>collectionunits</title>
<g id="a_node2"><a xlink:href="../../tables/collectionunits.html" xlink:title="collectionunits" target="_top">
<polygon fill="#ffffff" stroke="transparent" points="298.51,-238 298.51,-406 420.51,-406 420.51,-238 298.51,-238"/>
<polygon fill="#f5f5f5" stroke="transparent" points="298.51,-384 298.51,-406 420.51,-406 420.51,-384 298.51,-384"/>
<polygon fill="none" stroke="black" points="298.51,-384 298.51,-406 420.51,-406 420.51,-384 298.51,-384"/>
<text text-anchor="start" x="303.51" y="-393.2" font-family="Helvetica,sans-Serif" font-weight="bold" font-size="11.00">collectionunits</text>
<text text-anchor="start" x="385.51" y="-392.2" font-family="Helvetica,sans-Serif" font-size="11.00">[table]</text>
<polygon fill="none" stroke="black" points="298.51,-362 298.51,-384 420.51,-384 420.51,-362 298.51,-362"/>
<image xlink:href="../../images/primaryKeys.png" width="11px" height="12px" preserveAspectRatio="xMinYMin meet" x="303.511" y="-379"/>
<text text-anchor="start" x="319.51" y="-370.2" font-family="Helvetica,sans-Serif" font-size="11.00">collectionunitid</text>
<polygon fill="#ffffff" stroke="transparent" points="298.51,-340 298.51,-362 420.51,-362 420.51,-340 298.51,-340"/>
<polygon fill="none" stroke="black" points="298.51,-340 298.51,-362 420.51,-362 420.51,-340 298.51,-340"/>
<image xlink:href="../../images/foreignKeys.png" width="11px" height="12px" preserveAspectRatio="xMinYMin meet" x="303.511" y="-357"/>
<text text-anchor="start" x="319.51" y="-348.2" font-family="Helvetica,sans-Serif" font-size="11.00">siteid</text>
<polygon fill="none" stroke="black" points="298.51,-318 298.51,-340 420.51,-340 420.51,-318 298.51,-318"/>
<image xlink:href="../../images/foreignKeys.png" width="11px" height="12px" preserveAspectRatio="xMinYMin meet" x="303.511" y="-335"/>
<text text-anchor="start" x="319.51" y="-326.2" font-family="Helvetica,sans-Serif" font-size="11.00">colltypeid</text>
<polygon fill="#ffffff" stroke="transparent" points="298.51,-296 298.51,-318 420.51,-318 420.51,-296 298.51,-296"/>
<polygon fill="none" stroke="black" points="298.51,-296 298.51,-318 420.51,-318 420.51,-296 298.51,-296"/>
<image xlink:href="../../images/foreignKeys.png" width="11px" height="12px" preserveAspectRatio="xMinYMin meet" x="303.511" y="-313"/>
<text text-anchor="start" x="319.51" y="-304.2" font-family="Helvetica,sans-Serif" font-size="11.00">depenvtid</text>
<polygon fill="none" stroke="black" points="298.51,-274 298.51,-296 420.51,-296 420.51,-274 298.51,-274"/>
<image xlink:href="../../images/foreignKeys.png" width="11px" height="12px" preserveAspectRatio="xMinYMin meet" x="303.511" y="-291"/>
<text text-anchor="start" x="319.51" y="-282.2" font-family="Helvetica,sans-Serif" font-size="11.00">substrateid</text>
<polygon fill="none" stroke="black" points="298.51,-256 298.51,-274 420.51,-274 420.51,-256 298.51,-256"/>
<text text-anchor="start" x="301.51" y="-262.2" font-family="Helvetica,sans-Serif" font-size="11.00">...</text>
<polygon fill="#ffffff" stroke="transparent" points="298.51,-238 298.51,-256 326.51,-256 326.51,-238 298.51,-238"/>
<polygon fill="none" stroke="black" points="298.51,-238 298.51,-256 326.51,-256 326.51,-238 298.51,-238"/>
<text text-anchor="start" x="301.51" y="-244.2" font-family="Helvetica,sans-Serif" font-size="11.00">&lt; 4</text>
<polygon fill="#ffffff" stroke="transparent" points="326.51,-238 326.51,-256 395.51,-256 395.51,-238 326.51,-238"/>
<polygon fill="none" stroke="black" points="326.51,-238 326.51,-256 395.51,-256 395.51,-238 326.51,-238"/>
<text text-anchor="start" x="332.51" y="-244.2" font-family="Helvetica,sans-Serif" font-size="11.00">33,980 rows</text>
<polygon fill="#ffffff" stroke="transparent" points="395.51,-238 395.51,-256 420.51,-256 420.51,-238 395.51,-238"/>
<polygon fill="none" stroke="black" points="395.51,-238 395.51,-256 420.51,-256 420.51,-238 395.51,-238"/>
<text text-anchor="start" x="401.51" y="-244.2" font-family="Helvetica,sans-Serif" font-size="11.00">6 &gt;</text>
</a>
</g>
</g>
<!-- analysisunits&#45;&gt;collectionunits -->
<g id="edge1" class="edge">
<title>analysisunits:w&#45;&gt;collectionunits:e</title>
<path fill="none" stroke="black" d="M453.96,-554.54C399.8,-532.7 500.14,-373 421.51,-373"/>
<polygon fill="black" stroke="black" points="460.62,-555.67 467.91,-560.55 464.57,-556.33 468.51,-557 468.51,-557 468.51,-557 464.57,-556.33 469.11,-553.45 460.62,-555.67 460.62,-555.67"/>
<ellipse fill="none" stroke="black" cx="457.47" cy="-555.13" rx="3.2" ry="3.2"/>
</g>
<!-- collectiontypes -->
<g id="node4" class="node">
<title>collectiontypes</title>
<g id="a_node4"><a xlink:href="../../tables/collectiontypes.html" xlink:title="collectiontypes" target="_top">
<polygon fill="#ffffff" stroke="transparent" points="78.01,-331 78.01,-389 202.01,-389 202.01,-331 78.01,-331"/>
<polygon fill="#f5f5f5" stroke="transparent" points="78.01,-367 78.01,-389 202.01,-389 202.01,-367 78.01,-367"/>
<polygon fill="none" stroke="black" points="78.01,-367 78.01,-389 202.01,-389 202.01,-367 78.01,-367"/>
<text text-anchor="start" x="83.01" y="-376.2" font-family="Helvetica,sans-Serif" font-weight="bold" font-size="11.00">collectiontypes</text>
<text text-anchor="start" x="167.01" y="-375.2" font-family="Helvetica,sans-Serif" font-size="11.00">[table]</text>
<polygon fill="none" stroke="black" points="78.01,-349 78.01,-367 202.01,-367 202.01,-349 78.01,-349"/>
<text text-anchor="start" x="81.01" y="-355.2" font-family="Helvetica,sans-Serif" font-size="11.00">...</text>
<polygon fill="#ffffff" stroke="transparent" points="78.01,-331 78.01,-349 113.01,-349 113.01,-331 78.01,-331"/>
<polygon fill="none" stroke="black" points="78.01,-331 78.01,-349 113.01,-349 113.01,-331 78.01,-331"/>
<text text-anchor="start" x="81.01" y="-337.2" font-family="Helvetica,sans-Serif" font-size="11.00"> &#160;</text>
<polygon fill="#ffffff" stroke="transparent" points="113.01,-331 113.01,-349 169.01,-349 169.01,-331 113.01,-331"/>
<polygon fill="none" stroke="black" points="113.01,-331 113.01,-349 169.01,-349 169.01,-331 113.01,-331"/>
<text text-anchor="start" x="127.01" y="-337.2" font-family="Helvetica,sans-Serif" font-size="11.00">11 rows</text>
<polygon fill="#ffffff" stroke="transparent" points="169.01,-331 169.01,-349 202.01,-349 202.01,-331 169.01,-331"/>
<polygon fill="none" stroke="black" points="169.01,-331 169.01,-349 202.01,-349 202.01,-331 169.01,-331"/>
<text text-anchor="start" x="183.01" y="-337.2" font-family="Helvetica,sans-Serif" font-size="11.00">1 &gt;</text>
</a>
</g>
</g>
<!-- collectionunits&#45;&gt;collectiontypes -->
<g id="edge3" class="edge">
<title>collectionunits:w&#45;&gt;collectiontypes:e</title>
<path fill="none" stroke="black" d="M283.06,-330.17C251.42,-335.6 241.62,-358 203.01,-358"/>
<polygon fill="black" stroke="black" points="289.54,-329.65 297.8,-332.59 293.52,-329.32 297.51,-329 297.51,-329 297.51,-329 293.52,-329.32 297.22,-325.41 289.54,-329.65 289.54,-329.65"/>
<ellipse fill="none" stroke="black" cx="286.35" cy="-329.91" rx="3.2" ry="3.2"/>
</g>
<!-- depenvttypes -->
<g id="node5" class="node">
<title>depenvttypes</title>
<g id="a_node5"><a xlink:href="../../tables/depenvttypes.html" xlink:title="depenvttypes" target="_top">
<polygon fill="#ffffff" stroke="transparent" points="82.51,-252 82.51,-310 197.51,-310 197.51,-252 82.51,-252"/>
<polygon fill="#f5f5f5" stroke="transparent" points="83.01,-288 83.01,-310 198.01,-310 198.01,-288 83.01,-288"/>
<polygon fill="none" stroke="black" points="83.01,-288 83.01,-310 198.01,-310 198.01,-288 83.01,-288"/>
<text text-anchor="start" x="88.01" y="-297.2" font-family="Helvetica,sans-Serif" font-weight="bold" font-size="11.00">depenvttypes</text>
<text text-anchor="start" x="163.01" y="-296.2" font-family="Helvetica,sans-Serif" font-size="11.00">[table]</text>
<polygon fill="none" stroke="black" points="83.01,-270 83.01,-288 198.01,-288 198.01,-270 83.01,-270"/>
<text text-anchor="start" x="86.01" y="-276.2" font-family="Helvetica,sans-Serif" font-size="11.00">...</text>
<polygon fill="#ffffff" stroke="transparent" points="83.01,-252 83.01,-270 115.01,-270 115.01,-252 83.01,-252"/>
<polygon fill="none" stroke="black" points="83.01,-252 83.01,-270 115.01,-270 115.01,-252 83.01,-252"/>
<text text-anchor="start" x="86.01" y="-258.2" font-family="Helvetica,sans-Serif" font-size="11.00">&lt; 1</text>
<polygon fill="#ffffff" stroke="transparent" points="115.01,-252 115.01,-270 171.01,-270 171.01,-252 115.01,-252"/>
<polygon fill="none" stroke="black" points="115.01,-252 115.01,-270 171.01,-270 171.01,-252 115.01,-252"/>
<text text-anchor="start" x="123.01" y="-258.2" font-family="Helvetica,sans-Serif" font-size="11.00">222 rows</text>
<polygon fill="#ffffff" stroke="transparent" points="171.01,-252 171.01,-270 198.01,-270 198.01,-252 171.01,-252"/>
<polygon fill="none" stroke="black" points="171.01,-252 171.01,-270 198.01,-270 198.01,-252 171.01,-252"/>
<text text-anchor="start" x="179.01" y="-258.2" font-family="Helvetica,sans-Serif" font-size="11.00">2 &gt;</text>
</a>
</g>
</g>
<!-- collectionunits&#45;&gt;depenvttypes -->
<g id="edge4" class="edge">
<title>collectionunits:w&#45;&gt;depenvttypes:e</title>
<path fill="none" stroke="black" d="M282.95,-305.94C249.72,-300.82 239.19,-279 199.01,-279"/>
<polygon fill="black" stroke="black" points="289.53,-306.42 297.25,-310.59 293.52,-306.71 297.51,-307 297.51,-307 297.51,-307 293.52,-306.71 297.77,-303.41 289.53,-306.42 289.53,-306.42"/>
<ellipse fill="none" stroke="black" cx="286.34" cy="-306.18" rx="3.2" ry="3.2"/>
</g>
<!-- sites -->
<g id="node6" class="node">
<title>sites</title>
<g id="a_node6"><a xlink:href="../../tables/sites.html" xlink:title="sites" target="_top">
<polygon fill="#ffffff" stroke="transparent" points="89.51,-410 89.51,-468 190.51,-468 190.51,-410 89.51,-410"/>
<polygon fill="#f5f5f5" stroke="transparent" points="90.01,-446 90.01,-468 191.01,-468 191.01,-446 90.01,-446"/>
<polygon fill="none" stroke="black" points="90.01,-446 90.01,-468 191.01,-468 191.01,-446 90.01,-446"/>
<text text-anchor="start" x="95.01" y="-455.2" font-family="Helvetica,sans-Serif" font-weight="bold" font-size="11.00">sites</text>
<text text-anchor="start" x="156.01" y="-454.2" font-family="Helvetica,sans-Serif" font-size="11.00">[table]</text>
<polygon fill="none" stroke="black" points="90.01,-428 90.01,-446 191.01,-446 191.01,-428 90.01,-428"/>
<text text-anchor="start" x="93.01" y="-434.2" font-family="Helvetica,sans-Serif" font-size="11.00">...</text>
<polygon fill="#ffffff" stroke="transparent" points="90.01,-410 90.01,-428 103.01,-428 103.01,-410 90.01,-410"/>
<polygon fill="none" stroke="black" points="90.01,-410 90.01,-428 103.01,-428 103.01,-410 90.01,-410"/>
<text text-anchor="start" x="93.01" y="-416.2" font-family="Helvetica,sans-Serif" font-size="11.00"> &#160;</text>
<polygon fill="#ffffff" stroke="transparent" points="103.01,-410 103.01,-428 169.01,-428 169.01,-410 103.01,-410"/>
<polygon fill="none" stroke="black" points="103.01,-410 103.01,-428 169.01,-428 169.01,-410 103.01,-410"/>
<text text-anchor="start" x="106.01" y="-416.2" font-family="Helvetica,sans-Serif" font-size="11.00">22,697 rows</text>
<polygon fill="#ffffff" stroke="transparent" points="169.01,-410 169.01,-428 191.01,-428 191.01,-410 169.01,-410"/>
<polygon fill="none" stroke="black" points="169.01,-410 169.01,-428 191.01,-428 191.01,-410 169.01,-410"/>
<text text-anchor="start" x="172.01" y="-416.2" font-family="Helvetica,sans-Serif" font-size="11.00">4 &gt;</text>
</a>
</g>
</g>
<!-- collectionunits&#45;&gt;sites -->
<g id="edge5" class="edge">
<title>collectionunits:w&#45;&gt;sites:e</title>
<path fill="none" stroke="black" d="M283.41,-355.25C272.16,-364.34 274.14,-385.99 257.51,-400 231.94,-421.54 225.45,-437 192.01,-437"/>
<polygon fill="black" stroke="black" points="289.85,-353.31 298.55,-354.45 293.68,-352.15 297.51,-351 297.51,-351 297.51,-351 293.68,-352.15 296.47,-347.55 289.85,-353.31 289.85,-353.31"/>
<ellipse fill="none" stroke="black" cx="286.79" cy="-354.23" rx="3.2" ry="3.2"/>
</g>
<!-- rocktypes -->
<g id="node7" class="node">
<title>rocktypes</title>
<g id="a_node7"><a xlink:href="../../tables/rocktypes.html" xlink:title="rocktypes" target="_top">
<polygon fill="#ffffff" stroke="transparent" points="30.51,-37 30.51,-213 249.51,-213 249.51,-37 30.51,-37"/>
<polygon fill="#f5f5f5" stroke="transparent" points="33.01,-189 33.01,-211 248.01,-211 248.01,-189 33.01,-189"/>
<polygon fill="none" stroke="black" points="33.01,-189 33.01,-211 248.01,-211 248.01,-189 33.01,-189"/>
<text text-anchor="start" x="38.01" y="-198.2" font-family="Helvetica,sans-Serif" font-weight="bold" font-size="11.00">rocktypes</text>
<text text-anchor="start" x="213.01" y="-197.2" font-family="Helvetica,sans-Serif" font-size="11.00">[table]</text>
<polygon fill="none" stroke="black" points="33.01,-167 33.01,-189 158.01,-189 158.01,-167 33.01,-167"/>
<image xlink:href="../../images/primaryKeys.png" width="11px" height="12px" preserveAspectRatio="xMinYMin meet" x="38.0106" y="-184"/>
<text text-anchor="start" x="53.01" y="-175.2" font-family="Helvetica,sans-Serif" font-size="11.00">rocktypeid</text>
<polygon fill="none" stroke="black" points="158.01,-167 158.01,-189 248.01,-189 248.01,-167 158.01,-167"/>
<text text-anchor="start" x="161.01" y="-175.2" font-family="Helvetica,sans-Serif" font-size="11.00">serial[10]</text>
<polygon fill="none" stroke="black" points="33.01,-145 33.01,-167 158.01,-167 158.01,-145 33.01,-145"/>
<text text-anchor="start" x="53.01" y="-153.2" font-family="Helvetica,sans-Serif" font-size="11.00">rocktype</text>
<polygon fill="none" stroke="black" points="158.01,-145 158.01,-167 248.01,-167 248.01,-145 158.01,-145"/>
<text text-anchor="start" x="161.01" y="-153.2" font-family="Helvetica,sans-Serif" font-size="11.00">varchar[64]</text>
<polygon fill="none" stroke="black" points="33.01,-123 33.01,-145 158.01,-145 158.01,-123 33.01,-123"/>
<image xlink:href="../../images/foreignKeys.png" width="11px" height="12px" preserveAspectRatio="xMinYMin meet" x="38.0106" y="-140"/>
<text text-anchor="start" x="53.01" y="-131.2" font-family="Helvetica,sans-Serif" font-size="11.00">higherrocktypeid</text>
<polygon fill="none" stroke="black" points="158.01,-123 158.01,-145 248.01,-145 248.01,-123 158.01,-123"/>
<text text-anchor="start" x="161.01" y="-131.2" font-family="Helvetica,sans-Serif" font-size="11.00">int4[10]</text>
<polygon fill="none" stroke="black" points="33.01,-101 33.01,-123 158.01,-123 158.01,-101 33.01,-101"/>
<text text-anchor="start" x="53.01" y="-109.2" font-family="Helvetica,sans-Serif" font-size="11.00">description</text>
<polygon fill="none" stroke="black" points="158.01,-101 158.01,-123 248.01,-123 248.01,-101 158.01,-101"/>
<text text-anchor="start" x="161.01" y="-109.2" font-family="Helvetica,sans-Serif" font-size="11.00">text[2147483647]</text>
<polygon fill="none" stroke="black" points="33.01,-79 33.01,-101 158.01,-101 158.01,-79 33.01,-79"/>
<text text-anchor="start" x="53.01" y="-87.2" font-family="Helvetica,sans-Serif" font-size="11.00">recdatecreated</text>
<polygon fill="none" stroke="black" points="158.01,-79 158.01,-101 248.01,-101 248.01,-79 158.01,-79"/>
<text text-anchor="start" x="161.01" y="-87.2" font-family="Helvetica,sans-Serif" font-size="11.00">timestamp[22]</text>
<polygon fill="none" stroke="black" points="33.01,-57 33.01,-79 158.01,-79 158.01,-57 33.01,-57"/>
<text text-anchor="start" x="53.01" y="-65.2" font-family="Helvetica,sans-Serif" font-size="11.00">recdatemodified</text>
<polygon fill="none" stroke="black" points="158.01,-57 158.01,-79 248.01,-79 248.01,-57 158.01,-57"/>
<text text-anchor="start" x="161.01" y="-65.2" font-family="Helvetica,sans-Serif" font-size="11.00">timestamp[22]</text>
<polygon fill="#ffffff" stroke="transparent" points="33.01,-39 33.01,-57 81.01,-57 81.01,-39 33.01,-39"/>
<polygon fill="none" stroke="black" points="33.01,-39 33.01,-57 81.01,-57 81.01,-39 33.01,-39"/>
<text text-anchor="start" x="36.01" y="-45.2" font-family="Helvetica,sans-Serif" font-size="11.00">&lt; 1</text>
<polygon fill="#ffffff" stroke="transparent" points="81.01,-39 81.01,-57 158.01,-57 158.01,-39 81.01,-39"/>
<polygon fill="none" stroke="black" points="81.01,-39 81.01,-57 158.01,-57 158.01,-39 81.01,-39"/>
<text text-anchor="start" x="110.01" y="-45.2" font-family="Helvetica,sans-Serif" font-size="11.00">206 rows</text>
<polygon fill="#ffffff" stroke="transparent" points="158.01,-39 158.01,-57 248.01,-57 248.01,-39 158.01,-39"/>
<polygon fill="none" stroke="black" points="158.01,-39 158.01,-57 248.01,-57 248.01,-39 158.01,-39"/>
<text text-anchor="start" x="229.01" y="-45.2" font-family="Helvetica,sans-Serif" font-size="11.00">2 &gt;</text>
<polygon fill="none" stroke="black" stroke-width="2" points="31.51,-38 31.51,-212 248.51,-212 248.51,-38 31.51,-38"/>
</a>
</g>
</g>
<!-- collectionunits&#45;&gt;rocktypes -->
<g id="edge6" class="edge">
<title>collectionunits:w&#45;&gt;rocktypes:e</title>
<path fill="none" stroke="black" d="M283.62,-281.19C256.58,-262.13 295.31,-178 249.01,-178"/>
<polygon fill="black" stroke="black" points="289.8,-282.89 296.56,-288.47 293.65,-283.94 297.51,-285 297.51,-285 297.51,-285 293.65,-283.94 298.46,-281.53 289.8,-282.89 289.8,-282.89"/>
<ellipse fill="none" stroke="black" cx="286.71" cy="-282.04" rx="3.2" ry="3.2"/>
</g>
<!-- chronologies -->
<g id="node3" class="node">
<title>chronologies</title>
<g id="a_node3"><a xlink:href="../../tables/chronologies.html" xlink:title="chronologies" target="_top">
<polygon fill="#ffffff" stroke="transparent" points="473.51,-451 473.51,-509 587.51,-509 587.51,-451 473.51,-451"/>
<polygon fill="#f5f5f5" stroke="transparent" points="473.51,-487 473.51,-509 587.51,-509 587.51,-487 473.51,-487"/>
<polygon fill="none" stroke="black" points="473.51,-487 473.51,-509 587.51,-509 587.51,-487 473.51,-487"/>
<text text-anchor="start" x="478.51" y="-496.2" font-family="Helvetica,sans-Serif" font-weight="bold" font-size="11.00">chronologies</text>
<text text-anchor="start" x="552.51" y="-495.2" font-family="Helvetica,sans-Serif" font-size="11.00">[table]</text>
<polygon fill="none" stroke="black" points="473.51,-469 473.51,-487 587.51,-487 587.51,-469 473.51,-469"/>
<text text-anchor="start" x="476.51" y="-475.2" font-family="Helvetica,sans-Serif" font-size="11.00">...</text>
<polygon fill="#ffffff" stroke="transparent" points="473.51,-451 473.51,-469 497.51,-469 497.51,-451 473.51,-451"/>
<polygon fill="none" stroke="black" points="473.51,-451 473.51,-469 497.51,-469 497.51,-451 473.51,-451"/>
<text text-anchor="start" x="476.51" y="-457.2" font-family="Helvetica,sans-Serif" font-size="11.00">&lt; 3</text>
<polygon fill="#ffffff" stroke="transparent" points="497.51,-451 497.51,-469 564.51,-469 564.51,-451 497.51,-451"/>
<polygon fill="none" stroke="black" points="497.51,-451 497.51,-469 564.51,-469 564.51,-451 497.51,-451"/>
<text text-anchor="start" x="501.51" y="-457.2" font-family="Helvetica,sans-Serif" font-size="11.00">32,182 rows</text>
<polygon fill="#ffffff" stroke="transparent" points="564.51,-451 564.51,-469 587.51,-469 587.51,-451 564.51,-451"/>
<polygon fill="none" stroke="black" points="564.51,-451 564.51,-469 587.51,-469 587.51,-451 564.51,-451"/>
<text text-anchor="start" x="568.51" y="-457.2" font-family="Helvetica,sans-Serif" font-size="11.00">3 &gt;</text>
</a>
</g>
</g>
<!-- chronologies&#45;&gt;collectionunits -->
<g id="edge2" class="edge">
<title>chronologies:w&#45;&gt;collectionunits:e</title>
<path fill="none" stroke="black" d="M458.6,-474.26C431.24,-455.56 467.51,-373 421.51,-373"/>
<polygon fill="black" stroke="black" points="464.78,-475.92 471.58,-481.48 468.65,-476.96 472.51,-478 472.51,-478 472.51,-478 468.65,-476.96 473.44,-474.52 464.78,-475.92 464.78,-475.92"/>
<ellipse fill="none" stroke="black" cx="461.69" cy="-475.09" rx="3.2" ry="3.2"/>
</g>
<!-- rocktypes&#45;&gt;rocktypes -->
<g id="edge12" class="edge">
<title>rocktypes:w&#45;&gt;rocktypes:e</title>
<path fill="none" stroke="black" d="M21.29,-142.64C-20.5,-178.16 -8.83,-230 140.51,-230 302.51,-230 302.51,-213 248.01,-178"/>
<polygon fill="black" stroke="black" points="26.57,-138.75 35.15,-136.9 29.79,-136.37 33.01,-134 33.01,-134 33.01,-134 29.79,-136.37 30.88,-131.1 26.57,-138.75 26.57,-138.75"/>
<ellipse fill="none" stroke="black" cx="23.99" cy="-140.64" rx="3.2" ry="3.2"/>
</g>
<!-- collectors -->
<g id="node8" class="node">
<title>collectors</title>
<g id="a_node8"><a xlink:href="../../tables/collectors.html" xlink:title="collectors" target="_top">
<polygon fill="#ffffff" stroke="transparent" points="480.01,-372 480.01,-430 581.01,-430 581.01,-372 480.01,-372"/>
<polygon fill="#f5f5f5" stroke="transparent" points="480.51,-408 480.51,-430 581.51,-430 581.51,-408 480.51,-408"/>
<polygon fill="none" stroke="black" points="480.51,-408 480.51,-430 581.51,-430 581.51,-408 480.51,-408"/>
<text text-anchor="start" x="485.51" y="-417.2" font-family="Helvetica,sans-Serif" font-weight="bold" font-size="11.00">collectors</text>
<text text-anchor="start" x="546.51" y="-416.2" font-family="Helvetica,sans-Serif" font-size="11.00">[table]</text>
<polygon fill="none" stroke="black" points="480.51,-390 480.51,-408 581.51,-408 581.51,-390 480.51,-390"/>
<text text-anchor="start" x="483.51" y="-396.2" font-family="Helvetica,sans-Serif" font-size="11.00">...</text>
<polygon fill="#ffffff" stroke="transparent" points="480.51,-372 480.51,-390 502.51,-390 502.51,-372 480.51,-372"/>
<polygon fill="none" stroke="black" points="480.51,-372 480.51,-390 502.51,-390 502.51,-372 480.51,-372"/>
<text text-anchor="start" x="483.51" y="-378.2" font-family="Helvetica,sans-Serif" font-size="11.00">&lt; 2</text>
<polygon fill="#ffffff" stroke="transparent" points="502.51,-372 502.51,-390 568.51,-390 568.51,-372 502.51,-372"/>
<polygon fill="none" stroke="black" points="502.51,-372 502.51,-390 568.51,-390 568.51,-372 502.51,-372"/>
<text text-anchor="start" x="505.51" y="-378.2" font-family="Helvetica,sans-Serif" font-size="11.00">47,972 rows</text>
<polygon fill="#ffffff" stroke="transparent" points="568.51,-372 568.51,-390 581.51,-390 581.51,-372 568.51,-372"/>
<polygon fill="none" stroke="black" points="568.51,-372 568.51,-390 581.51,-390 581.51,-372 568.51,-372"/>
<text text-anchor="start" x="571.51" y="-378.2" font-family="Helvetica,sans-Serif" font-size="11.00"> &#160;</text>
</a>
</g>
</g>
<!-- collectors&#45;&gt;collectionunits -->
<g id="edge7" class="edge">
<title>collectors:w&#45;&gt;collectionunits:e</title>
<path fill="none" stroke="black" d="M465.16,-396.22C449.55,-389.51 444.02,-373 421.51,-373"/>
<polygon fill="black" stroke="black" points="471.66,-397.48 478.83,-402.53 475.58,-398.24 479.51,-399 479.51,-399 479.51,-399 475.58,-398.24 480.2,-395.47 471.66,-397.48 471.66,-397.48"/>
<ellipse fill="none" stroke="black" cx="468.52" cy="-396.87" rx="3.2" ry="3.2"/>
</g>
<!-- datasets -->
<g id="node9" class="node">
<title>datasets</title>
<g id="a_node9"><a xlink:href="../../tables/datasets.html" xlink:title="datasets" target="_top">
<polygon fill="#ffffff" stroke="transparent" points="472.51,-266 472.51,-324 588.51,-324 588.51,-266 472.51,-266"/>
<polygon fill="#f5f5f5" stroke="transparent" points="472.51,-302 472.51,-324 588.51,-324 588.51,-302 472.51,-302"/>
<polygon fill="none" stroke="black" points="472.51,-302 472.51,-324 588.51,-324 588.51,-302 472.51,-302"/>
<text text-anchor="start" x="477.51" y="-311.2" font-family="Helvetica,sans-Serif" font-weight="bold" font-size="11.00">datasets</text>
<text text-anchor="start" x="553.51" y="-310.2" font-family="Helvetica,sans-Serif" font-size="11.00">[table]</text>
<polygon fill="none" stroke="black" points="472.51,-284 472.51,-302 588.51,-302 588.51,-284 472.51,-284"/>
<text text-anchor="start" x="475.51" y="-290.2" font-family="Helvetica,sans-Serif" font-size="11.00">...</text>
<polygon fill="#ffffff" stroke="transparent" points="472.51,-266 472.51,-284 494.51,-284 494.51,-266 472.51,-266"/>
<polygon fill="none" stroke="black" points="472.51,-266 472.51,-284 494.51,-284 494.51,-266 472.51,-266"/>
<text text-anchor="start" x="475.51" y="-272.2" font-family="Helvetica,sans-Serif" font-size="11.00">&lt; 3</text>
<polygon fill="#ffffff" stroke="transparent" points="494.51,-266 494.51,-284 560.51,-284 560.51,-266 494.51,-266"/>
<polygon fill="none" stroke="black" points="494.51,-266 494.51,-284 560.51,-284 560.51,-266 494.51,-266"/>
<text text-anchor="start" x="497.51" y="-272.2" font-family="Helvetica,sans-Serif" font-size="11.00">49,780 rows</text>
<polygon fill="#ffffff" stroke="transparent" points="560.51,-266 560.51,-284 588.51,-284 588.51,-266 560.51,-266"/>
<polygon fill="none" stroke="black" points="560.51,-266 560.51,-284 588.51,-284 588.51,-266 560.51,-266"/>
<text text-anchor="start" x="563.51" y="-272.2" font-family="Helvetica,sans-Serif" font-size="11.00">17 &gt;</text>
</a>
</g>
</g>
<!-- datasets&#45;&gt;collectionunits -->
<g id="edge8" class="edge">
<title>datasets:w&#45;&gt;collectionunits:e</title>
<path fill="none" stroke="black" d="M457.62,-297.53C437.79,-314.45 457.38,-373 421.51,-373"/>
<polygon fill="black" stroke="black" points="463.9,-295.48 472.63,-296.42 467.71,-294.24 471.51,-293 471.51,-293 471.51,-293 467.71,-294.24 470.39,-289.58 463.9,-295.48 463.9,-295.48"/>
<ellipse fill="none" stroke="black" cx="460.86" cy="-296.47" rx="3.2" ry="3.2"/>
</g>
<!-- dslinks -->
<g id="node10" class="node">
<title>dslinks</title>
<g id="a_node10"><a xlink:href="../../tables/dslinks.html" xlink:title="dslinks" target="_top">
<polygon fill="#ffffff" stroke="transparent" points="640.51,-311 640.51,-351 720.51,-351 720.51,-311 640.51,-311"/>
<polygon fill="#f5f5f5" stroke="transparent" points="640.51,-329 640.51,-351 720.51,-351 720.51,-329 640.51,-329"/>
<polygon fill="none" stroke="black" points="640.51,-329 640.51,-351 720.51,-351 720.51,-329 640.51,-329"/>
<text text-anchor="start" x="645.51" y="-338.2" font-family="Helvetica,sans-Serif" font-weight="bold" font-size="11.00">dslinks</text>
<text text-anchor="start" x="687.51" y="-337.2" font-family="Helvetica,sans-Serif" font-size="11.00">[view]</text>
<polygon fill="none" stroke="black" points="640.51,-311 640.51,-329 720.51,-329 720.51,-311 640.51,-311"/>
<text text-anchor="start" x="643.51" y="-317.2" font-family="Helvetica,sans-Serif" font-size="11.00">...</text>
</a>
</g>
</g>
<!-- dslinks&#45;&gt;collectionunits -->
<g id="edge9" class="edge">
<title>dslinks:w&#45;&gt;collectionunits:e</title>
<path fill="none" stroke="black" stroke-dasharray="5,2" d="M625.22,-322.55C617.17,-325.82 611.93,-331.48 599.51,-335 539.38,-352.03 522.35,-347.7 461.51,-362 443.56,-366.22 439.95,-373 421.51,-373"/>
<polygon fill="black" stroke="black" points="631.63,-321.4 640.14,-323.54 635.57,-320.7 639.51,-320 639.51,-320 639.51,-320 635.57,-320.7 638.88,-316.46 631.63,-321.4 631.63,-321.4"/>
<ellipse fill="none" stroke="black" cx="628.48" cy="-321.97" rx="3.2" ry="3.2"/>
</g>
<!-- dslinks&#45;&gt;datasets -->
<g id="edge10" class="edge">
<title>dslinks:w&#45;&gt;datasets:e</title>
<path fill="none" stroke="black" stroke-dasharray="5,2" d="M625.34,-316.25C613.08,-308.83 608.85,-293 589.51,-293"/>
<polygon fill="black" stroke="black" points="631.78,-317.95 638.59,-323.48 635.64,-318.98 639.51,-320 639.51,-320 639.51,-320 635.64,-318.98 640.43,-316.52 631.78,-317.95 631.78,-317.95"/>
<ellipse fill="none" stroke="black" cx="628.68" cy="-317.13" rx="3.2" ry="3.2"/>
</g>
<!-- lithology -->
<g id="node11" class="node">
<title>lithology</title>
<g id="a_node11"><a xlink:href="../../tables/lithology.html" xlink:title="lithology" target="_top">
<polygon fill="#ffffff" stroke="transparent" points="480.01,-187 480.01,-245 581.01,-245 581.01,-187 480.01,-187"/>
<polygon fill="#f5f5f5" stroke="transparent" points="480.51,-223 480.51,-245 581.51,-245 581.51,-223 480.51,-223"/>
<polygon fill="none" stroke="black" points="480.51,-223 480.51,-245 581.51,-245 581.51,-223 480.51,-223"/>
<text text-anchor="start" x="485.51" y="-232.2" font-family="Helvetica,sans-Serif" font-weight="bold" font-size="11.00">lithology</text>
<text text-anchor="start" x="546.51" y="-231.2" font-family="Helvetica,sans-Serif" font-size="11.00">[table]</text>
<polygon fill="none" stroke="black" points="480.51,-205 480.51,-223 581.51,-223 581.51,-205 480.51,-205"/>
<text text-anchor="start" x="483.51" y="-211.2" font-family="Helvetica,sans-Serif" font-size="11.00">...</text>
<polygon fill="#ffffff" stroke="transparent" points="480.51,-187 480.51,-205 502.51,-205 502.51,-187 480.51,-187"/>
<polygon fill="none" stroke="black" points="480.51,-187 480.51,-205 502.51,-205 502.51,-187 480.51,-187"/>
<text text-anchor="start" x="483.51" y="-193.2" font-family="Helvetica,sans-Serif" font-size="11.00">&lt; 1</text>
<polygon fill="#ffffff" stroke="transparent" points="502.51,-187 502.51,-205 568.51,-205 568.51,-187 502.51,-187"/>
<polygon fill="none" stroke="black" points="502.51,-187 502.51,-205 568.51,-205 568.51,-187 502.51,-187"/>
<text text-anchor="start" x="505.51" y="-193.2" font-family="Helvetica,sans-Serif" font-size="11.00">32,805 rows</text>
<polygon fill="#ffffff" stroke="transparent" points="568.51,-187 568.51,-205 581.51,-205 581.51,-187 568.51,-187"/>
<polygon fill="none" stroke="black" points="568.51,-187 568.51,-205 581.51,-205 581.51,-187 568.51,-187"/>
<text text-anchor="start" x="571.51" y="-193.2" font-family="Helvetica,sans-Serif" font-size="11.00"> &#160;</text>
</a>
</g>
</g>
<!-- lithology&#45;&gt;collectionunits -->
<g id="edge11" class="edge">
<title>lithology:w&#45;&gt;collectionunits:e</title>
<path fill="none" stroke="black" d="M465.09,-216.63C417.4,-237.3 491,-373 421.51,-373"/>
<polygon fill="black" stroke="black" points="471.64,-215.43 480.16,-217.54 475.58,-214.72 479.51,-214 479.51,-214 479.51,-214 475.58,-214.72 478.87,-210.46 471.64,-215.43 471.64,-215.43"/>
<ellipse fill="none" stroke="black" cx="468.49" cy="-216.01" rx="3.2" ry="3.2"/>
</g>
</g>
</svg>
