<?xml version="1.0" encoding="UTF-8" standalone="no"?>
<!DOCTYPE svg PUBLIC "-//W3C//DTD SVG 1.1//EN"
 "http://www.w3.org/Graphics/SVG/1.1/DTD/svg11.dtd">
<!-- Generated by graphviz version 2.43.0 (0)
 -->
<!-- Title: twoDegreesRelationshipsDiagram Pages: 1 -->
<svg width="755pt" height="674pt"
 viewBox="0.00 0.00 755.00 674.27" xmlns="http://www.w3.org/2000/svg" xmlns:xlink="http://www.w3.org/1999/xlink">
<g id="graph0" class="graph" transform="scale(1 1) rotate(0) translate(4 670.27)">
<title>twoDegreesRelationshipsDiagram</title>
<polygon fill="#ffffff" stroke="transparent" points="-4,4 -4,-670.27 751,-670.27 751,4 -4,4"/>
<text text-anchor="middle" x="71.5" y="-7.2" font-family="Helvetica,sans-Serif" font-size="11.00">Generated by SchemaSpy</text>
<!-- aggregatesamples -->
<g id="node1" class="node">
<title>aggregatesamples</title>
<g id="a_node1"><a xlink:href="../../tables/aggregatesamples.html" xlink:title="aggregatesamples" target="_top">
<polygon fill="#ffffff" stroke="transparent" points="396.5,-604.27 396.5,-662.27 537.5,-662.27 537.5,-604.27 396.5,-604.27"/>
<polygon fill="#f5f5f5" stroke="transparent" points="397,-640.27 397,-662.27 538,-662.27 538,-640.27 397,-640.27"/>
<polygon fill="none" stroke="black" points="397,-640.27 397,-662.27 538,-662.27 538,-640.27 397,-640.27"/>
<text text-anchor="start" x="402" y="-649.47" font-family="Helvetica,sans-Serif" font-weight="bold" font-size="11.00">aggregatesamples</text>
<text text-anchor="start" x="503" y="-648.47" font-family="Helvetica,sans-Serif" font-size="11.00">[table]</text>
<polygon fill="none" stroke="black" points="397,-622.27 397,-640.27 538,-640.27 538,-622.27 397,-622.27"/>
<text text-anchor="start" x="400" y="-628.47" font-family="Helvetica,sans-Serif" font-size="11.00">...</text>
<polygon fill="#ffffff" stroke="transparent" points="397,-604.27 397,-622.27 446,-622.27 446,-604.27 397,-604.27"/>
<polygon fill="none" stroke="black" points="397,-604.27 397,-622.27 446,-622.27 446,-604.27 397,-604.27"/>
<text text-anchor="start" x="400" y="-610.47" font-family="Helvetica,sans-Serif" font-size="11.00">&lt; 2</text>
<polygon fill="#ffffff" stroke="transparent" points="446,-604.27 446,-622.27 511,-622.27 511,-604.27 446,-604.27"/>
<polygon fill="none" stroke="black" points="446,-604.27 446,-622.27 511,-622.27 511,-604.27 446,-604.27"/>
<text text-anchor="start" x="463" y="-610.47" font-family="Helvetica,sans-Serif" font-size="11.00">553 rows</text>
<polygon fill="#ffffff" stroke="transparent" points="511,-604.27 511,-622.27 538,-622.27 538,-604.27 511,-604.27"/>
<polygon fill="none" stroke="black" points="511,-604.27 511,-622.27 538,-622.27 538,-604.27 511,-604.27"/>
<text text-anchor="start" x="528" y="-610.47" font-family="Helvetica,sans-Serif" font-size="11.00"> &#160;</text>
</a>
</g>
</g>
<!-- samples -->
<g id="node2" class="node">
<title>samples</title>
<g id="a_node2"><a xlink:href="../../tables/samples.html" xlink:title="samples" target="_top">
<polygon fill="#ffffff" stroke="transparent" points="179,-259.27 179,-405.27 318,-405.27 318,-259.27 179,-259.27"/>
<polygon fill="#f5f5f5" stroke="transparent" points="179.5,-383.27 179.5,-405.27 318.5,-405.27 318.5,-383.27 179.5,-383.27"/>
<polygon fill="none" stroke="black" points="179.5,-383.27 179.5,-405.27 318.5,-405.27 318.5,-383.27 179.5,-383.27"/>
<text text-anchor="start" x="184.5" y="-392.47" font-family="Helvetica,sans-Serif" font-weight="bold" font-size="11.00">samples</text>
<text text-anchor="start" x="283.5" y="-391.47" font-family="Helvetica,sans-Serif" font-size="11.00">[table]</text>
<polygon fill="none" stroke="black" points="179.5,-361.27 179.5,-383.27 318.5,-383.27 318.5,-361.27 179.5,-361.27"/>
<image xlink:href="../../images/primaryKeys.png" width="11px" height="12px" preserveAspectRatio="xMinYMin meet" x="184.5" y="-378.265"/>
<text text-anchor="start" x="199.5" y="-369.47" font-family="Helvetica,sans-Serif" font-size="11.00">sampleid</text>
<polygon fill="#ffffff" stroke="transparent" points="179.5,-339.27 179.5,-361.27 318.5,-361.27 318.5,-339.27 179.5,-339.27"/>
<polygon fill="none" stroke="black" points="179.5,-339.27 179.5,-361.27 318.5,-361.27 318.5,-339.27 179.5,-339.27"/>
<image xlink:href="../../images/foreignKeys.png" width="11px" height="12px" preserveAspectRatio="xMinYMin meet" x="184.5" y="-356.265"/>
<text text-anchor="start" x="199.5" y="-347.47" font-family="Helvetica,sans-Serif" font-size="11.00">analysisunitid</text>
<polygon fill="#ffffff" stroke="transparent" points="179.5,-317.27 179.5,-339.27 318.5,-339.27 318.5,-317.27 179.5,-317.27"/>
<polygon fill="none" stroke="black" points="179.5,-317.27 179.5,-339.27 318.5,-339.27 318.5,-317.27 179.5,-317.27"/>
<image xlink:href="../../images/foreignKeys.png" width="11px" height="12px" preserveAspectRatio="xMinYMin meet" x="184.5" y="-334.265"/>
<text text-anchor="start" x="199.5" y="-325.47" font-family="Helvetica,sans-Serif" font-size="11.00">datasetid</text>
<polygon fill="#ffffff" stroke="transparent" points="179.5,-295.27 179.5,-317.27 318.5,-317.27 318.5,-295.27 179.5,-295.27"/>
<polygon fill="none" stroke="black" points="179.5,-295.27 179.5,-317.27 318.5,-317.27 318.5,-295.27 179.5,-295.27"/>
<image xlink:href="../../images/foreignKeys.png" width="11px" height="12px" preserveAspectRatio="xMinYMin meet" x="184.5" y="-312.265"/>
<text text-anchor="start" x="199.5" y="-303.47" font-family="Helvetica,sans-Serif" font-size="11.00">taxonid</text>
<polygon fill="none" stroke="black" points="179.5,-277.27 179.5,-295.27 318.5,-295.27 318.5,-277.27 179.5,-277.27"/>
<text text-anchor="start" x="182.5" y="-283.47" font-family="Helvetica,sans-Serif" font-size="11.00">...</text>
<polygon fill="#ffffff" stroke="transparent" points="179.5,-259.27 179.5,-277.27 212.5,-277.27 212.5,-259.27 179.5,-259.27"/>
<polygon fill="none" stroke="black" points="179.5,-259.27 179.5,-277.27 212.5,-277.27 212.5,-259.27 179.5,-259.27"/>
<text text-anchor="start" x="182.5" y="-265.47" font-family="Helvetica,sans-Serif" font-size="11.00">&lt; 3</text>
<polygon fill="#ffffff" stroke="transparent" points="212.5,-259.27 212.5,-277.27 290.5,-277.27 290.5,-259.27 212.5,-259.27"/>
<polygon fill="none" stroke="black" points="212.5,-259.27 212.5,-277.27 290.5,-277.27 290.5,-259.27 212.5,-259.27"/>
<text text-anchor="start" x="221.5" y="-265.47" font-family="Helvetica,sans-Serif" font-size="11.00">541,654 rows</text>
<polygon fill="#ffffff" stroke="transparent" points="290.5,-259.27 290.5,-277.27 318.5,-277.27 318.5,-259.27 290.5,-259.27"/>
<polygon fill="none" stroke="black" points="290.5,-259.27 290.5,-277.27 318.5,-277.27 318.5,-259.27 290.5,-259.27"/>
<text text-anchor="start" x="299.5" y="-265.47" font-family="Helvetica,sans-Serif" font-size="11.00">7 &gt;</text>
</a>
</g>
</g>
<!-- aggregatesamples&#45;&gt;samples -->
<g id="edge1" class="edge">
<title>aggregatesamples:w&#45;&gt;samples:e</title>
<path fill="none" stroke="black" d="M381.57,-628.21C370.69,-622.54 366.98,-609.57 359,-594.27 335.83,-549.84 369.61,-372.27 319.5,-372.27"/>
<polygon fill="black" stroke="black" points="388.17,-629.61 395.25,-634.79 392.09,-630.44 396,-631.27 396,-631.27 396,-631.27 392.09,-630.44 396.75,-627.74 388.17,-629.61 388.17,-629.61"/>
<ellipse fill="none" stroke="black" cx="385.04" cy="-628.94" rx="3.2" ry="3.2"/>
</g>
<!-- analysisunits -->
<g id="node9" class="node">
<title>analysisunits</title>
<g id="a_node9"><a xlink:href="../../tables/analysisunits.html" xlink:title="analysisunits" target="_top">
<polygon fill="#ffffff" stroke="transparent" points="8,-351.27 8,-409.27 130,-409.27 130,-351.27 8,-351.27"/>
<polygon fill="#f5f5f5" stroke="transparent" points="8,-387.27 8,-409.27 130,-409.27 130,-387.27 8,-387.27"/>
<polygon fill="none" stroke="black" points="8,-387.27 8,-409.27 130,-409.27 130,-387.27 8,-387.27"/>
<text text-anchor="start" x="13" y="-396.47" font-family="Helvetica,sans-Serif" font-weight="bold" font-size="11.00">analysisunits</text>
<text text-anchor="start" x="95" y="-395.47" font-family="Helvetica,sans-Serif" font-size="11.00">[table]</text>
<polygon fill="none" stroke="black" points="8,-369.27 8,-387.27 130,-387.27 130,-369.27 8,-369.27"/>
<text text-anchor="start" x="11" y="-375.47" font-family="Helvetica,sans-Serif" font-size="11.00">...</text>
<polygon fill="#ffffff" stroke="transparent" points="8,-351.27 8,-369.27 30,-369.27 30,-351.27 8,-351.27"/>
<polygon fill="none" stroke="black" points="8,-351.27 8,-369.27 30,-369.27 30,-351.27 8,-351.27"/>
<text text-anchor="start" x="11" y="-357.47" font-family="Helvetica,sans-Serif" font-size="11.00">&lt; 2</text>
<polygon fill="#ffffff" stroke="transparent" points="30,-351.27 30,-369.27 102,-369.27 102,-351.27 30,-351.27"/>
<polygon fill="none" stroke="black" points="30,-351.27 30,-369.27 102,-369.27 102,-351.27 30,-351.27"/>
<text text-anchor="start" x="33" y="-357.47" font-family="Helvetica,sans-Serif" font-size="11.00">486,580 rows</text>
<polygon fill="#ffffff" stroke="transparent" points="102,-351.27 102,-369.27 130,-369.27 130,-351.27 102,-351.27"/>
<polygon fill="none" stroke="black" points="102,-351.27 102,-369.27 130,-369.27 130,-351.27 102,-351.27"/>
<text text-anchor="start" x="105" y="-357.47" font-family="Helvetica,sans-Serif" font-size="11.00">10 &gt;</text>
</a>
</g>
</g>
<!-- samples&#45;&gt;analysisunits -->
<g id="edge8" class="edge">
<title>samples:w&#45;&gt;analysisunits:e</title>
<path fill="none" stroke="black" d="M164.53,-354.4C153.2,-362.19 149.57,-378.27 131,-378.27"/>
<polygon fill="black" stroke="black" points="170.83,-352.53 179.52,-353.72 174.66,-351.4 178.5,-350.27 178.5,-350.27 178.5,-350.27 174.66,-351.4 177.48,-346.81 170.83,-352.53 170.83,-352.53"/>
<ellipse fill="none" stroke="black" cx="167.76" cy="-353.44" rx="3.2" ry="3.2"/>
</g>
<!-- datasets -->
<g id="node10" class="node">
<title>datasets</title>
<g id="a_node10"><a xlink:href="../../tables/datasets.html" xlink:title="datasets" target="_top">
<polygon fill="#ffffff" stroke="transparent" points="11,-272.27 11,-330.27 127,-330.27 127,-272.27 11,-272.27"/>
<polygon fill="#f5f5f5" stroke="transparent" points="11,-308.27 11,-330.27 127,-330.27 127,-308.27 11,-308.27"/>
<polygon fill="none" stroke="black" points="11,-308.27 11,-330.27 127,-330.27 127,-308.27 11,-308.27"/>
<text text-anchor="start" x="16" y="-317.47" font-family="Helvetica,sans-Serif" font-weight="bold" font-size="11.00">datasets</text>
<text text-anchor="start" x="92" y="-316.47" font-family="Helvetica,sans-Serif" font-size="11.00">[table]</text>
<polygon fill="none" stroke="black" points="11,-290.27 11,-308.27 127,-308.27 127,-290.27 11,-290.27"/>
<text text-anchor="start" x="14" y="-296.47" font-family="Helvetica,sans-Serif" font-size="11.00">...</text>
<polygon fill="#ffffff" stroke="transparent" points="11,-272.27 11,-290.27 33,-290.27 33,-272.27 11,-272.27"/>
<polygon fill="none" stroke="black" points="11,-272.27 11,-290.27 33,-290.27 33,-272.27 11,-272.27"/>
<text text-anchor="start" x="14" y="-278.47" font-family="Helvetica,sans-Serif" font-size="11.00">&lt; 3</text>
<polygon fill="#ffffff" stroke="transparent" points="33,-272.27 33,-290.27 99,-290.27 99,-272.27 33,-272.27"/>
<polygon fill="none" stroke="black" points="33,-272.27 33,-290.27 99,-290.27 99,-272.27 33,-272.27"/>
<text text-anchor="start" x="36" y="-278.47" font-family="Helvetica,sans-Serif" font-size="11.00">49,780 rows</text>
<polygon fill="#ffffff" stroke="transparent" points="99,-272.27 99,-290.27 127,-290.27 127,-272.27 99,-272.27"/>
<polygon fill="none" stroke="black" points="99,-272.27 99,-290.27 127,-290.27 127,-272.27 99,-272.27"/>
<text text-anchor="start" x="102" y="-278.47" font-family="Helvetica,sans-Serif" font-size="11.00">13 &gt;</text>
</a>
</g>
</g>
<!-- samples&#45;&gt;datasets -->
<g id="edge9" class="edge">
<title>samples:w&#45;&gt;datasets:e</title>
<path fill="none" stroke="black" d="M164.46,-324.47C151.8,-316.61 148.02,-299.27 128,-299.27"/>
<polygon fill="black" stroke="black" points="170.78,-326.18 177.56,-331.74 174.64,-327.22 178.5,-328.27 178.5,-328.27 178.5,-328.27 174.64,-327.22 179.44,-324.79 170.78,-326.18 170.78,-326.18"/>
<ellipse fill="none" stroke="black" cx="167.69" cy="-325.35" rx="3.2" ry="3.2"/>
</g>
<!-- taxa -->
<g id="node11" class="node">
<title>taxa</title>
<g id="a_node11"><a xlink:href="../../tables/taxa.html" xlink:title="taxa" target="_top">
<polygon fill="#ffffff" stroke="transparent" points="11,-150.27 11,-208.27 127,-208.27 127,-150.27 11,-150.27"/>
<polygon fill="#f5f5f5" stroke="transparent" points="11,-186.27 11,-208.27 127,-208.27 127,-186.27 11,-186.27"/>
<polygon fill="none" stroke="black" points="11,-186.27 11,-208.27 127,-208.27 127,-186.27 11,-186.27"/>
<text text-anchor="start" x="16" y="-195.47" font-family="Helvetica,sans-Serif" font-weight="bold" font-size="11.00">taxa</text>
<text text-anchor="start" x="92" y="-194.47" font-family="Helvetica,sans-Serif" font-size="11.00">[table]</text>
<polygon fill="none" stroke="black" points="11,-168.27 11,-186.27 127,-186.27 127,-168.27 11,-168.27"/>
<text text-anchor="start" x="14" y="-174.47" font-family="Helvetica,sans-Serif" font-size="11.00">...</text>
<polygon fill="#ffffff" stroke="transparent" points="11,-150.27 11,-168.27 33,-168.27 33,-150.27 11,-150.27"/>
<polygon fill="none" stroke="black" points="11,-150.27 11,-168.27 33,-168.27 33,-150.27 11,-150.27"/>
<text text-anchor="start" x="14" y="-156.47" font-family="Helvetica,sans-Serif" font-size="11.00">&lt; 4</text>
<polygon fill="#ffffff" stroke="transparent" points="33,-150.27 33,-168.27 99,-168.27 99,-150.27 33,-150.27"/>
<polygon fill="none" stroke="black" points="33,-150.27 33,-168.27 99,-168.27 99,-150.27 33,-150.27"/>
<text text-anchor="start" x="36" y="-156.47" font-family="Helvetica,sans-Serif" font-size="11.00">47,314 rows</text>
<polygon fill="#ffffff" stroke="transparent" points="99,-150.27 99,-168.27 127,-168.27 127,-150.27 99,-150.27"/>
<polygon fill="none" stroke="black" points="99,-150.27 99,-168.27 127,-168.27 127,-150.27 99,-150.27"/>
<text text-anchor="start" x="102" y="-156.47" font-family="Helvetica,sans-Serif" font-size="11.00">17 &gt;</text>
</a>
</g>
</g>
<!-- samples&#45;&gt;taxa -->
<g id="edge10" class="edge">
<title>samples:w&#45;&gt;taxa:e</title>
<path fill="none" stroke="black" d="M164.05,-302.81C129.84,-282.3 183.56,-177.27 128,-177.27"/>
<polygon fill="black" stroke="black" points="170.72,-304.41 177.66,-309.77 174.61,-305.34 178.5,-306.27 178.5,-306.27 178.5,-306.27 174.61,-305.34 179.34,-302.76 170.72,-304.41 170.72,-304.41"/>
<ellipse fill="none" stroke="black" cx="167.61" cy="-303.66" rx="3.2" ry="3.2"/>
</g>
<!-- data -->
<g id="node3" class="node">
<title>data</title>
<g id="a_node3"><a xlink:href="../../tables/data.html" xlink:title="data" target="_top">
<polygon fill="#ffffff" stroke="transparent" points="401.5,-525.27 401.5,-583.27 532.5,-583.27 532.5,-525.27 401.5,-525.27"/>
<polygon fill="#f5f5f5" stroke="transparent" points="402,-561.27 402,-583.27 533,-583.27 533,-561.27 402,-561.27"/>
<polygon fill="none" stroke="black" points="402,-561.27 402,-583.27 533,-583.27 533,-561.27 402,-561.27"/>
<text text-anchor="start" x="407" y="-570.47" font-family="Helvetica,sans-Serif" font-weight="bold" font-size="11.00">data</text>
<text text-anchor="start" x="498" y="-569.47" font-family="Helvetica,sans-Serif" font-size="11.00">[table]</text>
<polygon fill="none" stroke="black" points="402,-543.27 402,-561.27 533,-561.27 533,-543.27 402,-543.27"/>
<text text-anchor="start" x="405" y="-549.47" font-family="Helvetica,sans-Serif" font-size="11.00">...</text>
<polygon fill="#ffffff" stroke="transparent" points="402,-525.27 402,-543.27 424,-543.27 424,-525.27 402,-525.27"/>
<polygon fill="none" stroke="black" points="402,-525.27 402,-543.27 424,-543.27 424,-525.27 402,-525.27"/>
<text text-anchor="start" x="405" y="-531.47" font-family="Helvetica,sans-Serif" font-size="11.00">&lt; 2</text>
<polygon fill="#ffffff" stroke="transparent" points="424,-525.27 424,-543.27 511,-543.27 511,-525.27 424,-525.27"/>
<polygon fill="none" stroke="black" points="424,-525.27 424,-543.27 511,-543.27 511,-525.27 424,-525.27"/>
<text text-anchor="start" x="427" y="-531.47" font-family="Helvetica,sans-Serif" font-size="11.00">10,527,055 rows</text>
<polygon fill="#ffffff" stroke="transparent" points="511,-525.27 511,-543.27 533,-543.27 533,-525.27 511,-525.27"/>
<polygon fill="none" stroke="black" points="511,-525.27 511,-543.27 533,-543.27 533,-525.27 511,-525.27"/>
<text text-anchor="start" x="514" y="-531.47" font-family="Helvetica,sans-Serif" font-size="11.00">8 &gt;</text>
</a>
</g>
</g>
<!-- data&#45;&gt;samples -->
<g id="edge2" class="edge">
<title>data:w&#45;&gt;samples:e</title>
<path fill="none" stroke="black" d="M386.57,-549.78C373.77,-544.52 369.1,-531.41 359,-515.27 324.03,-459.37 385.44,-372.27 319.5,-372.27"/>
<polygon fill="black" stroke="black" points="393.12,-550.91 400.39,-555.81 397.06,-551.59 401,-552.27 401,-552.27 401,-552.27 397.06,-551.59 401.61,-548.72 393.12,-550.91 393.12,-550.91"/>
<ellipse fill="none" stroke="black" cx="389.96" cy="-550.36" rx="3.2" ry="3.2"/>
</g>
<!-- geochronology -->
<g id="node4" class="node">
<title>geochronology</title>
<g id="a_node4"><a xlink:href="../../tables/geochronology.html" xlink:title="geochronology" target="_top">
<polygon fill="#ffffff" stroke="transparent" points="405,-446.27 405,-504.27 529,-504.27 529,-446.27 405,-446.27"/>
<polygon fill="#f5f5f5" stroke="transparent" points="405,-482.27 405,-504.27 529,-504.27 529,-482.27 405,-482.27"/>
<polygon fill="none" stroke="black" points="405,-482.27 405,-504.27 529,-504.27 529,-482.27 405,-482.27"/>
<text text-anchor="start" x="410" y="-491.47" font-family="Helvetica,sans-Serif" font-weight="bold" font-size="11.00">geochronology</text>
<text text-anchor="start" x="494" y="-490.47" font-family="Helvetica,sans-Serif" font-size="11.00">[table]</text>
<polygon fill="none" stroke="black" points="405,-464.27 405,-482.27 529,-482.27 529,-464.27 405,-464.27"/>
<text text-anchor="start" x="408" y="-470.47" font-family="Helvetica,sans-Serif" font-size="11.00">...</text>
<polygon fill="#ffffff" stroke="transparent" points="405,-446.27 405,-464.27 434,-464.27 434,-446.27 405,-446.27"/>
<polygon fill="none" stroke="black" points="405,-446.27 405,-464.27 434,-464.27 434,-446.27 405,-446.27"/>
<text text-anchor="start" x="408" y="-452.47" font-family="Helvetica,sans-Serif" font-size="11.00">&lt; 3</text>
<polygon fill="#ffffff" stroke="transparent" points="434,-446.27 434,-464.27 503,-464.27 503,-446.27 434,-446.27"/>
<polygon fill="none" stroke="black" points="434,-446.27 434,-464.27 503,-464.27 503,-446.27 434,-446.27"/>
<text text-anchor="start" x="440" y="-452.47" font-family="Helvetica,sans-Serif" font-size="11.00">41,130 rows</text>
<polygon fill="#ffffff" stroke="transparent" points="503,-446.27 503,-464.27 529,-464.27 529,-446.27 503,-446.27"/>
<polygon fill="none" stroke="black" points="503,-446.27 503,-464.27 529,-464.27 529,-446.27 503,-446.27"/>
<text text-anchor="start" x="510" y="-452.47" font-family="Helvetica,sans-Serif" font-size="11.00">4 &gt;</text>
</a>
</g>
</g>
<!-- geochronology&#45;&gt;samples -->
<g id="edge3" class="edge">
<title>geochronology:w&#45;&gt;samples:e</title>
<path fill="none" stroke="black" d="M389.62,-470.75C376.4,-465.23 372.17,-451.35 359,-436.27 337.01,-411.09 352.93,-372.27 319.5,-372.27"/>
<polygon fill="black" stroke="black" points="396.12,-471.89 403.38,-476.81 400.06,-472.58 404,-473.27 404,-473.27 404,-473.27 400.06,-472.58 404.62,-469.72 396.12,-471.89 396.12,-471.89"/>
<ellipse fill="none" stroke="black" cx="392.97" cy="-471.34" rx="3.2" ry="3.2"/>
</g>
<!-- sampleages -->
<g id="node5" class="node">
<title>sampleages</title>
<g id="a_node5"><a xlink:href="../../tables/sampleages.html" xlink:title="sampleages" target="_top">
<polygon fill="#ffffff" stroke="transparent" points="409,-367.27 409,-425.27 525,-425.27 525,-367.27 409,-367.27"/>
<polygon fill="#f5f5f5" stroke="transparent" points="409,-403.27 409,-425.27 525,-425.27 525,-403.27 409,-403.27"/>
<polygon fill="none" stroke="black" points="409,-403.27 409,-425.27 525,-425.27 525,-403.27 409,-403.27"/>
<text text-anchor="start" x="414" y="-412.47" font-family="Helvetica,sans-Serif" font-weight="bold" font-size="11.00">sampleages</text>
<text text-anchor="start" x="490" y="-411.47" font-family="Helvetica,sans-Serif" font-size="11.00">[table]</text>
<polygon fill="none" stroke="black" points="409,-385.27 409,-403.27 525,-403.27 525,-385.27 409,-385.27"/>
<text text-anchor="start" x="412" y="-391.47" font-family="Helvetica,sans-Serif" font-size="11.00">...</text>
<polygon fill="#ffffff" stroke="transparent" points="409,-367.27 409,-385.27 431,-385.27 431,-367.27 409,-367.27"/>
<polygon fill="none" stroke="black" points="409,-367.27 409,-385.27 431,-385.27 431,-367.27 409,-367.27"/>
<text text-anchor="start" x="412" y="-373.47" font-family="Helvetica,sans-Serif" font-size="11.00">&lt; 2</text>
<polygon fill="#ffffff" stroke="transparent" points="431,-367.27 431,-385.27 503,-385.27 503,-367.27 431,-367.27"/>
<polygon fill="none" stroke="black" points="431,-367.27 431,-385.27 503,-385.27 503,-367.27 431,-367.27"/>
<text text-anchor="start" x="434" y="-373.47" font-family="Helvetica,sans-Serif" font-size="11.00">616,120 rows</text>
<polygon fill="#ffffff" stroke="transparent" points="503,-367.27 503,-385.27 525,-385.27 525,-367.27 503,-367.27"/>
<polygon fill="none" stroke="black" points="503,-367.27 503,-385.27 525,-385.27 525,-367.27 503,-367.27"/>
<text text-anchor="start" x="506" y="-373.47" font-family="Helvetica,sans-Serif" font-size="11.00">1 &gt;</text>
</a>
</g>
</g>
<!-- sampleages&#45;&gt;samples -->
<g id="edge4" class="edge">
<title>sampleages:w&#45;&gt;samples:e</title>
<path fill="none" stroke="black" d="M393.45,-393.2C364.91,-388.81 354.65,-372.27 319.5,-372.27"/>
<polygon fill="black" stroke="black" points="400.02,-393.68 407.74,-397.86 404.01,-393.97 408,-394.27 408,-394.27 408,-394.27 404.01,-393.97 408.26,-390.67 400.02,-393.68 400.02,-393.68"/>
<ellipse fill="none" stroke="black" cx="396.83" cy="-393.45" rx="3.2" ry="3.2"/>
</g>
<!-- sampleanalysts -->
<g id="node6" class="node">
<title>sampleanalysts</title>
<g id="a_node6"><a xlink:href="../../tables/sampleanalysts.html" xlink:title="sampleanalysts" target="_top">
<polygon fill="#ffffff" stroke="transparent" points="404,-288.27 404,-346.27 530,-346.27 530,-288.27 404,-288.27"/>
<polygon fill="#f5f5f5" stroke="transparent" points="404,-324.27 404,-346.27 530,-346.27 530,-324.27 404,-324.27"/>
<polygon fill="none" stroke="black" points="404,-324.27 404,-346.27 530,-346.27 530,-324.27 404,-324.27"/>
<text text-anchor="start" x="409" y="-333.47" font-family="Helvetica,sans-Serif" font-weight="bold" font-size="11.00">sampleanalysts</text>
<text text-anchor="start" x="495" y="-332.47" font-family="Helvetica,sans-Serif" font-size="11.00">[table]</text>
<polygon fill="none" stroke="black" points="404,-306.27 404,-324.27 530,-324.27 530,-306.27 404,-306.27"/>
<text text-anchor="start" x="407" y="-312.47" font-family="Helvetica,sans-Serif" font-size="11.00">...</text>
<polygon fill="#ffffff" stroke="transparent" points="404,-288.27 404,-306.27 435,-306.27 435,-288.27 404,-288.27"/>
<polygon fill="none" stroke="black" points="404,-288.27 404,-306.27 435,-306.27 435,-288.27 404,-288.27"/>
<text text-anchor="start" x="407" y="-294.47" font-family="Helvetica,sans-Serif" font-size="11.00">&lt; 2</text>
<polygon fill="#ffffff" stroke="transparent" points="435,-288.27 435,-306.27 512,-306.27 512,-288.27 435,-288.27"/>
<polygon fill="none" stroke="black" points="435,-288.27 435,-306.27 512,-306.27 512,-288.27 435,-288.27"/>
<text text-anchor="start" x="443" y="-294.47" font-family="Helvetica,sans-Serif" font-size="11.00">322,150 rows</text>
<polygon fill="#ffffff" stroke="transparent" points="512,-288.27 512,-306.27 530,-306.27 530,-288.27 512,-288.27"/>
<polygon fill="none" stroke="black" points="512,-288.27 512,-306.27 530,-306.27 530,-288.27 512,-288.27"/>
<text text-anchor="start" x="520" y="-294.47" font-family="Helvetica,sans-Serif" font-size="11.00"> &#160;</text>
</a>
</g>
</g>
<!-- sampleanalysts&#45;&gt;samples -->
<g id="edge5" class="edge">
<title>sampleanalysts:w&#45;&gt;samples:e</title>
<path fill="none" stroke="black" d="M388.75,-317.57C358.86,-328.23 358.99,-372.27 319.5,-372.27"/>
<polygon fill="black" stroke="black" points="395.1,-316.54 403.57,-318.82 399.05,-315.9 403,-315.27 403,-315.27 403,-315.27 399.05,-315.9 402.43,-311.71 395.1,-316.54 395.1,-316.54"/>
<ellipse fill="none" stroke="black" cx="391.94" cy="-317.05" rx="3.2" ry="3.2"/>
</g>
<!-- samplekeywords -->
<g id="node7" class="node">
<title>samplekeywords</title>
<g id="a_node7"><a xlink:href="../../tables/samplekeywords.html" xlink:title="samplekeywords" target="_top">
<polygon fill="#ffffff" stroke="transparent" points="367,-108.27 367,-240.27 567,-240.27 567,-108.27 367,-108.27"/>
<polygon fill="#f5f5f5" stroke="transparent" points="369,-216.27 369,-238.27 565,-238.27 565,-216.27 369,-216.27"/>
<polygon fill="none" stroke="black" points="369,-216.27 369,-238.27 565,-238.27 565,-216.27 369,-216.27"/>
<text text-anchor="start" x="374" y="-225.47" font-family="Helvetica,sans-Serif" font-weight="bold" font-size="11.00">samplekeywords</text>
<text text-anchor="start" x="530" y="-224.47" font-family="Helvetica,sans-Serif" font-size="11.00">[table]</text>
<polygon fill="none" stroke="black" points="369,-194.27 369,-216.27 491,-216.27 491,-194.27 369,-194.27"/>
<image xlink:href="../../images/primaryKeys.png" width="11px" height="12px" preserveAspectRatio="xMinYMin meet" x="374" y="-211.265"/>
<text text-anchor="start" x="389" y="-202.47" font-family="Helvetica,sans-Serif" font-size="11.00">sampleid</text>
<polygon fill="none" stroke="black" points="491,-194.27 491,-216.27 565,-216.27 565,-194.27 491,-194.27"/>
<text text-anchor="start" x="494" y="-202.47" font-family="Helvetica,sans-Serif" font-size="11.00">int4[10]</text>
<polygon fill="none" stroke="black" points="369,-172.27 369,-194.27 491,-194.27 491,-172.27 369,-172.27"/>
<image xlink:href="../../images/primaryKeys.png" width="11px" height="12px" preserveAspectRatio="xMinYMin meet" x="374" y="-189.265"/>
<text text-anchor="start" x="389" y="-180.47" font-family="Helvetica,sans-Serif" font-size="11.00">keywordid</text>
<polygon fill="none" stroke="black" points="491,-172.27 491,-194.27 565,-194.27 565,-172.27 491,-172.27"/>
<text text-anchor="start" x="494" y="-180.47" font-family="Helvetica,sans-Serif" font-size="11.00">int4[10]</text>
<polygon fill="none" stroke="black" points="369,-150.27 369,-172.27 491,-172.27 491,-150.27 369,-150.27"/>
<text text-anchor="start" x="389" y="-158.47" font-family="Helvetica,sans-Serif" font-size="11.00">recdatecreated</text>
<polygon fill="none" stroke="black" points="491,-150.27 491,-172.27 565,-172.27 565,-150.27 491,-150.27"/>
<text text-anchor="start" x="494" y="-158.47" font-family="Helvetica,sans-Serif" font-size="11.00">timestamp[22]</text>
<polygon fill="none" stroke="black" points="369,-128.27 369,-150.27 491,-150.27 491,-128.27 369,-128.27"/>
<text text-anchor="start" x="389" y="-136.47" font-family="Helvetica,sans-Serif" font-size="11.00">recdatemodified</text>
<polygon fill="none" stroke="black" points="491,-128.27 491,-150.27 565,-150.27 565,-128.27 491,-128.27"/>
<text text-anchor="start" x="494" y="-136.47" font-family="Helvetica,sans-Serif" font-size="11.00">timestamp[22]</text>
<polygon fill="#ffffff" stroke="transparent" points="369,-110.27 369,-128.27 408,-128.27 408,-110.27 369,-110.27"/>
<polygon fill="none" stroke="black" points="369,-110.27 369,-128.27 408,-128.27 408,-110.27 369,-110.27"/>
<text text-anchor="start" x="372" y="-116.47" font-family="Helvetica,sans-Serif" font-size="11.00">&lt; 2</text>
<polygon fill="#ffffff" stroke="transparent" points="408,-110.27 408,-128.27 491,-128.27 491,-110.27 408,-110.27"/>
<polygon fill="none" stroke="black" points="408,-110.27 408,-128.27 491,-128.27 491,-110.27 408,-110.27"/>
<text text-anchor="start" x="428" y="-116.47" font-family="Helvetica,sans-Serif" font-size="11.00">18,202 rows</text>
<polygon fill="#ffffff" stroke="transparent" points="491,-110.27 491,-128.27 565,-128.27 565,-110.27 491,-110.27"/>
<polygon fill="none" stroke="black" points="491,-110.27 491,-128.27 565,-128.27 565,-110.27 491,-110.27"/>
<text text-anchor="start" x="546" y="-116.47" font-family="Helvetica,sans-Serif" font-size="11.00">0 &gt;</text>
<polygon fill="none" stroke="black" stroke-width="2" points="368,-109.27 368,-239.27 566,-239.27 566,-109.27 368,-109.27"/>
</a>
</g>
</g>
<!-- samplekeywords&#45;&gt;samples -->
<g id="edge7" class="edge">
<title>samplekeywords:w&#45;&gt;samples:e</title>
<path fill="none" stroke="black" d="M353.67,-207.89C305.45,-229.13 391.05,-372.27 319.5,-372.27"/>
<polygon fill="black" stroke="black" points="360.13,-206.71 368.65,-208.81 364.07,-205.99 368,-205.27 368,-205.27 368,-205.27 364.07,-205.99 367.35,-201.72 360.13,-206.71 360.13,-206.71"/>
<ellipse fill="none" stroke="black" cx="356.98" cy="-207.28" rx="3.2" ry="3.2"/>
</g>
<!-- keywords -->
<g id="node8" class="node">
<title>keywords</title>
<g id="a_node8"><a xlink:href="../../tables/keywords.html" xlink:title="keywords" target="_top">
<polygon fill="#ffffff" stroke="transparent" points="188.5,-136.27 188.5,-216.27 308.5,-216.27 308.5,-136.27 188.5,-136.27"/>
<polygon fill="#f5f5f5" stroke="transparent" points="188.5,-194.27 188.5,-216.27 308.5,-216.27 308.5,-194.27 188.5,-194.27"/>
<polygon fill="none" stroke="black" points="188.5,-194.27 188.5,-216.27 308.5,-216.27 308.5,-194.27 188.5,-194.27"/>
<text text-anchor="start" x="193.5" y="-203.47" font-family="Helvetica,sans-Serif" font-weight="bold" font-size="11.00">keywords</text>
<text text-anchor="start" x="273.5" y="-202.47" font-family="Helvetica,sans-Serif" font-size="11.00">[table]</text>
<polygon fill="none" stroke="black" points="188.5,-172.27 188.5,-194.27 308.5,-194.27 308.5,-172.27 188.5,-172.27"/>
<image xlink:href="../../images/primaryKeys.png" width="11px" height="12px" preserveAspectRatio="xMinYMin meet" x="193.5" y="-189.265"/>
<text text-anchor="start" x="208.5" y="-180.47" font-family="Helvetica,sans-Serif" font-size="11.00">keywordid</text>
<polygon fill="none" stroke="black" points="188.5,-154.27 188.5,-172.27 308.5,-172.27 308.5,-154.27 188.5,-154.27"/>
<text text-anchor="start" x="191.5" y="-160.47" font-family="Helvetica,sans-Serif" font-size="11.00">...</text>
<polygon fill="#ffffff" stroke="transparent" points="188.5,-136.27 188.5,-154.27 224.5,-154.27 224.5,-136.27 188.5,-136.27"/>
<polygon fill="none" stroke="black" points="188.5,-136.27 188.5,-154.27 224.5,-154.27 224.5,-136.27 188.5,-136.27"/>
<text text-anchor="start" x="191.5" y="-142.47" font-family="Helvetica,sans-Serif" font-size="11.00"> &#160;</text>
<polygon fill="#ffffff" stroke="transparent" points="224.5,-136.27 224.5,-154.27 274.5,-154.27 274.5,-136.27 224.5,-136.27"/>
<polygon fill="none" stroke="black" points="224.5,-136.27 224.5,-154.27 274.5,-154.27 274.5,-136.27 224.5,-136.27"/>
<text text-anchor="start" x="238.5" y="-142.47" font-family="Helvetica,sans-Serif" font-size="11.00">5 rows</text>
<polygon fill="#ffffff" stroke="transparent" points="274.5,-136.27 274.5,-154.27 308.5,-154.27 308.5,-136.27 274.5,-136.27"/>
<polygon fill="none" stroke="black" points="274.5,-136.27 274.5,-154.27 308.5,-154.27 308.5,-136.27 274.5,-136.27"/>
<text text-anchor="start" x="289.5" y="-142.47" font-family="Helvetica,sans-Serif" font-size="11.00">1 &gt;</text>
</a>
</g>
</g>
<!-- samplekeywords&#45;&gt;keywords -->
<g id="edge6" class="edge">
<title>samplekeywords:w&#45;&gt;keywords:e</title>
<path fill="none" stroke="black" d="M353.33,-183.27C338.22,-183.27 329.81,-183.27 309.5,-183.27"/>
<polygon fill="black" stroke="black" points="360,-183.27 368,-186.87 364,-183.27 368,-183.27 368,-183.27 368,-183.27 364,-183.27 368,-179.67 360,-183.27 360,-183.27"/>
<ellipse fill="none" stroke="black" cx="356.8" cy="-183.27" rx="3.2" ry="3.2"/>
</g>
<!-- specimendates -->
<g id="node12" class="node">
<title>specimendates</title>
<g id="a_node12"><a xlink:href="../../tables/specimendates.html" xlink:title="specimendates" target="_top">
<polygon fill="#ffffff" stroke="transparent" points="616,-237.27 616,-295.27 739,-295.27 739,-237.27 616,-237.27"/>
<polygon fill="#f5f5f5" stroke="transparent" points="616.5,-273.27 616.5,-295.27 739.5,-295.27 739.5,-273.27 616.5,-273.27"/>
<polygon fill="none" stroke="black" points="616.5,-273.27 616.5,-295.27 739.5,-295.27 739.5,-273.27 616.5,-273.27"/>
<text text-anchor="start" x="621.5" y="-282.47" font-family="Helvetica,sans-Serif" font-weight="bold" font-size="11.00">specimendates</text>
<text text-anchor="start" x="704.5" y="-281.47" font-family="Helvetica,sans-Serif" font-size="11.00">[table]</text>
<polygon fill="none" stroke="black" points="616.5,-255.27 616.5,-273.27 739.5,-273.27 739.5,-255.27 616.5,-255.27"/>
<text text-anchor="start" x="619.5" y="-261.47" font-family="Helvetica,sans-Serif" font-size="11.00">...</text>
<polygon fill="#ffffff" stroke="transparent" points="616.5,-237.27 616.5,-255.27 647.5,-255.27 647.5,-237.27 616.5,-237.27"/>
<polygon fill="none" stroke="black" points="616.5,-237.27 616.5,-255.27 647.5,-255.27 647.5,-237.27 616.5,-237.27"/>
<text text-anchor="start" x="619.5" y="-243.47" font-family="Helvetica,sans-Serif" font-size="11.00">&lt; 6</text>
<polygon fill="#ffffff" stroke="transparent" points="647.5,-237.27 647.5,-255.27 712.5,-255.27 712.5,-237.27 647.5,-237.27"/>
<polygon fill="none" stroke="black" points="647.5,-237.27 647.5,-255.27 712.5,-255.27 712.5,-237.27 647.5,-237.27"/>
<text text-anchor="start" x="655.5" y="-243.47" font-family="Helvetica,sans-Serif" font-size="11.00">2,662 rows</text>
<polygon fill="#ffffff" stroke="transparent" points="712.5,-237.27 712.5,-255.27 739.5,-255.27 739.5,-237.27 712.5,-237.27"/>
<polygon fill="none" stroke="black" points="712.5,-237.27 712.5,-255.27 739.5,-255.27 739.5,-237.27 712.5,-237.27"/>
<text text-anchor="start" x="720.5" y="-243.47" font-family="Helvetica,sans-Serif" font-size="11.00">1 &gt;</text>
</a>
</g>
</g>
<!-- specimendates&#45;&gt;samples -->
<g id="edge12" class="edge">
<title>specimendates:w&#45;&gt;samples:e</title>
<path fill="none" stroke="black" d="M600.88,-263.97C535.76,-261.69 402.11,-247.89 359,-278.27 321.95,-304.36 364.82,-372.27 319.5,-372.27"/>
<polygon fill="black" stroke="black" points="607.5,-264.1 615.43,-267.86 611.5,-264.18 615.5,-264.27 615.5,-264.27 615.5,-264.27 611.5,-264.18 615.57,-260.67 607.5,-264.1 607.5,-264.1"/>
<ellipse fill="none" stroke="black" cx="604.3" cy="-264.04" rx="3.2" ry="3.2"/>
</g>
<!-- specimendates&#45;&gt;geochronology -->
<g id="edge11" class="edge">
<title>specimendates:w&#45;&gt;geochronology:e</title>
<path fill="none" stroke="black" d="M600.85,-265.86C547.83,-279.29 613.51,-374.42 575,-436.27 561.31,-458.24 555.89,-473.27 530,-473.27"/>
<polygon fill="black" stroke="black" points="607.55,-265.13 615.89,-267.84 611.52,-264.7 615.5,-264.27 615.5,-264.27 615.5,-264.27 611.52,-264.7 615.11,-260.69 607.55,-265.13 607.55,-265.13"/>
<ellipse fill="none" stroke="black" cx="604.37" cy="-265.48" rx="3.2" ry="3.2"/>
</g>
<!-- specimendates&#45;&gt;taxa -->
<g id="edge13" class="edge">
<title>specimendates:w&#45;&gt;taxa:e</title>
<path fill="none" stroke="black" d="M601.21,-262.36C552.5,-246.88 630.58,-140.97 575,-97.27 433.53,14 327.74,-36.8 171,-125.27 144.88,-140.01 157.99,-177.27 128,-177.27"/>
<polygon fill="black" stroke="black" points="607.57,-263.21 615.03,-267.83 611.53,-263.74 615.5,-264.27 615.5,-264.27 615.5,-264.27 611.53,-263.74 615.97,-260.7 607.57,-263.21 607.57,-263.21"/>
<ellipse fill="none" stroke="black" cx="604.4" cy="-262.79" rx="3.2" ry="3.2"/>
</g>
</g>
</svg>
