<?xml version="1.0" encoding="UTF-8" standalone="no"?>
<!DOCTYPE svg PUBLIC "-//W3C//DTD SVG 1.1//EN"
 "http://www.w3.org/Graphics/SVG/1.1/DTD/svg11.dtd">
<!-- Generated by graphviz version 2.43.0 (0)
 -->
<!-- Title: twoDegreesRelationshipsDiagramImplied Pages: 1 -->
<svg width="749pt" height="702pt"
 viewBox="0.00 0.00 749.00 702.39" xmlns="http://www.w3.org/2000/svg" xmlns:xlink="http://www.w3.org/1999/xlink">
<g id="graph0" class="graph" transform="scale(1 1) rotate(0) translate(4 698.39)">
<title>twoDegreesRelationshipsDiagramImplied</title>
<polygon fill="#ffffff" stroke="transparent" points="-4,4 -4,-698.39 745,-698.39 745,4 -4,4"/>
<text text-anchor="middle" x="71.5" y="-7.2" font-family="Helvetica,sans-Serif" font-size="11.00">Generated by SchemaSpy</text>
<!-- aggregatesamples -->
<g id="node1" class="node">
<title>aggregatesamples</title>
<g id="a_node1"><a xlink:href="../../tables/aggregatesamples.html" xlink:title="aggregatesamples" target="_top">
<polygon fill="#ffffff" stroke="transparent" points="390.5,-386.39 390.5,-444.39 531.5,-444.39 531.5,-386.39 390.5,-386.39"/>
<polygon fill="#f5f5f5" stroke="transparent" points="391,-422.39 391,-444.39 532,-444.39 532,-422.39 391,-422.39"/>
<polygon fill="none" stroke="black" points="391,-422.39 391,-444.39 532,-444.39 532,-422.39 391,-422.39"/>
<text text-anchor="start" x="396" y="-431.59" font-family="Helvetica,sans-Serif" font-weight="bold" font-size="11.00">aggregatesamples</text>
<text text-anchor="start" x="497" y="-430.59" font-family="Helvetica,sans-Serif" font-size="11.00">[table]</text>
<polygon fill="none" stroke="black" points="391,-404.39 391,-422.39 532,-422.39 532,-404.39 391,-404.39"/>
<text text-anchor="start" x="394" y="-410.59" font-family="Helvetica,sans-Serif" font-size="11.00">...</text>
<polygon fill="#ffffff" stroke="transparent" points="391,-386.39 391,-404.39 440,-404.39 440,-386.39 391,-386.39"/>
<polygon fill="none" stroke="black" points="391,-386.39 391,-404.39 440,-404.39 440,-386.39 391,-386.39"/>
<text text-anchor="start" x="394" y="-392.59" font-family="Helvetica,sans-Serif" font-size="11.00">&lt; 2</text>
<polygon fill="#ffffff" stroke="transparent" points="440,-386.39 440,-404.39 505,-404.39 505,-386.39 440,-386.39"/>
<polygon fill="none" stroke="black" points="440,-386.39 440,-404.39 505,-404.39 505,-386.39 440,-386.39"/>
<text text-anchor="start" x="457" y="-392.59" font-family="Helvetica,sans-Serif" font-size="11.00">553 rows</text>
<polygon fill="#ffffff" stroke="transparent" points="505,-386.39 505,-404.39 532,-404.39 532,-386.39 505,-386.39"/>
<polygon fill="none" stroke="black" points="505,-386.39 505,-404.39 532,-404.39 532,-386.39 505,-386.39"/>
<text text-anchor="start" x="522" y="-392.59" font-family="Helvetica,sans-Serif" font-size="11.00"> &#160;</text>
</a>
</g>
</g>
<!-- samples -->
<g id="node2" class="node">
<title>samples</title>
<g id="a_node2"><a xlink:href="../../tables/samples.html" xlink:title="samples" target="_top">
<polygon fill="#ffffff" stroke="transparent" points="173,-327.39 173,-473.39 312,-473.39 312,-327.39 173,-327.39"/>
<polygon fill="#f5f5f5" stroke="transparent" points="173.5,-451.39 173.5,-473.39 312.5,-473.39 312.5,-451.39 173.5,-451.39"/>
<polygon fill="none" stroke="black" points="173.5,-451.39 173.5,-473.39 312.5,-473.39 312.5,-451.39 173.5,-451.39"/>
<text text-anchor="start" x="178.5" y="-460.59" font-family="Helvetica,sans-Serif" font-weight="bold" font-size="11.00">samples</text>
<text text-anchor="start" x="277.5" y="-459.59" font-family="Helvetica,sans-Serif" font-size="11.00">[table]</text>
<polygon fill="none" stroke="black" points="173.5,-429.39 173.5,-451.39 312.5,-451.39 312.5,-429.39 173.5,-429.39"/>
<image xlink:href="../../images/primaryKeys.png" width="11px" height="12px" preserveAspectRatio="xMinYMin meet" x="178.5" y="-446.394"/>
<text text-anchor="start" x="193.5" y="-437.59" font-family="Helvetica,sans-Serif" font-size="11.00">sampleid</text>
<polygon fill="#ffffff" stroke="transparent" points="173.5,-407.39 173.5,-429.39 312.5,-429.39 312.5,-407.39 173.5,-407.39"/>
<polygon fill="none" stroke="black" points="173.5,-407.39 173.5,-429.39 312.5,-429.39 312.5,-407.39 173.5,-407.39"/>
<image xlink:href="../../images/foreignKeys.png" width="11px" height="12px" preserveAspectRatio="xMinYMin meet" x="178.5" y="-424.394"/>
<text text-anchor="start" x="193.5" y="-415.59" font-family="Helvetica,sans-Serif" font-size="11.00">analysisunitid</text>
<polygon fill="#ffffff" stroke="transparent" points="173.5,-385.39 173.5,-407.39 312.5,-407.39 312.5,-385.39 173.5,-385.39"/>
<polygon fill="none" stroke="black" points="173.5,-385.39 173.5,-407.39 312.5,-407.39 312.5,-385.39 173.5,-385.39"/>
<image xlink:href="../../images/foreignKeys.png" width="11px" height="12px" preserveAspectRatio="xMinYMin meet" x="178.5" y="-402.394"/>
<text text-anchor="start" x="193.5" y="-393.59" font-family="Helvetica,sans-Serif" font-size="11.00">datasetid</text>
<polygon fill="#ffffff" stroke="transparent" points="173.5,-363.39 173.5,-385.39 312.5,-385.39 312.5,-363.39 173.5,-363.39"/>
<polygon fill="none" stroke="black" points="173.5,-363.39 173.5,-385.39 312.5,-385.39 312.5,-363.39 173.5,-363.39"/>
<image xlink:href="../../images/foreignKeys.png" width="11px" height="12px" preserveAspectRatio="xMinYMin meet" x="178.5" y="-380.394"/>
<text text-anchor="start" x="193.5" y="-371.59" font-family="Helvetica,sans-Serif" font-size="11.00">taxonid</text>
<polygon fill="none" stroke="black" points="173.5,-345.39 173.5,-363.39 312.5,-363.39 312.5,-345.39 173.5,-345.39"/>
<text text-anchor="start" x="176.5" y="-351.59" font-family="Helvetica,sans-Serif" font-size="11.00">...</text>
<polygon fill="#ffffff" stroke="transparent" points="173.5,-327.39 173.5,-345.39 206.5,-345.39 206.5,-327.39 173.5,-327.39"/>
<polygon fill="none" stroke="black" points="173.5,-327.39 173.5,-345.39 206.5,-345.39 206.5,-327.39 173.5,-327.39"/>
<text text-anchor="start" x="176.5" y="-333.59" font-family="Helvetica,sans-Serif" font-size="11.00">&lt; 3</text>
<polygon fill="#ffffff" stroke="transparent" points="206.5,-327.39 206.5,-345.39 284.5,-345.39 284.5,-327.39 206.5,-327.39"/>
<polygon fill="none" stroke="black" points="206.5,-327.39 206.5,-345.39 284.5,-345.39 284.5,-327.39 206.5,-327.39"/>
<text text-anchor="start" x="215.5" y="-333.59" font-family="Helvetica,sans-Serif" font-size="11.00">506,105 rows</text>
<polygon fill="#ffffff" stroke="transparent" points="284.5,-327.39 284.5,-345.39 312.5,-345.39 312.5,-327.39 284.5,-327.39"/>
<polygon fill="none" stroke="black" points="284.5,-327.39 284.5,-345.39 312.5,-345.39 312.5,-327.39 284.5,-327.39"/>
<text text-anchor="start" x="293.5" y="-333.59" font-family="Helvetica,sans-Serif" font-size="11.00">8 &gt;</text>
</a>
</g>
</g>
<!-- aggregatesamples&#45;&gt;samples -->
<g id="edge1" class="edge">
<title>aggregatesamples:w&#45;&gt;samples:e</title>
<path fill="none" stroke="black" d="M375.5,-415.08C351.87,-420.99 344.06,-440.39 313.5,-440.39"/>
<polygon fill="black" stroke="black" points="382.05,-414.32 390.42,-416.97 386.03,-413.86 390,-413.39 390,-413.39 390,-413.39 386.03,-413.86 389.58,-409.82 382.05,-414.32 382.05,-414.32"/>
<ellipse fill="none" stroke="black" cx="378.88" cy="-414.69" rx="3.2" ry="3.2"/>
</g>
<!-- datasets -->
<g id="node5" class="node">
<title>datasets</title>
<g id="a_node5"><a xlink:href="../../tables/datasets.html" xlink:title="datasets" target="_top">
<polygon fill="#ffffff" stroke="transparent" points="8,-470.39 8,-528.39 124,-528.39 124,-470.39 8,-470.39"/>
<polygon fill="#f5f5f5" stroke="transparent" points="8,-506.39 8,-528.39 124,-528.39 124,-506.39 8,-506.39"/>
<polygon fill="none" stroke="black" points="8,-506.39 8,-528.39 124,-528.39 124,-506.39 8,-506.39"/>
<text text-anchor="start" x="13" y="-515.59" font-family="Helvetica,sans-Serif" font-weight="bold" font-size="11.00">datasets</text>
<text text-anchor="start" x="89" y="-514.59" font-family="Helvetica,sans-Serif" font-size="11.00">[table]</text>
<polygon fill="none" stroke="black" points="8,-488.39 8,-506.39 124,-506.39 124,-488.39 8,-488.39"/>
<text text-anchor="start" x="11" y="-494.59" font-family="Helvetica,sans-Serif" font-size="11.00">...</text>
<polygon fill="#ffffff" stroke="transparent" points="8,-470.39 8,-488.39 30,-488.39 30,-470.39 8,-470.39"/>
<polygon fill="none" stroke="black" points="8,-470.39 8,-488.39 30,-488.39 30,-470.39 8,-470.39"/>
<text text-anchor="start" x="11" y="-476.59" font-family="Helvetica,sans-Serif" font-size="11.00">&lt; 3</text>
<polygon fill="#ffffff" stroke="transparent" points="30,-470.39 30,-488.39 96,-488.39 96,-470.39 30,-470.39"/>
<polygon fill="none" stroke="black" points="30,-470.39 30,-488.39 96,-488.39 96,-470.39 30,-470.39"/>
<text text-anchor="start" x="33" y="-476.59" font-family="Helvetica,sans-Serif" font-size="11.00">48,328 rows</text>
<polygon fill="#ffffff" stroke="transparent" points="96,-470.39 96,-488.39 124,-488.39 124,-470.39 96,-470.39"/>
<polygon fill="none" stroke="black" points="96,-470.39 96,-488.39 124,-488.39 124,-470.39 96,-470.39"/>
<text text-anchor="start" x="99" y="-476.59" font-family="Helvetica,sans-Serif" font-size="11.00">17 &gt;</text>
</a>
</g>
</g>
<!-- samples&#45;&gt;datasets -->
<g id="edge11" class="edge">
<title>samples:w&#45;&gt;datasets:e</title>
<path fill="none" stroke="black" d="M158.58,-400.48C133.93,-419.37 168.6,-497.39 125,-497.39"/>
<polygon fill="black" stroke="black" points="164.82,-398.65 173.51,-399.85 168.66,-397.52 172.5,-396.39 172.5,-396.39 172.5,-396.39 168.66,-397.52 171.49,-392.94 164.82,-398.65 164.82,-398.65"/>
<ellipse fill="none" stroke="black" cx="161.75" cy="-399.55" rx="3.2" ry="3.2"/>
</g>
<!-- analysisunits -->
<g id="node11" class="node">
<title>analysisunits</title>
<g id="a_node11"><a xlink:href="../../tables/analysisunits.html" xlink:title="analysisunits" target="_top">
<polygon fill="#ffffff" stroke="transparent" points="8,-391.39 8,-449.39 124,-449.39 124,-391.39 8,-391.39"/>
<polygon fill="#f5f5f5" stroke="transparent" points="8,-427.39 8,-449.39 124,-449.39 124,-427.39 8,-427.39"/>
<polygon fill="none" stroke="black" points="8,-427.39 8,-449.39 124,-449.39 124,-427.39 8,-427.39"/>
<text text-anchor="start" x="13" y="-436.59" font-family="Helvetica,sans-Serif" font-weight="bold" font-size="11.00">analysisunits</text>
<text text-anchor="start" x="89" y="-435.59" font-family="Helvetica,sans-Serif" font-size="11.00">[table]</text>
<polygon fill="none" stroke="black" points="8,-409.39 8,-427.39 124,-427.39 124,-409.39 8,-409.39"/>
<text text-anchor="start" x="11" y="-415.59" font-family="Helvetica,sans-Serif" font-size="11.00">...</text>
<polygon fill="#ffffff" stroke="transparent" points="8,-391.39 8,-409.39 30,-409.39 30,-391.39 8,-391.39"/>
<polygon fill="none" stroke="black" points="8,-391.39 8,-409.39 30,-409.39 30,-391.39 8,-391.39"/>
<text text-anchor="start" x="11" y="-397.59" font-family="Helvetica,sans-Serif" font-size="11.00">&lt; 2</text>
<polygon fill="#ffffff" stroke="transparent" points="30,-391.39 30,-409.39 102,-409.39 102,-391.39 30,-391.39"/>
<polygon fill="none" stroke="black" points="30,-391.39 30,-409.39 102,-409.39 102,-391.39 30,-391.39"/>
<text text-anchor="start" x="33" y="-397.59" font-family="Helvetica,sans-Serif" font-size="11.00">449,200 rows</text>
<polygon fill="#ffffff" stroke="transparent" points="102,-391.39 102,-409.39 124,-409.39 124,-391.39 102,-391.39"/>
<polygon fill="none" stroke="black" points="102,-391.39 102,-409.39 124,-409.39 124,-391.39 102,-391.39"/>
<text text-anchor="start" x="105" y="-397.59" font-family="Helvetica,sans-Serif" font-size="11.00">9 &gt;</text>
</a>
</g>
</g>
<!-- samples&#45;&gt;analysisunits -->
<g id="edge10" class="edge">
<title>samples:w&#45;&gt;analysisunits:e</title>
<path fill="none" stroke="black" d="M158.09,-418.39C147.32,-418.39 140.34,-418.39 125,-418.39"/>
<polygon fill="black" stroke="black" points="164.5,-418.39 172.5,-421.99 168.5,-418.39 172.5,-418.39 172.5,-418.39 172.5,-418.39 168.5,-418.39 172.5,-414.79 164.5,-418.39 164.5,-418.39"/>
<ellipse fill="none" stroke="black" cx="161.3" cy="-418.39" rx="3.2" ry="3.2"/>
</g>
<!-- taxa -->
<g id="node12" class="node">
<title>taxa</title>
<g id="a_node12"><a xlink:href="../../tables/taxa.html" xlink:title="taxa" target="_top">
<polygon fill="#ffffff" stroke="transparent" points="8,-182.39 8,-240.39 124,-240.39 124,-182.39 8,-182.39"/>
<polygon fill="#f5f5f5" stroke="transparent" points="8,-218.39 8,-240.39 124,-240.39 124,-218.39 8,-218.39"/>
<polygon fill="none" stroke="black" points="8,-218.39 8,-240.39 124,-240.39 124,-218.39 8,-218.39"/>
<text text-anchor="start" x="13" y="-227.59" font-family="Helvetica,sans-Serif" font-weight="bold" font-size="11.00">taxa</text>
<text text-anchor="start" x="89" y="-226.59" font-family="Helvetica,sans-Serif" font-size="11.00">[table]</text>
<polygon fill="none" stroke="black" points="8,-200.39 8,-218.39 124,-218.39 124,-200.39 8,-200.39"/>
<text text-anchor="start" x="11" y="-206.59" font-family="Helvetica,sans-Serif" font-size="11.00">...</text>
<polygon fill="#ffffff" stroke="transparent" points="8,-182.39 8,-200.39 30,-200.39 30,-182.39 8,-182.39"/>
<polygon fill="none" stroke="black" points="8,-182.39 8,-200.39 30,-200.39 30,-182.39 8,-182.39"/>
<text text-anchor="start" x="11" y="-188.59" font-family="Helvetica,sans-Serif" font-size="11.00">&lt; 4</text>
<polygon fill="#ffffff" stroke="transparent" points="30,-182.39 30,-200.39 96,-200.39 96,-182.39 30,-182.39"/>
<polygon fill="none" stroke="black" points="30,-182.39 30,-200.39 96,-200.39 96,-182.39 30,-182.39"/>
<text text-anchor="start" x="33" y="-188.59" font-family="Helvetica,sans-Serif" font-size="11.00">46,322 rows</text>
<polygon fill="#ffffff" stroke="transparent" points="96,-182.39 96,-200.39 124,-200.39 124,-182.39 96,-182.39"/>
<polygon fill="none" stroke="black" points="96,-182.39 96,-200.39 124,-200.39 124,-182.39 96,-182.39"/>
<text text-anchor="start" x="99" y="-188.59" font-family="Helvetica,sans-Serif" font-size="11.00">17 &gt;</text>
</a>
</g>
</g>
<!-- samples&#45;&gt;taxa -->
<g id="edge12" class="edge">
<title>samples:w&#45;&gt;taxa:e</title>
<path fill="none" stroke="black" d="M158.06,-371.67C111.15,-350.21 195.5,-209.39 125,-209.39"/>
<polygon fill="black" stroke="black" points="164.64,-372.91 171.83,-377.93 168.57,-373.65 172.5,-374.39 172.5,-374.39 172.5,-374.39 168.57,-373.65 173.17,-370.86 164.64,-372.91 164.64,-372.91"/>
<ellipse fill="none" stroke="black" cx="161.49" cy="-372.32" rx="3.2" ry="3.2"/>
</g>
<!-- data -->
<g id="node3" class="node">
<title>data</title>
<g id="a_node3"><a xlink:href="../../tables/data.html" xlink:title="data" target="_top">
<polygon fill="#ffffff" stroke="transparent" points="395.5,-307.39 395.5,-365.39 526.5,-365.39 526.5,-307.39 395.5,-307.39"/>
<polygon fill="#f5f5f5" stroke="transparent" points="396,-343.39 396,-365.39 527,-365.39 527,-343.39 396,-343.39"/>
<polygon fill="none" stroke="black" points="396,-343.39 396,-365.39 527,-365.39 527,-343.39 396,-343.39"/>
<text text-anchor="start" x="401" y="-352.59" font-family="Helvetica,sans-Serif" font-weight="bold" font-size="11.00">data</text>
<text text-anchor="start" x="492" y="-351.59" font-family="Helvetica,sans-Serif" font-size="11.00">[table]</text>
<polygon fill="none" stroke="black" points="396,-325.39 396,-343.39 527,-343.39 527,-325.39 396,-325.39"/>
<text text-anchor="start" x="399" y="-331.59" font-family="Helvetica,sans-Serif" font-size="11.00">...</text>
<polygon fill="#ffffff" stroke="transparent" points="396,-307.39 396,-325.39 418,-325.39 418,-307.39 396,-307.39"/>
<polygon fill="none" stroke="black" points="396,-307.39 396,-325.39 418,-325.39 418,-307.39 396,-307.39"/>
<text text-anchor="start" x="399" y="-313.59" font-family="Helvetica,sans-Serif" font-size="11.00">&lt; 2</text>
<polygon fill="#ffffff" stroke="transparent" points="418,-307.39 418,-325.39 505,-325.39 505,-307.39 418,-307.39"/>
<polygon fill="none" stroke="black" points="418,-307.39 418,-325.39 505,-325.39 505,-307.39 418,-307.39"/>
<text text-anchor="start" x="421" y="-313.59" font-family="Helvetica,sans-Serif" font-size="11.00">10,039,985 rows</text>
<polygon fill="#ffffff" stroke="transparent" points="505,-307.39 505,-325.39 527,-325.39 527,-307.39 505,-307.39"/>
<polygon fill="none" stroke="black" points="505,-307.39 505,-325.39 527,-325.39 527,-307.39 505,-307.39"/>
<text text-anchor="start" x="508" y="-313.59" font-family="Helvetica,sans-Serif" font-size="11.00">7 &gt;</text>
</a>
</g>
</g>
<!-- data&#45;&gt;samples -->
<g id="edge2" class="edge">
<title>data:w&#45;&gt;samples:e</title>
<path fill="none" stroke="black" d="M380.73,-337.42C368.07,-344.01 365.67,-360.38 353,-376.39 332.26,-402.61 346.93,-440.39 313.5,-440.39"/>
<polygon fill="black" stroke="black" points="387.17,-336.05 395.75,-337.92 391.09,-335.22 395,-334.39 395,-334.39 395,-334.39 391.09,-335.22 394.25,-330.87 387.17,-336.05 387.17,-336.05"/>
<ellipse fill="none" stroke="black" cx="384.04" cy="-336.72" rx="3.2" ry="3.2"/>
</g>
<!-- dsdatasample -->
<g id="node4" class="node">
<title>dsdatasample</title>
<g id="a_node4"><a xlink:href="../../tables/dsdatasample.html" xlink:title="dsdatasample" target="_top">
<polygon fill="#ffffff" stroke="transparent" points="403.5,-650.39 403.5,-690.39 518.5,-690.39 518.5,-650.39 403.5,-650.39"/>
<polygon fill="#f5f5f5" stroke="transparent" points="404,-668.39 404,-690.39 519,-690.39 519,-668.39 404,-668.39"/>
<polygon fill="none" stroke="black" points="404,-668.39 404,-690.39 519,-690.39 519,-668.39 404,-668.39"/>
<text text-anchor="start" x="409" y="-677.59" font-family="Helvetica,sans-Serif" font-weight="bold" font-size="11.00">dsdatasample</text>
<text text-anchor="start" x="486" y="-676.59" font-family="Helvetica,sans-Serif" font-size="11.00">[view]</text>
<polygon fill="none" stroke="black" points="404,-650.39 404,-668.39 519,-668.39 519,-650.39 404,-650.39"/>
<text text-anchor="start" x="407" y="-656.59" font-family="Helvetica,sans-Serif" font-size="11.00">...</text>
</a>
</g>
</g>
<!-- dsdatasample&#45;&gt;samples -->
<g id="edge4" class="edge">
<title>dsdatasample:w&#45;&gt;samples:e</title>
<path fill="none" stroke="black" stroke-dasharray="5,2" d="M388.18,-659.04C373.88,-658.05 364.74,-654.3 353,-640.39 294.54,-571.17 404.11,-440.39 313.5,-440.39"/>
<polygon fill="black" stroke="black" points="395,-659.2 402.91,-662.99 399,-659.3 403,-659.39 403,-659.39 403,-659.39 399,-659.3 403.09,-655.79 395,-659.2 395,-659.2"/>
<ellipse fill="none" stroke="black" cx="391.8" cy="-659.13" rx="3.2" ry="3.2"/>
</g>
<!-- dsdatasample&#45;&gt;datasets -->
<g id="edge3" class="edge">
<title>dsdatasample:w&#45;&gt;datasets:e</title>
<path fill="none" stroke="black" stroke-dasharray="5,2" d="M388.46,-658.81C260.37,-648.2 262.98,-497.39 125,-497.39"/>
<polygon fill="black" stroke="black" points="395.01,-659.07 402.85,-662.99 399,-659.23 403,-659.39 403,-659.39 403,-659.39 399,-659.23 403.15,-655.8 395.01,-659.07 395.01,-659.07"/>
<ellipse fill="none" stroke="black" cx="391.81" cy="-658.94" rx="3.2" ry="3.2"/>
</g>
<!-- geochronology -->
<g id="node6" class="node">
<title>geochronology</title>
<g id="a_node6"><a xlink:href="../../tables/geochronology.html" xlink:title="geochronology" target="_top">
<polygon fill="#ffffff" stroke="transparent" points="399,-228.39 399,-286.39 523,-286.39 523,-228.39 399,-228.39"/>
<polygon fill="#f5f5f5" stroke="transparent" points="399,-264.39 399,-286.39 523,-286.39 523,-264.39 399,-264.39"/>
<polygon fill="none" stroke="black" points="399,-264.39 399,-286.39 523,-286.39 523,-264.39 399,-264.39"/>
<text text-anchor="start" x="404" y="-273.59" font-family="Helvetica,sans-Serif" font-weight="bold" font-size="11.00">geochronology</text>
<text text-anchor="start" x="488" y="-272.59" font-family="Helvetica,sans-Serif" font-size="11.00">[table]</text>
<polygon fill="none" stroke="black" points="399,-246.39 399,-264.39 523,-264.39 523,-246.39 399,-246.39"/>
<text text-anchor="start" x="402" y="-252.59" font-family="Helvetica,sans-Serif" font-size="11.00">...</text>
<polygon fill="#ffffff" stroke="transparent" points="399,-228.39 399,-246.39 428,-246.39 428,-228.39 399,-228.39"/>
<polygon fill="none" stroke="black" points="399,-228.39 399,-246.39 428,-246.39 428,-228.39 399,-228.39"/>
<text text-anchor="start" x="402" y="-234.59" font-family="Helvetica,sans-Serif" font-size="11.00">&lt; 3</text>
<polygon fill="#ffffff" stroke="transparent" points="428,-228.39 428,-246.39 497,-246.39 497,-228.39 428,-228.39"/>
<polygon fill="none" stroke="black" points="428,-228.39 428,-246.39 497,-246.39 497,-228.39 428,-228.39"/>
<text text-anchor="start" x="434" y="-234.59" font-family="Helvetica,sans-Serif" font-size="11.00">39,608 rows</text>
<polygon fill="#ffffff" stroke="transparent" points="497,-228.39 497,-246.39 523,-246.39 523,-228.39 497,-228.39"/>
<polygon fill="none" stroke="black" points="497,-228.39 497,-246.39 523,-246.39 523,-228.39 497,-228.39"/>
<text text-anchor="start" x="504" y="-234.59" font-family="Helvetica,sans-Serif" font-size="11.00">3 &gt;</text>
</a>
</g>
</g>
<!-- geochronology&#45;&gt;samples -->
<g id="edge5" class="edge">
<title>geochronology:w&#45;&gt;samples:e</title>
<path fill="none" stroke="black" d="M383.55,-257.75C368.7,-263.45 364.19,-278.93 353,-297.39 318.84,-353.79 379.44,-440.39 313.5,-440.39"/>
<polygon fill="black" stroke="black" points="390.1,-256.68 398.58,-258.95 394.05,-256.04 398,-255.39 398,-255.39 398,-255.39 394.05,-256.04 397.42,-251.84 390.1,-256.68 390.1,-256.68"/>
<ellipse fill="none" stroke="black" cx="386.95" cy="-257.19" rx="3.2" ry="3.2"/>
</g>
<!-- sampleages -->
<g id="node7" class="node">
<title>sampleages</title>
<g id="a_node7"><a xlink:href="../../tables/sampleages.html" xlink:title="sampleages" target="_top">
<polygon fill="#ffffff" stroke="transparent" points="403,-571.39 403,-629.39 519,-629.39 519,-571.39 403,-571.39"/>
<polygon fill="#f5f5f5" stroke="transparent" points="403,-607.39 403,-629.39 519,-629.39 519,-607.39 403,-607.39"/>
<polygon fill="none" stroke="black" points="403,-607.39 403,-629.39 519,-629.39 519,-607.39 403,-607.39"/>
<text text-anchor="start" x="408" y="-616.59" font-family="Helvetica,sans-Serif" font-weight="bold" font-size="11.00">sampleages</text>
<text text-anchor="start" x="484" y="-615.59" font-family="Helvetica,sans-Serif" font-size="11.00">[table]</text>
<polygon fill="none" stroke="black" points="403,-589.39 403,-607.39 519,-607.39 519,-589.39 403,-589.39"/>
<text text-anchor="start" x="406" y="-595.59" font-family="Helvetica,sans-Serif" font-size="11.00">...</text>
<polygon fill="#ffffff" stroke="transparent" points="403,-571.39 403,-589.39 425,-589.39 425,-571.39 403,-571.39"/>
<polygon fill="none" stroke="black" points="403,-571.39 403,-589.39 425,-589.39 425,-571.39 403,-571.39"/>
<text text-anchor="start" x="406" y="-577.59" font-family="Helvetica,sans-Serif" font-size="11.00">&lt; 2</text>
<polygon fill="#ffffff" stroke="transparent" points="425,-571.39 425,-589.39 497,-589.39 497,-571.39 425,-571.39"/>
<polygon fill="none" stroke="black" points="425,-571.39 425,-589.39 497,-589.39 497,-571.39 425,-571.39"/>
<text text-anchor="start" x="428" y="-577.59" font-family="Helvetica,sans-Serif" font-size="11.00">591,749 rows</text>
<polygon fill="#ffffff" stroke="transparent" points="497,-571.39 497,-589.39 519,-589.39 519,-571.39 497,-571.39"/>
<polygon fill="none" stroke="black" points="497,-571.39 497,-589.39 519,-589.39 519,-571.39 497,-571.39"/>
<text text-anchor="start" x="500" y="-577.59" font-family="Helvetica,sans-Serif" font-size="11.00">1 &gt;</text>
</a>
</g>
</g>
<!-- sampleages&#45;&gt;samples -->
<g id="edge6" class="edge">
<title>sampleages:w&#45;&gt;samples:e</title>
<path fill="none" stroke="black" d="M387.3,-596.49C371.79,-591.83 365.51,-578.92 353,-561.39 320.14,-515.34 370.07,-440.39 313.5,-440.39"/>
<polygon fill="black" stroke="black" points="394.07,-597.37 401.54,-601.96 398.03,-597.88 402,-598.39 402,-598.39 402,-598.39 398.03,-597.88 402.46,-594.82 394.07,-597.37 394.07,-597.37"/>
<ellipse fill="none" stroke="black" cx="390.89" cy="-596.95" rx="3.2" ry="3.2"/>
</g>
<!-- sampleanalysts -->
<g id="node8" class="node">
<title>sampleanalysts</title>
<g id="a_node8"><a xlink:href="../../tables/sampleanalysts.html" xlink:title="sampleanalysts" target="_top">
<polygon fill="#ffffff" stroke="transparent" points="398,-492.39 398,-550.39 524,-550.39 524,-492.39 398,-492.39"/>
<polygon fill="#f5f5f5" stroke="transparent" points="398,-528.39 398,-550.39 524,-550.39 524,-528.39 398,-528.39"/>
<polygon fill="none" stroke="black" points="398,-528.39 398,-550.39 524,-550.39 524,-528.39 398,-528.39"/>
<text text-anchor="start" x="403" y="-537.59" font-family="Helvetica,sans-Serif" font-weight="bold" font-size="11.00">sampleanalysts</text>
<text text-anchor="start" x="489" y="-536.59" font-family="Helvetica,sans-Serif" font-size="11.00">[table]</text>
<polygon fill="none" stroke="black" points="398,-510.39 398,-528.39 524,-528.39 524,-510.39 398,-510.39"/>
<text text-anchor="start" x="401" y="-516.59" font-family="Helvetica,sans-Serif" font-size="11.00">...</text>
<polygon fill="#ffffff" stroke="transparent" points="398,-492.39 398,-510.39 429,-510.39 429,-492.39 398,-492.39"/>
<polygon fill="none" stroke="black" points="398,-492.39 398,-510.39 429,-510.39 429,-492.39 398,-492.39"/>
<text text-anchor="start" x="401" y="-498.59" font-family="Helvetica,sans-Serif" font-size="11.00">&lt; 2</text>
<polygon fill="#ffffff" stroke="transparent" points="429,-492.39 429,-510.39 506,-510.39 506,-492.39 429,-492.39"/>
<polygon fill="none" stroke="black" points="429,-492.39 429,-510.39 506,-510.39 506,-492.39 429,-492.39"/>
<text text-anchor="start" x="437" y="-498.59" font-family="Helvetica,sans-Serif" font-size="11.00">304,119 rows</text>
<polygon fill="#ffffff" stroke="transparent" points="506,-492.39 506,-510.39 524,-510.39 524,-492.39 506,-492.39"/>
<polygon fill="none" stroke="black" points="506,-492.39 506,-510.39 524,-510.39 524,-492.39 506,-492.39"/>
<text text-anchor="start" x="514" y="-498.59" font-family="Helvetica,sans-Serif" font-size="11.00"> &#160;</text>
</a>
</g>
</g>
<!-- sampleanalysts&#45;&gt;samples -->
<g id="edge7" class="edge">
<title>sampleanalysts:w&#45;&gt;samples:e</title>
<path fill="none" stroke="black" d="M382.69,-516.22C370.13,-509.36 368.01,-492.61 353,-478.39 335.31,-461.65 337.86,-440.39 313.5,-440.39"/>
<polygon fill="black" stroke="black" points="389.19,-517.66 396.22,-522.91 393.09,-518.53 397,-519.39 397,-519.39 397,-519.39 393.09,-518.53 397.78,-515.88 389.19,-517.66 389.19,-517.66"/>
<ellipse fill="none" stroke="black" cx="386.07" cy="-516.97" rx="3.2" ry="3.2"/>
</g>
<!-- samplekeywords -->
<g id="node9" class="node">
<title>samplekeywords</title>
<g id="a_node9"><a xlink:href="../../tables/samplekeywords.html" xlink:title="samplekeywords" target="_top">
<polygon fill="#ffffff" stroke="transparent" points="361,-75.39 361,-207.39 561,-207.39 561,-75.39 361,-75.39"/>
<polygon fill="#f5f5f5" stroke="transparent" points="363,-183.39 363,-205.39 559,-205.39 559,-183.39 363,-183.39"/>
<polygon fill="none" stroke="black" points="363,-183.39 363,-205.39 559,-205.39 559,-183.39 363,-183.39"/>
<text text-anchor="start" x="368" y="-192.59" font-family="Helvetica,sans-Serif" font-weight="bold" font-size="11.00">samplekeywords</text>
<text text-anchor="start" x="524" y="-191.59" font-family="Helvetica,sans-Serif" font-size="11.00">[table]</text>
<polygon fill="none" stroke="black" points="363,-161.39 363,-183.39 485,-183.39 485,-161.39 363,-161.39"/>
<image xlink:href="../../images/primaryKeys.png" width="11px" height="12px" preserveAspectRatio="xMinYMin meet" x="368" y="-178.394"/>
<text text-anchor="start" x="383" y="-169.59" font-family="Helvetica,sans-Serif" font-size="11.00">sampleid</text>
<polygon fill="none" stroke="black" points="485,-161.39 485,-183.39 559,-183.39 559,-161.39 485,-161.39"/>
<text text-anchor="start" x="488" y="-169.59" font-family="Helvetica,sans-Serif" font-size="11.00">int4[10]</text>
<polygon fill="none" stroke="black" points="363,-139.39 363,-161.39 485,-161.39 485,-139.39 363,-139.39"/>
<image xlink:href="../../images/primaryKeys.png" width="11px" height="12px" preserveAspectRatio="xMinYMin meet" x="368" y="-156.394"/>
<text text-anchor="start" x="383" y="-147.59" font-family="Helvetica,sans-Serif" font-size="11.00">keywordid</text>
<polygon fill="none" stroke="black" points="485,-139.39 485,-161.39 559,-161.39 559,-139.39 485,-139.39"/>
<text text-anchor="start" x="488" y="-147.59" font-family="Helvetica,sans-Serif" font-size="11.00">int4[10]</text>
<polygon fill="none" stroke="black" points="363,-117.39 363,-139.39 485,-139.39 485,-117.39 363,-117.39"/>
<text text-anchor="start" x="383" y="-125.59" font-family="Helvetica,sans-Serif" font-size="11.00">recdatecreated</text>
<polygon fill="none" stroke="black" points="485,-117.39 485,-139.39 559,-139.39 559,-117.39 485,-117.39"/>
<text text-anchor="start" x="488" y="-125.59" font-family="Helvetica,sans-Serif" font-size="11.00">timestamp[22]</text>
<polygon fill="none" stroke="black" points="363,-95.39 363,-117.39 485,-117.39 485,-95.39 363,-95.39"/>
<text text-anchor="start" x="383" y="-103.59" font-family="Helvetica,sans-Serif" font-size="11.00">recdatemodified</text>
<polygon fill="none" stroke="black" points="485,-95.39 485,-117.39 559,-117.39 559,-95.39 485,-95.39"/>
<text text-anchor="start" x="488" y="-103.59" font-family="Helvetica,sans-Serif" font-size="11.00">timestamp[22]</text>
<polygon fill="#ffffff" stroke="transparent" points="363,-77.39 363,-95.39 402,-95.39 402,-77.39 363,-77.39"/>
<polygon fill="none" stroke="black" points="363,-77.39 363,-95.39 402,-95.39 402,-77.39 363,-77.39"/>
<text text-anchor="start" x="366" y="-83.59" font-family="Helvetica,sans-Serif" font-size="11.00">&lt; 2</text>
<polygon fill="#ffffff" stroke="transparent" points="402,-77.39 402,-95.39 485,-95.39 485,-77.39 402,-77.39"/>
<polygon fill="none" stroke="black" points="402,-77.39 402,-95.39 485,-95.39 485,-77.39 402,-77.39"/>
<text text-anchor="start" x="422" y="-83.59" font-family="Helvetica,sans-Serif" font-size="11.00">17,904 rows</text>
<polygon fill="#ffffff" stroke="transparent" points="485,-77.39 485,-95.39 559,-95.39 559,-77.39 485,-77.39"/>
<polygon fill="none" stroke="black" points="485,-77.39 485,-95.39 559,-95.39 559,-77.39 485,-77.39"/>
<text text-anchor="start" x="540" y="-83.59" font-family="Helvetica,sans-Serif" font-size="11.00">0 &gt;</text>
<polygon fill="none" stroke="black" stroke-width="2" points="362,-76.39 362,-206.39 560,-206.39 560,-76.39 362,-76.39"/>
</a>
</g>
</g>
<!-- samplekeywords&#45;&gt;samples -->
<g id="edge9" class="edge">
<title>samplekeywords:w&#45;&gt;samples:e</title>
<path fill="none" stroke="black" d="M348.72,-178.49C313.44,-218.39 368.59,-440.39 313.5,-440.39"/>
<polygon fill="black" stroke="black" points="354.73,-175.73 363.5,-175.67 358.37,-174.06 362,-172.39 362,-172.39 362,-172.39 358.37,-174.06 360.5,-169.12 354.73,-175.73 354.73,-175.73"/>
<ellipse fill="none" stroke="black" cx="351.82" cy="-177.07" rx="3.2" ry="3.2"/>
</g>
<!-- keywords -->
<g id="node10" class="node">
<title>keywords</title>
<g id="a_node10"><a xlink:href="../../tables/keywords.html" xlink:title="keywords" target="_top">
<polygon fill="#ffffff" stroke="transparent" points="182.5,-103.39 182.5,-183.39 302.5,-183.39 302.5,-103.39 182.5,-103.39"/>
<polygon fill="#f5f5f5" stroke="transparent" points="182.5,-161.39 182.5,-183.39 302.5,-183.39 302.5,-161.39 182.5,-161.39"/>
<polygon fill="none" stroke="black" points="182.5,-161.39 182.5,-183.39 302.5,-183.39 302.5,-161.39 182.5,-161.39"/>
<text text-anchor="start" x="187.5" y="-170.59" font-family="Helvetica,sans-Serif" font-weight="bold" font-size="11.00">keywords</text>
<text text-anchor="start" x="267.5" y="-169.59" font-family="Helvetica,sans-Serif" font-size="11.00">[table]</text>
<polygon fill="none" stroke="black" points="182.5,-139.39 182.5,-161.39 302.5,-161.39 302.5,-139.39 182.5,-139.39"/>
<image xlink:href="../../images/primaryKeys.png" width="11px" height="12px" preserveAspectRatio="xMinYMin meet" x="187.5" y="-156.394"/>
<text text-anchor="start" x="202.5" y="-147.59" font-family="Helvetica,sans-Serif" font-size="11.00">keywordid</text>
<polygon fill="none" stroke="black" points="182.5,-121.39 182.5,-139.39 302.5,-139.39 302.5,-121.39 182.5,-121.39"/>
<text text-anchor="start" x="185.5" y="-127.59" font-family="Helvetica,sans-Serif" font-size="11.00">...</text>
<polygon fill="#ffffff" stroke="transparent" points="182.5,-103.39 182.5,-121.39 218.5,-121.39 218.5,-103.39 182.5,-103.39"/>
<polygon fill="none" stroke="black" points="182.5,-103.39 182.5,-121.39 218.5,-121.39 218.5,-103.39 182.5,-103.39"/>
<text text-anchor="start" x="185.5" y="-109.59" font-family="Helvetica,sans-Serif" font-size="11.00"> &#160;</text>
<polygon fill="#ffffff" stroke="transparent" points="218.5,-103.39 218.5,-121.39 268.5,-121.39 268.5,-103.39 218.5,-103.39"/>
<polygon fill="none" stroke="black" points="218.5,-103.39 218.5,-121.39 268.5,-121.39 268.5,-103.39 218.5,-103.39"/>
<text text-anchor="start" x="232.5" y="-109.59" font-family="Helvetica,sans-Serif" font-size="11.00">5 rows</text>
<polygon fill="#ffffff" stroke="transparent" points="268.5,-103.39 268.5,-121.39 302.5,-121.39 302.5,-103.39 268.5,-103.39"/>
<polygon fill="none" stroke="black" points="268.5,-103.39 268.5,-121.39 302.5,-121.39 302.5,-103.39 268.5,-103.39"/>
<text text-anchor="start" x="283.5" y="-109.59" font-family="Helvetica,sans-Serif" font-size="11.00">1 &gt;</text>
</a>
</g>
</g>
<!-- samplekeywords&#45;&gt;keywords -->
<g id="edge8" class="edge">
<title>samplekeywords:w&#45;&gt;keywords:e</title>
<path fill="none" stroke="black" d="M347.33,-150.39C332.22,-150.39 323.81,-150.39 303.5,-150.39"/>
<polygon fill="black" stroke="black" points="354,-150.39 362,-153.99 358,-150.39 362,-150.39 362,-150.39 362,-150.39 358,-150.39 362,-146.79 354,-150.39 354,-150.39"/>
<ellipse fill="none" stroke="black" cx="350.8" cy="-150.39" rx="3.2" ry="3.2"/>
</g>
<!-- specimendates -->
<g id="node13" class="node">
<title>specimendates</title>
<g id="a_node13"><a xlink:href="../../tables/specimendates.html" xlink:title="specimendates" target="_top">
<polygon fill="#ffffff" stroke="transparent" points="610,-228.39 610,-286.39 733,-286.39 733,-228.39 610,-228.39"/>
<polygon fill="#f5f5f5" stroke="transparent" points="610.5,-264.39 610.5,-286.39 733.5,-286.39 733.5,-264.39 610.5,-264.39"/>
<polygon fill="none" stroke="black" points="610.5,-264.39 610.5,-286.39 733.5,-286.39 733.5,-264.39 610.5,-264.39"/>
<text text-anchor="start" x="615.5" y="-273.59" font-family="Helvetica,sans-Serif" font-weight="bold" font-size="11.00">specimendates</text>
<text text-anchor="start" x="698.5" y="-272.59" font-family="Helvetica,sans-Serif" font-size="11.00">[table]</text>
<polygon fill="none" stroke="black" points="610.5,-246.39 610.5,-264.39 733.5,-264.39 733.5,-246.39 610.5,-246.39"/>
<text text-anchor="start" x="613.5" y="-252.59" font-family="Helvetica,sans-Serif" font-size="11.00">...</text>
<polygon fill="#ffffff" stroke="transparent" points="610.5,-228.39 610.5,-246.39 641.5,-246.39 641.5,-228.39 610.5,-228.39"/>
<polygon fill="none" stroke="black" points="610.5,-228.39 610.5,-246.39 641.5,-246.39 641.5,-228.39 610.5,-228.39"/>
<text text-anchor="start" x="613.5" y="-234.59" font-family="Helvetica,sans-Serif" font-size="11.00">&lt; 6</text>
<polygon fill="#ffffff" stroke="transparent" points="641.5,-228.39 641.5,-246.39 706.5,-246.39 706.5,-228.39 641.5,-228.39"/>
<polygon fill="none" stroke="black" points="641.5,-228.39 641.5,-246.39 706.5,-246.39 706.5,-228.39 641.5,-228.39"/>
<text text-anchor="start" x="649.5" y="-234.59" font-family="Helvetica,sans-Serif" font-size="11.00">2,662 rows</text>
<polygon fill="#ffffff" stroke="transparent" points="706.5,-228.39 706.5,-246.39 733.5,-246.39 733.5,-228.39 706.5,-228.39"/>
<polygon fill="none" stroke="black" points="706.5,-228.39 706.5,-246.39 733.5,-246.39 733.5,-228.39 706.5,-228.39"/>
<text text-anchor="start" x="714.5" y="-234.59" font-family="Helvetica,sans-Serif" font-size="11.00">1 &gt;</text>
</a>
</g>
</g>
<!-- specimendates&#45;&gt;samples -->
<g id="edge14" class="edge">
<title>specimendates:w&#45;&gt;samples:e</title>
<path fill="none" stroke="black" d="M594.87,-257.01C533.11,-272.88 634.82,-401.57 569,-455.39 531.84,-485.78 400.21,-464.06 353,-455.39 334.53,-452 332.28,-440.39 313.5,-440.39"/>
<polygon fill="black" stroke="black" points="601.55,-256.27 609.9,-258.97 605.52,-255.83 609.5,-255.39 609.5,-255.39 609.5,-255.39 605.52,-255.83 609.1,-251.82 601.55,-256.27 601.55,-256.27"/>
<ellipse fill="none" stroke="black" cx="598.37" cy="-256.62" rx="3.2" ry="3.2"/>
</g>
<!-- specimendates&#45;&gt;geochronology -->
<g id="edge13" class="edge">
<title>specimendates:w&#45;&gt;geochronology:e</title>
<path fill="none" stroke="black" d="M595,-255.39C568.26,-255.39 556.66,-255.39 524,-255.39"/>
<polygon fill="black" stroke="black" points="601.5,-255.39 609.5,-258.99 605.5,-255.39 609.5,-255.39 609.5,-255.39 609.5,-255.39 605.5,-255.39 609.5,-251.79 601.5,-255.39 601.5,-255.39"/>
<ellipse fill="none" stroke="black" cx="598.3" cy="-255.39" rx="3.2" ry="3.2"/>
</g>
<!-- specimendates&#45;&gt;taxa -->
<g id="edge15" class="edge">
<title>specimendates:w&#45;&gt;taxa:e</title>
<path fill="none" stroke="black" d="M595.12,-253.75C536.63,-238.15 632.08,-115.5 569,-64.39 499.08,-7.74 234.14,-34.79 165,-92.39 122.78,-127.57 179.95,-209.39 125,-209.39"/>
<polygon fill="black" stroke="black" points="601.55,-254.49 609.09,-258.97 605.53,-254.94 609.5,-255.39 609.5,-255.39 609.5,-255.39 605.53,-254.94 609.91,-251.82 601.55,-254.49 601.55,-254.49"/>
<ellipse fill="none" stroke="black" cx="598.37" cy="-254.12" rx="3.2" ry="3.2"/>
</g>
</g>
</svg>
