<?xml version="1.0" encoding="UTF-8" standalone="no"?>
<!DOCTYPE svg PUBLIC "-//W3C//DTD SVG 1.1//EN"
 "http://www.w3.org/Graphics/SVG/1.1/DTD/svg11.dtd">
<!-- Generated by graphviz version 2.43.0 (0)
 -->
<!-- Title: oneDegreeRelationshipsDiagram Pages: 1 -->
<svg width="796pt" height="1030pt"
 viewBox="0.00 0.00 796.00 1030.00" xmlns="http://www.w3.org/2000/svg" xmlns:xlink="http://www.w3.org/1999/xlink">
<g id="graph0" class="graph" transform="scale(1 1) rotate(0) translate(4 1026)">
<title>oneDegreeRelationshipsDiagram</title>
<polygon fill="#ffffff" stroke="transparent" points="-4,4 -4,-1026 792,-1026 792,4 -4,4"/>
<text text-anchor="middle" x="71.5" y="-7.2" font-family="Helvetica,sans-Serif" font-size="11.00">Generated by SchemaSpy</text>
<!-- aggregatesamples -->
<g id="node1" class="node">
<title>aggregatesamples</title>
<g id="a_node1"><a xlink:href="../../tables/aggregatesamples.html" xlink:title="aggregatesamples" target="_top">
<polygon fill="#ffffff" stroke="transparent" points="467,-700 467,-802 608,-802 608,-700 467,-700"/>
<polygon fill="#f5f5f5" stroke="transparent" points="467.5,-780 467.5,-802 608.5,-802 608.5,-780 467.5,-780"/>
<polygon fill="none" stroke="black" points="467.5,-780 467.5,-802 608.5,-802 608.5,-780 467.5,-780"/>
<text text-anchor="start" x="472.5" y="-789.2" font-family="Helvetica,sans-Serif" font-weight="bold" font-size="11.00">aggregatesamples</text>
<text text-anchor="start" x="573.5" y="-788.2" font-family="Helvetica,sans-Serif" font-size="11.00">[table]</text>
<polygon fill="none" stroke="black" points="467.5,-758 467.5,-780 608.5,-780 608.5,-758 467.5,-758"/>
<image xlink:href="../../images/primaryKeys.png" width="11px" height="12px" preserveAspectRatio="xMinYMin meet" x="472.5" y="-775"/>
<text text-anchor="start" x="488.5" y="-766.2" font-family="Helvetica,sans-Serif" font-size="11.00">aggregatedatasetid</text>
<polygon fill="none" stroke="black" points="467.5,-736 467.5,-758 608.5,-758 608.5,-736 467.5,-736"/>
<image xlink:href="../../images/primaryKeys.png" width="11px" height="12px" preserveAspectRatio="xMinYMin meet" x="472.5" y="-753"/>
<text text-anchor="start" x="488.5" y="-744.2" font-family="Helvetica,sans-Serif" font-size="11.00">sampleid</text>
<polygon fill="none" stroke="black" points="467.5,-718 467.5,-736 608.5,-736 608.5,-718 467.5,-718"/>
<text text-anchor="start" x="470.5" y="-724.2" font-family="Helvetica,sans-Serif" font-size="11.00">...</text>
<polygon fill="#ffffff" stroke="transparent" points="467.5,-700 467.5,-718 516.5,-718 516.5,-700 467.5,-700"/>
<polygon fill="none" stroke="black" points="467.5,-700 467.5,-718 516.5,-718 516.5,-700 467.5,-700"/>
<text text-anchor="start" x="470.5" y="-706.2" font-family="Helvetica,sans-Serif" font-size="11.00">&lt; 2</text>
<polygon fill="#ffffff" stroke="transparent" points="516.5,-700 516.5,-718 581.5,-718 581.5,-700 516.5,-700"/>
<polygon fill="none" stroke="black" points="516.5,-700 516.5,-718 581.5,-718 581.5,-700 516.5,-700"/>
<text text-anchor="start" x="533.5" y="-706.2" font-family="Helvetica,sans-Serif" font-size="11.00">553 rows</text>
<polygon fill="#ffffff" stroke="transparent" points="581.5,-700 581.5,-718 608.5,-718 608.5,-700 581.5,-700"/>
<polygon fill="none" stroke="black" points="581.5,-700 581.5,-718 608.5,-718 608.5,-700 581.5,-700"/>
<text text-anchor="start" x="598.5" y="-706.2" font-family="Helvetica,sans-Serif" font-size="11.00"> &#160;</text>
</a>
</g>
</g>
<!-- samples -->
<g id="node2" class="node">
<title>samples</title>
<g id="a_node2"><a xlink:href="../../tables/samples.html" xlink:title="samples" target="_top">
<polygon fill="#ffffff" stroke="transparent" points="185,-278 185,-586 418,-586 418,-278 185,-278"/>
<polygon fill="#f5f5f5" stroke="transparent" points="187.5,-562 187.5,-584 416.5,-584 416.5,-562 187.5,-562"/>
<polygon fill="none" stroke="black" points="187.5,-562 187.5,-584 416.5,-584 416.5,-562 187.5,-562"/>
<text text-anchor="start" x="192.5" y="-571.2" font-family="Helvetica,sans-Serif" font-weight="bold" font-size="11.00">samples</text>
<text text-anchor="start" x="381.5" y="-570.2" font-family="Helvetica,sans-Serif" font-size="11.00">[table]</text>
<polygon fill="none" stroke="black" points="187.5,-540 187.5,-562 326.5,-562 326.5,-540 187.5,-540"/>
<image xlink:href="../../images/primaryKeys.png" width="11px" height="12px" preserveAspectRatio="xMinYMin meet" x="192.5" y="-557"/>
<text text-anchor="start" x="207.5" y="-548.2" font-family="Helvetica,sans-Serif" font-size="11.00">sampleid</text>
<polygon fill="none" stroke="black" points="326.5,-540 326.5,-562 416.5,-562 416.5,-540 326.5,-540"/>
<text text-anchor="start" x="329.5" y="-548.2" font-family="Helvetica,sans-Serif" font-size="11.00">serial[10]</text>
<polygon fill="#ffffff" stroke="transparent" points="187.5,-518 187.5,-540 326.5,-540 326.5,-518 187.5,-518"/>
<polygon fill="none" stroke="black" points="187.5,-518 187.5,-540 326.5,-540 326.5,-518 187.5,-518"/>
<image xlink:href="../../images/foreignKeys.png" width="11px" height="12px" preserveAspectRatio="xMinYMin meet" x="192.5" y="-535"/>
<text text-anchor="start" x="207.5" y="-526.2" font-family="Helvetica,sans-Serif" font-size="11.00">analysisunitid</text>
<polygon fill="none" stroke="black" points="326.5,-518 326.5,-540 416.5,-540 416.5,-518 326.5,-518"/>
<text text-anchor="start" x="329.5" y="-526.2" font-family="Helvetica,sans-Serif" font-size="11.00">int4[10]</text>
<polygon fill="#ffffff" stroke="transparent" points="187.5,-496 187.5,-518 326.5,-518 326.5,-496 187.5,-496"/>
<polygon fill="none" stroke="black" points="187.5,-496 187.5,-518 326.5,-518 326.5,-496 187.5,-496"/>
<image xlink:href="../../images/foreignKeys.png" width="11px" height="12px" preserveAspectRatio="xMinYMin meet" x="192.5" y="-513"/>
<text text-anchor="start" x="207.5" y="-504.2" font-family="Helvetica,sans-Serif" font-size="11.00">datasetid</text>
<polygon fill="none" stroke="black" points="326.5,-496 326.5,-518 416.5,-518 416.5,-496 326.5,-496"/>
<text text-anchor="start" x="329.5" y="-504.2" font-family="Helvetica,sans-Serif" font-size="11.00">int4[10]</text>
<polygon fill="none" stroke="black" points="187.5,-474 187.5,-496 326.5,-496 326.5,-474 187.5,-474"/>
<text text-anchor="start" x="207.5" y="-482.2" font-family="Helvetica,sans-Serif" font-size="11.00">samplename</text>
<polygon fill="none" stroke="black" points="326.5,-474 326.5,-496 416.5,-496 416.5,-474 326.5,-474"/>
<text text-anchor="start" x="329.5" y="-482.2" font-family="Helvetica,sans-Serif" font-size="11.00">varchar[80]</text>
<polygon fill="none" stroke="black" points="187.5,-452 187.5,-474 326.5,-474 326.5,-452 187.5,-452"/>
<text text-anchor="start" x="207.5" y="-460.2" font-family="Helvetica,sans-Serif" font-size="11.00">analysisdate</text>
<polygon fill="none" stroke="black" points="326.5,-452 326.5,-474 416.5,-474 416.5,-452 326.5,-452"/>
<text text-anchor="start" x="329.5" y="-460.2" font-family="Helvetica,sans-Serif" font-size="11.00">date[13]</text>
<polygon fill="none" stroke="black" points="187.5,-430 187.5,-452 326.5,-452 326.5,-430 187.5,-430"/>
<text text-anchor="start" x="207.5" y="-438.2" font-family="Helvetica,sans-Serif" font-size="11.00">labnumber</text>
<polygon fill="none" stroke="black" points="326.5,-430 326.5,-452 416.5,-452 416.5,-430 326.5,-430"/>
<text text-anchor="start" x="329.5" y="-438.2" font-family="Helvetica,sans-Serif" font-size="11.00">varchar[40]</text>
<polygon fill="none" stroke="black" points="187.5,-408 187.5,-430 326.5,-430 326.5,-408 187.5,-408"/>
<text text-anchor="start" x="207.5" y="-416.2" font-family="Helvetica,sans-Serif" font-size="11.00">preparationmethod</text>
<polygon fill="none" stroke="black" points="326.5,-408 326.5,-430 416.5,-430 416.5,-408 326.5,-408"/>
<text text-anchor="start" x="329.5" y="-416.2" font-family="Helvetica,sans-Serif" font-size="11.00">text[2147483647]</text>
<polygon fill="none" stroke="black" points="187.5,-386 187.5,-408 326.5,-408 326.5,-386 187.5,-386"/>
<text text-anchor="start" x="207.5" y="-394.2" font-family="Helvetica,sans-Serif" font-size="11.00">notes</text>
<polygon fill="none" stroke="black" points="326.5,-386 326.5,-408 416.5,-408 416.5,-386 326.5,-386"/>
<text text-anchor="start" x="329.5" y="-394.2" font-family="Helvetica,sans-Serif" font-size="11.00">text[2147483647]</text>
<polygon fill="none" stroke="black" points="187.5,-364 187.5,-386 326.5,-386 326.5,-364 187.5,-364"/>
<text text-anchor="start" x="207.5" y="-372.2" font-family="Helvetica,sans-Serif" font-size="11.00">recdatecreated</text>
<polygon fill="none" stroke="black" points="326.5,-364 326.5,-386 416.5,-386 416.5,-364 326.5,-364"/>
<text text-anchor="start" x="329.5" y="-372.2" font-family="Helvetica,sans-Serif" font-size="11.00">timestamp[22]</text>
<polygon fill="none" stroke="black" points="187.5,-342 187.5,-364 326.5,-364 326.5,-342 187.5,-342"/>
<text text-anchor="start" x="207.5" y="-350.2" font-family="Helvetica,sans-Serif" font-size="11.00">recdatemodified</text>
<polygon fill="none" stroke="black" points="326.5,-342 326.5,-364 416.5,-364 416.5,-342 326.5,-342"/>
<text text-anchor="start" x="329.5" y="-350.2" font-family="Helvetica,sans-Serif" font-size="11.00">timestamp[22]</text>
<polygon fill="none" stroke="black" points="187.5,-320 187.5,-342 326.5,-342 326.5,-320 187.5,-320"/>
<text text-anchor="start" x="207.5" y="-328.2" font-family="Helvetica,sans-Serif" font-size="11.00">sampledate</text>
<polygon fill="none" stroke="black" points="326.5,-320 326.5,-342 416.5,-342 416.5,-320 326.5,-320"/>
<text text-anchor="start" x="329.5" y="-328.2" font-family="Helvetica,sans-Serif" font-size="11.00">date[13]</text>
<polygon fill="#ffffff" stroke="transparent" points="187.5,-298 187.5,-320 326.5,-320 326.5,-298 187.5,-298"/>
<polygon fill="none" stroke="black" points="187.5,-298 187.5,-320 326.5,-320 326.5,-298 187.5,-298"/>
<image xlink:href="../../images/foreignKeys.png" width="11px" height="12px" preserveAspectRatio="xMinYMin meet" x="192.5" y="-315"/>
<text text-anchor="start" x="207.5" y="-306.2" font-family="Helvetica,sans-Serif" font-size="11.00">taxonid</text>
<polygon fill="none" stroke="black" points="326.5,-298 326.5,-320 416.5,-320 416.5,-298 326.5,-298"/>
<text text-anchor="start" x="329.5" y="-306.2" font-family="Helvetica,sans-Serif" font-size="11.00">int4[10]</text>
<polygon fill="#ffffff" stroke="transparent" points="187.5,-280 187.5,-298 231.5,-298 231.5,-280 187.5,-280"/>
<polygon fill="none" stroke="black" points="187.5,-280 187.5,-298 231.5,-298 231.5,-280 187.5,-280"/>
<text text-anchor="start" x="190.5" y="-286.2" font-family="Helvetica,sans-Serif" font-size="11.00">&lt; 3</text>
<polygon fill="#ffffff" stroke="transparent" points="231.5,-280 231.5,-298 326.5,-298 326.5,-280 231.5,-280"/>
<polygon fill="none" stroke="black" points="231.5,-280 231.5,-298 326.5,-298 326.5,-280 231.5,-280"/>
<text text-anchor="start" x="257.5" y="-286.2" font-family="Helvetica,sans-Serif" font-size="11.00">541,654 rows</text>
<polygon fill="#ffffff" stroke="transparent" points="326.5,-280 326.5,-298 416.5,-298 416.5,-280 326.5,-280"/>
<polygon fill="none" stroke="black" points="326.5,-280 326.5,-298 416.5,-298 416.5,-280 326.5,-280"/>
<text text-anchor="start" x="397.5" y="-286.2" font-family="Helvetica,sans-Serif" font-size="11.00">7 &gt;</text>
<polygon fill="none" stroke="black" stroke-width="2" points="186,-279 186,-585 417,-585 417,-279 186,-279"/>
</a>
</g>
</g>
<!-- aggregatesamples&#45;&gt;samples -->
<g id="edge1" class="edge">
<title>aggregatesamples:w&#45;&gt;samples:e</title>
<path fill="none" stroke="black" d="M452.14,-744.8C392.17,-723.27 501.68,-551 417.5,-551"/>
<polygon fill="black" stroke="black" points="458.59,-745.79 465.95,-750.56 462.55,-746.39 466.5,-747 466.5,-747 466.5,-747 462.55,-746.39 467.05,-743.44 458.59,-745.79 458.59,-745.79"/>
<ellipse fill="none" stroke="black" cx="455.43" cy="-745.3" rx="3.2" ry="3.2"/>
</g>
<!-- analysisunits -->
<g id="node8" class="node">
<title>analysisunits</title>
<g id="a_node8"><a xlink:href="../../tables/analysisunits.html" xlink:title="analysisunits" target="_top">
<polygon fill="#ffffff" stroke="transparent" points="8,-484 8,-608 136,-608 136,-484 8,-484"/>
<polygon fill="#f5f5f5" stroke="transparent" points="8,-586 8,-608 136,-608 136,-586 8,-586"/>
<polygon fill="none" stroke="black" points="8,-586 8,-608 136,-608 136,-586 8,-586"/>
<text text-anchor="start" x="13" y="-595.2" font-family="Helvetica,sans-Serif" font-weight="bold" font-size="11.00">analysisunits</text>
<text text-anchor="start" x="101" y="-594.2" font-family="Helvetica,sans-Serif" font-size="11.00">[table]</text>
<polygon fill="none" stroke="black" points="8,-564 8,-586 136,-586 136,-564 8,-564"/>
<image xlink:href="../../images/primaryKeys.png" width="11px" height="12px" preserveAspectRatio="xMinYMin meet" x="13" y="-581"/>
<text text-anchor="start" x="28" y="-572.2" font-family="Helvetica,sans-Serif" font-size="11.00">analysisunitid</text>
<polygon fill="#ffffff" stroke="transparent" points="8,-542 8,-564 136,-564 136,-542 8,-542"/>
<polygon fill="none" stroke="black" points="8,-542 8,-564 136,-564 136,-542 8,-542"/>
<image xlink:href="../../images/foreignKeys.png" width="11px" height="12px" preserveAspectRatio="xMinYMin meet" x="13" y="-559"/>
<text text-anchor="start" x="28" y="-550.2" font-family="Helvetica,sans-Serif" font-size="11.00">collectionunitid</text>
<polygon fill="#ffffff" stroke="transparent" points="8,-520 8,-542 136,-542 136,-520 8,-520"/>
<polygon fill="none" stroke="black" points="8,-520 8,-542 136,-542 136,-520 8,-520"/>
<image xlink:href="../../images/foreignKeys.png" width="11px" height="12px" preserveAspectRatio="xMinYMin meet" x="13" y="-537"/>
<text text-anchor="start" x="28" y="-528.2" font-family="Helvetica,sans-Serif" font-size="11.00">faciesid</text>
<polygon fill="none" stroke="black" points="8,-502 8,-520 136,-520 136,-502 8,-502"/>
<text text-anchor="start" x="11" y="-508.2" font-family="Helvetica,sans-Serif" font-size="11.00">...</text>
<polygon fill="#ffffff" stroke="transparent" points="8,-484 8,-502 33,-502 33,-484 8,-484"/>
<polygon fill="none" stroke="black" points="8,-484 8,-502 33,-502 33,-484 8,-484"/>
<text text-anchor="start" x="11" y="-490.2" font-family="Helvetica,sans-Serif" font-size="11.00">&lt; 2</text>
<polygon fill="#ffffff" stroke="transparent" points="33,-484 33,-502 106,-502 106,-484 33,-484"/>
<polygon fill="none" stroke="black" points="33,-484 33,-502 106,-502 106,-484 33,-484"/>
<text text-anchor="start" x="37" y="-490.2" font-family="Helvetica,sans-Serif" font-size="11.00">486,580 rows</text>
<polygon fill="#ffffff" stroke="transparent" points="106,-484 106,-502 136,-502 136,-484 106,-484"/>
<polygon fill="none" stroke="black" points="106,-484 106,-502 136,-502 136,-484 106,-484"/>
<text text-anchor="start" x="111" y="-490.2" font-family="Helvetica,sans-Serif" font-size="11.00">10 &gt;</text>
</a>
</g>
</g>
<!-- samples&#45;&gt;analysisunits -->
<g id="edge7" class="edge">
<title>samples:w&#45;&gt;analysisunits:e</title>
<path fill="none" stroke="black" d="M172.54,-533.92C159.08,-545.79 160.93,-575 137,-575"/>
<polygon fill="black" stroke="black" points="178.96,-531.66 187.7,-532.39 182.73,-530.33 186.5,-529 186.5,-529 186.5,-529 182.73,-530.33 185.3,-525.61 178.96,-531.66 178.96,-531.66"/>
<ellipse fill="none" stroke="black" cx="175.94" cy="-532.73" rx="3.2" ry="3.2"/>
</g>
<!-- datasets -->
<g id="node9" class="node">
<title>datasets</title>
<g id="a_node9"><a xlink:href="../../tables/datasets.html" xlink:title="datasets" target="_top">
<polygon fill="#ffffff" stroke="transparent" points="12,-317 12,-463 132,-463 132,-317 12,-317"/>
<polygon fill="#f5f5f5" stroke="transparent" points="12,-441 12,-463 132,-463 132,-441 12,-441"/>
<polygon fill="none" stroke="black" points="12,-441 12,-463 132,-463 132,-441 12,-441"/>
<text text-anchor="start" x="17" y="-450.2" font-family="Helvetica,sans-Serif" font-weight="bold" font-size="11.00">datasets</text>
<text text-anchor="start" x="97" y="-449.2" font-family="Helvetica,sans-Serif" font-size="11.00">[table]</text>
<polygon fill="none" stroke="black" points="12,-419 12,-441 132,-441 132,-419 12,-419"/>
<image xlink:href="../../images/primaryKeys.png" width="11px" height="12px" preserveAspectRatio="xMinYMin meet" x="17" y="-436"/>
<text text-anchor="start" x="32" y="-427.2" font-family="Helvetica,sans-Serif" font-size="11.00">datasetid</text>
<polygon fill="#ffffff" stroke="transparent" points="12,-397 12,-419 132,-419 132,-397 12,-397"/>
<polygon fill="none" stroke="black" points="12,-397 12,-419 132,-419 132,-397 12,-397"/>
<image xlink:href="../../images/foreignKeys.png" width="11px" height="12px" preserveAspectRatio="xMinYMin meet" x="17" y="-414"/>
<text text-anchor="start" x="32" y="-405.2" font-family="Helvetica,sans-Serif" font-size="11.00">collectionunitid</text>
<polygon fill="#ffffff" stroke="transparent" points="12,-375 12,-397 132,-397 132,-375 12,-375"/>
<polygon fill="none" stroke="black" points="12,-375 12,-397 132,-397 132,-375 12,-375"/>
<image xlink:href="../../images/foreignKeys.png" width="11px" height="12px" preserveAspectRatio="xMinYMin meet" x="17" y="-392"/>
<text text-anchor="start" x="32" y="-383.2" font-family="Helvetica,sans-Serif" font-size="11.00">datasettypeid</text>
<polygon fill="none" stroke="black" points="12,-353 12,-375 132,-375 132,-353 12,-353"/>
<image xlink:href="../../images/foreignKeys.png" width="11px" height="12px" preserveAspectRatio="xMinYMin meet" x="17" y="-370"/>
<text text-anchor="start" x="32" y="-361.2" font-family="Helvetica,sans-Serif" font-size="11.00">embargoid</text>
<polygon fill="none" stroke="black" points="12,-335 12,-353 132,-353 132,-335 12,-335"/>
<text text-anchor="start" x="15" y="-341.2" font-family="Helvetica,sans-Serif" font-size="11.00">...</text>
<polygon fill="#ffffff" stroke="transparent" points="12,-317 12,-335 36,-335 36,-317 12,-317"/>
<polygon fill="none" stroke="black" points="12,-317 12,-335 36,-335 36,-317 12,-317"/>
<text text-anchor="start" x="15" y="-323.2" font-family="Helvetica,sans-Serif" font-size="11.00">&lt; 3</text>
<polygon fill="#ffffff" stroke="transparent" points="36,-317 36,-335 103,-335 103,-317 36,-317"/>
<polygon fill="none" stroke="black" points="36,-317 36,-335 103,-335 103,-317 36,-317"/>
<text text-anchor="start" x="40" y="-323.2" font-family="Helvetica,sans-Serif" font-size="11.00">49,780 rows</text>
<polygon fill="#ffffff" stroke="transparent" points="103,-317 103,-335 132,-335 132,-317 103,-317"/>
<polygon fill="none" stroke="black" points="103,-317 103,-335 132,-335 132,-317 103,-317"/>
<text text-anchor="start" x="107" y="-323.2" font-family="Helvetica,sans-Serif" font-size="11.00">13 &gt;</text>
</a>
</g>
</g>
<!-- samples&#45;&gt;datasets -->
<g id="edge8" class="edge">
<title>samples:w&#45;&gt;datasets:e</title>
<path fill="none" stroke="black" d="M172.48,-502.64C151.96,-486.35 168.65,-430 133,-430"/>
<polygon fill="black" stroke="black" points="178.86,-504.62 185.43,-510.44 182.68,-505.81 186.5,-507 186.5,-507 186.5,-507 182.68,-505.81 187.57,-503.56 178.86,-504.62 178.86,-504.62"/>
<ellipse fill="none" stroke="black" cx="175.81" cy="-503.67" rx="3.2" ry="3.2"/>
</g>
<!-- taxa -->
<g id="node10" class="node">
<title>taxa</title>
<g id="a_node10"><a xlink:href="../../tables/taxa.html" xlink:title="taxa" target="_top">
<polygon fill="#ffffff" stroke="transparent" points="12,-37 12,-227 132,-227 132,-37 12,-37"/>
<polygon fill="#f5f5f5" stroke="transparent" points="12,-205 12,-227 132,-227 132,-205 12,-205"/>
<polygon fill="none" stroke="black" points="12,-205 12,-227 132,-227 132,-205 12,-205"/>
<text text-anchor="start" x="17" y="-214.2" font-family="Helvetica,sans-Serif" font-weight="bold" font-size="11.00">taxa</text>
<text text-anchor="start" x="97" y="-213.2" font-family="Helvetica,sans-Serif" font-size="11.00">[table]</text>
<polygon fill="none" stroke="black" points="12,-183 12,-205 132,-205 132,-183 12,-183"/>
<image xlink:href="../../images/primaryKeys.png" width="11px" height="12px" preserveAspectRatio="xMinYMin meet" x="17" y="-200"/>
<text text-anchor="start" x="32" y="-191.2" font-family="Helvetica,sans-Serif" font-size="11.00">taxonid</text>
<polygon fill="#ffffff" stroke="transparent" points="12,-161 12,-183 132,-183 132,-161 12,-161"/>
<polygon fill="none" stroke="black" points="12,-161 12,-183 132,-183 132,-161 12,-161"/>
<text text-anchor="start" x="32" y="-169.2" font-family="Helvetica,sans-Serif" font-size="11.00">taxonname</text>
<polygon fill="none" stroke="black" points="12,-139 12,-161 132,-161 132,-139 12,-139"/>
<image xlink:href="../../images/foreignKeys.png" width="11px" height="12px" preserveAspectRatio="xMinYMin meet" x="17" y="-156"/>
<text text-anchor="start" x="32" y="-147.2" font-family="Helvetica,sans-Serif" font-size="11.00">highertaxonid</text>
<polygon fill="#ffffff" stroke="transparent" points="12,-117 12,-139 132,-139 132,-117 12,-117"/>
<polygon fill="none" stroke="black" points="12,-117 12,-139 132,-139 132,-117 12,-117"/>
<image xlink:href="../../images/foreignKeys.png" width="11px" height="12px" preserveAspectRatio="xMinYMin meet" x="17" y="-134"/>
<text text-anchor="start" x="32" y="-125.2" font-family="Helvetica,sans-Serif" font-size="11.00">taxagroupid</text>
<polygon fill="none" stroke="black" points="12,-95 12,-117 132,-117 132,-95 12,-95"/>
<image xlink:href="../../images/foreignKeys.png" width="11px" height="12px" preserveAspectRatio="xMinYMin meet" x="17" y="-112"/>
<text text-anchor="start" x="32" y="-103.2" font-family="Helvetica,sans-Serif" font-size="11.00">publicationid</text>
<polygon fill="none" stroke="black" points="12,-73 12,-95 132,-95 132,-73 12,-73"/>
<image xlink:href="../../images/foreignKeys.png" width="11px" height="12px" preserveAspectRatio="xMinYMin meet" x="17" y="-90"/>
<text text-anchor="start" x="32" y="-81.2" font-family="Helvetica,sans-Serif" font-size="11.00">validatorid</text>
<polygon fill="none" stroke="black" points="12,-55 12,-73 132,-73 132,-55 12,-55"/>
<text text-anchor="start" x="15" y="-61.2" font-family="Helvetica,sans-Serif" font-size="11.00">...</text>
<polygon fill="#ffffff" stroke="transparent" points="12,-37 12,-55 36,-55 36,-37 12,-37"/>
<polygon fill="none" stroke="black" points="12,-37 12,-55 36,-55 36,-37 12,-37"/>
<text text-anchor="start" x="15" y="-43.2" font-family="Helvetica,sans-Serif" font-size="11.00">&lt; 4</text>
<polygon fill="#ffffff" stroke="transparent" points="36,-37 36,-55 103,-55 103,-37 36,-37"/>
<polygon fill="none" stroke="black" points="36,-37 36,-55 103,-55 103,-37 36,-37"/>
<text text-anchor="start" x="40" y="-43.2" font-family="Helvetica,sans-Serif" font-size="11.00">47,314 rows</text>
<polygon fill="#ffffff" stroke="transparent" points="103,-37 103,-55 132,-55 132,-37 103,-37"/>
<polygon fill="none" stroke="black" points="103,-37 103,-55 132,-55 132,-37 103,-37"/>
<text text-anchor="start" x="107" y="-43.2" font-family="Helvetica,sans-Serif" font-size="11.00">17 &gt;</text>
</a>
</g>
</g>
<!-- samples&#45;&gt;taxa -->
<g id="edge9" class="edge">
<title>samples:w&#45;&gt;taxa:e</title>
<path fill="none" stroke="black" d="M172.25,-305.43C141.34,-286.02 183.43,-194 133,-194"/>
<polygon fill="black" stroke="black" points="178.74,-307.06 185.63,-312.49 182.62,-308.03 186.5,-309 186.5,-309 186.5,-309 182.62,-308.03 187.37,-305.51 178.74,-307.06 178.74,-307.06"/>
<ellipse fill="none" stroke="black" cx="175.64" cy="-306.28" rx="3.2" ry="3.2"/>
</g>
<!-- data -->
<g id="node3" class="node">
<title>data</title>
<g id="a_node3"><a xlink:href="../../tables/data.html" xlink:title="data" target="_top">
<polygon fill="#ffffff" stroke="transparent" points="472,-555 472,-679 603,-679 603,-555 472,-555"/>
<polygon fill="#f5f5f5" stroke="transparent" points="472.5,-657 472.5,-679 603.5,-679 603.5,-657 472.5,-657"/>
<polygon fill="none" stroke="black" points="472.5,-657 472.5,-679 603.5,-679 603.5,-657 472.5,-657"/>
<text text-anchor="start" x="477.5" y="-666.2" font-family="Helvetica,sans-Serif" font-weight="bold" font-size="11.00">data</text>
<text text-anchor="start" x="568.5" y="-665.2" font-family="Helvetica,sans-Serif" font-size="11.00">[table]</text>
<polygon fill="none" stroke="black" points="472.5,-635 472.5,-657 603.5,-657 603.5,-635 472.5,-635"/>
<image xlink:href="../../images/primaryKeys.png" width="11px" height="12px" preserveAspectRatio="xMinYMin meet" x="477.5" y="-652"/>
<text text-anchor="start" x="498.5" y="-643.2" font-family="Helvetica,sans-Serif" font-size="11.00">dataid</text>
<polygon fill="#ffffff" stroke="transparent" points="472.5,-613 472.5,-635 603.5,-635 603.5,-613 472.5,-613"/>
<polygon fill="none" stroke="black" points="472.5,-613 472.5,-635 603.5,-635 603.5,-613 472.5,-613"/>
<image xlink:href="../../images/foreignKeys.png" width="11px" height="12px" preserveAspectRatio="xMinYMin meet" x="477.5" y="-630"/>
<text text-anchor="start" x="498.5" y="-621.2" font-family="Helvetica,sans-Serif" font-size="11.00">sampleid</text>
<polygon fill="#ffffff" stroke="transparent" points="472.5,-591 472.5,-613 603.5,-613 603.5,-591 472.5,-591"/>
<polygon fill="none" stroke="black" points="472.5,-591 472.5,-613 603.5,-613 603.5,-591 472.5,-591"/>
<image xlink:href="../../images/foreignKeys.png" width="11px" height="12px" preserveAspectRatio="xMinYMin meet" x="477.5" y="-608"/>
<text text-anchor="start" x="498.5" y="-599.2" font-family="Helvetica,sans-Serif" font-size="11.00">variableid</text>
<polygon fill="none" stroke="black" points="472.5,-573 472.5,-591 603.5,-591 603.5,-573 472.5,-573"/>
<text text-anchor="start" x="475.5" y="-579.2" font-family="Helvetica,sans-Serif" font-size="11.00">...</text>
<polygon fill="#ffffff" stroke="transparent" points="472.5,-555 472.5,-573 494.5,-573 494.5,-555 472.5,-555"/>
<polygon fill="none" stroke="black" points="472.5,-555 472.5,-573 494.5,-573 494.5,-555 472.5,-555"/>
<text text-anchor="start" x="475.5" y="-561.2" font-family="Helvetica,sans-Serif" font-size="11.00">&lt; 2</text>
<polygon fill="#ffffff" stroke="transparent" points="494.5,-555 494.5,-573 581.5,-573 581.5,-555 494.5,-555"/>
<polygon fill="none" stroke="black" points="494.5,-555 494.5,-573 581.5,-573 581.5,-555 494.5,-555"/>
<text text-anchor="start" x="497.5" y="-561.2" font-family="Helvetica,sans-Serif" font-size="11.00">10,527,055 rows</text>
<polygon fill="#ffffff" stroke="transparent" points="581.5,-555 581.5,-573 603.5,-573 603.5,-555 581.5,-555"/>
<polygon fill="none" stroke="black" points="581.5,-555 581.5,-573 603.5,-573 603.5,-555 581.5,-555"/>
<text text-anchor="start" x="584.5" y="-561.2" font-family="Helvetica,sans-Serif" font-size="11.00">8 &gt;</text>
</a>
</g>
</g>
<!-- data&#45;&gt;samples -->
<g id="edge2" class="edge">
<title>data:w&#45;&gt;samples:e</title>
<path fill="none" stroke="black" d="M457.52,-619.65C437.6,-603.94 451.87,-551 417.5,-551"/>
<polygon fill="black" stroke="black" points="463.86,-621.62 470.43,-627.44 467.68,-622.81 471.5,-624 471.5,-624 471.5,-624 467.68,-622.81 472.57,-620.56 463.86,-621.62 463.86,-621.62"/>
<ellipse fill="none" stroke="black" cx="460.81" cy="-620.67" rx="3.2" ry="3.2"/>
</g>
<!-- geochronology -->
<g id="node4" class="node">
<title>geochronology</title>
<g id="a_node4"><a xlink:href="../../tables/geochronology.html" xlink:title="geochronology" target="_top">
<polygon fill="#ffffff" stroke="transparent" points="475.5,-850 475.5,-1018 599.5,-1018 599.5,-850 475.5,-850"/>
<polygon fill="#f5f5f5" stroke="transparent" points="475.5,-996 475.5,-1018 599.5,-1018 599.5,-996 475.5,-996"/>
<polygon fill="none" stroke="black" points="475.5,-996 475.5,-1018 599.5,-1018 599.5,-996 475.5,-996"/>
<text text-anchor="start" x="480.5" y="-1005.2" font-family="Helvetica,sans-Serif" font-weight="bold" font-size="11.00">geochronology</text>
<text text-anchor="start" x="564.5" y="-1004.2" font-family="Helvetica,sans-Serif" font-size="11.00">[table]</text>
<polygon fill="none" stroke="black" points="475.5,-974 475.5,-996 599.5,-996 599.5,-974 475.5,-974"/>
<image xlink:href="../../images/primaryKeys.png" width="11px" height="12px" preserveAspectRatio="xMinYMin meet" x="480.5" y="-991"/>
<text text-anchor="start" x="497.5" y="-982.2" font-family="Helvetica,sans-Serif" font-size="11.00">geochronid</text>
<polygon fill="#ffffff" stroke="transparent" points="475.5,-952 475.5,-974 599.5,-974 599.5,-952 475.5,-952"/>
<polygon fill="none" stroke="black" points="475.5,-952 475.5,-974 599.5,-974 599.5,-952 475.5,-952"/>
<image xlink:href="../../images/foreignKeys.png" width="11px" height="12px" preserveAspectRatio="xMinYMin meet" x="480.5" y="-969"/>
<text text-anchor="start" x="497.5" y="-960.2" font-family="Helvetica,sans-Serif" font-size="11.00">sampleid</text>
<polygon fill="none" stroke="black" points="475.5,-930 475.5,-952 599.5,-952 599.5,-930 475.5,-930"/>
<image xlink:href="../../images/foreignKeys.png" width="11px" height="12px" preserveAspectRatio="xMinYMin meet" x="480.5" y="-947"/>
<text text-anchor="start" x="497.5" y="-938.2" font-family="Helvetica,sans-Serif" font-size="11.00">geochrontypeid</text>
<polygon fill="none" stroke="black" points="475.5,-908 475.5,-930 599.5,-930 599.5,-908 475.5,-908"/>
<image xlink:href="../../images/foreignKeys.png" width="11px" height="12px" preserveAspectRatio="xMinYMin meet" x="480.5" y="-925"/>
<text text-anchor="start" x="497.5" y="-916.2" font-family="Helvetica,sans-Serif" font-size="11.00">agetypeid</text>
<polygon fill="#ffffff" stroke="transparent" points="475.5,-886 475.5,-908 599.5,-908 599.5,-886 475.5,-886"/>
<polygon fill="none" stroke="black" points="475.5,-886 475.5,-908 599.5,-908 599.5,-886 475.5,-886"/>
<text text-anchor="start" x="497.5" y="-894.2" font-family="Helvetica,sans-Serif" font-size="11.00">age</text>
<polygon fill="none" stroke="black" points="475.5,-868 475.5,-886 599.5,-886 599.5,-868 475.5,-868"/>
<text text-anchor="start" x="478.5" y="-874.2" font-family="Helvetica,sans-Serif" font-size="11.00">...</text>
<polygon fill="#ffffff" stroke="transparent" points="475.5,-850 475.5,-868 504.5,-868 504.5,-850 475.5,-850"/>
<polygon fill="none" stroke="black" points="475.5,-850 475.5,-868 504.5,-868 504.5,-850 475.5,-850"/>
<text text-anchor="start" x="478.5" y="-856.2" font-family="Helvetica,sans-Serif" font-size="11.00">&lt; 3</text>
<polygon fill="#ffffff" stroke="transparent" points="504.5,-850 504.5,-868 573.5,-868 573.5,-850 504.5,-850"/>
<polygon fill="none" stroke="black" points="504.5,-850 504.5,-868 573.5,-868 573.5,-850 504.5,-850"/>
<text text-anchor="start" x="510.5" y="-856.2" font-family="Helvetica,sans-Serif" font-size="11.00">41,130 rows</text>
<polygon fill="#ffffff" stroke="transparent" points="573.5,-850 573.5,-868 599.5,-868 599.5,-850 573.5,-850"/>
<polygon fill="none" stroke="black" points="573.5,-850 573.5,-868 599.5,-868 599.5,-850 573.5,-850"/>
<text text-anchor="start" x="580.5" y="-856.2" font-family="Helvetica,sans-Serif" font-size="11.00">4 &gt;</text>
</a>
</g>
</g>
<!-- geochronology&#45;&gt;samples -->
<g id="edge3" class="edge">
<title>geochronology:w&#45;&gt;samples:e</title>
<path fill="none" stroke="black" d="M460.43,-958.92C396.3,-916.13 504.51,-551 417.5,-551"/>
<polygon fill="black" stroke="black" points="466.82,-960.77 473.5,-966.46 470.66,-961.89 474.5,-963 474.5,-963 474.5,-963 470.66,-961.89 475.5,-959.54 466.82,-960.77 466.82,-960.77"/>
<ellipse fill="none" stroke="black" cx="463.74" cy="-959.88" rx="3.2" ry="3.2"/>
</g>
<!-- sampleages -->
<g id="node5" class="node">
<title>sampleages</title>
<g id="a_node5"><a xlink:href="../../tables/sampleages.html" xlink:title="sampleages" target="_top">
<polygon fill="#ffffff" stroke="transparent" points="477.5,-344 477.5,-534 597.5,-534 597.5,-344 477.5,-344"/>
<polygon fill="#f5f5f5" stroke="transparent" points="477.5,-512 477.5,-534 597.5,-534 597.5,-512 477.5,-512"/>
<polygon fill="none" stroke="black" points="477.5,-512 477.5,-534 597.5,-534 597.5,-512 477.5,-512"/>
<text text-anchor="start" x="482.5" y="-521.2" font-family="Helvetica,sans-Serif" font-weight="bold" font-size="11.00">sampleages</text>
<text text-anchor="start" x="562.5" y="-520.2" font-family="Helvetica,sans-Serif" font-size="11.00">[table]</text>
<polygon fill="none" stroke="black" points="477.5,-490 477.5,-512 597.5,-512 597.5,-490 477.5,-490"/>
<image xlink:href="../../images/primaryKeys.png" width="11px" height="12px" preserveAspectRatio="xMinYMin meet" x="482.5" y="-507"/>
<text text-anchor="start" x="497.5" y="-498.2" font-family="Helvetica,sans-Serif" font-size="11.00">sampleageid</text>
<polygon fill="#ffffff" stroke="transparent" points="477.5,-468 477.5,-490 597.5,-490 597.5,-468 477.5,-468"/>
<polygon fill="none" stroke="black" points="477.5,-468 477.5,-490 597.5,-490 597.5,-468 477.5,-468"/>
<image xlink:href="../../images/foreignKeys.png" width="11px" height="12px" preserveAspectRatio="xMinYMin meet" x="482.5" y="-485"/>
<text text-anchor="start" x="497.5" y="-476.2" font-family="Helvetica,sans-Serif" font-size="11.00">sampleid</text>
<polygon fill="#ffffff" stroke="transparent" points="477.5,-446 477.5,-468 597.5,-468 597.5,-446 477.5,-446"/>
<polygon fill="none" stroke="black" points="477.5,-446 477.5,-468 597.5,-468 597.5,-446 477.5,-446"/>
<image xlink:href="../../images/foreignKeys.png" width="11px" height="12px" preserveAspectRatio="xMinYMin meet" x="482.5" y="-463"/>
<text text-anchor="start" x="497.5" y="-454.2" font-family="Helvetica,sans-Serif" font-size="11.00">chronologyid</text>
<polygon fill="#ffffff" stroke="transparent" points="477.5,-424 477.5,-446 597.5,-446 597.5,-424 477.5,-424"/>
<polygon fill="none" stroke="black" points="477.5,-424 477.5,-446 597.5,-446 597.5,-424 477.5,-424"/>
<text text-anchor="start" x="497.5" y="-432.2" font-family="Helvetica,sans-Serif" font-size="11.00">age</text>
<polygon fill="#ffffff" stroke="transparent" points="477.5,-402 477.5,-424 597.5,-424 597.5,-402 477.5,-402"/>
<polygon fill="none" stroke="black" points="477.5,-402 477.5,-424 597.5,-424 597.5,-402 477.5,-402"/>
<text text-anchor="start" x="497.5" y="-410.2" font-family="Helvetica,sans-Serif" font-size="11.00">ageyounger</text>
<polygon fill="#ffffff" stroke="transparent" points="477.5,-380 477.5,-402 597.5,-402 597.5,-380 477.5,-380"/>
<polygon fill="none" stroke="black" points="477.5,-380 477.5,-402 597.5,-402 597.5,-380 477.5,-380"/>
<text text-anchor="start" x="497.5" y="-388.2" font-family="Helvetica,sans-Serif" font-size="11.00">ageolder</text>
<polygon fill="none" stroke="black" points="477.5,-362 477.5,-380 597.5,-380 597.5,-362 477.5,-362"/>
<text text-anchor="start" x="480.5" y="-368.2" font-family="Helvetica,sans-Serif" font-size="11.00">...</text>
<polygon fill="#ffffff" stroke="transparent" points="477.5,-344 477.5,-362 501.5,-362 501.5,-344 477.5,-344"/>
<polygon fill="none" stroke="black" points="477.5,-344 477.5,-362 501.5,-362 501.5,-344 477.5,-344"/>
<text text-anchor="start" x="480.5" y="-350.2" font-family="Helvetica,sans-Serif" font-size="11.00">&lt; 2</text>
<polygon fill="#ffffff" stroke="transparent" points="501.5,-344 501.5,-362 574.5,-362 574.5,-344 501.5,-344"/>
<polygon fill="none" stroke="black" points="501.5,-344 501.5,-362 574.5,-362 574.5,-344 501.5,-344"/>
<text text-anchor="start" x="505.5" y="-350.2" font-family="Helvetica,sans-Serif" font-size="11.00">616,120 rows</text>
<polygon fill="#ffffff" stroke="transparent" points="574.5,-344 574.5,-362 597.5,-362 597.5,-344 574.5,-344"/>
<polygon fill="none" stroke="black" points="574.5,-344 574.5,-362 597.5,-362 597.5,-344 574.5,-344"/>
<text text-anchor="start" x="578.5" y="-350.2" font-family="Helvetica,sans-Serif" font-size="11.00">1 &gt;</text>
</a>
</g>
</g>
<!-- sampleages&#45;&gt;samples -->
<g id="edge4" class="edge">
<title>sampleages:w&#45;&gt;samples:e</title>
<path fill="none" stroke="black" d="M462.55,-482.87C440.52,-497.83 453.05,-551 417.5,-551"/>
<polygon fill="black" stroke="black" points="468.79,-481.14 477.46,-482.47 472.65,-480.07 476.5,-479 476.5,-479 476.5,-479 472.65,-480.07 475.54,-475.53 468.79,-481.14 468.79,-481.14"/>
<ellipse fill="none" stroke="black" cx="465.71" cy="-481.99" rx="3.2" ry="3.2"/>
</g>
<!-- sampleanalysts -->
<g id="node6" class="node">
<title>sampleanalysts</title>
<g id="a_node6"><a xlink:href="../../tables/sampleanalysts.html" xlink:title="sampleanalysts" target="_top">
<polygon fill="#ffffff" stroke="transparent" points="474.5,-199 474.5,-323 600.5,-323 600.5,-199 474.5,-199"/>
<polygon fill="#f5f5f5" stroke="transparent" points="474.5,-301 474.5,-323 600.5,-323 600.5,-301 474.5,-301"/>
<polygon fill="none" stroke="black" points="474.5,-301 474.5,-323 600.5,-323 600.5,-301 474.5,-301"/>
<text text-anchor="start" x="479.5" y="-310.2" font-family="Helvetica,sans-Serif" font-weight="bold" font-size="11.00">sampleanalysts</text>
<text text-anchor="start" x="565.5" y="-309.2" font-family="Helvetica,sans-Serif" font-size="11.00">[table]</text>
<polygon fill="none" stroke="black" points="474.5,-279 474.5,-301 600.5,-301 600.5,-279 474.5,-279"/>
<image xlink:href="../../images/primaryKeys.png" width="11px" height="12px" preserveAspectRatio="xMinYMin meet" x="479.5" y="-296"/>
<text text-anchor="start" x="497.5" y="-287.2" font-family="Helvetica,sans-Serif" font-size="11.00">analystid</text>
<polygon fill="#ffffff" stroke="transparent" points="474.5,-257 474.5,-279 600.5,-279 600.5,-257 474.5,-257"/>
<polygon fill="none" stroke="black" points="474.5,-257 474.5,-279 600.5,-279 600.5,-257 474.5,-257"/>
<image xlink:href="../../images/foreignKeys.png" width="11px" height="12px" preserveAspectRatio="xMinYMin meet" x="479.5" y="-274"/>
<text text-anchor="start" x="497.5" y="-265.2" font-family="Helvetica,sans-Serif" font-size="11.00">sampleid</text>
<polygon fill="#ffffff" stroke="transparent" points="474.5,-235 474.5,-257 600.5,-257 600.5,-235 474.5,-235"/>
<polygon fill="none" stroke="black" points="474.5,-235 474.5,-257 600.5,-257 600.5,-235 474.5,-235"/>
<image xlink:href="../../images/foreignKeys.png" width="11px" height="12px" preserveAspectRatio="xMinYMin meet" x="479.5" y="-252"/>
<text text-anchor="start" x="497.5" y="-243.2" font-family="Helvetica,sans-Serif" font-size="11.00">contactid</text>
<polygon fill="none" stroke="black" points="474.5,-217 474.5,-235 600.5,-235 600.5,-217 474.5,-217"/>
<text text-anchor="start" x="477.5" y="-223.2" font-family="Helvetica,sans-Serif" font-size="11.00">...</text>
<polygon fill="#ffffff" stroke="transparent" points="474.5,-199 474.5,-217 505.5,-217 505.5,-199 474.5,-199"/>
<polygon fill="none" stroke="black" points="474.5,-199 474.5,-217 505.5,-217 505.5,-199 474.5,-199"/>
<text text-anchor="start" x="477.5" y="-205.2" font-family="Helvetica,sans-Serif" font-size="11.00">&lt; 2</text>
<polygon fill="#ffffff" stroke="transparent" points="505.5,-199 505.5,-217 582.5,-217 582.5,-199 505.5,-199"/>
<polygon fill="none" stroke="black" points="505.5,-199 505.5,-217 582.5,-217 582.5,-199 505.5,-199"/>
<text text-anchor="start" x="513.5" y="-205.2" font-family="Helvetica,sans-Serif" font-size="11.00">322,150 rows</text>
<polygon fill="#ffffff" stroke="transparent" points="582.5,-199 582.5,-217 600.5,-217 600.5,-199 582.5,-199"/>
<polygon fill="none" stroke="black" points="582.5,-199 582.5,-217 600.5,-217 600.5,-199 582.5,-199"/>
<text text-anchor="start" x="590.5" y="-205.2" font-family="Helvetica,sans-Serif" font-size="11.00"> &#160;</text>
</a>
</g>
</g>
<!-- sampleanalysts&#45;&gt;samples -->
<g id="edge5" class="edge">
<title>sampleanalysts:w&#45;&gt;samples:e</title>
<path fill="none" stroke="black" d="M460.07,-273.65C420.56,-313.54 476.22,-551 417.5,-551"/>
<polygon fill="black" stroke="black" points="466.13,-271.1 474.9,-271.32 469.81,-269.55 473.5,-268 473.5,-268 473.5,-268 469.81,-269.55 472.1,-264.68 466.13,-271.1 466.13,-271.1"/>
<ellipse fill="none" stroke="black" cx="463.18" cy="-272.35" rx="3.2" ry="3.2"/>
</g>
<!-- samplekeywords -->
<g id="node7" class="node">
<title>samplekeywords</title>
<g id="a_node7"><a xlink:href="../../tables/samplekeywords.html" xlink:title="samplekeywords" target="_top">
<polygon fill="#ffffff" stroke="transparent" points="471.5,-76 471.5,-178 603.5,-178 603.5,-76 471.5,-76"/>
<polygon fill="#f5f5f5" stroke="transparent" points="471.5,-156 471.5,-178 603.5,-178 603.5,-156 471.5,-156"/>
<polygon fill="none" stroke="black" points="471.5,-156 471.5,-178 603.5,-178 603.5,-156 471.5,-156"/>
<text text-anchor="start" x="476.5" y="-165.2" font-family="Helvetica,sans-Serif" font-weight="bold" font-size="11.00">samplekeywords</text>
<text text-anchor="start" x="568.5" y="-164.2" font-family="Helvetica,sans-Serif" font-size="11.00">[table]</text>
<polygon fill="none" stroke="black" points="471.5,-134 471.5,-156 603.5,-156 603.5,-134 471.5,-134"/>
<image xlink:href="../../images/primaryKeys.png" width="11px" height="12px" preserveAspectRatio="xMinYMin meet" x="476.5" y="-151"/>
<text text-anchor="start" x="496.5" y="-142.2" font-family="Helvetica,sans-Serif" font-size="11.00">sampleid</text>
<polygon fill="none" stroke="black" points="471.5,-112 471.5,-134 603.5,-134 603.5,-112 471.5,-112"/>
<image xlink:href="../../images/primaryKeys.png" width="11px" height="12px" preserveAspectRatio="xMinYMin meet" x="476.5" y="-129"/>
<text text-anchor="start" x="496.5" y="-120.2" font-family="Helvetica,sans-Serif" font-size="11.00">keywordid</text>
<polygon fill="none" stroke="black" points="471.5,-94 471.5,-112 603.5,-112 603.5,-94 471.5,-94"/>
<text text-anchor="start" x="474.5" y="-100.2" font-family="Helvetica,sans-Serif" font-size="11.00">...</text>
<polygon fill="#ffffff" stroke="transparent" points="471.5,-76 471.5,-94 508.5,-94 508.5,-76 471.5,-76"/>
<polygon fill="none" stroke="black" points="471.5,-76 471.5,-94 508.5,-94 508.5,-76 471.5,-76"/>
<text text-anchor="start" x="474.5" y="-82.2" font-family="Helvetica,sans-Serif" font-size="11.00">&lt; 2</text>
<polygon fill="#ffffff" stroke="transparent" points="508.5,-76 508.5,-94 582.5,-94 582.5,-76 508.5,-76"/>
<polygon fill="none" stroke="black" points="508.5,-76 508.5,-94 582.5,-94 582.5,-76 508.5,-76"/>
<text text-anchor="start" x="519.5" y="-82.2" font-family="Helvetica,sans-Serif" font-size="11.00">18,202 rows</text>
<polygon fill="#ffffff" stroke="transparent" points="582.5,-76 582.5,-94 603.5,-94 603.5,-76 582.5,-76"/>
<polygon fill="none" stroke="black" points="582.5,-76 582.5,-94 603.5,-94 603.5,-76 582.5,-76"/>
<text text-anchor="start" x="593.5" y="-82.2" font-family="Helvetica,sans-Serif" font-size="11.00"> &#160;</text>
</a>
</g>
</g>
<!-- samplekeywords&#45;&gt;samples -->
<g id="edge6" class="edge">
<title>samplekeywords:w&#45;&gt;samples:e</title>
<path fill="none" stroke="black" d="M456.29,-149.28C394.32,-192.68 502.98,-551 417.5,-551"/>
<polygon fill="black" stroke="black" points="462.84,-147.31 471.54,-148.45 466.67,-146.16 470.5,-145 470.5,-145 470.5,-145 466.67,-146.16 469.46,-141.55 462.84,-147.31 462.84,-147.31"/>
<ellipse fill="none" stroke="black" cx="459.78" cy="-148.23" rx="3.2" ry="3.2"/>
</g>
<!-- specimendates -->
<g id="node11" class="node">
<title>specimendates</title>
<g id="a_node11"><a xlink:href="../../tables/specimendates.html" xlink:title="specimendates" target="_top">
<polygon fill="#ffffff" stroke="transparent" points="657,-735 657,-947 780,-947 780,-735 657,-735"/>
<polygon fill="#f5f5f5" stroke="transparent" points="657.5,-925 657.5,-947 780.5,-947 780.5,-925 657.5,-925"/>
<polygon fill="none" stroke="black" points="657.5,-925 657.5,-947 780.5,-947 780.5,-925 657.5,-925"/>
<text text-anchor="start" x="662.5" y="-934.2" font-family="Helvetica,sans-Serif" font-weight="bold" font-size="11.00">specimendates</text>
<text text-anchor="start" x="745.5" y="-933.2" font-family="Helvetica,sans-Serif" font-size="11.00">[table]</text>
<polygon fill="none" stroke="black" points="657.5,-903 657.5,-925 780.5,-925 780.5,-903 657.5,-903"/>
<image xlink:href="../../images/primaryKeys.png" width="11px" height="12px" preserveAspectRatio="xMinYMin meet" x="662.5" y="-920"/>
<text text-anchor="start" x="679.5" y="-911.2" font-family="Helvetica,sans-Serif" font-size="11.00">specimendateid</text>
<polygon fill="none" stroke="black" points="657.5,-881 657.5,-903 780.5,-903 780.5,-881 657.5,-881"/>
<image xlink:href="../../images/foreignKeys.png" width="11px" height="12px" preserveAspectRatio="xMinYMin meet" x="662.5" y="-898"/>
<text text-anchor="start" x="679.5" y="-889.2" font-family="Helvetica,sans-Serif" font-size="11.00">geochronid</text>
<polygon fill="#ffffff" stroke="transparent" points="657.5,-859 657.5,-881 780.5,-881 780.5,-859 657.5,-859"/>
<polygon fill="none" stroke="black" points="657.5,-859 657.5,-881 780.5,-881 780.5,-859 657.5,-859"/>
<image xlink:href="../../images/foreignKeys.png" width="11px" height="12px" preserveAspectRatio="xMinYMin meet" x="662.5" y="-876"/>
<text text-anchor="start" x="679.5" y="-867.2" font-family="Helvetica,sans-Serif" font-size="11.00">taxonid</text>
<polygon fill="none" stroke="black" points="657.5,-837 657.5,-859 780.5,-859 780.5,-837 657.5,-837"/>
<image xlink:href="../../images/foreignKeys.png" width="11px" height="12px" preserveAspectRatio="xMinYMin meet" x="662.5" y="-854"/>
<text text-anchor="start" x="679.5" y="-845.2" font-family="Helvetica,sans-Serif" font-size="11.00">fractionid</text>
<polygon fill="#ffffff" stroke="transparent" points="657.5,-815 657.5,-837 780.5,-837 780.5,-815 657.5,-815"/>
<polygon fill="none" stroke="black" points="657.5,-815 657.5,-837 780.5,-837 780.5,-815 657.5,-815"/>
<image xlink:href="../../images/foreignKeys.png" width="11px" height="12px" preserveAspectRatio="xMinYMin meet" x="662.5" y="-832"/>
<text text-anchor="start" x="679.5" y="-823.2" font-family="Helvetica,sans-Serif" font-size="11.00">sampleid</text>
<polygon fill="none" stroke="black" points="657.5,-793 657.5,-815 780.5,-815 780.5,-793 657.5,-793"/>
<image xlink:href="../../images/foreignKeys.png" width="11px" height="12px" preserveAspectRatio="xMinYMin meet" x="662.5" y="-810"/>
<text text-anchor="start" x="679.5" y="-801.2" font-family="Helvetica,sans-Serif" font-size="11.00">elementtypeid</text>
<polygon fill="none" stroke="black" points="657.5,-771 657.5,-793 780.5,-793 780.5,-771 657.5,-771"/>
<image xlink:href="../../images/foreignKeys.png" width="11px" height="12px" preserveAspectRatio="xMinYMin meet" x="662.5" y="-788"/>
<text text-anchor="start" x="679.5" y="-779.2" font-family="Helvetica,sans-Serif" font-size="11.00">specimenid</text>
<polygon fill="none" stroke="black" points="657.5,-753 657.5,-771 780.5,-771 780.5,-753 657.5,-753"/>
<text text-anchor="start" x="660.5" y="-759.2" font-family="Helvetica,sans-Serif" font-size="11.00">...</text>
<polygon fill="#ffffff" stroke="transparent" points="657.5,-735 657.5,-753 688.5,-753 688.5,-735 657.5,-735"/>
<polygon fill="none" stroke="black" points="657.5,-735 657.5,-753 688.5,-753 688.5,-735 657.5,-735"/>
<text text-anchor="start" x="660.5" y="-741.2" font-family="Helvetica,sans-Serif" font-size="11.00">&lt; 6</text>
<polygon fill="#ffffff" stroke="transparent" points="688.5,-735 688.5,-753 753.5,-753 753.5,-735 688.5,-735"/>
<polygon fill="none" stroke="black" points="688.5,-735 688.5,-753 753.5,-753 753.5,-735 688.5,-735"/>
<text text-anchor="start" x="696.5" y="-741.2" font-family="Helvetica,sans-Serif" font-size="11.00">2,662 rows</text>
<polygon fill="#ffffff" stroke="transparent" points="753.5,-735 753.5,-753 780.5,-753 780.5,-735 753.5,-735"/>
<polygon fill="none" stroke="black" points="753.5,-735 753.5,-753 780.5,-753 780.5,-735 753.5,-735"/>
<text text-anchor="start" x="761.5" y="-741.2" font-family="Helvetica,sans-Serif" font-size="11.00">1 &gt;</text>
</a>
</g>
</g>
<!-- specimendates&#45;&gt;samples -->
<g id="edge11" class="edge">
<title>specimendates:w&#45;&gt;samples:e</title>
<path fill="none" stroke="black" d="M641.9,-826.4C590.16,-828.76 488.38,-839.81 459,-813 415.46,-773.26 476.45,-551 417.5,-551"/>
<polygon fill="black" stroke="black" points="648.5,-826.22 656.6,-829.6 652.5,-826.11 656.5,-826 656.5,-826 656.5,-826 652.5,-826.11 656.4,-822.4 648.5,-826.22 648.5,-826.22"/>
<ellipse fill="none" stroke="black" cx="645.3" cy="-826.31" rx="3.2" ry="3.2"/>
</g>
<!-- specimendates&#45;&gt;geochronology -->
<g id="edge10" class="edge">
<title>specimendates:w&#45;&gt;geochronology:e</title>
<path fill="none" stroke="black" d="M642.56,-895.76C616.76,-913.16 642.91,-985 600.5,-985"/>
<polygon fill="black" stroke="black" points="648.78,-894.08 657.44,-895.48 652.64,-893.04 656.5,-892 656.5,-892 656.5,-892 652.64,-893.04 655.56,-888.52 648.78,-894.08 648.78,-894.08"/>
<ellipse fill="none" stroke="black" cx="645.69" cy="-894.92" rx="3.2" ry="3.2"/>
</g>
<!-- specimendates&#45;&gt;taxa -->
<g id="edge12" class="edge">
<title>specimendates:w&#45;&gt;taxa:e</title>
<path fill="none" stroke="black" d="M643.57,-863.56C578.87,-790.74 677.35,-123.34 616,-65 522.91,23.52 241,-194 133,-194"/>
<polygon fill="black" stroke="black" points="649.34,-866.44 654.9,-873.22 652.92,-868.22 656.5,-870 656.5,-870 656.5,-870 652.92,-868.22 658.1,-866.78 649.34,-866.44 649.34,-866.44"/>
<ellipse fill="none" stroke="black" cx="646.47" cy="-865.01" rx="3.2" ry="3.2"/>
</g>
</g>
</svg>
