<?xml version="1.0" encoding="UTF-8" standalone="no"?>
<!DOCTYPE svg PUBLIC "-//W3C//DTD SVG 1.1//EN"
 "http://www.w3.org/Graphics/SVG/1.1/DTD/svg11.dtd">
<!-- Generated by graphviz version 2.43.0 (0)
 -->
<!-- Title: twoDegreesRelationshipsDiagramImplied Pages: 1 -->
<svg width="417pt" height="583pt"
 viewBox="0.00 0.00 417.00 583.00" xmlns="http://www.w3.org/2000/svg" xmlns:xlink="http://www.w3.org/1999/xlink">
<g id="graph0" class="graph" transform="scale(1 1) rotate(0) translate(4 579)">
<title>twoDegreesRelationshipsDiagramImplied</title>
<polygon fill="#ffffff" stroke="transparent" points="-4,4 -4,-579 413,-579 413,4 -4,4"/>
<text text-anchor="middle" x="71.5" y="-7.2" font-family="Helvetica,sans-Serif" font-size="11.00">Generated by SchemaSpy</text>
<!-- collectionunits -->
<g id="node1" class="node">
<title>collectionunits</title>
<g id="a_node1"><a xlink:href="../../tables/collectionunits.html" xlink:title="collectionunits" target="_top">
<polygon fill="#ffffff" stroke="transparent" points="239,-513 239,-571 361,-571 361,-513 239,-513"/>
<polygon fill="#f5f5f5" stroke="transparent" points="239,-549 239,-571 361,-571 361,-549 239,-549"/>
<polygon fill="none" stroke="black" points="239,-549 239,-571 361,-571 361,-549 239,-549"/>
<text text-anchor="start" x="244" y="-558.2" font-family="Helvetica,sans-Serif" font-weight="bold" font-size="11.00">collectionunits</text>
<text text-anchor="start" x="326" y="-557.2" font-family="Helvetica,sans-Serif" font-size="11.00">[table]</text>
<polygon fill="none" stroke="black" points="239,-531 239,-549 361,-549 361,-531 239,-531"/>
<text text-anchor="start" x="242" y="-537.2" font-family="Helvetica,sans-Serif" font-size="11.00">...</text>
<polygon fill="#ffffff" stroke="transparent" points="239,-513 239,-531 267,-531 267,-513 239,-513"/>
<polygon fill="none" stroke="black" points="239,-513 239,-531 267,-531 267,-513 239,-513"/>
<text text-anchor="start" x="242" y="-519.2" font-family="Helvetica,sans-Serif" font-size="11.00">&lt; 4</text>
<polygon fill="#ffffff" stroke="transparent" points="267,-513 267,-531 336,-531 336,-513 267,-513"/>
<polygon fill="none" stroke="black" points="267,-513 267,-531 336,-531 336,-513 267,-513"/>
<text text-anchor="start" x="273" y="-519.2" font-family="Helvetica,sans-Serif" font-size="11.00">33,980 rows</text>
<polygon fill="#ffffff" stroke="transparent" points="336,-513 336,-531 361,-531 361,-513 336,-513"/>
<polygon fill="none" stroke="black" points="336,-513 336,-531 361,-531 361,-513 336,-513"/>
<text text-anchor="start" x="342" y="-519.2" font-family="Helvetica,sans-Serif" font-size="11.00">5 &gt;</text>
</a>
</g>
</g>
<!-- sites -->
<g id="node2" class="node">
<title>sites</title>
<g id="a_node2"><a xlink:href="../../tables/sites.html" xlink:title="sites" target="_top">
<polygon fill="#ffffff" stroke="transparent" points="19,-330 19,-454 139,-454 139,-330 19,-330"/>
<polygon fill="#f5f5f5" stroke="transparent" points="19,-432 19,-454 139,-454 139,-432 19,-432"/>
<polygon fill="none" stroke="black" points="19,-432 19,-454 139,-454 139,-432 19,-432"/>
<text text-anchor="start" x="24" y="-441.2" font-family="Helvetica,sans-Serif" font-weight="bold" font-size="11.00">sites</text>
<text text-anchor="start" x="104" y="-440.2" font-family="Helvetica,sans-Serif" font-size="11.00">[table]</text>
<polygon fill="none" stroke="black" points="19,-410 19,-432 139,-432 139,-410 19,-410"/>
<image xlink:href="../../images/primaryKeys.png" width="11px" height="12px" preserveAspectRatio="xMinYMin meet" x="24" y="-427"/>
<text text-anchor="start" x="39" y="-418.2" font-family="Helvetica,sans-Serif" font-size="11.00">siteid</text>
<polygon fill="#ffffff" stroke="transparent" points="19,-388 19,-410 139,-410 139,-388 19,-388"/>
<polygon fill="none" stroke="black" points="19,-388 19,-410 139,-410 139,-388 19,-388"/>
<text text-anchor="start" x="39" y="-396.2" font-family="Helvetica,sans-Serif" font-size="11.00">sitename</text>
<polygon fill="#ffffff" stroke="transparent" points="19,-366 19,-388 139,-388 139,-366 19,-366"/>
<polygon fill="none" stroke="black" points="19,-366 19,-388 139,-388 139,-366 19,-366"/>
<text text-anchor="start" x="39" y="-374.2" font-family="Helvetica,sans-Serif" font-size="11.00">geog</text>
<polygon fill="none" stroke="black" points="19,-348 19,-366 139,-366 139,-348 19,-348"/>
<text text-anchor="start" x="22" y="-354.2" font-family="Helvetica,sans-Serif" font-size="11.00">...</text>
<polygon fill="#ffffff" stroke="transparent" points="19,-330 19,-348 41,-348 41,-330 19,-330"/>
<polygon fill="none" stroke="black" points="19,-330 19,-348 41,-348 41,-330 19,-330"/>
<text text-anchor="start" x="22" y="-336.2" font-family="Helvetica,sans-Serif" font-size="11.00"> &#160;</text>
<polygon fill="#ffffff" stroke="transparent" points="41,-330 41,-348 112,-348 112,-330 41,-330"/>
<polygon fill="none" stroke="black" points="41,-330 41,-348 112,-348 112,-330 41,-330"/>
<text text-anchor="start" x="49" y="-336.2" font-family="Helvetica,sans-Serif" font-size="11.00">22,697 rows</text>
<polygon fill="#ffffff" stroke="transparent" points="112,-330 112,-348 139,-348 139,-330 112,-330"/>
<polygon fill="none" stroke="black" points="112,-330 112,-348 139,-348 139,-330 112,-330"/>
<text text-anchor="start" x="120" y="-336.2" font-family="Helvetica,sans-Serif" font-size="11.00">4 &gt;</text>
</a>
</g>
</g>
<!-- collectionunits&#45;&gt;sites -->
<g id="edge1" class="edge">
<title>collectionunits:w&#45;&gt;sites:e</title>
<path fill="none" stroke="black" d="M223.58,-537.68C209.52,-532.35 204.85,-518.47 191,-503 162.37,-471.02 182.92,-421 140,-421"/>
<polygon fill="black" stroke="black" points="230.1,-538.73 237.43,-543.55 234.05,-539.37 238,-540 238,-540 238,-540 234.05,-539.37 238.57,-536.45 230.1,-538.73 230.1,-538.73"/>
<ellipse fill="none" stroke="black" cx="226.94" cy="-538.22" rx="3.2" ry="3.2"/>
</g>
<!-- geopaths -->
<g id="node3" class="node">
<title>geopaths</title>
<g id="a_node3"><a xlink:href="../../tables/geopaths.html" xlink:title="geopaths" target="_top">
<polygon fill="#ffffff" stroke="transparent" points="252.5,-101 252.5,-159 347.5,-159 347.5,-101 252.5,-101"/>
<polygon fill="#f5f5f5" stroke="transparent" points="253,-137 253,-159 348,-159 348,-137 253,-137"/>
<polygon fill="none" stroke="black" points="253,-137 253,-159 348,-159 348,-137 253,-137"/>
<text text-anchor="start" x="258" y="-146.2" font-family="Helvetica,sans-Serif" font-weight="bold" font-size="11.00">geopaths</text>
<text text-anchor="start" x="313" y="-145.2" font-family="Helvetica,sans-Serif" font-size="11.00">[table]</text>
<polygon fill="none" stroke="black" points="253,-119 253,-137 348,-137 348,-119 253,-119"/>
<text text-anchor="start" x="256" y="-125.2" font-family="Helvetica,sans-Serif" font-size="11.00">...</text>
<polygon fill="#ffffff" stroke="transparent" points="253,-101 253,-119 275,-119 275,-101 253,-101"/>
<polygon fill="none" stroke="black" points="253,-101 253,-119 275,-119 275,-101 253,-101"/>
<text text-anchor="start" x="256" y="-107.2" font-family="Helvetica,sans-Serif" font-size="11.00">&lt; 1</text>
<polygon fill="#ffffff" stroke="transparent" points="275,-101 275,-119 335,-119 335,-101 275,-101"/>
<polygon fill="none" stroke="black" points="275,-101 275,-119 335,-119 335,-101 275,-101"/>
<text text-anchor="start" x="278" y="-107.2" font-family="Helvetica,sans-Serif" font-size="11.00">9,997 rows</text>
<polygon fill="#ffffff" stroke="transparent" points="335,-101 335,-119 348,-119 348,-101 335,-101"/>
<polygon fill="none" stroke="black" points="335,-101 335,-119 348,-119 348,-101 335,-101"/>
<text text-anchor="start" x="338" y="-107.2" font-family="Helvetica,sans-Serif" font-size="11.00"> &#160;</text>
</a>
</g>
</g>
<!-- geopoliticalunits -->
<g id="node4" class="node">
<title>geopoliticalunits</title>
<g id="a_node4"><a xlink:href="../../tables/geopoliticalunits.html" xlink:title="geopoliticalunits" target="_top">
<polygon fill="#ffffff" stroke="transparent" points="8,-37 8,-161 150,-161 150,-37 8,-37"/>
<polygon fill="#f5f5f5" stroke="transparent" points="8,-139 8,-161 150,-161 150,-139 8,-139"/>
<polygon fill="none" stroke="black" points="8,-139 8,-161 150,-161 150,-139 8,-139"/>
<text text-anchor="start" x="13" y="-148.2" font-family="Helvetica,sans-Serif" font-weight="bold" font-size="11.00">geopoliticalunits</text>
<text text-anchor="start" x="115" y="-147.2" font-family="Helvetica,sans-Serif" font-size="11.00">[table]</text>
<polygon fill="none" stroke="black" points="8,-117 8,-139 150,-139 150,-117 8,-117"/>
<image xlink:href="../../images/primaryKeys.png" width="11px" height="12px" preserveAspectRatio="xMinYMin meet" x="13" y="-134"/>
<text text-anchor="start" x="28" y="-125.2" font-family="Helvetica,sans-Serif" font-size="11.00">geopoliticalid</text>
<polygon fill="#ffffff" stroke="transparent" points="8,-95 8,-117 150,-117 150,-95 8,-95"/>
<polygon fill="none" stroke="black" points="8,-95 8,-117 150,-117 150,-95 8,-95"/>
<text text-anchor="start" x="28" y="-103.2" font-family="Helvetica,sans-Serif" font-size="11.00">geopoliticalname</text>
<polygon fill="#ffffff" stroke="transparent" points="8,-73 8,-95 150,-95 150,-73 8,-73"/>
<polygon fill="none" stroke="black" points="8,-73 8,-95 150,-95 150,-73 8,-73"/>
<text text-anchor="start" x="28" y="-81.2" font-family="Helvetica,sans-Serif" font-size="11.00">rank</text>
<polygon fill="none" stroke="black" points="8,-55 8,-73 150,-73 150,-55 8,-55"/>
<text text-anchor="start" x="11" y="-61.2" font-family="Helvetica,sans-Serif" font-size="11.00">...</text>
<polygon fill="#ffffff" stroke="transparent" points="8,-37 8,-55 41,-55 41,-37 8,-37"/>
<polygon fill="none" stroke="black" points="8,-37 8,-55 41,-55 41,-37 8,-37"/>
<text text-anchor="start" x="11" y="-43.2" font-family="Helvetica,sans-Serif" font-size="11.00"> &#160;</text>
<polygon fill="#ffffff" stroke="transparent" points="41,-37 41,-55 117,-55 117,-37 41,-37"/>
<polygon fill="none" stroke="black" points="41,-37 41,-55 117,-55 117,-37 41,-37"/>
<text text-anchor="start" x="54" y="-43.2" font-family="Helvetica,sans-Serif" font-size="11.00">10,101 rows</text>
<polygon fill="#ffffff" stroke="transparent" points="117,-37 117,-55 150,-55 150,-37 117,-37"/>
<polygon fill="none" stroke="black" points="117,-37 117,-55 150,-55 150,-37 117,-37"/>
<text text-anchor="start" x="131" y="-43.2" font-family="Helvetica,sans-Serif" font-size="11.00">3 &gt;</text>
</a>
</g>
</g>
<!-- geopaths&#45;&gt;geopoliticalunits -->
<g id="edge2" class="edge">
<title>geopaths:w&#45;&gt;geopoliticalunits:e</title>
<path fill="none" stroke="black" d="M237.5,-128C204.02,-128 190.63,-128 151,-128"/>
<polygon fill="black" stroke="black" points="244,-128 252,-131.6 248,-128 252,-128 252,-128 252,-128 248,-128 252,-124.4 244,-128 244,-128"/>
<ellipse fill="none" stroke="black" cx="240.8" cy="-128" rx="3.2" ry="3.2"/>
</g>
<!-- geopoldepth -->
<g id="node5" class="node">
<title>geopoldepth</title>
<g id="a_node5"><a xlink:href="../../tables/geopoldepth.html" xlink:title="geopoldepth" target="_top">
<polygon fill="#ffffff" stroke="transparent" points="245.5,-40 245.5,-80 354.5,-80 354.5,-40 245.5,-40"/>
<polygon fill="#f5f5f5" stroke="transparent" points="246,-58 246,-80 355,-80 355,-58 246,-58"/>
<polygon fill="none" stroke="black" points="246,-58 246,-80 355,-80 355,-58 246,-58"/>
<text text-anchor="start" x="251" y="-67.2" font-family="Helvetica,sans-Serif" font-weight="bold" font-size="11.00">geopoldepth</text>
<text text-anchor="start" x="322" y="-66.2" font-family="Helvetica,sans-Serif" font-size="11.00">[view]</text>
<polygon fill="none" stroke="black" points="246,-40 246,-58 355,-58 355,-40 246,-40"/>
<text text-anchor="start" x="249" y="-46.2" font-family="Helvetica,sans-Serif" font-size="11.00">...</text>
</a>
</g>
</g>
<!-- geopoldepth&#45;&gt;geopoliticalunits -->
<g id="edge3" class="edge">
<title>geopoldepth:w&#45;&gt;geopoliticalunits:e</title>
<path fill="none" stroke="black" stroke-dasharray="5,2" d="M230.31,-51.28C213.67,-57.32 209.47,-74.29 191,-90 172.32,-105.88 175.52,-128 151,-128"/>
<polygon fill="black" stroke="black" points="237.09,-50.23 245.55,-52.56 241.05,-49.61 245,-49 245,-49 245,-49 241.05,-49.61 244.45,-45.44 237.09,-50.23 237.09,-50.23"/>
<ellipse fill="none" stroke="black" cx="233.93" cy="-50.72" rx="3.2" ry="3.2"/>
</g>
<!-- lakeparameters -->
<g id="node6" class="node">
<title>lakeparameters</title>
<g id="a_node6"><a xlink:href="../../tables/lakeparameters.html" xlink:title="lakeparameters" target="_top">
<polygon fill="#ffffff" stroke="transparent" points="237.5,-434 237.5,-492 362.5,-492 362.5,-434 237.5,-434"/>
<polygon fill="#f5f5f5" stroke="transparent" points="238,-470 238,-492 363,-492 363,-470 238,-470"/>
<polygon fill="none" stroke="black" points="238,-470 238,-492 363,-492 363,-470 238,-470"/>
<text text-anchor="start" x="243" y="-479.2" font-family="Helvetica,sans-Serif" font-weight="bold" font-size="11.00">lakeparameters</text>
<text text-anchor="start" x="328" y="-478.2" font-family="Helvetica,sans-Serif" font-size="11.00">[table]</text>
<polygon fill="none" stroke="black" points="238,-452 238,-470 363,-470 363,-452 238,-452"/>
<text text-anchor="start" x="241" y="-458.2" font-family="Helvetica,sans-Serif" font-size="11.00">...</text>
<polygon fill="#ffffff" stroke="transparent" points="238,-434 238,-452 272,-452 272,-434 238,-434"/>
<polygon fill="none" stroke="black" points="238,-434 238,-452 272,-452 272,-434 238,-434"/>
<text text-anchor="start" x="241" y="-440.2" font-family="Helvetica,sans-Serif" font-size="11.00">&lt; 2</text>
<polygon fill="#ffffff" stroke="transparent" points="272,-434 272,-452 344,-452 344,-434 272,-434"/>
<polygon fill="none" stroke="black" points="272,-434 272,-452 344,-452 344,-434 272,-434"/>
<text text-anchor="start" x="281" y="-440.2" font-family="Helvetica,sans-Serif" font-size="11.00">23,151 rows</text>
<polygon fill="#ffffff" stroke="transparent" points="344,-434 344,-452 363,-452 363,-434 344,-434"/>
<polygon fill="none" stroke="black" points="344,-434 344,-452 363,-452 363,-434 344,-434"/>
<text text-anchor="start" x="353" y="-440.2" font-family="Helvetica,sans-Serif" font-size="11.00"> &#160;</text>
</a>
</g>
</g>
<!-- lakeparameters&#45;&gt;sites -->
<g id="edge4" class="edge">
<title>lakeparameters:w&#45;&gt;sites:e</title>
<path fill="none" stroke="black" d="M222.23,-459.48C188.9,-452.17 181.17,-421 140,-421"/>
<polygon fill="black" stroke="black" points="229.04,-460.18 236.63,-464.58 233.02,-460.59 237,-461 237,-461 237,-461 233.02,-460.59 237.37,-457.42 229.04,-460.18 229.04,-460.18"/>
<ellipse fill="none" stroke="black" cx="225.86" cy="-459.85" rx="3.2" ry="3.2"/>
</g>
<!-- sitegeopolitical -->
<g id="node7" class="node">
<title>sitegeopolitical</title>
<g id="a_node7"><a xlink:href="../../tables/sitegeopolitical.html" xlink:title="sitegeopolitical" target="_top">
<polygon fill="#ffffff" stroke="transparent" points="199,-180 199,-334 401,-334 401,-180 199,-180"/>
<polygon fill="#f5f5f5" stroke="transparent" points="201,-310 201,-332 399,-332 399,-310 201,-310"/>
<polygon fill="none" stroke="black" points="201,-310 201,-332 399,-332 399,-310 201,-310"/>
<text text-anchor="start" x="206" y="-319.2" font-family="Helvetica,sans-Serif" font-weight="bold" font-size="11.00">sitegeopolitical</text>
<text text-anchor="start" x="364" y="-318.2" font-family="Helvetica,sans-Serif" font-size="11.00">[table]</text>
<polygon fill="none" stroke="black" points="201,-288 201,-310 325,-310 325,-288 201,-288"/>
<image xlink:href="../../images/primaryKeys.png" width="11px" height="12px" preserveAspectRatio="xMinYMin meet" x="206" y="-305"/>
<text text-anchor="start" x="221" y="-296.2" font-family="Helvetica,sans-Serif" font-size="11.00">sitegeopoliticalid</text>
<polygon fill="none" stroke="black" points="325,-288 325,-310 399,-310 399,-288 325,-288"/>
<text text-anchor="start" x="328" y="-296.2" font-family="Helvetica,sans-Serif" font-size="11.00">serial[10]</text>
<polygon fill="#ffffff" stroke="transparent" points="201,-266 201,-288 325,-288 325,-266 201,-266"/>
<polygon fill="none" stroke="black" points="201,-266 201,-288 325,-288 325,-266 201,-266"/>
<image xlink:href="../../images/foreignKeys.png" width="11px" height="12px" preserveAspectRatio="xMinYMin meet" x="206" y="-283"/>
<text text-anchor="start" x="221" y="-274.2" font-family="Helvetica,sans-Serif" font-size="11.00">siteid</text>
<polygon fill="none" stroke="black" points="325,-266 325,-288 399,-288 399,-266 325,-266"/>
<text text-anchor="start" x="328" y="-274.2" font-family="Helvetica,sans-Serif" font-size="11.00">int4[10]</text>
<polygon fill="#ffffff" stroke="transparent" points="201,-244 201,-266 325,-266 325,-244 201,-244"/>
<polygon fill="none" stroke="black" points="201,-244 201,-266 325,-266 325,-244 201,-244"/>
<image xlink:href="../../images/foreignKeys.png" width="11px" height="12px" preserveAspectRatio="xMinYMin meet" x="206" y="-261"/>
<text text-anchor="start" x="221" y="-252.2" font-family="Helvetica,sans-Serif" font-size="11.00">geopoliticalid</text>
<polygon fill="none" stroke="black" points="325,-244 325,-266 399,-266 399,-244 325,-244"/>
<text text-anchor="start" x="328" y="-252.2" font-family="Helvetica,sans-Serif" font-size="11.00">int4[10]</text>
<polygon fill="none" stroke="black" points="201,-222 201,-244 325,-244 325,-222 201,-222"/>
<text text-anchor="start" x="221" y="-230.2" font-family="Helvetica,sans-Serif" font-size="11.00">recdatecreated</text>
<polygon fill="none" stroke="black" points="325,-222 325,-244 399,-244 399,-222 325,-222"/>
<text text-anchor="start" x="328" y="-230.2" font-family="Helvetica,sans-Serif" font-size="11.00">timestamp[22]</text>
<polygon fill="none" stroke="black" points="201,-200 201,-222 325,-222 325,-200 201,-200"/>
<text text-anchor="start" x="221" y="-208.2" font-family="Helvetica,sans-Serif" font-size="11.00">recdatemodified</text>
<polygon fill="none" stroke="black" points="325,-200 325,-222 399,-222 399,-200 325,-200"/>
<text text-anchor="start" x="328" y="-208.2" font-family="Helvetica,sans-Serif" font-size="11.00">timestamp[22]</text>
<polygon fill="#ffffff" stroke="transparent" points="201,-182 201,-200 241,-200 241,-182 201,-182"/>
<polygon fill="none" stroke="black" points="201,-182 201,-200 241,-200 241,-182 201,-182"/>
<text text-anchor="start" x="204" y="-188.2" font-family="Helvetica,sans-Serif" font-size="11.00">&lt; 2</text>
<polygon fill="#ffffff" stroke="transparent" points="241,-182 241,-200 325,-200 325,-182 241,-182"/>
<polygon fill="none" stroke="black" points="241,-182 241,-200 325,-200 325,-182 241,-182"/>
<text text-anchor="start" x="262" y="-188.2" font-family="Helvetica,sans-Serif" font-size="11.00">55,744 rows</text>
<polygon fill="#ffffff" stroke="transparent" points="325,-182 325,-200 399,-200 399,-182 325,-182"/>
<polygon fill="none" stroke="black" points="325,-182 325,-200 399,-200 399,-182 325,-182"/>
<text text-anchor="start" x="380" y="-188.2" font-family="Helvetica,sans-Serif" font-size="11.00">0 &gt;</text>
<polygon fill="none" stroke="black" stroke-width="2" points="200,-181 200,-333 400,-333 400,-181 200,-181"/>
</a>
</g>
</g>
<!-- sitegeopolitical&#45;&gt;sites -->
<g id="edge6" class="edge">
<title>sitegeopolitical:w&#45;&gt;sites:e</title>
<path fill="none" stroke="black" d="M185.76,-279.75C142.58,-299.66 203.65,-421 140,-421"/>
<polygon fill="black" stroke="black" points="192.14,-278.52 200.68,-280.53 196.07,-277.76 200,-277 200,-277 200,-277 196.07,-277.76 199.32,-273.47 192.14,-278.52 192.14,-278.52"/>
<ellipse fill="none" stroke="black" cx="189" cy="-279.12" rx="3.2" ry="3.2"/>
</g>
<!-- sitegeopolitical&#45;&gt;geopoliticalunits -->
<g id="edge5" class="edge">
<title>sitegeopolitical:w&#45;&gt;geopoliticalunits:e</title>
<path fill="none" stroke="black" d="M185.82,-251.6C152.3,-231.41 205.59,-128 151,-128"/>
<polygon fill="black" stroke="black" points="192.22,-253.14 199.16,-258.5 196.11,-254.07 200,-255 200,-255 200,-255 196.11,-254.07 200.84,-251.5 192.22,-253.14 192.22,-253.14"/>
<ellipse fill="none" stroke="black" cx="189.11" cy="-252.39" rx="3.2" ry="3.2"/>
</g>
<!-- siteimages -->
<g id="node8" class="node">
<title>siteimages</title>
<g id="a_node8"><a xlink:href="../../tables/siteimages.html" xlink:title="siteimages" target="_top">
<polygon fill="#ffffff" stroke="transparent" points="249.5,-355 249.5,-413 350.5,-413 350.5,-355 249.5,-355"/>
<polygon fill="#f5f5f5" stroke="transparent" points="250,-391 250,-413 351,-413 351,-391 250,-391"/>
<polygon fill="none" stroke="black" points="250,-391 250,-413 351,-413 351,-391 250,-391"/>
<text text-anchor="start" x="255" y="-400.2" font-family="Helvetica,sans-Serif" font-weight="bold" font-size="11.00">siteimages</text>
<text text-anchor="start" x="316" y="-399.2" font-family="Helvetica,sans-Serif" font-size="11.00">[table]</text>
<polygon fill="none" stroke="black" points="250,-373 250,-391 351,-391 351,-373 250,-373"/>
<text text-anchor="start" x="253" y="-379.2" font-family="Helvetica,sans-Serif" font-size="11.00">...</text>
<polygon fill="#ffffff" stroke="transparent" points="250,-355 250,-373 285,-373 285,-355 250,-355"/>
<polygon fill="none" stroke="black" points="250,-355 250,-373 285,-373 285,-355 250,-355"/>
<text text-anchor="start" x="253" y="-361.2" font-family="Helvetica,sans-Serif" font-size="11.00">&lt; 2</text>
<polygon fill="#ffffff" stroke="transparent" points="285,-355 285,-373 331,-373 331,-355 285,-355"/>
<polygon fill="none" stroke="black" points="285,-355 285,-373 331,-373 331,-355 285,-355"/>
<text text-anchor="start" x="295" y="-361.2" font-family="Helvetica,sans-Serif" font-size="11.00">9 rows</text>
<polygon fill="#ffffff" stroke="transparent" points="331,-355 331,-373 351,-373 351,-355 331,-355"/>
<polygon fill="none" stroke="black" points="331,-355 331,-373 351,-373 351,-355 331,-355"/>
<text text-anchor="start" x="341" y="-361.2" font-family="Helvetica,sans-Serif" font-size="11.00"> &#160;</text>
</a>
</g>
</g>
<!-- siteimages&#45;&gt;sites -->
<g id="edge7" class="edge">
<title>siteimages:w&#45;&gt;sites:e</title>
<path fill="none" stroke="black" d="M234.63,-383.13C195.84,-389.52 186.23,-421 140,-421"/>
<polygon fill="black" stroke="black" points="241.02,-382.62 249.28,-385.59 245.01,-382.31 249,-382 249,-382 249,-382 245.01,-382.31 248.72,-378.41 241.02,-382.62 241.02,-382.62"/>
<ellipse fill="none" stroke="black" cx="237.83" cy="-382.87" rx="3.2" ry="3.2"/>
</g>
</g>
</svg>
