<?xml version="1.0" encoding="UTF-8" standalone="no"?>
<!DOCTYPE svg PUBLIC "-//W3C//DTD SVG 1.1//EN"
 "http://www.w3.org/Graphics/SVG/1.1/DTD/svg11.dtd">
<!-- Generated by graphviz version 2.43.0 (0)
 -->
<!-- Title: twoDegreesRelationshipsDiagram Pages: 1 -->
<svg width="645pt" height="660pt"
 viewBox="0.00 0.00 645.00 660.00" xmlns="http://www.w3.org/2000/svg" xmlns:xlink="http://www.w3.org/1999/xlink">
<g id="graph0" class="graph" transform="scale(1 1) rotate(0) translate(4 656)">
<title>twoDegreesRelationshipsDiagram</title>
<polygon fill="#ffffff" stroke="transparent" points="-4,4 -4,-656 641,-656 641,4 -4,4"/>
<text text-anchor="middle" x="71.5" y="-7.2" font-family="Helvetica,sans-Serif" font-size="11.00">Generated by SchemaSpy</text>
<!-- isospecimendata -->
<g id="node1" class="node">
<title>isospecimendata</title>
<g id="a_node1"><a xlink:href="../../tables/isospecimendata.html" xlink:title="isospecimendata" target="_top">
<polygon fill="#ffffff" stroke="transparent" points="465,-590 465,-648 598,-648 598,-590 465,-590"/>
<polygon fill="#f5f5f5" stroke="transparent" points="465.5,-626 465.5,-648 598.5,-648 598.5,-626 465.5,-626"/>
<polygon fill="none" stroke="black" points="465.5,-626 465.5,-648 598.5,-648 598.5,-626 465.5,-626"/>
<text text-anchor="start" x="470.5" y="-635.2" font-family="Helvetica,sans-Serif" font-weight="bold" font-size="11.00">isospecimendata</text>
<text text-anchor="start" x="563.5" y="-634.2" font-family="Helvetica,sans-Serif" font-size="11.00">[table]</text>
<polygon fill="none" stroke="black" points="465.5,-608 465.5,-626 598.5,-626 598.5,-608 465.5,-608"/>
<text text-anchor="start" x="468.5" y="-614.2" font-family="Helvetica,sans-Serif" font-size="11.00">...</text>
<polygon fill="#ffffff" stroke="transparent" points="465.5,-590 465.5,-608 506.5,-608 506.5,-590 465.5,-590"/>
<polygon fill="none" stroke="black" points="465.5,-590 465.5,-608 506.5,-608 506.5,-590 465.5,-590"/>
<text text-anchor="start" x="468.5" y="-596.2" font-family="Helvetica,sans-Serif" font-size="11.00">&lt; 2</text>
<polygon fill="#ffffff" stroke="transparent" points="506.5,-590 506.5,-608 575.5,-608 575.5,-590 506.5,-590"/>
<polygon fill="none" stroke="black" points="506.5,-590 506.5,-608 575.5,-608 575.5,-590 506.5,-590"/>
<text text-anchor="start" x="518.5" y="-596.2" font-family="Helvetica,sans-Serif" font-size="11.00">5,193 rows</text>
<polygon fill="#ffffff" stroke="transparent" points="575.5,-590 575.5,-608 598.5,-608 598.5,-590 575.5,-590"/>
<polygon fill="none" stroke="black" points="575.5,-590 575.5,-608 598.5,-608 598.5,-590 575.5,-590"/>
<text text-anchor="start" x="588.5" y="-596.2" font-family="Helvetica,sans-Serif" font-size="11.00"> &#160;</text>
</a>
</g>
</g>
<!-- data -->
<g id="node2" class="node">
<title>data</title>
<g id="a_node2"><a xlink:href="../../tables/data.html" xlink:title="data" target="_top">
<polygon fill="#ffffff" stroke="transparent" points="44.5,-590 44.5,-648 175.5,-648 175.5,-590 44.5,-590"/>
<polygon fill="#f5f5f5" stroke="transparent" points="45,-626 45,-648 176,-648 176,-626 45,-626"/>
<polygon fill="none" stroke="black" points="45,-626 45,-648 176,-648 176,-626 45,-626"/>
<text text-anchor="start" x="50" y="-635.2" font-family="Helvetica,sans-Serif" font-weight="bold" font-size="11.00">data</text>
<text text-anchor="start" x="141" y="-634.2" font-family="Helvetica,sans-Serif" font-size="11.00">[table]</text>
<polygon fill="none" stroke="black" points="45,-608 45,-626 176,-626 176,-608 45,-608"/>
<text text-anchor="start" x="48" y="-614.2" font-family="Helvetica,sans-Serif" font-size="11.00">...</text>
<polygon fill="#ffffff" stroke="transparent" points="45,-590 45,-608 67,-608 67,-590 45,-590"/>
<polygon fill="none" stroke="black" points="45,-590 45,-608 67,-608 67,-590 45,-590"/>
<text text-anchor="start" x="48" y="-596.2" font-family="Helvetica,sans-Serif" font-size="11.00">&lt; 2</text>
<polygon fill="#ffffff" stroke="transparent" points="67,-590 67,-608 154,-608 154,-590 67,-590"/>
<polygon fill="none" stroke="black" points="67,-590 67,-608 154,-608 154,-590 67,-590"/>
<text text-anchor="start" x="70" y="-596.2" font-family="Helvetica,sans-Serif" font-size="11.00">10,039,985 rows</text>
<polygon fill="#ffffff" stroke="transparent" points="154,-590 154,-608 176,-608 176,-590 154,-590"/>
<polygon fill="none" stroke="black" points="154,-590 154,-608 176,-608 176,-590 154,-590"/>
<text text-anchor="start" x="157" y="-596.2" font-family="Helvetica,sans-Serif" font-size="11.00">7 &gt;</text>
</a>
</g>
</g>
<!-- isospecimendata&#45;&gt;data -->
<g id="edge1" class="edge">
<title>isospecimendata:w&#45;&gt;data:e</title>
<path fill="none" stroke="black" d="M449.95,-617C334.08,-617 299.79,-617 177,-617"/>
<polygon fill="black" stroke="black" points="456.5,-617 464.5,-620.6 460.5,-617 464.5,-617 464.5,-617 464.5,-617 460.5,-617 464.5,-613.4 456.5,-617 456.5,-617"/>
<ellipse fill="none" stroke="black" cx="453.3" cy="-617" rx="3.2" ry="3.2"/>
</g>
<!-- specimens -->
<g id="node3" class="node">
<title>specimens</title>
<g id="a_node3"><a xlink:href="../../tables/specimens.html" xlink:title="specimens" target="_top">
<polygon fill="#ffffff" stroke="transparent" points="261,-238 261,-494 385,-494 385,-238 261,-238"/>
<polygon fill="#f5f5f5" stroke="transparent" points="261,-472 261,-494 385,-494 385,-472 261,-472"/>
<polygon fill="none" stroke="black" points="261,-472 261,-494 385,-494 385,-472 261,-472"/>
<text text-anchor="start" x="266" y="-481.2" font-family="Helvetica,sans-Serif" font-weight="bold" font-size="11.00">specimens</text>
<text text-anchor="start" x="350" y="-480.2" font-family="Helvetica,sans-Serif" font-size="11.00">[table]</text>
<polygon fill="none" stroke="black" points="261,-450 261,-472 385,-472 385,-450 261,-450"/>
<image xlink:href="../../images/primaryKeys.png" width="11px" height="12px" preserveAspectRatio="xMinYMin meet" x="266" y="-467"/>
<text text-anchor="start" x="281" y="-458.2" font-family="Helvetica,sans-Serif" font-size="11.00">specimenid</text>
<polygon fill="none" stroke="black" points="261,-428 261,-450 385,-450 385,-428 261,-428"/>
<image xlink:href="../../images/foreignKeys.png" width="11px" height="12px" preserveAspectRatio="xMinYMin meet" x="266" y="-445"/>
<text text-anchor="start" x="281" y="-436.2" font-family="Helvetica,sans-Serif" font-size="11.00">dataid</text>
<polygon fill="none" stroke="black" points="261,-406 261,-428 385,-428 385,-406 261,-406"/>
<image xlink:href="../../images/foreignKeys.png" width="11px" height="12px" preserveAspectRatio="xMinYMin meet" x="266" y="-423"/>
<text text-anchor="start" x="281" y="-414.2" font-family="Helvetica,sans-Serif" font-size="11.00">elementtypeid</text>
<polygon fill="none" stroke="black" points="261,-384 261,-406 385,-406 385,-384 261,-384"/>
<image xlink:href="../../images/foreignKeys.png" width="11px" height="12px" preserveAspectRatio="xMinYMin meet" x="266" y="-401"/>
<text text-anchor="start" x="281" y="-392.2" font-family="Helvetica,sans-Serif" font-size="11.00">symmetryid</text>
<polygon fill="none" stroke="black" points="261,-362 261,-384 385,-384 385,-362 261,-362"/>
<image xlink:href="../../images/foreignKeys.png" width="11px" height="12px" preserveAspectRatio="xMinYMin meet" x="266" y="-379"/>
<text text-anchor="start" x="281" y="-370.2" font-family="Helvetica,sans-Serif" font-size="11.00">portionid</text>
<polygon fill="none" stroke="black" points="261,-340 261,-362 385,-362 385,-340 261,-340"/>
<image xlink:href="../../images/foreignKeys.png" width="11px" height="12px" preserveAspectRatio="xMinYMin meet" x="266" y="-357"/>
<text text-anchor="start" x="281" y="-348.2" font-family="Helvetica,sans-Serif" font-size="11.00">maturityid</text>
<polygon fill="none" stroke="black" points="261,-318 261,-340 385,-340 385,-318 261,-318"/>
<image xlink:href="../../images/foreignKeys.png" width="11px" height="12px" preserveAspectRatio="xMinYMin meet" x="266" y="-335"/>
<text text-anchor="start" x="281" y="-326.2" font-family="Helvetica,sans-Serif" font-size="11.00">sexid</text>
<polygon fill="none" stroke="black" points="261,-296 261,-318 385,-318 385,-296 261,-296"/>
<image xlink:href="../../images/foreignKeys.png" width="11px" height="12px" preserveAspectRatio="xMinYMin meet" x="266" y="-313"/>
<text text-anchor="start" x="281" y="-304.2" font-family="Helvetica,sans-Serif" font-size="11.00">domesticstatusid</text>
<polygon fill="none" stroke="black" points="261,-274 261,-296 385,-296 385,-274 261,-274"/>
<image xlink:href="../../images/foreignKeys.png" width="11px" height="12px" preserveAspectRatio="xMinYMin meet" x="266" y="-291"/>
<text text-anchor="start" x="281" y="-282.2" font-family="Helvetica,sans-Serif" font-size="11.00">repositoryid</text>
<polygon fill="none" stroke="black" points="261,-256 261,-274 385,-274 385,-256 261,-256"/>
<text text-anchor="start" x="264" y="-262.2" font-family="Helvetica,sans-Serif" font-size="11.00">...</text>
<polygon fill="#ffffff" stroke="transparent" points="261,-238 261,-256 293,-256 293,-238 261,-238"/>
<polygon fill="none" stroke="black" points="261,-238 261,-256 293,-256 293,-238 261,-238"/>
<text text-anchor="start" x="264" y="-244.2" font-family="Helvetica,sans-Serif" font-size="11.00">&lt; 8</text>
<polygon fill="#ffffff" stroke="transparent" points="293,-238 293,-256 358,-256 358,-238 293,-238"/>
<polygon fill="none" stroke="black" points="293,-238 293,-256 358,-256 358,-238 293,-238"/>
<text text-anchor="start" x="301" y="-244.2" font-family="Helvetica,sans-Serif" font-size="11.00">3,351 rows</text>
<polygon fill="#ffffff" stroke="transparent" points="358,-238 358,-256 385,-256 385,-238 358,-238"/>
<polygon fill="none" stroke="black" points="358,-238 358,-256 385,-256 385,-238 358,-238"/>
<text text-anchor="start" x="366" y="-244.2" font-family="Helvetica,sans-Serif" font-size="11.00">4 &gt;</text>
</a>
</g>
</g>
<!-- isospecimendata&#45;&gt;specimens -->
<g id="edge2" class="edge">
<title>isospecimendata:w&#45;&gt;specimens:e</title>
<path fill="none" stroke="black" d="M450.26,-614.04C439.07,-608.33 435.53,-595.04 426,-580 396.14,-532.87 441.8,-461 386,-461"/>
<polygon fill="black" stroke="black" points="456.67,-615.37 463.77,-620.52 460.58,-616.19 464.5,-617 464.5,-617 464.5,-617 460.58,-616.19 465.23,-613.48 456.67,-615.37 456.67,-615.37"/>
<ellipse fill="none" stroke="black" cx="453.53" cy="-614.72" rx="3.2" ry="3.2"/>
</g>
<!-- specimens&#45;&gt;data -->
<g id="edge6" class="edge">
<title>specimens:w&#45;&gt;data:e</title>
<path fill="none" stroke="black" d="M245.58,-440.92C204.71,-453.89 251.98,-529.93 220,-580 206.43,-601.25 202.21,-617 177,-617"/>
<polygon fill="black" stroke="black" points="252.07,-440.05 260.47,-442.57 256.03,-439.53 260,-439 260,-439 260,-439 256.03,-439.53 259.53,-435.43 252.07,-440.05 252.07,-440.05"/>
<ellipse fill="none" stroke="black" cx="248.9" cy="-440.47" rx="3.2" ry="3.2"/>
</g>
<!-- elementtypes -->
<g id="node5" class="node">
<title>elementtypes</title>
<g id="a_node5"><a xlink:href="../../tables/elementtypes.html" xlink:title="elementtypes" target="_top">
<polygon fill="#ffffff" stroke="transparent" points="53,-511 53,-569 167,-569 167,-511 53,-511"/>
<polygon fill="#f5f5f5" stroke="transparent" points="53,-547 53,-569 167,-569 167,-547 53,-547"/>
<polygon fill="none" stroke="black" points="53,-547 53,-569 167,-569 167,-547 53,-547"/>
<text text-anchor="start" x="58" y="-556.2" font-family="Helvetica,sans-Serif" font-weight="bold" font-size="11.00">elementtypes</text>
<text text-anchor="start" x="132" y="-555.2" font-family="Helvetica,sans-Serif" font-size="11.00">[table]</text>
<polygon fill="none" stroke="black" points="53,-529 53,-547 167,-547 167,-529 53,-529"/>
<text text-anchor="start" x="56" y="-535.2" font-family="Helvetica,sans-Serif" font-size="11.00">...</text>
<polygon fill="#ffffff" stroke="transparent" points="53,-511 53,-529 80,-529 80,-511 53,-511"/>
<polygon fill="none" stroke="black" points="53,-511 53,-529 80,-529 80,-511 53,-511"/>
<text text-anchor="start" x="56" y="-517.2" font-family="Helvetica,sans-Serif" font-size="11.00"> &#160;</text>
<polygon fill="#ffffff" stroke="transparent" points="80,-511 80,-529 138,-529 138,-511 80,-511"/>
<polygon fill="none" stroke="black" points="80,-511 80,-529 138,-529 138,-511 80,-511"/>
<text text-anchor="start" x="90" y="-517.2" font-family="Helvetica,sans-Serif" font-size="11.00">926 rows</text>
<polygon fill="#ffffff" stroke="transparent" points="138,-511 138,-529 167,-529 167,-511 138,-511"/>
<polygon fill="none" stroke="black" points="138,-511 138,-529 167,-529 167,-511 138,-511"/>
<text text-anchor="start" x="148" y="-517.2" font-family="Helvetica,sans-Serif" font-size="11.00">5 &gt;</text>
</a>
</g>
</g>
<!-- specimens&#45;&gt;elementtypes -->
<g id="edge8" class="edge">
<title>specimens:w&#45;&gt;elementtypes:e</title>
<path fill="none" stroke="black" d="M245.76,-420.22C225.74,-432.08 242.64,-474.03 220,-501 201.76,-522.72 196.36,-538 168,-538"/>
<polygon fill="black" stroke="black" points="252.2,-418.76 260.79,-420.51 256.1,-417.88 260,-417 260,-417 260,-417 256.1,-417.88 259.21,-413.49 252.2,-418.76 252.2,-418.76"/>
<ellipse fill="none" stroke="black" cx="249.08" cy="-419.47" rx="3.2" ry="3.2"/>
</g>
<!-- specimendomesticstatustypes -->
<g id="node7" class="node">
<title>specimendomesticstatustypes</title>
<g id="a_node7"><a xlink:href="../../tables/specimendomesticstatustypes.html" xlink:title="specimendomesticstatustypes" target="_top">
<polygon fill="#ffffff" stroke="transparent" points="8,-116 8,-174 212,-174 212,-116 8,-116"/>
<polygon fill="#f5f5f5" stroke="transparent" points="8,-152 8,-174 212,-174 212,-152 8,-152"/>
<polygon fill="none" stroke="black" points="8,-152 8,-174 212,-174 212,-152 8,-152"/>
<text text-anchor="start" x="13" y="-161.2" font-family="Helvetica,sans-Serif" font-weight="bold" font-size="11.00">specimendomesticstatustypes</text>
<text text-anchor="start" x="177" y="-160.2" font-family="Helvetica,sans-Serif" font-size="11.00">[table]</text>
<polygon fill="none" stroke="black" points="8,-134 8,-152 212,-152 212,-134 8,-134"/>
<text text-anchor="start" x="11" y="-140.2" font-family="Helvetica,sans-Serif" font-size="11.00">...</text>
<polygon fill="#ffffff" stroke="transparent" points="8,-116 8,-134 86,-134 86,-116 8,-116"/>
<polygon fill="none" stroke="black" points="8,-116 8,-134 86,-134 86,-116 8,-116"/>
<text text-anchor="start" x="11" y="-122.2" font-family="Helvetica,sans-Serif" font-size="11.00"> &#160;</text>
<polygon fill="#ffffff" stroke="transparent" points="86,-116 86,-134 157,-134 157,-116 86,-116"/>
<polygon fill="none" stroke="black" points="86,-116 86,-134 157,-134 157,-116 86,-116"/>
<text text-anchor="start" x="121" y="-122.2" font-family="Helvetica,sans-Serif" font-size="11.00">4 rows</text>
<polygon fill="#ffffff" stroke="transparent" points="157,-116 157,-134 212,-134 212,-116 157,-116"/>
<polygon fill="none" stroke="black" points="157,-116 157,-134 212,-134 212,-116 157,-116"/>
<text text-anchor="start" x="193" y="-122.2" font-family="Helvetica,sans-Serif" font-size="11.00">1 &gt;</text>
</a>
</g>
</g>
<!-- specimens&#45;&gt;specimendomesticstatustypes -->
<g id="edge7" class="edge">
<title>specimens:w&#45;&gt;specimendomesticstatustypes:e</title>
<path fill="none" stroke="black" d="M245.66,-304.29C199.07,-282.97 283.05,-143 213,-143"/>
<polygon fill="black" stroke="black" points="252.14,-305.52 259.33,-310.54 256.07,-306.26 260,-307 260,-307 260,-307 256.07,-306.26 260.67,-303.46 252.14,-305.52 252.14,-305.52"/>
<ellipse fill="none" stroke="black" cx="248.99" cy="-304.92" rx="3.2" ry="3.2"/>
</g>
<!-- elementmaturities -->
<g id="node8" class="node">
<title>elementmaturities</title>
<g id="a_node8"><a xlink:href="../../tables/elementmaturities.html" xlink:title="elementmaturities" target="_top">
<polygon fill="#ffffff" stroke="transparent" points="41,-274 41,-332 179,-332 179,-274 41,-274"/>
<polygon fill="#f5f5f5" stroke="transparent" points="41,-310 41,-332 179,-332 179,-310 41,-310"/>
<polygon fill="none" stroke="black" points="41,-310 41,-332 179,-332 179,-310 41,-310"/>
<text text-anchor="start" x="46" y="-319.2" font-family="Helvetica,sans-Serif" font-weight="bold" font-size="11.00">elementmaturities</text>
<text text-anchor="start" x="144" y="-318.2" font-family="Helvetica,sans-Serif" font-size="11.00">[table]</text>
<polygon fill="none" stroke="black" points="41,-292 41,-310 179,-310 179,-292 41,-292"/>
<text text-anchor="start" x="44" y="-298.2" font-family="Helvetica,sans-Serif" font-size="11.00">...</text>
<polygon fill="#ffffff" stroke="transparent" points="41,-274 41,-292 83,-292 83,-274 41,-274"/>
<polygon fill="none" stroke="black" points="41,-274 41,-292 83,-292 83,-274 41,-274"/>
<text text-anchor="start" x="44" y="-280.2" font-family="Helvetica,sans-Serif" font-size="11.00"> &#160;</text>
<polygon fill="#ffffff" stroke="transparent" points="83,-274 83,-292 142,-292 142,-274 83,-274"/>
<polygon fill="none" stroke="black" points="83,-274 83,-292 142,-292 142,-274 83,-274"/>
<text text-anchor="start" x="100" y="-280.2" font-family="Helvetica,sans-Serif" font-size="11.00">12 rows</text>
<polygon fill="#ffffff" stroke="transparent" points="142,-274 142,-292 179,-292 179,-274 142,-274"/>
<polygon fill="none" stroke="black" points="142,-274 142,-292 179,-292 179,-274 142,-274"/>
<text text-anchor="start" x="160" y="-280.2" font-family="Helvetica,sans-Serif" font-size="11.00">3 &gt;</text>
</a>
</g>
</g>
<!-- specimens&#45;&gt;elementmaturities -->
<g id="edge9" class="edge">
<title>specimens:w&#45;&gt;elementmaturities:e</title>
<path fill="none" stroke="black" d="M245.5,-348.59C218.29,-338.6 216.36,-301 180,-301"/>
<polygon fill="black" stroke="black" points="252.11,-349.69 259.41,-354.55 256.05,-350.34 260,-351 260,-351 260,-351 256.05,-350.34 260.59,-347.45 252.11,-349.69 252.11,-349.69"/>
<ellipse fill="none" stroke="black" cx="248.95" cy="-349.16" rx="3.2" ry="3.2"/>
</g>
<!-- elementportions -->
<g id="node9" class="node">
<title>elementportions</title>
<g id="a_node9"><a xlink:href="../../tables/elementportions.html" xlink:title="elementportions" target="_top">
<polygon fill="#ffffff" stroke="transparent" points="45,-353 45,-411 175,-411 175,-353 45,-353"/>
<polygon fill="#f5f5f5" stroke="transparent" points="45,-389 45,-411 175,-411 175,-389 45,-389"/>
<polygon fill="none" stroke="black" points="45,-389 45,-411 175,-411 175,-389 45,-389"/>
<text text-anchor="start" x="50" y="-398.2" font-family="Helvetica,sans-Serif" font-weight="bold" font-size="11.00">elementportions</text>
<text text-anchor="start" x="140" y="-397.2" font-family="Helvetica,sans-Serif" font-size="11.00">[table]</text>
<polygon fill="none" stroke="black" points="45,-371 45,-389 175,-389 175,-371 45,-371"/>
<text text-anchor="start" x="48" y="-377.2" font-family="Helvetica,sans-Serif" font-size="11.00">...</text>
<polygon fill="#ffffff" stroke="transparent" points="45,-353 45,-371 83,-371 83,-353 45,-353"/>
<polygon fill="none" stroke="black" points="45,-353 45,-371 83,-371 83,-353 45,-353"/>
<text text-anchor="start" x="48" y="-359.2" font-family="Helvetica,sans-Serif" font-size="11.00"> &#160;</text>
<polygon fill="#ffffff" stroke="transparent" points="83,-353 83,-371 140,-371 140,-353 83,-353"/>
<polygon fill="none" stroke="black" points="83,-353 83,-371 140,-371 140,-353 83,-353"/>
<text text-anchor="start" x="98" y="-359.2" font-family="Helvetica,sans-Serif" font-size="11.00">54 rows</text>
<polygon fill="#ffffff" stroke="transparent" points="140,-353 140,-371 175,-371 175,-353 140,-353"/>
<polygon fill="none" stroke="black" points="140,-353 140,-371 175,-371 175,-353 140,-353"/>
<text text-anchor="start" x="156" y="-359.2" font-family="Helvetica,sans-Serif" font-size="11.00">3 &gt;</text>
</a>
</g>
</g>
<!-- specimens&#45;&gt;elementportions -->
<g id="edge10" class="edge">
<title>specimens:w&#45;&gt;elementportions:e</title>
<path fill="none" stroke="black" d="M245.36,-373.4C219.32,-374.88 208.05,-380 176,-380"/>
<polygon fill="black" stroke="black" points="252,-373.22 260.1,-376.6 256,-373.11 260,-373 260,-373 260,-373 256,-373.11 259.9,-369.4 252,-373.22 252,-373.22"/>
<ellipse fill="none" stroke="black" cx="248.8" cy="-373.3" rx="3.2" ry="3.2"/>
</g>
<!-- repositoryinstitutions -->
<g id="node10" class="node">
<title>repositoryinstitutions</title>
<g id="a_node10"><a xlink:href="../../tables/repositoryinstitutions.html" xlink:title="repositoryinstitutions" target="_top">
<polygon fill="#ffffff" stroke="transparent" points="31,-37 31,-95 189,-95 189,-37 31,-37"/>
<polygon fill="#f5f5f5" stroke="transparent" points="31,-73 31,-95 189,-95 189,-73 31,-73"/>
<polygon fill="none" stroke="black" points="31,-73 31,-95 189,-95 189,-73 31,-73"/>
<text text-anchor="start" x="36" y="-82.2" font-family="Helvetica,sans-Serif" font-weight="bold" font-size="11.00">repositoryinstitutions</text>
<text text-anchor="start" x="154" y="-81.2" font-family="Helvetica,sans-Serif" font-size="11.00">[table]</text>
<polygon fill="none" stroke="black" points="31,-55 31,-73 189,-73 189,-55 31,-55"/>
<text text-anchor="start" x="34" y="-61.2" font-family="Helvetica,sans-Serif" font-size="11.00">...</text>
<polygon fill="#ffffff" stroke="transparent" points="31,-37 31,-55 80,-55 80,-37 31,-37"/>
<polygon fill="none" stroke="black" points="31,-37 31,-55 80,-55 80,-37 31,-37"/>
<text text-anchor="start" x="34" y="-43.2" font-family="Helvetica,sans-Serif" font-size="11.00"> &#160;</text>
<polygon fill="#ffffff" stroke="transparent" points="80,-37 80,-55 149,-55 149,-37 80,-37"/>
<polygon fill="none" stroke="black" points="80,-37 80,-55 149,-55 149,-37 80,-37"/>
<text text-anchor="start" x="101" y="-43.2" font-family="Helvetica,sans-Serif" font-size="11.00">387 rows</text>
<polygon fill="#ffffff" stroke="transparent" points="149,-37 149,-55 189,-55 189,-37 149,-37"/>
<polygon fill="none" stroke="black" points="149,-37 149,-55 189,-55 189,-37 149,-37"/>
<text text-anchor="start" x="170" y="-43.2" font-family="Helvetica,sans-Serif" font-size="11.00">2 &gt;</text>
</a>
</g>
</g>
<!-- specimens&#45;&gt;repositoryinstitutions -->
<g id="edge11" class="edge">
<title>specimens:w&#45;&gt;repositoryinstitutions:e</title>
<path fill="none" stroke="black" d="M245.32,-283.57C187.89,-270.74 251.49,-174.55 220,-105 210.69,-84.43 212.58,-64 190,-64"/>
<polygon fill="black" stroke="black" points="252.04,-284.22 259.65,-288.58 256.02,-284.61 260,-285 260,-285 260,-285 256.02,-284.61 260.35,-281.42 252.04,-284.22 252.04,-284.22"/>
<ellipse fill="none" stroke="black" cx="248.85" cy="-283.91" rx="3.2" ry="3.2"/>
</g>
<!-- specimensextypes -->
<g id="node11" class="node">
<title>specimensextypes</title>
<g id="a_node11"><a xlink:href="../../tables/specimensextypes.html" xlink:title="specimensextypes" target="_top">
<polygon fill="#ffffff" stroke="transparent" points="39.5,-195 39.5,-253 180.5,-253 180.5,-195 39.5,-195"/>
<polygon fill="#f5f5f5" stroke="transparent" points="40,-231 40,-253 181,-253 181,-231 40,-231"/>
<polygon fill="none" stroke="black" points="40,-231 40,-253 181,-253 181,-231 40,-231"/>
<text text-anchor="start" x="45" y="-240.2" font-family="Helvetica,sans-Serif" font-weight="bold" font-size="11.00">specimensextypes</text>
<text text-anchor="start" x="146" y="-239.2" font-family="Helvetica,sans-Serif" font-size="11.00">[table]</text>
<polygon fill="none" stroke="black" points="40,-213 40,-231 181,-231 181,-213 40,-213"/>
<text text-anchor="start" x="43" y="-219.2" font-family="Helvetica,sans-Serif" font-size="11.00">...</text>
<polygon fill="#ffffff" stroke="transparent" points="40,-195 40,-213 86,-213 86,-195 40,-195"/>
<polygon fill="none" stroke="black" points="40,-195 40,-213 86,-213 86,-195 40,-195"/>
<text text-anchor="start" x="43" y="-201.2" font-family="Helvetica,sans-Serif" font-size="11.00"> &#160;</text>
<polygon fill="#ffffff" stroke="transparent" points="86,-195 86,-213 142,-213 142,-195 86,-195"/>
<polygon fill="none" stroke="black" points="86,-195 86,-213 142,-213 142,-195 86,-195"/>
<text text-anchor="start" x="106" y="-201.2" font-family="Helvetica,sans-Serif" font-size="11.00">3 rows</text>
<polygon fill="#ffffff" stroke="transparent" points="142,-195 142,-213 181,-213 181,-195 142,-195"/>
<polygon fill="none" stroke="black" points="142,-195 142,-213 181,-213 181,-195 142,-195"/>
<text text-anchor="start" x="162" y="-201.2" font-family="Helvetica,sans-Serif" font-size="11.00">1 &gt;</text>
</a>
</g>
</g>
<!-- specimens&#45;&gt;specimensextypes -->
<g id="edge12" class="edge">
<title>specimens:w&#45;&gt;specimensextypes:e</title>
<path fill="none" stroke="black" d="M245.79,-325.55C229.92,-315.49 236.94,-285.46 220,-263 205.04,-243.16 206.85,-222 182,-222"/>
<polygon fill="black" stroke="black" points="252.23,-327.11 259.15,-332.5 256.11,-328.06 260,-329 260,-329 260,-329 256.11,-328.06 260.85,-325.5 252.23,-327.11 252.23,-327.11"/>
<ellipse fill="none" stroke="black" cx="249.12" cy="-326.36" rx="3.2" ry="3.2"/>
</g>
<!-- elementsymmetries -->
<g id="node12" class="node">
<title>elementsymmetries</title>
<g id="a_node12"><a xlink:href="../../tables/elementsymmetries.html" xlink:title="elementsymmetries" target="_top">
<polygon fill="#ffffff" stroke="transparent" points="36.5,-432 36.5,-490 183.5,-490 183.5,-432 36.5,-432"/>
<polygon fill="#f5f5f5" stroke="transparent" points="37,-468 37,-490 184,-490 184,-468 37,-468"/>
<polygon fill="none" stroke="black" points="37,-468 37,-490 184,-490 184,-468 37,-468"/>
<text text-anchor="start" x="42" y="-477.2" font-family="Helvetica,sans-Serif" font-weight="bold" font-size="11.00">elementsymmetries</text>
<text text-anchor="start" x="149" y="-476.2" font-family="Helvetica,sans-Serif" font-size="11.00">[table]</text>
<polygon fill="none" stroke="black" points="37,-450 37,-468 184,-468 184,-450 37,-450"/>
<text text-anchor="start" x="40" y="-456.2" font-family="Helvetica,sans-Serif" font-size="11.00">...</text>
<polygon fill="#ffffff" stroke="transparent" points="37,-432 37,-450 86,-450 86,-432 37,-432"/>
<polygon fill="none" stroke="black" points="37,-432 37,-450 86,-450 86,-432 37,-432"/>
<text text-anchor="start" x="40" y="-438.2" font-family="Helvetica,sans-Serif" font-size="11.00"> &#160;</text>
<polygon fill="#ffffff" stroke="transparent" points="86,-432 86,-450 143,-450 143,-432 86,-432"/>
<polygon fill="none" stroke="black" points="86,-432 86,-450 143,-450 143,-432 86,-432"/>
<text text-anchor="start" x="107" y="-438.2" font-family="Helvetica,sans-Serif" font-size="11.00">8 rows</text>
<polygon fill="#ffffff" stroke="transparent" points="143,-432 143,-450 184,-450 184,-432 143,-432"/>
<polygon fill="none" stroke="black" points="143,-432 143,-450 184,-450 184,-432 143,-432"/>
<text text-anchor="start" x="165" y="-438.2" font-family="Helvetica,sans-Serif" font-size="11.00">3 &gt;</text>
</a>
</g>
</g>
<!-- specimens&#45;&gt;elementsymmetries -->
<g id="edge13" class="edge">
<title>specimens:w&#45;&gt;elementsymmetries:e</title>
<path fill="none" stroke="black" d="M245.63,-397.92C218.5,-410.44 223.17,-459 185,-459"/>
<polygon fill="black" stroke="black" points="252.16,-396.59 260.72,-398.53 256.08,-395.8 260,-395 260,-395 260,-395 256.08,-395.8 259.28,-391.47 252.16,-396.59 252.16,-396.59"/>
<ellipse fill="none" stroke="black" cx="249.02" cy="-397.23" rx="3.2" ry="3.2"/>
</g>
<!-- specimendates -->
<g id="node4" class="node">
<title>specimendates</title>
<g id="a_node4"><a xlink:href="../../tables/specimendates.html" xlink:title="specimendates" target="_top">
<polygon fill="#ffffff" stroke="transparent" points="470,-511 470,-569 593,-569 593,-511 470,-511"/>
<polygon fill="#f5f5f5" stroke="transparent" points="470.5,-547 470.5,-569 593.5,-569 593.5,-547 470.5,-547"/>
<polygon fill="none" stroke="black" points="470.5,-547 470.5,-569 593.5,-569 593.5,-547 470.5,-547"/>
<text text-anchor="start" x="475.5" y="-556.2" font-family="Helvetica,sans-Serif" font-weight="bold" font-size="11.00">specimendates</text>
<text text-anchor="start" x="558.5" y="-555.2" font-family="Helvetica,sans-Serif" font-size="11.00">[table]</text>
<polygon fill="none" stroke="black" points="470.5,-529 470.5,-547 593.5,-547 593.5,-529 470.5,-529"/>
<text text-anchor="start" x="473.5" y="-535.2" font-family="Helvetica,sans-Serif" font-size="11.00">...</text>
<polygon fill="#ffffff" stroke="transparent" points="470.5,-511 470.5,-529 501.5,-529 501.5,-511 470.5,-511"/>
<polygon fill="none" stroke="black" points="470.5,-511 470.5,-529 501.5,-529 501.5,-511 470.5,-511"/>
<text text-anchor="start" x="473.5" y="-517.2" font-family="Helvetica,sans-Serif" font-size="11.00">&lt; 6</text>
<polygon fill="#ffffff" stroke="transparent" points="501.5,-511 501.5,-529 566.5,-529 566.5,-511 501.5,-511"/>
<polygon fill="none" stroke="black" points="501.5,-511 501.5,-529 566.5,-529 566.5,-511 501.5,-511"/>
<text text-anchor="start" x="509.5" y="-517.2" font-family="Helvetica,sans-Serif" font-size="11.00">2,662 rows</text>
<polygon fill="#ffffff" stroke="transparent" points="566.5,-511 566.5,-529 593.5,-529 593.5,-511 566.5,-511"/>
<polygon fill="none" stroke="black" points="566.5,-511 566.5,-529 593.5,-529 593.5,-511 566.5,-511"/>
<text text-anchor="start" x="574.5" y="-517.2" font-family="Helvetica,sans-Serif" font-size="11.00">1 &gt;</text>
</a>
</g>
</g>
<!-- specimendates&#45;&gt;specimens -->
<g id="edge4" class="edge">
<title>specimendates:w&#45;&gt;specimens:e</title>
<path fill="none" stroke="black" d="M455.34,-535.03C443.32,-528.87 440.28,-514.18 426,-501 407.52,-483.95 411.14,-461 386,-461"/>
<polygon fill="black" stroke="black" points="461.67,-536.36 468.76,-541.52 465.59,-537.18 469.5,-538 469.5,-538 469.5,-538 465.59,-537.18 470.24,-534.48 461.67,-536.36 461.67,-536.36"/>
<ellipse fill="none" stroke="black" cx="458.54" cy="-535.7" rx="3.2" ry="3.2"/>
</g>
<!-- specimendates&#45;&gt;elementtypes -->
<g id="edge3" class="edge">
<title>specimendates:w&#45;&gt;elementtypes:e</title>
<path fill="none" stroke="black" d="M454.99,-538C332.88,-538 297.03,-538 168,-538"/>
<polygon fill="black" stroke="black" points="461.5,-538 469.5,-541.6 465.5,-538 469.5,-538 469.5,-538 469.5,-538 465.5,-538 469.5,-534.4 461.5,-538 461.5,-538"/>
<ellipse fill="none" stroke="black" cx="458.3" cy="-538" rx="3.2" ry="3.2"/>
</g>
<!-- specimengenbank -->
<g id="node6" class="node">
<title>specimengenbank</title>
<g id="a_node6"><a xlink:href="../../tables/specimengenbank.html" xlink:title="specimengenbank" target="_top">
<polygon fill="#ffffff" stroke="transparent" points="434,-402 434,-490 629,-490 629,-402 434,-402"/>
<polygon fill="#f5f5f5" stroke="transparent" points="436.5,-466 436.5,-488 627.5,-488 627.5,-466 436.5,-466"/>
<polygon fill="none" stroke="black" points="436.5,-466 436.5,-488 627.5,-488 627.5,-466 436.5,-466"/>
<text text-anchor="start" x="441.5" y="-475.2" font-family="Helvetica,sans-Serif" font-weight="bold" font-size="11.00">specimengenbank</text>
<text text-anchor="start" x="592.5" y="-474.2" font-family="Helvetica,sans-Serif" font-size="11.00">[table]</text>
<polygon fill="none" stroke="black" points="436.5,-444 436.5,-466 566.5,-466 566.5,-444 436.5,-444"/>
<image xlink:href="../../images/primaryKeys.png" width="11px" height="12px" preserveAspectRatio="xMinYMin meet" x="441.5" y="-461"/>
<text text-anchor="start" x="456.5" y="-452.2" font-family="Helvetica,sans-Serif" font-size="11.00">specimenid</text>
<polygon fill="none" stroke="black" points="566.5,-444 566.5,-466 627.5,-466 627.5,-444 566.5,-444"/>
<text text-anchor="start" x="569.5" y="-452.2" font-family="Helvetica,sans-Serif" font-size="11.00">int4[10]</text>
<polygon fill="none" stroke="black" points="436.5,-422 436.5,-444 566.5,-444 566.5,-422 436.5,-422"/>
<image xlink:href="../../images/primaryKeys.png" width="11px" height="12px" preserveAspectRatio="xMinYMin meet" x="441.5" y="-439"/>
<text text-anchor="start" x="456.5" y="-430.2" font-family="Helvetica,sans-Serif" font-size="11.00">genbanknr</text>
<polygon fill="none" stroke="black" points="566.5,-422 566.5,-444 627.5,-444 627.5,-422 566.5,-422"/>
<text text-anchor="start" x="569.5" y="-430.2" font-family="Helvetica,sans-Serif" font-size="11.00">varchar[50]</text>
<polygon fill="#ffffff" stroke="transparent" points="436.5,-404 436.5,-422 492.5,-422 492.5,-404 436.5,-404"/>
<polygon fill="none" stroke="black" points="436.5,-404 436.5,-422 492.5,-422 492.5,-404 436.5,-404"/>
<text text-anchor="start" x="439.5" y="-410.2" font-family="Helvetica,sans-Serif" font-size="11.00">&lt; 1</text>
<polygon fill="#ffffff" stroke="transparent" points="492.5,-404 492.5,-422 566.5,-422 566.5,-404 492.5,-404"/>
<polygon fill="none" stroke="black" points="492.5,-404 492.5,-422 566.5,-422 566.5,-404 492.5,-404"/>
<text text-anchor="start" x="530.5" y="-410.2" font-family="Helvetica,sans-Serif" font-size="11.00">3 rows</text>
<polygon fill="#ffffff" stroke="transparent" points="566.5,-404 566.5,-422 627.5,-422 627.5,-404 566.5,-404"/>
<polygon fill="none" stroke="black" points="566.5,-404 566.5,-422 627.5,-422 627.5,-404 566.5,-404"/>
<text text-anchor="start" x="608.5" y="-410.2" font-family="Helvetica,sans-Serif" font-size="11.00">0 &gt;</text>
<polygon fill="none" stroke="black" stroke-width="2" points="435,-403 435,-489 628,-489 628,-403 435,-403"/>
</a>
</g>
</g>
<!-- specimengenbank&#45;&gt;specimens -->
<g id="edge5" class="edge">
<title>specimengenbank:w&#45;&gt;specimens:e</title>
<path fill="none" stroke="black" d="M420.8,-456.05C409.39,-457.76 402.27,-461 386,-461"/>
<polygon fill="black" stroke="black" points="427.52,-455.57 435.76,-458.59 431.51,-455.28 435.5,-455 435.5,-455 435.5,-455 431.51,-455.28 435.24,-451.41 427.52,-455.57 427.52,-455.57"/>
<ellipse fill="none" stroke="black" cx="424.33" cy="-455.79" rx="3.2" ry="3.2"/>
</g>
<!-- specimentaphonomy -->
<g id="node13" class="node">
<title>specimentaphonomy</title>
<g id="a_node13"><a xlink:href="../../tables/specimentaphonomy.html" xlink:title="specimentaphonomy" target="_top">
<polygon fill="#ffffff" stroke="transparent" points="454.5,-323 454.5,-381 608.5,-381 608.5,-323 454.5,-323"/>
<polygon fill="#f5f5f5" stroke="transparent" points="454.5,-359 454.5,-381 608.5,-381 608.5,-359 454.5,-359"/>
<polygon fill="none" stroke="black" points="454.5,-359 454.5,-381 608.5,-381 608.5,-359 454.5,-359"/>
<text text-anchor="start" x="459.5" y="-368.2" font-family="Helvetica,sans-Serif" font-weight="bold" font-size="11.00">specimentaphonomy</text>
<text text-anchor="start" x="573.5" y="-367.2" font-family="Helvetica,sans-Serif" font-size="11.00">[table]</text>
<polygon fill="none" stroke="black" points="454.5,-341 454.5,-359 608.5,-359 608.5,-341 454.5,-341"/>
<text text-anchor="start" x="457.5" y="-347.2" font-family="Helvetica,sans-Serif" font-size="11.00">...</text>
<polygon fill="#ffffff" stroke="transparent" points="454.5,-323 454.5,-341 510.5,-341 510.5,-323 454.5,-323"/>
<polygon fill="none" stroke="black" points="454.5,-323 454.5,-341 510.5,-341 510.5,-323 454.5,-323"/>
<text text-anchor="start" x="457.5" y="-329.2" font-family="Helvetica,sans-Serif" font-size="11.00">&lt; 2</text>
<polygon fill="#ffffff" stroke="transparent" points="510.5,-323 510.5,-341 578.5,-341 578.5,-323 510.5,-323"/>
<polygon fill="none" stroke="black" points="510.5,-323 510.5,-341 578.5,-341 578.5,-323 510.5,-323"/>
<text text-anchor="start" x="530.5" y="-329.2" font-family="Helvetica,sans-Serif" font-size="11.00">452 rows</text>
<polygon fill="#ffffff" stroke="transparent" points="578.5,-323 578.5,-341 608.5,-341 608.5,-323 578.5,-323"/>
<polygon fill="none" stroke="black" points="578.5,-323 578.5,-341 608.5,-341 608.5,-323 578.5,-323"/>
<text text-anchor="start" x="598.5" y="-329.2" font-family="Helvetica,sans-Serif" font-size="11.00"> &#160;</text>
</a>
</g>
</g>
<!-- specimentaphonomy&#45;&gt;specimens -->
<g id="edge14" class="edge">
<title>specimentaphonomy:w&#45;&gt;specimens:e</title>
<path fill="none" stroke="black" d="M438.96,-353.2C404.42,-371.4 437.87,-461 386,-461"/>
<polygon fill="black" stroke="black" points="445.69,-351.72 454.27,-353.52 449.59,-350.86 453.5,-350 453.5,-350 453.5,-350 449.59,-350.86 452.73,-346.48 445.69,-351.72 445.69,-351.72"/>
<ellipse fill="none" stroke="black" cx="442.56" cy="-352.41" rx="3.2" ry="3.2"/>
</g>
</g>
</svg>
