<?xml version="1.0" encoding="UTF-8" standalone="no"?>
<!DOCTYPE svg PUBLIC "-//W3C//DTD SVG 1.1//EN"
 "http://www.w3.org/Graphics/SVG/1.1/DTD/svg11.dtd">
<!-- Generated by graphviz version 2.43.0 (0)
 -->
<!-- Title: twoDegreesRelationshipsDiagram Pages: 1 -->
<svg width="698pt" height="822pt"
 viewBox="0.00 0.00 698.00 822.00" xmlns="http://www.w3.org/2000/svg" xmlns:xlink="http://www.w3.org/1999/xlink">
<g id="graph0" class="graph" transform="scale(1 1) rotate(0) translate(4 818)">
<title>twoDegreesRelationshipsDiagram</title>
<polygon fill="#ffffff" stroke="transparent" points="-4,4 -4,-818 694,-818 694,4 -4,4"/>
<text text-anchor="middle" x="71.5" y="-7.2" font-family="Helvetica,sans-Serif" font-size="11.00">Generated by SchemaSpy</text>
<!-- isospecimendata -->
<g id="node1" class="node">
<title>isospecimendata</title>
<g id="a_node1"><a xlink:href="../../tables/isospecimendata.html" xlink:title="isospecimendata" target="_top">
<polygon fill="#ffffff" stroke="transparent" points="503,-520 503,-578 636,-578 636,-520 503,-520"/>
<polygon fill="#f5f5f5" stroke="transparent" points="503.5,-556 503.5,-578 636.5,-578 636.5,-556 503.5,-556"/>
<polygon fill="none" stroke="black" points="503.5,-556 503.5,-578 636.5,-578 636.5,-556 503.5,-556"/>
<text text-anchor="start" x="508.5" y="-565.2" font-family="Helvetica,sans-Serif" font-weight="bold" font-size="11.00">isospecimendata</text>
<text text-anchor="start" x="601.5" y="-564.2" font-family="Helvetica,sans-Serif" font-size="11.00">[table]</text>
<polygon fill="none" stroke="black" points="503.5,-538 503.5,-556 636.5,-556 636.5,-538 503.5,-538"/>
<text text-anchor="start" x="506.5" y="-544.2" font-family="Helvetica,sans-Serif" font-size="11.00">...</text>
<polygon fill="#ffffff" stroke="transparent" points="503.5,-520 503.5,-538 544.5,-538 544.5,-520 503.5,-520"/>
<polygon fill="none" stroke="black" points="503.5,-520 503.5,-538 544.5,-538 544.5,-520 503.5,-520"/>
<text text-anchor="start" x="506.5" y="-526.2" font-family="Helvetica,sans-Serif" font-size="11.00">&lt; 2</text>
<polygon fill="#ffffff" stroke="transparent" points="544.5,-520 544.5,-538 613.5,-538 613.5,-520 544.5,-520"/>
<polygon fill="none" stroke="black" points="544.5,-520 544.5,-538 613.5,-538 613.5,-520 544.5,-520"/>
<text text-anchor="start" x="556.5" y="-526.2" font-family="Helvetica,sans-Serif" font-size="11.00">5,193 rows</text>
<polygon fill="#ffffff" stroke="transparent" points="613.5,-520 613.5,-538 636.5,-538 636.5,-520 613.5,-520"/>
<polygon fill="none" stroke="black" points="613.5,-520 613.5,-538 636.5,-538 636.5,-520 613.5,-520"/>
<text text-anchor="start" x="626.5" y="-526.2" font-family="Helvetica,sans-Serif" font-size="11.00"> &#160;</text>
</a>
</g>
</g>
<!-- data -->
<g id="node2" class="node">
<title>data</title>
<g id="a_node2"><a xlink:href="../../tables/data.html" xlink:title="data" target="_top">
<polygon fill="#ffffff" stroke="transparent" points="44.5,-590 44.5,-648 175.5,-648 175.5,-590 44.5,-590"/>
<polygon fill="#f5f5f5" stroke="transparent" points="45,-626 45,-648 176,-648 176,-626 45,-626"/>
<polygon fill="none" stroke="black" points="45,-626 45,-648 176,-648 176,-626 45,-626"/>
<text text-anchor="start" x="50" y="-635.2" font-family="Helvetica,sans-Serif" font-weight="bold" font-size="11.00">data</text>
<text text-anchor="start" x="141" y="-634.2" font-family="Helvetica,sans-Serif" font-size="11.00">[table]</text>
<polygon fill="none" stroke="black" points="45,-608 45,-626 176,-626 176,-608 45,-608"/>
<text text-anchor="start" x="48" y="-614.2" font-family="Helvetica,sans-Serif" font-size="11.00">...</text>
<polygon fill="#ffffff" stroke="transparent" points="45,-590 45,-608 67,-608 67,-590 45,-590"/>
<polygon fill="none" stroke="black" points="45,-590 45,-608 67,-608 67,-590 45,-590"/>
<text text-anchor="start" x="48" y="-596.2" font-family="Helvetica,sans-Serif" font-size="11.00">&lt; 2</text>
<polygon fill="#ffffff" stroke="transparent" points="67,-590 67,-608 154,-608 154,-590 67,-590"/>
<polygon fill="none" stroke="black" points="67,-590 67,-608 154,-608 154,-590 67,-590"/>
<text text-anchor="start" x="70" y="-596.2" font-family="Helvetica,sans-Serif" font-size="11.00">10,039,985 rows</text>
<polygon fill="#ffffff" stroke="transparent" points="154,-590 154,-608 176,-608 176,-590 154,-590"/>
<polygon fill="none" stroke="black" points="154,-590 154,-608 176,-608 176,-590 154,-590"/>
<text text-anchor="start" x="157" y="-596.2" font-family="Helvetica,sans-Serif" font-size="11.00">7 &gt;</text>
</a>
</g>
</g>
<!-- isospecimendata&#45;&gt;data -->
<g id="edge1" class="edge">
<title>isospecimendata:w&#45;&gt;data:e</title>
<path fill="none" stroke="black" d="M487.73,-547.24C352.37,-551.7 319.92,-617 177,-617"/>
<polygon fill="black" stroke="black" points="494.5,-547.13 502.56,-550.6 498.5,-547.06 502.5,-547 502.5,-547 502.5,-547 498.5,-547.06 502.44,-543.4 494.5,-547.13 494.5,-547.13"/>
<ellipse fill="none" stroke="black" cx="491.3" cy="-547.18" rx="3.2" ry="3.2"/>
</g>
<!-- specimens -->
<g id="node3" class="node">
<title>specimens</title>
<g id="a_node3"><a xlink:href="../../tables/specimens.html" xlink:title="specimens" target="_top">
<polygon fill="#ffffff" stroke="transparent" points="272.5,-245 272.5,-501 396.5,-501 396.5,-245 272.5,-245"/>
<polygon fill="#f5f5f5" stroke="transparent" points="272.5,-479 272.5,-501 396.5,-501 396.5,-479 272.5,-479"/>
<polygon fill="none" stroke="black" points="272.5,-479 272.5,-501 396.5,-501 396.5,-479 272.5,-479"/>
<text text-anchor="start" x="277.5" y="-488.2" font-family="Helvetica,sans-Serif" font-weight="bold" font-size="11.00">specimens</text>
<text text-anchor="start" x="361.5" y="-487.2" font-family="Helvetica,sans-Serif" font-size="11.00">[table]</text>
<polygon fill="none" stroke="black" points="272.5,-457 272.5,-479 396.5,-479 396.5,-457 272.5,-457"/>
<image xlink:href="../../images/primaryKeys.png" width="11px" height="12px" preserveAspectRatio="xMinYMin meet" x="277.5" y="-474"/>
<text text-anchor="start" x="292.5" y="-465.2" font-family="Helvetica,sans-Serif" font-size="11.00">specimenid</text>
<polygon fill="none" stroke="black" points="272.5,-435 272.5,-457 396.5,-457 396.5,-435 272.5,-435"/>
<image xlink:href="../../images/foreignKeys.png" width="11px" height="12px" preserveAspectRatio="xMinYMin meet" x="277.5" y="-452"/>
<text text-anchor="start" x="292.5" y="-443.2" font-family="Helvetica,sans-Serif" font-size="11.00">dataid</text>
<polygon fill="none" stroke="black" points="272.5,-413 272.5,-435 396.5,-435 396.5,-413 272.5,-413"/>
<image xlink:href="../../images/foreignKeys.png" width="11px" height="12px" preserveAspectRatio="xMinYMin meet" x="277.5" y="-430"/>
<text text-anchor="start" x="292.5" y="-421.2" font-family="Helvetica,sans-Serif" font-size="11.00">elementtypeid</text>
<polygon fill="none" stroke="black" points="272.5,-391 272.5,-413 396.5,-413 396.5,-391 272.5,-391"/>
<image xlink:href="../../images/foreignKeys.png" width="11px" height="12px" preserveAspectRatio="xMinYMin meet" x="277.5" y="-408"/>
<text text-anchor="start" x="292.5" y="-399.2" font-family="Helvetica,sans-Serif" font-size="11.00">symmetryid</text>
<polygon fill="none" stroke="black" points="272.5,-369 272.5,-391 396.5,-391 396.5,-369 272.5,-369"/>
<image xlink:href="../../images/foreignKeys.png" width="11px" height="12px" preserveAspectRatio="xMinYMin meet" x="277.5" y="-386"/>
<text text-anchor="start" x="292.5" y="-377.2" font-family="Helvetica,sans-Serif" font-size="11.00">portionid</text>
<polygon fill="none" stroke="black" points="272.5,-347 272.5,-369 396.5,-369 396.5,-347 272.5,-347"/>
<image xlink:href="../../images/foreignKeys.png" width="11px" height="12px" preserveAspectRatio="xMinYMin meet" x="277.5" y="-364"/>
<text text-anchor="start" x="292.5" y="-355.2" font-family="Helvetica,sans-Serif" font-size="11.00">maturityid</text>
<polygon fill="none" stroke="black" points="272.5,-325 272.5,-347 396.5,-347 396.5,-325 272.5,-325"/>
<image xlink:href="../../images/foreignKeys.png" width="11px" height="12px" preserveAspectRatio="xMinYMin meet" x="277.5" y="-342"/>
<text text-anchor="start" x="292.5" y="-333.2" font-family="Helvetica,sans-Serif" font-size="11.00">sexid</text>
<polygon fill="none" stroke="black" points="272.5,-303 272.5,-325 396.5,-325 396.5,-303 272.5,-303"/>
<image xlink:href="../../images/foreignKeys.png" width="11px" height="12px" preserveAspectRatio="xMinYMin meet" x="277.5" y="-320"/>
<text text-anchor="start" x="292.5" y="-311.2" font-family="Helvetica,sans-Serif" font-size="11.00">domesticstatusid</text>
<polygon fill="none" stroke="black" points="272.5,-281 272.5,-303 396.5,-303 396.5,-281 272.5,-281"/>
<image xlink:href="../../images/foreignKeys.png" width="11px" height="12px" preserveAspectRatio="xMinYMin meet" x="277.5" y="-298"/>
<text text-anchor="start" x="292.5" y="-289.2" font-family="Helvetica,sans-Serif" font-size="11.00">repositoryid</text>
<polygon fill="none" stroke="black" points="272.5,-263 272.5,-281 396.5,-281 396.5,-263 272.5,-263"/>
<text text-anchor="start" x="275.5" y="-269.2" font-family="Helvetica,sans-Serif" font-size="11.00">...</text>
<polygon fill="#ffffff" stroke="transparent" points="272.5,-245 272.5,-263 304.5,-263 304.5,-245 272.5,-245"/>
<polygon fill="none" stroke="black" points="272.5,-245 272.5,-263 304.5,-263 304.5,-245 272.5,-245"/>
<text text-anchor="start" x="275.5" y="-251.2" font-family="Helvetica,sans-Serif" font-size="11.00">&lt; 8</text>
<polygon fill="#ffffff" stroke="transparent" points="304.5,-245 304.5,-263 369.5,-263 369.5,-245 304.5,-245"/>
<polygon fill="none" stroke="black" points="304.5,-245 304.5,-263 369.5,-263 369.5,-245 304.5,-245"/>
<text text-anchor="start" x="312.5" y="-251.2" font-family="Helvetica,sans-Serif" font-size="11.00">3,351 rows</text>
<polygon fill="#ffffff" stroke="transparent" points="369.5,-245 369.5,-263 396.5,-263 396.5,-245 369.5,-245"/>
<polygon fill="none" stroke="black" points="369.5,-245 369.5,-263 396.5,-263 396.5,-245 369.5,-245"/>
<text text-anchor="start" x="377.5" y="-251.2" font-family="Helvetica,sans-Serif" font-size="11.00">4 &gt;</text>
</a>
</g>
</g>
<!-- isospecimendata&#45;&gt;specimens -->
<g id="edge2" class="edge">
<title>isospecimendata:w&#45;&gt;specimens:e</title>
<path fill="none" stroke="black" d="M487.87,-544.75C472.1,-539.12 467.42,-523.84 449,-510 425.39,-492.25 427.04,-468 397.5,-468"/>
<polygon fill="black" stroke="black" points="494.59,-545.79 501.95,-550.56 498.55,-546.39 502.5,-547 502.5,-547 502.5,-547 498.55,-546.39 503.05,-543.44 494.59,-545.79 494.59,-545.79"/>
<ellipse fill="none" stroke="black" cx="491.43" cy="-545.3" rx="3.2" ry="3.2"/>
</g>
<!-- specimens&#45;&gt;data -->
<g id="edge6" class="edge">
<title>specimens:w&#45;&gt;data:e</title>
<path fill="none" stroke="black" d="M257.16,-447.82C215.66,-460.16 253.51,-532.42 220,-580 205.48,-600.61 202.21,-617 177,-617"/>
<polygon fill="black" stroke="black" points="263.56,-447.01 271.95,-449.57 267.53,-446.5 271.5,-446 271.5,-446 271.5,-446 267.53,-446.5 271.05,-442.43 263.56,-447.01 263.56,-447.01"/>
<ellipse fill="none" stroke="black" cx="260.39" cy="-447.41" rx="3.2" ry="3.2"/>
</g>
<!-- elementtypes -->
<g id="node5" class="node">
<title>elementtypes</title>
<g id="a_node5"><a xlink:href="../../tables/elementtypes.html" xlink:title="elementtypes" target="_top">
<polygon fill="#ffffff" stroke="transparent" points="53,-511 53,-569 167,-569 167,-511 53,-511"/>
<polygon fill="#f5f5f5" stroke="transparent" points="53,-547 53,-569 167,-569 167,-547 53,-547"/>
<polygon fill="none" stroke="black" points="53,-547 53,-569 167,-569 167,-547 53,-547"/>
<text text-anchor="start" x="58" y="-556.2" font-family="Helvetica,sans-Serif" font-weight="bold" font-size="11.00">elementtypes</text>
<text text-anchor="start" x="132" y="-555.2" font-family="Helvetica,sans-Serif" font-size="11.00">[table]</text>
<polygon fill="none" stroke="black" points="53,-529 53,-547 167,-547 167,-529 53,-529"/>
<text text-anchor="start" x="56" y="-535.2" font-family="Helvetica,sans-Serif" font-size="11.00">...</text>
<polygon fill="#ffffff" stroke="transparent" points="53,-511 53,-529 80,-529 80,-511 53,-511"/>
<polygon fill="none" stroke="black" points="53,-511 53,-529 80,-529 80,-511 53,-511"/>
<text text-anchor="start" x="56" y="-517.2" font-family="Helvetica,sans-Serif" font-size="11.00"> &#160;</text>
<polygon fill="#ffffff" stroke="transparent" points="80,-511 80,-529 138,-529 138,-511 80,-511"/>
<polygon fill="none" stroke="black" points="80,-511 80,-529 138,-529 138,-511 80,-511"/>
<text text-anchor="start" x="90" y="-517.2" font-family="Helvetica,sans-Serif" font-size="11.00">926 rows</text>
<polygon fill="#ffffff" stroke="transparent" points="138,-511 138,-529 167,-529 167,-511 138,-511"/>
<polygon fill="none" stroke="black" points="138,-511 138,-529 167,-529 167,-511 138,-511"/>
<text text-anchor="start" x="148" y="-517.2" font-family="Helvetica,sans-Serif" font-size="11.00">5 &gt;</text>
</a>
</g>
</g>
<!-- specimens&#45;&gt;elementtypes -->
<g id="edge8" class="edge">
<title>specimens:w&#45;&gt;elementtypes:e</title>
<path fill="none" stroke="black" d="M257.06,-426.78C234.65,-437.35 244.54,-475.74 220,-501 200.24,-521.34 196.36,-538 168,-538"/>
<polygon fill="black" stroke="black" points="263.64,-425.51 272.18,-427.54 267.57,-424.76 271.5,-424 271.5,-424 271.5,-424 267.57,-424.76 270.82,-420.46 263.64,-425.51 263.64,-425.51"/>
<ellipse fill="none" stroke="black" cx="260.5" cy="-426.12" rx="3.2" ry="3.2"/>
</g>
<!-- specimendomesticstatustypes -->
<g id="node7" class="node">
<title>specimendomesticstatustypes</title>
<g id="a_node7"><a xlink:href="../../tables/specimendomesticstatustypes.html" xlink:title="specimendomesticstatustypes" target="_top">
<polygon fill="#ffffff" stroke="transparent" points="8,-116 8,-174 212,-174 212,-116 8,-116"/>
<polygon fill="#f5f5f5" stroke="transparent" points="8,-152 8,-174 212,-174 212,-152 8,-152"/>
<polygon fill="none" stroke="black" points="8,-152 8,-174 212,-174 212,-152 8,-152"/>
<text text-anchor="start" x="13" y="-161.2" font-family="Helvetica,sans-Serif" font-weight="bold" font-size="11.00">specimendomesticstatustypes</text>
<text text-anchor="start" x="177" y="-160.2" font-family="Helvetica,sans-Serif" font-size="11.00">[table]</text>
<polygon fill="none" stroke="black" points="8,-134 8,-152 212,-152 212,-134 8,-134"/>
<text text-anchor="start" x="11" y="-140.2" font-family="Helvetica,sans-Serif" font-size="11.00">...</text>
<polygon fill="#ffffff" stroke="transparent" points="8,-116 8,-134 86,-134 86,-116 8,-116"/>
<polygon fill="none" stroke="black" points="8,-116 8,-134 86,-134 86,-116 8,-116"/>
<text text-anchor="start" x="11" y="-122.2" font-family="Helvetica,sans-Serif" font-size="11.00"> &#160;</text>
<polygon fill="#ffffff" stroke="transparent" points="86,-116 86,-134 157,-134 157,-116 86,-116"/>
<polygon fill="none" stroke="black" points="86,-116 86,-134 157,-134 157,-116 86,-116"/>
<text text-anchor="start" x="121" y="-122.2" font-family="Helvetica,sans-Serif" font-size="11.00">4 rows</text>
<polygon fill="#ffffff" stroke="transparent" points="157,-116 157,-134 212,-134 212,-116 157,-116"/>
<polygon fill="none" stroke="black" points="157,-116 157,-134 212,-134 212,-116 157,-116"/>
<text text-anchor="start" x="193" y="-122.2" font-family="Helvetica,sans-Serif" font-size="11.00">1 &gt;</text>
</a>
</g>
</g>
<!-- specimens&#45;&gt;specimendomesticstatustypes -->
<g id="edge7" class="edge">
<title>specimens:w&#45;&gt;specimendomesticstatustypes:e</title>
<path fill="none" stroke="black" d="M257.14,-311.58C204.64,-290.8 287.68,-143 213,-143"/>
<polygon fill="black" stroke="black" points="263.61,-312.67 270.9,-317.55 267.56,-313.34 271.5,-314 271.5,-314 271.5,-314 267.56,-313.34 272.1,-310.45 263.61,-312.67 263.61,-312.67"/>
<ellipse fill="none" stroke="black" cx="260.46" cy="-312.14" rx="3.2" ry="3.2"/>
</g>
<!-- elementmaturities -->
<g id="node8" class="node">
<title>elementmaturities</title>
<g id="a_node8"><a xlink:href="../../tables/elementmaturities.html" xlink:title="elementmaturities" target="_top">
<polygon fill="#ffffff" stroke="transparent" points="41,-274 41,-332 179,-332 179,-274 41,-274"/>
<polygon fill="#f5f5f5" stroke="transparent" points="41,-310 41,-332 179,-332 179,-310 41,-310"/>
<polygon fill="none" stroke="black" points="41,-310 41,-332 179,-332 179,-310 41,-310"/>
<text text-anchor="start" x="46" y="-319.2" font-family="Helvetica,sans-Serif" font-weight="bold" font-size="11.00">elementmaturities</text>
<text text-anchor="start" x="144" y="-318.2" font-family="Helvetica,sans-Serif" font-size="11.00">[table]</text>
<polygon fill="none" stroke="black" points="41,-292 41,-310 179,-310 179,-292 41,-292"/>
<text text-anchor="start" x="44" y="-298.2" font-family="Helvetica,sans-Serif" font-size="11.00">...</text>
<polygon fill="#ffffff" stroke="transparent" points="41,-274 41,-292 83,-292 83,-274 41,-274"/>
<polygon fill="none" stroke="black" points="41,-274 41,-292 83,-292 83,-274 41,-274"/>
<text text-anchor="start" x="44" y="-280.2" font-family="Helvetica,sans-Serif" font-size="11.00"> &#160;</text>
<polygon fill="#ffffff" stroke="transparent" points="83,-274 83,-292 142,-292 142,-274 83,-274"/>
<polygon fill="none" stroke="black" points="83,-274 83,-292 142,-292 142,-274 83,-274"/>
<text text-anchor="start" x="100" y="-280.2" font-family="Helvetica,sans-Serif" font-size="11.00">12 rows</text>
<polygon fill="#ffffff" stroke="transparent" points="142,-274 142,-292 179,-292 179,-274 142,-274"/>
<polygon fill="none" stroke="black" points="142,-274 142,-292 179,-292 179,-274 142,-274"/>
<text text-anchor="start" x="160" y="-280.2" font-family="Helvetica,sans-Serif" font-size="11.00">3 &gt;</text>
</a>
</g>
</g>
<!-- specimens&#45;&gt;elementmaturities -->
<g id="edge9" class="edge">
<title>specimens:w&#45;&gt;elementmaturities:e</title>
<path fill="none" stroke="black" d="M257.08,-355.97C223.9,-345.82 222.48,-301 180,-301"/>
<polygon fill="black" stroke="black" points="263.58,-356.89 271,-361.56 267.54,-357.44 271.5,-358 271.5,-358 271.5,-358 267.54,-357.44 272,-354.44 263.58,-356.89 263.58,-356.89"/>
<ellipse fill="none" stroke="black" cx="260.41" cy="-356.44" rx="3.2" ry="3.2"/>
</g>
<!-- elementportions -->
<g id="node9" class="node">
<title>elementportions</title>
<g id="a_node9"><a xlink:href="../../tables/elementportions.html" xlink:title="elementportions" target="_top">
<polygon fill="#ffffff" stroke="transparent" points="45,-353 45,-411 175,-411 175,-353 45,-353"/>
<polygon fill="#f5f5f5" stroke="transparent" points="45,-389 45,-411 175,-411 175,-389 45,-389"/>
<polygon fill="none" stroke="black" points="45,-389 45,-411 175,-411 175,-389 45,-389"/>
<text text-anchor="start" x="50" y="-398.2" font-family="Helvetica,sans-Serif" font-weight="bold" font-size="11.00">elementportions</text>
<text text-anchor="start" x="140" y="-397.2" font-family="Helvetica,sans-Serif" font-size="11.00">[table]</text>
<polygon fill="none" stroke="black" points="45,-371 45,-389 175,-389 175,-371 45,-371"/>
<text text-anchor="start" x="48" y="-377.2" font-family="Helvetica,sans-Serif" font-size="11.00">...</text>
<polygon fill="#ffffff" stroke="transparent" points="45,-353 45,-371 83,-371 83,-353 45,-353"/>
<polygon fill="none" stroke="black" points="45,-353 45,-371 83,-371 83,-353 45,-353"/>
<text text-anchor="start" x="48" y="-359.2" font-family="Helvetica,sans-Serif" font-size="11.00"> &#160;</text>
<polygon fill="#ffffff" stroke="transparent" points="83,-353 83,-371 140,-371 140,-353 83,-353"/>
<polygon fill="none" stroke="black" points="83,-353 83,-371 140,-371 140,-353 83,-353"/>
<text text-anchor="start" x="98" y="-359.2" font-family="Helvetica,sans-Serif" font-size="11.00">54 rows</text>
<polygon fill="#ffffff" stroke="transparent" points="140,-353 140,-371 175,-371 175,-353 140,-353"/>
<polygon fill="none" stroke="black" points="140,-353 140,-371 175,-371 175,-353 140,-353"/>
<text text-anchor="start" x="156" y="-359.2" font-family="Helvetica,sans-Serif" font-size="11.00">3 &gt;</text>
</a>
</g>
</g>
<!-- specimens&#45;&gt;elementportions -->
<g id="edge10" class="edge">
<title>specimens:w&#45;&gt;elementportions:e</title>
<path fill="none" stroke="black" d="M256.95,-380C225.91,-380 213.14,-380 176,-380"/>
<polygon fill="black" stroke="black" points="263.5,-380 271.5,-383.6 267.5,-380 271.5,-380 271.5,-380 271.5,-380 267.5,-380 271.5,-376.4 263.5,-380 263.5,-380"/>
<ellipse fill="none" stroke="black" cx="260.3" cy="-380" rx="3.2" ry="3.2"/>
</g>
<!-- repositoryinstitutions -->
<g id="node10" class="node">
<title>repositoryinstitutions</title>
<g id="a_node10"><a xlink:href="../../tables/repositoryinstitutions.html" xlink:title="repositoryinstitutions" target="_top">
<polygon fill="#ffffff" stroke="transparent" points="31,-37 31,-95 189,-95 189,-37 31,-37"/>
<polygon fill="#f5f5f5" stroke="transparent" points="31,-73 31,-95 189,-95 189,-73 31,-73"/>
<polygon fill="none" stroke="black" points="31,-73 31,-95 189,-95 189,-73 31,-73"/>
<text text-anchor="start" x="36" y="-82.2" font-family="Helvetica,sans-Serif" font-weight="bold" font-size="11.00">repositoryinstitutions</text>
<text text-anchor="start" x="154" y="-81.2" font-family="Helvetica,sans-Serif" font-size="11.00">[table]</text>
<polygon fill="none" stroke="black" points="31,-55 31,-73 189,-73 189,-55 31,-55"/>
<text text-anchor="start" x="34" y="-61.2" font-family="Helvetica,sans-Serif" font-size="11.00">...</text>
<polygon fill="#ffffff" stroke="transparent" points="31,-37 31,-55 80,-55 80,-37 31,-37"/>
<polygon fill="none" stroke="black" points="31,-37 31,-55 80,-55 80,-37 31,-37"/>
<text text-anchor="start" x="34" y="-43.2" font-family="Helvetica,sans-Serif" font-size="11.00"> &#160;</text>
<polygon fill="#ffffff" stroke="transparent" points="80,-37 80,-55 149,-55 149,-37 80,-37"/>
<polygon fill="none" stroke="black" points="80,-37 80,-55 149,-55 149,-37 80,-37"/>
<text text-anchor="start" x="101" y="-43.2" font-family="Helvetica,sans-Serif" font-size="11.00">387 rows</text>
<polygon fill="#ffffff" stroke="transparent" points="149,-37 149,-55 189,-55 189,-37 149,-37"/>
<polygon fill="none" stroke="black" points="149,-37 149,-55 189,-55 189,-37 149,-37"/>
<text text-anchor="start" x="170" y="-43.2" font-family="Helvetica,sans-Serif" font-size="11.00">2 &gt;</text>
</a>
</g>
</g>
<!-- specimens&#45;&gt;repositoryinstitutions -->
<g id="edge11" class="edge">
<title>specimens:w&#45;&gt;repositoryinstitutions:e</title>
<path fill="none" stroke="black" d="M256.91,-290.3C176.85,-269.43 292.15,-64 190,-64"/>
<polygon fill="black" stroke="black" points="263.55,-291.07 271.08,-295.58 267.53,-291.54 271.5,-292 271.5,-292 271.5,-292 267.53,-291.54 271.92,-288.42 263.55,-291.07 263.55,-291.07"/>
<ellipse fill="none" stroke="black" cx="260.38" cy="-290.7" rx="3.2" ry="3.2"/>
</g>
<!-- specimensextypes -->
<g id="node11" class="node">
<title>specimensextypes</title>
<g id="a_node11"><a xlink:href="../../tables/specimensextypes.html" xlink:title="specimensextypes" target="_top">
<polygon fill="#ffffff" stroke="transparent" points="39.5,-195 39.5,-253 180.5,-253 180.5,-195 39.5,-195"/>
<polygon fill="#f5f5f5" stroke="transparent" points="40,-231 40,-253 181,-253 181,-231 40,-231"/>
<polygon fill="none" stroke="black" points="40,-231 40,-253 181,-253 181,-231 40,-231"/>
<text text-anchor="start" x="45" y="-240.2" font-family="Helvetica,sans-Serif" font-weight="bold" font-size="11.00">specimensextypes</text>
<text text-anchor="start" x="146" y="-239.2" font-family="Helvetica,sans-Serif" font-size="11.00">[table]</text>
<polygon fill="none" stroke="black" points="40,-213 40,-231 181,-231 181,-213 40,-213"/>
<text text-anchor="start" x="43" y="-219.2" font-family="Helvetica,sans-Serif" font-size="11.00">...</text>
<polygon fill="#ffffff" stroke="transparent" points="40,-195 40,-213 86,-213 86,-195 40,-195"/>
<polygon fill="none" stroke="black" points="40,-195 40,-213 86,-213 86,-195 40,-195"/>
<text text-anchor="start" x="43" y="-201.2" font-family="Helvetica,sans-Serif" font-size="11.00"> &#160;</text>
<polygon fill="#ffffff" stroke="transparent" points="86,-195 86,-213 142,-213 142,-195 86,-195"/>
<polygon fill="none" stroke="black" points="86,-195 86,-213 142,-213 142,-195 86,-195"/>
<text text-anchor="start" x="106" y="-201.2" font-family="Helvetica,sans-Serif" font-size="11.00">3 rows</text>
<polygon fill="#ffffff" stroke="transparent" points="142,-195 142,-213 181,-213 181,-195 142,-195"/>
<polygon fill="none" stroke="black" points="142,-195 142,-213 181,-213 181,-195 142,-195"/>
<text text-anchor="start" x="162" y="-201.2" font-family="Helvetica,sans-Serif" font-size="11.00">1 &gt;</text>
</a>
</g>
</g>
<!-- specimens&#45;&gt;specimensextypes -->
<g id="edge12" class="edge">
<title>specimens:w&#45;&gt;specimensextypes:e</title>
<path fill="none" stroke="black" d="M257.06,-333.62C213.08,-317.25 240.88,-222 182,-222"/>
<polygon fill="black" stroke="black" points="263.61,-334.7 270.91,-339.55 267.55,-335.35 271.5,-336 271.5,-336 271.5,-336 267.55,-335.35 272.09,-332.45 263.61,-334.7 263.61,-334.7"/>
<ellipse fill="none" stroke="black" cx="260.45" cy="-334.18" rx="3.2" ry="3.2"/>
</g>
<!-- elementsymmetries -->
<g id="node12" class="node">
<title>elementsymmetries</title>
<g id="a_node12"><a xlink:href="../../tables/elementsymmetries.html" xlink:title="elementsymmetries" target="_top">
<polygon fill="#ffffff" stroke="transparent" points="36.5,-432 36.5,-490 183.5,-490 183.5,-432 36.5,-432"/>
<polygon fill="#f5f5f5" stroke="transparent" points="37,-468 37,-490 184,-490 184,-468 37,-468"/>
<polygon fill="none" stroke="black" points="37,-468 37,-490 184,-490 184,-468 37,-468"/>
<text text-anchor="start" x="42" y="-477.2" font-family="Helvetica,sans-Serif" font-weight="bold" font-size="11.00">elementsymmetries</text>
<text text-anchor="start" x="149" y="-476.2" font-family="Helvetica,sans-Serif" font-size="11.00">[table]</text>
<polygon fill="none" stroke="black" points="37,-450 37,-468 184,-468 184,-450 37,-450"/>
<text text-anchor="start" x="40" y="-456.2" font-family="Helvetica,sans-Serif" font-size="11.00">...</text>
<polygon fill="#ffffff" stroke="transparent" points="37,-432 37,-450 86,-450 86,-432 37,-432"/>
<polygon fill="none" stroke="black" points="37,-432 37,-450 86,-450 86,-432 37,-432"/>
<text text-anchor="start" x="40" y="-438.2" font-family="Helvetica,sans-Serif" font-size="11.00"> &#160;</text>
<polygon fill="#ffffff" stroke="transparent" points="86,-432 86,-450 143,-450 143,-432 86,-432"/>
<polygon fill="none" stroke="black" points="86,-432 86,-450 143,-450 143,-432 86,-432"/>
<text text-anchor="start" x="107" y="-438.2" font-family="Helvetica,sans-Serif" font-size="11.00">8 rows</text>
<polygon fill="#ffffff" stroke="transparent" points="143,-432 143,-450 184,-450 184,-432 143,-432"/>
<polygon fill="none" stroke="black" points="143,-432 143,-450 184,-450 184,-432 143,-432"/>
<text text-anchor="start" x="165" y="-438.2" font-family="Helvetica,sans-Serif" font-size="11.00">3 &gt;</text>
</a>
</g>
</g>
<!-- specimens&#45;&gt;elementsymmetries -->
<g id="edge13" class="edge">
<title>specimens:w&#45;&gt;elementsymmetries:e</title>
<path fill="none" stroke="black" d="M256.86,-404.31C226.05,-414.97 225.47,-459 185,-459"/>
<polygon fill="black" stroke="black" points="263.6,-403.24 272.06,-405.56 267.55,-402.62 271.5,-402 271.5,-402 271.5,-402 267.55,-402.62 270.94,-398.44 263.6,-403.24 263.6,-403.24"/>
<ellipse fill="none" stroke="black" cx="260.44" cy="-403.74" rx="3.2" ry="3.2"/>
</g>
<!-- specimendates -->
<g id="node4" class="node">
<title>specimendates</title>
<g id="a_node4"><a xlink:href="../../tables/specimendates.html" xlink:title="specimendates" target="_top">
<polygon fill="#ffffff" stroke="transparent" points="508,-441 508,-499 631,-499 631,-441 508,-441"/>
<polygon fill="#f5f5f5" stroke="transparent" points="508.5,-477 508.5,-499 631.5,-499 631.5,-477 508.5,-477"/>
<polygon fill="none" stroke="black" points="508.5,-477 508.5,-499 631.5,-499 631.5,-477 508.5,-477"/>
<text text-anchor="start" x="513.5" y="-486.2" font-family="Helvetica,sans-Serif" font-weight="bold" font-size="11.00">specimendates</text>
<text text-anchor="start" x="596.5" y="-485.2" font-family="Helvetica,sans-Serif" font-size="11.00">[table]</text>
<polygon fill="none" stroke="black" points="508.5,-459 508.5,-477 631.5,-477 631.5,-459 508.5,-459"/>
<text text-anchor="start" x="511.5" y="-465.2" font-family="Helvetica,sans-Serif" font-size="11.00">...</text>
<polygon fill="#ffffff" stroke="transparent" points="508.5,-441 508.5,-459 539.5,-459 539.5,-441 508.5,-441"/>
<polygon fill="none" stroke="black" points="508.5,-441 508.5,-459 539.5,-459 539.5,-441 508.5,-441"/>
<text text-anchor="start" x="511.5" y="-447.2" font-family="Helvetica,sans-Serif" font-size="11.00">&lt; 6</text>
<polygon fill="#ffffff" stroke="transparent" points="539.5,-441 539.5,-459 604.5,-459 604.5,-441 539.5,-441"/>
<polygon fill="none" stroke="black" points="539.5,-441 539.5,-459 604.5,-459 604.5,-441 539.5,-441"/>
<text text-anchor="start" x="547.5" y="-447.2" font-family="Helvetica,sans-Serif" font-size="11.00">2,662 rows</text>
<polygon fill="#ffffff" stroke="transparent" points="604.5,-441 604.5,-459 631.5,-459 631.5,-441 604.5,-441"/>
<polygon fill="none" stroke="black" points="604.5,-441 604.5,-459 631.5,-459 631.5,-441 604.5,-441"/>
<text text-anchor="start" x="612.5" y="-447.2" font-family="Helvetica,sans-Serif" font-size="11.00">1 &gt;</text>
</a>
</g>
</g>
<!-- specimendates&#45;&gt;specimens -->
<g id="edge4" class="edge">
<title>specimendates:w&#45;&gt;specimens:e</title>
<path fill="none" stroke="black" d="M492.68,-468C455.5,-468 441.04,-468 397.5,-468"/>
<polygon fill="black" stroke="black" points="499.5,-468 507.5,-471.6 503.5,-468 507.5,-468 507.5,-468 507.5,-468 503.5,-468 507.5,-464.4 499.5,-468 499.5,-468"/>
<ellipse fill="none" stroke="black" cx="496.3" cy="-468" rx="3.2" ry="3.2"/>
</g>
<!-- specimendates&#45;&gt;elementtypes -->
<g id="edge3" class="edge">
<title>specimendates:w&#45;&gt;elementtypes:e</title>
<path fill="none" stroke="black" d="M492.82,-469.3C461.06,-475.39 454.16,-501.18 416,-512 309.38,-542.24 278.83,-538 168,-538"/>
<polygon fill="black" stroke="black" points="499.53,-468.71 507.82,-471.59 503.52,-468.35 507.5,-468 507.5,-468 507.5,-468 503.52,-468.35 507.18,-464.41 499.53,-468.71 499.53,-468.71"/>
<ellipse fill="none" stroke="black" cx="496.34" cy="-468.99" rx="3.2" ry="3.2"/>
</g>
<!-- specimengenbank -->
<g id="node6" class="node">
<title>specimengenbank</title>
<g id="a_node6"><a xlink:href="../../tables/specimengenbank.html" xlink:title="specimengenbank" target="_top">
<polygon fill="#ffffff" stroke="transparent" points="499.5,-362 499.5,-420 639.5,-420 639.5,-362 499.5,-362"/>
<polygon fill="#f5f5f5" stroke="transparent" points="499.5,-398 499.5,-420 639.5,-420 639.5,-398 499.5,-398"/>
<polygon fill="none" stroke="black" points="499.5,-398 499.5,-420 639.5,-420 639.5,-398 499.5,-398"/>
<text text-anchor="start" x="504.5" y="-407.2" font-family="Helvetica,sans-Serif" font-weight="bold" font-size="11.00">specimengenbank</text>
<text text-anchor="start" x="604.5" y="-406.2" font-family="Helvetica,sans-Serif" font-size="11.00">[table]</text>
<polygon fill="none" stroke="black" points="499.5,-380 499.5,-398 639.5,-398 639.5,-380 499.5,-380"/>
<text text-anchor="start" x="502.5" y="-386.2" font-family="Helvetica,sans-Serif" font-size="11.00">...</text>
<polygon fill="#ffffff" stroke="transparent" points="499.5,-362 499.5,-380 554.5,-380 554.5,-362 499.5,-362"/>
<polygon fill="none" stroke="black" points="499.5,-362 499.5,-380 554.5,-380 554.5,-362 499.5,-362"/>
<text text-anchor="start" x="502.5" y="-368.2" font-family="Helvetica,sans-Serif" font-size="11.00">&lt; 1</text>
<polygon fill="#ffffff" stroke="transparent" points="554.5,-362 554.5,-380 609.5,-380 609.5,-362 554.5,-362"/>
<polygon fill="none" stroke="black" points="554.5,-362 554.5,-380 609.5,-380 609.5,-362 554.5,-362"/>
<text text-anchor="start" x="573.5" y="-368.2" font-family="Helvetica,sans-Serif" font-size="11.00">3 rows</text>
<polygon fill="#ffffff" stroke="transparent" points="609.5,-362 609.5,-380 639.5,-380 639.5,-362 609.5,-362"/>
<polygon fill="none" stroke="black" points="609.5,-362 609.5,-380 639.5,-380 639.5,-362 609.5,-362"/>
<text text-anchor="start" x="629.5" y="-368.2" font-family="Helvetica,sans-Serif" font-size="11.00"> &#160;</text>
</a>
</g>
</g>
<!-- specimengenbank&#45;&gt;specimens -->
<g id="edge5" class="edge">
<title>specimengenbank:w&#45;&gt;specimens:e</title>
<path fill="none" stroke="black" d="M484.2,-390.95C443.33,-403.12 449.15,-468 397.5,-468"/>
<polygon fill="black" stroke="black" points="490.57,-390.08 498.99,-392.57 494.54,-389.54 498.5,-389 498.5,-389 498.5,-389 494.54,-389.54 498.01,-385.43 490.57,-390.08 490.57,-390.08"/>
<ellipse fill="none" stroke="black" cx="487.4" cy="-390.52" rx="3.2" ry="3.2"/>
</g>
<!-- specimentaphonomy -->
<g id="node13" class="node">
<title>specimentaphonomy</title>
<g id="a_node13"><a xlink:href="../../tables/specimentaphonomy.html" xlink:title="specimentaphonomy" target="_top">
<polygon fill="#ffffff" stroke="transparent" points="457,-599 457,-731 682,-731 682,-599 457,-599"/>
<polygon fill="#f5f5f5" stroke="transparent" points="459.5,-707 459.5,-729 680.5,-729 680.5,-707 459.5,-707"/>
<polygon fill="none" stroke="black" points="459.5,-707 459.5,-729 680.5,-729 680.5,-707 459.5,-707"/>
<text text-anchor="start" x="464.5" y="-716.2" font-family="Helvetica,sans-Serif" font-weight="bold" font-size="11.00">specimentaphonomy</text>
<text text-anchor="start" x="645.5" y="-715.2" font-family="Helvetica,sans-Serif" font-size="11.00">[table]</text>
<polygon fill="none" stroke="black" points="459.5,-685 459.5,-707 606.5,-707 606.5,-685 459.5,-685"/>
<image xlink:href="../../images/primaryKeys.png" width="11px" height="12px" preserveAspectRatio="xMinYMin meet" x="464.5" y="-702"/>
<text text-anchor="start" x="479.5" y="-693.2" font-family="Helvetica,sans-Serif" font-size="11.00">specimenid</text>
<polygon fill="none" stroke="black" points="606.5,-685 606.5,-707 680.5,-707 680.5,-685 606.5,-685"/>
<text text-anchor="start" x="609.5" y="-693.2" font-family="Helvetica,sans-Serif" font-size="11.00">int4[10]</text>
<polygon fill="none" stroke="black" points="459.5,-663 459.5,-685 606.5,-685 606.5,-663 459.5,-663"/>
<image xlink:href="../../images/primaryKeys.png" width="11px" height="12px" preserveAspectRatio="xMinYMin meet" x="464.5" y="-680"/>
<text text-anchor="start" x="479.5" y="-671.2" font-family="Helvetica,sans-Serif" font-size="11.00">taphonomictypeid</text>
<polygon fill="none" stroke="black" points="606.5,-663 606.5,-685 680.5,-685 680.5,-663 606.5,-663"/>
<text text-anchor="start" x="609.5" y="-671.2" font-family="Helvetica,sans-Serif" font-size="11.00">int4[10]</text>
<polygon fill="none" stroke="black" points="459.5,-641 459.5,-663 606.5,-663 606.5,-641 459.5,-641"/>
<text text-anchor="start" x="479.5" y="-649.2" font-family="Helvetica,sans-Serif" font-size="11.00">recdatecreated</text>
<polygon fill="none" stroke="black" points="606.5,-641 606.5,-663 680.5,-663 680.5,-641 606.5,-641"/>
<text text-anchor="start" x="609.5" y="-649.2" font-family="Helvetica,sans-Serif" font-size="11.00">timestamp[22]</text>
<polygon fill="none" stroke="black" points="459.5,-619 459.5,-641 606.5,-641 606.5,-619 459.5,-619"/>
<text text-anchor="start" x="479.5" y="-627.2" font-family="Helvetica,sans-Serif" font-size="11.00">recdatemodified</text>
<polygon fill="none" stroke="black" points="606.5,-619 606.5,-641 680.5,-641 680.5,-619 606.5,-619"/>
<text text-anchor="start" x="609.5" y="-627.2" font-family="Helvetica,sans-Serif" font-size="11.00">timestamp[22]</text>
<polygon fill="#ffffff" stroke="transparent" points="459.5,-601 459.5,-619 518.5,-619 518.5,-601 459.5,-601"/>
<polygon fill="none" stroke="black" points="459.5,-601 459.5,-619 518.5,-619 518.5,-601 459.5,-601"/>
<text text-anchor="start" x="462.5" y="-607.2" font-family="Helvetica,sans-Serif" font-size="11.00">&lt; 2</text>
<polygon fill="#ffffff" stroke="transparent" points="518.5,-601 518.5,-619 606.5,-619 606.5,-601 518.5,-601"/>
<polygon fill="none" stroke="black" points="518.5,-601 518.5,-619 606.5,-619 606.5,-601 518.5,-601"/>
<text text-anchor="start" x="558.5" y="-607.2" font-family="Helvetica,sans-Serif" font-size="11.00">452 rows</text>
<polygon fill="#ffffff" stroke="transparent" points="606.5,-601 606.5,-619 680.5,-619 680.5,-601 606.5,-601"/>
<polygon fill="none" stroke="black" points="606.5,-601 606.5,-619 680.5,-619 680.5,-601 606.5,-601"/>
<text text-anchor="start" x="661.5" y="-607.2" font-family="Helvetica,sans-Serif" font-size="11.00">0 &gt;</text>
<polygon fill="none" stroke="black" stroke-width="2" points="458,-600 458,-730 681,-730 681,-600 458,-600"/>
</a>
</g>
</g>
<!-- specimentaphonomy&#45;&gt;specimens -->
<g id="edge14" class="edge">
<title>specimentaphonomy:w&#45;&gt;specimens:e</title>
<path fill="none" stroke="black" d="M443.95,-694.16C368.59,-672.59 496.87,-468 397.5,-468"/>
<polygon fill="black" stroke="black" points="450.56,-695 458.05,-699.57 454.53,-695.5 458.5,-696 458.5,-696 458.5,-696 454.53,-695.5 458.95,-692.43 450.56,-695 450.56,-695"/>
<ellipse fill="none" stroke="black" cx="447.39" cy="-694.6" rx="3.2" ry="3.2"/>
</g>
<!-- taphonomictypes -->
<g id="node14" class="node">
<title>taphonomictypes</title>
<g id="a_node14"><a xlink:href="../../tables/taphonomictypes.html" xlink:title="taphonomictypes" target="_top">
<polygon fill="#ffffff" stroke="transparent" points="261,-650 261,-752 408,-752 408,-650 261,-650"/>
<polygon fill="#f5f5f5" stroke="transparent" points="261.5,-730 261.5,-752 408.5,-752 408.5,-730 261.5,-730"/>
<polygon fill="none" stroke="black" points="261.5,-730 261.5,-752 408.5,-752 408.5,-730 261.5,-730"/>
<text text-anchor="start" x="266.5" y="-739.2" font-family="Helvetica,sans-Serif" font-weight="bold" font-size="11.00">taphonomictypes</text>
<text text-anchor="start" x="373.5" y="-738.2" font-family="Helvetica,sans-Serif" font-size="11.00">[table]</text>
<polygon fill="none" stroke="black" points="261.5,-708 261.5,-730 408.5,-730 408.5,-708 261.5,-708"/>
<image xlink:href="../../images/primaryKeys.png" width="11px" height="12px" preserveAspectRatio="xMinYMin meet" x="266.5" y="-725"/>
<text text-anchor="start" x="281.5" y="-716.2" font-family="Helvetica,sans-Serif" font-size="11.00">taphonomictypeid</text>
<polygon fill="none" stroke="black" points="261.5,-686 261.5,-708 408.5,-708 408.5,-686 261.5,-686"/>
<image xlink:href="../../images/foreignKeys.png" width="11px" height="12px" preserveAspectRatio="xMinYMin meet" x="266.5" y="-703"/>
<text text-anchor="start" x="281.5" y="-694.2" font-family="Helvetica,sans-Serif" font-size="11.00">taphonomicsystemid</text>
<polygon fill="none" stroke="black" points="261.5,-668 261.5,-686 408.5,-686 408.5,-668 261.5,-668"/>
<text text-anchor="start" x="264.5" y="-674.2" font-family="Helvetica,sans-Serif" font-size="11.00">...</text>
<polygon fill="#ffffff" stroke="transparent" points="261.5,-650 261.5,-668 312.5,-668 312.5,-650 261.5,-650"/>
<polygon fill="none" stroke="black" points="261.5,-650 261.5,-668 312.5,-668 312.5,-650 261.5,-650"/>
<text text-anchor="start" x="264.5" y="-656.2" font-family="Helvetica,sans-Serif" font-size="11.00">&lt; 1</text>
<polygon fill="#ffffff" stroke="transparent" points="312.5,-650 312.5,-668 371.5,-668 371.5,-650 312.5,-650"/>
<polygon fill="none" stroke="black" points="312.5,-650 312.5,-668 371.5,-668 371.5,-650 312.5,-650"/>
<text text-anchor="start" x="329.5" y="-656.2" font-family="Helvetica,sans-Serif" font-size="11.00">81 rows</text>
<polygon fill="#ffffff" stroke="transparent" points="371.5,-650 371.5,-668 408.5,-668 408.5,-650 371.5,-650"/>
<polygon fill="none" stroke="black" points="371.5,-650 371.5,-668 408.5,-668 408.5,-650 371.5,-650"/>
<text text-anchor="start" x="389.5" y="-656.2" font-family="Helvetica,sans-Serif" font-size="11.00">2 &gt;</text>
</a>
</g>
</g>
<!-- specimentaphonomy&#45;&gt;taphonomictypes -->
<g id="edge15" class="edge">
<title>specimentaphonomy:w&#45;&gt;taphonomictypes:e</title>
<path fill="none" stroke="black" d="M444.73,-678.82C431.41,-690.42 433.06,-719 409.5,-719"/>
<polygon fill="black" stroke="black" points="450.95,-676.64 459.69,-677.4 454.72,-675.32 458.5,-674 458.5,-674 458.5,-674 454.72,-675.32 457.31,-670.6 450.95,-676.64 450.95,-676.64"/>
<ellipse fill="none" stroke="black" cx="447.93" cy="-677.7" rx="3.2" ry="3.2"/>
</g>
<!-- taphonomicsystems -->
<g id="node16" class="node">
<title>taphonomicsystems</title>
<g id="a_node16"><a xlink:href="../../tables/taphonomicsystems.html" xlink:title="taphonomicsystems" target="_top">
<polygon fill="#ffffff" stroke="transparent" points="35,-670 35,-728 185,-728 185,-670 35,-670"/>
<polygon fill="#f5f5f5" stroke="transparent" points="35,-706 35,-728 185,-728 185,-706 35,-706"/>
<polygon fill="none" stroke="black" points="35,-706 35,-728 185,-728 185,-706 35,-706"/>
<text text-anchor="start" x="40" y="-715.2" font-family="Helvetica,sans-Serif" font-weight="bold" font-size="11.00">taphonomicsystems</text>
<text text-anchor="start" x="150" y="-714.2" font-family="Helvetica,sans-Serif" font-size="11.00">[table]</text>
<polygon fill="none" stroke="black" points="35,-688 35,-706 185,-706 185,-688 35,-688"/>
<text text-anchor="start" x="38" y="-694.2" font-family="Helvetica,sans-Serif" font-size="11.00">...</text>
<polygon fill="#ffffff" stroke="transparent" points="35,-670 35,-688 86,-688 86,-670 35,-670"/>
<polygon fill="none" stroke="black" points="35,-670 35,-688 86,-688 86,-670 35,-670"/>
<text text-anchor="start" x="38" y="-676.2" font-family="Helvetica,sans-Serif" font-size="11.00"> &#160;</text>
<polygon fill="#ffffff" stroke="transparent" points="86,-670 86,-688 144,-688 144,-670 86,-670"/>
<polygon fill="none" stroke="black" points="86,-670 86,-688 144,-688 144,-670 86,-670"/>
<text text-anchor="start" x="108" y="-676.2" font-family="Helvetica,sans-Serif" font-size="11.00">9 rows</text>
<polygon fill="#ffffff" stroke="transparent" points="144,-670 144,-688 185,-688 185,-670 144,-670"/>
<polygon fill="none" stroke="black" points="144,-670 144,-688 185,-688 185,-670 144,-670"/>
<text text-anchor="start" x="166" y="-676.2" font-family="Helvetica,sans-Serif" font-size="11.00">2 &gt;</text>
</a>
</g>
</g>
<!-- taphonomictypes&#45;&gt;taphonomicsystems -->
<g id="edge18" class="edge">
<title>taphonomictypes:w&#45;&gt;taphonomicsystems:e</title>
<path fill="none" stroke="black" d="M245.99,-697C224,-697 213.68,-697 186,-697"/>
<polygon fill="black" stroke="black" points="252.5,-697 260.5,-700.6 256.5,-697 260.5,-697 260.5,-697 260.5,-697 256.5,-697 260.5,-693.4 252.5,-697 252.5,-697"/>
<ellipse fill="none" stroke="black" cx="249.3" cy="-697" rx="3.2" ry="3.2"/>
</g>
<!-- summarydatataphonomy -->
<g id="node15" class="node">
<title>summarydatataphonomy</title>
<g id="a_node15"><a xlink:href="../../tables/summarydatataphonomy.html" xlink:title="summarydatataphonomy" target="_top">
<polygon fill="#ffffff" stroke="transparent" points="482,-752 482,-810 657,-810 657,-752 482,-752"/>
<polygon fill="#f5f5f5" stroke="transparent" points="482.5,-788 482.5,-810 657.5,-810 657.5,-788 482.5,-788"/>
<polygon fill="none" stroke="black" points="482.5,-788 482.5,-810 657.5,-810 657.5,-788 482.5,-788"/>
<text text-anchor="start" x="487.5" y="-797.2" font-family="Helvetica,sans-Serif" font-weight="bold" font-size="11.00">summarydatataphonomy</text>
<text text-anchor="start" x="622.5" y="-796.2" font-family="Helvetica,sans-Serif" font-size="11.00">[table]</text>
<polygon fill="none" stroke="black" points="482.5,-770 482.5,-788 657.5,-788 657.5,-770 482.5,-770"/>
<text text-anchor="start" x="485.5" y="-776.2" font-family="Helvetica,sans-Serif" font-size="11.00">...</text>
<polygon fill="#ffffff" stroke="transparent" points="482.5,-752 482.5,-770 541.5,-770 541.5,-752 482.5,-752"/>
<polygon fill="none" stroke="black" points="482.5,-752 482.5,-770 541.5,-770 541.5,-752 482.5,-752"/>
<text text-anchor="start" x="485.5" y="-758.2" font-family="Helvetica,sans-Serif" font-size="11.00">&lt; 2</text>
<polygon fill="#ffffff" stroke="transparent" points="541.5,-752 541.5,-770 625.5,-770 625.5,-752 541.5,-752"/>
<polygon fill="none" stroke="black" points="541.5,-752 541.5,-770 625.5,-770 625.5,-752 541.5,-752"/>
<text text-anchor="start" x="562.5" y="-758.2" font-family="Helvetica,sans-Serif" font-size="11.00">42,956 rows</text>
<polygon fill="#ffffff" stroke="transparent" points="625.5,-752 625.5,-770 657.5,-770 657.5,-752 625.5,-752"/>
<polygon fill="none" stroke="black" points="625.5,-752 625.5,-770 657.5,-770 657.5,-752 625.5,-752"/>
<text text-anchor="start" x="647.5" y="-758.2" font-family="Helvetica,sans-Serif" font-size="11.00"> &#160;</text>
</a>
</g>
</g>
<!-- summarydatataphonomy&#45;&gt;data -->
<g id="edge16" class="edge">
<title>summarydatataphonomy:w&#45;&gt;data:e</title>
<path fill="none" stroke="black" d="M466.97,-779.32C375.06,-783.31 329.18,-822.78 253,-763 215.18,-733.33 245.03,-701.04 220,-660 205.93,-636.93 204.03,-617 177,-617"/>
<polygon fill="black" stroke="black" points="473.5,-779.17 481.58,-782.6 477.5,-779.09 481.5,-779 481.5,-779 481.5,-779 477.5,-779.09 481.42,-775.4 473.5,-779.17 473.5,-779.17"/>
<ellipse fill="none" stroke="black" cx="470.3" cy="-779.24" rx="3.2" ry="3.2"/>
</g>
<!-- summarydatataphonomy&#45;&gt;taphonomictypes -->
<g id="edge17" class="edge">
<title>summarydatataphonomy:w&#45;&gt;taphonomictypes:e</title>
<path fill="none" stroke="black" d="M467.11,-775.94C441.95,-763.72 445.46,-719 409.5,-719"/>
<polygon fill="black" stroke="black" points="473.67,-777.34 480.75,-782.52 477.59,-778.17 481.5,-779 481.5,-779 481.5,-779 477.59,-778.17 482.25,-775.48 473.67,-777.34 473.67,-777.34"/>
<ellipse fill="none" stroke="black" cx="470.54" cy="-776.67" rx="3.2" ry="3.2"/>
</g>
</g>
</svg>
