<?xml version="1.0" encoding="UTF-8" standalone="no"?>
<!DOCTYPE svg PUBLIC "-//W3C//DTD SVG 1.1//EN"
 "http://www.w3.org/Graphics/SVG/1.1/DTD/svg11.dtd">
<!-- Generated by graphviz version 2.43.0 (0)
 -->
<!-- Title: oneDegreeRelationshipsDiagram Pages: 1 -->
<svg width="698pt" height="1036pt"
 viewBox="0.00 0.00 698.00 1036.00" xmlns="http://www.w3.org/2000/svg" xmlns:xlink="http://www.w3.org/1999/xlink">
<g id="graph0" class="graph" transform="scale(1 1) rotate(0) translate(4 1032)">
<title>oneDegreeRelationshipsDiagram</title>
<polygon fill="#ffffff" stroke="transparent" points="-4,4 -4,-1032 694,-1032 694,4 -4,4"/>
<text text-anchor="middle" x="71.5" y="-7.2" font-family="Helvetica,sans-Serif" font-size="11.00">Generated by SchemaSpy</text>
<!-- isospecimendata -->
<g id="node1" class="node">
<title>isospecimendata</title>
<g id="a_node1"><a xlink:href="../../tables/isospecimendata.html" xlink:title="isospecimendata" target="_top">
<polygon fill="#ffffff" stroke="transparent" points="538.5,-900 538.5,-1024 671.5,-1024 671.5,-900 538.5,-900"/>
<polygon fill="#f5f5f5" stroke="transparent" points="539,-1002 539,-1024 672,-1024 672,-1002 539,-1002"/>
<polygon fill="none" stroke="black" points="539,-1002 539,-1024 672,-1024 672,-1002 539,-1002"/>
<text text-anchor="start" x="544" y="-1011.2" font-family="Helvetica,sans-Serif" font-weight="bold" font-size="11.00">isospecimendata</text>
<text text-anchor="start" x="637" y="-1010.2" font-family="Helvetica,sans-Serif" font-size="11.00">[table]</text>
<polygon fill="none" stroke="black" points="539,-980 539,-1002 672,-1002 672,-980 539,-980"/>
<image xlink:href="../../images/primaryKeys.png" width="11px" height="12px" preserveAspectRatio="xMinYMin meet" x="544" y="-997"/>
<text text-anchor="start" x="559" y="-988.2" font-family="Helvetica,sans-Serif" font-size="11.00">isospecimendataid</text>
<polygon fill="none" stroke="black" points="539,-958 539,-980 672,-980 672,-958 539,-958"/>
<image xlink:href="../../images/foreignKeys.png" width="11px" height="12px" preserveAspectRatio="xMinYMin meet" x="544" y="-975"/>
<text text-anchor="start" x="559" y="-966.2" font-family="Helvetica,sans-Serif" font-size="11.00">dataid</text>
<polygon fill="none" stroke="black" points="539,-936 539,-958 672,-958 672,-936 539,-936"/>
<image xlink:href="../../images/foreignKeys.png" width="11px" height="12px" preserveAspectRatio="xMinYMin meet" x="544" y="-953"/>
<text text-anchor="start" x="559" y="-944.2" font-family="Helvetica,sans-Serif" font-size="11.00">specimenid</text>
<polygon fill="none" stroke="black" points="539,-918 539,-936 672,-936 672,-918 539,-918"/>
<text text-anchor="start" x="542" y="-924.2" font-family="Helvetica,sans-Serif" font-size="11.00">...</text>
<polygon fill="#ffffff" stroke="transparent" points="539,-900 539,-918 580,-918 580,-900 539,-900"/>
<polygon fill="none" stroke="black" points="539,-900 539,-918 580,-918 580,-900 539,-900"/>
<text text-anchor="start" x="542" y="-906.2" font-family="Helvetica,sans-Serif" font-size="11.00">&lt; 2</text>
<polygon fill="#ffffff" stroke="transparent" points="580,-900 580,-918 649,-918 649,-900 580,-900"/>
<polygon fill="none" stroke="black" points="580,-900 580,-918 649,-918 649,-900 580,-900"/>
<text text-anchor="start" x="592" y="-906.2" font-family="Helvetica,sans-Serif" font-size="11.00">5,193 rows</text>
<polygon fill="#ffffff" stroke="transparent" points="649,-900 649,-918 672,-918 672,-900 649,-900"/>
<polygon fill="none" stroke="black" points="649,-900 649,-918 672,-918 672,-900 649,-900"/>
<text text-anchor="start" x="662" y="-906.2" font-family="Helvetica,sans-Serif" font-size="11.00"> &#160;</text>
</a>
</g>
</g>
<!-- data -->
<g id="node2" class="node">
<title>data</title>
<g id="a_node2"><a xlink:href="../../tables/data.html" xlink:title="data" target="_top">
<polygon fill="#ffffff" stroke="transparent" points="44.5,-858 44.5,-982 175.5,-982 175.5,-858 44.5,-858"/>
<polygon fill="#f5f5f5" stroke="transparent" points="45,-960 45,-982 176,-982 176,-960 45,-960"/>
<polygon fill="none" stroke="black" points="45,-960 45,-982 176,-982 176,-960 45,-960"/>
<text text-anchor="start" x="50" y="-969.2" font-family="Helvetica,sans-Serif" font-weight="bold" font-size="11.00">data</text>
<text text-anchor="start" x="141" y="-968.2" font-family="Helvetica,sans-Serif" font-size="11.00">[table]</text>
<polygon fill="none" stroke="black" points="45,-938 45,-960 176,-960 176,-938 45,-938"/>
<image xlink:href="../../images/primaryKeys.png" width="11px" height="12px" preserveAspectRatio="xMinYMin meet" x="50" y="-955"/>
<text text-anchor="start" x="71" y="-946.2" font-family="Helvetica,sans-Serif" font-size="11.00">dataid</text>
<polygon fill="#ffffff" stroke="transparent" points="45,-916 45,-938 176,-938 176,-916 45,-916"/>
<polygon fill="none" stroke="black" points="45,-916 45,-938 176,-938 176,-916 45,-916"/>
<image xlink:href="../../images/foreignKeys.png" width="11px" height="12px" preserveAspectRatio="xMinYMin meet" x="50" y="-933"/>
<text text-anchor="start" x="71" y="-924.2" font-family="Helvetica,sans-Serif" font-size="11.00">sampleid</text>
<polygon fill="#ffffff" stroke="transparent" points="45,-894 45,-916 176,-916 176,-894 45,-894"/>
<polygon fill="none" stroke="black" points="45,-894 45,-916 176,-916 176,-894 45,-894"/>
<image xlink:href="../../images/foreignKeys.png" width="11px" height="12px" preserveAspectRatio="xMinYMin meet" x="50" y="-911"/>
<text text-anchor="start" x="71" y="-902.2" font-family="Helvetica,sans-Serif" font-size="11.00">variableid</text>
<polygon fill="none" stroke="black" points="45,-876 45,-894 176,-894 176,-876 45,-876"/>
<text text-anchor="start" x="48" y="-882.2" font-family="Helvetica,sans-Serif" font-size="11.00">...</text>
<polygon fill="#ffffff" stroke="transparent" points="45,-858 45,-876 67,-876 67,-858 45,-858"/>
<polygon fill="none" stroke="black" points="45,-858 45,-876 67,-876 67,-858 45,-858"/>
<text text-anchor="start" x="48" y="-864.2" font-family="Helvetica,sans-Serif" font-size="11.00">&lt; 2</text>
<polygon fill="#ffffff" stroke="transparent" points="67,-858 67,-876 154,-876 154,-858 67,-858"/>
<polygon fill="none" stroke="black" points="67,-858 67,-876 154,-876 154,-858 67,-858"/>
<text text-anchor="start" x="70" y="-864.2" font-family="Helvetica,sans-Serif" font-size="11.00">10,039,985 rows</text>
<polygon fill="#ffffff" stroke="transparent" points="154,-858 154,-876 176,-876 176,-858 154,-858"/>
<polygon fill="none" stroke="black" points="154,-858 154,-876 176,-876 176,-858 154,-858"/>
<text text-anchor="start" x="157" y="-864.2" font-family="Helvetica,sans-Serif" font-size="11.00">7 &gt;</text>
</a>
</g>
</g>
<!-- isospecimendata&#45;&gt;data -->
<g id="edge1" class="edge">
<title>isospecimendata:w&#45;&gt;data:e</title>
<path fill="none" stroke="black" d="M523.28,-968.94C374.72,-967.77 332.67,-949 177,-949"/>
<polygon fill="black" stroke="black" points="530,-968.97 537.99,-972.6 534,-968.98 538,-969 538,-969 538,-969 534,-968.98 538.01,-965.4 530,-968.97 530,-968.97"/>
<ellipse fill="none" stroke="black" cx="526.8" cy="-968.96" rx="3.2" ry="3.2"/>
</g>
<!-- specimens -->
<g id="node3" class="node">
<title>specimens</title>
<g id="a_node3"><a xlink:href="../../tables/specimens.html" xlink:title="specimens" target="_top">
<polygon fill="#ffffff" stroke="transparent" points="261,-233 261,-651 479,-651 479,-233 261,-233"/>
<polygon fill="#f5f5f5" stroke="transparent" points="263,-627 263,-649 477,-649 477,-627 263,-627"/>
<polygon fill="none" stroke="black" points="263,-627 263,-649 477,-649 477,-627 263,-627"/>
<text text-anchor="start" x="268" y="-636.2" font-family="Helvetica,sans-Serif" font-weight="bold" font-size="11.00">specimens</text>
<text text-anchor="start" x="442" y="-635.2" font-family="Helvetica,sans-Serif" font-size="11.00">[table]</text>
<polygon fill="none" stroke="black" points="263,-605 263,-627 387,-627 387,-605 263,-605"/>
<image xlink:href="../../images/primaryKeys.png" width="11px" height="12px" preserveAspectRatio="xMinYMin meet" x="268" y="-622"/>
<text text-anchor="start" x="283" y="-613.2" font-family="Helvetica,sans-Serif" font-size="11.00">specimenid</text>
<polygon fill="none" stroke="black" points="387,-605 387,-627 477,-627 477,-605 387,-605"/>
<text text-anchor="start" x="390" y="-613.2" font-family="Helvetica,sans-Serif" font-size="11.00">serial[10]</text>
<polygon fill="none" stroke="black" points="263,-583 263,-605 387,-605 387,-583 263,-583"/>
<image xlink:href="../../images/foreignKeys.png" width="11px" height="12px" preserveAspectRatio="xMinYMin meet" x="268" y="-600"/>
<text text-anchor="start" x="283" y="-591.2" font-family="Helvetica,sans-Serif" font-size="11.00">dataid</text>
<polygon fill="none" stroke="black" points="387,-583 387,-605 477,-605 477,-583 387,-583"/>
<text text-anchor="start" x="390" y="-591.2" font-family="Helvetica,sans-Serif" font-size="11.00">int4[10]</text>
<polygon fill="none" stroke="black" points="263,-561 263,-583 387,-583 387,-561 263,-561"/>
<image xlink:href="../../images/foreignKeys.png" width="11px" height="12px" preserveAspectRatio="xMinYMin meet" x="268" y="-578"/>
<text text-anchor="start" x="283" y="-569.2" font-family="Helvetica,sans-Serif" font-size="11.00">elementtypeid</text>
<polygon fill="none" stroke="black" points="387,-561 387,-583 477,-583 477,-561 387,-561"/>
<text text-anchor="start" x="390" y="-569.2" font-family="Helvetica,sans-Serif" font-size="11.00">int4[10]</text>
<polygon fill="none" stroke="black" points="263,-539 263,-561 387,-561 387,-539 263,-539"/>
<image xlink:href="../../images/foreignKeys.png" width="11px" height="12px" preserveAspectRatio="xMinYMin meet" x="268" y="-556"/>
<text text-anchor="start" x="283" y="-547.2" font-family="Helvetica,sans-Serif" font-size="11.00">symmetryid</text>
<polygon fill="none" stroke="black" points="387,-539 387,-561 477,-561 477,-539 387,-539"/>
<text text-anchor="start" x="390" y="-547.2" font-family="Helvetica,sans-Serif" font-size="11.00">int4[10]</text>
<polygon fill="none" stroke="black" points="263,-517 263,-539 387,-539 387,-517 263,-517"/>
<image xlink:href="../../images/foreignKeys.png" width="11px" height="12px" preserveAspectRatio="xMinYMin meet" x="268" y="-534"/>
<text text-anchor="start" x="283" y="-525.2" font-family="Helvetica,sans-Serif" font-size="11.00">portionid</text>
<polygon fill="none" stroke="black" points="387,-517 387,-539 477,-539 477,-517 387,-517"/>
<text text-anchor="start" x="390" y="-525.2" font-family="Helvetica,sans-Serif" font-size="11.00">int4[10]</text>
<polygon fill="none" stroke="black" points="263,-495 263,-517 387,-517 387,-495 263,-495"/>
<image xlink:href="../../images/foreignKeys.png" width="11px" height="12px" preserveAspectRatio="xMinYMin meet" x="268" y="-512"/>
<text text-anchor="start" x="283" y="-503.2" font-family="Helvetica,sans-Serif" font-size="11.00">maturityid</text>
<polygon fill="none" stroke="black" points="387,-495 387,-517 477,-517 477,-495 387,-495"/>
<text text-anchor="start" x="390" y="-503.2" font-family="Helvetica,sans-Serif" font-size="11.00">int4[10]</text>
<polygon fill="none" stroke="black" points="263,-473 263,-495 387,-495 387,-473 263,-473"/>
<image xlink:href="../../images/foreignKeys.png" width="11px" height="12px" preserveAspectRatio="xMinYMin meet" x="268" y="-490"/>
<text text-anchor="start" x="283" y="-481.2" font-family="Helvetica,sans-Serif" font-size="11.00">sexid</text>
<polygon fill="none" stroke="black" points="387,-473 387,-495 477,-495 477,-473 387,-473"/>
<text text-anchor="start" x="390" y="-481.2" font-family="Helvetica,sans-Serif" font-size="11.00">int4[10]</text>
<polygon fill="none" stroke="black" points="263,-451 263,-473 387,-473 387,-451 263,-451"/>
<image xlink:href="../../images/foreignKeys.png" width="11px" height="12px" preserveAspectRatio="xMinYMin meet" x="268" y="-468"/>
<text text-anchor="start" x="283" y="-459.2" font-family="Helvetica,sans-Serif" font-size="11.00">domesticstatusid</text>
<polygon fill="none" stroke="black" points="387,-451 387,-473 477,-473 477,-451 387,-451"/>
<text text-anchor="start" x="390" y="-459.2" font-family="Helvetica,sans-Serif" font-size="11.00">int4[10]</text>
<polygon fill="none" stroke="black" points="263,-429 263,-451 387,-451 387,-429 263,-429"/>
<text text-anchor="start" x="283" y="-437.2" font-family="Helvetica,sans-Serif" font-size="11.00">preservative</text>
<polygon fill="none" stroke="black" points="387,-429 387,-451 477,-451 477,-429 387,-429"/>
<text text-anchor="start" x="390" y="-437.2" font-family="Helvetica,sans-Serif" font-size="11.00">varchar[256]</text>
<polygon fill="none" stroke="black" points="263,-407 263,-429 387,-429 387,-407 263,-407"/>
<text text-anchor="start" x="283" y="-415.2" font-family="Helvetica,sans-Serif" font-size="11.00">nisp</text>
<polygon fill="none" stroke="black" points="387,-407 387,-429 477,-429 477,-407 387,-407"/>
<text text-anchor="start" x="390" y="-415.2" font-family="Helvetica,sans-Serif" font-size="11.00">float8[17,17]</text>
<polygon fill="none" stroke="black" points="263,-385 263,-407 387,-407 387,-385 263,-385"/>
<image xlink:href="../../images/foreignKeys.png" width="11px" height="12px" preserveAspectRatio="xMinYMin meet" x="268" y="-402"/>
<text text-anchor="start" x="283" y="-393.2" font-family="Helvetica,sans-Serif" font-size="11.00">repositoryid</text>
<polygon fill="none" stroke="black" points="387,-385 387,-407 477,-407 477,-385 387,-385"/>
<text text-anchor="start" x="390" y="-393.2" font-family="Helvetica,sans-Serif" font-size="11.00">int4[10]</text>
<polygon fill="none" stroke="black" points="263,-363 263,-385 387,-385 387,-363 263,-363"/>
<text text-anchor="start" x="283" y="-371.2" font-family="Helvetica,sans-Serif" font-size="11.00">specimennr</text>
<polygon fill="none" stroke="black" points="387,-363 387,-385 477,-385 477,-363 387,-363"/>
<text text-anchor="start" x="390" y="-371.2" font-family="Helvetica,sans-Serif" font-size="11.00">varchar[50]</text>
<polygon fill="none" stroke="black" points="263,-341 263,-363 387,-363 387,-341 263,-341"/>
<text text-anchor="start" x="283" y="-349.2" font-family="Helvetica,sans-Serif" font-size="11.00">fieldnr</text>
<polygon fill="none" stroke="black" points="387,-341 387,-363 477,-363 477,-341 387,-341"/>
<text text-anchor="start" x="390" y="-349.2" font-family="Helvetica,sans-Serif" font-size="11.00">varchar[50]</text>
<polygon fill="none" stroke="black" points="263,-319 263,-341 387,-341 387,-319 263,-319"/>
<text text-anchor="start" x="283" y="-327.2" font-family="Helvetica,sans-Serif" font-size="11.00">arctosnr</text>
<polygon fill="none" stroke="black" points="387,-319 387,-341 477,-341 477,-319 387,-319"/>
<text text-anchor="start" x="390" y="-327.2" font-family="Helvetica,sans-Serif" font-size="11.00">varchar[50]</text>
<polygon fill="none" stroke="black" points="263,-297 263,-319 387,-319 387,-297 263,-297"/>
<text text-anchor="start" x="283" y="-305.2" font-family="Helvetica,sans-Serif" font-size="11.00">notes</text>
<polygon fill="none" stroke="black" points="387,-297 387,-319 477,-319 477,-297 387,-297"/>
<text text-anchor="start" x="390" y="-305.2" font-family="Helvetica,sans-Serif" font-size="11.00">text[2147483647]</text>
<polygon fill="none" stroke="black" points="263,-275 263,-297 387,-297 387,-275 263,-275"/>
<text text-anchor="start" x="283" y="-283.2" font-family="Helvetica,sans-Serif" font-size="11.00">recdatecreated</text>
<polygon fill="none" stroke="black" points="387,-275 387,-297 477,-297 477,-275 387,-275"/>
<text text-anchor="start" x="390" y="-283.2" font-family="Helvetica,sans-Serif" font-size="11.00">timestamp[22]</text>
<polygon fill="none" stroke="black" points="263,-253 263,-275 387,-275 387,-253 263,-253"/>
<text text-anchor="start" x="283" y="-261.2" font-family="Helvetica,sans-Serif" font-size="11.00">recdatemodified</text>
<polygon fill="none" stroke="black" points="387,-253 387,-275 477,-275 477,-253 387,-253"/>
<text text-anchor="start" x="390" y="-261.2" font-family="Helvetica,sans-Serif" font-size="11.00">timestamp[22]</text>
<polygon fill="#ffffff" stroke="transparent" points="263,-235 263,-253 306,-253 306,-235 263,-235"/>
<polygon fill="none" stroke="black" points="263,-235 263,-253 306,-253 306,-235 263,-235"/>
<text text-anchor="start" x="266" y="-241.2" font-family="Helvetica,sans-Serif" font-size="11.00">&lt; 8</text>
<polygon fill="#ffffff" stroke="transparent" points="306,-235 306,-253 387,-253 387,-235 306,-235"/>
<polygon fill="none" stroke="black" points="306,-235 306,-253 387,-253 387,-235 306,-235"/>
<text text-anchor="start" x="330" y="-241.2" font-family="Helvetica,sans-Serif" font-size="11.00">3,351 rows</text>
<polygon fill="#ffffff" stroke="transparent" points="387,-235 387,-253 477,-253 477,-235 387,-235"/>
<polygon fill="none" stroke="black" points="387,-235 387,-253 477,-253 477,-235 387,-235"/>
<text text-anchor="start" x="458" y="-241.2" font-family="Helvetica,sans-Serif" font-size="11.00">4 &gt;</text>
<polygon fill="none" stroke="black" stroke-width="2" points="262,-234 262,-650 478,-650 478,-234 262,-234"/>
</a>
</g>
</g>
<!-- isospecimendata&#45;&gt;specimens -->
<g id="edge2" class="edge">
<title>isospecimendata:w&#45;&gt;specimens:e</title>
<path fill="none" stroke="black" d="M524.24,-942.06C475.32,-900.89 547.35,-616 478,-616"/>
<polygon fill="black" stroke="black" points="530.47,-944.3 536.78,-950.39 534.24,-945.65 538,-947 538,-947 538,-947 534.24,-945.65 539.22,-943.61 530.47,-944.3 530.47,-944.3"/>
<ellipse fill="none" stroke="black" cx="527.46" cy="-943.22" rx="3.2" ry="3.2"/>
</g>
<!-- specimens&#45;&gt;data -->
<g id="edge6" class="edge">
<title>specimens:w&#45;&gt;data:e</title>
<path fill="none" stroke="black" d="M248.48,-599.19C214.68,-628.86 231.65,-777.2 220,-822 205.01,-879.68 236.59,-949 177,-949"/>
<polygon fill="black" stroke="black" points="254.53,-596.87 263.29,-597.36 258.27,-595.43 262,-594 262,-594 262,-594 258.27,-595.43 260.71,-590.64 254.53,-596.87 254.53,-596.87"/>
<ellipse fill="none" stroke="black" cx="251.54" cy="-598.01" rx="3.2" ry="3.2"/>
</g>
<!-- elementtypes -->
<g id="node5" class="node">
<title>elementtypes</title>
<g id="a_node5"><a xlink:href="../../tables/elementtypes.html" xlink:title="elementtypes" target="_top">
<polygon fill="#ffffff" stroke="transparent" points="50,-709 50,-811 170,-811 170,-709 50,-709"/>
<polygon fill="#f5f5f5" stroke="transparent" points="50,-789 50,-811 170,-811 170,-789 50,-789"/>
<polygon fill="none" stroke="black" points="50,-789 50,-811 170,-811 170,-789 50,-789"/>
<text text-anchor="start" x="55" y="-798.2" font-family="Helvetica,sans-Serif" font-weight="bold" font-size="11.00">elementtypes</text>
<text text-anchor="start" x="135" y="-797.2" font-family="Helvetica,sans-Serif" font-size="11.00">[table]</text>
<polygon fill="none" stroke="black" points="50,-767 50,-789 170,-789 170,-767 50,-767"/>
<image xlink:href="../../images/primaryKeys.png" width="11px" height="12px" preserveAspectRatio="xMinYMin meet" x="55" y="-784"/>
<text text-anchor="start" x="70" y="-775.2" font-family="Helvetica,sans-Serif" font-size="11.00">elementtypeid</text>
<polygon fill="#ffffff" stroke="transparent" points="50,-745 50,-767 170,-767 170,-745 50,-745"/>
<polygon fill="none" stroke="black" points="50,-745 50,-767 170,-767 170,-745 50,-745"/>
<text text-anchor="start" x="70" y="-753.2" font-family="Helvetica,sans-Serif" font-size="11.00">elementtype</text>
<polygon fill="none" stroke="black" points="50,-727 50,-745 170,-745 170,-727 50,-727"/>
<text text-anchor="start" x="53" y="-733.2" font-family="Helvetica,sans-Serif" font-size="11.00">...</text>
<polygon fill="#ffffff" stroke="transparent" points="50,-709 50,-727 80,-727 80,-709 50,-709"/>
<polygon fill="none" stroke="black" points="50,-709 50,-727 80,-727 80,-709 50,-709"/>
<text text-anchor="start" x="53" y="-715.2" font-family="Helvetica,sans-Serif" font-size="11.00"> &#160;</text>
<polygon fill="#ffffff" stroke="transparent" points="80,-709 80,-727 139,-727 139,-709 80,-709"/>
<polygon fill="none" stroke="black" points="80,-709 80,-727 139,-727 139,-709 80,-709"/>
<text text-anchor="start" x="91" y="-715.2" font-family="Helvetica,sans-Serif" font-size="11.00">926 rows</text>
<polygon fill="#ffffff" stroke="transparent" points="139,-709 139,-727 170,-727 170,-709 139,-709"/>
<polygon fill="none" stroke="black" points="139,-709 139,-727 170,-727 170,-709 139,-709"/>
<text text-anchor="start" x="151" y="-715.2" font-family="Helvetica,sans-Serif" font-size="11.00">5 &gt;</text>
</a>
</g>
</g>
<!-- specimens&#45;&gt;elementtypes -->
<g id="edge8" class="edge">
<title>specimens:w&#45;&gt;elementtypes:e</title>
<path fill="none" stroke="black" d="M247.34,-574.01C210.23,-586.1 242.72,-650.4 220,-699 202.5,-736.43 212.32,-778 171,-778"/>
<polygon fill="black" stroke="black" points="254.07,-573.09 262.49,-575.57 258.04,-572.54 262,-572 262,-572 262,-572 258.04,-572.54 261.51,-568.43 254.07,-573.09 254.07,-573.09"/>
<ellipse fill="none" stroke="black" cx="250.9" cy="-573.52" rx="3.2" ry="3.2"/>
</g>
<!-- specimendomesticstatustypes -->
<g id="node7" class="node">
<title>specimendomesticstatustypes</title>
<g id="a_node7"><a xlink:href="../../tables/specimendomesticstatustypes.html" xlink:title="specimendomesticstatustypes" target="_top">
<polygon fill="#ffffff" stroke="transparent" points="8,-138 8,-218 212,-218 212,-138 8,-138"/>
<polygon fill="#f5f5f5" stroke="transparent" points="8,-196 8,-218 212,-218 212,-196 8,-196"/>
<polygon fill="none" stroke="black" points="8,-196 8,-218 212,-218 212,-196 8,-196"/>
<text text-anchor="start" x="13" y="-205.2" font-family="Helvetica,sans-Serif" font-weight="bold" font-size="11.00">specimendomesticstatustypes</text>
<text text-anchor="start" x="177" y="-204.2" font-family="Helvetica,sans-Serif" font-size="11.00">[table]</text>
<polygon fill="none" stroke="black" points="8,-174 8,-196 212,-196 212,-174 8,-174"/>
<image xlink:href="../../images/primaryKeys.png" width="11px" height="12px" preserveAspectRatio="xMinYMin meet" x="13" y="-191"/>
<text text-anchor="start" x="29" y="-182.2" font-family="Helvetica,sans-Serif" font-size="11.00">domesticstatusid</text>
<polygon fill="none" stroke="black" points="8,-156 8,-174 212,-174 212,-156 8,-156"/>
<text text-anchor="start" x="11" y="-162.2" font-family="Helvetica,sans-Serif" font-size="11.00">...</text>
<polygon fill="#ffffff" stroke="transparent" points="8,-138 8,-156 86,-156 86,-138 8,-138"/>
<polygon fill="none" stroke="black" points="8,-138 8,-156 86,-156 86,-138 8,-138"/>
<text text-anchor="start" x="11" y="-144.2" font-family="Helvetica,sans-Serif" font-size="11.00"> &#160;</text>
<polygon fill="#ffffff" stroke="transparent" points="86,-138 86,-156 157,-156 157,-138 86,-138"/>
<polygon fill="none" stroke="black" points="86,-138 86,-156 157,-156 157,-138 86,-138"/>
<text text-anchor="start" x="121" y="-144.2" font-family="Helvetica,sans-Serif" font-size="11.00">4 rows</text>
<polygon fill="#ffffff" stroke="transparent" points="157,-138 157,-156 212,-156 212,-138 157,-138"/>
<polygon fill="none" stroke="black" points="157,-138 157,-156 212,-156 212,-138 157,-138"/>
<text text-anchor="start" x="193" y="-144.2" font-family="Helvetica,sans-Serif" font-size="11.00">1 &gt;</text>
</a>
</g>
</g>
<!-- specimens&#45;&gt;specimendomesticstatustypes -->
<g id="edge7" class="edge">
<title>specimens:w&#45;&gt;specimendomesticstatustypes:e</title>
<path fill="none" stroke="black" d="M248.78,-456.21C211.53,-416.44 270.14,-185 213,-185"/>
<polygon fill="black" stroke="black" points="254.67,-458.79 260.56,-465.3 258.34,-460.4 262,-462 262,-462 262,-462 258.34,-460.4 263.44,-458.7 254.67,-458.79 254.67,-458.79"/>
<ellipse fill="none" stroke="black" cx="251.74" cy="-457.51" rx="3.2" ry="3.2"/>
</g>
<!-- elementmaturities -->
<g id="node8" class="node">
<title>elementmaturities</title>
<g id="a_node8"><a xlink:href="../../tables/elementmaturities.html" xlink:title="elementmaturities" target="_top">
<polygon fill="#ffffff" stroke="transparent" points="41,-340 41,-442 179,-442 179,-340 41,-340"/>
<polygon fill="#f5f5f5" stroke="transparent" points="41,-420 41,-442 179,-442 179,-420 41,-420"/>
<polygon fill="none" stroke="black" points="41,-420 41,-442 179,-442 179,-420 41,-420"/>
<text text-anchor="start" x="46" y="-429.2" font-family="Helvetica,sans-Serif" font-weight="bold" font-size="11.00">elementmaturities</text>
<text text-anchor="start" x="144" y="-428.2" font-family="Helvetica,sans-Serif" font-size="11.00">[table]</text>
<polygon fill="none" stroke="black" points="41,-398 41,-420 179,-420 179,-398 41,-398"/>
<image xlink:href="../../images/primaryKeys.png" width="11px" height="12px" preserveAspectRatio="xMinYMin meet" x="46" y="-415"/>
<text text-anchor="start" x="64" y="-406.2" font-family="Helvetica,sans-Serif" font-size="11.00">maturityid</text>
<polygon fill="#ffffff" stroke="transparent" points="41,-376 41,-398 179,-398 179,-376 41,-376"/>
<polygon fill="none" stroke="black" points="41,-376 41,-398 179,-398 179,-376 41,-376"/>
<text text-anchor="start" x="64" y="-384.2" font-family="Helvetica,sans-Serif" font-size="11.00">maturity</text>
<polygon fill="none" stroke="black" points="41,-358 41,-376 179,-376 179,-358 41,-358"/>
<text text-anchor="start" x="44" y="-364.2" font-family="Helvetica,sans-Serif" font-size="11.00">...</text>
<polygon fill="#ffffff" stroke="transparent" points="41,-340 41,-358 83,-358 83,-340 41,-340"/>
<polygon fill="none" stroke="black" points="41,-340 41,-358 83,-358 83,-340 41,-340"/>
<text text-anchor="start" x="44" y="-346.2" font-family="Helvetica,sans-Serif" font-size="11.00"> &#160;</text>
<polygon fill="#ffffff" stroke="transparent" points="83,-340 83,-358 142,-358 142,-340 83,-340"/>
<polygon fill="none" stroke="black" points="83,-340 83,-358 142,-358 142,-340 83,-340"/>
<text text-anchor="start" x="100" y="-346.2" font-family="Helvetica,sans-Serif" font-size="11.00">12 rows</text>
<polygon fill="#ffffff" stroke="transparent" points="142,-340 142,-358 179,-358 179,-340 142,-340"/>
<polygon fill="none" stroke="black" points="142,-340 142,-358 179,-358 179,-340 142,-340"/>
<text text-anchor="start" x="160" y="-346.2" font-family="Helvetica,sans-Serif" font-size="11.00">3 &gt;</text>
</a>
</g>
</g>
<!-- specimens&#45;&gt;elementmaturities -->
<g id="edge9" class="edge">
<title>specimens:w&#45;&gt;elementmaturities:e</title>
<path fill="none" stroke="black" d="M247.79,-502.59C233.88,-494.07 235.5,-471.26 220,-453 202.89,-432.85 206.43,-409 180,-409"/>
<polygon fill="black" stroke="black" points="254.22,-504.13 261.16,-509.5 258.11,-505.07 262,-506 262,-506 262,-506 258.11,-505.07 262.84,-502.5 254.22,-504.13 254.22,-504.13"/>
<ellipse fill="none" stroke="black" cx="251.11" cy="-503.38" rx="3.2" ry="3.2"/>
</g>
<!-- elementportions -->
<g id="node9" class="node">
<title>elementportions</title>
<g id="a_node9"><a xlink:href="../../tables/elementportions.html" xlink:title="elementportions" target="_top">
<polygon fill="#ffffff" stroke="transparent" points="45,-463 45,-565 175,-565 175,-463 45,-463"/>
<polygon fill="#f5f5f5" stroke="transparent" points="45,-543 45,-565 175,-565 175,-543 45,-543"/>
<polygon fill="none" stroke="black" points="45,-543 45,-565 175,-565 175,-543 45,-543"/>
<text text-anchor="start" x="50" y="-552.2" font-family="Helvetica,sans-Serif" font-weight="bold" font-size="11.00">elementportions</text>
<text text-anchor="start" x="140" y="-551.2" font-family="Helvetica,sans-Serif" font-size="11.00">[table]</text>
<polygon fill="none" stroke="black" points="45,-521 45,-543 175,-543 175,-521 45,-521"/>
<image xlink:href="../../images/primaryKeys.png" width="11px" height="12px" preserveAspectRatio="xMinYMin meet" x="50" y="-538"/>
<text text-anchor="start" x="70" y="-529.2" font-family="Helvetica,sans-Serif" font-size="11.00">portionid</text>
<polygon fill="#ffffff" stroke="transparent" points="45,-499 45,-521 175,-521 175,-499 45,-499"/>
<polygon fill="none" stroke="black" points="45,-499 45,-521 175,-521 175,-499 45,-499"/>
<text text-anchor="start" x="70" y="-507.2" font-family="Helvetica,sans-Serif" font-size="11.00">portion</text>
<polygon fill="none" stroke="black" points="45,-481 45,-499 175,-499 175,-481 45,-481"/>
<text text-anchor="start" x="48" y="-487.2" font-family="Helvetica,sans-Serif" font-size="11.00">...</text>
<polygon fill="#ffffff" stroke="transparent" points="45,-463 45,-481 83,-481 83,-463 45,-463"/>
<polygon fill="none" stroke="black" points="45,-463 45,-481 83,-481 83,-463 45,-463"/>
<text text-anchor="start" x="48" y="-469.2" font-family="Helvetica,sans-Serif" font-size="11.00"> &#160;</text>
<polygon fill="#ffffff" stroke="transparent" points="83,-463 83,-481 140,-481 140,-463 83,-463"/>
<polygon fill="none" stroke="black" points="83,-463 83,-481 140,-481 140,-463 83,-463"/>
<text text-anchor="start" x="98" y="-469.2" font-family="Helvetica,sans-Serif" font-size="11.00">54 rows</text>
<polygon fill="#ffffff" stroke="transparent" points="140,-463 140,-481 175,-481 175,-463 140,-463"/>
<polygon fill="none" stroke="black" points="140,-463 140,-481 175,-481 175,-463 140,-463"/>
<text text-anchor="start" x="156" y="-469.2" font-family="Helvetica,sans-Serif" font-size="11.00">3 &gt;</text>
</a>
</g>
</g>
<!-- specimens&#45;&gt;elementportions -->
<g id="edge10" class="edge">
<title>specimens:w&#45;&gt;elementportions:e</title>
<path fill="none" stroke="black" d="M247.41,-528.22C220.5,-529.05 208.88,-532 176,-532"/>
<polygon fill="black" stroke="black" points="254,-528.12 262.05,-531.6 258,-528.06 262,-528 262,-528 262,-528 258,-528.06 261.95,-524.4 254,-528.12 254,-528.12"/>
<ellipse fill="none" stroke="black" cx="250.8" cy="-528.17" rx="3.2" ry="3.2"/>
</g>
<!-- repositoryinstitutions -->
<g id="node10" class="node">
<title>repositoryinstitutions</title>
<g id="a_node10"><a xlink:href="../../tables/repositoryinstitutions.html" xlink:title="repositoryinstitutions" target="_top">
<polygon fill="#ffffff" stroke="transparent" points="31,-37 31,-117 189,-117 189,-37 31,-37"/>
<polygon fill="#f5f5f5" stroke="transparent" points="31,-95 31,-117 189,-117 189,-95 31,-95"/>
<polygon fill="none" stroke="black" points="31,-95 31,-117 189,-117 189,-95 31,-95"/>
<text text-anchor="start" x="36" y="-104.2" font-family="Helvetica,sans-Serif" font-weight="bold" font-size="11.00">repositoryinstitutions</text>
<text text-anchor="start" x="154" y="-103.2" font-family="Helvetica,sans-Serif" font-size="11.00">[table]</text>
<polygon fill="none" stroke="black" points="31,-73 31,-95 189,-95 189,-73 31,-73"/>
<image xlink:href="../../images/primaryKeys.png" width="11px" height="12px" preserveAspectRatio="xMinYMin meet" x="36" y="-90"/>
<text text-anchor="start" x="54" y="-81.2" font-family="Helvetica,sans-Serif" font-size="11.00">repositoryid</text>
<polygon fill="none" stroke="black" points="31,-55 31,-73 189,-73 189,-55 31,-55"/>
<text text-anchor="start" x="34" y="-61.2" font-family="Helvetica,sans-Serif" font-size="11.00">...</text>
<polygon fill="#ffffff" stroke="transparent" points="31,-37 31,-55 80,-55 80,-37 31,-37"/>
<polygon fill="none" stroke="black" points="31,-37 31,-55 80,-55 80,-37 31,-37"/>
<text text-anchor="start" x="34" y="-43.2" font-family="Helvetica,sans-Serif" font-size="11.00"> &#160;</text>
<polygon fill="#ffffff" stroke="transparent" points="80,-37 80,-55 149,-55 149,-37 80,-37"/>
<polygon fill="none" stroke="black" points="80,-37 80,-55 149,-55 149,-37 80,-37"/>
<text text-anchor="start" x="101" y="-43.2" font-family="Helvetica,sans-Serif" font-size="11.00">387 rows</text>
<polygon fill="#ffffff" stroke="transparent" points="149,-37 149,-55 189,-55 189,-37 149,-37"/>
<polygon fill="none" stroke="black" points="149,-37 149,-55 189,-55 189,-37 149,-37"/>
<text text-anchor="start" x="170" y="-43.2" font-family="Helvetica,sans-Serif" font-size="11.00">2 &gt;</text>
</a>
</g>
</g>
<!-- specimens&#45;&gt;repositoryinstitutions -->
<g id="edge11" class="edge">
<title>specimens:w&#45;&gt;repositoryinstitutions:e</title>
<path fill="none" stroke="black" d="M248.38,-391.1C200.5,-351.41 255.87,-84 190,-84"/>
<polygon fill="black" stroke="black" points="254.47,-393.29 260.78,-399.39 258.24,-394.65 262,-396 262,-396 262,-396 258.24,-394.65 263.22,-392.61 254.47,-393.29 254.47,-393.29"/>
<ellipse fill="none" stroke="black" cx="251.46" cy="-392.21" rx="3.2" ry="3.2"/>
</g>
<!-- specimensextypes -->
<g id="node11" class="node">
<title>specimensextypes</title>
<g id="a_node11"><a xlink:href="../../tables/specimensextypes.html" xlink:title="specimensextypes" target="_top">
<polygon fill="#ffffff" stroke="transparent" points="39.5,-239 39.5,-319 180.5,-319 180.5,-239 39.5,-239"/>
<polygon fill="#f5f5f5" stroke="transparent" points="40,-297 40,-319 181,-319 181,-297 40,-297"/>
<polygon fill="none" stroke="black" points="40,-297 40,-319 181,-319 181,-297 40,-297"/>
<text text-anchor="start" x="45" y="-306.2" font-family="Helvetica,sans-Serif" font-weight="bold" font-size="11.00">specimensextypes</text>
<text text-anchor="start" x="146" y="-305.2" font-family="Helvetica,sans-Serif" font-size="11.00">[table]</text>
<polygon fill="none" stroke="black" points="40,-275 40,-297 181,-297 181,-275 40,-275"/>
<image xlink:href="../../images/primaryKeys.png" width="11px" height="12px" preserveAspectRatio="xMinYMin meet" x="45" y="-292"/>
<text text-anchor="start" x="66" y="-283.2" font-family="Helvetica,sans-Serif" font-size="11.00">sexid</text>
<polygon fill="none" stroke="black" points="40,-257 40,-275 181,-275 181,-257 40,-257"/>
<text text-anchor="start" x="43" y="-263.2" font-family="Helvetica,sans-Serif" font-size="11.00">...</text>
<polygon fill="#ffffff" stroke="transparent" points="40,-239 40,-257 86,-257 86,-239 40,-239"/>
<polygon fill="none" stroke="black" points="40,-239 40,-257 86,-257 86,-239 40,-239"/>
<text text-anchor="start" x="43" y="-245.2" font-family="Helvetica,sans-Serif" font-size="11.00"> &#160;</text>
<polygon fill="#ffffff" stroke="transparent" points="86,-239 86,-257 142,-257 142,-239 86,-239"/>
<polygon fill="none" stroke="black" points="86,-239 86,-257 142,-257 142,-239 86,-239"/>
<text text-anchor="start" x="106" y="-245.2" font-family="Helvetica,sans-Serif" font-size="11.00">3 rows</text>
<polygon fill="#ffffff" stroke="transparent" points="142,-239 142,-257 181,-257 181,-239 142,-239"/>
<polygon fill="none" stroke="black" points="142,-239 142,-257 181,-257 181,-239 142,-239"/>
<text text-anchor="start" x="162" y="-245.2" font-family="Helvetica,sans-Serif" font-size="11.00">1 &gt;</text>
</a>
</g>
</g>
<!-- specimens&#45;&gt;specimensextypes -->
<g id="edge12" class="edge">
<title>specimens:w&#45;&gt;specimensextypes:e</title>
<path fill="none" stroke="black" d="M247.63,-482.37C199.91,-469.78 251.21,-386.92 220,-329 207.9,-306.55 207.5,-286 182,-286"/>
<polygon fill="black" stroke="black" points="254.05,-483.1 261.59,-487.58 258.03,-483.55 262,-484 262,-484 262,-484 258.03,-483.55 262.41,-480.42 254.05,-483.1 254.05,-483.1"/>
<ellipse fill="none" stroke="black" cx="250.87" cy="-482.74" rx="3.2" ry="3.2"/>
</g>
<!-- elementsymmetries -->
<g id="node12" class="node">
<title>elementsymmetries</title>
<g id="a_node12"><a xlink:href="../../tables/elementsymmetries.html" xlink:title="elementsymmetries" target="_top">
<polygon fill="#ffffff" stroke="transparent" points="36.5,-586 36.5,-688 183.5,-688 183.5,-586 36.5,-586"/>
<polygon fill="#f5f5f5" stroke="transparent" points="37,-666 37,-688 184,-688 184,-666 37,-666"/>
<polygon fill="none" stroke="black" points="37,-666 37,-688 184,-688 184,-666 37,-666"/>
<text text-anchor="start" x="42" y="-675.2" font-family="Helvetica,sans-Serif" font-weight="bold" font-size="11.00">elementsymmetries</text>
<text text-anchor="start" x="149" y="-674.2" font-family="Helvetica,sans-Serif" font-size="11.00">[table]</text>
<polygon fill="none" stroke="black" points="37,-644 37,-666 184,-666 184,-644 37,-644"/>
<image xlink:href="../../images/primaryKeys.png" width="11px" height="12px" preserveAspectRatio="xMinYMin meet" x="42" y="-661"/>
<text text-anchor="start" x="60" y="-652.2" font-family="Helvetica,sans-Serif" font-size="11.00">symmetryid</text>
<polygon fill="#ffffff" stroke="transparent" points="37,-622 37,-644 184,-644 184,-622 37,-622"/>
<polygon fill="none" stroke="black" points="37,-622 37,-644 184,-644 184,-622 37,-622"/>
<text text-anchor="start" x="60" y="-630.2" font-family="Helvetica,sans-Serif" font-size="11.00">symmetry</text>
<polygon fill="none" stroke="black" points="37,-604 37,-622 184,-622 184,-604 37,-604"/>
<text text-anchor="start" x="40" y="-610.2" font-family="Helvetica,sans-Serif" font-size="11.00">...</text>
<polygon fill="#ffffff" stroke="transparent" points="37,-586 37,-604 86,-604 86,-586 37,-586"/>
<polygon fill="none" stroke="black" points="37,-586 37,-604 86,-604 86,-586 37,-586"/>
<text text-anchor="start" x="40" y="-592.2" font-family="Helvetica,sans-Serif" font-size="11.00"> &#160;</text>
<polygon fill="#ffffff" stroke="transparent" points="86,-586 86,-604 143,-604 143,-586 86,-586"/>
<polygon fill="none" stroke="black" points="86,-586 86,-604 143,-604 143,-586 86,-586"/>
<text text-anchor="start" x="107" y="-592.2" font-family="Helvetica,sans-Serif" font-size="11.00">8 rows</text>
<polygon fill="#ffffff" stroke="transparent" points="143,-586 143,-604 184,-604 184,-586 143,-586"/>
<polygon fill="none" stroke="black" points="143,-586 143,-604 184,-604 184,-586 143,-586"/>
<text text-anchor="start" x="165" y="-592.2" font-family="Helvetica,sans-Serif" font-size="11.00">3 &gt;</text>
</a>
</g>
</g>
<!-- specimens&#45;&gt;elementsymmetries -->
<g id="edge13" class="edge">
<title>specimens:w&#45;&gt;elementsymmetries:e</title>
<path fill="none" stroke="black" d="M247.63,-552.81C210.78,-569.51 237.22,-655 185,-655"/>
<polygon fill="black" stroke="black" points="254.15,-551.53 262.69,-553.53 258.07,-550.77 262,-550 262,-550 262,-550 258.07,-550.77 261.31,-546.47 254.15,-551.53 254.15,-551.53"/>
<ellipse fill="none" stroke="black" cx="251.01" cy="-552.15" rx="3.2" ry="3.2"/>
</g>
<!-- specimendates -->
<g id="node4" class="node">
<title>specimendates</title>
<g id="a_node4"><a xlink:href="../../tables/specimendates.html" xlink:title="specimendates" target="_top">
<polygon fill="#ffffff" stroke="transparent" points="543.5,-667 543.5,-879 666.5,-879 666.5,-667 543.5,-667"/>
<polygon fill="#f5f5f5" stroke="transparent" points="544,-857 544,-879 667,-879 667,-857 544,-857"/>
<polygon fill="none" stroke="black" points="544,-857 544,-879 667,-879 667,-857 544,-857"/>
<text text-anchor="start" x="549" y="-866.2" font-family="Helvetica,sans-Serif" font-weight="bold" font-size="11.00">specimendates</text>
<text text-anchor="start" x="632" y="-865.2" font-family="Helvetica,sans-Serif" font-size="11.00">[table]</text>
<polygon fill="none" stroke="black" points="544,-835 544,-857 667,-857 667,-835 544,-835"/>
<image xlink:href="../../images/primaryKeys.png" width="11px" height="12px" preserveAspectRatio="xMinYMin meet" x="549" y="-852"/>
<text text-anchor="start" x="566" y="-843.2" font-family="Helvetica,sans-Serif" font-size="11.00">specimendateid</text>
<polygon fill="none" stroke="black" points="544,-813 544,-835 667,-835 667,-813 544,-813"/>
<image xlink:href="../../images/foreignKeys.png" width="11px" height="12px" preserveAspectRatio="xMinYMin meet" x="549" y="-830"/>
<text text-anchor="start" x="566" y="-821.2" font-family="Helvetica,sans-Serif" font-size="11.00">geochronid</text>
<polygon fill="#ffffff" stroke="transparent" points="544,-791 544,-813 667,-813 667,-791 544,-791"/>
<polygon fill="none" stroke="black" points="544,-791 544,-813 667,-813 667,-791 544,-791"/>
<image xlink:href="../../images/foreignKeys.png" width="11px" height="12px" preserveAspectRatio="xMinYMin meet" x="549" y="-808"/>
<text text-anchor="start" x="566" y="-799.2" font-family="Helvetica,sans-Serif" font-size="11.00">taxonid</text>
<polygon fill="none" stroke="black" points="544,-769 544,-791 667,-791 667,-769 544,-769"/>
<image xlink:href="../../images/foreignKeys.png" width="11px" height="12px" preserveAspectRatio="xMinYMin meet" x="549" y="-786"/>
<text text-anchor="start" x="566" y="-777.2" font-family="Helvetica,sans-Serif" font-size="11.00">fractionid</text>
<polygon fill="#ffffff" stroke="transparent" points="544,-747 544,-769 667,-769 667,-747 544,-747"/>
<polygon fill="none" stroke="black" points="544,-747 544,-769 667,-769 667,-747 544,-747"/>
<image xlink:href="../../images/foreignKeys.png" width="11px" height="12px" preserveAspectRatio="xMinYMin meet" x="549" y="-764"/>
<text text-anchor="start" x="566" y="-755.2" font-family="Helvetica,sans-Serif" font-size="11.00">sampleid</text>
<polygon fill="none" stroke="black" points="544,-725 544,-747 667,-747 667,-725 544,-725"/>
<image xlink:href="../../images/foreignKeys.png" width="11px" height="12px" preserveAspectRatio="xMinYMin meet" x="549" y="-742"/>
<text text-anchor="start" x="566" y="-733.2" font-family="Helvetica,sans-Serif" font-size="11.00">elementtypeid</text>
<polygon fill="none" stroke="black" points="544,-703 544,-725 667,-725 667,-703 544,-703"/>
<image xlink:href="../../images/foreignKeys.png" width="11px" height="12px" preserveAspectRatio="xMinYMin meet" x="549" y="-720"/>
<text text-anchor="start" x="566" y="-711.2" font-family="Helvetica,sans-Serif" font-size="11.00">specimenid</text>
<polygon fill="none" stroke="black" points="544,-685 544,-703 667,-703 667,-685 544,-685"/>
<text text-anchor="start" x="547" y="-691.2" font-family="Helvetica,sans-Serif" font-size="11.00">...</text>
<polygon fill="#ffffff" stroke="transparent" points="544,-667 544,-685 575,-685 575,-667 544,-667"/>
<polygon fill="none" stroke="black" points="544,-667 544,-685 575,-685 575,-667 544,-667"/>
<text text-anchor="start" x="547" y="-673.2" font-family="Helvetica,sans-Serif" font-size="11.00">&lt; 6</text>
<polygon fill="#ffffff" stroke="transparent" points="575,-667 575,-685 640,-685 640,-667 575,-667"/>
<polygon fill="none" stroke="black" points="575,-667 575,-685 640,-685 640,-667 575,-667"/>
<text text-anchor="start" x="583" y="-673.2" font-family="Helvetica,sans-Serif" font-size="11.00">2,662 rows</text>
<polygon fill="#ffffff" stroke="transparent" points="640,-667 640,-685 667,-685 667,-667 640,-667"/>
<polygon fill="none" stroke="black" points="640,-667 640,-685 667,-685 667,-667 640,-667"/>
<text text-anchor="start" x="648" y="-673.2" font-family="Helvetica,sans-Serif" font-size="11.00">1 &gt;</text>
</a>
</g>
</g>
<!-- specimendates&#45;&gt;specimens -->
<g id="edge4" class="edge">
<title>specimendates:w&#45;&gt;specimens:e</title>
<path fill="none" stroke="black" d="M528.9,-710.74C498.28,-693.73 524.55,-616 478,-616"/>
<polygon fill="black" stroke="black" points="535.21,-712.2 542.19,-717.51 539.1,-713.1 543,-714 543,-714 543,-714 539.1,-713.1 543.81,-710.49 535.21,-712.2 535.21,-712.2"/>
<ellipse fill="none" stroke="black" cx="532.09" cy="-711.48" rx="3.2" ry="3.2"/>
</g>
<!-- specimendates&#45;&gt;elementtypes -->
<g id="edge3" class="edge">
<title>specimendates:w&#45;&gt;elementtypes:e</title>
<path fill="none" stroke="black" d="M528.23,-736.11C374.12,-738.5 332.35,-778 171,-778"/>
<polygon fill="black" stroke="black" points="535,-736.06 543.03,-739.6 539,-736.03 543,-736 543,-736 543,-736 539,-736.03 542.97,-732.4 535,-736.06 535,-736.06"/>
<ellipse fill="none" stroke="black" cx="531.8" cy="-736.09" rx="3.2" ry="3.2"/>
</g>
<!-- specimengenbank -->
<g id="node6" class="node">
<title>specimengenbank</title>
<g id="a_node6"><a xlink:href="../../tables/specimengenbank.html" xlink:title="specimengenbank" target="_top">
<polygon fill="#ffffff" stroke="transparent" points="535,-562 535,-646 675,-646 675,-562 535,-562"/>
<polygon fill="#f5f5f5" stroke="transparent" points="535,-624 535,-646 675,-646 675,-624 535,-624"/>
<polygon fill="none" stroke="black" points="535,-624 535,-646 675,-646 675,-624 535,-624"/>
<text text-anchor="start" x="540" y="-633.2" font-family="Helvetica,sans-Serif" font-weight="bold" font-size="11.00">specimengenbank</text>
<text text-anchor="start" x="640" y="-632.2" font-family="Helvetica,sans-Serif" font-size="11.00">[table]</text>
<polygon fill="none" stroke="black" points="535,-602 535,-624 675,-624 675,-602 535,-602"/>
<image xlink:href="../../images/primaryKeys.png" width="11px" height="12px" preserveAspectRatio="xMinYMin meet" x="540" y="-619"/>
<text text-anchor="start" x="560" y="-610.2" font-family="Helvetica,sans-Serif" font-size="11.00">specimenid</text>
<polygon fill="none" stroke="black" points="535,-580 535,-602 675,-602 675,-580 535,-580"/>
<image xlink:href="../../images/primaryKeys.png" width="11px" height="12px" preserveAspectRatio="xMinYMin meet" x="540" y="-597"/>
<text text-anchor="start" x="560" y="-588.2" font-family="Helvetica,sans-Serif" font-size="11.00">genbanknr</text>
<polygon fill="#ffffff" stroke="transparent" points="535,-562 535,-580 590,-580 590,-562 535,-562"/>
<polygon fill="none" stroke="black" points="535,-562 535,-580 590,-580 590,-562 535,-562"/>
<text text-anchor="start" x="538" y="-568.2" font-family="Helvetica,sans-Serif" font-size="11.00">&lt; 1</text>
<polygon fill="#ffffff" stroke="transparent" points="590,-562 590,-580 645,-580 645,-562 590,-562"/>
<polygon fill="none" stroke="black" points="590,-562 590,-580 645,-580 645,-562 590,-562"/>
<text text-anchor="start" x="609" y="-568.2" font-family="Helvetica,sans-Serif" font-size="11.00">3 rows</text>
<polygon fill="#ffffff" stroke="transparent" points="645,-562 645,-580 675,-580 675,-562 645,-562"/>
<polygon fill="none" stroke="black" points="645,-562 645,-580 675,-580 675,-562 645,-562"/>
<text text-anchor="start" x="665" y="-568.2" font-family="Helvetica,sans-Serif" font-size="11.00"> &#160;</text>
</a>
</g>
</g>
<!-- specimengenbank&#45;&gt;specimens -->
<g id="edge5" class="edge">
<title>specimengenbank:w&#45;&gt;specimens:e</title>
<path fill="none" stroke="black" d="M519.51,-613.39C505.32,-614.21 497.28,-616 478,-616"/>
<polygon fill="black" stroke="black" points="526,-613.22 534.1,-616.6 530,-613.11 534,-613 534,-613 534,-613 530,-613.11 533.9,-609.4 526,-613.22 526,-613.22"/>
<ellipse fill="none" stroke="black" cx="522.8" cy="-613.3" rx="3.2" ry="3.2"/>
</g>
<!-- specimentaphonomy -->
<g id="node13" class="node">
<title>specimentaphonomy</title>
<g id="a_node13"><a xlink:href="../../tables/specimentaphonomy.html" xlink:title="specimentaphonomy" target="_top">
<polygon fill="#ffffff" stroke="transparent" points="528,-439 528,-541 682,-541 682,-439 528,-439"/>
<polygon fill="#f5f5f5" stroke="transparent" points="528,-519 528,-541 682,-541 682,-519 528,-519"/>
<polygon fill="none" stroke="black" points="528,-519 528,-541 682,-541 682,-519 528,-519"/>
<text text-anchor="start" x="533" y="-528.2" font-family="Helvetica,sans-Serif" font-weight="bold" font-size="11.00">specimentaphonomy</text>
<text text-anchor="start" x="647" y="-527.2" font-family="Helvetica,sans-Serif" font-size="11.00">[table]</text>
<polygon fill="none" stroke="black" points="528,-497 528,-519 682,-519 682,-497 528,-497"/>
<image xlink:href="../../images/primaryKeys.png" width="11px" height="12px" preserveAspectRatio="xMinYMin meet" x="533" y="-514"/>
<text text-anchor="start" x="552" y="-505.2" font-family="Helvetica,sans-Serif" font-size="11.00">specimenid</text>
<polygon fill="none" stroke="black" points="528,-475 528,-497 682,-497 682,-475 528,-475"/>
<image xlink:href="../../images/primaryKeys.png" width="11px" height="12px" preserveAspectRatio="xMinYMin meet" x="533" y="-492"/>
<text text-anchor="start" x="552" y="-483.2" font-family="Helvetica,sans-Serif" font-size="11.00">taphonomictypeid</text>
<polygon fill="none" stroke="black" points="528,-457 528,-475 682,-475 682,-457 528,-457"/>
<text text-anchor="start" x="531" y="-463.2" font-family="Helvetica,sans-Serif" font-size="11.00">...</text>
<polygon fill="#ffffff" stroke="transparent" points="528,-439 528,-457 584,-457 584,-439 528,-439"/>
<polygon fill="none" stroke="black" points="528,-439 528,-457 584,-457 584,-439 528,-439"/>
<text text-anchor="start" x="531" y="-445.2" font-family="Helvetica,sans-Serif" font-size="11.00">&lt; 2</text>
<polygon fill="#ffffff" stroke="transparent" points="584,-439 584,-457 652,-457 652,-439 584,-439"/>
<polygon fill="none" stroke="black" points="584,-439 584,-457 652,-457 652,-439 584,-439"/>
<text text-anchor="start" x="604" y="-445.2" font-family="Helvetica,sans-Serif" font-size="11.00">452 rows</text>
<polygon fill="#ffffff" stroke="transparent" points="652,-439 652,-457 682,-457 682,-439 652,-439"/>
<polygon fill="none" stroke="black" points="652,-439 652,-457 682,-457 682,-439 652,-439"/>
<text text-anchor="start" x="672" y="-445.2" font-family="Helvetica,sans-Serif" font-size="11.00"> &#160;</text>
</a>
</g>
</g>
<!-- specimentaphonomy&#45;&gt;specimens -->
<g id="edge14" class="edge">
<title>specimentaphonomy:w&#45;&gt;specimens:e</title>
<path fill="none" stroke="black" d="M512.97,-511.84C485.67,-531.08 524.74,-616 478,-616"/>
<polygon fill="black" stroke="black" points="519.28,-510.11 527.95,-511.47 523.14,-509.06 527,-508 527,-508 527,-508 523.14,-509.06 526.05,-504.53 519.28,-510.11 519.28,-510.11"/>
<ellipse fill="none" stroke="black" cx="516.2" cy="-510.96" rx="3.2" ry="3.2"/>
</g>
</g>
</svg>
