<?xml version="1.0" encoding="UTF-8" standalone="no"?>
<!DOCTYPE svg PUBLIC "-//W3C//DTD SVG 1.1//EN"
 "http://www.w3.org/Graphics/SVG/1.1/DTD/svg11.dtd">
<!-- Generated by graphviz version 2.43.0 (0)
 -->
<!-- Title: oneDegreeRelationshipsDiagram Pages: 1 -->
<svg width="392pt" height="307pt"
 viewBox="0.00 0.00 392.00 307.00" xmlns="http://www.w3.org/2000/svg" xmlns:xlink="http://www.w3.org/1999/xlink">
<g id="graph0" class="graph" transform="scale(1 1) rotate(0) translate(4 303)">
<title>oneDegreeRelationshipsDiagram</title>
<polygon fill="#ffffff" stroke="transparent" points="-4,4 -4,-303 388,-303 388,4 -4,4"/>
<text text-anchor="middle" x="71.5" y="-7.2" font-family="Helvetica,sans-Serif" font-size="11.00">Generated by SchemaSpy</text>
<!-- specimengenbank -->
<g id="node1" class="node">
<title>specimengenbank</title>
<g id="a_node1"><a xlink:href="../../tables/specimengenbank.html" xlink:title="specimengenbank" target="_top">
<polygon fill="#ffffff" stroke="transparent" points="181,-207 181,-295 376,-295 376,-207 181,-207"/>
<polygon fill="#f5f5f5" stroke="transparent" points="183.5,-271 183.5,-293 374.5,-293 374.5,-271 183.5,-271"/>
<polygon fill="none" stroke="black" points="183.5,-271 183.5,-293 374.5,-293 374.5,-271 183.5,-271"/>
<text text-anchor="start" x="188.5" y="-280.2" font-family="Helvetica,sans-Serif" font-weight="bold" font-size="11.00">specimengenbank</text>
<text text-anchor="start" x="339.5" y="-279.2" font-family="Helvetica,sans-Serif" font-size="11.00">[table]</text>
<polygon fill="none" stroke="black" points="183.5,-249 183.5,-271 313.5,-271 313.5,-249 183.5,-249"/>
<image xlink:href="../../images/primaryKeys.png" width="11px" height="12px" preserveAspectRatio="xMinYMin meet" x="188.5" y="-266"/>
<text text-anchor="start" x="203.5" y="-257.2" font-family="Helvetica,sans-Serif" font-size="11.00">specimenid</text>
<polygon fill="none" stroke="black" points="313.5,-249 313.5,-271 374.5,-271 374.5,-249 313.5,-249"/>
<text text-anchor="start" x="316.5" y="-257.2" font-family="Helvetica,sans-Serif" font-size="11.00">int4[10]</text>
<polygon fill="none" stroke="black" points="183.5,-227 183.5,-249 313.5,-249 313.5,-227 183.5,-227"/>
<image xlink:href="../../images/primaryKeys.png" width="11px" height="12px" preserveAspectRatio="xMinYMin meet" x="188.5" y="-244"/>
<text text-anchor="start" x="203.5" y="-235.2" font-family="Helvetica,sans-Serif" font-size="11.00">genbanknr</text>
<polygon fill="none" stroke="black" points="313.5,-227 313.5,-249 374.5,-249 374.5,-227 313.5,-227"/>
<text text-anchor="start" x="316.5" y="-235.2" font-family="Helvetica,sans-Serif" font-size="11.00">varchar[50]</text>
<polygon fill="#ffffff" stroke="transparent" points="183.5,-209 183.5,-227 239.5,-227 239.5,-209 183.5,-209"/>
<polygon fill="none" stroke="black" points="183.5,-209 183.5,-227 239.5,-227 239.5,-209 183.5,-209"/>
<text text-anchor="start" x="186.5" y="-215.2" font-family="Helvetica,sans-Serif" font-size="11.00">&lt; 1</text>
<polygon fill="#ffffff" stroke="transparent" points="239.5,-209 239.5,-227 313.5,-227 313.5,-209 239.5,-209"/>
<polygon fill="none" stroke="black" points="239.5,-209 239.5,-227 313.5,-227 313.5,-209 239.5,-209"/>
<text text-anchor="start" x="277.5" y="-215.2" font-family="Helvetica,sans-Serif" font-size="11.00">3 rows</text>
<polygon fill="#ffffff" stroke="transparent" points="313.5,-209 313.5,-227 374.5,-227 374.5,-209 313.5,-209"/>
<polygon fill="none" stroke="black" points="313.5,-209 313.5,-227 374.5,-227 374.5,-209 313.5,-209"/>
<text text-anchor="start" x="355.5" y="-215.2" font-family="Helvetica,sans-Serif" font-size="11.00">0 &gt;</text>
<polygon fill="none" stroke="black" stroke-width="2" points="182,-208 182,-294 375,-294 375,-208 182,-208"/>
</a>
</g>
</g>
<!-- specimens -->
<g id="node2" class="node">
<title>specimens</title>
<g id="a_node2"><a xlink:href="../../tables/specimens.html" xlink:title="specimens" target="_top">
<polygon fill="#ffffff" stroke="transparent" points="8,-37 8,-293 132,-293 132,-37 8,-37"/>
<polygon fill="#f5f5f5" stroke="transparent" points="8,-271 8,-293 132,-293 132,-271 8,-271"/>
<polygon fill="none" stroke="black" points="8,-271 8,-293 132,-293 132,-271 8,-271"/>
<text text-anchor="start" x="13" y="-280.2" font-family="Helvetica,sans-Serif" font-weight="bold" font-size="11.00">specimens</text>
<text text-anchor="start" x="97" y="-279.2" font-family="Helvetica,sans-Serif" font-size="11.00">[table]</text>
<polygon fill="none" stroke="black" points="8,-249 8,-271 132,-271 132,-249 8,-249"/>
<image xlink:href="../../images/primaryKeys.png" width="11px" height="12px" preserveAspectRatio="xMinYMin meet" x="13" y="-266"/>
<text text-anchor="start" x="28" y="-257.2" font-family="Helvetica,sans-Serif" font-size="11.00">specimenid</text>
<polygon fill="none" stroke="black" points="8,-227 8,-249 132,-249 132,-227 8,-227"/>
<image xlink:href="../../images/foreignKeys.png" width="11px" height="12px" preserveAspectRatio="xMinYMin meet" x="13" y="-244"/>
<text text-anchor="start" x="28" y="-235.2" font-family="Helvetica,sans-Serif" font-size="11.00">dataid</text>
<polygon fill="none" stroke="black" points="8,-205 8,-227 132,-227 132,-205 8,-205"/>
<image xlink:href="../../images/foreignKeys.png" width="11px" height="12px" preserveAspectRatio="xMinYMin meet" x="13" y="-222"/>
<text text-anchor="start" x="28" y="-213.2" font-family="Helvetica,sans-Serif" font-size="11.00">elementtypeid</text>
<polygon fill="none" stroke="black" points="8,-183 8,-205 132,-205 132,-183 8,-183"/>
<image xlink:href="../../images/foreignKeys.png" width="11px" height="12px" preserveAspectRatio="xMinYMin meet" x="13" y="-200"/>
<text text-anchor="start" x="28" y="-191.2" font-family="Helvetica,sans-Serif" font-size="11.00">symmetryid</text>
<polygon fill="none" stroke="black" points="8,-161 8,-183 132,-183 132,-161 8,-161"/>
<image xlink:href="../../images/foreignKeys.png" width="11px" height="12px" preserveAspectRatio="xMinYMin meet" x="13" y="-178"/>
<text text-anchor="start" x="28" y="-169.2" font-family="Helvetica,sans-Serif" font-size="11.00">portionid</text>
<polygon fill="none" stroke="black" points="8,-139 8,-161 132,-161 132,-139 8,-139"/>
<image xlink:href="../../images/foreignKeys.png" width="11px" height="12px" preserveAspectRatio="xMinYMin meet" x="13" y="-156"/>
<text text-anchor="start" x="28" y="-147.2" font-family="Helvetica,sans-Serif" font-size="11.00">maturityid</text>
<polygon fill="none" stroke="black" points="8,-117 8,-139 132,-139 132,-117 8,-117"/>
<image xlink:href="../../images/foreignKeys.png" width="11px" height="12px" preserveAspectRatio="xMinYMin meet" x="13" y="-134"/>
<text text-anchor="start" x="28" y="-125.2" font-family="Helvetica,sans-Serif" font-size="11.00">sexid</text>
<polygon fill="none" stroke="black" points="8,-95 8,-117 132,-117 132,-95 8,-95"/>
<image xlink:href="../../images/foreignKeys.png" width="11px" height="12px" preserveAspectRatio="xMinYMin meet" x="13" y="-112"/>
<text text-anchor="start" x="28" y="-103.2" font-family="Helvetica,sans-Serif" font-size="11.00">domesticstatusid</text>
<polygon fill="none" stroke="black" points="8,-73 8,-95 132,-95 132,-73 8,-73"/>
<image xlink:href="../../images/foreignKeys.png" width="11px" height="12px" preserveAspectRatio="xMinYMin meet" x="13" y="-90"/>
<text text-anchor="start" x="28" y="-81.2" font-family="Helvetica,sans-Serif" font-size="11.00">repositoryid</text>
<polygon fill="none" stroke="black" points="8,-55 8,-73 132,-73 132,-55 8,-55"/>
<text text-anchor="start" x="11" y="-61.2" font-family="Helvetica,sans-Serif" font-size="11.00">...</text>
<polygon fill="#ffffff" stroke="transparent" points="8,-37 8,-55 40,-55 40,-37 8,-37"/>
<polygon fill="none" stroke="black" points="8,-37 8,-55 40,-55 40,-37 8,-37"/>
<text text-anchor="start" x="11" y="-43.2" font-family="Helvetica,sans-Serif" font-size="11.00">&lt; 8</text>
<polygon fill="#ffffff" stroke="transparent" points="40,-37 40,-55 105,-55 105,-37 40,-37"/>
<polygon fill="none" stroke="black" points="40,-37 40,-55 105,-55 105,-37 40,-37"/>
<text text-anchor="start" x="48" y="-43.2" font-family="Helvetica,sans-Serif" font-size="11.00">3,453 rows</text>
<polygon fill="#ffffff" stroke="transparent" points="105,-37 105,-55 132,-55 132,-37 105,-37"/>
<polygon fill="none" stroke="black" points="105,-37 105,-55 132,-55 132,-37 105,-37"/>
<text text-anchor="start" x="113" y="-43.2" font-family="Helvetica,sans-Serif" font-size="11.00">4 &gt;</text>
</a>
</g>
</g>
<!-- specimengenbank&#45;&gt;specimens -->
<g id="edge1" class="edge">
<title>specimengenbank:w&#45;&gt;specimens:e</title>
<path fill="none" stroke="black" d="M167.84,-260C156.41,-260 149.16,-260 133,-260"/>
<polygon fill="black" stroke="black" points="174.5,-260 182.5,-263.6 178.5,-260 182.5,-260 182.5,-260 182.5,-260 178.5,-260 182.5,-256.4 174.5,-260 174.5,-260"/>
<ellipse fill="none" stroke="black" cx="171.3" cy="-260" rx="3.2" ry="3.2"/>
</g>
</g>
</svg>
