<?xml version="1.0" encoding="UTF-8" standalone="no"?>
<!DOCTYPE svg PUBLIC "-//W3C//DTD SVG 1.1//EN"
 "http://www.w3.org/Graphics/SVG/1.1/DTD/svg11.dtd">
<!-- Generated by graphviz version 2.43.0 (0)
 -->
<!-- Title: oneDegreeRelationshipsDiagramImplied Pages: 1 -->
<svg width="967pt" height="676pt"
 viewBox="0.00 0.00 967.00 676.00" xmlns="http://www.w3.org/2000/svg" xmlns:xlink="http://www.w3.org/1999/xlink">
<g id="graph0" class="graph" transform="scale(1 1) rotate(0) translate(4 672)">
<title>oneDegreeRelationshipsDiagramImplied</title>
<polygon fill="#ffffff" stroke="transparent" points="-4,4 -4,-672 963,-672 963,4 -4,4"/>
<text text-anchor="middle" x="71.5" y="-7.2" font-family="Helvetica,sans-Serif" font-size="11.00">Generated by SchemaSpy</text>
<!-- geochronology -->
<g id="node1" class="node">
<title>geochronology</title>
<g id="a_node1"><a xlink:href="../../tables/geochronology.html" xlink:title="geochronology" target="_top">
<polygon fill="#ffffff" stroke="transparent" points="365,-496 365,-664 489,-664 489,-496 365,-496"/>
<polygon fill="#f5f5f5" stroke="transparent" points="365,-642 365,-664 489,-664 489,-642 365,-642"/>
<polygon fill="none" stroke="black" points="365,-642 365,-664 489,-664 489,-642 365,-642"/>
<text text-anchor="start" x="370" y="-651.2" font-family="Helvetica,sans-Serif" font-weight="bold" font-size="11.00">geochronology</text>
<text text-anchor="start" x="454" y="-650.2" font-family="Helvetica,sans-Serif" font-size="11.00">[table]</text>
<polygon fill="none" stroke="black" points="365,-620 365,-642 489,-642 489,-620 365,-620"/>
<image xlink:href="../../images/primaryKeys.png" width="11px" height="12px" preserveAspectRatio="xMinYMin meet" x="370" y="-637"/>
<text text-anchor="start" x="387" y="-628.2" font-family="Helvetica,sans-Serif" font-size="11.00">geochronid</text>
<polygon fill="#ffffff" stroke="transparent" points="365,-598 365,-620 489,-620 489,-598 365,-598"/>
<polygon fill="none" stroke="black" points="365,-598 365,-620 489,-620 489,-598 365,-598"/>
<image xlink:href="../../images/foreignKeys.png" width="11px" height="12px" preserveAspectRatio="xMinYMin meet" x="370" y="-615"/>
<text text-anchor="start" x="387" y="-606.2" font-family="Helvetica,sans-Serif" font-size="11.00">sampleid</text>
<polygon fill="none" stroke="black" points="365,-576 365,-598 489,-598 489,-576 365,-576"/>
<image xlink:href="../../images/foreignKeys.png" width="11px" height="12px" preserveAspectRatio="xMinYMin meet" x="370" y="-593"/>
<text text-anchor="start" x="387" y="-584.2" font-family="Helvetica,sans-Serif" font-size="11.00">geochrontypeid</text>
<polygon fill="none" stroke="black" points="365,-554 365,-576 489,-576 489,-554 365,-554"/>
<image xlink:href="../../images/foreignKeys.png" width="11px" height="12px" preserveAspectRatio="xMinYMin meet" x="370" y="-571"/>
<text text-anchor="start" x="387" y="-562.2" font-family="Helvetica,sans-Serif" font-size="11.00">agetypeid</text>
<polygon fill="#ffffff" stroke="transparent" points="365,-532 365,-554 489,-554 489,-532 365,-532"/>
<polygon fill="none" stroke="black" points="365,-532 365,-554 489,-554 489,-532 365,-532"/>
<text text-anchor="start" x="387" y="-540.2" font-family="Helvetica,sans-Serif" font-size="11.00">age</text>
<polygon fill="none" stroke="black" points="365,-514 365,-532 489,-532 489,-514 365,-514"/>
<text text-anchor="start" x="368" y="-520.2" font-family="Helvetica,sans-Serif" font-size="11.00">...</text>
<polygon fill="#ffffff" stroke="transparent" points="365,-496 365,-514 394,-514 394,-496 365,-496"/>
<polygon fill="none" stroke="black" points="365,-496 365,-514 394,-514 394,-496 365,-496"/>
<text text-anchor="start" x="368" y="-502.2" font-family="Helvetica,sans-Serif" font-size="11.00">&lt; 3</text>
<polygon fill="#ffffff" stroke="transparent" points="394,-496 394,-514 463,-514 463,-496 394,-496"/>
<polygon fill="none" stroke="black" points="394,-496 394,-514 463,-514 463,-496 394,-496"/>
<text text-anchor="start" x="400" y="-502.2" font-family="Helvetica,sans-Serif" font-size="11.00">39,608 rows</text>
<polygon fill="#ffffff" stroke="transparent" points="463,-496 463,-514 489,-514 489,-496 463,-496"/>
<polygon fill="none" stroke="black" points="463,-496 463,-514 489,-514 489,-496 463,-496"/>
<text text-anchor="start" x="470" y="-502.2" font-family="Helvetica,sans-Serif" font-size="11.00">3 &gt;</text>
</a>
</g>
</g>
<!-- samples -->
<g id="node2" class="node">
<title>samples</title>
<g id="a_node2"><a xlink:href="../../tables/samples.html" xlink:title="samples" target="_top">
<polygon fill="#ffffff" stroke="transparent" points="177,-496 177,-642 316,-642 316,-496 177,-496"/>
<polygon fill="#f5f5f5" stroke="transparent" points="177.5,-620 177.5,-642 316.5,-642 316.5,-620 177.5,-620"/>
<polygon fill="none" stroke="black" points="177.5,-620 177.5,-642 316.5,-642 316.5,-620 177.5,-620"/>
<text text-anchor="start" x="182.5" y="-629.2" font-family="Helvetica,sans-Serif" font-weight="bold" font-size="11.00">samples</text>
<text text-anchor="start" x="281.5" y="-628.2" font-family="Helvetica,sans-Serif" font-size="11.00">[table]</text>
<polygon fill="none" stroke="black" points="177.5,-598 177.5,-620 316.5,-620 316.5,-598 177.5,-598"/>
<image xlink:href="../../images/primaryKeys.png" width="11px" height="12px" preserveAspectRatio="xMinYMin meet" x="182.5" y="-615"/>
<text text-anchor="start" x="197.5" y="-606.2" font-family="Helvetica,sans-Serif" font-size="11.00">sampleid</text>
<polygon fill="#ffffff" stroke="transparent" points="177.5,-576 177.5,-598 316.5,-598 316.5,-576 177.5,-576"/>
<polygon fill="none" stroke="black" points="177.5,-576 177.5,-598 316.5,-598 316.5,-576 177.5,-576"/>
<image xlink:href="../../images/foreignKeys.png" width="11px" height="12px" preserveAspectRatio="xMinYMin meet" x="182.5" y="-593"/>
<text text-anchor="start" x="197.5" y="-584.2" font-family="Helvetica,sans-Serif" font-size="11.00">analysisunitid</text>
<polygon fill="#ffffff" stroke="transparent" points="177.5,-554 177.5,-576 316.5,-576 316.5,-554 177.5,-554"/>
<polygon fill="none" stroke="black" points="177.5,-554 177.5,-576 316.5,-576 316.5,-554 177.5,-554"/>
<image xlink:href="../../images/foreignKeys.png" width="11px" height="12px" preserveAspectRatio="xMinYMin meet" x="182.5" y="-571"/>
<text text-anchor="start" x="197.5" y="-562.2" font-family="Helvetica,sans-Serif" font-size="11.00">datasetid</text>
<polygon fill="#ffffff" stroke="transparent" points="177.5,-532 177.5,-554 316.5,-554 316.5,-532 177.5,-532"/>
<polygon fill="none" stroke="black" points="177.5,-532 177.5,-554 316.5,-554 316.5,-532 177.5,-532"/>
<image xlink:href="../../images/foreignKeys.png" width="11px" height="12px" preserveAspectRatio="xMinYMin meet" x="182.5" y="-549"/>
<text text-anchor="start" x="197.5" y="-540.2" font-family="Helvetica,sans-Serif" font-size="11.00">taxonid</text>
<polygon fill="none" stroke="black" points="177.5,-514 177.5,-532 316.5,-532 316.5,-514 177.5,-514"/>
<text text-anchor="start" x="180.5" y="-520.2" font-family="Helvetica,sans-Serif" font-size="11.00">...</text>
<polygon fill="#ffffff" stroke="transparent" points="177.5,-496 177.5,-514 210.5,-514 210.5,-496 177.5,-496"/>
<polygon fill="none" stroke="black" points="177.5,-496 177.5,-514 210.5,-514 210.5,-496 177.5,-496"/>
<text text-anchor="start" x="180.5" y="-502.2" font-family="Helvetica,sans-Serif" font-size="11.00">&lt; 3</text>
<polygon fill="#ffffff" stroke="transparent" points="210.5,-496 210.5,-514 288.5,-514 288.5,-496 210.5,-496"/>
<polygon fill="none" stroke="black" points="210.5,-496 210.5,-514 288.5,-514 288.5,-496 210.5,-496"/>
<text text-anchor="start" x="219.5" y="-502.2" font-family="Helvetica,sans-Serif" font-size="11.00">506,105 rows</text>
<polygon fill="#ffffff" stroke="transparent" points="288.5,-496 288.5,-514 316.5,-514 316.5,-496 288.5,-496"/>
<polygon fill="none" stroke="black" points="288.5,-496 288.5,-514 316.5,-514 316.5,-496 288.5,-496"/>
<text text-anchor="start" x="297.5" y="-502.2" font-family="Helvetica,sans-Serif" font-size="11.00">7 &gt;</text>
</a>
</g>
</g>
<!-- geochronology&#45;&gt;samples -->
<g id="edge1" class="edge">
<title>geochronology:w&#45;&gt;samples:e</title>
<path fill="none" stroke="black" d="M349.55,-609C339.2,-609 332.35,-609 317.5,-609"/>
<polygon fill="black" stroke="black" points="356,-609 364,-612.6 360,-609 364,-609 364,-609 364,-609 360,-609 364,-605.4 356,-609 356,-609"/>
<ellipse fill="none" stroke="black" cx="352.8" cy="-609" rx="3.2" ry="3.2"/>
</g>
<!-- taxa -->
<g id="node3" class="node">
<title>taxa</title>
<g id="a_node3"><a xlink:href="../../tables/taxa.html" xlink:title="taxa" target="_top">
<polygon fill="#ffffff" stroke="transparent" points="8,-350 8,-540 128,-540 128,-350 8,-350"/>
<polygon fill="#f5f5f5" stroke="transparent" points="8,-518 8,-540 128,-540 128,-518 8,-518"/>
<polygon fill="none" stroke="black" points="8,-518 8,-540 128,-540 128,-518 8,-518"/>
<text text-anchor="start" x="13" y="-527.2" font-family="Helvetica,sans-Serif" font-weight="bold" font-size="11.00">taxa</text>
<text text-anchor="start" x="93" y="-526.2" font-family="Helvetica,sans-Serif" font-size="11.00">[table]</text>
<polygon fill="none" stroke="black" points="8,-496 8,-518 128,-518 128,-496 8,-496"/>
<image xlink:href="../../images/primaryKeys.png" width="11px" height="12px" preserveAspectRatio="xMinYMin meet" x="13" y="-513"/>
<text text-anchor="start" x="28" y="-504.2" font-family="Helvetica,sans-Serif" font-size="11.00">taxonid</text>
<polygon fill="#ffffff" stroke="transparent" points="8,-474 8,-496 128,-496 128,-474 8,-474"/>
<polygon fill="none" stroke="black" points="8,-474 8,-496 128,-496 128,-474 8,-474"/>
<text text-anchor="start" x="28" y="-482.2" font-family="Helvetica,sans-Serif" font-size="11.00">taxonname</text>
<polygon fill="none" stroke="black" points="8,-452 8,-474 128,-474 128,-452 8,-452"/>
<image xlink:href="../../images/foreignKeys.png" width="11px" height="12px" preserveAspectRatio="xMinYMin meet" x="13" y="-469"/>
<text text-anchor="start" x="28" y="-460.2" font-family="Helvetica,sans-Serif" font-size="11.00">highertaxonid</text>
<polygon fill="#ffffff" stroke="transparent" points="8,-430 8,-452 128,-452 128,-430 8,-430"/>
<polygon fill="none" stroke="black" points="8,-430 8,-452 128,-452 128,-430 8,-430"/>
<image xlink:href="../../images/foreignKeys.png" width="11px" height="12px" preserveAspectRatio="xMinYMin meet" x="13" y="-447"/>
<text text-anchor="start" x="28" y="-438.2" font-family="Helvetica,sans-Serif" font-size="11.00">taxagroupid</text>
<polygon fill="none" stroke="black" points="8,-408 8,-430 128,-430 128,-408 8,-408"/>
<image xlink:href="../../images/foreignKeys.png" width="11px" height="12px" preserveAspectRatio="xMinYMin meet" x="13" y="-425"/>
<text text-anchor="start" x="28" y="-416.2" font-family="Helvetica,sans-Serif" font-size="11.00">publicationid</text>
<polygon fill="none" stroke="black" points="8,-386 8,-408 128,-408 128,-386 8,-386"/>
<image xlink:href="../../images/foreignKeys.png" width="11px" height="12px" preserveAspectRatio="xMinYMin meet" x="13" y="-403"/>
<text text-anchor="start" x="28" y="-394.2" font-family="Helvetica,sans-Serif" font-size="11.00">validatorid</text>
<polygon fill="none" stroke="black" points="8,-368 8,-386 128,-386 128,-368 8,-368"/>
<text text-anchor="start" x="11" y="-374.2" font-family="Helvetica,sans-Serif" font-size="11.00">...</text>
<polygon fill="#ffffff" stroke="transparent" points="8,-350 8,-368 32,-368 32,-350 8,-350"/>
<polygon fill="none" stroke="black" points="8,-350 8,-368 32,-368 32,-350 8,-350"/>
<text text-anchor="start" x="11" y="-356.2" font-family="Helvetica,sans-Serif" font-size="11.00">&lt; 4</text>
<polygon fill="#ffffff" stroke="transparent" points="32,-350 32,-368 99,-368 99,-350 32,-350"/>
<polygon fill="none" stroke="black" points="32,-350 32,-368 99,-368 99,-350 32,-350"/>
<text text-anchor="start" x="36" y="-356.2" font-family="Helvetica,sans-Serif" font-size="11.00">46,322 rows</text>
<polygon fill="#ffffff" stroke="transparent" points="99,-350 99,-368 128,-368 128,-350 99,-350"/>
<polygon fill="none" stroke="black" points="99,-350 99,-368 128,-368 128,-350 99,-350"/>
<text text-anchor="start" x="103" y="-356.2" font-family="Helvetica,sans-Serif" font-size="11.00">17 &gt;</text>
</a>
</g>
</g>
<!-- samples&#45;&gt;taxa -->
<g id="edge2" class="edge">
<title>samples:w&#45;&gt;taxa:e</title>
<path fill="none" stroke="black" d="M162.67,-538.29C150.85,-528.54 149.49,-507 129,-507"/>
<polygon fill="black" stroke="black" points="168.93,-540.42 175.34,-546.41 172.71,-541.71 176.5,-543 176.5,-543 176.5,-543 172.71,-541.71 177.66,-539.59 168.93,-540.42 168.93,-540.42"/>
<ellipse fill="none" stroke="black" cx="165.9" cy="-539.39" rx="3.2" ry="3.2"/>
</g>
<!-- specimendates -->
<g id="node4" class="node">
<title>specimendates</title>
<g id="a_node4"><a xlink:href="../../tables/specimendates.html" xlink:title="specimendates" target="_top">
<polygon fill="#ffffff" stroke="transparent" points="538,-240 538,-504 752,-504 752,-240 538,-240"/>
<polygon fill="#f5f5f5" stroke="transparent" points="540,-480 540,-502 750,-502 750,-480 540,-480"/>
<polygon fill="none" stroke="black" points="540,-480 540,-502 750,-502 750,-480 540,-480"/>
<text text-anchor="start" x="545" y="-489.2" font-family="Helvetica,sans-Serif" font-weight="bold" font-size="11.00">specimendates</text>
<text text-anchor="start" x="715" y="-488.2" font-family="Helvetica,sans-Serif" font-size="11.00">[table]</text>
<polygon fill="none" stroke="black" points="540,-458 540,-480 660,-480 660,-458 540,-458"/>
<image xlink:href="../../images/primaryKeys.png" width="11px" height="12px" preserveAspectRatio="xMinYMin meet" x="545" y="-475"/>
<text text-anchor="start" x="560" y="-466.2" font-family="Helvetica,sans-Serif" font-size="11.00">specimendateid</text>
<polygon fill="none" stroke="black" points="660,-458 660,-480 750,-480 750,-458 660,-458"/>
<text text-anchor="start" x="663" y="-466.2" font-family="Helvetica,sans-Serif" font-size="11.00">serial[10]</text>
<polygon fill="none" stroke="black" points="540,-436 540,-458 660,-458 660,-436 540,-436"/>
<image xlink:href="../../images/foreignKeys.png" width="11px" height="12px" preserveAspectRatio="xMinYMin meet" x="545" y="-453"/>
<text text-anchor="start" x="560" y="-444.2" font-family="Helvetica,sans-Serif" font-size="11.00">geochronid</text>
<polygon fill="none" stroke="black" points="660,-436 660,-458 750,-458 750,-436 660,-436"/>
<text text-anchor="start" x="663" y="-444.2" font-family="Helvetica,sans-Serif" font-size="11.00">int4[10]</text>
<polygon fill="#ffffff" stroke="transparent" points="540,-414 540,-436 660,-436 660,-414 540,-414"/>
<polygon fill="none" stroke="black" points="540,-414 540,-436 660,-436 660,-414 540,-414"/>
<image xlink:href="../../images/foreignKeys.png" width="11px" height="12px" preserveAspectRatio="xMinYMin meet" x="545" y="-431"/>
<text text-anchor="start" x="560" y="-422.2" font-family="Helvetica,sans-Serif" font-size="11.00">taxonid</text>
<polygon fill="none" stroke="black" points="660,-414 660,-436 750,-436 750,-414 660,-414"/>
<text text-anchor="start" x="663" y="-422.2" font-family="Helvetica,sans-Serif" font-size="11.00">int4[10]</text>
<polygon fill="none" stroke="black" points="540,-392 540,-414 660,-414 660,-392 540,-392"/>
<image xlink:href="../../images/foreignKeys.png" width="11px" height="12px" preserveAspectRatio="xMinYMin meet" x="545" y="-409"/>
<text text-anchor="start" x="560" y="-400.2" font-family="Helvetica,sans-Serif" font-size="11.00">fractionid</text>
<polygon fill="none" stroke="black" points="660,-392 660,-414 750,-414 750,-392 660,-392"/>
<text text-anchor="start" x="663" y="-400.2" font-family="Helvetica,sans-Serif" font-size="11.00">int4[10]</text>
<polygon fill="#ffffff" stroke="transparent" points="540,-370 540,-392 660,-392 660,-370 540,-370"/>
<polygon fill="none" stroke="black" points="540,-370 540,-392 660,-392 660,-370 540,-370"/>
<image xlink:href="../../images/foreignKeys.png" width="11px" height="12px" preserveAspectRatio="xMinYMin meet" x="545" y="-387"/>
<text text-anchor="start" x="560" y="-378.2" font-family="Helvetica,sans-Serif" font-size="11.00">sampleid</text>
<polygon fill="none" stroke="black" points="660,-370 660,-392 750,-392 750,-370 660,-370"/>
<text text-anchor="start" x="663" y="-378.2" font-family="Helvetica,sans-Serif" font-size="11.00">int4[10]</text>
<polygon fill="none" stroke="black" points="540,-348 540,-370 660,-370 660,-348 540,-348"/>
<text text-anchor="start" x="560" y="-356.2" font-family="Helvetica,sans-Serif" font-size="11.00">notes</text>
<polygon fill="none" stroke="black" points="660,-348 660,-370 750,-370 750,-348 660,-348"/>
<text text-anchor="start" x="663" y="-356.2" font-family="Helvetica,sans-Serif" font-size="11.00">text[2147483647]</text>
<polygon fill="none" stroke="black" points="540,-326 540,-348 660,-348 660,-326 540,-326"/>
<image xlink:href="../../images/foreignKeys.png" width="11px" height="12px" preserveAspectRatio="xMinYMin meet" x="545" y="-343"/>
<text text-anchor="start" x="560" y="-334.2" font-family="Helvetica,sans-Serif" font-size="11.00">elementtypeid</text>
<polygon fill="none" stroke="black" points="660,-326 660,-348 750,-348 750,-326 660,-326"/>
<text text-anchor="start" x="663" y="-334.2" font-family="Helvetica,sans-Serif" font-size="11.00">int4[10]</text>
<polygon fill="none" stroke="black" points="540,-304 540,-326 660,-326 660,-304 540,-304"/>
<text text-anchor="start" x="560" y="-312.2" font-family="Helvetica,sans-Serif" font-size="11.00">recdatecreated</text>
<polygon fill="none" stroke="black" points="660,-304 660,-326 750,-326 750,-304 660,-304"/>
<text text-anchor="start" x="663" y="-312.2" font-family="Helvetica,sans-Serif" font-size="11.00">timestamp[22]</text>
<polygon fill="none" stroke="black" points="540,-282 540,-304 660,-304 660,-282 540,-282"/>
<text text-anchor="start" x="560" y="-290.2" font-family="Helvetica,sans-Serif" font-size="11.00">recdatemodified</text>
<polygon fill="none" stroke="black" points="660,-282 660,-304 750,-304 750,-282 660,-282"/>
<text text-anchor="start" x="663" y="-290.2" font-family="Helvetica,sans-Serif" font-size="11.00">timestamp[22]</text>
<polygon fill="none" stroke="black" points="540,-260 540,-282 660,-282 660,-260 540,-260"/>
<image xlink:href="../../images/foreignKeys.png" width="11px" height="12px" preserveAspectRatio="xMinYMin meet" x="545" y="-277"/>
<text text-anchor="start" x="560" y="-268.2" font-family="Helvetica,sans-Serif" font-size="11.00">specimenid</text>
<polygon fill="none" stroke="black" points="660,-260 660,-282 750,-282 750,-260 660,-260"/>
<text text-anchor="start" x="663" y="-268.2" font-family="Helvetica,sans-Serif" font-size="11.00">int4[10]</text>
<polygon fill="#ffffff" stroke="transparent" points="540,-242 540,-260 581,-260 581,-242 540,-242"/>
<polygon fill="none" stroke="black" points="540,-242 540,-260 581,-260 581,-242 540,-242"/>
<text text-anchor="start" x="543" y="-248.2" font-family="Helvetica,sans-Serif" font-size="11.00">&lt; 6</text>
<polygon fill="#ffffff" stroke="transparent" points="581,-242 581,-260 660,-260 660,-242 581,-242"/>
<polygon fill="none" stroke="black" points="581,-242 581,-260 660,-260 660,-242 581,-242"/>
<text text-anchor="start" x="603" y="-248.2" font-family="Helvetica,sans-Serif" font-size="11.00">2,662 rows</text>
<polygon fill="#ffffff" stroke="transparent" points="660,-242 660,-260 750,-260 750,-242 660,-242"/>
<polygon fill="none" stroke="black" points="660,-242 660,-260 750,-260 750,-242 660,-242"/>
<text text-anchor="start" x="731" y="-248.2" font-family="Helvetica,sans-Serif" font-size="11.00">1 &gt;</text>
<polygon fill="none" stroke="black" stroke-width="2" points="539,-241 539,-503 751,-503 751,-241 539,-241"/>
</a>
</g>
</g>
<!-- specimendates&#45;&gt;geochronology -->
<g id="edge5" class="edge">
<title>specimendates:w&#45;&gt;geochronology:e</title>
<path fill="none" stroke="black" d="M524.73,-449.33C469.44,-470.63 569.01,-631 490,-631"/>
<polygon fill="black" stroke="black" points="531.1,-448.29 539.58,-450.55 535.05,-447.64 539,-447 539,-447 539,-447 535.05,-447.64 538.42,-443.45 531.1,-448.29 531.1,-448.29"/>
<ellipse fill="none" stroke="black" cx="527.95" cy="-448.8" rx="3.2" ry="3.2"/>
</g>
<!-- specimendates&#45;&gt;samples -->
<g id="edge6" class="edge">
<title>specimendates:w&#45;&gt;samples:e</title>
<path fill="none" stroke="black" d="M524.85,-377.29C515.95,-371.79 511.66,-361.75 497,-358 436.72,-342.58 404.29,-317.57 357,-358 314.08,-394.69 373.96,-609 317.5,-609"/>
<polygon fill="black" stroke="black" points="531.26,-378.97 538.09,-384.48 535.13,-379.98 539,-381 539,-381 539,-381 535.13,-379.98 539.91,-377.52 531.26,-378.97 531.26,-378.97"/>
<ellipse fill="none" stroke="black" cx="528.17" cy="-378.16" rx="3.2" ry="3.2"/>
</g>
<!-- specimendates&#45;&gt;taxa -->
<g id="edge8" class="edge">
<title>specimendates:w&#45;&gt;taxa:e</title>
<path fill="none" stroke="black" d="M525.13,-429.29C515.44,-436.85 513.54,-452.37 497,-459 361.24,-513.43 309.46,-445.19 169,-486 149.72,-491.6 149.08,-507 129,-507"/>
<polygon fill="black" stroke="black" points="531.36,-427.37 540.06,-428.44 535.18,-426.18 539,-425 539,-425 539,-425 535.18,-426.18 537.94,-421.56 531.36,-427.37 531.36,-427.37"/>
<ellipse fill="none" stroke="black" cx="528.3" cy="-428.31" rx="3.2" ry="3.2"/>
</g>
<!-- elementtypes -->
<g id="node5" class="node">
<title>elementtypes</title>
<g id="a_node5"><a xlink:href="../../tables/elementtypes.html" xlink:title="elementtypes" target="_top">
<polygon fill="#ffffff" stroke="transparent" points="186.5,-198 186.5,-300 306.5,-300 306.5,-198 186.5,-198"/>
<polygon fill="#f5f5f5" stroke="transparent" points="186.5,-278 186.5,-300 306.5,-300 306.5,-278 186.5,-278"/>
<polygon fill="none" stroke="black" points="186.5,-278 186.5,-300 306.5,-300 306.5,-278 186.5,-278"/>
<text text-anchor="start" x="191.5" y="-287.2" font-family="Helvetica,sans-Serif" font-weight="bold" font-size="11.00">elementtypes</text>
<text text-anchor="start" x="271.5" y="-286.2" font-family="Helvetica,sans-Serif" font-size="11.00">[table]</text>
<polygon fill="none" stroke="black" points="186.5,-256 186.5,-278 306.5,-278 306.5,-256 186.5,-256"/>
<image xlink:href="../../images/primaryKeys.png" width="11px" height="12px" preserveAspectRatio="xMinYMin meet" x="191.5" y="-273"/>
<text text-anchor="start" x="206.5" y="-264.2" font-family="Helvetica,sans-Serif" font-size="11.00">elementtypeid</text>
<polygon fill="#ffffff" stroke="transparent" points="186.5,-234 186.5,-256 306.5,-256 306.5,-234 186.5,-234"/>
<polygon fill="none" stroke="black" points="186.5,-234 186.5,-256 306.5,-256 306.5,-234 186.5,-234"/>
<text text-anchor="start" x="206.5" y="-242.2" font-family="Helvetica,sans-Serif" font-size="11.00">elementtype</text>
<polygon fill="none" stroke="black" points="186.5,-216 186.5,-234 306.5,-234 306.5,-216 186.5,-216"/>
<text text-anchor="start" x="189.5" y="-222.2" font-family="Helvetica,sans-Serif" font-size="11.00">...</text>
<polygon fill="#ffffff" stroke="transparent" points="186.5,-198 186.5,-216 216.5,-216 216.5,-198 186.5,-198"/>
<polygon fill="none" stroke="black" points="186.5,-198 186.5,-216 216.5,-216 216.5,-198 186.5,-198"/>
<text text-anchor="start" x="189.5" y="-204.2" font-family="Helvetica,sans-Serif" font-size="11.00"> &#160;</text>
<polygon fill="#ffffff" stroke="transparent" points="216.5,-198 216.5,-216 275.5,-216 275.5,-198 216.5,-198"/>
<polygon fill="none" stroke="black" points="216.5,-198 216.5,-216 275.5,-216 275.5,-198 216.5,-198"/>
<text text-anchor="start" x="227.5" y="-204.2" font-family="Helvetica,sans-Serif" font-size="11.00">926 rows</text>
<polygon fill="#ffffff" stroke="transparent" points="275.5,-198 275.5,-216 306.5,-216 306.5,-198 275.5,-198"/>
<polygon fill="none" stroke="black" points="275.5,-198 275.5,-216 306.5,-216 306.5,-198 275.5,-198"/>
<text text-anchor="start" x="287.5" y="-204.2" font-family="Helvetica,sans-Serif" font-size="11.00">5 &gt;</text>
</a>
</g>
</g>
<!-- specimendates&#45;&gt;elementtypes -->
<g id="edge3" class="edge">
<title>specimendates:w&#45;&gt;elementtypes:e</title>
<path fill="none" stroke="black" d="M524.38,-336.49C477.23,-333.57 390.79,-318.71 357,-304 331.82,-293.04 334.97,-267 307.5,-267"/>
<polygon fill="black" stroke="black" points="531,-336.72 538.87,-340.6 535,-336.86 539,-337 539,-337 539,-337 535,-336.86 539.13,-333.4 531,-336.72 531,-336.72"/>
<ellipse fill="none" stroke="black" cx="527.81" cy="-336.61" rx="3.2" ry="3.2"/>
</g>
<!-- fractiondated -->
<g id="node6" class="node">
<title>fractiondated</title>
<g id="a_node6"><a xlink:href="../../tables/fractiondated.html" xlink:title="fractiondated" target="_top">
<polygon fill="#ffffff" stroke="transparent" points="367,-368 367,-448 487,-448 487,-368 367,-368"/>
<polygon fill="#f5f5f5" stroke="transparent" points="367,-426 367,-448 487,-448 487,-426 367,-426"/>
<polygon fill="none" stroke="black" points="367,-426 367,-448 487,-448 487,-426 367,-426"/>
<text text-anchor="start" x="372" y="-435.2" font-family="Helvetica,sans-Serif" font-weight="bold" font-size="11.00">fractiondated</text>
<text text-anchor="start" x="452" y="-434.2" font-family="Helvetica,sans-Serif" font-size="11.00">[table]</text>
<polygon fill="none" stroke="black" points="367,-404 367,-426 487,-426 487,-404 367,-404"/>
<image xlink:href="../../images/primaryKeys.png" width="11px" height="12px" preserveAspectRatio="xMinYMin meet" x="372" y="-421"/>
<text text-anchor="start" x="387" y="-412.2" font-family="Helvetica,sans-Serif" font-size="11.00">fractionid</text>
<polygon fill="none" stroke="black" points="367,-386 367,-404 487,-404 487,-386 367,-386"/>
<text text-anchor="start" x="370" y="-392.2" font-family="Helvetica,sans-Serif" font-size="11.00">...</text>
<polygon fill="#ffffff" stroke="transparent" points="367,-368 367,-386 400,-386 400,-368 367,-368"/>
<polygon fill="none" stroke="black" points="367,-368 367,-386 400,-386 400,-368 367,-368"/>
<text text-anchor="start" x="370" y="-374.2" font-family="Helvetica,sans-Serif" font-size="11.00"> &#160;</text>
<polygon fill="#ffffff" stroke="transparent" points="400,-368 400,-386 455,-386 455,-368 400,-368"/>
<polygon fill="none" stroke="black" points="400,-368 400,-386 455,-386 455,-368 400,-368"/>
<text text-anchor="start" x="413" y="-374.2" font-family="Helvetica,sans-Serif" font-size="11.00">29 rows</text>
<polygon fill="#ffffff" stroke="transparent" points="455,-368 455,-386 487,-386 487,-368 455,-368"/>
<polygon fill="none" stroke="black" points="455,-368 455,-386 487,-386 487,-368 455,-368"/>
<text text-anchor="start" x="468" y="-374.2" font-family="Helvetica,sans-Serif" font-size="11.00">1 &gt;</text>
</a>
</g>
</g>
<!-- specimendates&#45;&gt;fractiondated -->
<g id="edge4" class="edge">
<title>specimendates:w&#45;&gt;fractiondated:e</title>
<path fill="none" stroke="black" d="M524.48,-404.88C512.32,-408.25 505.46,-415 488,-415"/>
<polygon fill="black" stroke="black" points="531.07,-404.02 539.46,-406.57 535.03,-403.51 539,-403 539,-403 539,-403 535.03,-403.51 538.54,-399.43 531.07,-404.02 531.07,-404.02"/>
<ellipse fill="none" stroke="black" cx="527.89" cy="-404.43" rx="3.2" ry="3.2"/>
</g>
<!-- specimens -->
<g id="node7" class="node">
<title>specimens</title>
<g id="a_node7"><a xlink:href="../../tables/specimens.html" xlink:title="specimens" target="_top">
<polygon fill="#ffffff" stroke="transparent" points="365,-37 365,-293 489,-293 489,-37 365,-37"/>
<polygon fill="#f5f5f5" stroke="transparent" points="365,-271 365,-293 489,-293 489,-271 365,-271"/>
<polygon fill="none" stroke="black" points="365,-271 365,-293 489,-293 489,-271 365,-271"/>
<text text-anchor="start" x="370" y="-280.2" font-family="Helvetica,sans-Serif" font-weight="bold" font-size="11.00">specimens</text>
<text text-anchor="start" x="454" y="-279.2" font-family="Helvetica,sans-Serif" font-size="11.00">[table]</text>
<polygon fill="none" stroke="black" points="365,-249 365,-271 489,-271 489,-249 365,-249"/>
<image xlink:href="../../images/primaryKeys.png" width="11px" height="12px" preserveAspectRatio="xMinYMin meet" x="370" y="-266"/>
<text text-anchor="start" x="385" y="-257.2" font-family="Helvetica,sans-Serif" font-size="11.00">specimenid</text>
<polygon fill="none" stroke="black" points="365,-227 365,-249 489,-249 489,-227 365,-227"/>
<image xlink:href="../../images/foreignKeys.png" width="11px" height="12px" preserveAspectRatio="xMinYMin meet" x="370" y="-244"/>
<text text-anchor="start" x="385" y="-235.2" font-family="Helvetica,sans-Serif" font-size="11.00">dataid</text>
<polygon fill="none" stroke="black" points="365,-205 365,-227 489,-227 489,-205 365,-205"/>
<image xlink:href="../../images/foreignKeys.png" width="11px" height="12px" preserveAspectRatio="xMinYMin meet" x="370" y="-222"/>
<text text-anchor="start" x="385" y="-213.2" font-family="Helvetica,sans-Serif" font-size="11.00">elementtypeid</text>
<polygon fill="none" stroke="black" points="365,-183 365,-205 489,-205 489,-183 365,-183"/>
<image xlink:href="../../images/foreignKeys.png" width="11px" height="12px" preserveAspectRatio="xMinYMin meet" x="370" y="-200"/>
<text text-anchor="start" x="385" y="-191.2" font-family="Helvetica,sans-Serif" font-size="11.00">symmetryid</text>
<polygon fill="none" stroke="black" points="365,-161 365,-183 489,-183 489,-161 365,-161"/>
<image xlink:href="../../images/foreignKeys.png" width="11px" height="12px" preserveAspectRatio="xMinYMin meet" x="370" y="-178"/>
<text text-anchor="start" x="385" y="-169.2" font-family="Helvetica,sans-Serif" font-size="11.00">portionid</text>
<polygon fill="none" stroke="black" points="365,-139 365,-161 489,-161 489,-139 365,-139"/>
<image xlink:href="../../images/foreignKeys.png" width="11px" height="12px" preserveAspectRatio="xMinYMin meet" x="370" y="-156"/>
<text text-anchor="start" x="385" y="-147.2" font-family="Helvetica,sans-Serif" font-size="11.00">maturityid</text>
<polygon fill="none" stroke="black" points="365,-117 365,-139 489,-139 489,-117 365,-117"/>
<image xlink:href="../../images/foreignKeys.png" width="11px" height="12px" preserveAspectRatio="xMinYMin meet" x="370" y="-134"/>
<text text-anchor="start" x="385" y="-125.2" font-family="Helvetica,sans-Serif" font-size="11.00">sexid</text>
<polygon fill="none" stroke="black" points="365,-95 365,-117 489,-117 489,-95 365,-95"/>
<image xlink:href="../../images/foreignKeys.png" width="11px" height="12px" preserveAspectRatio="xMinYMin meet" x="370" y="-112"/>
<text text-anchor="start" x="385" y="-103.2" font-family="Helvetica,sans-Serif" font-size="11.00">domesticstatusid</text>
<polygon fill="none" stroke="black" points="365,-73 365,-95 489,-95 489,-73 365,-73"/>
<image xlink:href="../../images/foreignKeys.png" width="11px" height="12px" preserveAspectRatio="xMinYMin meet" x="370" y="-90"/>
<text text-anchor="start" x="385" y="-81.2" font-family="Helvetica,sans-Serif" font-size="11.00">repositoryid</text>
<polygon fill="none" stroke="black" points="365,-55 365,-73 489,-73 489,-55 365,-55"/>
<text text-anchor="start" x="368" y="-61.2" font-family="Helvetica,sans-Serif" font-size="11.00">...</text>
<polygon fill="#ffffff" stroke="transparent" points="365,-37 365,-55 397,-55 397,-37 365,-37"/>
<polygon fill="none" stroke="black" points="365,-37 365,-55 397,-55 397,-37 365,-37"/>
<text text-anchor="start" x="368" y="-43.2" font-family="Helvetica,sans-Serif" font-size="11.00">&lt; 8</text>
<polygon fill="#ffffff" stroke="transparent" points="397,-37 397,-55 462,-55 462,-37 397,-37"/>
<polygon fill="none" stroke="black" points="397,-37 397,-55 462,-55 462,-37 397,-37"/>
<text text-anchor="start" x="405" y="-43.2" font-family="Helvetica,sans-Serif" font-size="11.00">3,351 rows</text>
<polygon fill="#ffffff" stroke="transparent" points="462,-37 462,-55 489,-55 489,-37 462,-37"/>
<polygon fill="none" stroke="black" points="462,-37 462,-55 489,-55 489,-37 462,-37"/>
<text text-anchor="start" x="470" y="-43.2" font-family="Helvetica,sans-Serif" font-size="11.00">4 &gt;</text>
</a>
</g>
</g>
<!-- specimendates&#45;&gt;specimens -->
<g id="edge7" class="edge">
<title>specimendates:w&#45;&gt;specimens:e</title>
<path fill="none" stroke="black" d="M524.7,-269.18C513.24,-266.06 506.57,-260 490,-260"/>
<polygon fill="black" stroke="black" points="531.06,-269.99 538.55,-274.57 535.03,-270.5 539,-271 539,-271 539,-271 535.03,-270.5 539.45,-267.43 531.06,-269.99 531.06,-269.99"/>
<ellipse fill="none" stroke="black" cx="527.89" cy="-269.59" rx="3.2" ry="3.2"/>
</g>
<!-- specimens&#45;&gt;elementtypes -->
<g id="edge10" class="edge">
<title>specimens:w&#45;&gt;elementtypes:e</title>
<path fill="none" stroke="black" d="M350.09,-220C332.68,-232.02 335.51,-267 307.5,-267"/>
<polygon fill="black" stroke="black" points="356.31,-218.21 365,-219.46 360.16,-217.11 364,-216 364,-216 364,-216 360.16,-217.11 363,-212.54 356.31,-218.21 356.31,-218.21"/>
<ellipse fill="none" stroke="black" cx="353.24" cy="-219.1" rx="3.2" ry="3.2"/>
</g>
<!-- specimendatescal -->
<g id="node8" class="node">
<title>specimendatescal</title>
<g id="a_node8"><a xlink:href="../../tables/specimendatescal.html" xlink:title="specimendatescal" target="_top">
<polygon fill="#ffffff" stroke="transparent" points="801,-378 801,-524 951,-524 951,-378 801,-378"/>
<polygon fill="#f5f5f5" stroke="transparent" points="801,-502 801,-524 951,-524 951,-502 801,-502"/>
<polygon fill="none" stroke="black" points="801,-502 801,-524 951,-524 951,-502 801,-502"/>
<text text-anchor="start" x="806" y="-511.2" font-family="Helvetica,sans-Serif" font-weight="bold" font-size="11.00">specimendatescal</text>
<text text-anchor="start" x="916" y="-510.2" font-family="Helvetica,sans-Serif" font-size="11.00">[table]</text>
<polygon fill="none" stroke="black" points="801,-480 801,-502 951,-502 951,-480 801,-480"/>
<image xlink:href="../../images/primaryKeys.png" width="11px" height="12px" preserveAspectRatio="xMinYMin meet" x="806" y="-497"/>
<text text-anchor="start" x="821" y="-488.2" font-family="Helvetica,sans-Serif" font-size="11.00">specimendatecalid</text>
<polygon fill="none" stroke="black" points="801,-458 801,-480 951,-480 951,-458 801,-458"/>
<image xlink:href="../../images/foreignKeys.png" width="11px" height="12px" preserveAspectRatio="xMinYMin meet" x="806" y="-475"/>
<text text-anchor="start" x="821" y="-466.2" font-family="Helvetica,sans-Serif" font-size="11.00">specimendateid</text>
<polygon fill="none" stroke="black" points="801,-436 801,-458 951,-458 951,-436 801,-436"/>
<image xlink:href="../../images/foreignKeys.png" width="11px" height="12px" preserveAspectRatio="xMinYMin meet" x="806" y="-453"/>
<text text-anchor="start" x="821" y="-444.2" font-family="Helvetica,sans-Serif" font-size="11.00">calibrationcurveid</text>
<polygon fill="none" stroke="black" points="801,-414 801,-436 951,-436 951,-414 801,-414"/>
<image xlink:href="../../images/foreignKeys.png" width="11px" height="12px" preserveAspectRatio="xMinYMin meet" x="806" y="-431"/>
<text text-anchor="start" x="821" y="-422.2" font-family="Helvetica,sans-Serif" font-size="11.00">calibrationprogramid</text>
<polygon fill="none" stroke="black" points="801,-396 801,-414 951,-414 951,-396 801,-396"/>
<text text-anchor="start" x="804" y="-402.2" font-family="Helvetica,sans-Serif" font-size="11.00">...</text>
<polygon fill="#ffffff" stroke="transparent" points="801,-378 801,-396 850,-396 850,-378 801,-378"/>
<polygon fill="none" stroke="black" points="801,-378 801,-396 850,-396 850,-378 801,-378"/>
<text text-anchor="start" x="804" y="-384.2" font-family="Helvetica,sans-Serif" font-size="11.00">&lt; 3</text>
<polygon fill="#ffffff" stroke="transparent" points="850,-378 850,-396 924,-396 924,-378 850,-378"/>
<polygon fill="none" stroke="black" points="850,-378 850,-396 924,-396 924,-378 850,-378"/>
<text text-anchor="start" x="867" y="-384.2" font-family="Helvetica,sans-Serif" font-size="11.00">2,605 rows</text>
<polygon fill="#ffffff" stroke="transparent" points="924,-378 924,-396 951,-396 951,-378 924,-378"/>
<polygon fill="none" stroke="black" points="924,-378 924,-396 951,-396 951,-378 924,-378"/>
<text text-anchor="start" x="941" y="-384.2" font-family="Helvetica,sans-Serif" font-size="11.00"> &#160;</text>
</a>
</g>
</g>
<!-- specimendatescal&#45;&gt;specimendates -->
<g id="edge9" class="edge">
<title>specimendatescal:w&#45;&gt;specimendates:e</title>
<path fill="none" stroke="black" d="M785.49,-469C774.18,-469 766.99,-469 751,-469"/>
<polygon fill="black" stroke="black" points="792,-469 800,-472.6 796,-469 800,-469 800,-469 800,-469 796,-469 800,-465.4 792,-469 792,-469"/>
<ellipse fill="none" stroke="black" cx="788.8" cy="-469" rx="3.2" ry="3.2"/>
</g>
</g>
</svg>
