<?xml version="1.0" encoding="UTF-8" standalone="no"?>
<!DOCTYPE svg PUBLIC "-//W3C//DTD SVG 1.1//EN"
 "http://www.w3.org/Graphics/SVG/1.1/DTD/svg11.dtd">
<!-- Generated by graphviz version 2.43.0 (0)
 -->
<!-- Title: twoDegreesRelationshipsDiagram Pages: 1 -->
<svg width="681pt" height="734pt"
 viewBox="0.00 0.00 681.00 734.00" xmlns="http://www.w3.org/2000/svg" xmlns:xlink="http://www.w3.org/1999/xlink">
<g id="graph0" class="graph" transform="scale(1 1) rotate(0) translate(4 730)">
<title>twoDegreesRelationshipsDiagram</title>
<polygon fill="#ffffff" stroke="transparent" points="-4,4 -4,-730 677,-730 677,4 -4,4"/>
<text text-anchor="middle" x="71.5" y="-7.2" font-family="Helvetica,sans-Serif" font-size="11.00">Generated by SchemaSpy</text>
<!-- isospecimendata -->
<g id="node1" class="node">
<title>isospecimendata</title>
<g id="a_node1"><a xlink:href="../../tables/isospecimendata.html" xlink:title="isospecimendata" target="_top">
<polygon fill="#ffffff" stroke="transparent" points="521.5,-664 521.5,-722 654.5,-722 654.5,-664 521.5,-664"/>
<polygon fill="#f5f5f5" stroke="transparent" points="522,-700 522,-722 655,-722 655,-700 522,-700"/>
<polygon fill="none" stroke="black" points="522,-700 522,-722 655,-722 655,-700 522,-700"/>
<text text-anchor="start" x="527" y="-709.2" font-family="Helvetica,sans-Serif" font-weight="bold" font-size="11.00">isospecimendata</text>
<text text-anchor="start" x="620" y="-708.2" font-family="Helvetica,sans-Serif" font-size="11.00">[table]</text>
<polygon fill="none" stroke="black" points="522,-682 522,-700 655,-700 655,-682 522,-682"/>
<text text-anchor="start" x="525" y="-688.2" font-family="Helvetica,sans-Serif" font-size="11.00">...</text>
<polygon fill="#ffffff" stroke="transparent" points="522,-664 522,-682 563,-682 563,-664 522,-664"/>
<polygon fill="none" stroke="black" points="522,-664 522,-682 563,-682 563,-664 522,-664"/>
<text text-anchor="start" x="525" y="-670.2" font-family="Helvetica,sans-Serif" font-size="11.00">&lt; 2</text>
<polygon fill="#ffffff" stroke="transparent" points="563,-664 563,-682 632,-682 632,-664 563,-664"/>
<polygon fill="none" stroke="black" points="563,-664 563,-682 632,-682 632,-664 563,-664"/>
<text text-anchor="start" x="575" y="-670.2" font-family="Helvetica,sans-Serif" font-size="11.00">5,193 rows</text>
<polygon fill="#ffffff" stroke="transparent" points="632,-664 632,-682 655,-682 655,-664 632,-664"/>
<polygon fill="none" stroke="black" points="632,-664 632,-682 655,-682 655,-664 632,-664"/>
<text text-anchor="start" x="645" y="-670.2" font-family="Helvetica,sans-Serif" font-size="11.00"> &#160;</text>
</a>
</g>
</g>
<!-- data -->
<g id="node2" class="node">
<title>data</title>
<g id="a_node2"><a xlink:href="../../tables/data.html" xlink:title="data" target="_top">
<polygon fill="#ffffff" stroke="transparent" points="83,-664 83,-722 214,-722 214,-664 83,-664"/>
<polygon fill="#f5f5f5" stroke="transparent" points="83.5,-700 83.5,-722 214.5,-722 214.5,-700 83.5,-700"/>
<polygon fill="none" stroke="black" points="83.5,-700 83.5,-722 214.5,-722 214.5,-700 83.5,-700"/>
<text text-anchor="start" x="88.5" y="-709.2" font-family="Helvetica,sans-Serif" font-weight="bold" font-size="11.00">data</text>
<text text-anchor="start" x="179.5" y="-708.2" font-family="Helvetica,sans-Serif" font-size="11.00">[table]</text>
<polygon fill="none" stroke="black" points="83.5,-682 83.5,-700 214.5,-700 214.5,-682 83.5,-682"/>
<text text-anchor="start" x="86.5" y="-688.2" font-family="Helvetica,sans-Serif" font-size="11.00">...</text>
<polygon fill="#ffffff" stroke="transparent" points="83.5,-664 83.5,-682 105.5,-682 105.5,-664 83.5,-664"/>
<polygon fill="none" stroke="black" points="83.5,-664 83.5,-682 105.5,-682 105.5,-664 83.5,-664"/>
<text text-anchor="start" x="86.5" y="-670.2" font-family="Helvetica,sans-Serif" font-size="11.00">&lt; 2</text>
<polygon fill="#ffffff" stroke="transparent" points="105.5,-664 105.5,-682 192.5,-682 192.5,-664 105.5,-664"/>
<polygon fill="none" stroke="black" points="105.5,-664 105.5,-682 192.5,-682 192.5,-664 105.5,-664"/>
<text text-anchor="start" x="108.5" y="-670.2" font-family="Helvetica,sans-Serif" font-size="11.00">10,039,985 rows</text>
<polygon fill="#ffffff" stroke="transparent" points="192.5,-664 192.5,-682 214.5,-682 214.5,-664 192.5,-664"/>
<polygon fill="none" stroke="black" points="192.5,-664 192.5,-682 214.5,-682 214.5,-664 192.5,-664"/>
<text text-anchor="start" x="195.5" y="-670.2" font-family="Helvetica,sans-Serif" font-size="11.00">7 &gt;</text>
</a>
</g>
</g>
<!-- isospecimendata&#45;&gt;data -->
<g id="edge1" class="edge">
<title>isospecimendata:w&#45;&gt;data:e</title>
<path fill="none" stroke="black" d="M506.29,-691C382.56,-691 346.24,-691 215.5,-691"/>
<polygon fill="black" stroke="black" points="513,-691 521,-694.6 517,-691 521,-691 521,-691 521,-691 517,-691 521,-687.4 513,-691 513,-691"/>
<ellipse fill="none" stroke="black" cx="509.8" cy="-691" rx="3.2" ry="3.2"/>
</g>
<!-- specimens -->
<g id="node3" class="node">
<title>specimens</title>
<g id="a_node3"><a xlink:href="../../tables/specimens.html" xlink:title="specimens" target="_top">
<polygon fill="#ffffff" stroke="transparent" points="338,-314 338,-570 462,-570 462,-314 338,-314"/>
<polygon fill="#f5f5f5" stroke="transparent" points="338,-548 338,-570 462,-570 462,-548 338,-548"/>
<polygon fill="none" stroke="black" points="338,-548 338,-570 462,-570 462,-548 338,-548"/>
<text text-anchor="start" x="343" y="-557.2" font-family="Helvetica,sans-Serif" font-weight="bold" font-size="11.00">specimens</text>
<text text-anchor="start" x="427" y="-556.2" font-family="Helvetica,sans-Serif" font-size="11.00">[table]</text>
<polygon fill="none" stroke="black" points="338,-526 338,-548 462,-548 462,-526 338,-526"/>
<image xlink:href="../../images/primaryKeys.png" width="11px" height="12px" preserveAspectRatio="xMinYMin meet" x="343" y="-543"/>
<text text-anchor="start" x="358" y="-534.2" font-family="Helvetica,sans-Serif" font-size="11.00">specimenid</text>
<polygon fill="none" stroke="black" points="338,-504 338,-526 462,-526 462,-504 338,-504"/>
<image xlink:href="../../images/foreignKeys.png" width="11px" height="12px" preserveAspectRatio="xMinYMin meet" x="343" y="-521"/>
<text text-anchor="start" x="358" y="-512.2" font-family="Helvetica,sans-Serif" font-size="11.00">dataid</text>
<polygon fill="none" stroke="black" points="338,-482 338,-504 462,-504 462,-482 338,-482"/>
<image xlink:href="../../images/foreignKeys.png" width="11px" height="12px" preserveAspectRatio="xMinYMin meet" x="343" y="-499"/>
<text text-anchor="start" x="358" y="-490.2" font-family="Helvetica,sans-Serif" font-size="11.00">elementtypeid</text>
<polygon fill="none" stroke="black" points="338,-460 338,-482 462,-482 462,-460 338,-460"/>
<image xlink:href="../../images/foreignKeys.png" width="11px" height="12px" preserveAspectRatio="xMinYMin meet" x="343" y="-477"/>
<text text-anchor="start" x="358" y="-468.2" font-family="Helvetica,sans-Serif" font-size="11.00">symmetryid</text>
<polygon fill="none" stroke="black" points="338,-438 338,-460 462,-460 462,-438 338,-438"/>
<image xlink:href="../../images/foreignKeys.png" width="11px" height="12px" preserveAspectRatio="xMinYMin meet" x="343" y="-455"/>
<text text-anchor="start" x="358" y="-446.2" font-family="Helvetica,sans-Serif" font-size="11.00">portionid</text>
<polygon fill="none" stroke="black" points="338,-416 338,-438 462,-438 462,-416 338,-416"/>
<image xlink:href="../../images/foreignKeys.png" width="11px" height="12px" preserveAspectRatio="xMinYMin meet" x="343" y="-433"/>
<text text-anchor="start" x="358" y="-424.2" font-family="Helvetica,sans-Serif" font-size="11.00">maturityid</text>
<polygon fill="none" stroke="black" points="338,-394 338,-416 462,-416 462,-394 338,-394"/>
<image xlink:href="../../images/foreignKeys.png" width="11px" height="12px" preserveAspectRatio="xMinYMin meet" x="343" y="-411"/>
<text text-anchor="start" x="358" y="-402.2" font-family="Helvetica,sans-Serif" font-size="11.00">sexid</text>
<polygon fill="none" stroke="black" points="338,-372 338,-394 462,-394 462,-372 338,-372"/>
<image xlink:href="../../images/foreignKeys.png" width="11px" height="12px" preserveAspectRatio="xMinYMin meet" x="343" y="-389"/>
<text text-anchor="start" x="358" y="-380.2" font-family="Helvetica,sans-Serif" font-size="11.00">domesticstatusid</text>
<polygon fill="none" stroke="black" points="338,-350 338,-372 462,-372 462,-350 338,-350"/>
<image xlink:href="../../images/foreignKeys.png" width="11px" height="12px" preserveAspectRatio="xMinYMin meet" x="343" y="-367"/>
<text text-anchor="start" x="358" y="-358.2" font-family="Helvetica,sans-Serif" font-size="11.00">repositoryid</text>
<polygon fill="none" stroke="black" points="338,-332 338,-350 462,-350 462,-332 338,-332"/>
<text text-anchor="start" x="341" y="-338.2" font-family="Helvetica,sans-Serif" font-size="11.00">...</text>
<polygon fill="#ffffff" stroke="transparent" points="338,-314 338,-332 370,-332 370,-314 338,-314"/>
<polygon fill="none" stroke="black" points="338,-314 338,-332 370,-332 370,-314 338,-314"/>
<text text-anchor="start" x="341" y="-320.2" font-family="Helvetica,sans-Serif" font-size="11.00">&lt; 8</text>
<polygon fill="#ffffff" stroke="transparent" points="370,-314 370,-332 435,-332 435,-314 370,-314"/>
<polygon fill="none" stroke="black" points="370,-314 370,-332 435,-332 435,-314 370,-314"/>
<text text-anchor="start" x="378" y="-320.2" font-family="Helvetica,sans-Serif" font-size="11.00">3,351 rows</text>
<polygon fill="#ffffff" stroke="transparent" points="435,-314 435,-332 462,-332 462,-314 435,-314"/>
<polygon fill="none" stroke="black" points="435,-314 435,-332 462,-332 462,-314 435,-314"/>
<text text-anchor="start" x="443" y="-320.2" font-family="Helvetica,sans-Serif" font-size="11.00">4 &gt;</text>
</a>
</g>
</g>
<!-- isospecimendata&#45;&gt;specimens -->
<g id="edge2" class="edge">
<title>isospecimendata:w&#45;&gt;specimens:e</title>
<path fill="none" stroke="black" d="M506.66,-688.33C460.67,-667.88 530.42,-537 463,-537"/>
<polygon fill="black" stroke="black" points="513.14,-689.53 520.34,-694.54 517.07,-690.27 521,-691 521,-691 521,-691 517.07,-690.27 521.66,-687.46 513.14,-689.53 513.14,-689.53"/>
<ellipse fill="none" stroke="black" cx="509.99" cy="-688.95" rx="3.2" ry="3.2"/>
</g>
<!-- specimens&#45;&gt;data -->
<g id="edge6" class="edge">
<title>specimens:w&#45;&gt;data:e</title>
<path fill="none" stroke="black" d="M322.66,-517.09C283.76,-530.9 335.25,-609.72 297,-654 271,-684.11 255.28,-691 215.5,-691"/>
<polygon fill="black" stroke="black" points="329.08,-516.16 337.52,-518.56 333.04,-515.58 337,-515 337,-515 337,-515 333.04,-515.58 336.48,-511.44 329.08,-516.16 329.08,-516.16"/>
<ellipse fill="none" stroke="black" cx="325.92" cy="-516.62" rx="3.2" ry="3.2"/>
</g>
<!-- elementtypes -->
<g id="node5" class="node">
<title>elementtypes</title>
<g id="a_node5"><a xlink:href="../../tables/elementtypes.html" xlink:title="elementtypes" target="_top">
<polygon fill="#ffffff" stroke="transparent" points="91.5,-585 91.5,-643 205.5,-643 205.5,-585 91.5,-585"/>
<polygon fill="#f5f5f5" stroke="transparent" points="91.5,-621 91.5,-643 205.5,-643 205.5,-621 91.5,-621"/>
<polygon fill="none" stroke="black" points="91.5,-621 91.5,-643 205.5,-643 205.5,-621 91.5,-621"/>
<text text-anchor="start" x="96.5" y="-630.2" font-family="Helvetica,sans-Serif" font-weight="bold" font-size="11.00">elementtypes</text>
<text text-anchor="start" x="170.5" y="-629.2" font-family="Helvetica,sans-Serif" font-size="11.00">[table]</text>
<polygon fill="none" stroke="black" points="91.5,-603 91.5,-621 205.5,-621 205.5,-603 91.5,-603"/>
<text text-anchor="start" x="94.5" y="-609.2" font-family="Helvetica,sans-Serif" font-size="11.00">...</text>
<polygon fill="#ffffff" stroke="transparent" points="91.5,-585 91.5,-603 118.5,-603 118.5,-585 91.5,-585"/>
<polygon fill="none" stroke="black" points="91.5,-585 91.5,-603 118.5,-603 118.5,-585 91.5,-585"/>
<text text-anchor="start" x="94.5" y="-591.2" font-family="Helvetica,sans-Serif" font-size="11.00"> &#160;</text>
<polygon fill="#ffffff" stroke="transparent" points="118.5,-585 118.5,-603 176.5,-603 176.5,-585 118.5,-585"/>
<polygon fill="none" stroke="black" points="118.5,-585 118.5,-603 176.5,-603 176.5,-585 118.5,-585"/>
<text text-anchor="start" x="128.5" y="-591.2" font-family="Helvetica,sans-Serif" font-size="11.00">926 rows</text>
<polygon fill="#ffffff" stroke="transparent" points="176.5,-585 176.5,-603 205.5,-603 205.5,-585 176.5,-585"/>
<polygon fill="none" stroke="black" points="176.5,-585 176.5,-603 205.5,-603 205.5,-585 176.5,-585"/>
<text text-anchor="start" x="186.5" y="-591.2" font-family="Helvetica,sans-Serif" font-size="11.00">5 &gt;</text>
</a>
</g>
</g>
<!-- specimens&#45;&gt;elementtypes -->
<g id="edge8" class="edge">
<title>specimens:w&#45;&gt;elementtypes:e</title>
<path fill="none" stroke="black" d="M322.93,-496.49C304.25,-508.92 322.09,-551.51 297,-575 265.28,-604.7 249.95,-612 206.5,-612"/>
<polygon fill="black" stroke="black" points="329.24,-494.93 337.87,-496.49 333.12,-493.96 337,-493 337,-493 337,-493 333.12,-493.96 336.13,-489.51 329.24,-494.93 329.24,-494.93"/>
<ellipse fill="none" stroke="black" cx="326.13" cy="-495.7" rx="3.2" ry="3.2"/>
</g>
<!-- specimendomesticstatustypes -->
<g id="node7" class="node">
<title>specimendomesticstatustypes</title>
<g id="a_node7"><a xlink:href="../../tables/specimendomesticstatustypes.html" xlink:title="specimendomesticstatustypes" target="_top">
<polygon fill="#ffffff" stroke="transparent" points="8,-116 8,-248 289,-248 289,-116 8,-116"/>
<polygon fill="#f5f5f5" stroke="transparent" points="10.5,-224 10.5,-246 287.5,-246 287.5,-224 10.5,-224"/>
<polygon fill="none" stroke="black" points="10.5,-224 10.5,-246 287.5,-246 287.5,-224 10.5,-224"/>
<text text-anchor="start" x="15.5" y="-233.2" font-family="Helvetica,sans-Serif" font-weight="bold" font-size="11.00">specimendomesticstatustypes</text>
<text text-anchor="start" x="252.5" y="-232.2" font-family="Helvetica,sans-Serif" font-size="11.00">[table]</text>
<polygon fill="none" stroke="black" points="10.5,-202 10.5,-224 213.5,-224 213.5,-202 10.5,-202"/>
<image xlink:href="../../images/primaryKeys.png" width="11px" height="12px" preserveAspectRatio="xMinYMin meet" x="15.5" y="-219"/>
<text text-anchor="start" x="30.5" y="-210.2" font-family="Helvetica,sans-Serif" font-size="11.00">domesticstatusid</text>
<polygon fill="none" stroke="black" points="213.5,-202 213.5,-224 287.5,-224 287.5,-202 213.5,-202"/>
<text text-anchor="start" x="216.5" y="-210.2" font-family="Helvetica,sans-Serif" font-size="11.00">serial[10]</text>
<polygon fill="none" stroke="black" points="10.5,-180 10.5,-202 213.5,-202 213.5,-180 10.5,-180"/>
<text text-anchor="start" x="30.5" y="-188.2" font-family="Helvetica,sans-Serif" font-size="11.00">domesticstatus</text>
<polygon fill="none" stroke="black" points="213.5,-180 213.5,-202 287.5,-202 287.5,-180 213.5,-180"/>
<text text-anchor="start" x="216.5" y="-188.2" font-family="Helvetica,sans-Serif" font-size="11.00">varchar[24]</text>
<polygon fill="none" stroke="black" points="10.5,-158 10.5,-180 213.5,-180 213.5,-158 10.5,-158"/>
<text text-anchor="start" x="30.5" y="-166.2" font-family="Helvetica,sans-Serif" font-size="11.00">recdatecreated</text>
<polygon fill="none" stroke="black" points="213.5,-158 213.5,-180 287.5,-180 287.5,-158 213.5,-158"/>
<text text-anchor="start" x="216.5" y="-166.2" font-family="Helvetica,sans-Serif" font-size="11.00">timestamp[22]</text>
<polygon fill="none" stroke="black" points="10.5,-136 10.5,-158 213.5,-158 213.5,-136 10.5,-136"/>
<text text-anchor="start" x="30.5" y="-144.2" font-family="Helvetica,sans-Serif" font-size="11.00">recdatemodified</text>
<polygon fill="none" stroke="black" points="213.5,-136 213.5,-158 287.5,-158 287.5,-136 213.5,-136"/>
<text text-anchor="start" x="216.5" y="-144.2" font-family="Helvetica,sans-Serif" font-size="11.00">timestamp[22]</text>
<polygon fill="#ffffff" stroke="transparent" points="10.5,-118 10.5,-136 103.5,-136 103.5,-118 10.5,-118"/>
<polygon fill="none" stroke="black" points="10.5,-118 10.5,-136 103.5,-136 103.5,-118 10.5,-118"/>
<text text-anchor="start" x="13.5" y="-124.2" font-family="Helvetica,sans-Serif" font-size="11.00">&lt; 0</text>
<polygon fill="#ffffff" stroke="transparent" points="103.5,-118 103.5,-136 213.5,-136 213.5,-118 103.5,-118"/>
<polygon fill="none" stroke="black" points="103.5,-118 103.5,-136 213.5,-136 213.5,-118 103.5,-118"/>
<text text-anchor="start" x="177.5" y="-124.2" font-family="Helvetica,sans-Serif" font-size="11.00">4 rows</text>
<polygon fill="#ffffff" stroke="transparent" points="213.5,-118 213.5,-136 287.5,-136 287.5,-118 213.5,-118"/>
<polygon fill="none" stroke="black" points="213.5,-118 213.5,-136 287.5,-136 287.5,-118 213.5,-118"/>
<text text-anchor="start" x="268.5" y="-124.2" font-family="Helvetica,sans-Serif" font-size="11.00">1 &gt;</text>
<polygon fill="none" stroke="black" stroke-width="2" points="9,-117 9,-247 288,-247 288,-117 9,-117"/>
</a>
</g>
</g>
<!-- specimens&#45;&gt;specimendomesticstatustypes -->
<g id="edge7" class="edge">
<title>specimens:w&#45;&gt;specimendomesticstatustypes:e</title>
<path fill="none" stroke="black" d="M322.76,-380.46C273.15,-359.32 361.39,-213 288.5,-213"/>
<polygon fill="black" stroke="black" points="329.12,-381.6 336.37,-386.54 333.06,-382.3 337,-383 337,-383 337,-383 333.06,-382.3 337.63,-379.46 329.12,-381.6 329.12,-381.6"/>
<ellipse fill="none" stroke="black" cx="325.97" cy="-381.04" rx="3.2" ry="3.2"/>
</g>
<!-- elementmaturities -->
<g id="node8" class="node">
<title>elementmaturities</title>
<g id="a_node8"><a xlink:href="../../tables/elementmaturities.html" xlink:title="elementmaturities" target="_top">
<polygon fill="#ffffff" stroke="transparent" points="79.5,-348 79.5,-406 217.5,-406 217.5,-348 79.5,-348"/>
<polygon fill="#f5f5f5" stroke="transparent" points="79.5,-384 79.5,-406 217.5,-406 217.5,-384 79.5,-384"/>
<polygon fill="none" stroke="black" points="79.5,-384 79.5,-406 217.5,-406 217.5,-384 79.5,-384"/>
<text text-anchor="start" x="84.5" y="-393.2" font-family="Helvetica,sans-Serif" font-weight="bold" font-size="11.00">elementmaturities</text>
<text text-anchor="start" x="182.5" y="-392.2" font-family="Helvetica,sans-Serif" font-size="11.00">[table]</text>
<polygon fill="none" stroke="black" points="79.5,-366 79.5,-384 217.5,-384 217.5,-366 79.5,-366"/>
<text text-anchor="start" x="82.5" y="-372.2" font-family="Helvetica,sans-Serif" font-size="11.00">...</text>
<polygon fill="#ffffff" stroke="transparent" points="79.5,-348 79.5,-366 121.5,-366 121.5,-348 79.5,-348"/>
<polygon fill="none" stroke="black" points="79.5,-348 79.5,-366 121.5,-366 121.5,-348 79.5,-348"/>
<text text-anchor="start" x="82.5" y="-354.2" font-family="Helvetica,sans-Serif" font-size="11.00"> &#160;</text>
<polygon fill="#ffffff" stroke="transparent" points="121.5,-348 121.5,-366 180.5,-366 180.5,-348 121.5,-348"/>
<polygon fill="none" stroke="black" points="121.5,-348 121.5,-366 180.5,-366 180.5,-348 121.5,-348"/>
<text text-anchor="start" x="138.5" y="-354.2" font-family="Helvetica,sans-Serif" font-size="11.00">12 rows</text>
<polygon fill="#ffffff" stroke="transparent" points="180.5,-348 180.5,-366 217.5,-366 217.5,-348 180.5,-348"/>
<polygon fill="none" stroke="black" points="180.5,-348 180.5,-366 217.5,-366 217.5,-348 180.5,-348"/>
<text text-anchor="start" x="198.5" y="-354.2" font-family="Helvetica,sans-Serif" font-size="11.00">3 &gt;</text>
</a>
</g>
</g>
<!-- specimens&#45;&gt;elementmaturities -->
<g id="edge9" class="edge">
<title>specimens:w&#45;&gt;elementmaturities:e</title>
<path fill="none" stroke="black" d="M322.44,-425.77C278.39,-417.89 270.73,-375 218.5,-375"/>
<polygon fill="black" stroke="black" points="329.03,-426.32 336.7,-430.59 333.01,-426.66 337,-427 337,-427 337,-427 333.01,-426.66 337.3,-423.41 329.03,-426.32 329.03,-426.32"/>
<ellipse fill="none" stroke="black" cx="325.84" cy="-426.05" rx="3.2" ry="3.2"/>
</g>
<!-- elementportions -->
<g id="node9" class="node">
<title>elementportions</title>
<g id="a_node9"><a xlink:href="../../tables/elementportions.html" xlink:title="elementportions" target="_top">
<polygon fill="#ffffff" stroke="transparent" points="83.5,-427 83.5,-485 213.5,-485 213.5,-427 83.5,-427"/>
<polygon fill="#f5f5f5" stroke="transparent" points="83.5,-463 83.5,-485 213.5,-485 213.5,-463 83.5,-463"/>
<polygon fill="none" stroke="black" points="83.5,-463 83.5,-485 213.5,-485 213.5,-463 83.5,-463"/>
<text text-anchor="start" x="88.5" y="-472.2" font-family="Helvetica,sans-Serif" font-weight="bold" font-size="11.00">elementportions</text>
<text text-anchor="start" x="178.5" y="-471.2" font-family="Helvetica,sans-Serif" font-size="11.00">[table]</text>
<polygon fill="none" stroke="black" points="83.5,-445 83.5,-463 213.5,-463 213.5,-445 83.5,-445"/>
<text text-anchor="start" x="86.5" y="-451.2" font-family="Helvetica,sans-Serif" font-size="11.00">...</text>
<polygon fill="#ffffff" stroke="transparent" points="83.5,-427 83.5,-445 121.5,-445 121.5,-427 83.5,-427"/>
<polygon fill="none" stroke="black" points="83.5,-427 83.5,-445 121.5,-445 121.5,-427 83.5,-427"/>
<text text-anchor="start" x="86.5" y="-433.2" font-family="Helvetica,sans-Serif" font-size="11.00"> &#160;</text>
<polygon fill="#ffffff" stroke="transparent" points="121.5,-427 121.5,-445 178.5,-445 178.5,-427 121.5,-427"/>
<polygon fill="none" stroke="black" points="121.5,-427 121.5,-445 178.5,-445 178.5,-427 121.5,-427"/>
<text text-anchor="start" x="136.5" y="-433.2" font-family="Helvetica,sans-Serif" font-size="11.00">54 rows</text>
<polygon fill="#ffffff" stroke="transparent" points="178.5,-427 178.5,-445 213.5,-445 213.5,-427 178.5,-427"/>
<polygon fill="none" stroke="black" points="178.5,-427 178.5,-445 213.5,-445 213.5,-427 178.5,-427"/>
<text text-anchor="start" x="194.5" y="-433.2" font-family="Helvetica,sans-Serif" font-size="11.00">3 &gt;</text>
</a>
</g>
</g>
<!-- specimens&#45;&gt;elementportions -->
<g id="edge10" class="edge">
<title>specimens:w&#45;&gt;elementportions:e</title>
<path fill="none" stroke="black" d="M322.41,-449.13C279.55,-449.91 263.77,-454 214.5,-454"/>
<polygon fill="black" stroke="black" points="329,-449.07 337.03,-452.6 333,-449.04 337,-449 337,-449 337,-449 333,-449.04 336.97,-445.4 329,-449.07 329,-449.07"/>
<ellipse fill="none" stroke="black" cx="325.8" cy="-449.1" rx="3.2" ry="3.2"/>
</g>
<!-- repositoryinstitutions -->
<g id="node10" class="node">
<title>repositoryinstitutions</title>
<g id="a_node10"><a xlink:href="../../tables/repositoryinstitutions.html" xlink:title="repositoryinstitutions" target="_top">
<polygon fill="#ffffff" stroke="transparent" points="69.5,-37 69.5,-95 227.5,-95 227.5,-37 69.5,-37"/>
<polygon fill="#f5f5f5" stroke="transparent" points="69.5,-73 69.5,-95 227.5,-95 227.5,-73 69.5,-73"/>
<polygon fill="none" stroke="black" points="69.5,-73 69.5,-95 227.5,-95 227.5,-73 69.5,-73"/>
<text text-anchor="start" x="74.5" y="-82.2" font-family="Helvetica,sans-Serif" font-weight="bold" font-size="11.00">repositoryinstitutions</text>
<text text-anchor="start" x="192.5" y="-81.2" font-family="Helvetica,sans-Serif" font-size="11.00">[table]</text>
<polygon fill="none" stroke="black" points="69.5,-55 69.5,-73 227.5,-73 227.5,-55 69.5,-55"/>
<text text-anchor="start" x="72.5" y="-61.2" font-family="Helvetica,sans-Serif" font-size="11.00">...</text>
<polygon fill="#ffffff" stroke="transparent" points="69.5,-37 69.5,-55 118.5,-55 118.5,-37 69.5,-37"/>
<polygon fill="none" stroke="black" points="69.5,-37 69.5,-55 118.5,-55 118.5,-37 69.5,-37"/>
<text text-anchor="start" x="72.5" y="-43.2" font-family="Helvetica,sans-Serif" font-size="11.00"> &#160;</text>
<polygon fill="#ffffff" stroke="transparent" points="118.5,-37 118.5,-55 187.5,-55 187.5,-37 118.5,-37"/>
<polygon fill="none" stroke="black" points="118.5,-37 118.5,-55 187.5,-55 187.5,-37 118.5,-37"/>
<text text-anchor="start" x="139.5" y="-43.2" font-family="Helvetica,sans-Serif" font-size="11.00">387 rows</text>
<polygon fill="#ffffff" stroke="transparent" points="187.5,-37 187.5,-55 227.5,-55 227.5,-37 187.5,-37"/>
<polygon fill="none" stroke="black" points="187.5,-37 187.5,-55 227.5,-55 227.5,-37 187.5,-37"/>
<text text-anchor="start" x="208.5" y="-43.2" font-family="Helvetica,sans-Serif" font-size="11.00">2 &gt;</text>
</a>
</g>
</g>
<!-- specimens&#45;&gt;repositoryinstitutions -->
<g id="edge11" class="edge">
<title>specimens:w&#45;&gt;repositoryinstitutions:e</title>
<path fill="none" stroke="black" d="M323.48,-355.81C288.03,-323.36 326.17,-148.27 297,-105 277.16,-75.58 263.98,-64 228.5,-64"/>
<polygon fill="black" stroke="black" points="329.53,-358.13 335.71,-364.36 333.27,-359.57 337,-361 337,-361 337,-361 333.27,-359.57 338.29,-357.64 329.53,-358.13 329.53,-358.13"/>
<ellipse fill="none" stroke="black" cx="326.54" cy="-356.99" rx="3.2" ry="3.2"/>
</g>
<!-- specimensextypes -->
<g id="node11" class="node">
<title>specimensextypes</title>
<g id="a_node11"><a xlink:href="../../tables/specimensextypes.html" xlink:title="specimensextypes" target="_top">
<polygon fill="#ffffff" stroke="transparent" points="78,-269 78,-327 219,-327 219,-269 78,-269"/>
<polygon fill="#f5f5f5" stroke="transparent" points="78.5,-305 78.5,-327 219.5,-327 219.5,-305 78.5,-305"/>
<polygon fill="none" stroke="black" points="78.5,-305 78.5,-327 219.5,-327 219.5,-305 78.5,-305"/>
<text text-anchor="start" x="83.5" y="-314.2" font-family="Helvetica,sans-Serif" font-weight="bold" font-size="11.00">specimensextypes</text>
<text text-anchor="start" x="184.5" y="-313.2" font-family="Helvetica,sans-Serif" font-size="11.00">[table]</text>
<polygon fill="none" stroke="black" points="78.5,-287 78.5,-305 219.5,-305 219.5,-287 78.5,-287"/>
<text text-anchor="start" x="81.5" y="-293.2" font-family="Helvetica,sans-Serif" font-size="11.00">...</text>
<polygon fill="#ffffff" stroke="transparent" points="78.5,-269 78.5,-287 124.5,-287 124.5,-269 78.5,-269"/>
<polygon fill="none" stroke="black" points="78.5,-269 78.5,-287 124.5,-287 124.5,-269 78.5,-269"/>
<text text-anchor="start" x="81.5" y="-275.2" font-family="Helvetica,sans-Serif" font-size="11.00"> &#160;</text>
<polygon fill="#ffffff" stroke="transparent" points="124.5,-269 124.5,-287 180.5,-287 180.5,-269 124.5,-269"/>
<polygon fill="none" stroke="black" points="124.5,-269 124.5,-287 180.5,-287 180.5,-269 124.5,-269"/>
<text text-anchor="start" x="144.5" y="-275.2" font-family="Helvetica,sans-Serif" font-size="11.00">3 rows</text>
<polygon fill="#ffffff" stroke="transparent" points="180.5,-269 180.5,-287 219.5,-287 219.5,-269 180.5,-269"/>
<polygon fill="none" stroke="black" points="180.5,-269 180.5,-287 219.5,-287 219.5,-269 180.5,-269"/>
<text text-anchor="start" x="200.5" y="-275.2" font-family="Helvetica,sans-Serif" font-size="11.00">1 &gt;</text>
</a>
</g>
</g>
<!-- specimens&#45;&gt;specimensextypes -->
<g id="edge12" class="edge">
<title>specimens:w&#45;&gt;specimensextypes:e</title>
<path fill="none" stroke="black" d="M322.88,-401.13C307.77,-389.92 317.74,-356.93 297,-337 269.19,-310.27 259.08,-296 220.5,-296"/>
<polygon fill="black" stroke="black" points="329.28,-402.89 336.05,-408.47 333.14,-403.94 337,-405 337,-405 337,-405 333.14,-403.94 337.95,-401.53 329.28,-402.89 329.28,-402.89"/>
<ellipse fill="none" stroke="black" cx="326.2" cy="-402.04" rx="3.2" ry="3.2"/>
</g>
<!-- elementsymmetries -->
<g id="node12" class="node">
<title>elementsymmetries</title>
<g id="a_node12"><a xlink:href="../../tables/elementsymmetries.html" xlink:title="elementsymmetries" target="_top">
<polygon fill="#ffffff" stroke="transparent" points="75,-506 75,-564 222,-564 222,-506 75,-506"/>
<polygon fill="#f5f5f5" stroke="transparent" points="75.5,-542 75.5,-564 222.5,-564 222.5,-542 75.5,-542"/>
<polygon fill="none" stroke="black" points="75.5,-542 75.5,-564 222.5,-564 222.5,-542 75.5,-542"/>
<text text-anchor="start" x="80.5" y="-551.2" font-family="Helvetica,sans-Serif" font-weight="bold" font-size="11.00">elementsymmetries</text>
<text text-anchor="start" x="187.5" y="-550.2" font-family="Helvetica,sans-Serif" font-size="11.00">[table]</text>
<polygon fill="none" stroke="black" points="75.5,-524 75.5,-542 222.5,-542 222.5,-524 75.5,-524"/>
<text text-anchor="start" x="78.5" y="-530.2" font-family="Helvetica,sans-Serif" font-size="11.00">...</text>
<polygon fill="#ffffff" stroke="transparent" points="75.5,-506 75.5,-524 124.5,-524 124.5,-506 75.5,-506"/>
<polygon fill="none" stroke="black" points="75.5,-506 75.5,-524 124.5,-524 124.5,-506 75.5,-506"/>
<text text-anchor="start" x="78.5" y="-512.2" font-family="Helvetica,sans-Serif" font-size="11.00"> &#160;</text>
<polygon fill="#ffffff" stroke="transparent" points="124.5,-506 124.5,-524 181.5,-524 181.5,-506 124.5,-506"/>
<polygon fill="none" stroke="black" points="124.5,-506 124.5,-524 181.5,-524 181.5,-506 124.5,-506"/>
<text text-anchor="start" x="145.5" y="-512.2" font-family="Helvetica,sans-Serif" font-size="11.00">8 rows</text>
<polygon fill="#ffffff" stroke="transparent" points="181.5,-506 181.5,-524 222.5,-524 222.5,-506 181.5,-506"/>
<polygon fill="none" stroke="black" points="181.5,-506 181.5,-524 222.5,-524 222.5,-506 181.5,-506"/>
<text text-anchor="start" x="203.5" y="-512.2" font-family="Helvetica,sans-Serif" font-size="11.00">3 &gt;</text>
</a>
</g>
</g>
<!-- specimens&#45;&gt;elementsymmetries -->
<g id="edge13" class="edge">
<title>specimens:w&#45;&gt;elementsymmetries:e</title>
<path fill="none" stroke="black" d="M322.68,-474.39C314.04,-479.35 309.85,-488.77 297,-496 265.13,-513.93 260.07,-533 223.5,-533"/>
<polygon fill="black" stroke="black" points="329.22,-472.84 337.83,-474.5 333.11,-471.92 337,-471 337,-471 337,-471 333.11,-471.92 336.17,-467.5 329.22,-472.84 329.22,-472.84"/>
<ellipse fill="none" stroke="black" cx="326.1" cy="-473.58" rx="3.2" ry="3.2"/>
</g>
<!-- specimendates -->
<g id="node4" class="node">
<title>specimendates</title>
<g id="a_node4"><a xlink:href="../../tables/specimendates.html" xlink:title="specimendates" target="_top">
<polygon fill="#ffffff" stroke="transparent" points="526.5,-585 526.5,-643 649.5,-643 649.5,-585 526.5,-585"/>
<polygon fill="#f5f5f5" stroke="transparent" points="527,-621 527,-643 650,-643 650,-621 527,-621"/>
<polygon fill="none" stroke="black" points="527,-621 527,-643 650,-643 650,-621 527,-621"/>
<text text-anchor="start" x="532" y="-630.2" font-family="Helvetica,sans-Serif" font-weight="bold" font-size="11.00">specimendates</text>
<text text-anchor="start" x="615" y="-629.2" font-family="Helvetica,sans-Serif" font-size="11.00">[table]</text>
<polygon fill="none" stroke="black" points="527,-603 527,-621 650,-621 650,-603 527,-603"/>
<text text-anchor="start" x="530" y="-609.2" font-family="Helvetica,sans-Serif" font-size="11.00">...</text>
<polygon fill="#ffffff" stroke="transparent" points="527,-585 527,-603 558,-603 558,-585 527,-585"/>
<polygon fill="none" stroke="black" points="527,-585 527,-603 558,-603 558,-585 527,-585"/>
<text text-anchor="start" x="530" y="-591.2" font-family="Helvetica,sans-Serif" font-size="11.00">&lt; 6</text>
<polygon fill="#ffffff" stroke="transparent" points="558,-585 558,-603 623,-603 623,-585 558,-585"/>
<polygon fill="none" stroke="black" points="558,-585 558,-603 623,-603 623,-585 558,-585"/>
<text text-anchor="start" x="566" y="-591.2" font-family="Helvetica,sans-Serif" font-size="11.00">2,662 rows</text>
<polygon fill="#ffffff" stroke="transparent" points="623,-585 623,-603 650,-603 650,-585 623,-585"/>
<polygon fill="none" stroke="black" points="623,-585 623,-603 650,-603 650,-585 623,-585"/>
<text text-anchor="start" x="631" y="-591.2" font-family="Helvetica,sans-Serif" font-size="11.00">1 &gt;</text>
</a>
</g>
</g>
<!-- specimendates&#45;&gt;specimens -->
<g id="edge4" class="edge">
<title>specimendates:w&#45;&gt;specimens:e</title>
<path fill="none" stroke="black" d="M511.92,-608.38C487.67,-593.4 500.75,-537 463,-537"/>
<polygon fill="black" stroke="black" points="518.25,-610.01 525.1,-615.49 522.13,-611 526,-612 526,-612 526,-612 522.13,-611 526.9,-608.51 518.25,-610.01 518.25,-610.01"/>
<ellipse fill="none" stroke="black" cx="515.15" cy="-609.21" rx="3.2" ry="3.2"/>
</g>
<!-- specimendates&#45;&gt;elementtypes -->
<g id="edge3" class="edge">
<title>specimendates:w&#45;&gt;elementtypes:e</title>
<path fill="none" stroke="black" d="M511.41,-612C381.37,-612 343.51,-612 206.5,-612"/>
<polygon fill="black" stroke="black" points="518,-612 526,-615.6 522,-612 526,-612 526,-612 526,-612 522,-612 526,-608.4 518,-612 518,-612"/>
<ellipse fill="none" stroke="black" cx="514.8" cy="-612" rx="3.2" ry="3.2"/>
</g>
<!-- specimengenbank -->
<g id="node6" class="node">
<title>specimengenbank</title>
<g id="a_node6"><a xlink:href="../../tables/specimengenbank.html" xlink:title="specimengenbank" target="_top">
<polygon fill="#ffffff" stroke="transparent" points="518,-506 518,-564 658,-564 658,-506 518,-506"/>
<polygon fill="#f5f5f5" stroke="transparent" points="518,-542 518,-564 658,-564 658,-542 518,-542"/>
<polygon fill="none" stroke="black" points="518,-542 518,-564 658,-564 658,-542 518,-542"/>
<text text-anchor="start" x="523" y="-551.2" font-family="Helvetica,sans-Serif" font-weight="bold" font-size="11.00">specimengenbank</text>
<text text-anchor="start" x="623" y="-550.2" font-family="Helvetica,sans-Serif" font-size="11.00">[table]</text>
<polygon fill="none" stroke="black" points="518,-524 518,-542 658,-542 658,-524 518,-524"/>
<text text-anchor="start" x="521" y="-530.2" font-family="Helvetica,sans-Serif" font-size="11.00">...</text>
<polygon fill="#ffffff" stroke="transparent" points="518,-506 518,-524 573,-524 573,-506 518,-506"/>
<polygon fill="none" stroke="black" points="518,-506 518,-524 573,-524 573,-506 518,-506"/>
<text text-anchor="start" x="521" y="-512.2" font-family="Helvetica,sans-Serif" font-size="11.00">&lt; 1</text>
<polygon fill="#ffffff" stroke="transparent" points="573,-506 573,-524 628,-524 628,-506 573,-506"/>
<polygon fill="none" stroke="black" points="573,-506 573,-524 628,-524 628,-506 573,-506"/>
<text text-anchor="start" x="592" y="-512.2" font-family="Helvetica,sans-Serif" font-size="11.00">3 rows</text>
<polygon fill="#ffffff" stroke="transparent" points="628,-506 628,-524 658,-524 658,-506 628,-506"/>
<polygon fill="none" stroke="black" points="628,-506 628,-524 658,-524 658,-506 628,-506"/>
<text text-anchor="start" x="648" y="-512.2" font-family="Helvetica,sans-Serif" font-size="11.00"> &#160;</text>
</a>
</g>
</g>
<!-- specimengenbank&#45;&gt;specimens -->
<g id="edge5" class="edge">
<title>specimengenbank:w&#45;&gt;specimens:e</title>
<path fill="none" stroke="black" d="M502.61,-533.56C489.18,-534.66 481.43,-537 463,-537"/>
<polygon fill="black" stroke="black" points="509.01,-533.31 517.14,-536.6 513,-533.15 517,-533 517,-533 517,-533 513,-533.15 516.86,-529.4 509.01,-533.31 509.01,-533.31"/>
<ellipse fill="none" stroke="black" cx="505.81" cy="-533.43" rx="3.2" ry="3.2"/>
</g>
<!-- specimentaphonomy -->
<g id="node13" class="node">
<title>specimentaphonomy</title>
<g id="a_node13"><a xlink:href="../../tables/specimentaphonomy.html" xlink:title="specimentaphonomy" target="_top">
<polygon fill="#ffffff" stroke="transparent" points="511,-427 511,-485 665,-485 665,-427 511,-427"/>
<polygon fill="#f5f5f5" stroke="transparent" points="511,-463 511,-485 665,-485 665,-463 511,-463"/>
<polygon fill="none" stroke="black" points="511,-463 511,-485 665,-485 665,-463 511,-463"/>
<text text-anchor="start" x="516" y="-472.2" font-family="Helvetica,sans-Serif" font-weight="bold" font-size="11.00">specimentaphonomy</text>
<text text-anchor="start" x="630" y="-471.2" font-family="Helvetica,sans-Serif" font-size="11.00">[table]</text>
<polygon fill="none" stroke="black" points="511,-445 511,-463 665,-463 665,-445 511,-445"/>
<text text-anchor="start" x="514" y="-451.2" font-family="Helvetica,sans-Serif" font-size="11.00">...</text>
<polygon fill="#ffffff" stroke="transparent" points="511,-427 511,-445 567,-445 567,-427 511,-427"/>
<polygon fill="none" stroke="black" points="511,-427 511,-445 567,-445 567,-427 511,-427"/>
<text text-anchor="start" x="514" y="-433.2" font-family="Helvetica,sans-Serif" font-size="11.00">&lt; 2</text>
<polygon fill="#ffffff" stroke="transparent" points="567,-427 567,-445 635,-445 635,-427 567,-427"/>
<polygon fill="none" stroke="black" points="567,-427 567,-445 635,-445 635,-427 567,-427"/>
<text text-anchor="start" x="587" y="-433.2" font-family="Helvetica,sans-Serif" font-size="11.00">452 rows</text>
<polygon fill="#ffffff" stroke="transparent" points="635,-427 635,-445 665,-445 665,-427 635,-427"/>
<polygon fill="none" stroke="black" points="635,-427 635,-445 665,-445 665,-427 635,-427"/>
<text text-anchor="start" x="655" y="-433.2" font-family="Helvetica,sans-Serif" font-size="11.00"> &#160;</text>
</a>
</g>
</g>
<!-- specimentaphonomy&#45;&gt;specimens -->
<g id="edge14" class="edge">
<title>specimentaphonomy:w&#45;&gt;specimens:e</title>
<path fill="none" stroke="black" d="M496.16,-458.7C476.85,-476.26 499.27,-537 463,-537"/>
<polygon fill="black" stroke="black" points="502.42,-456.57 511.16,-457.41 506.21,-455.29 510,-454 510,-454 510,-454 506.21,-455.29 508.84,-450.59 502.42,-456.57 502.42,-456.57"/>
<ellipse fill="none" stroke="black" cx="499.39" cy="-457.6" rx="3.2" ry="3.2"/>
</g>
</g>
</svg>
