<?xml version="1.0" encoding="UTF-8" standalone="no"?>
<!DOCTYPE svg PUBLIC "-//W3C//DTD SVG 1.1//EN"
 "http://www.w3.org/Graphics/SVG/1.1/DTD/svg11.dtd">
<!-- Generated by graphviz version 2.43.0 (0)
 -->
<!-- Title: twoDegreesRelationshipsDiagram Pages: 1 -->
<svg width="1120pt" height="523pt"
 viewBox="0.00 0.00 1120.00 523.00" xmlns="http://www.w3.org/2000/svg" xmlns:xlink="http://www.w3.org/1999/xlink">
<g id="graph0" class="graph" transform="scale(1 1) rotate(0) translate(4 519)">
<title>twoDegreesRelationshipsDiagram</title>
<polygon fill="#ffffff" stroke="transparent" points="-4,4 -4,-519 1116,-519 1116,4 -4,4"/>
<text text-anchor="middle" x="71.5" y="-7.2" font-family="Helvetica,sans-Serif" font-size="11.00">Generated by SchemaSpy</text>
<!-- calibrationcurves -->
<g id="node1" class="node">
<title>calibrationcurves</title>
<g id="a_node1"><a xlink:href="../../tables/calibrationcurves.html" xlink:title="calibrationcurves" target="_top">
<polygon fill="#ffffff" stroke="transparent" points="684,-138 684,-240 819,-240 819,-138 684,-138"/>
<polygon fill="#f5f5f5" stroke="transparent" points="684.5,-218 684.5,-240 819.5,-240 819.5,-218 684.5,-218"/>
<polygon fill="none" stroke="black" points="684.5,-218 684.5,-240 819.5,-240 819.5,-218 684.5,-218"/>
<text text-anchor="start" x="689.5" y="-227.2" font-family="Helvetica,sans-Serif" font-weight="bold" font-size="11.00">calibrationcurves</text>
<text text-anchor="start" x="784.5" y="-226.2" font-family="Helvetica,sans-Serif" font-size="11.00">[table]</text>
<polygon fill="none" stroke="black" points="684.5,-196 684.5,-218 819.5,-218 819.5,-196 684.5,-196"/>
<image xlink:href="../../images/primaryKeys.png" width="11px" height="12px" preserveAspectRatio="xMinYMin meet" x="689.5" y="-213"/>
<text text-anchor="start" x="707.5" y="-204.2" font-family="Helvetica,sans-Serif" font-size="11.00">calibrationcurveid</text>
<polygon fill="none" stroke="black" points="684.5,-174 684.5,-196 819.5,-196 819.5,-174 684.5,-174"/>
<image xlink:href="../../images/foreignKeys.png" width="11px" height="12px" preserveAspectRatio="xMinYMin meet" x="689.5" y="-191"/>
<text text-anchor="start" x="707.5" y="-182.2" font-family="Helvetica,sans-Serif" font-size="11.00">publicationid</text>
<polygon fill="none" stroke="black" points="684.5,-156 684.5,-174 819.5,-174 819.5,-156 684.5,-156"/>
<text text-anchor="start" x="687.5" y="-162.2" font-family="Helvetica,sans-Serif" font-size="11.00">...</text>
<polygon fill="#ffffff" stroke="transparent" points="684.5,-138 684.5,-156 729.5,-156 729.5,-138 684.5,-138"/>
<polygon fill="none" stroke="black" points="684.5,-138 684.5,-156 729.5,-156 729.5,-138 684.5,-138"/>
<text text-anchor="start" x="687.5" y="-144.2" font-family="Helvetica,sans-Serif" font-size="11.00">&lt; 1</text>
<polygon fill="#ffffff" stroke="transparent" points="729.5,-138 729.5,-156 785.5,-156 785.5,-138 729.5,-138"/>
<polygon fill="none" stroke="black" points="729.5,-138 729.5,-156 785.5,-156 785.5,-138 729.5,-138"/>
<text text-anchor="start" x="743.5" y="-144.2" font-family="Helvetica,sans-Serif" font-size="11.00">15 rows</text>
<polygon fill="#ffffff" stroke="transparent" points="785.5,-138 785.5,-156 819.5,-156 819.5,-138 785.5,-138"/>
<polygon fill="none" stroke="black" points="785.5,-138 785.5,-156 819.5,-156 819.5,-138 785.5,-138"/>
<text text-anchor="start" x="800.5" y="-144.2" font-family="Helvetica,sans-Serif" font-size="11.00">2 &gt;</text>
</a>
</g>
</g>
<!-- publications -->
<g id="node2" class="node">
<title>publications</title>
<g id="a_node2"><a xlink:href="../../tables/publications.html" xlink:title="publications" target="_top">
<polygon fill="#ffffff" stroke="transparent" points="8,-241 8,-299 124,-299 124,-241 8,-241"/>
<polygon fill="#f5f5f5" stroke="transparent" points="8,-277 8,-299 124,-299 124,-277 8,-277"/>
<polygon fill="none" stroke="black" points="8,-277 8,-299 124,-299 124,-277 8,-277"/>
<text text-anchor="start" x="13" y="-286.2" font-family="Helvetica,sans-Serif" font-weight="bold" font-size="11.00">publications</text>
<text text-anchor="start" x="89" y="-285.2" font-family="Helvetica,sans-Serif" font-size="11.00">[table]</text>
<polygon fill="none" stroke="black" points="8,-259 8,-277 124,-277 124,-259 8,-259"/>
<text text-anchor="start" x="11" y="-265.2" font-family="Helvetica,sans-Serif" font-size="11.00">...</text>
<polygon fill="#ffffff" stroke="transparent" points="8,-241 8,-259 30,-259 30,-241 8,-241"/>
<polygon fill="none" stroke="black" points="8,-241 8,-259 30,-259 30,-241 8,-241"/>
<text text-anchor="start" x="11" y="-247.2" font-family="Helvetica,sans-Serif" font-size="11.00">&lt; 1</text>
<polygon fill="#ffffff" stroke="transparent" points="30,-241 30,-259 96,-259 96,-241 30,-241"/>
<polygon fill="none" stroke="black" points="30,-241 30,-259 96,-259 96,-241 30,-241"/>
<text text-anchor="start" x="33" y="-247.2" font-family="Helvetica,sans-Serif" font-size="11.00">13,725 rows</text>
<polygon fill="#ffffff" stroke="transparent" points="96,-241 96,-259 124,-259 124,-241 96,-241"/>
<polygon fill="none" stroke="black" points="96,-241 96,-259 124,-259 124,-241 96,-241"/>
<text text-anchor="start" x="99" y="-247.2" font-family="Helvetica,sans-Serif" font-size="11.00">12 &gt;</text>
</a>
</g>
</g>
<!-- calibrationcurves&#45;&gt;publications -->
<g id="edge1" class="edge">
<title>calibrationcurves:w&#45;&gt;publications:e</title>
<path fill="none" stroke="black" d="M668.87,-185.09C596.55,-185.98 573.42,-193.64 495,-204 421.33,-213.73 403.23,-218.4 330,-231 238.76,-246.7 217.58,-268 125,-268"/>
<polygon fill="black" stroke="black" points="675.5,-185.05 683.52,-188.6 679.5,-185.02 683.5,-185 683.5,-185 683.5,-185 679.5,-185.02 683.48,-181.4 675.5,-185.05 675.5,-185.05"/>
<ellipse fill="none" stroke="black" cx="672.3" cy="-185.07" rx="3.2" ry="3.2"/>
</g>
<!-- chroncontrolscal14c -->
<g id="node3" class="node">
<title>chroncontrolscal14c</title>
<g id="a_node3"><a xlink:href="../../tables/chroncontrolscal14c.html" xlink:title="chroncontrolscal14c" target="_top">
<polygon fill="#ffffff" stroke="transparent" points="914,-57 914,-115 1066,-115 1066,-57 914,-57"/>
<polygon fill="#f5f5f5" stroke="transparent" points="914,-93 914,-115 1066,-115 1066,-93 914,-93"/>
<polygon fill="none" stroke="black" points="914,-93 914,-115 1066,-115 1066,-93 914,-93"/>
<text text-anchor="start" x="919" y="-102.2" font-family="Helvetica,sans-Serif" font-weight="bold" font-size="11.00">chroncontrolscal14c</text>
<text text-anchor="start" x="1031" y="-101.2" font-family="Helvetica,sans-Serif" font-size="11.00">[table]</text>
<polygon fill="none" stroke="black" points="914,-75 914,-93 1066,-93 1066,-75 914,-75"/>
<text text-anchor="start" x="917" y="-81.2" font-family="Helvetica,sans-Serif" font-size="11.00">...</text>
<polygon fill="#ffffff" stroke="transparent" points="914,-57 914,-75 964,-75 964,-57 914,-57"/>
<polygon fill="none" stroke="black" points="914,-57 914,-75 964,-75 964,-57 914,-57"/>
<text text-anchor="start" x="917" y="-63.2" font-family="Helvetica,sans-Serif" font-size="11.00">&lt; 3</text>
<polygon fill="#ffffff" stroke="transparent" points="964,-57 964,-75 1038,-75 1038,-57 964,-57"/>
<polygon fill="none" stroke="black" points="964,-57 964,-75 1038,-75 1038,-57 964,-57"/>
<text text-anchor="start" x="981" y="-63.2" font-family="Helvetica,sans-Serif" font-size="11.00">6,899 rows</text>
<polygon fill="#ffffff" stroke="transparent" points="1038,-57 1038,-75 1066,-75 1066,-57 1038,-57"/>
<polygon fill="none" stroke="black" points="1038,-57 1038,-75 1066,-75 1066,-57 1038,-57"/>
<text text-anchor="start" x="1056" y="-63.2" font-family="Helvetica,sans-Serif" font-size="11.00"> &#160;</text>
</a>
</g>
</g>
<!-- chroncontrolscal14c&#45;&gt;calibrationcurves -->
<g id="edge2" class="edge">
<title>chroncontrolscal14c:w&#45;&gt;calibrationcurves:e</title>
<path fill="none" stroke="black" d="M898.44,-86.75C884.61,-93.07 881.36,-109.32 868,-126 841.92,-158.58 862.23,-207 820.5,-207"/>
<polygon fill="black" stroke="black" points="905.14,-85.49 913.67,-87.54 909.07,-84.74 913,-84 913,-84 913,-84 909.07,-84.74 912.33,-80.46 905.14,-85.49 905.14,-85.49"/>
<ellipse fill="none" stroke="black" cx="902" cy="-86.08" rx="3.2" ry="3.2"/>
</g>
<!-- calibrationprograms -->
<g id="node4" class="node">
<title>calibrationprograms</title>
<g id="a_node4"><a xlink:href="../../tables/calibrationprograms.html" xlink:title="calibrationprograms" target="_top">
<polygon fill="#ffffff" stroke="transparent" points="676,-37 676,-117 827,-117 827,-37 676,-37"/>
<polygon fill="#f5f5f5" stroke="transparent" points="676.5,-95 676.5,-117 827.5,-117 827.5,-95 676.5,-95"/>
<polygon fill="none" stroke="black" points="676.5,-95 676.5,-117 827.5,-117 827.5,-95 676.5,-95"/>
<text text-anchor="start" x="681.5" y="-104.2" font-family="Helvetica,sans-Serif" font-weight="bold" font-size="11.00">calibrationprograms</text>
<text text-anchor="start" x="792.5" y="-103.2" font-family="Helvetica,sans-Serif" font-size="11.00">[table]</text>
<polygon fill="none" stroke="black" points="676.5,-73 676.5,-95 827.5,-95 827.5,-73 676.5,-73"/>
<image xlink:href="../../images/primaryKeys.png" width="11px" height="12px" preserveAspectRatio="xMinYMin meet" x="681.5" y="-90"/>
<text text-anchor="start" x="697.5" y="-81.2" font-family="Helvetica,sans-Serif" font-size="11.00">calibrationprogramid</text>
<polygon fill="none" stroke="black" points="676.5,-55 676.5,-73 827.5,-73 827.5,-55 676.5,-55"/>
<text text-anchor="start" x="679.5" y="-61.2" font-family="Helvetica,sans-Serif" font-size="11.00">...</text>
<polygon fill="#ffffff" stroke="transparent" points="676.5,-37 676.5,-55 724.5,-55 724.5,-37 676.5,-37"/>
<polygon fill="none" stroke="black" points="676.5,-37 676.5,-55 724.5,-55 724.5,-37 676.5,-37"/>
<text text-anchor="start" x="679.5" y="-43.2" font-family="Helvetica,sans-Serif" font-size="11.00"> &#160;</text>
<polygon fill="#ffffff" stroke="transparent" points="724.5,-37 724.5,-55 787.5,-55 787.5,-37 724.5,-37"/>
<polygon fill="none" stroke="black" points="724.5,-37 724.5,-55 787.5,-55 787.5,-37 724.5,-37"/>
<text text-anchor="start" x="745.5" y="-43.2" font-family="Helvetica,sans-Serif" font-size="11.00">73 rows</text>
<polygon fill="#ffffff" stroke="transparent" points="787.5,-37 787.5,-55 827.5,-55 827.5,-37 787.5,-37"/>
<polygon fill="none" stroke="black" points="787.5,-37 787.5,-55 827.5,-55 827.5,-37 787.5,-37"/>
<text text-anchor="start" x="808.5" y="-43.2" font-family="Helvetica,sans-Serif" font-size="11.00">2 &gt;</text>
</a>
</g>
</g>
<!-- chroncontrolscal14c&#45;&gt;calibrationprograms -->
<g id="edge3" class="edge">
<title>chroncontrolscal14c:w&#45;&gt;calibrationprograms:e</title>
<path fill="none" stroke="black" d="M898.31,-84C872.14,-84 860.63,-84 828.5,-84"/>
<polygon fill="black" stroke="black" points="905,-84 913,-87.6 909,-84 913,-84 913,-84 913,-84 909,-84 913,-80.4 905,-84 905,-84"/>
<ellipse fill="none" stroke="black" cx="901.8" cy="-84" rx="3.2" ry="3.2"/>
</g>
<!-- geochronology -->
<g id="node5" class="node">
<title>geochronology</title>
<g id="a_node5"><a xlink:href="../../tables/geochronology.html" xlink:title="geochronology" target="_top">
<polygon fill="#ffffff" stroke="transparent" points="503,-453 503,-511 627,-511 627,-453 503,-453"/>
<polygon fill="#f5f5f5" stroke="transparent" points="503,-489 503,-511 627,-511 627,-489 503,-489"/>
<polygon fill="none" stroke="black" points="503,-489 503,-511 627,-511 627,-489 503,-489"/>
<text text-anchor="start" x="508" y="-498.2" font-family="Helvetica,sans-Serif" font-weight="bold" font-size="11.00">geochronology</text>
<text text-anchor="start" x="592" y="-497.2" font-family="Helvetica,sans-Serif" font-size="11.00">[table]</text>
<polygon fill="none" stroke="black" points="503,-471 503,-489 627,-489 627,-471 503,-471"/>
<text text-anchor="start" x="506" y="-477.2" font-family="Helvetica,sans-Serif" font-size="11.00">...</text>
<polygon fill="#ffffff" stroke="transparent" points="503,-453 503,-471 532,-471 532,-453 503,-453"/>
<polygon fill="none" stroke="black" points="503,-453 503,-471 532,-471 532,-453 503,-453"/>
<text text-anchor="start" x="506" y="-459.2" font-family="Helvetica,sans-Serif" font-size="11.00">&lt; 3</text>
<polygon fill="#ffffff" stroke="transparent" points="532,-453 532,-471 601,-471 601,-453 532,-453"/>
<polygon fill="none" stroke="black" points="532,-453 532,-471 601,-471 601,-453 532,-453"/>
<text text-anchor="start" x="538" y="-459.2" font-family="Helvetica,sans-Serif" font-size="11.00">41,130 rows</text>
<polygon fill="#ffffff" stroke="transparent" points="601,-453 601,-471 627,-471 627,-453 601,-453"/>
<polygon fill="none" stroke="black" points="601,-453 601,-471 627,-471 627,-453 601,-453"/>
<text text-anchor="start" x="608" y="-459.2" font-family="Helvetica,sans-Serif" font-size="11.00">4 &gt;</text>
</a>
</g>
</g>
<!-- samples -->
<g id="node6" class="node">
<title>samples</title>
<g id="a_node6"><a xlink:href="../../tables/samples.html" xlink:title="samples" target="_top">
<polygon fill="#ffffff" stroke="transparent" points="338,-321 338,-379 454,-379 454,-321 338,-321"/>
<polygon fill="#f5f5f5" stroke="transparent" points="338,-357 338,-379 454,-379 454,-357 338,-357"/>
<polygon fill="none" stroke="black" points="338,-357 338,-379 454,-379 454,-357 338,-357"/>
<text text-anchor="start" x="343" y="-366.2" font-family="Helvetica,sans-Serif" font-weight="bold" font-size="11.00">samples</text>
<text text-anchor="start" x="419" y="-365.2" font-family="Helvetica,sans-Serif" font-size="11.00">[table]</text>
<polygon fill="none" stroke="black" points="338,-339 338,-357 454,-357 454,-339 338,-339"/>
<text text-anchor="start" x="341" y="-345.2" font-family="Helvetica,sans-Serif" font-size="11.00">...</text>
<polygon fill="#ffffff" stroke="transparent" points="338,-321 338,-339 360,-339 360,-321 338,-321"/>
<polygon fill="none" stroke="black" points="338,-321 338,-339 360,-339 360,-321 338,-321"/>
<text text-anchor="start" x="341" y="-327.2" font-family="Helvetica,sans-Serif" font-size="11.00">&lt; 3</text>
<polygon fill="#ffffff" stroke="transparent" points="360,-321 360,-339 432,-339 432,-321 360,-321"/>
<polygon fill="none" stroke="black" points="360,-321 360,-339 432,-339 432,-321 360,-321"/>
<text text-anchor="start" x="363" y="-327.2" font-family="Helvetica,sans-Serif" font-size="11.00">541,654 rows</text>
<polygon fill="#ffffff" stroke="transparent" points="432,-321 432,-339 454,-339 454,-321 432,-321"/>
<polygon fill="none" stroke="black" points="432,-321 432,-339 454,-339 454,-321 432,-321"/>
<text text-anchor="start" x="435" y="-327.2" font-family="Helvetica,sans-Serif" font-size="11.00">7 &gt;</text>
</a>
</g>
</g>
<!-- geochronology&#45;&gt;samples -->
<g id="edge4" class="edge">
<title>geochronology:w&#45;&gt;samples:e</title>
<path fill="none" stroke="black" d="M487.94,-476.74C453.04,-456.41 511.44,-348 455,-348"/>
<polygon fill="black" stroke="black" points="494.21,-478.19 501.19,-483.51 498.1,-479.1 502,-480 502,-480 502,-480 498.1,-479.1 502.81,-476.49 494.21,-478.19 494.21,-478.19"/>
<ellipse fill="none" stroke="black" cx="491.09" cy="-477.47" rx="3.2" ry="3.2"/>
</g>
<!-- taxa -->
<g id="node7" class="node">
<title>taxa</title>
<g id="a_node7"><a xlink:href="../../tables/taxa.html" xlink:title="taxa" target="_top">
<polygon fill="#ffffff" stroke="transparent" points="173,-321 173,-379 289,-379 289,-321 173,-321"/>
<polygon fill="#f5f5f5" stroke="transparent" points="173,-357 173,-379 289,-379 289,-357 173,-357"/>
<polygon fill="none" stroke="black" points="173,-357 173,-379 289,-379 289,-357 173,-357"/>
<text text-anchor="start" x="178" y="-366.2" font-family="Helvetica,sans-Serif" font-weight="bold" font-size="11.00">taxa</text>
<text text-anchor="start" x="254" y="-365.2" font-family="Helvetica,sans-Serif" font-size="11.00">[table]</text>
<polygon fill="none" stroke="black" points="173,-339 173,-357 289,-357 289,-339 173,-339"/>
<text text-anchor="start" x="176" y="-345.2" font-family="Helvetica,sans-Serif" font-size="11.00">...</text>
<polygon fill="#ffffff" stroke="transparent" points="173,-321 173,-339 195,-339 195,-321 173,-321"/>
<polygon fill="none" stroke="black" points="173,-321 173,-339 195,-339 195,-321 173,-321"/>
<text text-anchor="start" x="176" y="-327.2" font-family="Helvetica,sans-Serif" font-size="11.00">&lt; 4</text>
<polygon fill="#ffffff" stroke="transparent" points="195,-321 195,-339 261,-339 261,-321 195,-321"/>
<polygon fill="none" stroke="black" points="195,-321 195,-339 261,-339 261,-321 195,-321"/>
<text text-anchor="start" x="198" y="-327.2" font-family="Helvetica,sans-Serif" font-size="11.00">47,314 rows</text>
<polygon fill="#ffffff" stroke="transparent" points="261,-321 261,-339 289,-339 289,-321 261,-321"/>
<polygon fill="none" stroke="black" points="261,-321 261,-339 289,-339 289,-321 261,-321"/>
<text text-anchor="start" x="264" y="-327.2" font-family="Helvetica,sans-Serif" font-size="11.00">17 &gt;</text>
</a>
</g>
</g>
<!-- samples&#45;&gt;taxa -->
<g id="edge5" class="edge">
<title>samples:w&#45;&gt;taxa:e</title>
<path fill="none" stroke="black" d="M322.4,-348C311.93,-348 305.01,-348 290,-348"/>
<polygon fill="black" stroke="black" points="329,-348 337,-351.6 333,-348 337,-348 337,-348 337,-348 333,-348 337,-344.4 329,-348 329,-348"/>
<ellipse fill="none" stroke="black" cx="325.8" cy="-348" rx="3.2" ry="3.2"/>
</g>
<!-- taxa&#45;&gt;publications -->
<g id="edge16" class="edge">
<title>taxa:w&#45;&gt;publications:e</title>
<path fill="none" stroke="black" d="M158.21,-343.24C139.6,-326.01 160.12,-268 125,-268"/>
<polygon fill="black" stroke="black" points="164.44,-345.39 170.82,-351.4 168.22,-346.69 172,-348 172,-348 172,-348 168.22,-346.69 173.18,-344.6 164.44,-345.39 164.44,-345.39"/>
<ellipse fill="none" stroke="black" cx="161.41" cy="-344.34" rx="3.2" ry="3.2"/>
</g>
<!-- specimendates -->
<g id="node8" class="node">
<title>specimendates</title>
<g id="a_node8"><a xlink:href="../../tables/specimendates.html" xlink:title="specimendates" target="_top">
<polygon fill="#ffffff" stroke="transparent" points="690,-261 690,-473 813,-473 813,-261 690,-261"/>
<polygon fill="#f5f5f5" stroke="transparent" points="690.5,-451 690.5,-473 813.5,-473 813.5,-451 690.5,-451"/>
<polygon fill="none" stroke="black" points="690.5,-451 690.5,-473 813.5,-473 813.5,-451 690.5,-451"/>
<text text-anchor="start" x="695.5" y="-460.2" font-family="Helvetica,sans-Serif" font-weight="bold" font-size="11.00">specimendates</text>
<text text-anchor="start" x="778.5" y="-459.2" font-family="Helvetica,sans-Serif" font-size="11.00">[table]</text>
<polygon fill="none" stroke="black" points="690.5,-429 690.5,-451 813.5,-451 813.5,-429 690.5,-429"/>
<image xlink:href="../../images/primaryKeys.png" width="11px" height="12px" preserveAspectRatio="xMinYMin meet" x="695.5" y="-446"/>
<text text-anchor="start" x="712.5" y="-437.2" font-family="Helvetica,sans-Serif" font-size="11.00">specimendateid</text>
<polygon fill="none" stroke="black" points="690.5,-407 690.5,-429 813.5,-429 813.5,-407 690.5,-407"/>
<image xlink:href="../../images/foreignKeys.png" width="11px" height="12px" preserveAspectRatio="xMinYMin meet" x="695.5" y="-424"/>
<text text-anchor="start" x="712.5" y="-415.2" font-family="Helvetica,sans-Serif" font-size="11.00">geochronid</text>
<polygon fill="#ffffff" stroke="transparent" points="690.5,-385 690.5,-407 813.5,-407 813.5,-385 690.5,-385"/>
<polygon fill="none" stroke="black" points="690.5,-385 690.5,-407 813.5,-407 813.5,-385 690.5,-385"/>
<image xlink:href="../../images/foreignKeys.png" width="11px" height="12px" preserveAspectRatio="xMinYMin meet" x="695.5" y="-402"/>
<text text-anchor="start" x="712.5" y="-393.2" font-family="Helvetica,sans-Serif" font-size="11.00">taxonid</text>
<polygon fill="none" stroke="black" points="690.5,-363 690.5,-385 813.5,-385 813.5,-363 690.5,-363"/>
<image xlink:href="../../images/foreignKeys.png" width="11px" height="12px" preserveAspectRatio="xMinYMin meet" x="695.5" y="-380"/>
<text text-anchor="start" x="712.5" y="-371.2" font-family="Helvetica,sans-Serif" font-size="11.00">fractionid</text>
<polygon fill="#ffffff" stroke="transparent" points="690.5,-341 690.5,-363 813.5,-363 813.5,-341 690.5,-341"/>
<polygon fill="none" stroke="black" points="690.5,-341 690.5,-363 813.5,-363 813.5,-341 690.5,-341"/>
<image xlink:href="../../images/foreignKeys.png" width="11px" height="12px" preserveAspectRatio="xMinYMin meet" x="695.5" y="-358"/>
<text text-anchor="start" x="712.5" y="-349.2" font-family="Helvetica,sans-Serif" font-size="11.00">sampleid</text>
<polygon fill="none" stroke="black" points="690.5,-319 690.5,-341 813.5,-341 813.5,-319 690.5,-319"/>
<image xlink:href="../../images/foreignKeys.png" width="11px" height="12px" preserveAspectRatio="xMinYMin meet" x="695.5" y="-336"/>
<text text-anchor="start" x="712.5" y="-327.2" font-family="Helvetica,sans-Serif" font-size="11.00">elementtypeid</text>
<polygon fill="none" stroke="black" points="690.5,-297 690.5,-319 813.5,-319 813.5,-297 690.5,-297"/>
<image xlink:href="../../images/foreignKeys.png" width="11px" height="12px" preserveAspectRatio="xMinYMin meet" x="695.5" y="-314"/>
<text text-anchor="start" x="712.5" y="-305.2" font-family="Helvetica,sans-Serif" font-size="11.00">specimenid</text>
<polygon fill="none" stroke="black" points="690.5,-279 690.5,-297 813.5,-297 813.5,-279 690.5,-279"/>
<text text-anchor="start" x="693.5" y="-285.2" font-family="Helvetica,sans-Serif" font-size="11.00">...</text>
<polygon fill="#ffffff" stroke="transparent" points="690.5,-261 690.5,-279 721.5,-279 721.5,-261 690.5,-261"/>
<polygon fill="none" stroke="black" points="690.5,-261 690.5,-279 721.5,-279 721.5,-261 690.5,-261"/>
<text text-anchor="start" x="693.5" y="-267.2" font-family="Helvetica,sans-Serif" font-size="11.00">&lt; 6</text>
<polygon fill="#ffffff" stroke="transparent" points="721.5,-261 721.5,-279 786.5,-279 786.5,-261 721.5,-261"/>
<polygon fill="none" stroke="black" points="721.5,-261 721.5,-279 786.5,-279 786.5,-261 721.5,-261"/>
<text text-anchor="start" x="729.5" y="-267.2" font-family="Helvetica,sans-Serif" font-size="11.00">2,662 rows</text>
<polygon fill="#ffffff" stroke="transparent" points="786.5,-261 786.5,-279 813.5,-279 813.5,-261 786.5,-261"/>
<polygon fill="none" stroke="black" points="786.5,-261 786.5,-279 813.5,-279 813.5,-261 786.5,-261"/>
<text text-anchor="start" x="794.5" y="-267.2" font-family="Helvetica,sans-Serif" font-size="11.00">1 &gt;</text>
</a>
</g>
</g>
<!-- specimendates&#45;&gt;geochronology -->
<g id="edge8" class="edge">
<title>specimendates:w&#45;&gt;geochronology:e</title>
<path fill="none" stroke="black" d="M675.49,-421.69C654.26,-435.04 661.05,-480 628,-480"/>
<polygon fill="black" stroke="black" points="681.76,-420.04 690.42,-421.48 685.63,-419.02 689.5,-418 689.5,-418 689.5,-418 685.63,-419.02 688.58,-414.52 681.76,-420.04 681.76,-420.04"/>
<ellipse fill="none" stroke="black" cx="678.67" cy="-420.85" rx="3.2" ry="3.2"/>
</g>
<!-- specimendates&#45;&gt;samples -->
<g id="edge9" class="edge">
<title>specimendates:w&#45;&gt;samples:e</title>
<path fill="none" stroke="black" d="M675.13,-350.44C661.3,-347.15 654.26,-339.6 635,-337 573.34,-328.67 556.66,-328.68 495,-337 476.73,-339.47 473.44,-348 455,-348"/>
<polygon fill="black" stroke="black" points="681.55,-351.14 689.11,-355.58 685.52,-351.57 689.5,-352 689.5,-352 689.5,-352 685.52,-351.57 689.89,-348.42 681.55,-351.14 681.55,-351.14"/>
<ellipse fill="none" stroke="black" cx="678.37" cy="-350.79" rx="3.2" ry="3.2"/>
</g>
<!-- specimendates&#45;&gt;taxa -->
<g id="edge11" class="edge">
<title>specimendates:w&#45;&gt;taxa:e</title>
<path fill="none" stroke="black" d="M674.91,-398.08C661.07,-402.45 654.65,-412.51 635,-416 573.74,-426.89 557.03,-420.86 495,-416 420.99,-410.2 395.74,-424.48 330,-390 307.17,-378.03 315.78,-348 290,-348"/>
<polygon fill="black" stroke="black" points="681.58,-397.13 690.01,-399.56 685.54,-396.56 689.5,-396 689.5,-396 689.5,-396 685.54,-396.56 688.99,-392.44 681.58,-397.13 681.58,-397.13"/>
<ellipse fill="none" stroke="black" cx="678.41" cy="-397.58" rx="3.2" ry="3.2"/>
</g>
<!-- elementtypes -->
<g id="node9" class="node">
<title>elementtypes</title>
<g id="a_node9"><a xlink:href="../../tables/elementtypes.html" xlink:title="elementtypes" target="_top">
<polygon fill="#ffffff" stroke="transparent" points="339,-241 339,-299 453,-299 453,-241 339,-241"/>
<polygon fill="#f5f5f5" stroke="transparent" points="339,-277 339,-299 453,-299 453,-277 339,-277"/>
<polygon fill="none" stroke="black" points="339,-277 339,-299 453,-299 453,-277 339,-277"/>
<text text-anchor="start" x="344" y="-286.2" font-family="Helvetica,sans-Serif" font-weight="bold" font-size="11.00">elementtypes</text>
<text text-anchor="start" x="418" y="-285.2" font-family="Helvetica,sans-Serif" font-size="11.00">[table]</text>
<polygon fill="none" stroke="black" points="339,-259 339,-277 453,-277 453,-259 339,-259"/>
<text text-anchor="start" x="342" y="-265.2" font-family="Helvetica,sans-Serif" font-size="11.00">...</text>
<polygon fill="#ffffff" stroke="transparent" points="339,-241 339,-259 366,-259 366,-241 339,-241"/>
<polygon fill="none" stroke="black" points="339,-241 339,-259 366,-259 366,-241 339,-241"/>
<text text-anchor="start" x="342" y="-247.2" font-family="Helvetica,sans-Serif" font-size="11.00"> &#160;</text>
<polygon fill="#ffffff" stroke="transparent" points="366,-241 366,-259 424,-259 424,-241 366,-241"/>
<polygon fill="none" stroke="black" points="366,-241 366,-259 424,-259 424,-241 366,-241"/>
<text text-anchor="start" x="376" y="-247.2" font-family="Helvetica,sans-Serif" font-size="11.00">939 rows</text>
<polygon fill="#ffffff" stroke="transparent" points="424,-241 424,-259 453,-259 453,-241 424,-241"/>
<polygon fill="none" stroke="black" points="424,-241 424,-259 453,-259 453,-241 424,-241"/>
<text text-anchor="start" x="434" y="-247.2" font-family="Helvetica,sans-Serif" font-size="11.00">5 &gt;</text>
</a>
</g>
</g>
<!-- specimendates&#45;&gt;elementtypes -->
<g id="edge6" class="edge">
<title>specimendates:w&#45;&gt;elementtypes:e</title>
<path fill="none" stroke="black" d="M675.02,-329.8C598.04,-327.58 575.3,-307.3 495,-283 476.43,-277.38 473.4,-268 454,-268"/>
<polygon fill="black" stroke="black" points="681.5,-329.89 689.45,-333.6 685.5,-329.94 689.5,-330 689.5,-330 689.5,-330 685.5,-329.94 689.55,-326.4 681.5,-329.89 681.5,-329.89"/>
<ellipse fill="none" stroke="black" cx="678.3" cy="-329.84" rx="3.2" ry="3.2"/>
</g>
<!-- fractiondated -->
<g id="node10" class="node">
<title>fractiondated</title>
<g id="a_node10"><a xlink:href="../../tables/fractiondated.html" xlink:title="fractiondated" target="_top">
<polygon fill="#ffffff" stroke="transparent" points="508,-347 508,-405 622,-405 622,-347 508,-347"/>
<polygon fill="#f5f5f5" stroke="transparent" points="508,-383 508,-405 622,-405 622,-383 508,-383"/>
<polygon fill="none" stroke="black" points="508,-383 508,-405 622,-405 622,-383 508,-383"/>
<text text-anchor="start" x="513" y="-392.2" font-family="Helvetica,sans-Serif" font-weight="bold" font-size="11.00">fractiondated</text>
<text text-anchor="start" x="587" y="-391.2" font-family="Helvetica,sans-Serif" font-size="11.00">[table]</text>
<polygon fill="none" stroke="black" points="508,-365 508,-383 622,-383 622,-365 508,-365"/>
<text text-anchor="start" x="511" y="-371.2" font-family="Helvetica,sans-Serif" font-size="11.00">...</text>
<polygon fill="#ffffff" stroke="transparent" points="508,-347 508,-365 538,-365 538,-347 508,-347"/>
<polygon fill="none" stroke="black" points="508,-347 508,-365 538,-365 538,-347 508,-347"/>
<text text-anchor="start" x="511" y="-353.2" font-family="Helvetica,sans-Serif" font-size="11.00"> &#160;</text>
<polygon fill="#ffffff" stroke="transparent" points="538,-347 538,-365 591,-365 591,-347 538,-347"/>
<polygon fill="none" stroke="black" points="538,-347 538,-365 591,-365 591,-347 538,-347"/>
<text text-anchor="start" x="549" y="-353.2" font-family="Helvetica,sans-Serif" font-size="11.00">29 rows</text>
<polygon fill="#ffffff" stroke="transparent" points="591,-347 591,-365 622,-365 622,-347 591,-347"/>
<polygon fill="none" stroke="black" points="591,-347 591,-365 622,-365 622,-347 591,-347"/>
<text text-anchor="start" x="603" y="-353.2" font-family="Helvetica,sans-Serif" font-size="11.00">1 &gt;</text>
</a>
</g>
</g>
<!-- specimendates&#45;&gt;fractiondated -->
<g id="edge7" class="edge">
<title>specimendates:w&#45;&gt;fractiondated:e</title>
<path fill="none" stroke="black" d="M674.92,-374C656.39,-374 647.01,-374 623,-374"/>
<polygon fill="black" stroke="black" points="681.5,-374 689.5,-377.6 685.5,-374 689.5,-374 689.5,-374 689.5,-374 685.5,-374 689.5,-370.4 681.5,-374 681.5,-374"/>
<ellipse fill="none" stroke="black" cx="678.3" cy="-374" rx="3.2" ry="3.2"/>
</g>
<!-- specimens -->
<g id="node11" class="node">
<title>specimens</title>
<g id="a_node11"><a xlink:href="../../tables/specimens.html" xlink:title="specimens" target="_top">
<polygon fill="#ffffff" stroke="transparent" points="513,-214 513,-272 617,-272 617,-214 513,-214"/>
<polygon fill="#f5f5f5" stroke="transparent" points="513,-250 513,-272 617,-272 617,-250 513,-250"/>
<polygon fill="none" stroke="black" points="513,-250 513,-272 617,-272 617,-250 513,-250"/>
<text text-anchor="start" x="518" y="-259.2" font-family="Helvetica,sans-Serif" font-weight="bold" font-size="11.00">specimens</text>
<text text-anchor="start" x="582" y="-258.2" font-family="Helvetica,sans-Serif" font-size="11.00">[table]</text>
<polygon fill="none" stroke="black" points="513,-232 513,-250 617,-250 617,-232 513,-232"/>
<text text-anchor="start" x="516" y="-238.2" font-family="Helvetica,sans-Serif" font-size="11.00">...</text>
<polygon fill="#ffffff" stroke="transparent" points="513,-214 513,-232 535,-232 535,-214 513,-214"/>
<polygon fill="none" stroke="black" points="513,-214 513,-232 535,-232 535,-214 513,-214"/>
<text text-anchor="start" x="516" y="-220.2" font-family="Helvetica,sans-Serif" font-size="11.00">&lt; 8</text>
<polygon fill="#ffffff" stroke="transparent" points="535,-214 535,-232 595,-232 595,-214 535,-214"/>
<polygon fill="none" stroke="black" points="535,-214 535,-232 595,-232 595,-214 535,-214"/>
<text text-anchor="start" x="538" y="-220.2" font-family="Helvetica,sans-Serif" font-size="11.00">3,453 rows</text>
<polygon fill="#ffffff" stroke="transparent" points="595,-214 595,-232 617,-232 617,-214 595,-214"/>
<polygon fill="none" stroke="black" points="595,-214 595,-232 617,-232 617,-214 595,-214"/>
<text text-anchor="start" x="598" y="-220.2" font-family="Helvetica,sans-Serif" font-size="11.00">4 &gt;</text>
</a>
</g>
</g>
<!-- specimendates&#45;&gt;specimens -->
<g id="edge10" class="edge">
<title>specimendates:w&#45;&gt;specimens:e</title>
<path fill="none" stroke="black" d="M675.35,-304.95C648.99,-291.84 655.94,-241 618,-241"/>
<polygon fill="black" stroke="black" points="681.68,-306.31 688.74,-311.52 685.59,-307.16 689.5,-308 689.5,-308 689.5,-308 685.59,-307.16 690.26,-304.48 681.68,-306.31 681.68,-306.31"/>
<ellipse fill="none" stroke="black" cx="678.55" cy="-305.64" rx="3.2" ry="3.2"/>
</g>
<!-- specimens&#45;&gt;elementtypes -->
<g id="edge15" class="edge">
<title>specimens:w&#45;&gt;elementtypes:e</title>
<path fill="none" stroke="black" d="M497.59,-243.89C481.98,-250.85 476.66,-268 454,-268"/>
<polygon fill="black" stroke="black" points="504.16,-242.57 512.71,-244.53 508.08,-241.79 512,-241 512,-241 512,-241 508.08,-241.79 511.29,-237.47 504.16,-242.57 504.16,-242.57"/>
<ellipse fill="none" stroke="black" cx="501.02" cy="-243.2" rx="3.2" ry="3.2"/>
</g>
<!-- specimendatescal -->
<g id="node12" class="node">
<title>specimendatescal</title>
<g id="a_node12"><a xlink:href="../../tables/specimendatescal.html" xlink:title="specimendatescal" target="_top">
<polygon fill="#ffffff" stroke="transparent" points="876,-136 876,-400 1104,-400 1104,-136 876,-136"/>
<polygon fill="#f5f5f5" stroke="transparent" points="878,-376 878,-398 1102,-398 1102,-376 878,-376"/>
<polygon fill="none" stroke="black" points="878,-376 878,-398 1102,-398 1102,-376 878,-376"/>
<text text-anchor="start" x="883" y="-385.2" font-family="Helvetica,sans-Serif" font-weight="bold" font-size="11.00">specimendatescal</text>
<text text-anchor="start" x="1067" y="-384.2" font-family="Helvetica,sans-Serif" font-size="11.00">[table]</text>
<polygon fill="none" stroke="black" points="878,-354 878,-376 1028,-376 1028,-354 878,-354"/>
<image xlink:href="../../images/primaryKeys.png" width="11px" height="12px" preserveAspectRatio="xMinYMin meet" x="883" y="-371"/>
<text text-anchor="start" x="898" y="-362.2" font-family="Helvetica,sans-Serif" font-size="11.00">specimendatecalid</text>
<polygon fill="none" stroke="black" points="1028,-354 1028,-376 1102,-376 1102,-354 1028,-354"/>
<text text-anchor="start" x="1031" y="-362.2" font-family="Helvetica,sans-Serif" font-size="11.00">serial[10]</text>
<polygon fill="none" stroke="black" points="878,-332 878,-354 1028,-354 1028,-332 878,-332"/>
<image xlink:href="../../images/foreignKeys.png" width="11px" height="12px" preserveAspectRatio="xMinYMin meet" x="883" y="-349"/>
<text text-anchor="start" x="898" y="-340.2" font-family="Helvetica,sans-Serif" font-size="11.00">specimendateid</text>
<polygon fill="none" stroke="black" points="1028,-332 1028,-354 1102,-354 1102,-332 1028,-332"/>
<text text-anchor="start" x="1031" y="-340.2" font-family="Helvetica,sans-Serif" font-size="11.00">int4[10]</text>
<polygon fill="none" stroke="black" points="878,-310 878,-332 1028,-332 1028,-310 878,-310"/>
<text text-anchor="start" x="898" y="-318.2" font-family="Helvetica,sans-Serif" font-size="11.00">calage</text>
<polygon fill="none" stroke="black" points="1028,-310 1028,-332 1102,-332 1102,-310 1028,-310"/>
<text text-anchor="start" x="1031" y="-318.2" font-family="Helvetica,sans-Serif" font-size="11.00">float8[17,17]</text>
<polygon fill="none" stroke="black" points="878,-288 878,-310 1028,-310 1028,-288 878,-288"/>
<text text-anchor="start" x="898" y="-296.2" font-family="Helvetica,sans-Serif" font-size="11.00">calageolder</text>
<polygon fill="none" stroke="black" points="1028,-288 1028,-310 1102,-310 1102,-288 1028,-288"/>
<text text-anchor="start" x="1031" y="-296.2" font-family="Helvetica,sans-Serif" font-size="11.00">float8[17,17]</text>
<polygon fill="none" stroke="black" points="878,-266 878,-288 1028,-288 1028,-266 878,-266"/>
<text text-anchor="start" x="898" y="-274.2" font-family="Helvetica,sans-Serif" font-size="11.00">calageyounger</text>
<polygon fill="none" stroke="black" points="1028,-266 1028,-288 1102,-288 1102,-266 1028,-266"/>
<text text-anchor="start" x="1031" y="-274.2" font-family="Helvetica,sans-Serif" font-size="11.00">float8[17,17]</text>
<polygon fill="none" stroke="black" points="878,-244 878,-266 1028,-266 1028,-244 878,-244"/>
<image xlink:href="../../images/foreignKeys.png" width="11px" height="12px" preserveAspectRatio="xMinYMin meet" x="883" y="-261"/>
<text text-anchor="start" x="898" y="-252.2" font-family="Helvetica,sans-Serif" font-size="11.00">calibrationcurveid</text>
<polygon fill="none" stroke="black" points="1028,-244 1028,-266 1102,-266 1102,-244 1028,-244"/>
<text text-anchor="start" x="1031" y="-252.2" font-family="Helvetica,sans-Serif" font-size="11.00">int4[10]</text>
<polygon fill="none" stroke="black" points="878,-222 878,-244 1028,-244 1028,-222 878,-222"/>
<image xlink:href="../../images/foreignKeys.png" width="11px" height="12px" preserveAspectRatio="xMinYMin meet" x="883" y="-239"/>
<text text-anchor="start" x="898" y="-230.2" font-family="Helvetica,sans-Serif" font-size="11.00">calibrationprogramid</text>
<polygon fill="none" stroke="black" points="1028,-222 1028,-244 1102,-244 1102,-222 1028,-222"/>
<text text-anchor="start" x="1031" y="-230.2" font-family="Helvetica,sans-Serif" font-size="11.00">int4[10]</text>
<polygon fill="none" stroke="black" points="878,-200 878,-222 1028,-222 1028,-200 878,-200"/>
<text text-anchor="start" x="898" y="-208.2" font-family="Helvetica,sans-Serif" font-size="11.00">datecalibrated</text>
<polygon fill="none" stroke="black" points="1028,-200 1028,-222 1102,-222 1102,-200 1028,-200"/>
<text text-anchor="start" x="1031" y="-208.2" font-family="Helvetica,sans-Serif" font-size="11.00">date[13]</text>
<polygon fill="none" stroke="black" points="878,-178 878,-200 1028,-200 1028,-178 878,-178"/>
<text text-anchor="start" x="898" y="-186.2" font-family="Helvetica,sans-Serif" font-size="11.00">recdatecreated</text>
<polygon fill="none" stroke="black" points="1028,-178 1028,-200 1102,-200 1102,-178 1028,-178"/>
<text text-anchor="start" x="1031" y="-186.2" font-family="Helvetica,sans-Serif" font-size="11.00">timestamp[22]</text>
<polygon fill="none" stroke="black" points="878,-156 878,-178 1028,-178 1028,-156 878,-156"/>
<text text-anchor="start" x="898" y="-164.2" font-family="Helvetica,sans-Serif" font-size="11.00">recdatemodified</text>
<polygon fill="none" stroke="black" points="1028,-156 1028,-178 1102,-178 1102,-156 1028,-156"/>
<text text-anchor="start" x="1031" y="-164.2" font-family="Helvetica,sans-Serif" font-size="11.00">timestamp[22]</text>
<polygon fill="#ffffff" stroke="transparent" points="878,-138 878,-156 934,-156 934,-138 878,-138"/>
<polygon fill="none" stroke="black" points="878,-138 878,-156 934,-156 934,-138 878,-138"/>
<text text-anchor="start" x="881" y="-144.2" font-family="Helvetica,sans-Serif" font-size="11.00">&lt; 3</text>
<polygon fill="#ffffff" stroke="transparent" points="934,-138 934,-156 1028,-156 1028,-138 934,-138"/>
<polygon fill="none" stroke="black" points="934,-138 934,-156 1028,-156 1028,-138 934,-138"/>
<text text-anchor="start" x="971" y="-144.2" font-family="Helvetica,sans-Serif" font-size="11.00">2,605 rows</text>
<polygon fill="#ffffff" stroke="transparent" points="1028,-138 1028,-156 1102,-156 1102,-138 1028,-138"/>
<polygon fill="none" stroke="black" points="1028,-138 1028,-156 1102,-156 1102,-138 1028,-138"/>
<text text-anchor="start" x="1083" y="-144.2" font-family="Helvetica,sans-Serif" font-size="11.00">0 &gt;</text>
<polygon fill="none" stroke="black" stroke-width="2" points="877,-137 877,-399 1103,-399 1103,-137 877,-137"/>
</a>
</g>
</g>
<!-- specimendatescal&#45;&gt;calibrationcurves -->
<g id="edge12" class="edge">
<title>specimendatescal:w&#45;&gt;calibrationcurves:e</title>
<path fill="none" stroke="black" d="M862.85,-250.91C846.06,-239.3 847.53,-207 820.5,-207"/>
<polygon fill="black" stroke="black" points="869.31,-252.78 876,-258.46 873.16,-253.89 877,-255 877,-255 877,-255 873.16,-253.89 878,-251.54 869.31,-252.78 869.31,-252.78"/>
<ellipse fill="none" stroke="black" cx="866.24" cy="-251.89" rx="3.2" ry="3.2"/>
</g>
<!-- specimendatescal&#45;&gt;calibrationprograms -->
<g id="edge13" class="edge">
<title>specimendatescal:w&#45;&gt;calibrationprograms:e</title>
<path fill="none" stroke="black" d="M862.66,-230.02C821.48,-209.02 892.29,-84 828.5,-84"/>
<polygon fill="black" stroke="black" points="869.17,-231.37 876.27,-236.52 873.08,-232.19 877,-233 877,-233 877,-233 873.08,-232.19 877.73,-229.48 869.17,-231.37 869.17,-231.37"/>
<ellipse fill="none" stroke="black" cx="866.03" cy="-230.72" rx="3.2" ry="3.2"/>
</g>
<!-- specimendatescal&#45;&gt;specimendates -->
<g id="edge14" class="edge">
<title>specimendatescal:w&#45;&gt;specimendates:e</title>
<path fill="none" stroke="black" d="M862.82,-346.45C833.62,-363.73 859.98,-440 814.5,-440"/>
<polygon fill="black" stroke="black" points="869.23,-344.89 877.85,-346.5 873.11,-343.95 877,-343 877,-343 877,-343 873.11,-343.95 876.15,-339.5 869.23,-344.89 869.23,-344.89"/>
<ellipse fill="none" stroke="black" cx="866.12" cy="-345.65" rx="3.2" ry="3.2"/>
</g>
</g>
</svg>
