<?xml version="1.0" encoding="UTF-8" standalone="no"?>
<!DOCTYPE svg PUBLIC "-//W3C//DTD SVG 1.1//EN"
 "http://www.w3.org/Graphics/SVG/1.1/DTD/svg11.dtd">
<!-- Generated by graphviz version 2.43.0 (0)
 -->
<!-- Title: oneDegreeRelationshipsDiagram Pages: 1 -->
<svg width="405pt" height="311pt"
 viewBox="0.00 0.00 405.00 311.00" xmlns="http://www.w3.org/2000/svg" xmlns:xlink="http://www.w3.org/1999/xlink">
<g id="graph0" class="graph" transform="scale(1 1) rotate(0) translate(4 307)">
<title>oneDegreeRelationshipsDiagram</title>
<polygon fill="#ffffff" stroke="transparent" points="-4,4 -4,-307 401,-307 401,4 -4,4"/>
<text text-anchor="middle" x="71.5" y="-7.2" font-family="Helvetica,sans-Serif" font-size="11.00">Generated by SchemaSpy</text>
<!-- specimens -->
<g id="node1" class="node">
<title>specimens</title>
<g id="a_node1"><a xlink:href="../../tables/specimens.html" xlink:title="specimens" target="_top">
<polygon fill="#ffffff" stroke="transparent" points="265,-43 265,-299 389,-299 389,-43 265,-43"/>
<polygon fill="#f5f5f5" stroke="transparent" points="265,-277 265,-299 389,-299 389,-277 265,-277"/>
<polygon fill="none" stroke="black" points="265,-277 265,-299 389,-299 389,-277 265,-277"/>
<text text-anchor="start" x="270" y="-286.2" font-family="Helvetica,sans-Serif" font-weight="bold" font-size="11.00">specimens</text>
<text text-anchor="start" x="354" y="-285.2" font-family="Helvetica,sans-Serif" font-size="11.00">[table]</text>
<polygon fill="none" stroke="black" points="265,-255 265,-277 389,-277 389,-255 265,-255"/>
<image xlink:href="../../images/primaryKeys.png" width="11px" height="12px" preserveAspectRatio="xMinYMin meet" x="270" y="-272"/>
<text text-anchor="start" x="285" y="-263.2" font-family="Helvetica,sans-Serif" font-size="11.00">specimenid</text>
<polygon fill="none" stroke="black" points="265,-233 265,-255 389,-255 389,-233 265,-233"/>
<image xlink:href="../../images/foreignKeys.png" width="11px" height="12px" preserveAspectRatio="xMinYMin meet" x="270" y="-250"/>
<text text-anchor="start" x="285" y="-241.2" font-family="Helvetica,sans-Serif" font-size="11.00">dataid</text>
<polygon fill="none" stroke="black" points="265,-211 265,-233 389,-233 389,-211 265,-211"/>
<image xlink:href="../../images/foreignKeys.png" width="11px" height="12px" preserveAspectRatio="xMinYMin meet" x="270" y="-228"/>
<text text-anchor="start" x="285" y="-219.2" font-family="Helvetica,sans-Serif" font-size="11.00">elementtypeid</text>
<polygon fill="none" stroke="black" points="265,-189 265,-211 389,-211 389,-189 265,-189"/>
<image xlink:href="../../images/foreignKeys.png" width="11px" height="12px" preserveAspectRatio="xMinYMin meet" x="270" y="-206"/>
<text text-anchor="start" x="285" y="-197.2" font-family="Helvetica,sans-Serif" font-size="11.00">symmetryid</text>
<polygon fill="none" stroke="black" points="265,-167 265,-189 389,-189 389,-167 265,-167"/>
<image xlink:href="../../images/foreignKeys.png" width="11px" height="12px" preserveAspectRatio="xMinYMin meet" x="270" y="-184"/>
<text text-anchor="start" x="285" y="-175.2" font-family="Helvetica,sans-Serif" font-size="11.00">portionid</text>
<polygon fill="none" stroke="black" points="265,-145 265,-167 389,-167 389,-145 265,-145"/>
<image xlink:href="../../images/foreignKeys.png" width="11px" height="12px" preserveAspectRatio="xMinYMin meet" x="270" y="-162"/>
<text text-anchor="start" x="285" y="-153.2" font-family="Helvetica,sans-Serif" font-size="11.00">maturityid</text>
<polygon fill="none" stroke="black" points="265,-123 265,-145 389,-145 389,-123 265,-123"/>
<image xlink:href="../../images/foreignKeys.png" width="11px" height="12px" preserveAspectRatio="xMinYMin meet" x="270" y="-140"/>
<text text-anchor="start" x="285" y="-131.2" font-family="Helvetica,sans-Serif" font-size="11.00">sexid</text>
<polygon fill="none" stroke="black" points="265,-101 265,-123 389,-123 389,-101 265,-101"/>
<image xlink:href="../../images/foreignKeys.png" width="11px" height="12px" preserveAspectRatio="xMinYMin meet" x="270" y="-118"/>
<text text-anchor="start" x="285" y="-109.2" font-family="Helvetica,sans-Serif" font-size="11.00">domesticstatusid</text>
<polygon fill="none" stroke="black" points="265,-79 265,-101 389,-101 389,-79 265,-79"/>
<image xlink:href="../../images/foreignKeys.png" width="11px" height="12px" preserveAspectRatio="xMinYMin meet" x="270" y="-96"/>
<text text-anchor="start" x="285" y="-87.2" font-family="Helvetica,sans-Serif" font-size="11.00">repositoryid</text>
<polygon fill="none" stroke="black" points="265,-61 265,-79 389,-79 389,-61 265,-61"/>
<text text-anchor="start" x="268" y="-67.2" font-family="Helvetica,sans-Serif" font-size="11.00">...</text>
<polygon fill="#ffffff" stroke="transparent" points="265,-43 265,-61 297,-61 297,-43 265,-43"/>
<polygon fill="none" stroke="black" points="265,-43 265,-61 297,-61 297,-43 265,-43"/>
<text text-anchor="start" x="268" y="-49.2" font-family="Helvetica,sans-Serif" font-size="11.00">&lt; 8</text>
<polygon fill="#ffffff" stroke="transparent" points="297,-43 297,-61 362,-61 362,-43 297,-43"/>
<polygon fill="none" stroke="black" points="297,-43 297,-61 362,-61 362,-43 297,-43"/>
<text text-anchor="start" x="305" y="-49.2" font-family="Helvetica,sans-Serif" font-size="11.00">3,351 rows</text>
<polygon fill="#ffffff" stroke="transparent" points="362,-43 362,-61 389,-61 389,-43 362,-43"/>
<polygon fill="none" stroke="black" points="362,-43 362,-61 389,-61 389,-43 362,-43"/>
<text text-anchor="start" x="370" y="-49.2" font-family="Helvetica,sans-Serif" font-size="11.00">4 &gt;</text>
</a>
</g>
</g>
<!-- specimensextypes -->
<g id="node2" class="node">
<title>specimensextypes</title>
<g id="a_node2"><a xlink:href="../../tables/specimensextypes.html" xlink:title="specimensextypes" target="_top">
<polygon fill="#ffffff" stroke="transparent" points="8,-37 8,-169 216,-169 216,-37 8,-37"/>
<polygon fill="#f5f5f5" stroke="transparent" points="10,-145 10,-167 214,-167 214,-145 10,-145"/>
<polygon fill="none" stroke="black" points="10,-145 10,-167 214,-167 214,-145 10,-145"/>
<text text-anchor="start" x="15" y="-154.2" font-family="Helvetica,sans-Serif" font-weight="bold" font-size="11.00">specimensextypes</text>
<text text-anchor="start" x="179" y="-153.2" font-family="Helvetica,sans-Serif" font-size="11.00">[table]</text>
<polygon fill="none" stroke="black" points="10,-123 10,-145 140,-145 140,-123 10,-123"/>
<image xlink:href="../../images/primaryKeys.png" width="11px" height="12px" preserveAspectRatio="xMinYMin meet" x="15" y="-140"/>
<text text-anchor="start" x="30" y="-131.2" font-family="Helvetica,sans-Serif" font-size="11.00">sexid</text>
<polygon fill="none" stroke="black" points="140,-123 140,-145 214,-145 214,-123 140,-123"/>
<text text-anchor="start" x="143" y="-131.2" font-family="Helvetica,sans-Serif" font-size="11.00">serial[10]</text>
<polygon fill="none" stroke="black" points="10,-101 10,-123 140,-123 140,-101 10,-101"/>
<text text-anchor="start" x="30" y="-109.2" font-family="Helvetica,sans-Serif" font-size="11.00">sex</text>
<polygon fill="none" stroke="black" points="140,-101 140,-123 214,-123 214,-101 140,-101"/>
<text text-anchor="start" x="143" y="-109.2" font-family="Helvetica,sans-Serif" font-size="11.00">varchar[24]</text>
<polygon fill="none" stroke="black" points="10,-79 10,-101 140,-101 140,-79 10,-79"/>
<text text-anchor="start" x="30" y="-87.2" font-family="Helvetica,sans-Serif" font-size="11.00">recdatecreated</text>
<polygon fill="none" stroke="black" points="140,-79 140,-101 214,-101 214,-79 140,-79"/>
<text text-anchor="start" x="143" y="-87.2" font-family="Helvetica,sans-Serif" font-size="11.00">timestamp[22]</text>
<polygon fill="none" stroke="black" points="10,-57 10,-79 140,-79 140,-57 10,-57"/>
<text text-anchor="start" x="30" y="-65.2" font-family="Helvetica,sans-Serif" font-size="11.00">recdatemodified</text>
<polygon fill="none" stroke="black" points="140,-57 140,-79 214,-79 214,-57 140,-57"/>
<text text-anchor="start" x="143" y="-65.2" font-family="Helvetica,sans-Serif" font-size="11.00">timestamp[22]</text>
<polygon fill="#ffffff" stroke="transparent" points="10,-39 10,-57 66,-57 66,-39 10,-39"/>
<polygon fill="none" stroke="black" points="10,-39 10,-57 66,-57 66,-39 10,-39"/>
<text text-anchor="start" x="13" y="-45.2" font-family="Helvetica,sans-Serif" font-size="11.00">&lt; 0</text>
<polygon fill="#ffffff" stroke="transparent" points="66,-39 66,-57 140,-57 140,-39 66,-39"/>
<polygon fill="none" stroke="black" points="66,-39 66,-57 140,-57 140,-39 66,-39"/>
<text text-anchor="start" x="104" y="-45.2" font-family="Helvetica,sans-Serif" font-size="11.00">3 rows</text>
<polygon fill="#ffffff" stroke="transparent" points="140,-39 140,-57 214,-57 214,-39 140,-39"/>
<polygon fill="none" stroke="black" points="140,-39 140,-57 214,-57 214,-39 140,-39"/>
<text text-anchor="start" x="195" y="-45.2" font-family="Helvetica,sans-Serif" font-size="11.00">1 &gt;</text>
<polygon fill="none" stroke="black" stroke-width="2" points="9,-38 9,-168 215,-168 215,-38 9,-38"/>
</a>
</g>
</g>
<!-- specimens&#45;&gt;specimensextypes -->
<g id="edge1" class="edge">
<title>specimens:w&#45;&gt;specimensextypes:e</title>
<path fill="none" stroke="black" d="M249.49,-134C238.18,-134 230.99,-134 215,-134"/>
<polygon fill="black" stroke="black" points="256,-134 264,-137.6 260,-134 264,-134 264,-134 264,-134 260,-134 264,-130.4 256,-134 256,-134"/>
<ellipse fill="none" stroke="black" cx="252.8" cy="-134" rx="3.2" ry="3.2"/>
</g>
</g>
</svg>
