<?xml version="1.0" encoding="UTF-8" standalone="no"?>
<!DOCTYPE svg PUBLIC "-//W3C//DTD SVG 1.1//EN"
 "http://www.w3.org/Graphics/SVG/1.1/DTD/svg11.dtd">
<!-- Generated by graphviz version 2.43.0 (0)
 -->
<!-- Title: oneDegreeRelationshipsDiagram Pages: 1 -->
<svg width="445pt" height="428pt"
 viewBox="0.00 0.00 445.00 428.00" xmlns="http://www.w3.org/2000/svg" xmlns:xlink="http://www.w3.org/1999/xlink">
<g id="graph0" class="graph" transform="scale(1 1) rotate(0) translate(4 424)">
<title>oneDegreeRelationshipsDiagram</title>
<polygon fill="#ffffff" stroke="transparent" points="-4,4 -4,-424 441,-424 441,4 -4,4"/>
<text text-anchor="middle" x="71.5" y="-7.2" font-family="Helvetica,sans-Serif" font-size="11.00">Generated by SchemaSpy</text>
<!-- specimentaphonomy -->
<g id="node1" class="node">
<title>specimentaphonomy</title>
<g id="a_node1"><a xlink:href="../../tables/specimentaphonomy.html" xlink:title="specimentaphonomy" target="_top">
<polygon fill="#ffffff" stroke="transparent" points="204,-158 204,-290 429,-290 429,-158 204,-158"/>
<polygon fill="#f5f5f5" stroke="transparent" points="206.5,-266 206.5,-288 427.5,-288 427.5,-266 206.5,-266"/>
<polygon fill="none" stroke="black" points="206.5,-266 206.5,-288 427.5,-288 427.5,-266 206.5,-266"/>
<text text-anchor="start" x="211.5" y="-275.2" font-family="Helvetica,sans-Serif" font-weight="bold" font-size="11.00">specimentaphonomy</text>
<text text-anchor="start" x="392.5" y="-274.2" font-family="Helvetica,sans-Serif" font-size="11.00">[table]</text>
<polygon fill="none" stroke="black" points="206.5,-244 206.5,-266 353.5,-266 353.5,-244 206.5,-244"/>
<image xlink:href="../../images/primaryKeys.png" width="11px" height="12px" preserveAspectRatio="xMinYMin meet" x="211.5" y="-261"/>
<text text-anchor="start" x="226.5" y="-252.2" font-family="Helvetica,sans-Serif" font-size="11.00">specimenid</text>
<polygon fill="none" stroke="black" points="353.5,-244 353.5,-266 427.5,-266 427.5,-244 353.5,-244"/>
<text text-anchor="start" x="356.5" y="-252.2" font-family="Helvetica,sans-Serif" font-size="11.00">int4[10]</text>
<polygon fill="none" stroke="black" points="206.5,-222 206.5,-244 353.5,-244 353.5,-222 206.5,-222"/>
<image xlink:href="../../images/primaryKeys.png" width="11px" height="12px" preserveAspectRatio="xMinYMin meet" x="211.5" y="-239"/>
<text text-anchor="start" x="226.5" y="-230.2" font-family="Helvetica,sans-Serif" font-size="11.00">taphonomictypeid</text>
<polygon fill="none" stroke="black" points="353.5,-222 353.5,-244 427.5,-244 427.5,-222 353.5,-222"/>
<text text-anchor="start" x="356.5" y="-230.2" font-family="Helvetica,sans-Serif" font-size="11.00">int4[10]</text>
<polygon fill="none" stroke="black" points="206.5,-200 206.5,-222 353.5,-222 353.5,-200 206.5,-200"/>
<text text-anchor="start" x="226.5" y="-208.2" font-family="Helvetica,sans-Serif" font-size="11.00">recdatecreated</text>
<polygon fill="none" stroke="black" points="353.5,-200 353.5,-222 427.5,-222 427.5,-200 353.5,-200"/>
<text text-anchor="start" x="356.5" y="-208.2" font-family="Helvetica,sans-Serif" font-size="11.00">timestamp[22]</text>
<polygon fill="none" stroke="black" points="206.5,-178 206.5,-200 353.5,-200 353.5,-178 206.5,-178"/>
<text text-anchor="start" x="226.5" y="-186.2" font-family="Helvetica,sans-Serif" font-size="11.00">recdatemodified</text>
<polygon fill="none" stroke="black" points="353.5,-178 353.5,-200 427.5,-200 427.5,-178 353.5,-178"/>
<text text-anchor="start" x="356.5" y="-186.2" font-family="Helvetica,sans-Serif" font-size="11.00">timestamp[22]</text>
<polygon fill="#ffffff" stroke="transparent" points="206.5,-160 206.5,-178 265.5,-178 265.5,-160 206.5,-160"/>
<polygon fill="none" stroke="black" points="206.5,-160 206.5,-178 265.5,-178 265.5,-160 206.5,-160"/>
<text text-anchor="start" x="209.5" y="-166.2" font-family="Helvetica,sans-Serif" font-size="11.00">&lt; 2</text>
<polygon fill="#ffffff" stroke="transparent" points="265.5,-160 265.5,-178 353.5,-178 353.5,-160 265.5,-160"/>
<polygon fill="none" stroke="black" points="265.5,-160 265.5,-178 353.5,-178 353.5,-160 265.5,-160"/>
<text text-anchor="start" x="305.5" y="-166.2" font-family="Helvetica,sans-Serif" font-size="11.00">452 rows</text>
<polygon fill="#ffffff" stroke="transparent" points="353.5,-160 353.5,-178 427.5,-178 427.5,-160 353.5,-160"/>
<polygon fill="none" stroke="black" points="353.5,-160 353.5,-178 427.5,-178 427.5,-160 353.5,-160"/>
<text text-anchor="start" x="408.5" y="-166.2" font-family="Helvetica,sans-Serif" font-size="11.00">0 &gt;</text>
<polygon fill="none" stroke="black" stroke-width="2" points="205,-159 205,-289 428,-289 428,-159 205,-159"/>
</a>
</g>
</g>
<!-- specimens -->
<g id="node2" class="node">
<title>specimens</title>
<g id="a_node2"><a xlink:href="../../tables/specimens.html" xlink:title="specimens" target="_top">
<polygon fill="#ffffff" stroke="transparent" points="19.5,-160 19.5,-416 143.5,-416 143.5,-160 19.5,-160"/>
<polygon fill="#f5f5f5" stroke="transparent" points="19.5,-394 19.5,-416 143.5,-416 143.5,-394 19.5,-394"/>
<polygon fill="none" stroke="black" points="19.5,-394 19.5,-416 143.5,-416 143.5,-394 19.5,-394"/>
<text text-anchor="start" x="24.5" y="-403.2" font-family="Helvetica,sans-Serif" font-weight="bold" font-size="11.00">specimens</text>
<text text-anchor="start" x="108.5" y="-402.2" font-family="Helvetica,sans-Serif" font-size="11.00">[table]</text>
<polygon fill="none" stroke="black" points="19.5,-372 19.5,-394 143.5,-394 143.5,-372 19.5,-372"/>
<image xlink:href="../../images/primaryKeys.png" width="11px" height="12px" preserveAspectRatio="xMinYMin meet" x="24.5" y="-389"/>
<text text-anchor="start" x="39.5" y="-380.2" font-family="Helvetica,sans-Serif" font-size="11.00">specimenid</text>
<polygon fill="none" stroke="black" points="19.5,-350 19.5,-372 143.5,-372 143.5,-350 19.5,-350"/>
<image xlink:href="../../images/foreignKeys.png" width="11px" height="12px" preserveAspectRatio="xMinYMin meet" x="24.5" y="-367"/>
<text text-anchor="start" x="39.5" y="-358.2" font-family="Helvetica,sans-Serif" font-size="11.00">dataid</text>
<polygon fill="none" stroke="black" points="19.5,-328 19.5,-350 143.5,-350 143.5,-328 19.5,-328"/>
<image xlink:href="../../images/foreignKeys.png" width="11px" height="12px" preserveAspectRatio="xMinYMin meet" x="24.5" y="-345"/>
<text text-anchor="start" x="39.5" y="-336.2" font-family="Helvetica,sans-Serif" font-size="11.00">elementtypeid</text>
<polygon fill="none" stroke="black" points="19.5,-306 19.5,-328 143.5,-328 143.5,-306 19.5,-306"/>
<image xlink:href="../../images/foreignKeys.png" width="11px" height="12px" preserveAspectRatio="xMinYMin meet" x="24.5" y="-323"/>
<text text-anchor="start" x="39.5" y="-314.2" font-family="Helvetica,sans-Serif" font-size="11.00">symmetryid</text>
<polygon fill="none" stroke="black" points="19.5,-284 19.5,-306 143.5,-306 143.5,-284 19.5,-284"/>
<image xlink:href="../../images/foreignKeys.png" width="11px" height="12px" preserveAspectRatio="xMinYMin meet" x="24.5" y="-301"/>
<text text-anchor="start" x="39.5" y="-292.2" font-family="Helvetica,sans-Serif" font-size="11.00">portionid</text>
<polygon fill="none" stroke="black" points="19.5,-262 19.5,-284 143.5,-284 143.5,-262 19.5,-262"/>
<image xlink:href="../../images/foreignKeys.png" width="11px" height="12px" preserveAspectRatio="xMinYMin meet" x="24.5" y="-279"/>
<text text-anchor="start" x="39.5" y="-270.2" font-family="Helvetica,sans-Serif" font-size="11.00">maturityid</text>
<polygon fill="none" stroke="black" points="19.5,-240 19.5,-262 143.5,-262 143.5,-240 19.5,-240"/>
<image xlink:href="../../images/foreignKeys.png" width="11px" height="12px" preserveAspectRatio="xMinYMin meet" x="24.5" y="-257"/>
<text text-anchor="start" x="39.5" y="-248.2" font-family="Helvetica,sans-Serif" font-size="11.00">sexid</text>
<polygon fill="none" stroke="black" points="19.5,-218 19.5,-240 143.5,-240 143.5,-218 19.5,-218"/>
<image xlink:href="../../images/foreignKeys.png" width="11px" height="12px" preserveAspectRatio="xMinYMin meet" x="24.5" y="-235"/>
<text text-anchor="start" x="39.5" y="-226.2" font-family="Helvetica,sans-Serif" font-size="11.00">domesticstatusid</text>
<polygon fill="none" stroke="black" points="19.5,-196 19.5,-218 143.5,-218 143.5,-196 19.5,-196"/>
<image xlink:href="../../images/foreignKeys.png" width="11px" height="12px" preserveAspectRatio="xMinYMin meet" x="24.5" y="-213"/>
<text text-anchor="start" x="39.5" y="-204.2" font-family="Helvetica,sans-Serif" font-size="11.00">repositoryid</text>
<polygon fill="none" stroke="black" points="19.5,-178 19.5,-196 143.5,-196 143.5,-178 19.5,-178"/>
<text text-anchor="start" x="22.5" y="-184.2" font-family="Helvetica,sans-Serif" font-size="11.00">...</text>
<polygon fill="#ffffff" stroke="transparent" points="19.5,-160 19.5,-178 51.5,-178 51.5,-160 19.5,-160"/>
<polygon fill="none" stroke="black" points="19.5,-160 19.5,-178 51.5,-178 51.5,-160 19.5,-160"/>
<text text-anchor="start" x="22.5" y="-166.2" font-family="Helvetica,sans-Serif" font-size="11.00">&lt; 8</text>
<polygon fill="#ffffff" stroke="transparent" points="51.5,-160 51.5,-178 116.5,-178 116.5,-160 51.5,-160"/>
<polygon fill="none" stroke="black" points="51.5,-160 51.5,-178 116.5,-178 116.5,-160 51.5,-160"/>
<text text-anchor="start" x="59.5" y="-166.2" font-family="Helvetica,sans-Serif" font-size="11.00">3,453 rows</text>
<polygon fill="#ffffff" stroke="transparent" points="116.5,-160 116.5,-178 143.5,-178 143.5,-160 116.5,-160"/>
<polygon fill="none" stroke="black" points="116.5,-160 116.5,-178 143.5,-178 143.5,-160 116.5,-160"/>
<text text-anchor="start" x="124.5" y="-166.2" font-family="Helvetica,sans-Serif" font-size="11.00">4 &gt;</text>
</a>
</g>
</g>
<!-- specimentaphonomy&#45;&gt;specimens -->
<g id="edge1" class="edge">
<title>specimentaphonomy:w&#45;&gt;specimens:e</title>
<path fill="none" stroke="black" d="M190.94,-258.16C153.55,-277.88 201.61,-383 144.5,-383"/>
<polygon fill="black" stroke="black" points="197.68,-256.7 206.26,-258.52 201.59,-255.85 205.5,-255 205.5,-255 205.5,-255 201.59,-255.85 204.74,-251.48 197.68,-256.7 197.68,-256.7"/>
<ellipse fill="none" stroke="black" cx="194.56" cy="-257.38" rx="3.2" ry="3.2"/>
</g>
<!-- taphonomictypes -->
<g id="node3" class="node">
<title>taphonomictypes</title>
<g id="a_node3"><a xlink:href="../../tables/taphonomictypes.html" xlink:title="taphonomictypes" target="_top">
<polygon fill="#ffffff" stroke="transparent" points="8,-37 8,-139 155,-139 155,-37 8,-37"/>
<polygon fill="#f5f5f5" stroke="transparent" points="8.5,-117 8.5,-139 155.5,-139 155.5,-117 8.5,-117"/>
<polygon fill="none" stroke="black" points="8.5,-117 8.5,-139 155.5,-139 155.5,-117 8.5,-117"/>
<text text-anchor="start" x="13.5" y="-126.2" font-family="Helvetica,sans-Serif" font-weight="bold" font-size="11.00">taphonomictypes</text>
<text text-anchor="start" x="120.5" y="-125.2" font-family="Helvetica,sans-Serif" font-size="11.00">[table]</text>
<polygon fill="none" stroke="black" points="8.5,-95 8.5,-117 155.5,-117 155.5,-95 8.5,-95"/>
<image xlink:href="../../images/primaryKeys.png" width="11px" height="12px" preserveAspectRatio="xMinYMin meet" x="13.5" y="-112"/>
<text text-anchor="start" x="28.5" y="-103.2" font-family="Helvetica,sans-Serif" font-size="11.00">taphonomictypeid</text>
<polygon fill="none" stroke="black" points="8.5,-73 8.5,-95 155.5,-95 155.5,-73 8.5,-73"/>
<image xlink:href="../../images/foreignKeys.png" width="11px" height="12px" preserveAspectRatio="xMinYMin meet" x="13.5" y="-90"/>
<text text-anchor="start" x="28.5" y="-81.2" font-family="Helvetica,sans-Serif" font-size="11.00">taphonomicsystemid</text>
<polygon fill="none" stroke="black" points="8.5,-55 8.5,-73 155.5,-73 155.5,-55 8.5,-55"/>
<text text-anchor="start" x="11.5" y="-61.2" font-family="Helvetica,sans-Serif" font-size="11.00">...</text>
<polygon fill="#ffffff" stroke="transparent" points="8.5,-37 8.5,-55 59.5,-55 59.5,-37 8.5,-37"/>
<polygon fill="none" stroke="black" points="8.5,-37 8.5,-55 59.5,-55 59.5,-37 8.5,-37"/>
<text text-anchor="start" x="11.5" y="-43.2" font-family="Helvetica,sans-Serif" font-size="11.00">&lt; 1</text>
<polygon fill="#ffffff" stroke="transparent" points="59.5,-37 59.5,-55 118.5,-55 118.5,-37 59.5,-37"/>
<polygon fill="none" stroke="black" points="59.5,-37 59.5,-55 118.5,-55 118.5,-37 59.5,-37"/>
<text text-anchor="start" x="76.5" y="-43.2" font-family="Helvetica,sans-Serif" font-size="11.00">81 rows</text>
<polygon fill="#ffffff" stroke="transparent" points="118.5,-37 118.5,-55 155.5,-55 155.5,-37 118.5,-37"/>
<polygon fill="none" stroke="black" points="118.5,-37 118.5,-55 155.5,-55 155.5,-37 118.5,-37"/>
<text text-anchor="start" x="136.5" y="-43.2" font-family="Helvetica,sans-Serif" font-size="11.00">2 &gt;</text>
</a>
</g>
</g>
<!-- specimentaphonomy&#45;&gt;taphonomictypes -->
<g id="edge2" class="edge">
<title>specimentaphonomy:w&#45;&gt;taphonomictypes:e</title>
<path fill="none" stroke="black" d="M191.32,-229.6C157.8,-209.41 211.09,-106 156.5,-106"/>
<polygon fill="black" stroke="black" points="197.72,-231.14 204.66,-236.5 201.61,-232.07 205.5,-233 205.5,-233 205.5,-233 201.61,-232.07 206.34,-229.5 197.72,-231.14 197.72,-231.14"/>
<ellipse fill="none" stroke="black" cx="194.61" cy="-230.39" rx="3.2" ry="3.2"/>
</g>
</g>
</svg>
