<?xml version="1.0" encoding="UTF-8" standalone="no"?>
<!DOCTYPE svg PUBLIC "-//W3C//DTD SVG 1.1//EN"
 "http://www.w3.org/Graphics/SVG/1.1/DTD/svg11.dtd">
<!-- Generated by graphviz version 2.43.0 (0)
 -->
<!-- Title: twoDegreesRelationshipsDiagram Pages: 1 -->
<svg width="860pt" height="692pt"
 viewBox="0.00 0.00 860.00 691.83" xmlns="http://www.w3.org/2000/svg" xmlns:xlink="http://www.w3.org/1999/xlink">
<g id="graph0" class="graph" transform="scale(1 1) rotate(0) translate(4 687.83)">
<title>twoDegreesRelationshipsDiagram</title>
<polygon fill="#ffffff" stroke="transparent" points="-4,4 -4,-687.83 856,-687.83 856,4 -4,4"/>
<text text-anchor="middle" x="71.5" y="-7.2" font-family="Helvetica,sans-Serif" font-size="11.00">Generated by SchemaSpy</text>
<!-- data -->
<g id="node1" class="node">
<title>data</title>
<g id="a_node1"><a xlink:href="../../tables/data.html" xlink:title="data" target="_top">
<polygon fill="#ffffff" stroke="transparent" points="182.5,-320 182.5,-444 313.5,-444 313.5,-320 182.5,-320"/>
<polygon fill="#f5f5f5" stroke="transparent" points="183,-422 183,-444 314,-444 314,-422 183,-422"/>
<polygon fill="none" stroke="black" points="183,-422 183,-444 314,-444 314,-422 183,-422"/>
<text text-anchor="start" x="188" y="-431.2" font-family="Helvetica,sans-Serif" font-weight="bold" font-size="11.00">data</text>
<text text-anchor="start" x="279" y="-430.2" font-family="Helvetica,sans-Serif" font-size="11.00">[table]</text>
<polygon fill="none" stroke="black" points="183,-400 183,-422 314,-422 314,-400 183,-400"/>
<image xlink:href="../../images/primaryKeys.png" width="11px" height="12px" preserveAspectRatio="xMinYMin meet" x="188" y="-417"/>
<text text-anchor="start" x="209" y="-408.2" font-family="Helvetica,sans-Serif" font-size="11.00">dataid</text>
<polygon fill="#ffffff" stroke="transparent" points="183,-378 183,-400 314,-400 314,-378 183,-378"/>
<polygon fill="none" stroke="black" points="183,-378 183,-400 314,-400 314,-378 183,-378"/>
<image xlink:href="../../images/foreignKeys.png" width="11px" height="12px" preserveAspectRatio="xMinYMin meet" x="188" y="-395"/>
<text text-anchor="start" x="209" y="-386.2" font-family="Helvetica,sans-Serif" font-size="11.00">sampleid</text>
<polygon fill="#ffffff" stroke="transparent" points="183,-356 183,-378 314,-378 314,-356 183,-356"/>
<polygon fill="none" stroke="black" points="183,-356 183,-378 314,-378 314,-356 183,-356"/>
<image xlink:href="../../images/foreignKeys.png" width="11px" height="12px" preserveAspectRatio="xMinYMin meet" x="188" y="-373"/>
<text text-anchor="start" x="209" y="-364.2" font-family="Helvetica,sans-Serif" font-size="11.00">variableid</text>
<polygon fill="none" stroke="black" points="183,-338 183,-356 314,-356 314,-338 183,-338"/>
<text text-anchor="start" x="186" y="-344.2" font-family="Helvetica,sans-Serif" font-size="11.00">...</text>
<polygon fill="#ffffff" stroke="transparent" points="183,-320 183,-338 205,-338 205,-320 183,-320"/>
<polygon fill="none" stroke="black" points="183,-320 183,-338 205,-338 205,-320 183,-320"/>
<text text-anchor="start" x="186" y="-326.2" font-family="Helvetica,sans-Serif" font-size="11.00">&lt; 2</text>
<polygon fill="#ffffff" stroke="transparent" points="205,-320 205,-338 292,-338 292,-320 205,-320"/>
<polygon fill="none" stroke="black" points="205,-320 205,-338 292,-338 292,-320 205,-320"/>
<text text-anchor="start" x="208" y="-326.2" font-family="Helvetica,sans-Serif" font-size="11.00">10,527,055 rows</text>
<polygon fill="#ffffff" stroke="transparent" points="292,-320 292,-338 314,-338 314,-320 292,-320"/>
<polygon fill="none" stroke="black" points="292,-320 292,-338 314,-338 314,-320 292,-320"/>
<text text-anchor="start" x="295" y="-326.2" font-family="Helvetica,sans-Serif" font-size="11.00">8 &gt;</text>
</a>
</g>
</g>
<!-- samples -->
<g id="node2" class="node">
<title>samples</title>
<g id="a_node2"><a xlink:href="../../tables/samples.html" xlink:title="samples" target="_top">
<polygon fill="#ffffff" stroke="transparent" points="8,-390 8,-448 124,-448 124,-390 8,-390"/>
<polygon fill="#f5f5f5" stroke="transparent" points="8,-426 8,-448 124,-448 124,-426 8,-426"/>
<polygon fill="none" stroke="black" points="8,-426 8,-448 124,-448 124,-426 8,-426"/>
<text text-anchor="start" x="13" y="-435.2" font-family="Helvetica,sans-Serif" font-weight="bold" font-size="11.00">samples</text>
<text text-anchor="start" x="89" y="-434.2" font-family="Helvetica,sans-Serif" font-size="11.00">[table]</text>
<polygon fill="none" stroke="black" points="8,-408 8,-426 124,-426 124,-408 8,-408"/>
<text text-anchor="start" x="11" y="-414.2" font-family="Helvetica,sans-Serif" font-size="11.00">...</text>
<polygon fill="#ffffff" stroke="transparent" points="8,-390 8,-408 30,-408 30,-390 8,-390"/>
<polygon fill="none" stroke="black" points="8,-390 8,-408 30,-408 30,-390 8,-390"/>
<text text-anchor="start" x="11" y="-396.2" font-family="Helvetica,sans-Serif" font-size="11.00">&lt; 3</text>
<polygon fill="#ffffff" stroke="transparent" points="30,-390 30,-408 102,-408 102,-390 30,-390"/>
<polygon fill="none" stroke="black" points="30,-390 30,-408 102,-408 102,-390 30,-390"/>
<text text-anchor="start" x="33" y="-396.2" font-family="Helvetica,sans-Serif" font-size="11.00">541,654 rows</text>
<polygon fill="#ffffff" stroke="transparent" points="102,-390 102,-408 124,-408 124,-390 102,-390"/>
<polygon fill="none" stroke="black" points="102,-390 102,-408 124,-408 124,-390 102,-390"/>
<text text-anchor="start" x="105" y="-396.2" font-family="Helvetica,sans-Serif" font-size="11.00">7 &gt;</text>
</a>
</g>
</g>
<!-- data&#45;&gt;samples -->
<g id="edge1" class="edge">
<title>data:w&#45;&gt;samples:e</title>
<path fill="none" stroke="black" d="M167.76,-392C152.41,-399.22 147.49,-417 125,-417"/>
<polygon fill="black" stroke="black" points="174.17,-390.65 182.74,-392.52 178.09,-389.82 182,-389 182,-389 182,-389 178.09,-389.82 181.26,-385.48 174.17,-390.65 174.17,-390.65"/>
<ellipse fill="none" stroke="black" cx="171.04" cy="-391.31" rx="3.2" ry="3.2"/>
</g>
<!-- variables -->
<g id="node3" class="node">
<title>variables</title>
<g id="a_node3"><a xlink:href="../../tables/variables.html" xlink:title="variables" target="_top">
<polygon fill="#ffffff" stroke="transparent" points="11,-311 11,-369 121,-369 121,-311 11,-311"/>
<polygon fill="#f5f5f5" stroke="transparent" points="11,-347 11,-369 121,-369 121,-347 11,-347"/>
<polygon fill="none" stroke="black" points="11,-347 11,-369 121,-369 121,-347 11,-347"/>
<text text-anchor="start" x="16" y="-356.2" font-family="Helvetica,sans-Serif" font-weight="bold" font-size="11.00">variables</text>
<text text-anchor="start" x="86" y="-355.2" font-family="Helvetica,sans-Serif" font-size="11.00">[table]</text>
<polygon fill="none" stroke="black" points="11,-329 11,-347 121,-347 121,-329 11,-329"/>
<text text-anchor="start" x="14" y="-335.2" font-family="Helvetica,sans-Serif" font-size="11.00">...</text>
<polygon fill="#ffffff" stroke="transparent" points="11,-311 11,-329 33,-329 33,-311 11,-311"/>
<polygon fill="none" stroke="black" points="11,-311 11,-329 33,-329 33,-311 11,-311"/>
<text text-anchor="start" x="14" y="-317.2" font-family="Helvetica,sans-Serif" font-size="11.00">&lt; 4</text>
<polygon fill="#ffffff" stroke="transparent" points="33,-311 33,-329 99,-329 99,-311 33,-311"/>
<polygon fill="none" stroke="black" points="33,-311 33,-329 99,-329 99,-311 33,-311"/>
<text text-anchor="start" x="36" y="-317.2" font-family="Helvetica,sans-Serif" font-size="11.00">57,421 rows</text>
<polygon fill="#ffffff" stroke="transparent" points="99,-311 99,-329 121,-329 121,-311 99,-311"/>
<polygon fill="none" stroke="black" points="99,-311 99,-329 121,-329 121,-311 99,-311"/>
<text text-anchor="start" x="102" y="-317.2" font-family="Helvetica,sans-Serif" font-size="11.00">6 &gt;</text>
</a>
</g>
</g>
<!-- data&#45;&gt;variables -->
<g id="edge2" class="edge">
<title>data:w&#45;&gt;variables:e</title>
<path fill="none" stroke="black" d="M167.52,-364.11C150.98,-356.78 145.83,-338 122,-338"/>
<polygon fill="black" stroke="black" points="174.15,-365.44 181.3,-370.53 178.08,-366.22 182,-367 182,-367 182,-367 178.08,-366.22 182.7,-363.47 174.15,-365.44 174.15,-365.44"/>
<ellipse fill="none" stroke="black" cx="171.02" cy="-364.81" rx="3.2" ry="3.2"/>
</g>
<!-- datataxonnotes -->
<g id="node4" class="node">
<title>datataxonnotes</title>
<g id="a_node4"><a xlink:href="../../tables/datataxonnotes.html" xlink:title="datataxonnotes" target="_top">
<polygon fill="#ffffff" stroke="transparent" points="394.5,-503 394.5,-561 520.5,-561 520.5,-503 394.5,-503"/>
<polygon fill="#f5f5f5" stroke="transparent" points="394.5,-539 394.5,-561 520.5,-561 520.5,-539 394.5,-539"/>
<polygon fill="none" stroke="black" points="394.5,-539 394.5,-561 520.5,-561 520.5,-539 394.5,-539"/>
<text text-anchor="start" x="399.5" y="-548.2" font-family="Helvetica,sans-Serif" font-weight="bold" font-size="11.00">datataxonnotes</text>
<text text-anchor="start" x="485.5" y="-547.2" font-family="Helvetica,sans-Serif" font-size="11.00">[table]</text>
<polygon fill="none" stroke="black" points="394.5,-521 394.5,-539 520.5,-539 520.5,-521 394.5,-521"/>
<text text-anchor="start" x="397.5" y="-527.2" font-family="Helvetica,sans-Serif" font-size="11.00">...</text>
<polygon fill="#ffffff" stroke="transparent" points="394.5,-503 394.5,-521 442.5,-521 442.5,-503 394.5,-503"/>
<polygon fill="none" stroke="black" points="394.5,-503 394.5,-521 442.5,-521 442.5,-503 394.5,-503"/>
<text text-anchor="start" x="397.5" y="-509.2" font-family="Helvetica,sans-Serif" font-size="11.00">&lt; 2</text>
<polygon fill="#ffffff" stroke="transparent" points="442.5,-503 442.5,-521 494.5,-521 494.5,-503 442.5,-503"/>
<polygon fill="none" stroke="black" points="442.5,-503 442.5,-521 494.5,-521 494.5,-503 442.5,-503"/>
<text text-anchor="start" x="458.5" y="-509.2" font-family="Helvetica,sans-Serif" font-size="11.00">0 rows</text>
<polygon fill="#ffffff" stroke="transparent" points="494.5,-503 494.5,-521 520.5,-521 520.5,-503 494.5,-503"/>
<polygon fill="none" stroke="black" points="494.5,-503 494.5,-521 520.5,-521 520.5,-503 494.5,-503"/>
<text text-anchor="start" x="510.5" y="-509.2" font-family="Helvetica,sans-Serif" font-size="11.00"> &#160;</text>
</a>
</g>
</g>
<!-- datataxonnotes&#45;&gt;data -->
<g id="edge3" class="edge">
<title>datataxonnotes:w&#45;&gt;data:e</title>
<path fill="none" stroke="black" d="M379.23,-527.4C337.75,-510 372.79,-411 315,-411"/>
<polygon fill="black" stroke="black" points="385.63,-528.57 392.86,-533.54 389.56,-529.28 393.5,-530 393.5,-530 393.5,-530 389.56,-529.28 394.14,-526.46 385.63,-528.57 385.63,-528.57"/>
<ellipse fill="none" stroke="black" cx="382.48" cy="-528" rx="3.2" ry="3.2"/>
</g>
<!-- datauncertainties -->
<g id="node5" class="node">
<title>datauncertainties</title>
<g id="a_node5"><a xlink:href="../../tables/datauncertainties.html" xlink:title="datauncertainties" target="_top">
<polygon fill="#ffffff" stroke="transparent" points="390,-424 390,-482 525,-482 525,-424 390,-424"/>
<polygon fill="#f5f5f5" stroke="transparent" points="390.5,-460 390.5,-482 525.5,-482 525.5,-460 390.5,-460"/>
<polygon fill="none" stroke="black" points="390.5,-460 390.5,-482 525.5,-482 525.5,-460 390.5,-460"/>
<text text-anchor="start" x="395.5" y="-469.2" font-family="Helvetica,sans-Serif" font-weight="bold" font-size="11.00">datauncertainties</text>
<text text-anchor="start" x="490.5" y="-468.2" font-family="Helvetica,sans-Serif" font-size="11.00">[table]</text>
<polygon fill="none" stroke="black" points="390.5,-442 390.5,-460 525.5,-460 525.5,-442 390.5,-442"/>
<text text-anchor="start" x="393.5" y="-448.2" font-family="Helvetica,sans-Serif" font-size="11.00">...</text>
<polygon fill="#ffffff" stroke="transparent" points="390.5,-424 390.5,-442 442.5,-442 442.5,-424 390.5,-424"/>
<polygon fill="none" stroke="black" points="390.5,-424 390.5,-442 442.5,-442 442.5,-424 390.5,-424"/>
<text text-anchor="start" x="393.5" y="-430.2" font-family="Helvetica,sans-Serif" font-size="11.00">&lt; 3</text>
<polygon fill="#ffffff" stroke="transparent" points="442.5,-424 442.5,-442 496.5,-442 496.5,-424 442.5,-424"/>
<polygon fill="none" stroke="black" points="442.5,-424 442.5,-442 496.5,-442 496.5,-424 442.5,-424"/>
<text text-anchor="start" x="460.5" y="-430.2" font-family="Helvetica,sans-Serif" font-size="11.00">0 rows</text>
<polygon fill="#ffffff" stroke="transparent" points="496.5,-424 496.5,-442 525.5,-442 525.5,-424 496.5,-424"/>
<polygon fill="none" stroke="black" points="496.5,-424 496.5,-442 525.5,-442 525.5,-424 496.5,-424"/>
<text text-anchor="start" x="515.5" y="-430.2" font-family="Helvetica,sans-Serif" font-size="11.00"> &#160;</text>
</a>
</g>
</g>
<!-- datauncertainties&#45;&gt;data -->
<g id="edge4" class="edge">
<title>datauncertainties:w&#45;&gt;data:e</title>
<path fill="none" stroke="black" d="M375.04,-448.62C351.27,-440.01 347,-411 315,-411"/>
<polygon fill="black" stroke="black" points="381.61,-449.7 388.91,-454.55 385.55,-450.35 389.5,-451 389.5,-451 389.5,-451 385.55,-450.35 390.09,-447.45 381.61,-449.7 381.61,-449.7"/>
<ellipse fill="none" stroke="black" cx="378.45" cy="-449.18" rx="3.2" ry="3.2"/>
</g>
<!-- isometadata -->
<g id="node6" class="node">
<title>isometadata</title>
<g id="a_node6"><a xlink:href="../../tables/isometadata.html" xlink:title="isometadata" target="_top">
<polygon fill="#ffffff" stroke="transparent" points="403.5,-345 403.5,-403 511.5,-403 511.5,-345 403.5,-345"/>
<polygon fill="#f5f5f5" stroke="transparent" points="403.5,-381 403.5,-403 511.5,-403 511.5,-381 403.5,-381"/>
<polygon fill="none" stroke="black" points="403.5,-381 403.5,-403 511.5,-403 511.5,-381 403.5,-381"/>
<text text-anchor="start" x="408.5" y="-390.2" font-family="Helvetica,sans-Serif" font-weight="bold" font-size="11.00">isometadata</text>
<text text-anchor="start" x="476.5" y="-389.2" font-family="Helvetica,sans-Serif" font-size="11.00">[table]</text>
<polygon fill="none" stroke="black" points="403.5,-363 403.5,-381 511.5,-381 511.5,-363 403.5,-363"/>
<text text-anchor="start" x="406.5" y="-369.2" font-family="Helvetica,sans-Serif" font-size="11.00">...</text>
<polygon fill="#ffffff" stroke="transparent" points="403.5,-345 403.5,-363 431.5,-363 431.5,-345 403.5,-345"/>
<polygon fill="none" stroke="black" points="403.5,-345 403.5,-363 431.5,-363 431.5,-345 403.5,-345"/>
<text text-anchor="start" x="406.5" y="-351.2" font-family="Helvetica,sans-Serif" font-size="11.00">&lt; 4</text>
<polygon fill="#ffffff" stroke="transparent" points="431.5,-345 431.5,-363 494.5,-363 494.5,-345 431.5,-345"/>
<polygon fill="none" stroke="black" points="431.5,-345 431.5,-363 494.5,-363 494.5,-345 431.5,-345"/>
<text text-anchor="start" x="437.5" y="-351.2" font-family="Helvetica,sans-Serif" font-size="11.00">4,893 rows</text>
<polygon fill="#ffffff" stroke="transparent" points="494.5,-345 494.5,-363 511.5,-363 511.5,-345 494.5,-345"/>
<polygon fill="none" stroke="black" points="494.5,-345 494.5,-363 511.5,-363 511.5,-345 494.5,-345"/>
<text text-anchor="start" x="501.5" y="-351.2" font-family="Helvetica,sans-Serif" font-size="11.00"> &#160;</text>
</a>
</g>
</g>
<!-- isometadata&#45;&gt;data -->
<g id="edge5" class="edge">
<title>isometadata:w&#45;&gt;data:e</title>
<path fill="none" stroke="black" d="M387.87,-373.78C358.65,-381.41 352.09,-411 315,-411"/>
<polygon fill="black" stroke="black" points="394.56,-372.96 402.93,-375.57 398.53,-372.48 402.5,-372 402.5,-372 402.5,-372 398.53,-372.48 402.07,-368.43 394.56,-372.96 394.56,-372.96"/>
<ellipse fill="none" stroke="black" cx="391.38" cy="-373.35" rx="3.2" ry="3.2"/>
</g>
<!-- isosamplepretreatments -->
<g id="node7" class="node">
<title>isosamplepretreatments</title>
<g id="a_node7"><a xlink:href="../../tables/isosamplepretreatments.html" xlink:title="isosamplepretreatments" target="_top">
<polygon fill="#ffffff" stroke="transparent" points="372,-266 372,-324 543,-324 543,-266 372,-266"/>
<polygon fill="#f5f5f5" stroke="transparent" points="372.5,-302 372.5,-324 543.5,-324 543.5,-302 372.5,-302"/>
<polygon fill="none" stroke="black" points="372.5,-302 372.5,-324 543.5,-324 543.5,-302 372.5,-302"/>
<text text-anchor="start" x="377.5" y="-311.2" font-family="Helvetica,sans-Serif" font-weight="bold" font-size="11.00">isosamplepretreatments</text>
<text text-anchor="start" x="508.5" y="-310.2" font-family="Helvetica,sans-Serif" font-size="11.00">[table]</text>
<polygon fill="none" stroke="black" points="372.5,-284 372.5,-302 543.5,-302 543.5,-284 372.5,-284"/>
<text text-anchor="start" x="375.5" y="-290.2" font-family="Helvetica,sans-Serif" font-size="11.00">...</text>
<polygon fill="#ffffff" stroke="transparent" points="372.5,-266 372.5,-284 432.5,-284 432.5,-266 372.5,-266"/>
<polygon fill="none" stroke="black" points="372.5,-266 372.5,-284 432.5,-284 432.5,-266 372.5,-266"/>
<text text-anchor="start" x="375.5" y="-272.2" font-family="Helvetica,sans-Serif" font-size="11.00">&lt; 2</text>
<polygon fill="#ffffff" stroke="transparent" points="432.5,-266 432.5,-284 511.5,-284 511.5,-266 432.5,-266"/>
<polygon fill="none" stroke="black" points="432.5,-266 432.5,-284 511.5,-284 511.5,-266 432.5,-266"/>
<text text-anchor="start" x="454.5" y="-272.2" font-family="Helvetica,sans-Serif" font-size="11.00">1,035 rows</text>
<polygon fill="#ffffff" stroke="transparent" points="511.5,-266 511.5,-284 543.5,-284 543.5,-266 511.5,-266"/>
<polygon fill="none" stroke="black" points="511.5,-266 511.5,-284 543.5,-284 543.5,-266 511.5,-266"/>
<text text-anchor="start" x="533.5" y="-272.2" font-family="Helvetica,sans-Serif" font-size="11.00"> &#160;</text>
</a>
</g>
</g>
<!-- isosamplepretreatments&#45;&gt;data -->
<g id="edge6" class="edge">
<title>isosamplepretreatments:w&#45;&gt;data:e</title>
<path fill="none" stroke="black" d="M357.19,-296.4C324.28,-315.75 367.24,-411 315,-411"/>
<polygon fill="black" stroke="black" points="363.72,-294.85 372.33,-296.5 367.61,-293.93 371.5,-293 371.5,-293 371.5,-293 367.61,-293.93 370.67,-289.5 363.72,-294.85 363.72,-294.85"/>
<ellipse fill="none" stroke="black" cx="360.6" cy="-295.59" rx="3.2" ry="3.2"/>
</g>
<!-- isospecimendata -->
<g id="node8" class="node">
<title>isospecimendata</title>
<g id="a_node8"><a xlink:href="../../tables/isospecimendata.html" xlink:title="isospecimendata" target="_top">
<polygon fill="#ffffff" stroke="transparent" points="651.5,-609 651.5,-667 784.5,-667 784.5,-609 651.5,-609"/>
<polygon fill="#f5f5f5" stroke="transparent" points="652,-645 652,-667 785,-667 785,-645 652,-645"/>
<polygon fill="none" stroke="black" points="652,-645 652,-667 785,-667 785,-645 652,-645"/>
<text text-anchor="start" x="657" y="-654.2" font-family="Helvetica,sans-Serif" font-weight="bold" font-size="11.00">isospecimendata</text>
<text text-anchor="start" x="750" y="-653.2" font-family="Helvetica,sans-Serif" font-size="11.00">[table]</text>
<polygon fill="none" stroke="black" points="652,-627 652,-645 785,-645 785,-627 652,-627"/>
<text text-anchor="start" x="655" y="-633.2" font-family="Helvetica,sans-Serif" font-size="11.00">...</text>
<polygon fill="#ffffff" stroke="transparent" points="652,-609 652,-627 693,-627 693,-609 652,-609"/>
<polygon fill="none" stroke="black" points="652,-609 652,-627 693,-627 693,-609 652,-609"/>
<text text-anchor="start" x="655" y="-615.2" font-family="Helvetica,sans-Serif" font-size="11.00">&lt; 2</text>
<polygon fill="#ffffff" stroke="transparent" points="693,-609 693,-627 762,-627 762,-609 693,-609"/>
<polygon fill="none" stroke="black" points="693,-609 693,-627 762,-627 762,-609 693,-609"/>
<text text-anchor="start" x="705" y="-615.2" font-family="Helvetica,sans-Serif" font-size="11.00">5,193 rows</text>
<polygon fill="#ffffff" stroke="transparent" points="762,-609 762,-627 785,-627 785,-609 762,-609"/>
<polygon fill="none" stroke="black" points="762,-609 762,-627 785,-627 785,-609 762,-609"/>
<text text-anchor="start" x="775" y="-615.2" font-family="Helvetica,sans-Serif" font-size="11.00"> &#160;</text>
</a>
</g>
</g>
<!-- isospecimendata&#45;&gt;data -->
<g id="edge7" class="edge">
<title>isospecimendata:w&#45;&gt;data:e</title>
<path fill="none" stroke="black" d="M636.33,-636.42C518.5,-643.21 459.08,-728.63 364,-651 279.67,-582.15 423.87,-411 315,-411"/>
<polygon fill="black" stroke="black" points="643,-636.23 651.1,-639.6 647,-636.12 651,-636 651,-636 651,-636 647,-636.12 650.9,-632.4 643,-636.23 643,-636.23"/>
<ellipse fill="none" stroke="black" cx="639.8" cy="-636.32" rx="3.2" ry="3.2"/>
</g>
<!-- specimens -->
<g id="node9" class="node">
<title>specimens</title>
<g id="a_node9"><a xlink:href="../../tables/specimens.html" xlink:title="specimens" target="_top">
<polygon fill="#ffffff" stroke="transparent" points="405.5,-582 405.5,-640 509.5,-640 509.5,-582 405.5,-582"/>
<polygon fill="#f5f5f5" stroke="transparent" points="405.5,-618 405.5,-640 509.5,-640 509.5,-618 405.5,-618"/>
<polygon fill="none" stroke="black" points="405.5,-618 405.5,-640 509.5,-640 509.5,-618 405.5,-618"/>
<text text-anchor="start" x="410.5" y="-627.2" font-family="Helvetica,sans-Serif" font-weight="bold" font-size="11.00">specimens</text>
<text text-anchor="start" x="474.5" y="-626.2" font-family="Helvetica,sans-Serif" font-size="11.00">[table]</text>
<polygon fill="none" stroke="black" points="405.5,-600 405.5,-618 509.5,-618 509.5,-600 405.5,-600"/>
<text text-anchor="start" x="408.5" y="-606.2" font-family="Helvetica,sans-Serif" font-size="11.00">...</text>
<polygon fill="#ffffff" stroke="transparent" points="405.5,-582 405.5,-600 427.5,-600 427.5,-582 405.5,-582"/>
<polygon fill="none" stroke="black" points="405.5,-582 405.5,-600 427.5,-600 427.5,-582 405.5,-582"/>
<text text-anchor="start" x="408.5" y="-588.2" font-family="Helvetica,sans-Serif" font-size="11.00">&lt; 8</text>
<polygon fill="#ffffff" stroke="transparent" points="427.5,-582 427.5,-600 487.5,-600 487.5,-582 427.5,-582"/>
<polygon fill="none" stroke="black" points="427.5,-582 427.5,-600 487.5,-600 487.5,-582 427.5,-582"/>
<text text-anchor="start" x="430.5" y="-588.2" font-family="Helvetica,sans-Serif" font-size="11.00">3,453 rows</text>
<polygon fill="#ffffff" stroke="transparent" points="487.5,-582 487.5,-600 509.5,-600 509.5,-582 487.5,-582"/>
<polygon fill="none" stroke="black" points="487.5,-582 487.5,-600 509.5,-600 509.5,-582 487.5,-582"/>
<text text-anchor="start" x="490.5" y="-588.2" font-family="Helvetica,sans-Serif" font-size="11.00">4 &gt;</text>
</a>
</g>
</g>
<!-- isospecimendata&#45;&gt;specimens -->
<g id="edge8" class="edge">
<title>isospecimendata:w&#45;&gt;specimens:e</title>
<path fill="none" stroke="black" d="M636.31,-635.48C584.89,-631.75 568.87,-609 510.5,-609"/>
<polygon fill="black" stroke="black" points="643,-635.72 650.87,-639.6 647,-635.86 651,-636 651,-636 651,-636 647,-635.86 651.13,-632.4 643,-635.72 643,-635.72"/>
<ellipse fill="none" stroke="black" cx="639.81" cy="-635.61" rx="3.2" ry="3.2"/>
</g>
<!-- specimens&#45;&gt;data -->
<g id="edge10" class="edge">
<title>specimens:w&#45;&gt;data:e</title>
<path fill="none" stroke="black" d="M389.94,-607.17C319.03,-587.21 406.1,-411 315,-411"/>
<polygon fill="black" stroke="black" points="396.56,-608 404.05,-612.57 400.53,-608.5 404.5,-609 404.5,-609 404.5,-609 400.53,-608.5 404.95,-605.43 396.56,-608 396.56,-608"/>
<ellipse fill="none" stroke="black" cx="393.39" cy="-607.6" rx="3.2" ry="3.2"/>
</g>
<!-- isostratdata -->
<g id="node10" class="node">
<title>isostratdata</title>
<g id="a_node10"><a xlink:href="../../tables/isostratdata.html" xlink:title="isostratdata" target="_top">
<polygon fill="#ffffff" stroke="transparent" points="404,-187 404,-245 511,-245 511,-187 404,-187"/>
<polygon fill="#f5f5f5" stroke="transparent" points="404.5,-223 404.5,-245 511.5,-245 511.5,-223 404.5,-223"/>
<polygon fill="none" stroke="black" points="404.5,-223 404.5,-245 511.5,-245 511.5,-223 404.5,-223"/>
<text text-anchor="start" x="409.5" y="-232.2" font-family="Helvetica,sans-Serif" font-weight="bold" font-size="11.00">isostratdata</text>
<text text-anchor="start" x="476.5" y="-231.2" font-family="Helvetica,sans-Serif" font-size="11.00">[table]</text>
<polygon fill="none" stroke="black" points="404.5,-205 404.5,-223 511.5,-223 511.5,-205 404.5,-205"/>
<text text-anchor="start" x="407.5" y="-211.2" font-family="Helvetica,sans-Serif" font-size="11.00">...</text>
<polygon fill="#ffffff" stroke="transparent" points="404.5,-187 404.5,-205 436.5,-205 436.5,-187 404.5,-187"/>
<polygon fill="none" stroke="black" points="404.5,-187 404.5,-205 436.5,-205 436.5,-187 404.5,-187"/>
<text text-anchor="start" x="407.5" y="-193.2" font-family="Helvetica,sans-Serif" font-size="11.00">&lt; 3</text>
<polygon fill="#ffffff" stroke="transparent" points="436.5,-187 436.5,-205 492.5,-205 492.5,-187 436.5,-187"/>
<polygon fill="none" stroke="black" points="436.5,-187 436.5,-205 492.5,-205 492.5,-187 436.5,-187"/>
<text text-anchor="start" x="444.5" y="-193.2" font-family="Helvetica,sans-Serif" font-size="11.00">634 rows</text>
<polygon fill="#ffffff" stroke="transparent" points="492.5,-187 492.5,-205 511.5,-205 511.5,-187 492.5,-187"/>
<polygon fill="none" stroke="black" points="492.5,-187 492.5,-205 511.5,-205 511.5,-187 492.5,-187"/>
<text text-anchor="start" x="501.5" y="-193.2" font-family="Helvetica,sans-Serif" font-size="11.00"> &#160;</text>
</a>
</g>
</g>
<!-- isostratdata&#45;&gt;data -->
<g id="edge9" class="edge">
<title>isostratdata:w&#45;&gt;data:e</title>
<path fill="none" stroke="black" d="M392.67,-214.97C315.67,-229.83 407.05,-411 315,-411"/>
<polygon fill="black" stroke="black" points="402.35,-210.09 403.06,-218.06 401.47,-218.2 400.75,-210.23 402.35,-210.09"/>
<polyline fill="none" stroke="black" points="403.5,-214 399.52,-214.36 "/>
<ellipse fill="none" stroke="black" cx="396.33" cy="-214.64" rx="3.2" ry="3.2"/>
</g>
<!-- specimentaphonomy -->
<g id="node11" class="node">
<title>specimentaphonomy</title>
<g id="a_node11"><a xlink:href="../../tables/specimentaphonomy.html" xlink:title="specimentaphonomy" target="_top">
<polygon fill="#ffffff" stroke="transparent" points="641,-380 641,-438 795,-438 795,-380 641,-380"/>
<polygon fill="#f5f5f5" stroke="transparent" points="641,-416 641,-438 795,-438 795,-416 641,-416"/>
<polygon fill="none" stroke="black" points="641,-416 641,-438 795,-438 795,-416 641,-416"/>
<text text-anchor="start" x="646" y="-425.2" font-family="Helvetica,sans-Serif" font-weight="bold" font-size="11.00">specimentaphonomy</text>
<text text-anchor="start" x="760" y="-424.2" font-family="Helvetica,sans-Serif" font-size="11.00">[table]</text>
<polygon fill="none" stroke="black" points="641,-398 641,-416 795,-416 795,-398 641,-398"/>
<text text-anchor="start" x="644" y="-404.2" font-family="Helvetica,sans-Serif" font-size="11.00">...</text>
<polygon fill="#ffffff" stroke="transparent" points="641,-380 641,-398 697,-398 697,-380 641,-380"/>
<polygon fill="none" stroke="black" points="641,-380 641,-398 697,-398 697,-380 641,-380"/>
<text text-anchor="start" x="644" y="-386.2" font-family="Helvetica,sans-Serif" font-size="11.00">&lt; 2</text>
<polygon fill="#ffffff" stroke="transparent" points="697,-380 697,-398 765,-398 765,-380 697,-380"/>
<polygon fill="none" stroke="black" points="697,-380 697,-398 765,-398 765,-380 697,-380"/>
<text text-anchor="start" x="717" y="-386.2" font-family="Helvetica,sans-Serif" font-size="11.00">452 rows</text>
<polygon fill="#ffffff" stroke="transparent" points="765,-380 765,-398 795,-398 795,-380 765,-380"/>
<polygon fill="none" stroke="black" points="765,-380 765,-398 795,-398 795,-380 765,-380"/>
<text text-anchor="start" x="785" y="-386.2" font-family="Helvetica,sans-Serif" font-size="11.00"> &#160;</text>
</a>
</g>
</g>
<!-- specimentaphonomy&#45;&gt;specimens -->
<g id="edge11" class="edge">
<title>specimentaphonomy:w&#45;&gt;specimens:e</title>
<path fill="none" stroke="black" d="M625.44,-408.45C541.23,-426.62 611.83,-609 510.5,-609"/>
<polygon fill="black" stroke="black" points="632.04,-407.79 640.36,-410.58 636.02,-407.4 640,-407 640,-407 640,-407 636.02,-407.4 639.64,-403.42 632.04,-407.79 632.04,-407.79"/>
<ellipse fill="none" stroke="black" cx="628.86" cy="-408.11" rx="3.2" ry="3.2"/>
</g>
<!-- taphonomictypes -->
<g id="node12" class="node">
<title>taphonomictypes</title>
<g id="a_node12"><a xlink:href="../../tables/taphonomictypes.html" xlink:title="taphonomictypes" target="_top">
<polygon fill="#ffffff" stroke="transparent" points="384,-37 384,-139 531,-139 531,-37 384,-37"/>
<polygon fill="#f5f5f5" stroke="transparent" points="384.5,-117 384.5,-139 531.5,-139 531.5,-117 384.5,-117"/>
<polygon fill="none" stroke="black" points="384.5,-117 384.5,-139 531.5,-139 531.5,-117 384.5,-117"/>
<text text-anchor="start" x="389.5" y="-126.2" font-family="Helvetica,sans-Serif" font-weight="bold" font-size="11.00">taphonomictypes</text>
<text text-anchor="start" x="496.5" y="-125.2" font-family="Helvetica,sans-Serif" font-size="11.00">[table]</text>
<polygon fill="none" stroke="black" points="384.5,-95 384.5,-117 531.5,-117 531.5,-95 384.5,-95"/>
<image xlink:href="../../images/primaryKeys.png" width="11px" height="12px" preserveAspectRatio="xMinYMin meet" x="389.5" y="-112"/>
<text text-anchor="start" x="404.5" y="-103.2" font-family="Helvetica,sans-Serif" font-size="11.00">taphonomictypeid</text>
<polygon fill="none" stroke="black" points="384.5,-73 384.5,-95 531.5,-95 531.5,-73 384.5,-73"/>
<image xlink:href="../../images/foreignKeys.png" width="11px" height="12px" preserveAspectRatio="xMinYMin meet" x="389.5" y="-90"/>
<text text-anchor="start" x="404.5" y="-81.2" font-family="Helvetica,sans-Serif" font-size="11.00">taphonomicsystemid</text>
<polygon fill="none" stroke="black" points="384.5,-55 384.5,-73 531.5,-73 531.5,-55 384.5,-55"/>
<text text-anchor="start" x="387.5" y="-61.2" font-family="Helvetica,sans-Serif" font-size="11.00">...</text>
<polygon fill="#ffffff" stroke="transparent" points="384.5,-37 384.5,-55 435.5,-55 435.5,-37 384.5,-37"/>
<polygon fill="none" stroke="black" points="384.5,-37 384.5,-55 435.5,-55 435.5,-37 384.5,-37"/>
<text text-anchor="start" x="387.5" y="-43.2" font-family="Helvetica,sans-Serif" font-size="11.00">&lt; 1</text>
<polygon fill="#ffffff" stroke="transparent" points="435.5,-37 435.5,-55 494.5,-55 494.5,-37 435.5,-37"/>
<polygon fill="none" stroke="black" points="435.5,-37 435.5,-55 494.5,-55 494.5,-37 435.5,-37"/>
<text text-anchor="start" x="452.5" y="-43.2" font-family="Helvetica,sans-Serif" font-size="11.00">81 rows</text>
<polygon fill="#ffffff" stroke="transparent" points="494.5,-37 494.5,-55 531.5,-55 531.5,-37 494.5,-37"/>
<polygon fill="none" stroke="black" points="494.5,-37 494.5,-55 531.5,-55 531.5,-37 494.5,-37"/>
<text text-anchor="start" x="512.5" y="-43.2" font-family="Helvetica,sans-Serif" font-size="11.00">2 &gt;</text>
</a>
</g>
</g>
<!-- specimentaphonomy&#45;&gt;taphonomictypes -->
<g id="edge12" class="edge">
<title>specimentaphonomy:w&#45;&gt;taphonomictypes:e</title>
<path fill="none" stroke="black" d="M626.18,-402.51C573.42,-365.07 598.39,-106 532.5,-106"/>
<polygon fill="black" stroke="black" points="632.39,-404.53 638.89,-410.42 636.2,-405.76 640,-407 640,-407 640,-407 636.2,-405.76 641.11,-403.58 632.39,-404.53 632.39,-404.53"/>
<ellipse fill="none" stroke="black" cx="629.35" cy="-403.54" rx="3.2" ry="3.2"/>
</g>
<!-- taphonomicsystems -->
<g id="node14" class="node">
<title>taphonomicsystems</title>
<g id="a_node14"><a xlink:href="../../tables/taphonomicsystems.html" xlink:title="taphonomicsystems" target="_top">
<polygon fill="#ffffff" stroke="transparent" points="173,-57 173,-115 323,-115 323,-57 173,-57"/>
<polygon fill="#f5f5f5" stroke="transparent" points="173,-93 173,-115 323,-115 323,-93 173,-93"/>
<polygon fill="none" stroke="black" points="173,-93 173,-115 323,-115 323,-93 173,-93"/>
<text text-anchor="start" x="178" y="-102.2" font-family="Helvetica,sans-Serif" font-weight="bold" font-size="11.00">taphonomicsystems</text>
<text text-anchor="start" x="288" y="-101.2" font-family="Helvetica,sans-Serif" font-size="11.00">[table]</text>
<polygon fill="none" stroke="black" points="173,-75 173,-93 323,-93 323,-75 173,-75"/>
<text text-anchor="start" x="176" y="-81.2" font-family="Helvetica,sans-Serif" font-size="11.00">...</text>
<polygon fill="#ffffff" stroke="transparent" points="173,-57 173,-75 224,-75 224,-57 173,-57"/>
<polygon fill="none" stroke="black" points="173,-57 173,-75 224,-75 224,-57 173,-57"/>
<text text-anchor="start" x="176" y="-63.2" font-family="Helvetica,sans-Serif" font-size="11.00"> &#160;</text>
<polygon fill="#ffffff" stroke="transparent" points="224,-57 224,-75 282,-75 282,-57 224,-57"/>
<polygon fill="none" stroke="black" points="224,-57 224,-75 282,-75 282,-57 224,-57"/>
<text text-anchor="start" x="246" y="-63.2" font-family="Helvetica,sans-Serif" font-size="11.00">9 rows</text>
<polygon fill="#ffffff" stroke="transparent" points="282,-57 282,-75 323,-75 323,-57 282,-57"/>
<polygon fill="none" stroke="black" points="282,-57 282,-75 323,-75 323,-57 282,-57"/>
<text text-anchor="start" x="304" y="-63.2" font-family="Helvetica,sans-Serif" font-size="11.00">2 &gt;</text>
</a>
</g>
</g>
<!-- taphonomictypes&#45;&gt;taphonomicsystems -->
<g id="edge15" class="edge">
<title>taphonomictypes:w&#45;&gt;taphonomicsystems:e</title>
<path fill="none" stroke="black" d="M369.04,-84C353.38,-84 344.87,-84 324,-84"/>
<polygon fill="black" stroke="black" points="375.5,-84 383.5,-87.6 379.5,-84 383.5,-84 383.5,-84 383.5,-84 379.5,-84 383.5,-80.4 375.5,-84 375.5,-84"/>
<ellipse fill="none" stroke="black" cx="372.3" cy="-84" rx="3.2" ry="3.2"/>
</g>
<!-- summarydatataphonomy -->
<g id="node13" class="node">
<title>summarydatataphonomy</title>
<g id="a_node13"><a xlink:href="../../tables/summarydatataphonomy.html" xlink:title="summarydatataphonomy" target="_top">
<polygon fill="#ffffff" stroke="transparent" points="592,-49 592,-181 844,-181 844,-49 592,-49"/>
<polygon fill="#f5f5f5" stroke="transparent" points="594,-157 594,-179 842,-179 842,-157 594,-157"/>
<polygon fill="none" stroke="black" points="594,-157 594,-179 842,-179 842,-157 594,-157"/>
<text text-anchor="start" x="599" y="-166.2" font-family="Helvetica,sans-Serif" font-weight="bold" font-size="11.00">summarydatataphonomy</text>
<text text-anchor="start" x="807" y="-165.2" font-family="Helvetica,sans-Serif" font-size="11.00">[table]</text>
<polygon fill="none" stroke="black" points="594,-135 594,-157 768,-157 768,-135 594,-135"/>
<image xlink:href="../../images/primaryKeys.png" width="11px" height="12px" preserveAspectRatio="xMinYMin meet" x="599" y="-152"/>
<text text-anchor="start" x="614" y="-143.2" font-family="Helvetica,sans-Serif" font-size="11.00">dataid</text>
<polygon fill="none" stroke="black" points="768,-135 768,-157 842,-157 842,-135 768,-135"/>
<text text-anchor="start" x="771" y="-143.2" font-family="Helvetica,sans-Serif" font-size="11.00">int4[10]</text>
<polygon fill="none" stroke="black" points="594,-113 594,-135 768,-135 768,-113 594,-113"/>
<image xlink:href="../../images/primaryKeys.png" width="11px" height="12px" preserveAspectRatio="xMinYMin meet" x="599" y="-130"/>
<text text-anchor="start" x="614" y="-121.2" font-family="Helvetica,sans-Serif" font-size="11.00">taphonomictypeid</text>
<polygon fill="none" stroke="black" points="768,-113 768,-135 842,-135 842,-113 768,-113"/>
<text text-anchor="start" x="771" y="-121.2" font-family="Helvetica,sans-Serif" font-size="11.00">int4[10]</text>
<polygon fill="none" stroke="black" points="594,-91 594,-113 768,-113 768,-91 594,-91"/>
<text text-anchor="start" x="614" y="-99.2" font-family="Helvetica,sans-Serif" font-size="11.00">recdatecreated</text>
<polygon fill="none" stroke="black" points="768,-91 768,-113 842,-113 842,-91 768,-91"/>
<text text-anchor="start" x="771" y="-99.2" font-family="Helvetica,sans-Serif" font-size="11.00">timestamp[22]</text>
<polygon fill="none" stroke="black" points="594,-69 594,-91 768,-91 768,-69 594,-69"/>
<text text-anchor="start" x="614" y="-77.2" font-family="Helvetica,sans-Serif" font-size="11.00">recdatemodified</text>
<polygon fill="none" stroke="black" points="768,-69 768,-91 842,-91 842,-69 768,-69"/>
<text text-anchor="start" x="771" y="-77.2" font-family="Helvetica,sans-Serif" font-size="11.00">timestamp[22]</text>
<polygon fill="#ffffff" stroke="transparent" points="594,-51 594,-69 659,-69 659,-51 594,-51"/>
<polygon fill="none" stroke="black" points="594,-51 594,-69 659,-69 659,-51 594,-51"/>
<text text-anchor="start" x="597" y="-57.2" font-family="Helvetica,sans-Serif" font-size="11.00">&lt; 2</text>
<polygon fill="#ffffff" stroke="transparent" points="659,-51 659,-69 768,-69 768,-51 659,-51"/>
<polygon fill="none" stroke="black" points="659,-51 659,-69 768,-69 768,-51 659,-51"/>
<text text-anchor="start" x="705" y="-57.2" font-family="Helvetica,sans-Serif" font-size="11.00">43,202 rows</text>
<polygon fill="#ffffff" stroke="transparent" points="768,-51 768,-69 842,-69 842,-51 768,-51"/>
<polygon fill="none" stroke="black" points="768,-51 768,-69 842,-69 842,-51 768,-51"/>
<text text-anchor="start" x="823" y="-57.2" font-family="Helvetica,sans-Serif" font-size="11.00">0 &gt;</text>
<polygon fill="none" stroke="black" stroke-width="2" points="593,-50 593,-180 843,-180 843,-50 593,-50"/>
</a>
</g>
</g>
<!-- summarydatataphonomy&#45;&gt;data -->
<g id="edge13" class="edge">
<title>summarydatataphonomy:w&#45;&gt;data:e</title>
<path fill="none" stroke="black" d="M578.59,-147.48C528.78,-153.14 368.03,-173.25 364,-177 286.22,-249.39 421.26,-411 315,-411"/>
<polygon fill="black" stroke="black" points="585.04,-146.82 593.37,-149.58 589.02,-146.41 593,-146 593,-146 593,-146 589.02,-146.41 592.63,-142.42 585.04,-146.82 585.04,-146.82"/>
<ellipse fill="none" stroke="black" cx="581.86" cy="-147.15" rx="3.2" ry="3.2"/>
</g>
<!-- summarydatataphonomy&#45;&gt;taphonomictypes -->
<g id="edge14" class="edge">
<title>summarydatataphonomy:w&#45;&gt;taphonomictypes:e</title>
<path fill="none" stroke="black" d="M578.44,-122.07C562.19,-117.43 554.86,-106 532.5,-106"/>
<polygon fill="black" stroke="black" points="585.07,-122.95 592.53,-127.57 589.03,-123.48 593,-124 593,-124 593,-124 589.03,-123.48 593.47,-120.43 585.07,-122.95 585.07,-122.95"/>
<ellipse fill="none" stroke="black" cx="581.9" cy="-122.53" rx="3.2" ry="3.2"/>
</g>
</g>
</svg>
