<?xml version="1.0" encoding="UTF-8" standalone="no"?>
<!DOCTYPE svg PUBLIC "-//W3C//DTD SVG 1.1//EN"
 "http://www.w3.org/Graphics/SVG/1.1/DTD/svg11.dtd">
<!-- Generated by graphviz version 2.43.0 (0)
 -->
<!-- Title: twoDegreesRelationshipsDiagram Pages: 1 -->
<svg width="860pt" height="612pt"
 viewBox="0.00 0.00 860.00 611.97" xmlns="http://www.w3.org/2000/svg" xmlns:xlink="http://www.w3.org/1999/xlink">
<g id="graph0" class="graph" transform="scale(1 1) rotate(0) translate(4 607.97)">
<title>twoDegreesRelationshipsDiagram</title>
<polygon fill="#ffffff" stroke="transparent" points="-4,4 -4,-607.97 856,-607.97 856,4 -4,4"/>
<text text-anchor="middle" x="71.5" y="-7.2" font-family="Helvetica,sans-Serif" font-size="11.00">Generated by SchemaSpy</text>
<!-- data -->
<g id="node1" class="node">
<title>data</title>
<g id="a_node1"><a xlink:href="../../tables/data.html" xlink:title="data" target="_top">
<polygon fill="#ffffff" stroke="transparent" points="182.5,-281 182.5,-405 313.5,-405 313.5,-281 182.5,-281"/>
<polygon fill="#f5f5f5" stroke="transparent" points="183,-383 183,-405 314,-405 314,-383 183,-383"/>
<polygon fill="none" stroke="black" points="183,-383 183,-405 314,-405 314,-383 183,-383"/>
<text text-anchor="start" x="188" y="-392.2" font-family="Helvetica,sans-Serif" font-weight="bold" font-size="11.00">data</text>
<text text-anchor="start" x="279" y="-391.2" font-family="Helvetica,sans-Serif" font-size="11.00">[table]</text>
<polygon fill="none" stroke="black" points="183,-361 183,-383 314,-383 314,-361 183,-361"/>
<image xlink:href="../../images/primaryKeys.png" width="11px" height="12px" preserveAspectRatio="xMinYMin meet" x="188" y="-378"/>
<text text-anchor="start" x="209" y="-369.2" font-family="Helvetica,sans-Serif" font-size="11.00">dataid</text>
<polygon fill="#ffffff" stroke="transparent" points="183,-339 183,-361 314,-361 314,-339 183,-339"/>
<polygon fill="none" stroke="black" points="183,-339 183,-361 314,-361 314,-339 183,-339"/>
<image xlink:href="../../images/foreignKeys.png" width="11px" height="12px" preserveAspectRatio="xMinYMin meet" x="188" y="-356"/>
<text text-anchor="start" x="209" y="-347.2" font-family="Helvetica,sans-Serif" font-size="11.00">sampleid</text>
<polygon fill="#ffffff" stroke="transparent" points="183,-317 183,-339 314,-339 314,-317 183,-317"/>
<polygon fill="none" stroke="black" points="183,-317 183,-339 314,-339 314,-317 183,-317"/>
<image xlink:href="../../images/foreignKeys.png" width="11px" height="12px" preserveAspectRatio="xMinYMin meet" x="188" y="-334"/>
<text text-anchor="start" x="209" y="-325.2" font-family="Helvetica,sans-Serif" font-size="11.00">variableid</text>
<polygon fill="none" stroke="black" points="183,-299 183,-317 314,-317 314,-299 183,-299"/>
<text text-anchor="start" x="186" y="-305.2" font-family="Helvetica,sans-Serif" font-size="11.00">...</text>
<polygon fill="#ffffff" stroke="transparent" points="183,-281 183,-299 205,-299 205,-281 183,-281"/>
<polygon fill="none" stroke="black" points="183,-281 183,-299 205,-299 205,-281 183,-281"/>
<text text-anchor="start" x="186" y="-287.2" font-family="Helvetica,sans-Serif" font-size="11.00">&lt; 2</text>
<polygon fill="#ffffff" stroke="transparent" points="205,-281 205,-299 292,-299 292,-281 205,-281"/>
<polygon fill="none" stroke="black" points="205,-281 205,-299 292,-299 292,-281 205,-281"/>
<text text-anchor="start" x="208" y="-287.2" font-family="Helvetica,sans-Serif" font-size="11.00">10,039,985 rows</text>
<polygon fill="#ffffff" stroke="transparent" points="292,-281 292,-299 314,-299 314,-281 292,-281"/>
<polygon fill="none" stroke="black" points="292,-281 292,-299 314,-299 314,-281 292,-281"/>
<text text-anchor="start" x="295" y="-287.2" font-family="Helvetica,sans-Serif" font-size="11.00">7 &gt;</text>
</a>
</g>
</g>
<!-- samples -->
<g id="node2" class="node">
<title>samples</title>
<g id="a_node2"><a xlink:href="../../tables/samples.html" xlink:title="samples" target="_top">
<polygon fill="#ffffff" stroke="transparent" points="8,-351 8,-409 124,-409 124,-351 8,-351"/>
<polygon fill="#f5f5f5" stroke="transparent" points="8,-387 8,-409 124,-409 124,-387 8,-387"/>
<polygon fill="none" stroke="black" points="8,-387 8,-409 124,-409 124,-387 8,-387"/>
<text text-anchor="start" x="13" y="-396.2" font-family="Helvetica,sans-Serif" font-weight="bold" font-size="11.00">samples</text>
<text text-anchor="start" x="89" y="-395.2" font-family="Helvetica,sans-Serif" font-size="11.00">[table]</text>
<polygon fill="none" stroke="black" points="8,-369 8,-387 124,-387 124,-369 8,-369"/>
<text text-anchor="start" x="11" y="-375.2" font-family="Helvetica,sans-Serif" font-size="11.00">...</text>
<polygon fill="#ffffff" stroke="transparent" points="8,-351 8,-369 30,-369 30,-351 8,-351"/>
<polygon fill="none" stroke="black" points="8,-351 8,-369 30,-369 30,-351 8,-351"/>
<text text-anchor="start" x="11" y="-357.2" font-family="Helvetica,sans-Serif" font-size="11.00">&lt; 3</text>
<polygon fill="#ffffff" stroke="transparent" points="30,-351 30,-369 102,-369 102,-351 30,-351"/>
<polygon fill="none" stroke="black" points="30,-351 30,-369 102,-369 102,-351 30,-351"/>
<text text-anchor="start" x="33" y="-357.2" font-family="Helvetica,sans-Serif" font-size="11.00">506,105 rows</text>
<polygon fill="#ffffff" stroke="transparent" points="102,-351 102,-369 124,-369 124,-351 102,-351"/>
<polygon fill="none" stroke="black" points="102,-351 102,-369 124,-369 124,-351 102,-351"/>
<text text-anchor="start" x="105" y="-357.2" font-family="Helvetica,sans-Serif" font-size="11.00">7 &gt;</text>
</a>
</g>
</g>
<!-- data&#45;&gt;samples -->
<g id="edge1" class="edge">
<title>data:w&#45;&gt;samples:e</title>
<path fill="none" stroke="black" d="M167.76,-353C152.41,-360.22 147.49,-378 125,-378"/>
<polygon fill="black" stroke="black" points="174.17,-351.65 182.74,-353.52 178.09,-350.82 182,-350 182,-350 182,-350 178.09,-350.82 181.26,-346.48 174.17,-351.65 174.17,-351.65"/>
<ellipse fill="none" stroke="black" cx="171.04" cy="-352.31" rx="3.2" ry="3.2"/>
</g>
<!-- variables -->
<g id="node3" class="node">
<title>variables</title>
<g id="a_node3"><a xlink:href="../../tables/variables.html" xlink:title="variables" target="_top">
<polygon fill="#ffffff" stroke="transparent" points="11,-272 11,-330 121,-330 121,-272 11,-272"/>
<polygon fill="#f5f5f5" stroke="transparent" points="11,-308 11,-330 121,-330 121,-308 11,-308"/>
<polygon fill="none" stroke="black" points="11,-308 11,-330 121,-330 121,-308 11,-308"/>
<text text-anchor="start" x="16" y="-317.2" font-family="Helvetica,sans-Serif" font-weight="bold" font-size="11.00">variables</text>
<text text-anchor="start" x="86" y="-316.2" font-family="Helvetica,sans-Serif" font-size="11.00">[table]</text>
<polygon fill="none" stroke="black" points="11,-290 11,-308 121,-308 121,-290 11,-290"/>
<text text-anchor="start" x="14" y="-296.2" font-family="Helvetica,sans-Serif" font-size="11.00">...</text>
<polygon fill="#ffffff" stroke="transparent" points="11,-272 11,-290 33,-290 33,-272 11,-272"/>
<polygon fill="none" stroke="black" points="11,-272 11,-290 33,-290 33,-272 11,-272"/>
<text text-anchor="start" x="14" y="-278.2" font-family="Helvetica,sans-Serif" font-size="11.00">&lt; 4</text>
<polygon fill="#ffffff" stroke="transparent" points="33,-272 33,-290 99,-290 99,-272 33,-272"/>
<polygon fill="none" stroke="black" points="33,-272 33,-290 99,-290 99,-272 33,-272"/>
<text text-anchor="start" x="36" y="-278.2" font-family="Helvetica,sans-Serif" font-size="11.00">55,155 rows</text>
<polygon fill="#ffffff" stroke="transparent" points="99,-272 99,-290 121,-290 121,-272 99,-272"/>
<polygon fill="none" stroke="black" points="99,-272 99,-290 121,-290 121,-272 99,-272"/>
<text text-anchor="start" x="102" y="-278.2" font-family="Helvetica,sans-Serif" font-size="11.00">6 &gt;</text>
</a>
</g>
</g>
<!-- data&#45;&gt;variables -->
<g id="edge2" class="edge">
<title>data:w&#45;&gt;variables:e</title>
<path fill="none" stroke="black" d="M167.52,-325.11C150.98,-317.78 145.83,-299 122,-299"/>
<polygon fill="black" stroke="black" points="174.15,-326.44 181.3,-331.53 178.08,-327.22 182,-328 182,-328 182,-328 178.08,-327.22 182.7,-324.47 174.15,-326.44 174.15,-326.44"/>
<ellipse fill="none" stroke="black" cx="171.02" cy="-325.81" rx="3.2" ry="3.2"/>
</g>
<!-- datataxonnotes -->
<g id="node4" class="node">
<title>datataxonnotes</title>
<g id="a_node4"><a xlink:href="../../tables/datataxonnotes.html" xlink:title="datataxonnotes" target="_top">
<polygon fill="#ffffff" stroke="transparent" points="394.5,-424 394.5,-482 520.5,-482 520.5,-424 394.5,-424"/>
<polygon fill="#f5f5f5" stroke="transparent" points="394.5,-460 394.5,-482 520.5,-482 520.5,-460 394.5,-460"/>
<polygon fill="none" stroke="black" points="394.5,-460 394.5,-482 520.5,-482 520.5,-460 394.5,-460"/>
<text text-anchor="start" x="399.5" y="-469.2" font-family="Helvetica,sans-Serif" font-weight="bold" font-size="11.00">datataxonnotes</text>
<text text-anchor="start" x="485.5" y="-468.2" font-family="Helvetica,sans-Serif" font-size="11.00">[table]</text>
<polygon fill="none" stroke="black" points="394.5,-442 394.5,-460 520.5,-460 520.5,-442 394.5,-442"/>
<text text-anchor="start" x="397.5" y="-448.2" font-family="Helvetica,sans-Serif" font-size="11.00">...</text>
<polygon fill="#ffffff" stroke="transparent" points="394.5,-424 394.5,-442 442.5,-442 442.5,-424 394.5,-424"/>
<polygon fill="none" stroke="black" points="394.5,-424 394.5,-442 442.5,-442 442.5,-424 394.5,-424"/>
<text text-anchor="start" x="397.5" y="-430.2" font-family="Helvetica,sans-Serif" font-size="11.00">&lt; 2</text>
<polygon fill="#ffffff" stroke="transparent" points="442.5,-424 442.5,-442 494.5,-442 494.5,-424 442.5,-424"/>
<polygon fill="none" stroke="black" points="442.5,-424 442.5,-442 494.5,-442 494.5,-424 442.5,-424"/>
<text text-anchor="start" x="458.5" y="-430.2" font-family="Helvetica,sans-Serif" font-size="11.00">0 rows</text>
<polygon fill="#ffffff" stroke="transparent" points="494.5,-424 494.5,-442 520.5,-442 520.5,-424 494.5,-424"/>
<polygon fill="none" stroke="black" points="494.5,-424 494.5,-442 520.5,-442 520.5,-424 494.5,-424"/>
<text text-anchor="start" x="510.5" y="-430.2" font-family="Helvetica,sans-Serif" font-size="11.00"> &#160;</text>
</a>
</g>
</g>
<!-- datataxonnotes&#45;&gt;data -->
<g id="edge3" class="edge">
<title>datataxonnotes:w&#45;&gt;data:e</title>
<path fill="none" stroke="black" d="M379.17,-448.19C347.75,-434.12 358.89,-372 315,-372"/>
<polygon fill="black" stroke="black" points="385.65,-449.46 392.81,-454.53 389.57,-450.23 393.5,-451 393.5,-451 393.5,-451 389.57,-450.23 394.19,-447.47 385.65,-449.46 385.65,-449.46"/>
<ellipse fill="none" stroke="black" cx="382.51" cy="-448.84" rx="3.2" ry="3.2"/>
</g>
<!-- isometadata -->
<g id="node5" class="node">
<title>isometadata</title>
<g id="a_node5"><a xlink:href="../../tables/isometadata.html" xlink:title="isometadata" target="_top">
<polygon fill="#ffffff" stroke="transparent" points="403.5,-345 403.5,-403 511.5,-403 511.5,-345 403.5,-345"/>
<polygon fill="#f5f5f5" stroke="transparent" points="403.5,-381 403.5,-403 511.5,-403 511.5,-381 403.5,-381"/>
<polygon fill="none" stroke="black" points="403.5,-381 403.5,-403 511.5,-403 511.5,-381 403.5,-381"/>
<text text-anchor="start" x="408.5" y="-390.2" font-family="Helvetica,sans-Serif" font-weight="bold" font-size="11.00">isometadata</text>
<text text-anchor="start" x="476.5" y="-389.2" font-family="Helvetica,sans-Serif" font-size="11.00">[table]</text>
<polygon fill="none" stroke="black" points="403.5,-363 403.5,-381 511.5,-381 511.5,-363 403.5,-363"/>
<text text-anchor="start" x="406.5" y="-369.2" font-family="Helvetica,sans-Serif" font-size="11.00">...</text>
<polygon fill="#ffffff" stroke="transparent" points="403.5,-345 403.5,-363 431.5,-363 431.5,-345 403.5,-345"/>
<polygon fill="none" stroke="black" points="403.5,-345 403.5,-363 431.5,-363 431.5,-345 403.5,-345"/>
<text text-anchor="start" x="406.5" y="-351.2" font-family="Helvetica,sans-Serif" font-size="11.00">&lt; 4</text>
<polygon fill="#ffffff" stroke="transparent" points="431.5,-345 431.5,-363 494.5,-363 494.5,-345 431.5,-345"/>
<polygon fill="none" stroke="black" points="431.5,-345 431.5,-363 494.5,-363 494.5,-345 431.5,-345"/>
<text text-anchor="start" x="437.5" y="-351.2" font-family="Helvetica,sans-Serif" font-size="11.00">4,893 rows</text>
<polygon fill="#ffffff" stroke="transparent" points="494.5,-345 494.5,-363 511.5,-363 511.5,-345 494.5,-345"/>
<polygon fill="none" stroke="black" points="494.5,-345 494.5,-363 511.5,-363 511.5,-345 494.5,-345"/>
<text text-anchor="start" x="501.5" y="-351.2" font-family="Helvetica,sans-Serif" font-size="11.00"> &#160;</text>
</a>
</g>
</g>
<!-- isometadata&#45;&gt;data -->
<g id="edge4" class="edge">
<title>isometadata:w&#45;&gt;data:e</title>
<path fill="none" stroke="black" d="M388.04,-372C360.41,-372 348.57,-372 315,-372"/>
<polygon fill="black" stroke="black" points="394.5,-372 402.5,-375.6 398.5,-372 402.5,-372 402.5,-372 402.5,-372 398.5,-372 402.5,-368.4 394.5,-372 394.5,-372"/>
<ellipse fill="none" stroke="black" cx="391.3" cy="-372" rx="3.2" ry="3.2"/>
</g>
<!-- isosamplepretreatments -->
<g id="node6" class="node">
<title>isosamplepretreatments</title>
<g id="a_node6"><a xlink:href="../../tables/isosamplepretreatments.html" xlink:title="isosamplepretreatments" target="_top">
<polygon fill="#ffffff" stroke="transparent" points="372,-266 372,-324 543,-324 543,-266 372,-266"/>
<polygon fill="#f5f5f5" stroke="transparent" points="372.5,-302 372.5,-324 543.5,-324 543.5,-302 372.5,-302"/>
<polygon fill="none" stroke="black" points="372.5,-302 372.5,-324 543.5,-324 543.5,-302 372.5,-302"/>
<text text-anchor="start" x="377.5" y="-311.2" font-family="Helvetica,sans-Serif" font-weight="bold" font-size="11.00">isosamplepretreatments</text>
<text text-anchor="start" x="508.5" y="-310.2" font-family="Helvetica,sans-Serif" font-size="11.00">[table]</text>
<polygon fill="none" stroke="black" points="372.5,-284 372.5,-302 543.5,-302 543.5,-284 372.5,-284"/>
<text text-anchor="start" x="375.5" y="-290.2" font-family="Helvetica,sans-Serif" font-size="11.00">...</text>
<polygon fill="#ffffff" stroke="transparent" points="372.5,-266 372.5,-284 432.5,-284 432.5,-266 372.5,-266"/>
<polygon fill="none" stroke="black" points="372.5,-266 372.5,-284 432.5,-284 432.5,-266 372.5,-266"/>
<text text-anchor="start" x="375.5" y="-272.2" font-family="Helvetica,sans-Serif" font-size="11.00">&lt; 2</text>
<polygon fill="#ffffff" stroke="transparent" points="432.5,-266 432.5,-284 511.5,-284 511.5,-266 432.5,-266"/>
<polygon fill="none" stroke="black" points="432.5,-266 432.5,-284 511.5,-284 511.5,-266 432.5,-266"/>
<text text-anchor="start" x="454.5" y="-272.2" font-family="Helvetica,sans-Serif" font-size="11.00">1,035 rows</text>
<polygon fill="#ffffff" stroke="transparent" points="511.5,-266 511.5,-284 543.5,-284 543.5,-266 511.5,-266"/>
<polygon fill="none" stroke="black" points="511.5,-266 511.5,-284 543.5,-284 543.5,-266 511.5,-266"/>
<text text-anchor="start" x="533.5" y="-272.2" font-family="Helvetica,sans-Serif" font-size="11.00"> &#160;</text>
</a>
</g>
</g>
<!-- isosamplepretreatments&#45;&gt;data -->
<g id="edge5" class="edge">
<title>isosamplepretreatments:w&#45;&gt;data:e</title>
<path fill="none" stroke="black" d="M357.52,-297.03C335.13,-313.12 352.26,-372 315,-372"/>
<polygon fill="black" stroke="black" points="363.81,-295.21 372.5,-296.46 367.66,-294.11 371.5,-293 371.5,-293 371.5,-293 367.66,-294.11 370.5,-289.54 363.81,-295.21 363.81,-295.21"/>
<ellipse fill="none" stroke="black" cx="360.74" cy="-296.1" rx="3.2" ry="3.2"/>
</g>
<!-- isospecimendata -->
<g id="node7" class="node">
<title>isospecimendata</title>
<g id="a_node7"><a xlink:href="../../tables/isospecimendata.html" xlink:title="isospecimendata" target="_top">
<polygon fill="#ffffff" stroke="transparent" points="651.5,-530 651.5,-588 784.5,-588 784.5,-530 651.5,-530"/>
<polygon fill="#f5f5f5" stroke="transparent" points="652,-566 652,-588 785,-588 785,-566 652,-566"/>
<polygon fill="none" stroke="black" points="652,-566 652,-588 785,-588 785,-566 652,-566"/>
<text text-anchor="start" x="657" y="-575.2" font-family="Helvetica,sans-Serif" font-weight="bold" font-size="11.00">isospecimendata</text>
<text text-anchor="start" x="750" y="-574.2" font-family="Helvetica,sans-Serif" font-size="11.00">[table]</text>
<polygon fill="none" stroke="black" points="652,-548 652,-566 785,-566 785,-548 652,-548"/>
<text text-anchor="start" x="655" y="-554.2" font-family="Helvetica,sans-Serif" font-size="11.00">...</text>
<polygon fill="#ffffff" stroke="transparent" points="652,-530 652,-548 693,-548 693,-530 652,-530"/>
<polygon fill="none" stroke="black" points="652,-530 652,-548 693,-548 693,-530 652,-530"/>
<text text-anchor="start" x="655" y="-536.2" font-family="Helvetica,sans-Serif" font-size="11.00">&lt; 2</text>
<polygon fill="#ffffff" stroke="transparent" points="693,-530 693,-548 762,-548 762,-530 693,-530"/>
<polygon fill="none" stroke="black" points="693,-530 693,-548 762,-548 762,-530 693,-530"/>
<text text-anchor="start" x="705" y="-536.2" font-family="Helvetica,sans-Serif" font-size="11.00">5,193 rows</text>
<polygon fill="#ffffff" stroke="transparent" points="762,-530 762,-548 785,-548 785,-530 762,-530"/>
<polygon fill="none" stroke="black" points="762,-530 762,-548 785,-548 785,-530 762,-530"/>
<text text-anchor="start" x="775" y="-536.2" font-family="Helvetica,sans-Serif" font-size="11.00"> &#160;</text>
</a>
</g>
</g>
<!-- isospecimendata&#45;&gt;data -->
<g id="edge6" class="edge">
<title>isospecimendata:w&#45;&gt;data:e</title>
<path fill="none" stroke="black" d="M636.34,-557.41C518.61,-564.07 460.57,-647.76 364,-572 292,-515.51 406.52,-372 315,-372"/>
<polygon fill="black" stroke="black" points="643,-557.23 651.1,-560.6 647,-557.11 651,-557 651,-557 651,-557 647,-557.11 650.9,-553.4 643,-557.23 643,-557.23"/>
<ellipse fill="none" stroke="black" cx="639.8" cy="-557.32" rx="3.2" ry="3.2"/>
</g>
<!-- specimens -->
<g id="node8" class="node">
<title>specimens</title>
<g id="a_node8"><a xlink:href="../../tables/specimens.html" xlink:title="specimens" target="_top">
<polygon fill="#ffffff" stroke="transparent" points="405.5,-503 405.5,-561 509.5,-561 509.5,-503 405.5,-503"/>
<polygon fill="#f5f5f5" stroke="transparent" points="405.5,-539 405.5,-561 509.5,-561 509.5,-539 405.5,-539"/>
<polygon fill="none" stroke="black" points="405.5,-539 405.5,-561 509.5,-561 509.5,-539 405.5,-539"/>
<text text-anchor="start" x="410.5" y="-548.2" font-family="Helvetica,sans-Serif" font-weight="bold" font-size="11.00">specimens</text>
<text text-anchor="start" x="474.5" y="-547.2" font-family="Helvetica,sans-Serif" font-size="11.00">[table]</text>
<polygon fill="none" stroke="black" points="405.5,-521 405.5,-539 509.5,-539 509.5,-521 405.5,-521"/>
<text text-anchor="start" x="408.5" y="-527.2" font-family="Helvetica,sans-Serif" font-size="11.00">...</text>
<polygon fill="#ffffff" stroke="transparent" points="405.5,-503 405.5,-521 427.5,-521 427.5,-503 405.5,-503"/>
<polygon fill="none" stroke="black" points="405.5,-503 405.5,-521 427.5,-521 427.5,-503 405.5,-503"/>
<text text-anchor="start" x="408.5" y="-509.2" font-family="Helvetica,sans-Serif" font-size="11.00">&lt; 8</text>
<polygon fill="#ffffff" stroke="transparent" points="427.5,-503 427.5,-521 487.5,-521 487.5,-503 427.5,-503"/>
<polygon fill="none" stroke="black" points="427.5,-503 427.5,-521 487.5,-521 487.5,-503 427.5,-503"/>
<text text-anchor="start" x="430.5" y="-509.2" font-family="Helvetica,sans-Serif" font-size="11.00">3,351 rows</text>
<polygon fill="#ffffff" stroke="transparent" points="487.5,-503 487.5,-521 509.5,-521 509.5,-503 487.5,-503"/>
<polygon fill="none" stroke="black" points="487.5,-503 487.5,-521 509.5,-521 509.5,-503 487.5,-503"/>
<text text-anchor="start" x="490.5" y="-509.2" font-family="Helvetica,sans-Serif" font-size="11.00">4 &gt;</text>
</a>
</g>
</g>
<!-- isospecimendata&#45;&gt;specimens -->
<g id="edge7" class="edge">
<title>isospecimendata:w&#45;&gt;specimens:e</title>
<path fill="none" stroke="black" d="M636.31,-556.48C584.89,-552.75 568.87,-530 510.5,-530"/>
<polygon fill="black" stroke="black" points="643,-556.72 650.87,-560.6 647,-556.86 651,-557 651,-557 651,-557 647,-556.86 651.13,-553.4 643,-556.72 643,-556.72"/>
<ellipse fill="none" stroke="black" cx="639.81" cy="-556.61" rx="3.2" ry="3.2"/>
</g>
<!-- specimens&#45;&gt;data -->
<g id="edge9" class="edge">
<title>specimens:w&#45;&gt;data:e</title>
<path fill="none" stroke="black" d="M390.21,-527.21C378.37,-521.6 374.55,-508.17 364,-493 330.87,-445.37 373.02,-372 315,-372"/>
<polygon fill="black" stroke="black" points="396.65,-528.47 403.81,-533.53 400.57,-529.23 404.5,-530 404.5,-530 404.5,-530 400.57,-529.23 405.19,-526.47 396.65,-528.47 396.65,-528.47"/>
<ellipse fill="none" stroke="black" cx="393.51" cy="-527.85" rx="3.2" ry="3.2"/>
</g>
<!-- isostratdata -->
<g id="node9" class="node">
<title>isostratdata</title>
<g id="a_node9"><a xlink:href="../../tables/isostratdata.html" xlink:title="isostratdata" target="_top">
<polygon fill="#ffffff" stroke="transparent" points="404,-187 404,-245 511,-245 511,-187 404,-187"/>
<polygon fill="#f5f5f5" stroke="transparent" points="404.5,-223 404.5,-245 511.5,-245 511.5,-223 404.5,-223"/>
<polygon fill="none" stroke="black" points="404.5,-223 404.5,-245 511.5,-245 511.5,-223 404.5,-223"/>
<text text-anchor="start" x="409.5" y="-232.2" font-family="Helvetica,sans-Serif" font-weight="bold" font-size="11.00">isostratdata</text>
<text text-anchor="start" x="476.5" y="-231.2" font-family="Helvetica,sans-Serif" font-size="11.00">[table]</text>
<polygon fill="none" stroke="black" points="404.5,-205 404.5,-223 511.5,-223 511.5,-205 404.5,-205"/>
<text text-anchor="start" x="407.5" y="-211.2" font-family="Helvetica,sans-Serif" font-size="11.00">...</text>
<polygon fill="#ffffff" stroke="transparent" points="404.5,-187 404.5,-205 436.5,-205 436.5,-187 404.5,-187"/>
<polygon fill="none" stroke="black" points="404.5,-187 404.5,-205 436.5,-205 436.5,-187 404.5,-187"/>
<text text-anchor="start" x="407.5" y="-193.2" font-family="Helvetica,sans-Serif" font-size="11.00">&lt; 3</text>
<polygon fill="#ffffff" stroke="transparent" points="436.5,-187 436.5,-205 492.5,-205 492.5,-187 436.5,-187"/>
<polygon fill="none" stroke="black" points="436.5,-187 436.5,-205 492.5,-205 492.5,-187 436.5,-187"/>
<text text-anchor="start" x="444.5" y="-193.2" font-family="Helvetica,sans-Serif" font-size="11.00">634 rows</text>
<polygon fill="#ffffff" stroke="transparent" points="492.5,-187 492.5,-205 511.5,-205 511.5,-187 492.5,-187"/>
<polygon fill="none" stroke="black" points="492.5,-187 492.5,-205 511.5,-205 511.5,-187 492.5,-187"/>
<text text-anchor="start" x="501.5" y="-193.2" font-family="Helvetica,sans-Serif" font-size="11.00"> &#160;</text>
</a>
</g>
</g>
<!-- isostratdata&#45;&gt;data -->
<g id="edge8" class="edge">
<title>isostratdata:w&#45;&gt;data:e</title>
<path fill="none" stroke="black" d="M392.77,-215.09C329.73,-229.05 391.56,-372 315,-372"/>
<polygon fill="black" stroke="black" points="402.3,-210.1 403.11,-218.06 401.52,-218.22 400.71,-210.26 402.3,-210.1"/>
<polyline fill="none" stroke="black" points="403.5,-214 399.52,-214.41 "/>
<ellipse fill="none" stroke="black" cx="396.34" cy="-214.73" rx="3.2" ry="3.2"/>
</g>
<!-- specimentaphonomy -->
<g id="node10" class="node">
<title>specimentaphonomy</title>
<g id="a_node10"><a xlink:href="../../tables/specimentaphonomy.html" xlink:title="specimentaphonomy" target="_top">
<polygon fill="#ffffff" stroke="transparent" points="641,-340 641,-398 795,-398 795,-340 641,-340"/>
<polygon fill="#f5f5f5" stroke="transparent" points="641,-376 641,-398 795,-398 795,-376 641,-376"/>
<polygon fill="none" stroke="black" points="641,-376 641,-398 795,-398 795,-376 641,-376"/>
<text text-anchor="start" x="646" y="-385.2" font-family="Helvetica,sans-Serif" font-weight="bold" font-size="11.00">specimentaphonomy</text>
<text text-anchor="start" x="760" y="-384.2" font-family="Helvetica,sans-Serif" font-size="11.00">[table]</text>
<polygon fill="none" stroke="black" points="641,-358 641,-376 795,-376 795,-358 641,-358"/>
<text text-anchor="start" x="644" y="-364.2" font-family="Helvetica,sans-Serif" font-size="11.00">...</text>
<polygon fill="#ffffff" stroke="transparent" points="641,-340 641,-358 697,-358 697,-340 641,-340"/>
<polygon fill="none" stroke="black" points="641,-340 641,-358 697,-358 697,-340 641,-340"/>
<text text-anchor="start" x="644" y="-346.2" font-family="Helvetica,sans-Serif" font-size="11.00">&lt; 2</text>
<polygon fill="#ffffff" stroke="transparent" points="697,-340 697,-358 765,-358 765,-340 697,-340"/>
<polygon fill="none" stroke="black" points="697,-340 697,-358 765,-358 765,-340 697,-340"/>
<text text-anchor="start" x="717" y="-346.2" font-family="Helvetica,sans-Serif" font-size="11.00">452 rows</text>
<polygon fill="#ffffff" stroke="transparent" points="765,-340 765,-358 795,-358 795,-340 765,-340"/>
<polygon fill="none" stroke="black" points="765,-340 765,-358 795,-358 795,-340 765,-340"/>
<text text-anchor="start" x="785" y="-346.2" font-family="Helvetica,sans-Serif" font-size="11.00"> &#160;</text>
</a>
</g>
</g>
<!-- specimentaphonomy&#45;&gt;specimens -->
<g id="edge10" class="edge">
<title>specimentaphonomy:w&#45;&gt;specimens:e</title>
<path fill="none" stroke="black" d="M625.65,-368.51C553.29,-384.94 597.78,-530 510.5,-530"/>
<polygon fill="black" stroke="black" points="632.04,-367.84 640.38,-370.58 636.02,-367.42 640,-367 640,-367 640,-367 636.02,-367.42 639.62,-363.42 632.04,-367.84 632.04,-367.84"/>
<ellipse fill="none" stroke="black" cx="628.86" cy="-368.17" rx="3.2" ry="3.2"/>
</g>
<!-- taphonomictypes -->
<g id="node11" class="node">
<title>taphonomictypes</title>
<g id="a_node11"><a xlink:href="../../tables/taphonomictypes.html" xlink:title="taphonomictypes" target="_top">
<polygon fill="#ffffff" stroke="transparent" points="384,-37 384,-139 531,-139 531,-37 384,-37"/>
<polygon fill="#f5f5f5" stroke="transparent" points="384.5,-117 384.5,-139 531.5,-139 531.5,-117 384.5,-117"/>
<polygon fill="none" stroke="black" points="384.5,-117 384.5,-139 531.5,-139 531.5,-117 384.5,-117"/>
<text text-anchor="start" x="389.5" y="-126.2" font-family="Helvetica,sans-Serif" font-weight="bold" font-size="11.00">taphonomictypes</text>
<text text-anchor="start" x="496.5" y="-125.2" font-family="Helvetica,sans-Serif" font-size="11.00">[table]</text>
<polygon fill="none" stroke="black" points="384.5,-95 384.5,-117 531.5,-117 531.5,-95 384.5,-95"/>
<image xlink:href="../../images/primaryKeys.png" width="11px" height="12px" preserveAspectRatio="xMinYMin meet" x="389.5" y="-112"/>
<text text-anchor="start" x="404.5" y="-103.2" font-family="Helvetica,sans-Serif" font-size="11.00">taphonomictypeid</text>
<polygon fill="none" stroke="black" points="384.5,-73 384.5,-95 531.5,-95 531.5,-73 384.5,-73"/>
<image xlink:href="../../images/foreignKeys.png" width="11px" height="12px" preserveAspectRatio="xMinYMin meet" x="389.5" y="-90"/>
<text text-anchor="start" x="404.5" y="-81.2" font-family="Helvetica,sans-Serif" font-size="11.00">taphonomicsystemid</text>
<polygon fill="none" stroke="black" points="384.5,-55 384.5,-73 531.5,-73 531.5,-55 384.5,-55"/>
<text text-anchor="start" x="387.5" y="-61.2" font-family="Helvetica,sans-Serif" font-size="11.00">...</text>
<polygon fill="#ffffff" stroke="transparent" points="384.5,-37 384.5,-55 435.5,-55 435.5,-37 384.5,-37"/>
<polygon fill="none" stroke="black" points="384.5,-37 384.5,-55 435.5,-55 435.5,-37 384.5,-37"/>
<text text-anchor="start" x="387.5" y="-43.2" font-family="Helvetica,sans-Serif" font-size="11.00">&lt; 1</text>
<polygon fill="#ffffff" stroke="transparent" points="435.5,-37 435.5,-55 494.5,-55 494.5,-37 435.5,-37"/>
<polygon fill="none" stroke="black" points="435.5,-37 435.5,-55 494.5,-55 494.5,-37 435.5,-37"/>
<text text-anchor="start" x="452.5" y="-43.2" font-family="Helvetica,sans-Serif" font-size="11.00">81 rows</text>
<polygon fill="#ffffff" stroke="transparent" points="494.5,-37 494.5,-55 531.5,-55 531.5,-37 494.5,-37"/>
<polygon fill="none" stroke="black" points="494.5,-37 494.5,-55 531.5,-55 531.5,-37 494.5,-37"/>
<text text-anchor="start" x="512.5" y="-43.2" font-family="Helvetica,sans-Serif" font-size="11.00">2 &gt;</text>
</a>
</g>
</g>
<!-- specimentaphonomy&#45;&gt;taphonomictypes -->
<g id="edge11" class="edge">
<title>specimentaphonomy:w&#45;&gt;taphonomictypes:e</title>
<path fill="none" stroke="black" d="M626.4,-362.25C579.63,-326.87 590.2,-106 532.5,-106"/>
<polygon fill="black" stroke="black" points="632.45,-364.36 638.81,-370.4 636.22,-365.68 640,-367 640,-367 640,-367 636.22,-365.68 641.19,-363.6 632.45,-364.36 632.45,-364.36"/>
<ellipse fill="none" stroke="black" cx="629.43" cy="-363.3" rx="3.2" ry="3.2"/>
</g>
<!-- taphonomicsystems -->
<g id="node13" class="node">
<title>taphonomicsystems</title>
<g id="a_node13"><a xlink:href="../../tables/taphonomicsystems.html" xlink:title="taphonomicsystems" target="_top">
<polygon fill="#ffffff" stroke="transparent" points="173,-57 173,-115 323,-115 323,-57 173,-57"/>
<polygon fill="#f5f5f5" stroke="transparent" points="173,-93 173,-115 323,-115 323,-93 173,-93"/>
<polygon fill="none" stroke="black" points="173,-93 173,-115 323,-115 323,-93 173,-93"/>
<text text-anchor="start" x="178" y="-102.2" font-family="Helvetica,sans-Serif" font-weight="bold" font-size="11.00">taphonomicsystems</text>
<text text-anchor="start" x="288" y="-101.2" font-family="Helvetica,sans-Serif" font-size="11.00">[table]</text>
<polygon fill="none" stroke="black" points="173,-75 173,-93 323,-93 323,-75 173,-75"/>
<text text-anchor="start" x="176" y="-81.2" font-family="Helvetica,sans-Serif" font-size="11.00">...</text>
<polygon fill="#ffffff" stroke="transparent" points="173,-57 173,-75 224,-75 224,-57 173,-57"/>
<polygon fill="none" stroke="black" points="173,-57 173,-75 224,-75 224,-57 173,-57"/>
<text text-anchor="start" x="176" y="-63.2" font-family="Helvetica,sans-Serif" font-size="11.00"> &#160;</text>
<polygon fill="#ffffff" stroke="transparent" points="224,-57 224,-75 282,-75 282,-57 224,-57"/>
<polygon fill="none" stroke="black" points="224,-57 224,-75 282,-75 282,-57 224,-57"/>
<text text-anchor="start" x="246" y="-63.2" font-family="Helvetica,sans-Serif" font-size="11.00">9 rows</text>
<polygon fill="#ffffff" stroke="transparent" points="282,-57 282,-75 323,-75 323,-57 282,-57"/>
<polygon fill="none" stroke="black" points="282,-57 282,-75 323,-75 323,-57 282,-57"/>
<text text-anchor="start" x="304" y="-63.2" font-family="Helvetica,sans-Serif" font-size="11.00">2 &gt;</text>
</a>
</g>
</g>
<!-- taphonomictypes&#45;&gt;taphonomicsystems -->
<g id="edge14" class="edge">
<title>taphonomictypes:w&#45;&gt;taphonomicsystems:e</title>
<path fill="none" stroke="black" d="M369.04,-84C353.38,-84 344.87,-84 324,-84"/>
<polygon fill="black" stroke="black" points="375.5,-84 383.5,-87.6 379.5,-84 383.5,-84 383.5,-84 383.5,-84 379.5,-84 383.5,-80.4 375.5,-84 375.5,-84"/>
<ellipse fill="none" stroke="black" cx="372.3" cy="-84" rx="3.2" ry="3.2"/>
</g>
<!-- summarydatataphonomy -->
<g id="node12" class="node">
<title>summarydatataphonomy</title>
<g id="a_node12"><a xlink:href="../../tables/summarydatataphonomy.html" xlink:title="summarydatataphonomy" target="_top">
<polygon fill="#ffffff" stroke="transparent" points="592,-49 592,-181 844,-181 844,-49 592,-49"/>
<polygon fill="#f5f5f5" stroke="transparent" points="594,-157 594,-179 842,-179 842,-157 594,-157"/>
<polygon fill="none" stroke="black" points="594,-157 594,-179 842,-179 842,-157 594,-157"/>
<text text-anchor="start" x="599" y="-166.2" font-family="Helvetica,sans-Serif" font-weight="bold" font-size="11.00">summarydatataphonomy</text>
<text text-anchor="start" x="807" y="-165.2" font-family="Helvetica,sans-Serif" font-size="11.00">[table]</text>
<polygon fill="none" stroke="black" points="594,-135 594,-157 768,-157 768,-135 594,-135"/>
<image xlink:href="../../images/primaryKeys.png" width="11px" height="12px" preserveAspectRatio="xMinYMin meet" x="599" y="-152"/>
<text text-anchor="start" x="614" y="-143.2" font-family="Helvetica,sans-Serif" font-size="11.00">dataid</text>
<polygon fill="none" stroke="black" points="768,-135 768,-157 842,-157 842,-135 768,-135"/>
<text text-anchor="start" x="771" y="-143.2" font-family="Helvetica,sans-Serif" font-size="11.00">int4[10]</text>
<polygon fill="none" stroke="black" points="594,-113 594,-135 768,-135 768,-113 594,-113"/>
<image xlink:href="../../images/primaryKeys.png" width="11px" height="12px" preserveAspectRatio="xMinYMin meet" x="599" y="-130"/>
<text text-anchor="start" x="614" y="-121.2" font-family="Helvetica,sans-Serif" font-size="11.00">taphonomictypeid</text>
<polygon fill="none" stroke="black" points="768,-113 768,-135 842,-135 842,-113 768,-113"/>
<text text-anchor="start" x="771" y="-121.2" font-family="Helvetica,sans-Serif" font-size="11.00">int4[10]</text>
<polygon fill="none" stroke="black" points="594,-91 594,-113 768,-113 768,-91 594,-91"/>
<text text-anchor="start" x="614" y="-99.2" font-family="Helvetica,sans-Serif" font-size="11.00">recdatecreated</text>
<polygon fill="none" stroke="black" points="768,-91 768,-113 842,-113 842,-91 768,-91"/>
<text text-anchor="start" x="771" y="-99.2" font-family="Helvetica,sans-Serif" font-size="11.00">timestamp[22]</text>
<polygon fill="none" stroke="black" points="594,-69 594,-91 768,-91 768,-69 594,-69"/>
<text text-anchor="start" x="614" y="-77.2" font-family="Helvetica,sans-Serif" font-size="11.00">recdatemodified</text>
<polygon fill="none" stroke="black" points="768,-69 768,-91 842,-91 842,-69 768,-69"/>
<text text-anchor="start" x="771" y="-77.2" font-family="Helvetica,sans-Serif" font-size="11.00">timestamp[22]</text>
<polygon fill="#ffffff" stroke="transparent" points="594,-51 594,-69 659,-69 659,-51 594,-51"/>
<polygon fill="none" stroke="black" points="594,-51 594,-69 659,-69 659,-51 594,-51"/>
<text text-anchor="start" x="597" y="-57.2" font-family="Helvetica,sans-Serif" font-size="11.00">&lt; 2</text>
<polygon fill="#ffffff" stroke="transparent" points="659,-51 659,-69 768,-69 768,-51 659,-51"/>
<polygon fill="none" stroke="black" points="659,-51 659,-69 768,-69 768,-51 659,-51"/>
<text text-anchor="start" x="705" y="-57.2" font-family="Helvetica,sans-Serif" font-size="11.00">42,956 rows</text>
<polygon fill="#ffffff" stroke="transparent" points="768,-51 768,-69 842,-69 842,-51 768,-51"/>
<polygon fill="none" stroke="black" points="768,-51 768,-69 842,-69 842,-51 768,-51"/>
<text text-anchor="start" x="823" y="-57.2" font-family="Helvetica,sans-Serif" font-size="11.00">0 &gt;</text>
<polygon fill="none" stroke="black" stroke-width="2" points="593,-50 593,-180 843,-180 843,-50 593,-50"/>
</a>
</g>
</g>
<!-- summarydatataphonomy&#45;&gt;data -->
<g id="edge12" class="edge">
<title>summarydatataphonomy:w&#45;&gt;data:e</title>
<path fill="none" stroke="black" d="M578.59,-147.49C528.81,-153.16 368.1,-173.33 364,-177 297.39,-236.56 404.36,-372 315,-372"/>
<polygon fill="black" stroke="black" points="585.04,-146.82 593.37,-149.58 589.02,-146.41 593,-146 593,-146 593,-146 589.02,-146.41 592.63,-142.42 585.04,-146.82 585.04,-146.82"/>
<ellipse fill="none" stroke="black" cx="581.86" cy="-147.15" rx="3.2" ry="3.2"/>
</g>
<!-- summarydatataphonomy&#45;&gt;taphonomictypes -->
<g id="edge13" class="edge">
<title>summarydatataphonomy:w&#45;&gt;taphonomictypes:e</title>
<path fill="none" stroke="black" d="M578.44,-122.07C562.19,-117.43 554.86,-106 532.5,-106"/>
<polygon fill="black" stroke="black" points="585.07,-122.95 592.53,-127.57 589.03,-123.48 593,-124 593,-124 593,-124 589.03,-123.48 593.47,-120.43 585.07,-122.95 585.07,-122.95"/>
<ellipse fill="none" stroke="black" cx="581.9" cy="-122.53" rx="3.2" ry="3.2"/>
</g>
</g>
</svg>
