<?xml version="1.0" encoding="UTF-8" standalone="no"?>
<!DOCTYPE svg PUBLIC "-//W3C//DTD SVG 1.1//EN"
 "http://www.w3.org/Graphics/SVG/1.1/DTD/svg11.dtd">
<!-- Generated by graphviz version 2.43.0 (0)
 -->
<!-- Title: oneDegreeRelationshipsDiagram Pages: 1 -->
<svg width="585pt" height="550pt"
 viewBox="0.00 0.00 585.00 550.00" xmlns="http://www.w3.org/2000/svg" xmlns:xlink="http://www.w3.org/1999/xlink">
<g id="graph0" class="graph" transform="scale(1 1) rotate(0) translate(4 546)">
<title>oneDegreeRelationshipsDiagram</title>
<polygon fill="#ffffff" stroke="transparent" points="-4,4 -4,-546 581,-546 581,4 -4,4"/>
<text text-anchor="middle" x="71.5" y="-7.2" font-family="Helvetica,sans-Serif" font-size="11.00">Generated by SchemaSpy</text>
<!-- synonymy -->
<g id="node1" class="node">
<title>synonymy</title>
<g id="a_node1"><a xlink:href="../../tables/synonymy.html" xlink:title="synonymy" target="_top">
<polygon fill="#ffffff" stroke="transparent" points="349,-131 349,-417 569,-417 569,-131 349,-131"/>
<polygon fill="#f5f5f5" stroke="transparent" points="351,-393 351,-415 567,-415 567,-393 351,-393"/>
<polygon fill="none" stroke="black" points="351,-393 351,-415 567,-415 567,-393 351,-393"/>
<text text-anchor="start" x="356" y="-402.2" font-family="Helvetica,sans-Serif" font-weight="bold" font-size="11.00">synonymy</text>
<text text-anchor="start" x="532" y="-401.2" font-family="Helvetica,sans-Serif" font-size="11.00">[table]</text>
<polygon fill="none" stroke="black" points="351,-371 351,-393 477,-393 477,-371 351,-371"/>
<image xlink:href="../../images/primaryKeys.png" width="11px" height="12px" preserveAspectRatio="xMinYMin meet" x="356" y="-388"/>
<text text-anchor="start" x="371" y="-379.2" font-family="Helvetica,sans-Serif" font-size="11.00">synonymyid</text>
<polygon fill="none" stroke="black" points="477,-371 477,-393 567,-393 567,-371 477,-371"/>
<text text-anchor="start" x="480" y="-379.2" font-family="Helvetica,sans-Serif" font-size="11.00">serial[10]</text>
<polygon fill="none" stroke="black" points="351,-349 351,-371 477,-371 477,-349 351,-349"/>
<image xlink:href="../../images/foreignKeys.png" width="11px" height="12px" preserveAspectRatio="xMinYMin meet" x="356" y="-366"/>
<text text-anchor="start" x="371" y="-357.2" font-family="Helvetica,sans-Serif" font-size="11.00">datasetid</text>
<polygon fill="none" stroke="black" points="477,-349 477,-371 567,-371 567,-349 477,-349"/>
<text text-anchor="start" x="480" y="-357.2" font-family="Helvetica,sans-Serif" font-size="11.00">int4[10]</text>
<polygon fill="none" stroke="black" points="351,-327 351,-349 477,-349 477,-327 351,-327"/>
<image xlink:href="../../images/foreignKeys.png" width="11px" height="12px" preserveAspectRatio="xMinYMin meet" x="356" y="-344"/>
<text text-anchor="start" x="371" y="-335.2" font-family="Helvetica,sans-Serif" font-size="11.00">taxonid</text>
<polygon fill="none" stroke="black" points="477,-327 477,-349 567,-349 567,-327 477,-327"/>
<text text-anchor="start" x="480" y="-335.2" font-family="Helvetica,sans-Serif" font-size="11.00">int4[10]</text>
<polygon fill="none" stroke="black" points="351,-305 351,-327 477,-327 477,-305 351,-305"/>
<image xlink:href="../../images/foreignKeys.png" width="11px" height="12px" preserveAspectRatio="xMinYMin meet" x="356" y="-322"/>
<text text-anchor="start" x="371" y="-313.2" font-family="Helvetica,sans-Serif" font-size="11.00">reftaxonid</text>
<polygon fill="none" stroke="black" points="477,-305 477,-327 567,-327 567,-305 477,-305"/>
<text text-anchor="start" x="480" y="-313.2" font-family="Helvetica,sans-Serif" font-size="11.00">int4[10]</text>
<polygon fill="none" stroke="black" points="351,-283 351,-305 477,-305 477,-283 351,-283"/>
<text text-anchor="start" x="371" y="-291.2" font-family="Helvetica,sans-Serif" font-size="11.00">fromcontributor</text>
<polygon fill="none" stroke="black" points="477,-283 477,-305 567,-305 567,-283 477,-283"/>
<text text-anchor="start" x="480" y="-291.2" font-family="Helvetica,sans-Serif" font-size="11.00">bool[1]</text>
<polygon fill="none" stroke="black" points="351,-261 351,-283 477,-283 477,-261 351,-261"/>
<image xlink:href="../../images/foreignKeys.png" width="11px" height="12px" preserveAspectRatio="xMinYMin meet" x="356" y="-278"/>
<text text-anchor="start" x="371" y="-269.2" font-family="Helvetica,sans-Serif" font-size="11.00">publicationid</text>
<polygon fill="none" stroke="black" points="477,-261 477,-283 567,-283 567,-261 477,-261"/>
<text text-anchor="start" x="480" y="-269.2" font-family="Helvetica,sans-Serif" font-size="11.00">int4[10]</text>
<polygon fill="none" stroke="black" points="351,-239 351,-261 477,-261 477,-239 351,-239"/>
<text text-anchor="start" x="371" y="-247.2" font-family="Helvetica,sans-Serif" font-size="11.00">notes</text>
<polygon fill="none" stroke="black" points="477,-239 477,-261 567,-261 567,-239 477,-239"/>
<text text-anchor="start" x="480" y="-247.2" font-family="Helvetica,sans-Serif" font-size="11.00">text[2147483647]</text>
<polygon fill="none" stroke="black" points="351,-217 351,-239 477,-239 477,-217 351,-217"/>
<image xlink:href="../../images/foreignKeys.png" width="11px" height="12px" preserveAspectRatio="xMinYMin meet" x="356" y="-234"/>
<text text-anchor="start" x="371" y="-225.2" font-family="Helvetica,sans-Serif" font-size="11.00">contactid</text>
<polygon fill="none" stroke="black" points="477,-217 477,-239 567,-239 567,-217 477,-217"/>
<text text-anchor="start" x="480" y="-225.2" font-family="Helvetica,sans-Serif" font-size="11.00">int4[10]</text>
<polygon fill="none" stroke="black" points="351,-195 351,-217 477,-217 477,-195 351,-195"/>
<text text-anchor="start" x="371" y="-203.2" font-family="Helvetica,sans-Serif" font-size="11.00">datesynonymized</text>
<polygon fill="none" stroke="black" points="477,-195 477,-217 567,-217 567,-195 477,-195"/>
<text text-anchor="start" x="480" y="-203.2" font-family="Helvetica,sans-Serif" font-size="11.00">date[13]</text>
<polygon fill="none" stroke="black" points="351,-173 351,-195 477,-195 477,-173 351,-173"/>
<text text-anchor="start" x="371" y="-181.2" font-family="Helvetica,sans-Serif" font-size="11.00">recdatecreated</text>
<polygon fill="none" stroke="black" points="477,-173 477,-195 567,-195 567,-173 477,-173"/>
<text text-anchor="start" x="480" y="-181.2" font-family="Helvetica,sans-Serif" font-size="11.00">timestamp[22]</text>
<polygon fill="none" stroke="black" points="351,-151 351,-173 477,-173 477,-151 351,-151"/>
<text text-anchor="start" x="371" y="-159.2" font-family="Helvetica,sans-Serif" font-size="11.00">recdatemodified</text>
<polygon fill="none" stroke="black" points="477,-151 477,-173 567,-173 567,-151 477,-151"/>
<text text-anchor="start" x="480" y="-159.2" font-family="Helvetica,sans-Serif" font-size="11.00">timestamp[22]</text>
<polygon fill="#ffffff" stroke="transparent" points="351,-133 351,-151 392,-151 392,-133 351,-133"/>
<polygon fill="none" stroke="black" points="351,-133 351,-151 392,-151 392,-133 351,-133"/>
<text text-anchor="start" x="354" y="-139.2" font-family="Helvetica,sans-Serif" font-size="11.00">&lt; 5</text>
<polygon fill="#ffffff" stroke="transparent" points="392,-133 392,-151 477,-151 477,-133 392,-133"/>
<polygon fill="none" stroke="black" points="392,-133 392,-151 477,-151 477,-133 392,-133"/>
<text text-anchor="start" x="414" y="-139.2" font-family="Helvetica,sans-Serif" font-size="11.00">37,992 rows</text>
<polygon fill="#ffffff" stroke="transparent" points="477,-133 477,-151 567,-151 567,-133 477,-133"/>
<polygon fill="none" stroke="black" points="477,-133 477,-151 567,-151 567,-133 477,-133"/>
<text text-anchor="start" x="548" y="-139.2" font-family="Helvetica,sans-Serif" font-size="11.00">0 &gt;</text>
<polygon fill="none" stroke="black" stroke-width="2" points="350,-132 350,-416 568,-416 568,-132 350,-132"/>
</a>
</g>
</g>
<!-- contacts -->
<g id="node2" class="node">
<title>contacts</title>
<g id="a_node2"><a xlink:href="../../tables/contacts.html" xlink:title="contacts" target="_top">
<polygon fill="#ffffff" stroke="transparent" points="9.5,-37 9.5,-161 129.5,-161 129.5,-37 9.5,-37"/>
<polygon fill="#f5f5f5" stroke="transparent" points="9.5,-139 9.5,-161 129.5,-161 129.5,-139 9.5,-139"/>
<polygon fill="none" stroke="black" points="9.5,-139 9.5,-161 129.5,-161 129.5,-139 9.5,-139"/>
<text text-anchor="start" x="14.5" y="-148.2" font-family="Helvetica,sans-Serif" font-weight="bold" font-size="11.00">contacts</text>
<text text-anchor="start" x="94.5" y="-147.2" font-family="Helvetica,sans-Serif" font-size="11.00">[table]</text>
<polygon fill="none" stroke="black" points="9.5,-117 9.5,-139 129.5,-139 129.5,-117 9.5,-117"/>
<image xlink:href="../../images/primaryKeys.png" width="11px" height="12px" preserveAspectRatio="xMinYMin meet" x="14.5" y="-134"/>
<text text-anchor="start" x="29.5" y="-125.2" font-family="Helvetica,sans-Serif" font-size="11.00">contactid</text>
<polygon fill="none" stroke="black" points="9.5,-95 9.5,-117 129.5,-117 129.5,-95 9.5,-95"/>
<image xlink:href="../../images/foreignKeys.png" width="11px" height="12px" preserveAspectRatio="xMinYMin meet" x="14.5" y="-112"/>
<text text-anchor="start" x="29.5" y="-103.2" font-family="Helvetica,sans-Serif" font-size="11.00">contactstatusid</text>
<polygon fill="#ffffff" stroke="transparent" points="9.5,-73 9.5,-95 129.5,-95 129.5,-73 9.5,-73"/>
<polygon fill="none" stroke="black" points="9.5,-73 9.5,-95 129.5,-95 129.5,-73 9.5,-73"/>
<text text-anchor="start" x="29.5" y="-81.2" font-family="Helvetica,sans-Serif" font-size="11.00">familyname</text>
<polygon fill="none" stroke="black" points="9.5,-55 9.5,-73 129.5,-73 129.5,-55 9.5,-55"/>
<text text-anchor="start" x="12.5" y="-61.2" font-family="Helvetica,sans-Serif" font-size="11.00">...</text>
<polygon fill="#ffffff" stroke="transparent" points="9.5,-37 9.5,-55 33.5,-55 33.5,-37 9.5,-37"/>
<polygon fill="none" stroke="black" points="9.5,-37 9.5,-55 33.5,-55 33.5,-37 9.5,-37"/>
<text text-anchor="start" x="12.5" y="-43.2" font-family="Helvetica,sans-Serif" font-size="11.00">&lt; 1</text>
<polygon fill="#ffffff" stroke="transparent" points="33.5,-37 33.5,-55 100.5,-55 100.5,-37 33.5,-37"/>
<polygon fill="none" stroke="black" points="33.5,-37 33.5,-55 100.5,-55 100.5,-37 33.5,-37"/>
<text text-anchor="start" x="37.5" y="-43.2" font-family="Helvetica,sans-Serif" font-size="11.00">13,247 rows</text>
<polygon fill="#ffffff" stroke="transparent" points="100.5,-37 100.5,-55 129.5,-55 129.5,-37 100.5,-37"/>
<polygon fill="none" stroke="black" points="100.5,-37 100.5,-55 129.5,-55 129.5,-37 100.5,-37"/>
<text text-anchor="start" x="104.5" y="-43.2" font-family="Helvetica,sans-Serif" font-size="11.00">17 &gt;</text>
</a>
</g>
</g>
<!-- synonymy&#45;&gt;contacts -->
<g id="edge1" class="edge">
<title>synonymy:w&#45;&gt;contacts:e</title>
<path fill="none" stroke="black" d="M335.85,-224.27C316.7,-210.64 337.65,-163.2 308,-143 242.57,-98.42 209.67,-128 130.5,-128"/>
<polygon fill="black" stroke="black" points="342.26,-225.96 349.08,-231.48 346.13,-226.98 350,-228 350,-228 350,-228 346.13,-226.98 350.92,-224.52 342.26,-225.96 342.26,-225.96"/>
<ellipse fill="none" stroke="black" cx="339.17" cy="-225.15" rx="3.2" ry="3.2"/>
</g>
<!-- datasets -->
<g id="node3" class="node">
<title>datasets</title>
<g id="a_node3"><a xlink:href="../../tables/datasets.html" xlink:title="datasets" target="_top">
<polygon fill="#ffffff" stroke="transparent" points="180,-392 180,-538 300,-538 300,-392 180,-392"/>
<polygon fill="#f5f5f5" stroke="transparent" points="180,-516 180,-538 300,-538 300,-516 180,-516"/>
<polygon fill="none" stroke="black" points="180,-516 180,-538 300,-538 300,-516 180,-516"/>
<text text-anchor="start" x="185" y="-525.2" font-family="Helvetica,sans-Serif" font-weight="bold" font-size="11.00">datasets</text>
<text text-anchor="start" x="265" y="-524.2" font-family="Helvetica,sans-Serif" font-size="11.00">[table]</text>
<polygon fill="none" stroke="black" points="180,-494 180,-516 300,-516 300,-494 180,-494"/>
<image xlink:href="../../images/primaryKeys.png" width="11px" height="12px" preserveAspectRatio="xMinYMin meet" x="185" y="-511"/>
<text text-anchor="start" x="200" y="-502.2" font-family="Helvetica,sans-Serif" font-size="11.00">datasetid</text>
<polygon fill="#ffffff" stroke="transparent" points="180,-472 180,-494 300,-494 300,-472 180,-472"/>
<polygon fill="none" stroke="black" points="180,-472 180,-494 300,-494 300,-472 180,-472"/>
<image xlink:href="../../images/foreignKeys.png" width="11px" height="12px" preserveAspectRatio="xMinYMin meet" x="185" y="-489"/>
<text text-anchor="start" x="200" y="-480.2" font-family="Helvetica,sans-Serif" font-size="11.00">collectionunitid</text>
<polygon fill="#ffffff" stroke="transparent" points="180,-450 180,-472 300,-472 300,-450 180,-450"/>
<polygon fill="none" stroke="black" points="180,-450 180,-472 300,-472 300,-450 180,-450"/>
<image xlink:href="../../images/foreignKeys.png" width="11px" height="12px" preserveAspectRatio="xMinYMin meet" x="185" y="-467"/>
<text text-anchor="start" x="200" y="-458.2" font-family="Helvetica,sans-Serif" font-size="11.00">datasettypeid</text>
<polygon fill="none" stroke="black" points="180,-428 180,-450 300,-450 300,-428 180,-428"/>
<image xlink:href="../../images/foreignKeys.png" width="11px" height="12px" preserveAspectRatio="xMinYMin meet" x="185" y="-445"/>
<text text-anchor="start" x="200" y="-436.2" font-family="Helvetica,sans-Serif" font-size="11.00">embargoid</text>
<polygon fill="none" stroke="black" points="180,-410 180,-428 300,-428 300,-410 180,-410"/>
<text text-anchor="start" x="183" y="-416.2" font-family="Helvetica,sans-Serif" font-size="11.00">...</text>
<polygon fill="#ffffff" stroke="transparent" points="180,-392 180,-410 204,-410 204,-392 180,-392"/>
<polygon fill="none" stroke="black" points="180,-392 180,-410 204,-410 204,-392 180,-392"/>
<text text-anchor="start" x="183" y="-398.2" font-family="Helvetica,sans-Serif" font-size="11.00">&lt; 3</text>
<polygon fill="#ffffff" stroke="transparent" points="204,-392 204,-410 271,-410 271,-392 204,-392"/>
<polygon fill="none" stroke="black" points="204,-392 204,-410 271,-410 271,-392 204,-392"/>
<text text-anchor="start" x="208" y="-398.2" font-family="Helvetica,sans-Serif" font-size="11.00">48,328 rows</text>
<polygon fill="#ffffff" stroke="transparent" points="271,-392 271,-410 300,-410 300,-392 271,-392"/>
<polygon fill="none" stroke="black" points="271,-392 271,-410 300,-410 300,-392 271,-392"/>
<text text-anchor="start" x="275" y="-398.2" font-family="Helvetica,sans-Serif" font-size="11.00">13 &gt;</text>
</a>
</g>
</g>
<!-- synonymy&#45;&gt;datasets -->
<g id="edge2" class="edge">
<title>synonymy:w&#45;&gt;datasets:e</title>
<path fill="none" stroke="black" d="M335.7,-363.03C295.79,-383.85 363.18,-505 301,-505"/>
<polygon fill="black" stroke="black" points="342.17,-361.66 350.75,-363.52 346.09,-360.83 350,-360 350,-360 350,-360 346.09,-360.83 349.25,-356.48 342.17,-361.66 342.17,-361.66"/>
<ellipse fill="none" stroke="black" cx="339.04" cy="-362.32" rx="3.2" ry="3.2"/>
</g>
<!-- publications -->
<g id="node4" class="node">
<title>publications</title>
<g id="a_node4"><a xlink:href="../../tables/publications.html" xlink:title="publications" target="_top">
<polygon fill="#ffffff" stroke="transparent" points="8,-182 8,-284 131,-284 131,-182 8,-182"/>
<polygon fill="#f5f5f5" stroke="transparent" points="8.5,-262 8.5,-284 131.5,-284 131.5,-262 8.5,-262"/>
<polygon fill="none" stroke="black" points="8.5,-262 8.5,-284 131.5,-284 131.5,-262 8.5,-262"/>
<text text-anchor="start" x="13.5" y="-271.2" font-family="Helvetica,sans-Serif" font-weight="bold" font-size="11.00">publications</text>
<text text-anchor="start" x="96.5" y="-270.2" font-family="Helvetica,sans-Serif" font-size="11.00">[table]</text>
<polygon fill="none" stroke="black" points="8.5,-240 8.5,-262 131.5,-262 131.5,-240 8.5,-240"/>
<image xlink:href="../../images/primaryKeys.png" width="11px" height="12px" preserveAspectRatio="xMinYMin meet" x="13.5" y="-257"/>
<text text-anchor="start" x="28.5" y="-248.2" font-family="Helvetica,sans-Serif" font-size="11.00">publicationid</text>
<polygon fill="none" stroke="black" points="8.5,-218 8.5,-240 131.5,-240 131.5,-218 8.5,-218"/>
<image xlink:href="../../images/foreignKeys.png" width="11px" height="12px" preserveAspectRatio="xMinYMin meet" x="13.5" y="-235"/>
<text text-anchor="start" x="28.5" y="-226.2" font-family="Helvetica,sans-Serif" font-size="11.00">pubtypeid</text>
<polygon fill="none" stroke="black" points="8.5,-200 8.5,-218 131.5,-218 131.5,-200 8.5,-200"/>
<text text-anchor="start" x="11.5" y="-206.2" font-family="Helvetica,sans-Serif" font-size="11.00">...</text>
<polygon fill="#ffffff" stroke="transparent" points="8.5,-182 8.5,-200 33.5,-200 33.5,-182 8.5,-182"/>
<polygon fill="none" stroke="black" points="8.5,-182 8.5,-200 33.5,-200 33.5,-182 8.5,-182"/>
<text text-anchor="start" x="11.5" y="-188.2" font-family="Helvetica,sans-Serif" font-size="11.00">&lt; 1</text>
<polygon fill="#ffffff" stroke="transparent" points="33.5,-182 33.5,-200 101.5,-200 101.5,-182 33.5,-182"/>
<polygon fill="none" stroke="black" points="33.5,-182 33.5,-200 101.5,-200 101.5,-182 33.5,-182"/>
<text text-anchor="start" x="38.5" y="-188.2" font-family="Helvetica,sans-Serif" font-size="11.00">13,466 rows</text>
<polygon fill="#ffffff" stroke="transparent" points="101.5,-182 101.5,-200 131.5,-200 131.5,-182 101.5,-182"/>
<polygon fill="none" stroke="black" points="101.5,-182 101.5,-200 131.5,-200 131.5,-182 101.5,-182"/>
<text text-anchor="start" x="106.5" y="-188.2" font-family="Helvetica,sans-Serif" font-size="11.00">12 &gt;</text>
</a>
</g>
</g>
<!-- synonymy&#45;&gt;publications -->
<g id="edge3" class="edge">
<title>synonymy:w&#45;&gt;publications:e</title>
<path fill="none" stroke="black" d="M335.9,-268.77C311.78,-254.23 343.39,-194.61 308,-171 257.72,-137.45 223.34,-139.09 172,-171 138.32,-191.93 172.15,-251 132.5,-251"/>
<polygon fill="black" stroke="black" points="342.2,-270.21 349.2,-275.51 346.1,-271.11 350,-272 350,-272 350,-272 346.1,-271.11 350.8,-268.49 342.2,-270.21 342.2,-270.21"/>
<ellipse fill="none" stroke="black" cx="339.08" cy="-269.5" rx="3.2" ry="3.2"/>
</g>
<!-- taxa -->
<g id="node5" class="node">
<title>taxa</title>
<g id="a_node5"><a xlink:href="../../tables/taxa.html" xlink:title="taxa" target="_top">
<polygon fill="#ffffff" stroke="transparent" points="180,-181 180,-371 300,-371 300,-181 180,-181"/>
<polygon fill="#f5f5f5" stroke="transparent" points="180,-349 180,-371 300,-371 300,-349 180,-349"/>
<polygon fill="none" stroke="black" points="180,-349 180,-371 300,-371 300,-349 180,-349"/>
<text text-anchor="start" x="185" y="-358.2" font-family="Helvetica,sans-Serif" font-weight="bold" font-size="11.00">taxa</text>
<text text-anchor="start" x="265" y="-357.2" font-family="Helvetica,sans-Serif" font-size="11.00">[table]</text>
<polygon fill="none" stroke="black" points="180,-327 180,-349 300,-349 300,-327 180,-327"/>
<image xlink:href="../../images/primaryKeys.png" width="11px" height="12px" preserveAspectRatio="xMinYMin meet" x="185" y="-344"/>
<text text-anchor="start" x="200" y="-335.2" font-family="Helvetica,sans-Serif" font-size="11.00">taxonid</text>
<polygon fill="#ffffff" stroke="transparent" points="180,-305 180,-327 300,-327 300,-305 180,-305"/>
<polygon fill="none" stroke="black" points="180,-305 180,-327 300,-327 300,-305 180,-305"/>
<text text-anchor="start" x="200" y="-313.2" font-family="Helvetica,sans-Serif" font-size="11.00">taxonname</text>
<polygon fill="none" stroke="black" points="180,-283 180,-305 300,-305 300,-283 180,-283"/>
<image xlink:href="../../images/foreignKeys.png" width="11px" height="12px" preserveAspectRatio="xMinYMin meet" x="185" y="-300"/>
<text text-anchor="start" x="200" y="-291.2" font-family="Helvetica,sans-Serif" font-size="11.00">highertaxonid</text>
<polygon fill="#ffffff" stroke="transparent" points="180,-261 180,-283 300,-283 300,-261 180,-261"/>
<polygon fill="none" stroke="black" points="180,-261 180,-283 300,-283 300,-261 180,-261"/>
<image xlink:href="../../images/foreignKeys.png" width="11px" height="12px" preserveAspectRatio="xMinYMin meet" x="185" y="-278"/>
<text text-anchor="start" x="200" y="-269.2" font-family="Helvetica,sans-Serif" font-size="11.00">taxagroupid</text>
<polygon fill="none" stroke="black" points="180,-239 180,-261 300,-261 300,-239 180,-239"/>
<image xlink:href="../../images/foreignKeys.png" width="11px" height="12px" preserveAspectRatio="xMinYMin meet" x="185" y="-256"/>
<text text-anchor="start" x="200" y="-247.2" font-family="Helvetica,sans-Serif" font-size="11.00">publicationid</text>
<polygon fill="none" stroke="black" points="180,-217 180,-239 300,-239 300,-217 180,-217"/>
<image xlink:href="../../images/foreignKeys.png" width="11px" height="12px" preserveAspectRatio="xMinYMin meet" x="185" y="-234"/>
<text text-anchor="start" x="200" y="-225.2" font-family="Helvetica,sans-Serif" font-size="11.00">validatorid</text>
<polygon fill="none" stroke="black" points="180,-199 180,-217 300,-217 300,-199 180,-199"/>
<text text-anchor="start" x="183" y="-205.2" font-family="Helvetica,sans-Serif" font-size="11.00">...</text>
<polygon fill="#ffffff" stroke="transparent" points="180,-181 180,-199 204,-199 204,-181 180,-181"/>
<polygon fill="none" stroke="black" points="180,-181 180,-199 204,-199 204,-181 180,-181"/>
<text text-anchor="start" x="183" y="-187.2" font-family="Helvetica,sans-Serif" font-size="11.00">&lt; 4</text>
<polygon fill="#ffffff" stroke="transparent" points="204,-181 204,-199 271,-199 271,-181 204,-181"/>
<polygon fill="none" stroke="black" points="204,-181 204,-199 271,-199 271,-181 204,-181"/>
<text text-anchor="start" x="208" y="-187.2" font-family="Helvetica,sans-Serif" font-size="11.00">46,322 rows</text>
<polygon fill="#ffffff" stroke="transparent" points="271,-181 271,-199 300,-199 300,-181 271,-181"/>
<polygon fill="none" stroke="black" points="271,-181 271,-199 300,-199 300,-181 271,-181"/>
<text text-anchor="start" x="275" y="-187.2" font-family="Helvetica,sans-Serif" font-size="11.00">17 &gt;</text>
</a>
</g>
</g>
<!-- synonymy&#45;&gt;taxa -->
<g id="edge4" class="edge">
<title>synonymy:w&#45;&gt;taxa:e</title>
<path fill="none" stroke="black" d="M335.63,-319.44C324.09,-325.62 318.9,-338 301,-338"/>
<polygon fill="black" stroke="black" points="342.22,-317.86 350.84,-319.5 346.11,-316.93 350,-316 350,-316 350,-316 346.11,-316.93 349.16,-312.5 342.22,-317.86 342.22,-317.86"/>
<ellipse fill="none" stroke="black" cx="339.11" cy="-318.61" rx="3.2" ry="3.2"/>
</g>
<!-- synonymy&#45;&gt;taxa -->
<g id="edge5" class="edge">
<title>synonymy:w&#45;&gt;taxa:e</title>
<path fill="none" stroke="black" d="M335.49,-338C324.18,-338 316.99,-338 301,-338"/>
<polygon fill="black" stroke="black" points="342,-338 350,-341.6 346,-338 350,-338 350,-338 350,-338 346,-338 350,-334.4 342,-338 342,-338"/>
<ellipse fill="none" stroke="black" cx="338.8" cy="-338" rx="3.2" ry="3.2"/>
</g>
<!-- taxa&#45;&gt;contacts -->
<g id="edge7" class="edge">
<title>taxa:w&#45;&gt;contacts:e</title>
<path fill="none" stroke="black" d="M165.09,-223.96C140.32,-205.25 173.91,-128 130.5,-128"/>
<polygon fill="black" stroke="black" points="171.32,-225.77 178,-231.46 175.16,-226.88 179,-228 179,-228 179,-228 175.16,-226.88 180,-224.54 171.32,-225.77 171.32,-225.77"/>
<ellipse fill="none" stroke="black" cx="168.25" cy="-224.87" rx="3.2" ry="3.2"/>
</g>
<!-- taxa&#45;&gt;publications -->
<g id="edge6" class="edge">
<title>taxa:w&#45;&gt;publications:e</title>
<path fill="none" stroke="black" d="M164.55,-250.19C154.2,-250.48 147.36,-251 132.5,-251"/>
<polygon fill="black" stroke="black" points="171,-250.11 179.05,-253.6 175,-250.05 179,-250 179,-250 179,-250 175,-250.05 178.95,-246.4 171,-250.11 171,-250.11"/>
<ellipse fill="none" stroke="black" cx="167.8" cy="-250.15" rx="3.2" ry="3.2"/>
</g>
</g>
</svg>
