<?xml version="1.0" encoding="UTF-8" standalone="no"?>
<!DOCTYPE svg PUBLIC "-//W3C//DTD SVG 1.1//EN"
 "http://www.w3.org/Graphics/SVG/1.1/DTD/svg11.dtd">
<!-- Generated by graphviz version 2.43.0 (0)
 -->
<!-- Title: oneDegreeRelationshipsDiagram Pages: 1 -->
<svg width="688pt" height="307pt"
 viewBox="0.00 0.00 688.00 307.00" xmlns="http://www.w3.org/2000/svg" xmlns:xlink="http://www.w3.org/1999/xlink">
<g id="graph0" class="graph" transform="scale(1 1) rotate(0) translate(4 303)">
<title>oneDegreeRelationshipsDiagram</title>
<polygon fill="#ffffff" stroke="transparent" points="-4,4 -4,-303 684,-303 684,4 -4,4"/>
<text text-anchor="middle" x="71.5" y="-7.2" font-family="Helvetica,sans-Serif" font-size="11.00">Generated by SchemaSpy</text>
<!-- specimentaphonomy -->
<g id="node1" class="node">
<title>specimentaphonomy</title>
<g id="a_node1"><a xlink:href="../../tables/specimentaphonomy.html" xlink:title="specimentaphonomy" target="_top">
<polygon fill="#ffffff" stroke="transparent" points="507.5,-193 507.5,-295 661.5,-295 661.5,-193 507.5,-193"/>
<polygon fill="#f5f5f5" stroke="transparent" points="507.5,-273 507.5,-295 661.5,-295 661.5,-273 507.5,-273"/>
<polygon fill="none" stroke="black" points="507.5,-273 507.5,-295 661.5,-295 661.5,-273 507.5,-273"/>
<text text-anchor="start" x="512.5" y="-282.2" font-family="Helvetica,sans-Serif" font-weight="bold" font-size="11.00">specimentaphonomy</text>
<text text-anchor="start" x="626.5" y="-281.2" font-family="Helvetica,sans-Serif" font-size="11.00">[table]</text>
<polygon fill="none" stroke="black" points="507.5,-251 507.5,-273 661.5,-273 661.5,-251 507.5,-251"/>
<image xlink:href="../../images/primaryKeys.png" width="11px" height="12px" preserveAspectRatio="xMinYMin meet" x="512.5" y="-268"/>
<text text-anchor="start" x="531.5" y="-259.2" font-family="Helvetica,sans-Serif" font-size="11.00">specimenid</text>
<polygon fill="none" stroke="black" points="507.5,-229 507.5,-251 661.5,-251 661.5,-229 507.5,-229"/>
<image xlink:href="../../images/primaryKeys.png" width="11px" height="12px" preserveAspectRatio="xMinYMin meet" x="512.5" y="-246"/>
<text text-anchor="start" x="531.5" y="-237.2" font-family="Helvetica,sans-Serif" font-size="11.00">taphonomictypeid</text>
<polygon fill="none" stroke="black" points="507.5,-211 507.5,-229 661.5,-229 661.5,-211 507.5,-211"/>
<text text-anchor="start" x="510.5" y="-217.2" font-family="Helvetica,sans-Serif" font-size="11.00">...</text>
<polygon fill="#ffffff" stroke="transparent" points="507.5,-193 507.5,-211 563.5,-211 563.5,-193 507.5,-193"/>
<polygon fill="none" stroke="black" points="507.5,-193 507.5,-211 563.5,-211 563.5,-193 507.5,-193"/>
<text text-anchor="start" x="510.5" y="-199.2" font-family="Helvetica,sans-Serif" font-size="11.00">&lt; 2</text>
<polygon fill="#ffffff" stroke="transparent" points="563.5,-193 563.5,-211 631.5,-211 631.5,-193 563.5,-193"/>
<polygon fill="none" stroke="black" points="563.5,-193 563.5,-211 631.5,-211 631.5,-193 563.5,-193"/>
<text text-anchor="start" x="583.5" y="-199.2" font-family="Helvetica,sans-Serif" font-size="11.00">452 rows</text>
<polygon fill="#ffffff" stroke="transparent" points="631.5,-193 631.5,-211 661.5,-211 661.5,-193 631.5,-193"/>
<polygon fill="none" stroke="black" points="631.5,-193 631.5,-211 661.5,-211 661.5,-193 631.5,-193"/>
<text text-anchor="start" x="651.5" y="-199.2" font-family="Helvetica,sans-Serif" font-size="11.00"> &#160;</text>
</a>
</g>
</g>
<!-- taphonomictypes -->
<g id="node2" class="node">
<title>taphonomictypes</title>
<g id="a_node2"><a xlink:href="../../tables/taphonomictypes.html" xlink:title="taphonomictypes" target="_top">
<polygon fill="#ffffff" stroke="transparent" points="207,-37 207,-213 448,-213 448,-37 207,-37"/>
<polygon fill="#f5f5f5" stroke="transparent" points="209.5,-189 209.5,-211 446.5,-211 446.5,-189 209.5,-189"/>
<polygon fill="none" stroke="black" points="209.5,-189 209.5,-211 446.5,-211 446.5,-189 209.5,-189"/>
<text text-anchor="start" x="214.5" y="-198.2" font-family="Helvetica,sans-Serif" font-weight="bold" font-size="11.00">taphonomictypes</text>
<text text-anchor="start" x="411.5" y="-197.2" font-family="Helvetica,sans-Serif" font-size="11.00">[table]</text>
<polygon fill="none" stroke="black" points="209.5,-167 209.5,-189 356.5,-189 356.5,-167 209.5,-167"/>
<image xlink:href="../../images/primaryKeys.png" width="11px" height="12px" preserveAspectRatio="xMinYMin meet" x="214.5" y="-184"/>
<text text-anchor="start" x="229.5" y="-175.2" font-family="Helvetica,sans-Serif" font-size="11.00">taphonomictypeid</text>
<polygon fill="none" stroke="black" points="356.5,-167 356.5,-189 446.5,-189 446.5,-167 356.5,-167"/>
<text text-anchor="start" x="359.5" y="-175.2" font-family="Helvetica,sans-Serif" font-size="11.00">serial[10]</text>
<polygon fill="none" stroke="black" points="209.5,-145 209.5,-167 356.5,-167 356.5,-145 209.5,-145"/>
<image xlink:href="../../images/foreignKeys.png" width="11px" height="12px" preserveAspectRatio="xMinYMin meet" x="214.5" y="-162"/>
<text text-anchor="start" x="229.5" y="-153.2" font-family="Helvetica,sans-Serif" font-size="11.00">taphonomicsystemid</text>
<polygon fill="none" stroke="black" points="356.5,-145 356.5,-167 446.5,-167 446.5,-145 356.5,-145"/>
<text text-anchor="start" x="359.5" y="-153.2" font-family="Helvetica,sans-Serif" font-size="11.00">int4[10]</text>
<polygon fill="none" stroke="black" points="209.5,-123 209.5,-145 356.5,-145 356.5,-123 209.5,-123"/>
<text text-anchor="start" x="229.5" y="-131.2" font-family="Helvetica,sans-Serif" font-size="11.00">taphonomictype</text>
<polygon fill="none" stroke="black" points="356.5,-123 356.5,-145 446.5,-145 446.5,-123 356.5,-123"/>
<text text-anchor="start" x="359.5" y="-131.2" font-family="Helvetica,sans-Serif" font-size="11.00">varchar[64]</text>
<polygon fill="none" stroke="black" points="209.5,-101 209.5,-123 356.5,-123 356.5,-101 209.5,-101"/>
<text text-anchor="start" x="229.5" y="-109.2" font-family="Helvetica,sans-Serif" font-size="11.00">notes</text>
<polygon fill="none" stroke="black" points="356.5,-101 356.5,-123 446.5,-123 446.5,-101 356.5,-101"/>
<text text-anchor="start" x="359.5" y="-109.2" font-family="Helvetica,sans-Serif" font-size="11.00">text[2147483647]</text>
<polygon fill="none" stroke="black" points="209.5,-79 209.5,-101 356.5,-101 356.5,-79 209.5,-79"/>
<text text-anchor="start" x="229.5" y="-87.2" font-family="Helvetica,sans-Serif" font-size="11.00">recdatecreated</text>
<polygon fill="none" stroke="black" points="356.5,-79 356.5,-101 446.5,-101 446.5,-79 356.5,-79"/>
<text text-anchor="start" x="359.5" y="-87.2" font-family="Helvetica,sans-Serif" font-size="11.00">timestamp[22]</text>
<polygon fill="none" stroke="black" points="209.5,-57 209.5,-79 356.5,-79 356.5,-57 209.5,-57"/>
<text text-anchor="start" x="229.5" y="-65.2" font-family="Helvetica,sans-Serif" font-size="11.00">recdatemodified</text>
<polygon fill="none" stroke="black" points="356.5,-57 356.5,-79 446.5,-79 446.5,-57 356.5,-57"/>
<text text-anchor="start" x="359.5" y="-65.2" font-family="Helvetica,sans-Serif" font-size="11.00">timestamp[22]</text>
<polygon fill="#ffffff" stroke="transparent" points="209.5,-39 209.5,-57 271.5,-57 271.5,-39 209.5,-39"/>
<polygon fill="none" stroke="black" points="209.5,-39 209.5,-57 271.5,-57 271.5,-39 209.5,-39"/>
<text text-anchor="start" x="212.5" y="-45.2" font-family="Helvetica,sans-Serif" font-size="11.00">&lt; 1</text>
<polygon fill="#ffffff" stroke="transparent" points="271.5,-39 271.5,-57 356.5,-57 356.5,-39 271.5,-39"/>
<polygon fill="none" stroke="black" points="271.5,-39 271.5,-57 356.5,-57 356.5,-39 271.5,-39"/>
<text text-anchor="start" x="314.5" y="-45.2" font-family="Helvetica,sans-Serif" font-size="11.00">81 rows</text>
<polygon fill="#ffffff" stroke="transparent" points="356.5,-39 356.5,-57 446.5,-57 446.5,-39 356.5,-39"/>
<polygon fill="none" stroke="black" points="356.5,-39 356.5,-57 446.5,-57 446.5,-39 356.5,-39"/>
<text text-anchor="start" x="427.5" y="-45.2" font-family="Helvetica,sans-Serif" font-size="11.00">2 &gt;</text>
<polygon fill="none" stroke="black" stroke-width="2" points="208,-38 208,-212 447,-212 447,-38 208,-38"/>
</a>
</g>
</g>
<!-- specimentaphonomy&#45;&gt;taphonomictypes -->
<g id="edge1" class="edge">
<title>specimentaphonomy:w&#45;&gt;taphonomictypes:e</title>
<path fill="none" stroke="black" d="M492.56,-236.12C472.39,-222.55 479.74,-178 447.5,-178"/>
<polygon fill="black" stroke="black" points="498.79,-237.86 505.53,-243.47 502.65,-238.93 506.5,-240 506.5,-240 506.5,-240 502.65,-238.93 507.47,-236.53 498.79,-237.86 498.79,-237.86"/>
<ellipse fill="none" stroke="black" cx="495.71" cy="-237" rx="3.2" ry="3.2"/>
</g>
<!-- taphonomicsystems -->
<g id="node4" class="node">
<title>taphonomicsystems</title>
<g id="a_node4"><a xlink:href="../../tables/taphonomicsystems.html" xlink:title="taphonomicsystems" target="_top">
<polygon fill="#ffffff" stroke="transparent" points="8,-109 8,-189 158,-189 158,-109 8,-109"/>
<polygon fill="#f5f5f5" stroke="transparent" points="8,-167 8,-189 158,-189 158,-167 8,-167"/>
<polygon fill="none" stroke="black" points="8,-167 8,-189 158,-189 158,-167 8,-167"/>
<text text-anchor="start" x="13" y="-176.2" font-family="Helvetica,sans-Serif" font-weight="bold" font-size="11.00">taphonomicsystems</text>
<text text-anchor="start" x="123" y="-175.2" font-family="Helvetica,sans-Serif" font-size="11.00">[table]</text>
<polygon fill="none" stroke="black" points="8,-145 8,-167 158,-167 158,-145 8,-145"/>
<image xlink:href="../../images/primaryKeys.png" width="11px" height="12px" preserveAspectRatio="xMinYMin meet" x="13" y="-162"/>
<text text-anchor="start" x="30" y="-153.2" font-family="Helvetica,sans-Serif" font-size="11.00">taphonomicsystemid</text>
<polygon fill="none" stroke="black" points="8,-127 8,-145 158,-145 158,-127 8,-127"/>
<text text-anchor="start" x="11" y="-133.2" font-family="Helvetica,sans-Serif" font-size="11.00">...</text>
<polygon fill="#ffffff" stroke="transparent" points="8,-109 8,-127 59,-127 59,-109 8,-109"/>
<polygon fill="none" stroke="black" points="8,-109 8,-127 59,-127 59,-109 8,-109"/>
<text text-anchor="start" x="11" y="-115.2" font-family="Helvetica,sans-Serif" font-size="11.00"> &#160;</text>
<polygon fill="#ffffff" stroke="transparent" points="59,-109 59,-127 117,-127 117,-109 59,-109"/>
<polygon fill="none" stroke="black" points="59,-109 59,-127 117,-127 117,-109 59,-109"/>
<text text-anchor="start" x="81" y="-115.2" font-family="Helvetica,sans-Serif" font-size="11.00">9 rows</text>
<polygon fill="#ffffff" stroke="transparent" points="117,-109 117,-127 158,-127 158,-109 117,-109"/>
<polygon fill="none" stroke="black" points="117,-109 117,-127 158,-127 158,-109 117,-109"/>
<text text-anchor="start" x="139" y="-115.2" font-family="Helvetica,sans-Serif" font-size="11.00">2 &gt;</text>
</a>
</g>
</g>
<!-- taphonomictypes&#45;&gt;taphonomicsystems -->
<g id="edge3" class="edge">
<title>taphonomictypes:w&#45;&gt;taphonomicsystems:e</title>
<path fill="none" stroke="black" d="M193.84,-156C182.41,-156 175.16,-156 159,-156"/>
<polygon fill="black" stroke="black" points="200.5,-156 208.5,-159.6 204.5,-156 208.5,-156 208.5,-156 208.5,-156 204.5,-156 208.5,-152.4 200.5,-156 200.5,-156"/>
<ellipse fill="none" stroke="black" cx="197.3" cy="-156" rx="3.2" ry="3.2"/>
</g>
<!-- summarydatataphonomy -->
<g id="node3" class="node">
<title>summarydatataphonomy</title>
<g id="a_node3"><a xlink:href="../../tables/summarydatataphonomy.html" xlink:title="summarydatataphonomy" target="_top">
<polygon fill="#ffffff" stroke="transparent" points="497,-70 497,-172 672,-172 672,-70 497,-70"/>
<polygon fill="#f5f5f5" stroke="transparent" points="497.5,-150 497.5,-172 672.5,-172 672.5,-150 497.5,-150"/>
<polygon fill="none" stroke="black" points="497.5,-150 497.5,-172 672.5,-172 672.5,-150 497.5,-150"/>
<text text-anchor="start" x="502.5" y="-159.2" font-family="Helvetica,sans-Serif" font-weight="bold" font-size="11.00">summarydatataphonomy</text>
<text text-anchor="start" x="637.5" y="-158.2" font-family="Helvetica,sans-Serif" font-size="11.00">[table]</text>
<polygon fill="none" stroke="black" points="497.5,-128 497.5,-150 672.5,-150 672.5,-128 497.5,-128"/>
<image xlink:href="../../images/primaryKeys.png" width="11px" height="12px" preserveAspectRatio="xMinYMin meet" x="502.5" y="-145"/>
<text text-anchor="start" x="518.5" y="-136.2" font-family="Helvetica,sans-Serif" font-size="11.00">dataid</text>
<polygon fill="none" stroke="black" points="497.5,-106 497.5,-128 672.5,-128 672.5,-106 497.5,-106"/>
<image xlink:href="../../images/primaryKeys.png" width="11px" height="12px" preserveAspectRatio="xMinYMin meet" x="502.5" y="-123"/>
<text text-anchor="start" x="518.5" y="-114.2" font-family="Helvetica,sans-Serif" font-size="11.00">taphonomictypeid</text>
<polygon fill="none" stroke="black" points="497.5,-88 497.5,-106 672.5,-106 672.5,-88 497.5,-88"/>
<text text-anchor="start" x="500.5" y="-94.2" font-family="Helvetica,sans-Serif" font-size="11.00">...</text>
<polygon fill="#ffffff" stroke="transparent" points="497.5,-70 497.5,-88 556.5,-88 556.5,-70 497.5,-70"/>
<polygon fill="none" stroke="black" points="497.5,-70 497.5,-88 556.5,-88 556.5,-70 497.5,-70"/>
<text text-anchor="start" x="500.5" y="-76.2" font-family="Helvetica,sans-Serif" font-size="11.00">&lt; 2</text>
<polygon fill="#ffffff" stroke="transparent" points="556.5,-70 556.5,-88 640.5,-88 640.5,-70 556.5,-70"/>
<polygon fill="none" stroke="black" points="556.5,-70 556.5,-88 640.5,-88 640.5,-70 556.5,-70"/>
<text text-anchor="start" x="577.5" y="-76.2" font-family="Helvetica,sans-Serif" font-size="11.00">43,202 rows</text>
<polygon fill="#ffffff" stroke="transparent" points="640.5,-70 640.5,-88 672.5,-88 672.5,-70 640.5,-70"/>
<polygon fill="none" stroke="black" points="640.5,-70 640.5,-88 672.5,-88 672.5,-70 640.5,-70"/>
<text text-anchor="start" x="662.5" y="-76.2" font-family="Helvetica,sans-Serif" font-size="11.00"> &#160;</text>
</a>
</g>
</g>
<!-- summarydatataphonomy&#45;&gt;taphonomictypes -->
<g id="edge2" class="edge">
<title>summarydatataphonomy:w&#45;&gt;taphonomictypes:e</title>
<path fill="none" stroke="black" d="M482.91,-121.79C467.15,-136.17 476.3,-178 447.5,-178"/>
<polygon fill="black" stroke="black" points="488.95,-119.66 497.7,-120.4 492.73,-118.33 496.5,-117 496.5,-117 496.5,-117 492.73,-118.33 495.3,-113.6 488.95,-119.66 488.95,-119.66"/>
<ellipse fill="none" stroke="black" cx="485.94" cy="-120.72" rx="3.2" ry="3.2"/>
</g>
</g>
</svg>
