<?xml version="1.0" encoding="UTF-8" standalone="no"?>
<!DOCTYPE svg PUBLIC "-//W3C//DTD SVG 1.1//EN"
 "http://www.w3.org/Graphics/SVG/1.1/DTD/svg11.dtd">
<!-- Generated by graphviz version 2.43.0 (0)
 -->
<!-- Title: twoDegreesRelationshipsDiagram Pages: 1 -->
<svg width="521pt" height="655pt"
 viewBox="0.00 0.00 521.00 655.00" xmlns="http://www.w3.org/2000/svg" xmlns:xlink="http://www.w3.org/1999/xlink">
<g id="graph0" class="graph" transform="scale(1 1) rotate(0) translate(4 651)">
<title>twoDegreesRelationshipsDiagram</title>
<polygon fill="#ffffff" stroke="transparent" points="-4,4 -4,-651 517,-651 517,4 -4,4"/>
<text text-anchor="middle" x="71.5" y="-7.2" font-family="Helvetica,sans-Serif" font-size="11.00">Generated by SchemaSpy</text>
<!-- contextsdatasettypes -->
<g id="node1" class="node">
<title>contextsdatasettypes</title>
<g id="a_node1"><a xlink:href="../../tables/contextsdatasettypes.html" xlink:title="contextsdatasettypes" target="_top">
<polygon fill="#ffffff" stroke="transparent" points="278,-585 278,-643 434,-643 434,-585 278,-585"/>
<polygon fill="#f5f5f5" stroke="transparent" points="278,-621 278,-643 434,-643 434,-621 278,-621"/>
<polygon fill="none" stroke="black" points="278,-621 278,-643 434,-643 434,-621 278,-621"/>
<text text-anchor="start" x="283" y="-630.2" font-family="Helvetica,sans-Serif" font-weight="bold" font-size="11.00">contextsdatasettypes</text>
<text text-anchor="start" x="399" y="-629.2" font-family="Helvetica,sans-Serif" font-size="11.00">[table]</text>
<polygon fill="none" stroke="black" points="278,-603 278,-621 434,-621 434,-603 278,-603"/>
<text text-anchor="start" x="281" y="-609.2" font-family="Helvetica,sans-Serif" font-size="11.00">...</text>
<polygon fill="#ffffff" stroke="transparent" points="278,-585 278,-603 335,-603 335,-585 278,-585"/>
<polygon fill="none" stroke="black" points="278,-585 278,-603 335,-603 335,-585 278,-585"/>
<text text-anchor="start" x="281" y="-591.2" font-family="Helvetica,sans-Serif" font-size="11.00">&lt; 2</text>
<polygon fill="#ffffff" stroke="transparent" points="335,-585 335,-603 403,-603 403,-585 335,-585"/>
<polygon fill="none" stroke="black" points="335,-585 335,-603 403,-603 403,-585 335,-585"/>
<text text-anchor="start" x="355" y="-591.2" font-family="Helvetica,sans-Serif" font-size="11.00">205 rows</text>
<polygon fill="#ffffff" stroke="transparent" points="403,-585 403,-603 434,-603 434,-585 403,-585"/>
<polygon fill="none" stroke="black" points="403,-585 403,-603 434,-603 434,-585 403,-585"/>
<text text-anchor="start" x="424" y="-591.2" font-family="Helvetica,sans-Serif" font-size="11.00"> &#160;</text>
</a>
</g>
</g>
<!-- datasettypes -->
<g id="node2" class="node">
<title>datasettypes</title>
<g id="a_node2"><a xlink:href="../../tables/datasettypes.html" xlink:title="datasettypes" target="_top">
<polygon fill="#ffffff" stroke="transparent" points="23,-367 23,-447 143,-447 143,-367 23,-367"/>
<polygon fill="#f5f5f5" stroke="transparent" points="23,-425 23,-447 143,-447 143,-425 23,-425"/>
<polygon fill="none" stroke="black" points="23,-425 23,-447 143,-447 143,-425 23,-425"/>
<text text-anchor="start" x="28" y="-434.2" font-family="Helvetica,sans-Serif" font-weight="bold" font-size="11.00">datasettypes</text>
<text text-anchor="start" x="108" y="-433.2" font-family="Helvetica,sans-Serif" font-size="11.00">[table]</text>
<polygon fill="none" stroke="black" points="23,-403 23,-425 143,-425 143,-403 23,-403"/>
<image xlink:href="../../images/primaryKeys.png" width="11px" height="12px" preserveAspectRatio="xMinYMin meet" x="28" y="-420"/>
<text text-anchor="start" x="43" y="-411.2" font-family="Helvetica,sans-Serif" font-size="11.00">datasettypeid</text>
<polygon fill="none" stroke="black" points="23,-385 23,-403 143,-403 143,-385 23,-385"/>
<text text-anchor="start" x="26" y="-391.2" font-family="Helvetica,sans-Serif" font-size="11.00">...</text>
<polygon fill="#ffffff" stroke="transparent" points="23,-367 23,-385 56,-385 56,-367 23,-367"/>
<polygon fill="none" stroke="black" points="23,-367 23,-385 56,-385 56,-367 23,-367"/>
<text text-anchor="start" x="26" y="-373.2" font-family="Helvetica,sans-Serif" font-size="11.00"> &#160;</text>
<polygon fill="#ffffff" stroke="transparent" points="56,-367 56,-385 111,-385 111,-367 56,-367"/>
<polygon fill="none" stroke="black" points="56,-367 56,-385 111,-385 111,-367 56,-367"/>
<text text-anchor="start" x="69" y="-373.2" font-family="Helvetica,sans-Serif" font-size="11.00">42 rows</text>
<polygon fill="#ffffff" stroke="transparent" points="111,-367 111,-385 143,-385 143,-367 111,-367"/>
<polygon fill="none" stroke="black" points="111,-367 111,-385 143,-385 143,-367 111,-367"/>
<text text-anchor="start" x="124" y="-373.2" font-family="Helvetica,sans-Serif" font-size="11.00">6 &gt;</text>
</a>
</g>
</g>
<!-- contextsdatasettypes&#45;&gt;datasettypes -->
<g id="edge1" class="edge">
<title>contextsdatasettypes:w&#45;&gt;datasettypes:e</title>
<path fill="none" stroke="black" d="M262.53,-611.5C234.57,-609.33 221.05,-599.72 199,-575 148.66,-518.58 219.62,-414 144,-414"/>
<polygon fill="black" stroke="black" points="269,-611.72 276.88,-615.6 273,-611.86 277,-612 277,-612 277,-612 273,-611.86 277.12,-608.4 269,-611.72 269,-611.72"/>
<ellipse fill="none" stroke="black" cx="265.81" cy="-611.61" rx="3.2" ry="3.2"/>
</g>
<!-- datasets -->
<g id="node3" class="node">
<title>datasets</title>
<g id="a_node3"><a xlink:href="../../tables/datasets.html" xlink:title="datasets" target="_top">
<polygon fill="#ffffff" stroke="transparent" points="298,-506 298,-564 414,-564 414,-506 298,-506"/>
<polygon fill="#f5f5f5" stroke="transparent" points="298,-542 298,-564 414,-564 414,-542 298,-542"/>
<polygon fill="none" stroke="black" points="298,-542 298,-564 414,-564 414,-542 298,-542"/>
<text text-anchor="start" x="303" y="-551.2" font-family="Helvetica,sans-Serif" font-weight="bold" font-size="11.00">datasets</text>
<text text-anchor="start" x="379" y="-550.2" font-family="Helvetica,sans-Serif" font-size="11.00">[table]</text>
<polygon fill="none" stroke="black" points="298,-524 298,-542 414,-542 414,-524 298,-524"/>
<text text-anchor="start" x="301" y="-530.2" font-family="Helvetica,sans-Serif" font-size="11.00">...</text>
<polygon fill="#ffffff" stroke="transparent" points="298,-506 298,-524 320,-524 320,-506 298,-506"/>
<polygon fill="none" stroke="black" points="298,-506 298,-524 320,-524 320,-506 298,-506"/>
<text text-anchor="start" x="301" y="-512.2" font-family="Helvetica,sans-Serif" font-size="11.00">&lt; 3</text>
<polygon fill="#ffffff" stroke="transparent" points="320,-506 320,-524 386,-524 386,-506 320,-506"/>
<polygon fill="none" stroke="black" points="320,-506 320,-524 386,-524 386,-506 320,-506"/>
<text text-anchor="start" x="323" y="-512.2" font-family="Helvetica,sans-Serif" font-size="11.00">49,780 rows</text>
<polygon fill="#ffffff" stroke="transparent" points="386,-506 386,-524 414,-524 414,-506 386,-506"/>
<polygon fill="none" stroke="black" points="386,-506 386,-524 414,-524 414,-506 386,-506"/>
<text text-anchor="start" x="389" y="-512.2" font-family="Helvetica,sans-Serif" font-size="11.00">13 &gt;</text>
</a>
</g>
</g>
<!-- datasets&#45;&gt;datasettypes -->
<g id="edge2" class="edge">
<title>datasets:w&#45;&gt;datasettypes:e</title>
<path fill="none" stroke="black" d="M282.32,-532.67C246.78,-530.9 231.35,-521.65 199,-496 164.62,-468.73 187.88,-414 144,-414"/>
<polygon fill="black" stroke="black" points="289,-532.82 296.92,-536.6 293,-532.91 297,-533 297,-533 297,-533 293,-532.91 297.08,-529.4 289,-532.82 289,-532.82"/>
<ellipse fill="none" stroke="black" cx="285.8" cy="-532.75" rx="3.2" ry="3.2"/>
</g>
<!-- datasettaxagrouptypes -->
<g id="node4" class="node">
<title>datasettaxagrouptypes</title>
<g id="a_node4"><a xlink:href="../../tables/datasettaxagrouptypes.html" xlink:title="datasettaxagrouptypes" target="_top">
<polygon fill="#ffffff" stroke="transparent" points="273.5,-427 273.5,-485 438.5,-485 438.5,-427 273.5,-427"/>
<polygon fill="#f5f5f5" stroke="transparent" points="274,-463 274,-485 439,-485 439,-463 274,-463"/>
<polygon fill="none" stroke="black" points="274,-463 274,-485 439,-485 439,-463 274,-463"/>
<text text-anchor="start" x="279" y="-472.2" font-family="Helvetica,sans-Serif" font-weight="bold" font-size="11.00">datasettaxagrouptypes</text>
<text text-anchor="start" x="404" y="-471.2" font-family="Helvetica,sans-Serif" font-size="11.00">[table]</text>
<polygon fill="none" stroke="black" points="274,-445 274,-463 439,-463 439,-445 274,-445"/>
<text text-anchor="start" x="277" y="-451.2" font-family="Helvetica,sans-Serif" font-size="11.00">...</text>
<polygon fill="#ffffff" stroke="transparent" points="274,-427 274,-445 335,-445 335,-427 274,-427"/>
<polygon fill="none" stroke="black" points="274,-427 274,-445 335,-445 335,-427 274,-427"/>
<text text-anchor="start" x="277" y="-433.2" font-family="Helvetica,sans-Serif" font-size="11.00">&lt; 2</text>
<polygon fill="#ffffff" stroke="transparent" points="335,-427 335,-445 406,-445 406,-427 335,-427"/>
<polygon fill="none" stroke="black" points="335,-427 335,-445 406,-445 406,-427 335,-427"/>
<text text-anchor="start" x="358" y="-433.2" font-family="Helvetica,sans-Serif" font-size="11.00">207 rows</text>
<polygon fill="#ffffff" stroke="transparent" points="406,-427 406,-445 439,-445 439,-427 406,-427"/>
<polygon fill="none" stroke="black" points="406,-427 406,-445 439,-445 439,-427 406,-427"/>
<text text-anchor="start" x="429" y="-433.2" font-family="Helvetica,sans-Serif" font-size="11.00"> &#160;</text>
</a>
</g>
</g>
<!-- datasettaxagrouptypes&#45;&gt;datasettypes -->
<g id="edge3" class="edge">
<title>datasettaxagrouptypes:w&#45;&gt;datasettypes:e</title>
<path fill="none" stroke="black" d="M258.59,-453.16C211.06,-447.42 198.87,-414 144,-414"/>
<polygon fill="black" stroke="black" points="265.01,-453.54 272.79,-457.59 269.01,-453.77 273,-454 273,-454 273,-454 269.01,-453.77 273.21,-450.41 265.01,-453.54 265.01,-453.54"/>
<ellipse fill="none" stroke="black" cx="261.82" cy="-453.35" rx="3.2" ry="3.2"/>
</g>
<!-- elementdatasettaxagroups -->
<g id="node5" class="node">
<title>elementdatasettaxagroups</title>
<g id="a_node5"><a xlink:href="../../tables/elementdatasettaxagroups.html" xlink:title="elementdatasettaxagroups" target="_top">
<polygon fill="#ffffff" stroke="transparent" points="264.5,-348 264.5,-406 447.5,-406 447.5,-348 264.5,-348"/>
<polygon fill="#f5f5f5" stroke="transparent" points="265,-384 265,-406 448,-406 448,-384 265,-384"/>
<polygon fill="none" stroke="black" points="265,-384 265,-406 448,-406 448,-384 265,-384"/>
<text text-anchor="start" x="270" y="-393.2" font-family="Helvetica,sans-Serif" font-weight="bold" font-size="11.00">elementdatasettaxagroups</text>
<text text-anchor="start" x="413" y="-392.2" font-family="Helvetica,sans-Serif" font-size="11.00">[table]</text>
<polygon fill="none" stroke="black" points="265,-366 265,-384 448,-384 448,-366 265,-366"/>
<text text-anchor="start" x="268" y="-372.2" font-family="Helvetica,sans-Serif" font-size="11.00">...</text>
<polygon fill="#ffffff" stroke="transparent" points="265,-348 265,-366 331,-366 331,-348 265,-348"/>
<polygon fill="none" stroke="black" points="265,-348 265,-366 331,-366 331,-348 265,-348"/>
<text text-anchor="start" x="268" y="-354.2" font-family="Helvetica,sans-Serif" font-size="11.00">&lt; 2</text>
<polygon fill="#ffffff" stroke="transparent" points="331,-348 331,-366 413,-366 413,-348 331,-348"/>
<polygon fill="none" stroke="black" points="331,-348 331,-366 413,-366 413,-348 331,-348"/>
<text text-anchor="start" x="356" y="-354.2" font-family="Helvetica,sans-Serif" font-size="11.00">1,474 rows</text>
<polygon fill="#ffffff" stroke="transparent" points="413,-348 413,-366 448,-366 448,-348 413,-348"/>
<polygon fill="none" stroke="black" points="413,-348 413,-366 448,-366 448,-348 413,-348"/>
<text text-anchor="start" x="438" y="-354.2" font-family="Helvetica,sans-Serif" font-size="11.00"> &#160;</text>
</a>
</g>
</g>
<!-- elementdatasettaxagroups&#45;&gt;datasettypes -->
<g id="edge4" class="edge">
<title>elementdatasettaxagroups:w&#45;&gt;datasettypes:e</title>
<path fill="none" stroke="black" d="M249.42,-375.96C206.03,-381.97 194.82,-414 144,-414"/>
<polygon fill="black" stroke="black" points="256.02,-375.53 264.24,-378.59 260.01,-375.26 264,-375 264,-375 264,-375 260.01,-375.26 263.76,-371.41 256.02,-375.53 256.02,-375.53"/>
<ellipse fill="none" stroke="black" cx="252.82" cy="-375.74" rx="3.2" ry="3.2"/>
</g>
<!-- taphonomicsystemsdatasettypes -->
<g id="node6" class="node">
<title>taphonomicsystemsdatasettypes</title>
<g id="a_node6"><a xlink:href="../../tables/taphonomicsystemsdatasettypes.html" xlink:title="taphonomicsystemsdatasettypes" target="_top">
<polygon fill="#ffffff" stroke="transparent" points="207,-116 207,-248 505,-248 505,-116 207,-116"/>
<polygon fill="#f5f5f5" stroke="transparent" points="209,-224 209,-246 503,-246 503,-224 209,-224"/>
<polygon fill="none" stroke="black" points="209,-224 209,-246 503,-246 503,-224 209,-224"/>
<text text-anchor="start" x="214" y="-233.2" font-family="Helvetica,sans-Serif" font-weight="bold" font-size="11.00">taphonomicsystemsdatasettypes</text>
<text text-anchor="start" x="468" y="-232.2" font-family="Helvetica,sans-Serif" font-size="11.00">[table]</text>
<polygon fill="none" stroke="black" points="209,-202 209,-224 429,-224 429,-202 209,-202"/>
<image xlink:href="../../images/primaryKeys.png" width="11px" height="12px" preserveAspectRatio="xMinYMin meet" x="214" y="-219"/>
<text text-anchor="start" x="229" y="-210.2" font-family="Helvetica,sans-Serif" font-size="11.00">datasettypeid</text>
<polygon fill="none" stroke="black" points="429,-202 429,-224 503,-224 503,-202 429,-202"/>
<text text-anchor="start" x="432" y="-210.2" font-family="Helvetica,sans-Serif" font-size="11.00">int4[10]</text>
<polygon fill="none" stroke="black" points="209,-180 209,-202 429,-202 429,-180 209,-180"/>
<image xlink:href="../../images/primaryKeys.png" width="11px" height="12px" preserveAspectRatio="xMinYMin meet" x="214" y="-197"/>
<text text-anchor="start" x="229" y="-188.2" font-family="Helvetica,sans-Serif" font-size="11.00">taphonomicsystemid</text>
<polygon fill="none" stroke="black" points="429,-180 429,-202 503,-202 503,-180 429,-180"/>
<text text-anchor="start" x="432" y="-188.2" font-family="Helvetica,sans-Serif" font-size="11.00">int4[10]</text>
<polygon fill="none" stroke="black" points="209,-158 209,-180 429,-180 429,-158 209,-158"/>
<text text-anchor="start" x="229" y="-166.2" font-family="Helvetica,sans-Serif" font-size="11.00">recdatecreated</text>
<polygon fill="none" stroke="black" points="429,-158 429,-180 503,-180 503,-158 429,-158"/>
<text text-anchor="start" x="432" y="-166.2" font-family="Helvetica,sans-Serif" font-size="11.00">timestamp[22]</text>
<polygon fill="none" stroke="black" points="209,-136 209,-158 429,-158 429,-136 209,-136"/>
<text text-anchor="start" x="229" y="-144.2" font-family="Helvetica,sans-Serif" font-size="11.00">recdatemodified</text>
<polygon fill="none" stroke="black" points="429,-136 429,-158 503,-158 503,-136 429,-136"/>
<text text-anchor="start" x="432" y="-144.2" font-family="Helvetica,sans-Serif" font-size="11.00">timestamp[22]</text>
<polygon fill="#ffffff" stroke="transparent" points="209,-118 209,-136 307,-136 307,-118 209,-118"/>
<polygon fill="none" stroke="black" points="209,-118 209,-136 307,-136 307,-118 209,-118"/>
<text text-anchor="start" x="212" y="-124.2" font-family="Helvetica,sans-Serif" font-size="11.00">&lt; 2</text>
<polygon fill="#ffffff" stroke="transparent" points="307,-118 307,-136 429,-136 429,-118 307,-118"/>
<polygon fill="none" stroke="black" points="307,-118 307,-136 429,-136 429,-118 307,-118"/>
<text text-anchor="start" x="387" y="-124.2" font-family="Helvetica,sans-Serif" font-size="11.00">11 rows</text>
<polygon fill="#ffffff" stroke="transparent" points="429,-118 429,-136 503,-136 503,-118 429,-118"/>
<polygon fill="none" stroke="black" points="429,-118 429,-136 503,-136 503,-118 429,-118"/>
<text text-anchor="start" x="484" y="-124.2" font-family="Helvetica,sans-Serif" font-size="11.00">0 &gt;</text>
<polygon fill="none" stroke="black" stroke-width="2" points="208,-117 208,-247 504,-247 504,-117 208,-117"/>
</a>
</g>
</g>
<!-- taphonomicsystemsdatasettypes&#45;&gt;datasettypes -->
<g id="edge5" class="edge">
<title>taphonomicsystemsdatasettypes:w&#45;&gt;datasettypes:e</title>
<path fill="none" stroke="black" d="M193.67,-214.99C127.97,-235.86 232.26,-414 144,-414"/>
<polygon fill="black" stroke="black" points="200.08,-214.1 208.5,-216.57 204.04,-213.55 208,-213 208,-213 208,-213 204.04,-213.55 207.5,-209.43 200.08,-214.1 200.08,-214.1"/>
<ellipse fill="none" stroke="black" cx="196.91" cy="-214.54" rx="3.2" ry="3.2"/>
</g>
<!-- taphonomicsystems -->
<g id="node7" class="node">
<title>taphonomicsystems</title>
<g id="a_node7"><a xlink:href="../../tables/taphonomicsystems.html" xlink:title="taphonomicsystems" target="_top">
<polygon fill="#ffffff" stroke="transparent" points="8,-80 8,-160 158,-160 158,-80 8,-80"/>
<polygon fill="#f5f5f5" stroke="transparent" points="8,-138 8,-160 158,-160 158,-138 8,-138"/>
<polygon fill="none" stroke="black" points="8,-138 8,-160 158,-160 158,-138 8,-138"/>
<text text-anchor="start" x="13" y="-147.2" font-family="Helvetica,sans-Serif" font-weight="bold" font-size="11.00">taphonomicsystems</text>
<text text-anchor="start" x="123" y="-146.2" font-family="Helvetica,sans-Serif" font-size="11.00">[table]</text>
<polygon fill="none" stroke="black" points="8,-116 8,-138 158,-138 158,-116 8,-116"/>
<image xlink:href="../../images/primaryKeys.png" width="11px" height="12px" preserveAspectRatio="xMinYMin meet" x="13" y="-133"/>
<text text-anchor="start" x="30" y="-124.2" font-family="Helvetica,sans-Serif" font-size="11.00">taphonomicsystemid</text>
<polygon fill="none" stroke="black" points="8,-98 8,-116 158,-116 158,-98 8,-98"/>
<text text-anchor="start" x="11" y="-104.2" font-family="Helvetica,sans-Serif" font-size="11.00">...</text>
<polygon fill="#ffffff" stroke="transparent" points="8,-80 8,-98 59,-98 59,-80 8,-80"/>
<polygon fill="none" stroke="black" points="8,-80 8,-98 59,-98 59,-80 8,-80"/>
<text text-anchor="start" x="11" y="-86.2" font-family="Helvetica,sans-Serif" font-size="11.00"> &#160;</text>
<polygon fill="#ffffff" stroke="transparent" points="59,-80 59,-98 117,-98 117,-80 59,-80"/>
<polygon fill="none" stroke="black" points="59,-80 59,-98 117,-98 117,-80 59,-80"/>
<text text-anchor="start" x="81" y="-86.2" font-family="Helvetica,sans-Serif" font-size="11.00">9 rows</text>
<polygon fill="#ffffff" stroke="transparent" points="117,-80 117,-98 158,-98 158,-80 117,-80"/>
<polygon fill="none" stroke="black" points="117,-80 117,-98 158,-98 158,-80 117,-80"/>
<text text-anchor="start" x="139" y="-86.2" font-family="Helvetica,sans-Serif" font-size="11.00">2 &gt;</text>
</a>
</g>
</g>
<!-- taphonomicsystemsdatasettypes&#45;&gt;taphonomicsystems -->
<g id="edge6" class="edge">
<title>taphonomicsystemsdatasettypes:w&#45;&gt;taphonomicsystems:e</title>
<path fill="none" stroke="black" d="M194.12,-185.98C178.23,-170.89 188.67,-127 159,-127"/>
<polygon fill="black" stroke="black" points="200.48,-188.28 206.78,-194.39 204.24,-189.64 208,-191 208,-191 208,-191 204.24,-189.64 209.22,-187.61 200.48,-188.28 200.48,-188.28"/>
<ellipse fill="none" stroke="black" cx="197.47" cy="-187.19" rx="3.2" ry="3.2"/>
</g>
<!-- taphonomictypes -->
<g id="node8" class="node">
<title>taphonomictypes</title>
<g id="a_node8"><a xlink:href="../../tables/taphonomictypes.html" xlink:title="taphonomictypes" target="_top">
<polygon fill="#ffffff" stroke="transparent" points="288.5,-37 288.5,-95 423.5,-95 423.5,-37 288.5,-37"/>
<polygon fill="#f5f5f5" stroke="transparent" points="289,-73 289,-95 424,-95 424,-73 289,-73"/>
<polygon fill="none" stroke="black" points="289,-73 289,-95 424,-95 424,-73 289,-73"/>
<text text-anchor="start" x="294" y="-82.2" font-family="Helvetica,sans-Serif" font-weight="bold" font-size="11.00">taphonomictypes</text>
<text text-anchor="start" x="389" y="-81.2" font-family="Helvetica,sans-Serif" font-size="11.00">[table]</text>
<polygon fill="none" stroke="black" points="289,-55 289,-73 424,-73 424,-55 289,-55"/>
<text text-anchor="start" x="292" y="-61.2" font-family="Helvetica,sans-Serif" font-size="11.00">...</text>
<polygon fill="#ffffff" stroke="transparent" points="289,-37 289,-55 334,-55 334,-37 289,-37"/>
<polygon fill="none" stroke="black" points="289,-37 289,-55 334,-55 334,-37 289,-37"/>
<text text-anchor="start" x="292" y="-43.2" font-family="Helvetica,sans-Serif" font-size="11.00">&lt; 1</text>
<polygon fill="#ffffff" stroke="transparent" points="334,-37 334,-55 390,-55 390,-37 334,-37"/>
<polygon fill="none" stroke="black" points="334,-37 334,-55 390,-55 390,-37 334,-37"/>
<text text-anchor="start" x="348" y="-43.2" font-family="Helvetica,sans-Serif" font-size="11.00">81 rows</text>
<polygon fill="#ffffff" stroke="transparent" points="390,-37 390,-55 424,-55 424,-37 390,-37"/>
<polygon fill="none" stroke="black" points="390,-37 390,-55 424,-55 424,-37 390,-37"/>
<text text-anchor="start" x="405" y="-43.2" font-family="Helvetica,sans-Serif" font-size="11.00">2 &gt;</text>
</a>
</g>
</g>
<!-- taphonomictypes&#45;&gt;taphonomicsystems -->
<g id="edge7" class="edge">
<title>taphonomictypes:w&#45;&gt;taphonomicsystems:e</title>
<path fill="none" stroke="black" d="M273.27,-64.96C242.3,-69.32 233.02,-87.83 199,-105 180.89,-114.14 179.29,-127 159,-127"/>
<polygon fill="black" stroke="black" points="280.02,-64.52 288.23,-67.59 284.01,-64.26 288,-64 288,-64 288,-64 284.01,-64.26 287.77,-60.41 280.02,-64.52 280.02,-64.52"/>
<ellipse fill="none" stroke="black" cx="276.82" cy="-64.73" rx="3.2" ry="3.2"/>
</g>
<!-- unitsdatasettypes -->
<g id="node9" class="node">
<title>unitsdatasettypes</title>
<g id="a_node9"><a xlink:href="../../tables/unitsdatasettypes.html" xlink:title="unitsdatasettypes" target="_top">
<polygon fill="#ffffff" stroke="transparent" points="287,-269 287,-327 425,-327 425,-269 287,-269"/>
<polygon fill="#f5f5f5" stroke="transparent" points="287,-305 287,-327 425,-327 425,-305 287,-305"/>
<polygon fill="none" stroke="black" points="287,-305 287,-327 425,-327 425,-305 287,-305"/>
<text text-anchor="start" x="292" y="-314.2" font-family="Helvetica,sans-Serif" font-weight="bold" font-size="11.00">unitsdatasettypes</text>
<text text-anchor="start" x="390" y="-313.2" font-family="Helvetica,sans-Serif" font-size="11.00">[table]</text>
<polygon fill="none" stroke="black" points="287,-287 287,-305 425,-305 425,-287 287,-287"/>
<text text-anchor="start" x="290" y="-293.2" font-family="Helvetica,sans-Serif" font-size="11.00">...</text>
<polygon fill="#ffffff" stroke="transparent" points="287,-269 287,-287 335,-287 335,-269 287,-269"/>
<polygon fill="none" stroke="black" points="287,-269 287,-287 335,-287 335,-269 287,-269"/>
<text text-anchor="start" x="290" y="-275.2" font-family="Helvetica,sans-Serif" font-size="11.00">&lt; 2</text>
<polygon fill="#ffffff" stroke="transparent" points="335,-269 335,-287 399,-287 399,-269 335,-269"/>
<polygon fill="none" stroke="black" points="335,-269 335,-287 399,-287 399,-269 335,-269"/>
<text text-anchor="start" x="351" y="-275.2" font-family="Helvetica,sans-Serif" font-size="11.00">672 rows</text>
<polygon fill="#ffffff" stroke="transparent" points="399,-269 399,-287 425,-287 425,-269 399,-269"/>
<polygon fill="none" stroke="black" points="399,-269 399,-287 425,-287 425,-269 399,-269"/>
<text text-anchor="start" x="415" y="-275.2" font-family="Helvetica,sans-Serif" font-size="11.00"> &#160;</text>
</a>
</g>
</g>
<!-- unitsdatasettypes&#45;&gt;datasettypes -->
<g id="edge8" class="edge">
<title>unitsdatasettypes:w&#45;&gt;datasettypes:e</title>
<path fill="none" stroke="black" d="M271.28,-296.67C239.94,-299.81 227.81,-313.88 199,-338 167.03,-364.77 185.69,-414 144,-414"/>
<polygon fill="black" stroke="black" points="278.01,-296.37 286.16,-299.6 282,-296.18 286,-296 286,-296 286,-296 282,-296.18 285.84,-292.4 278.01,-296.37 278.01,-296.37"/>
<ellipse fill="none" stroke="black" cx="274.81" cy="-296.51" rx="3.2" ry="3.2"/>
</g>
</g>
</svg>
