<?xml version="1.0" encoding="UTF-8" standalone="no"?>
<!DOCTYPE svg PUBLIC "-//W3C//DTD SVG 1.1//EN"
 "http://www.w3.org/Graphics/SVG/1.1/DTD/svg11.dtd">
<!-- Generated by graphviz version 2.43.0 (0)
 -->
<!-- Title: twoDegreesRelationshipsDiagram Pages: 1 -->
<svg width="758pt" height="315pt"
 viewBox="0.00 0.00 758.00 315.00" xmlns="http://www.w3.org/2000/svg" xmlns:xlink="http://www.w3.org/1999/xlink">
<g id="graph0" class="graph" transform="scale(1 1) rotate(0) translate(4 311)">
<title>twoDegreesRelationshipsDiagram</title>
<polygon fill="#ffffff" stroke="transparent" points="-4,4 -4,-311 754,-311 754,4 -4,4"/>
<text text-anchor="middle" x="71.5" y="-7.2" font-family="Helvetica,sans-Serif" font-size="11.00">Generated by SchemaSpy</text>
<!-- specimentaphonomy -->
<g id="node1" class="node">
<title>specimentaphonomy</title>
<g id="a_node1"><a xlink:href="../../tables/specimentaphonomy.html" xlink:title="specimentaphonomy" target="_top">
<polygon fill="#ffffff" stroke="transparent" points="577.5,-160 577.5,-218 731.5,-218 731.5,-160 577.5,-160"/>
<polygon fill="#f5f5f5" stroke="transparent" points="577.5,-196 577.5,-218 731.5,-218 731.5,-196 577.5,-196"/>
<polygon fill="none" stroke="black" points="577.5,-196 577.5,-218 731.5,-218 731.5,-196 577.5,-196"/>
<text text-anchor="start" x="582.5" y="-205.2" font-family="Helvetica,sans-Serif" font-weight="bold" font-size="11.00">specimentaphonomy</text>
<text text-anchor="start" x="696.5" y="-204.2" font-family="Helvetica,sans-Serif" font-size="11.00">[table]</text>
<polygon fill="none" stroke="black" points="577.5,-178 577.5,-196 731.5,-196 731.5,-178 577.5,-178"/>
<text text-anchor="start" x="580.5" y="-184.2" font-family="Helvetica,sans-Serif" font-size="11.00">...</text>
<polygon fill="#ffffff" stroke="transparent" points="577.5,-160 577.5,-178 633.5,-178 633.5,-160 577.5,-160"/>
<polygon fill="none" stroke="black" points="577.5,-160 577.5,-178 633.5,-178 633.5,-160 577.5,-160"/>
<text text-anchor="start" x="580.5" y="-166.2" font-family="Helvetica,sans-Serif" font-size="11.00">&lt; 2</text>
<polygon fill="#ffffff" stroke="transparent" points="633.5,-160 633.5,-178 701.5,-178 701.5,-160 633.5,-160"/>
<polygon fill="none" stroke="black" points="633.5,-160 633.5,-178 701.5,-178 701.5,-160 633.5,-160"/>
<text text-anchor="start" x="653.5" y="-166.2" font-family="Helvetica,sans-Serif" font-size="11.00">452 rows</text>
<polygon fill="#ffffff" stroke="transparent" points="701.5,-160 701.5,-178 731.5,-178 731.5,-160 701.5,-160"/>
<polygon fill="none" stroke="black" points="701.5,-160 701.5,-178 731.5,-178 731.5,-160 701.5,-160"/>
<text text-anchor="start" x="721.5" y="-166.2" font-family="Helvetica,sans-Serif" font-size="11.00"> &#160;</text>
</a>
</g>
</g>
<!-- taphonomictypes -->
<g id="node2" class="node">
<title>taphonomictypes</title>
<g id="a_node2"><a xlink:href="../../tables/taphonomictypes.html" xlink:title="taphonomictypes" target="_top">
<polygon fill="#ffffff" stroke="transparent" points="334.5,-78 334.5,-180 481.5,-180 481.5,-78 334.5,-78"/>
<polygon fill="#f5f5f5" stroke="transparent" points="335,-158 335,-180 482,-180 482,-158 335,-158"/>
<polygon fill="none" stroke="black" points="335,-158 335,-180 482,-180 482,-158 335,-158"/>
<text text-anchor="start" x="340" y="-167.2" font-family="Helvetica,sans-Serif" font-weight="bold" font-size="11.00">taphonomictypes</text>
<text text-anchor="start" x="447" y="-166.2" font-family="Helvetica,sans-Serif" font-size="11.00">[table]</text>
<polygon fill="none" stroke="black" points="335,-136 335,-158 482,-158 482,-136 335,-136"/>
<image xlink:href="../../images/primaryKeys.png" width="11px" height="12px" preserveAspectRatio="xMinYMin meet" x="340" y="-153"/>
<text text-anchor="start" x="355" y="-144.2" font-family="Helvetica,sans-Serif" font-size="11.00">taphonomictypeid</text>
<polygon fill="none" stroke="black" points="335,-114 335,-136 482,-136 482,-114 335,-114"/>
<image xlink:href="../../images/foreignKeys.png" width="11px" height="12px" preserveAspectRatio="xMinYMin meet" x="340" y="-131"/>
<text text-anchor="start" x="355" y="-122.2" font-family="Helvetica,sans-Serif" font-size="11.00">taphonomicsystemid</text>
<polygon fill="none" stroke="black" points="335,-96 335,-114 482,-114 482,-96 335,-96"/>
<text text-anchor="start" x="338" y="-102.2" font-family="Helvetica,sans-Serif" font-size="11.00">...</text>
<polygon fill="#ffffff" stroke="transparent" points="335,-78 335,-96 386,-96 386,-78 335,-78"/>
<polygon fill="none" stroke="black" points="335,-78 335,-96 386,-96 386,-78 335,-78"/>
<text text-anchor="start" x="338" y="-84.2" font-family="Helvetica,sans-Serif" font-size="11.00">&lt; 1</text>
<polygon fill="#ffffff" stroke="transparent" points="386,-78 386,-96 445,-96 445,-78 386,-78"/>
<polygon fill="none" stroke="black" points="386,-78 386,-96 445,-96 445,-78 386,-78"/>
<text text-anchor="start" x="403" y="-84.2" font-family="Helvetica,sans-Serif" font-size="11.00">81 rows</text>
<polygon fill="#ffffff" stroke="transparent" points="445,-78 445,-96 482,-96 482,-78 445,-78"/>
<polygon fill="none" stroke="black" points="445,-78 445,-96 482,-96 482,-78 445,-78"/>
<text text-anchor="start" x="463" y="-84.2" font-family="Helvetica,sans-Serif" font-size="11.00">2 &gt;</text>
</a>
</g>
</g>
<!-- specimentaphonomy&#45;&gt;taphonomictypes -->
<g id="edge1" class="edge">
<title>specimentaphonomy:w&#45;&gt;taphonomictypes:e</title>
<path fill="none" stroke="black" d="M561.78,-185.38C529.93,-177.9 522.73,-147 483,-147"/>
<polygon fill="black" stroke="black" points="568.55,-186.13 576.11,-190.58 572.52,-186.56 576.5,-187 576.5,-187 576.5,-187 572.52,-186.56 576.89,-183.42 568.55,-186.13 568.55,-186.13"/>
<ellipse fill="none" stroke="black" cx="565.37" cy="-185.78" rx="3.2" ry="3.2"/>
</g>
<!-- taphonomicsystems -->
<g id="node6" class="node">
<title>taphonomicsystems</title>
<g id="a_node6"><a xlink:href="../../tables/taphonomicsystems.html" xlink:title="taphonomicsystems" target="_top">
<polygon fill="#ffffff" stroke="transparent" points="8,-37 8,-191 249,-191 249,-37 8,-37"/>
<polygon fill="#f5f5f5" stroke="transparent" points="10.5,-167 10.5,-189 247.5,-189 247.5,-167 10.5,-167"/>
<polygon fill="none" stroke="black" points="10.5,-167 10.5,-189 247.5,-189 247.5,-167 10.5,-167"/>
<text text-anchor="start" x="15.5" y="-176.2" font-family="Helvetica,sans-Serif" font-weight="bold" font-size="11.00">taphonomicsystems</text>
<text text-anchor="start" x="212.5" y="-175.2" font-family="Helvetica,sans-Serif" font-size="11.00">[table]</text>
<polygon fill="none" stroke="black" points="10.5,-145 10.5,-167 157.5,-167 157.5,-145 10.5,-145"/>
<image xlink:href="../../images/primaryKeys.png" width="11px" height="12px" preserveAspectRatio="xMinYMin meet" x="15.5" y="-162"/>
<text text-anchor="start" x="30.5" y="-153.2" font-family="Helvetica,sans-Serif" font-size="11.00">taphonomicsystemid</text>
<polygon fill="none" stroke="black" points="157.5,-145 157.5,-167 247.5,-167 247.5,-145 157.5,-145"/>
<text text-anchor="start" x="160.5" y="-153.2" font-family="Helvetica,sans-Serif" font-size="11.00">serial[10]</text>
<polygon fill="none" stroke="black" points="10.5,-123 10.5,-145 157.5,-145 157.5,-123 10.5,-123"/>
<text text-anchor="start" x="30.5" y="-131.2" font-family="Helvetica,sans-Serif" font-size="11.00">taphonomicsystem</text>
<polygon fill="none" stroke="black" points="157.5,-123 157.5,-145 247.5,-145 247.5,-123 157.5,-123"/>
<text text-anchor="start" x="160.5" y="-131.2" font-family="Helvetica,sans-Serif" font-size="11.00">varchar[64]</text>
<polygon fill="none" stroke="black" points="10.5,-101 10.5,-123 157.5,-123 157.5,-101 10.5,-101"/>
<text text-anchor="start" x="30.5" y="-109.2" font-family="Helvetica,sans-Serif" font-size="11.00">notes</text>
<polygon fill="none" stroke="black" points="157.5,-101 157.5,-123 247.5,-123 247.5,-101 157.5,-101"/>
<text text-anchor="start" x="160.5" y="-109.2" font-family="Helvetica,sans-Serif" font-size="11.00">text[2147483647]</text>
<polygon fill="none" stroke="black" points="10.5,-79 10.5,-101 157.5,-101 157.5,-79 10.5,-79"/>
<text text-anchor="start" x="30.5" y="-87.2" font-family="Helvetica,sans-Serif" font-size="11.00">recdatecreated</text>
<polygon fill="none" stroke="black" points="157.5,-79 157.5,-101 247.5,-101 247.5,-79 157.5,-79"/>
<text text-anchor="start" x="160.5" y="-87.2" font-family="Helvetica,sans-Serif" font-size="11.00">timestamp[22]</text>
<polygon fill="none" stroke="black" points="10.5,-57 10.5,-79 157.5,-79 157.5,-57 10.5,-57"/>
<text text-anchor="start" x="30.5" y="-65.2" font-family="Helvetica,sans-Serif" font-size="11.00">recdatemodified</text>
<polygon fill="none" stroke="black" points="157.5,-57 157.5,-79 247.5,-79 247.5,-57 157.5,-57"/>
<text text-anchor="start" x="160.5" y="-65.2" font-family="Helvetica,sans-Serif" font-size="11.00">timestamp[22]</text>
<polygon fill="#ffffff" stroke="transparent" points="10.5,-39 10.5,-57 75.5,-57 75.5,-39 10.5,-39"/>
<polygon fill="none" stroke="black" points="10.5,-39 10.5,-57 75.5,-57 75.5,-39 10.5,-39"/>
<text text-anchor="start" x="13.5" y="-45.2" font-family="Helvetica,sans-Serif" font-size="11.00">&lt; 0</text>
<polygon fill="#ffffff" stroke="transparent" points="75.5,-39 75.5,-57 157.5,-57 157.5,-39 75.5,-39"/>
<polygon fill="none" stroke="black" points="75.5,-39 75.5,-57 157.5,-57 157.5,-39 75.5,-39"/>
<text text-anchor="start" x="121.5" y="-45.2" font-family="Helvetica,sans-Serif" font-size="11.00">9 rows</text>
<polygon fill="#ffffff" stroke="transparent" points="157.5,-39 157.5,-57 247.5,-57 247.5,-39 157.5,-39"/>
<polygon fill="none" stroke="black" points="157.5,-39 157.5,-57 247.5,-57 247.5,-39 157.5,-39"/>
<text text-anchor="start" x="228.5" y="-45.2" font-family="Helvetica,sans-Serif" font-size="11.00">2 &gt;</text>
<polygon fill="none" stroke="black" stroke-width="2" points="9,-38 9,-190 248,-190 248,-38 9,-38"/>
</a>
</g>
</g>
<!-- taphonomictypes&#45;&gt;taphonomicsystems -->
<g id="edge5" class="edge">
<title>taphonomictypes:w&#45;&gt;taphonomicsystems:e</title>
<path fill="none" stroke="black" d="M319.62,-126.5C291.71,-132.69 283.55,-156 248.5,-156"/>
<polygon fill="black" stroke="black" points="326.04,-125.83 334.37,-128.58 330.02,-125.41 334,-125 334,-125 334,-125 330.02,-125.41 333.63,-121.42 326.04,-125.83 326.04,-125.83"/>
<ellipse fill="none" stroke="black" cx="322.86" cy="-126.16" rx="3.2" ry="3.2"/>
</g>
<!-- summarydatataphonomy -->
<g id="node3" class="node">
<title>summarydatataphonomy</title>
<g id="a_node3"><a xlink:href="../../tables/summarydatataphonomy.html" xlink:title="summarydatataphonomy" target="_top">
<polygon fill="#ffffff" stroke="transparent" points="567,-81 567,-139 742,-139 742,-81 567,-81"/>
<polygon fill="#f5f5f5" stroke="transparent" points="567.5,-117 567.5,-139 742.5,-139 742.5,-117 567.5,-117"/>
<polygon fill="none" stroke="black" points="567.5,-117 567.5,-139 742.5,-139 742.5,-117 567.5,-117"/>
<text text-anchor="start" x="572.5" y="-126.2" font-family="Helvetica,sans-Serif" font-weight="bold" font-size="11.00">summarydatataphonomy</text>
<text text-anchor="start" x="707.5" y="-125.2" font-family="Helvetica,sans-Serif" font-size="11.00">[table]</text>
<polygon fill="none" stroke="black" points="567.5,-99 567.5,-117 742.5,-117 742.5,-99 567.5,-99"/>
<text text-anchor="start" x="570.5" y="-105.2" font-family="Helvetica,sans-Serif" font-size="11.00">...</text>
<polygon fill="#ffffff" stroke="transparent" points="567.5,-81 567.5,-99 626.5,-99 626.5,-81 567.5,-81"/>
<polygon fill="none" stroke="black" points="567.5,-81 567.5,-99 626.5,-99 626.5,-81 567.5,-81"/>
<text text-anchor="start" x="570.5" y="-87.2" font-family="Helvetica,sans-Serif" font-size="11.00">&lt; 2</text>
<polygon fill="#ffffff" stroke="transparent" points="626.5,-81 626.5,-99 710.5,-99 710.5,-81 626.5,-81"/>
<polygon fill="none" stroke="black" points="626.5,-81 626.5,-99 710.5,-99 710.5,-81 626.5,-81"/>
<text text-anchor="start" x="647.5" y="-87.2" font-family="Helvetica,sans-Serif" font-size="11.00">42,956 rows</text>
<polygon fill="#ffffff" stroke="transparent" points="710.5,-81 710.5,-99 742.5,-99 742.5,-81 710.5,-81"/>
<polygon fill="none" stroke="black" points="710.5,-81 710.5,-99 742.5,-99 742.5,-81 710.5,-81"/>
<text text-anchor="start" x="732.5" y="-87.2" font-family="Helvetica,sans-Serif" font-size="11.00"> &#160;</text>
</a>
</g>
</g>
<!-- summarydatataphonomy&#45;&gt;taphonomictypes -->
<g id="edge2" class="edge">
<title>summarydatataphonomy:w&#45;&gt;taphonomictypes:e</title>
<path fill="none" stroke="black" d="M552.08,-109.88C524.43,-117.67 518.52,-147 483,-147"/>
<polygon fill="black" stroke="black" points="558.57,-109.03 566.97,-111.57 562.53,-108.52 566.5,-108 566.5,-108 566.5,-108 562.53,-108.52 566.03,-104.43 558.57,-109.03 558.57,-109.03"/>
<ellipse fill="none" stroke="black" cx="555.39" cy="-109.45" rx="3.2" ry="3.2"/>
</g>
<!-- taphonomicsystemsdatasettypes -->
<g id="node4" class="node">
<title>taphonomicsystemsdatasettypes</title>
<g id="a_node4"><a xlink:href="../../tables/taphonomicsystemsdatasettypes.html" xlink:title="taphonomicsystemsdatasettypes" target="_top">
<polygon fill="#ffffff" stroke="transparent" points="298,-201 298,-303 518,-303 518,-201 298,-201"/>
<polygon fill="#f5f5f5" stroke="transparent" points="298,-281 298,-303 518,-303 518,-281 298,-281"/>
<polygon fill="none" stroke="black" points="298,-281 298,-303 518,-303 518,-281 298,-281"/>
<text text-anchor="start" x="303" y="-290.2" font-family="Helvetica,sans-Serif" font-weight="bold" font-size="11.00">taphonomicsystemsdatasettypes</text>
<text text-anchor="start" x="483" y="-289.2" font-family="Helvetica,sans-Serif" font-size="11.00">[table]</text>
<polygon fill="none" stroke="black" points="298,-259 298,-281 518,-281 518,-259 298,-259"/>
<image xlink:href="../../images/primaryKeys.png" width="11px" height="12px" preserveAspectRatio="xMinYMin meet" x="303" y="-276"/>
<text text-anchor="start" x="318" y="-267.2" font-family="Helvetica,sans-Serif" font-size="11.00">datasettypeid</text>
<polygon fill="none" stroke="black" points="298,-237 298,-259 518,-259 518,-237 298,-237"/>
<image xlink:href="../../images/primaryKeys.png" width="11px" height="12px" preserveAspectRatio="xMinYMin meet" x="303" y="-254"/>
<text text-anchor="start" x="318" y="-245.2" font-family="Helvetica,sans-Serif" font-size="11.00">taphonomicsystemid</text>
<polygon fill="none" stroke="black" points="298,-219 298,-237 518,-237 518,-219 298,-219"/>
<text text-anchor="start" x="301" y="-225.2" font-family="Helvetica,sans-Serif" font-size="11.00">...</text>
<polygon fill="#ffffff" stroke="transparent" points="298,-201 298,-219 390,-219 390,-201 298,-201"/>
<polygon fill="none" stroke="black" points="298,-201 298,-219 390,-219 390,-201 298,-201"/>
<text text-anchor="start" x="301" y="-207.2" font-family="Helvetica,sans-Serif" font-size="11.00">&lt; 2</text>
<polygon fill="#ffffff" stroke="transparent" points="390,-201 390,-219 470,-219 470,-201 390,-201"/>
<polygon fill="none" stroke="black" points="390,-201 390,-219 470,-219 470,-201 390,-201"/>
<text text-anchor="start" x="428" y="-207.2" font-family="Helvetica,sans-Serif" font-size="11.00">11 rows</text>
<polygon fill="#ffffff" stroke="transparent" points="470,-201 470,-219 518,-219 518,-201 470,-201"/>
<polygon fill="none" stroke="black" points="470,-201 470,-219 518,-219 518,-201 470,-201"/>
<text text-anchor="start" x="508" y="-207.2" font-family="Helvetica,sans-Serif" font-size="11.00"> &#160;</text>
</a>
</g>
</g>
<!-- datasettypes -->
<g id="node5" class="node">
<title>datasettypes</title>
<g id="a_node5"><a xlink:href="../../tables/datasettypes.html" xlink:title="datasettypes" target="_top">
<polygon fill="#ffffff" stroke="transparent" points="73,-243 73,-301 184,-301 184,-243 73,-243"/>
<polygon fill="#f5f5f5" stroke="transparent" points="73.5,-279 73.5,-301 184.5,-301 184.5,-279 73.5,-279"/>
<polygon fill="none" stroke="black" points="73.5,-279 73.5,-301 184.5,-301 184.5,-279 73.5,-279"/>
<text text-anchor="start" x="78.5" y="-288.2" font-family="Helvetica,sans-Serif" font-weight="bold" font-size="11.00">datasettypes</text>
<text text-anchor="start" x="149.5" y="-287.2" font-family="Helvetica,sans-Serif" font-size="11.00">[table]</text>
<polygon fill="none" stroke="black" points="73.5,-261 73.5,-279 184.5,-279 184.5,-261 73.5,-261"/>
<text text-anchor="start" x="76.5" y="-267.2" font-family="Helvetica,sans-Serif" font-size="11.00">...</text>
<polygon fill="#ffffff" stroke="transparent" points="73.5,-243 73.5,-261 101.5,-261 101.5,-243 73.5,-243"/>
<polygon fill="none" stroke="black" points="73.5,-243 73.5,-261 101.5,-261 101.5,-243 73.5,-243"/>
<text text-anchor="start" x="76.5" y="-249.2" font-family="Helvetica,sans-Serif" font-size="11.00"> &#160;</text>
<polygon fill="#ffffff" stroke="transparent" points="101.5,-243 101.5,-261 154.5,-261 154.5,-243 101.5,-243"/>
<polygon fill="none" stroke="black" points="101.5,-243 101.5,-261 154.5,-261 154.5,-243 101.5,-243"/>
<text text-anchor="start" x="112.5" y="-249.2" font-family="Helvetica,sans-Serif" font-size="11.00">41 rows</text>
<polygon fill="#ffffff" stroke="transparent" points="154.5,-243 154.5,-261 184.5,-261 184.5,-243 154.5,-243"/>
<polygon fill="none" stroke="black" points="154.5,-243 154.5,-261 184.5,-261 184.5,-243 154.5,-243"/>
<text text-anchor="start" x="165.5" y="-249.2" font-family="Helvetica,sans-Serif" font-size="11.00">6 &gt;</text>
</a>
</g>
</g>
<!-- taphonomicsystemsdatasettypes&#45;&gt;datasettypes -->
<g id="edge3" class="edge">
<title>taphonomicsystemsdatasettypes:w&#45;&gt;datasettypes:e</title>
<path fill="none" stroke="black" d="M282.47,-270C244.42,-270 229.83,-270 185.5,-270"/>
<polygon fill="black" stroke="black" points="289,-270 297,-273.6 293,-270 297,-270 297,-270 297,-270 293,-270 297,-266.4 289,-270 289,-270"/>
<ellipse fill="none" stroke="black" cx="285.8" cy="-270" rx="3.2" ry="3.2"/>
</g>
<!-- taphonomicsystemsdatasettypes&#45;&gt;taphonomicsystems -->
<g id="edge4" class="edge">
<title>taphonomicsystemsdatasettypes:w&#45;&gt;taphonomicsystems:e</title>
<path fill="none" stroke="black" d="M282.93,-243.56C260.86,-225.19 288.58,-156 248.5,-156"/>
<polygon fill="black" stroke="black" points="289.37,-245.59 295.92,-251.43 293.19,-246.8 297,-248 297,-248 297,-248 293.19,-246.8 298.08,-244.57 289.37,-245.59 289.37,-245.59"/>
<ellipse fill="none" stroke="black" cx="286.32" cy="-244.63" rx="3.2" ry="3.2"/>
</g>
</g>
</svg>
