<?xml version="1.0" encoding="UTF-8" standalone="no"?>
<!DOCTYPE svg PUBLIC "-//W3C//DTD SVG 1.1//EN"
 "http://www.w3.org/Graphics/SVG/1.1/DTD/svg11.dtd">
<!-- Generated by graphviz version 2.43.0 (0)
 -->
<!-- Title: twoDegreesRelationshipsDiagram Pages: 1 -->
<svg width="795pt" height="976pt"
 viewBox="0.00 0.00 795.00 976.00" xmlns="http://www.w3.org/2000/svg" xmlns:xlink="http://www.w3.org/1999/xlink">
<g id="graph0" class="graph" transform="scale(1 1) rotate(0) translate(4 972)">
<title>twoDegreesRelationshipsDiagram</title>
<polygon fill="#ffffff" stroke="transparent" points="-4,4 -4,-972 791,-972 791,4 -4,4"/>
<text text-anchor="middle" x="71.5" y="-7.2" font-family="Helvetica,sans-Serif" font-size="11.00">Generated by SchemaSpy</text>
<!-- datasettaxonnotes -->
<g id="node1" class="node">
<title>datasettaxonnotes</title>
<g id="a_node1"><a xlink:href="../../tables/datasettaxonnotes.html" xlink:title="datasettaxonnotes" target="_top">
<polygon fill="#ffffff" stroke="transparent" points="434,-906 434,-964 575,-964 575,-906 434,-906"/>
<polygon fill="#f5f5f5" stroke="transparent" points="434.5,-942 434.5,-964 575.5,-964 575.5,-942 434.5,-942"/>
<polygon fill="none" stroke="black" points="434.5,-942 434.5,-964 575.5,-964 575.5,-942 434.5,-942"/>
<text text-anchor="start" x="439.5" y="-951.2" font-family="Helvetica,sans-Serif" font-weight="bold" font-size="11.00">datasettaxonnotes</text>
<text text-anchor="start" x="540.5" y="-950.2" font-family="Helvetica,sans-Serif" font-size="11.00">[table]</text>
<polygon fill="none" stroke="black" points="434.5,-924 434.5,-942 575.5,-942 575.5,-924 434.5,-924"/>
<text text-anchor="start" x="437.5" y="-930.2" font-family="Helvetica,sans-Serif" font-size="11.00">...</text>
<polygon fill="#ffffff" stroke="transparent" points="434.5,-906 434.5,-924 479.5,-924 479.5,-906 434.5,-906"/>
<polygon fill="none" stroke="black" points="434.5,-906 434.5,-924 479.5,-924 479.5,-906 434.5,-906"/>
<text text-anchor="start" x="437.5" y="-912.2" font-family="Helvetica,sans-Serif" font-size="11.00">&lt; 3</text>
<polygon fill="#ffffff" stroke="transparent" points="479.5,-906 479.5,-924 550.5,-924 550.5,-906 479.5,-906"/>
<polygon fill="none" stroke="black" points="479.5,-906 479.5,-924 550.5,-924 550.5,-906 479.5,-906"/>
<text text-anchor="start" x="493.5" y="-912.2" font-family="Helvetica,sans-Serif" font-size="11.00">1,668 rows</text>
<polygon fill="#ffffff" stroke="transparent" points="550.5,-906 550.5,-924 575.5,-924 575.5,-906 550.5,-906"/>
<polygon fill="none" stroke="black" points="550.5,-906 550.5,-924 575.5,-924 575.5,-906 550.5,-906"/>
<text text-anchor="start" x="565.5" y="-912.2" font-family="Helvetica,sans-Serif" font-size="11.00"> &#160;</text>
</a>
</g>
</g>
<!-- contacts -->
<g id="node2" class="node">
<title>contacts</title>
<g id="a_node2"><a xlink:href="../../tables/contacts.html" xlink:title="contacts" target="_top">
<polygon fill="#ffffff" stroke="transparent" points="13,-225 13,-283 129,-283 129,-225 13,-225"/>
<polygon fill="#f5f5f5" stroke="transparent" points="13,-261 13,-283 129,-283 129,-261 13,-261"/>
<polygon fill="none" stroke="black" points="13,-261 13,-283 129,-283 129,-261 13,-261"/>
<text text-anchor="start" x="18" y="-270.2" font-family="Helvetica,sans-Serif" font-weight="bold" font-size="11.00">contacts</text>
<text text-anchor="start" x="94" y="-269.2" font-family="Helvetica,sans-Serif" font-size="11.00">[table]</text>
<polygon fill="none" stroke="black" points="13,-243 13,-261 129,-261 129,-243 13,-243"/>
<text text-anchor="start" x="16" y="-249.2" font-family="Helvetica,sans-Serif" font-size="11.00">...</text>
<polygon fill="#ffffff" stroke="transparent" points="13,-225 13,-243 35,-243 35,-225 13,-225"/>
<polygon fill="none" stroke="black" points="13,-225 13,-243 35,-243 35,-225 13,-225"/>
<text text-anchor="start" x="16" y="-231.2" font-family="Helvetica,sans-Serif" font-size="11.00">&lt; 1</text>
<polygon fill="#ffffff" stroke="transparent" points="35,-225 35,-243 101,-243 101,-225 35,-225"/>
<polygon fill="none" stroke="black" points="35,-225 35,-243 101,-243 101,-225 35,-225"/>
<text text-anchor="start" x="38" y="-231.2" font-family="Helvetica,sans-Serif" font-size="11.00">13,247 rows</text>
<polygon fill="#ffffff" stroke="transparent" points="101,-225 101,-243 129,-243 129,-225 101,-225"/>
<polygon fill="none" stroke="black" points="101,-225 101,-243 129,-243 129,-225 101,-225"/>
<text text-anchor="start" x="104" y="-231.2" font-family="Helvetica,sans-Serif" font-size="11.00">17 &gt;</text>
</a>
</g>
</g>
<!-- datasettaxonnotes&#45;&gt;contacts -->
<g id="edge1" class="edge">
<title>datasettaxonnotes:w&#45;&gt;contacts:e</title>
<path fill="none" stroke="black" d="M418.81,-933.25C311.77,-936.79 249.81,-976.27 175,-894 126.89,-841.09 201.51,-252 130,-252"/>
<polygon fill="black" stroke="black" points="425.5,-933.13 433.56,-936.6 429.5,-933.07 433.5,-933 433.5,-933 433.5,-933 429.5,-933.07 433.44,-929.4 425.5,-933.13 425.5,-933.13"/>
<ellipse fill="none" stroke="black" cx="422.3" cy="-933.19" rx="3.2" ry="3.2"/>
</g>
<!-- taxa -->
<g id="node3" class="node">
<title>taxa</title>
<g id="a_node3"><a xlink:href="../../tables/taxa.html" xlink:title="taxa" target="_top">
<polygon fill="#ffffff" stroke="transparent" points="208,-223 208,-413 328,-413 328,-223 208,-223"/>
<polygon fill="#f5f5f5" stroke="transparent" points="208,-391 208,-413 328,-413 328,-391 208,-391"/>
<polygon fill="none" stroke="black" points="208,-391 208,-413 328,-413 328,-391 208,-391"/>
<text text-anchor="start" x="213" y="-400.2" font-family="Helvetica,sans-Serif" font-weight="bold" font-size="11.00">taxa</text>
<text text-anchor="start" x="293" y="-399.2" font-family="Helvetica,sans-Serif" font-size="11.00">[table]</text>
<polygon fill="none" stroke="black" points="208,-369 208,-391 328,-391 328,-369 208,-369"/>
<image xlink:href="../../images/primaryKeys.png" width="11px" height="12px" preserveAspectRatio="xMinYMin meet" x="213" y="-386"/>
<text text-anchor="start" x="228" y="-377.2" font-family="Helvetica,sans-Serif" font-size="11.00">taxonid</text>
<polygon fill="#ffffff" stroke="transparent" points="208,-347 208,-369 328,-369 328,-347 208,-347"/>
<polygon fill="none" stroke="black" points="208,-347 208,-369 328,-369 328,-347 208,-347"/>
<text text-anchor="start" x="228" y="-355.2" font-family="Helvetica,sans-Serif" font-size="11.00">taxonname</text>
<polygon fill="none" stroke="black" points="208,-325 208,-347 328,-347 328,-325 208,-325"/>
<image xlink:href="../../images/foreignKeys.png" width="11px" height="12px" preserveAspectRatio="xMinYMin meet" x="213" y="-342"/>
<text text-anchor="start" x="228" y="-333.2" font-family="Helvetica,sans-Serif" font-size="11.00">highertaxonid</text>
<polygon fill="#ffffff" stroke="transparent" points="208,-303 208,-325 328,-325 328,-303 208,-303"/>
<polygon fill="none" stroke="black" points="208,-303 208,-325 328,-325 328,-303 208,-303"/>
<image xlink:href="../../images/foreignKeys.png" width="11px" height="12px" preserveAspectRatio="xMinYMin meet" x="213" y="-320"/>
<text text-anchor="start" x="228" y="-311.2" font-family="Helvetica,sans-Serif" font-size="11.00">taxagroupid</text>
<polygon fill="none" stroke="black" points="208,-281 208,-303 328,-303 328,-281 208,-281"/>
<image xlink:href="../../images/foreignKeys.png" width="11px" height="12px" preserveAspectRatio="xMinYMin meet" x="213" y="-298"/>
<text text-anchor="start" x="228" y="-289.2" font-family="Helvetica,sans-Serif" font-size="11.00">publicationid</text>
<polygon fill="none" stroke="black" points="208,-259 208,-281 328,-281 328,-259 208,-259"/>
<image xlink:href="../../images/foreignKeys.png" width="11px" height="12px" preserveAspectRatio="xMinYMin meet" x="213" y="-276"/>
<text text-anchor="start" x="228" y="-267.2" font-family="Helvetica,sans-Serif" font-size="11.00">validatorid</text>
<polygon fill="none" stroke="black" points="208,-241 208,-259 328,-259 328,-241 208,-241"/>
<text text-anchor="start" x="211" y="-247.2" font-family="Helvetica,sans-Serif" font-size="11.00">...</text>
<polygon fill="#ffffff" stroke="transparent" points="208,-223 208,-241 232,-241 232,-223 208,-223"/>
<polygon fill="none" stroke="black" points="208,-223 208,-241 232,-241 232,-223 208,-223"/>
<text text-anchor="start" x="211" y="-229.2" font-family="Helvetica,sans-Serif" font-size="11.00">&lt; 4</text>
<polygon fill="#ffffff" stroke="transparent" points="232,-223 232,-241 299,-241 299,-223 232,-223"/>
<polygon fill="none" stroke="black" points="232,-223 232,-241 299,-241 299,-223 232,-223"/>
<text text-anchor="start" x="236" y="-229.2" font-family="Helvetica,sans-Serif" font-size="11.00">46,322 rows</text>
<polygon fill="#ffffff" stroke="transparent" points="299,-223 299,-241 328,-241 328,-223 299,-223"/>
<polygon fill="none" stroke="black" points="299,-223 299,-241 328,-241 328,-223 299,-223"/>
<text text-anchor="start" x="303" y="-229.2" font-family="Helvetica,sans-Serif" font-size="11.00">17 &gt;</text>
</a>
</g>
</g>
<!-- datasettaxonnotes&#45;&gt;taxa -->
<g id="edge2" class="edge">
<title>datasettaxonnotes:w&#45;&gt;taxa:e</title>
<path fill="none" stroke="black" d="M419.14,-930.16C320.19,-887.53 448.81,-380 329,-380"/>
<polygon fill="black" stroke="black" points="425.65,-931.45 432.8,-936.53 429.58,-932.22 433.5,-933 433.5,-933 433.5,-933 429.58,-932.22 434.2,-929.47 425.65,-931.45 425.65,-931.45"/>
<ellipse fill="none" stroke="black" cx="422.51" cy="-930.82" rx="3.2" ry="3.2"/>
</g>
<!-- taxa&#45;&gt;contacts -->
<g id="edge20" class="edge">
<title>taxa:w&#45;&gt;contacts:e</title>
<path fill="none" stroke="black" d="M192.39,-268.82C169.06,-264.81 159.65,-252 130,-252"/>
<polygon fill="black" stroke="black" points="199.03,-269.36 206.71,-273.59 203.01,-269.68 207,-270 207,-270 207,-270 203.01,-269.68 207.29,-266.41 199.03,-269.36 199.03,-269.36"/>
<ellipse fill="none" stroke="black" cx="195.84" cy="-269.1" rx="3.2" ry="3.2"/>
</g>
<!-- publications -->
<g id="node7" class="node">
<title>publications</title>
<g id="a_node7"><a xlink:href="../../tables/publications.html" xlink:title="publications" target="_top">
<polygon fill="#ffffff" stroke="transparent" points="13,-116 13,-174 129,-174 129,-116 13,-116"/>
<polygon fill="#f5f5f5" stroke="transparent" points="13,-152 13,-174 129,-174 129,-152 13,-152"/>
<polygon fill="none" stroke="black" points="13,-152 13,-174 129,-174 129,-152 13,-152"/>
<text text-anchor="start" x="18" y="-161.2" font-family="Helvetica,sans-Serif" font-weight="bold" font-size="11.00">publications</text>
<text text-anchor="start" x="94" y="-160.2" font-family="Helvetica,sans-Serif" font-size="11.00">[table]</text>
<polygon fill="none" stroke="black" points="13,-134 13,-152 129,-152 129,-134 13,-134"/>
<text text-anchor="start" x="16" y="-140.2" font-family="Helvetica,sans-Serif" font-size="11.00">...</text>
<polygon fill="#ffffff" stroke="transparent" points="13,-116 13,-134 35,-134 35,-116 13,-116"/>
<polygon fill="none" stroke="black" points="13,-116 13,-134 35,-134 35,-116 13,-116"/>
<text text-anchor="start" x="16" y="-122.2" font-family="Helvetica,sans-Serif" font-size="11.00">&lt; 1</text>
<polygon fill="#ffffff" stroke="transparent" points="35,-116 35,-134 101,-134 101,-116 35,-116"/>
<polygon fill="none" stroke="black" points="35,-116 35,-134 101,-134 101,-116 35,-116"/>
<text text-anchor="start" x="38" y="-122.2" font-family="Helvetica,sans-Serif" font-size="11.00">13,466 rows</text>
<polygon fill="#ffffff" stroke="transparent" points="101,-116 101,-134 129,-134 129,-116 101,-116"/>
<polygon fill="none" stroke="black" points="101,-116 101,-134 129,-134 129,-116 101,-116"/>
<text text-anchor="start" x="104" y="-122.2" font-family="Helvetica,sans-Serif" font-size="11.00">12 &gt;</text>
</a>
</g>
</g>
<!-- taxa&#45;&gt;publications -->
<g id="edge18" class="edge">
<title>taxa:w&#45;&gt;publications:e</title>
<path fill="none" stroke="black" d="M192.71,-289.66C142.35,-270.7 199.01,-143 130,-143"/>
<polygon fill="black" stroke="black" points="199.11,-290.71 206.42,-295.55 203.05,-291.35 207,-292 207,-292 207,-292 203.05,-291.35 207.58,-288.45 199.11,-290.71 199.11,-290.71"/>
<ellipse fill="none" stroke="black" cx="195.95" cy="-290.19" rx="3.2" ry="3.2"/>
</g>
<!-- taxagrouptypes -->
<g id="node13" class="node">
<title>taxagrouptypes</title>
<g id="a_node13"><a xlink:href="../../tables/taxagrouptypes.html" xlink:title="taxagrouptypes" target="_top">
<polygon fill="#ffffff" stroke="transparent" points="8,-304 8,-362 134,-362 134,-304 8,-304"/>
<polygon fill="#f5f5f5" stroke="transparent" points="8,-340 8,-362 134,-362 134,-340 8,-340"/>
<polygon fill="none" stroke="black" points="8,-340 8,-362 134,-362 134,-340 8,-340"/>
<text text-anchor="start" x="13" y="-349.2" font-family="Helvetica,sans-Serif" font-weight="bold" font-size="11.00">taxagrouptypes</text>
<text text-anchor="start" x="99" y="-348.2" font-family="Helvetica,sans-Serif" font-size="11.00">[table]</text>
<polygon fill="none" stroke="black" points="8,-322 8,-340 134,-340 134,-322 8,-322"/>
<text text-anchor="start" x="11" y="-328.2" font-family="Helvetica,sans-Serif" font-size="11.00">...</text>
<polygon fill="#ffffff" stroke="transparent" points="8,-304 8,-322 44,-322 44,-304 8,-304"/>
<polygon fill="none" stroke="black" points="8,-304 8,-322 44,-322 44,-304 8,-304"/>
<text text-anchor="start" x="11" y="-310.2" font-family="Helvetica,sans-Serif" font-size="11.00"> &#160;</text>
<polygon fill="#ffffff" stroke="transparent" points="44,-304 44,-322 100,-322 100,-304 44,-304"/>
<polygon fill="none" stroke="black" points="44,-304 44,-322 100,-322 100,-304 44,-304"/>
<text text-anchor="start" x="58" y="-310.2" font-family="Helvetica,sans-Serif" font-size="11.00">55 rows</text>
<polygon fill="#ffffff" stroke="transparent" points="100,-304 100,-322 134,-322 134,-304 100,-304"/>
<polygon fill="none" stroke="black" points="100,-304 100,-322 134,-322 134,-304 100,-304"/>
<text text-anchor="start" x="115" y="-310.2" font-family="Helvetica,sans-Serif" font-size="11.00">4 &gt;</text>
</a>
</g>
</g>
<!-- taxa&#45;&gt;taxagrouptypes -->
<g id="edge19" class="edge">
<title>taxa:w&#45;&gt;taxagrouptypes:e</title>
<path fill="none" stroke="black" d="M192.43,-315.28C171.27,-319.23 162.36,-331 135,-331"/>
<polygon fill="black" stroke="black" points="199.03,-314.7 207.31,-317.59 203.02,-314.35 207,-314 207,-314 207,-314 203.02,-314.35 206.69,-310.41 199.03,-314.7 199.03,-314.7"/>
<ellipse fill="none" stroke="black" cx="195.84" cy="-314.98" rx="3.2" ry="3.2"/>
</g>
<!-- ecolgroups -->
<g id="node4" class="node">
<title>ecolgroups</title>
<g id="a_node4"><a xlink:href="../../tables/ecolgroups.html" xlink:title="ecolgroups" target="_top">
<polygon fill="#ffffff" stroke="transparent" points="452.5,-696 452.5,-754 556.5,-754 556.5,-696 452.5,-696"/>
<polygon fill="#f5f5f5" stroke="transparent" points="452.5,-732 452.5,-754 556.5,-754 556.5,-732 452.5,-732"/>
<polygon fill="none" stroke="black" points="452.5,-732 452.5,-754 556.5,-754 556.5,-732 452.5,-732"/>
<text text-anchor="start" x="457.5" y="-741.2" font-family="Helvetica,sans-Serif" font-weight="bold" font-size="11.00">ecolgroups</text>
<text text-anchor="start" x="521.5" y="-740.2" font-family="Helvetica,sans-Serif" font-size="11.00">[table]</text>
<polygon fill="none" stroke="black" points="452.5,-714 452.5,-732 556.5,-732 556.5,-714 452.5,-714"/>
<text text-anchor="start" x="455.5" y="-720.2" font-family="Helvetica,sans-Serif" font-size="11.00">...</text>
<polygon fill="#ffffff" stroke="transparent" points="452.5,-696 452.5,-714 475.5,-714 475.5,-696 452.5,-696"/>
<polygon fill="none" stroke="black" points="452.5,-696 452.5,-714 475.5,-714 475.5,-696 452.5,-696"/>
<text text-anchor="start" x="455.5" y="-702.2" font-family="Helvetica,sans-Serif" font-size="11.00">&lt; 3</text>
<polygon fill="#ffffff" stroke="transparent" points="475.5,-696 475.5,-714 542.5,-714 542.5,-696 475.5,-696"/>
<polygon fill="none" stroke="black" points="475.5,-696 475.5,-714 542.5,-714 542.5,-696 475.5,-696"/>
<text text-anchor="start" x="479.5" y="-702.2" font-family="Helvetica,sans-Serif" font-size="11.00">43,776 rows</text>
<polygon fill="#ffffff" stroke="transparent" points="542.5,-696 542.5,-714 556.5,-714 556.5,-696 542.5,-696"/>
<polygon fill="none" stroke="black" points="542.5,-696 542.5,-714 556.5,-714 556.5,-696 542.5,-696"/>
<text text-anchor="start" x="546.5" y="-702.2" font-family="Helvetica,sans-Serif" font-size="11.00"> &#160;</text>
</a>
</g>
</g>
<!-- ecolgroups&#45;&gt;taxa -->
<g id="edge3" class="edge">
<title>ecolgroups:w&#45;&gt;taxa:e</title>
<path fill="none" stroke="black" d="M436.95,-721.83C417.33,-718.27 408.16,-706.52 394,-686 315.02,-571.58 468.03,-380 329,-380"/>
<polygon fill="black" stroke="black" points="443.53,-722.36 451.21,-726.59 447.51,-722.68 451.5,-723 451.5,-723 451.5,-723 447.51,-722.68 451.79,-719.41 443.53,-722.36 443.53,-722.36"/>
<ellipse fill="none" stroke="black" cx="440.34" cy="-722.1" rx="3.2" ry="3.2"/>
</g>
<!-- externaltaxa -->
<g id="node5" class="node">
<title>externaltaxa</title>
<g id="a_node5"><a xlink:href="../../tables/externaltaxa.html" xlink:title="externaltaxa" target="_top">
<polygon fill="#ffffff" stroke="transparent" points="450.5,-617 450.5,-675 558.5,-675 558.5,-617 450.5,-617"/>
<polygon fill="#f5f5f5" stroke="transparent" points="450.5,-653 450.5,-675 558.5,-675 558.5,-653 450.5,-653"/>
<polygon fill="none" stroke="black" points="450.5,-653 450.5,-675 558.5,-675 558.5,-653 450.5,-653"/>
<text text-anchor="start" x="455.5" y="-662.2" font-family="Helvetica,sans-Serif" font-weight="bold" font-size="11.00">externaltaxa</text>
<text text-anchor="start" x="523.5" y="-661.2" font-family="Helvetica,sans-Serif" font-size="11.00">[table]</text>
<polygon fill="none" stroke="black" points="450.5,-635 450.5,-653 558.5,-653 558.5,-635 450.5,-635"/>
<text text-anchor="start" x="453.5" y="-641.2" font-family="Helvetica,sans-Serif" font-size="11.00">...</text>
<polygon fill="#ffffff" stroke="transparent" points="450.5,-617 450.5,-635 475.5,-635 475.5,-617 450.5,-617"/>
<polygon fill="none" stroke="black" points="450.5,-617 450.5,-635 475.5,-635 475.5,-617 450.5,-617"/>
<text text-anchor="start" x="453.5" y="-623.2" font-family="Helvetica,sans-Serif" font-size="11.00">&lt; 2</text>
<polygon fill="#ffffff" stroke="transparent" points="475.5,-617 475.5,-635 543.5,-635 543.5,-617 475.5,-617"/>
<polygon fill="none" stroke="black" points="475.5,-617 475.5,-635 543.5,-635 543.5,-617 475.5,-617"/>
<text text-anchor="start" x="480.5" y="-623.2" font-family="Helvetica,sans-Serif" font-size="11.00">46,858 rows</text>
<polygon fill="#ffffff" stroke="transparent" points="543.5,-617 543.5,-635 558.5,-635 558.5,-617 543.5,-617"/>
<polygon fill="none" stroke="black" points="543.5,-617 543.5,-635 558.5,-635 558.5,-617 543.5,-617"/>
<text text-anchor="start" x="548.5" y="-623.2" font-family="Helvetica,sans-Serif" font-size="11.00"> &#160;</text>
</a>
</g>
</g>
<!-- externaltaxa&#45;&gt;taxa -->
<g id="edge4" class="edge">
<title>externaltaxa:w&#45;&gt;taxa:e</title>
<path fill="none" stroke="black" d="M435.14,-642.69C416.47,-638.84 408.28,-626.54 394,-607 332.1,-522.25 433.94,-380 329,-380"/>
<polygon fill="black" stroke="black" points="441.53,-643.27 449.17,-647.59 445.52,-643.64 449.5,-644 449.5,-644 449.5,-644 445.52,-643.64 449.83,-640.41 441.53,-643.27 441.53,-643.27"/>
<ellipse fill="none" stroke="black" cx="438.35" cy="-642.98" rx="3.2" ry="3.2"/>
</g>
<!-- formtaxa -->
<g id="node6" class="node">
<title>formtaxa</title>
<g id="a_node6"><a xlink:href="../../tables/formtaxa.html" xlink:title="formtaxa" target="_top">
<polygon fill="#ffffff" stroke="transparent" points="459,-116 459,-174 550,-174 550,-116 459,-116"/>
<polygon fill="#f5f5f5" stroke="transparent" points="459.5,-152 459.5,-174 550.5,-174 550.5,-152 459.5,-152"/>
<polygon fill="none" stroke="black" points="459.5,-152 459.5,-174 550.5,-174 550.5,-152 459.5,-152"/>
<text text-anchor="start" x="464.5" y="-161.2" font-family="Helvetica,sans-Serif" font-weight="bold" font-size="11.00">formtaxa</text>
<text text-anchor="start" x="515.5" y="-160.2" font-family="Helvetica,sans-Serif" font-size="11.00">[table]</text>
<polygon fill="none" stroke="black" points="459.5,-134 459.5,-152 550.5,-152 550.5,-134 459.5,-134"/>
<text text-anchor="start" x="462.5" y="-140.2" font-family="Helvetica,sans-Serif" font-size="11.00">...</text>
<polygon fill="#ffffff" stroke="transparent" points="459.5,-116 459.5,-134 489.5,-134 489.5,-116 459.5,-116"/>
<polygon fill="none" stroke="black" points="459.5,-116 459.5,-134 489.5,-134 489.5,-116 459.5,-116"/>
<text text-anchor="start" x="462.5" y="-122.2" font-family="Helvetica,sans-Serif" font-size="11.00">&lt; 3</text>
<polygon fill="#ffffff" stroke="transparent" points="489.5,-116 489.5,-134 532.5,-134 532.5,-116 489.5,-116"/>
<polygon fill="none" stroke="black" points="489.5,-116 489.5,-134 532.5,-134 532.5,-116 489.5,-116"/>
<text text-anchor="start" x="496.5" y="-122.2" font-family="Helvetica,sans-Serif" font-size="11.00">3 rows</text>
<polygon fill="#ffffff" stroke="transparent" points="532.5,-116 532.5,-134 550.5,-134 550.5,-116 532.5,-116"/>
<polygon fill="none" stroke="black" points="532.5,-116 532.5,-134 550.5,-134 550.5,-116 532.5,-116"/>
<text text-anchor="start" x="540.5" y="-122.2" font-family="Helvetica,sans-Serif" font-size="11.00"> &#160;</text>
</a>
</g>
</g>
<!-- formtaxa&#45;&gt;taxa -->
<g id="edge5" class="edge">
<title>formtaxa:w&#45;&gt;taxa:e</title>
<path fill="none" stroke="black" d="M443.91,-141.64C421.16,-141.88 411.54,-155.51 394,-178 337.56,-250.37 420.78,-374 329,-380"/>
<polygon fill="black" stroke="black" points="450.53,-142.26 458.17,-146.58 454.52,-142.63 458.5,-143 458.5,-143 458.5,-143 454.52,-142.63 458.83,-139.42 450.53,-142.26 450.53,-142.26"/>
<ellipse fill="none" stroke="black" cx="447.35" cy="-141.96" rx="3.2" ry="3.2"/>
</g>
<!-- formtaxa&#45;&gt;taxa -->
<g id="edge7" class="edge">
<title>formtaxa:w&#45;&gt;taxa:e</title>
<path fill="none" stroke="black" d="M444.54,-146.72C421.33,-154.62 411.71,-168.3 394,-191 337.56,-263.37 420.78,-387 329,-380"/>
<polygon fill="black" stroke="black" points="450.77,-145.06 459.43,-146.48 454.63,-144.03 458.5,-143 458.5,-143 458.5,-143 454.63,-144.03 457.57,-139.52 450.77,-145.06 450.77,-145.06"/>
<ellipse fill="none" stroke="black" cx="447.68" cy="-145.89" rx="3.2" ry="3.2"/>
</g>
<!-- formtaxa&#45;&gt;publications -->
<g id="edge6" class="edge">
<title>formtaxa:w&#45;&gt;publications:e</title>
<path fill="none" stroke="black" d="M443.9,-143C309.88,-143 271.01,-143 130,-143"/>
<polygon fill="black" stroke="black" points="450.5,-143 458.5,-146.6 454.5,-143 458.5,-143 458.5,-143 458.5,-143 454.5,-143 458.5,-139.4 450.5,-143 450.5,-143"/>
<ellipse fill="none" stroke="black" cx="447.3" cy="-143" rx="3.2" ry="3.2"/>
</g>
<!-- isostratdata -->
<g id="node8" class="node">
<title>isostratdata</title>
<g id="a_node8"><a xlink:href="../../tables/isostratdata.html" xlink:title="isostratdata" target="_top">
<polygon fill="#ffffff" stroke="transparent" points="451,-538 451,-596 558,-596 558,-538 451,-538"/>
<polygon fill="#f5f5f5" stroke="transparent" points="451.5,-574 451.5,-596 558.5,-596 558.5,-574 451.5,-574"/>
<polygon fill="none" stroke="black" points="451.5,-574 451.5,-596 558.5,-596 558.5,-574 451.5,-574"/>
<text text-anchor="start" x="456.5" y="-583.2" font-family="Helvetica,sans-Serif" font-weight="bold" font-size="11.00">isostratdata</text>
<text text-anchor="start" x="523.5" y="-582.2" font-family="Helvetica,sans-Serif" font-size="11.00">[table]</text>
<polygon fill="none" stroke="black" points="451.5,-556 451.5,-574 558.5,-574 558.5,-556 451.5,-556"/>
<text text-anchor="start" x="454.5" y="-562.2" font-family="Helvetica,sans-Serif" font-size="11.00">...</text>
<polygon fill="#ffffff" stroke="transparent" points="451.5,-538 451.5,-556 483.5,-556 483.5,-538 451.5,-538"/>
<polygon fill="none" stroke="black" points="451.5,-538 451.5,-556 483.5,-556 483.5,-538 451.5,-538"/>
<text text-anchor="start" x="454.5" y="-544.2" font-family="Helvetica,sans-Serif" font-size="11.00">&lt; 3</text>
<polygon fill="#ffffff" stroke="transparent" points="483.5,-538 483.5,-556 539.5,-556 539.5,-538 483.5,-538"/>
<polygon fill="none" stroke="black" points="483.5,-538 483.5,-556 539.5,-556 539.5,-538 483.5,-538"/>
<text text-anchor="start" x="491.5" y="-544.2" font-family="Helvetica,sans-Serif" font-size="11.00">634 rows</text>
<polygon fill="#ffffff" stroke="transparent" points="539.5,-538 539.5,-556 558.5,-556 558.5,-538 539.5,-538"/>
<polygon fill="none" stroke="black" points="539.5,-538 539.5,-556 558.5,-556 558.5,-538 539.5,-538"/>
<text text-anchor="start" x="548.5" y="-544.2" font-family="Helvetica,sans-Serif" font-size="11.00"> &#160;</text>
</a>
</g>
</g>
<!-- isostratdata&#45;&gt;taxa -->
<g id="edge8" class="edge">
<title>isostratdata:w&#45;&gt;taxa:e</title>
<path fill="none" stroke="black" d="M436.07,-563.61C417.47,-559.53 409.83,-546.7 394,-528 347.59,-473.16 400.84,-380 329,-380"/>
<polygon fill="black" stroke="black" points="442.54,-564.23 450.15,-568.58 446.52,-564.62 450.5,-565 450.5,-565 450.5,-565 446.52,-564.62 450.85,-561.42 442.54,-564.23 442.54,-564.23"/>
<ellipse fill="none" stroke="black" cx="439.35" cy="-563.92" rx="3.2" ry="3.2"/>
</g>
<!-- samples -->
<g id="node9" class="node">
<title>samples</title>
<g id="a_node9"><a xlink:href="../../tables/samples.html" xlink:title="samples" target="_top">
<polygon fill="#ffffff" stroke="transparent" points="446.5,-459 446.5,-517 562.5,-517 562.5,-459 446.5,-459"/>
<polygon fill="#f5f5f5" stroke="transparent" points="446.5,-495 446.5,-517 562.5,-517 562.5,-495 446.5,-495"/>
<polygon fill="none" stroke="black" points="446.5,-495 446.5,-517 562.5,-517 562.5,-495 446.5,-495"/>
<text text-anchor="start" x="451.5" y="-504.2" font-family="Helvetica,sans-Serif" font-weight="bold" font-size="11.00">samples</text>
<text text-anchor="start" x="527.5" y="-503.2" font-family="Helvetica,sans-Serif" font-size="11.00">[table]</text>
<polygon fill="none" stroke="black" points="446.5,-477 446.5,-495 562.5,-495 562.5,-477 446.5,-477"/>
<text text-anchor="start" x="449.5" y="-483.2" font-family="Helvetica,sans-Serif" font-size="11.00">...</text>
<polygon fill="#ffffff" stroke="transparent" points="446.5,-459 446.5,-477 468.5,-477 468.5,-459 446.5,-459"/>
<polygon fill="none" stroke="black" points="446.5,-459 446.5,-477 468.5,-477 468.5,-459 446.5,-459"/>
<text text-anchor="start" x="449.5" y="-465.2" font-family="Helvetica,sans-Serif" font-size="11.00">&lt; 3</text>
<polygon fill="#ffffff" stroke="transparent" points="468.5,-459 468.5,-477 540.5,-477 540.5,-459 468.5,-459"/>
<polygon fill="none" stroke="black" points="468.5,-459 468.5,-477 540.5,-477 540.5,-459 468.5,-459"/>
<text text-anchor="start" x="471.5" y="-465.2" font-family="Helvetica,sans-Serif" font-size="11.00">506,105 rows</text>
<polygon fill="#ffffff" stroke="transparent" points="540.5,-459 540.5,-477 562.5,-477 562.5,-459 540.5,-459"/>
<polygon fill="none" stroke="black" points="540.5,-459 540.5,-477 562.5,-477 562.5,-459 540.5,-459"/>
<text text-anchor="start" x="543.5" y="-465.2" font-family="Helvetica,sans-Serif" font-size="11.00">7 &gt;</text>
</a>
</g>
</g>
<!-- samples&#45;&gt;taxa -->
<g id="edge9" class="edge">
<title>samples:w&#45;&gt;taxa:e</title>
<path fill="none" stroke="black" d="M431.05,-484.25C378.54,-470.47 393.67,-380 329,-380"/>
<polygon fill="black" stroke="black" points="437.56,-485.04 445.07,-489.57 441.53,-485.52 445.5,-486 445.5,-486 445.5,-486 441.53,-485.52 445.93,-482.43 437.56,-485.04 437.56,-485.04"/>
<ellipse fill="none" stroke="black" cx="434.38" cy="-484.65" rx="3.2" ry="3.2"/>
</g>
<!-- specimendates -->
<g id="node10" class="node">
<title>specimendates</title>
<g id="a_node10"><a xlink:href="../../tables/specimendates.html" xlink:title="specimendates" target="_top">
<polygon fill="#ffffff" stroke="transparent" points="656,-433 656,-491 779,-491 779,-433 656,-433"/>
<polygon fill="#f5f5f5" stroke="transparent" points="656.5,-469 656.5,-491 779.5,-491 779.5,-469 656.5,-469"/>
<polygon fill="none" stroke="black" points="656.5,-469 656.5,-491 779.5,-491 779.5,-469 656.5,-469"/>
<text text-anchor="start" x="661.5" y="-478.2" font-family="Helvetica,sans-Serif" font-weight="bold" font-size="11.00">specimendates</text>
<text text-anchor="start" x="744.5" y="-477.2" font-family="Helvetica,sans-Serif" font-size="11.00">[table]</text>
<polygon fill="none" stroke="black" points="656.5,-451 656.5,-469 779.5,-469 779.5,-451 656.5,-451"/>
<text text-anchor="start" x="659.5" y="-457.2" font-family="Helvetica,sans-Serif" font-size="11.00">...</text>
<polygon fill="#ffffff" stroke="transparent" points="656.5,-433 656.5,-451 687.5,-451 687.5,-433 656.5,-433"/>
<polygon fill="none" stroke="black" points="656.5,-433 656.5,-451 687.5,-451 687.5,-433 656.5,-433"/>
<text text-anchor="start" x="659.5" y="-439.2" font-family="Helvetica,sans-Serif" font-size="11.00">&lt; 6</text>
<polygon fill="#ffffff" stroke="transparent" points="687.5,-433 687.5,-451 752.5,-451 752.5,-433 687.5,-433"/>
<polygon fill="none" stroke="black" points="687.5,-433 687.5,-451 752.5,-451 752.5,-433 687.5,-433"/>
<text text-anchor="start" x="695.5" y="-439.2" font-family="Helvetica,sans-Serif" font-size="11.00">2,662 rows</text>
<polygon fill="#ffffff" stroke="transparent" points="752.5,-433 752.5,-451 779.5,-451 779.5,-433 752.5,-433"/>
<polygon fill="none" stroke="black" points="752.5,-433 752.5,-451 779.5,-451 779.5,-433 752.5,-433"/>
<text text-anchor="start" x="760.5" y="-439.2" font-family="Helvetica,sans-Serif" font-size="11.00">1 &gt;</text>
</a>
</g>
</g>
<!-- specimendates&#45;&gt;taxa -->
<g id="edge11" class="edge">
<title>specimendates:w&#45;&gt;taxa:e</title>
<path fill="none" stroke="black" d="M640.96,-458.01C632.93,-455.56 627.29,-451.44 615,-449 517.88,-429.76 487.19,-454.43 394,-421 361.85,-409.47 363.16,-380 329,-380"/>
<polygon fill="black" stroke="black" points="647.57,-458.92 655.01,-463.57 651.54,-459.46 655.5,-460 655.5,-460 655.5,-460 651.54,-459.46 655.99,-456.43 647.57,-458.92 647.57,-458.92"/>
<ellipse fill="none" stroke="black" cx="644.4" cy="-458.48" rx="3.2" ry="3.2"/>
</g>
<!-- specimendates&#45;&gt;samples -->
<g id="edge10" class="edge">
<title>specimendates:w&#45;&gt;samples:e</title>
<path fill="none" stroke="black" d="M641.09,-461.12C610.7,-466.09 600.68,-486 563.5,-486"/>
<polygon fill="black" stroke="black" points="647.52,-460.62 655.78,-463.59 651.51,-460.31 655.5,-460 655.5,-460 655.5,-460 651.51,-460.31 655.22,-456.41 647.52,-460.62 647.52,-460.62"/>
<ellipse fill="none" stroke="black" cx="644.33" cy="-460.87" rx="3.2" ry="3.2"/>
</g>
<!-- synonyms -->
<g id="node11" class="node">
<title>synonyms</title>
<g id="a_node11"><a xlink:href="../../tables/synonyms.html" xlink:title="synonyms" target="_top">
<polygon fill="#ffffff" stroke="transparent" points="455,-353 455,-411 554,-411 554,-353 455,-353"/>
<polygon fill="#f5f5f5" stroke="transparent" points="455.5,-389 455.5,-411 554.5,-411 554.5,-389 455.5,-389"/>
<polygon fill="none" stroke="black" points="455.5,-389 455.5,-411 554.5,-411 554.5,-389 455.5,-389"/>
<text text-anchor="start" x="460.5" y="-398.2" font-family="Helvetica,sans-Serif" font-weight="bold" font-size="11.00">synonyms</text>
<text text-anchor="start" x="519.5" y="-397.2" font-family="Helvetica,sans-Serif" font-size="11.00">[table]</text>
<polygon fill="none" stroke="black" points="455.5,-371 455.5,-389 554.5,-389 554.5,-371 455.5,-371"/>
<text text-anchor="start" x="458.5" y="-377.2" font-family="Helvetica,sans-Serif" font-size="11.00">...</text>
<polygon fill="#ffffff" stroke="transparent" points="455.5,-353 455.5,-371 479.5,-371 479.5,-353 455.5,-353"/>
<polygon fill="none" stroke="black" points="455.5,-353 455.5,-371 479.5,-371 479.5,-353 455.5,-353"/>
<text text-anchor="start" x="458.5" y="-359.2" font-family="Helvetica,sans-Serif" font-size="11.00">&lt; 3</text>
<polygon fill="#ffffff" stroke="transparent" points="479.5,-353 479.5,-371 540.5,-371 540.5,-353 479.5,-353"/>
<polygon fill="none" stroke="black" points="479.5,-353 479.5,-371 540.5,-371 540.5,-353 479.5,-353"/>
<text text-anchor="start" x="483.5" y="-359.2" font-family="Helvetica,sans-Serif" font-size="11.00">2,821 rows</text>
<polygon fill="#ffffff" stroke="transparent" points="540.5,-353 540.5,-371 554.5,-371 554.5,-353 540.5,-353"/>
<polygon fill="none" stroke="black" points="540.5,-353 540.5,-371 554.5,-371 554.5,-353 540.5,-353"/>
<text text-anchor="start" x="544.5" y="-359.2" font-family="Helvetica,sans-Serif" font-size="11.00"> &#160;</text>
</a>
</g>
</g>
<!-- synonyms&#45;&gt;taxa -->
<g id="edge12" class="edge">
<title>synonyms:w&#45;&gt;taxa:e</title>
<path fill="none" stroke="black" d="M440.13,-378.5C395.81,-374.05 379.66,-374.55 329,-380"/>
<polygon fill="black" stroke="black" points="446.54,-379.17 454.13,-383.58 450.52,-379.58 454.5,-380 454.5,-380 454.5,-380 450.52,-379.58 454.87,-376.42 446.54,-379.17 446.54,-379.17"/>
<ellipse fill="none" stroke="black" cx="443.36" cy="-378.84" rx="3.2" ry="3.2"/>
</g>
<!-- synonyms&#45;&gt;taxa -->
<g id="edge13" class="edge">
<title>synonyms:w&#45;&gt;taxa:e</title>
<path fill="none" stroke="black" d="M440.13,-381.75C395.81,-386.94 379.66,-386.36 329,-380"/>
<polygon fill="black" stroke="black" points="446.56,-380.97 454.94,-383.57 450.53,-380.48 454.5,-380 454.5,-380 454.5,-380 450.53,-380.48 454.06,-376.43 446.56,-380.97 446.56,-380.97"/>
<ellipse fill="none" stroke="black" cx="443.38" cy="-381.35" rx="3.2" ry="3.2"/>
</g>
<!-- synonymy -->
<g id="node12" class="node">
<title>synonymy</title>
<g id="a_node12"><a xlink:href="../../tables/synonymy.html" xlink:title="synonymy" target="_top">
<polygon fill="#ffffff" stroke="transparent" points="454,-37 454,-95 555,-95 555,-37 454,-37"/>
<polygon fill="#f5f5f5" stroke="transparent" points="454.5,-73 454.5,-95 555.5,-95 555.5,-73 454.5,-73"/>
<polygon fill="none" stroke="black" points="454.5,-73 454.5,-95 555.5,-95 555.5,-73 454.5,-73"/>
<text text-anchor="start" x="459.5" y="-82.2" font-family="Helvetica,sans-Serif" font-weight="bold" font-size="11.00">synonymy</text>
<text text-anchor="start" x="520.5" y="-81.2" font-family="Helvetica,sans-Serif" font-size="11.00">[table]</text>
<polygon fill="none" stroke="black" points="454.5,-55 454.5,-73 555.5,-73 555.5,-55 454.5,-55"/>
<text text-anchor="start" x="457.5" y="-61.2" font-family="Helvetica,sans-Serif" font-size="11.00">...</text>
<polygon fill="#ffffff" stroke="transparent" points="454.5,-37 454.5,-55 476.5,-55 476.5,-37 454.5,-37"/>
<polygon fill="none" stroke="black" points="454.5,-37 454.5,-55 476.5,-55 476.5,-37 454.5,-37"/>
<text text-anchor="start" x="457.5" y="-43.2" font-family="Helvetica,sans-Serif" font-size="11.00">&lt; 5</text>
<polygon fill="#ffffff" stroke="transparent" points="476.5,-37 476.5,-55 542.5,-55 542.5,-37 476.5,-37"/>
<polygon fill="none" stroke="black" points="476.5,-37 476.5,-55 542.5,-55 542.5,-37 476.5,-37"/>
<text text-anchor="start" x="479.5" y="-43.2" font-family="Helvetica,sans-Serif" font-size="11.00">37,992 rows</text>
<polygon fill="#ffffff" stroke="transparent" points="542.5,-37 542.5,-55 555.5,-55 555.5,-37 542.5,-37"/>
<polygon fill="none" stroke="black" points="542.5,-37 542.5,-55 555.5,-55 555.5,-37 542.5,-37"/>
<text text-anchor="start" x="545.5" y="-43.2" font-family="Helvetica,sans-Serif" font-size="11.00"> &#160;</text>
</a>
</g>
</g>
<!-- synonymy&#45;&gt;contacts -->
<g id="edge14" class="edge">
<title>synonymy:w&#45;&gt;contacts:e</title>
<path fill="none" stroke="black" d="M438.99,-65.3C364.35,-77.64 228.83,-174.57 175,-212 153.03,-227.28 156.76,-252 130,-252"/>
<polygon fill="black" stroke="black" points="445.53,-64.71 453.82,-67.59 449.52,-64.36 453.5,-64 453.5,-64 453.5,-64 449.52,-64.36 453.18,-60.41 445.53,-64.71 445.53,-64.71"/>
<ellipse fill="none" stroke="black" cx="442.34" cy="-65" rx="3.2" ry="3.2"/>
</g>
<!-- synonymy&#45;&gt;taxa -->
<g id="edge16" class="edge">
<title>synonymy:w&#45;&gt;taxa:e</title>
<path fill="none" stroke="black" d="M439.1,-62.67C418.02,-63.21 409.08,-76.94 394,-99 323.11,-202.67 454.59,-374 329,-380"/>
<polygon fill="black" stroke="black" points="445.53,-63.26 453.17,-67.58 449.52,-63.63 453.5,-64 453.5,-64 453.5,-64 449.52,-63.63 453.83,-60.42 445.53,-63.26 445.53,-63.26"/>
<ellipse fill="none" stroke="black" cx="442.35" cy="-62.97" rx="3.2" ry="3.2"/>
</g>
<!-- synonymy&#45;&gt;taxa -->
<g id="edge17" class="edge">
<title>synonymy:w&#45;&gt;taxa:e</title>
<path fill="none" stroke="black" d="M439.4,-68.07C418.11,-76.08 409.15,-89.84 394,-112 323.11,-215.67 454.59,-387 329,-380"/>
<polygon fill="black" stroke="black" points="445.81,-66.22 454.5,-67.46 449.66,-65.11 453.5,-64 453.5,-64 453.5,-64 449.66,-65.11 452.5,-60.54 445.81,-66.22 445.81,-66.22"/>
<ellipse fill="none" stroke="black" cx="442.74" cy="-67.11" rx="3.2" ry="3.2"/>
</g>
<!-- synonymy&#45;&gt;publications -->
<g id="edge15" class="edge">
<title>synonymy:w&#45;&gt;publications:e</title>
<path fill="none" stroke="black" d="M438.93,-63.88C325.46,-62.04 281.68,-40.13 175,-94 148.61,-107.33 159.57,-143 130,-143"/>
<polygon fill="black" stroke="black" points="445.5,-63.93 453.47,-67.6 449.5,-63.97 453.5,-64 453.5,-64 453.5,-64 449.5,-63.97 453.53,-60.4 445.5,-63.93 445.5,-63.93"/>
<ellipse fill="none" stroke="black" cx="442.3" cy="-63.91" rx="3.2" ry="3.2"/>
</g>
<!-- taxaalthierarchy -->
<g id="node14" class="node">
<title>taxaalthierarchy</title>
<g id="a_node14"><a xlink:href="../../tables/taxaalthierarchy.html" xlink:title="taxaalthierarchy" target="_top">
<polygon fill="#ffffff" stroke="transparent" points="402,-775 402,-885 607,-885 607,-775 402,-775"/>
<polygon fill="#f5f5f5" stroke="transparent" points="404.5,-861 404.5,-883 605.5,-883 605.5,-861 404.5,-861"/>
<polygon fill="none" stroke="black" points="404.5,-861 404.5,-883 605.5,-883 605.5,-861 404.5,-861"/>
<text text-anchor="start" x="409.5" y="-870.2" font-family="Helvetica,sans-Serif" font-weight="bold" font-size="11.00">taxaalthierarchy</text>
<text text-anchor="start" x="570.5" y="-869.2" font-family="Helvetica,sans-Serif" font-size="11.00">[table]</text>
<polygon fill="none" stroke="black" points="404.5,-839 404.5,-861 563.5,-861 563.5,-839 404.5,-839"/>
<image xlink:href="../../images/primaryKeys.png" width="11px" height="12px" preserveAspectRatio="xMinYMin meet" x="409.5" y="-856"/>
<text text-anchor="start" x="424.5" y="-847.2" font-family="Helvetica,sans-Serif" font-size="11.00">taxaalthierarchytypeid</text>
<polygon fill="none" stroke="black" points="563.5,-839 563.5,-861 605.5,-861 605.5,-839 563.5,-839"/>
<text text-anchor="start" x="566.5" y="-847.2" font-family="Helvetica,sans-Serif" font-size="11.00">int4[10]</text>
<polygon fill="none" stroke="black" points="404.5,-817 404.5,-839 563.5,-839 563.5,-817 404.5,-817"/>
<image xlink:href="../../images/primaryKeys.png" width="11px" height="12px" preserveAspectRatio="xMinYMin meet" x="409.5" y="-834"/>
<text text-anchor="start" x="424.5" y="-825.2" font-family="Helvetica,sans-Serif" font-size="11.00">taxonid</text>
<polygon fill="none" stroke="black" points="563.5,-817 563.5,-839 605.5,-839 605.5,-817 563.5,-817"/>
<text text-anchor="start" x="566.5" y="-825.2" font-family="Helvetica,sans-Serif" font-size="11.00">int4[10]</text>
<polygon fill="none" stroke="black" points="404.5,-795 404.5,-817 563.5,-817 563.5,-795 404.5,-795"/>
<image xlink:href="../../images/foreignKeys.png" width="11px" height="12px" preserveAspectRatio="xMinYMin meet" x="409.5" y="-812"/>
<text text-anchor="start" x="424.5" y="-803.2" font-family="Helvetica,sans-Serif" font-size="11.00">highertaxonid</text>
<polygon fill="none" stroke="black" points="563.5,-795 563.5,-817 605.5,-817 605.5,-795 563.5,-795"/>
<text text-anchor="start" x="566.5" y="-803.2" font-family="Helvetica,sans-Serif" font-size="11.00">int4[10]</text>
<polygon fill="#ffffff" stroke="transparent" points="404.5,-777 404.5,-795 475.5,-795 475.5,-777 404.5,-777"/>
<polygon fill="none" stroke="black" points="404.5,-777 404.5,-795 475.5,-795 475.5,-777 404.5,-777"/>
<text text-anchor="start" x="407.5" y="-783.2" font-family="Helvetica,sans-Serif" font-size="11.00">&lt; 3</text>
<polygon fill="#ffffff" stroke="transparent" points="475.5,-777 475.5,-795 563.5,-795 563.5,-777 475.5,-777"/>
<polygon fill="none" stroke="black" points="475.5,-777 475.5,-795 563.5,-795 563.5,-777 475.5,-777"/>
<text text-anchor="start" x="527.5" y="-783.2" font-family="Helvetica,sans-Serif" font-size="11.00">0 rows</text>
<polygon fill="#ffffff" stroke="transparent" points="563.5,-777 563.5,-795 605.5,-795 605.5,-777 563.5,-777"/>
<polygon fill="none" stroke="black" points="563.5,-777 563.5,-795 605.5,-795 605.5,-777 563.5,-777"/>
<text text-anchor="start" x="586.5" y="-783.2" font-family="Helvetica,sans-Serif" font-size="11.00">0 &gt;</text>
<polygon fill="none" stroke="black" stroke-width="2" points="403,-776 403,-884 606,-884 606,-776 403,-776"/>
</a>
</g>
</g>
<!-- taxaalthierarchy&#45;&gt;taxa -->
<g id="edge21" class="edge">
<title>taxaalthierarchy:w&#45;&gt;taxa:e</title>
<path fill="none" stroke="black" d="M389.15,-802.05C320.04,-759.11 419.66,-380 329,-380"/>
<polygon fill="black" stroke="black" points="395.79,-803.88 402.55,-809.47 399.64,-804.94 403.5,-806 403.5,-806 403.5,-806 399.64,-804.94 404.45,-802.53 395.79,-803.88 395.79,-803.88"/>
<ellipse fill="none" stroke="black" cx="392.7" cy="-803.03" rx="3.2" ry="3.2"/>
</g>
<!-- taxaalthierarchy&#45;&gt;taxa -->
<g id="edge23" class="edge">
<title>taxaalthierarchy:w&#45;&gt;taxa:e</title>
<path fill="none" stroke="black" d="M389.37,-824.39C315.37,-782 424.6,-380 329,-380"/>
<polygon fill="black" stroke="black" points="395.75,-826.02 402.61,-831.49 399.62,-827.01 403.5,-828 403.5,-828 403.5,-828 399.62,-827.01 404.39,-824.51 395.75,-826.02 395.75,-826.02"/>
<ellipse fill="none" stroke="black" cx="392.65" cy="-825.23" rx="3.2" ry="3.2"/>
</g>
<!-- taxaalthierarchytypes -->
<g id="node15" class="node">
<title>taxaalthierarchytypes</title>
<g id="a_node15"><a xlink:href="../../tables/taxaalthierarchytypes.html" xlink:title="taxaalthierarchytypes" target="_top">
<polygon fill="#ffffff" stroke="transparent" points="183,-803 183,-883 353,-883 353,-803 183,-803"/>
<polygon fill="#f5f5f5" stroke="transparent" points="183,-861 183,-883 353,-883 353,-861 183,-861"/>
<polygon fill="none" stroke="black" points="183,-861 183,-883 353,-883 353,-861 183,-861"/>
<text text-anchor="start" x="188" y="-870.2" font-family="Helvetica,sans-Serif" font-weight="bold" font-size="11.00">taxaalthierarchytypes</text>
<text text-anchor="start" x="318" y="-869.2" font-family="Helvetica,sans-Serif" font-size="11.00">[table]</text>
<polygon fill="none" stroke="black" points="183,-839 183,-861 353,-861 353,-839 183,-839"/>
<image xlink:href="../../images/primaryKeys.png" width="11px" height="12px" preserveAspectRatio="xMinYMin meet" x="188" y="-856"/>
<text text-anchor="start" x="203" y="-847.2" font-family="Helvetica,sans-Serif" font-size="11.00">taxaalthierarchytypeid</text>
<polygon fill="none" stroke="black" points="183,-821 183,-839 353,-839 353,-821 183,-821"/>
<text text-anchor="start" x="186" y="-827.2" font-family="Helvetica,sans-Serif" font-size="11.00">...</text>
<polygon fill="#ffffff" stroke="transparent" points="183,-803 183,-821 246,-821 246,-803 183,-803"/>
<polygon fill="none" stroke="black" points="183,-803 183,-821 246,-821 246,-803 183,-803"/>
<text text-anchor="start" x="186" y="-809.2" font-family="Helvetica,sans-Serif" font-size="11.00"> &#160;</text>
<polygon fill="#ffffff" stroke="transparent" points="246,-803 246,-821 305,-821 305,-803 246,-803"/>
<polygon fill="none" stroke="black" points="246,-803 246,-821 305,-821 305,-803 246,-803"/>
<text text-anchor="start" x="274" y="-809.2" font-family="Helvetica,sans-Serif" font-size="11.00">1 row</text>
<polygon fill="#ffffff" stroke="transparent" points="305,-803 305,-821 353,-821 353,-803 305,-803"/>
<polygon fill="none" stroke="black" points="305,-803 305,-821 353,-821 353,-803 305,-803"/>
<text text-anchor="start" x="334" y="-809.2" font-family="Helvetica,sans-Serif" font-size="11.00">1 &gt;</text>
</a>
</g>
</g>
<!-- taxaalthierarchy&#45;&gt;taxaalthierarchytypes -->
<g id="edge22" class="edge">
<title>taxaalthierarchy:w&#45;&gt;taxaalthierarchytypes:e</title>
<path fill="none" stroke="black" d="M388.84,-850C377.41,-850 370.16,-850 354,-850"/>
<polygon fill="black" stroke="black" points="395.5,-850 403.5,-853.6 399.5,-850 403.5,-850 403.5,-850 403.5,-850 399.5,-850 403.5,-846.4 395.5,-850 395.5,-850"/>
<ellipse fill="none" stroke="black" cx="392.3" cy="-850" rx="3.2" ry="3.2"/>
</g>
<!-- taxonpaths -->
<g id="node16" class="node">
<title>taxonpaths</title>
<g id="a_node16"><a xlink:href="../../tables/taxonpaths.html" xlink:title="taxonpaths" target="_top">
<polygon fill="#ffffff" stroke="transparent" points="453,-274 453,-332 556,-332 556,-274 453,-274"/>
<polygon fill="#f5f5f5" stroke="transparent" points="453.5,-310 453.5,-332 556.5,-332 556.5,-310 453.5,-310"/>
<polygon fill="none" stroke="black" points="453.5,-310 453.5,-332 556.5,-332 556.5,-310 453.5,-310"/>
<text text-anchor="start" x="458.5" y="-319.2" font-family="Helvetica,sans-Serif" font-weight="bold" font-size="11.00">taxonpaths</text>
<text text-anchor="start" x="521.5" y="-318.2" font-family="Helvetica,sans-Serif" font-size="11.00">[table]</text>
<polygon fill="none" stroke="black" points="453.5,-292 453.5,-310 556.5,-310 556.5,-292 453.5,-292"/>
<text text-anchor="start" x="456.5" y="-298.2" font-family="Helvetica,sans-Serif" font-size="11.00">...</text>
<polygon fill="#ffffff" stroke="transparent" points="453.5,-274 453.5,-292 489.5,-292 489.5,-274 453.5,-274"/>
<polygon fill="none" stroke="black" points="453.5,-274 453.5,-292 489.5,-292 489.5,-274 453.5,-274"/>
<text text-anchor="start" x="456.5" y="-280.2" font-family="Helvetica,sans-Serif" font-size="11.00">&lt; 1</text>
<polygon fill="#ffffff" stroke="transparent" points="489.5,-274 489.5,-292 535.5,-292 535.5,-274 489.5,-274"/>
<polygon fill="none" stroke="black" points="489.5,-274 489.5,-292 535.5,-292 535.5,-274 489.5,-274"/>
<text text-anchor="start" x="499.5" y="-280.2" font-family="Helvetica,sans-Serif" font-size="11.00">0 rows</text>
<polygon fill="#ffffff" stroke="transparent" points="535.5,-274 535.5,-292 556.5,-292 556.5,-274 535.5,-274"/>
<polygon fill="none" stroke="black" points="535.5,-274 535.5,-292 556.5,-292 556.5,-274 535.5,-274"/>
<text text-anchor="start" x="546.5" y="-280.2" font-family="Helvetica,sans-Serif" font-size="11.00"> &#160;</text>
</a>
</g>
</g>
<!-- taxonpaths&#45;&gt;taxa -->
<g id="edge24" class="edge">
<title>taxonpaths:w&#45;&gt;taxa:e</title>
<path fill="none" stroke="black" d="M438.16,-302.44C387.97,-313.15 388.94,-380 329,-380"/>
<polygon fill="black" stroke="black" points="444.54,-301.8 452.86,-304.58 448.52,-301.4 452.5,-301 452.5,-301 452.5,-301 448.52,-301.4 452.14,-297.42 444.54,-301.8 444.54,-301.8"/>
<ellipse fill="none" stroke="black" cx="441.36" cy="-302.12" rx="3.2" ry="3.2"/>
</g>
<!-- variables -->
<g id="node17" class="node">
<title>variables</title>
<g id="a_node17"><a xlink:href="../../tables/variables.html" xlink:title="variables" target="_top">
<polygon fill="#ffffff" stroke="transparent" points="449.5,-195 449.5,-253 559.5,-253 559.5,-195 449.5,-195"/>
<polygon fill="#f5f5f5" stroke="transparent" points="449.5,-231 449.5,-253 559.5,-253 559.5,-231 449.5,-231"/>
<polygon fill="none" stroke="black" points="449.5,-231 449.5,-253 559.5,-253 559.5,-231 449.5,-231"/>
<text text-anchor="start" x="454.5" y="-240.2" font-family="Helvetica,sans-Serif" font-weight="bold" font-size="11.00">variables</text>
<text text-anchor="start" x="524.5" y="-239.2" font-family="Helvetica,sans-Serif" font-size="11.00">[table]</text>
<polygon fill="none" stroke="black" points="449.5,-213 449.5,-231 559.5,-231 559.5,-213 449.5,-213"/>
<text text-anchor="start" x="452.5" y="-219.2" font-family="Helvetica,sans-Serif" font-size="11.00">...</text>
<polygon fill="#ffffff" stroke="transparent" points="449.5,-195 449.5,-213 471.5,-213 471.5,-195 449.5,-195"/>
<polygon fill="none" stroke="black" points="449.5,-195 449.5,-213 471.5,-213 471.5,-195 449.5,-195"/>
<text text-anchor="start" x="452.5" y="-201.2" font-family="Helvetica,sans-Serif" font-size="11.00">&lt; 4</text>
<polygon fill="#ffffff" stroke="transparent" points="471.5,-195 471.5,-213 537.5,-213 537.5,-195 471.5,-195"/>
<polygon fill="none" stroke="black" points="471.5,-195 471.5,-213 537.5,-213 537.5,-195 471.5,-195"/>
<text text-anchor="start" x="474.5" y="-201.2" font-family="Helvetica,sans-Serif" font-size="11.00">55,155 rows</text>
<polygon fill="#ffffff" stroke="transparent" points="537.5,-195 537.5,-213 559.5,-213 559.5,-195 537.5,-195"/>
<polygon fill="none" stroke="black" points="537.5,-195 537.5,-213 559.5,-213 559.5,-195 537.5,-195"/>
<text text-anchor="start" x="540.5" y="-201.2" font-family="Helvetica,sans-Serif" font-size="11.00">6 &gt;</text>
</a>
</g>
</g>
<!-- variables&#45;&gt;taxa -->
<g id="edge25" class="edge">
<title>variables:w&#45;&gt;taxa:e</title>
<path fill="none" stroke="black" d="M434.18,-223.75C416.09,-228.82 410.25,-244.34 394,-263 354.93,-307.86 388.49,-380 329,-380"/>
<polygon fill="black" stroke="black" points="440.56,-222.97 448.94,-225.57 444.53,-222.49 448.5,-222 448.5,-222 448.5,-222 444.53,-222.49 448.06,-218.43 440.56,-222.97 440.56,-222.97"/>
<ellipse fill="none" stroke="black" cx="437.38" cy="-223.36" rx="3.2" ry="3.2"/>
</g>
</g>
</svg>
