<?xml version="1.0" encoding="UTF-8" standalone="no"?>
<!DOCTYPE svg PUBLIC "-//W3C//DTD SVG 1.1//EN"
 "http://www.w3.org/Graphics/SVG/1.1/DTD/svg11.dtd">
<!-- Generated by graphviz version 2.43.0 (0)
 -->
<!-- Title: oneDegreeRelationshipsDiagram Pages: 1 -->
<svg width="496pt" height="159pt"
 viewBox="0.00 0.00 496.00 159.00" xmlns="http://www.w3.org/2000/svg" xmlns:xlink="http://www.w3.org/1999/xlink">
<g id="graph0" class="graph" transform="scale(1 1) rotate(0) translate(4 155)">
<title>oneDegreeRelationshipsDiagram</title>
<polygon fill="#ffffff" stroke="transparent" points="-4,4 -4,-155 492,-155 492,4 -4,4"/>
<text text-anchor="middle" x="71.5" y="-7.2" font-family="Helvetica,sans-Serif" font-size="11.00">Generated by SchemaSpy</text>
<!-- taxaalthierarchy -->
<g id="node1" class="node">
<title>taxaalthierarchy</title>
<g id="a_node1"><a xlink:href="../../tables/taxaalthierarchy.html" xlink:title="taxaalthierarchy" target="_top">
<polygon fill="#ffffff" stroke="transparent" points="321,-39 321,-145 480,-145 480,-39 321,-39"/>
<polygon fill="#f5f5f5" stroke="transparent" points="321.5,-123 321.5,-145 480.5,-145 480.5,-123 321.5,-123"/>
<polygon fill="none" stroke="black" points="321.5,-123 321.5,-145 480.5,-145 480.5,-123 321.5,-123"/>
<text text-anchor="start" x="326.5" y="-132.2" font-family="Helvetica,sans-Serif" font-weight="bold" font-size="11.00">taxaalthierarchy</text>
<text text-anchor="start" x="445.5" y="-131.2" font-family="Helvetica,sans-Serif" font-size="11.00">[table]</text>
<polygon fill="none" stroke="black" points="321.5,-101 321.5,-123 480.5,-123 480.5,-101 321.5,-101"/>
<image xlink:href="../../images/primaryKeys.png" width="11px" height="12px" preserveAspectRatio="xMinYMin meet" x="326.5" y="-118"/>
<text text-anchor="start" x="341.5" y="-109.2" font-family="Helvetica,sans-Serif" font-size="11.00">taxaalthierarchytypeid</text>
<polygon fill="none" stroke="black" points="321.5,-79 321.5,-101 480.5,-101 480.5,-79 321.5,-79"/>
<image xlink:href="../../images/primaryKeys.png" width="11px" height="12px" preserveAspectRatio="xMinYMin meet" x="326.5" y="-96"/>
<text text-anchor="start" x="341.5" y="-87.2" font-family="Helvetica,sans-Serif" font-size="11.00">taxonid</text>
<polygon fill="none" stroke="black" points="321.5,-57 321.5,-79 480.5,-79 480.5,-57 321.5,-57"/>
<image xlink:href="../../images/foreignKeys.png" width="11px" height="12px" preserveAspectRatio="xMinYMin meet" x="326.5" y="-74"/>
<text text-anchor="start" x="341.5" y="-65.2" font-family="Helvetica,sans-Serif" font-size="11.00">highertaxonid</text>
<polygon fill="#ffffff" stroke="transparent" points="321.5,-39 321.5,-57 385.5,-57 385.5,-39 321.5,-39"/>
<polygon fill="none" stroke="black" points="321.5,-39 321.5,-57 385.5,-57 385.5,-39 321.5,-39"/>
<text text-anchor="start" x="324.5" y="-45.2" font-family="Helvetica,sans-Serif" font-size="11.00">&lt; 3</text>
<polygon fill="#ffffff" stroke="transparent" points="385.5,-39 385.5,-57 445.5,-57 445.5,-39 385.5,-39"/>
<polygon fill="none" stroke="black" points="385.5,-39 385.5,-57 445.5,-57 445.5,-39 385.5,-39"/>
<text text-anchor="start" x="409.5" y="-45.2" font-family="Helvetica,sans-Serif" font-size="11.00">0 rows</text>
<polygon fill="#ffffff" stroke="transparent" points="445.5,-39 445.5,-57 480.5,-57 480.5,-39 445.5,-39"/>
<polygon fill="none" stroke="black" points="445.5,-39 445.5,-57 480.5,-57 480.5,-39 445.5,-39"/>
<text text-anchor="start" x="470.5" y="-45.2" font-family="Helvetica,sans-Serif" font-size="11.00"> &#160;</text>
</a>
</g>
</g>
<!-- taxaalthierarchytypes -->
<g id="node2" class="node">
<title>taxaalthierarchytypes</title>
<g id="a_node2"><a xlink:href="../../tables/taxaalthierarchytypes.html" xlink:title="taxaalthierarchytypes" target="_top">
<polygon fill="#ffffff" stroke="transparent" points="8,-37 8,-147 272,-147 272,-37 8,-37"/>
<polygon fill="#f5f5f5" stroke="transparent" points="10,-123 10,-145 270,-145 270,-123 10,-123"/>
<polygon fill="none" stroke="black" points="10,-123 10,-145 270,-145 270,-123 10,-123"/>
<text text-anchor="start" x="15" y="-132.2" font-family="Helvetica,sans-Serif" font-weight="bold" font-size="11.00">taxaalthierarchytypes</text>
<text text-anchor="start" x="235" y="-131.2" font-family="Helvetica,sans-Serif" font-size="11.00">[table]</text>
<polygon fill="none" stroke="black" points="10,-101 10,-123 180,-123 180,-101 10,-101"/>
<image xlink:href="../../images/primaryKeys.png" width="11px" height="12px" preserveAspectRatio="xMinYMin meet" x="15" y="-118"/>
<text text-anchor="start" x="30" y="-109.2" font-family="Helvetica,sans-Serif" font-size="11.00">taxaalthierarchytypeid</text>
<polygon fill="none" stroke="black" points="180,-101 180,-123 270,-123 270,-101 180,-101"/>
<text text-anchor="start" x="183" y="-109.2" font-family="Helvetica,sans-Serif" font-size="11.00">serial[10]</text>
<polygon fill="none" stroke="black" points="10,-79 10,-101 180,-101 180,-79 10,-79"/>
<text text-anchor="start" x="30" y="-87.2" font-family="Helvetica,sans-Serif" font-size="11.00">taxaalthierarchyname</text>
<polygon fill="none" stroke="black" points="180,-79 180,-101 270,-101 270,-79 180,-79"/>
<text text-anchor="start" x="183" y="-87.2" font-family="Helvetica,sans-Serif" font-size="11.00">varchar[50]</text>
<polygon fill="none" stroke="black" points="10,-57 10,-79 180,-79 180,-57 10,-57"/>
<text text-anchor="start" x="30" y="-65.2" font-family="Helvetica,sans-Serif" font-size="11.00">taxaalthierarchydescript</text>
<polygon fill="none" stroke="black" points="180,-57 180,-79 270,-79 270,-57 180,-57"/>
<text text-anchor="start" x="183" y="-65.2" font-family="Helvetica,sans-Serif" font-size="11.00">text[2147483647]</text>
<polygon fill="#ffffff" stroke="transparent" points="10,-39 10,-57 89,-57 89,-39 10,-39"/>
<polygon fill="none" stroke="black" points="10,-39 10,-57 89,-57 89,-39 10,-39"/>
<text text-anchor="start" x="13" y="-45.2" font-family="Helvetica,sans-Serif" font-size="11.00">&lt; 0</text>
<polygon fill="#ffffff" stroke="transparent" points="89,-39 89,-57 180,-57 180,-39 89,-39"/>
<polygon fill="none" stroke="black" points="89,-39 89,-57 180,-57 180,-39 89,-39"/>
<text text-anchor="start" x="149" y="-45.2" font-family="Helvetica,sans-Serif" font-size="11.00">1 row</text>
<polygon fill="#ffffff" stroke="transparent" points="180,-39 180,-57 270,-57 270,-39 180,-39"/>
<polygon fill="none" stroke="black" points="180,-39 180,-57 270,-57 270,-39 180,-39"/>
<text text-anchor="start" x="251" y="-45.2" font-family="Helvetica,sans-Serif" font-size="11.00">1 &gt;</text>
<polygon fill="none" stroke="black" stroke-width="2" points="9,-38 9,-146 271,-146 271,-38 9,-38"/>
</a>
</g>
</g>
<!-- taxaalthierarchy&#45;&gt;taxaalthierarchytypes -->
<g id="edge1" class="edge">
<title>taxaalthierarchy:w&#45;&gt;taxaalthierarchytypes:e</title>
<path fill="none" stroke="black" d="M305.84,-112C294.41,-112 287.16,-112 271,-112"/>
<polygon fill="black" stroke="black" points="312.5,-112 320.5,-115.6 316.5,-112 320.5,-112 320.5,-112 320.5,-112 316.5,-112 320.5,-108.4 312.5,-112 312.5,-112"/>
<ellipse fill="none" stroke="black" cx="309.3" cy="-112" rx="3.2" ry="3.2"/>
</g>
</g>
</svg>
