<?xml version="1.0" encoding="UTF-8" standalone="no"?>
<!DOCTYPE svg PUBLIC "-//W3C//DTD SVG 1.1//EN"
 "http://www.w3.org/Graphics/SVG/1.1/DTD/svg11.dtd">
<!-- Generated by graphviz version 2.43.0 (0)
 -->
<!-- Title: oneDegreeRelationshipsDiagram Pages: 1 -->
<svg width="334pt" height="263pt"
 viewBox="0.00 0.00 334.00 263.00" xmlns="http://www.w3.org/2000/svg" xmlns:xlink="http://www.w3.org/1999/xlink">
<g id="graph0" class="graph" transform="scale(1 1) rotate(0) translate(4 259)">
<title>oneDegreeRelationshipsDiagram</title>
<polygon fill="#ffffff" stroke="transparent" points="-4,4 -4,-259 330,-259 330,4 -4,4"/>
<text text-anchor="middle" x="71.5" y="-7.2" font-family="Helvetica,sans-Serif" font-size="11.00">Generated by SchemaSpy</text>
<!-- taxonpaths -->
<g id="node1" class="node">
<title>taxonpaths</title>
<g id="a_node1"><a xlink:href="../../tables/taxonpaths.html" xlink:title="taxonpaths" target="_top">
<polygon fill="#ffffff" stroke="transparent" points="177,-163 177,-251 318,-251 318,-163 177,-163"/>
<polygon fill="#f5f5f5" stroke="transparent" points="179.5,-227 179.5,-249 316.5,-249 316.5,-227 179.5,-227"/>
<polygon fill="none" stroke="black" points="179.5,-227 179.5,-249 316.5,-249 316.5,-227 179.5,-227"/>
<text text-anchor="start" x="184.5" y="-236.2" font-family="Helvetica,sans-Serif" font-weight="bold" font-size="11.00">taxonpaths</text>
<text text-anchor="start" x="281.5" y="-235.2" font-family="Helvetica,sans-Serif" font-size="11.00">[table]</text>
<polygon fill="none" stroke="black" points="179.5,-205 179.5,-227 268.5,-227 268.5,-205 179.5,-205"/>
<image xlink:href="../../images/primaryKeys.png" width="11px" height="12px" preserveAspectRatio="xMinYMin meet" x="184.5" y="-222"/>
<text text-anchor="start" x="199.5" y="-213.2" font-family="Helvetica,sans-Serif" font-size="11.00">taxonout</text>
<polygon fill="none" stroke="black" points="268.5,-205 268.5,-227 316.5,-227 316.5,-205 268.5,-205"/>
<text text-anchor="start" x="271.5" y="-213.2" font-family="Helvetica,sans-Serif" font-size="11.00">_int4[10]</text>
<polygon fill="none" stroke="black" points="179.5,-183 179.5,-205 268.5,-205 268.5,-183 179.5,-183"/>
<image xlink:href="../../images/primaryKeys.png" width="11px" height="12px" preserveAspectRatio="xMinYMin meet" x="184.5" y="-200"/>
<text text-anchor="start" x="199.5" y="-191.2" font-family="Helvetica,sans-Serif" font-size="11.00">taxonid</text>
<polygon fill="none" stroke="black" points="268.5,-183 268.5,-205 316.5,-205 316.5,-183 268.5,-183"/>
<text text-anchor="start" x="271.5" y="-191.2" font-family="Helvetica,sans-Serif" font-size="11.00">int8[19]</text>
<polygon fill="#ffffff" stroke="transparent" points="179.5,-165 179.5,-183 215.5,-183 215.5,-165 179.5,-165"/>
<polygon fill="none" stroke="black" points="179.5,-165 179.5,-183 215.5,-183 215.5,-165 179.5,-165"/>
<text text-anchor="start" x="182.5" y="-171.2" font-family="Helvetica,sans-Serif" font-size="11.00">&lt; 1</text>
<polygon fill="#ffffff" stroke="transparent" points="215.5,-165 215.5,-183 268.5,-183 268.5,-165 215.5,-165"/>
<polygon fill="none" stroke="black" points="215.5,-165 215.5,-183 268.5,-183 268.5,-165 215.5,-165"/>
<text text-anchor="start" x="232.5" y="-171.2" font-family="Helvetica,sans-Serif" font-size="11.00">0 rows</text>
<polygon fill="#ffffff" stroke="transparent" points="268.5,-165 268.5,-183 316.5,-183 316.5,-165 268.5,-165"/>
<polygon fill="none" stroke="black" points="268.5,-165 268.5,-183 316.5,-183 316.5,-165 268.5,-165"/>
<text text-anchor="start" x="297.5" y="-171.2" font-family="Helvetica,sans-Serif" font-size="11.00">0 &gt;</text>
<polygon fill="none" stroke="black" stroke-width="2" points="178,-164 178,-250 317,-250 317,-164 178,-164"/>
</a>
</g>
</g>
<!-- taxa -->
<g id="node2" class="node">
<title>taxa</title>
<g id="a_node2"><a xlink:href="../../tables/taxa.html" xlink:title="taxa" target="_top">
<polygon fill="#ffffff" stroke="transparent" points="8,-37 8,-227 128,-227 128,-37 8,-37"/>
<polygon fill="#f5f5f5" stroke="transparent" points="8,-205 8,-227 128,-227 128,-205 8,-205"/>
<polygon fill="none" stroke="black" points="8,-205 8,-227 128,-227 128,-205 8,-205"/>
<text text-anchor="start" x="13" y="-214.2" font-family="Helvetica,sans-Serif" font-weight="bold" font-size="11.00">taxa</text>
<text text-anchor="start" x="93" y="-213.2" font-family="Helvetica,sans-Serif" font-size="11.00">[table]</text>
<polygon fill="none" stroke="black" points="8,-183 8,-205 128,-205 128,-183 8,-183"/>
<image xlink:href="../../images/primaryKeys.png" width="11px" height="12px" preserveAspectRatio="xMinYMin meet" x="13" y="-200"/>
<text text-anchor="start" x="28" y="-191.2" font-family="Helvetica,sans-Serif" font-size="11.00">taxonid</text>
<polygon fill="#ffffff" stroke="transparent" points="8,-161 8,-183 128,-183 128,-161 8,-161"/>
<polygon fill="none" stroke="black" points="8,-161 8,-183 128,-183 128,-161 8,-161"/>
<text text-anchor="start" x="28" y="-169.2" font-family="Helvetica,sans-Serif" font-size="11.00">taxonname</text>
<polygon fill="none" stroke="black" points="8,-139 8,-161 128,-161 128,-139 8,-139"/>
<image xlink:href="../../images/foreignKeys.png" width="11px" height="12px" preserveAspectRatio="xMinYMin meet" x="13" y="-156"/>
<text text-anchor="start" x="28" y="-147.2" font-family="Helvetica,sans-Serif" font-size="11.00">highertaxonid</text>
<polygon fill="#ffffff" stroke="transparent" points="8,-117 8,-139 128,-139 128,-117 8,-117"/>
<polygon fill="none" stroke="black" points="8,-117 8,-139 128,-139 128,-117 8,-117"/>
<image xlink:href="../../images/foreignKeys.png" width="11px" height="12px" preserveAspectRatio="xMinYMin meet" x="13" y="-134"/>
<text text-anchor="start" x="28" y="-125.2" font-family="Helvetica,sans-Serif" font-size="11.00">taxagroupid</text>
<polygon fill="none" stroke="black" points="8,-95 8,-117 128,-117 128,-95 8,-95"/>
<image xlink:href="../../images/foreignKeys.png" width="11px" height="12px" preserveAspectRatio="xMinYMin meet" x="13" y="-112"/>
<text text-anchor="start" x="28" y="-103.2" font-family="Helvetica,sans-Serif" font-size="11.00">publicationid</text>
<polygon fill="none" stroke="black" points="8,-73 8,-95 128,-95 128,-73 8,-73"/>
<image xlink:href="../../images/foreignKeys.png" width="11px" height="12px" preserveAspectRatio="xMinYMin meet" x="13" y="-90"/>
<text text-anchor="start" x="28" y="-81.2" font-family="Helvetica,sans-Serif" font-size="11.00">validatorid</text>
<polygon fill="none" stroke="black" points="8,-55 8,-73 128,-73 128,-55 8,-55"/>
<text text-anchor="start" x="11" y="-61.2" font-family="Helvetica,sans-Serif" font-size="11.00">...</text>
<polygon fill="#ffffff" stroke="transparent" points="8,-37 8,-55 32,-55 32,-37 8,-37"/>
<polygon fill="none" stroke="black" points="8,-37 8,-55 32,-55 32,-37 8,-37"/>
<text text-anchor="start" x="11" y="-43.2" font-family="Helvetica,sans-Serif" font-size="11.00">&lt; 4</text>
<polygon fill="#ffffff" stroke="transparent" points="32,-37 32,-55 99,-55 99,-37 32,-37"/>
<polygon fill="none" stroke="black" points="32,-37 32,-55 99,-55 99,-37 32,-37"/>
<text text-anchor="start" x="36" y="-43.2" font-family="Helvetica,sans-Serif" font-size="11.00">46,322 rows</text>
<polygon fill="#ffffff" stroke="transparent" points="99,-37 99,-55 128,-55 128,-37 99,-37"/>
<polygon fill="none" stroke="black" points="99,-37 99,-55 128,-55 128,-37 99,-37"/>
<text text-anchor="start" x="103" y="-43.2" font-family="Helvetica,sans-Serif" font-size="11.00">17 &gt;</text>
</a>
</g>
</g>
<!-- taxonpaths&#45;&gt;taxa -->
<g id="edge1" class="edge">
<title>taxonpaths:w&#45;&gt;taxa:e</title>
<path fill="none" stroke="black" d="M163.84,-194C152.41,-194 145.16,-194 129,-194"/>
<polygon fill="black" stroke="black" points="170.5,-194 178.5,-197.6 174.5,-194 178.5,-194 178.5,-194 178.5,-194 174.5,-194 178.5,-190.4 170.5,-194 170.5,-194"/>
<ellipse fill="none" stroke="black" cx="167.3" cy="-194" rx="3.2" ry="3.2"/>
</g>
</g>
</svg>
