<?xml version="1.0" encoding="UTF-8" standalone="no"?>
<!DOCTYPE svg PUBLIC "-//W3C//DTD SVG 1.1//EN"
 "http://www.w3.org/Graphics/SVG/1.1/DTD/svg11.dtd">
<!-- Generated by graphviz version 2.43.0 (0)
 -->
<!-- Title: twoDegreesRelationshipsDiagram Pages: 1 -->
<svg width="681pt" height="954pt"
 viewBox="0.00 0.00 681.00 954.00" xmlns="http://www.w3.org/2000/svg" xmlns:xlink="http://www.w3.org/1999/xlink">
<g id="graph0" class="graph" transform="scale(1 1) rotate(0) translate(4 950)">
<title>twoDegreesRelationshipsDiagram</title>
<polygon fill="#ffffff" stroke="transparent" points="-4,4 -4,-950 677,-950 677,4 -4,4"/>
<text text-anchor="middle" x="71.5" y="-7.2" font-family="Helvetica,sans-Serif" font-size="11.00">Generated by SchemaSpy</text>
<!-- datasettaxonnotes -->
<g id="node1" class="node">
<title>datasettaxonnotes</title>
<g id="a_node1"><a xlink:href="../../tables/datasettaxonnotes.html" xlink:title="datasettaxonnotes" target="_top">
<polygon fill="#ffffff" stroke="transparent" points="352,-37 352,-95 493,-95 493,-37 352,-37"/>
<polygon fill="#f5f5f5" stroke="transparent" points="352.5,-73 352.5,-95 493.5,-95 493.5,-73 352.5,-73"/>
<polygon fill="none" stroke="black" points="352.5,-73 352.5,-95 493.5,-95 493.5,-73 352.5,-73"/>
<text text-anchor="start" x="357.5" y="-82.2" font-family="Helvetica,sans-Serif" font-weight="bold" font-size="11.00">datasettaxonnotes</text>
<text text-anchor="start" x="458.5" y="-81.2" font-family="Helvetica,sans-Serif" font-size="11.00">[table]</text>
<polygon fill="none" stroke="black" points="352.5,-55 352.5,-73 493.5,-73 493.5,-55 352.5,-55"/>
<text text-anchor="start" x="355.5" y="-61.2" font-family="Helvetica,sans-Serif" font-size="11.00">...</text>
<polygon fill="#ffffff" stroke="transparent" points="352.5,-37 352.5,-55 397.5,-55 397.5,-37 352.5,-37"/>
<polygon fill="none" stroke="black" points="352.5,-37 352.5,-55 397.5,-55 397.5,-37 352.5,-37"/>
<text text-anchor="start" x="355.5" y="-43.2" font-family="Helvetica,sans-Serif" font-size="11.00">&lt; 3</text>
<polygon fill="#ffffff" stroke="transparent" points="397.5,-37 397.5,-55 468.5,-55 468.5,-37 397.5,-37"/>
<polygon fill="none" stroke="black" points="397.5,-37 397.5,-55 468.5,-55 468.5,-37 397.5,-37"/>
<text text-anchor="start" x="411.5" y="-43.2" font-family="Helvetica,sans-Serif" font-size="11.00">1,674 rows</text>
<polygon fill="#ffffff" stroke="transparent" points="468.5,-37 468.5,-55 493.5,-55 493.5,-37 468.5,-37"/>
<polygon fill="none" stroke="black" points="468.5,-37 468.5,-55 493.5,-55 493.5,-37 468.5,-37"/>
<text text-anchor="start" x="483.5" y="-43.2" font-family="Helvetica,sans-Serif" font-size="11.00"> &#160;</text>
</a>
</g>
</g>
<!-- contacts -->
<g id="node2" class="node">
<title>contacts</title>
<g id="a_node2"><a xlink:href="../../tables/contacts.html" xlink:title="contacts" target="_top">
<polygon fill="#ffffff" stroke="transparent" points="13,-411 13,-469 129,-469 129,-411 13,-411"/>
<polygon fill="#f5f5f5" stroke="transparent" points="13,-447 13,-469 129,-469 129,-447 13,-447"/>
<polygon fill="none" stroke="black" points="13,-447 13,-469 129,-469 129,-447 13,-447"/>
<text text-anchor="start" x="18" y="-456.2" font-family="Helvetica,sans-Serif" font-weight="bold" font-size="11.00">contacts</text>
<text text-anchor="start" x="94" y="-455.2" font-family="Helvetica,sans-Serif" font-size="11.00">[table]</text>
<polygon fill="none" stroke="black" points="13,-429 13,-447 129,-447 129,-429 13,-429"/>
<text text-anchor="start" x="16" y="-435.2" font-family="Helvetica,sans-Serif" font-size="11.00">...</text>
<polygon fill="#ffffff" stroke="transparent" points="13,-411 13,-429 35,-429 35,-411 13,-411"/>
<polygon fill="none" stroke="black" points="13,-411 13,-429 35,-429 35,-411 13,-411"/>
<text text-anchor="start" x="16" y="-417.2" font-family="Helvetica,sans-Serif" font-size="11.00">&lt; 1</text>
<polygon fill="#ffffff" stroke="transparent" points="35,-411 35,-429 101,-429 101,-411 35,-411"/>
<polygon fill="none" stroke="black" points="35,-411 35,-429 101,-429 101,-411 35,-411"/>
<text text-anchor="start" x="38" y="-417.2" font-family="Helvetica,sans-Serif" font-size="11.00">13,549 rows</text>
<polygon fill="#ffffff" stroke="transparent" points="101,-411 101,-429 129,-429 129,-411 101,-411"/>
<polygon fill="none" stroke="black" points="101,-411 101,-429 129,-429 129,-411 101,-411"/>
<text text-anchor="start" x="104" y="-417.2" font-family="Helvetica,sans-Serif" font-size="11.00">17 &gt;</text>
</a>
</g>
</g>
<!-- datasettaxonnotes&#45;&gt;contacts -->
<g id="edge1" class="edge">
<title>datasettaxonnotes:w&#45;&gt;contacts:e</title>
<path fill="none" stroke="black" d="M338.5,-70.81C283.69,-121.5 174.43,-438 130,-438"/>
<polygon fill="black" stroke="black" points="344.41,-67.71 353.17,-67.19 347.96,-65.86 351.5,-64 351.5,-64 351.5,-64 347.96,-65.86 349.83,-60.81 344.41,-67.71 344.41,-67.71"/>
<ellipse fill="none" stroke="black" cx="341.58" cy="-69.2" rx="3.2" ry="3.2"/>
</g>
<!-- taxa -->
<g id="node3" class="node">
<title>taxa</title>
<g id="a_node3"><a xlink:href="../../tables/taxa.html" xlink:title="taxa" target="_top">
<polygon fill="#ffffff" stroke="transparent" points="183,-408 183,-598 303,-598 303,-408 183,-408"/>
<polygon fill="#f5f5f5" stroke="transparent" points="183,-576 183,-598 303,-598 303,-576 183,-576"/>
<polygon fill="none" stroke="black" points="183,-576 183,-598 303,-598 303,-576 183,-576"/>
<text text-anchor="start" x="188" y="-585.2" font-family="Helvetica,sans-Serif" font-weight="bold" font-size="11.00">taxa</text>
<text text-anchor="start" x="268" y="-584.2" font-family="Helvetica,sans-Serif" font-size="11.00">[table]</text>
<polygon fill="none" stroke="black" points="183,-554 183,-576 303,-576 303,-554 183,-554"/>
<image xlink:href="../../images/primaryKeys.png" width="11px" height="12px" preserveAspectRatio="xMinYMin meet" x="188" y="-571"/>
<text text-anchor="start" x="203" y="-562.2" font-family="Helvetica,sans-Serif" font-size="11.00">taxonid</text>
<polygon fill="#ffffff" stroke="transparent" points="183,-532 183,-554 303,-554 303,-532 183,-532"/>
<polygon fill="none" stroke="black" points="183,-532 183,-554 303,-554 303,-532 183,-532"/>
<text text-anchor="start" x="203" y="-540.2" font-family="Helvetica,sans-Serif" font-size="11.00">taxonname</text>
<polygon fill="none" stroke="black" points="183,-510 183,-532 303,-532 303,-510 183,-510"/>
<image xlink:href="../../images/foreignKeys.png" width="11px" height="12px" preserveAspectRatio="xMinYMin meet" x="188" y="-527"/>
<text text-anchor="start" x="203" y="-518.2" font-family="Helvetica,sans-Serif" font-size="11.00">highertaxonid</text>
<polygon fill="#ffffff" stroke="transparent" points="183,-488 183,-510 303,-510 303,-488 183,-488"/>
<polygon fill="none" stroke="black" points="183,-488 183,-510 303,-510 303,-488 183,-488"/>
<image xlink:href="../../images/foreignKeys.png" width="11px" height="12px" preserveAspectRatio="xMinYMin meet" x="188" y="-505"/>
<text text-anchor="start" x="203" y="-496.2" font-family="Helvetica,sans-Serif" font-size="11.00">taxagroupid</text>
<polygon fill="none" stroke="black" points="183,-466 183,-488 303,-488 303,-466 183,-466"/>
<image xlink:href="../../images/foreignKeys.png" width="11px" height="12px" preserveAspectRatio="xMinYMin meet" x="188" y="-483"/>
<text text-anchor="start" x="203" y="-474.2" font-family="Helvetica,sans-Serif" font-size="11.00">publicationid</text>
<polygon fill="none" stroke="black" points="183,-444 183,-466 303,-466 303,-444 183,-444"/>
<image xlink:href="../../images/foreignKeys.png" width="11px" height="12px" preserveAspectRatio="xMinYMin meet" x="188" y="-461"/>
<text text-anchor="start" x="203" y="-452.2" font-family="Helvetica,sans-Serif" font-size="11.00">validatorid</text>
<polygon fill="none" stroke="black" points="183,-426 183,-444 303,-444 303,-426 183,-426"/>
<text text-anchor="start" x="186" y="-432.2" font-family="Helvetica,sans-Serif" font-size="11.00">...</text>
<polygon fill="#ffffff" stroke="transparent" points="183,-408 183,-426 207,-426 207,-408 183,-408"/>
<polygon fill="none" stroke="black" points="183,-408 183,-426 207,-426 207,-408 183,-408"/>
<text text-anchor="start" x="186" y="-414.2" font-family="Helvetica,sans-Serif" font-size="11.00">&lt; 4</text>
<polygon fill="#ffffff" stroke="transparent" points="207,-408 207,-426 274,-426 274,-408 207,-408"/>
<polygon fill="none" stroke="black" points="207,-408 207,-426 274,-426 274,-408 207,-408"/>
<text text-anchor="start" x="211" y="-414.2" font-family="Helvetica,sans-Serif" font-size="11.00">47,314 rows</text>
<polygon fill="#ffffff" stroke="transparent" points="274,-408 274,-426 303,-426 303,-408 274,-408"/>
<polygon fill="none" stroke="black" points="274,-408 274,-426 303,-426 303,-408 274,-408"/>
<text text-anchor="start" x="278" y="-414.2" font-family="Helvetica,sans-Serif" font-size="11.00">17 &gt;</text>
</a>
</g>
</g>
<!-- datasettaxonnotes&#45;&gt;taxa -->
<g id="edge2" class="edge">
<title>datasettaxonnotes:w&#45;&gt;taxa:e</title>
<path fill="none" stroke="black" d="M337.11,-67.47C256.18,-111.73 410.37,-565 304,-565"/>
<polygon fill="black" stroke="black" points="343.72,-65.87 352.34,-67.5 347.61,-64.94 351.5,-64 351.5,-64 351.5,-64 347.61,-64.94 350.66,-60.5 343.72,-65.87 343.72,-65.87"/>
<ellipse fill="none" stroke="black" cx="340.61" cy="-66.62" rx="3.2" ry="3.2"/>
</g>
<!-- taxa&#45;&gt;contacts -->
<g id="edge20" class="edge">
<title>taxa:w&#45;&gt;contacts:e</title>
<path fill="none" stroke="black" d="M167.42,-452.49C154.82,-447.76 148.43,-438 130,-438"/>
<polygon fill="black" stroke="black" points="174.12,-453.64 181.39,-458.55 178.06,-454.32 182,-455 182,-455 182,-455 178.06,-454.32 182.61,-451.45 174.12,-453.64 174.12,-453.64"/>
<ellipse fill="none" stroke="black" cx="170.96" cy="-453.1" rx="3.2" ry="3.2"/>
</g>
<!-- publications -->
<g id="node7" class="node">
<title>publications</title>
<g id="a_node7"><a xlink:href="../../tables/publications.html" xlink:title="publications" target="_top">
<polygon fill="#ffffff" stroke="transparent" points="13,-805 13,-863 129,-863 129,-805 13,-805"/>
<polygon fill="#f5f5f5" stroke="transparent" points="13,-841 13,-863 129,-863 129,-841 13,-841"/>
<polygon fill="none" stroke="black" points="13,-841 13,-863 129,-863 129,-841 13,-841"/>
<text text-anchor="start" x="18" y="-850.2" font-family="Helvetica,sans-Serif" font-weight="bold" font-size="11.00">publications</text>
<text text-anchor="start" x="94" y="-849.2" font-family="Helvetica,sans-Serif" font-size="11.00">[table]</text>
<polygon fill="none" stroke="black" points="13,-823 13,-841 129,-841 129,-823 13,-823"/>
<text text-anchor="start" x="16" y="-829.2" font-family="Helvetica,sans-Serif" font-size="11.00">...</text>
<polygon fill="#ffffff" stroke="transparent" points="13,-805 13,-823 35,-823 35,-805 13,-805"/>
<polygon fill="none" stroke="black" points="13,-805 13,-823 35,-823 35,-805 13,-805"/>
<text text-anchor="start" x="16" y="-811.2" font-family="Helvetica,sans-Serif" font-size="11.00">&lt; 1</text>
<polygon fill="#ffffff" stroke="transparent" points="35,-805 35,-823 101,-823 101,-805 35,-805"/>
<polygon fill="none" stroke="black" points="35,-805 35,-823 101,-823 101,-805 35,-805"/>
<text text-anchor="start" x="38" y="-811.2" font-family="Helvetica,sans-Serif" font-size="11.00">13,725 rows</text>
<polygon fill="#ffffff" stroke="transparent" points="101,-805 101,-823 129,-823 129,-805 101,-805"/>
<polygon fill="none" stroke="black" points="101,-805 101,-823 129,-823 129,-805 101,-805"/>
<text text-anchor="start" x="104" y="-811.2" font-family="Helvetica,sans-Serif" font-size="11.00">12 &gt;</text>
</a>
</g>
</g>
<!-- taxa&#45;&gt;publications -->
<g id="edge18" class="edge">
<title>taxa:w&#45;&gt;publications:e</title>
<path fill="none" stroke="black" d="M168.15,-481.75C116.09,-523.88 204.28,-832 130,-832"/>
<polygon fill="black" stroke="black" points="174.43,-479.6 183.17,-480.41 178.22,-478.3 182,-477 182,-477 182,-477 178.22,-478.3 180.83,-473.59 174.43,-479.6 174.43,-479.6"/>
<ellipse fill="none" stroke="black" cx="171.41" cy="-480.63" rx="3.2" ry="3.2"/>
</g>
<!-- taxagrouptypes -->
<g id="node13" class="node">
<title>taxagrouptypes</title>
<g id="a_node13"><a xlink:href="../../tables/taxagrouptypes.html" xlink:title="taxagrouptypes" target="_top">
<polygon fill="#ffffff" stroke="transparent" points="8,-490 8,-548 134,-548 134,-490 8,-490"/>
<polygon fill="#f5f5f5" stroke="transparent" points="8,-526 8,-548 134,-548 134,-526 8,-526"/>
<polygon fill="none" stroke="black" points="8,-526 8,-548 134,-548 134,-526 8,-526"/>
<text text-anchor="start" x="13" y="-535.2" font-family="Helvetica,sans-Serif" font-weight="bold" font-size="11.00">taxagrouptypes</text>
<text text-anchor="start" x="99" y="-534.2" font-family="Helvetica,sans-Serif" font-size="11.00">[table]</text>
<polygon fill="none" stroke="black" points="8,-508 8,-526 134,-526 134,-508 8,-508"/>
<text text-anchor="start" x="11" y="-514.2" font-family="Helvetica,sans-Serif" font-size="11.00">...</text>
<polygon fill="#ffffff" stroke="transparent" points="8,-490 8,-508 44,-508 44,-490 8,-490"/>
<polygon fill="none" stroke="black" points="8,-490 8,-508 44,-508 44,-490 8,-490"/>
<text text-anchor="start" x="11" y="-496.2" font-family="Helvetica,sans-Serif" font-size="11.00"> &#160;</text>
<polygon fill="#ffffff" stroke="transparent" points="44,-490 44,-508 100,-508 100,-490 44,-490"/>
<polygon fill="none" stroke="black" points="44,-490 44,-508 100,-508 100,-490 44,-490"/>
<text text-anchor="start" x="58" y="-496.2" font-family="Helvetica,sans-Serif" font-size="11.00">55 rows</text>
<polygon fill="#ffffff" stroke="transparent" points="100,-490 100,-508 134,-508 134,-490 100,-490"/>
<polygon fill="none" stroke="black" points="100,-490 100,-508 134,-508 134,-490 100,-490"/>
<text text-anchor="start" x="115" y="-496.2" font-family="Helvetica,sans-Serif" font-size="11.00">4 &gt;</text>
</a>
</g>
</g>
<!-- taxa&#45;&gt;taxagrouptypes -->
<g id="edge19" class="edge">
<title>taxa:w&#45;&gt;taxagrouptypes:e</title>
<path fill="none" stroke="black" d="M167.68,-502.14C157.01,-507.29 151.43,-517 135,-517"/>
<polygon fill="black" stroke="black" points="174.19,-500.71 182.77,-502.52 178.09,-499.86 182,-499 182,-499 182,-499 178.09,-499.86 181.23,-495.48 174.19,-500.71 174.19,-500.71"/>
<ellipse fill="none" stroke="black" cx="171.06" cy="-501.4" rx="3.2" ry="3.2"/>
</g>
<!-- ecolgroups -->
<g id="node4" class="node">
<title>ecolgroups</title>
<g id="a_node4"><a xlink:href="../../tables/ecolgroups.html" xlink:title="ecolgroups" target="_top">
<polygon fill="#ffffff" stroke="transparent" points="370.5,-459 370.5,-517 474.5,-517 474.5,-459 370.5,-459"/>
<polygon fill="#f5f5f5" stroke="transparent" points="370.5,-495 370.5,-517 474.5,-517 474.5,-495 370.5,-495"/>
<polygon fill="none" stroke="black" points="370.5,-495 370.5,-517 474.5,-517 474.5,-495 370.5,-495"/>
<text text-anchor="start" x="375.5" y="-504.2" font-family="Helvetica,sans-Serif" font-weight="bold" font-size="11.00">ecolgroups</text>
<text text-anchor="start" x="439.5" y="-503.2" font-family="Helvetica,sans-Serif" font-size="11.00">[table]</text>
<polygon fill="none" stroke="black" points="370.5,-477 370.5,-495 474.5,-495 474.5,-477 370.5,-477"/>
<text text-anchor="start" x="373.5" y="-483.2" font-family="Helvetica,sans-Serif" font-size="11.00">...</text>
<polygon fill="#ffffff" stroke="transparent" points="370.5,-459 370.5,-477 393.5,-477 393.5,-459 370.5,-459"/>
<polygon fill="none" stroke="black" points="370.5,-459 370.5,-477 393.5,-477 393.5,-459 370.5,-459"/>
<text text-anchor="start" x="373.5" y="-465.2" font-family="Helvetica,sans-Serif" font-size="11.00">&lt; 3</text>
<polygon fill="#ffffff" stroke="transparent" points="393.5,-459 393.5,-477 460.5,-477 460.5,-459 393.5,-459"/>
<polygon fill="none" stroke="black" points="393.5,-459 393.5,-477 460.5,-477 460.5,-459 393.5,-459"/>
<text text-anchor="start" x="397.5" y="-465.2" font-family="Helvetica,sans-Serif" font-size="11.00">44,734 rows</text>
<polygon fill="#ffffff" stroke="transparent" points="460.5,-459 460.5,-477 474.5,-477 474.5,-459 460.5,-459"/>
<polygon fill="none" stroke="black" points="460.5,-459 460.5,-477 474.5,-477 474.5,-459 460.5,-459"/>
<text text-anchor="start" x="464.5" y="-465.2" font-family="Helvetica,sans-Serif" font-size="11.00"> &#160;</text>
</a>
</g>
</g>
<!-- ecolgroups&#45;&gt;taxa -->
<g id="edge3" class="edge">
<title>ecolgroups:w&#45;&gt;taxa:e</title>
<path fill="none" stroke="black" d="M355.46,-489.39C329.21,-504.52 343.91,-565 304,-565"/>
<polygon fill="black" stroke="black" points="361.72,-487.88 370.35,-489.5 365.61,-486.94 369.5,-486 369.5,-486 369.5,-486 365.61,-486.94 368.65,-482.5 361.72,-487.88 361.72,-487.88"/>
<ellipse fill="none" stroke="black" cx="358.61" cy="-488.63" rx="3.2" ry="3.2"/>
</g>
<!-- externaltaxa -->
<g id="node5" class="node">
<title>externaltaxa</title>
<g id="a_node5"><a xlink:href="../../tables/externaltaxa.html" xlink:title="externaltaxa" target="_top">
<polygon fill="#ffffff" stroke="transparent" points="368.5,-380 368.5,-438 476.5,-438 476.5,-380 368.5,-380"/>
<polygon fill="#f5f5f5" stroke="transparent" points="368.5,-416 368.5,-438 476.5,-438 476.5,-416 368.5,-416"/>
<polygon fill="none" stroke="black" points="368.5,-416 368.5,-438 476.5,-438 476.5,-416 368.5,-416"/>
<text text-anchor="start" x="373.5" y="-425.2" font-family="Helvetica,sans-Serif" font-weight="bold" font-size="11.00">externaltaxa</text>
<text text-anchor="start" x="441.5" y="-424.2" font-family="Helvetica,sans-Serif" font-size="11.00">[table]</text>
<polygon fill="none" stroke="black" points="368.5,-398 368.5,-416 476.5,-416 476.5,-398 368.5,-398"/>
<text text-anchor="start" x="371.5" y="-404.2" font-family="Helvetica,sans-Serif" font-size="11.00">...</text>
<polygon fill="#ffffff" stroke="transparent" points="368.5,-380 368.5,-398 393.5,-398 393.5,-380 368.5,-380"/>
<polygon fill="none" stroke="black" points="368.5,-380 368.5,-398 393.5,-398 393.5,-380 368.5,-380"/>
<text text-anchor="start" x="371.5" y="-386.2" font-family="Helvetica,sans-Serif" font-size="11.00">&lt; 2</text>
<polygon fill="#ffffff" stroke="transparent" points="393.5,-380 393.5,-398 461.5,-398 461.5,-380 393.5,-380"/>
<polygon fill="none" stroke="black" points="393.5,-380 393.5,-398 461.5,-398 461.5,-380 393.5,-380"/>
<text text-anchor="start" x="398.5" y="-386.2" font-family="Helvetica,sans-Serif" font-size="11.00">46,858 rows</text>
<polygon fill="#ffffff" stroke="transparent" points="461.5,-380 461.5,-398 476.5,-398 476.5,-380 461.5,-380"/>
<polygon fill="none" stroke="black" points="461.5,-380 461.5,-398 476.5,-398 476.5,-380 461.5,-380"/>
<text text-anchor="start" x="466.5" y="-386.2" font-family="Helvetica,sans-Serif" font-size="11.00"> &#160;</text>
</a>
</g>
</g>
<!-- externaltaxa&#45;&gt;taxa -->
<g id="edge4" class="edge">
<title>externaltaxa:w&#45;&gt;taxa:e</title>
<path fill="none" stroke="black" d="M353.22,-409.48C303.96,-429.58 374.06,-565 304,-565"/>
<polygon fill="black" stroke="black" points="359.62,-408.37 368.12,-410.55 363.56,-407.68 367.5,-407 367.5,-407 367.5,-407 363.56,-407.68 366.88,-403.45 359.62,-408.37 359.62,-408.37"/>
<ellipse fill="none" stroke="black" cx="356.47" cy="-408.92" rx="3.2" ry="3.2"/>
</g>
<!-- formtaxa -->
<g id="node6" class="node">
<title>formtaxa</title>
<g id="a_node6"><a xlink:href="../../tables/formtaxa.html" xlink:title="formtaxa" target="_top">
<polygon fill="#ffffff" stroke="transparent" points="377,-805 377,-863 468,-863 468,-805 377,-805"/>
<polygon fill="#f5f5f5" stroke="transparent" points="377.5,-841 377.5,-863 468.5,-863 468.5,-841 377.5,-841"/>
<polygon fill="none" stroke="black" points="377.5,-841 377.5,-863 468.5,-863 468.5,-841 377.5,-841"/>
<text text-anchor="start" x="382.5" y="-850.2" font-family="Helvetica,sans-Serif" font-weight="bold" font-size="11.00">formtaxa</text>
<text text-anchor="start" x="433.5" y="-849.2" font-family="Helvetica,sans-Serif" font-size="11.00">[table]</text>
<polygon fill="none" stroke="black" points="377.5,-823 377.5,-841 468.5,-841 468.5,-823 377.5,-823"/>
<text text-anchor="start" x="380.5" y="-829.2" font-family="Helvetica,sans-Serif" font-size="11.00">...</text>
<polygon fill="#ffffff" stroke="transparent" points="377.5,-805 377.5,-823 407.5,-823 407.5,-805 377.5,-805"/>
<polygon fill="none" stroke="black" points="377.5,-805 377.5,-823 407.5,-823 407.5,-805 377.5,-805"/>
<text text-anchor="start" x="380.5" y="-811.2" font-family="Helvetica,sans-Serif" font-size="11.00">&lt; 3</text>
<polygon fill="#ffffff" stroke="transparent" points="407.5,-805 407.5,-823 450.5,-823 450.5,-805 407.5,-805"/>
<polygon fill="none" stroke="black" points="407.5,-805 407.5,-823 450.5,-823 450.5,-805 407.5,-805"/>
<text text-anchor="start" x="414.5" y="-811.2" font-family="Helvetica,sans-Serif" font-size="11.00">3 rows</text>
<polygon fill="#ffffff" stroke="transparent" points="450.5,-805 450.5,-823 468.5,-823 468.5,-805 450.5,-805"/>
<polygon fill="none" stroke="black" points="450.5,-805 450.5,-823 468.5,-823 468.5,-805 450.5,-805"/>
<text text-anchor="start" x="458.5" y="-811.2" font-family="Helvetica,sans-Serif" font-size="11.00"> &#160;</text>
</a>
</g>
</g>
<!-- formtaxa&#45;&gt;taxa -->
<g id="edge5" class="edge">
<title>formtaxa:w&#45;&gt;taxa:e</title>
<path fill="none" stroke="black" d="M363.52,-825.53C353.51,-817.22 351.09,-803.81 344,-789 321.6,-742.21 355.88,-559 304,-565"/>
<polygon fill="black" stroke="black" points="369.34,-828.43 374.89,-835.22 372.92,-830.22 376.5,-832 376.5,-832 376.5,-832 372.92,-830.22 378.11,-828.78 369.34,-828.43 369.34,-828.43"/>
<ellipse fill="none" stroke="black" cx="366.48" cy="-827" rx="3.2" ry="3.2"/>
</g>
<!-- formtaxa&#45;&gt;taxa -->
<g id="edge7" class="edge">
<title>formtaxa:w&#45;&gt;taxa:e</title>
<path fill="none" stroke="black" d="M362.01,-832.52C353.25,-828.82 350.72,-816.04 344,-802 321.6,-755.21 355.88,-572 304,-565"/>
<polygon fill="black" stroke="black" points="368.51,-832.28 376.63,-835.6 372.5,-832.14 376.5,-832 376.5,-832 376.5,-832 372.5,-832.14 376.37,-828.4 368.51,-832.28 368.51,-832.28"/>
<ellipse fill="none" stroke="black" cx="365.31" cy="-832.4" rx="3.2" ry="3.2"/>
</g>
<!-- formtaxa&#45;&gt;publications -->
<g id="edge6" class="edge">
<title>formtaxa:w&#45;&gt;publications:e</title>
<path fill="none" stroke="black" d="M361.92,-832C264.26,-832 234.53,-832 130,-832"/>
<polygon fill="black" stroke="black" points="368.5,-832 376.5,-835.6 372.5,-832 376.5,-832 376.5,-832 376.5,-832 372.5,-832 376.5,-828.4 368.5,-832 368.5,-832"/>
<ellipse fill="none" stroke="black" cx="365.3" cy="-832" rx="3.2" ry="3.2"/>
</g>
<!-- isostratdata -->
<g id="node8" class="node">
<title>isostratdata</title>
<g id="a_node8"><a xlink:href="../../tables/isostratdata.html" xlink:title="isostratdata" target="_top">
<polygon fill="#ffffff" stroke="transparent" points="369,-301 369,-359 476,-359 476,-301 369,-301"/>
<polygon fill="#f5f5f5" stroke="transparent" points="369.5,-337 369.5,-359 476.5,-359 476.5,-337 369.5,-337"/>
<polygon fill="none" stroke="black" points="369.5,-337 369.5,-359 476.5,-359 476.5,-337 369.5,-337"/>
<text text-anchor="start" x="374.5" y="-346.2" font-family="Helvetica,sans-Serif" font-weight="bold" font-size="11.00">isostratdata</text>
<text text-anchor="start" x="441.5" y="-345.2" font-family="Helvetica,sans-Serif" font-size="11.00">[table]</text>
<polygon fill="none" stroke="black" points="369.5,-319 369.5,-337 476.5,-337 476.5,-319 369.5,-319"/>
<text text-anchor="start" x="372.5" y="-325.2" font-family="Helvetica,sans-Serif" font-size="11.00">...</text>
<polygon fill="#ffffff" stroke="transparent" points="369.5,-301 369.5,-319 401.5,-319 401.5,-301 369.5,-301"/>
<polygon fill="none" stroke="black" points="369.5,-301 369.5,-319 401.5,-319 401.5,-301 369.5,-301"/>
<text text-anchor="start" x="372.5" y="-307.2" font-family="Helvetica,sans-Serif" font-size="11.00">&lt; 3</text>
<polygon fill="#ffffff" stroke="transparent" points="401.5,-301 401.5,-319 457.5,-319 457.5,-301 401.5,-301"/>
<polygon fill="none" stroke="black" points="401.5,-301 401.5,-319 457.5,-319 457.5,-301 401.5,-301"/>
<text text-anchor="start" x="409.5" y="-307.2" font-family="Helvetica,sans-Serif" font-size="11.00">634 rows</text>
<polygon fill="#ffffff" stroke="transparent" points="457.5,-301 457.5,-319 476.5,-319 476.5,-301 457.5,-301"/>
<polygon fill="none" stroke="black" points="457.5,-301 457.5,-319 476.5,-319 476.5,-301 457.5,-301"/>
<text text-anchor="start" x="466.5" y="-307.2" font-family="Helvetica,sans-Serif" font-size="11.00"> &#160;</text>
</a>
</g>
</g>
<!-- isostratdata&#45;&gt;taxa -->
<g id="edge8" class="edge">
<title>isostratdata:w&#45;&gt;taxa:e</title>
<path fill="none" stroke="black" d="M355.16,-334.34C321.69,-372.03 353.25,-565 304,-565"/>
<polygon fill="black" stroke="black" points="361.27,-331.43 370.05,-331.25 364.89,-329.72 368.5,-328 368.5,-328 368.5,-328 364.89,-329.72 366.95,-324.75 361.27,-331.43 361.27,-331.43"/>
<ellipse fill="none" stroke="black" cx="358.38" cy="-332.81" rx="3.2" ry="3.2"/>
</g>
<!-- samples -->
<g id="node9" class="node">
<title>samples</title>
<g id="a_node9"><a xlink:href="../../tables/samples.html" xlink:title="samples" target="_top">
<polygon fill="#ffffff" stroke="transparent" points="364.5,-222 364.5,-280 480.5,-280 480.5,-222 364.5,-222"/>
<polygon fill="#f5f5f5" stroke="transparent" points="364.5,-258 364.5,-280 480.5,-280 480.5,-258 364.5,-258"/>
<polygon fill="none" stroke="black" points="364.5,-258 364.5,-280 480.5,-280 480.5,-258 364.5,-258"/>
<text text-anchor="start" x="369.5" y="-267.2" font-family="Helvetica,sans-Serif" font-weight="bold" font-size="11.00">samples</text>
<text text-anchor="start" x="445.5" y="-266.2" font-family="Helvetica,sans-Serif" font-size="11.00">[table]</text>
<polygon fill="none" stroke="black" points="364.5,-240 364.5,-258 480.5,-258 480.5,-240 364.5,-240"/>
<text text-anchor="start" x="367.5" y="-246.2" font-family="Helvetica,sans-Serif" font-size="11.00">...</text>
<polygon fill="#ffffff" stroke="transparent" points="364.5,-222 364.5,-240 386.5,-240 386.5,-222 364.5,-222"/>
<polygon fill="none" stroke="black" points="364.5,-222 364.5,-240 386.5,-240 386.5,-222 364.5,-222"/>
<text text-anchor="start" x="367.5" y="-228.2" font-family="Helvetica,sans-Serif" font-size="11.00">&lt; 3</text>
<polygon fill="#ffffff" stroke="transparent" points="386.5,-222 386.5,-240 458.5,-240 458.5,-222 386.5,-222"/>
<polygon fill="none" stroke="black" points="386.5,-222 386.5,-240 458.5,-240 458.5,-222 386.5,-222"/>
<text text-anchor="start" x="389.5" y="-228.2" font-family="Helvetica,sans-Serif" font-size="11.00">541,654 rows</text>
<polygon fill="#ffffff" stroke="transparent" points="458.5,-222 458.5,-240 480.5,-240 480.5,-222 458.5,-222"/>
<polygon fill="none" stroke="black" points="458.5,-222 458.5,-240 480.5,-240 480.5,-222 458.5,-222"/>
<text text-anchor="start" x="461.5" y="-228.2" font-family="Helvetica,sans-Serif" font-size="11.00">7 &gt;</text>
</a>
</g>
</g>
<!-- samples&#45;&gt;taxa -->
<g id="edge9" class="edge">
<title>samples:w&#45;&gt;taxa:e</title>
<path fill="none" stroke="black" d="M349.73,-254.22C303.85,-295.31 370.01,-565 304,-565"/>
<polygon fill="black" stroke="black" points="356.02,-251.84 364.78,-252.37 359.76,-250.42 363.5,-249 363.5,-249 363.5,-249 359.76,-250.42 362.22,-245.63 356.02,-251.84 356.02,-251.84"/>
<ellipse fill="none" stroke="black" cx="353.03" cy="-252.97" rx="3.2" ry="3.2"/>
</g>
<!-- specimendates -->
<g id="node10" class="node">
<title>specimendates</title>
<g id="a_node10"><a xlink:href="../../tables/specimendates.html" xlink:title="specimendates" target="_top">
<polygon fill="#ffffff" stroke="transparent" points="542,-196 542,-254 665,-254 665,-196 542,-196"/>
<polygon fill="#f5f5f5" stroke="transparent" points="542.5,-232 542.5,-254 665.5,-254 665.5,-232 542.5,-232"/>
<polygon fill="none" stroke="black" points="542.5,-232 542.5,-254 665.5,-254 665.5,-232 542.5,-232"/>
<text text-anchor="start" x="547.5" y="-241.2" font-family="Helvetica,sans-Serif" font-weight="bold" font-size="11.00">specimendates</text>
<text text-anchor="start" x="630.5" y="-240.2" font-family="Helvetica,sans-Serif" font-size="11.00">[table]</text>
<polygon fill="none" stroke="black" points="542.5,-214 542.5,-232 665.5,-232 665.5,-214 542.5,-214"/>
<text text-anchor="start" x="545.5" y="-220.2" font-family="Helvetica,sans-Serif" font-size="11.00">...</text>
<polygon fill="#ffffff" stroke="transparent" points="542.5,-196 542.5,-214 573.5,-214 573.5,-196 542.5,-196"/>
<polygon fill="none" stroke="black" points="542.5,-196 542.5,-214 573.5,-214 573.5,-196 542.5,-196"/>
<text text-anchor="start" x="545.5" y="-202.2" font-family="Helvetica,sans-Serif" font-size="11.00">&lt; 6</text>
<polygon fill="#ffffff" stroke="transparent" points="573.5,-196 573.5,-214 638.5,-214 638.5,-196 573.5,-196"/>
<polygon fill="none" stroke="black" points="573.5,-196 573.5,-214 638.5,-214 638.5,-196 573.5,-196"/>
<text text-anchor="start" x="581.5" y="-202.2" font-family="Helvetica,sans-Serif" font-size="11.00">2,662 rows</text>
<polygon fill="#ffffff" stroke="transparent" points="638.5,-196 638.5,-214 665.5,-214 665.5,-196 638.5,-196"/>
<polygon fill="none" stroke="black" points="638.5,-196 638.5,-214 665.5,-214 665.5,-196 638.5,-196"/>
<text text-anchor="start" x="646.5" y="-202.2" font-family="Helvetica,sans-Serif" font-size="11.00">1 &gt;</text>
</a>
</g>
</g>
<!-- specimendates&#45;&gt;taxa -->
<g id="edge11" class="edge">
<title>specimendates:w&#45;&gt;taxa:e</title>
<path fill="none" stroke="black" d="M527.25,-220.66C519.13,-217.72 513.63,-212.83 501,-211 431.94,-200.98 396.04,-164.51 344,-211 284.96,-263.74 383.17,-565 304,-565"/>
<polygon fill="black" stroke="black" points="533.61,-221.7 540.92,-226.55 537.55,-222.35 541.5,-223 541.5,-223 541.5,-223 537.55,-222.35 542.08,-219.45 533.61,-221.7 533.61,-221.7"/>
<ellipse fill="none" stroke="black" cx="530.45" cy="-221.18" rx="3.2" ry="3.2"/>
</g>
<!-- specimendates&#45;&gt;samples -->
<g id="edge10" class="edge">
<title>specimendates:w&#45;&gt;samples:e</title>
<path fill="none" stroke="black" d="M527.18,-225.59C510.67,-232.16 504.89,-249 481.5,-249"/>
<polygon fill="black" stroke="black" points="533.63,-224.42 542.14,-226.54 537.56,-223.71 541.5,-223 541.5,-223 541.5,-223 537.56,-223.71 540.86,-219.46 533.63,-224.42 533.63,-224.42"/>
<ellipse fill="none" stroke="black" cx="530.48" cy="-224.99" rx="3.2" ry="3.2"/>
</g>
<!-- synonyms -->
<g id="node11" class="node">
<title>synonyms</title>
<g id="a_node11"><a xlink:href="../../tables/synonyms.html" xlink:title="synonyms" target="_top">
<polygon fill="#ffffff" stroke="transparent" points="373,-116 373,-174 472,-174 472,-116 373,-116"/>
<polygon fill="#f5f5f5" stroke="transparent" points="373.5,-152 373.5,-174 472.5,-174 472.5,-152 373.5,-152"/>
<polygon fill="none" stroke="black" points="373.5,-152 373.5,-174 472.5,-174 472.5,-152 373.5,-152"/>
<text text-anchor="start" x="378.5" y="-161.2" font-family="Helvetica,sans-Serif" font-weight="bold" font-size="11.00">synonyms</text>
<text text-anchor="start" x="437.5" y="-160.2" font-family="Helvetica,sans-Serif" font-size="11.00">[table]</text>
<polygon fill="none" stroke="black" points="373.5,-134 373.5,-152 472.5,-152 472.5,-134 373.5,-134"/>
<text text-anchor="start" x="376.5" y="-140.2" font-family="Helvetica,sans-Serif" font-size="11.00">...</text>
<polygon fill="#ffffff" stroke="transparent" points="373.5,-116 373.5,-134 397.5,-134 397.5,-116 373.5,-116"/>
<polygon fill="none" stroke="black" points="373.5,-116 373.5,-134 397.5,-134 397.5,-116 373.5,-116"/>
<text text-anchor="start" x="376.5" y="-122.2" font-family="Helvetica,sans-Serif" font-size="11.00">&lt; 3</text>
<polygon fill="#ffffff" stroke="transparent" points="397.5,-116 397.5,-134 458.5,-134 458.5,-116 397.5,-116"/>
<polygon fill="none" stroke="black" points="397.5,-116 397.5,-134 458.5,-134 458.5,-116 397.5,-116"/>
<text text-anchor="start" x="401.5" y="-122.2" font-family="Helvetica,sans-Serif" font-size="11.00">2,821 rows</text>
<polygon fill="#ffffff" stroke="transparent" points="458.5,-116 458.5,-134 472.5,-134 472.5,-116 458.5,-116"/>
<polygon fill="none" stroke="black" points="458.5,-116 458.5,-134 472.5,-134 472.5,-116 458.5,-116"/>
<text text-anchor="start" x="462.5" y="-122.2" font-family="Helvetica,sans-Serif" font-size="11.00"> &#160;</text>
</a>
</g>
</g>
<!-- synonyms&#45;&gt;taxa -->
<g id="edge12" class="edge">
<title>synonyms:w&#45;&gt;taxa:e</title>
<path fill="none" stroke="black" d="M358.36,-145.95C290.57,-183.47 393.62,-559.34 304,-565"/>
<polygon fill="black" stroke="black" points="364.67,-144.63 373.23,-146.52 368.58,-143.82 372.5,-143 372.5,-143 372.5,-143 368.58,-143.82 371.77,-139.48 364.67,-144.63 364.67,-144.63"/>
<ellipse fill="none" stroke="black" cx="361.54" cy="-145.29" rx="3.2" ry="3.2"/>
</g>
<!-- synonyms&#45;&gt;taxa -->
<g id="edge13" class="edge">
<title>synonyms:w&#45;&gt;taxa:e</title>
<path fill="none" stroke="black" d="M358.78,-147.73C290.14,-194.87 393.81,-571.62 304,-565"/>
<polygon fill="black" stroke="black" points="364.94,-145.61 373.67,-146.4 368.72,-144.31 372.5,-143 372.5,-143 372.5,-143 368.72,-144.31 371.33,-139.6 364.94,-145.61 364.94,-145.61"/>
<ellipse fill="none" stroke="black" cx="361.91" cy="-146.65" rx="3.2" ry="3.2"/>
</g>
<!-- synonymy -->
<g id="node12" class="node">
<title>synonymy</title>
<g id="a_node12"><a xlink:href="../../tables/synonymy.html" xlink:title="synonymy" target="_top">
<polygon fill="#ffffff" stroke="transparent" points="372,-884 372,-942 473,-942 473,-884 372,-884"/>
<polygon fill="#f5f5f5" stroke="transparent" points="372.5,-920 372.5,-942 473.5,-942 473.5,-920 372.5,-920"/>
<polygon fill="none" stroke="black" points="372.5,-920 372.5,-942 473.5,-942 473.5,-920 372.5,-920"/>
<text text-anchor="start" x="377.5" y="-929.2" font-family="Helvetica,sans-Serif" font-weight="bold" font-size="11.00">synonymy</text>
<text text-anchor="start" x="438.5" y="-928.2" font-family="Helvetica,sans-Serif" font-size="11.00">[table]</text>
<polygon fill="none" stroke="black" points="372.5,-902 372.5,-920 473.5,-920 473.5,-902 372.5,-902"/>
<text text-anchor="start" x="375.5" y="-908.2" font-family="Helvetica,sans-Serif" font-size="11.00">...</text>
<polygon fill="#ffffff" stroke="transparent" points="372.5,-884 372.5,-902 394.5,-902 394.5,-884 372.5,-884"/>
<polygon fill="none" stroke="black" points="372.5,-884 372.5,-902 394.5,-902 394.5,-884 372.5,-884"/>
<text text-anchor="start" x="375.5" y="-890.2" font-family="Helvetica,sans-Serif" font-size="11.00">&lt; 5</text>
<polygon fill="#ffffff" stroke="transparent" points="394.5,-884 394.5,-902 460.5,-902 460.5,-884 394.5,-884"/>
<polygon fill="none" stroke="black" points="394.5,-884 394.5,-902 460.5,-902 460.5,-884 394.5,-884"/>
<text text-anchor="start" x="397.5" y="-890.2" font-family="Helvetica,sans-Serif" font-size="11.00">38,985 rows</text>
<polygon fill="#ffffff" stroke="transparent" points="460.5,-884 460.5,-902 473.5,-902 473.5,-884 460.5,-884"/>
<polygon fill="none" stroke="black" points="460.5,-884 460.5,-902 473.5,-902 473.5,-884 460.5,-884"/>
<text text-anchor="start" x="463.5" y="-890.2" font-family="Helvetica,sans-Serif" font-size="11.00"> &#160;</text>
</a>
</g>
</g>
<!-- synonymy&#45;&gt;contacts -->
<g id="edge14" class="edge">
<title>synonymy:w&#45;&gt;contacts:e</title>
<path fill="none" stroke="black" d="M357.36,-914.91C337.16,-918.1 298.64,-894.2 175,-609 143.74,-536.9 208.59,-438 130,-438"/>
<polygon fill="black" stroke="black" points="363.79,-913.13 372.46,-914.47 367.64,-912.07 371.5,-911 371.5,-911 371.5,-911 367.64,-912.07 370.54,-907.53 363.79,-913.13 363.79,-913.13"/>
<ellipse fill="none" stroke="black" cx="360.71" cy="-913.99" rx="3.2" ry="3.2"/>
</g>
<!-- synonymy&#45;&gt;taxa -->
<g id="edge16" class="edge">
<title>synonymy:w&#45;&gt;taxa:e</title>
<path fill="none" stroke="black" d="M358.01,-905.51C304.27,-860.6 377.14,-559.4 304,-565"/>
<polygon fill="black" stroke="black" points="364.09,-907.98 370.14,-914.33 367.8,-909.49 371.5,-911 371.5,-911 371.5,-911 367.8,-909.49 372.86,-907.67 364.09,-907.98 364.09,-907.98"/>
<ellipse fill="none" stroke="black" cx="361.13" cy="-906.78" rx="3.2" ry="3.2"/>
</g>
<!-- synonymy&#45;&gt;taxa -->
<g id="edge17" class="edge">
<title>synonymy:w&#45;&gt;taxa:e</title>
<path fill="none" stroke="black" d="M357.34,-907.48C304.87,-871.02 376.83,-571.51 304,-565"/>
<polygon fill="black" stroke="black" points="363.74,-909.07 370.63,-914.49 367.62,-910.04 371.5,-911 371.5,-911 371.5,-911 367.62,-910.04 372.37,-907.51 363.74,-909.07 363.74,-909.07"/>
<ellipse fill="none" stroke="black" cx="360.63" cy="-908.3" rx="3.2" ry="3.2"/>
</g>
<!-- synonymy&#45;&gt;publications -->
<g id="edge15" class="edge">
<title>synonymy:w&#45;&gt;publications:e</title>
<path fill="none" stroke="black" d="M357.03,-911.1C279.58,-912.14 248.55,-920.2 175,-881 148.91,-867.09 159.57,-832 130,-832"/>
<polygon fill="black" stroke="black" points="363.5,-911.06 371.52,-914.6 367.5,-911.03 371.5,-911 371.5,-911 371.5,-911 367.5,-911.03 371.48,-907.4 363.5,-911.06 363.5,-911.06"/>
<ellipse fill="none" stroke="black" cx="360.3" cy="-911.08" rx="3.2" ry="3.2"/>
</g>
<!-- taxaalthierarchy -->
<g id="node14" class="node">
<title>taxaalthierarchy</title>
<g id="a_node14"><a xlink:href="../../tables/taxaalthierarchy.html" xlink:title="taxaalthierarchy" target="_top">
<polygon fill="#ffffff" stroke="transparent" points="358,-726 358,-784 487,-784 487,-726 358,-726"/>
<polygon fill="#f5f5f5" stroke="transparent" points="358.5,-762 358.5,-784 487.5,-784 487.5,-762 358.5,-762"/>
<polygon fill="none" stroke="black" points="358.5,-762 358.5,-784 487.5,-784 487.5,-762 358.5,-762"/>
<text text-anchor="start" x="363.5" y="-771.2" font-family="Helvetica,sans-Serif" font-weight="bold" font-size="11.00">taxaalthierarchy</text>
<text text-anchor="start" x="452.5" y="-770.2" font-family="Helvetica,sans-Serif" font-size="11.00">[table]</text>
<polygon fill="none" stroke="black" points="358.5,-744 358.5,-762 487.5,-762 487.5,-744 358.5,-744"/>
<text text-anchor="start" x="361.5" y="-750.2" font-family="Helvetica,sans-Serif" font-size="11.00">...</text>
<polygon fill="#ffffff" stroke="transparent" points="358.5,-726 358.5,-744 407.5,-744 407.5,-726 358.5,-726"/>
<polygon fill="none" stroke="black" points="358.5,-726 358.5,-744 407.5,-744 407.5,-726 358.5,-726"/>
<text text-anchor="start" x="361.5" y="-732.2" font-family="Helvetica,sans-Serif" font-size="11.00">&lt; 3</text>
<polygon fill="#ffffff" stroke="transparent" points="407.5,-726 407.5,-744 460.5,-744 460.5,-726 407.5,-726"/>
<polygon fill="none" stroke="black" points="407.5,-726 407.5,-744 460.5,-744 460.5,-726 407.5,-726"/>
<text text-anchor="start" x="424.5" y="-732.2" font-family="Helvetica,sans-Serif" font-size="11.00">0 rows</text>
<polygon fill="#ffffff" stroke="transparent" points="460.5,-726 460.5,-744 487.5,-744 487.5,-726 460.5,-726"/>
<polygon fill="none" stroke="black" points="460.5,-726 460.5,-744 487.5,-744 487.5,-726 460.5,-726"/>
<text text-anchor="start" x="477.5" y="-732.2" font-family="Helvetica,sans-Serif" font-size="11.00"> &#160;</text>
</a>
</g>
</g>
<!-- taxaalthierarchy&#45;&gt;taxa -->
<g id="edge21" class="edge">
<title>taxaalthierarchy:w&#45;&gt;taxa:e</title>
<path fill="none" stroke="black" d="M343.17,-749.67C285.27,-723.57 385.27,-559.39 304,-565"/>
<polygon fill="black" stroke="black" points="349.71,-751.19 356.69,-756.51 353.6,-752.1 357.5,-753 357.5,-753 357.5,-753 353.6,-752.1 358.31,-749.49 349.71,-751.19 349.71,-751.19"/>
<ellipse fill="none" stroke="black" cx="346.59" cy="-750.47" rx="3.2" ry="3.2"/>
</g>
<!-- taxaalthierarchy&#45;&gt;taxa -->
<g id="edge22" class="edge">
<title>taxaalthierarchy:w&#45;&gt;taxa:e</title>
<path fill="none" stroke="black" d="M342.81,-751.92C285.68,-735.83 385.1,-571.54 304,-565"/>
<polygon fill="black" stroke="black" points="349.52,-752.42 357.24,-756.59 353.51,-752.71 357.5,-753 357.5,-753 357.5,-753 353.51,-752.71 357.76,-749.41 349.52,-752.42 349.52,-752.42"/>
<ellipse fill="none" stroke="black" cx="346.33" cy="-752.18" rx="3.2" ry="3.2"/>
</g>
<!-- taxonpaths -->
<g id="node15" class="node">
<title>taxonpaths</title>
<g id="a_node15"><a xlink:href="../../tables/taxonpaths.html" xlink:title="taxonpaths" target="_top">
<polygon fill="#ffffff" stroke="transparent" points="352,-617 352,-705 493,-705 493,-617 352,-617"/>
<polygon fill="#f5f5f5" stroke="transparent" points="354.5,-681 354.5,-703 491.5,-703 491.5,-681 354.5,-681"/>
<polygon fill="none" stroke="black" points="354.5,-681 354.5,-703 491.5,-703 491.5,-681 354.5,-681"/>
<text text-anchor="start" x="359.5" y="-690.2" font-family="Helvetica,sans-Serif" font-weight="bold" font-size="11.00">taxonpaths</text>
<text text-anchor="start" x="456.5" y="-689.2" font-family="Helvetica,sans-Serif" font-size="11.00">[table]</text>
<polygon fill="none" stroke="black" points="354.5,-659 354.5,-681 443.5,-681 443.5,-659 354.5,-659"/>
<image xlink:href="../../images/primaryKeys.png" width="11px" height="12px" preserveAspectRatio="xMinYMin meet" x="359.5" y="-676"/>
<text text-anchor="start" x="374.5" y="-667.2" font-family="Helvetica,sans-Serif" font-size="11.00">taxonout</text>
<polygon fill="none" stroke="black" points="443.5,-659 443.5,-681 491.5,-681 491.5,-659 443.5,-659"/>
<text text-anchor="start" x="446.5" y="-667.2" font-family="Helvetica,sans-Serif" font-size="11.00">_int4[10]</text>
<polygon fill="none" stroke="black" points="354.5,-637 354.5,-659 443.5,-659 443.5,-637 354.5,-637"/>
<image xlink:href="../../images/primaryKeys.png" width="11px" height="12px" preserveAspectRatio="xMinYMin meet" x="359.5" y="-654"/>
<text text-anchor="start" x="374.5" y="-645.2" font-family="Helvetica,sans-Serif" font-size="11.00">taxonid</text>
<polygon fill="none" stroke="black" points="443.5,-637 443.5,-659 491.5,-659 491.5,-637 443.5,-637"/>
<text text-anchor="start" x="446.5" y="-645.2" font-family="Helvetica,sans-Serif" font-size="11.00">int8[19]</text>
<polygon fill="#ffffff" stroke="transparent" points="354.5,-619 354.5,-637 390.5,-637 390.5,-619 354.5,-619"/>
<polygon fill="none" stroke="black" points="354.5,-619 354.5,-637 390.5,-637 390.5,-619 354.5,-619"/>
<text text-anchor="start" x="357.5" y="-625.2" font-family="Helvetica,sans-Serif" font-size="11.00">&lt; 1</text>
<polygon fill="#ffffff" stroke="transparent" points="390.5,-619 390.5,-637 443.5,-637 443.5,-619 390.5,-619"/>
<polygon fill="none" stroke="black" points="390.5,-619 390.5,-637 443.5,-637 443.5,-619 390.5,-619"/>
<text text-anchor="start" x="407.5" y="-625.2" font-family="Helvetica,sans-Serif" font-size="11.00">0 rows</text>
<polygon fill="#ffffff" stroke="transparent" points="443.5,-619 443.5,-637 491.5,-637 491.5,-619 443.5,-619"/>
<polygon fill="none" stroke="black" points="443.5,-619 443.5,-637 491.5,-637 491.5,-619 443.5,-619"/>
<text text-anchor="start" x="472.5" y="-625.2" font-family="Helvetica,sans-Serif" font-size="11.00">0 &gt;</text>
<polygon fill="none" stroke="black" stroke-width="2" points="353,-618 353,-704 492,-704 492,-618 353,-618"/>
</a>
</g>
</g>
<!-- taxonpaths&#45;&gt;taxa -->
<g id="edge23" class="edge">
<title>taxonpaths:w&#45;&gt;taxa:e</title>
<path fill="none" stroke="black" d="M339.65,-643.54C319.22,-626.3 340.91,-565 304,-565"/>
<polygon fill="black" stroke="black" points="345.89,-645.55 352.4,-651.43 349.69,-646.77 353.5,-648 353.5,-648 353.5,-648 349.69,-646.77 354.6,-644.57 345.89,-645.55 345.89,-645.55"/>
<ellipse fill="none" stroke="black" cx="342.84" cy="-644.57" rx="3.2" ry="3.2"/>
</g>
<!-- variables -->
<g id="node16" class="node">
<title>variables</title>
<g id="a_node16"><a xlink:href="../../tables/variables.html" xlink:title="variables" target="_top">
<polygon fill="#ffffff" stroke="transparent" points="367.5,-538 367.5,-596 477.5,-596 477.5,-538 367.5,-538"/>
<polygon fill="#f5f5f5" stroke="transparent" points="367.5,-574 367.5,-596 477.5,-596 477.5,-574 367.5,-574"/>
<polygon fill="none" stroke="black" points="367.5,-574 367.5,-596 477.5,-596 477.5,-574 367.5,-574"/>
<text text-anchor="start" x="372.5" y="-583.2" font-family="Helvetica,sans-Serif" font-weight="bold" font-size="11.00">variables</text>
<text text-anchor="start" x="442.5" y="-582.2" font-family="Helvetica,sans-Serif" font-size="11.00">[table]</text>
<polygon fill="none" stroke="black" points="367.5,-556 367.5,-574 477.5,-574 477.5,-556 367.5,-556"/>
<text text-anchor="start" x="370.5" y="-562.2" font-family="Helvetica,sans-Serif" font-size="11.00">...</text>
<polygon fill="#ffffff" stroke="transparent" points="367.5,-538 367.5,-556 389.5,-556 389.5,-538 367.5,-538"/>
<polygon fill="none" stroke="black" points="367.5,-538 367.5,-556 389.5,-556 389.5,-538 367.5,-538"/>
<text text-anchor="start" x="370.5" y="-544.2" font-family="Helvetica,sans-Serif" font-size="11.00">&lt; 4</text>
<polygon fill="#ffffff" stroke="transparent" points="389.5,-538 389.5,-556 455.5,-556 455.5,-538 389.5,-538"/>
<polygon fill="none" stroke="black" points="389.5,-538 389.5,-556 455.5,-556 455.5,-538 389.5,-538"/>
<text text-anchor="start" x="392.5" y="-544.2" font-family="Helvetica,sans-Serif" font-size="11.00">57,421 rows</text>
<polygon fill="#ffffff" stroke="transparent" points="455.5,-538 455.5,-556 477.5,-556 477.5,-538 455.5,-538"/>
<polygon fill="none" stroke="black" points="455.5,-538 455.5,-556 477.5,-556 477.5,-538 455.5,-538"/>
<text text-anchor="start" x="458.5" y="-544.2" font-family="Helvetica,sans-Serif" font-size="11.00">6 &gt;</text>
</a>
</g>
</g>
<!-- variables&#45;&gt;taxa -->
<g id="edge24" class="edge">
<title>variables:w&#45;&gt;taxa:e</title>
<path fill="none" stroke="black" d="M351.8,-565C335.04,-565 326.14,-565 304,-565"/>
<polygon fill="black" stroke="black" points="358.5,-565 366.5,-568.6 362.5,-565 366.5,-565 366.5,-565 366.5,-565 362.5,-565 366.5,-561.4 358.5,-565 358.5,-565"/>
<ellipse fill="none" stroke="black" cx="355.3" cy="-565" rx="3.2" ry="3.2"/>
</g>
</g>
</svg>
