<?xml version="1.0" encoding="UTF-8" standalone="no"?>
<!DOCTYPE svg PUBLIC "-//W3C//DTD SVG 1.1//EN"
 "http://www.w3.org/Graphics/SVG/1.1/DTD/svg11.dtd">
<!-- Generated by graphviz version 2.43.0 (0)
 -->
<!-- Title: twoDegreesRelationshipsDiagram Pages: 1 -->
<svg width="791pt" height="883pt"
 viewBox="0.00 0.00 791.00 883.30" xmlns="http://www.w3.org/2000/svg" xmlns:xlink="http://www.w3.org/1999/xlink">
<g id="graph0" class="graph" transform="scale(1 1) rotate(0) translate(4 879.3)">
<title>twoDegreesRelationshipsDiagram</title>
<polygon fill="#ffffff" stroke="transparent" points="-4,4 -4,-879.3 787,-879.3 787,4 -4,4"/>
<text text-anchor="middle" x="71.5" y="-7.2" font-family="Helvetica,sans-Serif" font-size="11.00">Generated by SchemaSpy</text>
<!-- accumulationrates -->
<g id="node1" class="node">
<title>accumulationrates</title>
<g id="a_node1"><a xlink:href="../../tables/accumulationrates.html" xlink:title="accumulationrates" target="_top">
<polygon fill="#ffffff" stroke="transparent" points="363.5,-703 363.5,-761 504.5,-761 504.5,-703 363.5,-703"/>
<polygon fill="#f5f5f5" stroke="transparent" points="364,-739 364,-761 505,-761 505,-739 364,-739"/>
<polygon fill="none" stroke="black" points="364,-739 364,-761 505,-761 505,-739 364,-739"/>
<text text-anchor="start" x="369" y="-748.2" font-family="Helvetica,sans-Serif" font-weight="bold" font-size="11.00">accumulationrates</text>
<text text-anchor="start" x="470" y="-747.2" font-family="Helvetica,sans-Serif" font-size="11.00">[table]</text>
<polygon fill="none" stroke="black" points="364,-721 364,-739 505,-739 505,-721 364,-721"/>
<text text-anchor="start" x="367" y="-727.2" font-family="Helvetica,sans-Serif" font-size="11.00">...</text>
<polygon fill="#ffffff" stroke="transparent" points="364,-703 364,-721 409,-721 409,-703 364,-703"/>
<polygon fill="none" stroke="black" points="364,-703 364,-721 409,-721 409,-703 364,-703"/>
<text text-anchor="start" x="367" y="-709.2" font-family="Helvetica,sans-Serif" font-size="11.00">&lt; 3</text>
<polygon fill="#ffffff" stroke="transparent" points="409,-703 409,-721 480,-721 480,-703 409,-703"/>
<polygon fill="none" stroke="black" points="409,-703 409,-721 480,-721 480,-703 409,-703"/>
<text text-anchor="start" x="423" y="-709.2" font-family="Helvetica,sans-Serif" font-size="11.00">1,089 rows</text>
<polygon fill="#ffffff" stroke="transparent" points="480,-703 480,-721 505,-721 505,-703 480,-703"/>
<polygon fill="none" stroke="black" points="480,-703 480,-721 505,-721 505,-703 480,-703"/>
<text text-anchor="start" x="495" y="-709.2" font-family="Helvetica,sans-Serif" font-size="11.00"> &#160;</text>
</a>
</g>
</g>
<!-- analysisunits -->
<g id="node2" class="node">
<title>analysisunits</title>
<g id="a_node2"><a xlink:href="../../tables/analysisunits.html" xlink:title="analysisunits" target="_top">
<polygon fill="#ffffff" stroke="transparent" points="179,-455 179,-579 307,-579 307,-455 179,-455"/>
<polygon fill="#f5f5f5" stroke="transparent" points="179,-557 179,-579 307,-579 307,-557 179,-557"/>
<polygon fill="none" stroke="black" points="179,-557 179,-579 307,-579 307,-557 179,-557"/>
<text text-anchor="start" x="184" y="-566.2" font-family="Helvetica,sans-Serif" font-weight="bold" font-size="11.00">analysisunits</text>
<text text-anchor="start" x="272" y="-565.2" font-family="Helvetica,sans-Serif" font-size="11.00">[table]</text>
<polygon fill="none" stroke="black" points="179,-535 179,-557 307,-557 307,-535 179,-535"/>
<image xlink:href="../../images/primaryKeys.png" width="11px" height="12px" preserveAspectRatio="xMinYMin meet" x="184" y="-552"/>
<text text-anchor="start" x="199" y="-543.2" font-family="Helvetica,sans-Serif" font-size="11.00">analysisunitid</text>
<polygon fill="#ffffff" stroke="transparent" points="179,-513 179,-535 307,-535 307,-513 179,-513"/>
<polygon fill="none" stroke="black" points="179,-513 179,-535 307,-535 307,-513 179,-513"/>
<image xlink:href="../../images/foreignKeys.png" width="11px" height="12px" preserveAspectRatio="xMinYMin meet" x="184" y="-530"/>
<text text-anchor="start" x="199" y="-521.2" font-family="Helvetica,sans-Serif" font-size="11.00">collectionunitid</text>
<polygon fill="#ffffff" stroke="transparent" points="179,-491 179,-513 307,-513 307,-491 179,-491"/>
<polygon fill="none" stroke="black" points="179,-491 179,-513 307,-513 307,-491 179,-491"/>
<image xlink:href="../../images/foreignKeys.png" width="11px" height="12px" preserveAspectRatio="xMinYMin meet" x="184" y="-508"/>
<text text-anchor="start" x="199" y="-499.2" font-family="Helvetica,sans-Serif" font-size="11.00">faciesid</text>
<polygon fill="none" stroke="black" points="179,-473 179,-491 307,-491 307,-473 179,-473"/>
<text text-anchor="start" x="182" y="-479.2" font-family="Helvetica,sans-Serif" font-size="11.00">...</text>
<polygon fill="#ffffff" stroke="transparent" points="179,-455 179,-473 204,-473 204,-455 179,-455"/>
<polygon fill="none" stroke="black" points="179,-455 179,-473 204,-473 204,-455 179,-455"/>
<text text-anchor="start" x="182" y="-461.2" font-family="Helvetica,sans-Serif" font-size="11.00">&lt; 2</text>
<polygon fill="#ffffff" stroke="transparent" points="204,-455 204,-473 277,-473 277,-455 204,-455"/>
<polygon fill="none" stroke="black" points="204,-455 204,-473 277,-473 277,-455 204,-455"/>
<text text-anchor="start" x="208" y="-461.2" font-family="Helvetica,sans-Serif" font-size="11.00">486,580 rows</text>
<polygon fill="#ffffff" stroke="transparent" points="277,-455 277,-473 307,-473 307,-455 277,-455"/>
<polygon fill="none" stroke="black" points="277,-455 277,-473 307,-473 307,-455 277,-455"/>
<text text-anchor="start" x="282" y="-461.2" font-family="Helvetica,sans-Serif" font-size="11.00">10 &gt;</text>
</a>
</g>
</g>
<!-- accumulationrates&#45;&gt;analysisunits -->
<g id="edge1" class="edge">
<title>accumulationrates:w&#45;&gt;analysisunits:e</title>
<path fill="none" stroke="black" d="M348.54,-727.67C292.13,-706.37 387.69,-546 308,-546"/>
<polygon fill="black" stroke="black" points="355.1,-728.73 362.43,-733.55 359.05,-729.36 363,-730 363,-730 363,-730 359.05,-729.36 363.57,-726.45 355.1,-728.73 355.1,-728.73"/>
<ellipse fill="none" stroke="black" cx="351.94" cy="-728.22" rx="3.2" ry="3.2"/>
</g>
<!-- collectionunits -->
<g id="node5" class="node">
<title>collectionunits</title>
<g id="a_node5"><a xlink:href="../../tables/collectionunits.html" xlink:title="collectionunits" target="_top">
<polygon fill="#ffffff" stroke="transparent" points="8,-525 8,-583 130,-583 130,-525 8,-525"/>
<polygon fill="#f5f5f5" stroke="transparent" points="8,-561 8,-583 130,-583 130,-561 8,-561"/>
<polygon fill="none" stroke="black" points="8,-561 8,-583 130,-583 130,-561 8,-561"/>
<text text-anchor="start" x="13" y="-570.2" font-family="Helvetica,sans-Serif" font-weight="bold" font-size="11.00">collectionunits</text>
<text text-anchor="start" x="95" y="-569.2" font-family="Helvetica,sans-Serif" font-size="11.00">[table]</text>
<polygon fill="none" stroke="black" points="8,-543 8,-561 130,-561 130,-543 8,-543"/>
<text text-anchor="start" x="11" y="-549.2" font-family="Helvetica,sans-Serif" font-size="11.00">...</text>
<polygon fill="#ffffff" stroke="transparent" points="8,-525 8,-543 36,-543 36,-525 8,-525"/>
<polygon fill="none" stroke="black" points="8,-525 8,-543 36,-543 36,-525 8,-525"/>
<text text-anchor="start" x="11" y="-531.2" font-family="Helvetica,sans-Serif" font-size="11.00">&lt; 4</text>
<polygon fill="#ffffff" stroke="transparent" points="36,-525 36,-543 105,-543 105,-525 36,-525"/>
<polygon fill="none" stroke="black" points="36,-525 36,-543 105,-543 105,-525 36,-525"/>
<text text-anchor="start" x="42" y="-531.2" font-family="Helvetica,sans-Serif" font-size="11.00">33,980 rows</text>
<polygon fill="#ffffff" stroke="transparent" points="105,-525 105,-543 130,-543 130,-525 105,-525"/>
<polygon fill="none" stroke="black" points="105,-525 105,-543 130,-543 130,-525 105,-525"/>
<text text-anchor="start" x="111" y="-531.2" font-family="Helvetica,sans-Serif" font-size="11.00">5 &gt;</text>
</a>
</g>
</g>
<!-- analysisunits&#45;&gt;collectionunits -->
<g id="edge4" class="edge">
<title>analysisunits:w&#45;&gt;collectionunits:e</title>
<path fill="none" stroke="black" d="M164.16,-528.13C152.95,-535.92 149.43,-552 131,-552"/>
<polygon fill="black" stroke="black" points="170.33,-526.29 179.03,-527.45 174.17,-525.14 178,-524 178,-524 178,-524 174.17,-525.14 176.97,-520.55 170.33,-526.29 170.33,-526.29"/>
<ellipse fill="none" stroke="black" cx="167.27" cy="-527.2" rx="3.2" ry="3.2"/>
</g>
<!-- faciestypes -->
<g id="node6" class="node">
<title>faciestypes</title>
<g id="a_node6"><a xlink:href="../../tables/faciestypes.html" xlink:title="faciestypes" target="_top">
<polygon fill="#ffffff" stroke="transparent" points="17,-446 17,-504 121,-504 121,-446 17,-446"/>
<polygon fill="#f5f5f5" stroke="transparent" points="17,-482 17,-504 121,-504 121,-482 17,-482"/>
<polygon fill="none" stroke="black" points="17,-482 17,-504 121,-504 121,-482 17,-482"/>
<text text-anchor="start" x="22" y="-491.2" font-family="Helvetica,sans-Serif" font-weight="bold" font-size="11.00">faciestypes</text>
<text text-anchor="start" x="86" y="-490.2" font-family="Helvetica,sans-Serif" font-size="11.00">[table]</text>
<polygon fill="none" stroke="black" points="17,-464 17,-482 121,-482 121,-464 17,-464"/>
<text text-anchor="start" x="20" y="-470.2" font-family="Helvetica,sans-Serif" font-size="11.00">...</text>
<polygon fill="#ffffff" stroke="transparent" points="17,-446 17,-464 39,-464 39,-446 17,-446"/>
<polygon fill="none" stroke="black" points="17,-446 17,-464 39,-464 39,-446 17,-446"/>
<text text-anchor="start" x="20" y="-452.2" font-family="Helvetica,sans-Serif" font-size="11.00"> &#160;</text>
<polygon fill="#ffffff" stroke="transparent" points="39,-446 39,-464 94,-464 94,-446 39,-446"/>
<polygon fill="none" stroke="black" points="39,-446 39,-464 94,-464 94,-446 39,-446"/>
<text text-anchor="start" x="46" y="-452.2" font-family="Helvetica,sans-Serif" font-size="11.00">103 rows</text>
<polygon fill="#ffffff" stroke="transparent" points="94,-446 94,-464 121,-464 121,-446 94,-446"/>
<polygon fill="none" stroke="black" points="94,-446 94,-464 121,-464 121,-446 94,-446"/>
<text text-anchor="start" x="102" y="-452.2" font-family="Helvetica,sans-Serif" font-size="11.00">1 &gt;</text>
</a>
</g>
</g>
<!-- analysisunits&#45;&gt;faciestypes -->
<g id="edge5" class="edge">
<title>analysisunits:w&#45;&gt;faciestypes:e</title>
<path fill="none" stroke="black" d="M163.93,-498.9C148.84,-491.42 144.33,-473 122,-473"/>
<polygon fill="black" stroke="black" points="170.19,-500.28 177.22,-505.52 174.09,-501.14 178,-502 178,-502 178,-502 174.09,-501.14 178.78,-498.48 170.19,-500.28 170.19,-500.28"/>
<ellipse fill="none" stroke="black" cx="167.06" cy="-499.59" rx="3.2" ry="3.2"/>
</g>
<!-- analysisunitaltdepths -->
<g id="node3" class="node">
<title>analysisunitaltdepths</title>
<g id="a_node3"><a xlink:href="../../tables/analysisunitaltdepths.html" xlink:title="analysisunitaltdepths" target="_top">
<polygon fill="#ffffff" stroke="transparent" points="356,-624 356,-682 512,-682 512,-624 356,-624"/>
<polygon fill="#f5f5f5" stroke="transparent" points="356,-660 356,-682 512,-682 512,-660 356,-660"/>
<polygon fill="none" stroke="black" points="356,-660 356,-682 512,-682 512,-660 356,-660"/>
<text text-anchor="start" x="361" y="-669.2" font-family="Helvetica,sans-Serif" font-weight="bold" font-size="11.00">analysisunitaltdepths</text>
<text text-anchor="start" x="477" y="-668.2" font-family="Helvetica,sans-Serif" font-size="11.00">[table]</text>
<polygon fill="none" stroke="black" points="356,-642 356,-660 512,-660 512,-642 356,-642"/>
<text text-anchor="start" x="359" y="-648.2" font-family="Helvetica,sans-Serif" font-size="11.00">...</text>
<polygon fill="#ffffff" stroke="transparent" points="356,-624 356,-642 408,-642 408,-624 356,-624"/>
<polygon fill="none" stroke="black" points="356,-624 356,-642 408,-642 408,-624 356,-624"/>
<text text-anchor="start" x="359" y="-630.2" font-family="Helvetica,sans-Serif" font-size="11.00">&lt; 2</text>
<polygon fill="#ffffff" stroke="transparent" points="408,-624 408,-642 483,-642 483,-624 408,-624"/>
<polygon fill="none" stroke="black" points="408,-624 408,-642 483,-642 483,-624 408,-624"/>
<text text-anchor="start" x="426" y="-630.2" font-family="Helvetica,sans-Serif" font-size="11.00">7,492 rows</text>
<polygon fill="#ffffff" stroke="transparent" points="483,-624 483,-642 512,-642 512,-624 483,-624"/>
<polygon fill="none" stroke="black" points="483,-624 483,-642 512,-642 512,-624 483,-624"/>
<text text-anchor="start" x="502" y="-630.2" font-family="Helvetica,sans-Serif" font-size="11.00"> &#160;</text>
</a>
</g>
</g>
<!-- analysisunitaltdepths&#45;&gt;analysisunits -->
<g id="edge2" class="edge">
<title>analysisunitaltdepths:w&#45;&gt;analysisunits:e</title>
<path fill="none" stroke="black" d="M341.07,-647.01C315.36,-627.83 353.14,-546 308,-546"/>
<polygon fill="black" stroke="black" points="347.31,-648.8 354.01,-654.46 351.15,-649.9 355,-651 355,-651 355,-651 351.15,-649.9 355.99,-647.54 347.31,-648.8 347.31,-648.8"/>
<ellipse fill="none" stroke="black" cx="344.23" cy="-647.92" rx="3.2" ry="3.2"/>
</g>
<!-- analysisunitlithostrat -->
<g id="node4" class="node">
<title>analysisunitlithostrat</title>
<g id="a_node4"><a xlink:href="../../tables/analysisunitlithostrat.html" xlink:title="analysisunitlithostrat" target="_top">
<polygon fill="#ffffff" stroke="transparent" points="356.5,-545 356.5,-603 511.5,-603 511.5,-545 356.5,-545"/>
<polygon fill="#f5f5f5" stroke="transparent" points="357,-581 357,-603 512,-603 512,-581 357,-581"/>
<polygon fill="none" stroke="black" points="357,-581 357,-603 512,-603 512,-581 357,-581"/>
<text text-anchor="start" x="362" y="-590.2" font-family="Helvetica,sans-Serif" font-weight="bold" font-size="11.00">analysisunitlithostrat</text>
<text text-anchor="start" x="477" y="-589.2" font-family="Helvetica,sans-Serif" font-size="11.00">[table]</text>
<polygon fill="none" stroke="black" points="357,-563 357,-581 512,-581 512,-563 357,-563"/>
<text text-anchor="start" x="360" y="-569.2" font-family="Helvetica,sans-Serif" font-size="11.00">...</text>
<polygon fill="#ffffff" stroke="transparent" points="357,-545 357,-563 419,-563 419,-545 357,-545"/>
<polygon fill="none" stroke="black" points="357,-545 357,-563 419,-563 419,-545 357,-545"/>
<text text-anchor="start" x="360" y="-551.2" font-family="Helvetica,sans-Serif" font-size="11.00">&lt; 2</text>
<polygon fill="#ffffff" stroke="transparent" points="419,-545 419,-563 478,-563 478,-545 419,-545"/>
<polygon fill="none" stroke="black" points="419,-545 419,-563 478,-563 478,-545 419,-545"/>
<text text-anchor="start" x="442" y="-551.2" font-family="Helvetica,sans-Serif" font-size="11.00">0 rows</text>
<polygon fill="#ffffff" stroke="transparent" points="478,-545 478,-563 512,-563 512,-545 478,-545"/>
<polygon fill="none" stroke="black" points="478,-545 478,-563 512,-563 512,-545 478,-545"/>
<text text-anchor="start" x="502" y="-551.2" font-family="Helvetica,sans-Serif" font-size="11.00"> &#160;</text>
</a>
</g>
</g>
<!-- analysisunitlithostrat&#45;&gt;analysisunits -->
<g id="edge3" class="edge">
<title>analysisunitlithostrat:w&#45;&gt;analysisunits:e</title>
<path fill="none" stroke="black" d="M342.03,-568.16C330.54,-560.93 326.39,-546 308,-546"/>
<polygon fill="black" stroke="black" points="348.29,-569.88 355.05,-575.47 352.14,-570.94 356,-572 356,-572 356,-572 352.14,-570.94 356.95,-568.53 348.29,-569.88 348.29,-569.88"/>
<ellipse fill="none" stroke="black" cx="345.2" cy="-569.03" rx="3.2" ry="3.2"/>
</g>
<!-- chroncontrols -->
<g id="node7" class="node">
<title>chroncontrols</title>
<g id="a_node7"><a xlink:href="../../tables/chroncontrols.html" xlink:title="chroncontrols" target="_top">
<polygon fill="#ffffff" stroke="transparent" points="374.5,-782 374.5,-840 493.5,-840 493.5,-782 374.5,-782"/>
<polygon fill="#f5f5f5" stroke="transparent" points="375,-818 375,-840 494,-840 494,-818 375,-818"/>
<polygon fill="none" stroke="black" points="375,-818 375,-840 494,-840 494,-818 375,-818"/>
<text text-anchor="start" x="380" y="-827.2" font-family="Helvetica,sans-Serif" font-weight="bold" font-size="11.00">chroncontrols</text>
<text text-anchor="start" x="459" y="-826.2" font-family="Helvetica,sans-Serif" font-size="11.00">[table]</text>
<polygon fill="none" stroke="black" points="375,-800 375,-818 494,-818 494,-800 375,-800"/>
<text text-anchor="start" x="378" y="-806.2" font-family="Helvetica,sans-Serif" font-size="11.00">...</text>
<polygon fill="#ffffff" stroke="transparent" points="375,-782 375,-800 398,-800 398,-782 375,-782"/>
<polygon fill="none" stroke="black" points="375,-782 375,-800 398,-800 398,-782 375,-782"/>
<text text-anchor="start" x="378" y="-788.2" font-family="Helvetica,sans-Serif" font-size="11.00">&lt; 4</text>
<polygon fill="#ffffff" stroke="transparent" points="398,-782 398,-800 471,-800 471,-782 398,-782"/>
<polygon fill="none" stroke="black" points="398,-782 398,-800 471,-800 471,-782 398,-782"/>
<text text-anchor="start" x="402" y="-788.2" font-family="Helvetica,sans-Serif" font-size="11.00">103,140 rows</text>
<polygon fill="#ffffff" stroke="transparent" points="471,-782 471,-800 494,-800 494,-782 471,-782"/>
<polygon fill="none" stroke="black" points="471,-782 471,-800 494,-800 494,-782 471,-782"/>
<text text-anchor="start" x="475" y="-788.2" font-family="Helvetica,sans-Serif" font-size="11.00">5 &gt;</text>
</a>
</g>
</g>
<!-- chroncontrols&#45;&gt;analysisunits -->
<g id="edge6" class="edge">
<title>chroncontrols:w&#45;&gt;analysisunits:e</title>
<path fill="none" stroke="black" d="M360.37,-803.01C322.61,-763.87 362.84,-546 308,-546"/>
<polygon fill="black" stroke="black" points="366.68,-805.78 372.55,-812.3 370.34,-807.39 374,-809 374,-809 374,-809 370.34,-807.39 375.45,-805.7 366.68,-805.78 366.68,-805.78"/>
<ellipse fill="none" stroke="black" cx="363.75" cy="-804.5" rx="3.2" ry="3.2"/>
</g>
<!-- depagents -->
<g id="node8" class="node">
<title>depagents</title>
<g id="a_node8"><a xlink:href="../../tables/depagents.html" xlink:title="depagents" target="_top">
<polygon fill="#ffffff" stroke="transparent" points="384.5,-439 384.5,-497 483.5,-497 483.5,-439 384.5,-439"/>
<polygon fill="#f5f5f5" stroke="transparent" points="385,-475 385,-497 484,-497 484,-475 385,-475"/>
<polygon fill="none" stroke="black" points="385,-475 385,-497 484,-497 484,-475 385,-475"/>
<text text-anchor="start" x="390" y="-484.2" font-family="Helvetica,sans-Serif" font-weight="bold" font-size="11.00">depagents</text>
<text text-anchor="start" x="449" y="-483.2" font-family="Helvetica,sans-Serif" font-size="11.00">[table]</text>
<polygon fill="none" stroke="black" points="385,-457 385,-475 484,-475 484,-457 385,-457"/>
<text text-anchor="start" x="388" y="-463.2" font-family="Helvetica,sans-Serif" font-size="11.00">...</text>
<polygon fill="#ffffff" stroke="transparent" points="385,-439 385,-457 409,-457 409,-439 385,-439"/>
<polygon fill="none" stroke="black" points="385,-439 385,-457 409,-457 409,-439 385,-439"/>
<text text-anchor="start" x="388" y="-445.2" font-family="Helvetica,sans-Serif" font-size="11.00">&lt; 2</text>
<polygon fill="#ffffff" stroke="transparent" points="409,-439 409,-457 470,-457 470,-439 409,-439"/>
<polygon fill="none" stroke="black" points="409,-439 409,-457 470,-457 470,-439 409,-439"/>
<text text-anchor="start" x="413" y="-445.2" font-family="Helvetica,sans-Serif" font-size="11.00">5,273 rows</text>
<polygon fill="#ffffff" stroke="transparent" points="470,-439 470,-457 484,-457 484,-439 470,-439"/>
<polygon fill="none" stroke="black" points="470,-439 470,-457 484,-457 484,-439 470,-439"/>
<text text-anchor="start" x="474" y="-445.2" font-family="Helvetica,sans-Serif" font-size="11.00"> &#160;</text>
</a>
</g>
</g>
<!-- depagents&#45;&gt;analysisunits -->
<g id="edge7" class="edge">
<title>depagents:w&#45;&gt;analysisunits:e</title>
<path fill="none" stroke="black" d="M369.86,-468.85C339.05,-483.1 351.49,-546 308,-546"/>
<polygon fill="black" stroke="black" points="376.16,-467.58 384.71,-469.53 380.08,-466.79 384,-466 384,-466 384,-466 380.08,-466.79 383.29,-462.47 376.16,-467.58 376.16,-467.58"/>
<ellipse fill="none" stroke="black" cx="373.02" cy="-468.21" rx="3.2" ry="3.2"/>
</g>
<!-- eventchronology -->
<g id="node9" class="node">
<title>eventchronology</title>
<g id="a_node9"><a xlink:href="../../tables/eventchronology.html" xlink:title="eventchronology" target="_top">
<polygon fill="#ffffff" stroke="transparent" points="601.5,-494 601.5,-552 734.5,-552 734.5,-494 601.5,-494"/>
<polygon fill="#f5f5f5" stroke="transparent" points="602,-530 602,-552 735,-552 735,-530 602,-530"/>
<polygon fill="none" stroke="black" points="602,-530 602,-552 735,-552 735,-530 602,-530"/>
<text text-anchor="start" x="607" y="-539.2" font-family="Helvetica,sans-Serif" font-weight="bold" font-size="11.00">eventchronology</text>
<text text-anchor="start" x="700" y="-538.2" font-family="Helvetica,sans-Serif" font-size="11.00">[table]</text>
<polygon fill="none" stroke="black" points="602,-512 602,-530 735,-530 735,-512 602,-512"/>
<text text-anchor="start" x="605" y="-518.2" font-family="Helvetica,sans-Serif" font-size="11.00">...</text>
<polygon fill="#ffffff" stroke="transparent" points="602,-494 602,-512 647,-512 647,-494 602,-494"/>
<polygon fill="none" stroke="black" points="602,-494 602,-512 647,-512 647,-494 602,-494"/>
<text text-anchor="start" x="605" y="-500.2" font-family="Helvetica,sans-Serif" font-size="11.00">&lt; 3</text>
<polygon fill="#ffffff" stroke="transparent" points="647,-494 647,-512 710,-512 710,-494 647,-494"/>
<polygon fill="none" stroke="black" points="647,-494 647,-512 710,-512 710,-494 647,-494"/>
<text text-anchor="start" x="662" y="-500.2" font-family="Helvetica,sans-Serif" font-size="11.00">276 rows</text>
<polygon fill="#ffffff" stroke="transparent" points="710,-494 710,-512 735,-512 735,-494 710,-494"/>
<polygon fill="none" stroke="black" points="710,-494 710,-512 735,-512 735,-494 710,-494"/>
<text text-anchor="start" x="725" y="-500.2" font-family="Helvetica,sans-Serif" font-size="11.00"> &#160;</text>
</a>
</g>
</g>
<!-- eventchronology&#45;&gt;analysisunits -->
<g id="edge8" class="edge">
<title>eventchronology:w&#45;&gt;analysisunits:e</title>
<path fill="none" stroke="black" d="M586.31,-520.98C485.59,-520.67 454.15,-517.67 348,-535 329.8,-537.97 326.44,-546 308,-546"/>
<polygon fill="black" stroke="black" points="593,-520.99 600.99,-524.6 597,-520.99 601,-521 601,-521 601,-521 597,-520.99 601.01,-517.4 593,-520.99 593,-520.99"/>
<ellipse fill="none" stroke="black" cx="589.8" cy="-520.98" rx="3.2" ry="3.2"/>
</g>
<!-- eventchronology&#45;&gt;chroncontrols -->
<g id="edge9" class="edge">
<title>eventchronology:w&#45;&gt;chroncontrols:e</title>
<path fill="none" stroke="black" d="M586.37,-522.28C477.17,-543.06 626.07,-809 495,-809"/>
<polygon fill="black" stroke="black" points="593.03,-521.7 601.31,-524.59 597.02,-521.35 601,-521 601,-521 601,-521 597.02,-521.35 600.69,-517.41 593.03,-521.7 593.03,-521.7"/>
<ellipse fill="none" stroke="black" cx="589.84" cy="-521.98" rx="3.2" ry="3.2"/>
</g>
<!-- events -->
<g id="node10" class="node">
<title>events</title>
<g id="a_node10"><a xlink:href="../../tables/events.html" xlink:title="events" target="_top">
<polygon fill="#ffffff" stroke="transparent" points="374,-158 374,-260 494,-260 494,-158 374,-158"/>
<polygon fill="#f5f5f5" stroke="transparent" points="374,-238 374,-260 494,-260 494,-238 374,-238"/>
<polygon fill="none" stroke="black" points="374,-238 374,-260 494,-260 494,-238 374,-238"/>
<text text-anchor="start" x="379" y="-247.2" font-family="Helvetica,sans-Serif" font-weight="bold" font-size="11.00">events</text>
<text text-anchor="start" x="459" y="-246.2" font-family="Helvetica,sans-Serif" font-size="11.00">[table]</text>
<polygon fill="none" stroke="black" points="374,-216 374,-238 494,-238 494,-216 374,-216"/>
<image xlink:href="../../images/primaryKeys.png" width="11px" height="12px" preserveAspectRatio="xMinYMin meet" x="379" y="-233"/>
<text text-anchor="start" x="394" y="-224.2" font-family="Helvetica,sans-Serif" font-size="11.00">eventid</text>
<polygon fill="none" stroke="black" points="374,-194 374,-216 494,-216 494,-194 374,-194"/>
<image xlink:href="../../images/foreignKeys.png" width="11px" height="12px" preserveAspectRatio="xMinYMin meet" x="379" y="-211"/>
<text text-anchor="start" x="394" y="-202.2" font-family="Helvetica,sans-Serif" font-size="11.00">eventtypeid</text>
<polygon fill="none" stroke="black" points="374,-176 374,-194 494,-194 494,-176 374,-176"/>
<text text-anchor="start" x="377" y="-182.2" font-family="Helvetica,sans-Serif" font-size="11.00">...</text>
<polygon fill="#ffffff" stroke="transparent" points="374,-158 374,-176 408,-176 408,-158 374,-158"/>
<polygon fill="none" stroke="black" points="374,-158 374,-176 408,-176 408,-158 374,-158"/>
<text text-anchor="start" x="377" y="-164.2" font-family="Helvetica,sans-Serif" font-size="11.00">&lt; 1</text>
<polygon fill="#ffffff" stroke="transparent" points="408,-158 408,-176 465,-176 465,-158 408,-158"/>
<polygon fill="none" stroke="black" points="408,-158 408,-176 465,-176 465,-158 408,-158"/>
<text text-anchor="start" x="417" y="-164.2" font-family="Helvetica,sans-Serif" font-size="11.00">371 rows</text>
<polygon fill="#ffffff" stroke="transparent" points="465,-158 465,-176 494,-176 494,-158 465,-158"/>
<polygon fill="none" stroke="black" points="465,-158 465,-176 494,-176 494,-158 465,-158"/>
<text text-anchor="start" x="475" y="-164.2" font-family="Helvetica,sans-Serif" font-size="11.00">3 &gt;</text>
</a>
</g>
</g>
<!-- eventchronology&#45;&gt;events -->
<g id="edge10" class="edge">
<title>eventchronology:w&#45;&gt;events:e</title>
<path fill="none" stroke="black" d="M587.14,-516.38C535.87,-478.98 559.3,-227 495,-227"/>
<polygon fill="black" stroke="black" points="593.41,-518.47 599.86,-524.42 597.21,-519.74 601,-521 601,-521 601,-521 597.21,-519.74 602.14,-517.58 593.41,-518.47 593.41,-518.47"/>
<ellipse fill="none" stroke="black" cx="590.37" cy="-517.46" rx="3.2" ry="3.2"/>
</g>
<!-- eventtypes -->
<g id="node12" class="node">
<title>eventtypes</title>
<g id="a_node12"><a xlink:href="../../tables/eventtypes.html" xlink:title="eventtypes" target="_top">
<polygon fill="#ffffff" stroke="transparent" points="192,-178 192,-236 294,-236 294,-178 192,-178"/>
<polygon fill="#f5f5f5" stroke="transparent" points="192,-214 192,-236 294,-236 294,-214 192,-214"/>
<polygon fill="none" stroke="black" points="192,-214 192,-236 294,-236 294,-214 192,-214"/>
<text text-anchor="start" x="197" y="-223.2" font-family="Helvetica,sans-Serif" font-weight="bold" font-size="11.00">eventtypes</text>
<text text-anchor="start" x="259" y="-222.2" font-family="Helvetica,sans-Serif" font-size="11.00">[table]</text>
<polygon fill="none" stroke="black" points="192,-196 192,-214 294,-214 294,-196 192,-196"/>
<text text-anchor="start" x="195" y="-202.2" font-family="Helvetica,sans-Serif" font-size="11.00">...</text>
<polygon fill="#ffffff" stroke="transparent" points="192,-178 192,-196 223,-196 223,-178 192,-178"/>
<polygon fill="none" stroke="black" points="192,-178 192,-196 223,-196 223,-178 192,-178"/>
<text text-anchor="start" x="195" y="-184.2" font-family="Helvetica,sans-Serif" font-size="11.00">&lt; 1</text>
<polygon fill="#ffffff" stroke="transparent" points="223,-178 223,-196 267,-196 267,-178 223,-178"/>
<polygon fill="none" stroke="black" points="223,-178 223,-196 267,-196 267,-178 223,-178"/>
<text text-anchor="start" x="231" y="-184.2" font-family="Helvetica,sans-Serif" font-size="11.00">9 rows</text>
<polygon fill="#ffffff" stroke="transparent" points="267,-178 267,-196 294,-196 294,-178 267,-178"/>
<polygon fill="none" stroke="black" points="267,-178 267,-196 294,-196 294,-178 267,-178"/>
<text text-anchor="start" x="275" y="-184.2" font-family="Helvetica,sans-Serif" font-size="11.00">1 &gt;</text>
</a>
</g>
</g>
<!-- events&#45;&gt;eventtypes -->
<g id="edge12" class="edge">
<title>events:w&#45;&gt;eventtypes:e</title>
<path fill="none" stroke="black" d="M358.46,-205C334.99,-205 324.25,-205 295,-205"/>
<polygon fill="black" stroke="black" points="365,-205 373,-208.6 369,-205 373,-205 373,-205 373,-205 369,-205 373,-201.4 365,-205 365,-205"/>
<ellipse fill="none" stroke="black" cx="361.8" cy="-205" rx="3.2" ry="3.2"/>
</g>
<!-- eventpublications -->
<g id="node11" class="node">
<title>eventpublications</title>
<g id="a_node11"><a xlink:href="../../tables/eventpublications.html" xlink:title="eventpublications" target="_top">
<polygon fill="#ffffff" stroke="transparent" points="599,-234 599,-292 737,-292 737,-234 599,-234"/>
<polygon fill="#f5f5f5" stroke="transparent" points="599,-270 599,-292 737,-292 737,-270 599,-270"/>
<polygon fill="none" stroke="black" points="599,-270 599,-292 737,-292 737,-270 599,-270"/>
<text text-anchor="start" x="604" y="-279.2" font-family="Helvetica,sans-Serif" font-weight="bold" font-size="11.00">eventpublications</text>
<text text-anchor="start" x="702" y="-278.2" font-family="Helvetica,sans-Serif" font-size="11.00">[table]</text>
<polygon fill="none" stroke="black" points="599,-252 599,-270 737,-270 737,-252 599,-252"/>
<text text-anchor="start" x="602" y="-258.2" font-family="Helvetica,sans-Serif" font-size="11.00">...</text>
<polygon fill="#ffffff" stroke="transparent" points="599,-234 599,-252 647,-252 647,-234 599,-234"/>
<polygon fill="none" stroke="black" points="599,-234 599,-252 647,-252 647,-234 599,-234"/>
<text text-anchor="start" x="602" y="-240.2" font-family="Helvetica,sans-Serif" font-size="11.00">&lt; 2</text>
<polygon fill="#ffffff" stroke="transparent" points="647,-234 647,-252 711,-252 711,-234 647,-234"/>
<polygon fill="none" stroke="black" points="647,-234 647,-252 711,-252 711,-234 647,-234"/>
<text text-anchor="start" x="663" y="-240.2" font-family="Helvetica,sans-Serif" font-size="11.00">378 rows</text>
<polygon fill="#ffffff" stroke="transparent" points="711,-234 711,-252 737,-252 737,-234 711,-234"/>
<polygon fill="none" stroke="black" points="711,-234 711,-252 737,-252 737,-234 711,-234"/>
<text text-anchor="start" x="727" y="-240.2" font-family="Helvetica,sans-Serif" font-size="11.00"> &#160;</text>
</a>
</g>
</g>
<!-- eventpublications&#45;&gt;events -->
<g id="edge11" class="edge">
<title>eventpublications:w&#45;&gt;events:e</title>
<path fill="none" stroke="black" d="M583.57,-259.87C547.85,-253.97 537.93,-227 495,-227"/>
<polygon fill="black" stroke="black" points="590.02,-260.37 597.72,-264.59 594.01,-260.69 598,-261 598,-261 598,-261 594.01,-260.69 598.28,-257.41 590.02,-260.37 590.02,-260.37"/>
<ellipse fill="none" stroke="black" cx="586.83" cy="-260.12" rx="3.2" ry="3.2"/>
</g>
<!-- leadmodels -->
<g id="node13" class="node">
<title>leadmodels</title>
<g id="a_node13"><a xlink:href="../../tables/leadmodels.html" xlink:title="leadmodels" target="_top">
<polygon fill="#ffffff" stroke="transparent" points="381.5,-360 381.5,-418 486.5,-418 486.5,-360 381.5,-360"/>
<polygon fill="#f5f5f5" stroke="transparent" points="382,-396 382,-418 487,-418 487,-396 382,-396"/>
<polygon fill="none" stroke="black" points="382,-396 382,-418 487,-418 487,-396 382,-396"/>
<text text-anchor="start" x="387" y="-405.2" font-family="Helvetica,sans-Serif" font-weight="bold" font-size="11.00">leadmodels</text>
<text text-anchor="start" x="452" y="-404.2" font-family="Helvetica,sans-Serif" font-size="11.00">[table]</text>
<polygon fill="none" stroke="black" points="382,-378 382,-396 487,-396 487,-378 382,-378"/>
<text text-anchor="start" x="385" y="-384.2" font-family="Helvetica,sans-Serif" font-size="11.00">...</text>
<polygon fill="#ffffff" stroke="transparent" points="382,-360 382,-378 419,-378 419,-360 382,-360"/>
<polygon fill="none" stroke="black" points="382,-360 382,-378 419,-378 419,-360 382,-360"/>
<text text-anchor="start" x="385" y="-366.2" font-family="Helvetica,sans-Serif" font-size="11.00">&lt; 2</text>
<polygon fill="#ffffff" stroke="transparent" points="419,-360 419,-378 466,-378 466,-360 419,-360"/>
<polygon fill="none" stroke="black" points="419,-360 419,-378 466,-378 466,-360 419,-360"/>
<text text-anchor="start" x="430" y="-366.2" font-family="Helvetica,sans-Serif" font-size="11.00">0 rows</text>
<polygon fill="#ffffff" stroke="transparent" points="466,-360 466,-378 487,-378 487,-360 466,-360"/>
<polygon fill="none" stroke="black" points="466,-360 466,-378 487,-378 487,-360 466,-360"/>
<text text-anchor="start" x="477" y="-366.2" font-family="Helvetica,sans-Serif" font-size="11.00"> &#160;</text>
</a>
</g>
</g>
<!-- leadmodels&#45;&gt;analysisunits -->
<g id="edge13" class="edge">
<title>leadmodels:w&#45;&gt;analysisunits:e</title>
<path fill="none" stroke="black" d="M366.53,-389.37C314.33,-409.15 380.14,-546 308,-546"/>
<polygon fill="black" stroke="black" points="373.11,-388.29 381.58,-390.55 377.05,-387.65 381,-387 381,-387 381,-387 377.05,-387.65 380.42,-383.45 373.11,-388.29 373.11,-388.29"/>
<ellipse fill="none" stroke="black" cx="369.95" cy="-388.81" rx="3.2" ry="3.2"/>
</g>
<!-- relativechronology -->
<g id="node14" class="node">
<title>relativechronology</title>
<g id="a_node14"><a xlink:href="../../tables/relativechronology.html" xlink:title="relativechronology" target="_top">
<polygon fill="#ffffff" stroke="transparent" points="596.5,-809 596.5,-867 739.5,-867 739.5,-809 596.5,-809"/>
<polygon fill="#f5f5f5" stroke="transparent" points="597,-845 597,-867 740,-867 740,-845 597,-845"/>
<polygon fill="none" stroke="black" points="597,-845 597,-867 740,-867 740,-845 597,-845"/>
<text text-anchor="start" x="602" y="-854.2" font-family="Helvetica,sans-Serif" font-weight="bold" font-size="11.00">relativechronology</text>
<text text-anchor="start" x="705" y="-853.2" font-family="Helvetica,sans-Serif" font-size="11.00">[table]</text>
<polygon fill="none" stroke="black" points="597,-827 597,-845 740,-845 740,-827 597,-827"/>
<text text-anchor="start" x="600" y="-833.2" font-family="Helvetica,sans-Serif" font-size="11.00">...</text>
<polygon fill="#ffffff" stroke="transparent" points="597,-809 597,-827 643,-827 643,-809 597,-809"/>
<polygon fill="none" stroke="black" points="597,-809 597,-827 643,-827 643,-809 597,-809"/>
<text text-anchor="start" x="600" y="-815.2" font-family="Helvetica,sans-Serif" font-size="11.00">&lt; 3</text>
<polygon fill="#ffffff" stroke="transparent" points="643,-809 643,-827 715,-827 715,-809 643,-809"/>
<polygon fill="none" stroke="black" points="643,-809 643,-827 715,-827 715,-809 643,-809"/>
<text text-anchor="start" x="658" y="-815.2" font-family="Helvetica,sans-Serif" font-size="11.00">4,630 rows</text>
<polygon fill="#ffffff" stroke="transparent" points="715,-809 715,-827 740,-827 740,-809 715,-809"/>
<polygon fill="none" stroke="black" points="715,-809 715,-827 740,-827 740,-809 715,-809"/>
<text text-anchor="start" x="730" y="-815.2" font-family="Helvetica,sans-Serif" font-size="11.00"> &#160;</text>
</a>
</g>
</g>
<!-- relativechronology&#45;&gt;analysisunits -->
<g id="edge14" class="edge">
<title>relativechronology:w&#45;&gt;analysisunits:e</title>
<path fill="none" stroke="black" d="M581.32,-836.81C558.54,-839.52 548.78,-848.19 520,-851 443.92,-858.44 405.46,-901.42 348,-851 296.62,-805.92 376.36,-546 308,-546"/>
<polygon fill="black" stroke="black" points="588.01,-836.44 596.2,-839.59 592.01,-836.22 596,-836 596,-836 596,-836 592.01,-836.22 595.8,-832.41 588.01,-836.44 588.01,-836.44"/>
<ellipse fill="none" stroke="black" cx="584.82" cy="-836.62" rx="3.2" ry="3.2"/>
</g>
<!-- relativechronology&#45;&gt;chroncontrols -->
<g id="edge15" class="edge">
<title>relativechronology:w&#45;&gt;chroncontrols:e</title>
<path fill="none" stroke="black" d="M581.58,-835.04C547.21,-830.23 536.2,-809 495,-809"/>
<polygon fill="black" stroke="black" points="588.02,-835.47 595.76,-839.59 592.01,-835.73 596,-836 596,-836 596,-836 592.01,-835.73 596.24,-832.41 588.02,-835.47 588.02,-835.47"/>
<ellipse fill="none" stroke="black" cx="584.82" cy="-835.26" rx="3.2" ry="3.2"/>
</g>
<!-- samples -->
<g id="node15" class="node">
<title>samples</title>
<g id="a_node15"><a xlink:href="../../tables/samples.html" xlink:title="samples" target="_top">
<polygon fill="#ffffff" stroke="transparent" points="376,-281 376,-339 492,-339 492,-281 376,-281"/>
<polygon fill="#f5f5f5" stroke="transparent" points="376,-317 376,-339 492,-339 492,-317 376,-317"/>
<polygon fill="none" stroke="black" points="376,-317 376,-339 492,-339 492,-317 376,-317"/>
<text text-anchor="start" x="381" y="-326.2" font-family="Helvetica,sans-Serif" font-weight="bold" font-size="11.00">samples</text>
<text text-anchor="start" x="457" y="-325.2" font-family="Helvetica,sans-Serif" font-size="11.00">[table]</text>
<polygon fill="none" stroke="black" points="376,-299 376,-317 492,-317 492,-299 376,-299"/>
<text text-anchor="start" x="379" y="-305.2" font-family="Helvetica,sans-Serif" font-size="11.00">...</text>
<polygon fill="#ffffff" stroke="transparent" points="376,-281 376,-299 398,-299 398,-281 376,-281"/>
<polygon fill="none" stroke="black" points="376,-281 376,-299 398,-299 398,-281 376,-281"/>
<text text-anchor="start" x="379" y="-287.2" font-family="Helvetica,sans-Serif" font-size="11.00">&lt; 3</text>
<polygon fill="#ffffff" stroke="transparent" points="398,-281 398,-299 470,-299 470,-281 398,-281"/>
<polygon fill="none" stroke="black" points="398,-281 398,-299 470,-299 470,-281 398,-281"/>
<text text-anchor="start" x="401" y="-287.2" font-family="Helvetica,sans-Serif" font-size="11.00">541,654 rows</text>
<polygon fill="#ffffff" stroke="transparent" points="470,-281 470,-299 492,-299 492,-281 470,-281"/>
<polygon fill="none" stroke="black" points="470,-281 470,-299 492,-299 492,-281 470,-281"/>
<text text-anchor="start" x="473" y="-287.2" font-family="Helvetica,sans-Serif" font-size="11.00">7 &gt;</text>
</a>
</g>
</g>
<!-- samples&#45;&gt;analysisunits -->
<g id="edge16" class="edge">
<title>samples:w&#45;&gt;analysisunits:e</title>
<path fill="none" stroke="black" d="M361.06,-313.09C353.87,-320.65 353.88,-335.55 348,-350 331.25,-391.18 352.45,-546 308,-546"/>
<polygon fill="black" stroke="black" points="367.48,-310.74 376.23,-311.38 371.24,-309.37 375,-308 375,-308 375,-308 371.24,-309.37 373.77,-304.62 367.48,-310.74 367.48,-310.74"/>
<ellipse fill="none" stroke="black" cx="364.48" cy="-311.84" rx="3.2" ry="3.2"/>
</g>
<!-- tephras -->
<g id="node16" class="node">
<title>tephras</title>
<g id="a_node16"><a xlink:href="../../tables/tephras.html" xlink:title="tephras" target="_top">
<polygon fill="#ffffff" stroke="transparent" points="561,-37 561,-213 775,-213 775,-37 561,-37"/>
<polygon fill="#f5f5f5" stroke="transparent" points="563,-189 563,-211 773,-211 773,-189 563,-189"/>
<polygon fill="none" stroke="black" points="563,-189 563,-211 773,-211 773,-189 563,-189"/>
<text text-anchor="start" x="568" y="-198.2" font-family="Helvetica,sans-Serif" font-weight="bold" font-size="11.00">tephras</text>
<text text-anchor="start" x="738" y="-197.2" font-family="Helvetica,sans-Serif" font-size="11.00">[table]</text>
<polygon fill="none" stroke="black" points="563,-167 563,-189 683,-189 683,-167 563,-167"/>
<image xlink:href="../../images/primaryKeys.png" width="11px" height="12px" preserveAspectRatio="xMinYMin meet" x="568" y="-184"/>
<text text-anchor="start" x="583" y="-175.2" font-family="Helvetica,sans-Serif" font-size="11.00">tephraid</text>
<polygon fill="none" stroke="black" points="683,-167 683,-189 773,-189 773,-167 683,-167"/>
<text text-anchor="start" x="686" y="-175.2" font-family="Helvetica,sans-Serif" font-size="11.00">serial[10]</text>
<polygon fill="none" stroke="black" points="563,-145 563,-167 683,-167 683,-145 563,-145"/>
<image xlink:href="../../images/foreignKeys.png" width="11px" height="12px" preserveAspectRatio="xMinYMin meet" x="568" y="-162"/>
<text text-anchor="start" x="583" y="-153.2" font-family="Helvetica,sans-Serif" font-size="11.00">eventid</text>
<polygon fill="none" stroke="black" points="683,-145 683,-167 773,-167 773,-145 683,-145"/>
<text text-anchor="start" x="686" y="-153.2" font-family="Helvetica,sans-Serif" font-size="11.00">int4[10]</text>
<polygon fill="none" stroke="black" points="563,-123 563,-145 683,-145 683,-123 563,-123"/>
<image xlink:href="../../images/foreignKeys.png" width="11px" height="12px" preserveAspectRatio="xMinYMin meet" x="568" y="-140"/>
<text text-anchor="start" x="583" y="-131.2" font-family="Helvetica,sans-Serif" font-size="11.00">analysisunitid</text>
<polygon fill="none" stroke="black" points="683,-123 683,-145 773,-145 773,-123 683,-123"/>
<text text-anchor="start" x="686" y="-131.2" font-family="Helvetica,sans-Serif" font-size="11.00">int4[10]</text>
<polygon fill="none" stroke="black" points="563,-101 563,-123 683,-123 683,-101 563,-101"/>
<text text-anchor="start" x="583" y="-109.2" font-family="Helvetica,sans-Serif" font-size="11.00">notes</text>
<polygon fill="none" stroke="black" points="683,-101 683,-123 773,-123 773,-101 683,-101"/>
<text text-anchor="start" x="686" y="-109.2" font-family="Helvetica,sans-Serif" font-size="11.00">text[2147483647]</text>
<polygon fill="none" stroke="black" points="563,-79 563,-101 683,-101 683,-79 563,-79"/>
<text text-anchor="start" x="583" y="-87.2" font-family="Helvetica,sans-Serif" font-size="11.00">recdatecreated</text>
<polygon fill="none" stroke="black" points="683,-79 683,-101 773,-101 773,-79 683,-79"/>
<text text-anchor="start" x="686" y="-87.2" font-family="Helvetica,sans-Serif" font-size="11.00">timestamp[22]</text>
<polygon fill="none" stroke="black" points="563,-57 563,-79 683,-79 683,-57 563,-57"/>
<text text-anchor="start" x="583" y="-65.2" font-family="Helvetica,sans-Serif" font-size="11.00">recdatemodified</text>
<polygon fill="none" stroke="black" points="683,-57 683,-79 773,-79 773,-57 683,-57"/>
<text text-anchor="start" x="686" y="-65.2" font-family="Helvetica,sans-Serif" font-size="11.00">timestamp[22]</text>
<polygon fill="#ffffff" stroke="transparent" points="563,-39 563,-57 608,-57 608,-39 563,-39"/>
<polygon fill="none" stroke="black" points="563,-39 563,-57 608,-57 608,-39 563,-39"/>
<text text-anchor="start" x="566" y="-45.2" font-family="Helvetica,sans-Serif" font-size="11.00">&lt; 2</text>
<polygon fill="#ffffff" stroke="transparent" points="608,-39 608,-57 683,-57 683,-39 608,-39"/>
<polygon fill="none" stroke="black" points="608,-39 608,-57 683,-57 683,-39 608,-39"/>
<text text-anchor="start" x="635" y="-45.2" font-family="Helvetica,sans-Serif" font-size="11.00">153 rows</text>
<polygon fill="#ffffff" stroke="transparent" points="683,-39 683,-57 773,-57 773,-39 683,-39"/>
<polygon fill="none" stroke="black" points="683,-39 683,-57 773,-57 773,-39 683,-39"/>
<text text-anchor="start" x="754" y="-45.2" font-family="Helvetica,sans-Serif" font-size="11.00">0 &gt;</text>
<polygon fill="none" stroke="black" stroke-width="2" points="562,-38 562,-212 774,-212 774,-38 562,-38"/>
</a>
</g>
</g>
<!-- tephras&#45;&gt;analysisunits -->
<g id="edge17" class="edge">
<title>tephras:w&#45;&gt;analysisunits:e</title>
<path fill="none" stroke="black" d="M547.55,-133.6C461.45,-128.91 413.01,-85.21 348,-148 284.06,-209.75 396.89,-546 308,-546"/>
<polygon fill="black" stroke="black" points="554,-133.78 561.9,-137.6 558,-133.89 562,-134 562,-134 562,-134 558,-133.89 562.1,-130.4 554,-133.78 554,-133.78"/>
<ellipse fill="none" stroke="black" cx="550.8" cy="-133.69" rx="3.2" ry="3.2"/>
</g>
<!-- tephras&#45;&gt;events -->
<g id="edge18" class="edge">
<title>tephras:w&#45;&gt;events:e</title>
<path fill="none" stroke="black" d="M547.76,-159.42C522.75,-173.61 532.63,-227 495,-227"/>
<polygon fill="black" stroke="black" points="554.22,-157.87 562.84,-159.5 558.11,-156.94 562,-156 562,-156 562,-156 558.11,-156.94 561.16,-152.5 554.22,-157.87 554.22,-157.87"/>
<ellipse fill="none" stroke="black" cx="551.11" cy="-158.62" rx="3.2" ry="3.2"/>
</g>
</g>
</svg>
