<?xml version="1.0" encoding="UTF-8" standalone="no"?>
<!DOCTYPE svg PUBLIC "-//W3C//DTD SVG 1.1//EN"
 "http://www.w3.org/Graphics/SVG/1.1/DTD/svg11.dtd">
<!-- Generated by graphviz version 2.43.0 (0)
 -->
<!-- Title: oneDegreeRelationshipsDiagram Pages: 1 -->
<svg width="415pt" height="296pt"
 viewBox="0.00 0.00 415.00 296.00" xmlns="http://www.w3.org/2000/svg" xmlns:xlink="http://www.w3.org/1999/xlink">
<g id="graph0" class="graph" transform="scale(1 1) rotate(0) translate(4 292)">
<title>oneDegreeRelationshipsDiagram</title>
<polygon fill="#ffffff" stroke="transparent" points="-4,4 -4,-292 411,-292 411,4 -4,4"/>
<text text-anchor="middle" x="71.5" y="-7.2" font-family="Helvetica,sans-Serif" font-size="11.00">Generated by SchemaSpy</text>
<!-- tephras -->
<g id="node1" class="node">
<title>tephras</title>
<g id="a_node1"><a xlink:href="../../tables/tephras.html" xlink:title="tephras" target="_top">
<polygon fill="#ffffff" stroke="transparent" points="185,-81 185,-257 399,-257 399,-81 185,-81"/>
<polygon fill="#f5f5f5" stroke="transparent" points="187,-233 187,-255 397,-255 397,-233 187,-233"/>
<polygon fill="none" stroke="black" points="187,-233 187,-255 397,-255 397,-233 187,-233"/>
<text text-anchor="start" x="192" y="-242.2" font-family="Helvetica,sans-Serif" font-weight="bold" font-size="11.00">tephras</text>
<text text-anchor="start" x="362" y="-241.2" font-family="Helvetica,sans-Serif" font-size="11.00">[table]</text>
<polygon fill="none" stroke="black" points="187,-211 187,-233 307,-233 307,-211 187,-211"/>
<image xlink:href="../../images/primaryKeys.png" width="11px" height="12px" preserveAspectRatio="xMinYMin meet" x="192" y="-228"/>
<text text-anchor="start" x="207" y="-219.2" font-family="Helvetica,sans-Serif" font-size="11.00">tephraid</text>
<polygon fill="none" stroke="black" points="307,-211 307,-233 397,-233 397,-211 307,-211"/>
<text text-anchor="start" x="310" y="-219.2" font-family="Helvetica,sans-Serif" font-size="11.00">serial[10]</text>
<polygon fill="none" stroke="black" points="187,-189 187,-211 307,-211 307,-189 187,-189"/>
<image xlink:href="../../images/foreignKeys.png" width="11px" height="12px" preserveAspectRatio="xMinYMin meet" x="192" y="-206"/>
<text text-anchor="start" x="207" y="-197.2" font-family="Helvetica,sans-Serif" font-size="11.00">eventid</text>
<polygon fill="none" stroke="black" points="307,-189 307,-211 397,-211 397,-189 307,-189"/>
<text text-anchor="start" x="310" y="-197.2" font-family="Helvetica,sans-Serif" font-size="11.00">int4[10]</text>
<polygon fill="none" stroke="black" points="187,-167 187,-189 307,-189 307,-167 187,-167"/>
<image xlink:href="../../images/foreignKeys.png" width="11px" height="12px" preserveAspectRatio="xMinYMin meet" x="192" y="-184"/>
<text text-anchor="start" x="207" y="-175.2" font-family="Helvetica,sans-Serif" font-size="11.00">analysisunitid</text>
<polygon fill="none" stroke="black" points="307,-167 307,-189 397,-189 397,-167 307,-167"/>
<text text-anchor="start" x="310" y="-175.2" font-family="Helvetica,sans-Serif" font-size="11.00">int4[10]</text>
<polygon fill="none" stroke="black" points="187,-145 187,-167 307,-167 307,-145 187,-145"/>
<text text-anchor="start" x="207" y="-153.2" font-family="Helvetica,sans-Serif" font-size="11.00">notes</text>
<polygon fill="none" stroke="black" points="307,-145 307,-167 397,-167 397,-145 307,-145"/>
<text text-anchor="start" x="310" y="-153.2" font-family="Helvetica,sans-Serif" font-size="11.00">text[2147483647]</text>
<polygon fill="none" stroke="black" points="187,-123 187,-145 307,-145 307,-123 187,-123"/>
<text text-anchor="start" x="207" y="-131.2" font-family="Helvetica,sans-Serif" font-size="11.00">recdatecreated</text>
<polygon fill="none" stroke="black" points="307,-123 307,-145 397,-145 397,-123 307,-123"/>
<text text-anchor="start" x="310" y="-131.2" font-family="Helvetica,sans-Serif" font-size="11.00">timestamp[22]</text>
<polygon fill="none" stroke="black" points="187,-101 187,-123 307,-123 307,-101 187,-101"/>
<text text-anchor="start" x="207" y="-109.2" font-family="Helvetica,sans-Serif" font-size="11.00">recdatemodified</text>
<polygon fill="none" stroke="black" points="307,-101 307,-123 397,-123 397,-101 307,-101"/>
<text text-anchor="start" x="310" y="-109.2" font-family="Helvetica,sans-Serif" font-size="11.00">timestamp[22]</text>
<polygon fill="#ffffff" stroke="transparent" points="187,-83 187,-101 232,-101 232,-83 187,-83"/>
<polygon fill="none" stroke="black" points="187,-83 187,-101 232,-101 232,-83 187,-83"/>
<text text-anchor="start" x="190" y="-89.2" font-family="Helvetica,sans-Serif" font-size="11.00">&lt; 2</text>
<polygon fill="#ffffff" stroke="transparent" points="232,-83 232,-101 307,-101 307,-83 232,-83"/>
<polygon fill="none" stroke="black" points="232,-83 232,-101 307,-101 307,-83 232,-83"/>
<text text-anchor="start" x="259" y="-89.2" font-family="Helvetica,sans-Serif" font-size="11.00">148 rows</text>
<polygon fill="#ffffff" stroke="transparent" points="307,-83 307,-101 397,-101 397,-83 307,-83"/>
<polygon fill="none" stroke="black" points="307,-83 307,-101 397,-101 397,-83 307,-83"/>
<text text-anchor="start" x="378" y="-89.2" font-family="Helvetica,sans-Serif" font-size="11.00">0 &gt;</text>
<polygon fill="none" stroke="black" stroke-width="2" points="186,-82 186,-256 398,-256 398,-82 186,-82"/>
</a>
</g>
</g>
<!-- analysisunits -->
<g id="node2" class="node">
<title>analysisunits</title>
<g id="a_node2"><a xlink:href="../../tables/analysisunits.html" xlink:title="analysisunits" target="_top">
<polygon fill="#ffffff" stroke="transparent" points="8,-37 8,-161 136,-161 136,-37 8,-37"/>
<polygon fill="#f5f5f5" stroke="transparent" points="8,-139 8,-161 136,-161 136,-139 8,-139"/>
<polygon fill="none" stroke="black" points="8,-139 8,-161 136,-161 136,-139 8,-139"/>
<text text-anchor="start" x="13" y="-148.2" font-family="Helvetica,sans-Serif" font-weight="bold" font-size="11.00">analysisunits</text>
<text text-anchor="start" x="101" y="-147.2" font-family="Helvetica,sans-Serif" font-size="11.00">[table]</text>
<polygon fill="none" stroke="black" points="8,-117 8,-139 136,-139 136,-117 8,-117"/>
<image xlink:href="../../images/primaryKeys.png" width="11px" height="12px" preserveAspectRatio="xMinYMin meet" x="13" y="-134"/>
<text text-anchor="start" x="28" y="-125.2" font-family="Helvetica,sans-Serif" font-size="11.00">analysisunitid</text>
<polygon fill="#ffffff" stroke="transparent" points="8,-95 8,-117 136,-117 136,-95 8,-95"/>
<polygon fill="none" stroke="black" points="8,-95 8,-117 136,-117 136,-95 8,-95"/>
<image xlink:href="../../images/foreignKeys.png" width="11px" height="12px" preserveAspectRatio="xMinYMin meet" x="13" y="-112"/>
<text text-anchor="start" x="28" y="-103.2" font-family="Helvetica,sans-Serif" font-size="11.00">collectionunitid</text>
<polygon fill="#ffffff" stroke="transparent" points="8,-73 8,-95 136,-95 136,-73 8,-73"/>
<polygon fill="none" stroke="black" points="8,-73 8,-95 136,-95 136,-73 8,-73"/>
<image xlink:href="../../images/foreignKeys.png" width="11px" height="12px" preserveAspectRatio="xMinYMin meet" x="13" y="-90"/>
<text text-anchor="start" x="28" y="-81.2" font-family="Helvetica,sans-Serif" font-size="11.00">faciesid</text>
<polygon fill="none" stroke="black" points="8,-55 8,-73 136,-73 136,-55 8,-55"/>
<text text-anchor="start" x="11" y="-61.2" font-family="Helvetica,sans-Serif" font-size="11.00">...</text>
<polygon fill="#ffffff" stroke="transparent" points="8,-37 8,-55 36,-55 36,-37 8,-37"/>
<polygon fill="none" stroke="black" points="8,-37 8,-55 36,-55 36,-37 8,-37"/>
<text text-anchor="start" x="11" y="-43.2" font-family="Helvetica,sans-Serif" font-size="11.00">&lt; 2</text>
<polygon fill="#ffffff" stroke="transparent" points="36,-37 36,-55 111,-55 111,-37 36,-37"/>
<polygon fill="none" stroke="black" points="36,-37 36,-55 111,-55 111,-37 36,-37"/>
<text text-anchor="start" x="42" y="-43.2" font-family="Helvetica,sans-Serif" font-size="11.00">449,200 rows</text>
<polygon fill="#ffffff" stroke="transparent" points="111,-37 111,-55 136,-55 136,-37 111,-37"/>
<polygon fill="none" stroke="black" points="111,-37 111,-55 136,-55 136,-37 111,-37"/>
<text text-anchor="start" x="117" y="-43.2" font-family="Helvetica,sans-Serif" font-size="11.00">9 &gt;</text>
</a>
</g>
</g>
<!-- tephras&#45;&gt;analysisunits -->
<g id="edge1" class="edge">
<title>tephras:w&#45;&gt;analysisunits:e</title>
<path fill="none" stroke="black" d="M172.18,-173.02C158.36,-160.38 162.04,-128 137,-128"/>
<polygon fill="black" stroke="black" points="178.47,-175.29 184.78,-181.39 182.24,-176.64 186,-178 186,-178 186,-178 182.24,-176.64 187.22,-174.61 178.47,-175.29 178.47,-175.29"/>
<ellipse fill="none" stroke="black" cx="175.46" cy="-174.2" rx="3.2" ry="3.2"/>
</g>
<!-- events -->
<g id="node3" class="node">
<title>events</title>
<g id="a_node3"><a xlink:href="../../tables/events.html" xlink:title="events" target="_top">
<polygon fill="#ffffff" stroke="transparent" points="12,-182 12,-284 132,-284 132,-182 12,-182"/>
<polygon fill="#f5f5f5" stroke="transparent" points="12,-262 12,-284 132,-284 132,-262 12,-262"/>
<polygon fill="none" stroke="black" points="12,-262 12,-284 132,-284 132,-262 12,-262"/>
<text text-anchor="start" x="17" y="-271.2" font-family="Helvetica,sans-Serif" font-weight="bold" font-size="11.00">events</text>
<text text-anchor="start" x="97" y="-270.2" font-family="Helvetica,sans-Serif" font-size="11.00">[table]</text>
<polygon fill="none" stroke="black" points="12,-240 12,-262 132,-262 132,-240 12,-240"/>
<image xlink:href="../../images/primaryKeys.png" width="11px" height="12px" preserveAspectRatio="xMinYMin meet" x="17" y="-257"/>
<text text-anchor="start" x="32" y="-248.2" font-family="Helvetica,sans-Serif" font-size="11.00">eventid</text>
<polygon fill="none" stroke="black" points="12,-218 12,-240 132,-240 132,-218 12,-218"/>
<image xlink:href="../../images/foreignKeys.png" width="11px" height="12px" preserveAspectRatio="xMinYMin meet" x="17" y="-235"/>
<text text-anchor="start" x="32" y="-226.2" font-family="Helvetica,sans-Serif" font-size="11.00">eventtypeid</text>
<polygon fill="none" stroke="black" points="12,-200 12,-218 132,-218 132,-200 12,-200"/>
<text text-anchor="start" x="15" y="-206.2" font-family="Helvetica,sans-Serif" font-size="11.00">...</text>
<polygon fill="#ffffff" stroke="transparent" points="12,-182 12,-200 46,-200 46,-182 12,-182"/>
<polygon fill="none" stroke="black" points="12,-182 12,-200 46,-200 46,-182 12,-182"/>
<text text-anchor="start" x="15" y="-188.2" font-family="Helvetica,sans-Serif" font-size="11.00">&lt; 1</text>
<polygon fill="#ffffff" stroke="transparent" points="46,-182 46,-200 103,-200 103,-182 46,-182"/>
<polygon fill="none" stroke="black" points="46,-182 46,-200 103,-200 103,-182 46,-182"/>
<text text-anchor="start" x="55" y="-188.2" font-family="Helvetica,sans-Serif" font-size="11.00">371 rows</text>
<polygon fill="#ffffff" stroke="transparent" points="103,-182 103,-200 132,-200 132,-182 103,-182"/>
<polygon fill="none" stroke="black" points="103,-182 103,-200 132,-200 132,-182 103,-182"/>
<text text-anchor="start" x="113" y="-188.2" font-family="Helvetica,sans-Serif" font-size="11.00">3 &gt;</text>
</a>
</g>
</g>
<!-- tephras&#45;&gt;events -->
<g id="edge2" class="edge">
<title>tephras:w&#45;&gt;events:e</title>
<path fill="none" stroke="black" d="M172.22,-204.35C156.3,-216.68 159.82,-251 133,-251"/>
<polygon fill="black" stroke="black" points="178.37,-202.41 187.08,-203.43 182.19,-201.2 186,-200 186,-200 186,-200 182.19,-201.2 184.92,-196.57 178.37,-202.41 178.37,-202.41"/>
<ellipse fill="none" stroke="black" cx="175.32" cy="-203.37" rx="3.2" ry="3.2"/>
</g>
</g>
</svg>
