<?xml version="1.0" encoding="UTF-8" standalone="no"?>
<!DOCTYPE svg PUBLIC "-//W3C//DTD SVG 1.1//EN"
 "http://www.w3.org/Graphics/SVG/1.1/DTD/svg11.dtd">
<!-- Generated by graphviz version 2.43.0 (0)
 -->
<!-- Title: twoDegreesRelationshipsDiagram Pages: 1 -->
<svg width="435pt" height="295pt"
 viewBox="0.00 0.00 435.00 295.00" xmlns="http://www.w3.org/2000/svg" xmlns:xlink="http://www.w3.org/1999/xlink">
<g id="graph0" class="graph" transform="scale(1 1) rotate(0) translate(4 291)">
<title>twoDegreesRelationshipsDiagram</title>
<polygon fill="#ffffff" stroke="transparent" points="-4,4 -4,-291 431,-291 431,4 -4,4"/>
<text text-anchor="middle" x="71.5" y="-7.2" font-family="Helvetica,sans-Serif" font-size="11.00">Generated by SchemaSpy</text>
<!-- datauncertainties -->
<g id="node1" class="node">
<title>datauncertainties</title>
<g id="a_node1"><a xlink:href="../../tables/datauncertainties.html" xlink:title="datauncertainties" target="_top">
<polygon fill="#ffffff" stroke="transparent" points="284,-104 284,-228 419,-228 419,-104 284,-104"/>
<polygon fill="#f5f5f5" stroke="transparent" points="284.5,-206 284.5,-228 419.5,-228 419.5,-206 284.5,-206"/>
<polygon fill="none" stroke="black" points="284.5,-206 284.5,-228 419.5,-228 419.5,-206 284.5,-206"/>
<text text-anchor="start" x="289.5" y="-215.2" font-family="Helvetica,sans-Serif" font-weight="bold" font-size="11.00">datauncertainties</text>
<text text-anchor="start" x="384.5" y="-214.2" font-family="Helvetica,sans-Serif" font-size="11.00">[table]</text>
<polygon fill="#ffffff" stroke="transparent" points="284.5,-184 284.5,-206 419.5,-206 419.5,-184 284.5,-184"/>
<polygon fill="none" stroke="black" points="284.5,-184 284.5,-206 419.5,-206 419.5,-184 284.5,-184"/>
<image xlink:href="../../images/foreignKeys.png" width="11px" height="12px" preserveAspectRatio="xMinYMin meet" x="289.5" y="-201"/>
<text text-anchor="start" x="305.5" y="-192.2" font-family="Helvetica,sans-Serif" font-size="11.00">dataid</text>
<polygon fill="#ffffff" stroke="transparent" points="284.5,-162 284.5,-184 419.5,-184 419.5,-162 284.5,-162"/>
<polygon fill="none" stroke="black" points="284.5,-162 284.5,-184 419.5,-184 419.5,-162 284.5,-162"/>
<image xlink:href="../../images/foreignKeys.png" width="11px" height="12px" preserveAspectRatio="xMinYMin meet" x="289.5" y="-179"/>
<text text-anchor="start" x="305.5" y="-170.2" font-family="Helvetica,sans-Serif" font-size="11.00">uncertaintyunitid</text>
<polygon fill="#ffffff" stroke="transparent" points="284.5,-140 284.5,-162 419.5,-162 419.5,-140 284.5,-140"/>
<polygon fill="none" stroke="black" points="284.5,-140 284.5,-162 419.5,-162 419.5,-140 284.5,-140"/>
<image xlink:href="../../images/foreignKeys.png" width="11px" height="12px" preserveAspectRatio="xMinYMin meet" x="289.5" y="-157"/>
<text text-anchor="start" x="305.5" y="-148.2" font-family="Helvetica,sans-Serif" font-size="11.00">uncertaintybasisid</text>
<polygon fill="none" stroke="black" points="284.5,-122 284.5,-140 419.5,-140 419.5,-122 284.5,-122"/>
<text text-anchor="start" x="287.5" y="-128.2" font-family="Helvetica,sans-Serif" font-size="11.00">...</text>
<polygon fill="#ffffff" stroke="transparent" points="284.5,-104 284.5,-122 336.5,-122 336.5,-104 284.5,-104"/>
<polygon fill="none" stroke="black" points="284.5,-104 284.5,-122 336.5,-122 336.5,-104 284.5,-104"/>
<text text-anchor="start" x="287.5" y="-110.2" font-family="Helvetica,sans-Serif" font-size="11.00">&lt; 3</text>
<polygon fill="#ffffff" stroke="transparent" points="336.5,-104 336.5,-122 390.5,-122 390.5,-104 336.5,-104"/>
<polygon fill="none" stroke="black" points="336.5,-104 336.5,-122 390.5,-122 390.5,-104 336.5,-104"/>
<text text-anchor="start" x="354.5" y="-110.2" font-family="Helvetica,sans-Serif" font-size="11.00">0 rows</text>
<polygon fill="#ffffff" stroke="transparent" points="390.5,-104 390.5,-122 419.5,-122 419.5,-104 390.5,-104"/>
<polygon fill="none" stroke="black" points="390.5,-104 390.5,-122 419.5,-122 419.5,-104 390.5,-104"/>
<text text-anchor="start" x="409.5" y="-110.2" font-family="Helvetica,sans-Serif" font-size="11.00"> &#160;</text>
</a>
</g>
</g>
<!-- data -->
<g id="node2" class="node">
<title>data</title>
<g id="a_node2"><a xlink:href="../../tables/data.html" xlink:title="data" target="_top">
<polygon fill="#ffffff" stroke="transparent" points="56,-225 56,-283 187,-283 187,-225 56,-225"/>
<polygon fill="#f5f5f5" stroke="transparent" points="56.5,-261 56.5,-283 187.5,-283 187.5,-261 56.5,-261"/>
<polygon fill="none" stroke="black" points="56.5,-261 56.5,-283 187.5,-283 187.5,-261 56.5,-261"/>
<text text-anchor="start" x="61.5" y="-270.2" font-family="Helvetica,sans-Serif" font-weight="bold" font-size="11.00">data</text>
<text text-anchor="start" x="152.5" y="-269.2" font-family="Helvetica,sans-Serif" font-size="11.00">[table]</text>
<polygon fill="none" stroke="black" points="56.5,-243 56.5,-261 187.5,-261 187.5,-243 56.5,-243"/>
<text text-anchor="start" x="59.5" y="-249.2" font-family="Helvetica,sans-Serif" font-size="11.00">...</text>
<polygon fill="#ffffff" stroke="transparent" points="56.5,-225 56.5,-243 78.5,-243 78.5,-225 56.5,-225"/>
<polygon fill="none" stroke="black" points="56.5,-225 56.5,-243 78.5,-243 78.5,-225 56.5,-225"/>
<text text-anchor="start" x="59.5" y="-231.2" font-family="Helvetica,sans-Serif" font-size="11.00">&lt; 2</text>
<polygon fill="#ffffff" stroke="transparent" points="78.5,-225 78.5,-243 165.5,-243 165.5,-225 78.5,-225"/>
<polygon fill="none" stroke="black" points="78.5,-225 78.5,-243 165.5,-243 165.5,-225 78.5,-225"/>
<text text-anchor="start" x="81.5" y="-231.2" font-family="Helvetica,sans-Serif" font-size="11.00">10,527,055 rows</text>
<polygon fill="#ffffff" stroke="transparent" points="165.5,-225 165.5,-243 187.5,-243 187.5,-225 165.5,-225"/>
<polygon fill="none" stroke="black" points="165.5,-225 165.5,-243 187.5,-243 187.5,-225 165.5,-225"/>
<text text-anchor="start" x="168.5" y="-231.2" font-family="Helvetica,sans-Serif" font-size="11.00">8 &gt;</text>
</a>
</g>
</g>
<!-- datauncertainties&#45;&gt;data -->
<g id="edge1" class="edge">
<title>datauncertainties:w&#45;&gt;data:e</title>
<path fill="none" stroke="black" d="M269.1,-196.9C234.39,-206.79 232.35,-252 188.5,-252"/>
<polygon fill="black" stroke="black" points="275.57,-196.04 283.97,-198.57 279.53,-195.52 283.5,-195 283.5,-195 283.5,-195 279.53,-195.52 283.03,-191.43 275.57,-196.04 275.57,-196.04"/>
<ellipse fill="none" stroke="black" cx="272.4" cy="-196.46" rx="3.2" ry="3.2"/>
</g>
<!-- uncertaintybases -->
<g id="node3" class="node">
<title>uncertaintybases</title>
<g id="a_node3"><a xlink:href="../../tables/uncertaintybases.html" xlink:title="uncertaintybases" target="_top">
<polygon fill="#ffffff" stroke="transparent" points="8,-37 8,-125 235,-125 235,-37 8,-37"/>
<polygon fill="#f5f5f5" stroke="transparent" points="10.5,-101 10.5,-123 233.5,-123 233.5,-101 10.5,-101"/>
<polygon fill="none" stroke="black" points="10.5,-101 10.5,-123 233.5,-123 233.5,-101 10.5,-101"/>
<text text-anchor="start" x="15.5" y="-110.2" font-family="Helvetica,sans-Serif" font-weight="bold" font-size="11.00">uncertaintybases</text>
<text text-anchor="start" x="198.5" y="-109.2" font-family="Helvetica,sans-Serif" font-size="11.00">[table]</text>
<polygon fill="none" stroke="black" points="10.5,-79 10.5,-101 143.5,-101 143.5,-79 10.5,-79"/>
<image xlink:href="../../images/primaryKeys.png" width="11px" height="12px" preserveAspectRatio="xMinYMin meet" x="15.5" y="-96"/>
<text text-anchor="start" x="30.5" y="-87.2" font-family="Helvetica,sans-Serif" font-size="11.00">uncertaintybasisid</text>
<polygon fill="none" stroke="black" points="143.5,-79 143.5,-101 233.5,-101 233.5,-79 143.5,-79"/>
<text text-anchor="start" x="146.5" y="-87.2" font-family="Helvetica,sans-Serif" font-size="11.00">serial[10]</text>
<polygon fill="#ffffff" stroke="transparent" points="10.5,-57 10.5,-79 143.5,-79 143.5,-57 10.5,-57"/>
<polygon fill="none" stroke="black" points="10.5,-57 10.5,-79 143.5,-79 143.5,-57 10.5,-57"/>
<text text-anchor="start" x="30.5" y="-65.2" font-family="Helvetica,sans-Serif" font-size="11.00">uncertaintybasis</text>
<polygon fill="none" stroke="black" points="143.5,-57 143.5,-79 233.5,-79 233.5,-57 143.5,-57"/>
<text text-anchor="start" x="146.5" y="-65.2" font-family="Helvetica,sans-Serif" font-size="11.00">text[2147483647]</text>
<polygon fill="#ffffff" stroke="transparent" points="10.5,-39 10.5,-57 68.5,-57 68.5,-39 10.5,-39"/>
<polygon fill="none" stroke="black" points="10.5,-39 10.5,-57 68.5,-57 68.5,-39 10.5,-39"/>
<text text-anchor="start" x="13.5" y="-45.2" font-family="Helvetica,sans-Serif" font-size="11.00">&lt; 0</text>
<polygon fill="#ffffff" stroke="transparent" points="68.5,-39 68.5,-57 143.5,-57 143.5,-39 68.5,-39"/>
<polygon fill="none" stroke="black" points="68.5,-39 68.5,-57 143.5,-57 143.5,-39 68.5,-39"/>
<text text-anchor="start" x="107.5" y="-45.2" font-family="Helvetica,sans-Serif" font-size="11.00">4 rows</text>
<polygon fill="#ffffff" stroke="transparent" points="143.5,-39 143.5,-57 233.5,-57 233.5,-39 143.5,-39"/>
<polygon fill="none" stroke="black" points="143.5,-39 143.5,-57 233.5,-57 233.5,-39 143.5,-39"/>
<text text-anchor="start" x="214.5" y="-45.2" font-family="Helvetica,sans-Serif" font-size="11.00">1 &gt;</text>
<polygon fill="none" stroke="black" stroke-width="2" points="9,-38 9,-124 234,-124 234,-38 9,-38"/>
</a>
</g>
</g>
<!-- datauncertainties&#45;&gt;uncertaintybases -->
<g id="edge2" class="edge">
<title>datauncertainties:w&#45;&gt;uncertaintybases:e</title>
<path fill="none" stroke="black" d="M269.91,-146.21C254.15,-131.83 263.3,-90 234.5,-90"/>
<polygon fill="black" stroke="black" points="275.95,-148.34 282.3,-154.4 279.73,-149.67 283.5,-151 283.5,-151 283.5,-151 279.73,-149.67 284.7,-147.6 275.95,-148.34 275.95,-148.34"/>
<ellipse fill="none" stroke="black" cx="272.94" cy="-147.28" rx="3.2" ry="3.2"/>
</g>
<!-- variableunits -->
<g id="node4" class="node">
<title>variableunits</title>
<g id="a_node4"><a xlink:href="../../tables/variableunits.html" xlink:title="variableunits" target="_top">
<polygon fill="#ffffff" stroke="transparent" points="65.5,-146 65.5,-204 177.5,-204 177.5,-146 65.5,-146"/>
<polygon fill="#f5f5f5" stroke="transparent" points="65.5,-182 65.5,-204 177.5,-204 177.5,-182 65.5,-182"/>
<polygon fill="none" stroke="black" points="65.5,-182 65.5,-204 177.5,-204 177.5,-182 65.5,-182"/>
<text text-anchor="start" x="70.5" y="-191.2" font-family="Helvetica,sans-Serif" font-weight="bold" font-size="11.00">variableunits</text>
<text text-anchor="start" x="142.5" y="-190.2" font-family="Helvetica,sans-Serif" font-size="11.00">[table]</text>
<polygon fill="none" stroke="black" points="65.5,-164 65.5,-182 177.5,-182 177.5,-164 65.5,-164"/>
<text text-anchor="start" x="68.5" y="-170.2" font-family="Helvetica,sans-Serif" font-size="11.00">...</text>
<polygon fill="#ffffff" stroke="transparent" points="65.5,-146 65.5,-164 91.5,-164 91.5,-146 65.5,-146"/>
<polygon fill="none" stroke="black" points="65.5,-146 65.5,-164 91.5,-164 91.5,-146 65.5,-146"/>
<text text-anchor="start" x="68.5" y="-152.2" font-family="Helvetica,sans-Serif" font-size="11.00"> &#160;</text>
<polygon fill="#ffffff" stroke="transparent" points="91.5,-146 91.5,-164 148.5,-164 148.5,-146 91.5,-146"/>
<polygon fill="none" stroke="black" points="91.5,-146 91.5,-164 148.5,-164 148.5,-146 91.5,-146"/>
<text text-anchor="start" x="100.5" y="-152.2" font-family="Helvetica,sans-Serif" font-size="11.00">212 rows</text>
<polygon fill="#ffffff" stroke="transparent" points="148.5,-146 148.5,-164 177.5,-164 177.5,-146 148.5,-146"/>
<polygon fill="none" stroke="black" points="148.5,-146 148.5,-164 177.5,-164 177.5,-146 148.5,-146"/>
<text text-anchor="start" x="158.5" y="-152.2" font-family="Helvetica,sans-Serif" font-size="11.00">5 &gt;</text>
</a>
</g>
</g>
<!-- datauncertainties&#45;&gt;variableunits -->
<g id="edge3" class="edge">
<title>datauncertainties:w&#45;&gt;variableunits:e</title>
<path fill="none" stroke="black" d="M268.89,-173C233.74,-173 219.88,-173 178.5,-173"/>
<polygon fill="black" stroke="black" points="275.5,-173 283.5,-176.6 279.5,-173 283.5,-173 283.5,-173 283.5,-173 279.5,-173 283.5,-169.4 275.5,-173 275.5,-173"/>
<ellipse fill="none" stroke="black" cx="272.3" cy="-173" rx="3.2" ry="3.2"/>
</g>
</g>
</svg>
