<?xml version="1.0" encoding="UTF-8" standalone="no"?>
<!DOCTYPE svg PUBLIC "-//W3C//DTD SVG 1.1//EN"
 "http://www.w3.org/Graphics/SVG/1.1/DTD/svg11.dtd">
<!-- Generated by graphviz version 2.43.0 (0)
 -->
<!-- Title: oneDegreeRelationshipsDiagram Pages: 1 -->
<svg width="435pt" height="179pt"
 viewBox="0.00 0.00 435.00 179.00" xmlns="http://www.w3.org/2000/svg" xmlns:xlink="http://www.w3.org/1999/xlink">
<g id="graph0" class="graph" transform="scale(1 1) rotate(0) translate(4 175)">
<title>oneDegreeRelationshipsDiagram</title>
<polygon fill="#ffffff" stroke="transparent" points="-4,4 -4,-175 431,-175 431,4 -4,4"/>
<text text-anchor="middle" x="71.5" y="-7.2" font-family="Helvetica,sans-Serif" font-size="11.00">Generated by SchemaSpy</text>
<!-- datauncertainties -->
<g id="node1" class="node">
<title>datauncertainties</title>
<g id="a_node1"><a xlink:href="../../tables/datauncertainties.html" xlink:title="datauncertainties" target="_top">
<polygon fill="#ffffff" stroke="transparent" points="284,-43 284,-167 419,-167 419,-43 284,-43"/>
<polygon fill="#f5f5f5" stroke="transparent" points="284.5,-145 284.5,-167 419.5,-167 419.5,-145 284.5,-145"/>
<polygon fill="none" stroke="black" points="284.5,-145 284.5,-167 419.5,-167 419.5,-145 284.5,-145"/>
<text text-anchor="start" x="289.5" y="-154.2" font-family="Helvetica,sans-Serif" font-weight="bold" font-size="11.00">datauncertainties</text>
<text text-anchor="start" x="384.5" y="-153.2" font-family="Helvetica,sans-Serif" font-size="11.00">[table]</text>
<polygon fill="#ffffff" stroke="transparent" points="284.5,-123 284.5,-145 419.5,-145 419.5,-123 284.5,-123"/>
<polygon fill="none" stroke="black" points="284.5,-123 284.5,-145 419.5,-145 419.5,-123 284.5,-123"/>
<image xlink:href="../../images/foreignKeys.png" width="11px" height="12px" preserveAspectRatio="xMinYMin meet" x="289.5" y="-140"/>
<text text-anchor="start" x="305.5" y="-131.2" font-family="Helvetica,sans-Serif" font-size="11.00">dataid</text>
<polygon fill="#ffffff" stroke="transparent" points="284.5,-101 284.5,-123 419.5,-123 419.5,-101 284.5,-101"/>
<polygon fill="none" stroke="black" points="284.5,-101 284.5,-123 419.5,-123 419.5,-101 284.5,-101"/>
<image xlink:href="../../images/foreignKeys.png" width="11px" height="12px" preserveAspectRatio="xMinYMin meet" x="289.5" y="-118"/>
<text text-anchor="start" x="305.5" y="-109.2" font-family="Helvetica,sans-Serif" font-size="11.00">uncertaintyunitid</text>
<polygon fill="#ffffff" stroke="transparent" points="284.5,-79 284.5,-101 419.5,-101 419.5,-79 284.5,-79"/>
<polygon fill="none" stroke="black" points="284.5,-79 284.5,-101 419.5,-101 419.5,-79 284.5,-79"/>
<image xlink:href="../../images/foreignKeys.png" width="11px" height="12px" preserveAspectRatio="xMinYMin meet" x="289.5" y="-96"/>
<text text-anchor="start" x="305.5" y="-87.2" font-family="Helvetica,sans-Serif" font-size="11.00">uncertaintybasisid</text>
<polygon fill="none" stroke="black" points="284.5,-61 284.5,-79 419.5,-79 419.5,-61 284.5,-61"/>
<text text-anchor="start" x="287.5" y="-67.2" font-family="Helvetica,sans-Serif" font-size="11.00">...</text>
<polygon fill="#ffffff" stroke="transparent" points="284.5,-43 284.5,-61 336.5,-61 336.5,-43 284.5,-43"/>
<polygon fill="none" stroke="black" points="284.5,-43 284.5,-61 336.5,-61 336.5,-43 284.5,-43"/>
<text text-anchor="start" x="287.5" y="-49.2" font-family="Helvetica,sans-Serif" font-size="11.00">&lt; 3</text>
<polygon fill="#ffffff" stroke="transparent" points="336.5,-43 336.5,-61 390.5,-61 390.5,-43 336.5,-43"/>
<polygon fill="none" stroke="black" points="336.5,-43 336.5,-61 390.5,-61 390.5,-43 336.5,-43"/>
<text text-anchor="start" x="354.5" y="-49.2" font-family="Helvetica,sans-Serif" font-size="11.00">0 rows</text>
<polygon fill="#ffffff" stroke="transparent" points="390.5,-43 390.5,-61 419.5,-61 419.5,-43 390.5,-43"/>
<polygon fill="none" stroke="black" points="390.5,-43 390.5,-61 419.5,-61 419.5,-43 390.5,-43"/>
<text text-anchor="start" x="409.5" y="-49.2" font-family="Helvetica,sans-Serif" font-size="11.00"> &#160;</text>
</a>
</g>
</g>
<!-- uncertaintybases -->
<g id="node2" class="node">
<title>uncertaintybases</title>
<g id="a_node2"><a xlink:href="../../tables/uncertaintybases.html" xlink:title="uncertaintybases" target="_top">
<polygon fill="#ffffff" stroke="transparent" points="8,-37 8,-125 235,-125 235,-37 8,-37"/>
<polygon fill="#f5f5f5" stroke="transparent" points="10.5,-101 10.5,-123 233.5,-123 233.5,-101 10.5,-101"/>
<polygon fill="none" stroke="black" points="10.5,-101 10.5,-123 233.5,-123 233.5,-101 10.5,-101"/>
<text text-anchor="start" x="15.5" y="-110.2" font-family="Helvetica,sans-Serif" font-weight="bold" font-size="11.00">uncertaintybases</text>
<text text-anchor="start" x="198.5" y="-109.2" font-family="Helvetica,sans-Serif" font-size="11.00">[table]</text>
<polygon fill="none" stroke="black" points="10.5,-79 10.5,-101 143.5,-101 143.5,-79 10.5,-79"/>
<image xlink:href="../../images/primaryKeys.png" width="11px" height="12px" preserveAspectRatio="xMinYMin meet" x="15.5" y="-96"/>
<text text-anchor="start" x="30.5" y="-87.2" font-family="Helvetica,sans-Serif" font-size="11.00">uncertaintybasisid</text>
<polygon fill="none" stroke="black" points="143.5,-79 143.5,-101 233.5,-101 233.5,-79 143.5,-79"/>
<text text-anchor="start" x="146.5" y="-87.2" font-family="Helvetica,sans-Serif" font-size="11.00">serial[10]</text>
<polygon fill="#ffffff" stroke="transparent" points="10.5,-57 10.5,-79 143.5,-79 143.5,-57 10.5,-57"/>
<polygon fill="none" stroke="black" points="10.5,-57 10.5,-79 143.5,-79 143.5,-57 10.5,-57"/>
<text text-anchor="start" x="30.5" y="-65.2" font-family="Helvetica,sans-Serif" font-size="11.00">uncertaintybasis</text>
<polygon fill="none" stroke="black" points="143.5,-57 143.5,-79 233.5,-79 233.5,-57 143.5,-57"/>
<text text-anchor="start" x="146.5" y="-65.2" font-family="Helvetica,sans-Serif" font-size="11.00">text[2147483647]</text>
<polygon fill="#ffffff" stroke="transparent" points="10.5,-39 10.5,-57 68.5,-57 68.5,-39 10.5,-39"/>
<polygon fill="none" stroke="black" points="10.5,-39 10.5,-57 68.5,-57 68.5,-39 10.5,-39"/>
<text text-anchor="start" x="13.5" y="-45.2" font-family="Helvetica,sans-Serif" font-size="11.00">&lt; 0</text>
<polygon fill="#ffffff" stroke="transparent" points="68.5,-39 68.5,-57 143.5,-57 143.5,-39 68.5,-39"/>
<polygon fill="none" stroke="black" points="68.5,-39 68.5,-57 143.5,-57 143.5,-39 68.5,-39"/>
<text text-anchor="start" x="107.5" y="-45.2" font-family="Helvetica,sans-Serif" font-size="11.00">4 rows</text>
<polygon fill="#ffffff" stroke="transparent" points="143.5,-39 143.5,-57 233.5,-57 233.5,-39 143.5,-39"/>
<polygon fill="none" stroke="black" points="143.5,-39 143.5,-57 233.5,-57 233.5,-39 143.5,-39"/>
<text text-anchor="start" x="214.5" y="-45.2" font-family="Helvetica,sans-Serif" font-size="11.00">1 &gt;</text>
<polygon fill="none" stroke="black" stroke-width="2" points="9,-38 9,-124 234,-124 234,-38 9,-38"/>
</a>
</g>
</g>
<!-- datauncertainties&#45;&gt;uncertaintybases -->
<g id="edge1" class="edge">
<title>datauncertainties:w&#45;&gt;uncertaintybases:e</title>
<path fill="none" stroke="black" d="M268.99,-90C257.68,-90 250.49,-90 234.5,-90"/>
<polygon fill="black" stroke="black" points="275.5,-90 283.5,-93.6 279.5,-90 283.5,-90 283.5,-90 283.5,-90 279.5,-90 283.5,-86.4 275.5,-90 275.5,-90"/>
<ellipse fill="none" stroke="black" cx="272.3" cy="-90" rx="3.2" ry="3.2"/>
</g>
</g>
</svg>
