<?xml version="1.0" encoding="UTF-8" standalone="no"?>
<!DOCTYPE svg PUBLIC "-//W3C//DTD SVG 1.1//EN"
 "http://www.w3.org/Graphics/SVG/1.1/DTD/svg11.dtd">
<!-- Generated by graphviz version 2.43.0 (0)
 -->
<!-- Title: twoDegreesRelationshipsDiagram Pages: 1 -->
<svg width="410pt" height="813pt"
 viewBox="0.00 0.00 410.00 813.00" xmlns="http://www.w3.org/2000/svg" xmlns:xlink="http://www.w3.org/1999/xlink">
<g id="graph0" class="graph" transform="scale(1 1) rotate(0) translate(4 809)">
<title>twoDegreesRelationshipsDiagram</title>
<polygon fill="#ffffff" stroke="transparent" points="-4,4 -4,-809 406,-809 406,4 -4,4"/>
<text text-anchor="middle" x="71.5" y="-7.2" font-family="Helvetica,sans-Serif" font-size="11.00">Generated by SchemaSpy</text>
<!-- accumulationrates -->
<g id="node1" class="node">
<title>accumulationrates</title>
<g id="a_node1"><a xlink:href="../../tables/accumulationrates.html" xlink:title="accumulationrates" target="_top">
<polygon fill="#ffffff" stroke="transparent" points="215,-743 215,-801 356,-801 356,-743 215,-743"/>
<polygon fill="#f5f5f5" stroke="transparent" points="215.5,-779 215.5,-801 356.5,-801 356.5,-779 215.5,-779"/>
<polygon fill="none" stroke="black" points="215.5,-779 215.5,-801 356.5,-801 356.5,-779 215.5,-779"/>
<text text-anchor="start" x="220.5" y="-788.2" font-family="Helvetica,sans-Serif" font-weight="bold" font-size="11.00">accumulationrates</text>
<text text-anchor="start" x="321.5" y="-787.2" font-family="Helvetica,sans-Serif" font-size="11.00">[table]</text>
<polygon fill="none" stroke="black" points="215.5,-761 215.5,-779 356.5,-779 356.5,-761 215.5,-761"/>
<text text-anchor="start" x="218.5" y="-767.2" font-family="Helvetica,sans-Serif" font-size="11.00">...</text>
<polygon fill="#ffffff" stroke="transparent" points="215.5,-743 215.5,-761 260.5,-761 260.5,-743 215.5,-743"/>
<polygon fill="none" stroke="black" points="215.5,-743 215.5,-761 260.5,-761 260.5,-743 215.5,-743"/>
<text text-anchor="start" x="218.5" y="-749.2" font-family="Helvetica,sans-Serif" font-size="11.00">&lt; 3</text>
<polygon fill="#ffffff" stroke="transparent" points="260.5,-743 260.5,-761 331.5,-761 331.5,-743 260.5,-743"/>
<polygon fill="none" stroke="black" points="260.5,-743 260.5,-761 331.5,-761 331.5,-743 260.5,-743"/>
<text text-anchor="start" x="274.5" y="-749.2" font-family="Helvetica,sans-Serif" font-size="11.00">1,089 rows</text>
<polygon fill="#ffffff" stroke="transparent" points="331.5,-743 331.5,-761 356.5,-761 356.5,-743 331.5,-743"/>
<polygon fill="none" stroke="black" points="331.5,-743 331.5,-761 356.5,-761 356.5,-743 331.5,-743"/>
<text text-anchor="start" x="346.5" y="-749.2" font-family="Helvetica,sans-Serif" font-size="11.00"> &#160;</text>
</a>
</g>
</g>
<!-- variableunits -->
<g id="node2" class="node">
<title>variableunits</title>
<g id="a_node2"><a xlink:href="../../tables/variableunits.html" xlink:title="variableunits" target="_top">
<polygon fill="#ffffff" stroke="transparent" points="8,-604 8,-684 128,-684 128,-604 8,-604"/>
<polygon fill="#f5f5f5" stroke="transparent" points="8,-662 8,-684 128,-684 128,-662 8,-662"/>
<polygon fill="none" stroke="black" points="8,-662 8,-684 128,-684 128,-662 8,-662"/>
<text text-anchor="start" x="13" y="-671.2" font-family="Helvetica,sans-Serif" font-weight="bold" font-size="11.00">variableunits</text>
<text text-anchor="start" x="93" y="-670.2" font-family="Helvetica,sans-Serif" font-size="11.00">[table]</text>
<polygon fill="none" stroke="black" points="8,-640 8,-662 128,-662 128,-640 8,-640"/>
<image xlink:href="../../images/primaryKeys.png" width="11px" height="12px" preserveAspectRatio="xMinYMin meet" x="13" y="-657"/>
<text text-anchor="start" x="28" y="-648.2" font-family="Helvetica,sans-Serif" font-size="11.00">variableunitsid</text>
<polygon fill="none" stroke="black" points="8,-622 8,-640 128,-640 128,-622 8,-622"/>
<text text-anchor="start" x="11" y="-628.2" font-family="Helvetica,sans-Serif" font-size="11.00">...</text>
<polygon fill="#ffffff" stroke="transparent" points="8,-604 8,-622 38,-622 38,-604 8,-604"/>
<polygon fill="none" stroke="black" points="8,-604 8,-622 38,-622 38,-604 8,-604"/>
<text text-anchor="start" x="11" y="-610.2" font-family="Helvetica,sans-Serif" font-size="11.00"> &#160;</text>
<polygon fill="#ffffff" stroke="transparent" points="38,-604 38,-622 97,-622 97,-604 38,-604"/>
<polygon fill="none" stroke="black" points="38,-604 38,-622 97,-622 97,-604 38,-604"/>
<text text-anchor="start" x="49" y="-610.2" font-family="Helvetica,sans-Serif" font-size="11.00">209 rows</text>
<polygon fill="#ffffff" stroke="transparent" points="97,-604 97,-622 128,-622 128,-604 97,-604"/>
<polygon fill="none" stroke="black" points="97,-604 97,-622 128,-622 128,-604 97,-604"/>
<text text-anchor="start" x="109" y="-610.2" font-family="Helvetica,sans-Serif" font-size="11.00">4 &gt;</text>
</a>
</g>
</g>
<!-- accumulationrates&#45;&gt;variableunits -->
<g id="edge1" class="edge">
<title>accumulationrates:w&#45;&gt;variableunits:e</title>
<path fill="none" stroke="black" d="M199.88,-767.59C186.31,-762.29 181.53,-748.79 169,-733 143.79,-701.24 169.55,-651 129,-651"/>
<polygon fill="black" stroke="black" points="206.61,-768.7 213.92,-773.55 210.55,-769.35 214.5,-770 214.5,-770 214.5,-770 210.55,-769.35 215.08,-766.45 206.61,-768.7 206.61,-768.7"/>
<ellipse fill="none" stroke="black" cx="203.45" cy="-768.18" rx="3.2" ry="3.2"/>
</g>
<!-- analysisunitaltdepthscales -->
<g id="node3" class="node">
<title>analysisunitaltdepthscales</title>
<g id="a_node3"><a xlink:href="../../tables/analysisunitaltdepthscales.html" xlink:title="analysisunitaltdepthscales" target="_top">
<polygon fill="#ffffff" stroke="transparent" points="194,-664 194,-722 377,-722 377,-664 194,-664"/>
<polygon fill="#f5f5f5" stroke="transparent" points="194.5,-700 194.5,-722 377.5,-722 377.5,-700 194.5,-700"/>
<polygon fill="none" stroke="black" points="194.5,-700 194.5,-722 377.5,-722 377.5,-700 194.5,-700"/>
<text text-anchor="start" x="199.5" y="-709.2" font-family="Helvetica,sans-Serif" font-weight="bold" font-size="11.00">analysisunitaltdepthscales</text>
<text text-anchor="start" x="342.5" y="-708.2" font-family="Helvetica,sans-Serif" font-size="11.00">[table]</text>
<polygon fill="none" stroke="black" points="194.5,-682 194.5,-700 377.5,-700 377.5,-682 194.5,-682"/>
<text text-anchor="start" x="197.5" y="-688.2" font-family="Helvetica,sans-Serif" font-size="11.00">...</text>
<polygon fill="#ffffff" stroke="transparent" points="194.5,-664 194.5,-682 263.5,-682 263.5,-664 194.5,-664"/>
<polygon fill="none" stroke="black" points="194.5,-664 194.5,-682 263.5,-682 263.5,-664 194.5,-664"/>
<text text-anchor="start" x="197.5" y="-670.2" font-family="Helvetica,sans-Serif" font-size="11.00">&lt; 1</text>
<polygon fill="#ffffff" stroke="transparent" points="263.5,-664 263.5,-682 331.5,-682 331.5,-664 263.5,-664"/>
<polygon fill="none" stroke="black" points="263.5,-664 263.5,-682 331.5,-682 331.5,-664 263.5,-664"/>
<text text-anchor="start" x="289.5" y="-670.2" font-family="Helvetica,sans-Serif" font-size="11.00">55 rows</text>
<polygon fill="#ffffff" stroke="transparent" points="331.5,-664 331.5,-682 377.5,-682 377.5,-664 331.5,-664"/>
<polygon fill="none" stroke="black" points="331.5,-664 331.5,-682 377.5,-682 377.5,-664 331.5,-664"/>
<text text-anchor="start" x="358.5" y="-670.2" font-family="Helvetica,sans-Serif" font-size="11.00">1 &gt;</text>
</a>
</g>
</g>
<!-- analysisunitaltdepthscales&#45;&gt;variableunits -->
<g id="edge2" class="edge">
<title>analysisunitaltdepthscales:w&#45;&gt;variableunits:e</title>
<path fill="none" stroke="black" d="M179.26,-687.99C159.73,-678.69 157.07,-651 129,-651"/>
<polygon fill="black" stroke="black" points="185.67,-689.35 192.76,-694.52 189.59,-690.17 193.5,-691 193.5,-691 193.5,-691 189.59,-690.17 194.24,-687.48 185.67,-689.35 185.67,-689.35"/>
<ellipse fill="none" stroke="black" cx="182.54" cy="-688.69" rx="3.2" ry="3.2"/>
</g>
<!-- contextsdatasettypes -->
<g id="node4" class="node">
<title>contextsdatasettypes</title>
<g id="a_node4"><a xlink:href="../../tables/contextsdatasettypes.html" xlink:title="contextsdatasettypes" target="_top">
<polygon fill="#ffffff" stroke="transparent" points="207.5,-195 207.5,-253 363.5,-253 363.5,-195 207.5,-195"/>
<polygon fill="#f5f5f5" stroke="transparent" points="207.5,-231 207.5,-253 363.5,-253 363.5,-231 207.5,-231"/>
<polygon fill="none" stroke="black" points="207.5,-231 207.5,-253 363.5,-253 363.5,-231 207.5,-231"/>
<text text-anchor="start" x="212.5" y="-240.2" font-family="Helvetica,sans-Serif" font-weight="bold" font-size="11.00">contextsdatasettypes</text>
<text text-anchor="start" x="328.5" y="-239.2" font-family="Helvetica,sans-Serif" font-size="11.00">[table]</text>
<polygon fill="none" stroke="black" points="207.5,-213 207.5,-231 363.5,-231 363.5,-213 207.5,-213"/>
<text text-anchor="start" x="210.5" y="-219.2" font-family="Helvetica,sans-Serif" font-size="11.00">...</text>
<polygon fill="#ffffff" stroke="transparent" points="207.5,-195 207.5,-213 264.5,-213 264.5,-195 207.5,-195"/>
<polygon fill="none" stroke="black" points="207.5,-195 207.5,-213 264.5,-213 264.5,-195 207.5,-195"/>
<text text-anchor="start" x="210.5" y="-201.2" font-family="Helvetica,sans-Serif" font-size="11.00">&lt; 2</text>
<polygon fill="#ffffff" stroke="transparent" points="264.5,-195 264.5,-213 332.5,-213 332.5,-195 264.5,-195"/>
<polygon fill="none" stroke="black" points="264.5,-195 264.5,-213 332.5,-213 332.5,-195 264.5,-195"/>
<text text-anchor="start" x="284.5" y="-201.2" font-family="Helvetica,sans-Serif" font-size="11.00">190 rows</text>
<polygon fill="#ffffff" stroke="transparent" points="332.5,-195 332.5,-213 363.5,-213 363.5,-195 332.5,-195"/>
<polygon fill="none" stroke="black" points="332.5,-195 332.5,-213 363.5,-213 363.5,-195 332.5,-195"/>
<text text-anchor="start" x="353.5" y="-201.2" font-family="Helvetica,sans-Serif" font-size="11.00"> &#160;</text>
</a>
</g>
</g>
<!-- datasettypes -->
<g id="node5" class="node">
<title>datasettypes</title>
<g id="a_node5"><a xlink:href="../../tables/datasettypes.html" xlink:title="datasettypes" target="_top">
<polygon fill="#ffffff" stroke="transparent" points="8,-214 8,-294 128,-294 128,-214 8,-214"/>
<polygon fill="#f5f5f5" stroke="transparent" points="8,-272 8,-294 128,-294 128,-272 8,-272"/>
<polygon fill="none" stroke="black" points="8,-272 8,-294 128,-294 128,-272 8,-272"/>
<text text-anchor="start" x="13" y="-281.2" font-family="Helvetica,sans-Serif" font-weight="bold" font-size="11.00">datasettypes</text>
<text text-anchor="start" x="93" y="-280.2" font-family="Helvetica,sans-Serif" font-size="11.00">[table]</text>
<polygon fill="none" stroke="black" points="8,-250 8,-272 128,-272 128,-250 8,-250"/>
<image xlink:href="../../images/primaryKeys.png" width="11px" height="12px" preserveAspectRatio="xMinYMin meet" x="13" y="-267"/>
<text text-anchor="start" x="28" y="-258.2" font-family="Helvetica,sans-Serif" font-size="11.00">datasettypeid</text>
<polygon fill="none" stroke="black" points="8,-232 8,-250 128,-250 128,-232 8,-232"/>
<text text-anchor="start" x="11" y="-238.2" font-family="Helvetica,sans-Serif" font-size="11.00">...</text>
<polygon fill="#ffffff" stroke="transparent" points="8,-214 8,-232 41,-232 41,-214 8,-214"/>
<polygon fill="none" stroke="black" points="8,-214 8,-232 41,-232 41,-214 8,-214"/>
<text text-anchor="start" x="11" y="-220.2" font-family="Helvetica,sans-Serif" font-size="11.00"> &#160;</text>
<polygon fill="#ffffff" stroke="transparent" points="41,-214 41,-232 96,-232 96,-214 41,-214"/>
<polygon fill="none" stroke="black" points="41,-214 41,-232 96,-232 96,-214 41,-214"/>
<text text-anchor="start" x="54" y="-220.2" font-family="Helvetica,sans-Serif" font-size="11.00">41 rows</text>
<polygon fill="#ffffff" stroke="transparent" points="96,-214 96,-232 128,-232 128,-214 96,-214"/>
<polygon fill="none" stroke="black" points="96,-214 96,-232 128,-232 128,-214 96,-214"/>
<text text-anchor="start" x="109" y="-220.2" font-family="Helvetica,sans-Serif" font-size="11.00">6 &gt;</text>
</a>
</g>
</g>
<!-- contextsdatasettypes&#45;&gt;datasettypes -->
<g id="edge3" class="edge">
<title>contextsdatasettypes:w&#45;&gt;datasettypes:e</title>
<path fill="none" stroke="black" d="M191.94,-224.21C167.03,-232.46 161.99,-261 129,-261"/>
<polygon fill="black" stroke="black" points="198.59,-223.2 207.04,-225.56 202.55,-222.6 206.5,-222 206.5,-222 206.5,-222 202.55,-222.6 205.96,-218.44 198.59,-223.2 198.59,-223.2"/>
<ellipse fill="none" stroke="black" cx="195.43" cy="-223.68" rx="3.2" ry="3.2"/>
</g>
<!-- datasets -->
<g id="node6" class="node">
<title>datasets</title>
<g id="a_node6"><a xlink:href="../../tables/datasets.html" xlink:title="datasets" target="_top">
<polygon fill="#ffffff" stroke="transparent" points="227.5,-116 227.5,-174 343.5,-174 343.5,-116 227.5,-116"/>
<polygon fill="#f5f5f5" stroke="transparent" points="227.5,-152 227.5,-174 343.5,-174 343.5,-152 227.5,-152"/>
<polygon fill="none" stroke="black" points="227.5,-152 227.5,-174 343.5,-174 343.5,-152 227.5,-152"/>
<text text-anchor="start" x="232.5" y="-161.2" font-family="Helvetica,sans-Serif" font-weight="bold" font-size="11.00">datasets</text>
<text text-anchor="start" x="308.5" y="-160.2" font-family="Helvetica,sans-Serif" font-size="11.00">[table]</text>
<polygon fill="none" stroke="black" points="227.5,-134 227.5,-152 343.5,-152 343.5,-134 227.5,-134"/>
<text text-anchor="start" x="230.5" y="-140.2" font-family="Helvetica,sans-Serif" font-size="11.00">...</text>
<polygon fill="#ffffff" stroke="transparent" points="227.5,-116 227.5,-134 249.5,-134 249.5,-116 227.5,-116"/>
<polygon fill="none" stroke="black" points="227.5,-116 227.5,-134 249.5,-134 249.5,-116 227.5,-116"/>
<text text-anchor="start" x="230.5" y="-122.2" font-family="Helvetica,sans-Serif" font-size="11.00">&lt; 3</text>
<polygon fill="#ffffff" stroke="transparent" points="249.5,-116 249.5,-134 315.5,-134 315.5,-116 249.5,-116"/>
<polygon fill="none" stroke="black" points="249.5,-116 249.5,-134 315.5,-134 315.5,-116 249.5,-116"/>
<text text-anchor="start" x="252.5" y="-122.2" font-family="Helvetica,sans-Serif" font-size="11.00">48,328 rows</text>
<polygon fill="#ffffff" stroke="transparent" points="315.5,-116 315.5,-134 343.5,-134 343.5,-116 315.5,-116"/>
<polygon fill="none" stroke="black" points="315.5,-116 315.5,-134 343.5,-134 343.5,-116 315.5,-116"/>
<text text-anchor="start" x="318.5" y="-122.2" font-family="Helvetica,sans-Serif" font-size="11.00">13 &gt;</text>
</a>
</g>
</g>
<!-- datasets&#45;&gt;datasettypes -->
<g id="edge4" class="edge">
<title>datasets:w&#45;&gt;datasettypes:e</title>
<path fill="none" stroke="black" d="M212.12,-144.54C192.7,-149.28 185.97,-164.47 169,-184 143.71,-213.11 167.56,-261 129,-261"/>
<polygon fill="black" stroke="black" points="218.55,-143.85 226.88,-146.58 222.52,-143.43 226.5,-143 226.5,-143 226.5,-143 222.52,-143.43 226.12,-139.42 218.55,-143.85 218.55,-143.85"/>
<ellipse fill="none" stroke="black" cx="215.36" cy="-144.2" rx="3.2" ry="3.2"/>
</g>
<!-- datasettaxagrouptypes -->
<g id="node7" class="node">
<title>datasettaxagrouptypes</title>
<g id="a_node7"><a xlink:href="../../tables/datasettaxagrouptypes.html" xlink:title="datasettaxagrouptypes" target="_top">
<polygon fill="#ffffff" stroke="transparent" points="203,-37 203,-95 368,-95 368,-37 203,-37"/>
<polygon fill="#f5f5f5" stroke="transparent" points="203.5,-73 203.5,-95 368.5,-95 368.5,-73 203.5,-73"/>
<polygon fill="none" stroke="black" points="203.5,-73 203.5,-95 368.5,-95 368.5,-73 203.5,-73"/>
<text text-anchor="start" x="208.5" y="-82.2" font-family="Helvetica,sans-Serif" font-weight="bold" font-size="11.00">datasettaxagrouptypes</text>
<text text-anchor="start" x="333.5" y="-81.2" font-family="Helvetica,sans-Serif" font-size="11.00">[table]</text>
<polygon fill="none" stroke="black" points="203.5,-55 203.5,-73 368.5,-73 368.5,-55 203.5,-55"/>
<text text-anchor="start" x="206.5" y="-61.2" font-family="Helvetica,sans-Serif" font-size="11.00">...</text>
<polygon fill="#ffffff" stroke="transparent" points="203.5,-37 203.5,-55 264.5,-55 264.5,-37 203.5,-37"/>
<polygon fill="none" stroke="black" points="203.5,-37 203.5,-55 264.5,-55 264.5,-37 203.5,-37"/>
<text text-anchor="start" x="206.5" y="-43.2" font-family="Helvetica,sans-Serif" font-size="11.00">&lt; 2</text>
<polygon fill="#ffffff" stroke="transparent" points="264.5,-37 264.5,-55 335.5,-55 335.5,-37 264.5,-37"/>
<polygon fill="none" stroke="black" points="264.5,-37 264.5,-55 335.5,-55 335.5,-37 264.5,-37"/>
<text text-anchor="start" x="287.5" y="-43.2" font-family="Helvetica,sans-Serif" font-size="11.00">184 rows</text>
<polygon fill="#ffffff" stroke="transparent" points="335.5,-37 335.5,-55 368.5,-55 368.5,-37 335.5,-37"/>
<polygon fill="none" stroke="black" points="335.5,-37 335.5,-55 368.5,-55 368.5,-37 335.5,-37"/>
<text text-anchor="start" x="358.5" y="-43.2" font-family="Helvetica,sans-Serif" font-size="11.00"> &#160;</text>
</a>
</g>
</g>
<!-- datasettaxagrouptypes&#45;&gt;datasettypes -->
<g id="edge5" class="edge">
<title>datasettaxagrouptypes:w&#45;&gt;datasettypes:e</title>
<path fill="none" stroke="black" d="M188.12,-65.95C121.63,-86.41 216.98,-261 129,-261"/>
<polygon fill="black" stroke="black" points="194.57,-65.07 202.98,-67.57 198.54,-64.54 202.5,-64 202.5,-64 202.5,-64 198.54,-64.54 202.02,-60.43 194.57,-65.07 194.57,-65.07"/>
<ellipse fill="none" stroke="black" cx="191.4" cy="-65.5" rx="3.2" ry="3.2"/>
</g>
<!-- elementdatasettaxagroups -->
<g id="node8" class="node">
<title>elementdatasettaxagroups</title>
<g id="a_node8"><a xlink:href="../../tables/elementdatasettaxagroups.html" xlink:title="elementdatasettaxagroups" target="_top">
<polygon fill="#ffffff" stroke="transparent" points="194,-353 194,-411 377,-411 377,-353 194,-353"/>
<polygon fill="#f5f5f5" stroke="transparent" points="194.5,-389 194.5,-411 377.5,-411 377.5,-389 194.5,-389"/>
<polygon fill="none" stroke="black" points="194.5,-389 194.5,-411 377.5,-411 377.5,-389 194.5,-389"/>
<text text-anchor="start" x="199.5" y="-398.2" font-family="Helvetica,sans-Serif" font-weight="bold" font-size="11.00">elementdatasettaxagroups</text>
<text text-anchor="start" x="342.5" y="-397.2" font-family="Helvetica,sans-Serif" font-size="11.00">[table]</text>
<polygon fill="none" stroke="black" points="194.5,-371 194.5,-389 377.5,-389 377.5,-371 194.5,-371"/>
<text text-anchor="start" x="197.5" y="-377.2" font-family="Helvetica,sans-Serif" font-size="11.00">...</text>
<polygon fill="#ffffff" stroke="transparent" points="194.5,-353 194.5,-371 260.5,-371 260.5,-353 194.5,-353"/>
<polygon fill="none" stroke="black" points="194.5,-353 194.5,-371 260.5,-371 260.5,-353 194.5,-353"/>
<text text-anchor="start" x="197.5" y="-359.2" font-family="Helvetica,sans-Serif" font-size="11.00">&lt; 2</text>
<polygon fill="#ffffff" stroke="transparent" points="260.5,-353 260.5,-371 342.5,-371 342.5,-353 260.5,-353"/>
<polygon fill="none" stroke="black" points="260.5,-353 260.5,-371 342.5,-371 342.5,-353 260.5,-353"/>
<text text-anchor="start" x="285.5" y="-359.2" font-family="Helvetica,sans-Serif" font-size="11.00">1,448 rows</text>
<polygon fill="#ffffff" stroke="transparent" points="342.5,-353 342.5,-371 377.5,-371 377.5,-353 342.5,-353"/>
<polygon fill="none" stroke="black" points="342.5,-353 342.5,-371 377.5,-371 377.5,-353 342.5,-353"/>
<text text-anchor="start" x="367.5" y="-359.2" font-family="Helvetica,sans-Serif" font-size="11.00"> &#160;</text>
</a>
</g>
</g>
<!-- elementdatasettaxagroups&#45;&gt;datasettypes -->
<g id="edge6" class="edge">
<title>elementdatasettaxagroups:w&#45;&gt;datasettypes:e</title>
<path fill="none" stroke="black" d="M178.98,-376.82C143.14,-357.89 183.28,-261 129,-261"/>
<polygon fill="black" stroke="black" points="185.69,-378.29 192.73,-383.52 189.59,-379.14 193.5,-380 193.5,-380 193.5,-380 189.59,-379.14 194.27,-376.48 185.69,-378.29 185.69,-378.29"/>
<ellipse fill="none" stroke="black" cx="182.56" cy="-377.6" rx="3.2" ry="3.2"/>
</g>
<!-- taphonomicsystemsdatasettypes -->
<g id="node9" class="node">
<title>taphonomicsystemsdatasettypes</title>
<g id="a_node9"><a xlink:href="../../tables/taphonomicsystemsdatasettypes.html" xlink:title="taphonomicsystemsdatasettypes" target="_top">
<polygon fill="#ffffff" stroke="transparent" points="177,-274 177,-332 394,-332 394,-274 177,-274"/>
<polygon fill="#f5f5f5" stroke="transparent" points="177.5,-310 177.5,-332 394.5,-332 394.5,-310 177.5,-310"/>
<polygon fill="none" stroke="black" points="177.5,-310 177.5,-332 394.5,-332 394.5,-310 177.5,-310"/>
<text text-anchor="start" x="182.5" y="-319.2" font-family="Helvetica,sans-Serif" font-weight="bold" font-size="11.00">taphonomicsystemsdatasettypes</text>
<text text-anchor="start" x="359.5" y="-318.2" font-family="Helvetica,sans-Serif" font-size="11.00">[table]</text>
<polygon fill="none" stroke="black" points="177.5,-292 177.5,-310 394.5,-310 394.5,-292 177.5,-292"/>
<text text-anchor="start" x="180.5" y="-298.2" font-family="Helvetica,sans-Serif" font-size="11.00">...</text>
<polygon fill="#ffffff" stroke="transparent" points="177.5,-274 177.5,-292 267.5,-292 267.5,-274 177.5,-274"/>
<polygon fill="none" stroke="black" points="177.5,-274 177.5,-292 267.5,-292 267.5,-274 177.5,-274"/>
<text text-anchor="start" x="180.5" y="-280.2" font-family="Helvetica,sans-Serif" font-size="11.00">&lt; 2</text>
<polygon fill="#ffffff" stroke="transparent" points="267.5,-274 267.5,-292 346.5,-292 346.5,-274 267.5,-274"/>
<polygon fill="none" stroke="black" points="267.5,-274 267.5,-292 346.5,-292 346.5,-274 267.5,-274"/>
<text text-anchor="start" x="304.5" y="-280.2" font-family="Helvetica,sans-Serif" font-size="11.00">11 rows</text>
<polygon fill="#ffffff" stroke="transparent" points="346.5,-274 346.5,-292 394.5,-292 394.5,-274 346.5,-274"/>
<polygon fill="none" stroke="black" points="346.5,-274 346.5,-292 394.5,-292 394.5,-274 346.5,-274"/>
<text text-anchor="start" x="384.5" y="-280.2" font-family="Helvetica,sans-Serif" font-size="11.00"> &#160;</text>
</a>
</g>
</g>
<!-- taphonomicsystemsdatasettypes&#45;&gt;datasettypes -->
<g id="edge7" class="edge">
<title>taphonomicsystemsdatasettypes:w&#45;&gt;datasettypes:e</title>
<path fill="none" stroke="black" d="M162.72,-296.1C150.58,-285.41 150.56,-261 129,-261"/>
<polygon fill="black" stroke="black" points="168.96,-298.32 175.29,-304.39 172.73,-299.66 176.5,-301 176.5,-301 176.5,-301 172.73,-299.66 177.71,-297.61 168.96,-298.32 168.96,-298.32"/>
<ellipse fill="none" stroke="black" cx="165.95" cy="-297.25" rx="3.2" ry="3.2"/>
</g>
<!-- unitsdatasettypes -->
<g id="node10" class="node">
<title>unitsdatasettypes</title>
<g id="a_node10"><a xlink:href="../../tables/unitsdatasettypes.html" xlink:title="unitsdatasettypes" target="_top">
<polygon fill="#ffffff" stroke="transparent" points="182,-432 182,-564 389,-564 389,-432 182,-432"/>
<polygon fill="#f5f5f5" stroke="transparent" points="184.5,-540 184.5,-562 387.5,-562 387.5,-540 184.5,-540"/>
<polygon fill="none" stroke="black" points="184.5,-540 184.5,-562 387.5,-562 387.5,-540 184.5,-540"/>
<text text-anchor="start" x="189.5" y="-549.2" font-family="Helvetica,sans-Serif" font-weight="bold" font-size="11.00">unitsdatasettypes</text>
<text text-anchor="start" x="352.5" y="-548.2" font-family="Helvetica,sans-Serif" font-size="11.00">[table]</text>
<polygon fill="none" stroke="black" points="184.5,-518 184.5,-540 313.5,-540 313.5,-518 184.5,-518"/>
<image xlink:href="../../images/primaryKeys.png" width="11px" height="12px" preserveAspectRatio="xMinYMin meet" x="189.5" y="-535"/>
<text text-anchor="start" x="204.5" y="-526.2" font-family="Helvetica,sans-Serif" font-size="11.00">datasettypeid</text>
<polygon fill="none" stroke="black" points="313.5,-518 313.5,-540 387.5,-540 387.5,-518 313.5,-518"/>
<text text-anchor="start" x="316.5" y="-526.2" font-family="Helvetica,sans-Serif" font-size="11.00">int4[10]</text>
<polygon fill="none" stroke="black" points="184.5,-496 184.5,-518 313.5,-518 313.5,-496 184.5,-496"/>
<image xlink:href="../../images/primaryKeys.png" width="11px" height="12px" preserveAspectRatio="xMinYMin meet" x="189.5" y="-513"/>
<text text-anchor="start" x="204.5" y="-504.2" font-family="Helvetica,sans-Serif" font-size="11.00">variableunitsid</text>
<polygon fill="none" stroke="black" points="313.5,-496 313.5,-518 387.5,-518 387.5,-496 313.5,-496"/>
<text text-anchor="start" x="316.5" y="-504.2" font-family="Helvetica,sans-Serif" font-size="11.00">int4[10]</text>
<polygon fill="none" stroke="black" points="184.5,-474 184.5,-496 313.5,-496 313.5,-474 184.5,-474"/>
<text text-anchor="start" x="204.5" y="-482.2" font-family="Helvetica,sans-Serif" font-size="11.00">recdatecreated</text>
<polygon fill="none" stroke="black" points="313.5,-474 313.5,-496 387.5,-496 387.5,-474 313.5,-474"/>
<text text-anchor="start" x="316.5" y="-482.2" font-family="Helvetica,sans-Serif" font-size="11.00">timestamp[22]</text>
<polygon fill="none" stroke="black" points="184.5,-452 184.5,-474 313.5,-474 313.5,-452 184.5,-452"/>
<text text-anchor="start" x="204.5" y="-460.2" font-family="Helvetica,sans-Serif" font-size="11.00">recdatemodified</text>
<polygon fill="none" stroke="black" points="313.5,-452 313.5,-474 387.5,-474 387.5,-452 313.5,-452"/>
<text text-anchor="start" x="316.5" y="-460.2" font-family="Helvetica,sans-Serif" font-size="11.00">timestamp[22]</text>
<polygon fill="#ffffff" stroke="transparent" points="184.5,-434 184.5,-452 234.5,-452 234.5,-434 184.5,-434"/>
<polygon fill="none" stroke="black" points="184.5,-434 184.5,-452 234.5,-452 234.5,-434 184.5,-434"/>
<text text-anchor="start" x="187.5" y="-440.2" font-family="Helvetica,sans-Serif" font-size="11.00">&lt; 2</text>
<polygon fill="#ffffff" stroke="transparent" points="234.5,-434 234.5,-452 313.5,-452 313.5,-434 234.5,-434"/>
<polygon fill="none" stroke="black" points="234.5,-434 234.5,-452 313.5,-452 313.5,-434 234.5,-434"/>
<text text-anchor="start" x="265.5" y="-440.2" font-family="Helvetica,sans-Serif" font-size="11.00">657 rows</text>
<polygon fill="#ffffff" stroke="transparent" points="313.5,-434 313.5,-452 387.5,-452 387.5,-434 313.5,-434"/>
<polygon fill="none" stroke="black" points="313.5,-434 313.5,-452 387.5,-452 387.5,-434 313.5,-434"/>
<text text-anchor="start" x="368.5" y="-440.2" font-family="Helvetica,sans-Serif" font-size="11.00">0 &gt;</text>
<polygon fill="none" stroke="black" stroke-width="2" points="183,-433 183,-563 388,-563 388,-433 183,-433"/>
</a>
</g>
</g>
<!-- unitsdatasettypes&#45;&gt;variableunits -->
<g id="edge9" class="edge">
<title>unitsdatasettypes:w&#45;&gt;variableunits:e</title>
<path fill="none" stroke="black" d="M169.27,-509.88C127.84,-530.17 191.68,-651 129,-651"/>
<polygon fill="black" stroke="black" points="175.66,-508.59 184.21,-510.53 179.58,-507.79 183.5,-507 183.5,-507 183.5,-507 179.58,-507.79 182.79,-503.47 175.66,-508.59 175.66,-508.59"/>
<ellipse fill="none" stroke="black" cx="172.52" cy="-509.22" rx="3.2" ry="3.2"/>
</g>
<!-- unitsdatasettypes&#45;&gt;datasettypes -->
<g id="edge8" class="edge">
<title>unitsdatasettypes:w&#45;&gt;datasettypes:e</title>
<path fill="none" stroke="black" d="M170.26,-523.15C133.52,-483.96 184.43,-261 129,-261"/>
<polygon fill="black" stroke="black" points="176.18,-525.77 182.05,-532.29 179.84,-527.38 183.5,-529 183.5,-529 183.5,-529 179.84,-527.38 184.95,-525.71 176.18,-525.77 176.18,-525.77"/>
<ellipse fill="none" stroke="black" cx="173.26" cy="-524.47" rx="3.2" ry="3.2"/>
</g>
<!-- variables -->
<g id="node11" class="node">
<title>variables</title>
<g id="a_node11"><a xlink:href="../../tables/variables.html" xlink:title="variables" target="_top">
<polygon fill="#ffffff" stroke="transparent" points="230.5,-585 230.5,-643 340.5,-643 340.5,-585 230.5,-585"/>
<polygon fill="#f5f5f5" stroke="transparent" points="230.5,-621 230.5,-643 340.5,-643 340.5,-621 230.5,-621"/>
<polygon fill="none" stroke="black" points="230.5,-621 230.5,-643 340.5,-643 340.5,-621 230.5,-621"/>
<text text-anchor="start" x="235.5" y="-630.2" font-family="Helvetica,sans-Serif" font-weight="bold" font-size="11.00">variables</text>
<text text-anchor="start" x="305.5" y="-629.2" font-family="Helvetica,sans-Serif" font-size="11.00">[table]</text>
<polygon fill="none" stroke="black" points="230.5,-603 230.5,-621 340.5,-621 340.5,-603 230.5,-603"/>
<text text-anchor="start" x="233.5" y="-609.2" font-family="Helvetica,sans-Serif" font-size="11.00">...</text>
<polygon fill="#ffffff" stroke="transparent" points="230.5,-585 230.5,-603 252.5,-603 252.5,-585 230.5,-585"/>
<polygon fill="none" stroke="black" points="230.5,-585 230.5,-603 252.5,-603 252.5,-585 230.5,-585"/>
<text text-anchor="start" x="233.5" y="-591.2" font-family="Helvetica,sans-Serif" font-size="11.00">&lt; 4</text>
<polygon fill="#ffffff" stroke="transparent" points="252.5,-585 252.5,-603 318.5,-603 318.5,-585 252.5,-585"/>
<polygon fill="none" stroke="black" points="252.5,-585 252.5,-603 318.5,-603 318.5,-585 252.5,-585"/>
<text text-anchor="start" x="255.5" y="-591.2" font-family="Helvetica,sans-Serif" font-size="11.00">55,155 rows</text>
<polygon fill="#ffffff" stroke="transparent" points="318.5,-585 318.5,-603 340.5,-603 340.5,-585 318.5,-585"/>
<polygon fill="none" stroke="black" points="318.5,-585 318.5,-603 340.5,-603 340.5,-585 318.5,-585"/>
<text text-anchor="start" x="321.5" y="-591.2" font-family="Helvetica,sans-Serif" font-size="11.00">6 &gt;</text>
</a>
</g>
</g>
<!-- variables&#45;&gt;variableunits -->
<g id="edge10" class="edge">
<title>variables:w&#45;&gt;variableunits:e</title>
<path fill="none" stroke="black" d="M214.76,-613.39C179.97,-620.34 171.48,-651 129,-651"/>
<polygon fill="black" stroke="black" points="221.54,-612.75 229.84,-615.58 225.52,-612.37 229.5,-612 229.5,-612 229.5,-612 225.52,-612.37 229.16,-608.42 221.54,-612.75 221.54,-612.75"/>
<ellipse fill="none" stroke="black" cx="218.35" cy="-613.05" rx="3.2" ry="3.2"/>
</g>
</g>
</svg>
