<?xml version="1.0" encoding="UTF-8" standalone="no"?>
<!DOCTYPE svg PUBLIC "-//W3C//DTD SVG 1.1//EN"
 "http://www.w3.org/Graphics/SVG/1.1/DTD/svg11.dtd">
<!-- Generated by graphviz version 2.43.0 (0)
 -->
<!-- Title: oneDegreeRelationshipsDiagram Pages: 1 -->
<svg width="400pt" height="230pt"
 viewBox="0.00 0.00 400.00 230.00" xmlns="http://www.w3.org/2000/svg" xmlns:xlink="http://www.w3.org/1999/xlink">
<g id="graph0" class="graph" transform="scale(1 1) rotate(0) translate(4 226)">
<title>oneDegreeRelationshipsDiagram</title>
<polygon fill="#ffffff" stroke="transparent" points="-4,4 -4,-226 396,-226 396,4 -4,4"/>
<text text-anchor="middle" x="71.5" y="-7.2" font-family="Helvetica,sans-Serif" font-size="11.00">Generated by SchemaSpy</text>
<!-- unitsdatasettypes -->
<g id="node1" class="node">
<title>unitsdatasettypes</title>
<g id="a_node1"><a xlink:href="../../tables/unitsdatasettypes.html" xlink:title="unitsdatasettypes" target="_top">
<polygon fill="#ffffff" stroke="transparent" points="177,-48 177,-180 384,-180 384,-48 177,-48"/>
<polygon fill="#f5f5f5" stroke="transparent" points="179.5,-156 179.5,-178 382.5,-178 382.5,-156 179.5,-156"/>
<polygon fill="none" stroke="black" points="179.5,-156 179.5,-178 382.5,-178 382.5,-156 179.5,-156"/>
<text text-anchor="start" x="184.5" y="-165.2" font-family="Helvetica,sans-Serif" font-weight="bold" font-size="11.00">unitsdatasettypes</text>
<text text-anchor="start" x="347.5" y="-164.2" font-family="Helvetica,sans-Serif" font-size="11.00">[table]</text>
<polygon fill="none" stroke="black" points="179.5,-134 179.5,-156 308.5,-156 308.5,-134 179.5,-134"/>
<image xlink:href="../../images/primaryKeys.png" width="11px" height="12px" preserveAspectRatio="xMinYMin meet" x="184.5" y="-151"/>
<text text-anchor="start" x="199.5" y="-142.2" font-family="Helvetica,sans-Serif" font-size="11.00">datasettypeid</text>
<polygon fill="none" stroke="black" points="308.5,-134 308.5,-156 382.5,-156 382.5,-134 308.5,-134"/>
<text text-anchor="start" x="311.5" y="-142.2" font-family="Helvetica,sans-Serif" font-size="11.00">int4[10]</text>
<polygon fill="none" stroke="black" points="179.5,-112 179.5,-134 308.5,-134 308.5,-112 179.5,-112"/>
<image xlink:href="../../images/primaryKeys.png" width="11px" height="12px" preserveAspectRatio="xMinYMin meet" x="184.5" y="-129"/>
<text text-anchor="start" x="199.5" y="-120.2" font-family="Helvetica,sans-Serif" font-size="11.00">variableunitsid</text>
<polygon fill="none" stroke="black" points="308.5,-112 308.5,-134 382.5,-134 382.5,-112 308.5,-112"/>
<text text-anchor="start" x="311.5" y="-120.2" font-family="Helvetica,sans-Serif" font-size="11.00">int4[10]</text>
<polygon fill="none" stroke="black" points="179.5,-90 179.5,-112 308.5,-112 308.5,-90 179.5,-90"/>
<text text-anchor="start" x="199.5" y="-98.2" font-family="Helvetica,sans-Serif" font-size="11.00">recdatecreated</text>
<polygon fill="none" stroke="black" points="308.5,-90 308.5,-112 382.5,-112 382.5,-90 308.5,-90"/>
<text text-anchor="start" x="311.5" y="-98.2" font-family="Helvetica,sans-Serif" font-size="11.00">timestamp[22]</text>
<polygon fill="none" stroke="black" points="179.5,-68 179.5,-90 308.5,-90 308.5,-68 179.5,-68"/>
<text text-anchor="start" x="199.5" y="-76.2" font-family="Helvetica,sans-Serif" font-size="11.00">recdatemodified</text>
<polygon fill="none" stroke="black" points="308.5,-68 308.5,-90 382.5,-90 382.5,-68 308.5,-68"/>
<text text-anchor="start" x="311.5" y="-76.2" font-family="Helvetica,sans-Serif" font-size="11.00">timestamp[22]</text>
<polygon fill="#ffffff" stroke="transparent" points="179.5,-50 179.5,-68 229.5,-68 229.5,-50 179.5,-50"/>
<polygon fill="none" stroke="black" points="179.5,-50 179.5,-68 229.5,-68 229.5,-50 179.5,-50"/>
<text text-anchor="start" x="182.5" y="-56.2" font-family="Helvetica,sans-Serif" font-size="11.00">&lt; 2</text>
<polygon fill="#ffffff" stroke="transparent" points="229.5,-50 229.5,-68 308.5,-68 308.5,-50 229.5,-50"/>
<polygon fill="none" stroke="black" points="229.5,-50 229.5,-68 308.5,-68 308.5,-50 229.5,-50"/>
<text text-anchor="start" x="260.5" y="-56.2" font-family="Helvetica,sans-Serif" font-size="11.00">657 rows</text>
<polygon fill="#ffffff" stroke="transparent" points="308.5,-50 308.5,-68 382.5,-68 382.5,-50 308.5,-50"/>
<polygon fill="none" stroke="black" points="308.5,-50 308.5,-68 382.5,-68 382.5,-50 308.5,-50"/>
<text text-anchor="start" x="363.5" y="-56.2" font-family="Helvetica,sans-Serif" font-size="11.00">0 &gt;</text>
<polygon fill="none" stroke="black" stroke-width="2" points="178,-49 178,-179 383,-179 383,-49 178,-49"/>
</a>
</g>
</g>
<!-- datasettypes -->
<g id="node2" class="node">
<title>datasettypes</title>
<g id="a_node2"><a xlink:href="../../tables/datasettypes.html" xlink:title="datasettypes" target="_top">
<polygon fill="#ffffff" stroke="transparent" points="8,-138 8,-218 128,-218 128,-138 8,-138"/>
<polygon fill="#f5f5f5" stroke="transparent" points="8,-196 8,-218 128,-218 128,-196 8,-196"/>
<polygon fill="none" stroke="black" points="8,-196 8,-218 128,-218 128,-196 8,-196"/>
<text text-anchor="start" x="13" y="-205.2" font-family="Helvetica,sans-Serif" font-weight="bold" font-size="11.00">datasettypes</text>
<text text-anchor="start" x="93" y="-204.2" font-family="Helvetica,sans-Serif" font-size="11.00">[table]</text>
<polygon fill="none" stroke="black" points="8,-174 8,-196 128,-196 128,-174 8,-174"/>
<image xlink:href="../../images/primaryKeys.png" width="11px" height="12px" preserveAspectRatio="xMinYMin meet" x="13" y="-191"/>
<text text-anchor="start" x="28" y="-182.2" font-family="Helvetica,sans-Serif" font-size="11.00">datasettypeid</text>
<polygon fill="none" stroke="black" points="8,-156 8,-174 128,-174 128,-156 8,-156"/>
<text text-anchor="start" x="11" y="-162.2" font-family="Helvetica,sans-Serif" font-size="11.00">...</text>
<polygon fill="#ffffff" stroke="transparent" points="8,-138 8,-156 41,-156 41,-138 8,-138"/>
<polygon fill="none" stroke="black" points="8,-138 8,-156 41,-156 41,-138 8,-138"/>
<text text-anchor="start" x="11" y="-144.2" font-family="Helvetica,sans-Serif" font-size="11.00"> &#160;</text>
<polygon fill="#ffffff" stroke="transparent" points="41,-138 41,-156 96,-156 96,-138 41,-138"/>
<polygon fill="none" stroke="black" points="41,-138 41,-156 96,-156 96,-138 41,-138"/>
<text text-anchor="start" x="54" y="-144.2" font-family="Helvetica,sans-Serif" font-size="11.00">41 rows</text>
<polygon fill="#ffffff" stroke="transparent" points="96,-138 96,-156 128,-156 128,-138 96,-138"/>
<polygon fill="none" stroke="black" points="96,-138 96,-156 128,-156 128,-138 96,-138"/>
<text text-anchor="start" x="109" y="-144.2" font-family="Helvetica,sans-Serif" font-size="11.00">6 &gt;</text>
</a>
</g>
</g>
<!-- unitsdatasettypes&#45;&gt;datasettypes -->
<g id="edge1" class="edge">
<title>unitsdatasettypes:w&#45;&gt;datasettypes:e</title>
<path fill="none" stroke="black" d="M164.66,-149.59C151.62,-160.1 151.32,-185 129,-185"/>
<polygon fill="black" stroke="black" points="170.91,-147.52 179.63,-148.42 174.7,-146.26 178.5,-145 178.5,-145 178.5,-145 174.7,-146.26 177.37,-141.58 170.91,-147.52 170.91,-147.52"/>
<ellipse fill="none" stroke="black" cx="167.87" cy="-148.52" rx="3.2" ry="3.2"/>
</g>
<!-- variableunits -->
<g id="node3" class="node">
<title>variableunits</title>
<g id="a_node3"><a xlink:href="../../tables/variableunits.html" xlink:title="variableunits" target="_top">
<polygon fill="#ffffff" stroke="transparent" points="8,-37 8,-117 128,-117 128,-37 8,-37"/>
<polygon fill="#f5f5f5" stroke="transparent" points="8,-95 8,-117 128,-117 128,-95 8,-95"/>
<polygon fill="none" stroke="black" points="8,-95 8,-117 128,-117 128,-95 8,-95"/>
<text text-anchor="start" x="13" y="-104.2" font-family="Helvetica,sans-Serif" font-weight="bold" font-size="11.00">variableunits</text>
<text text-anchor="start" x="93" y="-103.2" font-family="Helvetica,sans-Serif" font-size="11.00">[table]</text>
<polygon fill="none" stroke="black" points="8,-73 8,-95 128,-95 128,-73 8,-73"/>
<image xlink:href="../../images/primaryKeys.png" width="11px" height="12px" preserveAspectRatio="xMinYMin meet" x="13" y="-90"/>
<text text-anchor="start" x="28" y="-81.2" font-family="Helvetica,sans-Serif" font-size="11.00">variableunitsid</text>
<polygon fill="none" stroke="black" points="8,-55 8,-73 128,-73 128,-55 8,-55"/>
<text text-anchor="start" x="11" y="-61.2" font-family="Helvetica,sans-Serif" font-size="11.00">...</text>
<polygon fill="#ffffff" stroke="transparent" points="8,-37 8,-55 38,-55 38,-37 8,-37"/>
<polygon fill="none" stroke="black" points="8,-37 8,-55 38,-55 38,-37 8,-37"/>
<text text-anchor="start" x="11" y="-43.2" font-family="Helvetica,sans-Serif" font-size="11.00"> &#160;</text>
<polygon fill="#ffffff" stroke="transparent" points="38,-37 38,-55 97,-55 97,-37 38,-37"/>
<polygon fill="none" stroke="black" points="38,-37 38,-55 97,-55 97,-37 38,-37"/>
<text text-anchor="start" x="49" y="-43.2" font-family="Helvetica,sans-Serif" font-size="11.00">209 rows</text>
<polygon fill="#ffffff" stroke="transparent" points="97,-37 97,-55 128,-55 128,-37 97,-37"/>
<polygon fill="none" stroke="black" points="97,-37 97,-55 128,-55 128,-37 97,-37"/>
<text text-anchor="start" x="109" y="-43.2" font-family="Helvetica,sans-Serif" font-size="11.00">4 &gt;</text>
</a>
</g>
</g>
<!-- unitsdatasettypes&#45;&gt;variableunits -->
<g id="edge2" class="edge">
<title>unitsdatasettypes:w&#45;&gt;variableunits:e</title>
<path fill="none" stroke="black" d="M164.74,-118.53C151.7,-108.28 151.1,-84 129,-84"/>
<polygon fill="black" stroke="black" points="170.89,-120.53 177.39,-126.42 174.7,-121.76 178.5,-123 178.5,-123 178.5,-123 174.7,-121.76 179.61,-119.58 170.89,-120.53 170.89,-120.53"/>
<ellipse fill="none" stroke="black" cx="167.85" cy="-119.54" rx="3.2" ry="3.2"/>
</g>
</g>
</svg>
