<?xml version="1.0" encoding="UTF-8" standalone="no"?>
<!DOCTYPE svg PUBLIC "-//W3C//DTD SVG 1.1//EN"
 "http://www.w3.org/Graphics/SVG/1.1/DTD/svg11.dtd">
<!-- Generated by graphviz version 2.43.0 (0)
 -->
<!-- Title: oneDegreeRelationshipsDiagram Pages: 1 -->
<svg width="433pt" height="340pt"
 viewBox="0.00 0.00 433.00 340.00" xmlns="http://www.w3.org/2000/svg" xmlns:xlink="http://www.w3.org/1999/xlink">
<g id="graph0" class="graph" transform="scale(1 1) rotate(0) translate(4 336)">
<title>oneDegreeRelationshipsDiagram</title>
<polygon fill="#ffffff" stroke="transparent" points="-4,4 -4,-336 429,-336 429,4 -4,4"/>
<text text-anchor="middle" x="71.5" y="-7.2" font-family="Helvetica,sans-Serif" font-size="11.00">Generated by SchemaSpy</text>
<!-- contextsdatasettypes -->
<g id="node1" class="node">
<title>contextsdatasettypes</title>
<g id="a_node1"><a xlink:href="../../tables/contextsdatasettypes.html" xlink:title="contextsdatasettypes" target="_top">
<polygon fill="#ffffff" stroke="transparent" points="261,-226 261,-328 417,-328 417,-226 261,-226"/>
<polygon fill="#f5f5f5" stroke="transparent" points="261,-306 261,-328 417,-328 417,-306 261,-306"/>
<polygon fill="none" stroke="black" points="261,-306 261,-328 417,-328 417,-306 261,-306"/>
<text text-anchor="start" x="266" y="-315.2" font-family="Helvetica,sans-Serif" font-weight="bold" font-size="11.00">contextsdatasettypes</text>
<text text-anchor="start" x="382" y="-314.2" font-family="Helvetica,sans-Serif" font-size="11.00">[table]</text>
<polygon fill="none" stroke="black" points="261,-284 261,-306 417,-306 417,-284 261,-284"/>
<image xlink:href="../../images/primaryKeys.png" width="11px" height="12px" preserveAspectRatio="xMinYMin meet" x="266" y="-301"/>
<text text-anchor="start" x="284" y="-292.2" font-family="Helvetica,sans-Serif" font-size="11.00">datasettypeid</text>
<polygon fill="none" stroke="black" points="261,-262 261,-284 417,-284 417,-262 261,-262"/>
<image xlink:href="../../images/primaryKeys.png" width="11px" height="12px" preserveAspectRatio="xMinYMin meet" x="266" y="-279"/>
<text text-anchor="start" x="284" y="-270.2" font-family="Helvetica,sans-Serif" font-size="11.00">variablecontextid</text>
<polygon fill="none" stroke="black" points="261,-244 261,-262 417,-262 417,-244 261,-244"/>
<text text-anchor="start" x="264" y="-250.2" font-family="Helvetica,sans-Serif" font-size="11.00">...</text>
<polygon fill="#ffffff" stroke="transparent" points="261,-226 261,-244 318,-244 318,-226 261,-226"/>
<polygon fill="none" stroke="black" points="261,-226 261,-244 318,-244 318,-226 261,-226"/>
<text text-anchor="start" x="264" y="-232.2" font-family="Helvetica,sans-Serif" font-size="11.00">&lt; 2</text>
<polygon fill="#ffffff" stroke="transparent" points="318,-226 318,-244 386,-244 386,-226 318,-226"/>
<polygon fill="none" stroke="black" points="318,-226 318,-244 386,-244 386,-226 318,-226"/>
<text text-anchor="start" x="338" y="-232.2" font-family="Helvetica,sans-Serif" font-size="11.00">190 rows</text>
<polygon fill="#ffffff" stroke="transparent" points="386,-226 386,-244 417,-244 417,-226 386,-226"/>
<polygon fill="none" stroke="black" points="386,-226 386,-244 417,-244 417,-226 386,-226"/>
<text text-anchor="start" x="407" y="-232.2" font-family="Helvetica,sans-Serif" font-size="11.00"> &#160;</text>
</a>
</g>
</g>
<!-- variablecontexts -->
<g id="node2" class="node">
<title>variablecontexts</title>
<g id="a_node2"><a xlink:href="../../tables/variablecontexts.html" xlink:title="variablecontexts" target="_top">
<polygon fill="#ffffff" stroke="transparent" points="8,-81 8,-213 212,-213 212,-81 8,-81"/>
<polygon fill="#f5f5f5" stroke="transparent" points="10,-189 10,-211 210,-211 210,-189 10,-189"/>
<polygon fill="none" stroke="black" points="10,-189 10,-211 210,-211 210,-189 10,-189"/>
<text text-anchor="start" x="15" y="-198.2" font-family="Helvetica,sans-Serif" font-weight="bold" font-size="11.00">variablecontexts</text>
<text text-anchor="start" x="175" y="-197.2" font-family="Helvetica,sans-Serif" font-size="11.00">[table]</text>
<polygon fill="none" stroke="black" points="10,-167 10,-189 136,-189 136,-167 10,-167"/>
<image xlink:href="../../images/primaryKeys.png" width="11px" height="12px" preserveAspectRatio="xMinYMin meet" x="15" y="-184"/>
<text text-anchor="start" x="30" y="-175.2" font-family="Helvetica,sans-Serif" font-size="11.00">variablecontextid</text>
<polygon fill="none" stroke="black" points="136,-167 136,-189 210,-189 210,-167 136,-167"/>
<text text-anchor="start" x="139" y="-175.2" font-family="Helvetica,sans-Serif" font-size="11.00">serial[10]</text>
<polygon fill="none" stroke="black" points="10,-145 10,-167 136,-167 136,-145 10,-145"/>
<text text-anchor="start" x="30" y="-153.2" font-family="Helvetica,sans-Serif" font-size="11.00">variablecontext</text>
<polygon fill="none" stroke="black" points="136,-145 136,-167 210,-167 210,-145 136,-145"/>
<text text-anchor="start" x="139" y="-153.2" font-family="Helvetica,sans-Serif" font-size="11.00">varchar[64]</text>
<polygon fill="none" stroke="black" points="10,-123 10,-145 136,-145 136,-123 10,-123"/>
<text text-anchor="start" x="30" y="-131.2" font-family="Helvetica,sans-Serif" font-size="11.00">recdatecreated</text>
<polygon fill="none" stroke="black" points="136,-123 136,-145 210,-145 210,-123 136,-123"/>
<text text-anchor="start" x="139" y="-131.2" font-family="Helvetica,sans-Serif" font-size="11.00">timestamp[22]</text>
<polygon fill="none" stroke="black" points="10,-101 10,-123 136,-123 136,-101 10,-101"/>
<text text-anchor="start" x="30" y="-109.2" font-family="Helvetica,sans-Serif" font-size="11.00">recdatemodified</text>
<polygon fill="none" stroke="black" points="136,-101 136,-123 210,-123 210,-101 136,-101"/>
<text text-anchor="start" x="139" y="-109.2" font-family="Helvetica,sans-Serif" font-size="11.00">timestamp[22]</text>
<polygon fill="#ffffff" stroke="transparent" points="10,-83 10,-101 61,-101 61,-83 10,-83"/>
<polygon fill="none" stroke="black" points="10,-83 10,-101 61,-101 61,-83 10,-83"/>
<text text-anchor="start" x="13" y="-89.2" font-family="Helvetica,sans-Serif" font-size="11.00">&lt; 0</text>
<polygon fill="#ffffff" stroke="transparent" points="61,-83 61,-101 136,-101 136,-83 61,-83"/>
<polygon fill="none" stroke="black" points="61,-83 61,-101 136,-101 136,-83 61,-83"/>
<text text-anchor="start" x="94" y="-89.2" font-family="Helvetica,sans-Serif" font-size="11.00">83 rows</text>
<polygon fill="#ffffff" stroke="transparent" points="136,-83 136,-101 210,-101 210,-83 136,-83"/>
<polygon fill="none" stroke="black" points="136,-83 136,-101 210,-101 210,-83 136,-83"/>
<text text-anchor="start" x="191" y="-89.2" font-family="Helvetica,sans-Serif" font-size="11.00">2 &gt;</text>
<polygon fill="none" stroke="black" stroke-width="2" points="9,-82 9,-212 211,-212 211,-82 9,-82"/>
</a>
</g>
</g>
<!-- contextsdatasettypes&#45;&gt;variablecontexts -->
<g id="edge1" class="edge">
<title>contextsdatasettypes:w&#45;&gt;variablecontexts:e</title>
<path fill="none" stroke="black" d="M245.89,-268.67C222.8,-250.09 252.38,-178 211,-178"/>
<polygon fill="black" stroke="black" points="252.35,-270.65 258.94,-276.44 256.18,-271.83 260,-273 260,-273 260,-273 256.18,-271.83 261.06,-269.56 252.35,-270.65 252.35,-270.65"/>
<ellipse fill="none" stroke="black" cx="249.29" cy="-269.72" rx="3.2" ry="3.2"/>
</g>
<!-- variables -->
<g id="node3" class="node">
<title>variables</title>
<g id="a_node3"><a xlink:href="../../tables/variables.html" xlink:title="variables" target="_top">
<polygon fill="#ffffff" stroke="transparent" points="274,-37 274,-205 404,-205 404,-37 274,-37"/>
<polygon fill="#f5f5f5" stroke="transparent" points="274,-183 274,-205 404,-205 404,-183 274,-183"/>
<polygon fill="none" stroke="black" points="274,-183 274,-205 404,-205 404,-183 274,-183"/>
<text text-anchor="start" x="279" y="-192.2" font-family="Helvetica,sans-Serif" font-weight="bold" font-size="11.00">variables</text>
<text text-anchor="start" x="369" y="-191.2" font-family="Helvetica,sans-Serif" font-size="11.00">[table]</text>
<polygon fill="none" stroke="black" points="274,-161 274,-183 404,-183 404,-161 274,-161"/>
<image xlink:href="../../images/primaryKeys.png" width="11px" height="12px" preserveAspectRatio="xMinYMin meet" x="279" y="-178"/>
<text text-anchor="start" x="294" y="-169.2" font-family="Helvetica,sans-Serif" font-size="11.00">variableid</text>
<polygon fill="#ffffff" stroke="transparent" points="274,-139 274,-161 404,-161 404,-139 274,-139"/>
<polygon fill="none" stroke="black" points="274,-139 274,-161 404,-161 404,-139 274,-139"/>
<image xlink:href="../../images/foreignKeys.png" width="11px" height="12px" preserveAspectRatio="xMinYMin meet" x="279" y="-156"/>
<text text-anchor="start" x="294" y="-147.2" font-family="Helvetica,sans-Serif" font-size="11.00">taxonid</text>
<polygon fill="#ffffff" stroke="transparent" points="274,-117 274,-139 404,-139 404,-117 274,-117"/>
<polygon fill="none" stroke="black" points="274,-117 274,-139 404,-139 404,-117 274,-117"/>
<image xlink:href="../../images/foreignKeys.png" width="11px" height="12px" preserveAspectRatio="xMinYMin meet" x="279" y="-134"/>
<text text-anchor="start" x="294" y="-125.2" font-family="Helvetica,sans-Serif" font-size="11.00">variableelementid</text>
<polygon fill="#ffffff" stroke="transparent" points="274,-95 274,-117 404,-117 404,-95 274,-95"/>
<polygon fill="none" stroke="black" points="274,-95 274,-117 404,-117 404,-95 274,-95"/>
<image xlink:href="../../images/foreignKeys.png" width="11px" height="12px" preserveAspectRatio="xMinYMin meet" x="279" y="-112"/>
<text text-anchor="start" x="294" y="-103.2" font-family="Helvetica,sans-Serif" font-size="11.00">variableunitsid</text>
<polygon fill="none" stroke="black" points="274,-73 274,-95 404,-95 404,-73 274,-73"/>
<image xlink:href="../../images/foreignKeys.png" width="11px" height="12px" preserveAspectRatio="xMinYMin meet" x="279" y="-90"/>
<text text-anchor="start" x="294" y="-81.2" font-family="Helvetica,sans-Serif" font-size="11.00">variablecontextid</text>
<polygon fill="none" stroke="black" points="274,-55 274,-73 404,-73 404,-55 274,-55"/>
<text text-anchor="start" x="277" y="-61.2" font-family="Helvetica,sans-Serif" font-size="11.00">...</text>
<polygon fill="#ffffff" stroke="transparent" points="274,-37 274,-55 306,-55 306,-37 274,-37"/>
<polygon fill="none" stroke="black" points="274,-37 274,-55 306,-55 306,-37 274,-37"/>
<text text-anchor="start" x="277" y="-43.2" font-family="Helvetica,sans-Serif" font-size="11.00">&lt; 4</text>
<polygon fill="#ffffff" stroke="transparent" points="306,-37 306,-55 377,-55 377,-37 306,-37"/>
<polygon fill="none" stroke="black" points="306,-37 306,-55 377,-55 377,-37 306,-37"/>
<text text-anchor="start" x="314" y="-43.2" font-family="Helvetica,sans-Serif" font-size="11.00">55,155 rows</text>
<polygon fill="#ffffff" stroke="transparent" points="377,-37 377,-55 404,-55 404,-37 377,-37"/>
<polygon fill="none" stroke="black" points="377,-37 377,-55 404,-55 404,-37 377,-37"/>
<text text-anchor="start" x="385" y="-43.2" font-family="Helvetica,sans-Serif" font-size="11.00">6 &gt;</text>
</a>
</g>
</g>
<!-- variables&#45;&gt;variablecontexts -->
<g id="edge2" class="edge">
<title>variables:w&#45;&gt;variablecontexts:e</title>
<path fill="none" stroke="black" d="M258.75,-87.57C230.67,-104.74 255.18,-178 211,-178"/>
<polygon fill="black" stroke="black" points="265.24,-85.94 273.88,-87.49 269.12,-84.97 273,-84 273,-84 273,-84 269.12,-84.97 272.12,-80.51 265.24,-85.94 265.24,-85.94"/>
<ellipse fill="none" stroke="black" cx="262.14" cy="-86.72" rx="3.2" ry="3.2"/>
</g>
</g>
</svg>
