<?xml version="1.0" encoding="UTF-8" standalone="no"?>
<!DOCTYPE svg PUBLIC "-//W3C//DTD SVG 1.1//EN"
 "http://www.w3.org/Graphics/SVG/1.1/DTD/svg11.dtd">
<!-- Generated by graphviz version 2.43.0 (0)
 -->
<!-- Title: oneDegreeRelationshipsDiagramImplied Pages: 1 -->
<svg width="454pt" height="753pt"
 viewBox="0.00 0.00 454.00 753.00" xmlns="http://www.w3.org/2000/svg" xmlns:xlink="http://www.w3.org/1999/xlink">
<g id="graph0" class="graph" transform="scale(1 1) rotate(0) translate(4 749)">
<title>oneDegreeRelationshipsDiagramImplied</title>
<polygon fill="#ffffff" stroke="transparent" points="-4,4 -4,-749 450,-749 450,4 -4,4"/>
<text text-anchor="middle" x="71.5" y="-7.2" font-family="Helvetica,sans-Serif" font-size="11.00">Generated by SchemaSpy</text>
<!-- accumulationrates -->
<g id="node1" class="node">
<title>accumulationrates</title>
<g id="a_node1"><a xlink:href="../../tables/accumulationrates.html" xlink:title="accumulationrates" target="_top">
<polygon fill="#ffffff" stroke="transparent" points="276,-617 276,-741 417,-741 417,-617 276,-617"/>
<polygon fill="#f5f5f5" stroke="transparent" points="276.5,-719 276.5,-741 417.5,-741 417.5,-719 276.5,-719"/>
<polygon fill="none" stroke="black" points="276.5,-719 276.5,-741 417.5,-741 417.5,-719 276.5,-719"/>
<text text-anchor="start" x="281.5" y="-728.2" font-family="Helvetica,sans-Serif" font-weight="bold" font-size="11.00">accumulationrates</text>
<text text-anchor="start" x="382.5" y="-727.2" font-family="Helvetica,sans-Serif" font-size="11.00">[table]</text>
<polygon fill="none" stroke="black" points="276.5,-697 276.5,-719 417.5,-719 417.5,-697 276.5,-697"/>
<image xlink:href="../../images/primaryKeys.png" width="11px" height="12px" preserveAspectRatio="xMinYMin meet" x="281.5" y="-714"/>
<text text-anchor="start" x="300.5" y="-705.2" font-family="Helvetica,sans-Serif" font-size="11.00">analysisunitid</text>
<polygon fill="none" stroke="black" points="276.5,-675 276.5,-697 417.5,-697 417.5,-675 276.5,-675"/>
<image xlink:href="../../images/primaryKeys.png" width="11px" height="12px" preserveAspectRatio="xMinYMin meet" x="281.5" y="-692"/>
<text text-anchor="start" x="300.5" y="-683.2" font-family="Helvetica,sans-Serif" font-size="11.00">chronologyid</text>
<polygon fill="none" stroke="black" points="276.5,-653 276.5,-675 417.5,-675 417.5,-653 276.5,-653"/>
<image xlink:href="../../images/foreignKeys.png" width="11px" height="12px" preserveAspectRatio="xMinYMin meet" x="281.5" y="-670"/>
<text text-anchor="start" x="300.5" y="-661.2" font-family="Helvetica,sans-Serif" font-size="11.00">variableunitsid</text>
<polygon fill="none" stroke="black" points="276.5,-635 276.5,-653 417.5,-653 417.5,-635 276.5,-635"/>
<text text-anchor="start" x="279.5" y="-641.2" font-family="Helvetica,sans-Serif" font-size="11.00">...</text>
<polygon fill="#ffffff" stroke="transparent" points="276.5,-617 276.5,-635 321.5,-635 321.5,-617 276.5,-617"/>
<polygon fill="none" stroke="black" points="276.5,-617 276.5,-635 321.5,-635 321.5,-617 276.5,-617"/>
<text text-anchor="start" x="279.5" y="-623.2" font-family="Helvetica,sans-Serif" font-size="11.00">&lt; 3</text>
<polygon fill="#ffffff" stroke="transparent" points="321.5,-617 321.5,-635 392.5,-635 392.5,-617 321.5,-617"/>
<polygon fill="none" stroke="black" points="321.5,-617 321.5,-635 392.5,-635 392.5,-617 321.5,-617"/>
<text text-anchor="start" x="335.5" y="-623.2" font-family="Helvetica,sans-Serif" font-size="11.00">1,089 rows</text>
<polygon fill="#ffffff" stroke="transparent" points="392.5,-617 392.5,-635 417.5,-635 417.5,-617 392.5,-617"/>
<polygon fill="none" stroke="black" points="392.5,-617 392.5,-635 417.5,-635 417.5,-617 392.5,-617"/>
<text text-anchor="start" x="407.5" y="-623.2" font-family="Helvetica,sans-Serif" font-size="11.00"> &#160;</text>
</a>
</g>
</g>
<!-- variableunits -->
<g id="node2" class="node">
<title>variableunits</title>
<g id="a_node2"><a xlink:href="../../tables/variableunits.html" xlink:title="variableunits" target="_top">
<polygon fill="#ffffff" stroke="transparent" points="8,-321 8,-453 206,-453 206,-321 8,-321"/>
<polygon fill="#f5f5f5" stroke="transparent" points="10,-429 10,-451 204,-451 204,-429 10,-429"/>
<polygon fill="none" stroke="black" points="10,-429 10,-451 204,-451 204,-429 10,-429"/>
<text text-anchor="start" x="15" y="-438.2" font-family="Helvetica,sans-Serif" font-weight="bold" font-size="11.00">variableunits</text>
<text text-anchor="start" x="169" y="-437.2" font-family="Helvetica,sans-Serif" font-size="11.00">[table]</text>
<polygon fill="none" stroke="black" points="10,-407 10,-429 130,-429 130,-407 10,-407"/>
<image xlink:href="../../images/primaryKeys.png" width="11px" height="12px" preserveAspectRatio="xMinYMin meet" x="15" y="-424"/>
<text text-anchor="start" x="30" y="-415.2" font-family="Helvetica,sans-Serif" font-size="11.00">variableunitsid</text>
<polygon fill="none" stroke="black" points="130,-407 130,-429 204,-429 204,-407 130,-407"/>
<text text-anchor="start" x="133" y="-415.2" font-family="Helvetica,sans-Serif" font-size="11.00">serial[10]</text>
<polygon fill="none" stroke="black" points="10,-385 10,-407 130,-407 130,-385 10,-385"/>
<text text-anchor="start" x="30" y="-393.2" font-family="Helvetica,sans-Serif" font-size="11.00">variableunits</text>
<polygon fill="none" stroke="black" points="130,-385 130,-407 204,-407 204,-385 130,-385"/>
<text text-anchor="start" x="133" y="-393.2" font-family="Helvetica,sans-Serif" font-size="11.00">varchar[64]</text>
<polygon fill="none" stroke="black" points="10,-363 10,-385 130,-385 130,-363 10,-363"/>
<text text-anchor="start" x="30" y="-371.2" font-family="Helvetica,sans-Serif" font-size="11.00">recdatecreated</text>
<polygon fill="none" stroke="black" points="130,-363 130,-385 204,-385 204,-363 130,-363"/>
<text text-anchor="start" x="133" y="-371.2" font-family="Helvetica,sans-Serif" font-size="11.00">timestamp[22]</text>
<polygon fill="none" stroke="black" points="10,-341 10,-363 130,-363 130,-341 10,-341"/>
<text text-anchor="start" x="30" y="-349.2" font-family="Helvetica,sans-Serif" font-size="11.00">recdatemodified</text>
<polygon fill="none" stroke="black" points="130,-341 130,-363 204,-363 204,-341 130,-341"/>
<text text-anchor="start" x="133" y="-349.2" font-family="Helvetica,sans-Serif" font-size="11.00">timestamp[22]</text>
<polygon fill="#ffffff" stroke="transparent" points="10,-323 10,-341 55,-341 55,-323 10,-323"/>
<polygon fill="none" stroke="black" points="10,-323 10,-341 55,-341 55,-323 10,-323"/>
<text text-anchor="start" x="13" y="-329.2" font-family="Helvetica,sans-Serif" font-size="11.00">&lt; 0</text>
<polygon fill="#ffffff" stroke="transparent" points="55,-323 55,-341 130,-341 130,-323 55,-323"/>
<polygon fill="none" stroke="black" points="55,-323 55,-341 130,-341 130,-323 55,-323"/>
<text text-anchor="start" x="82" y="-329.2" font-family="Helvetica,sans-Serif" font-size="11.00">212 rows</text>
<polygon fill="#ffffff" stroke="transparent" points="130,-323 130,-341 204,-341 204,-323 130,-323"/>
<polygon fill="none" stroke="black" points="130,-323 130,-341 204,-341 204,-323 130,-323"/>
<text text-anchor="start" x="185" y="-329.2" font-family="Helvetica,sans-Serif" font-size="11.00">5 &gt;</text>
<polygon fill="none" stroke="black" stroke-width="2" points="9,-322 9,-452 205,-452 205,-322 9,-322"/>
</a>
</g>
</g>
<!-- accumulationrates&#45;&gt;variableunits -->
<g id="edge1" class="edge">
<title>accumulationrates:w&#45;&gt;variableunits:e</title>
<path fill="none" stroke="black" d="M261.98,-657.92C225.86,-620.04 256.54,-418 205,-418"/>
<polygon fill="black" stroke="black" points="268.2,-660.72 274.02,-667.28 271.85,-662.36 275.5,-664 275.5,-664 275.5,-664 271.85,-662.36 276.98,-660.72 268.2,-660.72 268.2,-660.72"/>
<ellipse fill="none" stroke="black" cx="265.29" cy="-659.41" rx="3.2" ry="3.2"/>
</g>
<!-- analysisunitaltdepthscales -->
<g id="node3" class="node">
<title>analysisunitaltdepthscales</title>
<g id="a_node3"><a xlink:href="../../tables/analysisunitaltdepthscales.html" xlink:title="analysisunitaltdepthscales" target="_top">
<polygon fill="#ffffff" stroke="transparent" points="255,-494 255,-596 438,-596 438,-494 255,-494"/>
<polygon fill="#f5f5f5" stroke="transparent" points="255.5,-574 255.5,-596 438.5,-596 438.5,-574 255.5,-574"/>
<polygon fill="none" stroke="black" points="255.5,-574 255.5,-596 438.5,-596 438.5,-574 255.5,-574"/>
<text text-anchor="start" x="260.5" y="-583.2" font-family="Helvetica,sans-Serif" font-weight="bold" font-size="11.00">analysisunitaltdepthscales</text>
<text text-anchor="start" x="403.5" y="-582.2" font-family="Helvetica,sans-Serif" font-size="11.00">[table]</text>
<polygon fill="none" stroke="black" points="255.5,-552 255.5,-574 438.5,-574 438.5,-552 255.5,-552"/>
<image xlink:href="../../images/primaryKeys.png" width="11px" height="12px" preserveAspectRatio="xMinYMin meet" x="260.5" y="-569"/>
<text text-anchor="start" x="276.5" y="-560.2" font-family="Helvetica,sans-Serif" font-size="11.00">altdepthscaleid</text>
<polygon fill="none" stroke="black" points="255.5,-530 255.5,-552 438.5,-552 438.5,-530 255.5,-530"/>
<image xlink:href="../../images/foreignKeys.png" width="11px" height="12px" preserveAspectRatio="xMinYMin meet" x="260.5" y="-547"/>
<text text-anchor="start" x="276.5" y="-538.2" font-family="Helvetica,sans-Serif" font-size="11.00">variableunitsid</text>
<polygon fill="none" stroke="black" points="255.5,-512 255.5,-530 438.5,-530 438.5,-512 255.5,-512"/>
<text text-anchor="start" x="258.5" y="-518.2" font-family="Helvetica,sans-Serif" font-size="11.00">...</text>
<polygon fill="#ffffff" stroke="transparent" points="255.5,-494 255.5,-512 324.5,-512 324.5,-494 255.5,-494"/>
<polygon fill="none" stroke="black" points="255.5,-494 255.5,-512 324.5,-512 324.5,-494 255.5,-494"/>
<text text-anchor="start" x="258.5" y="-500.2" font-family="Helvetica,sans-Serif" font-size="11.00">&lt; 1</text>
<polygon fill="#ffffff" stroke="transparent" points="324.5,-494 324.5,-512 392.5,-512 392.5,-494 324.5,-494"/>
<polygon fill="none" stroke="black" points="324.5,-494 324.5,-512 392.5,-512 392.5,-494 324.5,-494"/>
<text text-anchor="start" x="350.5" y="-500.2" font-family="Helvetica,sans-Serif" font-size="11.00">59 rows</text>
<polygon fill="#ffffff" stroke="transparent" points="392.5,-494 392.5,-512 438.5,-512 438.5,-494 392.5,-494"/>
<polygon fill="none" stroke="black" points="392.5,-494 392.5,-512 438.5,-512 438.5,-494 392.5,-494"/>
<text text-anchor="start" x="419.5" y="-500.2" font-family="Helvetica,sans-Serif" font-size="11.00">1 &gt;</text>
</a>
</g>
</g>
<!-- analysisunitaltdepthscales&#45;&gt;variableunits -->
<g id="edge2" class="edge">
<title>analysisunitaltdepthscales:w&#45;&gt;variableunits:e</title>
<path fill="none" stroke="black" d="M240.22,-537.45C208.14,-517.28 257.94,-418 205,-418"/>
<polygon fill="black" stroke="black" points="246.74,-539.07 253.63,-544.49 250.62,-540.04 254.5,-541 254.5,-541 254.5,-541 250.62,-540.04 255.37,-537.51 246.74,-539.07 246.74,-539.07"/>
<ellipse fill="none" stroke="black" cx="243.63" cy="-538.3" rx="3.2" ry="3.2"/>
</g>
<!-- datauncertainties -->
<g id="node4" class="node">
<title>datauncertainties</title>
<g id="a_node4"><a xlink:href="../../tables/datauncertainties.html" xlink:title="datauncertainties" target="_top">
<polygon fill="#ffffff" stroke="transparent" points="279,-349 279,-473 414,-473 414,-349 279,-349"/>
<polygon fill="#f5f5f5" stroke="transparent" points="279.5,-451 279.5,-473 414.5,-473 414.5,-451 279.5,-451"/>
<polygon fill="none" stroke="black" points="279.5,-451 279.5,-473 414.5,-473 414.5,-451 279.5,-451"/>
<text text-anchor="start" x="284.5" y="-460.2" font-family="Helvetica,sans-Serif" font-weight="bold" font-size="11.00">datauncertainties</text>
<text text-anchor="start" x="379.5" y="-459.2" font-family="Helvetica,sans-Serif" font-size="11.00">[table]</text>
<polygon fill="#ffffff" stroke="transparent" points="279.5,-429 279.5,-451 414.5,-451 414.5,-429 279.5,-429"/>
<polygon fill="none" stroke="black" points="279.5,-429 279.5,-451 414.5,-451 414.5,-429 279.5,-429"/>
<image xlink:href="../../images/foreignKeys.png" width="11px" height="12px" preserveAspectRatio="xMinYMin meet" x="284.5" y="-446"/>
<text text-anchor="start" x="300.5" y="-437.2" font-family="Helvetica,sans-Serif" font-size="11.00">dataid</text>
<polygon fill="#ffffff" stroke="transparent" points="279.5,-407 279.5,-429 414.5,-429 414.5,-407 279.5,-407"/>
<polygon fill="none" stroke="black" points="279.5,-407 279.5,-429 414.5,-429 414.5,-407 279.5,-407"/>
<image xlink:href="../../images/foreignKeys.png" width="11px" height="12px" preserveAspectRatio="xMinYMin meet" x="284.5" y="-424"/>
<text text-anchor="start" x="300.5" y="-415.2" font-family="Helvetica,sans-Serif" font-size="11.00">uncertaintyunitid</text>
<polygon fill="#ffffff" stroke="transparent" points="279.5,-385 279.5,-407 414.5,-407 414.5,-385 279.5,-385"/>
<polygon fill="none" stroke="black" points="279.5,-385 279.5,-407 414.5,-407 414.5,-385 279.5,-385"/>
<image xlink:href="../../images/foreignKeys.png" width="11px" height="12px" preserveAspectRatio="xMinYMin meet" x="284.5" y="-402"/>
<text text-anchor="start" x="300.5" y="-393.2" font-family="Helvetica,sans-Serif" font-size="11.00">uncertaintybasisid</text>
<polygon fill="none" stroke="black" points="279.5,-367 279.5,-385 414.5,-385 414.5,-367 279.5,-367"/>
<text text-anchor="start" x="282.5" y="-373.2" font-family="Helvetica,sans-Serif" font-size="11.00">...</text>
<polygon fill="#ffffff" stroke="transparent" points="279.5,-349 279.5,-367 331.5,-367 331.5,-349 279.5,-349"/>
<polygon fill="none" stroke="black" points="279.5,-349 279.5,-367 331.5,-367 331.5,-349 279.5,-349"/>
<text text-anchor="start" x="282.5" y="-355.2" font-family="Helvetica,sans-Serif" font-size="11.00">&lt; 3</text>
<polygon fill="#ffffff" stroke="transparent" points="331.5,-349 331.5,-367 385.5,-367 385.5,-349 331.5,-349"/>
<polygon fill="none" stroke="black" points="331.5,-349 331.5,-367 385.5,-367 385.5,-349 331.5,-349"/>
<text text-anchor="start" x="349.5" y="-355.2" font-family="Helvetica,sans-Serif" font-size="11.00">0 rows</text>
<polygon fill="#ffffff" stroke="transparent" points="385.5,-349 385.5,-367 414.5,-367 414.5,-349 385.5,-349"/>
<polygon fill="none" stroke="black" points="385.5,-349 385.5,-367 414.5,-367 414.5,-349 385.5,-349"/>
<text text-anchor="start" x="404.5" y="-355.2" font-family="Helvetica,sans-Serif" font-size="11.00"> &#160;</text>
</a>
</g>
</g>
<!-- datauncertainties&#45;&gt;variableunits -->
<g id="edge3" class="edge">
<title>datauncertainties:w&#45;&gt;variableunits:e</title>
<path fill="none" stroke="black" d="M263.88,-418C242.4,-418 232.18,-418 205,-418"/>
<polygon fill="black" stroke="black" points="270.5,-418 278.5,-421.6 274.5,-418 278.5,-418 278.5,-418 278.5,-418 274.5,-418 278.5,-414.4 270.5,-418 270.5,-418"/>
<ellipse fill="none" stroke="black" cx="267.3" cy="-418" rx="3.2" ry="3.2"/>
</g>
<!-- unitsdatasettypes -->
<g id="node5" class="node">
<title>unitsdatasettypes</title>
<g id="a_node5"><a xlink:href="../../tables/unitsdatasettypes.html" xlink:title="unitsdatasettypes" target="_top">
<polygon fill="#ffffff" stroke="transparent" points="277.5,-226 277.5,-328 415.5,-328 415.5,-226 277.5,-226"/>
<polygon fill="#f5f5f5" stroke="transparent" points="277.5,-306 277.5,-328 415.5,-328 415.5,-306 277.5,-306"/>
<polygon fill="none" stroke="black" points="277.5,-306 277.5,-328 415.5,-328 415.5,-306 277.5,-306"/>
<text text-anchor="start" x="282.5" y="-315.2" font-family="Helvetica,sans-Serif" font-weight="bold" font-size="11.00">unitsdatasettypes</text>
<text text-anchor="start" x="380.5" y="-314.2" font-family="Helvetica,sans-Serif" font-size="11.00">[table]</text>
<polygon fill="none" stroke="black" points="277.5,-284 277.5,-306 415.5,-306 415.5,-284 277.5,-284"/>
<image xlink:href="../../images/primaryKeys.png" width="11px" height="12px" preserveAspectRatio="xMinYMin meet" x="282.5" y="-301"/>
<text text-anchor="start" x="302.5" y="-292.2" font-family="Helvetica,sans-Serif" font-size="11.00">datasettypeid</text>
<polygon fill="none" stroke="black" points="277.5,-262 277.5,-284 415.5,-284 415.5,-262 277.5,-262"/>
<image xlink:href="../../images/primaryKeys.png" width="11px" height="12px" preserveAspectRatio="xMinYMin meet" x="282.5" y="-279"/>
<text text-anchor="start" x="302.5" y="-270.2" font-family="Helvetica,sans-Serif" font-size="11.00">variableunitsid</text>
<polygon fill="none" stroke="black" points="277.5,-244 277.5,-262 415.5,-262 415.5,-244 277.5,-244"/>
<text text-anchor="start" x="280.5" y="-250.2" font-family="Helvetica,sans-Serif" font-size="11.00">...</text>
<polygon fill="#ffffff" stroke="transparent" points="277.5,-226 277.5,-244 325.5,-244 325.5,-226 277.5,-226"/>
<polygon fill="none" stroke="black" points="277.5,-226 277.5,-244 325.5,-244 325.5,-226 277.5,-226"/>
<text text-anchor="start" x="280.5" y="-232.2" font-family="Helvetica,sans-Serif" font-size="11.00">&lt; 2</text>
<polygon fill="#ffffff" stroke="transparent" points="325.5,-226 325.5,-244 389.5,-244 389.5,-226 325.5,-226"/>
<polygon fill="none" stroke="black" points="325.5,-226 325.5,-244 389.5,-244 389.5,-226 325.5,-226"/>
<text text-anchor="start" x="341.5" y="-232.2" font-family="Helvetica,sans-Serif" font-size="11.00">672 rows</text>
<polygon fill="#ffffff" stroke="transparent" points="389.5,-226 389.5,-244 415.5,-244 415.5,-226 389.5,-226"/>
<polygon fill="none" stroke="black" points="389.5,-226 389.5,-244 415.5,-244 415.5,-226 389.5,-226"/>
<text text-anchor="start" x="405.5" y="-232.2" font-family="Helvetica,sans-Serif" font-size="11.00"> &#160;</text>
</a>
</g>
</g>
<!-- unitsdatasettypes&#45;&gt;variableunits -->
<g id="edge4" class="edge">
<title>unitsdatasettypes:w&#45;&gt;variableunits:e</title>
<path fill="none" stroke="black" d="M262.16,-275.52C215.05,-294.77 271.24,-418 205,-418"/>
<polygon fill="black" stroke="black" points="268.62,-274.38 277.12,-276.55 272.56,-273.69 276.5,-273 276.5,-273 276.5,-273 272.56,-273.69 275.88,-269.45 268.62,-274.38 268.62,-274.38"/>
<ellipse fill="none" stroke="black" cx="265.47" cy="-274.94" rx="3.2" ry="3.2"/>
</g>
<!-- variables -->
<g id="node6" class="node">
<title>variables</title>
<g id="a_node6"><a xlink:href="../../tables/variables.html" xlink:title="variables" target="_top">
<polygon fill="#ffffff" stroke="transparent" points="281.5,-37 281.5,-205 411.5,-205 411.5,-37 281.5,-37"/>
<polygon fill="#f5f5f5" stroke="transparent" points="281.5,-183 281.5,-205 411.5,-205 411.5,-183 281.5,-183"/>
<polygon fill="none" stroke="black" points="281.5,-183 281.5,-205 411.5,-205 411.5,-183 281.5,-183"/>
<text text-anchor="start" x="286.5" y="-192.2" font-family="Helvetica,sans-Serif" font-weight="bold" font-size="11.00">variables</text>
<text text-anchor="start" x="376.5" y="-191.2" font-family="Helvetica,sans-Serif" font-size="11.00">[table]</text>
<polygon fill="none" stroke="black" points="281.5,-161 281.5,-183 411.5,-183 411.5,-161 281.5,-161"/>
<image xlink:href="../../images/primaryKeys.png" width="11px" height="12px" preserveAspectRatio="xMinYMin meet" x="286.5" y="-178"/>
<text text-anchor="start" x="301.5" y="-169.2" font-family="Helvetica,sans-Serif" font-size="11.00">variableid</text>
<polygon fill="#ffffff" stroke="transparent" points="281.5,-139 281.5,-161 411.5,-161 411.5,-139 281.5,-139"/>
<polygon fill="none" stroke="black" points="281.5,-139 281.5,-161 411.5,-161 411.5,-139 281.5,-139"/>
<image xlink:href="../../images/foreignKeys.png" width="11px" height="12px" preserveAspectRatio="xMinYMin meet" x="286.5" y="-156"/>
<text text-anchor="start" x="301.5" y="-147.2" font-family="Helvetica,sans-Serif" font-size="11.00">taxonid</text>
<polygon fill="#ffffff" stroke="transparent" points="281.5,-117 281.5,-139 411.5,-139 411.5,-117 281.5,-117"/>
<polygon fill="none" stroke="black" points="281.5,-117 281.5,-139 411.5,-139 411.5,-117 281.5,-117"/>
<image xlink:href="../../images/foreignKeys.png" width="11px" height="12px" preserveAspectRatio="xMinYMin meet" x="286.5" y="-134"/>
<text text-anchor="start" x="301.5" y="-125.2" font-family="Helvetica,sans-Serif" font-size="11.00">variableelementid</text>
<polygon fill="#ffffff" stroke="transparent" points="281.5,-95 281.5,-117 411.5,-117 411.5,-95 281.5,-95"/>
<polygon fill="none" stroke="black" points="281.5,-95 281.5,-117 411.5,-117 411.5,-95 281.5,-95"/>
<image xlink:href="../../images/foreignKeys.png" width="11px" height="12px" preserveAspectRatio="xMinYMin meet" x="286.5" y="-112"/>
<text text-anchor="start" x="301.5" y="-103.2" font-family="Helvetica,sans-Serif" font-size="11.00">variableunitsid</text>
<polygon fill="none" stroke="black" points="281.5,-73 281.5,-95 411.5,-95 411.5,-73 281.5,-73"/>
<image xlink:href="../../images/foreignKeys.png" width="11px" height="12px" preserveAspectRatio="xMinYMin meet" x="286.5" y="-90"/>
<text text-anchor="start" x="301.5" y="-81.2" font-family="Helvetica,sans-Serif" font-size="11.00">variablecontextid</text>
<polygon fill="none" stroke="black" points="281.5,-55 281.5,-73 411.5,-73 411.5,-55 281.5,-55"/>
<text text-anchor="start" x="284.5" y="-61.2" font-family="Helvetica,sans-Serif" font-size="11.00">...</text>
<polygon fill="#ffffff" stroke="transparent" points="281.5,-37 281.5,-55 313.5,-55 313.5,-37 281.5,-37"/>
<polygon fill="none" stroke="black" points="281.5,-37 281.5,-55 313.5,-55 313.5,-37 281.5,-37"/>
<text text-anchor="start" x="284.5" y="-43.2" font-family="Helvetica,sans-Serif" font-size="11.00">&lt; 4</text>
<polygon fill="#ffffff" stroke="transparent" points="313.5,-37 313.5,-55 384.5,-55 384.5,-37 313.5,-37"/>
<polygon fill="none" stroke="black" points="313.5,-37 313.5,-55 384.5,-55 384.5,-37 313.5,-37"/>
<text text-anchor="start" x="321.5" y="-43.2" font-family="Helvetica,sans-Serif" font-size="11.00">57,421 rows</text>
<polygon fill="#ffffff" stroke="transparent" points="384.5,-37 384.5,-55 411.5,-55 411.5,-37 384.5,-37"/>
<polygon fill="none" stroke="black" points="384.5,-37 384.5,-55 411.5,-55 411.5,-37 384.5,-37"/>
<text text-anchor="start" x="392.5" y="-43.2" font-family="Helvetica,sans-Serif" font-size="11.00">6 &gt;</text>
</a>
</g>
</g>
<!-- variables&#45;&gt;variableunits -->
<g id="edge5" class="edge">
<title>variables:w&#45;&gt;variableunits:e</title>
<path fill="none" stroke="black" d="M266.79,-110.9C218.37,-150.59 271.04,-418 205,-418"/>
<polygon fill="black" stroke="black" points="272.97,-108.69 281.71,-109.39 276.73,-107.35 280.5,-106 280.5,-106 280.5,-106 276.73,-107.35 279.29,-102.61 272.97,-108.69 272.97,-108.69"/>
<ellipse fill="none" stroke="black" cx="269.95" cy="-109.77" rx="3.2" ry="3.2"/>
</g>
</g>
</svg>
