<?xml version="1.0" encoding="UTF-8" standalone="no"?>
<!DOCTYPE svg PUBLIC "-//W3C//DTD SVG 1.1//EN"
 "http://www.w3.org/Graphics/SVG/1.1/DTD/svg11.dtd">
<!-- Generated by graphviz version 2.43.0 (0)
 -->
<!-- Title: twoDegreesRelationshipsDiagramImplied Pages: 1 -->
<svg width="639pt" height="578pt"
 viewBox="0.00 0.00 639.00 578.00" xmlns="http://www.w3.org/2000/svg" xmlns:xlink="http://www.w3.org/1999/xlink">
<g id="graph0" class="graph" transform="scale(1 1) rotate(0) translate(4 574)">
<title>twoDegreesRelationshipsDiagramImplied</title>
<polygon fill="#ffffff" stroke="transparent" points="-4,4 -4,-574 635,-574 635,4 -4,4"/>
<text text-anchor="middle" x="71.5" y="-7.2" font-family="Helvetica,sans-Serif" font-size="11.00">Generated by SchemaSpy</text>
<!-- contextsdatasettypes -->
<g id="node1" class="node">
<title>contextsdatasettypes</title>
<g id="a_node1"><a xlink:href="../../tables/contextsdatasettypes.html" xlink:title="contextsdatasettypes" target="_top">
<polygon fill="#ffffff" stroke="transparent" points="261,-377 261,-479 417,-479 417,-377 261,-377"/>
<polygon fill="#f5f5f5" stroke="transparent" points="261,-457 261,-479 417,-479 417,-457 261,-457"/>
<polygon fill="none" stroke="black" points="261,-457 261,-479 417,-479 417,-457 261,-457"/>
<text text-anchor="start" x="266" y="-466.2" font-family="Helvetica,sans-Serif" font-weight="bold" font-size="11.00">contextsdatasettypes</text>
<text text-anchor="start" x="382" y="-465.2" font-family="Helvetica,sans-Serif" font-size="11.00">[table]</text>
<polygon fill="none" stroke="black" points="261,-435 261,-457 417,-457 417,-435 261,-435"/>
<image xlink:href="../../images/primaryKeys.png" width="11px" height="12px" preserveAspectRatio="xMinYMin meet" x="266" y="-452"/>
<text text-anchor="start" x="284" y="-443.2" font-family="Helvetica,sans-Serif" font-size="11.00">datasettypeid</text>
<polygon fill="none" stroke="black" points="261,-413 261,-435 417,-435 417,-413 261,-413"/>
<image xlink:href="../../images/primaryKeys.png" width="11px" height="12px" preserveAspectRatio="xMinYMin meet" x="266" y="-430"/>
<text text-anchor="start" x="284" y="-421.2" font-family="Helvetica,sans-Serif" font-size="11.00">variablecontextid</text>
<polygon fill="none" stroke="black" points="261,-395 261,-413 417,-413 417,-395 261,-395"/>
<text text-anchor="start" x="264" y="-401.2" font-family="Helvetica,sans-Serif" font-size="11.00">...</text>
<polygon fill="#ffffff" stroke="transparent" points="261,-377 261,-395 318,-395 318,-377 261,-377"/>
<polygon fill="none" stroke="black" points="261,-377 261,-395 318,-395 318,-377 261,-377"/>
<text text-anchor="start" x="264" y="-383.2" font-family="Helvetica,sans-Serif" font-size="11.00">&lt; 2</text>
<polygon fill="#ffffff" stroke="transparent" points="318,-377 318,-395 386,-395 386,-377 318,-377"/>
<polygon fill="none" stroke="black" points="318,-377 318,-395 386,-395 386,-377 318,-377"/>
<text text-anchor="start" x="338" y="-383.2" font-family="Helvetica,sans-Serif" font-size="11.00">190 rows</text>
<polygon fill="#ffffff" stroke="transparent" points="386,-377 386,-395 417,-395 417,-377 386,-377"/>
<polygon fill="none" stroke="black" points="386,-377 386,-395 417,-395 417,-377 386,-377"/>
<text text-anchor="start" x="407" y="-383.2" font-family="Helvetica,sans-Serif" font-size="11.00"> &#160;</text>
</a>
</g>
</g>
<!-- datasettypes -->
<g id="node2" class="node">
<title>datasettypes</title>
<g id="a_node2"><a xlink:href="../../tables/datasettypes.html" xlink:title="datasettypes" target="_top">
<polygon fill="#ffffff" stroke="transparent" points="54.5,-427 54.5,-485 165.5,-485 165.5,-427 54.5,-427"/>
<polygon fill="#f5f5f5" stroke="transparent" points="55,-463 55,-485 166,-485 166,-463 55,-463"/>
<polygon fill="none" stroke="black" points="55,-463 55,-485 166,-485 166,-463 55,-463"/>
<text text-anchor="start" x="60" y="-472.2" font-family="Helvetica,sans-Serif" font-weight="bold" font-size="11.00">datasettypes</text>
<text text-anchor="start" x="131" y="-471.2" font-family="Helvetica,sans-Serif" font-size="11.00">[table]</text>
<polygon fill="none" stroke="black" points="55,-445 55,-463 166,-463 166,-445 55,-445"/>
<text text-anchor="start" x="58" y="-451.2" font-family="Helvetica,sans-Serif" font-size="11.00">...</text>
<polygon fill="#ffffff" stroke="transparent" points="55,-427 55,-445 83,-445 83,-427 55,-427"/>
<polygon fill="none" stroke="black" points="55,-427 55,-445 83,-445 83,-427 55,-427"/>
<text text-anchor="start" x="58" y="-433.2" font-family="Helvetica,sans-Serif" font-size="11.00"> &#160;</text>
<polygon fill="#ffffff" stroke="transparent" points="83,-427 83,-445 136,-445 136,-427 83,-427"/>
<polygon fill="none" stroke="black" points="83,-427 83,-445 136,-445 136,-427 83,-427"/>
<text text-anchor="start" x="94" y="-433.2" font-family="Helvetica,sans-Serif" font-size="11.00">41 rows</text>
<polygon fill="#ffffff" stroke="transparent" points="136,-427 136,-445 166,-445 166,-427 136,-427"/>
<polygon fill="none" stroke="black" points="136,-427 136,-445 166,-445 166,-427 136,-427"/>
<text text-anchor="start" x="147" y="-433.2" font-family="Helvetica,sans-Serif" font-size="11.00">6 &gt;</text>
</a>
</g>
</g>
<!-- contextsdatasettypes&#45;&gt;datasettypes -->
<g id="edge1" class="edge">
<title>contextsdatasettypes:w&#45;&gt;datasettypes:e</title>
<path fill="none" stroke="black" d="M245.39,-446.36C215.41,-447.93 203.14,-454 167,-454"/>
<polygon fill="black" stroke="black" points="252,-446.2 260.09,-449.6 256,-446.1 260,-446 260,-446 260,-446 256,-446.1 259.91,-442.4 252,-446.2 252,-446.2"/>
<ellipse fill="none" stroke="black" cx="248.8" cy="-446.28" rx="3.2" ry="3.2"/>
</g>
<!-- variablecontexts -->
<g id="node3" class="node">
<title>variablecontexts</title>
<g id="a_node3"><a xlink:href="../../tables/variablecontexts.html" xlink:title="variablecontexts" target="_top">
<polygon fill="#ffffff" stroke="transparent" points="8,-116 8,-248 212,-248 212,-116 8,-116"/>
<polygon fill="#f5f5f5" stroke="transparent" points="10,-224 10,-246 210,-246 210,-224 10,-224"/>
<polygon fill="none" stroke="black" points="10,-224 10,-246 210,-246 210,-224 10,-224"/>
<text text-anchor="start" x="15" y="-233.2" font-family="Helvetica,sans-Serif" font-weight="bold" font-size="11.00">variablecontexts</text>
<text text-anchor="start" x="175" y="-232.2" font-family="Helvetica,sans-Serif" font-size="11.00">[table]</text>
<polygon fill="none" stroke="black" points="10,-202 10,-224 136,-224 136,-202 10,-202"/>
<image xlink:href="../../images/primaryKeys.png" width="11px" height="12px" preserveAspectRatio="xMinYMin meet" x="15" y="-219"/>
<text text-anchor="start" x="30" y="-210.2" font-family="Helvetica,sans-Serif" font-size="11.00">variablecontextid</text>
<polygon fill="none" stroke="black" points="136,-202 136,-224 210,-224 210,-202 136,-202"/>
<text text-anchor="start" x="139" y="-210.2" font-family="Helvetica,sans-Serif" font-size="11.00">serial[10]</text>
<polygon fill="none" stroke="black" points="10,-180 10,-202 136,-202 136,-180 10,-180"/>
<text text-anchor="start" x="30" y="-188.2" font-family="Helvetica,sans-Serif" font-size="11.00">variablecontext</text>
<polygon fill="none" stroke="black" points="136,-180 136,-202 210,-202 210,-180 136,-180"/>
<text text-anchor="start" x="139" y="-188.2" font-family="Helvetica,sans-Serif" font-size="11.00">varchar[64]</text>
<polygon fill="none" stroke="black" points="10,-158 10,-180 136,-180 136,-158 10,-158"/>
<text text-anchor="start" x="30" y="-166.2" font-family="Helvetica,sans-Serif" font-size="11.00">recdatecreated</text>
<polygon fill="none" stroke="black" points="136,-158 136,-180 210,-180 210,-158 136,-158"/>
<text text-anchor="start" x="139" y="-166.2" font-family="Helvetica,sans-Serif" font-size="11.00">timestamp[22]</text>
<polygon fill="none" stroke="black" points="10,-136 10,-158 136,-158 136,-136 10,-136"/>
<text text-anchor="start" x="30" y="-144.2" font-family="Helvetica,sans-Serif" font-size="11.00">recdatemodified</text>
<polygon fill="none" stroke="black" points="136,-136 136,-158 210,-158 210,-136 136,-136"/>
<text text-anchor="start" x="139" y="-144.2" font-family="Helvetica,sans-Serif" font-size="11.00">timestamp[22]</text>
<polygon fill="#ffffff" stroke="transparent" points="10,-118 10,-136 61,-136 61,-118 10,-118"/>
<polygon fill="none" stroke="black" points="10,-118 10,-136 61,-136 61,-118 10,-118"/>
<text text-anchor="start" x="13" y="-124.2" font-family="Helvetica,sans-Serif" font-size="11.00">&lt; 0</text>
<polygon fill="#ffffff" stroke="transparent" points="61,-118 61,-136 136,-136 136,-118 61,-118"/>
<polygon fill="none" stroke="black" points="61,-118 61,-136 136,-136 136,-118 61,-118"/>
<text text-anchor="start" x="94" y="-124.2" font-family="Helvetica,sans-Serif" font-size="11.00">83 rows</text>
<polygon fill="#ffffff" stroke="transparent" points="136,-118 136,-136 210,-136 210,-118 136,-118"/>
<polygon fill="none" stroke="black" points="136,-118 136,-136 210,-136 210,-118 136,-118"/>
<text text-anchor="start" x="191" y="-124.2" font-family="Helvetica,sans-Serif" font-size="11.00">2 &gt;</text>
<polygon fill="none" stroke="black" stroke-width="2" points="9,-117 9,-247 211,-247 211,-117 9,-117"/>
</a>
</g>
</g>
<!-- contextsdatasettypes&#45;&gt;variablecontexts -->
<g id="edge2" class="edge">
<title>contextsdatasettypes:w&#45;&gt;variablecontexts:e</title>
<path fill="none" stroke="black" d="M245.45,-421.91C179.73,-400 301.63,-213 211,-213"/>
<polygon fill="black" stroke="black" points="252.08,-422.86 259.49,-427.56 256.04,-423.43 260,-424 260,-424 260,-424 256.04,-423.43 260.51,-420.44 252.08,-422.86 252.08,-422.86"/>
<ellipse fill="none" stroke="black" cx="248.91" cy="-422.41" rx="3.2" ry="3.2"/>
</g>
<!-- data -->
<g id="node4" class="node">
<title>data</title>
<g id="a_node4"><a xlink:href="../../tables/data.html" xlink:title="data" target="_top">
<polygon fill="#ffffff" stroke="transparent" points="479,-508 479,-566 610,-566 610,-508 479,-508"/>
<polygon fill="#f5f5f5" stroke="transparent" points="479.5,-544 479.5,-566 610.5,-566 610.5,-544 479.5,-544"/>
<polygon fill="none" stroke="black" points="479.5,-544 479.5,-566 610.5,-566 610.5,-544 479.5,-544"/>
<text text-anchor="start" x="484.5" y="-553.2" font-family="Helvetica,sans-Serif" font-weight="bold" font-size="11.00">data</text>
<text text-anchor="start" x="575.5" y="-552.2" font-family="Helvetica,sans-Serif" font-size="11.00">[table]</text>
<polygon fill="none" stroke="black" points="479.5,-526 479.5,-544 610.5,-544 610.5,-526 479.5,-526"/>
<text text-anchor="start" x="482.5" y="-532.2" font-family="Helvetica,sans-Serif" font-size="11.00">...</text>
<polygon fill="#ffffff" stroke="transparent" points="479.5,-508 479.5,-526 501.5,-526 501.5,-508 479.5,-508"/>
<polygon fill="none" stroke="black" points="479.5,-508 479.5,-526 501.5,-526 501.5,-508 479.5,-508"/>
<text text-anchor="start" x="482.5" y="-514.2" font-family="Helvetica,sans-Serif" font-size="11.00">&lt; 2</text>
<polygon fill="#ffffff" stroke="transparent" points="501.5,-508 501.5,-526 588.5,-526 588.5,-508 501.5,-508"/>
<polygon fill="none" stroke="black" points="501.5,-508 501.5,-526 588.5,-526 588.5,-508 501.5,-508"/>
<text text-anchor="start" x="504.5" y="-514.2" font-family="Helvetica,sans-Serif" font-size="11.00">10,039,985 rows</text>
<polygon fill="#ffffff" stroke="transparent" points="588.5,-508 588.5,-526 610.5,-526 610.5,-508 588.5,-508"/>
<polygon fill="none" stroke="black" points="588.5,-508 588.5,-526 610.5,-526 610.5,-508 588.5,-508"/>
<text text-anchor="start" x="591.5" y="-514.2" font-family="Helvetica,sans-Serif" font-size="11.00">7 &gt;</text>
</a>
</g>
</g>
<!-- variables -->
<g id="node5" class="node">
<title>variables</title>
<g id="a_node5"><a xlink:href="../../tables/variables.html" xlink:title="variables" target="_top">
<polygon fill="#ffffff" stroke="transparent" points="274,-181 274,-349 404,-349 404,-181 274,-181"/>
<polygon fill="#f5f5f5" stroke="transparent" points="274,-327 274,-349 404,-349 404,-327 274,-327"/>
<polygon fill="none" stroke="black" points="274,-327 274,-349 404,-349 404,-327 274,-327"/>
<text text-anchor="start" x="279" y="-336.2" font-family="Helvetica,sans-Serif" font-weight="bold" font-size="11.00">variables</text>
<text text-anchor="start" x="369" y="-335.2" font-family="Helvetica,sans-Serif" font-size="11.00">[table]</text>
<polygon fill="none" stroke="black" points="274,-305 274,-327 404,-327 404,-305 274,-305"/>
<image xlink:href="../../images/primaryKeys.png" width="11px" height="12px" preserveAspectRatio="xMinYMin meet" x="279" y="-322"/>
<text text-anchor="start" x="294" y="-313.2" font-family="Helvetica,sans-Serif" font-size="11.00">variableid</text>
<polygon fill="#ffffff" stroke="transparent" points="274,-283 274,-305 404,-305 404,-283 274,-283"/>
<polygon fill="none" stroke="black" points="274,-283 274,-305 404,-305 404,-283 274,-283"/>
<image xlink:href="../../images/foreignKeys.png" width="11px" height="12px" preserveAspectRatio="xMinYMin meet" x="279" y="-300"/>
<text text-anchor="start" x="294" y="-291.2" font-family="Helvetica,sans-Serif" font-size="11.00">taxonid</text>
<polygon fill="#ffffff" stroke="transparent" points="274,-261 274,-283 404,-283 404,-261 274,-261"/>
<polygon fill="none" stroke="black" points="274,-261 274,-283 404,-283 404,-261 274,-261"/>
<image xlink:href="../../images/foreignKeys.png" width="11px" height="12px" preserveAspectRatio="xMinYMin meet" x="279" y="-278"/>
<text text-anchor="start" x="294" y="-269.2" font-family="Helvetica,sans-Serif" font-size="11.00">variableelementid</text>
<polygon fill="#ffffff" stroke="transparent" points="274,-239 274,-261 404,-261 404,-239 274,-239"/>
<polygon fill="none" stroke="black" points="274,-239 274,-261 404,-261 404,-239 274,-239"/>
<image xlink:href="../../images/foreignKeys.png" width="11px" height="12px" preserveAspectRatio="xMinYMin meet" x="279" y="-256"/>
<text text-anchor="start" x="294" y="-247.2" font-family="Helvetica,sans-Serif" font-size="11.00">variableunitsid</text>
<polygon fill="none" stroke="black" points="274,-217 274,-239 404,-239 404,-217 274,-217"/>
<image xlink:href="../../images/foreignKeys.png" width="11px" height="12px" preserveAspectRatio="xMinYMin meet" x="279" y="-234"/>
<text text-anchor="start" x="294" y="-225.2" font-family="Helvetica,sans-Serif" font-size="11.00">variablecontextid</text>
<polygon fill="none" stroke="black" points="274,-199 274,-217 404,-217 404,-199 274,-199"/>
<text text-anchor="start" x="277" y="-205.2" font-family="Helvetica,sans-Serif" font-size="11.00">...</text>
<polygon fill="#ffffff" stroke="transparent" points="274,-181 274,-199 306,-199 306,-181 274,-181"/>
<polygon fill="none" stroke="black" points="274,-181 274,-199 306,-199 306,-181 274,-181"/>
<text text-anchor="start" x="277" y="-187.2" font-family="Helvetica,sans-Serif" font-size="11.00">&lt; 4</text>
<polygon fill="#ffffff" stroke="transparent" points="306,-181 306,-199 377,-199 377,-181 306,-181"/>
<polygon fill="none" stroke="black" points="306,-181 306,-199 377,-199 377,-181 306,-181"/>
<text text-anchor="start" x="314" y="-187.2" font-family="Helvetica,sans-Serif" font-size="11.00">55,155 rows</text>
<polygon fill="#ffffff" stroke="transparent" points="377,-181 377,-199 404,-199 404,-181 377,-181"/>
<polygon fill="none" stroke="black" points="377,-181 377,-199 404,-199 404,-181 377,-181"/>
<text text-anchor="start" x="385" y="-187.2" font-family="Helvetica,sans-Serif" font-size="11.00">7 &gt;</text>
</a>
</g>
</g>
<!-- data&#45;&gt;variables -->
<g id="edge3" class="edge">
<title>data:w&#45;&gt;variables:e</title>
<path fill="none" stroke="black" d="M464.15,-533.24C389.08,-512.51 502.25,-316 405,-316"/>
<polygon fill="black" stroke="black" points="470.56,-534.02 478.06,-538.57 474.53,-534.51 478.5,-535 478.5,-535 478.5,-535 474.53,-534.51 478.94,-531.43 470.56,-534.02 470.56,-534.02"/>
<ellipse fill="none" stroke="black" cx="467.38" cy="-533.63" rx="3.2" ry="3.2"/>
</g>
<!-- variables&#45;&gt;variablecontexts -->
<g id="edge11" class="edge">
<title>variables:w&#45;&gt;variablecontexts:e</title>
<path fill="none" stroke="black" d="M258.19,-226.39C241.55,-222.53 233.59,-213 211,-213"/>
<polygon fill="black" stroke="black" points="265.05,-227.14 272.61,-231.58 269.02,-227.57 273,-228 273,-228 273,-228 269.02,-227.57 273.39,-224.42 265.05,-227.14 265.05,-227.14"/>
<ellipse fill="none" stroke="black" cx="261.87" cy="-226.79" rx="3.2" ry="3.2"/>
</g>
<!-- taxa -->
<g id="node12" class="node">
<title>taxa</title>
<g id="a_node12"><a xlink:href="../../tables/taxa.html" xlink:title="taxa" target="_top">
<polygon fill="#ffffff" stroke="transparent" points="52,-348 52,-406 168,-406 168,-348 52,-348"/>
<polygon fill="#f5f5f5" stroke="transparent" points="52,-384 52,-406 168,-406 168,-384 52,-384"/>
<polygon fill="none" stroke="black" points="52,-384 52,-406 168,-406 168,-384 52,-384"/>
<text text-anchor="start" x="57" y="-393.2" font-family="Helvetica,sans-Serif" font-weight="bold" font-size="11.00">taxa</text>
<text text-anchor="start" x="133" y="-392.2" font-family="Helvetica,sans-Serif" font-size="11.00">[table]</text>
<polygon fill="none" stroke="black" points="52,-366 52,-384 168,-384 168,-366 52,-366"/>
<text text-anchor="start" x="55" y="-372.2" font-family="Helvetica,sans-Serif" font-size="11.00">...</text>
<polygon fill="#ffffff" stroke="transparent" points="52,-348 52,-366 74,-366 74,-348 52,-348"/>
<polygon fill="none" stroke="black" points="52,-348 52,-366 74,-366 74,-348 52,-348"/>
<text text-anchor="start" x="55" y="-354.2" font-family="Helvetica,sans-Serif" font-size="11.00">&lt; 4</text>
<polygon fill="#ffffff" stroke="transparent" points="74,-348 74,-366 140,-366 140,-348 74,-348"/>
<polygon fill="none" stroke="black" points="74,-348 74,-366 140,-366 140,-348 74,-348"/>
<text text-anchor="start" x="77" y="-354.2" font-family="Helvetica,sans-Serif" font-size="11.00">46,322 rows</text>
<polygon fill="#ffffff" stroke="transparent" points="140,-348 140,-366 168,-366 168,-348 140,-348"/>
<polygon fill="none" stroke="black" points="140,-348 140,-366 168,-366 168,-348 140,-348"/>
<text text-anchor="start" x="143" y="-354.2" font-family="Helvetica,sans-Serif" font-size="11.00">17 &gt;</text>
</a>
</g>
</g>
<!-- variables&#45;&gt;taxa -->
<g id="edge10" class="edge">
<title>variables:w&#45;&gt;taxa:e</title>
<path fill="none" stroke="black" d="M258.34,-296.65C242.1,-303.61 239.46,-322.89 220,-338 197.88,-355.18 197,-375 169,-375"/>
<polygon fill="black" stroke="black" points="265.13,-295.42 273.64,-297.54 269.06,-294.71 273,-294 273,-294 273,-294 269.06,-294.71 272.36,-290.46 265.13,-295.42 265.13,-295.42"/>
<ellipse fill="none" stroke="black" cx="261.98" cy="-295.99" rx="3.2" ry="3.2"/>
</g>
<!-- variableelements -->
<g id="node13" class="node">
<title>variableelements</title>
<g id="a_node13"><a xlink:href="../../tables/variableelements.html" xlink:title="variableelements" target="_top">
<polygon fill="#ffffff" stroke="transparent" points="43.5,-269 43.5,-327 176.5,-327 176.5,-269 43.5,-269"/>
<polygon fill="#f5f5f5" stroke="transparent" points="44,-305 44,-327 177,-327 177,-305 44,-305"/>
<polygon fill="none" stroke="black" points="44,-305 44,-327 177,-327 177,-305 44,-305"/>
<text text-anchor="start" x="49" y="-314.2" font-family="Helvetica,sans-Serif" font-weight="bold" font-size="11.00">variableelements</text>
<text text-anchor="start" x="142" y="-313.2" font-family="Helvetica,sans-Serif" font-size="11.00">[table]</text>
<polygon fill="none" stroke="black" points="44,-287 44,-305 177,-305 177,-287 44,-287"/>
<text text-anchor="start" x="47" y="-293.2" font-family="Helvetica,sans-Serif" font-size="11.00">...</text>
<polygon fill="#ffffff" stroke="transparent" points="44,-269 44,-287 85,-287 85,-269 44,-269"/>
<polygon fill="none" stroke="black" points="44,-269 44,-287 85,-287 85,-269 44,-269"/>
<text text-anchor="start" x="47" y="-275.2" font-family="Helvetica,sans-Serif" font-size="11.00">&lt; 4</text>
<polygon fill="#ffffff" stroke="transparent" points="85,-269 85,-287 145,-287 145,-269 85,-269"/>
<polygon fill="none" stroke="black" points="85,-269 85,-287 145,-287 145,-269 85,-269"/>
<text text-anchor="start" x="97" y="-275.2" font-family="Helvetica,sans-Serif" font-size="11.00">967 rows</text>
<polygon fill="#ffffff" stroke="transparent" points="145,-269 145,-287 177,-287 177,-269 145,-269"/>
<polygon fill="none" stroke="black" points="145,-269 145,-287 177,-287 177,-269 145,-269"/>
<text text-anchor="start" x="158" y="-275.2" font-family="Helvetica,sans-Serif" font-size="11.00">1 &gt;</text>
</a>
</g>
</g>
<!-- variables&#45;&gt;variableelements -->
<g id="edge12" class="edge">
<title>variables:w&#45;&gt;variableelements:e</title>
<path fill="none" stroke="black" d="M258.62,-272.97C227.01,-277.46 216.28,-296 178,-296"/>
<polygon fill="black" stroke="black" points="265.02,-272.54 273.24,-275.59 269.01,-272.27 273,-272 273,-272 273,-272 269.01,-272.27 272.76,-268.41 265.02,-272.54 265.02,-272.54"/>
<ellipse fill="none" stroke="black" cx="261.83" cy="-272.75" rx="3.2" ry="3.2"/>
</g>
<!-- variableunits -->
<g id="node14" class="node">
<title>variableunits</title>
<g id="a_node14"><a xlink:href="../../tables/variableunits.html" xlink:title="variableunits" target="_top">
<polygon fill="#ffffff" stroke="transparent" points="54,-37 54,-95 166,-95 166,-37 54,-37"/>
<polygon fill="#f5f5f5" stroke="transparent" points="54,-73 54,-95 166,-95 166,-73 54,-73"/>
<polygon fill="none" stroke="black" points="54,-73 54,-95 166,-95 166,-73 54,-73"/>
<text text-anchor="start" x="59" y="-82.2" font-family="Helvetica,sans-Serif" font-weight="bold" font-size="11.00">variableunits</text>
<text text-anchor="start" x="131" y="-81.2" font-family="Helvetica,sans-Serif" font-size="11.00">[table]</text>
<polygon fill="none" stroke="black" points="54,-55 54,-73 166,-73 166,-55 54,-55"/>
<text text-anchor="start" x="57" y="-61.2" font-family="Helvetica,sans-Serif" font-size="11.00">...</text>
<polygon fill="#ffffff" stroke="transparent" points="54,-37 54,-55 80,-55 80,-37 54,-37"/>
<polygon fill="none" stroke="black" points="54,-37 54,-55 80,-55 80,-37 54,-37"/>
<text text-anchor="start" x="57" y="-43.2" font-family="Helvetica,sans-Serif" font-size="11.00"> &#160;</text>
<polygon fill="#ffffff" stroke="transparent" points="80,-37 80,-55 137,-55 137,-37 80,-37"/>
<polygon fill="none" stroke="black" points="80,-37 80,-55 137,-55 137,-37 80,-37"/>
<text text-anchor="start" x="89" y="-43.2" font-family="Helvetica,sans-Serif" font-size="11.00">209 rows</text>
<polygon fill="#ffffff" stroke="transparent" points="137,-37 137,-55 166,-55 166,-37 137,-37"/>
<polygon fill="none" stroke="black" points="137,-37 137,-55 166,-55 166,-37 137,-37"/>
<text text-anchor="start" x="147" y="-43.2" font-family="Helvetica,sans-Serif" font-size="11.00">4 &gt;</text>
</a>
</g>
</g>
<!-- variables&#45;&gt;variableunits -->
<g id="edge13" class="edge">
<title>variables:w&#45;&gt;variableunits:e</title>
<path fill="none" stroke="black" d="M258.51,-248.26C212.94,-235.53 257.18,-155.84 220,-105 202.42,-80.96 196.78,-64 167,-64"/>
<polygon fill="black" stroke="black" points="265.06,-249.05 272.57,-253.57 269.03,-249.52 273,-250 273,-250 273,-250 269.03,-249.52 273.43,-246.43 265.06,-249.05 265.06,-249.05"/>
<ellipse fill="none" stroke="black" cx="261.88" cy="-248.66" rx="3.2" ry="3.2"/>
</g>
<!-- datasetvariables -->
<g id="node6" class="node">
<title>datasetvariables</title>
<g id="a_node6"><a xlink:href="../../tables/datasetvariables.html" xlink:title="datasetvariables" target="_top">
<polygon fill="#ffffff" stroke="transparent" points="479.5,-429 479.5,-487 609.5,-487 609.5,-429 479.5,-429"/>
<polygon fill="#f5f5f5" stroke="transparent" points="479.5,-465 479.5,-487 609.5,-487 609.5,-465 479.5,-465"/>
<polygon fill="none" stroke="black" points="479.5,-465 479.5,-487 609.5,-487 609.5,-465 479.5,-465"/>
<text text-anchor="start" x="484.5" y="-474.2" font-family="Helvetica,sans-Serif" font-weight="bold" font-size="11.00">datasetvariables</text>
<text text-anchor="start" x="574.5" y="-473.2" font-family="Helvetica,sans-Serif" font-size="11.00">[table]</text>
<polygon fill="none" stroke="black" points="479.5,-447 479.5,-465 609.5,-465 609.5,-447 479.5,-447"/>
<text text-anchor="start" x="482.5" y="-453.2" font-family="Helvetica,sans-Serif" font-size="11.00">...</text>
<polygon fill="#ffffff" stroke="transparent" points="479.5,-429 479.5,-447 529.5,-447 529.5,-429 479.5,-429"/>
<polygon fill="none" stroke="black" points="479.5,-429 479.5,-447 529.5,-447 529.5,-429 479.5,-429"/>
<text text-anchor="start" x="482.5" y="-435.2" font-family="Helvetica,sans-Serif" font-size="11.00">&lt; 2</text>
<polygon fill="#ffffff" stroke="transparent" points="529.5,-429 529.5,-447 582.5,-447 582.5,-429 529.5,-429"/>
<polygon fill="none" stroke="black" points="529.5,-429 529.5,-447 582.5,-447 582.5,-429 529.5,-429"/>
<text text-anchor="start" x="546.5" y="-435.2" font-family="Helvetica,sans-Serif" font-size="11.00">0 rows</text>
<polygon fill="#ffffff" stroke="transparent" points="582.5,-429 582.5,-447 609.5,-447 609.5,-429 582.5,-429"/>
<polygon fill="none" stroke="black" points="582.5,-429 582.5,-447 609.5,-447 609.5,-429 582.5,-429"/>
<text text-anchor="start" x="599.5" y="-435.2" font-family="Helvetica,sans-Serif" font-size="11.00"> &#160;</text>
</a>
</g>
</g>
<!-- datasetvariables&#45;&gt;variables -->
<g id="edge4" class="edge">
<title>datasetvariables:w&#45;&gt;variables:e</title>
<path fill="none" stroke="black" d="M464.12,-453.45C418.08,-434.48 469.65,-316 405,-316"/>
<polygon fill="black" stroke="black" points="470.62,-454.6 477.87,-459.54 474.56,-455.3 478.5,-456 478.5,-456 478.5,-456 474.56,-455.3 479.13,-452.46 470.62,-454.6 470.62,-454.6"/>
<ellipse fill="none" stroke="black" cx="467.47" cy="-454.04" rx="3.2" ry="3.2"/>
</g>
<!-- dsdatasample -->
<g id="node7" class="node">
<title>dsdatasample</title>
<g id="a_node7"><a xlink:href="../../tables/dsdatasample.html" xlink:title="dsdatasample" target="_top">
<polygon fill="#ffffff" stroke="transparent" points="487,-368 487,-408 602,-408 602,-368 487,-368"/>
<polygon fill="#f5f5f5" stroke="transparent" points="487.5,-386 487.5,-408 602.5,-408 602.5,-386 487.5,-386"/>
<polygon fill="none" stroke="black" points="487.5,-386 487.5,-408 602.5,-408 602.5,-386 487.5,-386"/>
<text text-anchor="start" x="492.5" y="-395.2" font-family="Helvetica,sans-Serif" font-weight="bold" font-size="11.00">dsdatasample</text>
<text text-anchor="start" x="569.5" y="-394.2" font-family="Helvetica,sans-Serif" font-size="11.00">[view]</text>
<polygon fill="none" stroke="black" points="487.5,-368 487.5,-386 602.5,-386 602.5,-368 487.5,-368"/>
<text text-anchor="start" x="490.5" y="-374.2" font-family="Helvetica,sans-Serif" font-size="11.00">...</text>
</a>
</g>
</g>
<!-- dsdatasample&#45;&gt;variables -->
<g id="edge5" class="edge">
<title>dsdatasample:w&#45;&gt;variables:e</title>
<path fill="none" stroke="black" stroke-dasharray="5,2" d="M472.26,-374.53C442.64,-363.12 444.77,-316 405,-316"/>
<polygon fill="black" stroke="black" points="478.62,-375.63 485.89,-380.55 482.56,-376.32 486.5,-377 486.5,-377 486.5,-377 482.56,-376.32 487.11,-373.45 478.62,-375.63 478.62,-375.63"/>
<ellipse fill="none" stroke="black" cx="475.46" cy="-375.09" rx="3.2" ry="3.2"/>
</g>
<!-- isoinstrumentation -->
<g id="node8" class="node">
<title>isoinstrumentation</title>
<g id="a_node8"><a xlink:href="../../tables/isoinstrumentation.html" xlink:title="isoinstrumentation" target="_top">
<polygon fill="#ffffff" stroke="transparent" points="472.5,-289 472.5,-347 616.5,-347 616.5,-289 472.5,-289"/>
<polygon fill="#f5f5f5" stroke="transparent" points="472.5,-325 472.5,-347 616.5,-347 616.5,-325 472.5,-325"/>
<polygon fill="none" stroke="black" points="472.5,-325 472.5,-347 616.5,-347 616.5,-325 472.5,-325"/>
<text text-anchor="start" x="477.5" y="-334.2" font-family="Helvetica,sans-Serif" font-weight="bold" font-size="11.00">isoinstrumentation</text>
<text text-anchor="start" x="581.5" y="-333.2" font-family="Helvetica,sans-Serif" font-size="11.00">[table]</text>
<polygon fill="none" stroke="black" points="472.5,-307 472.5,-325 616.5,-325 616.5,-307 472.5,-307"/>
<text text-anchor="start" x="475.5" y="-313.2" font-family="Helvetica,sans-Serif" font-size="11.00">...</text>
<polygon fill="#ffffff" stroke="transparent" points="472.5,-289 472.5,-307 523.5,-307 523.5,-289 472.5,-289"/>
<polygon fill="none" stroke="black" points="472.5,-289 472.5,-307 523.5,-307 523.5,-289 472.5,-289"/>
<text text-anchor="start" x="475.5" y="-295.2" font-family="Helvetica,sans-Serif" font-size="11.00">&lt; 4</text>
<polygon fill="#ffffff" stroke="transparent" points="523.5,-289 523.5,-307 588.5,-307 588.5,-289 523.5,-289"/>
<polygon fill="none" stroke="black" points="523.5,-289 523.5,-307 588.5,-307 588.5,-289 523.5,-289"/>
<text text-anchor="start" x="540.5" y="-295.2" font-family="Helvetica,sans-Serif" font-size="11.00">156 rows</text>
<polygon fill="#ffffff" stroke="transparent" points="588.5,-289 588.5,-307 616.5,-307 616.5,-289 588.5,-289"/>
<polygon fill="none" stroke="black" points="588.5,-289 588.5,-307 616.5,-307 616.5,-289 588.5,-289"/>
<text text-anchor="start" x="606.5" y="-295.2" font-family="Helvetica,sans-Serif" font-size="11.00"> &#160;</text>
</a>
</g>
</g>
<!-- isoinstrumentation&#45;&gt;variables -->
<g id="edge6" class="edge">
<title>isoinstrumentation:w&#45;&gt;variables:e</title>
<path fill="none" stroke="black" d="M456.92,-316C438.39,-316 429.01,-316 405,-316"/>
<polygon fill="black" stroke="black" points="463.5,-316 471.5,-319.6 467.5,-316 471.5,-316 471.5,-316 471.5,-316 467.5,-316 471.5,-312.4 463.5,-316 463.5,-316"/>
<ellipse fill="none" stroke="black" cx="460.3" cy="-316" rx="3.2" ry="3.2"/>
</g>
<!-- isosrmetadata -->
<g id="node9" class="node">
<title>isosrmetadata</title>
<g id="a_node9"><a xlink:href="../../tables/isosrmetadata.html" xlink:title="isosrmetadata" target="_top">
<polygon fill="#ffffff" stroke="transparent" points="485,-210 485,-268 604,-268 604,-210 485,-210"/>
<polygon fill="#f5f5f5" stroke="transparent" points="485.5,-246 485.5,-268 604.5,-268 604.5,-246 485.5,-246"/>
<polygon fill="none" stroke="black" points="485.5,-246 485.5,-268 604.5,-268 604.5,-246 485.5,-246"/>
<text text-anchor="start" x="490.5" y="-255.2" font-family="Helvetica,sans-Serif" font-weight="bold" font-size="11.00">isosrmetadata</text>
<text text-anchor="start" x="569.5" y="-254.2" font-family="Helvetica,sans-Serif" font-size="11.00">[table]</text>
<polygon fill="none" stroke="black" points="485.5,-228 485.5,-246 604.5,-246 604.5,-228 485.5,-228"/>
<text text-anchor="start" x="488.5" y="-234.2" font-family="Helvetica,sans-Serif" font-size="11.00">...</text>
<polygon fill="#ffffff" stroke="transparent" points="485.5,-210 485.5,-228 526.5,-228 526.5,-210 485.5,-210"/>
<polygon fill="none" stroke="black" points="485.5,-210 485.5,-228 526.5,-228 526.5,-210 485.5,-210"/>
<text text-anchor="start" x="488.5" y="-216.2" font-family="Helvetica,sans-Serif" font-size="11.00">&lt; 2</text>
<polygon fill="#ffffff" stroke="transparent" points="526.5,-210 526.5,-228 581.5,-228 581.5,-210 526.5,-210"/>
<polygon fill="none" stroke="black" points="526.5,-210 526.5,-228 581.5,-228 581.5,-210 526.5,-210"/>
<text text-anchor="start" x="539.5" y="-216.2" font-family="Helvetica,sans-Serif" font-size="11.00">14 rows</text>
<polygon fill="#ffffff" stroke="transparent" points="581.5,-210 581.5,-228 604.5,-228 604.5,-210 581.5,-210"/>
<polygon fill="none" stroke="black" points="581.5,-210 581.5,-228 604.5,-228 604.5,-210 581.5,-210"/>
<text text-anchor="start" x="594.5" y="-216.2" font-family="Helvetica,sans-Serif" font-size="11.00"> &#160;</text>
</a>
</g>
</g>
<!-- isosrmetadata&#45;&gt;variables -->
<g id="edge7" class="edge">
<title>isosrmetadata:w&#45;&gt;variables:e</title>
<path fill="none" stroke="black" d="M470.06,-239.81C438.35,-253.88 449.17,-316 405,-316"/>
<polygon fill="black" stroke="black" points="476.65,-238.53 485.19,-240.53 480.57,-237.76 484.5,-237 484.5,-237 484.5,-237 480.57,-237.76 483.81,-233.47 476.65,-238.53 476.65,-238.53"/>
<ellipse fill="none" stroke="black" cx="473.51" cy="-239.14" rx="3.2" ry="3.2"/>
</g>
<!-- isostandards -->
<g id="node10" class="node">
<title>isostandards</title>
<g id="a_node10"><a xlink:href="../../tables/isostandards.html" xlink:title="isostandards" target="_top">
<polygon fill="#ffffff" stroke="transparent" points="488,-131 488,-189 601,-189 601,-131 488,-131"/>
<polygon fill="#f5f5f5" stroke="transparent" points="488.5,-167 488.5,-189 601.5,-189 601.5,-167 488.5,-167"/>
<polygon fill="none" stroke="black" points="488.5,-167 488.5,-189 601.5,-189 601.5,-167 488.5,-167"/>
<text text-anchor="start" x="493.5" y="-176.2" font-family="Helvetica,sans-Serif" font-weight="bold" font-size="11.00">isostandards</text>
<text text-anchor="start" x="566.5" y="-175.2" font-family="Helvetica,sans-Serif" font-size="11.00">[table]</text>
<polygon fill="none" stroke="black" points="488.5,-149 488.5,-167 601.5,-167 601.5,-149 488.5,-149"/>
<text text-anchor="start" x="491.5" y="-155.2" font-family="Helvetica,sans-Serif" font-size="11.00">...</text>
<polygon fill="#ffffff" stroke="transparent" points="488.5,-131 488.5,-149 529.5,-149 529.5,-131 488.5,-131"/>
<polygon fill="none" stroke="black" points="488.5,-131 488.5,-149 529.5,-149 529.5,-131 488.5,-131"/>
<text text-anchor="start" x="491.5" y="-137.2" font-family="Helvetica,sans-Serif" font-size="11.00">&lt; 3</text>
<polygon fill="#ffffff" stroke="transparent" points="529.5,-131 529.5,-149 578.5,-149 578.5,-131 529.5,-131"/>
<polygon fill="none" stroke="black" points="529.5,-131 529.5,-149 578.5,-149 578.5,-131 529.5,-131"/>
<text text-anchor="start" x="542.5" y="-137.2" font-family="Helvetica,sans-Serif" font-size="11.00">0 rows</text>
<polygon fill="#ffffff" stroke="transparent" points="578.5,-131 578.5,-149 601.5,-149 601.5,-131 578.5,-131"/>
<polygon fill="none" stroke="black" points="578.5,-131 578.5,-149 601.5,-149 601.5,-131 578.5,-131"/>
<text text-anchor="start" x="591.5" y="-137.2" font-family="Helvetica,sans-Serif" font-size="11.00"> &#160;</text>
</a>
</g>
</g>
<!-- isostandards&#45;&gt;variables -->
<g id="edge8" class="edge">
<title>isostandards:w&#45;&gt;variables:e</title>
<path fill="none" stroke="black" d="M472.98,-160.23C418.19,-179.44 478.65,-316 405,-316"/>
<polygon fill="black" stroke="black" points="479.59,-159.22 488.05,-161.56 483.55,-158.61 487.5,-158 487.5,-158 487.5,-158 483.55,-158.61 486.95,-154.44 479.59,-159.22 479.59,-159.22"/>
<ellipse fill="none" stroke="black" cx="476.43" cy="-159.7" rx="3.2" ry="3.2"/>
</g>
<!-- isovariablescaletypes -->
<g id="node11" class="node">
<title>isovariablescaletypes</title>
<g id="a_node11"><a xlink:href="../../tables/isovariablescaletypes.html" xlink:title="isovariablescaletypes" target="_top">
<polygon fill="#ffffff" stroke="transparent" points="466,-52 466,-110 623,-110 623,-52 466,-52"/>
<polygon fill="#f5f5f5" stroke="transparent" points="466.5,-88 466.5,-110 623.5,-110 623.5,-88 466.5,-88"/>
<polygon fill="none" stroke="black" points="466.5,-88 466.5,-110 623.5,-110 623.5,-88 466.5,-88"/>
<text text-anchor="start" x="471.5" y="-97.2" font-family="Helvetica,sans-Serif" font-weight="bold" font-size="11.00">isovariablescaletypes</text>
<text text-anchor="start" x="588.5" y="-96.2" font-family="Helvetica,sans-Serif" font-size="11.00">[table]</text>
<polygon fill="none" stroke="black" points="466.5,-70 466.5,-88 623.5,-88 623.5,-70 466.5,-70"/>
<text text-anchor="start" x="469.5" y="-76.2" font-family="Helvetica,sans-Serif" font-size="11.00">...</text>
<polygon fill="#ffffff" stroke="transparent" points="466.5,-52 466.5,-70 526.5,-70 526.5,-52 466.5,-52"/>
<polygon fill="none" stroke="black" points="466.5,-52 466.5,-70 526.5,-70 526.5,-52 466.5,-52"/>
<text text-anchor="start" x="469.5" y="-58.2" font-family="Helvetica,sans-Serif" font-size="11.00">&lt; 2</text>
<polygon fill="#ffffff" stroke="transparent" points="526.5,-52 526.5,-70 590.5,-70 590.5,-52 526.5,-52"/>
<polygon fill="none" stroke="black" points="526.5,-52 526.5,-70 590.5,-70 590.5,-52 526.5,-52"/>
<text text-anchor="start" x="548.5" y="-58.2" font-family="Helvetica,sans-Serif" font-size="11.00">14 rows</text>
<polygon fill="#ffffff" stroke="transparent" points="590.5,-52 590.5,-70 623.5,-70 623.5,-52 590.5,-52"/>
<polygon fill="none" stroke="black" points="590.5,-52 590.5,-70 623.5,-70 623.5,-52 590.5,-52"/>
<text text-anchor="start" x="613.5" y="-58.2" font-family="Helvetica,sans-Serif" font-size="11.00"> &#160;</text>
</a>
</g>
</g>
<!-- isovariablescaletypes&#45;&gt;variables -->
<g id="edge9" class="edge">
<title>isovariablescaletypes:w&#45;&gt;variables:e</title>
<path fill="none" stroke="black" d="M450.92,-80.77C372.04,-102.46 508.19,-316 405,-316"/>
<polygon fill="black" stroke="black" points="457.56,-79.97 465.93,-82.57 461.53,-79.48 465.5,-79 465.5,-79 465.5,-79 461.53,-79.48 465.07,-75.43 457.56,-79.97 457.56,-79.97"/>
<ellipse fill="none" stroke="black" cx="454.38" cy="-80.35" rx="3.2" ry="3.2"/>
</g>
</g>
</svg>
