<?xml version="1.0" encoding="UTF-8" standalone="no"?>
<!DOCTYPE svg PUBLIC "-//W3C//DTD SVG 1.1//EN"
 "http://www.w3.org/Graphics/SVG/1.1/DTD/svg11.dtd">
<!-- Generated by graphviz version 2.43.0 (0)
 -->
<!-- Title: oneDegreeRelationshipsDiagram Pages: 1 -->
<svg width="280pt" height="1325pt"
 viewBox="0.00 0.00 280.00 1325.00" xmlns="http://www.w3.org/2000/svg" xmlns:xlink="http://www.w3.org/1999/xlink">
<g id="graph0" class="graph" transform="scale(1 1) rotate(0) translate(4 1321)">
<title>oneDegreeRelationshipsDiagram</title>
<polygon fill="#ffffff" stroke="transparent" points="-4,4 -4,-1321 276,-1321 276,4 -4,4"/>
<text text-anchor="middle" x="71.5" y="-7.2" font-family="Helvetica,sans-Serif" font-size="11.00">Generated by SchemaSpy</text>
<!-- gadm_410 -->
<g id="node1" class="node">
<title>gadm_410</title>
<g id="a_node1"><a xlink:href="../../tables/gadm_410.html" xlink:title="gadm_410" target="_top">
<polygon fill="#ffffff" stroke="transparent" points="8,-37 8,-1313 264,-1313 264,-37 8,-37"/>
<polygon fill="#f5f5f5" stroke="transparent" points="10,-1289 10,-1311 262,-1311 262,-1289 10,-1289"/>
<polygon fill="none" stroke="black" points="10,-1289 10,-1311 262,-1311 262,-1289 10,-1289"/>
<text text-anchor="start" x="15" y="-1298.2" font-family="Helvetica,sans-Serif" font-weight="bold" font-size="11.00">gadm_410</text>
<text text-anchor="start" x="227" y="-1297.2" font-family="Helvetica,sans-Serif" font-size="11.00">[table]</text>
<polygon fill="none" stroke="black" points="10,-1267 10,-1289 144,-1289 144,-1267 10,-1267"/>
<image xlink:href="../../images/primaryKeys.png" width="11px" height="12px" preserveAspectRatio="xMinYMin meet" x="15" y="-1284"/>
<text text-anchor="start" x="30" y="-1275.2" font-family="Helvetica,sans-Serif" font-size="11.00">fid</text>
<polygon fill="none" stroke="black" points="144,-1267 144,-1289 262,-1289 262,-1267 144,-1267"/>
<text text-anchor="start" x="147" y="-1275.2" font-family="Helvetica,sans-Serif" font-size="11.00">serial[10]</text>
<polygon fill="none" stroke="black" points="10,-1245 10,-1267 144,-1267 144,-1245 10,-1245"/>
<text text-anchor="start" x="30" y="-1253.2" font-family="Helvetica,sans-Serif" font-size="11.00">uid</text>
<polygon fill="none" stroke="black" points="144,-1245 144,-1267 262,-1267 262,-1245 144,-1245"/>
<text text-anchor="start" x="147" y="-1253.2" font-family="Helvetica,sans-Serif" font-size="11.00">int8[19]</text>
<polygon fill="none" stroke="black" points="10,-1223 10,-1245 144,-1245 144,-1223 10,-1223"/>
<text text-anchor="start" x="30" y="-1231.2" font-family="Helvetica,sans-Serif" font-size="11.00">gid_0</text>
<polygon fill="none" stroke="black" points="144,-1223 144,-1245 262,-1245 262,-1223 144,-1223"/>
<text text-anchor="start" x="147" y="-1231.2" font-family="Helvetica,sans-Serif" font-size="11.00">varchar[10]</text>
<polygon fill="none" stroke="black" points="10,-1201 10,-1223 144,-1223 144,-1201 10,-1201"/>
<text text-anchor="start" x="30" y="-1209.2" font-family="Helvetica,sans-Serif" font-size="11.00">name_0</text>
<polygon fill="none" stroke="black" points="144,-1201 144,-1223 262,-1223 262,-1201 144,-1201"/>
<text text-anchor="start" x="147" y="-1209.2" font-family="Helvetica,sans-Serif" font-size="11.00">varchar[32]</text>
<polygon fill="none" stroke="black" points="10,-1179 10,-1201 144,-1201 144,-1179 10,-1179"/>
<text text-anchor="start" x="30" y="-1187.2" font-family="Helvetica,sans-Serif" font-size="11.00">varname_0</text>
<polygon fill="none" stroke="black" points="144,-1179 144,-1201 262,-1201 262,-1179 144,-1179"/>
<text text-anchor="start" x="147" y="-1187.2" font-family="Helvetica,sans-Serif" font-size="11.00">varchar[29]</text>
<polygon fill="none" stroke="black" points="10,-1157 10,-1179 144,-1179 144,-1157 10,-1157"/>
<text text-anchor="start" x="30" y="-1165.2" font-family="Helvetica,sans-Serif" font-size="11.00">gid_1</text>
<polygon fill="none" stroke="black" points="144,-1157 144,-1179 262,-1179 262,-1157 144,-1157"/>
<text text-anchor="start" x="147" y="-1165.2" font-family="Helvetica,sans-Serif" font-size="11.00">varchar[10]</text>
<polygon fill="none" stroke="black" points="10,-1135 10,-1157 144,-1157 144,-1135 10,-1135"/>
<text text-anchor="start" x="30" y="-1143.2" font-family="Helvetica,sans-Serif" font-size="11.00">name_1</text>
<polygon fill="none" stroke="black" points="144,-1135 144,-1157 262,-1157 262,-1135 144,-1135"/>
<text text-anchor="start" x="147" y="-1143.2" font-family="Helvetica,sans-Serif" font-size="11.00">varchar[34]</text>
<polygon fill="none" stroke="black" points="10,-1113 10,-1135 144,-1135 144,-1113 10,-1113"/>
<text text-anchor="start" x="30" y="-1121.2" font-family="Helvetica,sans-Serif" font-size="11.00">varname_1</text>
<polygon fill="none" stroke="black" points="144,-1113 144,-1135 262,-1135 262,-1113 144,-1113"/>
<text text-anchor="start" x="147" y="-1121.2" font-family="Helvetica,sans-Serif" font-size="11.00">varchar[82]</text>
<polygon fill="none" stroke="black" points="10,-1091 10,-1113 144,-1113 144,-1091 10,-1091"/>
<text text-anchor="start" x="30" y="-1099.2" font-family="Helvetica,sans-Serif" font-size="11.00">nl_name_1</text>
<polygon fill="none" stroke="black" points="144,-1091 144,-1113 262,-1113 262,-1091 144,-1091"/>
<text text-anchor="start" x="147" y="-1099.2" font-family="Helvetica,sans-Serif" font-size="11.00">varchar[87]</text>
<polygon fill="none" stroke="black" points="10,-1069 10,-1091 144,-1091 144,-1069 10,-1069"/>
<text text-anchor="start" x="30" y="-1077.2" font-family="Helvetica,sans-Serif" font-size="11.00">iso_1</text>
<polygon fill="none" stroke="black" points="144,-1069 144,-1091 262,-1091 262,-1069 144,-1069"/>
<text text-anchor="start" x="147" y="-1077.2" font-family="Helvetica,sans-Serif" font-size="11.00">varchar[10]</text>
<polygon fill="none" stroke="black" points="10,-1047 10,-1069 144,-1069 144,-1047 10,-1047"/>
<text text-anchor="start" x="30" y="-1055.2" font-family="Helvetica,sans-Serif" font-size="11.00">hasc_1</text>
<polygon fill="none" stroke="black" points="144,-1047 144,-1069 262,-1069 262,-1047 144,-1047"/>
<text text-anchor="start" x="147" y="-1055.2" font-family="Helvetica,sans-Serif" font-size="11.00">varchar[10]</text>
<polygon fill="none" stroke="black" points="10,-1025 10,-1047 144,-1047 144,-1025 10,-1025"/>
<text text-anchor="start" x="30" y="-1033.2" font-family="Helvetica,sans-Serif" font-size="11.00">cc_1</text>
<polygon fill="none" stroke="black" points="144,-1025 144,-1047 262,-1047 262,-1025 144,-1025"/>
<text text-anchor="start" x="147" y="-1033.2" font-family="Helvetica,sans-Serif" font-size="11.00">varchar[10]</text>
<polygon fill="none" stroke="black" points="10,-1003 10,-1025 144,-1025 144,-1003 10,-1003"/>
<text text-anchor="start" x="30" y="-1011.2" font-family="Helvetica,sans-Serif" font-size="11.00">type_1</text>
<polygon fill="none" stroke="black" points="144,-1003 144,-1025 262,-1025 262,-1003 144,-1003"/>
<text text-anchor="start" x="147" y="-1011.2" font-family="Helvetica,sans-Serif" font-size="11.00">varchar[32]</text>
<polygon fill="none" stroke="black" points="10,-981 10,-1003 144,-1003 144,-981 10,-981"/>
<text text-anchor="start" x="30" y="-989.2" font-family="Helvetica,sans-Serif" font-size="11.00">engtype_1</text>
<polygon fill="none" stroke="black" points="144,-981 144,-1003 262,-1003 262,-981 144,-981"/>
<text text-anchor="start" x="147" y="-989.2" font-family="Helvetica,sans-Serif" font-size="11.00">varchar[32]</text>
<polygon fill="none" stroke="black" points="10,-959 10,-981 144,-981 144,-959 10,-959"/>
<text text-anchor="start" x="30" y="-967.2" font-family="Helvetica,sans-Serif" font-size="11.00">validfr_1</text>
<polygon fill="none" stroke="black" points="144,-959 144,-981 262,-981 262,-959 144,-959"/>
<text text-anchor="start" x="147" y="-967.2" font-family="Helvetica,sans-Serif" font-size="11.00">varchar[15]</text>
<polygon fill="none" stroke="black" points="10,-937 10,-959 144,-959 144,-937 10,-937"/>
<text text-anchor="start" x="30" y="-945.2" font-family="Helvetica,sans-Serif" font-size="11.00">gid_2</text>
<polygon fill="none" stroke="black" points="144,-937 144,-959 262,-959 262,-937 144,-937"/>
<text text-anchor="start" x="147" y="-945.2" font-family="Helvetica,sans-Serif" font-size="11.00">varchar[12]</text>
<polygon fill="none" stroke="black" points="10,-915 10,-937 144,-937 144,-915 10,-915"/>
<text text-anchor="start" x="30" y="-923.2" font-family="Helvetica,sans-Serif" font-size="11.00">name_2</text>
<polygon fill="none" stroke="black" points="144,-915 144,-937 262,-937 262,-915 144,-915"/>
<text text-anchor="start" x="147" y="-923.2" font-family="Helvetica,sans-Serif" font-size="11.00">varchar[34]</text>
<polygon fill="none" stroke="black" points="10,-893 10,-915 144,-915 144,-893 10,-893"/>
<text text-anchor="start" x="30" y="-901.2" font-family="Helvetica,sans-Serif" font-size="11.00">varname_2</text>
<polygon fill="none" stroke="black" points="144,-893 144,-915 262,-915 262,-893 144,-893"/>
<text text-anchor="start" x="147" y="-901.2" font-family="Helvetica,sans-Serif" font-size="11.00">varchar[39]</text>
<polygon fill="none" stroke="black" points="10,-871 10,-893 144,-893 144,-871 10,-871"/>
<text text-anchor="start" x="30" y="-879.2" font-family="Helvetica,sans-Serif" font-size="11.00">nl_name_2</text>
<polygon fill="none" stroke="black" points="144,-871 144,-893 262,-893 262,-871 144,-871"/>
<text text-anchor="start" x="147" y="-879.2" font-family="Helvetica,sans-Serif" font-size="11.00">varchar[75]</text>
<polygon fill="none" stroke="black" points="10,-849 10,-871 144,-871 144,-849 10,-849"/>
<text text-anchor="start" x="30" y="-857.2" font-family="Helvetica,sans-Serif" font-size="11.00">hasc_2</text>
<polygon fill="none" stroke="black" points="144,-849 144,-871 262,-871 262,-849 144,-849"/>
<text text-anchor="start" x="147" y="-857.2" font-family="Helvetica,sans-Serif" font-size="11.00">varchar[15]</text>
<polygon fill="none" stroke="black" points="10,-827 10,-849 144,-849 144,-827 10,-827"/>
<text text-anchor="start" x="30" y="-835.2" font-family="Helvetica,sans-Serif" font-size="11.00">cc_2</text>
<polygon fill="none" stroke="black" points="144,-827 144,-849 262,-849 262,-827 144,-827"/>
<text text-anchor="start" x="147" y="-835.2" font-family="Helvetica,sans-Serif" font-size="11.00">varchar[12]</text>
<polygon fill="none" stroke="black" points="10,-805 10,-827 144,-827 144,-805 10,-805"/>
<text text-anchor="start" x="30" y="-813.2" font-family="Helvetica,sans-Serif" font-size="11.00">type_2</text>
<polygon fill="none" stroke="black" points="144,-805 144,-827 262,-827 262,-805 144,-805"/>
<text text-anchor="start" x="147" y="-813.2" font-family="Helvetica,sans-Serif" font-size="11.00">varchar[34]</text>
<polygon fill="none" stroke="black" points="10,-783 10,-805 144,-805 144,-783 10,-783"/>
<text text-anchor="start" x="30" y="-791.2" font-family="Helvetica,sans-Serif" font-size="11.00">engtype_2</text>
<polygon fill="none" stroke="black" points="144,-783 144,-805 262,-805 262,-783 144,-783"/>
<text text-anchor="start" x="147" y="-791.2" font-family="Helvetica,sans-Serif" font-size="11.00">varchar[32]</text>
<polygon fill="none" stroke="black" points="10,-761 10,-783 144,-783 144,-761 10,-761"/>
<text text-anchor="start" x="30" y="-769.2" font-family="Helvetica,sans-Serif" font-size="11.00">validfr_2</text>
<polygon fill="none" stroke="black" points="144,-761 144,-783 262,-783 262,-761 144,-761"/>
<text text-anchor="start" x="147" y="-769.2" font-family="Helvetica,sans-Serif" font-size="11.00">varchar[15]</text>
<polygon fill="none" stroke="black" points="10,-739 10,-761 144,-761 144,-739 10,-739"/>
<text text-anchor="start" x="30" y="-747.2" font-family="Helvetica,sans-Serif" font-size="11.00">gid_3</text>
<polygon fill="none" stroke="black" points="144,-739 144,-761 262,-761 262,-739 144,-739"/>
<text text-anchor="start" x="147" y="-747.2" font-family="Helvetica,sans-Serif" font-size="11.00">varchar[15]</text>
<polygon fill="none" stroke="black" points="10,-717 10,-739 144,-739 144,-717 10,-717"/>
<text text-anchor="start" x="30" y="-725.2" font-family="Helvetica,sans-Serif" font-size="11.00">name_3</text>
<polygon fill="none" stroke="black" points="144,-717 144,-739 262,-739 262,-717 144,-717"/>
<text text-anchor="start" x="147" y="-725.2" font-family="Helvetica,sans-Serif" font-size="11.00">varchar[38]</text>
<polygon fill="none" stroke="black" points="10,-695 10,-717 144,-717 144,-695 10,-695"/>
<text text-anchor="start" x="30" y="-703.2" font-family="Helvetica,sans-Serif" font-size="11.00">varname_3</text>
<polygon fill="none" stroke="black" points="144,-695 144,-717 262,-717 262,-695 144,-695"/>
<text text-anchor="start" x="147" y="-703.2" font-family="Helvetica,sans-Serif" font-size="11.00">varchar[44]</text>
<polygon fill="none" stroke="black" points="10,-673 10,-695 144,-695 144,-673 10,-673"/>
<text text-anchor="start" x="30" y="-681.2" font-family="Helvetica,sans-Serif" font-size="11.00">nl_name_3</text>
<polygon fill="none" stroke="black" points="144,-673 144,-695 262,-695 262,-673 144,-673"/>
<text text-anchor="start" x="147" y="-681.2" font-family="Helvetica,sans-Serif" font-size="11.00">varchar[56]</text>
<polygon fill="none" stroke="black" points="10,-651 10,-673 144,-673 144,-651 10,-651"/>
<text text-anchor="start" x="30" y="-659.2" font-family="Helvetica,sans-Serif" font-size="11.00">hasc_3</text>
<polygon fill="none" stroke="black" points="144,-651 144,-673 262,-673 262,-651 144,-651"/>
<text text-anchor="start" x="147" y="-659.2" font-family="Helvetica,sans-Serif" font-size="11.00">varchar[27]</text>
<polygon fill="none" stroke="black" points="10,-629 10,-651 144,-651 144,-629 10,-629"/>
<text text-anchor="start" x="30" y="-637.2" font-family="Helvetica,sans-Serif" font-size="11.00">cc_3</text>
<polygon fill="none" stroke="black" points="144,-629 144,-651 262,-651 262,-629 144,-629"/>
<text text-anchor="start" x="147" y="-637.2" font-family="Helvetica,sans-Serif" font-size="11.00">varchar[10]</text>
<polygon fill="none" stroke="black" points="10,-607 10,-629 144,-629 144,-607 10,-607"/>
<text text-anchor="start" x="30" y="-615.2" font-family="Helvetica,sans-Serif" font-size="11.00">type_3</text>
<polygon fill="none" stroke="black" points="144,-607 144,-629 262,-629 262,-607 144,-607"/>
<text text-anchor="start" x="147" y="-615.2" font-family="Helvetica,sans-Serif" font-size="11.00">varchar[32]</text>
<polygon fill="none" stroke="black" points="10,-585 10,-607 144,-607 144,-585 10,-585"/>
<text text-anchor="start" x="30" y="-593.2" font-family="Helvetica,sans-Serif" font-size="11.00">engtype_3</text>
<polygon fill="none" stroke="black" points="144,-585 144,-607 262,-607 262,-585 144,-585"/>
<text text-anchor="start" x="147" y="-593.2" font-family="Helvetica,sans-Serif" font-size="11.00">varchar[32]</text>
<polygon fill="none" stroke="black" points="10,-563 10,-585 144,-585 144,-563 10,-563"/>
<text text-anchor="start" x="30" y="-571.2" font-family="Helvetica,sans-Serif" font-size="11.00">validfr_3</text>
<polygon fill="none" stroke="black" points="144,-563 144,-585 262,-585 262,-563 144,-563"/>
<text text-anchor="start" x="147" y="-571.2" font-family="Helvetica,sans-Serif" font-size="11.00">varchar[10]</text>
<polygon fill="none" stroke="black" points="10,-541 10,-563 144,-563 144,-541 10,-541"/>
<text text-anchor="start" x="30" y="-549.2" font-family="Helvetica,sans-Serif" font-size="11.00">gid_4</text>
<polygon fill="none" stroke="black" points="144,-541 144,-563 262,-563 262,-541 144,-541"/>
<text text-anchor="start" x="147" y="-549.2" font-family="Helvetica,sans-Serif" font-size="11.00">varchar[18]</text>
<polygon fill="none" stroke="black" points="10,-519 10,-541 144,-541 144,-519 10,-519"/>
<text text-anchor="start" x="30" y="-527.2" font-family="Helvetica,sans-Serif" font-size="11.00">name_4</text>
<polygon fill="none" stroke="black" points="144,-519 144,-541 262,-541 262,-519 144,-519"/>
<text text-anchor="start" x="147" y="-527.2" font-family="Helvetica,sans-Serif" font-size="11.00">varchar[34]</text>
<polygon fill="none" stroke="black" points="10,-497 10,-519 144,-519 144,-497 10,-497"/>
<text text-anchor="start" x="30" y="-505.2" font-family="Helvetica,sans-Serif" font-size="11.00">varname_4</text>
<polygon fill="none" stroke="black" points="144,-497 144,-519 262,-519 262,-497 144,-497"/>
<text text-anchor="start" x="147" y="-505.2" font-family="Helvetica,sans-Serif" font-size="11.00">varchar[35]</text>
<polygon fill="none" stroke="black" points="10,-475 10,-497 144,-497 144,-475 10,-475"/>
<text text-anchor="start" x="30" y="-483.2" font-family="Helvetica,sans-Serif" font-size="11.00">cc_4</text>
<polygon fill="none" stroke="black" points="144,-475 144,-497 262,-497 262,-475 144,-475"/>
<text text-anchor="start" x="147" y="-483.2" font-family="Helvetica,sans-Serif" font-size="11.00">varchar[12]</text>
<polygon fill="none" stroke="black" points="10,-453 10,-475 144,-475 144,-453 10,-453"/>
<text text-anchor="start" x="30" y="-461.2" font-family="Helvetica,sans-Serif" font-size="11.00">type_4</text>
<polygon fill="none" stroke="black" points="144,-453 144,-475 262,-475 262,-453 144,-453"/>
<text text-anchor="start" x="147" y="-461.2" font-family="Helvetica,sans-Serif" font-size="11.00">varchar[29]</text>
<polygon fill="none" stroke="black" points="10,-431 10,-453 144,-453 144,-431 10,-431"/>
<text text-anchor="start" x="30" y="-439.2" font-family="Helvetica,sans-Serif" font-size="11.00">engtype_4</text>
<polygon fill="none" stroke="black" points="144,-431 144,-453 262,-453 262,-431 144,-431"/>
<text text-anchor="start" x="147" y="-439.2" font-family="Helvetica,sans-Serif" font-size="11.00">varchar[29]</text>
<polygon fill="none" stroke="black" points="10,-409 10,-431 144,-431 144,-409 10,-409"/>
<text text-anchor="start" x="30" y="-417.2" font-family="Helvetica,sans-Serif" font-size="11.00">validfr_4</text>
<polygon fill="none" stroke="black" points="144,-409 144,-431 262,-431 262,-409 144,-409"/>
<text text-anchor="start" x="147" y="-417.2" font-family="Helvetica,sans-Serif" font-size="11.00">varchar[10]</text>
<polygon fill="none" stroke="black" points="10,-387 10,-409 144,-409 144,-387 10,-387"/>
<text text-anchor="start" x="30" y="-395.2" font-family="Helvetica,sans-Serif" font-size="11.00">gid_5</text>
<polygon fill="none" stroke="black" points="144,-387 144,-409 262,-409 262,-387 144,-387"/>
<text text-anchor="start" x="147" y="-395.2" font-family="Helvetica,sans-Serif" font-size="11.00">varchar[19]</text>
<polygon fill="none" stroke="black" points="10,-365 10,-387 144,-387 144,-365 10,-365"/>
<text text-anchor="start" x="30" y="-373.2" font-family="Helvetica,sans-Serif" font-size="11.00">name_5</text>
<polygon fill="none" stroke="black" points="144,-365 144,-387 262,-387 262,-365 144,-365"/>
<text text-anchor="start" x="147" y="-373.2" font-family="Helvetica,sans-Serif" font-size="11.00">varchar[34]</text>
<polygon fill="none" stroke="black" points="10,-343 10,-365 144,-365 144,-343 10,-343"/>
<text text-anchor="start" x="30" y="-351.2" font-family="Helvetica,sans-Serif" font-size="11.00">cc_5</text>
<polygon fill="none" stroke="black" points="144,-343 144,-365 262,-365 262,-343 144,-343"/>
<text text-anchor="start" x="147" y="-351.2" font-family="Helvetica,sans-Serif" font-size="11.00">varchar[10]</text>
<polygon fill="none" stroke="black" points="10,-321 10,-343 144,-343 144,-321 10,-321"/>
<text text-anchor="start" x="30" y="-329.2" font-family="Helvetica,sans-Serif" font-size="11.00">type_5</text>
<polygon fill="none" stroke="black" points="144,-321 144,-343 262,-343 262,-321 144,-321"/>
<text text-anchor="start" x="147" y="-329.2" font-family="Helvetica,sans-Serif" font-size="11.00">varchar[22]</text>
<polygon fill="none" stroke="black" points="10,-299 10,-321 144,-321 144,-299 10,-299"/>
<text text-anchor="start" x="30" y="-307.2" font-family="Helvetica,sans-Serif" font-size="11.00">engtype_5</text>
<polygon fill="none" stroke="black" points="144,-299 144,-321 262,-321 262,-299 144,-299"/>
<text text-anchor="start" x="147" y="-307.2" font-family="Helvetica,sans-Serif" font-size="11.00">varchar[10]</text>
<polygon fill="none" stroke="black" points="10,-277 10,-299 144,-299 144,-277 10,-277"/>
<text text-anchor="start" x="30" y="-285.2" font-family="Helvetica,sans-Serif" font-size="11.00">governedby</text>
<polygon fill="none" stroke="black" points="144,-277 144,-299 262,-299 262,-277 144,-277"/>
<text text-anchor="start" x="147" y="-285.2" font-family="Helvetica,sans-Serif" font-size="11.00">varchar[17]</text>
<polygon fill="none" stroke="black" points="10,-255 10,-277 144,-277 144,-255 10,-255"/>
<text text-anchor="start" x="30" y="-263.2" font-family="Helvetica,sans-Serif" font-size="11.00">sovereign</text>
<polygon fill="none" stroke="black" points="144,-255 144,-277 262,-277 262,-255 144,-255"/>
<text text-anchor="start" x="147" y="-263.2" font-family="Helvetica,sans-Serif" font-size="11.00">varchar[32]</text>
<polygon fill="none" stroke="black" points="10,-233 10,-255 144,-255 144,-233 10,-233"/>
<text text-anchor="start" x="30" y="-241.2" font-family="Helvetica,sans-Serif" font-size="11.00">disputedby</text>
<polygon fill="none" stroke="black" points="144,-233 144,-255 262,-255 262,-233 144,-233"/>
<text text-anchor="start" x="147" y="-241.2" font-family="Helvetica,sans-Serif" font-size="11.00">varchar[32]</text>
<polygon fill="none" stroke="black" points="10,-211 10,-233 144,-233 144,-211 10,-211"/>
<text text-anchor="start" x="30" y="-219.2" font-family="Helvetica,sans-Serif" font-size="11.00">region</text>
<polygon fill="none" stroke="black" points="144,-211 144,-233 262,-233 262,-211 144,-211"/>
<text text-anchor="start" x="147" y="-219.2" font-family="Helvetica,sans-Serif" font-size="11.00">varchar[32]</text>
<polygon fill="none" stroke="black" points="10,-189 10,-211 144,-211 144,-189 10,-189"/>
<text text-anchor="start" x="30" y="-197.2" font-family="Helvetica,sans-Serif" font-size="11.00">varregion</text>
<polygon fill="none" stroke="black" points="144,-189 144,-211 262,-211 262,-189 144,-189"/>
<text text-anchor="start" x="147" y="-197.2" font-family="Helvetica,sans-Serif" font-size="11.00">varchar[48]</text>
<polygon fill="none" stroke="black" points="10,-167 10,-189 144,-189 144,-167 10,-167"/>
<text text-anchor="start" x="30" y="-175.2" font-family="Helvetica,sans-Serif" font-size="11.00">country</text>
<polygon fill="none" stroke="black" points="144,-167 144,-189 262,-189 262,-167 144,-167"/>
<text text-anchor="start" x="147" y="-175.2" font-family="Helvetica,sans-Serif" font-size="11.00">varchar[32]</text>
<polygon fill="none" stroke="black" points="10,-145 10,-167 144,-167 144,-145 10,-145"/>
<text text-anchor="start" x="30" y="-153.2" font-family="Helvetica,sans-Serif" font-size="11.00">continent</text>
<polygon fill="none" stroke="black" points="144,-145 144,-167 262,-167 262,-145 144,-145"/>
<text text-anchor="start" x="147" y="-153.2" font-family="Helvetica,sans-Serif" font-size="11.00">varchar[13]</text>
<polygon fill="none" stroke="black" points="10,-123 10,-145 144,-145 144,-123 10,-123"/>
<text text-anchor="start" x="30" y="-131.2" font-family="Helvetica,sans-Serif" font-size="11.00">subcont</text>
<polygon fill="none" stroke="black" points="144,-123 144,-145 262,-145 262,-123 144,-123"/>
<text text-anchor="start" x="147" y="-131.2" font-family="Helvetica,sans-Serif" font-size="11.00">varchar[10]</text>
<polygon fill="none" stroke="black" points="10,-101 10,-123 144,-123 144,-101 10,-101"/>
<text text-anchor="start" x="30" y="-109.2" font-family="Helvetica,sans-Serif" font-size="11.00">compoundname</text>
<polygon fill="none" stroke="black" points="144,-101 144,-123 262,-123 262,-101 144,-101"/>
<text text-anchor="start" x="147" y="-109.2" font-family="Helvetica,sans-Serif" font-size="11.00">text[2147483647]</text>
<polygon fill="none" stroke="black" points="10,-79 10,-101 144,-101 144,-79 10,-79"/>
<text text-anchor="start" x="30" y="-87.2" font-family="Helvetica,sans-Serif" font-size="11.00">ts_compoundname</text>
<polygon fill="none" stroke="black" points="144,-79 144,-101 262,-101 262,-79 144,-79"/>
<text text-anchor="start" x="147" y="-87.2" font-family="Helvetica,sans-Serif" font-size="11.00">tsvector[2147483647]</text>
<polygon fill="#ffffff" stroke="transparent" points="10,-57 10,-79 144,-79 144,-57 10,-57"/>
<polygon fill="none" stroke="black" points="10,-57 10,-79 144,-79 144,-57 10,-57"/>
<text text-anchor="start" x="30" y="-65.2" font-family="Helvetica,sans-Serif" font-size="11.00">geom</text>
<polygon fill="none" stroke="black" points="144,-57 144,-79 262,-79 262,-57 144,-57"/>
<text text-anchor="start" x="147" y="-65.2" font-family="Helvetica,sans-Serif" font-size="11.00">geometry[2147483647]</text>
<polygon fill="#ffffff" stroke="transparent" points="10,-39 10,-57 52,-57 52,-39 10,-39"/>
<polygon fill="none" stroke="black" points="10,-39 10,-57 52,-57 52,-39 10,-39"/>
<text text-anchor="start" x="13" y="-45.2" font-family="Helvetica,sans-Serif" font-size="11.00">&lt; 0</text>
<polygon fill="#ffffff" stroke="transparent" points="52,-39 52,-57 144,-57 144,-39 52,-39"/>
<polygon fill="none" stroke="black" points="52,-39 52,-57 144,-57 144,-39 52,-39"/>
<text text-anchor="start" x="75" y="-45.2" font-family="Helvetica,sans-Serif" font-size="11.00">356,508 rows</text>
<polygon fill="#ffffff" stroke="transparent" points="144,-39 144,-57 262,-57 262,-39 144,-39"/>
<polygon fill="none" stroke="black" points="144,-39 144,-57 262,-57 262,-39 144,-39"/>
<text text-anchor="start" x="243" y="-45.2" font-family="Helvetica,sans-Serif" font-size="11.00">0 &gt;</text>
<polygon fill="none" stroke="black" stroke-width="2" points="9,-38 9,-1312 263,-1312 263,-38 9,-38"/>
</a>
</g>
</g>
</g>
</svg>
