<?xml version="1.0" encoding="UTF-8" standalone="no"?>
<!DOCTYPE svg PUBLIC "-//W3C//DTD SVG 1.1//EN"
 "http://www.w3.org/Graphics/SVG/1.1/DTD/svg11.dtd">
<!-- Generated by graphviz version 2.43.0 (0)
 -->
<!-- Title: oneDegreeRelationshipsDiagram Pages: 1 -->
<svg width="263pt" height="291pt"
 viewBox="0.00 0.00 263.00 291.00" xmlns="http://www.w3.org/2000/svg" xmlns:xlink="http://www.w3.org/1999/xlink">
<g id="graph0" class="graph" transform="scale(1 1) rotate(0) translate(4 287)">
<title>oneDegreeRelationshipsDiagram</title>
<polygon fill="#ffffff" stroke="transparent" points="-4,4 -4,-287 259,-287 259,4 -4,4"/>
<text text-anchor="middle" x="71.5" y="-7.2" font-family="Helvetica,sans-Serif" font-size="11.00">Generated by SchemaSpy</text>
<!-- globalmammals -->
<g id="node1" class="node">
<title>globalmammals</title>
<g id="a_node1"><a xlink:href="../../tables/globalmammals.html" xlink:title="globalmammals" target="_top">
<polygon fill="#ffffff" stroke="transparent" points="8,-37 8,-279 247,-279 247,-37 8,-37"/>
<polygon fill="#f5f5f5" stroke="transparent" points="10.5,-255 10.5,-277 245.5,-277 245.5,-255 10.5,-255"/>
<polygon fill="none" stroke="black" points="10.5,-255 10.5,-277 245.5,-277 245.5,-255 10.5,-255"/>
<text text-anchor="start" x="15.5" y="-264.2" font-family="Helvetica,sans-Serif" font-weight="bold" font-size="11.00">globalmammals</text>
<text text-anchor="start" x="210.5" y="-263.2" font-family="Helvetica,sans-Serif" font-size="11.00">[table]</text>
<polygon fill="none" stroke="black" points="10.5,-233 10.5,-255 127.5,-255 127.5,-233 10.5,-233"/>
<image xlink:href="../../images/primaryKeys.png" width="11px" height="12px" preserveAspectRatio="xMinYMin meet" x="15.5" y="-250"/>
<text text-anchor="start" x="30.5" y="-241.2" font-family="Helvetica,sans-Serif" font-size="11.00">fid</text>
<polygon fill="none" stroke="black" points="127.5,-233 127.5,-255 245.5,-255 245.5,-233 127.5,-233"/>
<text text-anchor="start" x="130.5" y="-241.2" font-family="Helvetica,sans-Serif" font-size="11.00">serial[10]</text>
<polygon fill="none" stroke="black" points="10.5,-211 10.5,-233 127.5,-233 127.5,-211 10.5,-211"/>
<text text-anchor="start" x="30.5" y="-219.2" font-family="Helvetica,sans-Serif" font-size="11.00">sciname</text>
<polygon fill="none" stroke="black" points="127.5,-211 127.5,-233 245.5,-233 245.5,-211 127.5,-211"/>
<text text-anchor="start" x="130.5" y="-219.2" font-family="Helvetica,sans-Serif" font-size="11.00">varchar[2147483647]</text>
<polygon fill="none" stroke="black" points="10.5,-189 10.5,-211 127.5,-211 127.5,-189 10.5,-189"/>
<text text-anchor="start" x="30.5" y="-197.2" font-family="Helvetica,sans-Serif" font-size="11.00">order</text>
<polygon fill="none" stroke="black" points="127.5,-189 127.5,-211 245.5,-211 245.5,-189 127.5,-189"/>
<text text-anchor="start" x="130.5" y="-197.2" font-family="Helvetica,sans-Serif" font-size="11.00">varchar[2147483647]</text>
<polygon fill="none" stroke="black" points="10.5,-167 10.5,-189 127.5,-189 127.5,-167 10.5,-167"/>
<text text-anchor="start" x="30.5" y="-175.2" font-family="Helvetica,sans-Serif" font-size="11.00">family</text>
<polygon fill="none" stroke="black" points="127.5,-167 127.5,-189 245.5,-189 245.5,-167 127.5,-167"/>
<text text-anchor="start" x="130.5" y="-175.2" font-family="Helvetica,sans-Serif" font-size="11.00">varchar[2147483647]</text>
<polygon fill="none" stroke="black" points="10.5,-145 10.5,-167 127.5,-167 127.5,-145 10.5,-145"/>
<text text-anchor="start" x="30.5" y="-153.2" font-family="Helvetica,sans-Serif" font-size="11.00">author</text>
<polygon fill="none" stroke="black" points="127.5,-145 127.5,-167 245.5,-167 245.5,-145 127.5,-145"/>
<text text-anchor="start" x="130.5" y="-153.2" font-family="Helvetica,sans-Serif" font-size="11.00">varchar[2147483647]</text>
<polygon fill="none" stroke="black" points="10.5,-123 10.5,-145 127.5,-145 127.5,-123 10.5,-123"/>
<text text-anchor="start" x="30.5" y="-131.2" font-family="Helvetica,sans-Serif" font-size="11.00">year</text>
<polygon fill="none" stroke="black" points="127.5,-123 127.5,-145 245.5,-145 245.5,-123 127.5,-123"/>
<text text-anchor="start" x="130.5" y="-131.2" font-family="Helvetica,sans-Serif" font-size="11.00">float8[17,17]</text>
<polygon fill="none" stroke="black" points="10.5,-101 10.5,-123 127.5,-123 127.5,-101 10.5,-101"/>
<text text-anchor="start" x="30.5" y="-109.2" font-family="Helvetica,sans-Serif" font-size="11.00">citation</text>
<polygon fill="none" stroke="black" points="127.5,-101 127.5,-123 245.5,-123 245.5,-101 127.5,-101"/>
<text text-anchor="start" x="130.5" y="-109.2" font-family="Helvetica,sans-Serif" font-size="11.00">varchar[2147483647]</text>
<polygon fill="none" stroke="black" points="10.5,-79 10.5,-101 127.5,-101 127.5,-79 10.5,-79"/>
<text text-anchor="start" x="30.5" y="-87.2" font-family="Helvetica,sans-Serif" font-size="11.00">rec_source</text>
<polygon fill="none" stroke="black" points="127.5,-79 127.5,-101 245.5,-101 245.5,-79 127.5,-79"/>
<text text-anchor="start" x="130.5" y="-87.2" font-family="Helvetica,sans-Serif" font-size="11.00">varchar[2147483647]</text>
<polygon fill="#ffffff" stroke="transparent" points="10.5,-57 10.5,-79 127.5,-79 127.5,-57 10.5,-57"/>
<polygon fill="none" stroke="black" points="10.5,-57 10.5,-79 127.5,-79 127.5,-57 10.5,-57"/>
<text text-anchor="start" x="30.5" y="-65.2" font-family="Helvetica,sans-Serif" font-size="11.00">geom</text>
<polygon fill="none" stroke="black" points="127.5,-57 127.5,-79 245.5,-79 245.5,-57 127.5,-57"/>
<text text-anchor="start" x="130.5" y="-65.2" font-family="Helvetica,sans-Serif" font-size="11.00">geometry[2147483647]</text>
<polygon fill="#ffffff" stroke="transparent" points="10.5,-39 10.5,-57 49.5,-57 49.5,-39 10.5,-39"/>
<polygon fill="none" stroke="black" points="10.5,-39 10.5,-57 49.5,-57 49.5,-39 10.5,-39"/>
<text text-anchor="start" x="13.5" y="-45.2" font-family="Helvetica,sans-Serif" font-size="11.00">&lt; 0</text>
<polygon fill="#ffffff" stroke="transparent" points="49.5,-39 49.5,-57 127.5,-57 127.5,-39 49.5,-39"/>
<polygon fill="none" stroke="black" points="49.5,-39 49.5,-57 127.5,-57 127.5,-39 49.5,-39"/>
<text text-anchor="start" x="70.5" y="-45.2" font-family="Helvetica,sans-Serif" font-size="11.00">6,022 rows</text>
<polygon fill="#ffffff" stroke="transparent" points="127.5,-39 127.5,-57 245.5,-57 245.5,-39 127.5,-39"/>
<polygon fill="none" stroke="black" points="127.5,-39 127.5,-57 245.5,-57 245.5,-39 127.5,-39"/>
<text text-anchor="start" x="226.5" y="-45.2" font-family="Helvetica,sans-Serif" font-size="11.00">0 &gt;</text>
<polygon fill="none" stroke="black" stroke-width="2" points="9,-38 9,-278 246,-278 246,-38 9,-38"/>
</a>
</g>
</g>
</g>
</svg>
