<?xml version="1.0" encoding="UTF-8" standalone="no"?>
<!DOCTYPE svg PUBLIC "-//W3C//DTD SVG 1.1//EN"
 "http://www.w3.org/Graphics/SVG/1.1/DTD/svg11.dtd">
<!-- Generated by graphviz version 2.43.0 (0)
 -->
<!-- Title: oneDegreeRelationshipsDiagramImplied Pages: 1 -->
<svg width="341pt" height="175pt"
 viewBox="0.00 0.00 341.00 175.00" xmlns="http://www.w3.org/2000/svg" xmlns:xlink="http://www.w3.org/1999/xlink">
<g id="graph0" class="graph" transform="scale(1 1) rotate(0) translate(4 171)">
<title>oneDegreeRelationshipsDiagramImplied</title>
<polygon fill="#ffffff" stroke="transparent" points="-4,4 -4,-171 337,-171 337,4 -4,4"/>
<text text-anchor="middle" x="71.5" y="-7.2" font-family="Helvetica,sans-Serif" font-size="11.00">Generated by SchemaSpy</text>
<!-- sitegadm -->
<g id="node1" class="node">
<title>sitegadm</title>
<g id="a_node1"><a xlink:href="../../tables/sitegadm.html" xlink:title="sitegadm" target="_top">
<polygon fill="#ffffff" stroke="transparent" points="191,-75 191,-163 325,-163 325,-75 191,-75"/>
<polygon fill="#f5f5f5" stroke="transparent" points="193,-139 193,-161 323,-161 323,-139 193,-139"/>
<polygon fill="none" stroke="black" points="193,-139 193,-161 323,-161 323,-139 193,-139"/>
<text text-anchor="start" x="198" y="-148.2" font-family="Helvetica,sans-Serif" font-weight="bold" font-size="11.00">sitegadm</text>
<text text-anchor="start" x="288" y="-147.2" font-family="Helvetica,sans-Serif" font-size="11.00">[table]</text>
<polygon fill="none" stroke="black" points="193,-117 193,-139 281,-139 281,-117 193,-117"/>
<text text-anchor="start" x="219" y="-125.2" font-family="Helvetica,sans-Serif" font-size="11.00">siteid</text>
<polygon fill="none" stroke="black" points="281,-117 281,-139 323,-139 323,-117 281,-117"/>
<text text-anchor="start" x="284" y="-125.2" font-family="Helvetica,sans-Serif" font-size="11.00">int4[10]</text>
<polygon fill="none" stroke="black" points="193,-95 193,-117 281,-117 281,-95 193,-95"/>
<image xlink:href="../../images/foreignKeys.png" width="11px" height="12px" preserveAspectRatio="xMinYMin meet" x="198" y="-112"/>
<text text-anchor="start" x="219" y="-103.2" font-family="Helvetica,sans-Serif" font-size="11.00">fid</text>
<polygon fill="none" stroke="black" points="281,-95 281,-117 323,-117 323,-95 281,-95"/>
<text text-anchor="start" x="284" y="-103.2" font-family="Helvetica,sans-Serif" font-size="11.00">int4[10]</text>
<polygon fill="#ffffff" stroke="transparent" points="193,-77 193,-95 215,-95 215,-77 193,-77"/>
<polygon fill="none" stroke="black" points="193,-77 193,-95 215,-95 215,-77 193,-77"/>
<text text-anchor="start" x="196" y="-83.2" font-family="Helvetica,sans-Serif" font-size="11.00">&lt; 1</text>
<polygon fill="#ffffff" stroke="transparent" points="215,-77 215,-95 281,-95 281,-77 215,-77"/>
<polygon fill="none" stroke="black" points="215,-77 215,-95 281,-95 281,-77 215,-77"/>
<text text-anchor="start" x="218" y="-83.2" font-family="Helvetica,sans-Serif" font-size="11.00">19,878 rows</text>
<polygon fill="#ffffff" stroke="transparent" points="281,-77 281,-95 323,-95 323,-77 281,-77"/>
<polygon fill="none" stroke="black" points="281,-77 281,-95 323,-95 323,-77 281,-77"/>
<text text-anchor="start" x="304" y="-83.2" font-family="Helvetica,sans-Serif" font-size="11.00">0 &gt;</text>
<polygon fill="none" stroke="black" stroke-width="2" points="192,-76 192,-162 324,-162 324,-76 192,-76"/>
</a>
</g>
</g>
<!-- gadm_410 -->
<g id="node2" class="node">
<title>gadm_410</title>
<g id="a_node2"><a xlink:href="../../tables/gadm_410.html" xlink:title="gadm_410" target="_top">
<polygon fill="#ffffff" stroke="transparent" points="8,-37 8,-139 142,-139 142,-37 8,-37"/>
<polygon fill="#f5f5f5" stroke="transparent" points="8,-117 8,-139 142,-139 142,-117 8,-117"/>
<polygon fill="none" stroke="black" points="8,-117 8,-139 142,-139 142,-117 8,-117"/>
<text text-anchor="start" x="13" y="-126.2" font-family="Helvetica,sans-Serif" font-weight="bold" font-size="11.00">gadm_410</text>
<text text-anchor="start" x="107" y="-125.2" font-family="Helvetica,sans-Serif" font-size="11.00">[table]</text>
<polygon fill="none" stroke="black" points="8,-95 8,-117 142,-117 142,-95 8,-95"/>
<image xlink:href="../../images/primaryKeys.png" width="11px" height="12px" preserveAspectRatio="xMinYMin meet" x="13" y="-112"/>
<text text-anchor="start" x="28" y="-103.2" font-family="Helvetica,sans-Serif" font-size="11.00">fid</text>
<polygon fill="#ffffff" stroke="transparent" points="8,-73 8,-95 142,-95 142,-73 8,-73"/>
<polygon fill="none" stroke="black" points="8,-73 8,-95 142,-95 142,-73 8,-73"/>
<text text-anchor="start" x="28" y="-81.2" font-family="Helvetica,sans-Serif" font-size="11.00">geom</text>
<polygon fill="none" stroke="black" points="8,-55 8,-73 142,-73 142,-55 8,-55"/>
<text text-anchor="start" x="11" y="-61.2" font-family="Helvetica,sans-Serif" font-size="11.00">...</text>
<polygon fill="#ffffff" stroke="transparent" points="8,-37 8,-55 34,-55 34,-37 8,-37"/>
<polygon fill="none" stroke="black" points="8,-37 8,-55 34,-55 34,-37 8,-37"/>
<text text-anchor="start" x="11" y="-43.2" font-family="Helvetica,sans-Serif" font-size="11.00"> &#160;</text>
<polygon fill="#ffffff" stroke="transparent" points="34,-37 34,-55 113,-55 113,-37 34,-37"/>
<polygon fill="none" stroke="black" points="34,-37 34,-55 113,-55 113,-37 34,-37"/>
<text text-anchor="start" x="44" y="-43.2" font-family="Helvetica,sans-Serif" font-size="11.00">356,508 rows</text>
<polygon fill="#ffffff" stroke="transparent" points="113,-37 113,-55 142,-55 142,-37 113,-37"/>
<polygon fill="none" stroke="black" points="113,-37 113,-55 142,-55 142,-37 113,-37"/>
<text text-anchor="start" x="123" y="-43.2" font-family="Helvetica,sans-Serif" font-size="11.00">1 &gt;</text>
</a>
</g>
</g>
<!-- sitegadm&#45;&gt;gadm_410 -->
<g id="edge1" class="edge">
<title>sitegadm:w&#45;&gt;gadm_410:e</title>
<path fill="none" stroke="black" stroke-dasharray="5,2" d="M177.49,-106C166.18,-106 158.99,-106 143,-106"/>
<polygon fill="black" stroke="black" points="184,-106 192,-109.6 188,-106 192,-106 192,-106 192,-106 188,-106 192,-102.4 184,-106 184,-106"/>
<ellipse fill="none" stroke="black" cx="180.8" cy="-106" rx="3.2" ry="3.2"/>
</g>
</g>
</svg>
