<?xml version="1.0" encoding="UTF-8" standalone="no"?>
<!DOCTYPE svg PUBLIC "-//W3C//DTD SVG 1.1//EN"
 "http://www.w3.org/Graphics/SVG/1.1/DTD/svg11.dtd">
<!-- Generated by graphviz version 2.43.0 (0)
 -->
<!-- Title: oneDegreeRelationshipsDiagramImplied Pages: 1 -->
<svg width="334pt" height="175pt"
 viewBox="0.00 0.00 334.00 175.00" xmlns="http://www.w3.org/2000/svg" xmlns:xlink="http://www.w3.org/1999/xlink">
<g id="graph0" class="graph" transform="scale(1 1) rotate(0) translate(4 171)">
<title>oneDegreeRelationshipsDiagramImplied</title>
<polygon fill="#ffffff" stroke="transparent" points="-4,4 -4,-171 330,-171 330,4 -4,4"/>
<text text-anchor="middle" x="71.5" y="-7.2" font-family="Helvetica,sans-Serif" font-size="11.00">Generated by SchemaSpy</text>
<!-- sitegadm -->
<g id="node1" class="node">
<title>sitegadm</title>
<g id="a_node1"><a xlink:href="../../tables/sitegadm.html" xlink:title="sitegadm" target="_top">
<polygon fill="#ffffff" stroke="transparent" points="184,-75 184,-163 318,-163 318,-75 184,-75"/>
<polygon fill="#f5f5f5" stroke="transparent" points="186,-139 186,-161 316,-161 316,-139 186,-139"/>
<polygon fill="none" stroke="black" points="186,-139 186,-161 316,-161 316,-139 186,-139"/>
<text text-anchor="start" x="191" y="-148.2" font-family="Helvetica,sans-Serif" font-weight="bold" font-size="11.00">sitegadm</text>
<text text-anchor="start" x="281" y="-147.2" font-family="Helvetica,sans-Serif" font-size="11.00">[table]</text>
<polygon fill="none" stroke="black" points="186,-117 186,-139 274,-139 274,-117 186,-117"/>
<text text-anchor="start" x="212" y="-125.2" font-family="Helvetica,sans-Serif" font-size="11.00">siteid</text>
<polygon fill="none" stroke="black" points="274,-117 274,-139 316,-139 316,-117 274,-117"/>
<text text-anchor="start" x="277" y="-125.2" font-family="Helvetica,sans-Serif" font-size="11.00">int4[10]</text>
<polygon fill="none" stroke="black" points="186,-95 186,-117 274,-117 274,-95 186,-95"/>
<image xlink:href="../../images/foreignKeys.png" width="11px" height="12px" preserveAspectRatio="xMinYMin meet" x="191" y="-112"/>
<text text-anchor="start" x="212" y="-103.2" font-family="Helvetica,sans-Serif" font-size="11.00">fid</text>
<polygon fill="none" stroke="black" points="274,-95 274,-117 316,-117 316,-95 274,-95"/>
<text text-anchor="start" x="277" y="-103.2" font-family="Helvetica,sans-Serif" font-size="11.00">int4[10]</text>
<polygon fill="#ffffff" stroke="transparent" points="186,-77 186,-95 208,-95 208,-77 186,-77"/>
<polygon fill="none" stroke="black" points="186,-77 186,-95 208,-95 208,-77 186,-77"/>
<text text-anchor="start" x="189" y="-83.2" font-family="Helvetica,sans-Serif" font-size="11.00">&lt; 1</text>
<polygon fill="#ffffff" stroke="transparent" points="208,-77 208,-95 274,-95 274,-77 208,-77"/>
<polygon fill="none" stroke="black" points="208,-77 208,-95 274,-95 274,-77 208,-77"/>
<text text-anchor="start" x="211" y="-83.2" font-family="Helvetica,sans-Serif" font-size="11.00">19,878 rows</text>
<polygon fill="#ffffff" stroke="transparent" points="274,-77 274,-95 316,-95 316,-77 274,-77"/>
<polygon fill="none" stroke="black" points="274,-77 274,-95 316,-95 316,-77 274,-77"/>
<text text-anchor="start" x="297" y="-83.2" font-family="Helvetica,sans-Serif" font-size="11.00">0 &gt;</text>
<polygon fill="none" stroke="black" stroke-width="2" points="185,-76 185,-162 317,-162 317,-76 185,-76"/>
</a>
</g>
</g>
<!-- globalmammals -->
<g id="node2" class="node">
<title>globalmammals</title>
<g id="a_node2"><a xlink:href="../../tables/globalmammals.html" xlink:title="globalmammals" target="_top">
<polygon fill="#ffffff" stroke="transparent" points="8,-37 8,-139 135,-139 135,-37 8,-37"/>
<polygon fill="#f5f5f5" stroke="transparent" points="8.5,-117 8.5,-139 135.5,-139 135.5,-117 8.5,-117"/>
<polygon fill="none" stroke="black" points="8.5,-117 8.5,-139 135.5,-139 135.5,-117 8.5,-117"/>
<text text-anchor="start" x="13.5" y="-126.2" font-family="Helvetica,sans-Serif" font-weight="bold" font-size="11.00">globalmammals</text>
<text text-anchor="start" x="100.5" y="-125.2" font-family="Helvetica,sans-Serif" font-size="11.00">[table]</text>
<polygon fill="none" stroke="black" points="8.5,-95 8.5,-117 135.5,-117 135.5,-95 8.5,-95"/>
<image xlink:href="../../images/primaryKeys.png" width="11px" height="12px" preserveAspectRatio="xMinYMin meet" x="13.5" y="-112"/>
<text text-anchor="start" x="33.5" y="-103.2" font-family="Helvetica,sans-Serif" font-size="11.00">fid</text>
<polygon fill="#ffffff" stroke="transparent" points="8.5,-73 8.5,-95 135.5,-95 135.5,-73 8.5,-73"/>
<polygon fill="none" stroke="black" points="8.5,-73 8.5,-95 135.5,-95 135.5,-73 8.5,-73"/>
<text text-anchor="start" x="33.5" y="-81.2" font-family="Helvetica,sans-Serif" font-size="11.00">geom</text>
<polygon fill="none" stroke="black" points="8.5,-55 8.5,-73 135.5,-73 135.5,-55 8.5,-55"/>
<text text-anchor="start" x="11.5" y="-61.2" font-family="Helvetica,sans-Serif" font-size="11.00">...</text>
<polygon fill="#ffffff" stroke="transparent" points="8.5,-37 8.5,-55 37.5,-55 37.5,-37 8.5,-37"/>
<polygon fill="none" stroke="black" points="8.5,-37 8.5,-55 37.5,-55 37.5,-37 8.5,-37"/>
<text text-anchor="start" x="11.5" y="-43.2" font-family="Helvetica,sans-Serif" font-size="11.00"> &#160;</text>
<polygon fill="#ffffff" stroke="transparent" points="37.5,-37 37.5,-55 105.5,-55 105.5,-37 37.5,-37"/>
<polygon fill="none" stroke="black" points="37.5,-37 37.5,-55 105.5,-55 105.5,-37 37.5,-37"/>
<text text-anchor="start" x="48.5" y="-43.2" font-family="Helvetica,sans-Serif" font-size="11.00">6,022 rows</text>
<polygon fill="#ffffff" stroke="transparent" points="105.5,-37 105.5,-55 135.5,-55 135.5,-37 105.5,-37"/>
<polygon fill="none" stroke="black" points="105.5,-37 105.5,-55 135.5,-55 135.5,-37 105.5,-37"/>
<text text-anchor="start" x="116.5" y="-43.2" font-family="Helvetica,sans-Serif" font-size="11.00">1 &gt;</text>
</a>
</g>
</g>
<!-- sitegadm&#45;&gt;globalmammals -->
<g id="edge1" class="edge">
<title>sitegadm:w&#45;&gt;globalmammals:e</title>
<path fill="none" stroke="black" stroke-dasharray="5,2" d="M170.28,-106C159.29,-106 152.16,-106 136.5,-106"/>
<polygon fill="black" stroke="black" points="177,-106 185,-109.6 181,-106 185,-106 185,-106 185,-106 181,-106 185,-102.4 177,-106 177,-106"/>
<ellipse fill="none" stroke="black" cx="173.8" cy="-106" rx="3.2" ry="3.2"/>
</g>
</g>
</svg>
