<?xml version="1.0" encoding="UTF-8" standalone="no"?>
<!DOCTYPE svg PUBLIC "-//W3C//DTD SVG 1.1//EN"
 "http://www.w3.org/Graphics/SVG/1.1/DTD/svg11.dtd">
<!-- Generated by graphviz version 2.43.0 (0)
 -->
<!-- Title: datasetdoi Pages: 1 -->
<svg width="222pt" height="148pt"
 viewBox="0.00 0.00 222.00 148.00" xmlns="http://www.w3.org/2000/svg" xmlns:xlink="http://www.w3.org/1999/xlink">
<g id="graph0" class="graph" transform="scale(1 1) rotate(0) translate(4 144)">
<title>datasetdoi</title>
<polygon fill="#ffffff" stroke="transparent" points="-4,4 -4,-144 218,-144 218,4 -4,4"/>
<!-- datasetdoi -->
<g id="node1" class="node">
<title>datasetdoi</title>
<g id="a_node1"><a xlink:href="../../tables/datasetdoi.html" xlink:title="datasetdoi" target="_top">
<polygon fill="#ffffff" stroke="transparent" points="8,-4 8,-136 206,-136 206,-4 8,-4"/>
<polygon fill="#f5f5f5" stroke="transparent" points="10,-112 10,-134 204,-134 204,-112 10,-112"/>
<polygon fill="none" stroke="black" points="10,-112 10,-134 204,-134 204,-112 10,-112"/>
<text text-anchor="start" x="15" y="-121.2" font-family="Helvetica,sans-Serif" font-weight="bold" font-size="11.00">datasetdoi</text>
<text text-anchor="start" x="169" y="-120.2" font-family="Helvetica,sans-Serif" font-size="11.00">[table]</text>
<polygon fill="none" stroke="black" points="10,-90 10,-112 130,-112 130,-90 10,-90"/>
<image xlink:href="../../images/primaryKeys.png" width="11px" height="12px" preserveAspectRatio="xMinYMin meet" x="15" y="-107"/>
<text text-anchor="start" x="30" y="-98.2" font-family="Helvetica,sans-Serif" font-size="11.00">datasetid</text>
<polygon fill="none" stroke="black" points="130,-90 130,-112 204,-112 204,-90 130,-90"/>
<text text-anchor="start" x="133" y="-98.2" font-family="Helvetica,sans-Serif" font-size="11.00">int4[10]</text>
<polygon fill="none" stroke="black" points="10,-68 10,-90 130,-90 130,-68 10,-68"/>
<image xlink:href="../../images/primaryKeys.png" width="11px" height="12px" preserveAspectRatio="xMinYMin meet" x="15" y="-85"/>
<text text-anchor="start" x="30" y="-76.2" font-family="Helvetica,sans-Serif" font-size="11.00">doi</text>
<polygon fill="none" stroke="black" points="130,-68 130,-90 204,-90 204,-68 130,-68"/>
<text text-anchor="start" x="133" y="-76.2" font-family="Helvetica,sans-Serif" font-size="11.00">varchar[50]</text>
<polygon fill="none" stroke="black" points="10,-46 10,-68 130,-68 130,-46 10,-46"/>
<text text-anchor="start" x="30" y="-54.2" font-family="Helvetica,sans-Serif" font-size="11.00">recdatecreated</text>
<polygon fill="none" stroke="black" points="130,-46 130,-68 204,-68 204,-46 130,-46"/>
<text text-anchor="start" x="133" y="-54.2" font-family="Helvetica,sans-Serif" font-size="11.00">timestamp[22]</text>
<polygon fill="none" stroke="black" points="10,-24 10,-46 130,-46 130,-24 10,-24"/>
<text text-anchor="start" x="30" y="-32.2" font-family="Helvetica,sans-Serif" font-size="11.00">recdatemodified</text>
<polygon fill="none" stroke="black" points="130,-24 130,-46 204,-46 204,-24 130,-24"/>
<text text-anchor="start" x="133" y="-32.2" font-family="Helvetica,sans-Serif" font-size="11.00">timestamp[22]</text>
<polygon fill="#ffffff" stroke="transparent" points="10,-6 10,-24 48,-24 48,-6 10,-6"/>
<polygon fill="none" stroke="black" points="10,-6 10,-24 48,-24 48,-6 10,-6"/>
<text text-anchor="start" x="13" y="-12.2" font-family="Helvetica,sans-Serif" font-size="11.00">&lt; 0</text>
<polygon fill="#ffffff" stroke="transparent" points="48,-6 48,-24 130,-24 130,-6 48,-6"/>
<polygon fill="none" stroke="black" points="48,-6 48,-24 130,-24 130,-6 48,-6"/>
<text text-anchor="start" x="67" y="-12.2" font-family="Helvetica,sans-Serif" font-size="11.00">44,674 rows</text>
<polygon fill="#ffffff" stroke="transparent" points="130,-6 130,-24 204,-24 204,-6 130,-6"/>
<polygon fill="none" stroke="black" points="130,-6 130,-24 204,-24 204,-6 130,-6"/>
<text text-anchor="start" x="185" y="-12.2" font-family="Helvetica,sans-Serif" font-size="11.00">0 &gt;</text>
<polygon fill="none" stroke="black" stroke-width="2" points="9,-5 9,-135 205,-135 205,-5 9,-5"/>
</a>
</g>
</g>
</g>
</svg>
