<?xml version="1.0" encoding="UTF-8" standalone="no"?>
<!DOCTYPE svg PUBLIC "-//W3C//DTD SVG 1.1//EN"
 "http://www.w3.org/Graphics/SVG/1.1/DTD/svg11.dtd">
<!-- Generated by graphviz version 2.43.0 (0)
 -->
<!-- Title: leadmodelbasis Pages: 1 -->
<svg width="232pt" height="104pt"
 viewBox="0.00 0.00 232.00 104.00" xmlns="http://www.w3.org/2000/svg" xmlns:xlink="http://www.w3.org/1999/xlink">
<g id="graph0" class="graph" transform="scale(1 1) rotate(0) translate(4 100)">
<title>leadmodelbasis</title>
<polygon fill="#ffffff" stroke="transparent" points="-4,4 -4,-100 228,-100 228,4 -4,4"/>
<!-- leadmodelbasis -->
<g id="node1" class="node">
<title>leadmodelbasis</title>
<g id="a_node1"><a xlink:href="../../tables/leadmodelbasis.html" xlink:title="leadmodelbasis" target="_top">
<polygon fill="#ffffff" stroke="transparent" points="8,-4 8,-92 216,-92 216,-4 8,-4"/>
<polygon fill="#f5f5f5" stroke="transparent" points="10,-68 10,-90 214,-90 214,-68 10,-68"/>
<polygon fill="none" stroke="black" points="10,-68 10,-90 214,-90 214,-68 10,-68"/>
<text text-anchor="start" x="15" y="-77.2" font-family="Helvetica,sans-Serif" font-weight="bold" font-size="11.00">leadmodelbasis</text>
<text text-anchor="start" x="179" y="-76.2" font-family="Helvetica,sans-Serif" font-size="11.00">[table]</text>
<polygon fill="none" stroke="black" points="10,-46 10,-68 124,-68 124,-46 10,-46"/>
<image xlink:href="../../images/primaryKeys.png" width="11px" height="12px" preserveAspectRatio="xMinYMin meet" x="15" y="-63"/>
<text text-anchor="start" x="30" y="-54.2" font-family="Helvetica,sans-Serif" font-size="11.00">pbbasisid</text>
<polygon fill="none" stroke="black" points="124,-46 124,-68 214,-68 214,-46 124,-46"/>
<text text-anchor="start" x="127" y="-54.2" font-family="Helvetica,sans-Serif" font-size="11.00">serial[10]</text>
<polygon fill="none" stroke="black" points="10,-24 10,-46 124,-46 124,-24 10,-24"/>
<text text-anchor="start" x="30" y="-32.2" font-family="Helvetica,sans-Serif" font-size="11.00">pbbasis</text>
<polygon fill="none" stroke="black" points="124,-24 124,-46 214,-46 214,-24 124,-24"/>
<text text-anchor="start" x="127" y="-32.2" font-family="Helvetica,sans-Serif" font-size="11.00">text[2147483647]</text>
<polygon fill="#ffffff" stroke="transparent" points="10,-6 10,-24 58,-24 58,-6 10,-6"/>
<polygon fill="none" stroke="black" points="10,-6 10,-24 58,-24 58,-6 10,-6"/>
<text text-anchor="start" x="13" y="-12.2" font-family="Helvetica,sans-Serif" font-size="11.00">&lt; 0</text>
<polygon fill="#ffffff" stroke="transparent" points="58,-6 58,-24 124,-24 124,-6 58,-6"/>
<polygon fill="none" stroke="black" points="58,-6 58,-24 124,-24 124,-6 58,-6"/>
<text text-anchor="start" x="88" y="-12.2" font-family="Helvetica,sans-Serif" font-size="11.00">3 rows</text>
<polygon fill="#ffffff" stroke="transparent" points="124,-6 124,-24 214,-24 214,-6 124,-6"/>
<polygon fill="none" stroke="black" points="124,-6 124,-24 214,-24 214,-6 124,-6"/>
<text text-anchor="start" x="195" y="-12.2" font-family="Helvetica,sans-Serif" font-size="11.00">0 &gt;</text>
<polygon fill="none" stroke="black" stroke-width="2" points="9,-5 9,-91 215,-91 215,-5 9,-5"/>
</a>
</g>
</g>
</g>
</svg>
