<?xml version="1.0" encoding="UTF-8" standalone="no"?>
<!DOCTYPE svg PUBLIC "-//W3C//DTD SVG 1.1//EN"
 "http://www.w3.org/Graphics/SVG/1.1/DTD/svg11.dtd">
<!-- Generated by graphviz version 2.43.0 (0)
 -->
<!-- Title: radiocarboncalibration Pages: 1 -->
<svg width="229pt" height="104pt"
 viewBox="0.00 0.00 229.00 104.00" xmlns="http://www.w3.org/2000/svg" xmlns:xlink="http://www.w3.org/1999/xlink">
<g id="graph0" class="graph" transform="scale(1 1) rotate(0) translate(4 100)">
<title>radiocarboncalibration</title>
<polygon fill="#ffffff" stroke="transparent" points="-4,4 -4,-100 225,-100 225,4 -4,4"/>
<!-- radiocarboncalibration -->
<g id="node1" class="node">
<title>radiocarboncalibration</title>
<g id="a_node1"><a xlink:href="../../tables/radiocarboncalibration.html" xlink:title="radiocarboncalibration" target="_top">
<polygon fill="#ffffff" stroke="transparent" points="8,-4 8,-92 213,-92 213,-4 8,-4"/>
<polygon fill="#f5f5f5" stroke="transparent" points="10.5,-68 10.5,-90 211.5,-90 211.5,-68 10.5,-68"/>
<polygon fill="none" stroke="black" points="10.5,-68 10.5,-90 211.5,-90 211.5,-68 10.5,-68"/>
<text text-anchor="start" x="15.5" y="-77.2" font-family="Helvetica,sans-Serif" font-weight="bold" font-size="11.00">radiocarboncalibration</text>
<text text-anchor="start" x="176.5" y="-76.2" font-family="Helvetica,sans-Serif" font-size="11.00">[table]</text>
<polygon fill="none" stroke="black" points="10.5,-46 10.5,-68 169.5,-68 169.5,-46 10.5,-46"/>
<image xlink:href="../../images/primaryKeys.png" width="11px" height="12px" preserveAspectRatio="xMinYMin meet" x="15.5" y="-63"/>
<text text-anchor="start" x="30.5" y="-54.2" font-family="Helvetica,sans-Serif" font-size="11.00">c14yrbp</text>
<polygon fill="none" stroke="black" points="169.5,-46 169.5,-68 211.5,-68 211.5,-46 169.5,-46"/>
<text text-anchor="start" x="172.5" y="-54.2" font-family="Helvetica,sans-Serif" font-size="11.00">int4[10]</text>
<polygon fill="none" stroke="black" points="10.5,-24 10.5,-46 169.5,-46 169.5,-24 10.5,-24"/>
<text text-anchor="start" x="30.5" y="-32.2" font-family="Helvetica,sans-Serif" font-size="11.00">calyrbp</text>
<polygon fill="none" stroke="black" points="169.5,-24 169.5,-46 211.5,-46 211.5,-24 169.5,-24"/>
<text text-anchor="start" x="172.5" y="-32.2" font-family="Helvetica,sans-Serif" font-size="11.00">int4[10]</text>
<polygon fill="#ffffff" stroke="transparent" points="10.5,-6 10.5,-24 67.5,-24 67.5,-6 10.5,-6"/>
<polygon fill="none" stroke="black" points="10.5,-6 10.5,-24 67.5,-24 67.5,-6 10.5,-6"/>
<text text-anchor="start" x="13.5" y="-12.2" font-family="Helvetica,sans-Serif" font-size="11.00">&lt; 0</text>
<polygon fill="#ffffff" stroke="transparent" points="67.5,-6 67.5,-24 169.5,-24 169.5,-6 67.5,-6"/>
<polygon fill="none" stroke="black" points="67.5,-6 67.5,-24 169.5,-24 169.5,-6 67.5,-6"/>
<text text-anchor="start" x="106.5" y="-12.2" font-family="Helvetica,sans-Serif" font-size="11.00">45,101 rows</text>
<polygon fill="#ffffff" stroke="transparent" points="169.5,-6 169.5,-24 211.5,-24 211.5,-6 169.5,-6"/>
<polygon fill="none" stroke="black" points="169.5,-6 169.5,-24 211.5,-24 211.5,-6 169.5,-6"/>
<text text-anchor="start" x="192.5" y="-12.2" font-family="Helvetica,sans-Serif" font-size="11.00">0 &gt;</text>
<polygon fill="none" stroke="black" stroke-width="2" points="9,-5 9,-91 212,-91 212,-5 9,-5"/>
</a>
</g>
</g>
</g>
</svg>
