<?xml version="1.0" encoding="UTF-8" standalone="no"?>
<!DOCTYPE svg PUBLIC "-//W3C//DTD SVG 1.1//EN"
 "http://www.w3.org/Graphics/SVG/1.1/DTD/svg11.dtd">
<!-- Generated by graphviz version 2.43.0 (0)
 -->
<!-- Title: sitestemp Pages: 1 -->
<svg width="238pt" height="346pt"
 viewBox="0.00 0.00 238.00 346.00" xmlns="http://www.w3.org/2000/svg" xmlns:xlink="http://www.w3.org/1999/xlink">
<g id="graph0" class="graph" transform="scale(1 1) rotate(0) translate(4 342)">
<title>sitestemp</title>
<polygon fill="#ffffff" stroke="transparent" points="-4,4 -4,-342 234,-342 234,4 -4,4"/>
<!-- sitestemp -->
<g id="node1" class="node">
<title>sitestemp</title>
<g id="a_node1"><a xlink:href="../../tables/sitestemp.html" xlink:title="sitestemp" target="_top">
<polygon fill="#ffffff" stroke="transparent" points="8,-4 8,-334 222,-334 222,-4 8,-4"/>
<polygon fill="#f5f5f5" stroke="transparent" points="10,-310 10,-332 220,-332 220,-310 10,-310"/>
<polygon fill="none" stroke="black" points="10,-310 10,-332 220,-332 220,-310 10,-310"/>
<text text-anchor="start" x="15" y="-319.2" font-family="Helvetica,sans-Serif" font-weight="bold" font-size="11.00">sitestemp</text>
<text text-anchor="start" x="185" y="-318.2" font-family="Helvetica,sans-Serif" font-size="11.00">[table]</text>
<polygon fill="none" stroke="black" points="10,-288 10,-310 130,-310 130,-288 10,-288"/>
<image xlink:href="../../images/primaryKeys.png" width="11px" height="12px" preserveAspectRatio="xMinYMin meet" x="15" y="-305"/>
<text text-anchor="start" x="30" y="-296.2" font-family="Helvetica,sans-Serif" font-size="11.00">siteid</text>
<polygon fill="none" stroke="black" points="130,-288 130,-310 220,-310 220,-288 130,-288"/>
<text text-anchor="start" x="133" y="-296.2" font-family="Helvetica,sans-Serif" font-size="11.00">int4[10]</text>
<polygon fill="none" stroke="black" points="10,-266 10,-288 130,-288 130,-266 10,-266"/>
<text text-anchor="start" x="30" y="-274.2" font-family="Helvetica,sans-Serif" font-size="11.00">sitename</text>
<polygon fill="none" stroke="black" points="130,-266 130,-288 220,-288 220,-266 130,-266"/>
<text text-anchor="start" x="133" y="-274.2" font-family="Helvetica,sans-Serif" font-size="11.00">varchar[128]</text>
<polygon fill="none" stroke="black" points="10,-244 10,-266 130,-266 130,-244 10,-244"/>
<text text-anchor="start" x="30" y="-252.2" font-family="Helvetica,sans-Serif" font-size="11.00">longitudeeast</text>
<polygon fill="none" stroke="black" points="130,-244 130,-266 220,-266 220,-244 130,-244"/>
<text text-anchor="start" x="133" y="-252.2" font-family="Helvetica,sans-Serif" font-size="11.00">float8[17,17]</text>
<polygon fill="none" stroke="black" points="10,-222 10,-244 130,-244 130,-222 10,-222"/>
<text text-anchor="start" x="30" y="-230.2" font-family="Helvetica,sans-Serif" font-size="11.00">latitudenorth</text>
<polygon fill="none" stroke="black" points="130,-222 130,-244 220,-244 220,-222 130,-222"/>
<text text-anchor="start" x="133" y="-230.2" font-family="Helvetica,sans-Serif" font-size="11.00">float8[17,17]</text>
<polygon fill="none" stroke="black" points="10,-200 10,-222 130,-222 130,-200 10,-200"/>
<text text-anchor="start" x="30" y="-208.2" font-family="Helvetica,sans-Serif" font-size="11.00">longitudewest</text>
<polygon fill="none" stroke="black" points="130,-200 130,-222 220,-222 220,-200 130,-200"/>
<text text-anchor="start" x="133" y="-208.2" font-family="Helvetica,sans-Serif" font-size="11.00">float8[17,17]</text>
<polygon fill="none" stroke="black" points="10,-178 10,-200 130,-200 130,-178 10,-178"/>
<text text-anchor="start" x="30" y="-186.2" font-family="Helvetica,sans-Serif" font-size="11.00">latitudesouth</text>
<polygon fill="none" stroke="black" points="130,-178 130,-200 220,-200 220,-178 130,-178"/>
<text text-anchor="start" x="133" y="-186.2" font-family="Helvetica,sans-Serif" font-size="11.00">float8[17,17]</text>
<polygon fill="none" stroke="black" points="10,-156 10,-178 130,-178 130,-156 10,-156"/>
<text text-anchor="start" x="30" y="-164.2" font-family="Helvetica,sans-Serif" font-size="11.00">altitude</text>
<polygon fill="none" stroke="black" points="130,-156 130,-178 220,-178 220,-156 130,-156"/>
<text text-anchor="start" x="133" y="-164.2" font-family="Helvetica,sans-Serif" font-size="11.00">float8[17,17]</text>
<polygon fill="none" stroke="black" points="10,-134 10,-156 130,-156 130,-134 10,-134"/>
<text text-anchor="start" x="30" y="-142.2" font-family="Helvetica,sans-Serif" font-size="11.00">area</text>
<polygon fill="none" stroke="black" points="130,-134 130,-156 220,-156 220,-134 130,-134"/>
<text text-anchor="start" x="133" y="-142.2" font-family="Helvetica,sans-Serif" font-size="11.00">float8[17,17]</text>
<polygon fill="none" stroke="black" points="10,-112 10,-134 130,-134 130,-112 10,-112"/>
<text text-anchor="start" x="30" y="-120.2" font-family="Helvetica,sans-Serif" font-size="11.00">sitedescription</text>
<polygon fill="none" stroke="black" points="130,-112 130,-134 220,-134 220,-112 130,-112"/>
<text text-anchor="start" x="133" y="-120.2" font-family="Helvetica,sans-Serif" font-size="11.00">text[2147483647]</text>
<polygon fill="none" stroke="black" points="10,-90 10,-112 130,-112 130,-90 10,-90"/>
<text text-anchor="start" x="30" y="-98.2" font-family="Helvetica,sans-Serif" font-size="11.00">notes</text>
<polygon fill="none" stroke="black" points="130,-90 130,-112 220,-112 220,-90 130,-90"/>
<text text-anchor="start" x="133" y="-98.2" font-family="Helvetica,sans-Serif" font-size="11.00">text[2147483647]</text>
<polygon fill="none" stroke="black" points="10,-68 10,-90 130,-90 130,-68 10,-68"/>
<text text-anchor="start" x="30" y="-76.2" font-family="Helvetica,sans-Serif" font-size="11.00">recdatecreated</text>
<polygon fill="none" stroke="black" points="130,-68 130,-90 220,-90 220,-68 130,-68"/>
<text text-anchor="start" x="133" y="-76.2" font-family="Helvetica,sans-Serif" font-size="11.00">timestamp[22]</text>
<polygon fill="none" stroke="black" points="10,-46 10,-68 130,-68 130,-46 10,-46"/>
<text text-anchor="start" x="30" y="-54.2" font-family="Helvetica,sans-Serif" font-size="11.00">recdatemodified</text>
<polygon fill="none" stroke="black" points="130,-46 130,-68 220,-68 220,-46 130,-46"/>
<text text-anchor="start" x="133" y="-54.2" font-family="Helvetica,sans-Serif" font-size="11.00">timestamp[22]</text>
<polygon fill="none" stroke="black" points="10,-24 10,-46 130,-46 130,-24 10,-24"/>
<text text-anchor="start" x="30" y="-32.2" font-family="Helvetica,sans-Serif" font-size="11.00">geog</text>
<polygon fill="none" stroke="black" points="130,-24 130,-46 220,-46 220,-24 130,-24"/>
<text text-anchor="start" x="133" y="-32.2" font-family="Helvetica,sans-Serif" font-size="11.00">text[2147483647]</text>
<polygon fill="#ffffff" stroke="transparent" points="10,-6 10,-24 48,-24 48,-6 10,-6"/>
<polygon fill="none" stroke="black" points="10,-6 10,-24 48,-24 48,-6 10,-6"/>
<text text-anchor="start" x="13" y="-12.2" font-family="Helvetica,sans-Serif" font-size="11.00">&lt; 0</text>
<polygon fill="#ffffff" stroke="transparent" points="48,-6 48,-24 130,-24 130,-6 48,-6"/>
<polygon fill="none" stroke="black" points="48,-6 48,-24 130,-24 130,-6 48,-6"/>
<text text-anchor="start" x="67" y="-12.2" font-family="Helvetica,sans-Serif" font-size="11.00">18,853 rows</text>
<polygon fill="#ffffff" stroke="transparent" points="130,-6 130,-24 220,-24 220,-6 130,-6"/>
<polygon fill="none" stroke="black" points="130,-6 130,-24 220,-24 220,-6 130,-6"/>
<text text-anchor="start" x="201" y="-12.2" font-family="Helvetica,sans-Serif" font-size="11.00">0 &gt;</text>
<polygon fill="none" stroke="black" stroke-width="2" points="9,-5 9,-333 221,-333 221,-5 9,-5"/>
</a>
</g>
</g>
</g>
</svg>
