<?xml version="1.0" encoding="UTF-8" standalone="no"?>
<!DOCTYPE svg PUBLIC "-//W3C//DTD SVG 1.1//EN"
 "http://www.w3.org/Graphics/SVG/1.1/DTD/svg11.dtd">
<!-- Generated by graphviz version 2.43.0 (0)
 -->
<!-- Title: tsampagesstd Pages: 1 -->
<svg width="199pt" height="148pt"
 viewBox="0.00 0.00 199.00 148.00" xmlns="http://www.w3.org/2000/svg" xmlns:xlink="http://www.w3.org/1999/xlink">
<g id="graph0" class="graph" transform="scale(1 1) rotate(0) translate(4 144)">
<title>tsampagesstd</title>
<polygon fill="#ffffff" stroke="transparent" points="-4,4 -4,-144 195,-144 195,4 -4,4"/>
<!-- tsampagesstd -->
<g id="node1" class="node">
<title>tsampagesstd</title>
<g id="a_node1"><a xlink:href="../../tables/tsampagesstd.html" xlink:title="tsampagesstd" target="_top">
<polygon fill="#ffffff" stroke="transparent" points="8,-4 8,-136 183,-136 183,-4 8,-4"/>
<polygon fill="#f5f5f5" stroke="transparent" points="10.5,-112 10.5,-134 181.5,-134 181.5,-112 10.5,-112"/>
<polygon fill="none" stroke="black" points="10.5,-112 10.5,-134 181.5,-134 181.5,-112 10.5,-112"/>
<text text-anchor="start" x="15.5" y="-121.2" font-family="Helvetica,sans-Serif" font-weight="bold" font-size="11.00">tsampagesstd</text>
<text text-anchor="start" x="146.5" y="-120.2" font-family="Helvetica,sans-Serif" font-size="11.00">[table]</text>
<polygon fill="none" stroke="black" points="10.5,-90 10.5,-112 115.5,-112 115.5,-90 10.5,-90"/>
<text text-anchor="start" x="30.5" y="-98.2" font-family="Helvetica,sans-Serif" font-size="11.00">sampleid</text>
<polygon fill="none" stroke="black" points="115.5,-90 115.5,-112 181.5,-112 181.5,-90 115.5,-90"/>
<text text-anchor="start" x="118.5" y="-98.2" font-family="Helvetica,sans-Serif" font-size="11.00">int4[10]</text>
<polygon fill="none" stroke="black" points="10.5,-68 10.5,-90 115.5,-90 115.5,-68 10.5,-68"/>
<text text-anchor="start" x="30.5" y="-76.2" font-family="Helvetica,sans-Serif" font-size="11.00">age</text>
<polygon fill="none" stroke="black" points="115.5,-68 115.5,-90 181.5,-90 181.5,-68 115.5,-68"/>
<text text-anchor="start" x="118.5" y="-76.2" font-family="Helvetica,sans-Serif" font-size="11.00">float8[17,17]</text>
<polygon fill="none" stroke="black" points="10.5,-46 10.5,-68 115.5,-68 115.5,-46 10.5,-46"/>
<text text-anchor="start" x="30.5" y="-54.2" font-family="Helvetica,sans-Serif" font-size="11.00">ageolder</text>
<polygon fill="none" stroke="black" points="115.5,-46 115.5,-68 181.5,-68 181.5,-46 115.5,-46"/>
<text text-anchor="start" x="118.5" y="-54.2" font-family="Helvetica,sans-Serif" font-size="11.00">float8[17,17]</text>
<polygon fill="none" stroke="black" points="10.5,-24 10.5,-46 115.5,-46 115.5,-24 10.5,-24"/>
<text text-anchor="start" x="30.5" y="-32.2" font-family="Helvetica,sans-Serif" font-size="11.00">ageyounger</text>
<polygon fill="none" stroke="black" points="115.5,-24 115.5,-46 181.5,-46 181.5,-24 115.5,-24"/>
<text text-anchor="start" x="118.5" y="-32.2" font-family="Helvetica,sans-Serif" font-size="11.00">float8[17,17]</text>
<polygon fill="#ffffff" stroke="transparent" points="10.5,-6 10.5,-24 37.5,-24 37.5,-6 10.5,-6"/>
<polygon fill="none" stroke="black" points="10.5,-6 10.5,-24 37.5,-24 37.5,-6 10.5,-6"/>
<text text-anchor="start" x="13.5" y="-12.2" font-family="Helvetica,sans-Serif" font-size="11.00">&lt; 0</text>
<polygon fill="#ffffff" stroke="transparent" points="37.5,-6 37.5,-24 115.5,-24 115.5,-6 37.5,-6"/>
<polygon fill="none" stroke="black" points="37.5,-6 37.5,-24 115.5,-24 115.5,-6 37.5,-6"/>
<text text-anchor="start" x="46.5" y="-12.2" font-family="Helvetica,sans-Serif" font-size="11.00">100,217 rows</text>
<polygon fill="#ffffff" stroke="transparent" points="115.5,-6 115.5,-24 181.5,-24 181.5,-6 115.5,-6"/>
<polygon fill="none" stroke="black" points="115.5,-6 115.5,-24 181.5,-24 181.5,-6 115.5,-6"/>
<text text-anchor="start" x="162.5" y="-12.2" font-family="Helvetica,sans-Serif" font-size="11.00">0 &gt;</text>
<polygon fill="none" stroke="black" stroke-width="2" points="9,-5 9,-135 182,-135 182,-5 9,-5"/>
</a>
</g>
</g>
</g>
</svg>
