<?xml version="1.0" encoding="UTF-8" standalone="no"?>
<!DOCTYPE svg PUBLIC "-//W3C//DTD SVG 1.1//EN"
 "http://www.w3.org/Graphics/SVG/1.1/DTD/svg11.dtd">
<!-- Generated by graphviz version 2.43.0 (0)
 -->
<!-- Title: faunranges Pages: 1 -->
<svg width="235pt" height="148pt"
 viewBox="0.00 0.00 235.00 148.00" xmlns="http://www.w3.org/2000/svg" xmlns:xlink="http://www.w3.org/1999/xlink">
<g id="graph0" class="graph" transform="scale(1 1) rotate(0) translate(4 144)">
<title>faunranges</title>
<polygon fill="#ffffff" stroke="transparent" points="-4,4 -4,-144 231,-144 231,4 -4,4"/>
<!-- faunranges -->
<g id="node1" class="node">
<title>faunranges</title>
<g id="a_node1"><a xlink:href="../../tables/faunranges.html" xlink:title="faunranges" target="_top">
<polygon fill="#ffffff" stroke="transparent" points="8,-4 8,-136 219,-136 219,-4 8,-4"/>
<polygon fill="#f5f5f5" stroke="transparent" points="10.5,-112 10.5,-134 217.5,-134 217.5,-112 10.5,-112"/>
<polygon fill="none" stroke="black" points="10.5,-112 10.5,-134 217.5,-134 217.5,-112 10.5,-112"/>
<text text-anchor="start" x="15.5" y="-121.2" font-family="Helvetica,sans-Serif" font-weight="bold" font-size="11.00">faunranges</text>
<text text-anchor="start" x="182.5" y="-120.2" font-family="Helvetica,sans-Serif" font-size="11.00">[table]</text>
<polygon fill="none" stroke="black" points="10.5,-90 10.5,-112 99.5,-112 99.5,-90 10.5,-90"/>
<image xlink:href="../../images/primaryKeys.png" width="11px" height="12px" preserveAspectRatio="xMinYMin meet" x="15.5" y="-107"/>
<text text-anchor="start" x="30.5" y="-98.2" font-family="Helvetica,sans-Serif" font-size="11.00">gid</text>
<polygon fill="none" stroke="black" points="99.5,-90 99.5,-112 217.5,-112 217.5,-90 99.5,-90"/>
<text text-anchor="start" x="102.5" y="-98.2" font-family="Helvetica,sans-Serif" font-size="11.00">serial[10]</text>
<polygon fill="none" stroke="black" points="10.5,-68 10.5,-90 99.5,-90 99.5,-68 10.5,-68"/>
<text text-anchor="start" x="30.5" y="-76.2" font-family="Helvetica,sans-Serif" font-size="11.00">spid</text>
<polygon fill="none" stroke="black" points="99.5,-68 99.5,-90 217.5,-90 217.5,-68 99.5,-68"/>
<text text-anchor="start" x="102.5" y="-76.2" font-family="Helvetica,sans-Serif" font-size="11.00">varchar[10]</text>
<polygon fill="#ffffff" stroke="transparent" points="10.5,-46 10.5,-68 99.5,-68 99.5,-46 10.5,-46"/>
<polygon fill="none" stroke="black" points="10.5,-46 10.5,-68 99.5,-68 99.5,-46 10.5,-46"/>
<text text-anchor="start" x="30.5" y="-54.2" font-family="Helvetica,sans-Serif" font-size="11.00">sciname</text>
<polygon fill="none" stroke="black" points="99.5,-46 99.5,-68 217.5,-68 217.5,-46 99.5,-46"/>
<text text-anchor="start" x="102.5" y="-54.2" font-family="Helvetica,sans-Serif" font-size="11.00">varchar[254]</text>
<polygon fill="#ffffff" stroke="transparent" points="10.5,-24 10.5,-46 99.5,-46 99.5,-24 10.5,-24"/>
<polygon fill="none" stroke="black" points="10.5,-24 10.5,-46 99.5,-46 99.5,-24 10.5,-24"/>
<text text-anchor="start" x="30.5" y="-32.2" font-family="Helvetica,sans-Serif" font-size="11.00">the_geom</text>
<polygon fill="none" stroke="black" points="99.5,-24 99.5,-46 217.5,-46 217.5,-24 99.5,-24"/>
<text text-anchor="start" x="102.5" y="-32.2" font-family="Helvetica,sans-Serif" font-size="11.00">geometry[2147483647]</text>
<polygon fill="#ffffff" stroke="transparent" points="10.5,-6 10.5,-24 40.5,-24 40.5,-6 10.5,-6"/>
<polygon fill="none" stroke="black" points="10.5,-6 10.5,-24 40.5,-24 40.5,-6 10.5,-6"/>
<text text-anchor="start" x="13.5" y="-12.2" font-family="Helvetica,sans-Serif" font-size="11.00">&lt; 0</text>
<polygon fill="#ffffff" stroke="transparent" points="40.5,-6 40.5,-24 99.5,-24 99.5,-6 40.5,-6"/>
<polygon fill="none" stroke="black" points="40.5,-6 40.5,-24 99.5,-24 99.5,-6 40.5,-6"/>
<text text-anchor="start" x="51.5" y="-12.2" font-family="Helvetica,sans-Serif" font-size="11.00">191 rows</text>
<polygon fill="#ffffff" stroke="transparent" points="99.5,-6 99.5,-24 217.5,-24 217.5,-6 99.5,-6"/>
<polygon fill="none" stroke="black" points="99.5,-6 99.5,-24 217.5,-24 217.5,-6 99.5,-6"/>
<text text-anchor="start" x="198.5" y="-12.2" font-family="Helvetica,sans-Serif" font-size="11.00">0 &gt;</text>
<polygon fill="none" stroke="black" stroke-width="2" points="9,-5 9,-135 218,-135 218,-5 9,-5"/>
</a>
</g>
</g>
</g>
</svg>
