<?xml version="1.0" encoding="UTF-8" standalone="no"?>
<!DOCTYPE svg PUBLIC "-//W3C//DTD SVG 1.1//EN"
 "http://www.w3.org/Graphics/SVG/1.1/DTD/svg11.dtd">
<!-- Generated by graphviz version 2.43.0 (0)
 -->
<!-- Title: gadm_410 Pages: 1 -->
<svg width="280pt" height="1292pt"
 viewBox="0.00 0.00 280.00 1292.00" xmlns="http://www.w3.org/2000/svg" xmlns:xlink="http://www.w3.org/1999/xlink">
<g id="graph0" class="graph" transform="scale(1 1) rotate(0) translate(4 1288)">
<title>gadm_410</title>
<polygon fill="#ffffff" stroke="transparent" points="-4,4 -4,-1288 276,-1288 276,4 -4,4"/>
<!-- gadm_410 -->
<g id="node1" class="node">
<title>gadm_410</title>
<g id="a_node1"><a xlink:href="../../tables/gadm_410.html" xlink:title="gadm_410" target="_top">
<polygon fill="#ffffff" stroke="transparent" points="8,-4 8,-1280 264,-1280 264,-4 8,-4"/>
<polygon fill="#f5f5f5" stroke="transparent" points="10,-1256 10,-1278 262,-1278 262,-1256 10,-1256"/>
<polygon fill="none" stroke="black" points="10,-1256 10,-1278 262,-1278 262,-1256 10,-1256"/>
<text text-anchor="start" x="15" y="-1265.2" font-family="Helvetica,sans-Serif" font-weight="bold" font-size="11.00">gadm_410</text>
<text text-anchor="start" x="227" y="-1264.2" font-family="Helvetica,sans-Serif" font-size="11.00">[table]</text>
<polygon fill="none" stroke="black" points="10,-1234 10,-1256 144,-1256 144,-1234 10,-1234"/>
<image xlink:href="../../images/primaryKeys.png" width="11px" height="12px" preserveAspectRatio="xMinYMin meet" x="15" y="-1251"/>
<text text-anchor="start" x="30" y="-1242.2" font-family="Helvetica,sans-Serif" font-size="11.00">fid</text>
<polygon fill="none" stroke="black" points="144,-1234 144,-1256 262,-1256 262,-1234 144,-1234"/>
<text text-anchor="start" x="147" y="-1242.2" font-family="Helvetica,sans-Serif" font-size="11.00">serial[10]</text>
<polygon fill="none" stroke="black" points="10,-1212 10,-1234 144,-1234 144,-1212 10,-1212"/>
<text text-anchor="start" x="30" y="-1220.2" font-family="Helvetica,sans-Serif" font-size="11.00">uid</text>
<polygon fill="none" stroke="black" points="144,-1212 144,-1234 262,-1234 262,-1212 144,-1212"/>
<text text-anchor="start" x="147" y="-1220.2" font-family="Helvetica,sans-Serif" font-size="11.00">int8[19]</text>
<polygon fill="none" stroke="black" points="10,-1190 10,-1212 144,-1212 144,-1190 10,-1190"/>
<text text-anchor="start" x="30" y="-1198.2" font-family="Helvetica,sans-Serif" font-size="11.00">gid_0</text>
<polygon fill="none" stroke="black" points="144,-1190 144,-1212 262,-1212 262,-1190 144,-1190"/>
<text text-anchor="start" x="147" y="-1198.2" font-family="Helvetica,sans-Serif" font-size="11.00">varchar[10]</text>
<polygon fill="none" stroke="black" points="10,-1168 10,-1190 144,-1190 144,-1168 10,-1168"/>
<text text-anchor="start" x="30" y="-1176.2" font-family="Helvetica,sans-Serif" font-size="11.00">name_0</text>
<polygon fill="none" stroke="black" points="144,-1168 144,-1190 262,-1190 262,-1168 144,-1168"/>
<text text-anchor="start" x="147" y="-1176.2" font-family="Helvetica,sans-Serif" font-size="11.00">varchar[32]</text>
<polygon fill="none" stroke="black" points="10,-1146 10,-1168 144,-1168 144,-1146 10,-1146"/>
<text text-anchor="start" x="30" y="-1154.2" font-family="Helvetica,sans-Serif" font-size="11.00">varname_0</text>
<polygon fill="none" stroke="black" points="144,-1146 144,-1168 262,-1168 262,-1146 144,-1146"/>
<text text-anchor="start" x="147" y="-1154.2" font-family="Helvetica,sans-Serif" font-size="11.00">varchar[29]</text>
<polygon fill="none" stroke="black" points="10,-1124 10,-1146 144,-1146 144,-1124 10,-1124"/>
<text text-anchor="start" x="30" y="-1132.2" font-family="Helvetica,sans-Serif" font-size="11.00">gid_1</text>
<polygon fill="none" stroke="black" points="144,-1124 144,-1146 262,-1146 262,-1124 144,-1124"/>
<text text-anchor="start" x="147" y="-1132.2" font-family="Helvetica,sans-Serif" font-size="11.00">varchar[10]</text>
<polygon fill="none" stroke="black" points="10,-1102 10,-1124 144,-1124 144,-1102 10,-1102"/>
<text text-anchor="start" x="30" y="-1110.2" font-family="Helvetica,sans-Serif" font-size="11.00">name_1</text>
<polygon fill="none" stroke="black" points="144,-1102 144,-1124 262,-1124 262,-1102 144,-1102"/>
<text text-anchor="start" x="147" y="-1110.2" font-family="Helvetica,sans-Serif" font-size="11.00">varchar[34]</text>
<polygon fill="none" stroke="black" points="10,-1080 10,-1102 144,-1102 144,-1080 10,-1080"/>
<text text-anchor="start" x="30" y="-1088.2" font-family="Helvetica,sans-Serif" font-size="11.00">varname_1</text>
<polygon fill="none" stroke="black" points="144,-1080 144,-1102 262,-1102 262,-1080 144,-1080"/>
<text text-anchor="start" x="147" y="-1088.2" font-family="Helvetica,sans-Serif" font-size="11.00">varchar[82]</text>
<polygon fill="none" stroke="black" points="10,-1058 10,-1080 144,-1080 144,-1058 10,-1058"/>
<text text-anchor="start" x="30" y="-1066.2" font-family="Helvetica,sans-Serif" font-size="11.00">nl_name_1</text>
<polygon fill="none" stroke="black" points="144,-1058 144,-1080 262,-1080 262,-1058 144,-1058"/>
<text text-anchor="start" x="147" y="-1066.2" font-family="Helvetica,sans-Serif" font-size="11.00">varchar[87]</text>
<polygon fill="none" stroke="black" points="10,-1036 10,-1058 144,-1058 144,-1036 10,-1036"/>
<text text-anchor="start" x="30" y="-1044.2" font-family="Helvetica,sans-Serif" font-size="11.00">iso_1</text>
<polygon fill="none" stroke="black" points="144,-1036 144,-1058 262,-1058 262,-1036 144,-1036"/>
<text text-anchor="start" x="147" y="-1044.2" font-family="Helvetica,sans-Serif" font-size="11.00">varchar[10]</text>
<polygon fill="none" stroke="black" points="10,-1014 10,-1036 144,-1036 144,-1014 10,-1014"/>
<text text-anchor="start" x="30" y="-1022.2" font-family="Helvetica,sans-Serif" font-size="11.00">hasc_1</text>
<polygon fill="none" stroke="black" points="144,-1014 144,-1036 262,-1036 262,-1014 144,-1014"/>
<text text-anchor="start" x="147" y="-1022.2" font-family="Helvetica,sans-Serif" font-size="11.00">varchar[10]</text>
<polygon fill="none" stroke="black" points="10,-992 10,-1014 144,-1014 144,-992 10,-992"/>
<text text-anchor="start" x="30" y="-1000.2" font-family="Helvetica,sans-Serif" font-size="11.00">cc_1</text>
<polygon fill="none" stroke="black" points="144,-992 144,-1014 262,-1014 262,-992 144,-992"/>
<text text-anchor="start" x="147" y="-1000.2" font-family="Helvetica,sans-Serif" font-size="11.00">varchar[10]</text>
<polygon fill="none" stroke="black" points="10,-970 10,-992 144,-992 144,-970 10,-970"/>
<text text-anchor="start" x="30" y="-978.2" font-family="Helvetica,sans-Serif" font-size="11.00">type_1</text>
<polygon fill="none" stroke="black" points="144,-970 144,-992 262,-992 262,-970 144,-970"/>
<text text-anchor="start" x="147" y="-978.2" font-family="Helvetica,sans-Serif" font-size="11.00">varchar[32]</text>
<polygon fill="none" stroke="black" points="10,-948 10,-970 144,-970 144,-948 10,-948"/>
<text text-anchor="start" x="30" y="-956.2" font-family="Helvetica,sans-Serif" font-size="11.00">engtype_1</text>
<polygon fill="none" stroke="black" points="144,-948 144,-970 262,-970 262,-948 144,-948"/>
<text text-anchor="start" x="147" y="-956.2" font-family="Helvetica,sans-Serif" font-size="11.00">varchar[32]</text>
<polygon fill="none" stroke="black" points="10,-926 10,-948 144,-948 144,-926 10,-926"/>
<text text-anchor="start" x="30" y="-934.2" font-family="Helvetica,sans-Serif" font-size="11.00">validfr_1</text>
<polygon fill="none" stroke="black" points="144,-926 144,-948 262,-948 262,-926 144,-926"/>
<text text-anchor="start" x="147" y="-934.2" font-family="Helvetica,sans-Serif" font-size="11.00">varchar[15]</text>
<polygon fill="none" stroke="black" points="10,-904 10,-926 144,-926 144,-904 10,-904"/>
<text text-anchor="start" x="30" y="-912.2" font-family="Helvetica,sans-Serif" font-size="11.00">gid_2</text>
<polygon fill="none" stroke="black" points="144,-904 144,-926 262,-926 262,-904 144,-904"/>
<text text-anchor="start" x="147" y="-912.2" font-family="Helvetica,sans-Serif" font-size="11.00">varchar[12]</text>
<polygon fill="none" stroke="black" points="10,-882 10,-904 144,-904 144,-882 10,-882"/>
<text text-anchor="start" x="30" y="-890.2" font-family="Helvetica,sans-Serif" font-size="11.00">name_2</text>
<polygon fill="none" stroke="black" points="144,-882 144,-904 262,-904 262,-882 144,-882"/>
<text text-anchor="start" x="147" y="-890.2" font-family="Helvetica,sans-Serif" font-size="11.00">varchar[34]</text>
<polygon fill="none" stroke="black" points="10,-860 10,-882 144,-882 144,-860 10,-860"/>
<text text-anchor="start" x="30" y="-868.2" font-family="Helvetica,sans-Serif" font-size="11.00">varname_2</text>
<polygon fill="none" stroke="black" points="144,-860 144,-882 262,-882 262,-860 144,-860"/>
<text text-anchor="start" x="147" y="-868.2" font-family="Helvetica,sans-Serif" font-size="11.00">varchar[39]</text>
<polygon fill="none" stroke="black" points="10,-838 10,-860 144,-860 144,-838 10,-838"/>
<text text-anchor="start" x="30" y="-846.2" font-family="Helvetica,sans-Serif" font-size="11.00">nl_name_2</text>
<polygon fill="none" stroke="black" points="144,-838 144,-860 262,-860 262,-838 144,-838"/>
<text text-anchor="start" x="147" y="-846.2" font-family="Helvetica,sans-Serif" font-size="11.00">varchar[75]</text>
<polygon fill="none" stroke="black" points="10,-816 10,-838 144,-838 144,-816 10,-816"/>
<text text-anchor="start" x="30" y="-824.2" font-family="Helvetica,sans-Serif" font-size="11.00">hasc_2</text>
<polygon fill="none" stroke="black" points="144,-816 144,-838 262,-838 262,-816 144,-816"/>
<text text-anchor="start" x="147" y="-824.2" font-family="Helvetica,sans-Serif" font-size="11.00">varchar[15]</text>
<polygon fill="none" stroke="black" points="10,-794 10,-816 144,-816 144,-794 10,-794"/>
<text text-anchor="start" x="30" y="-802.2" font-family="Helvetica,sans-Serif" font-size="11.00">cc_2</text>
<polygon fill="none" stroke="black" points="144,-794 144,-816 262,-816 262,-794 144,-794"/>
<text text-anchor="start" x="147" y="-802.2" font-family="Helvetica,sans-Serif" font-size="11.00">varchar[12]</text>
<polygon fill="none" stroke="black" points="10,-772 10,-794 144,-794 144,-772 10,-772"/>
<text text-anchor="start" x="30" y="-780.2" font-family="Helvetica,sans-Serif" font-size="11.00">type_2</text>
<polygon fill="none" stroke="black" points="144,-772 144,-794 262,-794 262,-772 144,-772"/>
<text text-anchor="start" x="147" y="-780.2" font-family="Helvetica,sans-Serif" font-size="11.00">varchar[34]</text>
<polygon fill="none" stroke="black" points="10,-750 10,-772 144,-772 144,-750 10,-750"/>
<text text-anchor="start" x="30" y="-758.2" font-family="Helvetica,sans-Serif" font-size="11.00">engtype_2</text>
<polygon fill="none" stroke="black" points="144,-750 144,-772 262,-772 262,-750 144,-750"/>
<text text-anchor="start" x="147" y="-758.2" font-family="Helvetica,sans-Serif" font-size="11.00">varchar[32]</text>
<polygon fill="none" stroke="black" points="10,-728 10,-750 144,-750 144,-728 10,-728"/>
<text text-anchor="start" x="30" y="-736.2" font-family="Helvetica,sans-Serif" font-size="11.00">validfr_2</text>
<polygon fill="none" stroke="black" points="144,-728 144,-750 262,-750 262,-728 144,-728"/>
<text text-anchor="start" x="147" y="-736.2" font-family="Helvetica,sans-Serif" font-size="11.00">varchar[15]</text>
<polygon fill="none" stroke="black" points="10,-706 10,-728 144,-728 144,-706 10,-706"/>
<text text-anchor="start" x="30" y="-714.2" font-family="Helvetica,sans-Serif" font-size="11.00">gid_3</text>
<polygon fill="none" stroke="black" points="144,-706 144,-728 262,-728 262,-706 144,-706"/>
<text text-anchor="start" x="147" y="-714.2" font-family="Helvetica,sans-Serif" font-size="11.00">varchar[15]</text>
<polygon fill="none" stroke="black" points="10,-684 10,-706 144,-706 144,-684 10,-684"/>
<text text-anchor="start" x="30" y="-692.2" font-family="Helvetica,sans-Serif" font-size="11.00">name_3</text>
<polygon fill="none" stroke="black" points="144,-684 144,-706 262,-706 262,-684 144,-684"/>
<text text-anchor="start" x="147" y="-692.2" font-family="Helvetica,sans-Serif" font-size="11.00">varchar[38]</text>
<polygon fill="none" stroke="black" points="10,-662 10,-684 144,-684 144,-662 10,-662"/>
<text text-anchor="start" x="30" y="-670.2" font-family="Helvetica,sans-Serif" font-size="11.00">varname_3</text>
<polygon fill="none" stroke="black" points="144,-662 144,-684 262,-684 262,-662 144,-662"/>
<text text-anchor="start" x="147" y="-670.2" font-family="Helvetica,sans-Serif" font-size="11.00">varchar[44]</text>
<polygon fill="none" stroke="black" points="10,-640 10,-662 144,-662 144,-640 10,-640"/>
<text text-anchor="start" x="30" y="-648.2" font-family="Helvetica,sans-Serif" font-size="11.00">nl_name_3</text>
<polygon fill="none" stroke="black" points="144,-640 144,-662 262,-662 262,-640 144,-640"/>
<text text-anchor="start" x="147" y="-648.2" font-family="Helvetica,sans-Serif" font-size="11.00">varchar[56]</text>
<polygon fill="none" stroke="black" points="10,-618 10,-640 144,-640 144,-618 10,-618"/>
<text text-anchor="start" x="30" y="-626.2" font-family="Helvetica,sans-Serif" font-size="11.00">hasc_3</text>
<polygon fill="none" stroke="black" points="144,-618 144,-640 262,-640 262,-618 144,-618"/>
<text text-anchor="start" x="147" y="-626.2" font-family="Helvetica,sans-Serif" font-size="11.00">varchar[27]</text>
<polygon fill="none" stroke="black" points="10,-596 10,-618 144,-618 144,-596 10,-596"/>
<text text-anchor="start" x="30" y="-604.2" font-family="Helvetica,sans-Serif" font-size="11.00">cc_3</text>
<polygon fill="none" stroke="black" points="144,-596 144,-618 262,-618 262,-596 144,-596"/>
<text text-anchor="start" x="147" y="-604.2" font-family="Helvetica,sans-Serif" font-size="11.00">varchar[10]</text>
<polygon fill="none" stroke="black" points="10,-574 10,-596 144,-596 144,-574 10,-574"/>
<text text-anchor="start" x="30" y="-582.2" font-family="Helvetica,sans-Serif" font-size="11.00">type_3</text>
<polygon fill="none" stroke="black" points="144,-574 144,-596 262,-596 262,-574 144,-574"/>
<text text-anchor="start" x="147" y="-582.2" font-family="Helvetica,sans-Serif" font-size="11.00">varchar[32]</text>
<polygon fill="none" stroke="black" points="10,-552 10,-574 144,-574 144,-552 10,-552"/>
<text text-anchor="start" x="30" y="-560.2" font-family="Helvetica,sans-Serif" font-size="11.00">engtype_3</text>
<polygon fill="none" stroke="black" points="144,-552 144,-574 262,-574 262,-552 144,-552"/>
<text text-anchor="start" x="147" y="-560.2" font-family="Helvetica,sans-Serif" font-size="11.00">varchar[32]</text>
<polygon fill="none" stroke="black" points="10,-530 10,-552 144,-552 144,-530 10,-530"/>
<text text-anchor="start" x="30" y="-538.2" font-family="Helvetica,sans-Serif" font-size="11.00">validfr_3</text>
<polygon fill="none" stroke="black" points="144,-530 144,-552 262,-552 262,-530 144,-530"/>
<text text-anchor="start" x="147" y="-538.2" font-family="Helvetica,sans-Serif" font-size="11.00">varchar[10]</text>
<polygon fill="none" stroke="black" points="10,-508 10,-530 144,-530 144,-508 10,-508"/>
<text text-anchor="start" x="30" y="-516.2" font-family="Helvetica,sans-Serif" font-size="11.00">gid_4</text>
<polygon fill="none" stroke="black" points="144,-508 144,-530 262,-530 262,-508 144,-508"/>
<text text-anchor="start" x="147" y="-516.2" font-family="Helvetica,sans-Serif" font-size="11.00">varchar[18]</text>
<polygon fill="none" stroke="black" points="10,-486 10,-508 144,-508 144,-486 10,-486"/>
<text text-anchor="start" x="30" y="-494.2" font-family="Helvetica,sans-Serif" font-size="11.00">name_4</text>
<polygon fill="none" stroke="black" points="144,-486 144,-508 262,-508 262,-486 144,-486"/>
<text text-anchor="start" x="147" y="-494.2" font-family="Helvetica,sans-Serif" font-size="11.00">varchar[34]</text>
<polygon fill="none" stroke="black" points="10,-464 10,-486 144,-486 144,-464 10,-464"/>
<text text-anchor="start" x="30" y="-472.2" font-family="Helvetica,sans-Serif" font-size="11.00">varname_4</text>
<polygon fill="none" stroke="black" points="144,-464 144,-486 262,-486 262,-464 144,-464"/>
<text text-anchor="start" x="147" y="-472.2" font-family="Helvetica,sans-Serif" font-size="11.00">varchar[35]</text>
<polygon fill="none" stroke="black" points="10,-442 10,-464 144,-464 144,-442 10,-442"/>
<text text-anchor="start" x="30" y="-450.2" font-family="Helvetica,sans-Serif" font-size="11.00">cc_4</text>
<polygon fill="none" stroke="black" points="144,-442 144,-464 262,-464 262,-442 144,-442"/>
<text text-anchor="start" x="147" y="-450.2" font-family="Helvetica,sans-Serif" font-size="11.00">varchar[12]</text>
<polygon fill="none" stroke="black" points="10,-420 10,-442 144,-442 144,-420 10,-420"/>
<text text-anchor="start" x="30" y="-428.2" font-family="Helvetica,sans-Serif" font-size="11.00">type_4</text>
<polygon fill="none" stroke="black" points="144,-420 144,-442 262,-442 262,-420 144,-420"/>
<text text-anchor="start" x="147" y="-428.2" font-family="Helvetica,sans-Serif" font-size="11.00">varchar[29]</text>
<polygon fill="none" stroke="black" points="10,-398 10,-420 144,-420 144,-398 10,-398"/>
<text text-anchor="start" x="30" y="-406.2" font-family="Helvetica,sans-Serif" font-size="11.00">engtype_4</text>
<polygon fill="none" stroke="black" points="144,-398 144,-420 262,-420 262,-398 144,-398"/>
<text text-anchor="start" x="147" y="-406.2" font-family="Helvetica,sans-Serif" font-size="11.00">varchar[29]</text>
<polygon fill="none" stroke="black" points="10,-376 10,-398 144,-398 144,-376 10,-376"/>
<text text-anchor="start" x="30" y="-384.2" font-family="Helvetica,sans-Serif" font-size="11.00">validfr_4</text>
<polygon fill="none" stroke="black" points="144,-376 144,-398 262,-398 262,-376 144,-376"/>
<text text-anchor="start" x="147" y="-384.2" font-family="Helvetica,sans-Serif" font-size="11.00">varchar[10]</text>
<polygon fill="none" stroke="black" points="10,-354 10,-376 144,-376 144,-354 10,-354"/>
<text text-anchor="start" x="30" y="-362.2" font-family="Helvetica,sans-Serif" font-size="11.00">gid_5</text>
<polygon fill="none" stroke="black" points="144,-354 144,-376 262,-376 262,-354 144,-354"/>
<text text-anchor="start" x="147" y="-362.2" font-family="Helvetica,sans-Serif" font-size="11.00">varchar[19]</text>
<polygon fill="none" stroke="black" points="10,-332 10,-354 144,-354 144,-332 10,-332"/>
<text text-anchor="start" x="30" y="-340.2" font-family="Helvetica,sans-Serif" font-size="11.00">name_5</text>
<polygon fill="none" stroke="black" points="144,-332 144,-354 262,-354 262,-332 144,-332"/>
<text text-anchor="start" x="147" y="-340.2" font-family="Helvetica,sans-Serif" font-size="11.00">varchar[34]</text>
<polygon fill="none" stroke="black" points="10,-310 10,-332 144,-332 144,-310 10,-310"/>
<text text-anchor="start" x="30" y="-318.2" font-family="Helvetica,sans-Serif" font-size="11.00">cc_5</text>
<polygon fill="none" stroke="black" points="144,-310 144,-332 262,-332 262,-310 144,-310"/>
<text text-anchor="start" x="147" y="-318.2" font-family="Helvetica,sans-Serif" font-size="11.00">varchar[10]</text>
<polygon fill="none" stroke="black" points="10,-288 10,-310 144,-310 144,-288 10,-288"/>
<text text-anchor="start" x="30" y="-296.2" font-family="Helvetica,sans-Serif" font-size="11.00">type_5</text>
<polygon fill="none" stroke="black" points="144,-288 144,-310 262,-310 262,-288 144,-288"/>
<text text-anchor="start" x="147" y="-296.2" font-family="Helvetica,sans-Serif" font-size="11.00">varchar[22]</text>
<polygon fill="none" stroke="black" points="10,-266 10,-288 144,-288 144,-266 10,-266"/>
<text text-anchor="start" x="30" y="-274.2" font-family="Helvetica,sans-Serif" font-size="11.00">engtype_5</text>
<polygon fill="none" stroke="black" points="144,-266 144,-288 262,-288 262,-266 144,-266"/>
<text text-anchor="start" x="147" y="-274.2" font-family="Helvetica,sans-Serif" font-size="11.00">varchar[10]</text>
<polygon fill="none" stroke="black" points="10,-244 10,-266 144,-266 144,-244 10,-244"/>
<text text-anchor="start" x="30" y="-252.2" font-family="Helvetica,sans-Serif" font-size="11.00">governedby</text>
<polygon fill="none" stroke="black" points="144,-244 144,-266 262,-266 262,-244 144,-244"/>
<text text-anchor="start" x="147" y="-252.2" font-family="Helvetica,sans-Serif" font-size="11.00">varchar[17]</text>
<polygon fill="none" stroke="black" points="10,-222 10,-244 144,-244 144,-222 10,-222"/>
<text text-anchor="start" x="30" y="-230.2" font-family="Helvetica,sans-Serif" font-size="11.00">sovereign</text>
<polygon fill="none" stroke="black" points="144,-222 144,-244 262,-244 262,-222 144,-222"/>
<text text-anchor="start" x="147" y="-230.2" font-family="Helvetica,sans-Serif" font-size="11.00">varchar[32]</text>
<polygon fill="none" stroke="black" points="10,-200 10,-222 144,-222 144,-200 10,-200"/>
<text text-anchor="start" x="30" y="-208.2" font-family="Helvetica,sans-Serif" font-size="11.00">disputedby</text>
<polygon fill="none" stroke="black" points="144,-200 144,-222 262,-222 262,-200 144,-200"/>
<text text-anchor="start" x="147" y="-208.2" font-family="Helvetica,sans-Serif" font-size="11.00">varchar[32]</text>
<polygon fill="none" stroke="black" points="10,-178 10,-200 144,-200 144,-178 10,-178"/>
<text text-anchor="start" x="30" y="-186.2" font-family="Helvetica,sans-Serif" font-size="11.00">region</text>
<polygon fill="none" stroke="black" points="144,-178 144,-200 262,-200 262,-178 144,-178"/>
<text text-anchor="start" x="147" y="-186.2" font-family="Helvetica,sans-Serif" font-size="11.00">varchar[32]</text>
<polygon fill="none" stroke="black" points="10,-156 10,-178 144,-178 144,-156 10,-156"/>
<text text-anchor="start" x="30" y="-164.2" font-family="Helvetica,sans-Serif" font-size="11.00">varregion</text>
<polygon fill="none" stroke="black" points="144,-156 144,-178 262,-178 262,-156 144,-156"/>
<text text-anchor="start" x="147" y="-164.2" font-family="Helvetica,sans-Serif" font-size="11.00">varchar[48]</text>
<polygon fill="none" stroke="black" points="10,-134 10,-156 144,-156 144,-134 10,-134"/>
<text text-anchor="start" x="30" y="-142.2" font-family="Helvetica,sans-Serif" font-size="11.00">country</text>
<polygon fill="none" stroke="black" points="144,-134 144,-156 262,-156 262,-134 144,-134"/>
<text text-anchor="start" x="147" y="-142.2" font-family="Helvetica,sans-Serif" font-size="11.00">varchar[32]</text>
<polygon fill="none" stroke="black" points="10,-112 10,-134 144,-134 144,-112 10,-112"/>
<text text-anchor="start" x="30" y="-120.2" font-family="Helvetica,sans-Serif" font-size="11.00">continent</text>
<polygon fill="none" stroke="black" points="144,-112 144,-134 262,-134 262,-112 144,-112"/>
<text text-anchor="start" x="147" y="-120.2" font-family="Helvetica,sans-Serif" font-size="11.00">varchar[13]</text>
<polygon fill="none" stroke="black" points="10,-90 10,-112 144,-112 144,-90 10,-90"/>
<text text-anchor="start" x="30" y="-98.2" font-family="Helvetica,sans-Serif" font-size="11.00">subcont</text>
<polygon fill="none" stroke="black" points="144,-90 144,-112 262,-112 262,-90 144,-90"/>
<text text-anchor="start" x="147" y="-98.2" font-family="Helvetica,sans-Serif" font-size="11.00">varchar[10]</text>
<polygon fill="none" stroke="black" points="10,-68 10,-90 144,-90 144,-68 10,-68"/>
<text text-anchor="start" x="30" y="-76.2" font-family="Helvetica,sans-Serif" font-size="11.00">compoundname</text>
<polygon fill="none" stroke="black" points="144,-68 144,-90 262,-90 262,-68 144,-68"/>
<text text-anchor="start" x="147" y="-76.2" font-family="Helvetica,sans-Serif" font-size="11.00">text[2147483647]</text>
<polygon fill="none" stroke="black" points="10,-46 10,-68 144,-68 144,-46 10,-46"/>
<text text-anchor="start" x="30" y="-54.2" font-family="Helvetica,sans-Serif" font-size="11.00">ts_compoundname</text>
<polygon fill="none" stroke="black" points="144,-46 144,-68 262,-68 262,-46 144,-46"/>
<text text-anchor="start" x="147" y="-54.2" font-family="Helvetica,sans-Serif" font-size="11.00">tsvector[2147483647]</text>
<polygon fill="#ffffff" stroke="transparent" points="10,-24 10,-46 144,-46 144,-24 10,-24"/>
<polygon fill="none" stroke="black" points="10,-24 10,-46 144,-46 144,-24 10,-24"/>
<text text-anchor="start" x="30" y="-32.2" font-family="Helvetica,sans-Serif" font-size="11.00">geom</text>
<polygon fill="none" stroke="black" points="144,-24 144,-46 262,-46 262,-24 144,-24"/>
<text text-anchor="start" x="147" y="-32.2" font-family="Helvetica,sans-Serif" font-size="11.00">geometry[2147483647]</text>
<polygon fill="#ffffff" stroke="transparent" points="10,-6 10,-24 52,-24 52,-6 10,-6"/>
<polygon fill="none" stroke="black" points="10,-6 10,-24 52,-24 52,-6 10,-6"/>
<text text-anchor="start" x="13" y="-12.2" font-family="Helvetica,sans-Serif" font-size="11.00">&lt; 0</text>
<polygon fill="#ffffff" stroke="transparent" points="52,-6 52,-24 144,-24 144,-6 52,-6"/>
<polygon fill="none" stroke="black" points="52,-6 52,-24 144,-24 144,-6 52,-6"/>
<text text-anchor="start" x="75" y="-12.2" font-family="Helvetica,sans-Serif" font-size="11.00">356,508 rows</text>
<polygon fill="#ffffff" stroke="transparent" points="144,-6 144,-24 262,-24 262,-6 144,-6"/>
<polygon fill="none" stroke="black" points="144,-6 144,-24 262,-24 262,-6 144,-6"/>
<text text-anchor="start" x="243" y="-12.2" font-family="Helvetica,sans-Serif" font-size="11.00">0 &gt;</text>
<polygon fill="none" stroke="black" stroke-width="2" points="9,-5 9,-1279 263,-1279 263,-5 9,-5"/>
</a>
</g>
</g>
</g>
</svg>
