<?xml version="1.0" encoding="UTF-8" standalone="no"?>
<!DOCTYPE svg PUBLIC "-//W3C//DTD SVG 1.1//EN"
 "http://www.w3.org/Graphics/SVG/1.1/DTD/svg11.dtd">
<!-- Generated by graphviz version 2.43.0 (0)
 -->
<!-- Title: gadm Pages: 1 -->
<svg width="247pt" height="1292pt"
 viewBox="0.00 0.00 247.00 1292.00" xmlns="http://www.w3.org/2000/svg" xmlns:xlink="http://www.w3.org/1999/xlink">
<g id="graph0" class="graph" transform="scale(1 1) rotate(0) translate(4 1288)">
<title>gadm</title>
<polygon fill="#ffffff" stroke="transparent" points="-4,4 -4,-1288 243,-1288 243,4 -4,4"/>
<!-- gadm -->
<g id="node1" class="node">
<title>gadm</title>
<g id="a_node1"><a xlink:href="../../tables/gadm.html" xlink:title="gadm" target="_top">
<polygon fill="#ffffff" stroke="transparent" points="8,-4 8,-1280 231,-1280 231,-4 8,-4"/>
<polygon fill="#f5f5f5" stroke="transparent" points="10.5,-1256 10.5,-1278 229.5,-1278 229.5,-1256 10.5,-1256"/>
<polygon fill="none" stroke="black" points="10.5,-1256 10.5,-1278 229.5,-1278 229.5,-1256 10.5,-1256"/>
<text text-anchor="start" x="15.5" y="-1265.2" font-family="Helvetica,sans-Serif" font-weight="bold" font-size="11.00">gadm</text>
<text text-anchor="start" x="194.5" y="-1264.2" font-family="Helvetica,sans-Serif" font-size="11.00">[table]</text>
<polygon fill="none" stroke="black" points="10.5,-1234 10.5,-1256 111.5,-1256 111.5,-1234 10.5,-1234"/>
<image xlink:href="../../images/primaryKeys.png" width="11px" height="12px" preserveAspectRatio="xMinYMin meet" x="15.5" y="-1251"/>
<text text-anchor="start" x="30.5" y="-1242.2" font-family="Helvetica,sans-Serif" font-size="11.00">objectid</text>
<polygon fill="none" stroke="black" points="111.5,-1234 111.5,-1256 229.5,-1256 229.5,-1234 111.5,-1234"/>
<text text-anchor="start" x="114.5" y="-1242.2" font-family="Helvetica,sans-Serif" font-size="11.00">serial[10]</text>
<polygon fill="none" stroke="black" points="10.5,-1212 10.5,-1234 111.5,-1234 111.5,-1212 10.5,-1212"/>
<text text-anchor="start" x="30.5" y="-1220.2" font-family="Helvetica,sans-Serif" font-size="11.00">uid</text>
<polygon fill="none" stroke="black" points="111.5,-1212 111.5,-1234 229.5,-1234 229.5,-1212 111.5,-1212"/>
<text text-anchor="start" x="114.5" y="-1220.2" font-family="Helvetica,sans-Serif" font-size="11.00">int4[10]</text>
<polygon fill="none" stroke="black" points="10.5,-1190 10.5,-1212 111.5,-1212 111.5,-1190 10.5,-1190"/>
<text text-anchor="start" x="30.5" y="-1198.2" font-family="Helvetica,sans-Serif" font-size="11.00">gid_0</text>
<polygon fill="none" stroke="black" points="111.5,-1190 111.5,-1212 229.5,-1212 229.5,-1190 111.5,-1190"/>
<text text-anchor="start" x="114.5" y="-1198.2" font-family="Helvetica,sans-Serif" font-size="11.00">varchar[3]</text>
<polygon fill="none" stroke="black" points="10.5,-1168 10.5,-1190 111.5,-1190 111.5,-1168 10.5,-1168"/>
<text text-anchor="start" x="30.5" y="-1176.2" font-family="Helvetica,sans-Serif" font-size="11.00">name_0</text>
<polygon fill="none" stroke="black" points="111.5,-1168 111.5,-1190 229.5,-1190 229.5,-1168 111.5,-1168"/>
<text text-anchor="start" x="114.5" y="-1176.2" font-family="Helvetica,sans-Serif" font-size="11.00">varchar[44]</text>
<polygon fill="none" stroke="black" points="10.5,-1146 10.5,-1168 111.5,-1168 111.5,-1146 10.5,-1146"/>
<text text-anchor="start" x="30.5" y="-1154.2" font-family="Helvetica,sans-Serif" font-size="11.00">varname_0</text>
<polygon fill="none" stroke="black" points="111.5,-1146 111.5,-1168 229.5,-1168 229.5,-1146 111.5,-1146"/>
<text text-anchor="start" x="114.5" y="-1154.2" font-family="Helvetica,sans-Serif" font-size="11.00">varchar[29]</text>
<polygon fill="none" stroke="black" points="10.5,-1124 10.5,-1146 111.5,-1146 111.5,-1124 10.5,-1124"/>
<text text-anchor="start" x="30.5" y="-1132.2" font-family="Helvetica,sans-Serif" font-size="11.00">gid_1</text>
<polygon fill="none" stroke="black" points="111.5,-1124 111.5,-1146 229.5,-1146 229.5,-1124 111.5,-1124"/>
<text text-anchor="start" x="114.5" y="-1132.2" font-family="Helvetica,sans-Serif" font-size="11.00">varchar[8]</text>
<polygon fill="none" stroke="black" points="10.5,-1102 10.5,-1124 111.5,-1124 111.5,-1102 10.5,-1102"/>
<text text-anchor="start" x="30.5" y="-1110.2" font-family="Helvetica,sans-Serif" font-size="11.00">name_1</text>
<polygon fill="none" stroke="black" points="111.5,-1102 111.5,-1124 229.5,-1124 229.5,-1102 111.5,-1102"/>
<text text-anchor="start" x="114.5" y="-1110.2" font-family="Helvetica,sans-Serif" font-size="11.00">varchar[50]</text>
<polygon fill="none" stroke="black" points="10.5,-1080 10.5,-1102 111.5,-1102 111.5,-1080 10.5,-1080"/>
<text text-anchor="start" x="30.5" y="-1088.2" font-family="Helvetica,sans-Serif" font-size="11.00">varname_1</text>
<polygon fill="none" stroke="black" points="111.5,-1080 111.5,-1102 229.5,-1102 229.5,-1080 111.5,-1080"/>
<text text-anchor="start" x="114.5" y="-1088.2" font-family="Helvetica,sans-Serif" font-size="11.00">varchar[129]</text>
<polygon fill="none" stroke="black" points="10.5,-1058 10.5,-1080 111.5,-1080 111.5,-1058 10.5,-1058"/>
<text text-anchor="start" x="30.5" y="-1066.2" font-family="Helvetica,sans-Serif" font-size="11.00">nl_name_1</text>
<polygon fill="none" stroke="black" points="111.5,-1058 111.5,-1080 229.5,-1080 229.5,-1058 111.5,-1058"/>
<text text-anchor="start" x="114.5" y="-1066.2" font-family="Helvetica,sans-Serif" font-size="11.00">varchar[87]</text>
<polygon fill="none" stroke="black" points="10.5,-1036 10.5,-1058 111.5,-1058 111.5,-1036 10.5,-1036"/>
<text text-anchor="start" x="30.5" y="-1044.2" font-family="Helvetica,sans-Serif" font-size="11.00">iso_1</text>
<polygon fill="none" stroke="black" points="111.5,-1036 111.5,-1058 229.5,-1058 229.5,-1036 111.5,-1036"/>
<text text-anchor="start" x="114.5" y="-1044.2" font-family="Helvetica,sans-Serif" font-size="11.00">varchar[8]</text>
<polygon fill="none" stroke="black" points="10.5,-1014 10.5,-1036 111.5,-1036 111.5,-1014 10.5,-1014"/>
<text text-anchor="start" x="30.5" y="-1022.2" font-family="Helvetica,sans-Serif" font-size="11.00">hasc_1</text>
<polygon fill="none" stroke="black" points="111.5,-1014 111.5,-1036 229.5,-1036 229.5,-1014 111.5,-1014"/>
<text text-anchor="start" x="114.5" y="-1022.2" font-family="Helvetica,sans-Serif" font-size="11.00">varchar[10]</text>
<polygon fill="none" stroke="black" points="10.5,-992 10.5,-1014 111.5,-1014 111.5,-992 10.5,-992"/>
<text text-anchor="start" x="30.5" y="-1000.2" font-family="Helvetica,sans-Serif" font-size="11.00">cc_1</text>
<polygon fill="none" stroke="black" points="111.5,-992 111.5,-1014 229.5,-1014 229.5,-992 111.5,-992"/>
<text text-anchor="start" x="114.5" y="-1000.2" font-family="Helvetica,sans-Serif" font-size="11.00">varchar[9]</text>
<polygon fill="none" stroke="black" points="10.5,-970 10.5,-992 111.5,-992 111.5,-970 10.5,-970"/>
<text text-anchor="start" x="30.5" y="-978.2" font-family="Helvetica,sans-Serif" font-size="11.00">type_1</text>
<polygon fill="none" stroke="black" points="111.5,-970 111.5,-992 229.5,-992 229.5,-970 111.5,-970"/>
<text text-anchor="start" x="114.5" y="-978.2" font-family="Helvetica,sans-Serif" font-size="11.00">varchar[37]</text>
<polygon fill="none" stroke="black" points="10.5,-948 10.5,-970 111.5,-970 111.5,-948 10.5,-948"/>
<text text-anchor="start" x="30.5" y="-956.2" font-family="Helvetica,sans-Serif" font-size="11.00">engtype_1</text>
<polygon fill="none" stroke="black" points="111.5,-948 111.5,-970 229.5,-970 229.5,-948 111.5,-948"/>
<text text-anchor="start" x="114.5" y="-956.2" font-family="Helvetica,sans-Serif" font-size="11.00">varchar[37]</text>
<polygon fill="none" stroke="black" points="10.5,-926 10.5,-948 111.5,-948 111.5,-926 10.5,-926"/>
<text text-anchor="start" x="30.5" y="-934.2" font-family="Helvetica,sans-Serif" font-size="11.00">validfr_1</text>
<polygon fill="none" stroke="black" points="111.5,-926 111.5,-948 229.5,-948 229.5,-926 111.5,-926"/>
<text text-anchor="start" x="114.5" y="-934.2" font-family="Helvetica,sans-Serif" font-size="11.00">varchar[15]</text>
<polygon fill="none" stroke="black" points="10.5,-904 10.5,-926 111.5,-926 111.5,-904 10.5,-904"/>
<text text-anchor="start" x="30.5" y="-912.2" font-family="Helvetica,sans-Serif" font-size="11.00">gid_2</text>
<polygon fill="none" stroke="black" points="111.5,-904 111.5,-926 229.5,-926 229.5,-904 111.5,-904"/>
<text text-anchor="start" x="114.5" y="-912.2" font-family="Helvetica,sans-Serif" font-size="11.00">varchar[12]</text>
<polygon fill="none" stroke="black" points="10.5,-882 10.5,-904 111.5,-904 111.5,-882 10.5,-882"/>
<text text-anchor="start" x="30.5" y="-890.2" font-family="Helvetica,sans-Serif" font-size="11.00">name_2</text>
<polygon fill="none" stroke="black" points="111.5,-882 111.5,-904 229.5,-904 229.5,-882 111.5,-882"/>
<text text-anchor="start" x="114.5" y="-890.2" font-family="Helvetica,sans-Serif" font-size="11.00">varchar[51]</text>
<polygon fill="none" stroke="black" points="10.5,-860 10.5,-882 111.5,-882 111.5,-860 10.5,-860"/>
<text text-anchor="start" x="30.5" y="-868.2" font-family="Helvetica,sans-Serif" font-size="11.00">varname_2</text>
<polygon fill="none" stroke="black" points="111.5,-860 111.5,-882 229.5,-882 229.5,-860 111.5,-860"/>
<text text-anchor="start" x="114.5" y="-868.2" font-family="Helvetica,sans-Serif" font-size="11.00">varchar[116]</text>
<polygon fill="none" stroke="black" points="10.5,-838 10.5,-860 111.5,-860 111.5,-838 10.5,-838"/>
<text text-anchor="start" x="30.5" y="-846.2" font-family="Helvetica,sans-Serif" font-size="11.00">nl_name_2</text>
<polygon fill="none" stroke="black" points="111.5,-838 111.5,-860 229.5,-860 229.5,-838 111.5,-838"/>
<text text-anchor="start" x="114.5" y="-846.2" font-family="Helvetica,sans-Serif" font-size="11.00">varchar[75]</text>
<polygon fill="none" stroke="black" points="10.5,-816 10.5,-838 111.5,-838 111.5,-816 10.5,-816"/>
<text text-anchor="start" x="30.5" y="-824.2" font-family="Helvetica,sans-Serif" font-size="11.00">hasc_2</text>
<polygon fill="none" stroke="black" points="111.5,-816 111.5,-838 229.5,-838 229.5,-816 111.5,-816"/>
<text text-anchor="start" x="114.5" y="-824.2" font-family="Helvetica,sans-Serif" font-size="11.00">varchar[15]</text>
<polygon fill="none" stroke="black" points="10.5,-794 10.5,-816 111.5,-816 111.5,-794 10.5,-794"/>
<text text-anchor="start" x="30.5" y="-802.2" font-family="Helvetica,sans-Serif" font-size="11.00">cc_2</text>
<polygon fill="none" stroke="black" points="111.5,-794 111.5,-816 229.5,-816 229.5,-794 111.5,-794"/>
<text text-anchor="start" x="114.5" y="-802.2" font-family="Helvetica,sans-Serif" font-size="11.00">varchar[12]</text>
<polygon fill="none" stroke="black" points="10.5,-772 10.5,-794 111.5,-794 111.5,-772 10.5,-772"/>
<text text-anchor="start" x="30.5" y="-780.2" font-family="Helvetica,sans-Serif" font-size="11.00">type_2</text>
<polygon fill="none" stroke="black" points="111.5,-772 111.5,-794 229.5,-794 229.5,-772 111.5,-772"/>
<text text-anchor="start" x="114.5" y="-780.2" font-family="Helvetica,sans-Serif" font-size="11.00">varchar[43]</text>
<polygon fill="none" stroke="black" points="10.5,-750 10.5,-772 111.5,-772 111.5,-750 10.5,-750"/>
<text text-anchor="start" x="30.5" y="-758.2" font-family="Helvetica,sans-Serif" font-size="11.00">engtype_2</text>
<polygon fill="none" stroke="black" points="111.5,-750 111.5,-772 229.5,-772 229.5,-750 111.5,-750"/>
<text text-anchor="start" x="114.5" y="-758.2" font-family="Helvetica,sans-Serif" font-size="11.00">varchar[34]</text>
<polygon fill="none" stroke="black" points="10.5,-728 10.5,-750 111.5,-750 111.5,-728 10.5,-728"/>
<text text-anchor="start" x="30.5" y="-736.2" font-family="Helvetica,sans-Serif" font-size="11.00">validfr_2</text>
<polygon fill="none" stroke="black" points="111.5,-728 111.5,-750 229.5,-750 229.5,-728 111.5,-728"/>
<text text-anchor="start" x="114.5" y="-736.2" font-family="Helvetica,sans-Serif" font-size="11.00">varchar[15]</text>
<polygon fill="none" stroke="black" points="10.5,-706 10.5,-728 111.5,-728 111.5,-706 10.5,-706"/>
<text text-anchor="start" x="30.5" y="-714.2" font-family="Helvetica,sans-Serif" font-size="11.00">gid_3</text>
<polygon fill="none" stroke="black" points="111.5,-706 111.5,-728 229.5,-728 229.5,-706 111.5,-706"/>
<text text-anchor="start" x="114.5" y="-714.2" font-family="Helvetica,sans-Serif" font-size="11.00">varchar[15]</text>
<polygon fill="none" stroke="black" points="10.5,-684 10.5,-706 111.5,-706 111.5,-684 10.5,-684"/>
<text text-anchor="start" x="30.5" y="-692.2" font-family="Helvetica,sans-Serif" font-size="11.00">name_3</text>
<polygon fill="none" stroke="black" points="111.5,-684 111.5,-706 229.5,-706 229.5,-684 111.5,-684"/>
<text text-anchor="start" x="114.5" y="-692.2" font-family="Helvetica,sans-Serif" font-size="11.00">varchar[64]</text>
<polygon fill="none" stroke="black" points="10.5,-662 10.5,-684 111.5,-684 111.5,-662 10.5,-662"/>
<text text-anchor="start" x="30.5" y="-670.2" font-family="Helvetica,sans-Serif" font-size="11.00">varname_3</text>
<polygon fill="none" stroke="black" points="111.5,-662 111.5,-684 229.5,-684 229.5,-662 111.5,-662"/>
<text text-anchor="start" x="114.5" y="-670.2" font-family="Helvetica,sans-Serif" font-size="11.00">varchar[54]</text>
<polygon fill="none" stroke="black" points="10.5,-640 10.5,-662 111.5,-662 111.5,-640 10.5,-640"/>
<text text-anchor="start" x="30.5" y="-648.2" font-family="Helvetica,sans-Serif" font-size="11.00">nl_name_3</text>
<polygon fill="none" stroke="black" points="111.5,-640 111.5,-662 229.5,-662 229.5,-640 111.5,-640"/>
<text text-anchor="start" x="114.5" y="-648.2" font-family="Helvetica,sans-Serif" font-size="11.00">varchar[56]</text>
<polygon fill="none" stroke="black" points="10.5,-618 10.5,-640 111.5,-640 111.5,-618 10.5,-618"/>
<text text-anchor="start" x="30.5" y="-626.2" font-family="Helvetica,sans-Serif" font-size="11.00">hasc_3</text>
<polygon fill="none" stroke="black" points="111.5,-618 111.5,-640 229.5,-640 229.5,-618 111.5,-618"/>
<text text-anchor="start" x="114.5" y="-626.2" font-family="Helvetica,sans-Serif" font-size="11.00">varchar[27]</text>
<polygon fill="none" stroke="black" points="10.5,-596 10.5,-618 111.5,-618 111.5,-596 10.5,-596"/>
<text text-anchor="start" x="30.5" y="-604.2" font-family="Helvetica,sans-Serif" font-size="11.00">cc_3</text>
<polygon fill="none" stroke="black" points="111.5,-596 111.5,-618 229.5,-618 229.5,-596 111.5,-596"/>
<text text-anchor="start" x="114.5" y="-604.2" font-family="Helvetica,sans-Serif" font-size="11.00">varchar[9]</text>
<polygon fill="none" stroke="black" points="10.5,-574 10.5,-596 111.5,-596 111.5,-574 10.5,-574"/>
<text text-anchor="start" x="30.5" y="-582.2" font-family="Helvetica,sans-Serif" font-size="11.00">type_3</text>
<polygon fill="none" stroke="black" points="111.5,-574 111.5,-596 229.5,-596 229.5,-574 111.5,-574"/>
<text text-anchor="start" x="114.5" y="-582.2" font-family="Helvetica,sans-Serif" font-size="11.00">varchar[34]</text>
<polygon fill="none" stroke="black" points="10.5,-552 10.5,-574 111.5,-574 111.5,-552 10.5,-552"/>
<text text-anchor="start" x="30.5" y="-560.2" font-family="Helvetica,sans-Serif" font-size="11.00">engtype_3</text>
<polygon fill="none" stroke="black" points="111.5,-552 111.5,-574 229.5,-574 229.5,-552 111.5,-552"/>
<text text-anchor="start" x="114.5" y="-560.2" font-family="Helvetica,sans-Serif" font-size="11.00">varchar[34]</text>
<polygon fill="none" stroke="black" points="10.5,-530 10.5,-552 111.5,-552 111.5,-530 10.5,-530"/>
<text text-anchor="start" x="30.5" y="-538.2" font-family="Helvetica,sans-Serif" font-size="11.00">validfr_3</text>
<polygon fill="none" stroke="black" points="111.5,-530 111.5,-552 229.5,-552 229.5,-530 111.5,-530"/>
<text text-anchor="start" x="114.5" y="-538.2" font-family="Helvetica,sans-Serif" font-size="11.00">varchar[10]</text>
<polygon fill="none" stroke="black" points="10.5,-508 10.5,-530 111.5,-530 111.5,-508 10.5,-508"/>
<text text-anchor="start" x="30.5" y="-516.2" font-family="Helvetica,sans-Serif" font-size="11.00">gid_4</text>
<polygon fill="none" stroke="black" points="111.5,-508 111.5,-530 229.5,-530 229.5,-508 111.5,-508"/>
<text text-anchor="start" x="114.5" y="-516.2" font-family="Helvetica,sans-Serif" font-size="11.00">varchar[18]</text>
<polygon fill="none" stroke="black" points="10.5,-486 10.5,-508 111.5,-508 111.5,-486 10.5,-486"/>
<text text-anchor="start" x="30.5" y="-494.2" font-family="Helvetica,sans-Serif" font-size="11.00">name_4</text>
<polygon fill="none" stroke="black" points="111.5,-486 111.5,-508 229.5,-508 229.5,-486 111.5,-486"/>
<text text-anchor="start" x="114.5" y="-494.2" font-family="Helvetica,sans-Serif" font-size="11.00">varchar[98]</text>
<polygon fill="none" stroke="black" points="10.5,-464 10.5,-486 111.5,-486 111.5,-464 10.5,-464"/>
<text text-anchor="start" x="30.5" y="-472.2" font-family="Helvetica,sans-Serif" font-size="11.00">varname_4</text>
<polygon fill="none" stroke="black" points="111.5,-464 111.5,-486 229.5,-486 229.5,-464 111.5,-464"/>
<text text-anchor="start" x="114.5" y="-472.2" font-family="Helvetica,sans-Serif" font-size="11.00">varchar[54]</text>
<polygon fill="none" stroke="black" points="10.5,-442 10.5,-464 111.5,-464 111.5,-442 10.5,-442"/>
<text text-anchor="start" x="30.5" y="-450.2" font-family="Helvetica,sans-Serif" font-size="11.00">cc_4</text>
<polygon fill="none" stroke="black" points="111.5,-442 111.5,-464 229.5,-464 229.5,-442 111.5,-442"/>
<text text-anchor="start" x="114.5" y="-450.2" font-family="Helvetica,sans-Serif" font-size="11.00">varchar[12]</text>
<polygon fill="none" stroke="black" points="10.5,-420 10.5,-442 111.5,-442 111.5,-420 10.5,-420"/>
<text text-anchor="start" x="30.5" y="-428.2" font-family="Helvetica,sans-Serif" font-size="11.00">type_4</text>
<polygon fill="none" stroke="black" points="111.5,-420 111.5,-442 229.5,-442 229.5,-420 111.5,-420"/>
<text text-anchor="start" x="114.5" y="-428.2" font-family="Helvetica,sans-Serif" font-size="11.00">varchar[29]</text>
<polygon fill="none" stroke="black" points="10.5,-398 10.5,-420 111.5,-420 111.5,-398 10.5,-398"/>
<text text-anchor="start" x="30.5" y="-406.2" font-family="Helvetica,sans-Serif" font-size="11.00">engtype_4</text>
<polygon fill="none" stroke="black" points="111.5,-398 111.5,-420 229.5,-420 229.5,-398 111.5,-398"/>
<text text-anchor="start" x="114.5" y="-406.2" font-family="Helvetica,sans-Serif" font-size="11.00">varchar[29]</text>
<polygon fill="none" stroke="black" points="10.5,-376 10.5,-398 111.5,-398 111.5,-376 10.5,-376"/>
<text text-anchor="start" x="30.5" y="-384.2" font-family="Helvetica,sans-Serif" font-size="11.00">validfr_4</text>
<polygon fill="none" stroke="black" points="111.5,-376 111.5,-398 229.5,-398 229.5,-376 111.5,-376"/>
<text text-anchor="start" x="114.5" y="-384.2" font-family="Helvetica,sans-Serif" font-size="11.00">varchar[7]</text>
<polygon fill="none" stroke="black" points="10.5,-354 10.5,-376 111.5,-376 111.5,-354 10.5,-354"/>
<text text-anchor="start" x="30.5" y="-362.2" font-family="Helvetica,sans-Serif" font-size="11.00">gid_5</text>
<polygon fill="none" stroke="black" points="111.5,-354 111.5,-376 229.5,-376 229.5,-354 111.5,-354"/>
<text text-anchor="start" x="114.5" y="-362.2" font-family="Helvetica,sans-Serif" font-size="11.00">varchar[19]</text>
<polygon fill="none" stroke="black" points="10.5,-332 10.5,-354 111.5,-354 111.5,-332 10.5,-332"/>
<text text-anchor="start" x="30.5" y="-340.2" font-family="Helvetica,sans-Serif" font-size="11.00">name_5</text>
<polygon fill="none" stroke="black" points="111.5,-332 111.5,-354 229.5,-354 229.5,-332 111.5,-332"/>
<text text-anchor="start" x="114.5" y="-340.2" font-family="Helvetica,sans-Serif" font-size="11.00">varchar[45]</text>
<polygon fill="none" stroke="black" points="10.5,-310 10.5,-332 111.5,-332 111.5,-310 10.5,-310"/>
<text text-anchor="start" x="30.5" y="-318.2" font-family="Helvetica,sans-Serif" font-size="11.00">cc_5</text>
<polygon fill="none" stroke="black" points="111.5,-310 111.5,-332 229.5,-332 229.5,-310 111.5,-310"/>
<text text-anchor="start" x="114.5" y="-318.2" font-family="Helvetica,sans-Serif" font-size="11.00">varchar[15]</text>
<polygon fill="none" stroke="black" points="10.5,-288 10.5,-310 111.5,-310 111.5,-288 10.5,-288"/>
<text text-anchor="start" x="30.5" y="-296.2" font-family="Helvetica,sans-Serif" font-size="11.00">type_5</text>
<polygon fill="none" stroke="black" points="111.5,-288 111.5,-310 229.5,-310 229.5,-288 111.5,-288"/>
<text text-anchor="start" x="114.5" y="-296.2" font-family="Helvetica,sans-Serif" font-size="11.00">varchar[22]</text>
<polygon fill="none" stroke="black" points="10.5,-266 10.5,-288 111.5,-288 111.5,-266 10.5,-266"/>
<text text-anchor="start" x="30.5" y="-274.2" font-family="Helvetica,sans-Serif" font-size="11.00">engtype_5</text>
<polygon fill="none" stroke="black" points="111.5,-266 111.5,-288 229.5,-288 229.5,-266 111.5,-266"/>
<text text-anchor="start" x="114.5" y="-274.2" font-family="Helvetica,sans-Serif" font-size="11.00">varchar[255]</text>
<polygon fill="none" stroke="black" points="10.5,-244 10.5,-266 111.5,-266 111.5,-244 10.5,-244"/>
<text text-anchor="start" x="30.5" y="-252.2" font-family="Helvetica,sans-Serif" font-size="11.00">governedby</text>
<polygon fill="none" stroke="black" points="111.5,-244 111.5,-266 229.5,-266 229.5,-244 111.5,-244"/>
<text text-anchor="start" x="114.5" y="-252.2" font-family="Helvetica,sans-Serif" font-size="11.00">varchar[17]</text>
<polygon fill="none" stroke="black" points="10.5,-222 10.5,-244 111.5,-244 111.5,-222 10.5,-222"/>
<text text-anchor="start" x="30.5" y="-230.2" font-family="Helvetica,sans-Serif" font-size="11.00">sovereign</text>
<polygon fill="none" stroke="black" points="111.5,-222 111.5,-244 229.5,-244 229.5,-222 111.5,-222"/>
<text text-anchor="start" x="114.5" y="-230.2" font-family="Helvetica,sans-Serif" font-size="11.00">varchar[32]</text>
<polygon fill="none" stroke="black" points="10.5,-200 10.5,-222 111.5,-222 111.5,-200 10.5,-200"/>
<text text-anchor="start" x="30.5" y="-208.2" font-family="Helvetica,sans-Serif" font-size="11.00">disputedby</text>
<polygon fill="none" stroke="black" points="111.5,-200 111.5,-222 229.5,-222 229.5,-200 111.5,-200"/>
<text text-anchor="start" x="114.5" y="-208.2" font-family="Helvetica,sans-Serif" font-size="11.00">varchar[57]</text>
<polygon fill="none" stroke="black" points="10.5,-178 10.5,-200 111.5,-200 111.5,-178 10.5,-178"/>
<text text-anchor="start" x="30.5" y="-186.2" font-family="Helvetica,sans-Serif" font-size="11.00">region</text>
<polygon fill="none" stroke="black" points="111.5,-178 111.5,-200 229.5,-200 229.5,-178 111.5,-178"/>
<text text-anchor="start" x="114.5" y="-186.2" font-family="Helvetica,sans-Serif" font-size="11.00">varchar[36]</text>
<polygon fill="none" stroke="black" points="10.5,-156 10.5,-178 111.5,-178 111.5,-156 10.5,-156"/>
<text text-anchor="start" x="30.5" y="-164.2" font-family="Helvetica,sans-Serif" font-size="11.00">varregion</text>
<polygon fill="none" stroke="black" points="111.5,-156 111.5,-178 229.5,-178 229.5,-156 111.5,-156"/>
<text text-anchor="start" x="114.5" y="-164.2" font-family="Helvetica,sans-Serif" font-size="11.00">varchar[56]</text>
<polygon fill="none" stroke="black" points="10.5,-134 10.5,-156 111.5,-156 111.5,-134 10.5,-134"/>
<text text-anchor="start" x="30.5" y="-142.2" font-family="Helvetica,sans-Serif" font-size="11.00">country</text>
<polygon fill="none" stroke="black" points="111.5,-134 111.5,-156 229.5,-156 229.5,-134 111.5,-134"/>
<text text-anchor="start" x="114.5" y="-142.2" font-family="Helvetica,sans-Serif" font-size="11.00">varchar[60]</text>
<polygon fill="none" stroke="black" points="10.5,-112 10.5,-134 111.5,-134 111.5,-112 10.5,-112"/>
<text text-anchor="start" x="30.5" y="-120.2" font-family="Helvetica,sans-Serif" font-size="11.00">continent</text>
<polygon fill="none" stroke="black" points="111.5,-112 111.5,-134 229.5,-134 229.5,-112 111.5,-112"/>
<text text-anchor="start" x="114.5" y="-120.2" font-family="Helvetica,sans-Serif" font-size="11.00">varchar[15]</text>
<polygon fill="none" stroke="black" points="10.5,-90 10.5,-112 111.5,-112 111.5,-90 10.5,-90"/>
<text text-anchor="start" x="30.5" y="-98.2" font-family="Helvetica,sans-Serif" font-size="11.00">subcont</text>
<polygon fill="none" stroke="black" points="111.5,-90 111.5,-112 229.5,-112 229.5,-90 111.5,-90"/>
<text text-anchor="start" x="114.5" y="-98.2" font-family="Helvetica,sans-Serif" font-size="11.00">varchar[25]</text>
<polygon fill="none" stroke="black" points="10.5,-68 10.5,-90 111.5,-90 111.5,-68 10.5,-68"/>
<text text-anchor="start" x="30.5" y="-76.2" font-family="Helvetica,sans-Serif" font-size="11.00">shape_length</text>
<polygon fill="none" stroke="black" points="111.5,-68 111.5,-90 229.5,-90 229.5,-68 111.5,-68"/>
<text text-anchor="start" x="114.5" y="-76.2" font-family="Helvetica,sans-Serif" font-size="11.00">float8[17,17]</text>
<polygon fill="none" stroke="black" points="10.5,-46 10.5,-68 111.5,-68 111.5,-46 10.5,-46"/>
<text text-anchor="start" x="30.5" y="-54.2" font-family="Helvetica,sans-Serif" font-size="11.00">shape_area</text>
<polygon fill="none" stroke="black" points="111.5,-46 111.5,-68 229.5,-68 229.5,-46 111.5,-46"/>
<text text-anchor="start" x="114.5" y="-54.2" font-family="Helvetica,sans-Serif" font-size="11.00">float8[17,17]</text>
<polygon fill="#ffffff" stroke="transparent" points="10.5,-24 10.5,-46 111.5,-46 111.5,-24 10.5,-24"/>
<polygon fill="none" stroke="black" points="10.5,-24 10.5,-46 111.5,-46 111.5,-24 10.5,-24"/>
<text text-anchor="start" x="30.5" y="-32.2" font-family="Helvetica,sans-Serif" font-size="11.00">shape</text>
<polygon fill="none" stroke="black" points="111.5,-24 111.5,-46 229.5,-46 229.5,-24 111.5,-24"/>
<text text-anchor="start" x="114.5" y="-32.2" font-family="Helvetica,sans-Serif" font-size="11.00">geometry[2147483647]</text>
<polygon fill="#ffffff" stroke="transparent" points="10.5,-6 10.5,-24 35.5,-24 35.5,-6 10.5,-6"/>
<polygon fill="none" stroke="black" points="10.5,-6 10.5,-24 35.5,-24 35.5,-6 10.5,-6"/>
<text text-anchor="start" x="13.5" y="-12.2" font-family="Helvetica,sans-Serif" font-size="11.00">&lt; 0</text>
<polygon fill="#ffffff" stroke="transparent" points="35.5,-6 35.5,-24 111.5,-24 111.5,-6 35.5,-6"/>
<polygon fill="none" stroke="black" points="35.5,-6 35.5,-24 111.5,-24 111.5,-6 35.5,-6"/>
<text text-anchor="start" x="42.5" y="-12.2" font-family="Helvetica,sans-Serif" font-size="11.00">356,508 rows</text>
<polygon fill="#ffffff" stroke="transparent" points="111.5,-6 111.5,-24 229.5,-24 229.5,-6 111.5,-6"/>
<polygon fill="none" stroke="black" points="111.5,-6 111.5,-24 229.5,-24 229.5,-6 111.5,-6"/>
<text text-anchor="start" x="210.5" y="-12.2" font-family="Helvetica,sans-Serif" font-size="11.00">0 &gt;</text>
<polygon fill="none" stroke="black" stroke-width="2" points="9,-5 9,-1279 230,-1279 230,-5 9,-5"/>
</a>
</g>
</g>
</g>
</svg>
