<?xml version="1.0" encoding="UTF-8" standalone="no"?>
<!DOCTYPE svg PUBLIC "-//W3C//DTD SVG 1.1//EN"
 "http://www.w3.org/Graphics/SVG/1.1/DTD/svg11.dtd">
<!-- Generated by graphviz version 2.43.0 (0)
 -->
<!-- Title: icesheets Pages: 1 -->
<svg width="228pt" height="236pt"
 viewBox="0.00 0.00 228.00 236.00" xmlns="http://www.w3.org/2000/svg" xmlns:xlink="http://www.w3.org/1999/xlink">
<g id="graph0" class="graph" transform="scale(1 1) rotate(0) translate(4 232)">
<title>icesheets</title>
<polygon fill="#ffffff" stroke="transparent" points="-4,4 -4,-232 224,-232 224,4 -4,4"/>
<!-- icesheets -->
<g id="node1" class="node">
<title>icesheets</title>
<g id="a_node1"><a xlink:href="../../tables/icesheets.html" xlink:title="icesheets" target="_top">
<polygon fill="#ffffff" stroke="transparent" points="8,-4 8,-224 212,-224 212,-4 8,-4"/>
<polygon fill="#f5f5f5" stroke="transparent" points="10,-200 10,-222 210,-222 210,-200 10,-200"/>
<polygon fill="none" stroke="black" points="10,-200 10,-222 210,-222 210,-200 10,-200"/>
<text text-anchor="start" x="15" y="-209.2" font-family="Helvetica,sans-Serif" font-weight="bold" font-size="11.00">icesheets</text>
<text text-anchor="start" x="175" y="-208.2" font-family="Helvetica,sans-Serif" font-size="11.00">[table]</text>
<polygon fill="none" stroke="black" points="10,-178 10,-200 92,-200 92,-178 10,-178"/>
<image xlink:href="../../images/primaryKeys.png" width="11px" height="12px" preserveAspectRatio="xMinYMin meet" x="15" y="-195"/>
<text text-anchor="start" x="32" y="-186.2" font-family="Helvetica,sans-Serif" font-size="11.00">gid</text>
<polygon fill="none" stroke="black" points="92,-178 92,-200 210,-200 210,-178 92,-178"/>
<text text-anchor="start" x="95" y="-186.2" font-family="Helvetica,sans-Serif" font-size="11.00">serial[10]</text>
<polygon fill="none" stroke="black" points="10,-156 10,-178 92,-178 92,-156 10,-156"/>
<text text-anchor="start" x="32" y="-164.2" font-family="Helvetica,sans-Serif" font-size="11.00">area_km2</text>
<polygon fill="none" stroke="black" points="92,-156 92,-178 210,-178 210,-156 92,-156"/>
<text text-anchor="start" x="95" y="-164.2" font-family="Helvetica,sans-Serif" font-size="11.00">numeric[131089]</text>
<polygon fill="#ffffff" stroke="transparent" points="10,-134 10,-156 92,-156 92,-134 10,-134"/>
<polygon fill="none" stroke="black" points="10,-134 10,-156 92,-156 92,-134 10,-134"/>
<text text-anchor="start" x="32" y="-142.2" font-family="Helvetica,sans-Serif" font-size="11.00">geom</text>
<polygon fill="none" stroke="black" points="92,-134 92,-156 210,-156 210,-134 92,-134"/>
<text text-anchor="start" x="95" y="-142.2" font-family="Helvetica,sans-Serif" font-size="11.00">geometry[2147483647]</text>
<polygon fill="none" stroke="black" points="10,-112 10,-134 92,-134 92,-112 10,-112"/>
<text text-anchor="start" x="32" y="-120.2" font-family="Helvetica,sans-Serif" font-size="11.00">age</text>
<polygon fill="none" stroke="black" points="92,-112 92,-134 210,-134 210,-112 92,-112"/>
<text text-anchor="start" x="95" y="-120.2" font-family="Helvetica,sans-Serif" font-size="11.00">int4[10]</text>
<polygon fill="none" stroke="black" points="10,-90 10,-112 92,-112 92,-90 10,-90"/>
<text text-anchor="start" x="32" y="-98.2" font-family="Helvetica,sans-Serif" font-size="11.00">ka</text>
<polygon fill="none" stroke="black" points="92,-90 92,-112 210,-112 210,-90 92,-90"/>
<text text-anchor="start" x="95" y="-98.2" font-family="Helvetica,sans-Serif" font-size="11.00">numeric[131089]</text>
<polygon fill="none" stroke="black" points="10,-68 10,-90 92,-90 92,-68 10,-68"/>
<text text-anchor="start" x="32" y="-76.2" font-family="Helvetica,sans-Serif" font-size="11.00">cal</text>
<polygon fill="none" stroke="black" points="92,-68 92,-90 210,-90 210,-68 92,-68"/>
<text text-anchor="start" x="95" y="-76.2" font-family="Helvetica,sans-Serif" font-size="11.00">numeric[131089]</text>
<polygon fill="none" stroke="black" points="10,-46 10,-68 92,-68 92,-46 10,-46"/>
<text text-anchor="start" x="32" y="-54.2" font-family="Helvetica,sans-Serif" font-size="11.00">symb</text>
<polygon fill="none" stroke="black" points="92,-46 92,-68 210,-68 210,-46 92,-46"/>
<text text-anchor="start" x="95" y="-54.2" font-family="Helvetica,sans-Serif" font-size="11.00">varchar[10]</text>
<polygon fill="none" stroke="black" points="10,-24 10,-46 92,-46 92,-24 10,-24"/>
<text text-anchor="start" x="32" y="-32.2" font-family="Helvetica,sans-Serif" font-size="11.00">calage</text>
<polygon fill="none" stroke="black" points="92,-24 92,-46 210,-46 210,-24 92,-24"/>
<text text-anchor="start" x="95" y="-32.2" font-family="Helvetica,sans-Serif" font-size="11.00">int4[10]</text>
<polygon fill="#ffffff" stroke="transparent" points="10,-6 10,-24 32,-24 32,-6 10,-6"/>
<polygon fill="none" stroke="black" points="10,-6 10,-24 32,-24 32,-6 10,-6"/>
<text text-anchor="start" x="13" y="-12.2" font-family="Helvetica,sans-Serif" font-size="11.00">&lt; 0</text>
<polygon fill="#ffffff" stroke="transparent" points="32,-6 32,-24 92,-24 92,-6 32,-6"/>
<polygon fill="none" stroke="black" points="32,-6 32,-24 92,-24 92,-6 32,-6"/>
<text text-anchor="start" x="35" y="-12.2" font-family="Helvetica,sans-Serif" font-size="11.00">6,738 rows</text>
<polygon fill="#ffffff" stroke="transparent" points="92,-6 92,-24 210,-24 210,-6 92,-6"/>
<polygon fill="none" stroke="black" points="92,-6 92,-24 210,-24 210,-6 92,-6"/>
<text text-anchor="start" x="191" y="-12.2" font-family="Helvetica,sans-Serif" font-size="11.00">0 &gt;</text>
<polygon fill="none" stroke="black" stroke-width="2" points="9,-5 9,-223 211,-223 211,-5 9,-5"/>
</a>
</g>
</g>
</g>
</svg>
