<?xml version="1.0" encoding="UTF-8" standalone="no"?>
<!DOCTYPE svg PUBLIC "-//W3C//DTD SVG 1.1//EN"
 "http://www.w3.org/Graphics/SVG/1.1/DTD/svg11.dtd">
<!-- Generated by graphviz version 2.43.0 (0)
 -->
<!-- Title: icesheets Pages: 1 -->
<svg width="225pt" height="236pt"
 viewBox="0.00 0.00 225.00 236.00" xmlns="http://www.w3.org/2000/svg" xmlns:xlink="http://www.w3.org/1999/xlink">
<g id="graph0" class="graph" transform="scale(1 1) rotate(0) translate(4 232)">
<title>icesheets</title>
<polygon fill="#ffffff" stroke="transparent" points="-4,4 -4,-232 221,-232 221,4 -4,4"/>
<!-- icesheets -->
<g id="node1" class="node">
<title>icesheets</title>
<g id="a_node1"><a xlink:href="../../tables/icesheets.html" xlink:title="icesheets" target="_top">
<polygon fill="#ffffff" stroke="transparent" points="8,-4 8,-224 209,-224 209,-4 8,-4"/>
<polygon fill="#f5f5f5" stroke="transparent" points="10.5,-200 10.5,-222 207.5,-222 207.5,-200 10.5,-200"/>
<polygon fill="none" stroke="black" points="10.5,-200 10.5,-222 207.5,-222 207.5,-200 10.5,-200"/>
<text text-anchor="start" x="15.5" y="-209.2" font-family="Helvetica,sans-Serif" font-weight="bold" font-size="11.00">icesheets</text>
<text text-anchor="start" x="172.5" y="-208.2" font-family="Helvetica,sans-Serif" font-size="11.00">[table]</text>
<polygon fill="none" stroke="black" points="10.5,-178 10.5,-200 89.5,-200 89.5,-178 10.5,-178"/>
<image xlink:href="../../images/primaryKeys.png" width="11px" height="12px" preserveAspectRatio="xMinYMin meet" x="15.5" y="-195"/>
<text text-anchor="start" x="30.5" y="-186.2" font-family="Helvetica,sans-Serif" font-size="11.00">gid</text>
<polygon fill="none" stroke="black" points="89.5,-178 89.5,-200 207.5,-200 207.5,-178 89.5,-178"/>
<text text-anchor="start" x="92.5" y="-186.2" font-family="Helvetica,sans-Serif" font-size="11.00">serial[10]</text>
<polygon fill="none" stroke="black" points="10.5,-156 10.5,-178 89.5,-178 89.5,-156 10.5,-156"/>
<text text-anchor="start" x="30.5" y="-164.2" font-family="Helvetica,sans-Serif" font-size="11.00">area_km2</text>
<polygon fill="none" stroke="black" points="89.5,-156 89.5,-178 207.5,-178 207.5,-156 89.5,-156"/>
<text text-anchor="start" x="92.5" y="-164.2" font-family="Helvetica,sans-Serif" font-size="11.00">numeric[131089]</text>
<polygon fill="#ffffff" stroke="transparent" points="10.5,-134 10.5,-156 89.5,-156 89.5,-134 10.5,-134"/>
<polygon fill="none" stroke="black" points="10.5,-134 10.5,-156 89.5,-156 89.5,-134 10.5,-134"/>
<text text-anchor="start" x="30.5" y="-142.2" font-family="Helvetica,sans-Serif" font-size="11.00">geom</text>
<polygon fill="none" stroke="black" points="89.5,-134 89.5,-156 207.5,-156 207.5,-134 89.5,-134"/>
<text text-anchor="start" x="92.5" y="-142.2" font-family="Helvetica,sans-Serif" font-size="11.00">geometry[2147483647]</text>
<polygon fill="none" stroke="black" points="10.5,-112 10.5,-134 89.5,-134 89.5,-112 10.5,-112"/>
<text text-anchor="start" x="30.5" y="-120.2" font-family="Helvetica,sans-Serif" font-size="11.00">age</text>
<polygon fill="none" stroke="black" points="89.5,-112 89.5,-134 207.5,-134 207.5,-112 89.5,-112"/>
<text text-anchor="start" x="92.5" y="-120.2" font-family="Helvetica,sans-Serif" font-size="11.00">int4[10]</text>
<polygon fill="none" stroke="black" points="10.5,-90 10.5,-112 89.5,-112 89.5,-90 10.5,-90"/>
<text text-anchor="start" x="30.5" y="-98.2" font-family="Helvetica,sans-Serif" font-size="11.00">ka</text>
<polygon fill="none" stroke="black" points="89.5,-90 89.5,-112 207.5,-112 207.5,-90 89.5,-90"/>
<text text-anchor="start" x="92.5" y="-98.2" font-family="Helvetica,sans-Serif" font-size="11.00">numeric[131089]</text>
<polygon fill="none" stroke="black" points="10.5,-68 10.5,-90 89.5,-90 89.5,-68 10.5,-68"/>
<text text-anchor="start" x="30.5" y="-76.2" font-family="Helvetica,sans-Serif" font-size="11.00">cal</text>
<polygon fill="none" stroke="black" points="89.5,-68 89.5,-90 207.5,-90 207.5,-68 89.5,-68"/>
<text text-anchor="start" x="92.5" y="-76.2" font-family="Helvetica,sans-Serif" font-size="11.00">numeric[131089]</text>
<polygon fill="none" stroke="black" points="10.5,-46 10.5,-68 89.5,-68 89.5,-46 10.5,-46"/>
<text text-anchor="start" x="30.5" y="-54.2" font-family="Helvetica,sans-Serif" font-size="11.00">symb</text>
<polygon fill="none" stroke="black" points="89.5,-46 89.5,-68 207.5,-68 207.5,-46 89.5,-46"/>
<text text-anchor="start" x="92.5" y="-54.2" font-family="Helvetica,sans-Serif" font-size="11.00">varchar[10]</text>
<polygon fill="none" stroke="black" points="10.5,-24 10.5,-46 89.5,-46 89.5,-24 10.5,-24"/>
<text text-anchor="start" x="30.5" y="-32.2" font-family="Helvetica,sans-Serif" font-size="11.00">calage</text>
<polygon fill="none" stroke="black" points="89.5,-24 89.5,-46 207.5,-46 207.5,-24 89.5,-24"/>
<text text-anchor="start" x="92.5" y="-32.2" font-family="Helvetica,sans-Serif" font-size="11.00">int4[10]</text>
<polygon fill="#ffffff" stroke="transparent" points="10.5,-6 10.5,-24 54.5,-24 54.5,-6 10.5,-6"/>
<polygon fill="none" stroke="black" points="10.5,-6 10.5,-24 54.5,-24 54.5,-6 10.5,-6"/>
<text text-anchor="start" x="13.5" y="-12.2" font-family="Helvetica,sans-Serif" font-size="11.00">&lt; 0</text>
<polygon fill="#ffffff" stroke="transparent" points="54.5,-6 54.5,-24 89.5,-24 89.5,-6 54.5,-6"/>
<polygon fill="none" stroke="black" points="54.5,-6 54.5,-24 89.5,-24 89.5,-6 54.5,-6"/>
<text text-anchor="start" x="79.5" y="-12.2" font-family="Helvetica,sans-Serif" font-size="11.00"> &#160;</text>
<polygon fill="#ffffff" stroke="transparent" points="89.5,-6 89.5,-24 207.5,-24 207.5,-6 89.5,-6"/>
<polygon fill="none" stroke="black" points="89.5,-6 89.5,-24 207.5,-24 207.5,-6 89.5,-6"/>
<text text-anchor="start" x="188.5" y="-12.2" font-family="Helvetica,sans-Serif" font-size="11.00">0 &gt;</text>
<polygon fill="none" stroke="black" stroke-width="2" points="9,-5 9,-223 208,-223 208,-5 9,-5"/>
</a>
</g>
</g>
</g>
</svg>
