<?xml version="1.0" encoding="UTF-8" standalone="no"?>
<!DOCTYPE svg PUBLIC "-//W3C//DTD SVG 1.1//EN"
 "http://www.w3.org/Graphics/SVG/1.1/DTD/svg11.dtd">
<!-- Generated by graphviz version 2.43.0 (0)
 -->
<!-- Title: pollensumgroups Pages: 1 -->
<svg width="208pt" height="126pt"
 viewBox="0.00 0.00 208.00 126.00" xmlns="http://www.w3.org/2000/svg" xmlns:xlink="http://www.w3.org/1999/xlink">
<g id="graph0" class="graph" transform="scale(1 1) rotate(0) translate(4 122)">
<title>pollensumgroups</title>
<polygon fill="#ffffff" stroke="transparent" points="-4,4 -4,-122 204,-122 204,4 -4,4"/>
<!-- pollensumgroups -->
<g id="node1" class="node">
<title>pollensumgroups</title>
<g id="a_node1"><a xlink:href="../../tables/pollensumgroups.html" xlink:title="pollensumgroups" target="_top">
<polygon fill="#ffffff" stroke="transparent" points="8,-4 8,-114 192,-114 192,-4 8,-4"/>
<polygon fill="#f5f5f5" stroke="transparent" points="10,-90 10,-112 190,-112 190,-90 10,-90"/>
<polygon fill="none" stroke="black" points="10,-90 10,-112 190,-112 190,-90 10,-90"/>
<text text-anchor="start" x="15" y="-99.2" font-family="Helvetica,sans-Serif" font-weight="bold" font-size="11.00">pollensumgroups</text>
<text text-anchor="start" x="155" y="-98.2" font-family="Helvetica,sans-Serif" font-size="11.00">[table]</text>
<polygon fill="none" stroke="black" points="10,-68 10,-90 135,-90 135,-68 10,-68"/>
<image xlink:href="../../images/primaryKeys.png" width="11px" height="12px" preserveAspectRatio="xMinYMin meet" x="15" y="-85"/>
<text text-anchor="start" x="30" y="-76.2" font-family="Helvetica,sans-Serif" font-size="11.00">recid</text>
<polygon fill="none" stroke="black" points="135,-68 135,-90 190,-90 190,-68 135,-68"/>
<text text-anchor="start" x="138" y="-76.2" font-family="Helvetica,sans-Serif" font-size="11.00">int4[10]</text>
<polygon fill="none" stroke="black" points="10,-46 10,-68 135,-68 135,-46 10,-46"/>
<text text-anchor="start" x="30" y="-54.2" font-family="Helvetica,sans-Serif" font-size="11.00">ecolgroupid</text>
<polygon fill="none" stroke="black" points="135,-46 135,-68 190,-68 190,-46 135,-46"/>
<text text-anchor="start" x="138" y="-54.2" font-family="Helvetica,sans-Serif" font-size="11.00">varchar[4]</text>
<polygon fill="none" stroke="black" points="10,-24 10,-46 135,-46 135,-24 10,-24"/>
<text text-anchor="start" x="30" y="-32.2" font-family="Helvetica,sans-Serif" font-size="11.00">sumgroupid</text>
<polygon fill="none" stroke="black" points="135,-24 135,-46 190,-46 190,-24 135,-24"/>
<text text-anchor="start" x="138" y="-32.2" font-family="Helvetica,sans-Serif" font-size="11.00">int4[10]</text>
<polygon fill="#ffffff" stroke="transparent" points="10,-6 10,-24 61,-24 61,-6 10,-6"/>
<polygon fill="none" stroke="black" points="10,-6 10,-24 61,-24 61,-6 10,-6"/>
<text text-anchor="start" x="13" y="-12.2" font-family="Helvetica,sans-Serif" font-size="11.00">&lt; 0</text>
<polygon fill="#ffffff" stroke="transparent" points="61,-6 61,-24 135,-24 135,-6 61,-6"/>
<polygon fill="none" stroke="black" points="61,-6 61,-24 135,-24 135,-6 61,-6"/>
<text text-anchor="start" x="93" y="-12.2" font-family="Helvetica,sans-Serif" font-size="11.00">13 rows</text>
<polygon fill="#ffffff" stroke="transparent" points="135,-6 135,-24 190,-24 190,-6 135,-6"/>
<polygon fill="none" stroke="black" points="135,-6 135,-24 190,-24 190,-6 135,-6"/>
<text text-anchor="start" x="171" y="-12.2" font-family="Helvetica,sans-Serif" font-size="11.00">0 &gt;</text>
<polygon fill="none" stroke="black" stroke-width="2" points="9,-5 9,-113 191,-113 191,-5 9,-5"/>
</a>
</g>
</g>
</g>
</svg>
