<?xml version="1.0" encoding="UTF-8" standalone="no"?>
<!DOCTYPE svg PUBLIC "-//W3C//DTD SVG 1.1//EN"
 "http://www.w3.org/Graphics/SVG/1.1/DTD/svg11.dtd">
<!-- Generated by graphviz version 2.43.0 (0)
 -->
<!-- Title: pollensums Pages: 1 -->
<svg width="188pt" height="390pt"
 viewBox="0.00 0.00 188.00 390.00" xmlns="http://www.w3.org/2000/svg" xmlns:xlink="http://www.w3.org/1999/xlink">
<g id="graph0" class="graph" transform="scale(1 1) rotate(0) translate(4 386)">
<title>pollensums</title>
<polygon fill="#ffffff" stroke="transparent" points="-4,4 -4,-386 184,-386 184,4 -4,4"/>
<!-- pollensums -->
<g id="node1" class="node">
<title>pollensums</title>
<g id="a_node1"><a xlink:href="../../tables/pollensums.html" xlink:title="pollensums" target="_top">
<polygon fill="#ffffff" stroke="transparent" points="8,-4 8,-378 172,-378 172,-4 8,-4"/>
<polygon fill="#f5f5f5" stroke="transparent" points="10,-354 10,-376 170,-376 170,-354 10,-354"/>
<polygon fill="none" stroke="black" points="10,-354 10,-376 170,-376 170,-354 10,-354"/>
<text text-anchor="start" x="15" y="-363.2" font-family="Helvetica,sans-Serif" font-weight="bold" font-size="11.00">pollensums</text>
<text text-anchor="start" x="135" y="-362.2" font-family="Helvetica,sans-Serif" font-size="11.00">[table]</text>
<polygon fill="none" stroke="black" points="10,-332 10,-354 104,-354 104,-332 10,-332"/>
<text text-anchor="start" x="33" y="-340.2" font-family="Helvetica,sans-Serif" font-size="11.00">sampleid</text>
<polygon fill="none" stroke="black" points="104,-332 104,-354 170,-354 170,-332 104,-332"/>
<text text-anchor="start" x="107" y="-340.2" font-family="Helvetica,sans-Serif" font-size="11.00">int4[10]</text>
<polygon fill="none" stroke="black" points="10,-310 10,-332 104,-332 104,-310 10,-310"/>
<text text-anchor="start" x="33" y="-318.2" font-family="Helvetica,sans-Serif" font-size="11.00">trsh</text>
<polygon fill="none" stroke="black" points="104,-310 104,-332 170,-332 170,-310 104,-310"/>
<text text-anchor="start" x="107" y="-318.2" font-family="Helvetica,sans-Serif" font-size="11.00">float8[17,17]</text>
<polygon fill="none" stroke="black" points="10,-288 10,-310 104,-310 104,-288 10,-288"/>
<text text-anchor="start" x="33" y="-296.2" font-family="Helvetica,sans-Serif" font-size="11.00">palm</text>
<polygon fill="none" stroke="black" points="104,-288 104,-310 170,-310 170,-288 104,-288"/>
<text text-anchor="start" x="107" y="-296.2" font-family="Helvetica,sans-Serif" font-size="11.00">float8[17,17]</text>
<polygon fill="none" stroke="black" points="10,-266 10,-288 104,-288 104,-266 10,-266"/>
<text text-anchor="start" x="33" y="-274.2" font-family="Helvetica,sans-Serif" font-size="11.00">uphe</text>
<polygon fill="none" stroke="black" points="104,-266 104,-288 170,-288 170,-266 104,-266"/>
<text text-anchor="start" x="107" y="-274.2" font-family="Helvetica,sans-Serif" font-size="11.00">float8[17,17]</text>
<polygon fill="none" stroke="black" points="10,-244 10,-266 104,-266 104,-244 10,-244"/>
<text text-anchor="start" x="33" y="-252.2" font-family="Helvetica,sans-Serif" font-size="11.00">succ</text>
<polygon fill="none" stroke="black" points="104,-244 104,-266 170,-266 170,-244 104,-244"/>
<text text-anchor="start" x="107" y="-252.2" font-family="Helvetica,sans-Serif" font-size="11.00">float8[17,17]</text>
<polygon fill="none" stroke="black" points="10,-222 10,-244 104,-244 104,-222 10,-222"/>
<text text-anchor="start" x="33" y="-230.2" font-family="Helvetica,sans-Serif" font-size="11.00">vacr</text>
<polygon fill="none" stroke="black" points="104,-222 104,-244 170,-244 170,-222 104,-222"/>
<text text-anchor="start" x="107" y="-230.2" font-family="Helvetica,sans-Serif" font-size="11.00">float8[17,17]</text>
<polygon fill="none" stroke="black" points="10,-200 10,-222 104,-222 104,-200 10,-200"/>
<text text-anchor="start" x="33" y="-208.2" font-family="Helvetica,sans-Serif" font-size="11.00">upbr</text>
<polygon fill="none" stroke="black" points="104,-200 104,-222 170,-222 170,-200 104,-200"/>
<text text-anchor="start" x="107" y="-208.2" font-family="Helvetica,sans-Serif" font-size="11.00">float8[17,17]</text>
<polygon fill="none" stroke="black" points="10,-178 10,-200 104,-200 104,-178 10,-178"/>
<text text-anchor="start" x="33" y="-186.2" font-family="Helvetica,sans-Serif" font-size="11.00">fung</text>
<polygon fill="none" stroke="black" points="104,-178 104,-200 170,-200 170,-178 104,-178"/>
<text text-anchor="start" x="107" y="-186.2" font-family="Helvetica,sans-Serif" font-size="11.00">float8[17,17]</text>
<polygon fill="none" stroke="black" points="10,-156 10,-178 104,-178 104,-156 10,-156"/>
<text text-anchor="start" x="33" y="-164.2" font-family="Helvetica,sans-Serif" font-size="11.00">aqvp</text>
<polygon fill="none" stroke="black" points="104,-156 104,-178 170,-178 170,-156 104,-156"/>
<text text-anchor="start" x="107" y="-164.2" font-family="Helvetica,sans-Serif" font-size="11.00">float8[17,17]</text>
<polygon fill="none" stroke="black" points="10,-134 10,-156 104,-156 104,-134 10,-134"/>
<text text-anchor="start" x="33" y="-142.2" font-family="Helvetica,sans-Serif" font-size="11.00">aqbr</text>
<polygon fill="none" stroke="black" points="104,-134 104,-156 170,-156 170,-134 104,-134"/>
<text text-anchor="start" x="107" y="-142.2" font-family="Helvetica,sans-Serif" font-size="11.00">float8[17,17]</text>
<polygon fill="none" stroke="black" points="10,-112 10,-134 104,-134 104,-112 10,-112"/>
<text text-anchor="start" x="33" y="-120.2" font-family="Helvetica,sans-Serif" font-size="11.00">mang</text>
<polygon fill="none" stroke="black" points="104,-112 104,-134 170,-134 170,-112 104,-112"/>
<text text-anchor="start" x="107" y="-120.2" font-family="Helvetica,sans-Serif" font-size="11.00">float8[17,17]</text>
<polygon fill="none" stroke="black" points="10,-90 10,-112 104,-112 104,-90 10,-90"/>
<text text-anchor="start" x="33" y="-98.2" font-family="Helvetica,sans-Serif" font-size="11.00">unid</text>
<polygon fill="none" stroke="black" points="104,-90 104,-112 170,-112 170,-90 104,-90"/>
<text text-anchor="start" x="107" y="-98.2" font-family="Helvetica,sans-Serif" font-size="11.00">float8[17,17]</text>
<polygon fill="none" stroke="black" points="10,-68 10,-90 104,-90 104,-68 10,-68"/>
<text text-anchor="start" x="33" y="-76.2" font-family="Helvetica,sans-Serif" font-size="11.00">anac</text>
<polygon fill="none" stroke="black" points="104,-68 104,-90 170,-90 170,-68 104,-68"/>
<text text-anchor="start" x="107" y="-76.2" font-family="Helvetica,sans-Serif" font-size="11.00">float8[17,17]</text>
<polygon fill="none" stroke="black" points="10,-46 10,-68 104,-68 104,-46 10,-46"/>
<text text-anchor="start" x="33" y="-54.2" font-family="Helvetica,sans-Serif" font-size="11.00">seed</text>
<polygon fill="none" stroke="black" points="104,-46 104,-68 170,-68 170,-46 104,-46"/>
<text text-anchor="start" x="107" y="-54.2" font-family="Helvetica,sans-Serif" font-size="11.00">float8[17,17]</text>
<polygon fill="none" stroke="black" points="10,-24 10,-46 104,-46 104,-24 10,-24"/>
<text text-anchor="start" x="33" y="-32.2" font-family="Helvetica,sans-Serif" font-size="11.00">total</text>
<polygon fill="none" stroke="black" points="104,-24 104,-46 170,-46 170,-24 104,-24"/>
<text text-anchor="start" x="107" y="-32.2" font-family="Helvetica,sans-Serif" font-size="11.00">float8[17,17]</text>
<polygon fill="#ffffff" stroke="transparent" points="10,-6 10,-24 32,-24 32,-6 10,-6"/>
<polygon fill="none" stroke="black" points="10,-6 10,-24 32,-24 32,-6 10,-6"/>
<text text-anchor="start" x="13" y="-12.2" font-family="Helvetica,sans-Serif" font-size="11.00">&lt; 0</text>
<polygon fill="#ffffff" stroke="transparent" points="32,-6 32,-24 104,-24 104,-6 32,-6"/>
<polygon fill="none" stroke="black" points="32,-6 32,-24 104,-24 104,-6 32,-6"/>
<text text-anchor="start" x="35" y="-12.2" font-family="Helvetica,sans-Serif" font-size="11.00">101,656 rows</text>
<polygon fill="#ffffff" stroke="transparent" points="104,-6 104,-24 170,-24 170,-6 104,-6"/>
<polygon fill="none" stroke="black" points="104,-6 104,-24 170,-24 170,-6 104,-6"/>
<text text-anchor="start" x="151" y="-12.2" font-family="Helvetica,sans-Serif" font-size="11.00">0 &gt;</text>
<polygon fill="none" stroke="black" stroke-width="2" points="9,-5 9,-377 171,-377 171,-5 9,-5"/>
</a>
</g>
</g>
</g>
</svg>
