<?xml version="1.0" encoding="UTF-8" standalone="no"?>
<!DOCTYPE svg PUBLIC "-//W3C//DTD SVG 1.1//EN"
 "http://www.w3.org/Graphics/SVG/1.1/DTD/svg11.dtd">
<!-- Generated by graphviz version 2.43.0 (0)
 -->
<!-- Title: querytable Pages: 1 -->
<svg width="267pt" height="500pt"
 viewBox="0.00 0.00 267.00 500.00" xmlns="http://www.w3.org/2000/svg" xmlns:xlink="http://www.w3.org/1999/xlink">
<g id="graph0" class="graph" transform="scale(1 1) rotate(0) translate(4 496)">
<title>querytable</title>
<polygon fill="#ffffff" stroke="transparent" points="-4,4 -4,-496 263,-496 263,4 -4,4"/>
<!-- querytable -->
<g id="node1" class="node">
<title>querytable</title>
<g id="a_node1"><a xlink:href="../../tables/querytable.html" xlink:title="querytable" target="_top">
<polygon fill="#ffffff" stroke="transparent" points="8,-4 8,-488 251,-488 251,-4 8,-4"/>
<polygon fill="#f5f5f5" stroke="transparent" points="10.5,-464 10.5,-486 249.5,-486 249.5,-464 10.5,-464"/>
<polygon fill="none" stroke="black" points="10.5,-464 10.5,-486 249.5,-486 249.5,-464 10.5,-464"/>
<text text-anchor="start" x="15.5" y="-473.2" font-family="Helvetica,sans-Serif" font-weight="bold" font-size="11.00">querytable</text>
<text text-anchor="start" x="214.5" y="-472.2" font-family="Helvetica,sans-Serif" font-size="11.00">[table]</text>
<polygon fill="#ffffff" stroke="transparent" points="10.5,-442 10.5,-464 125.5,-464 125.5,-442 10.5,-442"/>
<polygon fill="none" stroke="black" points="10.5,-442 10.5,-464 125.5,-464 125.5,-442 10.5,-442"/>
<text text-anchor="start" x="30.5" y="-450.2" font-family="Helvetica,sans-Serif" font-size="11.00">siteid</text>
<polygon fill="none" stroke="black" points="125.5,-442 125.5,-464 249.5,-464 249.5,-442 125.5,-442"/>
<text text-anchor="start" x="128.5" y="-450.2" font-family="Helvetica,sans-Serif" font-size="11.00">int4[10]</text>
<polygon fill="#ffffff" stroke="transparent" points="10.5,-420 10.5,-442 125.5,-442 125.5,-420 10.5,-420"/>
<polygon fill="none" stroke="black" points="10.5,-420 10.5,-442 125.5,-442 125.5,-420 10.5,-420"/>
<text text-anchor="start" x="30.5" y="-428.2" font-family="Helvetica,sans-Serif" font-size="11.00">sitename</text>
<polygon fill="none" stroke="black" points="125.5,-420 125.5,-442 249.5,-442 249.5,-420 125.5,-420"/>
<text text-anchor="start" x="128.5" y="-428.2" font-family="Helvetica,sans-Serif" font-size="11.00">varchar[128]</text>
<polygon fill="#ffffff" stroke="transparent" points="10.5,-398 10.5,-420 125.5,-420 125.5,-398 10.5,-398"/>
<polygon fill="none" stroke="black" points="10.5,-398 10.5,-420 125.5,-420 125.5,-398 10.5,-398"/>
<text text-anchor="start" x="30.5" y="-406.2" font-family="Helvetica,sans-Serif" font-size="11.00">datasetid</text>
<polygon fill="none" stroke="black" points="125.5,-398 125.5,-420 249.5,-420 249.5,-398 125.5,-398"/>
<text text-anchor="start" x="128.5" y="-406.2" font-family="Helvetica,sans-Serif" font-size="11.00">int4[10]</text>
<polygon fill="#ffffff" stroke="transparent" points="10.5,-376 10.5,-398 125.5,-398 125.5,-376 10.5,-376"/>
<polygon fill="none" stroke="black" points="10.5,-376 10.5,-398 125.5,-398 125.5,-376 10.5,-376"/>
<text text-anchor="start" x="30.5" y="-384.2" font-family="Helvetica,sans-Serif" font-size="11.00">chronologyid</text>
<polygon fill="none" stroke="black" points="125.5,-376 125.5,-398 249.5,-398 249.5,-376 125.5,-376"/>
<text text-anchor="start" x="128.5" y="-384.2" font-family="Helvetica,sans-Serif" font-size="11.00">int4[10]</text>
<polygon fill="#ffffff" stroke="transparent" points="10.5,-354 10.5,-376 125.5,-376 125.5,-354 10.5,-354"/>
<polygon fill="none" stroke="black" points="10.5,-354 10.5,-376 125.5,-376 125.5,-354 10.5,-354"/>
<text text-anchor="start" x="30.5" y="-362.2" font-family="Helvetica,sans-Serif" font-size="11.00">altitude</text>
<polygon fill="none" stroke="black" points="125.5,-354 125.5,-376 249.5,-376 249.5,-354 125.5,-354"/>
<text text-anchor="start" x="128.5" y="-362.2" font-family="Helvetica,sans-Serif" font-size="11.00">float8[17,17]</text>
<polygon fill="#ffffff" stroke="transparent" points="10.5,-332 10.5,-354 125.5,-354 125.5,-332 10.5,-332"/>
<polygon fill="none" stroke="black" points="10.5,-332 10.5,-354 125.5,-354 125.5,-332 10.5,-332"/>
<text text-anchor="start" x="30.5" y="-340.2" font-family="Helvetica,sans-Serif" font-size="11.00">datasettype</text>
<polygon fill="none" stroke="black" points="125.5,-332 125.5,-354 249.5,-354 249.5,-332 125.5,-332"/>
<text text-anchor="start" x="128.5" y="-340.2" font-family="Helvetica,sans-Serif" font-size="11.00">varchar[64]</text>
<polygon fill="none" stroke="black" points="10.5,-310 10.5,-332 125.5,-332 125.5,-310 10.5,-310"/>
<text text-anchor="start" x="30.5" y="-318.2" font-family="Helvetica,sans-Serif" font-size="11.00">databaseid</text>
<polygon fill="none" stroke="black" points="125.5,-310 125.5,-332 249.5,-332 249.5,-310 125.5,-310"/>
<text text-anchor="start" x="128.5" y="-318.2" font-family="Helvetica,sans-Serif" font-size="11.00">int4[10]</text>
<polygon fill="none" stroke="black" points="10.5,-288 10.5,-310 125.5,-310 125.5,-288 10.5,-288"/>
<text text-anchor="start" x="30.5" y="-296.2" font-family="Helvetica,sans-Serif" font-size="11.00">collectionunitid</text>
<polygon fill="none" stroke="black" points="125.5,-288 125.5,-310 249.5,-310 249.5,-288 125.5,-288"/>
<text text-anchor="start" x="128.5" y="-296.2" font-family="Helvetica,sans-Serif" font-size="11.00">int4[10]</text>
<polygon fill="none" stroke="black" points="10.5,-266 10.5,-288 125.5,-288 125.5,-266 10.5,-266"/>
<text text-anchor="start" x="30.5" y="-274.2" font-family="Helvetica,sans-Serif" font-size="11.00">colltype</text>
<polygon fill="none" stroke="black" points="125.5,-266 125.5,-288 249.5,-288 249.5,-266 125.5,-266"/>
<text text-anchor="start" x="128.5" y="-274.2" font-family="Helvetica,sans-Serif" font-size="11.00">varchar[64]</text>
<polygon fill="#ffffff" stroke="transparent" points="10.5,-244 10.5,-266 125.5,-266 125.5,-244 10.5,-244"/>
<polygon fill="none" stroke="black" points="10.5,-244 10.5,-266 125.5,-266 125.5,-244 10.5,-244"/>
<text text-anchor="start" x="30.5" y="-252.2" font-family="Helvetica,sans-Serif" font-size="11.00">depenvt</text>
<polygon fill="none" stroke="black" points="125.5,-244 125.5,-266 249.5,-266 249.5,-244 125.5,-244"/>
<text text-anchor="start" x="128.5" y="-252.2" font-family="Helvetica,sans-Serif" font-size="11.00">varchar[255]</text>
<polygon fill="#ffffff" stroke="transparent" points="10.5,-222 10.5,-244 125.5,-244 125.5,-222 10.5,-222"/>
<polygon fill="none" stroke="black" points="10.5,-222 10.5,-244 125.5,-244 125.5,-222 10.5,-222"/>
<text text-anchor="start" x="30.5" y="-230.2" font-family="Helvetica,sans-Serif" font-size="11.00">geog</text>
<polygon fill="none" stroke="black" points="125.5,-222 125.5,-244 249.5,-244 249.5,-222 125.5,-222"/>
<text text-anchor="start" x="128.5" y="-230.2" font-family="Helvetica,sans-Serif" font-size="11.00">geography[2147483647]</text>
<polygon fill="#ffffff" stroke="transparent" points="10.5,-200 10.5,-222 125.5,-222 125.5,-200 10.5,-200"/>
<polygon fill="none" stroke="black" points="10.5,-200 10.5,-222 125.5,-222 125.5,-200 10.5,-200"/>
<text text-anchor="start" x="30.5" y="-208.2" font-family="Helvetica,sans-Serif" font-size="11.00">older</text>
<polygon fill="none" stroke="black" points="125.5,-200 125.5,-222 249.5,-222 249.5,-200 125.5,-200"/>
<text text-anchor="start" x="128.5" y="-208.2" font-family="Helvetica,sans-Serif" font-size="11.00">float8[17,17]</text>
<polygon fill="#ffffff" stroke="transparent" points="10.5,-178 10.5,-200 125.5,-200 125.5,-178 10.5,-178"/>
<polygon fill="none" stroke="black" points="10.5,-178 10.5,-200 125.5,-200 125.5,-178 10.5,-178"/>
<text text-anchor="start" x="30.5" y="-186.2" font-family="Helvetica,sans-Serif" font-size="11.00">younger</text>
<polygon fill="none" stroke="black" points="125.5,-178 125.5,-200 249.5,-200 249.5,-178 125.5,-178"/>
<text text-anchor="start" x="128.5" y="-186.2" font-family="Helvetica,sans-Serif" font-size="11.00">float8[17,17]</text>
<polygon fill="#ffffff" stroke="transparent" points="10.5,-156 10.5,-178 125.5,-178 125.5,-156 10.5,-156"/>
<polygon fill="none" stroke="black" points="10.5,-156 10.5,-178 125.5,-178 125.5,-156 10.5,-156"/>
<text text-anchor="start" x="30.5" y="-164.2" font-family="Helvetica,sans-Serif" font-size="11.00">agetype</text>
<polygon fill="none" stroke="black" points="125.5,-156 125.5,-178 249.5,-178 249.5,-156 125.5,-156"/>
<text text-anchor="start" x="128.5" y="-164.2" font-family="Helvetica,sans-Serif" font-size="11.00">varchar[64]</text>
<polygon fill="#ffffff" stroke="transparent" points="10.5,-134 10.5,-156 125.5,-156 125.5,-134 10.5,-134"/>
<polygon fill="none" stroke="black" points="10.5,-134 10.5,-156 125.5,-156 125.5,-134 10.5,-134"/>
<text text-anchor="start" x="30.5" y="-142.2" font-family="Helvetica,sans-Serif" font-size="11.00">publications</text>
<polygon fill="none" stroke="black" points="125.5,-134 125.5,-156 249.5,-156 249.5,-134 125.5,-134"/>
<text text-anchor="start" x="128.5" y="-142.2" font-family="Helvetica,sans-Serif" font-size="11.00">_int4[10]</text>
<polygon fill="#ffffff" stroke="transparent" points="10.5,-112 10.5,-134 125.5,-134 125.5,-112 10.5,-112"/>
<polygon fill="none" stroke="black" points="10.5,-112 10.5,-134 125.5,-134 125.5,-112 10.5,-112"/>
<text text-anchor="start" x="30.5" y="-120.2" font-family="Helvetica,sans-Serif" font-size="11.00">taxa</text>
<polygon fill="none" stroke="black" points="125.5,-112 125.5,-134 249.5,-134 249.5,-112 125.5,-112"/>
<text text-anchor="start" x="128.5" y="-120.2" font-family="Helvetica,sans-Serif" font-size="11.00">_int4[10]</text>
<polygon fill="#ffffff" stroke="transparent" points="10.5,-90 10.5,-112 125.5,-112 125.5,-90 10.5,-90"/>
<polygon fill="none" stroke="black" points="10.5,-90 10.5,-112 125.5,-112 125.5,-90 10.5,-90"/>
<text text-anchor="start" x="30.5" y="-98.2" font-family="Helvetica,sans-Serif" font-size="11.00">keywords</text>
<polygon fill="none" stroke="black" points="125.5,-90 125.5,-112 249.5,-112 249.5,-90 125.5,-90"/>
<text text-anchor="start" x="128.5" y="-98.2" font-family="Helvetica,sans-Serif" font-size="11.00">_int4[10]</text>
<polygon fill="#ffffff" stroke="transparent" points="10.5,-68 10.5,-90 125.5,-90 125.5,-68 10.5,-68"/>
<polygon fill="none" stroke="black" points="10.5,-68 10.5,-90 125.5,-90 125.5,-68 10.5,-68"/>
<text text-anchor="start" x="30.5" y="-76.2" font-family="Helvetica,sans-Serif" font-size="11.00">contacts</text>
<polygon fill="none" stroke="black" points="125.5,-68 125.5,-90 249.5,-90 249.5,-68 125.5,-68"/>
<text text-anchor="start" x="128.5" y="-76.2" font-family="Helvetica,sans-Serif" font-size="11.00">_int4[10]</text>
<polygon fill="none" stroke="black" points="10.5,-46 10.5,-68 125.5,-68 125.5,-46 10.5,-46"/>
<text text-anchor="start" x="30.5" y="-54.2" font-family="Helvetica,sans-Serif" font-size="11.00">collectionunit</text>
<polygon fill="none" stroke="black" points="125.5,-46 125.5,-68 249.5,-68 249.5,-46 125.5,-46"/>
<text text-anchor="start" x="128.5" y="-54.2" font-family="Helvetica,sans-Serif" font-size="11.00">jsonb[2147483647]</text>
<polygon fill="#ffffff" stroke="transparent" points="10.5,-24 10.5,-46 125.5,-46 125.5,-24 10.5,-24"/>
<polygon fill="none" stroke="black" points="10.5,-24 10.5,-46 125.5,-46 125.5,-24 10.5,-24"/>
<text text-anchor="start" x="30.5" y="-32.2" font-family="Helvetica,sans-Serif" font-size="11.00">geopol</text>
<polygon fill="none" stroke="black" points="125.5,-24 125.5,-46 249.5,-46 249.5,-24 125.5,-24"/>
<text text-anchor="start" x="128.5" y="-32.2" font-family="Helvetica,sans-Serif" font-size="11.00">_int4[10]</text>
<polygon fill="#ffffff" stroke="transparent" points="10.5,-6 10.5,-24 42.5,-24 42.5,-6 10.5,-6"/>
<polygon fill="none" stroke="black" points="10.5,-6 10.5,-24 42.5,-24 42.5,-6 10.5,-6"/>
<text text-anchor="start" x="13.5" y="-12.2" font-family="Helvetica,sans-Serif" font-size="11.00">&lt; 0</text>
<polygon fill="#ffffff" stroke="transparent" points="42.5,-6 42.5,-24 125.5,-24 125.5,-6 42.5,-6"/>
<polygon fill="none" stroke="black" points="42.5,-6 42.5,-24 125.5,-24 125.5,-6 42.5,-6"/>
<text text-anchor="start" x="56.5" y="-12.2" font-family="Helvetica,sans-Serif" font-size="11.00">260,448 rows</text>
<polygon fill="#ffffff" stroke="transparent" points="125.5,-6 125.5,-24 249.5,-24 249.5,-6 125.5,-6"/>
<polygon fill="none" stroke="black" points="125.5,-6 125.5,-24 249.5,-24 249.5,-6 125.5,-6"/>
<text text-anchor="start" x="230.5" y="-12.2" font-family="Helvetica,sans-Serif" font-size="11.00">0 &gt;</text>
<polygon fill="none" stroke="black" stroke-width="2" points="9,-5 9,-487 250,-487 250,-5 9,-5"/>
</a>
</g>
</g>
</g>
</svg>
