<?xml version="1.0" encoding="UTF-8" standalone="no"?>
<!DOCTYPE svg PUBLIC "-//W3C//DTD SVG 1.1//EN"
 "http://www.w3.org/Graphics/SVG/1.1/DTD/svg11.dtd">
<!-- Generated by graphviz version 2.43.0 (0)
 -->
<!-- Title: summaries Pages: 1 -->
<svg width="172pt" height="170pt"
 viewBox="0.00 0.00 172.00 170.00" xmlns="http://www.w3.org/2000/svg" xmlns:xlink="http://www.w3.org/1999/xlink">
<g id="graph0" class="graph" transform="scale(1 1) rotate(0) translate(4 166)">
<title>summaries</title>
<polygon fill="#ffffff" stroke="transparent" points="-4,4 -4,-166 168,-166 168,4 -4,4"/>
<!-- summaries -->
<g id="node1" class="node">
<title>summaries</title>
<g id="a_node1"><a xlink:href="../../tables/summaries.html" xlink:title="summaries" target="_top">
<polygon fill="#ffffff" stroke="transparent" points="8,-4 8,-158 156,-158 156,-4 8,-4"/>
<polygon fill="#f5f5f5" stroke="transparent" points="10,-134 10,-156 154,-156 154,-134 10,-134"/>
<polygon fill="none" stroke="black" points="10,-134 10,-156 154,-156 154,-134 10,-134"/>
<text text-anchor="start" x="15" y="-143.2" font-family="Helvetica,sans-Serif" font-weight="bold" font-size="11.00">summaries</text>
<text text-anchor="start" x="119" y="-142.2" font-family="Helvetica,sans-Serif" font-size="11.00">[table]</text>
<polygon fill="none" stroke="black" points="10,-112 10,-134 108,-134 108,-112 10,-112"/>
<image xlink:href="../../images/primaryKeys.png" width="11px" height="12px" preserveAspectRatio="xMinYMin meet" x="15" y="-129"/>
<text text-anchor="start" x="30" y="-120.2" font-family="Helvetica,sans-Serif" font-size="11.00">dbdate</text>
<polygon fill="none" stroke="black" points="108,-112 108,-134 154,-134 154,-112 108,-112"/>
<text text-anchor="start" x="111" y="-120.2" font-family="Helvetica,sans-Serif" font-size="11.00">date[13]</text>
<polygon fill="none" stroke="black" points="10,-90 10,-112 108,-112 108,-90 10,-90"/>
<text text-anchor="start" x="30" y="-98.2" font-family="Helvetica,sans-Serif" font-size="11.00">sites</text>
<polygon fill="none" stroke="black" points="108,-90 108,-112 154,-112 154,-90 108,-90"/>
<text text-anchor="start" x="111" y="-98.2" font-family="Helvetica,sans-Serif" font-size="11.00">int8[19]</text>
<polygon fill="none" stroke="black" points="10,-68 10,-90 108,-90 108,-68 10,-68"/>
<text text-anchor="start" x="30" y="-76.2" font-family="Helvetica,sans-Serif" font-size="11.00">datasets</text>
<polygon fill="none" stroke="black" points="108,-68 108,-90 154,-90 154,-68 108,-68"/>
<text text-anchor="start" x="111" y="-76.2" font-family="Helvetica,sans-Serif" font-size="11.00">int8[19]</text>
<polygon fill="none" stroke="black" points="10,-46 10,-68 108,-68 108,-46 10,-46"/>
<text text-anchor="start" x="30" y="-54.2" font-family="Helvetica,sans-Serif" font-size="11.00">publications</text>
<polygon fill="none" stroke="black" points="108,-46 108,-68 154,-68 154,-46 108,-46"/>
<text text-anchor="start" x="111" y="-54.2" font-family="Helvetica,sans-Serif" font-size="11.00">int8[19]</text>
<polygon fill="none" stroke="black" points="10,-24 10,-46 108,-46 108,-24 10,-24"/>
<text text-anchor="start" x="30" y="-32.2" font-family="Helvetica,sans-Serif" font-size="11.00">observations</text>
<polygon fill="none" stroke="black" points="108,-24 108,-46 154,-46 154,-24 108,-24"/>
<text text-anchor="start" x="111" y="-32.2" font-family="Helvetica,sans-Serif" font-size="11.00">int8[19]</text>
<polygon fill="#ffffff" stroke="transparent" points="10,-6 10,-24 40,-24 40,-6 10,-6"/>
<polygon fill="none" stroke="black" points="10,-6 10,-24 40,-24 40,-6 10,-6"/>
<text text-anchor="start" x="13" y="-12.2" font-family="Helvetica,sans-Serif" font-size="11.00">&lt; 0</text>
<polygon fill="#ffffff" stroke="transparent" points="40,-6 40,-24 108,-24 108,-6 40,-6"/>
<polygon fill="none" stroke="black" points="40,-6 40,-24 108,-24 108,-6 40,-6"/>
<text text-anchor="start" x="51" y="-12.2" font-family="Helvetica,sans-Serif" font-size="11.00">2,011 rows</text>
<polygon fill="#ffffff" stroke="transparent" points="108,-6 108,-24 154,-24 154,-6 108,-6"/>
<polygon fill="none" stroke="black" points="108,-6 108,-24 154,-24 154,-6 108,-6"/>
<text text-anchor="start" x="135" y="-12.2" font-family="Helvetica,sans-Serif" font-size="11.00">0 &gt;</text>
<polygon fill="none" stroke="black" stroke-width="2" points="9,-5 9,-157 155,-157 155,-5 9,-5"/>
</a>
</g>
</g>
</g>
</svg>
