<?xml version="1.0" encoding="UTF-8" standalone="no"?>
<!DOCTYPE svg PUBLIC "-//W3C//DTD SVG 1.1//EN"
 "http://www.w3.org/Graphics/SVG/1.1/DTD/svg11.dtd">
<!-- Generated by graphviz version 2.43.0 (0)
 -->
<!-- Title: compactImpliedRelationshipsDiagram Pages: 1 -->
<svg width="300pt" height="151pt"
 viewBox="0.00 0.00 300.00 151.00" xmlns="http://www.w3.org/2000/svg" xmlns:xlink="http://www.w3.org/1999/xlink">
<g id="graph0" class="graph" transform="scale(1 1) rotate(0) translate(4 147)">
<title>compactImpliedRelationshipsDiagram</title>
<polygon fill="#ffffff" stroke="transparent" points="-4,4 -4,-147 296,-147 296,4 -4,4"/>
<text text-anchor="middle" x="71.5" y="-7.2" font-family="Helvetica,sans-Serif" font-size="11.00">Generated by SchemaSpy</text>
<!-- gadm_410 -->
<g id="node1" class="node">
<title>gadm_410</title>
<g id="a_node1"><a xlink:href="../../tables/gadm_410.html" xlink:title="gadm_410" target="_top">
<polygon fill="#ffffff" stroke="transparent" points="8,-37 8,-139 142,-139 142,-37 8,-37"/>
<polygon fill="#f5f5f5" stroke="transparent" points="8,-117 8,-139 142,-139 142,-117 8,-117"/>
<polygon fill="none" stroke="black" points="8,-117 8,-139 142,-139 142,-117 8,-117"/>
<text text-anchor="start" x="13" y="-126.2" font-family="Helvetica,sans-Serif" font-weight="bold" font-size="11.00">gadm_410</text>
<text text-anchor="start" x="107" y="-125.2" font-family="Helvetica,sans-Serif" font-size="11.00">[table]</text>
<polygon fill="none" stroke="black" points="8,-95 8,-117 142,-117 142,-95 8,-95"/>
<image xlink:href="../../images/primaryKeys.png" width="11px" height="12px" preserveAspectRatio="xMinYMin meet" x="13" y="-112"/>
<text text-anchor="start" x="28" y="-103.2" font-family="Helvetica,sans-Serif" font-size="11.00">fid</text>
<polygon fill="#ffffff" stroke="transparent" points="8,-73 8,-95 142,-95 142,-73 8,-73"/>
<polygon fill="none" stroke="black" points="8,-73 8,-95 142,-95 142,-73 8,-73"/>
<text text-anchor="start" x="28" y="-81.2" font-family="Helvetica,sans-Serif" font-size="11.00">geom</text>
<polygon fill="none" stroke="black" points="8,-55 8,-73 142,-73 142,-55 8,-55"/>
<text text-anchor="start" x="11" y="-61.2" font-family="Helvetica,sans-Serif" font-size="11.00">...</text>
<polygon fill="#ffffff" stroke="transparent" points="8,-37 8,-55 39,-55 39,-37 8,-37"/>
<polygon fill="none" stroke="black" points="8,-37 8,-55 39,-55 39,-37 8,-37"/>
<text text-anchor="start" x="11" y="-43.2" font-family="Helvetica,sans-Serif" font-size="11.00"> &#160;</text>
<polygon fill="#ffffff" stroke="transparent" points="39,-37 39,-55 120,-55 120,-37 39,-37"/>
<polygon fill="none" stroke="black" points="39,-37 39,-55 120,-55 120,-37 39,-37"/>
<text text-anchor="start" x="51" y="-43.2" font-family="Helvetica,sans-Serif" font-size="11.00">356,508 rows</text>
<polygon fill="#ffffff" stroke="transparent" points="120,-37 120,-55 142,-55 142,-37 120,-37"/>
<polygon fill="none" stroke="black" points="120,-37 120,-55 142,-55 142,-37 120,-37"/>
<text text-anchor="start" x="132" y="-43.2" font-family="Helvetica,sans-Serif" font-size="11.00"> &#160;</text>
</a>
</g>
</g>
<!-- sitegadm -->
<g id="node2" class="node">
<title>sitegadm</title>
<g id="a_node2"><a xlink:href="../../tables/sitegadm.html" xlink:title="sitegadm" target="_top">
<polygon fill="#ffffff" stroke="transparent" points="191,-59 191,-139 284,-139 284,-59 191,-59"/>
<polygon fill="#f5f5f5" stroke="transparent" points="191.5,-117 191.5,-139 284.5,-139 284.5,-117 191.5,-117"/>
<polygon fill="none" stroke="black" points="191.5,-117 191.5,-139 284.5,-139 284.5,-117 191.5,-117"/>
<text text-anchor="start" x="196.5" y="-126.2" font-family="Helvetica,sans-Serif" font-weight="bold" font-size="11.00">sitegadm</text>
<text text-anchor="start" x="249.5" y="-125.2" font-family="Helvetica,sans-Serif" font-size="11.00">[table]</text>
<polygon fill="none" stroke="black" points="191.5,-95 191.5,-117 284.5,-117 284.5,-95 191.5,-95"/>
<image xlink:href="../../images/foreignKeys.png" width="11px" height="12px" preserveAspectRatio="xMinYMin meet" x="196.5" y="-112"/>
<text text-anchor="start" x="219.5" y="-103.2" font-family="Helvetica,sans-Serif" font-size="11.00">fid</text>
<polygon fill="none" stroke="black" points="191.5,-77 191.5,-95 284.5,-95 284.5,-77 191.5,-77"/>
<text text-anchor="start" x="194.5" y="-83.2" font-family="Helvetica,sans-Serif" font-size="11.00">...</text>
<polygon fill="#ffffff" stroke="transparent" points="191.5,-59 191.5,-77 204.5,-77 204.5,-59 191.5,-59"/>
<polygon fill="none" stroke="black" points="191.5,-59 191.5,-77 204.5,-77 204.5,-59 191.5,-59"/>
<text text-anchor="start" x="194.5" y="-65.2" font-family="Helvetica,sans-Serif" font-size="11.00"> &#160;</text>
<polygon fill="#ffffff" stroke="transparent" points="204.5,-59 204.5,-77 270.5,-77 270.5,-59 204.5,-59"/>
<polygon fill="none" stroke="black" points="204.5,-59 204.5,-77 270.5,-77 270.5,-59 204.5,-59"/>
<text text-anchor="start" x="207.5" y="-65.2" font-family="Helvetica,sans-Serif" font-size="11.00">19,878 rows</text>
<polygon fill="#ffffff" stroke="transparent" points="270.5,-59 270.5,-77 284.5,-77 284.5,-59 270.5,-59"/>
<polygon fill="none" stroke="black" points="270.5,-59 270.5,-77 284.5,-77 284.5,-59 270.5,-59"/>
<text text-anchor="start" x="274.5" y="-65.2" font-family="Helvetica,sans-Serif" font-size="11.00"> &#160;</text>
</a>
</g>
</g>
<!-- sitegadm&#45;&gt;gadm_410 -->
<g id="edge1" class="edge">
<title>sitegadm:w&#45;&gt;gadm_410:e</title>
<path fill="none" stroke="black" stroke-dasharray="5,2" d="M176.09,-106C165.32,-106 158.34,-106 143,-106"/>
<polygon fill="black" stroke="black" points="182.5,-106 190.5,-109.6 186.5,-106 190.5,-106 190.5,-106 190.5,-106 186.5,-106 190.5,-102.4 182.5,-106 182.5,-106"/>
<ellipse fill="none" stroke="black" cx="179.3" cy="-106" rx="3.2" ry="3.2"/>
</g>
</g>
</svg>
