<?xml version="1.0" encoding="UTF-8" standalone="no"?>
<!DOCTYPE svg PUBLIC "-//W3C//DTD SVG 1.1//EN"
 "http://www.w3.org/Graphics/SVG/1.1/DTD/svg11.dtd">
<!-- Generated by graphviz version 2.43.0 (0)
 -->
<!-- Title: largeImpliedRelationshipsDiagram Pages: 1 -->
<svg width="300pt" height="1343pt"
 viewBox="0.00 0.00 300.00 1343.00" xmlns="http://www.w3.org/2000/svg" xmlns:xlink="http://www.w3.org/1999/xlink">
<g id="graph0" class="graph" transform="scale(1 1) rotate(0) translate(4 1339)">
<title>largeImpliedRelationshipsDiagram</title>
<polygon fill="#ffffff" stroke="transparent" points="-4,4 -4,-1339 296,-1339 296,4 -4,4"/>
<text text-anchor="middle" x="71.5" y="-7.2" font-family="Helvetica,sans-Serif" font-size="11.00">Generated by SchemaSpy</text>
<!-- gadm_410 -->
<g id="node1" class="node">
<title>gadm_410</title>
<g id="a_node1"><a xlink:href="../../tables/gadm_410.html" xlink:title="gadm_410" target="_top">
<polygon fill="#ffffff" stroke="transparent" points="8,-37 8,-1309 142,-1309 142,-37 8,-37"/>
<polygon fill="#f5f5f5" stroke="transparent" points="8,-1287 8,-1309 142,-1309 142,-1287 8,-1287"/>
<polygon fill="none" stroke="black" points="8,-1287 8,-1309 142,-1309 142,-1287 8,-1287"/>
<text text-anchor="start" x="13" y="-1296.2" font-family="Helvetica,sans-Serif" font-weight="bold" font-size="11.00">gadm_410</text>
<text text-anchor="start" x="107" y="-1295.2" font-family="Helvetica,sans-Serif" font-size="11.00">[table]</text>
<polygon fill="none" stroke="black" points="8,-1265 8,-1287 142,-1287 142,-1265 8,-1265"/>
<image xlink:href="../../images/primaryKeys.png" width="11px" height="12px" preserveAspectRatio="xMinYMin meet" x="13" y="-1282"/>
<text text-anchor="start" x="28" y="-1273.2" font-family="Helvetica,sans-Serif" font-size="11.00">fid</text>
<polygon fill="none" stroke="black" points="8,-1243 8,-1265 142,-1265 142,-1243 8,-1243"/>
<text text-anchor="start" x="28" y="-1251.2" font-family="Helvetica,sans-Serif" font-size="11.00">uid</text>
<polygon fill="none" stroke="black" points="8,-1221 8,-1243 142,-1243 142,-1221 8,-1221"/>
<text text-anchor="start" x="28" y="-1229.2" font-family="Helvetica,sans-Serif" font-size="11.00">gid_0</text>
<polygon fill="none" stroke="black" points="8,-1199 8,-1221 142,-1221 142,-1199 8,-1199"/>
<text text-anchor="start" x="28" y="-1207.2" font-family="Helvetica,sans-Serif" font-size="11.00">name_0</text>
<polygon fill="none" stroke="black" points="8,-1177 8,-1199 142,-1199 142,-1177 8,-1177"/>
<text text-anchor="start" x="28" y="-1185.2" font-family="Helvetica,sans-Serif" font-size="11.00">varname_0</text>
<polygon fill="none" stroke="black" points="8,-1155 8,-1177 142,-1177 142,-1155 8,-1155"/>
<text text-anchor="start" x="28" y="-1163.2" font-family="Helvetica,sans-Serif" font-size="11.00">gid_1</text>
<polygon fill="none" stroke="black" points="8,-1133 8,-1155 142,-1155 142,-1133 8,-1133"/>
<text text-anchor="start" x="28" y="-1141.2" font-family="Helvetica,sans-Serif" font-size="11.00">name_1</text>
<polygon fill="none" stroke="black" points="8,-1111 8,-1133 142,-1133 142,-1111 8,-1111"/>
<text text-anchor="start" x="28" y="-1119.2" font-family="Helvetica,sans-Serif" font-size="11.00">varname_1</text>
<polygon fill="none" stroke="black" points="8,-1089 8,-1111 142,-1111 142,-1089 8,-1089"/>
<text text-anchor="start" x="28" y="-1097.2" font-family="Helvetica,sans-Serif" font-size="11.00">nl_name_1</text>
<polygon fill="none" stroke="black" points="8,-1067 8,-1089 142,-1089 142,-1067 8,-1067"/>
<text text-anchor="start" x="28" y="-1075.2" font-family="Helvetica,sans-Serif" font-size="11.00">iso_1</text>
<polygon fill="none" stroke="black" points="8,-1045 8,-1067 142,-1067 142,-1045 8,-1045"/>
<text text-anchor="start" x="28" y="-1053.2" font-family="Helvetica,sans-Serif" font-size="11.00">hasc_1</text>
<polygon fill="none" stroke="black" points="8,-1023 8,-1045 142,-1045 142,-1023 8,-1023"/>
<text text-anchor="start" x="28" y="-1031.2" font-family="Helvetica,sans-Serif" font-size="11.00">cc_1</text>
<polygon fill="none" stroke="black" points="8,-1001 8,-1023 142,-1023 142,-1001 8,-1001"/>
<text text-anchor="start" x="28" y="-1009.2" font-family="Helvetica,sans-Serif" font-size="11.00">type_1</text>
<polygon fill="none" stroke="black" points="8,-979 8,-1001 142,-1001 142,-979 8,-979"/>
<text text-anchor="start" x="28" y="-987.2" font-family="Helvetica,sans-Serif" font-size="11.00">engtype_1</text>
<polygon fill="none" stroke="black" points="8,-957 8,-979 142,-979 142,-957 8,-957"/>
<text text-anchor="start" x="28" y="-965.2" font-family="Helvetica,sans-Serif" font-size="11.00">validfr_1</text>
<polygon fill="none" stroke="black" points="8,-935 8,-957 142,-957 142,-935 8,-935"/>
<text text-anchor="start" x="28" y="-943.2" font-family="Helvetica,sans-Serif" font-size="11.00">gid_2</text>
<polygon fill="none" stroke="black" points="8,-913 8,-935 142,-935 142,-913 8,-913"/>
<text text-anchor="start" x="28" y="-921.2" font-family="Helvetica,sans-Serif" font-size="11.00">name_2</text>
<polygon fill="none" stroke="black" points="8,-891 8,-913 142,-913 142,-891 8,-891"/>
<text text-anchor="start" x="28" y="-899.2" font-family="Helvetica,sans-Serif" font-size="11.00">varname_2</text>
<polygon fill="none" stroke="black" points="8,-869 8,-891 142,-891 142,-869 8,-869"/>
<text text-anchor="start" x="28" y="-877.2" font-family="Helvetica,sans-Serif" font-size="11.00">nl_name_2</text>
<polygon fill="none" stroke="black" points="8,-847 8,-869 142,-869 142,-847 8,-847"/>
<text text-anchor="start" x="28" y="-855.2" font-family="Helvetica,sans-Serif" font-size="11.00">hasc_2</text>
<polygon fill="none" stroke="black" points="8,-825 8,-847 142,-847 142,-825 8,-825"/>
<text text-anchor="start" x="28" y="-833.2" font-family="Helvetica,sans-Serif" font-size="11.00">cc_2</text>
<polygon fill="none" stroke="black" points="8,-803 8,-825 142,-825 142,-803 8,-803"/>
<text text-anchor="start" x="28" y="-811.2" font-family="Helvetica,sans-Serif" font-size="11.00">type_2</text>
<polygon fill="none" stroke="black" points="8,-781 8,-803 142,-803 142,-781 8,-781"/>
<text text-anchor="start" x="28" y="-789.2" font-family="Helvetica,sans-Serif" font-size="11.00">engtype_2</text>
<polygon fill="none" stroke="black" points="8,-759 8,-781 142,-781 142,-759 8,-759"/>
<text text-anchor="start" x="28" y="-767.2" font-family="Helvetica,sans-Serif" font-size="11.00">validfr_2</text>
<polygon fill="none" stroke="black" points="8,-737 8,-759 142,-759 142,-737 8,-737"/>
<text text-anchor="start" x="28" y="-745.2" font-family="Helvetica,sans-Serif" font-size="11.00">gid_3</text>
<polygon fill="none" stroke="black" points="8,-715 8,-737 142,-737 142,-715 8,-715"/>
<text text-anchor="start" x="28" y="-723.2" font-family="Helvetica,sans-Serif" font-size="11.00">name_3</text>
<polygon fill="none" stroke="black" points="8,-693 8,-715 142,-715 142,-693 8,-693"/>
<text text-anchor="start" x="28" y="-701.2" font-family="Helvetica,sans-Serif" font-size="11.00">varname_3</text>
<polygon fill="none" stroke="black" points="8,-671 8,-693 142,-693 142,-671 8,-671"/>
<text text-anchor="start" x="28" y="-679.2" font-family="Helvetica,sans-Serif" font-size="11.00">nl_name_3</text>
<polygon fill="none" stroke="black" points="8,-649 8,-671 142,-671 142,-649 8,-649"/>
<text text-anchor="start" x="28" y="-657.2" font-family="Helvetica,sans-Serif" font-size="11.00">hasc_3</text>
<polygon fill="none" stroke="black" points="8,-627 8,-649 142,-649 142,-627 8,-627"/>
<text text-anchor="start" x="28" y="-635.2" font-family="Helvetica,sans-Serif" font-size="11.00">cc_3</text>
<polygon fill="none" stroke="black" points="8,-605 8,-627 142,-627 142,-605 8,-605"/>
<text text-anchor="start" x="28" y="-613.2" font-family="Helvetica,sans-Serif" font-size="11.00">type_3</text>
<polygon fill="none" stroke="black" points="8,-583 8,-605 142,-605 142,-583 8,-583"/>
<text text-anchor="start" x="28" y="-591.2" font-family="Helvetica,sans-Serif" font-size="11.00">engtype_3</text>
<polygon fill="none" stroke="black" points="8,-561 8,-583 142,-583 142,-561 8,-561"/>
<text text-anchor="start" x="28" y="-569.2" font-family="Helvetica,sans-Serif" font-size="11.00">validfr_3</text>
<polygon fill="none" stroke="black" points="8,-539 8,-561 142,-561 142,-539 8,-539"/>
<text text-anchor="start" x="28" y="-547.2" font-family="Helvetica,sans-Serif" font-size="11.00">gid_4</text>
<polygon fill="none" stroke="black" points="8,-517 8,-539 142,-539 142,-517 8,-517"/>
<text text-anchor="start" x="28" y="-525.2" font-family="Helvetica,sans-Serif" font-size="11.00">name_4</text>
<polygon fill="none" stroke="black" points="8,-495 8,-517 142,-517 142,-495 8,-495"/>
<text text-anchor="start" x="28" y="-503.2" font-family="Helvetica,sans-Serif" font-size="11.00">varname_4</text>
<polygon fill="none" stroke="black" points="8,-473 8,-495 142,-495 142,-473 8,-473"/>
<text text-anchor="start" x="28" y="-481.2" font-family="Helvetica,sans-Serif" font-size="11.00">cc_4</text>
<polygon fill="none" stroke="black" points="8,-451 8,-473 142,-473 142,-451 8,-451"/>
<text text-anchor="start" x="28" y="-459.2" font-family="Helvetica,sans-Serif" font-size="11.00">type_4</text>
<polygon fill="none" stroke="black" points="8,-429 8,-451 142,-451 142,-429 8,-429"/>
<text text-anchor="start" x="28" y="-437.2" font-family="Helvetica,sans-Serif" font-size="11.00">engtype_4</text>
<polygon fill="none" stroke="black" points="8,-407 8,-429 142,-429 142,-407 8,-407"/>
<text text-anchor="start" x="28" y="-415.2" font-family="Helvetica,sans-Serif" font-size="11.00">validfr_4</text>
<polygon fill="none" stroke="black" points="8,-385 8,-407 142,-407 142,-385 8,-385"/>
<text text-anchor="start" x="28" y="-393.2" font-family="Helvetica,sans-Serif" font-size="11.00">gid_5</text>
<polygon fill="none" stroke="black" points="8,-363 8,-385 142,-385 142,-363 8,-363"/>
<text text-anchor="start" x="28" y="-371.2" font-family="Helvetica,sans-Serif" font-size="11.00">name_5</text>
<polygon fill="none" stroke="black" points="8,-341 8,-363 142,-363 142,-341 8,-341"/>
<text text-anchor="start" x="28" y="-349.2" font-family="Helvetica,sans-Serif" font-size="11.00">cc_5</text>
<polygon fill="none" stroke="black" points="8,-319 8,-341 142,-341 142,-319 8,-319"/>
<text text-anchor="start" x="28" y="-327.2" font-family="Helvetica,sans-Serif" font-size="11.00">type_5</text>
<polygon fill="none" stroke="black" points="8,-297 8,-319 142,-319 142,-297 8,-297"/>
<text text-anchor="start" x="28" y="-305.2" font-family="Helvetica,sans-Serif" font-size="11.00">engtype_5</text>
<polygon fill="none" stroke="black" points="8,-275 8,-297 142,-297 142,-275 8,-275"/>
<text text-anchor="start" x="28" y="-283.2" font-family="Helvetica,sans-Serif" font-size="11.00">governedby</text>
<polygon fill="none" stroke="black" points="8,-253 8,-275 142,-275 142,-253 8,-253"/>
<text text-anchor="start" x="28" y="-261.2" font-family="Helvetica,sans-Serif" font-size="11.00">sovereign</text>
<polygon fill="none" stroke="black" points="8,-231 8,-253 142,-253 142,-231 8,-231"/>
<text text-anchor="start" x="28" y="-239.2" font-family="Helvetica,sans-Serif" font-size="11.00">disputedby</text>
<polygon fill="none" stroke="black" points="8,-209 8,-231 142,-231 142,-209 8,-209"/>
<text text-anchor="start" x="28" y="-217.2" font-family="Helvetica,sans-Serif" font-size="11.00">region</text>
<polygon fill="none" stroke="black" points="8,-187 8,-209 142,-209 142,-187 8,-187"/>
<text text-anchor="start" x="28" y="-195.2" font-family="Helvetica,sans-Serif" font-size="11.00">varregion</text>
<polygon fill="none" stroke="black" points="8,-165 8,-187 142,-187 142,-165 8,-165"/>
<text text-anchor="start" x="28" y="-173.2" font-family="Helvetica,sans-Serif" font-size="11.00">country</text>
<polygon fill="none" stroke="black" points="8,-143 8,-165 142,-165 142,-143 8,-143"/>
<text text-anchor="start" x="28" y="-151.2" font-family="Helvetica,sans-Serif" font-size="11.00">continent</text>
<polygon fill="none" stroke="black" points="8,-121 8,-143 142,-143 142,-121 8,-121"/>
<text text-anchor="start" x="28" y="-129.2" font-family="Helvetica,sans-Serif" font-size="11.00">subcont</text>
<polygon fill="none" stroke="black" points="8,-99 8,-121 142,-121 142,-99 8,-99"/>
<text text-anchor="start" x="28" y="-107.2" font-family="Helvetica,sans-Serif" font-size="11.00">compoundname</text>
<polygon fill="none" stroke="black" points="8,-77 8,-99 142,-99 142,-77 8,-77"/>
<text text-anchor="start" x="28" y="-85.2" font-family="Helvetica,sans-Serif" font-size="11.00">ts_compoundname</text>
<polygon fill="#ffffff" stroke="transparent" points="8,-55 8,-77 142,-77 142,-55 8,-55"/>
<polygon fill="none" stroke="black" points="8,-55 8,-77 142,-77 142,-55 8,-55"/>
<text text-anchor="start" x="28" y="-63.2" font-family="Helvetica,sans-Serif" font-size="11.00">geom</text>
<polygon fill="#ffffff" stroke="transparent" points="8,-37 8,-55 39,-55 39,-37 8,-37"/>
<polygon fill="none" stroke="black" points="8,-37 8,-55 39,-55 39,-37 8,-37"/>
<text text-anchor="start" x="11" y="-43.2" font-family="Helvetica,sans-Serif" font-size="11.00"> &#160;</text>
<polygon fill="#ffffff" stroke="transparent" points="39,-37 39,-55 120,-55 120,-37 39,-37"/>
<polygon fill="none" stroke="black" points="39,-37 39,-55 120,-55 120,-37 39,-37"/>
<text text-anchor="start" x="51" y="-43.2" font-family="Helvetica,sans-Serif" font-size="11.00">356,508 rows</text>
<polygon fill="#ffffff" stroke="transparent" points="120,-37 120,-55 142,-55 142,-37 120,-37"/>
<polygon fill="none" stroke="black" points="120,-37 120,-55 142,-55 142,-37 120,-37"/>
<text text-anchor="start" x="132" y="-43.2" font-family="Helvetica,sans-Serif" font-size="11.00"> &#160;</text>
</a>
</g>
</g>
<!-- sitegadm -->
<g id="node2" class="node">
<title>sitegadm</title>
<g id="a_node2"><a xlink:href="../../tables/sitegadm.html" xlink:title="sitegadm" target="_top">
<polygon fill="#ffffff" stroke="transparent" points="191,-1247 191,-1331 284,-1331 284,-1247 191,-1247"/>
<polygon fill="#f5f5f5" stroke="transparent" points="191.5,-1309 191.5,-1331 284.5,-1331 284.5,-1309 191.5,-1309"/>
<polygon fill="none" stroke="black" points="191.5,-1309 191.5,-1331 284.5,-1331 284.5,-1309 191.5,-1309"/>
<text text-anchor="start" x="196.5" y="-1318.2" font-family="Helvetica,sans-Serif" font-weight="bold" font-size="11.00">sitegadm</text>
<text text-anchor="start" x="249.5" y="-1317.2" font-family="Helvetica,sans-Serif" font-size="11.00">[table]</text>
<polygon fill="none" stroke="black" points="191.5,-1287 191.5,-1309 284.5,-1309 284.5,-1287 191.5,-1287"/>
<text text-anchor="start" x="219.5" y="-1295.2" font-family="Helvetica,sans-Serif" font-size="11.00">siteid</text>
<polygon fill="none" stroke="black" points="191.5,-1265 191.5,-1287 284.5,-1287 284.5,-1265 191.5,-1265"/>
<image xlink:href="../../images/foreignKeys.png" width="11px" height="12px" preserveAspectRatio="xMinYMin meet" x="196.5" y="-1282"/>
<text text-anchor="start" x="219.5" y="-1273.2" font-family="Helvetica,sans-Serif" font-size="11.00">fid</text>
<polygon fill="#ffffff" stroke="transparent" points="191.5,-1247 191.5,-1265 204.5,-1265 204.5,-1247 191.5,-1247"/>
<polygon fill="none" stroke="black" points="191.5,-1247 191.5,-1265 204.5,-1265 204.5,-1247 191.5,-1247"/>
<text text-anchor="start" x="194.5" y="-1253.2" font-family="Helvetica,sans-Serif" font-size="11.00"> &#160;</text>
<polygon fill="#ffffff" stroke="transparent" points="204.5,-1247 204.5,-1265 270.5,-1265 270.5,-1247 204.5,-1247"/>
<polygon fill="none" stroke="black" points="204.5,-1247 204.5,-1265 270.5,-1265 270.5,-1247 204.5,-1247"/>
<text text-anchor="start" x="207.5" y="-1253.2" font-family="Helvetica,sans-Serif" font-size="11.00">19,878 rows</text>
<polygon fill="#ffffff" stroke="transparent" points="270.5,-1247 270.5,-1265 284.5,-1265 284.5,-1247 270.5,-1247"/>
<polygon fill="none" stroke="black" points="270.5,-1247 270.5,-1265 284.5,-1265 284.5,-1247 270.5,-1247"/>
<text text-anchor="start" x="274.5" y="-1253.2" font-family="Helvetica,sans-Serif" font-size="11.00"> &#160;</text>
</a>
</g>
</g>
<!-- sitegadm&#45;&gt;gadm_410 -->
<g id="edge1" class="edge">
<title>sitegadm:w&#45;&gt;gadm_410:e</title>
<path fill="none" stroke="black" stroke-dasharray="5,2" d="M176.09,-1276C165.32,-1276 158.34,-1276 143,-1276"/>
<polygon fill="black" stroke="black" points="182.5,-1276 190.5,-1279.6 186.5,-1276 190.5,-1276 190.5,-1276 190.5,-1276 186.5,-1276 190.5,-1272.4 182.5,-1276 182.5,-1276"/>
<ellipse fill="none" stroke="black" cx="179.3" cy="-1276" rx="3.2" ry="3.2"/>
</g>
</g>
</svg>
