<?xml version="1.0" encoding="UTF-8" standalone="no"?>
<!DOCTYPE svg PUBLIC "-//W3C//DTD SVG 1.1//EN"
 "http://www.w3.org/Graphics/SVG/1.1/DTD/svg11.dtd">
<!-- Generated by graphviz version 2.43.0 (0)
 -->
<!-- Title: largeImpliedRelationshipsDiagram Pages: 1 -->
<svg width="293pt" height="309pt"
 viewBox="0.00 0.00 293.00 309.00" xmlns="http://www.w3.org/2000/svg" xmlns:xlink="http://www.w3.org/1999/xlink">
<g id="graph0" class="graph" transform="scale(1 1) rotate(0) translate(4 305)">
<title>largeImpliedRelationshipsDiagram</title>
<polygon fill="#ffffff" stroke="transparent" points="-4,4 -4,-305 289,-305 289,4 -4,4"/>
<text text-anchor="middle" x="71.5" y="-7.2" font-family="Helvetica,sans-Serif" font-size="11.00">Generated by SchemaSpy</text>
<!-- globalmammals -->
<g id="node1" class="node">
<title>globalmammals</title>
<g id="a_node1"><a xlink:href="../../tables/globalmammals.html" xlink:title="globalmammals" target="_top">
<polygon fill="#ffffff" stroke="transparent" points="8,-37 8,-275 135,-275 135,-37 8,-37"/>
<polygon fill="#f5f5f5" stroke="transparent" points="8.5,-253 8.5,-275 135.5,-275 135.5,-253 8.5,-253"/>
<polygon fill="none" stroke="black" points="8.5,-253 8.5,-275 135.5,-275 135.5,-253 8.5,-253"/>
<text text-anchor="start" x="13.5" y="-262.2" font-family="Helvetica,sans-Serif" font-weight="bold" font-size="11.00">globalmammals</text>
<text text-anchor="start" x="100.5" y="-261.2" font-family="Helvetica,sans-Serif" font-size="11.00">[table]</text>
<polygon fill="none" stroke="black" points="8.5,-231 8.5,-253 135.5,-253 135.5,-231 8.5,-231"/>
<image xlink:href="../../images/primaryKeys.png" width="11px" height="12px" preserveAspectRatio="xMinYMin meet" x="13.5" y="-248"/>
<text text-anchor="start" x="33.5" y="-239.2" font-family="Helvetica,sans-Serif" font-size="11.00">fid</text>
<polygon fill="none" stroke="black" points="8.5,-209 8.5,-231 135.5,-231 135.5,-209 8.5,-209"/>
<text text-anchor="start" x="33.5" y="-217.2" font-family="Helvetica,sans-Serif" font-size="11.00">sciname</text>
<polygon fill="none" stroke="black" points="8.5,-187 8.5,-209 135.5,-209 135.5,-187 8.5,-187"/>
<text text-anchor="start" x="33.5" y="-195.2" font-family="Helvetica,sans-Serif" font-size="11.00">order</text>
<polygon fill="none" stroke="black" points="8.5,-165 8.5,-187 135.5,-187 135.5,-165 8.5,-165"/>
<text text-anchor="start" x="33.5" y="-173.2" font-family="Helvetica,sans-Serif" font-size="11.00">family</text>
<polygon fill="none" stroke="black" points="8.5,-143 8.5,-165 135.5,-165 135.5,-143 8.5,-143"/>
<text text-anchor="start" x="33.5" y="-151.2" font-family="Helvetica,sans-Serif" font-size="11.00">author</text>
<polygon fill="none" stroke="black" points="8.5,-121 8.5,-143 135.5,-143 135.5,-121 8.5,-121"/>
<text text-anchor="start" x="33.5" y="-129.2" font-family="Helvetica,sans-Serif" font-size="11.00">year</text>
<polygon fill="none" stroke="black" points="8.5,-99 8.5,-121 135.5,-121 135.5,-99 8.5,-99"/>
<text text-anchor="start" x="33.5" y="-107.2" font-family="Helvetica,sans-Serif" font-size="11.00">citation</text>
<polygon fill="none" stroke="black" points="8.5,-77 8.5,-99 135.5,-99 135.5,-77 8.5,-77"/>
<text text-anchor="start" x="33.5" y="-85.2" font-family="Helvetica,sans-Serif" font-size="11.00">rec_source</text>
<polygon fill="#ffffff" stroke="transparent" points="8.5,-55 8.5,-77 135.5,-77 135.5,-55 8.5,-55"/>
<polygon fill="none" stroke="black" points="8.5,-55 8.5,-77 135.5,-77 135.5,-55 8.5,-55"/>
<text text-anchor="start" x="33.5" y="-63.2" font-family="Helvetica,sans-Serif" font-size="11.00">geom</text>
<polygon fill="#ffffff" stroke="transparent" points="8.5,-37 8.5,-55 41.5,-55 41.5,-37 8.5,-37"/>
<polygon fill="none" stroke="black" points="8.5,-37 8.5,-55 41.5,-55 41.5,-37 8.5,-37"/>
<text text-anchor="start" x="11.5" y="-43.2" font-family="Helvetica,sans-Serif" font-size="11.00"> &#160;</text>
<polygon fill="#ffffff" stroke="transparent" points="41.5,-37 41.5,-55 111.5,-55 111.5,-37 41.5,-37"/>
<polygon fill="none" stroke="black" points="41.5,-37 41.5,-55 111.5,-55 111.5,-37 41.5,-37"/>
<text text-anchor="start" x="54.5" y="-43.2" font-family="Helvetica,sans-Serif" font-size="11.00">6,022 rows</text>
<polygon fill="#ffffff" stroke="transparent" points="111.5,-37 111.5,-55 135.5,-55 135.5,-37 111.5,-37"/>
<polygon fill="none" stroke="black" points="111.5,-37 111.5,-55 135.5,-55 135.5,-37 111.5,-37"/>
<text text-anchor="start" x="125.5" y="-43.2" font-family="Helvetica,sans-Serif" font-size="11.00"> &#160;</text>
</a>
</g>
</g>
<!-- sitegadm -->
<g id="node2" class="node">
<title>sitegadm</title>
<g id="a_node2"><a xlink:href="../../tables/sitegadm.html" xlink:title="sitegadm" target="_top">
<polygon fill="#ffffff" stroke="transparent" points="184,-213 184,-297 277,-297 277,-213 184,-213"/>
<polygon fill="#f5f5f5" stroke="transparent" points="184.5,-275 184.5,-297 277.5,-297 277.5,-275 184.5,-275"/>
<polygon fill="none" stroke="black" points="184.5,-275 184.5,-297 277.5,-297 277.5,-275 184.5,-275"/>
<text text-anchor="start" x="189.5" y="-284.2" font-family="Helvetica,sans-Serif" font-weight="bold" font-size="11.00">sitegadm</text>
<text text-anchor="start" x="242.5" y="-283.2" font-family="Helvetica,sans-Serif" font-size="11.00">[table]</text>
<polygon fill="none" stroke="black" points="184.5,-253 184.5,-275 277.5,-275 277.5,-253 184.5,-253"/>
<text text-anchor="start" x="212.5" y="-261.2" font-family="Helvetica,sans-Serif" font-size="11.00">siteid</text>
<polygon fill="none" stroke="black" points="184.5,-231 184.5,-253 277.5,-253 277.5,-231 184.5,-231"/>
<image xlink:href="../../images/foreignKeys.png" width="11px" height="12px" preserveAspectRatio="xMinYMin meet" x="189.5" y="-248"/>
<text text-anchor="start" x="212.5" y="-239.2" font-family="Helvetica,sans-Serif" font-size="11.00">fid</text>
<polygon fill="#ffffff" stroke="transparent" points="184.5,-213 184.5,-231 197.5,-231 197.5,-213 184.5,-213"/>
<polygon fill="none" stroke="black" points="184.5,-213 184.5,-231 197.5,-231 197.5,-213 184.5,-213"/>
<text text-anchor="start" x="187.5" y="-219.2" font-family="Helvetica,sans-Serif" font-size="11.00"> &#160;</text>
<polygon fill="#ffffff" stroke="transparent" points="197.5,-213 197.5,-231 263.5,-231 263.5,-213 197.5,-213"/>
<polygon fill="none" stroke="black" points="197.5,-213 197.5,-231 263.5,-231 263.5,-213 197.5,-213"/>
<text text-anchor="start" x="200.5" y="-219.2" font-family="Helvetica,sans-Serif" font-size="11.00">19,878 rows</text>
<polygon fill="#ffffff" stroke="transparent" points="263.5,-213 263.5,-231 277.5,-231 277.5,-213 263.5,-213"/>
<polygon fill="none" stroke="black" points="263.5,-213 263.5,-231 277.5,-231 277.5,-213 263.5,-213"/>
<text text-anchor="start" x="267.5" y="-219.2" font-family="Helvetica,sans-Serif" font-size="11.00"> &#160;</text>
</a>
</g>
</g>
<!-- sitegadm&#45;&gt;globalmammals -->
<g id="edge1" class="edge">
<title>sitegadm:w&#45;&gt;globalmammals:e</title>
<path fill="none" stroke="black" stroke-dasharray="5,2" d="M168.9,-242C158.43,-242 151.51,-242 136.5,-242"/>
<polygon fill="black" stroke="black" points="175.5,-242 183.5,-245.6 179.5,-242 183.5,-242 183.5,-242 183.5,-242 179.5,-242 183.5,-238.4 175.5,-242 175.5,-242"/>
<ellipse fill="none" stroke="black" cx="172.3" cy="-242" rx="3.2" ry="3.2"/>
</g>
</g>
</svg>
