<?xml version="1.0" encoding="UTF-8" standalone="no"?>
<!DOCTYPE svg PUBLIC "-//W3C//DTD SVG 1.1//EN"
 "http://www.w3.org/Graphics/SVG/1.1/DTD/svg11.dtd">
<!-- Generated by graphviz version 2.43.0 (0)
 -->
<!-- Title: compactImpliedRelationshipsDiagram Pages: 1 -->
<svg width="293pt" height="151pt"
 viewBox="0.00 0.00 293.00 151.00" xmlns="http://www.w3.org/2000/svg" xmlns:xlink="http://www.w3.org/1999/xlink">
<g id="graph0" class="graph" transform="scale(1 1) rotate(0) translate(4 147)">
<title>compactImpliedRelationshipsDiagram</title>
<polygon fill="#ffffff" stroke="transparent" points="-4,4 -4,-147 289,-147 289,4 -4,4"/>
<text text-anchor="middle" x="71.5" y="-7.2" font-family="Helvetica,sans-Serif" font-size="11.00">Generated by SchemaSpy</text>
<!-- globalmammals -->
<g id="node1" class="node">
<title>globalmammals</title>
<g id="a_node1"><a xlink:href="../../tables/globalmammals.html" xlink:title="globalmammals" target="_top">
<polygon fill="#ffffff" stroke="transparent" points="8,-37 8,-139 135,-139 135,-37 8,-37"/>
<polygon fill="#f5f5f5" stroke="transparent" points="8.5,-117 8.5,-139 135.5,-139 135.5,-117 8.5,-117"/>
<polygon fill="none" stroke="black" points="8.5,-117 8.5,-139 135.5,-139 135.5,-117 8.5,-117"/>
<text text-anchor="start" x="13.5" y="-126.2" font-family="Helvetica,sans-Serif" font-weight="bold" font-size="11.00">globalmammals</text>
<text text-anchor="start" x="100.5" y="-125.2" font-family="Helvetica,sans-Serif" font-size="11.00">[table]</text>
<polygon fill="none" stroke="black" points="8.5,-95 8.5,-117 135.5,-117 135.5,-95 8.5,-95"/>
<image xlink:href="../../images/primaryKeys.png" width="11px" height="12px" preserveAspectRatio="xMinYMin meet" x="13.5" y="-112"/>
<text text-anchor="start" x="33.5" y="-103.2" font-family="Helvetica,sans-Serif" font-size="11.00">fid</text>
<polygon fill="#ffffff" stroke="transparent" points="8.5,-73 8.5,-95 135.5,-95 135.5,-73 8.5,-73"/>
<polygon fill="none" stroke="black" points="8.5,-73 8.5,-95 135.5,-95 135.5,-73 8.5,-73"/>
<text text-anchor="start" x="33.5" y="-81.2" font-family="Helvetica,sans-Serif" font-size="11.00">geom</text>
<polygon fill="none" stroke="black" points="8.5,-55 8.5,-73 135.5,-73 135.5,-55 8.5,-55"/>
<text text-anchor="start" x="11.5" y="-61.2" font-family="Helvetica,sans-Serif" font-size="11.00">...</text>
<polygon fill="#ffffff" stroke="transparent" points="8.5,-37 8.5,-55 41.5,-55 41.5,-37 8.5,-37"/>
<polygon fill="none" stroke="black" points="8.5,-37 8.5,-55 41.5,-55 41.5,-37 8.5,-37"/>
<text text-anchor="start" x="11.5" y="-43.2" font-family="Helvetica,sans-Serif" font-size="11.00"> &#160;</text>
<polygon fill="#ffffff" stroke="transparent" points="41.5,-37 41.5,-55 111.5,-55 111.5,-37 41.5,-37"/>
<polygon fill="none" stroke="black" points="41.5,-37 41.5,-55 111.5,-55 111.5,-37 41.5,-37"/>
<text text-anchor="start" x="54.5" y="-43.2" font-family="Helvetica,sans-Serif" font-size="11.00">6,022 rows</text>
<polygon fill="#ffffff" stroke="transparent" points="111.5,-37 111.5,-55 135.5,-55 135.5,-37 111.5,-37"/>
<polygon fill="none" stroke="black" points="111.5,-37 111.5,-55 135.5,-55 135.5,-37 111.5,-37"/>
<text text-anchor="start" x="125.5" y="-43.2" font-family="Helvetica,sans-Serif" font-size="11.00"> &#160;</text>
</a>
</g>
</g>
<!-- sitegadm -->
<g id="node2" class="node">
<title>sitegadm</title>
<g id="a_node2"><a xlink:href="../../tables/sitegadm.html" xlink:title="sitegadm" target="_top">
<polygon fill="#ffffff" stroke="transparent" points="184,-59 184,-139 277,-139 277,-59 184,-59"/>
<polygon fill="#f5f5f5" stroke="transparent" points="184.5,-117 184.5,-139 277.5,-139 277.5,-117 184.5,-117"/>
<polygon fill="none" stroke="black" points="184.5,-117 184.5,-139 277.5,-139 277.5,-117 184.5,-117"/>
<text text-anchor="start" x="189.5" y="-126.2" font-family="Helvetica,sans-Serif" font-weight="bold" font-size="11.00">sitegadm</text>
<text text-anchor="start" x="242.5" y="-125.2" font-family="Helvetica,sans-Serif" font-size="11.00">[table]</text>
<polygon fill="none" stroke="black" points="184.5,-95 184.5,-117 277.5,-117 277.5,-95 184.5,-95"/>
<image xlink:href="../../images/foreignKeys.png" width="11px" height="12px" preserveAspectRatio="xMinYMin meet" x="189.5" y="-112"/>
<text text-anchor="start" x="212.5" y="-103.2" font-family="Helvetica,sans-Serif" font-size="11.00">fid</text>
<polygon fill="none" stroke="black" points="184.5,-77 184.5,-95 277.5,-95 277.5,-77 184.5,-77"/>
<text text-anchor="start" x="187.5" y="-83.2" font-family="Helvetica,sans-Serif" font-size="11.00">...</text>
<polygon fill="#ffffff" stroke="transparent" points="184.5,-59 184.5,-77 197.5,-77 197.5,-59 184.5,-59"/>
<polygon fill="none" stroke="black" points="184.5,-59 184.5,-77 197.5,-77 197.5,-59 184.5,-59"/>
<text text-anchor="start" x="187.5" y="-65.2" font-family="Helvetica,sans-Serif" font-size="11.00"> &#160;</text>
<polygon fill="#ffffff" stroke="transparent" points="197.5,-59 197.5,-77 263.5,-77 263.5,-59 197.5,-59"/>
<polygon fill="none" stroke="black" points="197.5,-59 197.5,-77 263.5,-77 263.5,-59 197.5,-59"/>
<text text-anchor="start" x="200.5" y="-65.2" font-family="Helvetica,sans-Serif" font-size="11.00">19,878 rows</text>
<polygon fill="#ffffff" stroke="transparent" points="263.5,-59 263.5,-77 277.5,-77 277.5,-59 263.5,-59"/>
<polygon fill="none" stroke="black" points="263.5,-59 263.5,-77 277.5,-77 277.5,-59 263.5,-59"/>
<text text-anchor="start" x="267.5" y="-65.2" font-family="Helvetica,sans-Serif" font-size="11.00"> &#160;</text>
</a>
</g>
</g>
<!-- sitegadm&#45;&gt;globalmammals -->
<g id="edge1" class="edge">
<title>sitegadm:w&#45;&gt;globalmammals:e</title>
<path fill="none" stroke="black" stroke-dasharray="5,2" d="M168.9,-106C158.43,-106 151.51,-106 136.5,-106"/>
<polygon fill="black" stroke="black" points="175.5,-106 183.5,-109.6 179.5,-106 183.5,-106 183.5,-106 183.5,-106 179.5,-106 183.5,-102.4 175.5,-106 175.5,-106"/>
<ellipse fill="none" stroke="black" cx="172.3" cy="-106" rx="3.2" ry="3.2"/>
</g>
</g>
</svg>
